<?xml version="1.0" encoding="UTF-8" standalone="no"?>
<!DOCTYPE svg PUBLIC "-//W3C//DTD SVG 1.1//EN"
 "http://www.w3.org/Graphics/SVG/1.1/DTD/svg11.dtd">
<!-- Generated by graphviz version 2.43.0 (0)
 -->
<!-- Title: /home/runner/work/gauri/gauri/gauri/include/gauri/application.h Pages: 1 -->
<!--zoomable 364 -->
<svg id="main" version="1.1" xmlns="http://www.w3.org/2000/svg" xmlns:xlink="http://www.w3.org/1999/xlink" xml:space="preserve" onload="init(evt)">
<style type="text/css"><![CDATA[
.edge:hover path { stroke: red; }
.edge:hover polygon { stroke: red; fill: red; }
]]></style>
<script type="text/javascript"><![CDATA[
var edges = document.getElementsByTagName('g');
if (edges && edges.length) {
  for (var i=0;i<edges.length;i++) {
    if (edges[i].id.substr(0,4)=='edge') {
      edges[i].setAttribute('class','edge');
    }
  }
}
]]></script>
        <defs>
                <circle id="rim" cx="0" cy="0" r="7"/>
                <circle id="rim2" cx="0" cy="0" r="3.5"/>
                <g id="zoomPlus">
                        <use xlink:href="#rim" fill="#404040">
                                <set attributeName="fill" to="#808080" begin="zoomplus.mouseover" end="zoomplus.mouseout"/>
                        </use>
                        <path d="M-4,0h8M0,-4v8" fill="none" stroke="white" stroke-width="1.5" pointer-events="none"/>
                </g>
                <g id="zoomMin">
                        <use xlink:href="#rim" fill="#404040">
                                <set attributeName="fill" to="#808080" begin="zoomminus.mouseover" end="zoomminus.mouseout"/>
                        </use>
                        <path d="M-4,0h8" fill="none" stroke="white" stroke-width="1.5" pointer-events="none"/>
                </g>
                <g id="dirArrow">
                        <path fill="none" stroke="white" stroke-width="1.5" d="M0,-3.0v7 M-2.5,-0.5L0,-3.0L2.5,-0.5"/>
                </g>
               <g id="resetDef">
                       <use xlink:href="#rim2" fill="#404040">
                               <set attributeName="fill" to="#808080" begin="reset.mouseover" end="reset.mouseout"/>
                       </use>
               </g>
        </defs>

<script type="text/javascript">
var viewWidth = 668;
var viewHeight = 364;
var sectionId = 'dynsection-0';
</script>
<script xlink:href="svgpan.js"/>
<svg id="graph" class="graph">
<g id="viewport">
<title>/home/runner/work/gauri/gauri/gauri/include/gauri/application.h</title>
<polygon fill="white" stroke="transparent" points="-4,4 -4,-360 663.59,-360 663.59,4 -4,4"/>
<!-- Node1 -->
<g id="node1" class="node">
<title>Node1</title>
<g id="a_node1"><a xlink:title=" ">
<polygon fill="#bfbfbf" stroke="black" points="26.09,-336.5 26.09,-355.5 350.09,-355.5 350.09,-336.5 26.09,-336.5"/>
<text text-anchor="middle" x="188.09" y="-343.5" font-family="Helvetica,sans-Serif" font-size="10.00">/home/runner/work/gauri/gauri/gauri/include/gauri/application.h</text>
</a>
</g>
</g>
<!-- Node2 -->
<g id="node2" class="node">
<title>Node2</title>
<g id="a_node2"><a xlink:href="time__step_8h.html" target="_top" xlink:title=" ">
<polygon fill="white" stroke="black" points="230.09,-168.5 230.09,-187.5 356.09,-187.5 356.09,-168.5 230.09,-168.5"/>
<text text-anchor="middle" x="293.09" y="-175.5" font-family="Helvetica,sans-Serif" font-size="10.00">gauri/core/time_step.h</text>
</a>
</g>
</g>
<!-- Node1&#45;&gt;Node2 -->
<g id="edge1" class="edge">
<title>Node1&#45;&gt;Node2</title>
<path fill="none" stroke="midnightblue" d="M189.9,-336.28C192.74,-323.51 198.9,-299.16 208.09,-280 221.1,-252.88 226.67,-246.97 246.09,-224 254.91,-213.56 265.89,-202.94 275.02,-194.64"/>
<polygon fill="midnightblue" stroke="midnightblue" points="277.62,-197.01 282.76,-187.74 272.97,-191.78 277.62,-197.01"/>
</g>
<!-- Node3 -->
<g id="node3" class="node">
<title>Node3</title>
<g id="a_node3"><a xlink:href="event_8h.html" target="_top" xlink:title=" ">
<polygon fill="white" stroke="black" points="100.09,-168.5 100.09,-187.5 212.09,-187.5 212.09,-168.5 100.09,-168.5"/>
<text text-anchor="middle" x="156.09" y="-175.5" font-family="Helvetica,sans-Serif" font-size="10.00">gauri/event/event.h</text>
</a>
</g>
</g>
<!-- Node1&#45;&gt;Node3 -->
<g id="edge2" class="edge">
<title>Node1&#45;&gt;Node3</title>
<path fill="none" stroke="midnightblue" d="M185.01,-336.48C181.86,-327.51 177.04,-312.92 174.09,-300 165.92,-264.24 160.58,-221.65 157.97,-197.72"/>
<polygon fill="midnightblue" stroke="midnightblue" points="161.43,-197.17 156.91,-187.59 154.47,-197.9 161.43,-197.17"/>
</g>
<!-- Node14 -->
<g id="node14" class="node">
<title>Node14</title>
<g id="a_node14"><a xlink:href="imgui__layer_8h.html" target="_top" xlink:title=" ">
<polygon fill="white" stroke="black" points="216.59,-280.5 216.59,-299.5 357.59,-299.5 357.59,-280.5 216.59,-280.5"/>
<text text-anchor="middle" x="287.09" y="-287.5" font-family="Helvetica,sans-Serif" font-size="10.00">gauri/imgui/imgui_layer.h</text>
</a>
</g>
</g>
<!-- Node1&#45;&gt;Node14 -->
<g id="edge15" class="edge">
<title>Node1&#45;&gt;Node14</title>
<path fill="none" stroke="midnightblue" d="M203.99,-336.32C219.73,-327.74 244.03,-314.49 262.3,-304.52"/>
<polygon fill="midnightblue" stroke="midnightblue" points="264.12,-307.52 271.22,-299.65 260.77,-301.37 264.12,-307.52"/>
</g>
<!-- Node16 -->
<g id="node16" class="node">
<title>Node16</title>
<g id="a_node16"><a xlink:href="layer__stack_8h.html" target="_top" xlink:title=" ">
<polygon fill="white" stroke="black" points="376.09,-280.5 376.09,-299.5 486.09,-299.5 486.09,-280.5 376.09,-280.5"/>
<text text-anchor="middle" x="431.09" y="-287.5" font-family="Helvetica,sans-Serif" font-size="10.00">gauri/layer_stack.h</text>
</a>
</g>
</g>
<!-- Node1&#45;&gt;Node16 -->
<g id="edge20" class="edge">
<title>Node1&#45;&gt;Node16</title>
<path fill="none" stroke="midnightblue" d="M226.59,-336.44C268.89,-327.04 336.91,-311.93 382.76,-301.74"/>
<polygon fill="midnightblue" stroke="midnightblue" points="383.76,-305.1 392.76,-299.52 382.24,-298.27 383.76,-305.1"/>
</g>
<!-- Node18 -->
<g id="node18" class="node">
<title>Node18</title>
<g id="a_node18"><a xlink:href="window_8h.html" target="_top" xlink:title=" ">
<polygon fill="white" stroke="black" points="27.09,-224.5 27.09,-243.5 117.09,-243.5 117.09,-224.5 27.09,-224.5"/>
<text text-anchor="middle" x="72.09" y="-231.5" font-family="Helvetica,sans-Serif" font-size="10.00">gauri/window.h</text>
</a>
</g>
</g>
<!-- Node1&#45;&gt;Node18 -->
<g id="edge24" class="edge">
<title>Node1&#45;&gt;Node18</title>
<path fill="none" stroke="midnightblue" d="M177.51,-336.27C166.85,-327.38 150.02,-313.07 136.09,-300 118.87,-283.85 100,-264.47 87.25,-251.1"/>
<polygon fill="midnightblue" stroke="midnightblue" points="89.58,-248.48 80.16,-243.63 84.51,-253.29 89.58,-248.48"/>
</g>
<!-- Node4 -->
<g id="node4" class="node">
<title>Node4</title>
<g id="a_node4"><a xlink:title=" ">
<polygon fill="white" stroke="#bfbfbf" points="223.09,-56.5 223.09,-75.5 273.09,-75.5 273.09,-56.5 223.09,-56.5"/>
<text text-anchor="middle" x="248.09" y="-63.5" font-family="Helvetica,sans-Serif" font-size="10.00">cstdint</text>
</a>
</g>
</g>
<!-- Node3&#45;&gt;Node4 -->
<g id="edge3" class="edge">
<title>Node3&#45;&gt;Node4</title>
<path fill="none" stroke="midnightblue" d="M178.32,-168.49C194.62,-161.16 216.09,-149.05 229.09,-132 239.33,-118.57 244.06,-99.76 246.24,-85.82"/>
<polygon fill="midnightblue" stroke="midnightblue" points="249.71,-86.25 247.5,-75.89 242.77,-85.37 249.71,-86.25"/>
</g>
<!-- Node5 -->
<g id="node5" class="node">
<title>Node5</title>
<g id="a_node5"><a xlink:title=" ">
<polygon fill="white" stroke="#bfbfbf" points="80.59,-112.5 80.59,-131.5 145.59,-131.5 145.59,-112.5 80.59,-112.5"/>
<text text-anchor="middle" x="113.09" y="-119.5" font-family="Helvetica,sans-Serif" font-size="10.00">functional</text>
</a>
</g>
</g>
<!-- Node3&#45;&gt;Node5 -->
<g id="edge4" class="edge">
<title>Node3&#45;&gt;Node5</title>
<path fill="none" stroke="midnightblue" d="M148.99,-168.08C142.85,-160.38 133.82,-149.03 126.35,-139.65"/>
<polygon fill="midnightblue" stroke="midnightblue" points="129.02,-137.39 120.06,-131.75 123.55,-141.75 129.02,-137.39"/>
</g>
<!-- Node6 -->
<g id="node6" class="node">
<title>Node6</title>
<g id="a_node6"><a xlink:title=" ">
<polygon fill="white" stroke="#bfbfbf" points="164.09,-112.5 164.09,-131.5 220.09,-131.5 220.09,-112.5 164.09,-112.5"/>
<text text-anchor="middle" x="192.09" y="-119.5" font-family="Helvetica,sans-Serif" font-size="10.00">sstream</text>
</a>
</g>
</g>
<!-- Node3&#45;&gt;Node6 -->
<g id="edge5" class="edge">
<title>Node3&#45;&gt;Node6</title>
<path fill="none" stroke="midnightblue" d="M162.03,-168.08C167.07,-160.53 174.43,-149.49 180.6,-140.23"/>
<polygon fill="midnightblue" stroke="midnightblue" points="183.62,-142.01 186.25,-131.75 177.8,-138.13 183.62,-142.01"/>
</g>
<!-- Node7 -->
<g id="node7" class="node">
<title>Node7</title>
<g id="a_node7"><a xlink:title=" ">
<polygon fill="white" stroke="#bfbfbf" points="18.09,-112.5 18.09,-131.5 62.09,-131.5 62.09,-112.5 18.09,-112.5"/>
<text text-anchor="middle" x="40.09" y="-119.5" font-family="Helvetica,sans-Serif" font-size="10.00">string</text>
</a>
</g>
</g>
<!-- Node3&#45;&gt;Node7 -->
<g id="edge6" class="edge">
<title>Node3&#45;&gt;Node7</title>
<path fill="none" stroke="midnightblue" d="M137.71,-168.44C118.87,-159.68 89.36,-145.94 67.71,-135.86"/>
<polygon fill="midnightblue" stroke="midnightblue" points="68.93,-132.56 58.38,-131.52 65.97,-138.91 68.93,-132.56"/>
</g>
<!-- Node8 -->
<g id="node8" class="node">
<title>Node8</title>
<g id="a_node8"><a xlink:href="core_8h.html" target="_top" xlink:title=" ">
<polygon fill="white" stroke="black" points="325.09,-112.5 325.09,-131.5 399.09,-131.5 399.09,-112.5 325.09,-112.5"/>
<text text-anchor="middle" x="362.09" y="-119.5" font-family="Helvetica,sans-Serif" font-size="10.00">gauri/core.h</text>
</a>
</g>
</g>
<!-- Node3&#45;&gt;Node8 -->
<g id="edge7" class="edge">
<title>Node3&#45;&gt;Node8</title>
<path fill="none" stroke="midnightblue" d="M188.73,-168.44C224.14,-159.16 280.8,-144.31 319.64,-134.13"/>
<polygon fill="midnightblue" stroke="midnightblue" points="320.81,-137.44 329.6,-131.52 319.04,-130.67 320.81,-137.44"/>
</g>
<!-- Node8&#45;&gt;Node4 -->
<g id="edge8" class="edge">
<title>Node8&#45;&gt;Node4</title>
<path fill="none" stroke="midnightblue" d="M344.03,-112.44C325.51,-103.68 296.51,-89.94 275.23,-79.86"/>
<polygon fill="midnightblue" stroke="midnightblue" points="276.6,-76.63 266.07,-75.52 273.61,-82.96 276.6,-76.63"/>
</g>
<!-- Node9 -->
<g id="node9" class="node">
<title>Node9</title>
<g id="a_node9"><a xlink:title=" ">
<polygon fill="white" stroke="#bfbfbf" points="304.09,-0.5 304.09,-19.5 362.09,-19.5 362.09,-0.5 304.09,-0.5"/>
<text text-anchor="middle" x="333.09" y="-7.5" font-family="Helvetica,sans-Serif" font-size="10.00">memory</text>
</a>
</g>
</g>
<!-- Node8&#45;&gt;Node9 -->
<g id="edge9" class="edge">
<title>Node8&#45;&gt;Node9</title>
<path fill="none" stroke="midnightblue" d="M359.81,-112.37C355.11,-94.54 344.24,-53.3 337.91,-29.27"/>
<polygon fill="midnightblue" stroke="midnightblue" points="341.29,-28.37 335.35,-19.59 334.52,-30.15 341.29,-28.37"/>
</g>
<!-- Node10 -->
<g id="node10" class="node">
<title>Node10</title>
<g id="a_node10"><a xlink:href="logger_8h.html" target="_top" xlink:title=" ">
<polygon fill="white" stroke="black" points="385.59,-56.5 385.59,-75.5 468.59,-75.5 468.59,-56.5 385.59,-56.5"/>
<text text-anchor="middle" x="427.09" y="-63.5" font-family="Helvetica,sans-Serif" font-size="10.00">gauri/logger.h</text>
</a>
</g>
</g>
<!-- Node8&#45;&gt;Node10 -->
<g id="edge10" class="edge">
<title>Node8&#45;&gt;Node10</title>
<path fill="none" stroke="midnightblue" d="M372.53,-112.32C382.23,-104.26 396.9,-92.08 408.59,-82.37"/>
<polygon fill="midnightblue" stroke="midnightblue" points="411,-84.92 416.46,-75.83 406.53,-79.53 411,-84.92"/>
</g>
<!-- Node10&#45;&gt;Node9 -->
<g id="edge12" class="edge">
<title>Node10&#45;&gt;Node9</title>
<path fill="none" stroke="midnightblue" d="M411.99,-56.32C397.19,-47.82 374.39,-34.73 357.11,-24.8"/>
<polygon fill="midnightblue" stroke="midnightblue" points="358.57,-21.6 348.15,-19.65 355.08,-27.67 358.57,-21.6"/>
</g>
<!-- Node11 -->
<g id="node11" class="node">
<title>Node11</title>
<g id="a_node11"><a xlink:title=" ">
<polygon fill="white" stroke="#bfbfbf" points="492.09,-0.5 492.09,-19.5 542.09,-19.5 542.09,-0.5 492.09,-0.5"/>
<text text-anchor="middle" x="517.09" y="-7.5" font-family="Helvetica,sans-Serif" font-size="10.00">format</text>
</a>
</g>
</g>
<!-- Node10&#45;&gt;Node11 -->
<g id="edge11" class="edge">
<title>Node10&#45;&gt;Node11</title>
<path fill="none" stroke="midnightblue" d="M441.55,-56.32C455.59,-47.9 477.14,-34.97 493.63,-25.07"/>
<polygon fill="midnightblue" stroke="midnightblue" points="495.89,-27.8 502.66,-19.65 492.29,-21.8 495.89,-27.8"/>
</g>
<!-- Node12 -->
<g id="node12" class="node">
<title>Node12</title>
<g id="a_node12"><a xlink:title=" ">
<polygon fill="white" stroke="#bfbfbf" points="560.59,-0.5 560.59,-19.5 659.59,-19.5 659.59,-0.5 560.59,-0.5"/>
<text text-anchor="middle" x="610.09" y="-7.5" font-family="Helvetica,sans-Serif" font-size="10.00">spdlog/fmt/ostr.h</text>
</a>
</g>
</g>
<!-- Node10&#45;&gt;Node12 -->
<g id="edge13" class="edge">
<title>Node10&#45;&gt;Node12</title>
<path fill="none" stroke="midnightblue" d="M456.09,-56.44C487.27,-47.24 537.02,-32.56 571.5,-22.39"/>
<polygon fill="midnightblue" stroke="midnightblue" points="572.63,-25.7 581.23,-19.52 570.65,-18.99 572.63,-25.7"/>
</g>
<!-- Node13 -->
<g id="node13" class="node">
<title>Node13</title>
<g id="a_node13"><a xlink:title=" ">
<polygon fill="white" stroke="#bfbfbf" points="380.59,-0.5 380.59,-19.5 473.59,-19.5 473.59,-0.5 380.59,-0.5"/>
<text text-anchor="middle" x="427.09" y="-7.5" font-family="Helvetica,sans-Serif" font-size="10.00">spdlog/spdlog.h</text>
</a>
</g>
</g>
<!-- Node10&#45;&gt;Node13 -->
<g id="edge14" class="edge">
<title>Node10&#45;&gt;Node13</title>
<path fill="none" stroke="midnightblue" d="M427.09,-56.08C427.09,-49.01 427.09,-38.86 427.09,-29.99"/>
<polygon fill="midnightblue" stroke="midnightblue" points="430.59,-29.75 427.09,-19.75 423.59,-29.75 430.59,-29.75"/>
</g>
<!-- Node15 -->
<g id="node15" class="node">
<title>Node15</title>
<g id="a_node15"><a xlink:href="layer_8h.html" target="_top" xlink:title=" ">
<polygon fill="white" stroke="black" points="254.59,-224.5 254.59,-243.5 331.59,-243.5 331.59,-224.5 254.59,-224.5"/>
<text text-anchor="middle" x="293.09" y="-231.5" font-family="Helvetica,sans-Serif" font-size="10.00">gauri/layer.h</text>
</a>
</g>
</g>
<!-- Node14&#45;&gt;Node15 -->
<g id="edge16" class="edge">
<title>Node14&#45;&gt;Node15</title>
<path fill="none" stroke="midnightblue" d="M288.08,-280.08C288.87,-272.93 290.02,-262.64 291.01,-253.69"/>
<polygon fill="midnightblue" stroke="midnightblue" points="294.49,-254.08 292.12,-243.75 287.53,-253.3 294.49,-254.08"/>
</g>
<!-- Node15&#45;&gt;Node2 -->
<g id="edge18" class="edge">
<title>Node15&#45;&gt;Node2</title>
<path fill="none" stroke="midnightblue" d="M293.09,-224.08C293.09,-217.01 293.09,-206.86 293.09,-197.99"/>
<polygon fill="midnightblue" stroke="midnightblue" points="296.59,-197.75 293.09,-187.75 289.59,-197.75 296.59,-197.75"/>
</g>
<!-- Node15&#45;&gt;Node3 -->
<g id="edge19" class="edge">
<title>Node15&#45;&gt;Node3</title>
<path fill="none" stroke="midnightblue" d="M271.38,-224.44C248.73,-215.52 213.02,-201.44 187.34,-191.32"/>
<polygon fill="midnightblue" stroke="midnightblue" points="188.28,-187.93 177.7,-187.52 185.72,-194.44 188.28,-187.93"/>
</g>
<!-- Node15&#45;&gt;Node8 -->
<g id="edge17" class="edge">
<title>Node15&#45;&gt;Node8</title>
<path fill="none" stroke="midnightblue" d="M318.59,-224.47C335.08,-217.48 355.23,-205.79 365.09,-188 372.95,-173.81 371.05,-155.09 367.86,-141.38"/>
<polygon fill="midnightblue" stroke="midnightblue" points="371.21,-140.36 365.19,-131.65 364.46,-142.22 371.21,-140.36"/>
</g>
<!-- Node16&#45;&gt;Node8 -->
<g id="edge21" class="edge">
<title>Node16&#45;&gt;Node8</title>
<path fill="none" stroke="midnightblue" d="M429.09,-280.43C426.05,-267.84 419.78,-243.71 412.09,-224 400.28,-193.75 382.77,-160.27 371.91,-140.47"/>
<polygon fill="midnightblue" stroke="midnightblue" points="374.95,-138.73 367.04,-131.68 368.83,-142.12 374.95,-138.73"/>
</g>
<!-- Node16&#45;&gt;Node15 -->
<g id="edge22" class="edge">
<title>Node16&#45;&gt;Node15</title>
<path fill="none" stroke="midnightblue" d="M409.22,-280.44C386.31,-271.48 350.11,-257.31 324.22,-247.18"/>
<polygon fill="midnightblue" stroke="midnightblue" points="325.44,-243.9 314.85,-243.52 322.89,-250.42 325.44,-243.9"/>
</g>
<!-- Node17 -->
<g id="node17" class="node">
<title>Node17</title>
<g id="a_node17"><a xlink:title=" ">
<polygon fill="white" stroke="#bfbfbf" points="355.59,-224.5 355.59,-243.5 402.59,-243.5 402.59,-224.5 355.59,-224.5"/>
<text text-anchor="middle" x="379.09" y="-231.5" font-family="Helvetica,sans-Serif" font-size="10.00">vector</text>
</a>
</g>
</g>
<!-- Node16&#45;&gt;Node17 -->
<g id="edge23" class="edge">
<title>Node16&#45;&gt;Node17</title>
<path fill="none" stroke="midnightblue" d="M422.5,-280.08C414.93,-272.22 403.71,-260.57 394.57,-251.08"/>
<polygon fill="midnightblue" stroke="midnightblue" points="396.97,-248.53 387.52,-243.75 391.93,-253.38 396.97,-248.53"/>
</g>
<!-- Node18&#45;&gt;Node3 -->
<g id="edge28" class="edge">
<title>Node18&#45;&gt;Node3</title>
<path fill="none" stroke="midnightblue" d="M85.58,-224.32C98.69,-215.9 118.8,-202.97 134.2,-193.07"/>
<polygon fill="midnightblue" stroke="midnightblue" points="136.11,-196.01 142.63,-187.65 132.32,-190.12 136.11,-196.01"/>
</g>
<!-- Node18&#45;&gt;Node4 -->
<g id="edge25" class="edge">
<title>Node18&#45;&gt;Node4</title>
<path fill="none" stroke="midnightblue" d="M61.16,-224.35C36,-203.41 -21.6,-149.01 9.09,-112 34.58,-81.26 152.87,-71.38 212.92,-68.32"/>
<polygon fill="midnightblue" stroke="midnightblue" points="213.25,-71.8 223.07,-67.83 212.91,-64.81 213.25,-71.8"/>
</g>
<!-- Node18&#45;&gt;Node5 -->
<g id="edge26" class="edge">
<title>Node18&#45;&gt;Node5</title>
<path fill="none" stroke="midnightblue" d="M74.1,-224.43C77.16,-211.85 83.44,-187.73 91.09,-168 94.66,-158.78 99.4,-148.86 103.57,-140.7"/>
<polygon fill="midnightblue" stroke="midnightblue" points="106.71,-142.25 108.25,-131.76 100.51,-139 106.71,-142.25"/>
</g>
<!-- Node18&#45;&gt;Node7 -->
<g id="edge27" class="edge">
<title>Node18&#45;&gt;Node7</title>
<path fill="none" stroke="midnightblue" d="M69.32,-224.4C66.44,-215.36 61.83,-200.72 58.09,-188 53.5,-172.38 48.58,-154.55 45.05,-141.52"/>
<polygon fill="midnightblue" stroke="midnightblue" points="48.43,-140.6 42.45,-131.86 41.67,-142.42 48.43,-140.6"/>
</g>
</g>
</svg>
        <g id="navigator" transform="translate(0 0)" fill="#404254">
                <rect fill="#f2f5e9" fill-opacity="0.5" stroke="#606060" stroke-width=".5" x="0" y="0" width="60" height="60"/>
                <use id="zoomplus" xlink:href="#zoomPlus" x="17" y="9" onmousedown="handleZoom(evt,'in')"/>
                <use id="zoomminus" xlink:href="#zoomMin" x="42" y="9" onmousedown="handleZoom(evt,'out')"/>
                <use id="reset" xlink:href="#resetDef" x="30" y="36" onmousedown="handleReset()"/>
                <g id="arrowUp" xlink:href="#dirArrow" transform="translate(30 24)" onmousedown="handlePan(0,-1)">
                  <use xlink:href="#rim" fill="#404040">
                        <set attributeName="fill" to="#808080" begin="arrowUp.mouseover" end="arrowUp.mouseout"/>
                  </use>
                  <path fill="none" stroke="white" stroke-width="1.5" d="M0,-3.0v7 M-2.5,-0.5L0,-3.0L2.5,-0.5"/>
                </g>
                <g id="arrowRight" xlink:href="#dirArrow" transform="rotate(90) translate(36 -43)" onmousedown="handlePan(1,0)">
                  <use xlink:href="#rim" fill="#404040">
                        <set attributeName="fill" to="#808080" begin="arrowRight.mouseover" end="arrowRight.mouseout"/>
                  </use>
                  <path fill="none" stroke="white" stroke-width="1.5" d="M0,-3.0v7 M-2.5,-0.5L0,-3.0L2.5,-0.5"/>
                </g>
                <g id="arrowDown" xlink:href="#dirArrow" transform="rotate(180) translate(-30 -48)" onmousedown="handlePan(0,1)">
                  <use xlink:href="#rim" fill="#404040">
                        <set attributeName="fill" to="#808080" begin="arrowDown.mouseover" end="arrowDown.mouseout"/>
                  </use>
                  <path fill="none" stroke="white" stroke-width="1.5" d="M0,-3.0v7 M-2.5,-0.5L0,-3.0L2.5,-0.5"/>
                </g>
                <g id="arrowLeft" xlink:href="#dirArrow" transform="rotate(270) translate(-36 17)" onmousedown="handlePan(-1,0)">
                  <use xlink:href="#rim" fill="#404040">
                        <set attributeName="fill" to="#808080" begin="arrowLeft.mouseover" end="arrowLeft.mouseout"/>
                  </use>
                  <path fill="none" stroke="white" stroke-width="1.5" d="M0,-3.0v7 M-2.5,-0.5L0,-3.0L2.5,-0.5"/>
                </g>
        </g>
        <svg viewBox="0 0 15 15" width="100%" height="30px" preserveAspectRatio="xMaxYMin meet">
         <g id="arrow_out" transform="scale(0.3 0.3)">
          <a xlink:href="application_8h__incl_org.svg" target="_base">
           <rect id="button" ry="5" rx="5" y="6" x="6" height="38" width="38"
                fill="#f2f5e9" fill-opacity="0.5" stroke="#606060" stroke-width="1.0"/>
           <path id="arrow"
             d="M 11.500037,31.436501 C 11.940474,20.09759 22.043105,11.32322 32.158766,21.979434 L 37.068811,17.246167 C 37.068811,17.246167 37.088388,32 37.088388,32 L 22.160133,31.978069 C 22.160133,31.978069 26.997745,27.140456 26.997745,27.140456 C 18.528582,18.264221 13.291696,25.230495 11.500037,31.436501 z"
             style="fill:#404040;"/>
          </a>
         </g>
        </svg>
</svg>
