<?xml version="1.0" encoding="UTF-8" standalone="no"?>
<!DOCTYPE svg PUBLIC "-//W3C//DTD SVG 1.1//EN"
 "http://www.w3.org/Graphics/SVG/1.1/DTD/svg11.dtd">
<!-- Generated by graphviz version 2.43.0 (0)
 -->
<!-- Title: /home/runner/work/gauri/gauri/gauri/include/gauri/application.h Pages: 1 -->
<svg width="666pt" height="364pt"
 viewBox="0.00 0.00 665.59 364.00" xmlns="http://www.w3.org/2000/svg" xmlns:xlink="http://www.w3.org/1999/xlink">
<g id="graph0" class="graph" transform="scale(1 1) rotate(0) translate(4 360)">
<title>/home/runner/work/gauri/gauri/gauri/include/gauri/application.h</title>
<polygon fill="white" stroke="transparent" points="-4,4 -4,-360 661.59,-360 661.59,4 -4,4"/>
<!-- Node1 -->
<g id="node1" class="node">
<title>Node1</title>
<g id="a_node1"><a xlink:title=" ">
<polygon fill="#bfbfbf" stroke="black" points="25.09,-336.5 25.09,-355.5 349.09,-355.5 349.09,-336.5 25.09,-336.5"/>
<text text-anchor="middle" x="187.09" y="-343.5" font-family="Helvetica,sans-Serif" font-size="10.00">/home/runner/work/gauri/gauri/gauri/include/gauri/application.h</text>
</a>
</g>
</g>
<!-- Node2 -->
<g id="node2" class="node">
<title>Node2</title>
<g id="a_node2"><a xlink:href="timestep_8h.html" target="_top" xlink:title=" ">
<polygon fill="white" stroke="black" points="230.59,-168.5 230.59,-187.5 351.59,-187.5 351.59,-168.5 230.59,-168.5"/>
<text text-anchor="middle" x="291.09" y="-175.5" font-family="Helvetica,sans-Serif" font-size="10.00">gauri/core/timestep.h</text>
</a>
</g>
</g>
<!-- Node1&#45;&gt;Node2 -->
<g id="edge1" class="edge">
<title>Node1&#45;&gt;Node2</title>
<path fill="none" stroke="midnightblue" d="M188.93,-336.3C191.81,-323.55 198.01,-299.22 207.09,-280 219.83,-253.03 224.97,-246.9 244.09,-224 252.93,-213.4 264.04,-202.67 273.24,-194.34"/>
<polygon fill="midnightblue" stroke="midnightblue" points="275.56,-196.96 280.73,-187.71 270.92,-191.72 275.56,-196.96"/>
</g>
<!-- Node3 -->
<g id="node3" class="node">
<title>Node3</title>
<g id="a_node3"><a xlink:href="event_8h.html" target="_top" xlink:title=" ">
<polygon fill="white" stroke="black" points="100.09,-168.5 100.09,-187.5 212.09,-187.5 212.09,-168.5 100.09,-168.5"/>
<text text-anchor="middle" x="156.09" y="-175.5" font-family="Helvetica,sans-Serif" font-size="10.00">gauri/event/event.h</text>
</a>
</g>
</g>
<!-- Node1&#45;&gt;Node3 -->
<g id="edge2" class="edge">
<title>Node1&#45;&gt;Node3</title>
<path fill="none" stroke="midnightblue" d="M183.99,-336.49C180.82,-327.52 175.99,-312.93 173.09,-300 165.07,-264.25 160.13,-221.65 157.77,-197.73"/>
<polygon fill="midnightblue" stroke="midnightblue" points="161.24,-197.22 156.81,-187.59 154.27,-197.88 161.24,-197.22"/>
</g>
<!-- Node14 -->
<g id="node14" class="node">
<title>Node14</title>
<g id="a_node14"><a xlink:href="imgui__layer_8h.html" target="_top" xlink:title=" ">
<polygon fill="white" stroke="black" points="215.59,-280.5 215.59,-299.5 356.59,-299.5 356.59,-280.5 215.59,-280.5"/>
<text text-anchor="middle" x="286.09" y="-287.5" font-family="Helvetica,sans-Serif" font-size="10.00">gauri/imgui/imgui_layer.h</text>
</a>
</g>
</g>
<!-- Node1&#45;&gt;Node14 -->
<g id="edge15" class="edge">
<title>Node1&#45;&gt;Node14</title>
<path fill="none" stroke="midnightblue" d="M202.99,-336.32C218.73,-327.74 243.03,-314.49 261.3,-304.52"/>
<polygon fill="midnightblue" stroke="midnightblue" points="263.12,-307.52 270.22,-299.65 259.77,-301.37 263.12,-307.52"/>
</g>
<!-- Node16 -->
<g id="node16" class="node">
<title>Node16</title>
<g id="a_node16"><a xlink:href="layer__stack_8h.html" target="_top" xlink:title=" ">
<polygon fill="white" stroke="black" points="375.09,-280.5 375.09,-299.5 485.09,-299.5 485.09,-280.5 375.09,-280.5"/>
<text text-anchor="middle" x="430.09" y="-287.5" font-family="Helvetica,sans-Serif" font-size="10.00">gauri/layer_stack.h</text>
</a>
</g>
</g>
<!-- Node1&#45;&gt;Node16 -->
<g id="edge20" class="edge">
<title>Node1&#45;&gt;Node16</title>
<path fill="none" stroke="midnightblue" d="M225.59,-336.44C267.89,-327.04 335.91,-311.93 381.76,-301.74"/>
<polygon fill="midnightblue" stroke="midnightblue" points="382.76,-305.1 391.76,-299.52 381.24,-298.27 382.76,-305.1"/>
</g>
<!-- Node18 -->
<g id="node18" class="node">
<title>Node18</title>
<g id="a_node18"><a xlink:href="window_8h.html" target="_top" xlink:title=" ">
<polygon fill="white" stroke="black" points="27.09,-224.5 27.09,-243.5 117.09,-243.5 117.09,-224.5 27.09,-224.5"/>
<text text-anchor="middle" x="72.09" y="-231.5" font-family="Helvetica,sans-Serif" font-size="10.00">gauri/window.h</text>
</a>
</g>
</g>
<!-- Node1&#45;&gt;Node18 -->
<g id="edge24" class="edge">
<title>Node1&#45;&gt;Node18</title>
<path fill="none" stroke="midnightblue" d="M176.49,-336.3C165.81,-327.42 148.97,-313.12 135.09,-300 118.06,-283.91 99.51,-264.52 86.97,-251.13"/>
<polygon fill="midnightblue" stroke="midnightblue" points="89.39,-248.59 80.01,-243.65 84.26,-253.35 89.39,-248.59"/>
</g>
<!-- Node4 -->
<g id="node4" class="node">
<title>Node4</title>
<g id="a_node4"><a xlink:title=" ">
<polygon fill="white" stroke="#bfbfbf" points="223.09,-56.5 223.09,-75.5 273.09,-75.5 273.09,-56.5 223.09,-56.5"/>
<text text-anchor="middle" x="248.09" y="-63.5" font-family="Helvetica,sans-Serif" font-size="10.00">cstdint</text>
</a>
</g>
</g>
<!-- Node3&#45;&gt;Node4 -->
<g id="edge3" class="edge">
<title>Node3&#45;&gt;Node4</title>
<path fill="none" stroke="midnightblue" d="M178.32,-168.49C194.62,-161.16 216.09,-149.05 229.09,-132 239.33,-118.57 244.06,-99.76 246.24,-85.82"/>
<polygon fill="midnightblue" stroke="midnightblue" points="249.71,-86.25 247.5,-75.89 242.77,-85.37 249.71,-86.25"/>
</g>
<!-- Node5 -->
<g id="node5" class="node">
<title>Node5</title>
<g id="a_node5"><a xlink:title=" ">
<polygon fill="white" stroke="#bfbfbf" points="80.59,-112.5 80.59,-131.5 145.59,-131.5 145.59,-112.5 80.59,-112.5"/>
<text text-anchor="middle" x="113.09" y="-119.5" font-family="Helvetica,sans-Serif" font-size="10.00">functional</text>
</a>
</g>
</g>
<!-- Node3&#45;&gt;Node5 -->
<g id="edge4" class="edge">
<title>Node3&#45;&gt;Node5</title>
<path fill="none" stroke="midnightblue" d="M148.99,-168.08C142.85,-160.38 133.82,-149.03 126.35,-139.65"/>
<polygon fill="midnightblue" stroke="midnightblue" points="129.02,-137.39 120.06,-131.75 123.55,-141.75 129.02,-137.39"/>
</g>
<!-- Node6 -->
<g id="node6" class="node">
<title>Node6</title>
<g id="a_node6"><a xlink:title=" ">
<polygon fill="white" stroke="#bfbfbf" points="164.09,-112.5 164.09,-131.5 220.09,-131.5 220.09,-112.5 164.09,-112.5"/>
<text text-anchor="middle" x="192.09" y="-119.5" font-family="Helvetica,sans-Serif" font-size="10.00">sstream</text>
</a>
</g>
</g>
<!-- Node3&#45;&gt;Node6 -->
<g id="edge5" class="edge">
<title>Node3&#45;&gt;Node6</title>
<path fill="none" stroke="midnightblue" d="M162.03,-168.08C167.07,-160.53 174.43,-149.49 180.6,-140.23"/>
<polygon fill="midnightblue" stroke="midnightblue" points="183.62,-142.01 186.25,-131.75 177.8,-138.13 183.62,-142.01"/>
</g>
<!-- Node7 -->
<g id="node7" class="node">
<title>Node7</title>
<g id="a_node7"><a xlink:title=" ">
<polygon fill="white" stroke="#bfbfbf" points="18.09,-112.5 18.09,-131.5 62.09,-131.5 62.09,-112.5 18.09,-112.5"/>
<text text-anchor="middle" x="40.09" y="-119.5" font-family="Helvetica,sans-Serif" font-size="10.00">string</text>
</a>
</g>
</g>
<!-- Node3&#45;&gt;Node7 -->
<g id="edge6" class="edge">
<title>Node3&#45;&gt;Node7</title>
<path fill="none" stroke="midnightblue" d="M137.71,-168.44C118.87,-159.68 89.36,-145.94 67.71,-135.86"/>
<polygon fill="midnightblue" stroke="midnightblue" points="68.93,-132.56 58.38,-131.52 65.97,-138.91 68.93,-132.56"/>
</g>
<!-- Node8 -->
<g id="node8" class="node">
<title>Node8</title>
<g id="a_node8"><a xlink:href="core_8h.html" target="_top" xlink:title=" ">
<polygon fill="white" stroke="black" points="322.09,-112.5 322.09,-131.5 396.09,-131.5 396.09,-112.5 322.09,-112.5"/>
<text text-anchor="middle" x="359.09" y="-119.5" font-family="Helvetica,sans-Serif" font-size="10.00">gauri/core.h</text>
</a>
</g>
</g>
<!-- Node3&#45;&gt;Node8 -->
<g id="edge7" class="edge">
<title>Node3&#45;&gt;Node8</title>
<path fill="none" stroke="midnightblue" d="M188.25,-168.44C223.15,-159.16 278.98,-144.31 317.26,-134.13"/>
<polygon fill="midnightblue" stroke="midnightblue" points="318.31,-137.47 327.07,-131.52 316.51,-130.7 318.31,-137.47"/>
</g>
<!-- Node8&#45;&gt;Node4 -->
<g id="edge8" class="edge">
<title>Node8&#45;&gt;Node4</title>
<path fill="none" stroke="midnightblue" d="M341.25,-112.32C323.37,-103.62 295.61,-90.12 275.04,-80.11"/>
<polygon fill="midnightblue" stroke="midnightblue" points="276.4,-76.88 265.88,-75.65 273.34,-83.18 276.4,-76.88"/>
</g>
<!-- Node9 -->
<g id="node9" class="node">
<title>Node9</title>
<g id="a_node9"><a xlink:title=" ">
<polygon fill="white" stroke="#bfbfbf" points="302.09,-0.5 302.09,-19.5 360.09,-19.5 360.09,-0.5 302.09,-0.5"/>
<text text-anchor="middle" x="331.09" y="-7.5" font-family="Helvetica,sans-Serif" font-size="10.00">memory</text>
</a>
</g>
</g>
<!-- Node8&#45;&gt;Node9 -->
<g id="edge9" class="edge">
<title>Node8&#45;&gt;Node9</title>
<path fill="none" stroke="midnightblue" d="M356.89,-112.37C352.37,-94.62 341.95,-53.67 335.82,-29.6"/>
<polygon fill="midnightblue" stroke="midnightblue" points="339.13,-28.42 333.28,-19.59 332.35,-30.15 339.13,-28.42"/>
</g>
<!-- Node10 -->
<g id="node10" class="node">
<title>Node10</title>
<g id="a_node10"><a xlink:href="logger_8h.html" target="_top" xlink:title=" ">
<polygon fill="white" stroke="black" points="383.59,-56.5 383.59,-75.5 466.59,-75.5 466.59,-56.5 383.59,-56.5"/>
<text text-anchor="middle" x="425.09" y="-63.5" font-family="Helvetica,sans-Serif" font-size="10.00">gauri/logger.h</text>
</a>
</g>
</g>
<!-- Node8&#45;&gt;Node10 -->
<g id="edge10" class="edge">
<title>Node8&#45;&gt;Node10</title>
<path fill="none" stroke="midnightblue" d="M369.69,-112.32C379.54,-104.26 394.44,-92.08 406.3,-82.37"/>
<polygon fill="midnightblue" stroke="midnightblue" points="408.77,-84.88 414.29,-75.83 404.34,-79.46 408.77,-84.88"/>
</g>
<!-- Node10&#45;&gt;Node9 -->
<g id="edge12" class="edge">
<title>Node10&#45;&gt;Node9</title>
<path fill="none" stroke="midnightblue" d="M409.99,-56.32C395.19,-47.82 372.39,-34.73 355.11,-24.8"/>
<polygon fill="midnightblue" stroke="midnightblue" points="356.57,-21.6 346.15,-19.65 353.08,-27.67 356.57,-21.6"/>
</g>
<!-- Node11 -->
<g id="node11" class="node">
<title>Node11</title>
<g id="a_node11"><a xlink:title=" ">
<polygon fill="white" stroke="#bfbfbf" points="490.09,-0.5 490.09,-19.5 540.09,-19.5 540.09,-0.5 490.09,-0.5"/>
<text text-anchor="middle" x="515.09" y="-7.5" font-family="Helvetica,sans-Serif" font-size="10.00">format</text>
</a>
</g>
</g>
<!-- Node10&#45;&gt;Node11 -->
<g id="edge11" class="edge">
<title>Node10&#45;&gt;Node11</title>
<path fill="none" stroke="midnightblue" d="M439.55,-56.32C453.59,-47.9 475.14,-34.97 491.63,-25.07"/>
<polygon fill="midnightblue" stroke="midnightblue" points="493.89,-27.8 500.66,-19.65 490.29,-21.8 493.89,-27.8"/>
</g>
<!-- Node12 -->
<g id="node12" class="node">
<title>Node12</title>
<g id="a_node12"><a xlink:title=" ">
<polygon fill="white" stroke="#bfbfbf" points="558.59,-0.5 558.59,-19.5 657.59,-19.5 657.59,-0.5 558.59,-0.5"/>
<text text-anchor="middle" x="608.09" y="-7.5" font-family="Helvetica,sans-Serif" font-size="10.00">spdlog/fmt/ostr.h</text>
</a>
</g>
</g>
<!-- Node10&#45;&gt;Node12 -->
<g id="edge13" class="edge">
<title>Node10&#45;&gt;Node12</title>
<path fill="none" stroke="midnightblue" d="M454.09,-56.44C485.27,-47.24 535.02,-32.56 569.5,-22.39"/>
<polygon fill="midnightblue" stroke="midnightblue" points="570.63,-25.7 579.23,-19.52 568.65,-18.99 570.63,-25.7"/>
</g>
<!-- Node13 -->
<g id="node13" class="node">
<title>Node13</title>
<g id="a_node13"><a xlink:title=" ">
<polygon fill="white" stroke="#bfbfbf" points="378.59,-0.5 378.59,-19.5 471.59,-19.5 471.59,-0.5 378.59,-0.5"/>
<text text-anchor="middle" x="425.09" y="-7.5" font-family="Helvetica,sans-Serif" font-size="10.00">spdlog/spdlog.h</text>
</a>
</g>
</g>
<!-- Node10&#45;&gt;Node13 -->
<g id="edge14" class="edge">
<title>Node10&#45;&gt;Node13</title>
<path fill="none" stroke="midnightblue" d="M425.09,-56.08C425.09,-49.01 425.09,-38.86 425.09,-29.99"/>
<polygon fill="midnightblue" stroke="midnightblue" points="428.59,-29.75 425.09,-19.75 421.59,-29.75 428.59,-29.75"/>
</g>
<!-- Node15 -->
<g id="node15" class="node">
<title>Node15</title>
<g id="a_node15"><a xlink:href="layer_8h.html" target="_top" xlink:title=" ">
<polygon fill="white" stroke="black" points="252.59,-224.5 252.59,-243.5 329.59,-243.5 329.59,-224.5 252.59,-224.5"/>
<text text-anchor="middle" x="291.09" y="-231.5" font-family="Helvetica,sans-Serif" font-size="10.00">gauri/layer.h</text>
</a>
</g>
</g>
<!-- Node14&#45;&gt;Node15 -->
<g id="edge16" class="edge">
<title>Node14&#45;&gt;Node15</title>
<path fill="none" stroke="midnightblue" d="M286.91,-280.08C287.57,-273.01 288.51,-262.86 289.33,-253.99"/>
<polygon fill="midnightblue" stroke="midnightblue" points="292.84,-254.03 290.28,-243.75 285.87,-253.39 292.84,-254.03"/>
</g>
<!-- Node15&#45;&gt;Node2 -->
<g id="edge18" class="edge">
<title>Node15&#45;&gt;Node2</title>
<path fill="none" stroke="midnightblue" d="M291.09,-224.08C291.09,-217.01 291.09,-206.86 291.09,-197.99"/>
<polygon fill="midnightblue" stroke="midnightblue" points="294.59,-197.75 291.09,-187.75 287.59,-197.75 294.59,-197.75"/>
</g>
<!-- Node15&#45;&gt;Node3 -->
<g id="edge19" class="edge">
<title>Node15&#45;&gt;Node3</title>
<path fill="none" stroke="midnightblue" d="M269.7,-224.44C247.38,-215.52 212.19,-201.44 186.88,-191.32"/>
<polygon fill="midnightblue" stroke="midnightblue" points="187.96,-187.98 177.38,-187.52 185.36,-194.48 187.96,-187.98"/>
</g>
<!-- Node15&#45;&gt;Node8 -->
<g id="edge17" class="edge">
<title>Node15&#45;&gt;Node8</title>
<path fill="none" stroke="midnightblue" d="M315.56,-224.44C331.66,-217.38 351.47,-205.63 361.09,-188 368.86,-173.77 367.28,-155.05 364.4,-141.36"/>
<polygon fill="midnightblue" stroke="midnightblue" points="367.79,-140.48 361.96,-131.63 361,-142.18 367.79,-140.48"/>
</g>
<!-- Node16&#45;&gt;Node8 -->
<g id="edge21" class="edge">
<title>Node16&#45;&gt;Node8</title>
<path fill="none" stroke="midnightblue" d="M428.13,-280.41C425.14,-267.8 418.94,-243.65 411.09,-224 398.95,-193.6 380.7,-160.17 369.36,-140.41"/>
<polygon fill="midnightblue" stroke="midnightblue" points="372.32,-138.54 364.26,-131.65 366.26,-142.06 372.32,-138.54"/>
</g>
<!-- Node16&#45;&gt;Node15 -->
<g id="edge22" class="edge">
<title>Node16&#45;&gt;Node15</title>
<path fill="none" stroke="midnightblue" d="M408.06,-280.44C384.98,-271.48 348.53,-257.31 322.45,-247.18"/>
<polygon fill="midnightblue" stroke="midnightblue" points="323.6,-243.88 313.01,-243.52 321.06,-250.4 323.6,-243.88"/>
</g>
<!-- Node17 -->
<g id="node17" class="node">
<title>Node17</title>
<g id="a_node17"><a xlink:title=" ">
<polygon fill="white" stroke="#bfbfbf" points="354.59,-224.5 354.59,-243.5 401.59,-243.5 401.59,-224.5 354.59,-224.5"/>
<text text-anchor="middle" x="378.09" y="-231.5" font-family="Helvetica,sans-Serif" font-size="10.00">vector</text>
</a>
</g>
</g>
<!-- Node16&#45;&gt;Node17 -->
<g id="edge23" class="edge">
<title>Node16&#45;&gt;Node17</title>
<path fill="none" stroke="midnightblue" d="M421.5,-280.08C413.93,-272.22 402.71,-260.57 393.57,-251.08"/>
<polygon fill="midnightblue" stroke="midnightblue" points="395.97,-248.53 386.52,-243.75 390.93,-253.38 395.97,-248.53"/>
</g>
<!-- Node18&#45;&gt;Node3 -->
<g id="edge28" class="edge">
<title>Node18&#45;&gt;Node3</title>
<path fill="none" stroke="midnightblue" d="M85.58,-224.32C98.69,-215.9 118.8,-202.97 134.2,-193.07"/>
<polygon fill="midnightblue" stroke="midnightblue" points="136.11,-196.01 142.63,-187.65 132.32,-190.12 136.11,-196.01"/>
</g>
<!-- Node18&#45;&gt;Node4 -->
<g id="edge25" class="edge">
<title>Node18&#45;&gt;Node4</title>
<path fill="none" stroke="midnightblue" d="M61.16,-224.35C36,-203.41 -21.6,-149.01 9.09,-112 34.58,-81.26 152.87,-71.38 212.92,-68.32"/>
<polygon fill="midnightblue" stroke="midnightblue" points="213.25,-71.8 223.07,-67.83 212.91,-64.81 213.25,-71.8"/>
</g>
<!-- Node18&#45;&gt;Node5 -->
<g id="edge26" class="edge">
<title>Node18&#45;&gt;Node5</title>
<path fill="none" stroke="midnightblue" d="M74.1,-224.43C77.16,-211.85 83.44,-187.73 91.09,-168 94.66,-158.78 99.4,-148.86 103.57,-140.7"/>
<polygon fill="midnightblue" stroke="midnightblue" points="106.71,-142.25 108.25,-131.76 100.51,-139 106.71,-142.25"/>
</g>
<!-- Node18&#45;&gt;Node7 -->
<g id="edge27" class="edge">
<title>Node18&#45;&gt;Node7</title>
<path fill="none" stroke="midnightblue" d="M69.32,-224.4C66.44,-215.36 61.83,-200.72 58.09,-188 53.5,-172.38 48.58,-154.55 45.05,-141.52"/>
<polygon fill="midnightblue" stroke="midnightblue" points="48.43,-140.6 42.45,-131.86 41.67,-142.42 48.43,-140.6"/>
</g>
</g>
</svg>
