<?xml version="1.0" encoding="UTF-8" standalone="no"?>
<!DOCTYPE svg PUBLIC "-//W3C//DTD SVG 1.1//EN"
 "http://www.w3.org/Graphics/SVG/1.1/DTD/svg11.dtd">
<!-- Generated by graphviz version 2.43.0 (0)
 -->
<!-- Title: /home/runner/work/gauri/gauri/gauri/include/gauri/core/base.h Pages: 1 -->
<svg width="4084pt" height="420pt"
 viewBox="0.00 0.00 4083.67 420.00" xmlns="http://www.w3.org/2000/svg" xmlns:xlink="http://www.w3.org/1999/xlink">
<g id="graph0" class="graph" transform="scale(1 1) rotate(0) translate(4 416)">
<title>/home/runner/work/gauri/gauri/gauri/include/gauri/core/base.h</title>
<polygon fill="white" stroke="transparent" points="-4,4 -4,-416 4079.67,-416 4079.67,4 -4,4"/>
<!-- Node1 -->
<g id="node1" class="node">
<title>Node1</title>
<g id="a_node1"><a xlink:title=" ">
<polygon fill="#bfbfbf" stroke="black" points="2325.95,-392.5 2325.95,-411.5 2642.95,-411.5 2642.95,-392.5 2325.95,-392.5"/>
<text text-anchor="middle" x="2484.45" y="-399.5" font-family="Helvetica,sans-Serif" font-size="10.00">/home/runner/work/gauri/gauri/gauri/include/gauri/core/base.h</text>
</a>
</g>
</g>
<!-- Node2 -->
<g id="node2" class="node">
<title>Node2</title>
<g id="a_node2"><a xlink:href="input_8h.html" target="_top" xlink:title=" ">
<polygon fill="white" stroke="black" points="3745.95,-336.5 3745.95,-355.5 4064.95,-355.5 4064.95,-336.5 3745.95,-336.5"/>
<text text-anchor="middle" x="3905.45" y="-343.5" font-family="Helvetica,sans-Serif" font-size="10.00">/home/runner/work/gauri/gauri/gauri/include/gauri/core/input.h</text>
</a>
</g>
</g>
<!-- Node1&#45;&gt;Node2 -->
<g id="edge1" class="edge">
<title>Node1&#45;&gt;Node2</title>
<path fill="none" stroke="midnightblue" d="M2653.1,-394.59C2929.57,-384.08 3475.44,-363.34 3745.88,-353.06"/>
<polygon fill="midnightblue" stroke="midnightblue" points="2652.83,-391.1 2642.97,-394.98 2653.1,-398.09 2652.83,-391.1"/>
</g>
<!-- Node5 -->
<g id="node5" class="node">
<title>Node5</title>
<g id="a_node5"><a xlink:href="layer_8h.html" target="_top" xlink:title=" ">
<polygon fill="white" stroke="black" points="383.45,-224.5 383.45,-243.5 701.45,-243.5 701.45,-224.5 383.45,-224.5"/>
<text text-anchor="middle" x="542.45" y="-231.5" font-family="Helvetica,sans-Serif" font-size="10.00">/home/runner/work/gauri/gauri/gauri/include/gauri/core/layer.h</text>
</a>
</g>
</g>
<!-- Node1&#45;&gt;Node5 -->
<g id="edge4" class="edge">
<title>Node1&#45;&gt;Node5</title>
<path fill="none" stroke="midnightblue" d="M2315.5,-399.33C1887.77,-394.77 790.51,-380.7 715.45,-356 643.03,-332.17 574.08,-267.19 550.77,-243.65"/>
<polygon fill="midnightblue" stroke="midnightblue" points="2315.76,-402.84 2325.79,-399.44 2315.83,-395.84 2315.76,-402.84"/>
</g>
<!-- Node6 -->
<g id="node6" class="node">
<title>Node6</title>
<g id="a_node6"><a xlink:href="layer__stack_8h.html" target="_top" xlink:title=" ">
<polygon fill="white" stroke="black" points="389.45,-168.5 389.45,-187.5 739.45,-187.5 739.45,-168.5 389.45,-168.5"/>
<text text-anchor="middle" x="564.45" y="-175.5" font-family="Helvetica,sans-Serif" font-size="10.00">/home/runner/work/gauri/gauri/gauri/include/gauri/core/layer_stack.h</text>
</a>
</g>
</g>
<!-- Node1&#45;&gt;Node6 -->
<g id="edge12" class="edge">
<title>Node1&#45;&gt;Node6</title>
<path fill="none" stroke="midnightblue" d="M2315.78,-395.88C1922.24,-383.18 966.21,-347.81 828.45,-300 769.51,-279.55 767,-250.32 710.45,-224 674.98,-207.49 631.91,-195.07 601.78,-187.5"/>
<polygon fill="midnightblue" stroke="midnightblue" points="2315.72,-399.38 2325.83,-396.2 2315.94,-392.38 2315.72,-399.38"/>
</g>
<!-- Node9 -->
<g id="node9" class="node">
<title>Node9</title>
<g id="a_node9"><a xlink:href="event_8h.html" target="_top" xlink:title=" ">
<polygon fill="white" stroke="black" points="837.95,-280.5 837.95,-299.5 1166.95,-299.5 1166.95,-280.5 837.95,-280.5"/>
<text text-anchor="middle" x="1002.45" y="-287.5" font-family="Helvetica,sans-Serif" font-size="10.00">/home/runner/work/gauri/gauri/gauri/include/gauri/event/event.h</text>
</a>
</g>
</g>
<!-- Node1&#45;&gt;Node9 -->
<g id="edge13" class="edge">
<title>Node1&#45;&gt;Node9</title>
<path fill="none" stroke="midnightblue" d="M2315.82,-394.94C2140.8,-388.02 1859.19,-375.13 1616.45,-356 1418.22,-340.38 1184.88,-313.27 1071.39,-299.52"/>
<polygon fill="midnightblue" stroke="midnightblue" points="2315.76,-398.44 2325.89,-395.34 2316.04,-391.45 2315.76,-398.44"/>
</g>
<!-- Node13 -->
<g id="node13" class="node">
<title>Node13</title>
<g id="a_node13"><a xlink:href="buffer_8h.html" target="_top" xlink:title=" ">
<polygon fill="white" stroke="black" points="1625.45,-336.5 1625.45,-355.5 1967.45,-355.5 1967.45,-336.5 1625.45,-336.5"/>
<text text-anchor="middle" x="1796.45" y="-343.5" font-family="Helvetica,sans-Serif" font-size="10.00">/home/runner/work/gauri/gauri/gauri/include/gauri/renderer/buffer.h</text>
</a>
</g>
</g>
<!-- Node1&#45;&gt;Node13 -->
<g id="edge21" class="edge">
<title>Node1&#45;&gt;Node13</title>
<path fill="none" stroke="midnightblue" d="M2365.84,-391.69C2236.19,-381.51 2030.24,-365.35 1904.8,-355.5"/>
<polygon fill="midnightblue" stroke="midnightblue" points="2365.57,-395.18 2375.81,-392.47 2366.11,-388.2 2365.57,-395.18"/>
</g>
<!-- Node21 -->
<g id="node21" class="node">
<title>Node21</title>
<g id="a_node21"><a xlink:href="frame__buffer_8h.html" target="_top" xlink:title=" ">
<polygon fill="white" stroke="black" points="2512.95,-336.5 2512.95,-355.5 2889.95,-355.5 2889.95,-336.5 2512.95,-336.5"/>
<text text-anchor="middle" x="2701.45" y="-343.5" font-family="Helvetica,sans-Serif" font-size="10.00">/home/runner/work/gauri/gauri/gauri/include/gauri/renderer/frame_buffer.h</text>
</a>
</g>
</g>
<!-- Node1&#45;&gt;Node21 -->
<g id="edge35" class="edge">
<title>Node1&#45;&gt;Node21</title>
<path fill="none" stroke="midnightblue" d="M2528.55,-390.02C2569.55,-379.82 2629.75,-364.84 2667.22,-355.52"/>
<polygon fill="midnightblue" stroke="midnightblue" points="2527.69,-386.63 2518.83,-392.44 2529.38,-393.43 2527.69,-386.63"/>
</g>
<!-- Node23 -->
<g id="node23" class="node">
<title>Node23</title>
<g id="a_node23"><a xlink:href="shader_8h.html" target="_top" xlink:title=" ">
<polygon fill="white" stroke="black" points="2318.95,-168.5 2318.95,-187.5 2665.95,-187.5 2665.95,-168.5 2318.95,-168.5"/>
<text text-anchor="middle" x="2492.45" y="-175.5" font-family="Helvetica,sans-Serif" font-size="10.00">/home/runner/work/gauri/gauri/gauri/include/gauri/renderer/shader.h</text>
</a>
</g>
</g>
<!-- Node1&#45;&gt;Node23 -->
<g id="edge38" class="edge">
<title>Node1&#45;&gt;Node23</title>
<path fill="none" stroke="midnightblue" d="M2485.12,-382.3C2486.77,-336.64 2490.94,-220.85 2492.13,-187.88"/>
<polygon fill="midnightblue" stroke="midnightblue" points="2481.62,-382.18 2484.76,-392.3 2488.62,-382.43 2481.62,-382.18"/>
</g>
<!-- Node25 -->
<g id="node25" class="node">
<title>Node25</title>
<g id="a_node25"><a xlink:href="texture_8h.html" target="_top" xlink:title=" ">
<polygon fill="white" stroke="black" points="2998.45,-224.5 2998.45,-243.5 3348.45,-243.5 3348.45,-224.5 2998.45,-224.5"/>
<text text-anchor="middle" x="3173.45" y="-231.5" font-family="Helvetica,sans-Serif" font-size="10.00">/home/runner/work/gauri/gauri/gauri/include/gauri/renderer/texture.h</text>
</a>
</g>
</g>
<!-- Node1&#45;&gt;Node25 -->
<g id="edge42" class="edge">
<title>Node1&#45;&gt;Node25</title>
<path fill="none" stroke="midnightblue" d="M2653.14,-396.81C2827.44,-388.87 3083.74,-365.99 3154.45,-300 3170.43,-285.08 3173.22,-257.53 3173.55,-243.58"/>
<polygon fill="midnightblue" stroke="midnightblue" points="2652.92,-393.31 2643.09,-397.25 2653.23,-400.3 2652.92,-393.31"/>
</g>
<!-- Node29 -->
<g id="node29" class="node">
<title>Node29</title>
<g id="a_node29"><a xlink:href="entity_8h.html" target="_top" xlink:title=" ">
<polygon fill="white" stroke="black" points="3459.95,-224.5 3459.95,-243.5 3788.95,-243.5 3788.95,-224.5 3459.95,-224.5"/>
<text text-anchor="middle" x="3624.45" y="-231.5" font-family="Helvetica,sans-Serif" font-size="10.00">/home/runner/work/gauri/gauri/gauri/include/gauri/scene/entity.h</text>
</a>
</g>
</g>
<!-- Node1&#45;&gt;Node29 -->
<g id="edge49" class="edge">
<title>Node1&#45;&gt;Node29</title>
<path fill="none" stroke="midnightblue" d="M2653.27,-394.04C2769.8,-387.75 2928.09,-376.25 3066.45,-356 3268.74,-326.39 3507.27,-265.95 3592.34,-243.58"/>
<polygon fill="midnightblue" stroke="midnightblue" points="2652.98,-390.55 2643.19,-394.58 2653.36,-397.54 2652.98,-390.55"/>
</g>
<!-- Node3 -->
<g id="node3" class="node">
<title>Node3</title>
<g id="a_node3"><a xlink:href="gauri_8h.html" target="_top" xlink:title=" ">
<polygon fill="white" stroke="black" points="1903.95,-56.5 1903.95,-75.5 2170.95,-75.5 2170.95,-56.5 1903.95,-56.5"/>
<text text-anchor="middle" x="2037.45" y="-63.5" font-family="Helvetica,sans-Serif" font-size="10.00">/home/runner/work/gauri/gauri/gauri/include/gauri.h</text>
</a>
</g>
</g>
<!-- Node2&#45;&gt;Node3 -->
<g id="edge2" class="edge">
<title>Node2&#45;&gt;Node3</title>
<path fill="none" stroke="midnightblue" d="M3958.94,-333.82C4008.45,-319.97 4074.45,-291.01 4074.45,-235 4074.45,-235 4074.45,-235 4074.45,-177 4074.45,-146.9 4079.33,-130.32 4055.45,-112 4018.02,-83.29 2615.23,-71.04 2170.95,-67.87"/>
<polygon fill="midnightblue" stroke="midnightblue" points="3957.73,-330.52 3948.97,-336.47 3959.53,-337.28 3957.73,-330.52"/>
</g>
<!-- Node4 -->
<g id="node4" class="node">
<title>Node4</title>
<g id="a_node4"><a xlink:href="entry__point_8h.html" target="_top" xlink:title=" ">
<polygon fill="white" stroke="black" points="1862.45,-0.5 1862.45,-19.5 2212.45,-19.5 2212.45,-0.5 1862.45,-0.5"/>
<text text-anchor="middle" x="2037.45" y="-7.5" font-family="Helvetica,sans-Serif" font-size="10.00">/home/runner/work/gauri/gauri/gauri/include/gauri/core/entry_point.h</text>
</a>
</g>
</g>
<!-- Node3&#45;&gt;Node4 -->
<g id="edge3" class="edge">
<title>Node3&#45;&gt;Node4</title>
<path fill="none" stroke="midnightblue" d="M2037.45,-45.8C2037.45,-36.91 2037.45,-26.78 2037.45,-19.75"/>
<polygon fill="midnightblue" stroke="midnightblue" points="2033.95,-46.08 2037.45,-56.08 2040.95,-46.08 2033.95,-46.08"/>
</g>
<!-- Node5&#45;&gt;Node3 -->
<g id="edge11" class="edge">
<title>Node5&#45;&gt;Node3</title>
<path fill="none" stroke="midnightblue" d="M373.14,-230.12C224.88,-225.8 29.28,-214.99 4.45,-188 -1.57,-181.46 -1.3,-174.78 4.45,-168 102.93,-51.86 190.87,-126.5 342.45,-112 644.46,-83.11 1559.01,-71.57 1903.9,-68.17"/>
<polygon fill="midnightblue" stroke="midnightblue" points="373.18,-233.63 383.28,-230.41 373.38,-226.63 373.18,-233.63"/>
</g>
<!-- Node5&#45;&gt;Node6 -->
<g id="edge5" class="edge">
<title>Node5&#45;&gt;Node6</title>
<path fill="none" stroke="midnightblue" d="M549.91,-214.69C553.61,-205.59 557.92,-195.01 560.88,-187.75"/>
<polygon fill="midnightblue" stroke="midnightblue" points="546.61,-213.5 546.08,-224.08 553.09,-216.14 546.61,-213.5"/>
</g>
<!-- Node8 -->
<g id="node8" class="node">
<title>Node8</title>
<g id="a_node8"><a xlink:href="imgui__layer_8h.html" target="_top" xlink:title=" ">
<polygon fill="white" stroke="black" points="13.45,-168.5 13.45,-187.5 371.45,-187.5 371.45,-168.5 13.45,-168.5"/>
<text text-anchor="middle" x="192.45" y="-175.5" font-family="Helvetica,sans-Serif" font-size="10.00">/home/runner/work/gauri/gauri/gauri/include/gauri/imgui/imgui_layer.h</text>
</a>
</g>
</g>
<!-- Node5&#45;&gt;Node8 -->
<g id="edge8" class="edge">
<title>Node5&#45;&gt;Node8</title>
<path fill="none" stroke="midnightblue" d="M477.09,-222.92C410.97,-212.71 309.87,-197.12 247.65,-187.52"/>
<polygon fill="midnightblue" stroke="midnightblue" points="476.57,-226.38 486.99,-224.44 477.64,-219.46 476.57,-226.38"/>
</g>
<!-- Node7 -->
<g id="node7" class="node">
<title>Node7</title>
<g id="a_node7"><a xlink:href="application_8h.html" target="_top" xlink:title=" ">
<polygon fill="white" stroke="black" points="453.45,-112.5 453.45,-131.5 801.45,-131.5 801.45,-112.5 453.45,-112.5"/>
<text text-anchor="middle" x="627.45" y="-119.5" font-family="Helvetica,sans-Serif" font-size="10.00">/home/runner/work/gauri/gauri/gauri/include/gauri/core/application.h</text>
</a>
</g>
</g>
<!-- Node6&#45;&gt;Node7 -->
<g id="edge6" class="edge">
<title>Node6&#45;&gt;Node7</title>
<path fill="none" stroke="midnightblue" d="M582.49,-161.54C593.72,-151.91 607.77,-139.87 617.14,-131.83"/>
<polygon fill="midnightblue" stroke="midnightblue" points="579.88,-159.16 574.57,-168.32 584.44,-164.47 579.88,-159.16"/>
</g>
<!-- Node7&#45;&gt;Node3 -->
<g id="edge7" class="edge">
<title>Node7&#45;&gt;Node3</title>
<path fill="none" stroke="midnightblue" d="M809.42,-112.04C809.76,-112.03 810.1,-112.01 810.45,-112 1207.9,-94.94 1677.95,-78.84 1903.52,-71.36"/>
<polygon fill="midnightblue" stroke="midnightblue" points="809.21,-108.55 799.37,-112.48 809.51,-115.54 809.21,-108.55"/>
</g>
<!-- Node8&#45;&gt;Node3 -->
<g id="edge10" class="edge">
<title>Node8&#45;&gt;Node3</title>
<path fill="none" stroke="midnightblue" d="M227.46,-165.3C275.67,-149.81 365.51,-123.15 444.45,-112 724.48,-72.44 1573.17,-67.37 1903.68,-66.93"/>
<polygon fill="midnightblue" stroke="midnightblue" points="226.25,-162.01 217.82,-168.43 228.41,-168.67 226.25,-162.01"/>
</g>
<!-- Node8&#45;&gt;Node7 -->
<g id="edge9" class="edge">
<title>Node8&#45;&gt;Node7</title>
<path fill="none" stroke="midnightblue" d="M271.41,-167.2C353.53,-157 480.79,-141.21 558.84,-131.52"/>
<polygon fill="midnightblue" stroke="midnightblue" points="270.87,-163.74 261.37,-168.44 271.73,-170.68 270.87,-163.74"/>
</g>
<!-- Node9&#45;&gt;Node5 -->
<g id="edge15" class="edge">
<title>Node9&#45;&gt;Node5</title>
<path fill="none" stroke="midnightblue" d="M919.74,-279.29C832.95,-269.1 697.88,-253.25 615.08,-243.53"/>
<polygon fill="midnightblue" stroke="midnightblue" points="919.47,-282.78 929.81,-280.47 920.29,-275.83 919.47,-282.78"/>
</g>
<!-- Node9&#45;&gt;Node7 -->
<g id="edge14" class="edge">
<title>Node9&#45;&gt;Node7</title>
<path fill="none" stroke="midnightblue" d="M927.68,-278.54C895.41,-271.86 858.11,-261.11 827.45,-244 784.9,-220.26 789.7,-193.92 748.45,-168 721.21,-150.89 686.49,-138.82 661.23,-131.52"/>
<polygon fill="midnightblue" stroke="midnightblue" points="927.04,-281.98 937.52,-280.48 928.39,-275.11 927.04,-281.98"/>
</g>
<!-- Node10 -->
<g id="node10" class="node">
<title>Node10</title>
<g id="a_node10"><a xlink:href="window_8h.html" target="_top" xlink:title=" ">
<polygon fill="white" stroke="black" points="836.95,-224.5 836.95,-243.5 1167.95,-243.5 1167.95,-224.5 836.95,-224.5"/>
<text text-anchor="middle" x="1002.45" y="-231.5" font-family="Helvetica,sans-Serif" font-size="10.00">/home/runner/work/gauri/gauri/gauri/include/gauri/core/window.h</text>
</a>
</g>
</g>
<!-- Node9&#45;&gt;Node10 -->
<g id="edge16" class="edge">
<title>Node9&#45;&gt;Node10</title>
<path fill="none" stroke="midnightblue" d="M1002.45,-269.8C1002.45,-260.91 1002.45,-250.78 1002.45,-243.75"/>
<polygon fill="midnightblue" stroke="midnightblue" points="998.95,-270.08 1002.45,-280.08 1005.95,-270.08 998.95,-270.08"/>
</g>
<!-- Node12 -->
<g id="node12" class="node">
<title>Node12</title>
<g id="a_node12"><a xlink:href="orthographic__camera__controller_8h.html" target="_top" xlink:title=" ">
<polygon fill="white" stroke="black" points="819.95,-112.5 819.95,-131.5 1288.95,-131.5 1288.95,-112.5 819.95,-112.5"/>
<text text-anchor="middle" x="1054.45" y="-119.5" font-family="Helvetica,sans-Serif" font-size="10.00">/home/runner/work/gauri/gauri/gauri/include/gauri/renderer/orthographic_camera_controller.h</text>
</a>
</g>
</g>
<!-- Node9&#45;&gt;Node12 -->
<g id="edge19" class="edge">
<title>Node9&#45;&gt;Node12</title>
<path fill="none" stroke="midnightblue" d="M1113.38,-278.44C1169.67,-266.43 1232.02,-241.11 1260.45,-188 1264.64,-180.16 1266.02,-174.92 1260.45,-168 1245.52,-149.47 1192.63,-138.15 1144.19,-131.5"/>
<polygon fill="midnightblue" stroke="midnightblue" points="1112.43,-275.06 1103.32,-280.46 1113.81,-281.92 1112.43,-275.06"/>
</g>
<!-- Node10&#45;&gt;Node7 -->
<g id="edge17" class="edge">
<title>Node10&#45;&gt;Node7</title>
<path fill="none" stroke="midnightblue" d="M949.12,-222.27C913.34,-214.4 865.45,-202.57 824.45,-188 804.59,-180.94 801.17,-175.42 781.45,-168 741.3,-152.9 693.72,-139.68 662.19,-131.55"/>
<polygon fill="midnightblue" stroke="midnightblue" points="948.82,-225.78 959.34,-224.48 950.3,-218.94 948.82,-225.78"/>
</g>
<!-- Node11 -->
<g id="node11" class="node">
<title>Node11</title>
<g id="a_node11"><a xlink:href="windows__window_8h.html" target="_top" xlink:title=" ">
<polygon fill="white" stroke="black" points="833.45,-168.5 833.45,-187.5 1251.45,-187.5 1251.45,-168.5 833.45,-168.5"/>
<text text-anchor="middle" x="1042.45" y="-175.5" font-family="Helvetica,sans-Serif" font-size="10.00">/home/runner/work/gauri/gauri/gauri/include/platform/windows/windows_window.h</text>
</a>
</g>
</g>
<!-- Node10&#45;&gt;Node11 -->
<g id="edge18" class="edge">
<title>Node10&#45;&gt;Node11</title>
<path fill="none" stroke="midnightblue" d="M1015.15,-215.86C1022.07,-206.5 1030.35,-195.33 1035.96,-187.75"/>
<polygon fill="midnightblue" stroke="midnightblue" points="1012.19,-213.96 1009.05,-224.08 1017.82,-218.13 1012.19,-213.96"/>
</g>
<!-- Node12&#45;&gt;Node3 -->
<g id="edge20" class="edge">
<title>Node12&#45;&gt;Node3</title>
<path fill="none" stroke="midnightblue" d="M1219.6,-111.93C1412,-101.36 1726.13,-84.1 1903.86,-74.34"/>
<polygon fill="midnightblue" stroke="midnightblue" points="1219.18,-108.44 1209.39,-112.49 1219.57,-115.43 1219.18,-108.44"/>
</g>
<!-- Node13&#45;&gt;Node3 -->
<g id="edge33" class="edge">
<title>Node13&#45;&gt;Node3</title>
<path fill="none" stroke="midnightblue" d="M1615.08,-336.71C1479.49,-325.36 1317.45,-298.52 1317.45,-235 1317.45,-235 1317.45,-235 1317.45,-177 1317.45,-124.73 1365.98,-128.88 1415.45,-112 1502.6,-82.25 1748.61,-72.17 1903.85,-68.75"/>
<polygon fill="midnightblue" stroke="midnightblue" points="1614.96,-340.21 1625.21,-337.53 1615.52,-333.23 1614.96,-340.21"/>
</g>
<!-- Node14 -->
<g id="node14" class="node">
<title>Node14</title>
<g id="a_node14"><a xlink:href="vertex__array_8h.html" target="_top" xlink:title=" ">
<polygon fill="white" stroke="black" points="1406.95,-280.5 1406.95,-299.5 1781.95,-299.5 1781.95,-280.5 1406.95,-280.5"/>
<text text-anchor="middle" x="1594.45" y="-287.5" font-family="Helvetica,sans-Serif" font-size="10.00">/home/runner/work/gauri/gauri/gauri/include/gauri/renderer/vertex_array.h</text>
</a>
</g>
</g>
<!-- Node13&#45;&gt;Node14 -->
<g id="edge22" class="edge">
<title>Node13&#45;&gt;Node14</title>
<path fill="none" stroke="midnightblue" d="M1754.66,-333.83C1716.52,-323.63 1660.97,-308.78 1626.3,-299.52"/>
<polygon fill="midnightblue" stroke="midnightblue" points="1753.87,-337.24 1764.44,-336.44 1755.68,-330.48 1753.87,-337.24"/>
</g>
<!-- Node20 -->
<g id="node20" class="node">
<title>Node20</title>
<g id="a_node20"><a xlink:href="opengl__buffer_8h.html" target="_top" xlink:title=" ">
<polygon fill="white" stroke="black" points="1799.95,-280.5 1799.95,-299.5 2188.95,-299.5 2188.95,-280.5 1799.95,-280.5"/>
<text text-anchor="middle" x="1994.45" y="-287.5" font-family="Helvetica,sans-Serif" font-size="10.00">/home/runner/work/gauri/gauri/gauri/include/platform/opengl/opengl_buffer.h</text>
</a>
</g>
</g>
<!-- Node13&#45;&gt;Node20 -->
<g id="edge34" class="edge">
<title>Node13&#45;&gt;Node20</title>
<path fill="none" stroke="midnightblue" d="M1837.88,-333.7C1875.25,-323.51 1929.39,-308.74 1963.22,-299.52"/>
<polygon fill="midnightblue" stroke="midnightblue" points="1836.55,-330.44 1827.82,-336.44 1838.39,-337.19 1836.55,-330.44"/>
</g>
<!-- Node14&#45;&gt;Node3 -->
<g id="edge31" class="edge">
<title>Node14&#45;&gt;Node3</title>
<path fill="none" stroke="midnightblue" d="M1482.41,-279.14C1435.63,-272.49 1388.8,-261.59 1374.45,-244 1331.36,-191.21 1391.07,-141.62 1452.45,-112 1529.34,-74.9 1756.35,-67.09 1903.92,-66.12"/>
<polygon fill="midnightblue" stroke="midnightblue" points="1482,-282.62 1492.38,-280.5 1482.95,-275.68 1482,-282.62"/>
</g>
<!-- Node15 -->
<g id="node15" class="node">
<title>Node15</title>
<g id="a_node15"><a xlink:href="renderer__api_8h.html" target="_top" xlink:title=" ">
<polygon fill="white" stroke="black" points="1823.45,-224.5 1823.45,-243.5 2199.45,-243.5 2199.45,-224.5 1823.45,-224.5"/>
<text text-anchor="middle" x="2011.45" y="-231.5" font-family="Helvetica,sans-Serif" font-size="10.00">/home/runner/work/gauri/gauri/gauri/include/gauri/renderer/renderer_api.h</text>
</a>
</g>
</g>
<!-- Node14&#45;&gt;Node15 -->
<g id="edge23" class="edge">
<title>Node14&#45;&gt;Node15</title>
<path fill="none" stroke="midnightblue" d="M1670.86,-279.1C1749.61,-268.91 1871.08,-253.18 1945.68,-243.52"/>
<polygon fill="midnightblue" stroke="midnightblue" points="1669.99,-275.69 1660.52,-280.44 1670.89,-282.63 1669.99,-275.69"/>
</g>
<!-- Node19 -->
<g id="node19" class="node">
<title>Node19</title>
<g id="a_node19"><a xlink:href="opengl__vertex__array_8h.html" target="_top" xlink:title=" ">
<polygon fill="white" stroke="black" points="1383.45,-224.5 1383.45,-243.5 1805.45,-243.5 1805.45,-224.5 1383.45,-224.5"/>
<text text-anchor="middle" x="1594.45" y="-231.5" font-family="Helvetica,sans-Serif" font-size="10.00">/home/runner/work/gauri/gauri/gauri/include/platform/opengl/opengl_vertex_array.h</text>
</a>
</g>
</g>
<!-- Node14&#45;&gt;Node19 -->
<g id="edge32" class="edge">
<title>Node14&#45;&gt;Node19</title>
<path fill="none" stroke="midnightblue" d="M1594.45,-269.8C1594.45,-260.91 1594.45,-250.78 1594.45,-243.75"/>
<polygon fill="midnightblue" stroke="midnightblue" points="1590.95,-270.08 1594.45,-280.08 1597.95,-270.08 1590.95,-270.08"/>
</g>
<!-- Node15&#45;&gt;Node3 -->
<g id="edge29" class="edge">
<title>Node15&#45;&gt;Node3</title>
<path fill="none" stroke="midnightblue" d="M1855.71,-223.87C1680.75,-213.24 1419.97,-196.11 1412.45,-188 1342.92,-113.05 1700.27,-83.24 1903.84,-72.46"/>
<polygon fill="midnightblue" stroke="midnightblue" points="1855.6,-227.37 1865.8,-224.48 1856.03,-220.38 1855.6,-227.37"/>
</g>
<!-- Node16 -->
<g id="node16" class="node">
<title>Node16</title>
<g id="a_node16"><a xlink:href="render__command_8h.html" target="_top" xlink:title=" ">
<polygon fill="white" stroke="black" points="1421.45,-168.5 1421.45,-187.5 1821.45,-187.5 1821.45,-168.5 1421.45,-168.5"/>
<text text-anchor="middle" x="1621.45" y="-175.5" font-family="Helvetica,sans-Serif" font-size="10.00">/home/runner/work/gauri/gauri/gauri/include/gauri/renderer/render_command.h</text>
</a>
</g>
</g>
<!-- Node15&#45;&gt;Node16 -->
<g id="edge24" class="edge">
<title>Node15&#45;&gt;Node16</title>
<path fill="none" stroke="midnightblue" d="M1939.53,-223.04C1865.87,-212.84 1752.58,-197.16 1682.95,-187.52"/>
<polygon fill="midnightblue" stroke="midnightblue" points="1939.26,-226.54 1949.65,-224.44 1940.22,-219.6 1939.26,-226.54"/>
</g>
<!-- Node17 -->
<g id="node17" class="node">
<title>Node17</title>
<g id="a_node17"><a xlink:href="renderer_8h.html" target="_top" xlink:title=" ">
<polygon fill="white" stroke="black" points="1859.95,-112.5 1859.95,-131.5 2214.95,-131.5 2214.95,-112.5 1859.95,-112.5"/>
<text text-anchor="middle" x="2037.45" y="-119.5" font-family="Helvetica,sans-Serif" font-size="10.00">/home/runner/work/gauri/gauri/gauri/include/gauri/renderer/renderer.h</text>
</a>
</g>
</g>
<!-- Node15&#45;&gt;Node17 -->
<g id="edge28" class="edge">
<title>Node15&#45;&gt;Node17</title>
<path fill="none" stroke="midnightblue" d="M2163.88,-223.18C2211.89,-216.69 2256.37,-205.91 2271.45,-188 2277.17,-181.2 2277.11,-174.85 2271.45,-168 2255.74,-148.98 2203.89,-137.92 2152.98,-131.52"/>
<polygon fill="midnightblue" stroke="midnightblue" points="2163.39,-219.72 2153.92,-224.46 2164.28,-226.66 2163.39,-219.72"/>
</g>
<!-- Node18 -->
<g id="node18" class="node">
<title>Node18</title>
<g id="a_node18"><a xlink:href="opengl__renderer__api_8h.html" target="_top" xlink:title=" ">
<polygon fill="white" stroke="black" points="1839.95,-168.5 1839.95,-187.5 2262.95,-187.5 2262.95,-168.5 1839.95,-168.5"/>
<text text-anchor="middle" x="2051.45" y="-175.5" font-family="Helvetica,sans-Serif" font-size="10.00">/home/runner/work/gauri/gauri/gauri/include/platform/opengl/opengl_renderer_api.h</text>
</a>
</g>
</g>
<!-- Node15&#45;&gt;Node18 -->
<g id="edge30" class="edge">
<title>Node15&#45;&gt;Node18</title>
<path fill="none" stroke="midnightblue" d="M2024.15,-215.86C2031.07,-206.5 2039.35,-195.33 2044.96,-187.75"/>
<polygon fill="midnightblue" stroke="midnightblue" points="2021.19,-213.96 2018.05,-224.08 2026.82,-218.13 2021.19,-213.96"/>
</g>
<!-- Node16&#45;&gt;Node3 -->
<g id="edge27" class="edge">
<title>Node16&#45;&gt;Node3</title>
<path fill="none" stroke="midnightblue" d="M1659.99,-165.54C1705.4,-152.17 1783.18,-129.63 1850.45,-112 1902.13,-98.45 1962.25,-84.26 2000.08,-75.52"/>
<polygon fill="midnightblue" stroke="midnightblue" points="1658.86,-162.23 1650.26,-168.42 1660.85,-168.94 1658.86,-162.23"/>
</g>
<!-- Node16&#45;&gt;Node17 -->
<g id="edge25" class="edge">
<title>Node16&#45;&gt;Node17</title>
<path fill="none" stroke="midnightblue" d="M1697.68,-167.1C1776.23,-156.91 1897.42,-141.18 1971.84,-131.52"/>
<polygon fill="midnightblue" stroke="midnightblue" points="1696.83,-163.69 1687.36,-168.44 1697.73,-170.63 1696.83,-163.69"/>
</g>
<!-- Node17&#45;&gt;Node3 -->
<g id="edge26" class="edge">
<title>Node17&#45;&gt;Node3</title>
<path fill="none" stroke="midnightblue" d="M2037.45,-101.8C2037.45,-92.91 2037.45,-82.78 2037.45,-75.75"/>
<polygon fill="midnightblue" stroke="midnightblue" points="2033.95,-102.08 2037.45,-112.08 2040.95,-102.08 2033.95,-102.08"/>
</g>
<!-- Node21&#45;&gt;Node3 -->
<g id="edge36" class="edge">
<title>Node21&#45;&gt;Node3</title>
<path fill="none" stroke="midnightblue" d="M2699.25,-326.28C2696.88,-304.42 2693.45,-267.14 2693.45,-235 2693.45,-235 2693.45,-235 2693.45,-177 2693.45,-146.9 2697.88,-130.89 2674.45,-112 2636.25,-81.21 2346.36,-71.49 2171.08,-68.42"/>
<polygon fill="midnightblue" stroke="midnightblue" points="2695.8,-326.91 2700.4,-336.46 2702.76,-326.13 2695.8,-326.91"/>
</g>
<!-- Node22 -->
<g id="node22" class="node">
<title>Node22</title>
<g id="a_node22"><a xlink:href="opengl__frame__buffer_8h.html" target="_top" xlink:title=" ">
<polygon fill="white" stroke="black" points="2721.45,-280.5 2721.45,-299.5 3145.45,-299.5 3145.45,-280.5 2721.45,-280.5"/>
<text text-anchor="middle" x="2933.45" y="-287.5" font-family="Helvetica,sans-Serif" font-size="10.00">/home/runner/work/gauri/gauri/gauri/include/platform/opengl/opengl_frame_buffer.h</text>
</a>
</g>
</g>
<!-- Node21&#45;&gt;Node22 -->
<g id="edge37" class="edge">
<title>Node21&#45;&gt;Node22</title>
<path fill="none" stroke="midnightblue" d="M2748.05,-334.15C2791.88,-323.95 2856.62,-308.88 2896.86,-299.52"/>
<polygon fill="midnightblue" stroke="midnightblue" points="2747.15,-330.77 2738.21,-336.44 2748.74,-337.59 2747.15,-330.77"/>
</g>
<!-- Node23&#45;&gt;Node3 -->
<g id="edge40" class="edge">
<title>Node23&#45;&gt;Node3</title>
<path fill="none" stroke="midnightblue" d="M2412.2,-166.95C2367.34,-159.94 2310.88,-148.78 2262.45,-132 2244.04,-125.62 2241.71,-118.78 2223.45,-112 2178.13,-95.17 2124.24,-82.93 2086.16,-75.51"/>
<polygon fill="midnightblue" stroke="midnightblue" points="2411.75,-170.43 2422.17,-168.47 2412.81,-163.51 2411.75,-170.43"/>
</g>
<!-- Node23&#45;&gt;Node17 -->
<g id="edge39" class="edge">
<title>Node23&#45;&gt;Node17</title>
<path fill="none" stroke="midnightblue" d="M2410.64,-167.29C2324.8,-157.1 2191.19,-141.25 2109.29,-131.53"/>
<polygon fill="midnightblue" stroke="midnightblue" points="2410.26,-170.77 2420.6,-168.47 2411.08,-163.82 2410.26,-170.77"/>
</g>
<!-- Node24 -->
<g id="node24" class="node">
<title>Node24</title>
<g id="a_node24"><a xlink:href="opengl__shader_8h.html" target="_top" xlink:title=" ">
<polygon fill="white" stroke="black" points="2271.45,-112.5 2271.45,-131.5 2665.45,-131.5 2665.45,-112.5 2271.45,-112.5"/>
<text text-anchor="middle" x="2468.45" y="-119.5" font-family="Helvetica,sans-Serif" font-size="10.00">/home/runner/work/gauri/gauri/gauri/include/platform/opengl/opengl_shader.h</text>
</a>
</g>
</g>
<!-- Node23&#45;&gt;Node24 -->
<g id="edge41" class="edge">
<title>Node23&#45;&gt;Node24</title>
<path fill="none" stroke="midnightblue" d="M2484.31,-158.69C2480.26,-149.59 2475.56,-139.01 2472.34,-131.75"/>
<polygon fill="midnightblue" stroke="midnightblue" points="2481.22,-160.37 2488.48,-168.08 2487.62,-157.52 2481.22,-160.37"/>
</g>
<!-- Node25&#45;&gt;Node3 -->
<g id="edge47" class="edge">
<title>Node25&#45;&gt;Node3</title>
<path fill="none" stroke="midnightblue" d="M3358.92,-227.65C3476.18,-220.69 3599.99,-204.7 3567.45,-168 3521.42,-116.09 2535.47,-81.74 2171.17,-70.78"/>
<polygon fill="midnightblue" stroke="midnightblue" points="3358.47,-224.17 3348.69,-228.23 3358.87,-231.16 3358.47,-224.17"/>
</g>
<!-- Node26 -->
<g id="node26" class="node">
<title>Node26</title>
<g id="a_node26"><a xlink:href="renderer__2d_8h.html" target="_top" xlink:title=" ">
<polygon fill="white" stroke="black" points="2721.95,-112.5 2721.95,-131.5 3094.95,-131.5 3094.95,-112.5 2721.95,-112.5"/>
<text text-anchor="middle" x="2908.45" y="-119.5" font-family="Helvetica,sans-Serif" font-size="10.00">/home/runner/work/gauri/gauri/gauri/include/gauri/renderer/renderer_2d.h</text>
</a>
</g>
</g>
<!-- Node25&#45;&gt;Node26 -->
<g id="edge43" class="edge">
<title>Node25&#45;&gt;Node26</title>
<path fill="none" stroke="midnightblue" d="M2988.2,-224.62C2882.2,-217.87 2767,-206.4 2750.45,-188 2722.23,-156.63 2774.16,-140.05 2825.87,-131.51"/>
<polygon fill="midnightblue" stroke="midnightblue" points="2988.23,-228.13 2998.42,-225.26 2988.66,-221.14 2988.23,-228.13"/>
</g>
<!-- Node27 -->
<g id="node27" class="node">
<title>Node27</title>
<g id="a_node27"><a xlink:href="subtexture__2d_8h.html" target="_top" xlink:title=" ">
<polygon fill="white" stroke="black" points="2759.45,-168.5 2759.45,-187.5 3143.45,-187.5 3143.45,-168.5 2759.45,-168.5"/>
<text text-anchor="middle" x="2951.45" y="-175.5" font-family="Helvetica,sans-Serif" font-size="10.00">/home/runner/work/gauri/gauri/gauri/include/gauri/renderer/subtexture_2d.h</text>
</a>
</g>
</g>
<!-- Node25&#45;&gt;Node27 -->
<g id="edge45" class="edge">
<title>Node25&#45;&gt;Node27</title>
<path fill="none" stroke="midnightblue" d="M3128.32,-222.02C3086.39,-211.82 3024.79,-196.84 2986.46,-187.52"/>
<polygon fill="midnightblue" stroke="midnightblue" points="3127.73,-225.48 3138.27,-224.44 3129.38,-218.68 3127.73,-225.48"/>
</g>
<!-- Node28 -->
<g id="node28" class="node">
<title>Node28</title>
<g id="a_node28"><a xlink:href="opengl__texture_8h.html" target="_top" xlink:title=" ">
<polygon fill="white" stroke="black" points="3161.95,-168.5 3161.95,-187.5 3558.95,-187.5 3558.95,-168.5 3161.95,-168.5"/>
<text text-anchor="middle" x="3360.45" y="-175.5" font-family="Helvetica,sans-Serif" font-size="10.00">/home/runner/work/gauri/gauri/gauri/include/platform/opengl/opengl_texture.h</text>
</a>
</g>
</g>
<!-- Node25&#45;&gt;Node28 -->
<g id="edge48" class="edge">
<title>Node25&#45;&gt;Node28</title>
<path fill="none" stroke="midnightblue" d="M3213.04,-221.57C3248.31,-211.38 3299.14,-196.7 3330.95,-187.52"/>
<polygon fill="midnightblue" stroke="midnightblue" points="3211.71,-218.31 3203.08,-224.44 3213.66,-225.03 3211.71,-218.31"/>
</g>
<!-- Node26&#45;&gt;Node3 -->
<g id="edge44" class="edge">
<title>Node26&#45;&gt;Node3</title>
<path fill="none" stroke="midnightblue" d="M2760.67,-111.84C2595.46,-101.6 2330.25,-85.15 2171.04,-75.28"/>
<polygon fill="midnightblue" stroke="midnightblue" points="2760.72,-115.35 2770.91,-112.47 2761.15,-108.36 2760.72,-115.35"/>
</g>
<!-- Node27&#45;&gt;Node26 -->
<g id="edge46" class="edge">
<title>Node27&#45;&gt;Node26</title>
<path fill="none" stroke="midnightblue" d="M2938.02,-160.14C2930.53,-150.74 2921.51,-139.4 2915.41,-131.75"/>
<polygon fill="midnightblue" stroke="midnightblue" points="2935.38,-162.44 2944.35,-168.08 2940.85,-158.08 2935.38,-162.44"/>
</g>
<!-- Node29&#45;&gt;Node3 -->
<g id="edge54" class="edge">
<title>Node29&#45;&gt;Node3</title>
<path fill="none" stroke="midnightblue" d="M3617.98,-214.43C3611.76,-199.45 3600.87,-179.11 3584.45,-168 3463.05,-85.86 3405.23,-127.18 3259.45,-112 2865.38,-70.98 2396.44,-65.85 2171.21,-66.09"/>
<polygon fill="midnightblue" stroke="midnightblue" points="3614.86,-216.08 3621.69,-224.18 3621.4,-213.59 3614.86,-216.08"/>
</g>
<!-- Node30 -->
<g id="node30" class="node">
<title>Node30</title>
<g id="a_node30"><a xlink:href="scriptable__entity_8h.html" target="_top" xlink:title=" ">
<polygon fill="white" stroke="black" points="3652.45,-168.5 3652.45,-187.5 4034.45,-187.5 4034.45,-168.5 3652.45,-168.5"/>
<text text-anchor="middle" x="3843.45" y="-175.5" font-family="Helvetica,sans-Serif" font-size="10.00">/home/runner/work/gauri/gauri/gauri/include/gauri/scene/scriptable_entity.h</text>
</a>
</g>
</g>
<!-- Node29&#45;&gt;Node30 -->
<g id="edge50" class="edge">
<title>Node29&#45;&gt;Node30</title>
<path fill="none" stroke="midnightblue" d="M3668.96,-222.02C3710.33,-211.82 3771.09,-196.84 3808.91,-187.52"/>
<polygon fill="midnightblue" stroke="midnightblue" points="3668.02,-218.65 3659.15,-224.44 3669.69,-225.45 3668.02,-218.65"/>
</g>
<!-- Node30&#45;&gt;Node3 -->
<g id="edge53" class="edge">
<title>Node30&#45;&gt;Node3</title>
<path fill="none" stroke="midnightblue" d="M3796.15,-166.05C3763.49,-157.96 3719.3,-145.95 3681.45,-132 3661.67,-124.71 3658.96,-116.84 3638.45,-112 3497.8,-78.81 2529.93,-69.85 2171,-67.65"/>
<polygon fill="midnightblue" stroke="midnightblue" points="3795.35,-169.45 3805.9,-168.43 3797.02,-162.65 3795.35,-169.45"/>
</g>
<!-- Node31 -->
<g id="node31" class="node">
<title>Node31</title>
<g id="a_node31"><a xlink:href="component_8h.html" target="_top" xlink:title=" ">
<polygon fill="white" stroke="black" points="3690.45,-112.5 3690.45,-131.5 4046.45,-131.5 4046.45,-112.5 3690.45,-112.5"/>
<text text-anchor="middle" x="3868.45" y="-119.5" font-family="Helvetica,sans-Serif" font-size="10.00">/home/runner/work/gauri/gauri/gauri/include/gauri/scene/component.h</text>
</a>
</g>
</g>
<!-- Node30&#45;&gt;Node31 -->
<g id="edge51" class="edge">
<title>Node30&#45;&gt;Node31</title>
<path fill="none" stroke="midnightblue" d="M3851.79,-158.98C3856.03,-149.82 3861,-139.09 3864.39,-131.75"/>
<polygon fill="midnightblue" stroke="midnightblue" points="3848.6,-157.54 3847.57,-168.08 3854.95,-160.48 3848.6,-157.54"/>
</g>
<!-- Node31&#45;&gt;Node3 -->
<g id="edge52" class="edge">
<title>Node31&#45;&gt;Node3</title>
<path fill="none" stroke="midnightblue" d="M3680.33,-112.15C3679.03,-112.1 3677.74,-112.05 3676.45,-112 3117.31,-91.22 2450.53,-75.82 2171.05,-69.79"/>
<polygon fill="midnightblue" stroke="midnightblue" points="3680.24,-115.64 3690.37,-112.53 3680.51,-108.65 3680.24,-115.64"/>
</g>
</g>
</svg>
