<?xml version="1.0" encoding="UTF-8" standalone="no"?>
<!DOCTYPE svg PUBLIC "-//W3C//DTD SVG 1.1//EN"
 "http://www.w3.org/Graphics/SVG/1.1/DTD/svg11.dtd">
<!-- Generated by graphviz version 2.43.0 (0)
 -->
<!-- Title: /home/runner/work/gauri/gauri/gauri/include/gauri/core/base.h Pages: 1 -->
<!--zoomable 420 -->
<svg id="main" version="1.1" xmlns="http://www.w3.org/2000/svg" xmlns:xlink="http://www.w3.org/1999/xlink" xml:space="preserve" onload="init(evt)">
<style type="text/css"><![CDATA[
.edge:hover path { stroke: red; }
.edge:hover polygon { stroke: red; fill: red; }
]]></style>
<script type="text/javascript"><![CDATA[
var edges = document.getElementsByTagName('g');
if (edges && edges.length) {
  for (var i=0;i<edges.length;i++) {
    if (edges[i].id.substr(0,4)=='edge') {
      edges[i].setAttribute('class','edge');
    }
  }
}
]]></script>
        <defs>
                <circle id="rim" cx="0" cy="0" r="7"/>
                <circle id="rim2" cx="0" cy="0" r="3.5"/>
                <g id="zoomPlus">
                        <use xlink:href="#rim" fill="#404040">
                                <set attributeName="fill" to="#808080" begin="zoomplus.mouseover" end="zoomplus.mouseout"/>
                        </use>
                        <path d="M-4,0h8M0,-4v8" fill="none" stroke="white" stroke-width="1.5" pointer-events="none"/>
                </g>
                <g id="zoomMin">
                        <use xlink:href="#rim" fill="#404040">
                                <set attributeName="fill" to="#808080" begin="zoomminus.mouseover" end="zoomminus.mouseout"/>
                        </use>
                        <path d="M-4,0h8" fill="none" stroke="white" stroke-width="1.5" pointer-events="none"/>
                </g>
                <g id="dirArrow">
                        <path fill="none" stroke="white" stroke-width="1.5" d="M0,-3.0v7 M-2.5,-0.5L0,-3.0L2.5,-0.5"/>
                </g>
               <g id="resetDef">
                       <use xlink:href="#rim2" fill="#404040">
                               <set attributeName="fill" to="#808080" begin="reset.mouseover" end="reset.mouseout"/>
                       </use>
               </g>
        </defs>

<script type="text/javascript">
var viewWidth = 3746;
var viewHeight = 420;
var sectionId = 'dynsection-1';
</script>
<script xlink:href="svgpan.js"/>
<svg id="graph" class="graph">
<g id="viewport">
<title>/home/runner/work/gauri/gauri/gauri/include/gauri/core/base.h</title>
<polygon fill="white" stroke="transparent" points="-4,4 -4,-416 3741.5,-416 3741.5,4 -4,4"/>
<!-- Node1 -->
<g id="node1" class="node">
<title>Node1</title>
<g id="a_node1"><a xlink:title=" ">
<polygon fill="#bfbfbf" stroke="black" points="1250.5,-392.5 1250.5,-411.5 1567.5,-411.5 1567.5,-392.5 1250.5,-392.5"/>
<text text-anchor="middle" x="1409" y="-399.5" font-family="Helvetica,sans-Serif" font-size="10.00">/home/runner/work/gauri/gauri/gauri/include/gauri/core/base.h</text>
</a>
</g>
</g>
<!-- Node2 -->
<g id="node2" class="node">
<title>Node2</title>
<g id="a_node2"><a xlink:href="input_8h.html" target="_top" xlink:title=" ">
<polygon fill="white" stroke="black" points="212.5,-336.5 212.5,-355.5 531.5,-355.5 531.5,-336.5 212.5,-336.5"/>
<text text-anchor="middle" x="372" y="-343.5" font-family="Helvetica,sans-Serif" font-size="10.00">/home/runner/work/gauri/gauri/gauri/include/gauri/core/input.h</text>
</a>
</g>
</g>
<!-- Node1&#45;&gt;Node2 -->
<g id="edge1" class="edge">
<title>Node1&#45;&gt;Node2</title>
<path fill="none" stroke="midnightblue" d="M1240.27,-392.21C1044.44,-382.02 723.87,-365.32 531.89,-355.33"/>
<polygon fill="midnightblue" stroke="midnightblue" points="1240.2,-395.71 1250.37,-392.74 1240.57,-388.72 1240.2,-395.71"/>
</g>
<!-- Node6 -->
<g id="node6" class="node">
<title>Node6</title>
<g id="a_node6"><a xlink:href="layer_8h.html" target="_top" xlink:title=" ">
<polygon fill="white" stroke="black" points="436,-224.5 436,-243.5 754,-243.5 754,-224.5 436,-224.5"/>
<text text-anchor="middle" x="595" y="-231.5" font-family="Helvetica,sans-Serif" font-size="10.00">/home/runner/work/gauri/gauri/gauri/include/gauri/core/layer.h</text>
</a>
</g>
</g>
<!-- Node1&#45;&gt;Node6 -->
<g id="edge5" class="edge">
<title>Node1&#45;&gt;Node6</title>
<path fill="none" stroke="midnightblue" d="M1239.8,-399.29C1079.7,-395.83 851.8,-385.66 768,-356 696.48,-330.68 627.51,-267.2 603.73,-243.82"/>
<polygon fill="midnightblue" stroke="midnightblue" points="1240.17,-402.79 1250.24,-399.5 1240.32,-395.8 1240.17,-402.79"/>
</g>
<!-- Node7 -->
<g id="node7" class="node">
<title>Node7</title>
<g id="a_node7"><a xlink:href="layer__stack_8h.html" target="_top" xlink:title=" ">
<polygon fill="white" stroke="black" points="442,-168.5 442,-187.5 792,-187.5 792,-168.5 442,-168.5"/>
<text text-anchor="middle" x="617" y="-175.5" font-family="Helvetica,sans-Serif" font-size="10.00">/home/runner/work/gauri/gauri/gauri/include/gauri/core/layer_stack.h</text>
</a>
</g>
</g>
<!-- Node1&#45;&gt;Node7 -->
<g id="edge13" class="edge">
<title>Node1&#45;&gt;Node7</title>
<path fill="none" stroke="midnightblue" d="M1289.04,-391.42C1179.32,-379.58 1014.17,-353.96 880,-300 822.47,-276.86 819.17,-250.27 763,-224 727.68,-207.48 684.78,-195.09 654.66,-187.54"/>
<polygon fill="midnightblue" stroke="midnightblue" points="1288.84,-394.91 1299.15,-392.48 1289.57,-387.95 1288.84,-394.91"/>
</g>
<!-- Node10 -->
<g id="node10" class="node">
<title>Node10</title>
<g id="a_node10"><a xlink:href="event_8h.html" target="_top" xlink:title=" ">
<polygon fill="white" stroke="black" points="889.5,-280.5 889.5,-299.5 1218.5,-299.5 1218.5,-280.5 889.5,-280.5"/>
<text text-anchor="middle" x="1054" y="-287.5" font-family="Helvetica,sans-Serif" font-size="10.00">/home/runner/work/gauri/gauri/gauri/include/gauri/event/event.h</text>
</a>
</g>
</g>
<!-- Node1&#45;&gt;Node10 -->
<g id="edge14" class="edge">
<title>Node1&#45;&gt;Node10</title>
<path fill="none" stroke="midnightblue" d="M1371.49,-389.38C1299.85,-367.18 1145.05,-319.21 1081.79,-299.61"/>
<polygon fill="midnightblue" stroke="midnightblue" points="1370.85,-392.84 1381.44,-392.46 1372.92,-386.16 1370.85,-392.84"/>
</g>
<!-- Node14 -->
<g id="node14" class="node">
<title>Node14</title>
<g id="a_node14"><a xlink:href="buffer_8h.html" target="_top" xlink:title=" ">
<polygon fill="white" stroke="black" points="1307,-336.5 1307,-355.5 1649,-355.5 1649,-336.5 1307,-336.5"/>
<text text-anchor="middle" x="1478" y="-343.5" font-family="Helvetica,sans-Serif" font-size="10.00">/home/runner/work/gauri/gauri/gauri/include/gauri/renderer/buffer.h</text>
</a>
</g>
</g>
<!-- Node1&#45;&gt;Node14 -->
<g id="edge22" class="edge">
<title>Node1&#45;&gt;Node14</title>
<path fill="none" stroke="midnightblue" d="M1428.04,-386.1C1440.46,-376.38 1456.24,-364.03 1466.71,-355.83"/>
<polygon fill="midnightblue" stroke="midnightblue" points="1425.8,-383.4 1420.09,-392.32 1430.12,-388.92 1425.8,-383.4"/>
</g>
<!-- Node22 -->
<g id="node22" class="node">
<title>Node22</title>
<g id="a_node22"><a xlink:href="frame__buffer_8h.html" target="_top" xlink:title=" ">
<polygon fill="white" stroke="black" points="2557.5,-336.5 2557.5,-355.5 2934.5,-355.5 2934.5,-336.5 2557.5,-336.5"/>
<text text-anchor="middle" x="2746" y="-343.5" font-family="Helvetica,sans-Serif" font-size="10.00">/home/runner/work/gauri/gauri/gauri/include/gauri/renderer/frame_buffer.h</text>
</a>
</g>
</g>
<!-- Node1&#45;&gt;Node22 -->
<g id="edge36" class="edge">
<title>Node1&#45;&gt;Node22</title>
<path fill="none" stroke="midnightblue" d="M1577.9,-394.18C1828.18,-384.07 2295.99,-365.18 2557.24,-354.62"/>
<polygon fill="midnightblue" stroke="midnightblue" points="1577.47,-390.69 1567.62,-394.59 1577.75,-397.69 1577.47,-390.69"/>
</g>
<!-- Node24 -->
<g id="node24" class="node">
<title>Node24</title>
<g id="a_node24"><a xlink:href="shader_8h.html" target="_top" xlink:title=" ">
<polygon fill="white" stroke="black" points="2371.5,-168.5 2371.5,-187.5 2718.5,-187.5 2718.5,-168.5 2371.5,-168.5"/>
<text text-anchor="middle" x="2545" y="-175.5" font-family="Helvetica,sans-Serif" font-size="10.00">/home/runner/work/gauri/gauri/gauri/include/gauri/renderer/shader.h</text>
</a>
</g>
</g>
<!-- Node1&#45;&gt;Node24 -->
<g id="edge39" class="edge">
<title>Node1&#45;&gt;Node24</title>
<path fill="none" stroke="midnightblue" d="M1544.47,-391.67C1701.21,-379 1966.28,-351.73 2189,-300 2319.99,-269.58 2470.68,-209.77 2524.55,-187.56"/>
<polygon fill="midnightblue" stroke="midnightblue" points="1543.99,-388.2 1534.31,-392.49 1544.55,-395.18 1543.99,-388.2"/>
</g>
<!-- Node26 -->
<g id="node26" class="node">
<title>Node26</title>
<g id="a_node26"><a xlink:href="texture_8h.html" target="_top" xlink:title=" ">
<polygon fill="white" stroke="black" points="2955,-224.5 2955,-243.5 3305,-243.5 3305,-224.5 2955,-224.5"/>
<text text-anchor="middle" x="3130" y="-231.5" font-family="Helvetica,sans-Serif" font-size="10.00">/home/runner/work/gauri/gauri/gauri/include/gauri/renderer/texture.h</text>
</a>
</g>
</g>
<!-- Node1&#45;&gt;Node26 -->
<g id="edge43" class="edge">
<title>Node1&#45;&gt;Node26</title>
<path fill="none" stroke="midnightblue" d="M1577.86,-399.87C1919.73,-396.96 2683.31,-387.1 2943,-356 3062.09,-341.74 3131.5,-393.2 3207,-300 3226.11,-276.42 3183.95,-254.94 3154.79,-243.55"/>
<polygon fill="midnightblue" stroke="midnightblue" points="1577.59,-396.38 1567.62,-399.96 1577.65,-403.38 1577.59,-396.38"/>
</g>
<!-- Node3 -->
<g id="node3" class="node">
<title>Node3</title>
<g id="a_node3"><a xlink:href="gauri_8h.html" target="_top" xlink:title=" ">
<polygon fill="white" stroke="black" points="1293.5,-56.5 1293.5,-75.5 1560.5,-75.5 1560.5,-56.5 1293.5,-56.5"/>
<text text-anchor="middle" x="1427" y="-63.5" font-family="Helvetica,sans-Serif" font-size="10.00">/home/runner/work/gauri/gauri/gauri/include/gauri.h</text>
</a>
</g>
</g>
<!-- Node2&#45;&gt;Node3 -->
<g id="edge2" class="edge">
<title>Node2&#45;&gt;Node3</title>
<path fill="none" stroke="midnightblue" d="M272.26,-335.23C162.07,-321.61 0,-291.9 0,-235 0,-235 0,-235 0,-177 0,-106.38 76.21,-127.98 145,-112 254.41,-86.58 987.6,-73.28 1293.43,-68.78"/>
<polygon fill="midnightblue" stroke="midnightblue" points="272.08,-338.74 282.42,-336.46 272.92,-331.79 272.08,-338.74"/>
</g>
<!-- Node5 -->
<g id="node5" class="node">
<title>Node5</title>
<g id="a_node5"><a xlink:href="windows__input_8h.html" target="_top" xlink:title=" ">
<polygon fill="white" stroke="black" points="169,-280.5 169,-299.5 575,-299.5 575,-280.5 169,-280.5"/>
<text text-anchor="middle" x="372" y="-287.5" font-family="Helvetica,sans-Serif" font-size="10.00">/home/runner/work/gauri/gauri/gauri/include/platform/windows/windows_input.h</text>
</a>
</g>
</g>
<!-- Node2&#45;&gt;Node5 -->
<g id="edge4" class="edge">
<title>Node2&#45;&gt;Node5</title>
<path fill="none" stroke="midnightblue" d="M372,-325.8C372,-316.91 372,-306.78 372,-299.75"/>
<polygon fill="midnightblue" stroke="midnightblue" points="368.5,-326.08 372,-336.08 375.5,-326.08 368.5,-326.08"/>
</g>
<!-- Node4 -->
<g id="node4" class="node">
<title>Node4</title>
<g id="a_node4"><a xlink:href="entry__point_8h.html" target="_top" xlink:title=" ">
<polygon fill="white" stroke="black" points="1252,-0.5 1252,-19.5 1602,-19.5 1602,-0.5 1252,-0.5"/>
<text text-anchor="middle" x="1427" y="-7.5" font-family="Helvetica,sans-Serif" font-size="10.00">/home/runner/work/gauri/gauri/gauri/include/gauri/core/entry_point.h</text>
</a>
</g>
</g>
<!-- Node3&#45;&gt;Node4 -->
<g id="edge3" class="edge">
<title>Node3&#45;&gt;Node4</title>
<path fill="none" stroke="midnightblue" d="M1427,-45.8C1427,-36.91 1427,-26.78 1427,-19.75"/>
<polygon fill="midnightblue" stroke="midnightblue" points="1423.5,-46.08 1427,-56.08 1430.5,-46.08 1423.5,-46.08"/>
</g>
<!-- Node6&#45;&gt;Node3 -->
<g id="edge12" class="edge">
<title>Node6&#45;&gt;Node3</title>
<path fill="none" stroke="midnightblue" d="M425.69,-230.12C277.43,-225.8 81.83,-214.99 57,-188 50.98,-181.46 51.25,-174.78 57,-168 135.93,-74.92 964.48,-66.12 1293.45,-66.33"/>
<polygon fill="midnightblue" stroke="midnightblue" points="425.74,-233.63 435.83,-230.41 425.93,-226.63 425.74,-233.63"/>
</g>
<!-- Node6&#45;&gt;Node7 -->
<g id="edge6" class="edge">
<title>Node6&#45;&gt;Node7</title>
<path fill="none" stroke="midnightblue" d="M602.46,-214.69C606.17,-205.59 610.48,-195.01 613.43,-187.75"/>
<polygon fill="midnightblue" stroke="midnightblue" points="599.16,-213.5 598.63,-224.08 605.65,-216.14 599.16,-213.5"/>
</g>
<!-- Node9 -->
<g id="node9" class="node">
<title>Node9</title>
<g id="a_node9"><a xlink:href="imgui__layer_8h.html" target="_top" xlink:title=" ">
<polygon fill="white" stroke="black" points="66,-168.5 66,-187.5 424,-187.5 424,-168.5 66,-168.5"/>
<text text-anchor="middle" x="245" y="-175.5" font-family="Helvetica,sans-Serif" font-size="10.00">/home/runner/work/gauri/gauri/gauri/include/gauri/imgui/imgui_layer.h</text>
</a>
</g>
</g>
<!-- Node6&#45;&gt;Node9 -->
<g id="edge9" class="edge">
<title>Node6&#45;&gt;Node9</title>
<path fill="none" stroke="midnightblue" d="M529.64,-222.92C463.52,-212.71 362.43,-197.12 300.2,-187.52"/>
<polygon fill="midnightblue" stroke="midnightblue" points="529.12,-226.38 539.54,-224.44 530.19,-219.46 529.12,-226.38"/>
</g>
<!-- Node8 -->
<g id="node8" class="node">
<title>Node8</title>
<g id="a_node8"><a xlink:href="application_8h.html" target="_top" xlink:title=" ">
<polygon fill="white" stroke="black" points="506,-112.5 506,-131.5 854,-131.5 854,-112.5 506,-112.5"/>
<text text-anchor="middle" x="680" y="-119.5" font-family="Helvetica,sans-Serif" font-size="10.00">/home/runner/work/gauri/gauri/gauri/include/gauri/core/application.h</text>
</a>
</g>
</g>
<!-- Node7&#45;&gt;Node8 -->
<g id="edge7" class="edge">
<title>Node7&#45;&gt;Node8</title>
<path fill="none" stroke="midnightblue" d="M635.04,-161.54C646.27,-151.91 660.32,-139.87 669.69,-131.83"/>
<polygon fill="midnightblue" stroke="midnightblue" points="632.44,-159.16 627.12,-168.32 636.99,-164.47 632.44,-159.16"/>
</g>
<!-- Node8&#45;&gt;Node3 -->
<g id="edge8" class="edge">
<title>Node8&#45;&gt;Node3</title>
<path fill="none" stroke="midnightblue" d="M807.94,-111.75C948.65,-101.58 1172.88,-85.37 1309.36,-75.5"/>
<polygon fill="midnightblue" stroke="midnightblue" points="807.67,-108.26 797.95,-112.47 808.18,-115.24 807.67,-108.26"/>
</g>
<!-- Node9&#45;&gt;Node3 -->
<g id="edge11" class="edge">
<title>Node9&#45;&gt;Node3</title>
<path fill="none" stroke="midnightblue" d="M280.43,-165.41C328.77,-150.16 418.39,-123.91 497,-112 646.43,-89.36 1073.79,-75.78 1293.3,-70.11"/>
<polygon fill="midnightblue" stroke="midnightblue" points="279.23,-162.12 270.76,-168.49 281.35,-168.79 279.23,-162.12"/>
</g>
<!-- Node9&#45;&gt;Node8 -->
<g id="edge10" class="edge">
<title>Node9&#45;&gt;Node8</title>
<path fill="none" stroke="midnightblue" d="M323.96,-167.2C406.08,-157 533.34,-141.21 611.4,-131.52"/>
<polygon fill="midnightblue" stroke="midnightblue" points="323.42,-163.74 313.93,-168.44 324.28,-170.68 323.42,-163.74"/>
</g>
<!-- Node10&#45;&gt;Node6 -->
<g id="edge16" class="edge">
<title>Node10&#45;&gt;Node6</title>
<path fill="none" stroke="midnightblue" d="M971.47,-279.29C884.88,-269.1 750.09,-253.25 667.47,-243.53"/>
<polygon fill="midnightblue" stroke="midnightblue" points="971.18,-282.78 981.52,-280.47 972,-275.83 971.18,-282.78"/>
</g>
<!-- Node10&#45;&gt;Node8 -->
<g id="edge15" class="edge">
<title>Node10&#45;&gt;Node8</title>
<path fill="none" stroke="midnightblue" d="M978.79,-278.55C946.6,-271.88 909.48,-261.13 879,-244 836.81,-220.28 841.9,-193.88 801,-168 773.92,-150.86 739.34,-138.83 714.08,-131.54"/>
<polygon fill="midnightblue" stroke="midnightblue" points="978.12,-281.98 988.61,-280.49 979.48,-275.12 978.12,-281.98"/>
</g>
<!-- Node11 -->
<g id="node11" class="node">
<title>Node11</title>
<g id="a_node11"><a xlink:href="window_8h.html" target="_top" xlink:title=" ">
<polygon fill="white" stroke="black" points="888.5,-224.5 888.5,-243.5 1219.5,-243.5 1219.5,-224.5 888.5,-224.5"/>
<text text-anchor="middle" x="1054" y="-231.5" font-family="Helvetica,sans-Serif" font-size="10.00">/home/runner/work/gauri/gauri/gauri/include/gauri/core/window.h</text>
</a>
</g>
</g>
<!-- Node10&#45;&gt;Node11 -->
<g id="edge17" class="edge">
<title>Node10&#45;&gt;Node11</title>
<path fill="none" stroke="midnightblue" d="M1054,-269.8C1054,-260.91 1054,-250.78 1054,-243.75"/>
<polygon fill="midnightblue" stroke="midnightblue" points="1050.5,-270.08 1054,-280.08 1057.5,-270.08 1050.5,-270.08"/>
</g>
<!-- Node13 -->
<g id="node13" class="node">
<title>Node13</title>
<g id="a_node13"><a xlink:href="orthographic__camera__controller_8h.html" target="_top" xlink:title=" ">
<polygon fill="white" stroke="black" points="872.5,-112.5 872.5,-131.5 1341.5,-131.5 1341.5,-112.5 872.5,-112.5"/>
<text text-anchor="middle" x="1107" y="-119.5" font-family="Helvetica,sans-Serif" font-size="10.00">/home/runner/work/gauri/gauri/gauri/include/gauri/renderer/orthographic_camera_controller.h</text>
</a>
</g>
</g>
<!-- Node10&#45;&gt;Node13 -->
<g id="edge20" class="edge">
<title>Node10&#45;&gt;Node13</title>
<path fill="none" stroke="midnightblue" d="M1165.58,-278.45C1221.97,-266.44 1284.39,-241.11 1313,-188 1317.22,-180.17 1318.57,-174.92 1313,-168 1298.08,-149.47 1245.19,-138.15 1196.74,-131.5"/>
<polygon fill="midnightblue" stroke="midnightblue" points="1164.62,-275.07 1155.5,-280.47 1165.99,-281.93 1164.62,-275.07"/>
</g>
<!-- Node11&#45;&gt;Node8 -->
<g id="edge18" class="edge">
<title>Node11&#45;&gt;Node8</title>
<path fill="none" stroke="midnightblue" d="M1000.97,-222.23C965.4,-214.35 917.78,-202.52 877,-188 857.14,-180.93 853.73,-175.42 834,-168 793.85,-152.9 746.28,-139.68 714.74,-131.55"/>
<polygon fill="midnightblue" stroke="midnightblue" points="1000.62,-225.74 1011.14,-224.45 1002.11,-218.9 1000.62,-225.74"/>
</g>
<!-- Node12 -->
<g id="node12" class="node">
<title>Node12</title>
<g id="a_node12"><a xlink:href="windows__window_8h.html" target="_top" xlink:title=" ">
<polygon fill="white" stroke="black" points="886,-168.5 886,-187.5 1304,-187.5 1304,-168.5 886,-168.5"/>
<text text-anchor="middle" x="1095" y="-175.5" font-family="Helvetica,sans-Serif" font-size="10.00">/home/runner/work/gauri/gauri/gauri/include/platform/windows/windows_window.h</text>
</a>
</g>
</g>
<!-- Node11&#45;&gt;Node12 -->
<g id="edge19" class="edge">
<title>Node11&#45;&gt;Node12</title>
<path fill="none" stroke="midnightblue" d="M1067.02,-215.86C1074.12,-206.5 1082.6,-195.33 1088.36,-187.75"/>
<polygon fill="midnightblue" stroke="midnightblue" points="1064.03,-214 1060.77,-224.08 1069.61,-218.24 1064.03,-214"/>
</g>
<!-- Node13&#45;&gt;Node3 -->
<g id="edge21" class="edge">
<title>Node13&#45;&gt;Node3</title>
<path fill="none" stroke="midnightblue" d="M1167.87,-110.73C1228.34,-100.52 1319.99,-85.06 1376.53,-75.52"/>
<polygon fill="midnightblue" stroke="midnightblue" points="1166.98,-107.33 1157.7,-112.44 1168.15,-114.23 1166.98,-107.33"/>
</g>
<!-- Node14&#45;&gt;Node3 -->
<g id="edge34" class="edge">
<title>Node14&#45;&gt;Node3</title>
<path fill="none" stroke="midnightblue" d="M1437.35,-332.62C1420.26,-325.55 1401.49,-315.03 1389,-300 1369.76,-276.85 1370,-265.1 1370,-235 1370,-235 1370,-235 1370,-177 1370,-135.06 1403.07,-93.19 1418.83,-75.62"/>
<polygon fill="midnightblue" stroke="midnightblue" points="1436.57,-336.07 1447.16,-336.39 1439.08,-329.53 1436.57,-336.07"/>
</g>
<!-- Node15 -->
<g id="node15" class="node">
<title>Node15</title>
<g id="a_node15"><a xlink:href="vertex__array_8h.html" target="_top" xlink:title=" ">
<polygon fill="white" stroke="black" points="1398.5,-280.5 1398.5,-299.5 1773.5,-299.5 1773.5,-280.5 1398.5,-280.5"/>
<text text-anchor="middle" x="1586" y="-287.5" font-family="Helvetica,sans-Serif" font-size="10.00">/home/runner/work/gauri/gauri/gauri/include/gauri/renderer/vertex_array.h</text>
</a>
</g>
</g>
<!-- Node14&#45;&gt;Node15 -->
<g id="edge23" class="edge">
<title>Node14&#45;&gt;Node15</title>
<path fill="none" stroke="midnightblue" d="M1504.55,-331.73C1524.55,-321.73 1551.39,-308.31 1568.69,-299.65"/>
<polygon fill="midnightblue" stroke="midnightblue" points="1502.73,-328.72 1495.35,-336.32 1505.86,-334.98 1502.73,-328.72"/>
</g>
<!-- Node21 -->
<g id="node21" class="node">
<title>Node21</title>
<g id="a_node21"><a xlink:href="opengl__buffer_8h.html" target="_top" xlink:title=" ">
<polygon fill="white" stroke="black" points="1791.5,-280.5 1791.5,-299.5 2180.5,-299.5 2180.5,-280.5 1791.5,-280.5"/>
<text text-anchor="middle" x="1986" y="-287.5" font-family="Helvetica,sans-Serif" font-size="10.00">/home/runner/work/gauri/gauri/gauri/include/platform/opengl/opengl_buffer.h</text>
</a>
</g>
</g>
<!-- Node14&#45;&gt;Node21 -->
<g id="edge35" class="edge">
<title>Node14&#45;&gt;Node21</title>
<path fill="none" stroke="midnightblue" d="M1568.17,-335.41C1663.97,-325.23 1813.98,-309.29 1905.79,-299.53"/>
<polygon fill="midnightblue" stroke="midnightblue" points="1567.79,-331.94 1558.21,-336.47 1568.53,-338.9 1567.79,-331.94"/>
</g>
<!-- Node15&#45;&gt;Node3 -->
<g id="edge32" class="edge">
<title>Node15&#45;&gt;Node3</title>
<path fill="none" stroke="midnightblue" d="M1509.42,-277.71C1488.22,-271.09 1466.95,-260.6 1452,-244 1407.55,-194.65 1419.95,-104.12 1425.21,-75.74"/>
<polygon fill="midnightblue" stroke="midnightblue" points="1508.56,-281.1 1519.14,-280.48 1510.48,-274.37 1508.56,-281.1"/>
</g>
<!-- Node16 -->
<g id="node16" class="node">
<title>Node16</title>
<g id="a_node16"><a xlink:href="renderer__api_8h.html" target="_top" xlink:title=" ">
<polygon fill="white" stroke="black" points="1461,-224.5 1461,-243.5 1837,-243.5 1837,-224.5 1461,-224.5"/>
<text text-anchor="middle" x="1649" y="-231.5" font-family="Helvetica,sans-Serif" font-size="10.00">/home/runner/work/gauri/gauri/gauri/include/gauri/renderer/renderer_api.h</text>
</a>
</g>
</g>
<!-- Node15&#45;&gt;Node16 -->
<g id="edge24" class="edge">
<title>Node15&#45;&gt;Node16</title>
<path fill="none" stroke="midnightblue" d="M1604.04,-273.54C1615.27,-263.91 1629.32,-251.87 1638.69,-243.83"/>
<polygon fill="midnightblue" stroke="midnightblue" points="1601.44,-271.16 1596.12,-280.32 1605.99,-276.47 1601.44,-271.16"/>
</g>
<!-- Node20 -->
<g id="node20" class="node">
<title>Node20</title>
<g id="a_node20"><a xlink:href="opengl__vertex__array_8h.html" target="_top" xlink:title=" ">
<polygon fill="white" stroke="black" points="1855,-224.5 1855,-243.5 2277,-243.5 2277,-224.5 1855,-224.5"/>
<text text-anchor="middle" x="2066" y="-231.5" font-family="Helvetica,sans-Serif" font-size="10.00">/home/runner/work/gauri/gauri/gauri/include/platform/opengl/opengl_vertex_array.h</text>
</a>
</g>
</g>
<!-- Node15&#45;&gt;Node20 -->
<g id="edge33" class="edge">
<title>Node15&#45;&gt;Node20</title>
<path fill="none" stroke="midnightblue" d="M1671.75,-279.35C1762.29,-269.17 1903.63,-253.27 1990.21,-243.53"/>
<polygon fill="midnightblue" stroke="midnightblue" points="1671.34,-275.88 1661.79,-280.47 1672.12,-282.83 1671.34,-275.88"/>
</g>
<!-- Node16&#45;&gt;Node3 -->
<g id="edge30" class="edge">
<title>Node16&#45;&gt;Node3</title>
<path fill="none" stroke="midnightblue" d="M1577.01,-222.8C1532.72,-215.15 1481.39,-203.37 1465,-188 1432.07,-157.13 1427.51,-98.11 1427,-75.82"/>
<polygon fill="midnightblue" stroke="midnightblue" points="1576.48,-226.26 1586.92,-224.46 1577.64,-219.36 1576.48,-226.26"/>
</g>
<!-- Node17 -->
<g id="node17" class="node">
<title>Node17</title>
<g id="a_node17"><a xlink:href="render__command_8h.html" target="_top" xlink:title=" ">
<polygon fill="white" stroke="black" points="1474,-168.5 1474,-187.5 1874,-187.5 1874,-168.5 1474,-168.5"/>
<text text-anchor="middle" x="1674" y="-175.5" font-family="Helvetica,sans-Serif" font-size="10.00">/home/runner/work/gauri/gauri/gauri/include/gauri/renderer/render_command.h</text>
</a>
</g>
</g>
<!-- Node16&#45;&gt;Node17 -->
<g id="edge25" class="edge">
<title>Node16&#45;&gt;Node17</title>
<path fill="none" stroke="midnightblue" d="M1657.34,-214.98C1661.58,-205.82 1666.55,-195.09 1669.95,-187.75"/>
<polygon fill="midnightblue" stroke="midnightblue" points="1654.15,-213.54 1653.13,-224.08 1660.51,-216.48 1654.15,-213.54"/>
</g>
<!-- Node18 -->
<g id="node18" class="node">
<title>Node18</title>
<g id="a_node18"><a xlink:href="renderer_8h.html" target="_top" xlink:title=" ">
<polygon fill="white" stroke="black" points="1665.5,-112.5 1665.5,-131.5 2020.5,-131.5 2020.5,-112.5 1665.5,-112.5"/>
<text text-anchor="middle" x="1843" y="-119.5" font-family="Helvetica,sans-Serif" font-size="10.00">/home/runner/work/gauri/gauri/gauri/include/gauri/renderer/renderer.h</text>
</a>
</g>
</g>
<!-- Node16&#45;&gt;Node18 -->
<g id="edge29" class="edge">
<title>Node16&#45;&gt;Node18</title>
<path fill="none" stroke="midnightblue" d="M1774.67,-223.14C1822.17,-216.58 1868.33,-205.75 1883,-188 1898.27,-169.51 1871.95,-144.67 1855.22,-131.71"/>
<polygon fill="midnightblue" stroke="midnightblue" points="1773.99,-219.7 1764.53,-224.48 1774.9,-226.64 1773.99,-219.7"/>
</g>
<!-- Node19 -->
<g id="node19" class="node">
<title>Node19</title>
<g id="a_node19"><a xlink:href="opengl__renderer__api_8h.html" target="_top" xlink:title=" ">
<polygon fill="white" stroke="black" points="1930.5,-168.5 1930.5,-187.5 2353.5,-187.5 2353.5,-168.5 1930.5,-168.5"/>
<text text-anchor="middle" x="2142" y="-175.5" font-family="Helvetica,sans-Serif" font-size="10.00">/home/runner/work/gauri/gauri/gauri/include/platform/opengl/opengl_renderer_api.h</text>
</a>
</g>
</g>
<!-- Node16&#45;&gt;Node19 -->
<g id="edge31" class="edge">
<title>Node16&#45;&gt;Node19</title>
<path fill="none" stroke="midnightblue" d="M1736.79,-223.38C1829.77,-213.2 1975.15,-197.28 2064.16,-187.53"/>
<polygon fill="midnightblue" stroke="midnightblue" points="1736.4,-219.91 1726.85,-224.47 1737.17,-226.86 1736.4,-219.91"/>
</g>
<!-- Node17&#45;&gt;Node3 -->
<g id="edge28" class="edge">
<title>Node17&#45;&gt;Node3</title>
<path fill="none" stroke="midnightblue" d="M1645.18,-164.16C1594.21,-141.47 1489.49,-94.83 1446.29,-75.59"/>
<polygon fill="midnightblue" stroke="midnightblue" points="1644.06,-167.5 1654.62,-168.37 1646.91,-161.1 1644.06,-167.5"/>
</g>
<!-- Node17&#45;&gt;Node18 -->
<g id="edge26" class="edge">
<title>Node17&#45;&gt;Node18</title>
<path fill="none" stroke="midnightblue" d="M1710.6,-165.3C1742.45,-155.13 1787.84,-140.62 1816.35,-131.52"/>
<polygon fill="midnightblue" stroke="midnightblue" points="1709.24,-162.07 1700.78,-168.44 1711.37,-168.73 1709.24,-162.07"/>
</g>
<!-- Node18&#45;&gt;Node3 -->
<g id="edge27" class="edge">
<title>Node18&#45;&gt;Node3</title>
<path fill="none" stroke="midnightblue" d="M1766.77,-111.1C1688.21,-100.91 1567.03,-85.18 1492.61,-75.52"/>
<polygon fill="midnightblue" stroke="midnightblue" points="1766.72,-114.63 1777.08,-112.44 1767.62,-107.69 1766.72,-114.63"/>
</g>
<!-- Node22&#45;&gt;Node3 -->
<g id="edge37" class="edge">
<title>Node22&#45;&gt;Node3</title>
<path fill="none" stroke="midnightblue" d="M2746,-326.25C2746,-304.36 2746,-267.05 2746,-235 2746,-235 2746,-235 2746,-177 2746,-146.9 2750.77,-130.47 2727,-112 2681.54,-76.68 1883.5,-69.08 1560.79,-67.44"/>
<polygon fill="midnightblue" stroke="midnightblue" points="2742.5,-326.44 2746,-336.44 2749.5,-326.44 2742.5,-326.44"/>
</g>
<!-- Node23 -->
<g id="node23" class="node">
<title>Node23</title>
<g id="a_node23"><a xlink:href="opengl__frame__buffer_8h.html" target="_top" xlink:title=" ">
<polygon fill="white" stroke="black" points="2774,-280.5 2774,-299.5 3198,-299.5 3198,-280.5 2774,-280.5"/>
<text text-anchor="middle" x="2986" y="-287.5" font-family="Helvetica,sans-Serif" font-size="10.00">/home/runner/work/gauri/gauri/gauri/include/platform/opengl/opengl_frame_buffer.h</text>
</a>
</g>
</g>
<!-- Node22&#45;&gt;Node23 -->
<g id="edge38" class="edge">
<title>Node22&#45;&gt;Node23</title>
<path fill="none" stroke="midnightblue" d="M2793.92,-334.22C2839.27,-324.01 2906.44,-308.9 2948.15,-299.52"/>
<polygon fill="midnightblue" stroke="midnightblue" points="2793.02,-330.83 2784.03,-336.44 2794.55,-337.66 2793.02,-330.83"/>
</g>
<!-- Node24&#45;&gt;Node3 -->
<g id="edge41" class="edge">
<title>Node24&#45;&gt;Node3</title>
<path fill="none" stroke="midnightblue" d="M2474.94,-167.03C2375.81,-153.19 2188.87,-128.03 2029,-112 1868.27,-95.88 1682.88,-82.86 1560.77,-75.05"/>
<polygon fill="midnightblue" stroke="midnightblue" points="2474.74,-170.54 2485.13,-168.46 2475.71,-163.6 2474.74,-170.54"/>
</g>
<!-- Node24&#45;&gt;Node18 -->
<g id="edge40" class="edge">
<title>Node24&#45;&gt;Node18</title>
<path fill="none" stroke="midnightblue" d="M2423.98,-167.69C2291.69,-157.51 2081.55,-141.35 1953.55,-131.5"/>
<polygon fill="midnightblue" stroke="midnightblue" points="2423.91,-171.2 2434.15,-168.47 2424.45,-164.22 2423.91,-171.2"/>
</g>
<!-- Node25 -->
<g id="node25" class="node">
<title>Node25</title>
<g id="a_node25"><a xlink:href="opengl__shader_8h.html" target="_top" xlink:title=" ">
<polygon fill="white" stroke="black" points="2324,-112.5 2324,-131.5 2718,-131.5 2718,-112.5 2324,-112.5"/>
<text text-anchor="middle" x="2521" y="-119.5" font-family="Helvetica,sans-Serif" font-size="10.00">/home/runner/work/gauri/gauri/gauri/include/platform/opengl/opengl_shader.h</text>
</a>
</g>
</g>
<!-- Node24&#45;&gt;Node25 -->
<g id="edge42" class="edge">
<title>Node24&#45;&gt;Node25</title>
<path fill="none" stroke="midnightblue" d="M2536.86,-158.69C2532.82,-149.59 2528.12,-139.01 2524.89,-131.75"/>
<polygon fill="midnightblue" stroke="midnightblue" points="2533.78,-160.37 2541.04,-168.08 2540.17,-157.52 2533.78,-160.37"/>
</g>
<!-- Node26&#45;&gt;Node3 -->
<g id="edge48" class="edge">
<title>Node26&#45;&gt;Node3</title>
<path fill="none" stroke="midnightblue" d="M3063.6,-222.71C3021.99,-215.29 2967.6,-203.78 2921,-188 2918.66,-187.21 2762.4,-112.58 2760,-112 2645.85,-84.38 1875.47,-72.28 1560.64,-68.44"/>
<polygon fill="midnightblue" stroke="midnightblue" points="3063.16,-226.19 3073.62,-224.47 3064.37,-219.29 3063.16,-226.19"/>
</g>
<!-- Node27 -->
<g id="node27" class="node">
<title>Node27</title>
<g id="a_node27"><a xlink:href="renderer__2d_8h.html" target="_top" xlink:title=" ">
<polygon fill="white" stroke="black" points="2812.5,-112.5 2812.5,-131.5 3185.5,-131.5 3185.5,-112.5 2812.5,-112.5"/>
<text text-anchor="middle" x="2999" y="-119.5" font-family="Helvetica,sans-Serif" font-size="10.00">/home/runner/work/gauri/gauri/gauri/include/gauri/renderer/renderer_2d.h</text>
</a>
</g>
</g>
<!-- Node26&#45;&gt;Node27 -->
<g id="edge44" class="edge">
<title>Node26&#45;&gt;Node27</title>
<path fill="none" stroke="midnightblue" d="M3034.18,-223C2989.29,-216.13 2942.69,-205.09 2929,-188 2910.86,-165.35 2950.23,-143.29 2976.96,-131.6"/>
<polygon fill="midnightblue" stroke="midnightblue" points="3033.92,-226.49 3044.32,-224.48 3034.94,-219.57 3033.92,-226.49"/>
</g>
<!-- Node28 -->
<g id="node28" class="node">
<title>Node28</title>
<g id="a_node28"><a xlink:href="subtexture__2d_8h.html" target="_top" xlink:title=" ">
<polygon fill="white" stroke="black" points="2938,-168.5 2938,-187.5 3322,-187.5 3322,-168.5 2938,-168.5"/>
<text text-anchor="middle" x="3130" y="-175.5" font-family="Helvetica,sans-Serif" font-size="10.00">/home/runner/work/gauri/gauri/gauri/include/gauri/renderer/subtexture_2d.h</text>
</a>
</g>
</g>
<!-- Node26&#45;&gt;Node28 -->
<g id="edge46" class="edge">
<title>Node26&#45;&gt;Node28</title>
<path fill="none" stroke="midnightblue" d="M3130,-213.8C3130,-204.91 3130,-194.78 3130,-187.75"/>
<polygon fill="midnightblue" stroke="midnightblue" points="3126.5,-214.08 3130,-224.08 3133.5,-214.08 3126.5,-214.08"/>
</g>
<!-- Node29 -->
<g id="node29" class="node">
<title>Node29</title>
<g id="a_node29"><a xlink:href="opengl__texture_8h.html" target="_top" xlink:title=" ">
<polygon fill="white" stroke="black" points="3340.5,-168.5 3340.5,-187.5 3737.5,-187.5 3737.5,-168.5 3340.5,-168.5"/>
<text text-anchor="middle" x="3539" y="-175.5" font-family="Helvetica,sans-Serif" font-size="10.00">/home/runner/work/gauri/gauri/gauri/include/platform/opengl/opengl_texture.h</text>
</a>
</g>
</g>
<!-- Node26&#45;&gt;Node29 -->
<g id="edge49" class="edge">
<title>Node26&#45;&gt;Node29</title>
<path fill="none" stroke="midnightblue" d="M3204.95,-223.1C3282.18,-212.91 3401.33,-197.18 3474.5,-187.52"/>
<polygon fill="midnightblue" stroke="midnightblue" points="3204.26,-219.66 3194.81,-224.44 3205.18,-226.6 3204.26,-219.66"/>
</g>
<!-- Node27&#45;&gt;Node3 -->
<g id="edge45" class="edge">
<title>Node27&#45;&gt;Node3</title>
<path fill="none" stroke="midnightblue" d="M2801.99,-112.16C2800.66,-112.1 2799.33,-112.05 2798,-112 2344.37,-94.4 1806.13,-78.06 1560.81,-70.86"/>
<polygon fill="midnightblue" stroke="midnightblue" points="2802.17,-115.67 2812.3,-112.56 2802.45,-108.67 2802.17,-115.67"/>
</g>
<!-- Node28&#45;&gt;Node27 -->
<g id="edge47" class="edge">
<title>Node28&#45;&gt;Node27</title>
<path fill="none" stroke="midnightblue" d="M3099.68,-164.5C3075.12,-154.38 3041.18,-140.39 3019.66,-131.52"/>
<polygon fill="midnightblue" stroke="midnightblue" points="3098.66,-167.87 3109.24,-168.44 3101.33,-161.4 3098.66,-167.87"/>
</g>
</g>
</svg>
        <g id="navigator" transform="translate(0 0)" fill="#404254">
                <rect fill="#f2f5e9" fill-opacity="0.5" stroke="#606060" stroke-width=".5" x="0" y="0" width="60" height="60"/>
                <use id="zoomplus" xlink:href="#zoomPlus" x="17" y="9" onmousedown="handleZoom(evt,'in')"/>
                <use id="zoomminus" xlink:href="#zoomMin" x="42" y="9" onmousedown="handleZoom(evt,'out')"/>
                <use id="reset" xlink:href="#resetDef" x="30" y="36" onmousedown="handleReset()"/>
                <g id="arrowUp" xlink:href="#dirArrow" transform="translate(30 24)" onmousedown="handlePan(0,-1)">
                  <use xlink:href="#rim" fill="#404040">
                        <set attributeName="fill" to="#808080" begin="arrowUp.mouseover" end="arrowUp.mouseout"/>
                  </use>
                  <path fill="none" stroke="white" stroke-width="1.5" d="M0,-3.0v7 M-2.5,-0.5L0,-3.0L2.5,-0.5"/>
                </g>
                <g id="arrowRight" xlink:href="#dirArrow" transform="rotate(90) translate(36 -43)" onmousedown="handlePan(1,0)">
                  <use xlink:href="#rim" fill="#404040">
                        <set attributeName="fill" to="#808080" begin="arrowRight.mouseover" end="arrowRight.mouseout"/>
                  </use>
                  <path fill="none" stroke="white" stroke-width="1.5" d="M0,-3.0v7 M-2.5,-0.5L0,-3.0L2.5,-0.5"/>
                </g>
                <g id="arrowDown" xlink:href="#dirArrow" transform="rotate(180) translate(-30 -48)" onmousedown="handlePan(0,1)">
                  <use xlink:href="#rim" fill="#404040">
                        <set attributeName="fill" to="#808080" begin="arrowDown.mouseover" end="arrowDown.mouseout"/>
                  </use>
                  <path fill="none" stroke="white" stroke-width="1.5" d="M0,-3.0v7 M-2.5,-0.5L0,-3.0L2.5,-0.5"/>
                </g>
                <g id="arrowLeft" xlink:href="#dirArrow" transform="rotate(270) translate(-36 17)" onmousedown="handlePan(-1,0)">
                  <use xlink:href="#rim" fill="#404040">
                        <set attributeName="fill" to="#808080" begin="arrowLeft.mouseover" end="arrowLeft.mouseout"/>
                  </use>
                  <path fill="none" stroke="white" stroke-width="1.5" d="M0,-3.0v7 M-2.5,-0.5L0,-3.0L2.5,-0.5"/>
                </g>
        </g>
        <svg viewBox="0 0 15 15" width="100%" height="30px" preserveAspectRatio="xMaxYMin meet">
         <g id="arrow_out" transform="scale(0.3 0.3)">
          <a xlink:href="base_8h__dep__incl_org.svg" target="_base">
           <rect id="button" ry="5" rx="5" y="6" x="6" height="38" width="38"
                fill="#f2f5e9" fill-opacity="0.5" stroke="#606060" stroke-width="1.0"/>
           <path id="arrow"
             d="M 11.500037,31.436501 C 11.940474,20.09759 22.043105,11.32322 32.158766,21.979434 L 37.068811,17.246167 C 37.068811,17.246167 37.088388,32 37.088388,32 L 22.160133,31.978069 C 22.160133,31.978069 26.997745,27.140456 26.997745,27.140456 C 18.528582,18.264221 13.291696,25.230495 11.500037,31.436501 z"
             style="fill:#404040;"/>
          </a>
         </g>
        </svg>
</svg>
