<?xml version="1.0" encoding="UTF-8" standalone="no"?>
<!DOCTYPE svg PUBLIC "-//W3C//DTD SVG 1.1//EN"
 "http://www.w3.org/Graphics/SVG/1.1/DTD/svg11.dtd">
<!-- Generated by graphviz version 2.43.0 (0)
 -->
<!-- Title: /home/runner/work/gauri/gauri/gauri/include/gauri/core/base.h Pages: 1 -->
<!--zoomable 420 -->
<svg id="main" version="1.1" xmlns="http://www.w3.org/2000/svg" xmlns:xlink="http://www.w3.org/1999/xlink" xml:space="preserve" onload="init(evt)">
<style type="text/css"><![CDATA[
.edge:hover path { stroke: red; }
.edge:hover polygon { stroke: red; fill: red; }
]]></style>
<script type="text/javascript"><![CDATA[
var edges = document.getElementsByTagName('g');
if (edges && edges.length) {
  for (var i=0;i<edges.length;i++) {
    if (edges[i].id.substr(0,4)=='edge') {
      edges[i].setAttribute('class','edge');
    }
  }
}
]]></script>
        <defs>
                <circle id="rim" cx="0" cy="0" r="7"/>
                <circle id="rim2" cx="0" cy="0" r="3.5"/>
                <g id="zoomPlus">
                        <use xlink:href="#rim" fill="#404040">
                                <set attributeName="fill" to="#808080" begin="zoomplus.mouseover" end="zoomplus.mouseout"/>
                        </use>
                        <path d="M-4,0h8M0,-4v8" fill="none" stroke="white" stroke-width="1.5" pointer-events="none"/>
                </g>
                <g id="zoomMin">
                        <use xlink:href="#rim" fill="#404040">
                                <set attributeName="fill" to="#808080" begin="zoomminus.mouseover" end="zoomminus.mouseout"/>
                        </use>
                        <path d="M-4,0h8" fill="none" stroke="white" stroke-width="1.5" pointer-events="none"/>
                </g>
                <g id="dirArrow">
                        <path fill="none" stroke="white" stroke-width="1.5" d="M0,-3.0v7 M-2.5,-0.5L0,-3.0L2.5,-0.5"/>
                </g>
               <g id="resetDef">
                       <use xlink:href="#rim2" fill="#404040">
                               <set attributeName="fill" to="#808080" begin="reset.mouseover" end="reset.mouseout"/>
                       </use>
               </g>
        </defs>

<script type="text/javascript">
var viewWidth = 3720;
var viewHeight = 420;
var sectionId = 'dynsection-1';
</script>
<script xlink:href="svgpan.js"/>
<svg id="graph" class="graph">
<g id="viewport">
<title>/home/runner/work/gauri/gauri/gauri/include/gauri/core/base.h</title>
<polygon fill="white" stroke="transparent" points="-4,4 -4,-416 3715.5,-416 3715.5,4 -4,4"/>
<!-- Node1 -->
<g id="node1" class="node">
<title>Node1</title>
<g id="a_node1"><a xlink:title=" ">
<polygon fill="#bfbfbf" stroke="black" points="1446.5,-392.5 1446.5,-411.5 1763.5,-411.5 1763.5,-392.5 1446.5,-392.5"/>
<text text-anchor="middle" x="1605" y="-399.5" font-family="Helvetica,sans-Serif" font-size="10.00">/home/runner/work/gauri/gauri/gauri/include/gauri/core/base.h</text>
</a>
</g>
</g>
<!-- Node2 -->
<g id="node2" class="node">
<title>Node2</title>
<g id="a_node2"><a xlink:href="input_8h.html" target="_top" xlink:title=" ">
<polygon fill="white" stroke="black" points="118.5,-336.5 118.5,-355.5 437.5,-355.5 437.5,-336.5 118.5,-336.5"/>
<text text-anchor="middle" x="278" y="-343.5" font-family="Helvetica,sans-Serif" font-size="10.00">/home/runner/work/gauri/gauri/gauri/include/gauri/core/input.h</text>
</a>
</g>
</g>
<!-- Node1&#45;&gt;Node2 -->
<g id="edge1" class="edge">
<title>Node1&#45;&gt;Node2</title>
<path fill="none" stroke="midnightblue" d="M1436.04,-394.12C1178.19,-383.63 689.91,-363.76 437.71,-353.5"/>
<polygon fill="midnightblue" stroke="midnightblue" points="1436.12,-397.63 1446.25,-394.54 1436.4,-390.64 1436.12,-397.63"/>
</g>
<!-- Node5 -->
<g id="node5" class="node">
<title>Node5</title>
<g id="a_node5"><a xlink:href="layer_8h.html" target="_top" xlink:title=" ">
<polygon fill="white" stroke="black" points="436,-224.5 436,-243.5 754,-243.5 754,-224.5 436,-224.5"/>
<text text-anchor="middle" x="595" y="-231.5" font-family="Helvetica,sans-Serif" font-size="10.00">/home/runner/work/gauri/gauri/gauri/include/gauri/core/layer.h</text>
</a>
</g>
</g>
<!-- Node1&#45;&gt;Node5 -->
<g id="edge4" class="edge">
<title>Node1&#45;&gt;Node5</title>
<path fill="none" stroke="midnightblue" d="M1435.88,-396.88C1209.5,-390.6 829.18,-377.1 768,-356 695.93,-331.15 626.77,-266.8 603.36,-243.55"/>
<polygon fill="midnightblue" stroke="midnightblue" points="1436.11,-400.39 1446.2,-397.16 1436.3,-393.39 1436.11,-400.39"/>
</g>
<!-- Node6 -->
<g id="node6" class="node">
<title>Node6</title>
<g id="a_node6"><a xlink:href="layer__stack_8h.html" target="_top" xlink:title=" ">
<polygon fill="white" stroke="black" points="442,-168.5 442,-187.5 792,-187.5 792,-168.5 442,-168.5"/>
<text text-anchor="middle" x="617" y="-175.5" font-family="Helvetica,sans-Serif" font-size="10.00">/home/runner/work/gauri/gauri/gauri/include/gauri/core/layer_stack.h</text>
</a>
</g>
</g>
<!-- Node1&#45;&gt;Node6 -->
<g id="edge12" class="edge">
<title>Node1&#45;&gt;Node6</title>
<path fill="none" stroke="midnightblue" d="M1436.1,-398.22C1285.81,-390.95 1062.23,-368.2 880,-300 821.93,-278.27 819.17,-250.27 763,-224 727.68,-207.48 684.78,-195.09 654.66,-187.54"/>
<polygon fill="midnightblue" stroke="midnightblue" points="1436.19,-401.73 1446.35,-398.7 1436.52,-394.73 1436.19,-401.73"/>
</g>
<!-- Node9 -->
<g id="node9" class="node">
<title>Node9</title>
<g id="a_node9"><a xlink:href="event_8h.html" target="_top" xlink:title=" ">
<polygon fill="white" stroke="black" points="889.5,-280.5 889.5,-299.5 1218.5,-299.5 1218.5,-280.5 889.5,-280.5"/>
<text text-anchor="middle" x="1054" y="-287.5" font-family="Helvetica,sans-Serif" font-size="10.00">/home/runner/work/gauri/gauri/gauri/include/gauri/event/event.h</text>
</a>
</g>
</g>
<!-- Node1&#45;&gt;Node9 -->
<g id="edge13" class="edge">
<title>Node1&#45;&gt;Node9</title>
<path fill="none" stroke="midnightblue" d="M1552.14,-390.45C1443.35,-368.73 1196.3,-319.41 1096.75,-299.53"/>
<polygon fill="midnightblue" stroke="midnightblue" points="1551.73,-393.93 1562.22,-392.46 1553.1,-387.07 1551.73,-393.93"/>
</g>
<!-- Node13 -->
<g id="node13" class="node">
<title>Node13</title>
<g id="a_node13"><a xlink:href="buffer_8h.html" target="_top" xlink:title=" ">
<polygon fill="white" stroke="black" points="1434,-336.5 1434,-355.5 1776,-355.5 1776,-336.5 1434,-336.5"/>
<text text-anchor="middle" x="1605" y="-343.5" font-family="Helvetica,sans-Serif" font-size="10.00">/home/runner/work/gauri/gauri/gauri/include/gauri/renderer/buffer.h</text>
</a>
</g>
</g>
<!-- Node1&#45;&gt;Node13 -->
<g id="edge21" class="edge">
<title>Node1&#45;&gt;Node13</title>
<path fill="none" stroke="midnightblue" d="M1605,-381.8C1605,-372.91 1605,-362.78 1605,-355.75"/>
<polygon fill="midnightblue" stroke="midnightblue" points="1601.5,-382.08 1605,-392.08 1608.5,-382.08 1601.5,-382.08"/>
</g>
<!-- Node21 -->
<g id="node21" class="node">
<title>Node21</title>
<g id="a_node21"><a xlink:href="frame__buffer_8h.html" target="_top" xlink:title=" ">
<polygon fill="white" stroke="black" points="2557.5,-336.5 2557.5,-355.5 2934.5,-355.5 2934.5,-336.5 2557.5,-336.5"/>
<text text-anchor="middle" x="2746" y="-343.5" font-family="Helvetica,sans-Serif" font-size="10.00">/home/runner/work/gauri/gauri/gauri/include/gauri/renderer/frame_buffer.h</text>
</a>
</g>
</g>
<!-- Node1&#45;&gt;Node21 -->
<g id="edge35" class="edge">
<title>Node1&#45;&gt;Node21</title>
<path fill="none" stroke="midnightblue" d="M1773.64,-393.02C1985.85,-382.98 2348.78,-365.8 2566.15,-355.51"/>
<polygon fill="midnightblue" stroke="midnightblue" points="1773.47,-389.52 1763.65,-393.49 1773.81,-396.51 1773.47,-389.52"/>
</g>
<!-- Node23 -->
<g id="node23" class="node">
<title>Node23</title>
<g id="a_node23"><a xlink:href="shader_8h.html" target="_top" xlink:title=" ">
<polygon fill="white" stroke="black" points="2371.5,-168.5 2371.5,-187.5 2718.5,-187.5 2718.5,-168.5 2371.5,-168.5"/>
<text text-anchor="middle" x="2545" y="-175.5" font-family="Helvetica,sans-Serif" font-size="10.00">/home/runner/work/gauri/gauri/gauri/include/gauri/renderer/shader.h</text>
</a>
</g>
</g>
<!-- Node1&#45;&gt;Node23 -->
<g id="edge38" class="edge">
<title>Node1&#45;&gt;Node23</title>
<path fill="none" stroke="midnightblue" d="M1693.13,-391.25C1811.52,-377.02 2027.87,-347.02 2208,-300 2331.61,-267.74 2473.92,-209.3 2525.26,-187.5"/>
<polygon fill="midnightblue" stroke="midnightblue" points="1692.55,-387.79 1683.04,-392.45 1693.38,-394.75 1692.55,-387.79"/>
</g>
<!-- Node25 -->
<g id="node25" class="node">
<title>Node25</title>
<g id="a_node25"><a xlink:href="texture_8h.html" target="_top" xlink:title=" ">
<polygon fill="white" stroke="black" points="2867,-224.5 2867,-243.5 3217,-243.5 3217,-224.5 2867,-224.5"/>
<text text-anchor="middle" x="3042" y="-231.5" font-family="Helvetica,sans-Serif" font-size="10.00">/home/runner/work/gauri/gauri/gauri/include/gauri/renderer/texture.h</text>
</a>
</g>
</g>
<!-- Node1&#45;&gt;Node25 -->
<g id="edge42" class="edge">
<title>Node1&#45;&gt;Node25</title>
<path fill="none" stroke="midnightblue" d="M1773.99,-399.01C2081.65,-394.78 2721.86,-382.96 2943,-356 3062.06,-341.48 3131.5,-393.2 3207,-300 3232.82,-268.12 3187.06,-251.82 3137.24,-243.51"/>
<polygon fill="midnightblue" stroke="midnightblue" points="1773.58,-395.52 1763.63,-399.15 1773.68,-402.52 1773.58,-395.52"/>
</g>
<!-- Node29 -->
<g id="node29" class="node">
<title>Node29</title>
<g id="a_node29"><a xlink:href="entity_8h.html" target="_top" xlink:title=" ">
<polygon fill="white" stroke="black" points="3382.5,-336.5 3382.5,-355.5 3711.5,-355.5 3711.5,-336.5 3382.5,-336.5"/>
<text text-anchor="middle" x="3547" y="-343.5" font-family="Helvetica,sans-Serif" font-size="10.00">/home/runner/work/gauri/gauri/gauri/include/gauri/scene/entity.h</text>
</a>
</g>
</g>
<!-- Node1&#45;&gt;Node29 -->
<g id="edge49" class="edge">
<title>Node1&#45;&gt;Node29</title>
<path fill="none" stroke="midnightblue" d="M1774.11,-396.45C2070.87,-388.43 2704.73,-371.21 3240,-356 3286.24,-354.69 3336.39,-353.23 3382.5,-351.88"/>
<polygon fill="midnightblue" stroke="midnightblue" points="1773.6,-392.96 1763.7,-396.73 1773.79,-399.96 1773.6,-392.96"/>
</g>
<!-- Node3 -->
<g id="node3" class="node">
<title>Node3</title>
<g id="a_node3"><a xlink:href="gauri_8h.html" target="_top" xlink:title=" ">
<polygon fill="white" stroke="black" points="1312.5,-56.5 1312.5,-75.5 1579.5,-75.5 1579.5,-56.5 1312.5,-56.5"/>
<text text-anchor="middle" x="1446" y="-63.5" font-family="Helvetica,sans-Serif" font-size="10.00">/home/runner/work/gauri/gauri/gauri/include/gauri.h</text>
</a>
</g>
</g>
<!-- Node2&#45;&gt;Node3 -->
<g id="edge2" class="edge">
<title>Node2&#45;&gt;Node3</title>
<path fill="none" stroke="midnightblue" d="M221.06,-334.44C139.72,-317.7 0,-282.1 0,-235 0,-235 0,-235 0,-177 0,-105.97 76.79,-127.97 146,-112 257.19,-86.35 1003.21,-73.15 1312.28,-68.73"/>
<polygon fill="midnightblue" stroke="midnightblue" points="220.66,-337.93 231.16,-336.48 222.05,-331.07 220.66,-337.93"/>
</g>
<!-- Node4 -->
<g id="node4" class="node">
<title>Node4</title>
<g id="a_node4"><a xlink:href="entry__point_8h.html" target="_top" xlink:title=" ">
<polygon fill="white" stroke="black" points="1271,-0.5 1271,-19.5 1621,-19.5 1621,-0.5 1271,-0.5"/>
<text text-anchor="middle" x="1446" y="-7.5" font-family="Helvetica,sans-Serif" font-size="10.00">/home/runner/work/gauri/gauri/gauri/include/gauri/core/entry_point.h</text>
</a>
</g>
</g>
<!-- Node3&#45;&gt;Node4 -->
<g id="edge3" class="edge">
<title>Node3&#45;&gt;Node4</title>
<path fill="none" stroke="midnightblue" d="M1446,-45.8C1446,-36.91 1446,-26.78 1446,-19.75"/>
<polygon fill="midnightblue" stroke="midnightblue" points="1442.5,-46.08 1446,-56.08 1449.5,-46.08 1442.5,-46.08"/>
</g>
<!-- Node5&#45;&gt;Node3 -->
<g id="edge11" class="edge">
<title>Node5&#45;&gt;Node3</title>
<path fill="none" stroke="midnightblue" d="M425.69,-230.12C277.43,-225.8 81.83,-214.99 57,-188 50.98,-181.46 51.25,-174.78 57,-168 137.16,-73.46 980.14,-65.57 1312.43,-66.18"/>
<polygon fill="midnightblue" stroke="midnightblue" points="425.74,-233.63 435.83,-230.41 425.93,-226.63 425.74,-233.63"/>
</g>
<!-- Node5&#45;&gt;Node6 -->
<g id="edge5" class="edge">
<title>Node5&#45;&gt;Node6</title>
<path fill="none" stroke="midnightblue" d="M602.46,-214.69C606.17,-205.59 610.48,-195.01 613.43,-187.75"/>
<polygon fill="midnightblue" stroke="midnightblue" points="599.16,-213.5 598.63,-224.08 605.65,-216.14 599.16,-213.5"/>
</g>
<!-- Node8 -->
<g id="node8" class="node">
<title>Node8</title>
<g id="a_node8"><a xlink:href="imgui__layer_8h.html" target="_top" xlink:title=" ">
<polygon fill="white" stroke="black" points="66,-168.5 66,-187.5 424,-187.5 424,-168.5 66,-168.5"/>
<text text-anchor="middle" x="245" y="-175.5" font-family="Helvetica,sans-Serif" font-size="10.00">/home/runner/work/gauri/gauri/gauri/include/gauri/imgui/imgui_layer.h</text>
</a>
</g>
</g>
<!-- Node5&#45;&gt;Node8 -->
<g id="edge8" class="edge">
<title>Node5&#45;&gt;Node8</title>
<path fill="none" stroke="midnightblue" d="M529.64,-222.92C463.52,-212.71 362.43,-197.12 300.2,-187.52"/>
<polygon fill="midnightblue" stroke="midnightblue" points="529.12,-226.38 539.54,-224.44 530.19,-219.46 529.12,-226.38"/>
</g>
<!-- Node7 -->
<g id="node7" class="node">
<title>Node7</title>
<g id="a_node7"><a xlink:href="application_8h.html" target="_top" xlink:title=" ">
<polygon fill="white" stroke="black" points="506,-112.5 506,-131.5 854,-131.5 854,-112.5 506,-112.5"/>
<text text-anchor="middle" x="680" y="-119.5" font-family="Helvetica,sans-Serif" font-size="10.00">/home/runner/work/gauri/gauri/gauri/include/gauri/core/application.h</text>
</a>
</g>
</g>
<!-- Node6&#45;&gt;Node7 -->
<g id="edge6" class="edge">
<title>Node6&#45;&gt;Node7</title>
<path fill="none" stroke="midnightblue" d="M635.04,-161.54C646.27,-151.91 660.32,-139.87 669.69,-131.83"/>
<polygon fill="midnightblue" stroke="midnightblue" points="632.44,-159.16 627.12,-168.32 636.99,-164.47 632.44,-159.16"/>
</g>
<!-- Node7&#45;&gt;Node3 -->
<g id="edge7" class="edge">
<title>Node7&#45;&gt;Node3</title>
<path fill="none" stroke="midnightblue" d="M811.19,-111.75C955.49,-101.58 1185.42,-85.37 1325.37,-75.5"/>
<polygon fill="midnightblue" stroke="midnightblue" points="810.68,-108.28 800.95,-112.47 811.17,-115.26 810.68,-108.28"/>
</g>
<!-- Node8&#45;&gt;Node3 -->
<g id="edge10" class="edge">
<title>Node8&#45;&gt;Node3</title>
<path fill="none" stroke="midnightblue" d="M280.43,-165.4C328.77,-150.14 418.38,-123.87 497,-112 650.1,-88.88 1089.08,-75.47 1312.26,-69.96"/>
<polygon fill="midnightblue" stroke="midnightblue" points="279.22,-162.11 270.76,-168.48 281.35,-168.78 279.22,-162.11"/>
</g>
<!-- Node8&#45;&gt;Node7 -->
<g id="edge9" class="edge">
<title>Node8&#45;&gt;Node7</title>
<path fill="none" stroke="midnightblue" d="M323.96,-167.2C406.08,-157 533.34,-141.21 611.4,-131.52"/>
<polygon fill="midnightblue" stroke="midnightblue" points="323.42,-163.74 313.93,-168.44 324.28,-170.68 323.42,-163.74"/>
</g>
<!-- Node9&#45;&gt;Node5 -->
<g id="edge15" class="edge">
<title>Node9&#45;&gt;Node5</title>
<path fill="none" stroke="midnightblue" d="M971.47,-279.29C884.88,-269.1 750.09,-253.25 667.47,-243.53"/>
<polygon fill="midnightblue" stroke="midnightblue" points="971.18,-282.78 981.52,-280.47 972,-275.83 971.18,-282.78"/>
</g>
<!-- Node9&#45;&gt;Node7 -->
<g id="edge14" class="edge">
<title>Node9&#45;&gt;Node7</title>
<path fill="none" stroke="midnightblue" d="M978.79,-278.55C946.6,-271.88 909.48,-261.13 879,-244 836.81,-220.28 841.9,-193.88 801,-168 773.92,-150.86 739.34,-138.83 714.08,-131.54"/>
<polygon fill="midnightblue" stroke="midnightblue" points="978.12,-281.98 988.61,-280.49 979.48,-275.12 978.12,-281.98"/>
</g>
<!-- Node10 -->
<g id="node10" class="node">
<title>Node10</title>
<g id="a_node10"><a xlink:href="window_8h.html" target="_top" xlink:title=" ">
<polygon fill="white" stroke="black" points="888.5,-224.5 888.5,-243.5 1219.5,-243.5 1219.5,-224.5 888.5,-224.5"/>
<text text-anchor="middle" x="1054" y="-231.5" font-family="Helvetica,sans-Serif" font-size="10.00">/home/runner/work/gauri/gauri/gauri/include/gauri/core/window.h</text>
</a>
</g>
</g>
<!-- Node9&#45;&gt;Node10 -->
<g id="edge16" class="edge">
<title>Node9&#45;&gt;Node10</title>
<path fill="none" stroke="midnightblue" d="M1054,-269.8C1054,-260.91 1054,-250.78 1054,-243.75"/>
<polygon fill="midnightblue" stroke="midnightblue" points="1050.5,-270.08 1054,-280.08 1057.5,-270.08 1050.5,-270.08"/>
</g>
<!-- Node12 -->
<g id="node12" class="node">
<title>Node12</title>
<g id="a_node12"><a xlink:href="orthographic__camera__controller_8h.html" target="_top" xlink:title=" ">
<polygon fill="white" stroke="black" points="872.5,-112.5 872.5,-131.5 1341.5,-131.5 1341.5,-112.5 872.5,-112.5"/>
<text text-anchor="middle" x="1107" y="-119.5" font-family="Helvetica,sans-Serif" font-size="10.00">/home/runner/work/gauri/gauri/gauri/include/gauri/renderer/orthographic_camera_controller.h</text>
</a>
</g>
</g>
<!-- Node9&#45;&gt;Node12 -->
<g id="edge19" class="edge">
<title>Node9&#45;&gt;Node12</title>
<path fill="none" stroke="midnightblue" d="M1165.58,-278.45C1221.97,-266.44 1284.39,-241.11 1313,-188 1317.22,-180.17 1318.57,-174.92 1313,-168 1298.08,-149.47 1245.19,-138.15 1196.74,-131.5"/>
<polygon fill="midnightblue" stroke="midnightblue" points="1164.62,-275.07 1155.5,-280.47 1165.99,-281.93 1164.62,-275.07"/>
</g>
<!-- Node10&#45;&gt;Node7 -->
<g id="edge17" class="edge">
<title>Node10&#45;&gt;Node7</title>
<path fill="none" stroke="midnightblue" d="M1000.97,-222.23C965.4,-214.35 917.78,-202.52 877,-188 857.14,-180.93 853.73,-175.42 834,-168 793.85,-152.9 746.28,-139.68 714.74,-131.55"/>
<polygon fill="midnightblue" stroke="midnightblue" points="1000.62,-225.74 1011.14,-224.45 1002.11,-218.9 1000.62,-225.74"/>
</g>
<!-- Node11 -->
<g id="node11" class="node">
<title>Node11</title>
<g id="a_node11"><a xlink:href="windows__window_8h.html" target="_top" xlink:title=" ">
<polygon fill="white" stroke="black" points="886,-168.5 886,-187.5 1304,-187.5 1304,-168.5 886,-168.5"/>
<text text-anchor="middle" x="1095" y="-175.5" font-family="Helvetica,sans-Serif" font-size="10.00">/home/runner/work/gauri/gauri/gauri/include/platform/windows/windows_window.h</text>
</a>
</g>
</g>
<!-- Node10&#45;&gt;Node11 -->
<g id="edge18" class="edge">
<title>Node10&#45;&gt;Node11</title>
<path fill="none" stroke="midnightblue" d="M1067.02,-215.86C1074.12,-206.5 1082.6,-195.33 1088.36,-187.75"/>
<polygon fill="midnightblue" stroke="midnightblue" points="1064.03,-214 1060.77,-224.08 1069.61,-218.24 1064.03,-214"/>
</g>
<!-- Node12&#45;&gt;Node3 -->
<g id="edge20" class="edge">
<title>Node12&#45;&gt;Node3</title>
<path fill="none" stroke="midnightblue" d="M1170.7,-110.85C1234.75,-100.65 1332.39,-85.1 1392.54,-75.52"/>
<polygon fill="midnightblue" stroke="midnightblue" points="1170.04,-107.41 1160.72,-112.44 1171.14,-114.33 1170.04,-107.41"/>
</g>
<!-- Node13&#45;&gt;Node3 -->
<g id="edge33" class="edge">
<title>Node13&#45;&gt;Node3</title>
<path fill="none" stroke="midnightblue" d="M1493.53,-334.54C1432.84,-322.01 1370,-294.63 1370,-235 1370,-235 1370,-235 1370,-177 1370,-132.2 1413.2,-92.43 1434.46,-75.57"/>
<polygon fill="midnightblue" stroke="midnightblue" points="1493.15,-338.03 1503.63,-336.5 1494.48,-331.16 1493.15,-338.03"/>
</g>
<!-- Node14 -->
<g id="node14" class="node">
<title>Node14</title>
<g id="a_node14"><a xlink:href="vertex__array_8h.html" target="_top" xlink:title=" ">
<polygon fill="white" stroke="black" points="1417.5,-280.5 1417.5,-299.5 1792.5,-299.5 1792.5,-280.5 1417.5,-280.5"/>
<text text-anchor="middle" x="1605" y="-287.5" font-family="Helvetica,sans-Serif" font-size="10.00">/home/runner/work/gauri/gauri/gauri/include/gauri/renderer/vertex_array.h</text>
</a>
</g>
</g>
<!-- Node13&#45;&gt;Node14 -->
<g id="edge22" class="edge">
<title>Node13&#45;&gt;Node14</title>
<path fill="none" stroke="midnightblue" d="M1605,-325.8C1605,-316.91 1605,-306.78 1605,-299.75"/>
<polygon fill="midnightblue" stroke="midnightblue" points="1601.5,-326.08 1605,-336.08 1608.5,-326.08 1601.5,-326.08"/>
</g>
<!-- Node20 -->
<g id="node20" class="node">
<title>Node20</title>
<g id="a_node20"><a xlink:href="opengl__buffer_8h.html" target="_top" xlink:title=" ">
<polygon fill="white" stroke="black" points="1810.5,-280.5 1810.5,-299.5 2199.5,-299.5 2199.5,-280.5 1810.5,-280.5"/>
<text text-anchor="middle" x="2005" y="-287.5" font-family="Helvetica,sans-Serif" font-size="10.00">/home/runner/work/gauri/gauri/gauri/include/platform/opengl/opengl_buffer.h</text>
</a>
</g>
</g>
<!-- Node13&#45;&gt;Node20 -->
<g id="edge34" class="edge">
<title>Node13&#45;&gt;Node20</title>
<path fill="none" stroke="midnightblue" d="M1678.3,-335.1C1753.83,-324.91 1870.36,-309.18 1941.92,-299.52"/>
<polygon fill="midnightblue" stroke="midnightblue" points="1677.82,-331.64 1668.38,-336.44 1678.76,-338.57 1677.82,-331.64"/>
</g>
<!-- Node14&#45;&gt;Node3 -->
<g id="edge31" class="edge">
<title>Node14&#45;&gt;Node3</title>
<path fill="none" stroke="midnightblue" d="M1504.98,-277.43C1484.85,-270.62 1465.7,-260.12 1452,-244 1409.38,-193.87 1433.82,-103.86 1442.99,-75.68"/>
<polygon fill="midnightblue" stroke="midnightblue" points="1504.01,-280.79 1514.6,-280.39 1506.07,-274.1 1504.01,-280.79"/>
</g>
<!-- Node15 -->
<g id="node15" class="node">
<title>Node15</title>
<g id="a_node15"><a xlink:href="renderer__api_8h.html" target="_top" xlink:title=" ">
<polygon fill="white" stroke="black" points="1461,-224.5 1461,-243.5 1837,-243.5 1837,-224.5 1461,-224.5"/>
<text text-anchor="middle" x="1649" y="-231.5" font-family="Helvetica,sans-Serif" font-size="10.00">/home/runner/work/gauri/gauri/gauri/include/gauri/renderer/renderer_api.h</text>
</a>
</g>
</g>
<!-- Node14&#45;&gt;Node15 -->
<g id="edge23" class="edge">
<title>Node14&#45;&gt;Node15</title>
<path fill="none" stroke="midnightblue" d="M1618.73,-272.14C1626.4,-262.74 1635.63,-251.4 1641.87,-243.75"/>
<polygon fill="midnightblue" stroke="midnightblue" points="1615.87,-270.12 1612.27,-280.08 1621.3,-274.54 1615.87,-270.12"/>
</g>
<!-- Node19 -->
<g id="node19" class="node">
<title>Node19</title>
<g id="a_node19"><a xlink:href="opengl__vertex__array_8h.html" target="_top" xlink:title=" ">
<polygon fill="white" stroke="black" points="1855,-224.5 1855,-243.5 2277,-243.5 2277,-224.5 1855,-224.5"/>
<text text-anchor="middle" x="2066" y="-231.5" font-family="Helvetica,sans-Serif" font-size="10.00">/home/runner/work/gauri/gauri/gauri/include/platform/opengl/opengl_vertex_array.h</text>
</a>
</g>
</g>
<!-- Node14&#45;&gt;Node19 -->
<g id="edge32" class="edge">
<title>Node14&#45;&gt;Node19</title>
<path fill="none" stroke="midnightblue" d="M1687.89,-279.29C1774.86,-269.1 1910.23,-253.25 1993.21,-243.53"/>
<polygon fill="midnightblue" stroke="midnightblue" points="1687.32,-275.83 1677.79,-280.47 1688.13,-282.79 1687.32,-275.83"/>
</g>
<!-- Node15&#45;&gt;Node3 -->
<g id="edge29" class="edge">
<title>Node15&#45;&gt;Node3</title>
<path fill="none" stroke="midnightblue" d="M1571.85,-222.84C1528.3,-215.48 1479.71,-204 1465,-188 1435.5,-155.91 1441.06,-97.62 1444.45,-75.67"/>
<polygon fill="midnightblue" stroke="midnightblue" points="1571.48,-226.32 1581.92,-224.48 1572.61,-219.41 1571.48,-226.32"/>
</g>
<!-- Node16 -->
<g id="node16" class="node">
<title>Node16</title>
<g id="a_node16"><a xlink:href="render__command_8h.html" target="_top" xlink:title=" ">
<polygon fill="white" stroke="black" points="1474,-168.5 1474,-187.5 1874,-187.5 1874,-168.5 1474,-168.5"/>
<text text-anchor="middle" x="1674" y="-175.5" font-family="Helvetica,sans-Serif" font-size="10.00">/home/runner/work/gauri/gauri/gauri/include/gauri/renderer/render_command.h</text>
</a>
</g>
</g>
<!-- Node15&#45;&gt;Node16 -->
<g id="edge24" class="edge">
<title>Node15&#45;&gt;Node16</title>
<path fill="none" stroke="midnightblue" d="M1657.34,-214.98C1661.58,-205.82 1666.55,-195.09 1669.95,-187.75"/>
<polygon fill="midnightblue" stroke="midnightblue" points="1654.15,-213.54 1653.13,-224.08 1660.51,-216.48 1654.15,-213.54"/>
</g>
<!-- Node17 -->
<g id="node17" class="node">
<title>Node17</title>
<g id="a_node17"><a xlink:href="renderer_8h.html" target="_top" xlink:title=" ">
<polygon fill="white" stroke="black" points="1666.5,-112.5 1666.5,-131.5 2021.5,-131.5 2021.5,-112.5 1666.5,-112.5"/>
<text text-anchor="middle" x="1844" y="-119.5" font-family="Helvetica,sans-Serif" font-size="10.00">/home/runner/work/gauri/gauri/gauri/include/gauri/renderer/renderer.h</text>
</a>
</g>
</g>
<!-- Node15&#45;&gt;Node17 -->
<g id="edge28" class="edge">
<title>Node15&#45;&gt;Node17</title>
<path fill="none" stroke="midnightblue" d="M1774.67,-223.14C1822.17,-216.58 1868.33,-205.75 1883,-188 1898.25,-169.53 1872.11,-144.47 1855.72,-131.52"/>
<polygon fill="midnightblue" stroke="midnightblue" points="1773.99,-219.7 1764.53,-224.48 1774.9,-226.64 1773.99,-219.7"/>
</g>
<!-- Node18 -->
<g id="node18" class="node">
<title>Node18</title>
<g id="a_node18"><a xlink:href="opengl__renderer__api_8h.html" target="_top" xlink:title=" ">
<polygon fill="white" stroke="black" points="1930.5,-168.5 1930.5,-187.5 2353.5,-187.5 2353.5,-168.5 1930.5,-168.5"/>
<text text-anchor="middle" x="2142" y="-175.5" font-family="Helvetica,sans-Serif" font-size="10.00">/home/runner/work/gauri/gauri/gauri/include/platform/opengl/opengl_renderer_api.h</text>
</a>
</g>
</g>
<!-- Node15&#45;&gt;Node18 -->
<g id="edge30" class="edge">
<title>Node15&#45;&gt;Node18</title>
<path fill="none" stroke="midnightblue" d="M1736.79,-223.38C1829.77,-213.2 1975.15,-197.28 2064.16,-187.53"/>
<polygon fill="midnightblue" stroke="midnightblue" points="1736.4,-219.91 1726.85,-224.47 1737.17,-226.86 1736.4,-219.91"/>
</g>
<!-- Node16&#45;&gt;Node3 -->
<g id="edge27" class="edge">
<title>Node16&#45;&gt;Node3</title>
<path fill="none" stroke="midnightblue" d="M1647.1,-164.02C1599.95,-141.27 1503.6,-94.79 1463.81,-75.59"/>
<polygon fill="midnightblue" stroke="midnightblue" points="1645.58,-167.18 1656.11,-168.37 1648.62,-160.87 1645.58,-167.18"/>
</g>
<!-- Node16&#45;&gt;Node17 -->
<g id="edge25" class="edge">
<title>Node16&#45;&gt;Node17</title>
<path fill="none" stroke="midnightblue" d="M1710.82,-165.3C1742.85,-155.13 1788.52,-140.62 1817.19,-131.52"/>
<polygon fill="midnightblue" stroke="midnightblue" points="1709.41,-162.08 1700.94,-168.44 1711.53,-168.75 1709.41,-162.08"/>
</g>
<!-- Node17&#45;&gt;Node3 -->
<g id="edge26" class="edge">
<title>Node17&#45;&gt;Node3</title>
<path fill="none" stroke="midnightblue" d="M1770.61,-111.04C1695.44,-100.84 1579.82,-85.16 1508.77,-75.52"/>
<polygon fill="midnightblue" stroke="midnightblue" points="1770.56,-114.57 1780.94,-112.44 1771.5,-107.63 1770.56,-114.57"/>
</g>
<!-- Node21&#45;&gt;Node3 -->
<g id="edge36" class="edge">
<title>Node21&#45;&gt;Node3</title>
<path fill="none" stroke="midnightblue" d="M2746,-326.25C2746,-304.36 2746,-267.05 2746,-235 2746,-235 2746,-235 2746,-177 2746,-146.9 2750.76,-130.47 2727,-112 2682.29,-77.25 1898.72,-69.31 1579.6,-67.52"/>
<polygon fill="midnightblue" stroke="midnightblue" points="2742.5,-326.44 2746,-336.44 2749.5,-326.44 2742.5,-326.44"/>
</g>
<!-- Node22 -->
<g id="node22" class="node">
<title>Node22</title>
<g id="a_node22"><a xlink:href="opengl__frame__buffer_8h.html" target="_top" xlink:title=" ">
<polygon fill="white" stroke="black" points="2774,-280.5 2774,-299.5 3198,-299.5 3198,-280.5 2774,-280.5"/>
<text text-anchor="middle" x="2986" y="-287.5" font-family="Helvetica,sans-Serif" font-size="10.00">/home/runner/work/gauri/gauri/gauri/include/platform/opengl/opengl_frame_buffer.h</text>
</a>
</g>
</g>
<!-- Node21&#45;&gt;Node22 -->
<g id="edge37" class="edge">
<title>Node21&#45;&gt;Node22</title>
<path fill="none" stroke="midnightblue" d="M2793.92,-334.22C2839.27,-324.01 2906.44,-308.9 2948.15,-299.52"/>
<polygon fill="midnightblue" stroke="midnightblue" points="2793.02,-330.83 2784.03,-336.44 2794.55,-337.66 2793.02,-330.83"/>
</g>
<!-- Node23&#45;&gt;Node3 -->
<g id="edge40" class="edge">
<title>Node23&#45;&gt;Node3</title>
<path fill="none" stroke="midnightblue" d="M2475.07,-167.08C2376.13,-153.29 2189.55,-128.21 2030,-112 1875.72,-96.33 1698.01,-83.36 1579.53,-75.43"/>
<polygon fill="midnightblue" stroke="midnightblue" points="2474.85,-170.58 2485.24,-168.5 2475.82,-163.65 2474.85,-170.58"/>
</g>
<!-- Node23&#45;&gt;Node17 -->
<g id="edge39" class="edge">
<title>Node23&#45;&gt;Node17</title>
<path fill="none" stroke="midnightblue" d="M2424.15,-167.69C2292.05,-157.51 2082.21,-141.35 1954.4,-131.5"/>
<polygon fill="midnightblue" stroke="midnightblue" points="2424.07,-171.19 2434.31,-168.47 2424.61,-164.22 2424.07,-171.19"/>
</g>
<!-- Node24 -->
<g id="node24" class="node">
<title>Node24</title>
<g id="a_node24"><a xlink:href="opengl__shader_8h.html" target="_top" xlink:title=" ">
<polygon fill="white" stroke="black" points="2324,-112.5 2324,-131.5 2718,-131.5 2718,-112.5 2324,-112.5"/>
<text text-anchor="middle" x="2521" y="-119.5" font-family="Helvetica,sans-Serif" font-size="10.00">/home/runner/work/gauri/gauri/gauri/include/platform/opengl/opengl_shader.h</text>
</a>
</g>
</g>
<!-- Node23&#45;&gt;Node24 -->
<g id="edge41" class="edge">
<title>Node23&#45;&gt;Node24</title>
<path fill="none" stroke="midnightblue" d="M2536.86,-158.69C2532.82,-149.59 2528.12,-139.01 2524.89,-131.75"/>
<polygon fill="midnightblue" stroke="midnightblue" points="2533.78,-160.37 2541.04,-168.08 2540.17,-157.52 2533.78,-160.37"/>
</g>
<!-- Node25&#45;&gt;Node3 -->
<g id="edge47" class="edge">
<title>Node25&#45;&gt;Node3</title>
<path fill="none" stroke="midnightblue" d="M2930.9,-222.63C2896.92,-216.06 2860.5,-205.37 2830,-188 2790.1,-165.27 2801.73,-131.16 2760,-112 2707.09,-87.71 1903.61,-73.55 1579.78,-68.81"/>
<polygon fill="midnightblue" stroke="midnightblue" points="2930.42,-226.1 2940.89,-224.46 2931.68,-219.21 2930.42,-226.1"/>
</g>
<!-- Node26 -->
<g id="node26" class="node">
<title>Node26</title>
<g id="a_node26"><a xlink:href="renderer__2d_8h.html" target="_top" xlink:title=" ">
<polygon fill="white" stroke="black" points="2812.5,-112.5 2812.5,-131.5 3185.5,-131.5 3185.5,-112.5 2812.5,-112.5"/>
<text text-anchor="middle" x="2999" y="-119.5" font-family="Helvetica,sans-Serif" font-size="10.00">/home/runner/work/gauri/gauri/gauri/include/gauri/renderer/renderer_2d.h</text>
</a>
</g>
</g>
<!-- Node25&#45;&gt;Node26 -->
<g id="edge43" class="edge">
<title>Node25&#45;&gt;Node26</title>
<path fill="none" stroke="midnightblue" d="M2946.18,-223C2901.29,-216.13 2854.69,-205.09 2841,-188 2815.6,-156.28 2862.63,-139.9 2911.85,-131.52"/>
<polygon fill="midnightblue" stroke="midnightblue" points="2945.92,-226.49 2956.32,-224.48 2946.94,-219.57 2945.92,-226.49"/>
</g>
<!-- Node27 -->
<g id="node27" class="node">
<title>Node27</title>
<g id="a_node27"><a xlink:href="subtexture__2d_8h.html" target="_top" xlink:title=" ">
<polygon fill="white" stroke="black" points="2850,-168.5 2850,-187.5 3234,-187.5 3234,-168.5 2850,-168.5"/>
<text text-anchor="middle" x="3042" y="-175.5" font-family="Helvetica,sans-Serif" font-size="10.00">/home/runner/work/gauri/gauri/gauri/include/gauri/renderer/subtexture_2d.h</text>
</a>
</g>
</g>
<!-- Node25&#45;&gt;Node27 -->
<g id="edge45" class="edge">
<title>Node25&#45;&gt;Node27</title>
<path fill="none" stroke="midnightblue" d="M3042,-213.8C3042,-204.91 3042,-194.78 3042,-187.75"/>
<polygon fill="midnightblue" stroke="midnightblue" points="3038.5,-214.08 3042,-224.08 3045.5,-214.08 3038.5,-214.08"/>
</g>
<!-- Node28 -->
<g id="node28" class="node">
<title>Node28</title>
<g id="a_node28"><a xlink:href="opengl__texture_8h.html" target="_top" xlink:title=" ">
<polygon fill="white" stroke="black" points="3252.5,-168.5 3252.5,-187.5 3649.5,-187.5 3649.5,-168.5 3252.5,-168.5"/>
<text text-anchor="middle" x="3451" y="-175.5" font-family="Helvetica,sans-Serif" font-size="10.00">/home/runner/work/gauri/gauri/gauri/include/platform/opengl/opengl_texture.h</text>
</a>
</g>
</g>
<!-- Node25&#45;&gt;Node28 -->
<g id="edge48" class="edge">
<title>Node25&#45;&gt;Node28</title>
<path fill="none" stroke="midnightblue" d="M3116.95,-223.1C3194.18,-212.91 3313.33,-197.18 3386.5,-187.52"/>
<polygon fill="midnightblue" stroke="midnightblue" points="3116.26,-219.66 3106.81,-224.44 3117.18,-226.6 3116.26,-219.66"/>
</g>
<!-- Node26&#45;&gt;Node3 -->
<g id="edge44" class="edge">
<title>Node26&#45;&gt;Node3</title>
<path fill="none" stroke="midnightblue" d="M2801.99,-112.16C2800.66,-112.1 2799.33,-112.05 2798,-112 2351.83,-94.59 1822.66,-78.22 1579.87,-70.95"/>
<polygon fill="midnightblue" stroke="midnightblue" points="2802.17,-115.67 2812.3,-112.57 2802.45,-108.67 2802.17,-115.67"/>
</g>
<!-- Node27&#45;&gt;Node26 -->
<g id="edge46" class="edge">
<title>Node27&#45;&gt;Node26</title>
<path fill="none" stroke="midnightblue" d="M3028.58,-160.14C3021.09,-150.74 3012.06,-139.4 3005.97,-131.75"/>
<polygon fill="midnightblue" stroke="midnightblue" points="3025.93,-162.44 3034.9,-168.08 3031.41,-158.08 3025.93,-162.44"/>
</g>
<!-- Node29&#45;&gt;Node3 -->
<g id="edge50" class="edge">
<title>Node29&#45;&gt;Node3</title>
<path fill="none" stroke="midnightblue" d="M3582.04,-332.75C3620.54,-316.79 3677,-284.88 3677,-235 3677,-235 3677,-235 3677,-177 3677,-71.39 2061.03,-65.87 1579.71,-66.57"/>
<polygon fill="midnightblue" stroke="midnightblue" points="3580.69,-329.52 3572.68,-336.47 3583.27,-336.03 3580.69,-329.52"/>
</g>
</g>
</svg>
        <g id="navigator" transform="translate(0 0)" fill="#404254">
                <rect fill="#f2f5e9" fill-opacity="0.5" stroke="#606060" stroke-width=".5" x="0" y="0" width="60" height="60"/>
                <use id="zoomplus" xlink:href="#zoomPlus" x="17" y="9" onmousedown="handleZoom(evt,'in')"/>
                <use id="zoomminus" xlink:href="#zoomMin" x="42" y="9" onmousedown="handleZoom(evt,'out')"/>
                <use id="reset" xlink:href="#resetDef" x="30" y="36" onmousedown="handleReset()"/>
                <g id="arrowUp" xlink:href="#dirArrow" transform="translate(30 24)" onmousedown="handlePan(0,-1)">
                  <use xlink:href="#rim" fill="#404040">
                        <set attributeName="fill" to="#808080" begin="arrowUp.mouseover" end="arrowUp.mouseout"/>
                  </use>
                  <path fill="none" stroke="white" stroke-width="1.5" d="M0,-3.0v7 M-2.5,-0.5L0,-3.0L2.5,-0.5"/>
                </g>
                <g id="arrowRight" xlink:href="#dirArrow" transform="rotate(90) translate(36 -43)" onmousedown="handlePan(1,0)">
                  <use xlink:href="#rim" fill="#404040">
                        <set attributeName="fill" to="#808080" begin="arrowRight.mouseover" end="arrowRight.mouseout"/>
                  </use>
                  <path fill="none" stroke="white" stroke-width="1.5" d="M0,-3.0v7 M-2.5,-0.5L0,-3.0L2.5,-0.5"/>
                </g>
                <g id="arrowDown" xlink:href="#dirArrow" transform="rotate(180) translate(-30 -48)" onmousedown="handlePan(0,1)">
                  <use xlink:href="#rim" fill="#404040">
                        <set attributeName="fill" to="#808080" begin="arrowDown.mouseover" end="arrowDown.mouseout"/>
                  </use>
                  <path fill="none" stroke="white" stroke-width="1.5" d="M0,-3.0v7 M-2.5,-0.5L0,-3.0L2.5,-0.5"/>
                </g>
                <g id="arrowLeft" xlink:href="#dirArrow" transform="rotate(270) translate(-36 17)" onmousedown="handlePan(-1,0)">
                  <use xlink:href="#rim" fill="#404040">
                        <set attributeName="fill" to="#808080" begin="arrowLeft.mouseover" end="arrowLeft.mouseout"/>
                  </use>
                  <path fill="none" stroke="white" stroke-width="1.5" d="M0,-3.0v7 M-2.5,-0.5L0,-3.0L2.5,-0.5"/>
                </g>
        </g>
        <svg viewBox="0 0 15 15" width="100%" height="30px" preserveAspectRatio="xMaxYMin meet">
         <g id="arrow_out" transform="scale(0.3 0.3)">
          <a xlink:href="base_8h__dep__incl_org.svg" target="_base">
           <rect id="button" ry="5" rx="5" y="6" x="6" height="38" width="38"
                fill="#f2f5e9" fill-opacity="0.5" stroke="#606060" stroke-width="1.0"/>
           <path id="arrow"
             d="M 11.500037,31.436501 C 11.940474,20.09759 22.043105,11.32322 32.158766,21.979434 L 37.068811,17.246167 C 37.068811,17.246167 37.088388,32 37.088388,32 L 22.160133,31.978069 C 22.160133,31.978069 26.997745,27.140456 26.997745,27.140456 C 18.528582,18.264221 13.291696,25.230495 11.500037,31.436501 z"
             style="fill:#404040;"/>
          </a>
         </g>
        </svg>
</svg>
