<?xml version="1.0" encoding="UTF-8" standalone="no"?>
<!DOCTYPE svg PUBLIC "-//W3C//DTD SVG 1.1//EN"
 "http://www.w3.org/Graphics/SVG/1.1/DTD/svg11.dtd">
<!-- Generated by graphviz version 2.43.0 (0)
 -->
<!-- Title: /home/runner/work/gauri/gauri/gauri/include/gauri/core/base.h Pages: 1 -->
<!--zoomable 476 -->
<svg id="main" version="1.1" xmlns="http://www.w3.org/2000/svg" xmlns:xlink="http://www.w3.org/1999/xlink" xml:space="preserve" onload="init(evt)">
<style type="text/css"><![CDATA[
.edge:hover path { stroke: red; }
.edge:hover polygon { stroke: red; fill: red; }
]]></style>
<script type="text/javascript"><![CDATA[
var edges = document.getElementsByTagName('g');
if (edges && edges.length) {
  for (var i=0;i<edges.length;i++) {
    if (edges[i].id.substr(0,4)=='edge') {
      edges[i].setAttribute('class','edge');
    }
  }
}
]]></script>
        <defs>
                <circle id="rim" cx="0" cy="0" r="7"/>
                <circle id="rim2" cx="0" cy="0" r="3.5"/>
                <g id="zoomPlus">
                        <use xlink:href="#rim" fill="#404040">
                                <set attributeName="fill" to="#808080" begin="zoomplus.mouseover" end="zoomplus.mouseout"/>
                        </use>
                        <path d="M-4,0h8M0,-4v8" fill="none" stroke="white" stroke-width="1.5" pointer-events="none"/>
                </g>
                <g id="zoomMin">
                        <use xlink:href="#rim" fill="#404040">
                                <set attributeName="fill" to="#808080" begin="zoomminus.mouseover" end="zoomminus.mouseout"/>
                        </use>
                        <path d="M-4,0h8" fill="none" stroke="white" stroke-width="1.5" pointer-events="none"/>
                </g>
                <g id="dirArrow">
                        <path fill="none" stroke="white" stroke-width="1.5" d="M0,-3.0v7 M-2.5,-0.5L0,-3.0L2.5,-0.5"/>
                </g>
               <g id="resetDef">
                       <use xlink:href="#rim2" fill="#404040">
                               <set attributeName="fill" to="#808080" begin="reset.mouseover" end="reset.mouseout"/>
                       </use>
               </g>
        </defs>

<script type="text/javascript">
var viewWidth = 3928;
var viewHeight = 476;
var sectionId = 'dynsection-1';
</script>
<script xlink:href="svgpan.js"/>
<svg id="graph" class="graph">
<g id="viewport">
<title>/home/runner/work/gauri/gauri/gauri/include/gauri/core/base.h</title>
<polygon fill="white" stroke="transparent" points="-4,4 -4,-472 3923.58,-472 3923.58,4 -4,4"/>
<!-- Node1 -->
<g id="node1" class="node">
<title>Node1</title>
<g id="a_node1"><a xlink:title=" ">
<polygon fill="#bfbfbf" stroke="black" points="1695.58,-448.5 1695.58,-467.5 2012.58,-467.5 2012.58,-448.5 1695.58,-448.5"/>
<text text-anchor="middle" x="1854.08" y="-455.5" font-family="Helvetica,sans-Serif" font-size="10.00">/home/runner/work/gauri/gauri/gauri/include/gauri/core/base.h</text>
</a>
</g>
</g>
<!-- Node2 -->
<g id="node2" class="node">
<title>Node2</title>
<g id="a_node2"><a xlink:href="input_8h.html" target="_top" xlink:title=" ">
<polygon fill="white" stroke="black" points="3600.58,-112.5 3600.58,-131.5 3919.58,-131.5 3919.58,-112.5 3600.58,-112.5"/>
<text text-anchor="middle" x="3760.08" y="-119.5" font-family="Helvetica,sans-Serif" font-size="10.00">/home/runner/work/gauri/gauri/gauri/include/gauri/core/input.h</text>
</a>
</g>
</g>
<!-- Node1&#45;&gt;Node2 -->
<g id="edge1" class="edge">
<title>Node1&#45;&gt;Node2</title>
<path fill="none" stroke="midnightblue" d="M2022.72,-456C2418.77,-453.14 3385.84,-443.04 3530.08,-412 3603.11,-396.28 3685.08,-421.7 3685.08,-347 3685.08,-347 3685.08,-347 3685.08,-233 3685.08,-188.39 3727.71,-148.52 3748.69,-131.6"/>
<polygon fill="midnightblue" stroke="midnightblue" points="2022.58,-452.5 2012.61,-456.07 2022.63,-459.5 2022.58,-452.5"/>
</g>
<!-- Node5 -->
<g id="node5" class="node">
<title>Node5</title>
<g id="a_node5"><a xlink:href="layer_8h.html" target="_top" xlink:title=" ">
<polygon fill="white" stroke="black" points="399.08,-336.5 399.08,-355.5 717.08,-355.5 717.08,-336.5 399.08,-336.5"/>
<text text-anchor="middle" x="558.08" y="-343.5" font-family="Helvetica,sans-Serif" font-size="10.00">/home/runner/work/gauri/gauri/gauri/include/gauri/core/layer.h</text>
</a>
</g>
</g>
<!-- Node1&#45;&gt;Node5 -->
<g id="edge4" class="edge">
<title>Node1&#45;&gt;Node5</title>
<path fill="none" stroke="midnightblue" d="M1685.26,-456.81C1417.68,-455.39 908.33,-447.88 731.08,-412 671.64,-399.97 605.67,-370.27 575.21,-355.55"/>
<polygon fill="midnightblue" stroke="midnightblue" points="1685.44,-460.31 1695.46,-456.86 1685.48,-453.31 1685.44,-460.31"/>
</g>
<!-- Node6 -->
<g id="node6" class="node">
<title>Node6</title>
<g id="a_node6"><a xlink:href="layer__stack_8h.html" target="_top" xlink:title=" ">
<polygon fill="white" stroke="black" points="405.08,-280.5 405.08,-299.5 755.08,-299.5 755.08,-280.5 405.08,-280.5"/>
<text text-anchor="middle" x="580.08" y="-287.5" font-family="Helvetica,sans-Serif" font-size="10.00">/home/runner/work/gauri/gauri/gauri/include/gauri/core/layer_stack.h</text>
</a>
</g>
</g>
<!-- Node1&#45;&gt;Node6 -->
<g id="edge12" class="edge">
<title>Node1&#45;&gt;Node6</title>
<path fill="none" stroke="midnightblue" d="M1685.35,-453.41C1468.3,-447.93 1103.48,-435.53 971.08,-412 858.83,-392.05 835,-369.68 726.08,-336 684.9,-323.27 637.17,-308.57 607.8,-299.53"/>
<polygon fill="midnightblue" stroke="midnightblue" points="1685.49,-456.92 1695.57,-453.67 1685.66,-449.92 1685.49,-456.92"/>
</g>
<!-- Node9 -->
<g id="node9" class="node">
<title>Node9</title>
<g id="a_node9"><a xlink:href="event_8h.html" target="_top" xlink:title=" ">
<polygon fill="white" stroke="black" points="980.58,-392.5 980.58,-411.5 1309.58,-411.5 1309.58,-392.5 980.58,-392.5"/>
<text text-anchor="middle" x="1145.08" y="-399.5" font-family="Helvetica,sans-Serif" font-size="10.00">/home/runner/work/gauri/gauri/gauri/include/gauri/event/event.h</text>
</a>
</g>
</g>
<!-- Node1&#45;&gt;Node9 -->
<g id="edge13" class="edge">
<title>Node1&#45;&gt;Node9</title>
<path fill="none" stroke="midnightblue" d="M1731.85,-447.69C1598.24,-437.51 1386.01,-421.35 1256.73,-411.5"/>
<polygon fill="midnightblue" stroke="midnightblue" points="1731.89,-451.2 1742.13,-448.47 1732.42,-444.22 1731.89,-451.2"/>
</g>
<!-- Node15 -->
<g id="node15" class="node">
<title>Node15</title>
<g id="a_node15"><a xlink:href="entity_8h.html" target="_top" xlink:title=" ">
<polygon fill="white" stroke="black" points="1360.58,-224.5 1360.58,-243.5 1689.58,-243.5 1689.58,-224.5 1360.58,-224.5"/>
<text text-anchor="middle" x="1525.08" y="-231.5" font-family="Helvetica,sans-Serif" font-size="10.00">/home/runner/work/gauri/gauri/gauri/include/gauri/scene/entity.h</text>
</a>
</g>
</g>
<!-- Node1&#45;&gt;Node15 -->
<g id="edge60" class="edge">
<title>Node1&#45;&gt;Node15</title>
<path fill="none" stroke="midnightblue" d="M1824.01,-444.2C1807.42,-436.31 1787.02,-425.19 1771.08,-412 1712.66,-363.7 1725.63,-322.81 1663.08,-280 1636.04,-261.5 1600.88,-250.18 1572.81,-243.53"/>
<polygon fill="midnightblue" stroke="midnightblue" points="1822.72,-447.46 1833.27,-448.46 1825.65,-441.1 1822.72,-447.46"/>
</g>
<!-- Node18 -->
<g id="node18" class="node">
<title>Node18</title>
<g id="a_node18"><a xlink:href="scene__serializer_8h.html" target="_top" xlink:title=" ">
<polygon fill="white" stroke="black" points="1708.08,-224.5 1708.08,-243.5 2088.08,-243.5 2088.08,-224.5 1708.08,-224.5"/>
<text text-anchor="middle" x="1898.08" y="-231.5" font-family="Helvetica,sans-Serif" font-size="10.00">/home/runner/work/gauri/gauri/gauri/include/gauri/scene/scene_serializer.h</text>
</a>
</g>
</g>
<!-- Node1&#45;&gt;Node18 -->
<g id="edge61" class="edge">
<title>Node1&#45;&gt;Node18</title>
<path fill="none" stroke="midnightblue" d="M1832.68,-442.66C1789.34,-411.85 1698.82,-337.5 1742.08,-280 1754.53,-263.44 1804.12,-251.06 1844.09,-243.52"/>
<polygon fill="midnightblue" stroke="midnightblue" points="1830.7,-445.55 1840.91,-448.39 1834.7,-439.8 1830.7,-445.55"/>
</g>
<!-- Node20 -->
<g id="node20" class="node">
<title>Node20</title>
<g id="a_node20"><a xlink:href="buffer_8h.html" target="_top" xlink:title=" ">
<polygon fill="white" stroke="black" points="2643.08,-336.5 2643.08,-355.5 2985.08,-355.5 2985.08,-336.5 2643.08,-336.5"/>
<text text-anchor="middle" x="2814.08" y="-343.5" font-family="Helvetica,sans-Serif" font-size="10.00">/home/runner/work/gauri/gauri/gauri/include/gauri/renderer/buffer.h</text>
</a>
</g>
</g>
<!-- Node1&#45;&gt;Node20 -->
<g id="edge33" class="edge">
<title>Node1&#45;&gt;Node20</title>
<path fill="none" stroke="midnightblue" d="M1938.58,-447.32C2123.96,-426.08 2563.8,-375.68 2739.59,-355.53"/>
<polygon fill="midnightblue" stroke="midnightblue" points="1938.14,-443.84 1928.61,-448.46 1938.94,-450.8 1938.14,-443.84"/>
</g>
<!-- Node28 -->
<g id="node28" class="node">
<title>Node28</title>
<g id="a_node28"><a xlink:href="frame__buffer_8h.html" target="_top" xlink:title=" ">
<polygon fill="white" stroke="black" points="3143.58,-392.5 3143.58,-411.5 3520.58,-411.5 3520.58,-392.5 3143.58,-392.5"/>
<text text-anchor="middle" x="3332.08" y="-399.5" font-family="Helvetica,sans-Serif" font-size="10.00">/home/runner/work/gauri/gauri/gauri/include/gauri/renderer/frame_buffer.h</text>
</a>
</g>
</g>
<!-- Node1&#45;&gt;Node28 -->
<g id="edge47" class="edge">
<title>Node1&#45;&gt;Node28</title>
<path fill="none" stroke="midnightblue" d="M2022.92,-451.14C2263.43,-442.74 2718.52,-426.68 3106.08,-412 3118.24,-411.54 3130.77,-411.06 3143.41,-410.57"/>
<polygon fill="midnightblue" stroke="midnightblue" points="2022.56,-447.65 2012.69,-451.5 2022.8,-454.65 2022.56,-447.65"/>
</g>
<!-- Node30 -->
<g id="node30" class="node">
<title>Node30</title>
<g id="a_node30"><a xlink:href="shader_8h.html" target="_top" xlink:title=" ">
<polygon fill="white" stroke="black" points="3193.58,-168.5 3193.58,-187.5 3540.58,-187.5 3540.58,-168.5 3193.58,-168.5"/>
<text text-anchor="middle" x="3367.08" y="-175.5" font-family="Helvetica,sans-Serif" font-size="10.00">/home/runner/work/gauri/gauri/gauri/include/gauri/renderer/shader.h</text>
</a>
</g>
</g>
<!-- Node1&#45;&gt;Node30 -->
<g id="edge50" class="edge">
<title>Node1&#45;&gt;Node30</title>
<path fill="none" stroke="midnightblue" d="M2022.98,-449.37C2294.52,-435.87 2815.74,-404.54 2994.08,-356 3143.47,-315.34 3306.31,-217.29 3353.55,-187.64"/>
<polygon fill="midnightblue" stroke="midnightblue" points="2022.44,-445.89 2012.63,-449.88 2022.79,-452.88 2022.44,-445.89"/>
</g>
<!-- Node32 -->
<g id="node32" class="node">
<title>Node32</title>
<g id="a_node32"><a xlink:href="texture_8h.html" target="_top" xlink:title=" ">
<polygon fill="white" stroke="black" points="1811.08,-392.5 1811.08,-411.5 2161.08,-411.5 2161.08,-392.5 1811.08,-392.5"/>
<text text-anchor="middle" x="1986.08" y="-399.5" font-family="Helvetica,sans-Serif" font-size="10.00">/home/runner/work/gauri/gauri/gauri/include/gauri/renderer/texture.h</text>
</a>
</g>
</g>
<!-- Node1&#45;&gt;Node32 -->
<g id="edge54" class="edge">
<title>Node1&#45;&gt;Node32</title>
<path fill="none" stroke="midnightblue" d="M1884.3,-444.64C1909.07,-434.5 1943.48,-420.43 1965.26,-411.52"/>
<polygon fill="midnightblue" stroke="midnightblue" points="1882.92,-441.42 1874.99,-448.44 1885.57,-447.9 1882.92,-441.42"/>
</g>
<!-- Node3 -->
<g id="node3" class="node">
<title>Node3</title>
<g id="a_node3"><a xlink:href="gauri_8h.html" target="_top" xlink:title=" ">
<polygon fill="white" stroke="black" points="2001.58,-56.5 2001.58,-75.5 2268.58,-75.5 2268.58,-56.5 2001.58,-56.5"/>
<text text-anchor="middle" x="2135.08" y="-63.5" font-family="Helvetica,sans-Serif" font-size="10.00">/home/runner/work/gauri/gauri/gauri/include/gauri.h</text>
</a>
</g>
</g>
<!-- Node2&#45;&gt;Node3 -->
<g id="edge2" class="edge">
<title>Node2&#45;&gt;Node3</title>
<path fill="none" stroke="midnightblue" d="M3590.05,-112.17C3588.72,-112.11 3587.39,-112.05 3586.08,-112 3101.02,-91.94 2524.41,-76.59 2268.64,-70.22"/>
<polygon fill="midnightblue" stroke="midnightblue" points="3590.18,-115.67 3600.32,-112.61 3590.48,-108.68 3590.18,-115.67"/>
</g>
<!-- Node4 -->
<g id="node4" class="node">
<title>Node4</title>
<g id="a_node4"><a xlink:href="entry__point_8h.html" target="_top" xlink:title=" ">
<polygon fill="white" stroke="black" points="1960.08,-0.5 1960.08,-19.5 2310.08,-19.5 2310.08,-0.5 1960.08,-0.5"/>
<text text-anchor="middle" x="2135.08" y="-7.5" font-family="Helvetica,sans-Serif" font-size="10.00">/home/runner/work/gauri/gauri/gauri/include/gauri/core/entry_point.h</text>
</a>
</g>
</g>
<!-- Node3&#45;&gt;Node4 -->
<g id="edge3" class="edge">
<title>Node3&#45;&gt;Node4</title>
<path fill="none" stroke="midnightblue" d="M2135.08,-45.8C2135.08,-36.91 2135.08,-26.78 2135.08,-19.75"/>
<polygon fill="midnightblue" stroke="midnightblue" points="2131.58,-46.08 2135.08,-56.08 2138.58,-46.08 2131.58,-46.08"/>
</g>
<!-- Node5&#45;&gt;Node3 -->
<g id="edge11" class="edge">
<title>Node5&#45;&gt;Node3</title>
<path fill="none" stroke="midnightblue" d="M389.01,-340.36C242.07,-334.78 48.39,-323.13 20.08,-300 -3.23,-280.96 1.08,-265.1 1.08,-235 1.08,-235 1.08,-235 1.08,-177 1.08,-76.4 1533.52,-67.31 2001.18,-66.88"/>
<polygon fill="midnightblue" stroke="midnightblue" points="388.93,-343.85 399.06,-340.73 389.2,-336.86 388.93,-343.85"/>
</g>
<!-- Node5&#45;&gt;Node6 -->
<g id="edge5" class="edge">
<title>Node5&#45;&gt;Node6</title>
<path fill="none" stroke="midnightblue" d="M565.54,-326.69C569.24,-317.59 573.55,-307.01 576.51,-299.75"/>
<polygon fill="midnightblue" stroke="midnightblue" points="562.24,-325.5 561.71,-336.08 568.72,-328.14 562.24,-325.5"/>
</g>
<!-- Node8 -->
<g id="node8" class="node">
<title>Node8</title>
<g id="a_node8"><a xlink:href="imgui__layer_8h.html" target="_top" xlink:title=" ">
<polygon fill="white" stroke="black" points="29.08,-280.5 29.08,-299.5 387.08,-299.5 387.08,-280.5 29.08,-280.5"/>
<text text-anchor="middle" x="208.08" y="-287.5" font-family="Helvetica,sans-Serif" font-size="10.00">/home/runner/work/gauri/gauri/gauri/include/gauri/imgui/imgui_layer.h</text>
</a>
</g>
</g>
<!-- Node5&#45;&gt;Node8 -->
<g id="edge8" class="edge">
<title>Node5&#45;&gt;Node8</title>
<path fill="none" stroke="midnightblue" d="M492.72,-334.92C426.6,-324.71 325.51,-309.12 263.28,-299.52"/>
<polygon fill="midnightblue" stroke="midnightblue" points="492.2,-338.38 502.62,-336.44 493.27,-331.46 492.2,-338.38"/>
</g>
<!-- Node7 -->
<g id="node7" class="node">
<title>Node7</title>
<g id="a_node7"><a xlink:href="application_8h.html" target="_top" xlink:title=" ">
<polygon fill="white" stroke="black" points="609.08,-224.5 609.08,-243.5 957.08,-243.5 957.08,-224.5 609.08,-224.5"/>
<text text-anchor="middle" x="783.08" y="-231.5" font-family="Helvetica,sans-Serif" font-size="10.00">/home/runner/work/gauri/gauri/gauri/include/gauri/core/application.h</text>
</a>
</g>
</g>
<!-- Node6&#45;&gt;Node7 -->
<g id="edge6" class="edge">
<title>Node6&#45;&gt;Node7</title>
<path fill="none" stroke="midnightblue" d="M622.07,-277.83C660.4,-267.63 716.23,-252.78 751.06,-243.52"/>
<polygon fill="midnightblue" stroke="midnightblue" points="621.01,-274.49 612.24,-280.44 622.81,-281.26 621.01,-274.49"/>
</g>
<!-- Node7&#45;&gt;Node3 -->
<g id="edge7" class="edge">
<title>Node7&#45;&gt;Node3</title>
<path fill="none" stroke="midnightblue" d="M790.11,-214.71C796.92,-199.59 808.78,-178.91 826.08,-168 977.52,-72.44 1046.8,-128.88 1225.08,-112 1500.26,-85.94 1823.79,-74.49 2001.43,-69.85"/>
<polygon fill="midnightblue" stroke="midnightblue" points="786.81,-213.51 786.19,-224.09 793.27,-216.21 786.81,-213.51"/>
</g>
<!-- Node8&#45;&gt;Node3 -->
<g id="edge10" class="edge">
<title>Node8&#45;&gt;Node3</title>
<path fill="none" stroke="midnightblue" d="M242.44,-277.3C341.87,-244.06 639.01,-149.08 894.08,-112 1104.29,-81.44 1726.23,-71.26 2001.46,-68.2"/>
<polygon fill="midnightblue" stroke="midnightblue" points="241.27,-274 232.91,-280.5 243.5,-280.63 241.27,-274"/>
</g>
<!-- Node8&#45;&gt;Node7 -->
<g id="edge9" class="edge">
<title>Node8&#45;&gt;Node7</title>
<path fill="none" stroke="midnightblue" d="M308.83,-279.54C417.2,-269.36 587.95,-253.33 692.29,-243.53"/>
<polygon fill="midnightblue" stroke="midnightblue" points="308.5,-276.05 298.87,-280.47 309.15,-283.02 308.5,-276.05"/>
</g>
<!-- Node9&#45;&gt;Node5 -->
<g id="edge15" class="edge">
<title>Node9&#45;&gt;Node5</title>
<path fill="none" stroke="midnightblue" d="M1042.22,-391.54C931.6,-381.36 757.28,-365.33 650.76,-355.53"/>
<polygon fill="midnightblue" stroke="midnightblue" points="1042.11,-395.04 1052.39,-392.47 1042.75,-388.07 1042.11,-395.04"/>
</g>
<!-- Node9&#45;&gt;Node7 -->
<g id="edge14" class="edge">
<title>Node9&#45;&gt;Node7</title>
<path fill="none" stroke="midnightblue" d="M986.97,-390.79C948.33,-384.04 908.06,-373.22 873.08,-356 840.35,-339.89 834.45,-329.56 813.08,-300 799.82,-281.67 790.25,-256.55 785.83,-243.56"/>
<polygon fill="midnightblue" stroke="midnightblue" points="986.85,-394.31 997.28,-392.5 987.99,-387.41 986.85,-394.31"/>
</g>
<!-- Node10 -->
<g id="node10" class="node">
<title>Node10</title>
<g id="a_node10"><a xlink:href="window_8h.html" target="_top" xlink:title=" ">
<polygon fill="white" stroke="black" points="882.58,-336.5 882.58,-355.5 1213.58,-355.5 1213.58,-336.5 882.58,-336.5"/>
<text text-anchor="middle" x="1048.08" y="-343.5" font-family="Helvetica,sans-Serif" font-size="10.00">/home/runner/work/gauri/gauri/gauri/include/gauri/core/window.h</text>
</a>
</g>
</g>
<!-- Node9&#45;&gt;Node10 -->
<g id="edge16" class="edge">
<title>Node9&#45;&gt;Node10</title>
<path fill="none" stroke="midnightblue" d="M1120.74,-387.45C1102.83,-377.48 1079.02,-364.23 1063.62,-355.65"/>
<polygon fill="midnightblue" stroke="midnightblue" points="1119.05,-390.52 1129.49,-392.32 1122.46,-384.4 1119.05,-390.52"/>
</g>
<!-- Node12 -->
<g id="node12" class="node">
<title>Node12</title>
<g id="a_node12"><a xlink:href="editor__camera_8h.html" target="_top" xlink:title=" ">
<polygon fill="white" stroke="black" points="1270.58,-336.5 1270.58,-355.5 1655.58,-355.5 1655.58,-336.5 1270.58,-336.5"/>
<text text-anchor="middle" x="1463.08" y="-343.5" font-family="Helvetica,sans-Serif" font-size="10.00">/home/runner/work/gauri/gauri/gauri/include/gauri/renderer/editor_camera.h</text>
</a>
</g>
</g>
<!-- Node9&#45;&gt;Node12 -->
<g id="edge19" class="edge">
<title>Node9&#45;&gt;Node12</title>
<path fill="none" stroke="midnightblue" d="M1205.57,-390.73C1265.66,-380.52 1356.73,-365.06 1412.93,-355.52"/>
<polygon fill="midnightblue" stroke="midnightblue" points="1204.74,-387.32 1195.47,-392.44 1205.91,-394.22 1204.74,-387.32"/>
</g>
<!-- Node19 -->
<g id="node19" class="node">
<title>Node19</title>
<g id="a_node19"><a xlink:href="orthographic__camera__controller_8h.html" target="_top" xlink:title=" ">
<polygon fill="white" stroke="black" points="835.58,-168.5 835.58,-187.5 1304.58,-187.5 1304.58,-168.5 835.58,-168.5"/>
<text text-anchor="middle" x="1070.08" y="-175.5" font-family="Helvetica,sans-Serif" font-size="10.00">/home/runner/work/gauri/gauri/gauri/include/gauri/renderer/orthographic_camera_controller.h</text>
</a>
</g>
</g>
<!-- Node9&#45;&gt;Node19 -->
<g id="edge31" class="edge">
<title>Node9&#45;&gt;Node19</title>
<path fill="none" stroke="midnightblue" d="M1171.76,-387.76C1187.14,-379.56 1206.45,-368.28 1222.08,-356 1254.65,-330.39 1298,-315.16 1276.08,-280 1241.83,-225.07 1168.06,-199.18 1118.74,-187.6"/>
<polygon fill="midnightblue" stroke="midnightblue" points="1170.02,-384.72 1162.77,-392.44 1173.25,-390.93 1170.02,-384.72"/>
</g>
<!-- Node10&#45;&gt;Node7 -->
<g id="edge17" class="edge">
<title>Node10&#45;&gt;Node7</title>
<path fill="none" stroke="midnightblue" d="M937.9,-334.58C904.81,-328 869.51,-317.32 840.08,-300 816.02,-285.84 796.83,-257.94 788.14,-243.75"/>
<polygon fill="midnightblue" stroke="midnightblue" points="937.61,-338.09 948.08,-336.49 938.9,-331.21 937.61,-338.09"/>
</g>
<!-- Node11 -->
<g id="node11" class="node">
<title>Node11</title>
<g id="a_node11"><a xlink:href="windows__window_8h.html" target="_top" xlink:title=" ">
<polygon fill="white" stroke="black" points="849.08,-280.5 849.08,-299.5 1267.08,-299.5 1267.08,-280.5 849.08,-280.5"/>
<text text-anchor="middle" x="1058.08" y="-287.5" font-family="Helvetica,sans-Serif" font-size="10.00">/home/runner/work/gauri/gauri/gauri/include/platform/windows/windows_window.h</text>
</a>
</g>
</g>
<!-- Node10&#45;&gt;Node11 -->
<g id="edge18" class="edge">
<title>Node10&#45;&gt;Node11</title>
<path fill="none" stroke="midnightblue" d="M1051.58,-326.1C1053.24,-317.14 1055.14,-306.86 1056.46,-299.75"/>
<polygon fill="midnightblue" stroke="midnightblue" points="1048.11,-325.61 1049.73,-336.08 1054.99,-326.89 1048.11,-325.61"/>
</g>
<!-- Node13 -->
<g id="node13" class="node">
<title>Node13</title>
<g id="a_node13"><a xlink:href="renderer__2d_8h.html" target="_top" xlink:title=" ">
<polygon fill="white" stroke="black" points="1751.58,-280.5 1751.58,-299.5 2124.58,-299.5 2124.58,-280.5 1751.58,-280.5"/>
<text text-anchor="middle" x="1938.08" y="-287.5" font-family="Helvetica,sans-Serif" font-size="10.00">/home/runner/work/gauri/gauri/gauri/include/gauri/renderer/renderer_2d.h</text>
</a>
</g>
</g>
<!-- Node12&#45;&gt;Node13 -->
<g id="edge20" class="edge">
<title>Node12&#45;&gt;Node13</title>
<path fill="none" stroke="midnightblue" d="M1548.21,-335.32C1637.81,-325.14 1777.49,-309.26 1863.08,-299.53"/>
<polygon fill="midnightblue" stroke="midnightblue" points="1547.62,-331.87 1538.08,-336.47 1548.41,-338.82 1547.62,-331.87"/>
</g>
<!-- Node14 -->
<g id="node14" class="node">
<title>Node14</title>
<g id="a_node14"><a xlink:href="scene_8h.html" target="_top" xlink:title=" ">
<polygon fill="white" stroke="black" points="1324.08,-280.5 1324.08,-299.5 1654.08,-299.5 1654.08,-280.5 1324.08,-280.5"/>
<text text-anchor="middle" x="1489.08" y="-287.5" font-family="Helvetica,sans-Serif" font-size="10.00">/home/runner/work/gauri/gauri/gauri/include/gauri/scene/scene.h</text>
</a>
</g>
</g>
<!-- Node12&#45;&gt;Node14 -->
<g id="edge22" class="edge">
<title>Node12&#45;&gt;Node14</title>
<path fill="none" stroke="midnightblue" d="M1471.75,-326.98C1476.17,-317.82 1481.33,-307.09 1484.86,-299.75"/>
<polygon fill="midnightblue" stroke="midnightblue" points="1468.56,-325.55 1467.37,-336.08 1474.86,-328.59 1468.56,-325.55"/>
</g>
<!-- Node13&#45;&gt;Node3 -->
<g id="edge21" class="edge">
<title>Node13&#45;&gt;Node3</title>
<path fill="none" stroke="midnightblue" d="M2039.91,-277.56C2061.24,-270.77 2081.85,-260.24 2097.08,-244 2143.08,-194.94 2138.73,-104.21 2136.06,-75.77"/>
<polygon fill="midnightblue" stroke="midnightblue" points="2038.7,-274.27 2030.08,-280.42 2040.66,-280.99 2038.7,-274.27"/>
</g>
<!-- Node14&#45;&gt;Node3 -->
<g id="edge30" class="edge">
<title>Node14&#45;&gt;Node3</title>
<path fill="none" stroke="midnightblue" d="M1410.11,-278.44C1369,-269.35 1331.08,-252.95 1351.08,-224 1423.71,-118.85 1797.43,-83.74 2001.56,-72.31"/>
<polygon fill="midnightblue" stroke="midnightblue" points="1409.53,-281.9 1420.04,-280.49 1410.95,-275.04 1409.53,-281.9"/>
</g>
<!-- Node14&#45;&gt;Node15 -->
<g id="edge23" class="edge">
<title>Node14&#45;&gt;Node15</title>
<path fill="none" stroke="midnightblue" d="M1500.7,-271.57C1506.89,-262.27 1514.25,-251.25 1519.24,-243.75"/>
<polygon fill="midnightblue" stroke="midnightblue" points="1497.66,-269.82 1495.02,-280.08 1503.48,-273.7 1497.66,-269.82"/>
</g>
<!-- Node14&#45;&gt;Node18 -->
<g id="edge29" class="edge">
<title>Node14&#45;&gt;Node18</title>
<path fill="none" stroke="midnightblue" d="M1564.03,-279.1C1641.26,-268.91 1760.41,-253.18 1833.57,-243.52"/>
<polygon fill="midnightblue" stroke="midnightblue" points="1563.34,-275.66 1553.88,-280.44 1564.26,-282.6 1563.34,-275.66"/>
</g>
<!-- Node15&#45;&gt;Node3 -->
<g id="edge28" class="edge">
<title>Node15&#45;&gt;Node3</title>
<path fill="none" stroke="midnightblue" d="M1658.39,-223.76C1803.6,-213.31 2017.57,-196.63 2034.08,-188 2046.99,-181.25 2108.34,-101.97 2128.58,-75.52"/>
<polygon fill="midnightblue" stroke="midnightblue" points="1657.78,-220.29 1648.06,-224.5 1658.28,-227.27 1657.78,-220.29"/>
</g>
<!-- Node16 -->
<g id="node16" class="node">
<title>Node16</title>
<g id="a_node16"><a xlink:href="scriptable__entity_8h.html" target="_top" xlink:title=" ">
<polygon fill="white" stroke="black" points="1643.08,-168.5 1643.08,-187.5 2025.08,-187.5 2025.08,-168.5 1643.08,-168.5"/>
<text text-anchor="middle" x="1834.08" y="-175.5" font-family="Helvetica,sans-Serif" font-size="10.00">/home/runner/work/gauri/gauri/gauri/include/gauri/scene/scriptable_entity.h</text>
</a>
</g>
</g>
<!-- Node15&#45;&gt;Node16 -->
<g id="edge24" class="edge">
<title>Node15&#45;&gt;Node16</title>
<path fill="none" stroke="midnightblue" d="M1584.22,-222.66C1642.62,-212.46 1730.86,-197.04 1785.34,-187.52"/>
<polygon fill="midnightblue" stroke="midnightblue" points="1583.29,-219.27 1574.04,-224.44 1584.49,-226.17 1583.29,-219.27"/>
</g>
<!-- Node16&#45;&gt;Node3 -->
<g id="edge27" class="edge">
<title>Node16&#45;&gt;Node3</title>
<path fill="none" stroke="midnightblue" d="M1896.62,-166.53C1933.61,-159.23 1980.92,-147.91 2021.08,-132 2060.26,-116.48 2102.35,-89.44 2122.68,-75.64"/>
<polygon fill="midnightblue" stroke="midnightblue" points="1895.63,-163.16 1886.48,-168.49 1896.96,-170.03 1895.63,-163.16"/>
</g>
<!-- Node17 -->
<g id="node17" class="node">
<title>Node17</title>
<g id="a_node17"><a xlink:href="component_8h.html" target="_top" xlink:title=" ">
<polygon fill="white" stroke="black" points="1656.08,-112.5 1656.08,-131.5 2012.08,-131.5 2012.08,-112.5 1656.08,-112.5"/>
<text text-anchor="middle" x="1834.08" y="-119.5" font-family="Helvetica,sans-Serif" font-size="10.00">/home/runner/work/gauri/gauri/gauri/include/gauri/scene/component.h</text>
</a>
</g>
</g>
<!-- Node16&#45;&gt;Node17 -->
<g id="edge25" class="edge">
<title>Node16&#45;&gt;Node17</title>
<path fill="none" stroke="midnightblue" d="M1834.08,-157.8C1834.08,-148.91 1834.08,-138.78 1834.08,-131.75"/>
<polygon fill="midnightblue" stroke="midnightblue" points="1830.58,-158.08 1834.08,-168.08 1837.58,-158.08 1830.58,-158.08"/>
</g>
<!-- Node17&#45;&gt;Node3 -->
<g id="edge26" class="edge">
<title>Node17&#45;&gt;Node3</title>
<path fill="none" stroke="midnightblue" d="M1891.69,-110.66C1948.57,-100.46 2034.53,-85.04 2087.61,-75.52"/>
<polygon fill="midnightblue" stroke="midnightblue" points="1891,-107.23 1881.77,-112.44 1892.23,-114.12 1891,-107.23"/>
</g>
<!-- Node19&#45;&gt;Node3 -->
<g id="edge32" class="edge">
<title>Node19&#45;&gt;Node3</title>
<path fill="none" stroke="midnightblue" d="M1105.46,-165.36C1153.32,-150.18 1241.6,-124.12 1319.08,-112 1557.38,-74.71 1839.02,-67.1 2001.36,-66.2"/>
<polygon fill="midnightblue" stroke="midnightblue" points="1104.34,-162.04 1095.88,-168.43 1106.48,-168.71 1104.34,-162.04"/>
</g>
<!-- Node20&#45;&gt;Node3 -->
<g id="edge45" class="edge">
<title>Node20&#45;&gt;Node3</title>
<path fill="none" stroke="midnightblue" d="M2643.14,-335.88C2497.32,-327.26 2306,-313.65 2272.08,-300 2229.58,-282.9 2192.08,-280.81 2192.08,-235 2192.08,-235 2192.08,-235 2192.08,-177 2192.08,-135.06 2159.01,-93.19 2143.24,-75.62"/>
<polygon fill="midnightblue" stroke="midnightblue" points="2643.37,-339.4 2653.56,-336.49 2643.78,-332.41 2643.37,-339.4"/>
</g>
<!-- Node21 -->
<g id="node21" class="node">
<title>Node21</title>
<g id="a_node21"><a xlink:href="vertex__array_8h.html" target="_top" xlink:title=" ">
<polygon fill="white" stroke="black" points="2281.58,-280.5 2281.58,-299.5 2656.58,-299.5 2656.58,-280.5 2281.58,-280.5"/>
<text text-anchor="middle" x="2469.08" y="-287.5" font-family="Helvetica,sans-Serif" font-size="10.00">/home/runner/work/gauri/gauri/gauri/include/gauri/renderer/vertex_array.h</text>
</a>
</g>
</g>
<!-- Node20&#45;&gt;Node21 -->
<g id="edge34" class="edge">
<title>Node20&#45;&gt;Node21</title>
<path fill="none" stroke="midnightblue" d="M2749.25,-334.85C2684.07,-324.65 2584.7,-309.1 2523.49,-299.52"/>
<polygon fill="midnightblue" stroke="midnightblue" points="2748.99,-338.35 2759.41,-336.44 2750.07,-331.44 2748.99,-338.35"/>
</g>
<!-- Node27 -->
<g id="node27" class="node">
<title>Node27</title>
<g id="a_node27"><a xlink:href="opengl__buffer_8h.html" target="_top" xlink:title=" ">
<polygon fill="white" stroke="black" points="2674.58,-280.5 2674.58,-299.5 3063.58,-299.5 3063.58,-280.5 2674.58,-280.5"/>
<text text-anchor="middle" x="2869.08" y="-287.5" font-family="Helvetica,sans-Serif" font-size="10.00">/home/runner/work/gauri/gauri/gauri/include/platform/opengl/opengl_buffer.h</text>
</a>
</g>
</g>
<!-- Node20&#45;&gt;Node27 -->
<g id="edge46" class="edge">
<title>Node20&#45;&gt;Node27</title>
<path fill="none" stroke="midnightblue" d="M2830.37,-329C2840.12,-319.43 2852.13,-307.64 2860.16,-299.75"/>
<polygon fill="midnightblue" stroke="midnightblue" points="2827.84,-326.58 2823.16,-336.08 2832.75,-331.57 2827.84,-326.58"/>
</g>
<!-- Node21&#45;&gt;Node3 -->
<g id="edge43" class="edge">
<title>Node21&#45;&gt;Node3</title>
<path fill="none" stroke="midnightblue" d="M2374.11,-279.11C2323.47,-272.03 2267.82,-260.73 2249.08,-244 2203.05,-202.91 2243.93,-160.73 2206.08,-112 2193.1,-95.29 2172.04,-83.07 2156.23,-75.62"/>
<polygon fill="midnightblue" stroke="midnightblue" points="2373.77,-282.6 2384.15,-280.47 2374.71,-275.66 2373.77,-282.6"/>
</g>
<!-- Node22 -->
<g id="node22" class="node">
<title>Node22</title>
<g id="a_node22"><a xlink:href="renderer__api_8h.html" target="_top" xlink:title=" ">
<polygon fill="white" stroke="black" points="2698.08,-224.5 2698.08,-243.5 3074.08,-243.5 3074.08,-224.5 2698.08,-224.5"/>
<text text-anchor="middle" x="2886.08" y="-231.5" font-family="Helvetica,sans-Serif" font-size="10.00">/home/runner/work/gauri/gauri/gauri/include/gauri/renderer/renderer_api.h</text>
</a>
</g>
</g>
<!-- Node21&#45;&gt;Node22 -->
<g id="edge35" class="edge">
<title>Node21&#45;&gt;Node22</title>
<path fill="none" stroke="midnightblue" d="M2545.49,-279.1C2624.24,-268.91 2745.71,-253.18 2820.31,-243.52"/>
<polygon fill="midnightblue" stroke="midnightblue" points="2544.62,-275.69 2535.15,-280.44 2545.52,-282.63 2544.62,-275.69"/>
</g>
<!-- Node26 -->
<g id="node26" class="node">
<title>Node26</title>
<g id="a_node26"><a xlink:href="opengl__vertex__array_8h.html" target="_top" xlink:title=" ">
<polygon fill="white" stroke="black" points="2258.08,-224.5 2258.08,-243.5 2680.08,-243.5 2680.08,-224.5 2258.08,-224.5"/>
<text text-anchor="middle" x="2469.08" y="-231.5" font-family="Helvetica,sans-Serif" font-size="10.00">/home/runner/work/gauri/gauri/gauri/include/platform/opengl/opengl_vertex_array.h</text>
</a>
</g>
</g>
<!-- Node21&#45;&gt;Node26 -->
<g id="edge44" class="edge">
<title>Node21&#45;&gt;Node26</title>
<path fill="none" stroke="midnightblue" d="M2469.08,-269.8C2469.08,-260.91 2469.08,-250.78 2469.08,-243.75"/>
<polygon fill="midnightblue" stroke="midnightblue" points="2465.58,-270.08 2469.08,-280.08 2472.58,-270.08 2465.58,-270.08"/>
</g>
<!-- Node22&#45;&gt;Node3 -->
<g id="edge41" class="edge">
<title>Node22&#45;&gt;Node3</title>
<path fill="none" stroke="midnightblue" d="M2711.93,-223.92C2541.53,-214.42 2304.96,-199.35 2287.08,-188 2254.31,-167.21 2273.16,-137.7 2244.08,-112 2223.52,-93.83 2194.62,-82.36 2171.74,-75.54"/>
<polygon fill="midnightblue" stroke="midnightblue" points="2711.85,-227.42 2722.03,-224.48 2712.24,-220.43 2711.85,-227.42"/>
</g>
<!-- Node23 -->
<g id="node23" class="node">
<title>Node23</title>
<g id="a_node23"><a xlink:href="render__command_8h.html" target="_top" xlink:title=" ">
<polygon fill="white" stroke="black" points="2296.08,-168.5 2296.08,-187.5 2696.08,-187.5 2696.08,-168.5 2296.08,-168.5"/>
<text text-anchor="middle" x="2496.08" y="-175.5" font-family="Helvetica,sans-Serif" font-size="10.00">/home/runner/work/gauri/gauri/gauri/include/gauri/renderer/render_command.h</text>
</a>
</g>
</g>
<!-- Node22&#45;&gt;Node23 -->
<g id="edge36" class="edge">
<title>Node22&#45;&gt;Node23</title>
<path fill="none" stroke="midnightblue" d="M2814.16,-223.04C2740.5,-212.84 2627.21,-197.16 2557.58,-187.52"/>
<polygon fill="midnightblue" stroke="midnightblue" points="2813.9,-226.54 2824.28,-224.44 2814.86,-219.6 2813.9,-226.54"/>
</g>
<!-- Node24 -->
<g id="node24" class="node">
<title>Node24</title>
<g id="a_node24"><a xlink:href="renderer_8h.html" target="_top" xlink:title=" ">
<polygon fill="white" stroke="black" points="2507.58,-112.5 2507.58,-131.5 2862.58,-131.5 2862.58,-112.5 2507.58,-112.5"/>
<text text-anchor="middle" x="2685.08" y="-119.5" font-family="Helvetica,sans-Serif" font-size="10.00">/home/runner/work/gauri/gauri/gauri/include/gauri/renderer/renderer.h</text>
</a>
</g>
</g>
<!-- Node22&#45;&gt;Node24 -->
<g id="edge40" class="edge">
<title>Node22&#45;&gt;Node24</title>
<path fill="none" stroke="midnightblue" d="M3038.51,-223.18C3086.52,-216.69 3131,-205.91 3146.08,-188 3151.8,-181.2 3152.05,-174.58 3146.08,-168 3126.69,-146.63 2984.19,-135.08 2862.68,-129.05"/>
<polygon fill="midnightblue" stroke="midnightblue" points="3038.02,-219.72 3028.55,-224.46 3038.92,-226.66 3038.02,-219.72"/>
</g>
<!-- Node25 -->
<g id="node25" class="node">
<title>Node25</title>
<g id="a_node25"><a xlink:href="opengl__renderer__api_8h.html" target="_top" xlink:title=" ">
<polygon fill="white" stroke="black" points="2714.58,-168.5 2714.58,-187.5 3137.58,-187.5 3137.58,-168.5 2714.58,-168.5"/>
<text text-anchor="middle" x="2926.08" y="-175.5" font-family="Helvetica,sans-Serif" font-size="10.00">/home/runner/work/gauri/gauri/gauri/include/platform/opengl/opengl_renderer_api.h</text>
</a>
</g>
</g>
<!-- Node22&#45;&gt;Node25 -->
<g id="edge42" class="edge">
<title>Node22&#45;&gt;Node25</title>
<path fill="none" stroke="midnightblue" d="M2898.78,-215.86C2905.7,-206.5 2913.98,-195.33 2919.6,-187.75"/>
<polygon fill="midnightblue" stroke="midnightblue" points="2895.82,-213.96 2892.68,-224.08 2901.45,-218.13 2895.82,-213.96"/>
</g>
<!-- Node23&#45;&gt;Node3 -->
<g id="edge39" class="edge">
<title>Node23&#45;&gt;Node3</title>
<path fill="none" stroke="midnightblue" d="M2458.38,-165.51C2385.73,-143.38 2227.8,-95.25 2163.34,-75.61"/>
<polygon fill="midnightblue" stroke="midnightblue" points="2457.46,-168.89 2468.05,-168.46 2459.51,-162.2 2457.46,-168.89"/>
</g>
<!-- Node23&#45;&gt;Node24 -->
<g id="edge37" class="edge">
<title>Node23&#45;&gt;Node24</title>
<path fill="none" stroke="midnightblue" d="M2536.09,-165.57C2571.74,-155.38 2623.12,-140.7 2655.27,-131.52"/>
<polygon fill="midnightblue" stroke="midnightblue" points="2534.68,-162.33 2526.03,-168.44 2536.6,-169.06 2534.68,-162.33"/>
</g>
<!-- Node24&#45;&gt;Node3 -->
<g id="edge38" class="edge">
<title>Node24&#45;&gt;Node3</title>
<path fill="none" stroke="midnightblue" d="M2588.08,-111.48C2484.39,-101.3 2321.52,-85.31 2221.92,-75.53"/>
<polygon fill="midnightblue" stroke="midnightblue" points="2587.94,-114.98 2598.23,-112.47 2588.62,-108.01 2587.94,-114.98"/>
</g>
<!-- Node28&#45;&gt;Node3 -->
<g id="edge48" class="edge">
<title>Node28&#45;&gt;Node3</title>
<path fill="none" stroke="midnightblue" d="M3429.34,-391.14C3479.81,-384.13 3534.71,-372.9 3553.08,-356 3575.23,-335.62 3572.08,-321.1 3572.08,-291 3572.08,-291 3572.08,-291 3572.08,-177 3572.08,-146.9 3576.87,-130.43 3553.08,-112 3502.85,-73.09 2612.07,-67.67 2268.61,-67.03"/>
<polygon fill="midnightblue" stroke="midnightblue" points="3428.76,-387.69 3419.31,-392.49 3429.69,-394.63 3428.76,-387.69"/>
</g>
<!-- Node29 -->
<g id="node29" class="node">
<title>Node29</title>
<g id="a_node29"><a xlink:href="opengl__frame__buffer_8h.html" target="_top" xlink:title=" ">
<polygon fill="white" stroke="black" points="3120.08,-336.5 3120.08,-355.5 3544.08,-355.5 3544.08,-336.5 3120.08,-336.5"/>
<text text-anchor="middle" x="3332.08" y="-343.5" font-family="Helvetica,sans-Serif" font-size="10.00">/home/runner/work/gauri/gauri/gauri/include/platform/opengl/opengl_frame_buffer.h</text>
</a>
</g>
</g>
<!-- Node28&#45;&gt;Node29 -->
<g id="edge49" class="edge">
<title>Node28&#45;&gt;Node29</title>
<path fill="none" stroke="midnightblue" d="M3332.08,-381.8C3332.08,-372.91 3332.08,-362.78 3332.08,-355.75"/>
<polygon fill="midnightblue" stroke="midnightblue" points="3328.58,-382.08 3332.08,-392.08 3335.58,-382.08 3328.58,-382.08"/>
</g>
<!-- Node30&#45;&gt;Node3 -->
<g id="edge52" class="edge">
<title>Node30&#45;&gt;Node3</title>
<path fill="none" stroke="midnightblue" d="M3301.8,-166.98C3207.11,-152.78 3026.01,-126.87 2871.08,-112 2660.98,-91.83 2416.22,-78.98 2268.59,-72.38"/>
<polygon fill="midnightblue" stroke="midnightblue" points="3301.39,-170.46 3311.8,-168.48 3302.43,-163.54 3301.39,-170.46"/>
</g>
<!-- Node30&#45;&gt;Node24 -->
<g id="edge51" class="edge">
<title>Node30&#45;&gt;Node24</title>
<path fill="none" stroke="midnightblue" d="M3249.11,-167.66C3120.57,-157.48 2916.71,-141.34 2792.48,-131.5"/>
<polygon fill="midnightblue" stroke="midnightblue" points="3249.14,-171.17 3259.39,-168.47 3249.7,-164.19 3249.14,-171.17"/>
</g>
<!-- Node31 -->
<g id="node31" class="node">
<title>Node31</title>
<g id="a_node31"><a xlink:href="opengl__shader_8h.html" target="_top" xlink:title=" ">
<polygon fill="white" stroke="black" points="3150.08,-112.5 3150.08,-131.5 3544.08,-131.5 3544.08,-112.5 3150.08,-112.5"/>
<text text-anchor="middle" x="3347.08" y="-119.5" font-family="Helvetica,sans-Serif" font-size="10.00">/home/runner/work/gauri/gauri/gauri/include/platform/opengl/opengl_shader.h</text>
</a>
</g>
</g>
<!-- Node30&#45;&gt;Node31 -->
<g id="edge53" class="edge">
<title>Node30&#45;&gt;Node31</title>
<path fill="none" stroke="midnightblue" d="M3360.3,-158.69C3356.93,-149.59 3353.01,-139.01 3350.32,-131.75"/>
<polygon fill="midnightblue" stroke="midnightblue" points="3357.02,-159.92 3363.77,-168.08 3363.58,-157.49 3357.02,-159.92"/>
</g>
<!-- Node32&#45;&gt;Node3 -->
<g id="edge58" class="edge">
<title>Node32&#45;&gt;Node3</title>
<path fill="none" stroke="midnightblue" d="M2171.33,-393.4C2345.46,-385.34 2581.58,-371.61 2596.08,-356 2734.7,-206.78 2154.08,-438.67 2154.08,-235 2154.08,-235 2154.08,-235 2154.08,-177 2154.08,-138.82 2142.83,-94.26 2137.64,-75.75"/>
<polygon fill="midnightblue" stroke="midnightblue" points="2171.09,-389.91 2161.26,-393.87 2171.41,-396.9 2171.09,-389.91"/>
</g>
<!-- Node32&#45;&gt;Node13 -->
<g id="edge55" class="edge">
<title>Node32&#45;&gt;Node13</title>
<path fill="none" stroke="midnightblue" d="M1884.6,-391.07C1838.89,-384.29 1792.04,-373.31 1778.08,-356 1752.47,-324.26 1799.23,-307.9 1848.69,-299.54"/>
<polygon fill="midnightblue" stroke="midnightblue" points="1884.23,-394.55 1894.63,-392.5 1885.22,-387.62 1884.23,-394.55"/>
</g>
<!-- Node33 -->
<g id="node33" class="node">
<title>Node33</title>
<g id="a_node33"><a xlink:href="subtexture__2d_8h.html" target="_top" xlink:title=" ">
<polygon fill="white" stroke="black" points="2203.08,-336.5 2203.08,-355.5 2587.08,-355.5 2587.08,-336.5 2203.08,-336.5"/>
<text text-anchor="middle" x="2395.08" y="-343.5" font-family="Helvetica,sans-Serif" font-size="10.00">/home/runner/work/gauri/gauri/gauri/include/gauri/renderer/subtexture_2d.h</text>
</a>
</g>
</g>
<!-- Node32&#45;&gt;Node33 -->
<g id="edge56" class="edge">
<title>Node32&#45;&gt;Node33</title>
<path fill="none" stroke="midnightblue" d="M2061.03,-391.1C2138.26,-380.91 2257.41,-365.18 2330.57,-355.52"/>
<polygon fill="midnightblue" stroke="midnightblue" points="2060.34,-387.66 2050.88,-392.44 2061.26,-394.6 2060.34,-387.66"/>
</g>
<!-- Node34 -->
<g id="node34" class="node">
<title>Node34</title>
<g id="a_node34"><a xlink:href="opengl__texture_8h.html" target="_top" xlink:title=" ">
<polygon fill="white" stroke="black" points="1787.58,-336.5 1787.58,-355.5 2184.58,-355.5 2184.58,-336.5 1787.58,-336.5"/>
<text text-anchor="middle" x="1986.08" y="-343.5" font-family="Helvetica,sans-Serif" font-size="10.00">/home/runner/work/gauri/gauri/gauri/include/platform/opengl/opengl_texture.h</text>
</a>
</g>
</g>
<!-- Node32&#45;&gt;Node34 -->
<g id="edge59" class="edge">
<title>Node32&#45;&gt;Node34</title>
<path fill="none" stroke="midnightblue" d="M1986.08,-381.8C1986.08,-372.91 1986.08,-362.78 1986.08,-355.75"/>
<polygon fill="midnightblue" stroke="midnightblue" points="1982.58,-382.08 1986.08,-392.08 1989.58,-382.08 1982.58,-382.08"/>
</g>
<!-- Node33&#45;&gt;Node13 -->
<g id="edge57" class="edge">
<title>Node33&#45;&gt;Node13</title>
<path fill="none" stroke="midnightblue" d="M2312.91,-335.29C2226.69,-325.1 2092.5,-309.25 2010.24,-299.53"/>
<polygon fill="midnightblue" stroke="midnightblue" points="2312.57,-338.78 2322.92,-336.47 2313.4,-331.82 2312.57,-338.78"/>
</g>
</g>
</svg>
        <g id="navigator" transform="translate(0 0)" fill="#404254">
                <rect fill="#f2f5e9" fill-opacity="0.5" stroke="#606060" stroke-width=".5" x="0" y="0" width="60" height="60"/>
                <use id="zoomplus" xlink:href="#zoomPlus" x="17" y="9" onmousedown="handleZoom(evt,'in')"/>
                <use id="zoomminus" xlink:href="#zoomMin" x="42" y="9" onmousedown="handleZoom(evt,'out')"/>
                <use id="reset" xlink:href="#resetDef" x="30" y="36" onmousedown="handleReset()"/>
                <g id="arrowUp" xlink:href="#dirArrow" transform="translate(30 24)" onmousedown="handlePan(0,-1)">
                  <use xlink:href="#rim" fill="#404040">
                        <set attributeName="fill" to="#808080" begin="arrowUp.mouseover" end="arrowUp.mouseout"/>
                  </use>
                  <path fill="none" stroke="white" stroke-width="1.5" d="M0,-3.0v7 M-2.5,-0.5L0,-3.0L2.5,-0.5"/>
                </g>
                <g id="arrowRight" xlink:href="#dirArrow" transform="rotate(90) translate(36 -43)" onmousedown="handlePan(1,0)">
                  <use xlink:href="#rim" fill="#404040">
                        <set attributeName="fill" to="#808080" begin="arrowRight.mouseover" end="arrowRight.mouseout"/>
                  </use>
                  <path fill="none" stroke="white" stroke-width="1.5" d="M0,-3.0v7 M-2.5,-0.5L0,-3.0L2.5,-0.5"/>
                </g>
                <g id="arrowDown" xlink:href="#dirArrow" transform="rotate(180) translate(-30 -48)" onmousedown="handlePan(0,1)">
                  <use xlink:href="#rim" fill="#404040">
                        <set attributeName="fill" to="#808080" begin="arrowDown.mouseover" end="arrowDown.mouseout"/>
                  </use>
                  <path fill="none" stroke="white" stroke-width="1.5" d="M0,-3.0v7 M-2.5,-0.5L0,-3.0L2.5,-0.5"/>
                </g>
                <g id="arrowLeft" xlink:href="#dirArrow" transform="rotate(270) translate(-36 17)" onmousedown="handlePan(-1,0)">
                  <use xlink:href="#rim" fill="#404040">
                        <set attributeName="fill" to="#808080" begin="arrowLeft.mouseover" end="arrowLeft.mouseout"/>
                  </use>
                  <path fill="none" stroke="white" stroke-width="1.5" d="M0,-3.0v7 M-2.5,-0.5L0,-3.0L2.5,-0.5"/>
                </g>
        </g>
        <svg viewBox="0 0 15 15" width="100%" height="30px" preserveAspectRatio="xMaxYMin meet">
         <g id="arrow_out" transform="scale(0.3 0.3)">
          <a xlink:href="base_8h__dep__incl_org.svg" target="_base">
           <rect id="button" ry="5" rx="5" y="6" x="6" height="38" width="38"
                fill="#f2f5e9" fill-opacity="0.5" stroke="#606060" stroke-width="1.0"/>
           <path id="arrow"
             d="M 11.500037,31.436501 C 11.940474,20.09759 22.043105,11.32322 32.158766,21.979434 L 37.068811,17.246167 C 37.068811,17.246167 37.088388,32 37.088388,32 L 22.160133,31.978069 C 22.160133,31.978069 26.997745,27.140456 26.997745,27.140456 C 18.528582,18.264221 13.291696,25.230495 11.500037,31.436501 z"
             style="fill:#404040;"/>
          </a>
         </g>
        </svg>
</svg>
