<?xml version="1.0" encoding="UTF-8" standalone="no"?>
<!DOCTYPE svg PUBLIC "-//W3C//DTD SVG 1.1//EN"
 "http://www.w3.org/Graphics/SVG/1.1/DTD/svg11.dtd">
<!-- Generated by graphviz version 2.43.0 (0)
 -->
<!-- Title: /home/runner/work/gauri/gauri/gauri/include/gauri/renderer/buffer.h Pages: 1 -->
<svg width="469pt" height="196pt"
 viewBox="0.00 0.00 468.50 196.00" xmlns="http://www.w3.org/2000/svg" xmlns:xlink="http://www.w3.org/1999/xlink">
<g id="graph0" class="graph" transform="scale(1 1) rotate(0) translate(4 192)">
<title>/home/runner/work/gauri/gauri/gauri/include/gauri/renderer/buffer.h</title>
<polygon fill="white" stroke="transparent" points="-4,4 -4,-192 464.5,-192 464.5,4 -4,4"/>
<!-- Node1 -->
<g id="node1" class="node">
<title>Node1</title>
<g id="a_node1"><a xlink:title=" ">
<polygon fill="#bfbfbf" stroke="black" points="0,-168.5 0,-187.5 342,-187.5 342,-168.5 0,-168.5"/>
<text text-anchor="middle" x="171" y="-175.5" font-family="Helvetica,sans-Serif" font-size="10.00">/home/runner/work/gauri/gauri/gauri/include/gauri/renderer/buffer.h</text>
</a>
</g>
</g>
<!-- Node2 -->
<g id="node2" class="node">
<title>Node2</title>
<g id="a_node2"><a xlink:href="core_8h.html" target="_top" xlink:title=" ">
<polygon fill="white" stroke="black" points="102,-112.5 102,-131.5 176,-131.5 176,-112.5 102,-112.5"/>
<text text-anchor="middle" x="139" y="-119.5" font-family="Helvetica,sans-Serif" font-size="10.00">gauri/core.h</text>
</a>
</g>
</g>
<!-- Node1&#45;&gt;Node2 -->
<g id="edge1" class="edge">
<title>Node1&#45;&gt;Node2</title>
<path fill="none" stroke="midnightblue" d="M165.72,-168.08C161.29,-160.61 154.84,-149.72 149.38,-140.52"/>
<polygon fill="midnightblue" stroke="midnightblue" points="152.29,-138.57 144.19,-131.75 146.27,-142.14 152.29,-138.57"/>
</g>
<!-- Node5 -->
<g id="node5" class="node">
<title>Node5</title>
<g id="a_node5"><a xlink:href="logger_8h.html" target="_top" xlink:title=" ">
<polygon fill="white" stroke="black" points="165.5,-56.5 165.5,-75.5 248.5,-75.5 248.5,-56.5 165.5,-56.5"/>
<text text-anchor="middle" x="207" y="-63.5" font-family="Helvetica,sans-Serif" font-size="10.00">gauri/logger.h</text>
</a>
</g>
</g>
<!-- Node1&#45;&gt;Node5 -->
<g id="edge9" class="edge">
<title>Node1&#45;&gt;Node5</title>
<path fill="none" stroke="midnightblue" d="M173.82,-168.37C179.66,-150.54 193.16,-109.3 201.02,-85.27"/>
<polygon fill="midnightblue" stroke="midnightblue" points="204.4,-86.18 204.19,-75.59 197.75,-84.01 204.4,-86.18"/>
</g>
<!-- Node3 -->
<g id="node3" class="node">
<title>Node3</title>
<g id="a_node3"><a xlink:title=" ">
<polygon fill="white" stroke="#bfbfbf" points="59,-56.5 59,-75.5 109,-75.5 109,-56.5 59,-56.5"/>
<text text-anchor="middle" x="84" y="-63.5" font-family="Helvetica,sans-Serif" font-size="10.00">cstdint</text>
</a>
</g>
</g>
<!-- Node2&#45;&gt;Node3 -->
<g id="edge2" class="edge">
<title>Node2&#45;&gt;Node3</title>
<path fill="none" stroke="midnightblue" d="M129.92,-112.08C121.83,-104.14 109.8,-92.34 100.09,-82.8"/>
<polygon fill="midnightblue" stroke="midnightblue" points="102.5,-80.26 92.91,-75.75 97.6,-85.25 102.5,-80.26"/>
</g>
<!-- Node4 -->
<g id="node4" class="node">
<title>Node4</title>
<g id="a_node4"><a xlink:title=" ">
<polygon fill="white" stroke="#bfbfbf" points="106,-0.5 106,-19.5 164,-19.5 164,-0.5 106,-0.5"/>
<text text-anchor="middle" x="135" y="-7.5" font-family="Helvetica,sans-Serif" font-size="10.00">memory</text>
</a>
</g>
</g>
<!-- Node2&#45;&gt;Node4 -->
<g id="edge3" class="edge">
<title>Node2&#45;&gt;Node4</title>
<path fill="none" stroke="midnightblue" d="M138.69,-112.37C138.04,-94.62 136.55,-53.67 135.68,-29.6"/>
<polygon fill="midnightblue" stroke="midnightblue" points="139.17,-29.46 135.31,-19.59 132.18,-29.71 139.17,-29.46"/>
</g>
<!-- Node2&#45;&gt;Node5 -->
<g id="edge4" class="edge">
<title>Node2&#45;&gt;Node5</title>
<path fill="none" stroke="midnightblue" d="M149.93,-112.32C160.17,-104.18 175.72,-91.84 188,-82.09"/>
<polygon fill="midnightblue" stroke="midnightblue" points="190.22,-84.79 195.88,-75.83 185.87,-79.31 190.22,-84.79"/>
</g>
<!-- Node5&#45;&gt;Node4 -->
<g id="edge6" class="edge">
<title>Node5&#45;&gt;Node4</title>
<path fill="none" stroke="midnightblue" d="M195.43,-56.32C184.58,-48.18 168.12,-35.84 155.12,-26.09"/>
<polygon fill="midnightblue" stroke="midnightblue" points="156.88,-23.03 146.78,-19.83 152.68,-28.63 156.88,-23.03"/>
</g>
<!-- Node6 -->
<g id="node6" class="node">
<title>Node6</title>
<g id="a_node6"><a xlink:title=" ">
<polygon fill="white" stroke="#bfbfbf" points="182,-0.5 182,-19.5 232,-19.5 232,-0.5 182,-0.5"/>
<text text-anchor="middle" x="207" y="-7.5" font-family="Helvetica,sans-Serif" font-size="10.00">format</text>
</a>
</g>
</g>
<!-- Node5&#45;&gt;Node6 -->
<g id="edge5" class="edge">
<title>Node5&#45;&gt;Node6</title>
<path fill="none" stroke="midnightblue" d="M207,-56.08C207,-49.01 207,-38.86 207,-29.99"/>
<polygon fill="midnightblue" stroke="midnightblue" points="210.5,-29.75 207,-19.75 203.5,-29.75 210.5,-29.75"/>
</g>
<!-- Node7 -->
<g id="node7" class="node">
<title>Node7</title>
<g id="a_node7"><a xlink:title=" ">
<polygon fill="white" stroke="#bfbfbf" points="250.5,-0.5 250.5,-19.5 349.5,-19.5 349.5,-0.5 250.5,-0.5"/>
<text text-anchor="middle" x="300" y="-7.5" font-family="Helvetica,sans-Serif" font-size="10.00">spdlog/fmt/ostr.h</text>
</a>
</g>
</g>
<!-- Node5&#45;&gt;Node7 -->
<g id="edge7" class="edge">
<title>Node5&#45;&gt;Node7</title>
<path fill="none" stroke="midnightblue" d="M221.94,-56.32C236.59,-47.82 259.13,-34.73 276.24,-24.8"/>
<polygon fill="midnightblue" stroke="midnightblue" points="278.2,-27.7 285.1,-19.65 274.69,-21.65 278.2,-27.7"/>
</g>
<!-- Node8 -->
<g id="node8" class="node">
<title>Node8</title>
<g id="a_node8"><a xlink:title=" ">
<polygon fill="white" stroke="#bfbfbf" points="367.5,-0.5 367.5,-19.5 460.5,-19.5 460.5,-0.5 367.5,-0.5"/>
<text text-anchor="middle" x="414" y="-7.5" font-family="Helvetica,sans-Serif" font-size="10.00">spdlog/spdlog.h</text>
</a>
</g>
</g>
<!-- Node5&#45;&gt;Node8 -->
<g id="edge8" class="edge">
<title>Node5&#45;&gt;Node8</title>
<path fill="none" stroke="midnightblue" d="M239.8,-56.44C275.38,-47.16 332.31,-32.31 371.35,-22.13"/>
<polygon fill="midnightblue" stroke="midnightblue" points="372.56,-25.43 381.35,-19.52 370.79,-18.65 372.56,-25.43"/>
</g>
</g>
</svg>
