<?xml version="1.0" encoding="UTF-8" standalone="no"?>
<!DOCTYPE svg PUBLIC "-//W3C//DTD SVG 1.1//EN"
 "http://www.w3.org/Graphics/SVG/1.1/DTD/svg11.dtd">
<!-- Generated by graphviz version 2.43.0 (0)
 -->
<!-- Title: /home/runner/work/gauri/gauri/gauri/include/gauri/renderer/buffer.h Pages: 1 -->
<svg width="1830pt" height="364pt"
 viewBox="0.00 0.00 1830.12 364.00" xmlns="http://www.w3.org/2000/svg" xmlns:xlink="http://www.w3.org/1999/xlink">
<g id="graph0" class="graph" transform="scale(1 1) rotate(0) translate(4 360)">
<title>/home/runner/work/gauri/gauri/gauri/include/gauri/renderer/buffer.h</title>
<polygon fill="white" stroke="transparent" points="-4,4 -4,-360 1826.12,-360 1826.12,4 -4,4"/>
<!-- Node1 -->
<g id="node1" class="node">
<title>Node1</title>
<g id="a_node1"><a xlink:title=" ">
<polygon fill="#bfbfbf" stroke="black" points="1233.62,-336.5 1233.62,-355.5 1575.62,-355.5 1575.62,-336.5 1233.62,-336.5"/>
<text text-anchor="middle" x="1404.62" y="-343.5" font-family="Helvetica,sans-Serif" font-size="10.00">/home/runner/work/gauri/gauri/gauri/include/gauri/renderer/buffer.h</text>
</a>
</g>
</g>
<!-- Node2 -->
<g id="node2" class="node">
<title>Node2</title>
<g id="a_node2"><a xlink:href="vertex__array_8h.html" target="_top" xlink:title=" ">
<polygon fill="white" stroke="black" points="859.12,-280.5 859.12,-299.5 1234.12,-299.5 1234.12,-280.5 859.12,-280.5"/>
<text text-anchor="middle" x="1046.62" y="-287.5" font-family="Helvetica,sans-Serif" font-size="10.00">/home/runner/work/gauri/gauri/gauri/include/gauri/renderer/vertex_array.h</text>
</a>
</g>
</g>
<!-- Node1&#45;&gt;Node2 -->
<g id="edge1" class="edge">
<title>Node1&#45;&gt;Node2</title>
<path fill="none" stroke="midnightblue" d="M1337.77,-334.92C1270.13,-324.71 1166.73,-309.12 1103.08,-299.52"/>
<polygon fill="midnightblue" stroke="midnightblue" points="1337.48,-338.41 1347.89,-336.44 1338.52,-331.49 1337.48,-338.41"/>
</g>
<!-- Node6 -->
<g id="node6" class="node">
<title>Node6</title>
<g id="a_node6"><a xlink:href="gauri_8h.html" target="_top" xlink:title=" ">
<polygon fill="white" stroke="black" points="313.12,-56.5 313.12,-75.5 580.12,-75.5 580.12,-56.5 313.12,-56.5"/>
<text text-anchor="middle" x="446.62" y="-63.5" font-family="Helvetica,sans-Serif" font-size="10.00">/home/runner/work/gauri/gauri/gauri/include/gauri.h</text>
</a>
</g>
</g>
<!-- Node1&#45;&gt;Node6 -->
<g id="edge13" class="edge">
<title>Node1&#45;&gt;Node6</title>
<path fill="none" stroke="midnightblue" d="M1404.62,-326.25C1404.62,-304.36 1404.62,-267.05 1404.62,-235 1404.62,-235 1404.62,-235 1404.62,-177 1404.62,-95.02 843.77,-74.09 580.33,-68.79"/>
<polygon fill="midnightblue" stroke="midnightblue" points="1401.12,-326.44 1404.62,-336.44 1408.12,-326.44 1401.12,-326.44"/>
</g>
<!-- Node10 -->
<g id="node10" class="node">
<title>Node10</title>
<g id="a_node10"><a xlink:href="opengl__buffer_8h.html" target="_top" xlink:title=" ">
<polygon fill="white" stroke="black" points="1433.12,-280.5 1433.12,-299.5 1822.12,-299.5 1822.12,-280.5 1433.12,-280.5"/>
<text text-anchor="middle" x="1627.62" y="-287.5" font-family="Helvetica,sans-Serif" font-size="10.00">/home/runner/work/gauri/gauri/gauri/include/platform/opengl/opengl_buffer.h</text>
</a>
</g>
</g>
<!-- Node1&#45;&gt;Node10 -->
<g id="edge14" class="edge">
<title>Node1&#45;&gt;Node10</title>
<path fill="none" stroke="midnightblue" d="M1449.68,-334.09C1491.81,-323.89 1553.86,-308.86 1592.45,-299.52"/>
<polygon fill="midnightblue" stroke="midnightblue" points="1448.85,-330.69 1439.95,-336.44 1450.49,-337.49 1448.85,-330.69"/>
</g>
<!-- Node3 -->
<g id="node3" class="node">
<title>Node3</title>
<g id="a_node3"><a xlink:href="renderer__api_8h.html" target="_top" xlink:title=" ">
<polygon fill="white" stroke="black" points="258.62,-224.5 258.62,-243.5 634.62,-243.5 634.62,-224.5 258.62,-224.5"/>
<text text-anchor="middle" x="446.62" y="-231.5" font-family="Helvetica,sans-Serif" font-size="10.00">/home/runner/work/gauri/gauri/gauri/include/gauri/renderer/renderer_api.h</text>
</a>
</g>
</g>
<!-- Node2&#45;&gt;Node3 -->
<g id="edge2" class="edge">
<title>Node2&#45;&gt;Node3</title>
<path fill="none" stroke="midnightblue" d="M941.82,-279.57C828.76,-269.39 650.34,-253.34 541.35,-243.53"/>
<polygon fill="midnightblue" stroke="midnightblue" points="941.6,-283.06 951.87,-280.47 942.23,-276.09 941.6,-283.06"/>
</g>
<!-- Node2&#45;&gt;Node6 -->
<g id="edge11" class="edge">
<title>Node2&#45;&gt;Node6</title>
<path fill="none" stroke="midnightblue" d="M1003.21,-277.06C983.76,-269.98 961.64,-259.32 945.62,-244 918.32,-217.9 937.42,-191.2 907.62,-168 848.21,-121.76 636.58,-89.87 521.85,-75.54"/>
<polygon fill="midnightblue" stroke="midnightblue" points="1002.21,-280.42 1012.81,-280.35 1004.48,-273.8 1002.21,-280.42"/>
</g>
<!-- Node9 -->
<g id="node9" class="node">
<title>Node9</title>
<g id="a_node9"><a xlink:href="opengl__vertex__array_8h.html" target="_top" xlink:title=" ">
<polygon fill="white" stroke="black" points="954.62,-224.5 954.62,-243.5 1376.62,-243.5 1376.62,-224.5 954.62,-224.5"/>
<text text-anchor="middle" x="1165.62" y="-231.5" font-family="Helvetica,sans-Serif" font-size="10.00">/home/runner/work/gauri/gauri/gauri/include/platform/opengl/opengl_vertex_array.h</text>
</a>
</g>
</g>
<!-- Node2&#45;&gt;Node9 -->
<g id="edge12" class="edge">
<title>Node2&#45;&gt;Node9</title>
<path fill="none" stroke="midnightblue" d="M1074.75,-276.23C1097.01,-266.13 1127.47,-252.31 1146.85,-243.52"/>
<polygon fill="midnightblue" stroke="midnightblue" points="1073.13,-273.12 1065.47,-280.44 1076.02,-279.5 1073.13,-273.12"/>
</g>
<!-- Node4 -->
<g id="node4" class="node">
<title>Node4</title>
<g id="a_node4"><a xlink:href="render__command_8h.html" target="_top" xlink:title=" ">
<polygon fill="white" stroke="black" points="18.62,-168.5 18.62,-187.5 418.62,-187.5 418.62,-168.5 18.62,-168.5"/>
<text text-anchor="middle" x="218.62" y="-175.5" font-family="Helvetica,sans-Serif" font-size="10.00">/home/runner/work/gauri/gauri/gauri/include/gauri/renderer/render_command.h</text>
</a>
</g>
</g>
<!-- Node3&#45;&gt;Node4 -->
<g id="edge3" class="edge">
<title>Node3&#45;&gt;Node4</title>
<path fill="none" stroke="midnightblue" d="M400.54,-222.09C357.47,-211.89 294.03,-196.86 254.57,-187.52"/>
<polygon fill="midnightblue" stroke="midnightblue" points="399.95,-225.54 410.49,-224.44 401.56,-218.73 399.95,-225.54"/>
</g>
<!-- Node5 -->
<g id="node5" class="node">
<title>Node5</title>
<g id="a_node5"><a xlink:href="renderer_8h.html" target="_top" xlink:title=" ">
<polygon fill="white" stroke="black" points="25.12,-112.5 25.12,-131.5 380.12,-131.5 380.12,-112.5 25.12,-112.5"/>
<text text-anchor="middle" x="202.62" y="-119.5" font-family="Helvetica,sans-Serif" font-size="10.00">/home/runner/work/gauri/gauri/gauri/include/gauri/renderer/renderer.h</text>
</a>
</g>
</g>
<!-- Node3&#45;&gt;Node5 -->
<g id="edge8" class="edge">
<title>Node3&#45;&gt;Node5</title>
<path fill="none" stroke="midnightblue" d="M248.44,-224.6C140.87,-217.94 26.38,-206.58 9.62,-188 -19.22,-156.04 23.02,-139.78 75.26,-131.51"/>
<polygon fill="midnightblue" stroke="midnightblue" points="248.3,-228.1 258.5,-225.21 248.73,-221.11 248.3,-228.1"/>
</g>
<!-- Node3&#45;&gt;Node6 -->
<g id="edge9" class="edge">
<title>Node3&#45;&gt;Node6</title>
<path fill="none" stroke="midnightblue" d="M446.62,-213.93C446.62,-177.92 446.62,-101.23 446.62,-75.57"/>
<polygon fill="midnightblue" stroke="midnightblue" points="443.12,-214.08 446.62,-224.08 450.12,-214.08 443.12,-214.08"/>
</g>
<!-- Node8 -->
<g id="node8" class="node">
<title>Node8</title>
<g id="a_node8"><a xlink:href="opengl__renderer__api_8h.html" target="_top" xlink:title=" ">
<polygon fill="white" stroke="black" points="475.12,-168.5 475.12,-187.5 898.12,-187.5 898.12,-168.5 475.12,-168.5"/>
<text text-anchor="middle" x="686.62" y="-175.5" font-family="Helvetica,sans-Serif" font-size="10.00">/home/runner/work/gauri/gauri/gauri/include/platform/opengl/opengl_renderer_api.h</text>
</a>
</g>
</g>
<!-- Node3&#45;&gt;Node8 -->
<g id="edge10" class="edge">
<title>Node3&#45;&gt;Node8</title>
<path fill="none" stroke="midnightblue" d="M494.54,-222.22C539.89,-212.01 607.06,-196.9 648.76,-187.52"/>
<polygon fill="midnightblue" stroke="midnightblue" points="493.63,-218.83 484.64,-224.44 495.17,-225.66 493.63,-218.83"/>
</g>
<!-- Node4&#45;&gt;Node5 -->
<g id="edge4" class="edge">
<title>Node4&#45;&gt;Node5</title>
<path fill="none" stroke="midnightblue" d="M213.1,-158.4C210.43,-149.36 207.34,-138.94 205.21,-131.75"/>
<polygon fill="midnightblue" stroke="midnightblue" points="209.78,-159.49 215.97,-168.08 216.49,-157.5 209.78,-159.49"/>
</g>
<!-- Node4&#45;&gt;Node6 -->
<g id="edge7" class="edge">
<title>Node4&#45;&gt;Node6</title>
<path fill="none" stroke="midnightblue" d="M297.43,-166.39C327.86,-159.78 361.94,-149.12 389.62,-132 413.36,-117.31 432.69,-89.65 441.49,-75.63"/>
<polygon fill="midnightblue" stroke="midnightblue" points="296.35,-163.04 287.26,-168.48 297.76,-169.9 296.35,-163.04"/>
</g>
<!-- Node5&#45;&gt;Node6 -->
<g id="edge5" class="edge">
<title>Node5&#45;&gt;Node6</title>
<path fill="none" stroke="midnightblue" d="M251.05,-110.28C297.16,-100.08 365.64,-84.92 408.13,-75.52"/>
<polygon fill="midnightblue" stroke="midnightblue" points="250.29,-106.87 241.28,-112.44 251.8,-113.7 250.29,-106.87"/>
</g>
<!-- Node7 -->
<g id="node7" class="node">
<title>Node7</title>
<g id="a_node7"><a xlink:href="entry__point_8h.html" target="_top" xlink:title=" ">
<polygon fill="white" stroke="black" points="271.62,-0.5 271.62,-19.5 621.62,-19.5 621.62,-0.5 271.62,-0.5"/>
<text text-anchor="middle" x="446.62" y="-7.5" font-family="Helvetica,sans-Serif" font-size="10.00">/home/runner/work/gauri/gauri/gauri/include/gauri/core/entry_point.h</text>
</a>
</g>
</g>
<!-- Node6&#45;&gt;Node7 -->
<g id="edge6" class="edge">
<title>Node6&#45;&gt;Node7</title>
<path fill="none" stroke="midnightblue" d="M446.62,-45.8C446.62,-36.91 446.62,-26.78 446.62,-19.75"/>
<polygon fill="midnightblue" stroke="midnightblue" points="443.12,-46.08 446.62,-56.08 450.12,-46.08 443.12,-46.08"/>
</g>
</g>
</svg>
