<?xml version="1.0" encoding="UTF-8" standalone="no"?>
<!DOCTYPE svg PUBLIC "-//W3C//DTD SVG 1.1//EN"
 "http://www.w3.org/Graphics/SVG/1.1/DTD/svg11.dtd">
<!-- Generated by graphviz version 2.43.0 (0)
 -->
<!-- Title: /home/runner/work/gauri/gauri/gauri/include/gauri/renderer/camera.h Pages: 1 -->
<svg width="1136pt" height="420pt"
 viewBox="0.00 0.00 1135.50 420.00" xmlns="http://www.w3.org/2000/svg" xmlns:xlink="http://www.w3.org/1999/xlink">
<g id="graph0" class="graph" transform="scale(1 1) rotate(0) translate(4 416)">
<title>/home/runner/work/gauri/gauri/gauri/include/gauri/renderer/camera.h</title>
<polygon fill="white" stroke="transparent" points="-4,4 -4,-416 1131.5,-416 1131.5,4 -4,4"/>
<!-- Node1 -->
<g id="node1" class="node">
<title>Node1</title>
<g id="a_node1"><a xlink:title=" ">
<polygon fill="#bfbfbf" stroke="black" points="344,-392.5 344,-411.5 695,-411.5 695,-392.5 344,-392.5"/>
<text text-anchor="middle" x="519.5" y="-399.5" font-family="Helvetica,sans-Serif" font-size="10.00">/home/runner/work/gauri/gauri/gauri/include/gauri/renderer/camera.h</text>
</a>
</g>
</g>
<!-- Node2 -->
<g id="node2" class="node">
<title>Node2</title>
<g id="a_node2"><a xlink:href="editor__camera_8h.html" target="_top" xlink:title=" ">
<polygon fill="white" stroke="black" points="327,-336.5 327,-355.5 712,-355.5 712,-336.5 327,-336.5"/>
<text text-anchor="middle" x="519.5" y="-343.5" font-family="Helvetica,sans-Serif" font-size="10.00">/home/runner/work/gauri/gauri/gauri/include/gauri/renderer/editor_camera.h</text>
</a>
</g>
</g>
<!-- Node1&#45;&gt;Node2 -->
<g id="edge1" class="edge">
<title>Node1&#45;&gt;Node2</title>
<path fill="none" stroke="midnightblue" d="M519.5,-381.8C519.5,-372.91 519.5,-362.78 519.5,-355.75"/>
<polygon fill="midnightblue" stroke="midnightblue" points="516,-382.08 519.5,-392.08 523,-382.08 516,-382.08"/>
</g>
<!-- Node3 -->
<g id="node3" class="node">
<title>Node3</title>
<g id="a_node3"><a xlink:href="renderer__2d_8h.html" target="_top" xlink:title=" ">
<polygon fill="white" stroke="black" points="0,-280.5 0,-299.5 373,-299.5 373,-280.5 0,-280.5"/>
<text text-anchor="middle" x="186.5" y="-287.5" font-family="Helvetica,sans-Serif" font-size="10.00">/home/runner/work/gauri/gauri/gauri/include/gauri/renderer/renderer_2d.h</text>
</a>
</g>
</g>
<!-- Node1&#45;&gt;Node3 -->
<g id="edge14" class="edge">
<title>Node1&#45;&gt;Node3</title>
<path fill="none" stroke="midnightblue" d="M454.55,-390.65C414.39,-383.25 362.15,-371.79 317.5,-356 273.22,-340.34 224.52,-313.37 200.92,-299.61"/>
<polygon fill="midnightblue" stroke="midnightblue" points="454.02,-394.12 464.49,-392.45 455.27,-387.23 454.02,-394.12"/>
</g>
<!-- Node11 -->
<g id="node11" class="node">
<title>Node11</title>
<g id="a_node11"><a xlink:href="scene__camera_8h.html" target="_top" xlink:title=" ">
<polygon fill="white" stroke="black" points="755.5,-168.5 755.5,-187.5 1127.5,-187.5 1127.5,-168.5 755.5,-168.5"/>
<text text-anchor="middle" x="941.5" y="-175.5" font-family="Helvetica,sans-Serif" font-size="10.00">/home/runner/work/gauri/gauri/gauri/include/gauri/scene/scene_camera.h</text>
</a>
</g>
</g>
<!-- Node1&#45;&gt;Node11 -->
<g id="edge15" class="edge">
<title>Node1&#45;&gt;Node11</title>
<path fill="none" stroke="midnightblue" d="M577.74,-390.58C692.77,-368.65 942,-313.93 988.5,-244 1002.23,-223.36 974.14,-200 955.75,-187.68"/>
<polygon fill="midnightblue" stroke="midnightblue" points="576.88,-387.18 567.71,-392.48 578.18,-394.06 576.88,-387.18"/>
</g>
<!-- Node2&#45;&gt;Node3 -->
<g id="edge2" class="edge">
<title>Node2&#45;&gt;Node3</title>
<path fill="none" stroke="midnightblue" d="M456.54,-334.79C393.62,-324.59 297.98,-309.08 239.02,-299.52"/>
<polygon fill="midnightblue" stroke="midnightblue" points="456.3,-338.3 466.74,-336.44 457.42,-331.39 456.3,-338.3"/>
</g>
<!-- Node6 -->
<g id="node6" class="node">
<title>Node6</title>
<g id="a_node6"><a xlink:href="scene_8h.html" target="_top" xlink:title=" ">
<polygon fill="white" stroke="black" points="391.5,-280.5 391.5,-299.5 721.5,-299.5 721.5,-280.5 391.5,-280.5"/>
<text text-anchor="middle" x="556.5" y="-287.5" font-family="Helvetica,sans-Serif" font-size="10.00">/home/runner/work/gauri/gauri/gauri/include/gauri/scene/scene.h</text>
</a>
</g>
</g>
<!-- Node2&#45;&gt;Node6 -->
<g id="edge5" class="edge">
<title>Node2&#45;&gt;Node6</title>
<path fill="none" stroke="midnightblue" d="M531.45,-327.57C537.81,-318.27 545.37,-307.25 550.5,-299.75"/>
<polygon fill="midnightblue" stroke="midnightblue" points="528.37,-325.86 525.61,-336.08 534.15,-329.81 528.37,-325.86"/>
</g>
<!-- Node4 -->
<g id="node4" class="node">
<title>Node4</title>
<g id="a_node4"><a xlink:href="gauri_8h.html" target="_top" xlink:title=" ">
<polygon fill="white" stroke="black" points="129,-56.5 129,-75.5 396,-75.5 396,-56.5 129,-56.5"/>
<text text-anchor="middle" x="262.5" y="-63.5" font-family="Helvetica,sans-Serif" font-size="10.00">/home/runner/work/gauri/gauri/gauri/include/gauri.h</text>
</a>
</g>
</g>
<!-- Node3&#45;&gt;Node4 -->
<g id="edge3" class="edge">
<title>Node3&#45;&gt;Node4</title>
<path fill="none" stroke="midnightblue" d="M184.86,-269.91C182.82,-235.94 182.51,-163.72 210.5,-112 219.02,-96.25 235.41,-83.51 247.52,-75.66"/>
<polygon fill="midnightblue" stroke="midnightblue" points="181.39,-270.52 185.61,-280.23 188.38,-270.01 181.39,-270.52"/>
</g>
<!-- Node5 -->
<g id="node5" class="node">
<title>Node5</title>
<g id="a_node5"><a xlink:href="entry__point_8h.html" target="_top" xlink:title=" ">
<polygon fill="white" stroke="black" points="87.5,-0.5 87.5,-19.5 437.5,-19.5 437.5,-0.5 87.5,-0.5"/>
<text text-anchor="middle" x="262.5" y="-7.5" font-family="Helvetica,sans-Serif" font-size="10.00">/home/runner/work/gauri/gauri/gauri/include/gauri/core/entry_point.h</text>
</a>
</g>
</g>
<!-- Node4&#45;&gt;Node5 -->
<g id="edge4" class="edge">
<title>Node4&#45;&gt;Node5</title>
<path fill="none" stroke="midnightblue" d="M262.5,-45.8C262.5,-36.91 262.5,-26.78 262.5,-19.75"/>
<polygon fill="midnightblue" stroke="midnightblue" points="259,-46.08 262.5,-56.08 266,-46.08 259,-46.08"/>
</g>
<!-- Node6&#45;&gt;Node4 -->
<g id="edge13" class="edge">
<title>Node6&#45;&gt;Node4</title>
<path fill="none" stroke="midnightblue" d="M438.56,-279.52C355.04,-271.58 255.61,-259.12 242.5,-244 199.15,-194 242.25,-103.91 257.56,-75.69"/>
<polygon fill="midnightblue" stroke="midnightblue" points="438.37,-283.02 448.66,-280.47 439.03,-276.05 438.37,-283.02"/>
</g>
<!-- Node7 -->
<g id="node7" class="node">
<title>Node7</title>
<g id="a_node7"><a xlink:href="entity_8h.html" target="_top" xlink:title=" ">
<polygon fill="white" stroke="black" points="252,-224.5 252,-243.5 581,-243.5 581,-224.5 252,-224.5"/>
<text text-anchor="middle" x="416.5" y="-231.5" font-family="Helvetica,sans-Serif" font-size="10.00">/home/runner/work/gauri/gauri/gauri/include/gauri/scene/entity.h</text>
</a>
</g>
</g>
<!-- Node6&#45;&gt;Node7 -->
<g id="edge6" class="edge">
<title>Node6&#45;&gt;Node7</title>
<path fill="none" stroke="midnightblue" d="M524.8,-276.77C498.5,-266.63 461.78,-252.47 438.58,-243.52"/>
<polygon fill="midnightblue" stroke="midnightblue" points="523.73,-280.11 534.32,-280.44 526.25,-273.58 523.73,-280.11"/>
</g>
<!-- Node10 -->
<g id="node10" class="node">
<title>Node10</title>
<g id="a_node10"><a xlink:href="scene__serializer_8h.html" target="_top" xlink:title=" ">
<polygon fill="white" stroke="black" points="599.5,-224.5 599.5,-243.5 979.5,-243.5 979.5,-224.5 599.5,-224.5"/>
<text text-anchor="middle" x="789.5" y="-231.5" font-family="Helvetica,sans-Serif" font-size="10.00">/home/runner/work/gauri/gauri/gauri/include/gauri/scene/scene_serializer.h</text>
</a>
</g>
</g>
<!-- Node6&#45;&gt;Node10 -->
<g id="edge12" class="edge">
<title>Node6&#45;&gt;Node10</title>
<path fill="none" stroke="midnightblue" d="M603.3,-278.15C647.33,-267.95 712.35,-252.88 752.75,-243.52"/>
<polygon fill="midnightblue" stroke="midnightblue" points="602.37,-274.78 593.42,-280.44 603.95,-281.6 602.37,-274.78"/>
</g>
<!-- Node7&#45;&gt;Node4 -->
<g id="edge11" class="edge">
<title>Node7&#45;&gt;Node4</title>
<path fill="none" stroke="midnightblue" d="M335.97,-221.55C315.51,-214.9 295.42,-204.44 281.5,-188 253.34,-154.73 258.1,-97.15 261.11,-75.53"/>
<polygon fill="midnightblue" stroke="midnightblue" points="335.11,-224.95 345.69,-224.43 337.09,-218.24 335.11,-224.95"/>
</g>
<!-- Node8 -->
<g id="node8" class="node">
<title>Node8</title>
<g id="a_node8"><a xlink:href="scriptable__entity_8h.html" target="_top" xlink:title=" ">
<polygon fill="white" stroke="black" points="290.5,-168.5 290.5,-187.5 672.5,-187.5 672.5,-168.5 290.5,-168.5"/>
<text text-anchor="middle" x="481.5" y="-175.5" font-family="Helvetica,sans-Serif" font-size="10.00">/home/runner/work/gauri/gauri/gauri/include/gauri/scene/scriptable_entity.h</text>
</a>
</g>
</g>
<!-- Node7&#45;&gt;Node8 -->
<g id="edge7" class="edge">
<title>Node7&#45;&gt;Node8</title>
<path fill="none" stroke="midnightblue" d="M434.77,-217.82C446.42,-208.15 461.1,-195.95 470.87,-187.83"/>
<polygon fill="midnightblue" stroke="midnightblue" points="432.4,-215.24 426.94,-224.32 436.87,-220.63 432.4,-215.24"/>
</g>
<!-- Node8&#45;&gt;Node4 -->
<g id="edge10" class="edge">
<title>Node8&#45;&gt;Node4</title>
<path fill="none" stroke="midnightblue" d="M409.74,-166.38C380.18,-159.71 346.59,-149.02 319.5,-132 295.86,-117.15 276.48,-89.57 267.65,-75.59"/>
<polygon fill="midnightblue" stroke="midnightblue" points="409.08,-169.82 419.6,-168.49 410.55,-162.97 409.08,-169.82"/>
</g>
<!-- Node9 -->
<g id="node9" class="node">
<title>Node9</title>
<g id="a_node9"><a xlink:href="component_8h.html" target="_top" xlink:title=" ">
<polygon fill="white" stroke="black" points="328.5,-112.5 328.5,-131.5 684.5,-131.5 684.5,-112.5 328.5,-112.5"/>
<text text-anchor="middle" x="506.5" y="-119.5" font-family="Helvetica,sans-Serif" font-size="10.00">/home/runner/work/gauri/gauri/gauri/include/gauri/scene/component.h</text>
</a>
</g>
</g>
<!-- Node8&#45;&gt;Node9 -->
<g id="edge8" class="edge">
<title>Node8&#45;&gt;Node9</title>
<path fill="none" stroke="midnightblue" d="M489.84,-158.98C494.08,-149.82 499.05,-139.09 502.45,-131.75"/>
<polygon fill="midnightblue" stroke="midnightblue" points="486.65,-157.54 485.63,-168.08 493.01,-160.48 486.65,-157.54"/>
</g>
<!-- Node9&#45;&gt;Node4 -->
<g id="edge9" class="edge">
<title>Node9&#45;&gt;Node4</title>
<path fill="none" stroke="midnightblue" d="M458.07,-110.28C411.96,-100.08 343.47,-84.92 300.98,-75.52"/>
<polygon fill="midnightblue" stroke="midnightblue" points="457.32,-113.7 467.84,-112.44 458.83,-106.87 457.32,-113.7"/>
</g>
<!-- Node11&#45;&gt;Node9 -->
<g id="edge16" class="edge">
<title>Node11&#45;&gt;Node9</title>
<path fill="none" stroke="midnightblue" d="M862.54,-167.2C780.42,-157 653.16,-141.21 575.1,-131.52"/>
<polygon fill="midnightblue" stroke="midnightblue" points="862.22,-170.68 872.57,-168.44 863.08,-163.74 862.22,-170.68"/>
</g>
</g>
</svg>
