<?xml version="1.0" encoding="UTF-8" standalone="no"?>
<!DOCTYPE svg PUBLIC "-//W3C//DTD SVG 1.1//EN"
 "http://www.w3.org/Graphics/SVG/1.1/DTD/svg11.dtd">
<!-- Generated by graphviz version 2.43.0 (0)
 -->
<!-- Title: gauri::OpenGLVertexBuffer Pages: 1 -->
<svg width="1081pt" height="779pt"
 viewBox="0.00 0.00 1081.00 779.00" xmlns="http://www.w3.org/2000/svg" xmlns:xlink="http://www.w3.org/1999/xlink">
<g id="graph0" class="graph" transform="scale(1 1) rotate(0) translate(4 775)">
<title>gauri::OpenGLVertexBuffer</title>
<polygon fill="white" stroke="transparent" points="-4,4 -4,-775 1077,-775 1077,4 -4,4"/>
<!-- Node1 -->
<g id="node1" class="node">
<title>Node1</title>
<g id="a_node1"><a xlink:title=" ">
<polygon fill="#bfbfbf" stroke="black" points="221,-0.5 221,-134.5 511,-134.5 511,-0.5 221,-0.5"/>
<text text-anchor="middle" x="366" y="-122.5" font-family="Helvetica,sans-Serif" font-size="10.00">gauri::OpenGLVertexBuffer</text>
<polyline fill="none" stroke="black" points="221,-115.5 511,-115.5 "/>
<text text-anchor="middle" x="366" y="-103.5" font-family="Helvetica,sans-Serif" font-size="10.00"> </text>
<polyline fill="none" stroke="black" points="221,-96.5 511,-96.5 "/>
<text text-anchor="start" x="229" y="-84.5" font-family="Helvetica,sans-Serif" font-size="10.00">+ OpenGLVertexBuffer(uint32_t size)</text>
<text text-anchor="start" x="229" y="-73.5" font-family="Helvetica,sans-Serif" font-size="10.00">+ OpenGLVertexBuffer(float *vertices, uint32_t size)</text>
<text text-anchor="start" x="229" y="-62.5" font-family="Helvetica,sans-Serif" font-size="10.00">+ ~OpenGLVertexBuffer() override</text>
<text text-anchor="start" x="229" y="-51.5" font-family="Helvetica,sans-Serif" font-size="10.00">+ void Bind() const override</text>
<text text-anchor="start" x="229" y="-40.5" font-family="Helvetica,sans-Serif" font-size="10.00">+ void Unbind() const override</text>
<text text-anchor="start" x="229" y="-29.5" font-family="Helvetica,sans-Serif" font-size="10.00">+ void SetData(const void *data, uint32_t size) override</text>
<text text-anchor="start" x="229" y="-18.5" font-family="Helvetica,sans-Serif" font-size="10.00">+ void SetLayout(const BufferLayout &amp;layout) override</text>
<text text-anchor="start" x="229" y="-7.5" font-family="Helvetica,sans-Serif" font-size="10.00">+ const BufferLayout &amp; GetLayout() const override</text>
</a>
</g>
</g>
<!-- Node2 -->
<g id="node2" class="node">
<title>Node2</title>
<g id="a_node2"><a xlink:href="classgauri_1_1VertexBuffer.html" target="_top" xlink:title=" ">
<polygon fill="white" stroke="black" points="0,-188 0,-322 338,-322 338,-188 0,-188"/>
<text text-anchor="middle" x="169" y="-310" font-family="Helvetica,sans-Serif" font-size="10.00">gauri::VertexBuffer</text>
<polyline fill="none" stroke="black" points="0,-303 338,-303 "/>
<text text-anchor="middle" x="169" y="-291" font-family="Helvetica,sans-Serif" font-size="10.00"> </text>
<polyline fill="none" stroke="black" points="0,-284 338,-284 "/>
<text text-anchor="start" x="8" y="-272" font-family="Helvetica,sans-Serif" font-size="10.00">+ virtual ~VertexBuffer()=default</text>
<text text-anchor="start" x="8" y="-261" font-family="Helvetica,sans-Serif" font-size="10.00">+ virtual void Bind() const =0</text>
<text text-anchor="start" x="8" y="-250" font-family="Helvetica,sans-Serif" font-size="10.00">+ virtual void Unbind() const =0</text>
<text text-anchor="start" x="8" y="-239" font-family="Helvetica,sans-Serif" font-size="10.00">+ virtual void SetData(const void *data, uint32_t size)=0</text>
<text text-anchor="start" x="8" y="-228" font-family="Helvetica,sans-Serif" font-size="10.00">+ virtual const BufferLayout &amp; GetLayout() const =0</text>
<text text-anchor="start" x="8" y="-217" font-family="Helvetica,sans-Serif" font-size="10.00">+ virtual void SetLayout(const BufferLayout &amp;layout)=0</text>
<text text-anchor="start" x="8" y="-206" font-family="Helvetica,sans-Serif" font-size="10.00">+ static Ref&lt; VertexBuffer &gt; Create(uint32_t size)</text>
<text text-anchor="start" x="8" y="-195" font-family="Helvetica,sans-Serif" font-size="10.00">+ static Ref&lt; VertexBuffer &gt; Create(float *vertices, uint32_t size)</text>
</a>
</g>
</g>
<!-- Node2&#45;&gt;Node1 -->
<g id="edge1" class="edge">
<title>Node2&#45;&gt;Node1</title>
<path fill="none" stroke="midnightblue" d="M246.66,-180.87C262.86,-165.62 279.83,-149.64 295.74,-134.66"/>
<polygon fill="none" stroke="midnightblue" points="244.17,-178.41 239.29,-187.82 248.97,-183.51 244.17,-178.41"/>
</g>
<!-- Node3 -->
<g id="node3" class="node">
<title>Node3</title>
<g id="a_node3"><a xlink:href="classgauri_1_1BufferLayout.html" target="_top" xlink:title=" ">
<polygon fill="white" stroke="black" points="394,-182.5 394,-327.5 756,-327.5 756,-182.5 394,-182.5"/>
<text text-anchor="middle" x="575" y="-315.5" font-family="Helvetica,sans-Serif" font-size="10.00">gauri::BufferLayout</text>
<polyline fill="none" stroke="black" points="394,-308.5 756,-308.5 "/>
<text text-anchor="middle" x="575" y="-296.5" font-family="Helvetica,sans-Serif" font-size="10.00"> </text>
<polyline fill="none" stroke="black" points="394,-289.5 756,-289.5 "/>
<text text-anchor="start" x="402" y="-277.5" font-family="Helvetica,sans-Serif" font-size="10.00">+ BufferLayout()=default</text>
<text text-anchor="start" x="402" y="-266.5" font-family="Helvetica,sans-Serif" font-size="10.00">+ BufferLayout(const std::initializer_list&lt; BufferElement &gt; &amp;elements)</text>
<text text-anchor="start" x="402" y="-255.5" font-family="Helvetica,sans-Serif" font-size="10.00">+ uint32_t GetStride() const</text>
<text text-anchor="start" x="402" y="-244.5" font-family="Helvetica,sans-Serif" font-size="10.00">+ const std::vector&lt; BufferElement &gt; &amp; GetElements() const</text>
<text text-anchor="start" x="402" y="-233.5" font-family="Helvetica,sans-Serif" font-size="10.00">+ std::vector&lt; BufferElement &gt;::iterator begin()</text>
<text text-anchor="start" x="402" y="-222.5" font-family="Helvetica,sans-Serif" font-size="10.00">+ std::vector&lt; BufferElement &gt;::iterator end()</text>
<text text-anchor="start" x="402" y="-211.5" font-family="Helvetica,sans-Serif" font-size="10.00">+ std::vector&lt; BufferElement &gt;::const_iterator begin() const</text>
<text text-anchor="start" x="402" y="-200.5" font-family="Helvetica,sans-Serif" font-size="10.00">+ std::vector&lt; BufferElement &gt;::const_iterator end() const</text>
<text text-anchor="start" x="402" y="-189.5" font-family="Helvetica,sans-Serif" font-size="10.00">&#45; void CalculateOffsetAndStride()</text>
</a>
</g>
</g>
<!-- Node3&#45;&gt;Node1 -->
<g id="edge2" class="edge">
<title>Node3&#45;&gt;Node1</title>
<path fill="none" stroke="#404040" d="M494.2,-182.28C479.55,-169.28 464.24,-155.69 449.52,-142.62"/>
<polygon fill="none" stroke="#404040" points="449.41,-142.53 442.27,-141.54 440.43,-134.56 447.58,-135.55 449.41,-142.53"/>
<text text-anchor="middle" x="498.5" y="-156" font-family="Helvetica,sans-Serif" font-size="10.00"> &#45;m_Layout</text>
</g>
<!-- Node4 -->
<g id="node4" class="node">
<title>Node4</title>
<g id="a_node4"><a xlink:title=" ">
<polygon fill="white" stroke="#bfbfbf" points="443,-618.5 443,-675.5 499,-675.5 499,-618.5 443,-618.5"/>
<text text-anchor="middle" x="471" y="-663.5" font-family="Helvetica,sans-Serif" font-size="10.00">uint32_t</text>
<polyline fill="none" stroke="#bfbfbf" points="443,-656.5 499,-656.5 "/>
<text text-anchor="middle" x="471" y="-644.5" font-family="Helvetica,sans-Serif" font-size="10.00"> </text>
<polyline fill="none" stroke="#bfbfbf" points="443,-637.5 499,-637.5 "/>
<text text-anchor="middle" x="471" y="-625.5" font-family="Helvetica,sans-Serif" font-size="10.00"> </text>
</a>
</g>
</g>
<!-- Node4&#45;&gt;Node1 -->
<g id="edge13" class="edge">
<title>Node4&#45;&gt;Node1</title>
<path fill="none" stroke="#404040" d="M442.86,-629.1C411.76,-608.03 366,-568.9 366,-521 366,-521 366,-521 366,-254 366,-218.88 366,-180.01 366,-146.97"/>
<polygon fill="none" stroke="#404040" points="366,-146.61 362,-140.61 366,-134.61 370,-140.61 366,-146.61"/>
<text text-anchor="middle" x="404.5" y="-401.5" font-family="Helvetica,sans-Serif" font-size="10.00"> &#45;m_RendererID</text>
</g>
<!-- Node4&#45;&gt;Node3 -->
<g id="edge3" class="edge">
<title>Node4&#45;&gt;Node3</title>
<path fill="none" stroke="#404040" d="M472.07,-618.32C473.83,-585.06 478.39,-527.78 490,-480 501.65,-432.05 520.75,-380.44 537.9,-338.86"/>
<polygon fill="none" stroke="#404040" points="537.94,-338.76 536.56,-331.69 542.56,-327.69 543.94,-334.77 537.94,-338.76"/>
<text text-anchor="middle" x="523.5" y="-454" font-family="Helvetica,sans-Serif" font-size="10.00"> &#45;m_Stride</text>
</g>
<!-- Node6 -->
<g id="node6" class="node">
<title>Node6</title>
<g id="a_node6"><a xlink:href="structgauri_1_1BufferElement.html" target="_top" xlink:title=" ">
<polygon fill="white" stroke="black" points="499.5,-480.5 499.5,-559.5 948.5,-559.5 948.5,-480.5 499.5,-480.5"/>
<text text-anchor="middle" x="724" y="-547.5" font-family="Helvetica,sans-Serif" font-size="10.00">gauri::BufferElement</text>
<polyline fill="none" stroke="black" points="499.5,-540.5 948.5,-540.5 "/>
<text text-anchor="middle" x="724" y="-528.5" font-family="Helvetica,sans-Serif" font-size="10.00"> </text>
<polyline fill="none" stroke="black" points="499.5,-521.5 948.5,-521.5 "/>
<text text-anchor="start" x="507.5" y="-509.5" font-family="Helvetica,sans-Serif" font-size="10.00">+ BufferElement()=default</text>
<text text-anchor="start" x="507.5" y="-498.5" font-family="Helvetica,sans-Serif" font-size="10.00">+ BufferElement(ShaderDataType type, const std::string &amp;name, bool normalized=false)</text>
<text text-anchor="start" x="507.5" y="-487.5" font-family="Helvetica,sans-Serif" font-size="10.00">+ uint32_t GetComponentCount() const</text>
</a>
</g>
</g>
<!-- Node4&#45;&gt;Node6 -->
<g id="edge7" class="edge">
<title>Node4&#45;&gt;Node6</title>
<path fill="none" stroke="#404040" d="M499.04,-632.15C531.69,-616.02 587.22,-588.58 634.95,-565"/>
<polygon fill="none" stroke="#404040" points="635.18,-564.88 638.79,-558.64 645.94,-559.57 642.33,-565.81 635.18,-564.88"/>
<text text-anchor="middle" x="626.5" y="-592" font-family="Helvetica,sans-Serif" font-size="10.00"> +Offset</text>
<text text-anchor="middle" x="626.5" y="-581" font-family="Helvetica,sans-Serif" font-size="10.00">+Size</text>
</g>
<!-- Node5 -->
<g id="node5" class="node">
<title>Node5</title>
<g id="a_node5"><a xlink:title=" ">
<polygon fill="white" stroke="#bfbfbf" points="628.5,-375.5 628.5,-432.5 819.5,-432.5 819.5,-375.5 628.5,-375.5"/>
<text text-anchor="middle" x="724" y="-420.5" font-family="Helvetica,sans-Serif" font-size="10.00">std::vector&lt; gauri::BufferElement &gt;</text>
<polyline fill="none" stroke="#bfbfbf" points="628.5,-413.5 819.5,-413.5 "/>
<text text-anchor="middle" x="724" y="-401.5" font-family="Helvetica,sans-Serif" font-size="10.00"> </text>
<polyline fill="none" stroke="#bfbfbf" points="628.5,-394.5 819.5,-394.5 "/>
<text text-anchor="middle" x="724" y="-382.5" font-family="Helvetica,sans-Serif" font-size="10.00"> </text>
</a>
</g>
</g>
<!-- Node5&#45;&gt;Node3 -->
<g id="edge4" class="edge">
<title>Node5&#45;&gt;Node3</title>
<path fill="none" stroke="#404040" d="M695.97,-375.35C684.53,-364.06 670.64,-350.35 656.41,-336.32"/>
<polygon fill="none" stroke="#404040" points="656.07,-335.98 648.99,-334.62 647.53,-327.56 654.61,-328.92 656.07,-335.98"/>
<text text-anchor="middle" x="710" y="-349" font-family="Helvetica,sans-Serif" font-size="10.00"> &#45;m_Elements</text>
</g>
<!-- Node6&#45;&gt;Node5 -->
<g id="edge5" class="edge">
<title>Node6&#45;&gt;Node5</title>
<path fill="none" stroke="#404040" d="M724,-480.4C724,-468.93 724,-456.33 724,-444.78"/>
<polygon fill="none" stroke="#404040" points="724,-444.75 720,-438.75 724,-432.75 728,-438.75 724,-444.75"/>
<text text-anchor="middle" x="753" y="-454" font-family="Helvetica,sans-Serif" font-size="10.00"> +elements</text>
</g>
<!-- Node7 -->
<g id="node7" class="node">
<title>Node7</title>
<g id="a_node7"><a xlink:title=" ">
<polygon fill="white" stroke="#bfbfbf" points="591,-618.5 591,-675.5 687,-675.5 687,-618.5 591,-618.5"/>
<text text-anchor="middle" x="639" y="-663.5" font-family="Helvetica,sans-Serif" font-size="10.00">ShaderDataType</text>
<polyline fill="none" stroke="#bfbfbf" points="591,-656.5 687,-656.5 "/>
<text text-anchor="middle" x="639" y="-644.5" font-family="Helvetica,sans-Serif" font-size="10.00"> </text>
<polyline fill="none" stroke="#bfbfbf" points="591,-637.5 687,-637.5 "/>
<text text-anchor="middle" x="639" y="-625.5" font-family="Helvetica,sans-Serif" font-size="10.00"> </text>
</a>
</g>
</g>
<!-- Node7&#45;&gt;Node6 -->
<g id="edge6" class="edge">
<title>Node7&#45;&gt;Node6</title>
<path fill="none" stroke="#404040" d="M657.86,-618.26C667.59,-603.96 679.72,-586.11 690.94,-569.62"/>
<polygon fill="none" stroke="#404040" points="691.03,-569.49 691.09,-562.28 697.77,-559.57 697.71,-566.78 691.03,-569.49"/>
<text text-anchor="middle" x="702" y="-586.5" font-family="Helvetica,sans-Serif" font-size="10.00"> +Type</text>
</g>
<!-- Node8 -->
<g id="node8" class="node">
<title>Node8</title>
<g id="a_node8"><a xlink:title=" ">
<polygon fill="white" stroke="#bfbfbf" points="705,-618.5 705,-675.5 743,-675.5 743,-618.5 705,-618.5"/>
<text text-anchor="middle" x="724" y="-663.5" font-family="Helvetica,sans-Serif" font-size="10.00">bool</text>
<polyline fill="none" stroke="#bfbfbf" points="705,-656.5 743,-656.5 "/>
<text text-anchor="middle" x="724" y="-644.5" font-family="Helvetica,sans-Serif" font-size="10.00"> </text>
<polyline fill="none" stroke="#bfbfbf" points="705,-637.5 743,-637.5 "/>
<text text-anchor="middle" x="724" y="-625.5" font-family="Helvetica,sans-Serif" font-size="10.00"> </text>
</a>
</g>
</g>
<!-- Node8&#45;&gt;Node6 -->
<g id="edge8" class="edge">
<title>Node8&#45;&gt;Node6</title>
<path fill="none" stroke="#404040" d="M724,-618.26C724,-604.64 724,-587.79 724,-571.96"/>
<polygon fill="none" stroke="#404040" points="724,-571.57 720,-565.57 724,-559.57 728,-565.57 724,-571.57"/>
<text text-anchor="middle" x="758" y="-586.5" font-family="Helvetica,sans-Serif" font-size="10.00"> +Normalized</text>
</g>
<!-- Node9 -->
<g id="node9" class="node">
<title>Node9</title>
<g id="a_node9"><a xlink:title=" ">
<polygon fill="white" stroke="#bfbfbf" points="782.5,-618.5 782.5,-675.5 847.5,-675.5 847.5,-618.5 782.5,-618.5"/>
<text text-anchor="middle" x="815" y="-663.5" font-family="Helvetica,sans-Serif" font-size="10.00">std::string</text>
<polyline fill="none" stroke="#bfbfbf" points="782.5,-656.5 847.5,-656.5 "/>
<text text-anchor="middle" x="815" y="-644.5" font-family="Helvetica,sans-Serif" font-size="10.00"> </text>
<polyline fill="none" stroke="#bfbfbf" points="782.5,-637.5 847.5,-637.5 "/>
<text text-anchor="middle" x="815" y="-625.5" font-family="Helvetica,sans-Serif" font-size="10.00"> </text>
</a>
</g>
</g>
<!-- Node9&#45;&gt;Node6 -->
<g id="edge9" class="edge">
<title>Node9&#45;&gt;Node6</title>
<path fill="none" stroke="#404040" d="M809.8,-618.25C806.45,-605.25 801.16,-590.01 793,-578 790.77,-574.72 788.31,-571.53 785.67,-568.44"/>
<polygon fill="none" stroke="#404040" points="785.51,-568.27 778.49,-566.62 777.31,-559.5 784.33,-561.16 785.51,-568.27"/>
<text text-anchor="middle" x="824.5" y="-586.5" font-family="Helvetica,sans-Serif" font-size="10.00"> +Name</text>
</g>
<!-- Node10 -->
<g id="node10" class="node">
<title>Node10</title>
<g id="a_node10"><a xlink:title=" ">
<polygon fill="white" stroke="#bfbfbf" points="744.5,-713.5 744.5,-770.5 885.5,-770.5 885.5,-713.5 744.5,-713.5"/>
<text text-anchor="middle" x="815" y="-758.5" font-family="Helvetica,sans-Serif" font-size="10.00">std::basic_string&lt; Char &gt;</text>
<polyline fill="none" stroke="#bfbfbf" points="744.5,-751.5 885.5,-751.5 "/>
<text text-anchor="middle" x="815" y="-739.5" font-family="Helvetica,sans-Serif" font-size="10.00"> </text>
<polyline fill="none" stroke="#bfbfbf" points="744.5,-732.5 885.5,-732.5 "/>
<text text-anchor="middle" x="815" y="-720.5" font-family="Helvetica,sans-Serif" font-size="10.00"> </text>
</a>
</g>
</g>
<!-- Node10&#45;&gt;Node9 -->
<g id="edge10" class="edge">
<title>Node10&#45;&gt;Node9</title>
<path fill="none" stroke="midnightblue" d="M815,-703.24C815,-694.03 815,-684.35 815,-675.71"/>
<polygon fill="none" stroke="midnightblue" points="811.5,-703.35 815,-713.35 818.5,-703.35 811.5,-703.35"/>
</g>
<!-- Node11 -->
<g id="node11" class="node">
<title>Node11</title>
<g id="a_node11"><a xlink:title=" ">
<polygon fill="white" stroke="#bfbfbf" points="966.5,-491.5 966.5,-548.5 1063.5,-548.5 1063.5,-491.5 966.5,-491.5"/>
<text text-anchor="middle" x="1015" y="-536.5" font-family="Helvetica,sans-Serif" font-size="10.00">std::vector&lt; T &gt;</text>
<polyline fill="none" stroke="#bfbfbf" points="966.5,-529.5 1063.5,-529.5 "/>
<text text-anchor="middle" x="1015" y="-517.5" font-family="Helvetica,sans-Serif" font-size="10.00"> </text>
<polyline fill="none" stroke="#bfbfbf" points="966.5,-510.5 1063.5,-510.5 "/>
<text text-anchor="middle" x="1015" y="-498.5" font-family="Helvetica,sans-Serif" font-size="10.00"> </text>
</a>
</g>
</g>
<!-- Node11&#45;&gt;Node5 -->
<g id="edge11" class="edge">
<title>Node11&#45;&gt;Node5</title>
<path fill="none" stroke="orange" d="M969.29,-486.09C965.55,-483.9 961.76,-481.84 958,-480 914.22,-458.58 862.91,-441.34 819.51,-428.81"/>
<polygon fill="orange" stroke="orange" points="967.56,-489.13 977.91,-491.38 971.23,-483.17 967.56,-489.13"/>
<text text-anchor="middle" x="978.5" y="-454" font-family="Helvetica,sans-Serif" font-size="10.00"> &lt; gauri::BufferElement &gt;</text>
</g>
<!-- Node12 -->
<g id="node12" class="node">
<title>Node12</title>
<g id="a_node12"><a xlink:title=" ">
<polygon fill="white" stroke="#bfbfbf" points="1000.5,-618.5 1000.5,-675.5 1029.5,-675.5 1029.5,-618.5 1000.5,-618.5"/>
<text text-anchor="middle" x="1015" y="-663.5" font-family="Helvetica,sans-Serif" font-size="10.00">T</text>
<polyline fill="none" stroke="#bfbfbf" points="1000.5,-656.5 1029.5,-656.5 "/>
<text text-anchor="middle" x="1015" y="-644.5" font-family="Helvetica,sans-Serif" font-size="10.00"> </text>
<polyline fill="none" stroke="#bfbfbf" points="1000.5,-637.5 1029.5,-637.5 "/>
<text text-anchor="middle" x="1015" y="-625.5" font-family="Helvetica,sans-Serif" font-size="10.00"> </text>
</a>
</g>
</g>
<!-- Node12&#45;&gt;Node11 -->
<g id="edge12" class="edge">
<title>Node12&#45;&gt;Node11</title>
<path fill="none" stroke="#404040" d="M1015,-618.26C1015,-601.35 1015,-579.46 1015,-560.73"/>
<polygon fill="none" stroke="#404040" points="1015,-560.66 1011,-554.66 1015,-548.66 1019,-554.66 1015,-560.66"/>
<text text-anchor="middle" x="1044" y="-586.5" font-family="Helvetica,sans-Serif" font-size="10.00"> +elements</text>
</g>
</g>
</svg>
