<?xml version="1.0" encoding="UTF-8" standalone="no"?>
<!DOCTYPE svg PUBLIC "-//W3C//DTD SVG 1.1//EN"
 "http://www.w3.org/Graphics/SVG/1.1/DTD/svg11.dtd">
<!-- Generated by graphviz version 2.43.0 (0)
 -->
<!-- Title: gauri::OpenGLShader Pages: 1 -->
<svg width="828pt" height="606pt"
 viewBox="0.00 0.00 827.88 606.00" xmlns="http://www.w3.org/2000/svg" xmlns:xlink="http://www.w3.org/1999/xlink">
<g id="graph0" class="graph" transform="scale(1 1) rotate(0) translate(4 602)">
<title>gauri::OpenGLShader</title>
<polygon fill="white" stroke="transparent" points="-4,4 -4,-602 823.88,-602 823.88,4 -4,4"/>
<!-- Node1 -->
<g id="node1" class="node">
<title>Node1</title>
<g id="a_node1"><a xlink:title=" ">
<polygon fill="#bfbfbf" stroke="black" points="146.88,-0.5 146.88,-277.5 665.88,-277.5 665.88,-0.5 146.88,-0.5"/>
<text text-anchor="middle" x="406.38" y="-265.5" font-family="Helvetica,sans-Serif" font-size="10.00">gauri::OpenGLShader</text>
<polyline fill="none" stroke="black" points="146.88,-258.5 665.88,-258.5 "/>
<text text-anchor="middle" x="406.38" y="-246.5" font-family="Helvetica,sans-Serif" font-size="10.00"> </text>
<polyline fill="none" stroke="black" points="146.88,-239.5 665.88,-239.5 "/>
<text text-anchor="start" x="154.88" y="-227.5" font-family="Helvetica,sans-Serif" font-size="10.00">+ OpenGLShader(const std::string &amp;filepath)</text>
<text text-anchor="start" x="154.88" y="-216.5" font-family="Helvetica,sans-Serif" font-size="10.00">+ OpenGLShader(const std::string &amp;name, const std::string &amp;vertexSrc, const std::string &amp;fragmentSrc)</text>
<text text-anchor="start" x="154.88" y="-205.5" font-family="Helvetica,sans-Serif" font-size="10.00">+ ~OpenGLShader() override</text>
<text text-anchor="start" x="154.88" y="-194.5" font-family="Helvetica,sans-Serif" font-size="10.00">+ void Bind() const override</text>
<text text-anchor="start" x="154.88" y="-183.5" font-family="Helvetica,sans-Serif" font-size="10.00">+ void Unbind() const override</text>
<text text-anchor="start" x="154.88" y="-172.5" font-family="Helvetica,sans-Serif" font-size="10.00">+ void SetInt(const std::string &amp;name, int value) override</text>
<text text-anchor="start" x="154.88" y="-161.5" font-family="Helvetica,sans-Serif" font-size="10.00">+ void SetFloat(const std::string &amp;name, float value) override</text>
<text text-anchor="start" x="154.88" y="-150.5" font-family="Helvetica,sans-Serif" font-size="10.00">+ void SetFloat3(const std::string &amp;name, const glm::vec3 &amp;value) override</text>
<text text-anchor="start" x="154.88" y="-139.5" font-family="Helvetica,sans-Serif" font-size="10.00">+ void SetFloat4(const std::string &amp;name, const glm::vec4 &amp;value) override</text>
<text text-anchor="start" x="154.88" y="-128.5" font-family="Helvetica,sans-Serif" font-size="10.00">+ void SetMat4(const std::string &amp;name, const glm::mat4 &amp;value) override</text>
<text text-anchor="start" x="154.88" y="-117.5" font-family="Helvetica,sans-Serif" font-size="10.00">+ const std::string &amp; GetName() const override</text>
<text text-anchor="start" x="154.88" y="-106.5" font-family="Helvetica,sans-Serif" font-size="10.00">+ void UploadUniformInt(const std::string &amp;name, int value)</text>
<text text-anchor="start" x="154.88" y="-95.5" font-family="Helvetica,sans-Serif" font-size="10.00">+ void UploadUniformFloat(const std::string &amp;name, float value)</text>
<text text-anchor="start" x="154.88" y="-84.5" font-family="Helvetica,sans-Serif" font-size="10.00">+ void UploadUniformFloat2(const std::string &amp;name, const glm::vec2 &amp;values)</text>
<text text-anchor="start" x="154.88" y="-73.5" font-family="Helvetica,sans-Serif" font-size="10.00">+ void UploadUniformFloat3(const std::string &amp;name, const glm::vec3 &amp;values)</text>
<text text-anchor="start" x="154.88" y="-62.5" font-family="Helvetica,sans-Serif" font-size="10.00">+ void UploadUniformFloat4(const std::string &amp;name, const glm::vec4 &amp;values)</text>
<text text-anchor="start" x="154.88" y="-51.5" font-family="Helvetica,sans-Serif" font-size="10.00">+ void UploadUniformMat3(const std::string &amp;name, const glm::mat3 &amp;matrix)</text>
<text text-anchor="start" x="154.88" y="-40.5" font-family="Helvetica,sans-Serif" font-size="10.00">+ void UploadUniformMat4(const std::string &amp;name, const glm::mat4 &amp;matrix)</text>
<text text-anchor="start" x="154.88" y="-29.5" font-family="Helvetica,sans-Serif" font-size="10.00">&#45; std::string ReadFile(const std::string &amp;filepath)</text>
<text text-anchor="start" x="154.88" y="-18.5" font-family="Helvetica,sans-Serif" font-size="10.00">&#45; std::unordered_map&lt; GLenum, std::string &gt; PreProcess(const std::string &amp;source)</text>
<text text-anchor="start" x="154.88" y="-7.5" font-family="Helvetica,sans-Serif" font-size="10.00">&#45; void Compile(const std::unordered_map&lt; GLenum, std::string &gt; &amp;shaderSources)</text>
</a>
</g>
</g>
<!-- Node2 -->
<g id="node2" class="node">
<title>Node2</title>
<g id="a_node2"><a xlink:href="classgauri_1_1Shader.html" target="_top" xlink:title=" ">
<polygon fill="white" stroke="black" points="113.88,-325.5 113.88,-492.5 698.88,-492.5 698.88,-325.5 113.88,-325.5"/>
<text text-anchor="middle" x="406.38" y="-480.5" font-family="Helvetica,sans-Serif" font-size="10.00">gauri::Shader</text>
<polyline fill="none" stroke="black" points="113.88,-473.5 698.88,-473.5 "/>
<text text-anchor="middle" x="406.38" y="-461.5" font-family="Helvetica,sans-Serif" font-size="10.00"> </text>
<polyline fill="none" stroke="black" points="113.88,-454.5 698.88,-454.5 "/>
<text text-anchor="start" x="121.88" y="-442.5" font-family="Helvetica,sans-Serif" font-size="10.00">+ virtual ~Shader()=default</text>
<text text-anchor="start" x="121.88" y="-431.5" font-family="Helvetica,sans-Serif" font-size="10.00">+ virtual void Bind() const =0</text>
<text text-anchor="start" x="121.88" y="-420.5" font-family="Helvetica,sans-Serif" font-size="10.00">+ virtual void Unbind() const =0</text>
<text text-anchor="start" x="121.88" y="-409.5" font-family="Helvetica,sans-Serif" font-size="10.00">+ virtual void SetInt(const std::string &amp;name, int value)=0</text>
<text text-anchor="start" x="121.88" y="-398.5" font-family="Helvetica,sans-Serif" font-size="10.00">+ virtual void SetFloat(const std::string &amp;name, float value)=0</text>
<text text-anchor="start" x="121.88" y="-387.5" font-family="Helvetica,sans-Serif" font-size="10.00">+ virtual void SetFloat3(const std::string &amp;name, const glm::vec3 &amp;value)=0</text>
<text text-anchor="start" x="121.88" y="-376.5" font-family="Helvetica,sans-Serif" font-size="10.00">+ virtual void SetFloat4(const std::string &amp;name, const glm::vec4 &amp;value)=0</text>
<text text-anchor="start" x="121.88" y="-365.5" font-family="Helvetica,sans-Serif" font-size="10.00">+ virtual void SetMat4(const std::string &amp;name, const glm::mat4 &amp;value)=0</text>
<text text-anchor="start" x="121.88" y="-354.5" font-family="Helvetica,sans-Serif" font-size="10.00">+ virtual const std::string &amp; GetName() const =0</text>
<text text-anchor="start" x="121.88" y="-343.5" font-family="Helvetica,sans-Serif" font-size="10.00">+ static Ref&lt; Shader &gt; Create(const std::string &amp;filepath)</text>
<text text-anchor="start" x="121.88" y="-332.5" font-family="Helvetica,sans-Serif" font-size="10.00">+ static Ref&lt; Shader &gt; Create(const std::string &amp;name, const std::string &amp;vertexSrc, const std::string &amp;fragmentSrc)</text>
</a>
</g>
</g>
<!-- Node2&#45;&gt;Node1 -->
<g id="edge1" class="edge">
<title>Node2&#45;&gt;Node1</title>
<path fill="none" stroke="midnightblue" d="M406.38,-315.27C406.38,-303.06 406.38,-290.33 406.38,-277.57"/>
<polygon fill="none" stroke="midnightblue" points="402.88,-315.4 406.38,-325.4 409.88,-315.4 402.88,-315.4"/>
</g>
<!-- Node3 -->
<g id="node3" class="node">
<title>Node3</title>
<g id="a_node3"><a xlink:title=" ">
<polygon fill="white" stroke="#bfbfbf" points="96.38,-540.5 96.38,-597.5 152.38,-597.5 152.38,-540.5 96.38,-540.5"/>
<text text-anchor="middle" x="124.38" y="-585.5" font-family="Helvetica,sans-Serif" font-size="10.00">uint32_t</text>
<polyline fill="none" stroke="#bfbfbf" points="96.38,-578.5 152.38,-578.5 "/>
<text text-anchor="middle" x="124.38" y="-566.5" font-family="Helvetica,sans-Serif" font-size="10.00"> </text>
<polyline fill="none" stroke="#bfbfbf" points="96.38,-559.5 152.38,-559.5 "/>
<text text-anchor="middle" x="124.38" y="-547.5" font-family="Helvetica,sans-Serif" font-size="10.00"> </text>
</a>
</g>
</g>
<!-- Node3&#45;&gt;Node1 -->
<g id="edge3" class="edge">
<title>Node3&#45;&gt;Node1</title>
<path fill="none" stroke="#404040" d="M95.96,-555.06C72.75,-542.76 41.54,-521.85 27.38,-493 -5.52,-425.97 -12.18,-388.33 27.38,-325 53.77,-282.74 92.91,-249.88 136.16,-224.4"/>
<polygon fill="none" stroke="#404040" points="136.22,-224.37 139.44,-217.92 146.63,-218.42 143.41,-224.87 136.22,-224.37"/>
<text text-anchor="middle" x="65.88" y="-406.5" font-family="Helvetica,sans-Serif" font-size="10.00"> &#45;m_RendererID</text>
</g>
<!-- Node3&#45;&gt;Node2 -->
<g id="edge2" class="edge">
<title>Node3&#45;&gt;Node2</title>
<path fill="none" stroke="#404040" d="M152.45,-552.27C175.88,-539.14 211.32,-519.29 248.35,-498.54"/>
<polygon fill="none" stroke="#404040" points="248.36,-498.54 251.63,-492.12 258.82,-492.67 255.54,-499.1 248.36,-498.54"/>
<text text-anchor="middle" x="262.88" y="-514" font-family="Helvetica,sans-Serif" font-size="10.00"> &#45;m_RendererID</text>
</g>
<!-- Node4 -->
<g id="node4" class="node">
<title>Node4</title>
<g id="a_node4"><a xlink:title=" ">
<polygon fill="white" stroke="#bfbfbf" points="716.88,-380.5 716.88,-437.5 781.88,-437.5 781.88,-380.5 716.88,-380.5"/>
<text text-anchor="middle" x="749.38" y="-425.5" font-family="Helvetica,sans-Serif" font-size="10.00">std::string</text>
<polyline fill="none" stroke="#bfbfbf" points="716.88,-418.5 781.88,-418.5 "/>
<text text-anchor="middle" x="749.38" y="-406.5" font-family="Helvetica,sans-Serif" font-size="10.00"> </text>
<polyline fill="none" stroke="#bfbfbf" points="716.88,-399.5 781.88,-399.5 "/>
<text text-anchor="middle" x="749.38" y="-387.5" font-family="Helvetica,sans-Serif" font-size="10.00"> </text>
</a>
</g>
</g>
<!-- Node4&#45;&gt;Node1 -->
<g id="edge4" class="edge">
<title>Node4&#45;&gt;Node1</title>
<path fill="none" stroke="#404040" d="M739.84,-380.26C732.86,-362.92 722.04,-340.92 707.38,-325 694.56,-311.08 680.47,-297.83 665.58,-285.28"/>
<polygon fill="none" stroke="#404040" points="665.48,-285.2 658.3,-284.47 656.22,-277.57 663.39,-278.3 665.48,-285.2"/>
<text text-anchor="middle" x="713.38" y="-299" font-family="Helvetica,sans-Serif" font-size="10.00"> &#45;m_Name</text>
</g>
<!-- Node5 -->
<g id="node5" class="node">
<title>Node5</title>
<g id="a_node5"><a xlink:title=" ">
<polygon fill="white" stroke="#bfbfbf" points="678.88,-540.5 678.88,-597.5 819.88,-597.5 819.88,-540.5 678.88,-540.5"/>
<text text-anchor="middle" x="749.38" y="-585.5" font-family="Helvetica,sans-Serif" font-size="10.00">std::basic_string&lt; Char &gt;</text>
<polyline fill="none" stroke="#bfbfbf" points="678.88,-578.5 819.88,-578.5 "/>
<text text-anchor="middle" x="749.38" y="-566.5" font-family="Helvetica,sans-Serif" font-size="10.00"> </text>
<polyline fill="none" stroke="#bfbfbf" points="678.88,-559.5 819.88,-559.5 "/>
<text text-anchor="middle" x="749.38" y="-547.5" font-family="Helvetica,sans-Serif" font-size="10.00"> </text>
</a>
</g>
</g>
<!-- Node5&#45;&gt;Node4 -->
<g id="edge5" class="edge">
<title>Node5&#45;&gt;Node4</title>
<path fill="none" stroke="midnightblue" d="M749.38,-530.11C749.38,-501.66 749.38,-463.37 749.38,-437.74"/>
<polygon fill="none" stroke="midnightblue" points="745.88,-530.48 749.38,-540.48 752.88,-530.48 745.88,-530.48"/>
</g>
</g>
</svg>
