<?xml version="1.0" encoding="UTF-8" standalone="no"?>
<!DOCTYPE svg PUBLIC "-//W3C//DTD SVG 1.1//EN"
 "http://www.w3.org/Graphics/SVG/1.1/DTD/svg11.dtd">
<!-- Generated by graphviz version 2.43.0 (0)
 -->
<!-- Title: gauri::KeyEvent Pages: 1 -->
<!--zoomable 353 -->
<svg id="main" version="1.1" xmlns="http://www.w3.org/2000/svg" xmlns:xlink="http://www.w3.org/1999/xlink" xml:space="preserve" onload="init(evt)">
<style type="text/css"><![CDATA[
.edge:hover path { stroke: red; }
.edge:hover polygon { stroke: red; fill: red; }
]]></style>
<script type="text/javascript"><![CDATA[
var edges = document.getElementsByTagName('g');
if (edges && edges.length) {
  for (var i=0;i<edges.length;i++) {
    if (edges[i].id.substr(0,4)=='edge') {
      edges[i].setAttribute('class','edge');
    }
  }
}
]]></script>
        <defs>
                <circle id="rim" cx="0" cy="0" r="7"/>
                <circle id="rim2" cx="0" cy="0" r="3.5"/>
                <g id="zoomPlus">
                        <use xlink:href="#rim" fill="#404040">
                                <set attributeName="fill" to="#808080" begin="zoomplus.mouseover" end="zoomplus.mouseout"/>
                        </use>
                        <path d="M-4,0h8M0,-4v8" fill="none" stroke="white" stroke-width="1.5" pointer-events="none"/>
                </g>
                <g id="zoomMin">
                        <use xlink:href="#rim" fill="#404040">
                                <set attributeName="fill" to="#808080" begin="zoomminus.mouseover" end="zoomminus.mouseout"/>
                        </use>
                        <path d="M-4,0h8" fill="none" stroke="white" stroke-width="1.5" pointer-events="none"/>
                </g>
                <g id="dirArrow">
                        <path fill="none" stroke="white" stroke-width="1.5" d="M0,-3.0v7 M-2.5,-0.5L0,-3.0L2.5,-0.5"/>
                </g>
               <g id="resetDef">
                       <use xlink:href="#rim2" fill="#404040">
                               <set attributeName="fill" to="#808080" begin="reset.mouseover" end="reset.mouseout"/>
                       </use>
               </g>
        </defs>

<script type="text/javascript">
var viewWidth = 725;
var viewHeight = 353;
var sectionId = 'dynsection-0';
</script>
<script xlink:href="svgpan.js"/>
<svg id="graph" class="graph">
<g id="viewport">
<title>gauri::KeyEvent</title>
<polygon fill="white" stroke="transparent" points="-4,4 -4,-349 720.5,-349 720.5,4 -4,4"/>
<!-- Node1 -->
<g id="node1" class="node">
<title>Node1</title>
<g id="a_node1"><a xlink:title=" ">
<polygon fill="#bfbfbf" stroke="black" points="317.5,-127.5 317.5,-195.5 478.5,-195.5 478.5,-127.5 317.5,-127.5"/>
<text text-anchor="middle" x="398" y="-183.5" font-family="Helvetica,sans-Serif" font-size="10.00">gauri::KeyEvent</text>
<polyline fill="none" stroke="black" points="317.5,-176.5 478.5,-176.5 "/>
<text text-anchor="start" x="325.5" y="-164.5" font-family="Helvetica,sans-Serif" font-size="10.00"># int32_t m_KeyCode</text>
<polyline fill="none" stroke="black" points="317.5,-157.5 478.5,-157.5 "/>
<text text-anchor="start" x="325.5" y="-145.5" font-family="Helvetica,sans-Serif" font-size="10.00">+ int32_t GetKeyCode() const</text>
<text text-anchor="start" x="325.5" y="-134.5" font-family="Helvetica,sans-Serif" font-size="10.00"># KeyEvent(int32_t keycode)</text>
</a>
</g>
</g>
<!-- Node3 -->
<g id="node3" class="node">
<title>Node3</title>
<g id="a_node3"><a xlink:href="classgauri_1_1KeyPressedEvent.html" target="_top" xlink:title=" ">
<polygon fill="white" stroke="black" points="0,-0.5 0,-90.5 278,-90.5 278,-0.5 0,-0.5"/>
<text text-anchor="middle" x="139" y="-78.5" font-family="Helvetica,sans-Serif" font-size="10.00">gauri::KeyPressedEvent</text>
<polyline fill="none" stroke="black" points="0,-71.5 278,-71.5 "/>
<text text-anchor="start" x="8" y="-59.5" font-family="Helvetica,sans-Serif" font-size="10.00">&#45; int32_t m_RepeatCount</text>
<polyline fill="none" stroke="black" points="0,-52.5 278,-52.5 "/>
<text text-anchor="start" x="8" y="-40.5" font-family="Helvetica,sans-Serif" font-size="10.00">+ KeyPressedEvent(int32_t keycode, int repeatCount)</text>
<text text-anchor="start" x="8" y="-29.5" font-family="Helvetica,sans-Serif" font-size="10.00">+ int32_t GetRepeatCount() const</text>
<text text-anchor="start" x="8" y="-18.5" font-family="Helvetica,sans-Serif" font-size="10.00">+ std::string ToString() const override</text>
<text text-anchor="start" x="8" y="-7.5" font-family="Helvetica,sans-Serif" font-size="10.00">+ EVENT_CLASS_TYPE(KeyPressed)</text>
</a>
</g>
</g>
<!-- Node1&#45;&gt;Node3 -->
<g id="edge2" class="edge">
<title>Node1&#45;&gt;Node3</title>
<path fill="none" stroke="midnightblue" d="M313.41,-123.27C289.66,-112.81 263.61,-101.35 239.05,-90.54"/>
<polygon fill="none" stroke="midnightblue" points="312.18,-126.55 322.74,-127.37 315,-120.14 312.18,-126.55"/>
</g>
<!-- Node4 -->
<g id="node4" class="node">
<title>Node4</title>
<g id="a_node4"><a xlink:href="classgauri_1_1KeyReleasedEvent.html" target="_top" xlink:title=" ">
<polygon fill="white" stroke="black" points="296.5,-6 296.5,-85 499.5,-85 499.5,-6 296.5,-6"/>
<text text-anchor="middle" x="398" y="-73" font-family="Helvetica,sans-Serif" font-size="10.00">gauri::KeyReleasedEvent</text>
<polyline fill="none" stroke="black" points="296.5,-66 499.5,-66 "/>
<text text-anchor="middle" x="398" y="-54" font-family="Helvetica,sans-Serif" font-size="10.00"> </text>
<polyline fill="none" stroke="black" points="296.5,-47 499.5,-47 "/>
<text text-anchor="start" x="304.5" y="-35" font-family="Helvetica,sans-Serif" font-size="10.00">+ KeyReleasedEvent(int32_t keycode)</text>
<text text-anchor="start" x="304.5" y="-24" font-family="Helvetica,sans-Serif" font-size="10.00">+ std::string ToString() const override</text>
<text text-anchor="start" x="304.5" y="-13" font-family="Helvetica,sans-Serif" font-size="10.00">+ EVENT_CLASS_TYPE(KeyReleased)</text>
</a>
</g>
</g>
<!-- Node1&#45;&gt;Node4 -->
<g id="edge3" class="edge">
<title>Node1&#45;&gt;Node4</title>
<path fill="none" stroke="midnightblue" d="M398,-117.03C398,-106.58 398,-95.48 398,-85.25"/>
<polygon fill="none" stroke="midnightblue" points="394.5,-117.22 398,-127.22 401.5,-117.22 394.5,-117.22"/>
</g>
<!-- Node5 -->
<g id="node5" class="node">
<title>Node5</title>
<g id="a_node5"><a xlink:href="classgauri_1_1KeyTypedEvent.html" target="_top" xlink:title=" ">
<polygon fill="white" stroke="black" points="517.5,-6 517.5,-85 716.5,-85 716.5,-6 517.5,-6"/>
<text text-anchor="middle" x="617" y="-73" font-family="Helvetica,sans-Serif" font-size="10.00">gauri::KeyTypedEvent</text>
<polyline fill="none" stroke="black" points="517.5,-66 716.5,-66 "/>
<text text-anchor="middle" x="617" y="-54" font-family="Helvetica,sans-Serif" font-size="10.00"> </text>
<polyline fill="none" stroke="black" points="517.5,-47 716.5,-47 "/>
<text text-anchor="start" x="525.5" y="-35" font-family="Helvetica,sans-Serif" font-size="10.00">+ KeyTypedEvent(int32_t keycode)</text>
<text text-anchor="start" x="525.5" y="-24" font-family="Helvetica,sans-Serif" font-size="10.00">+ std::string ToString() const override</text>
<text text-anchor="start" x="525.5" y="-13" font-family="Helvetica,sans-Serif" font-size="10.00">+ EVENT_CLASS_TYPE(KeyTyped)</text>
</a>
</g>
</g>
<!-- Node1&#45;&gt;Node5 -->
<g id="edge4" class="edge">
<title>Node1&#45;&gt;Node5</title>
<path fill="none" stroke="midnightblue" d="M470.72,-122.65C493.87,-110.59 519.51,-97.25 542.77,-85.14"/>
<polygon fill="none" stroke="midnightblue" points="468.89,-119.65 461.64,-127.37 472.12,-125.86 468.89,-119.65"/>
</g>
<!-- Node2 -->
<g id="node2" class="node">
<title>Node2</title>
<g id="a_node2"><a xlink:href="classgauri_1_1Event.html" target="_top" xlink:title=" ">
<polygon fill="white" stroke="black" points="277.5,-232.5 277.5,-344.5 518.5,-344.5 518.5,-232.5 277.5,-232.5"/>
<text text-anchor="middle" x="398" y="-332.5" font-family="Helvetica,sans-Serif" font-size="10.00">gauri::Event</text>
<polyline fill="none" stroke="black" points="277.5,-325.5 518.5,-325.5 "/>
<text text-anchor="start" x="285.5" y="-313.5" font-family="Helvetica,sans-Serif" font-size="10.00"># bool m_Handled</text>
<polyline fill="none" stroke="black" points="277.5,-306.5 518.5,-306.5 "/>
<text text-anchor="start" x="285.5" y="-294.5" font-family="Helvetica,sans-Serif" font-size="10.00">+ virtual EventType GetEventType() const =0</text>
<text text-anchor="start" x="285.5" y="-283.5" font-family="Helvetica,sans-Serif" font-size="10.00">+ virtual const char * GetName() const =0</text>
<text text-anchor="start" x="285.5" y="-272.5" font-family="Helvetica,sans-Serif" font-size="10.00">+ virtual int32_t GetCategoryFlags() const =0</text>
<text text-anchor="start" x="285.5" y="-261.5" font-family="Helvetica,sans-Serif" font-size="10.00">+ virtual std::string ToString() const</text>
<text text-anchor="start" x="285.5" y="-250.5" font-family="Helvetica,sans-Serif" font-size="10.00">+ bool IsInCategory(EventCategory category)</text>
<text text-anchor="start" x="285.5" y="-239.5" font-family="Helvetica,sans-Serif" font-size="10.00">+ bool IsHandled() const</text>
</a>
</g>
</g>
<!-- Node2&#45;&gt;Node1 -->
<g id="edge1" class="edge">
<title>Node2&#45;&gt;Node1</title>
<path fill="none" stroke="midnightblue" d="M398,-222.26C398,-212.99 398,-203.8 398,-195.51"/>
<polygon fill="none" stroke="midnightblue" points="394.5,-222.31 398,-232.31 401.5,-222.31 394.5,-222.31"/>
</g>
</g>
</svg>
        <g id="navigator" transform="translate(0 0)" fill="#404254">
                <rect fill="#f2f5e9" fill-opacity="0.5" stroke="#606060" stroke-width=".5" x="0" y="0" width="60" height="60"/>
                <use id="zoomplus" xlink:href="#zoomPlus" x="17" y="9" onmousedown="handleZoom(evt,'in')"/>
                <use id="zoomminus" xlink:href="#zoomMin" x="42" y="9" onmousedown="handleZoom(evt,'out')"/>
                <use id="reset" xlink:href="#resetDef" x="30" y="36" onmousedown="handleReset()"/>
                <g id="arrowUp" xlink:href="#dirArrow" transform="translate(30 24)" onmousedown="handlePan(0,-1)">
                  <use xlink:href="#rim" fill="#404040">
                        <set attributeName="fill" to="#808080" begin="arrowUp.mouseover" end="arrowUp.mouseout"/>
                  </use>
                  <path fill="none" stroke="white" stroke-width="1.5" d="M0,-3.0v7 M-2.5,-0.5L0,-3.0L2.5,-0.5"/>
                </g>
                <g id="arrowRight" xlink:href="#dirArrow" transform="rotate(90) translate(36 -43)" onmousedown="handlePan(1,0)">
                  <use xlink:href="#rim" fill="#404040">
                        <set attributeName="fill" to="#808080" begin="arrowRight.mouseover" end="arrowRight.mouseout"/>
                  </use>
                  <path fill="none" stroke="white" stroke-width="1.5" d="M0,-3.0v7 M-2.5,-0.5L0,-3.0L2.5,-0.5"/>
                </g>
                <g id="arrowDown" xlink:href="#dirArrow" transform="rotate(180) translate(-30 -48)" onmousedown="handlePan(0,1)">
                  <use xlink:href="#rim" fill="#404040">
                        <set attributeName="fill" to="#808080" begin="arrowDown.mouseover" end="arrowDown.mouseout"/>
                  </use>
                  <path fill="none" stroke="white" stroke-width="1.5" d="M0,-3.0v7 M-2.5,-0.5L0,-3.0L2.5,-0.5"/>
                </g>
                <g id="arrowLeft" xlink:href="#dirArrow" transform="rotate(270) translate(-36 17)" onmousedown="handlePan(-1,0)">
                  <use xlink:href="#rim" fill="#404040">
                        <set attributeName="fill" to="#808080" begin="arrowLeft.mouseover" end="arrowLeft.mouseout"/>
                  </use>
                  <path fill="none" stroke="white" stroke-width="1.5" d="M0,-3.0v7 M-2.5,-0.5L0,-3.0L2.5,-0.5"/>
                </g>
        </g>
        <svg viewBox="0 0 15 15" width="100%" height="30px" preserveAspectRatio="xMaxYMin meet">
         <g id="arrow_out" transform="scale(0.3 0.3)">
          <a xlink:href="classgauri_1_1KeyEvent__inherit__graph_org.svg" target="_base">
           <rect id="button" ry="5" rx="5" y="6" x="6" height="38" width="38"
                fill="#f2f5e9" fill-opacity="0.5" stroke="#606060" stroke-width="1.0"/>
           <path id="arrow"
             d="M 11.500037,31.436501 C 11.940474,20.09759 22.043105,11.32322 32.158766,21.979434 L 37.068811,17.246167 C 37.068811,17.246167 37.088388,32 37.088388,32 L 22.160133,31.978069 C 22.160133,31.978069 26.997745,27.140456 26.997745,27.140456 C 18.528582,18.264221 13.291696,25.230495 11.500037,31.436501 z"
             style="fill:#404040;"/>
          </a>
         </g>
        </svg>
</svg>
