<?xml version="1.0" encoding="UTF-8" standalone="no"?>
<!DOCTYPE svg PUBLIC "-//W3C//DTD SVG 1.1//EN"
 "http://www.w3.org/Graphics/SVG/1.1/DTD/svg11.dtd">
<!-- Generated by graphviz version 2.43.0 (0)
 -->
<!-- Title: gauri::OpenGLShader Pages: 1 -->
<svg width="829pt" height="639pt"
 viewBox="0.00 0.00 829.35 639.00" xmlns="http://www.w3.org/2000/svg" xmlns:xlink="http://www.w3.org/1999/xlink">
<g id="graph0" class="graph" transform="scale(1 1) rotate(0) translate(4 635)">
<title>gauri::OpenGLShader</title>
<polygon fill="white" stroke="transparent" points="-4,4 -4,-635 825.35,-635 825.35,4 -4,4"/>
<!-- Node1 -->
<g id="node1" class="node">
<title>Node1</title>
<g id="a_node1"><a xlink:title=" ">
<polygon fill="#bfbfbf" stroke="black" points="148.35,-0.5 148.35,-299.5 667.35,-299.5 667.35,-0.5 148.35,-0.5"/>
<text text-anchor="middle" x="407.85" y="-287.5" font-family="Helvetica,sans-Serif" font-size="10.00">gauri::OpenGLShader</text>
<polyline fill="none" stroke="black" points="148.35,-280.5 667.35,-280.5 "/>
<text text-anchor="middle" x="407.85" y="-268.5" font-family="Helvetica,sans-Serif" font-size="10.00"> </text>
<polyline fill="none" stroke="black" points="148.35,-261.5 667.35,-261.5 "/>
<text text-anchor="start" x="156.35" y="-249.5" font-family="Helvetica,sans-Serif" font-size="10.00">+ OpenGLShader(const std::string &amp;filepath)</text>
<text text-anchor="start" x="156.35" y="-238.5" font-family="Helvetica,sans-Serif" font-size="10.00">+ OpenGLShader(const std::string &amp;name, const std::string &amp;vertexSrc, const std::string &amp;fragmentSrc)</text>
<text text-anchor="start" x="156.35" y="-227.5" font-family="Helvetica,sans-Serif" font-size="10.00">+ ~OpenGLShader() override</text>
<text text-anchor="start" x="156.35" y="-216.5" font-family="Helvetica,sans-Serif" font-size="10.00">+ void Bind() const override</text>
<text text-anchor="start" x="156.35" y="-205.5" font-family="Helvetica,sans-Serif" font-size="10.00">+ void Unbind() const override</text>
<text text-anchor="start" x="156.35" y="-194.5" font-family="Helvetica,sans-Serif" font-size="10.00">+ void SetInt(const std::string &amp;name, int value) override</text>
<text text-anchor="start" x="156.35" y="-183.5" font-family="Helvetica,sans-Serif" font-size="10.00">+ void SetIntArray(const std::string &amp;name, int *values, uint32_t count) override</text>
<text text-anchor="start" x="156.35" y="-172.5" font-family="Helvetica,sans-Serif" font-size="10.00">+ void SetFloat(const std::string &amp;name, float value) override</text>
<text text-anchor="start" x="156.35" y="-161.5" font-family="Helvetica,sans-Serif" font-size="10.00">+ void SetFloat3(const std::string &amp;name, const glm::vec3 &amp;value) override</text>
<text text-anchor="start" x="156.35" y="-150.5" font-family="Helvetica,sans-Serif" font-size="10.00">+ void SetFloat4(const std::string &amp;name, const glm::vec4 &amp;value) override</text>
<text text-anchor="start" x="156.35" y="-139.5" font-family="Helvetica,sans-Serif" font-size="10.00">+ void SetMat4(const std::string &amp;name, const glm::mat4 &amp;value) override</text>
<text text-anchor="start" x="156.35" y="-128.5" font-family="Helvetica,sans-Serif" font-size="10.00">+ const std::string &amp; GetName() const override</text>
<text text-anchor="start" x="156.35" y="-117.5" font-family="Helvetica,sans-Serif" font-size="10.00">+ void UploadUniformInt(const std::string &amp;name, int value)</text>
<text text-anchor="start" x="156.35" y="-106.5" font-family="Helvetica,sans-Serif" font-size="10.00">+ void UploadUniformIntArray(const std::string &amp;name, int *values, uint32_t count)</text>
<text text-anchor="start" x="156.35" y="-95.5" font-family="Helvetica,sans-Serif" font-size="10.00">+ void UploadUniformFloat(const std::string &amp;name, float value)</text>
<text text-anchor="start" x="156.35" y="-84.5" font-family="Helvetica,sans-Serif" font-size="10.00">+ void UploadUniformFloat2(const std::string &amp;name, const glm::vec2 &amp;values)</text>
<text text-anchor="start" x="156.35" y="-73.5" font-family="Helvetica,sans-Serif" font-size="10.00">+ void UploadUniformFloat3(const std::string &amp;name, const glm::vec3 &amp;values)</text>
<text text-anchor="start" x="156.35" y="-62.5" font-family="Helvetica,sans-Serif" font-size="10.00">+ void UploadUniformFloat4(const std::string &amp;name, const glm::vec4 &amp;values)</text>
<text text-anchor="start" x="156.35" y="-51.5" font-family="Helvetica,sans-Serif" font-size="10.00">+ void UploadUniformMat3(const std::string &amp;name, const glm::mat3 &amp;matrix)</text>
<text text-anchor="start" x="156.35" y="-40.5" font-family="Helvetica,sans-Serif" font-size="10.00">+ void UploadUniformMat4(const std::string &amp;name, const glm::mat4 &amp;matrix)</text>
<text text-anchor="start" x="156.35" y="-29.5" font-family="Helvetica,sans-Serif" font-size="10.00">&#45; std::string ReadFile(const std::string &amp;filepath)</text>
<text text-anchor="start" x="156.35" y="-18.5" font-family="Helvetica,sans-Serif" font-size="10.00">&#45; std::unordered_map&lt; GLenum, std::string &gt; PreProcess(const std::string &amp;source)</text>
<text text-anchor="start" x="156.35" y="-7.5" font-family="Helvetica,sans-Serif" font-size="10.00">&#45; void Compile(const std::unordered_map&lt; GLenum, std::string &gt; &amp;shaderSources)</text>
</a>
</g>
</g>
<!-- Node2 -->
<g id="node2" class="node">
<title>Node2</title>
<g id="a_node2"><a xlink:href="classgauri_1_1Shader.html" target="_top" xlink:title=" ">
<polygon fill="white" stroke="black" points="115.35,-347.5 115.35,-525.5 700.35,-525.5 700.35,-347.5 115.35,-347.5"/>
<text text-anchor="middle" x="407.85" y="-513.5" font-family="Helvetica,sans-Serif" font-size="10.00">gauri::Shader</text>
<polyline fill="none" stroke="black" points="115.35,-506.5 700.35,-506.5 "/>
<text text-anchor="middle" x="407.85" y="-494.5" font-family="Helvetica,sans-Serif" font-size="10.00"> </text>
<polyline fill="none" stroke="black" points="115.35,-487.5 700.35,-487.5 "/>
<text text-anchor="start" x="123.35" y="-475.5" font-family="Helvetica,sans-Serif" font-size="10.00">+ virtual ~Shader()=default</text>
<text text-anchor="start" x="123.35" y="-464.5" font-family="Helvetica,sans-Serif" font-size="10.00">+ virtual void Bind() const =0</text>
<text text-anchor="start" x="123.35" y="-453.5" font-family="Helvetica,sans-Serif" font-size="10.00">+ virtual void Unbind() const =0</text>
<text text-anchor="start" x="123.35" y="-442.5" font-family="Helvetica,sans-Serif" font-size="10.00">+ virtual void SetInt(const std::string &amp;name, int value)=0</text>
<text text-anchor="start" x="123.35" y="-431.5" font-family="Helvetica,sans-Serif" font-size="10.00">+ virtual void SetIntArray(const std::string &amp;name, int *values, uint32_t count)=0</text>
<text text-anchor="start" x="123.35" y="-420.5" font-family="Helvetica,sans-Serif" font-size="10.00">+ virtual void SetFloat(const std::string &amp;name, float value)=0</text>
<text text-anchor="start" x="123.35" y="-409.5" font-family="Helvetica,sans-Serif" font-size="10.00">+ virtual void SetFloat3(const std::string &amp;name, const glm::vec3 &amp;value)=0</text>
<text text-anchor="start" x="123.35" y="-398.5" font-family="Helvetica,sans-Serif" font-size="10.00">+ virtual void SetFloat4(const std::string &amp;name, const glm::vec4 &amp;value)=0</text>
<text text-anchor="start" x="123.35" y="-387.5" font-family="Helvetica,sans-Serif" font-size="10.00">+ virtual void SetMat4(const std::string &amp;name, const glm::mat4 &amp;value)=0</text>
<text text-anchor="start" x="123.35" y="-376.5" font-family="Helvetica,sans-Serif" font-size="10.00">+ virtual const std::string &amp; GetName() const =0</text>
<text text-anchor="start" x="123.35" y="-365.5" font-family="Helvetica,sans-Serif" font-size="10.00">+ static Ref&lt; Shader &gt; Create(const std::string &amp;filepath)</text>
<text text-anchor="start" x="123.35" y="-354.5" font-family="Helvetica,sans-Serif" font-size="10.00">+ static Ref&lt; Shader &gt; Create(const std::string &amp;name, const std::string &amp;vertexSrc, const std::string &amp;fragmentSrc)</text>
</a>
</g>
</g>
<!-- Node2&#45;&gt;Node1 -->
<g id="edge1" class="edge">
<title>Node2&#45;&gt;Node1</title>
<path fill="none" stroke="midnightblue" d="M407.85,-337.29C407.85,-325.06 407.85,-312.36 407.85,-299.59"/>
<polygon fill="none" stroke="midnightblue" points="404.35,-337.43 407.85,-347.43 411.35,-337.43 404.35,-337.43"/>
</g>
<!-- Node3 -->
<g id="node3" class="node">
<title>Node3</title>
<g id="a_node3"><a xlink:title=" ">
<polygon fill="white" stroke="#bfbfbf" points="97.85,-573.5 97.85,-630.5 153.85,-630.5 153.85,-573.5 97.85,-573.5"/>
<text text-anchor="middle" x="125.85" y="-618.5" font-family="Helvetica,sans-Serif" font-size="10.00">uint32_t</text>
<polyline fill="none" stroke="#bfbfbf" points="97.85,-611.5 153.85,-611.5 "/>
<text text-anchor="middle" x="125.85" y="-599.5" font-family="Helvetica,sans-Serif" font-size="10.00"> </text>
<polyline fill="none" stroke="#bfbfbf" points="97.85,-592.5 153.85,-592.5 "/>
<text text-anchor="middle" x="125.85" y="-580.5" font-family="Helvetica,sans-Serif" font-size="10.00"> </text>
</a>
</g>
</g>
<!-- Node3&#45;&gt;Node1 -->
<g id="edge3" class="edge">
<title>Node3&#45;&gt;Node1</title>
<path fill="none" stroke="#404040" d="M97.43,-588.06C74.22,-575.76 43.02,-554.85 28.85,-526 -6.2,-454.58 -12.51,-414.96 28.85,-347 55.15,-303.8 94.38,-269.7 137.77,-242.92"/>
<polygon fill="none" stroke="#404040" points="137.99,-242.79 141.08,-236.27 148.28,-236.62 145.19,-243.13 137.99,-242.79"/>
<text text-anchor="middle" x="67.35" y="-434" font-family="Helvetica,sans-Serif" font-size="10.00"> &#45;m_RendererID</text>
</g>
<!-- Node3&#45;&gt;Node2 -->
<g id="edge2" class="edge">
<title>Node3&#45;&gt;Node2</title>
<path fill="none" stroke="#404040" d="M153.92,-584.73C176.43,-571.68 210.02,-552.2 245.45,-531.66"/>
<polygon fill="none" stroke="#404040" points="245.6,-531.57 248.79,-525.1 255.98,-525.55 252.8,-532.02 245.6,-531.57"/>
<text text-anchor="middle" x="256.35" y="-547" font-family="Helvetica,sans-Serif" font-size="10.00"> &#45;m_RendererID</text>
</g>
<!-- Node4 -->
<g id="node4" class="node">
<title>Node4</title>
<g id="a_node4"><a xlink:title=" ">
<polygon fill="white" stroke="#bfbfbf" points="718.35,-408 718.35,-465 783.35,-465 783.35,-408 718.35,-408"/>
<text text-anchor="middle" x="750.85" y="-453" font-family="Helvetica,sans-Serif" font-size="10.00">std::string</text>
<polyline fill="none" stroke="#bfbfbf" points="718.35,-446 783.35,-446 "/>
<text text-anchor="middle" x="750.85" y="-434" font-family="Helvetica,sans-Serif" font-size="10.00"> </text>
<polyline fill="none" stroke="#bfbfbf" points="718.35,-427 783.35,-427 "/>
<text text-anchor="middle" x="750.85" y="-415" font-family="Helvetica,sans-Serif" font-size="10.00"> </text>
</a>
</g>
</g>
<!-- Node4&#45;&gt;Node1 -->
<g id="edge4" class="edge">
<title>Node4&#45;&gt;Node1</title>
<path fill="none" stroke="#404040" d="M742.16,-407.69C735.3,-389.01 724.3,-364.67 708.85,-347 696.9,-333.33 683.77,-320.23 669.89,-307.75"/>
<polygon fill="none" stroke="#404040" points="669.68,-307.57 662.53,-306.61 660.67,-299.64 667.81,-300.6 669.68,-307.57"/>
<text text-anchor="middle" x="715.85" y="-321" font-family="Helvetica,sans-Serif" font-size="10.00"> &#45;m_Name</text>
</g>
<!-- Node5 -->
<g id="node5" class="node">
<title>Node5</title>
<g id="a_node5"><a xlink:title=" ">
<polygon fill="white" stroke="#bfbfbf" points="680.35,-573.5 680.35,-630.5 821.35,-630.5 821.35,-573.5 680.35,-573.5"/>
<text text-anchor="middle" x="750.85" y="-618.5" font-family="Helvetica,sans-Serif" font-size="10.00">std::basic_string&lt; Char &gt;</text>
<polyline fill="none" stroke="#bfbfbf" points="680.35,-611.5 821.35,-611.5 "/>
<text text-anchor="middle" x="750.85" y="-599.5" font-family="Helvetica,sans-Serif" font-size="10.00"> </text>
<polyline fill="none" stroke="#bfbfbf" points="680.35,-592.5 821.35,-592.5 "/>
<text text-anchor="middle" x="750.85" y="-580.5" font-family="Helvetica,sans-Serif" font-size="10.00"> </text>
</a>
</g>
</g>
<!-- Node5&#45;&gt;Node4 -->
<g id="edge5" class="edge">
<title>Node5&#45;&gt;Node4</title>
<path fill="none" stroke="midnightblue" d="M750.85,-563.17C750.85,-533.2 750.85,-492.03 750.85,-465.1"/>
<polygon fill="none" stroke="midnightblue" points="747.35,-563.26 750.85,-573.26 754.35,-563.26 747.35,-563.26"/>
</g>
</g>
</svg>
