<?xml version="1.0" encoding="UTF-8" standalone="no"?>
<!DOCTYPE svg PUBLIC "-//W3C//DTD SVG 1.1//EN"
 "http://www.w3.org/Graphics/SVG/1.1/DTD/svg11.dtd">
<!-- Generated by graphviz version 2.43.0 (0)
 -->
<!-- Title: gauri::Entity Pages: 1 -->
<svg width="398pt" height="408pt"
 viewBox="0.00 0.00 398.00 408.00" xmlns="http://www.w3.org/2000/svg" xmlns:xlink="http://www.w3.org/1999/xlink">
<g id="graph0" class="graph" transform="scale(1 1) rotate(0) translate(4 404)">
<title>gauri::Entity</title>
<polygon fill="white" stroke="transparent" points="-4,4 -4,-404 394,-404 394,4 -4,4"/>
<!-- Node1 -->
<g id="node1" class="node">
<title>Node1</title>
<g id="a_node1"><a xlink:title=" ">
<polygon fill="#bfbfbf" stroke="black" points="138,-0.5 138,-134.5 364,-134.5 364,-0.5 138,-0.5"/>
<text text-anchor="middle" x="251" y="-122.5" font-family="Helvetica,sans-Serif" font-size="10.00">gauri::Entity</text>
<polyline fill="none" stroke="black" points="138,-115.5 364,-115.5 "/>
<text text-anchor="middle" x="251" y="-103.5" font-family="Helvetica,sans-Serif" font-size="10.00"> </text>
<polyline fill="none" stroke="black" points="138,-96.5 364,-96.5 "/>
<text text-anchor="start" x="146" y="-84.5" font-family="Helvetica,sans-Serif" font-size="10.00">+ Entity()=default</text>
<text text-anchor="start" x="146" y="-73.5" font-family="Helvetica,sans-Serif" font-size="10.00">+ Entity(entt::entity handle, Scene *scene)</text>
<text text-anchor="start" x="146" y="-62.5" font-family="Helvetica,sans-Serif" font-size="10.00">+ Entity(const Entity &amp;other)=default</text>
<text text-anchor="start" x="146" y="-51.5" font-family="Helvetica,sans-Serif" font-size="10.00">+ T &amp; AddComponent(Args &amp;&amp;...args)</text>
<text text-anchor="start" x="146" y="-40.5" font-family="Helvetica,sans-Serif" font-size="10.00">+ T &amp; GetComponent()</text>
<text text-anchor="start" x="146" y="-29.5" font-family="Helvetica,sans-Serif" font-size="10.00">+ bool HasComponent()</text>
<text text-anchor="start" x="146" y="-18.5" font-family="Helvetica,sans-Serif" font-size="10.00">+ void RemoveComponent()</text>
<text text-anchor="start" x="146" y="-7.5" font-family="Helvetica,sans-Serif" font-size="10.00">+ operator bool() const</text>
</a>
</g>
</g>
<!-- Node2 -->
<g id="node2" class="node">
<title>Node2</title>
<g id="a_node2"><a xlink:href="classgauri_1_1Scene.html" target="_top" xlink:title=" ">
<polygon fill="white" stroke="black" points="0,-182.5 0,-283.5 308,-283.5 308,-182.5 0,-182.5"/>
<text text-anchor="middle" x="154" y="-271.5" font-family="Helvetica,sans-Serif" font-size="10.00">gauri::Scene</text>
<polyline fill="none" stroke="black" points="0,-264.5 308,-264.5 "/>
<text text-anchor="middle" x="154" y="-252.5" font-family="Helvetica,sans-Serif" font-size="10.00"> </text>
<polyline fill="none" stroke="black" points="0,-245.5 308,-245.5 "/>
<text text-anchor="start" x="8" y="-233.5" font-family="Helvetica,sans-Serif" font-size="10.00">+ Scene()</text>
<text text-anchor="start" x="8" y="-222.5" font-family="Helvetica,sans-Serif" font-size="10.00">+ ~Scene()</text>
<text text-anchor="start" x="8" y="-211.5" font-family="Helvetica,sans-Serif" font-size="10.00">+ Entity CreateEntity(const std::string &amp;name=std::string())</text>
<text text-anchor="start" x="8" y="-200.5" font-family="Helvetica,sans-Serif" font-size="10.00">+ void OnUpdate(Timestep ts)</text>
<text text-anchor="start" x="8" y="-189.5" font-family="Helvetica,sans-Serif" font-size="10.00">+ void OnViewportResize(uint32_t width, uint32_t height)</text>
</a>
</g>
</g>
<!-- Node2&#45;&gt;Node1 -->
<g id="edge1" class="edge">
<title>Node2&#45;&gt;Node1</title>
<path fill="none" stroke="#404040" d="M183.63,-182.06C190.55,-170.39 198.08,-157.7 205.51,-145.17"/>
<polygon fill="none" stroke="#404040" points="205.6,-145.03 205.22,-137.83 211.72,-134.71 212.1,-141.91 205.6,-145.03"/>
<text text-anchor="middle" x="226" y="-156" font-family="Helvetica,sans-Serif" font-size="10.00"> &#45;m_Scene</text>
</g>
<!-- Node3 -->
<g id="node3" class="node">
<title>Node3</title>
<g id="a_node3"><a xlink:title=" ">
<polygon fill="white" stroke="#bfbfbf" points="84,-342.5 84,-399.5 138,-399.5 138,-342.5 84,-342.5"/>
<text text-anchor="middle" x="111" y="-387.5" font-family="Helvetica,sans-Serif" font-size="10.00">registry</text>
<polyline fill="none" stroke="#bfbfbf" points="84,-380.5 138,-380.5 "/>
<text text-anchor="middle" x="111" y="-368.5" font-family="Helvetica,sans-Serif" font-size="10.00"> </text>
<polyline fill="none" stroke="#bfbfbf" points="84,-361.5 138,-361.5 "/>
<text text-anchor="middle" x="111" y="-349.5" font-family="Helvetica,sans-Serif" font-size="10.00"> </text>
</a>
</g>
</g>
<!-- Node3&#45;&gt;Node2 -->
<g id="edge2" class="edge">
<title>Node3&#45;&gt;Node2</title>
<path fill="none" stroke="#404040" d="M108.1,-342.37C107.62,-329.82 108.23,-314.92 112,-302 112.67,-299.7 113.44,-297.41 114.3,-295.12"/>
<polygon fill="none" stroke="#404040" points="114.42,-294.84 113.13,-287.75 119.19,-283.83 120.47,-290.93 114.42,-294.84"/>
<text text-anchor="middle" x="143.5" y="-310.5" font-family="Helvetica,sans-Serif" font-size="10.00"> &#45;m_Registry</text>
</g>
<!-- Node4 -->
<g id="node4" class="node">
<title>Node4</title>
<g id="a_node4"><a xlink:title=" ">
<polygon fill="white" stroke="#bfbfbf" points="169,-342.5 169,-399.5 225,-399.5 225,-342.5 169,-342.5"/>
<text text-anchor="middle" x="197" y="-387.5" font-family="Helvetica,sans-Serif" font-size="10.00">uint32_t</text>
<polyline fill="none" stroke="#bfbfbf" points="169,-380.5 225,-380.5 "/>
<text text-anchor="middle" x="197" y="-368.5" font-family="Helvetica,sans-Serif" font-size="10.00"> </text>
<polyline fill="none" stroke="#bfbfbf" points="169,-361.5 225,-361.5 "/>
<text text-anchor="middle" x="197" y="-349.5" font-family="Helvetica,sans-Serif" font-size="10.00"> </text>
</a>
</g>
</g>
<!-- Node4&#45;&gt;Node2 -->
<g id="edge3" class="edge">
<title>Node4&#45;&gt;Node2</title>
<path fill="none" stroke="#404040" d="M188.3,-342.48C184.01,-328.93 178.66,-312 173.47,-295.58"/>
<polygon fill="none" stroke="#404040" points="173.35,-295.21 167.73,-290.69 169.73,-283.76 175.36,-288.28 173.35,-295.21"/>
<text text-anchor="middle" x="231" y="-316" font-family="Helvetica,sans-Serif" font-size="10.00"> &#45;m_ViewportHeight</text>
<text text-anchor="middle" x="231" y="-305" font-family="Helvetica,sans-Serif" font-size="10.00">&#45;m_ViewportWidth</text>
</g>
<!-- Node5 -->
<g id="node5" class="node">
<title>Node5</title>
<g id="a_node5"><a xlink:title=" ">
<polygon fill="white" stroke="#bfbfbf" points="326.5,-204.5 326.5,-261.5 371.5,-261.5 371.5,-204.5 326.5,-204.5"/>
<text text-anchor="middle" x="349" y="-249.5" font-family="Helvetica,sans-Serif" font-size="10.00">entity</text>
<polyline fill="none" stroke="#bfbfbf" points="326.5,-242.5 371.5,-242.5 "/>
<text text-anchor="middle" x="349" y="-230.5" font-family="Helvetica,sans-Serif" font-size="10.00"> </text>
<polyline fill="none" stroke="#bfbfbf" points="326.5,-223.5 371.5,-223.5 "/>
<text text-anchor="middle" x="349" y="-211.5" font-family="Helvetica,sans-Serif" font-size="10.00"> </text>
</a>
</g>
</g>
<!-- Node5&#45;&gt;Node1 -->
<g id="edge4" class="edge">
<title>Node5&#45;&gt;Node1</title>
<path fill="none" stroke="#404040" d="M332.38,-204.26C322.52,-187.82 309.5,-166.1 296.78,-144.87"/>
<polygon fill="none" stroke="#404040" points="296.74,-144.8 290.22,-141.71 290.57,-134.51 297.08,-137.6 296.74,-144.8"/>
<text text-anchor="middle" x="347.5" y="-156" font-family="Helvetica,sans-Serif" font-size="10.00"> &#45;m_EntityHandle</text>
</g>
</g>
</svg>
