<?xml version="1.0" encoding="UTF-8" standalone="no"?>
<!DOCTYPE svg PUBLIC "-//W3C//DTD SVG 1.1//EN"
 "http://www.w3.org/Graphics/SVG/1.1/DTD/svg11.dtd">
<!-- Generated by graphviz version 2.43.0 (0)
 -->
<!-- Title: gauri::LayerStack Pages: 1 -->
<svg width="356pt" height="652pt"
 viewBox="0.00 0.00 355.50 652.00" xmlns="http://www.w3.org/2000/svg" xmlns:xlink="http://www.w3.org/1999/xlink">
<g id="graph0" class="graph" transform="scale(1 1) rotate(0) translate(4 648)">
<title>gauri::LayerStack</title>
<polygon fill="white" stroke="transparent" points="-4,4 -4,-648 351.5,-648 351.5,4 -4,4"/>
<!-- Node1 -->
<g id="node1" class="node">
<title>Node1</title>
<g id="a_node1"><a xlink:title=" ">
<polygon fill="#bfbfbf" stroke="black" points="16,-0.5 16,-156.5 279,-156.5 279,-0.5 16,-0.5"/>
<text text-anchor="middle" x="147.5" y="-144.5" font-family="Helvetica,sans-Serif" font-size="10.00">gauri::LayerStack</text>
<polyline fill="none" stroke="black" points="16,-137.5 279,-137.5 "/>
<text text-anchor="middle" x="147.5" y="-125.5" font-family="Helvetica,sans-Serif" font-size="10.00"> </text>
<polyline fill="none" stroke="black" points="16,-118.5 279,-118.5 "/>
<text text-anchor="start" x="24" y="-106.5" font-family="Helvetica,sans-Serif" font-size="10.00">+ LayerStack()=default</text>
<text text-anchor="start" x="24" y="-95.5" font-family="Helvetica,sans-Serif" font-size="10.00">+ ~LayerStack()</text>
<text text-anchor="start" x="24" y="-84.5" font-family="Helvetica,sans-Serif" font-size="10.00">+ void PushLayer(Layer *layer)</text>
<text text-anchor="start" x="24" y="-73.5" font-family="Helvetica,sans-Serif" font-size="10.00">+ void PushOverlay(Layer *overlay)</text>
<text text-anchor="start" x="24" y="-62.5" font-family="Helvetica,sans-Serif" font-size="10.00">+ void PopLayer(Layer *layer)</text>
<text text-anchor="start" x="24" y="-51.5" font-family="Helvetica,sans-Serif" font-size="10.00">+ void PopOverlay(Layer *overlay)</text>
<text text-anchor="start" x="24" y="-40.5" font-family="Helvetica,sans-Serif" font-size="10.00">+ std::vector&lt; Layer * &gt;::iterator begin()</text>
<text text-anchor="start" x="24" y="-29.5" font-family="Helvetica,sans-Serif" font-size="10.00">+ std::vector&lt; Layer * &gt;::iterator end()</text>
<text text-anchor="start" x="24" y="-18.5" font-family="Helvetica,sans-Serif" font-size="10.00">+ std::vector&lt; Layer * &gt;::reverse_iterator rbegin()</text>
<text text-anchor="start" x="24" y="-7.5" font-family="Helvetica,sans-Serif" font-size="10.00">+ std::vector&lt; Layer * &gt;::reverse_iterator rend()</text>
</a>
</g>
</g>
<!-- Node2 -->
<g id="node2" class="node">
<title>Node2</title>
<g id="a_node2"><a xlink:title=" ">
<polygon fill="white" stroke="#bfbfbf" points="56.5,-204.5 56.5,-261.5 112.5,-261.5 112.5,-204.5 56.5,-204.5"/>
<text text-anchor="middle" x="84.5" y="-249.5" font-family="Helvetica,sans-Serif" font-size="10.00">uint32_t</text>
<polyline fill="none" stroke="#bfbfbf" points="56.5,-242.5 112.5,-242.5 "/>
<text text-anchor="middle" x="84.5" y="-230.5" font-family="Helvetica,sans-Serif" font-size="10.00"> </text>
<polyline fill="none" stroke="#bfbfbf" points="56.5,-223.5 112.5,-223.5 "/>
<text text-anchor="middle" x="84.5" y="-211.5" font-family="Helvetica,sans-Serif" font-size="10.00"> </text>
</a>
</g>
</g>
<!-- Node2&#45;&gt;Node1 -->
<g id="edge1" class="edge">
<title>Node2&#45;&gt;Node1</title>
<path fill="none" stroke="#404040" d="M81.93,-204.26C81.85,-194.8 82.66,-184.28 85.5,-175 86.23,-172.6 87.05,-170.2 87.93,-167.82"/>
<polygon fill="none" stroke="#404040" points="87.93,-167.81 86.54,-160.73 92.54,-156.72 93.93,-163.8 87.93,-167.81"/>
<text text-anchor="middle" x="137.5" y="-178" font-family="Helvetica,sans-Serif" font-size="10.00"> &#45;m_LayerInsertIndex</text>
</g>
<!-- Node3 -->
<g id="node3" class="node">
<title>Node3</title>
<g id="a_node3"><a xlink:title=" ">
<polygon fill="white" stroke="#bfbfbf" points="133,-204.5 133,-261.5 290,-261.5 290,-204.5 133,-204.5"/>
<text text-anchor="middle" x="211.5" y="-249.5" font-family="Helvetica,sans-Serif" font-size="10.00">std::vector&lt; gauri::Layer * &gt;</text>
<polyline fill="none" stroke="#bfbfbf" points="133,-242.5 290,-242.5 "/>
<text text-anchor="middle" x="211.5" y="-230.5" font-family="Helvetica,sans-Serif" font-size="10.00"> </text>
<polyline fill="none" stroke="#bfbfbf" points="133,-223.5 290,-223.5 "/>
<text text-anchor="middle" x="211.5" y="-211.5" font-family="Helvetica,sans-Serif" font-size="10.00"> </text>
</a>
</g>
</g>
<!-- Node3&#45;&gt;Node1 -->
<g id="edge2" class="edge">
<title>Node3&#45;&gt;Node1</title>
<path fill="none" stroke="#404040" d="M201.12,-204.36C197.53,-195 193.42,-184.51 189.5,-175 188.49,-172.55 187.46,-170.07 186.41,-167.57"/>
<polygon fill="none" stroke="#404040" points="186.41,-167.56 180.39,-163.6 181.73,-156.51 187.75,-160.48 186.41,-167.56"/>
<text text-anchor="middle" x="222" y="-178" font-family="Helvetica,sans-Serif" font-size="10.00"> &#45;m_Layers</text>
</g>
<!-- Node4 -->
<g id="node4" class="node">
<title>Node4</title>
<g id="a_node4"><a xlink:href="classgauri_1_1Layer.html" target="_top" xlink:title=" ">
<polygon fill="white" stroke="black" points="0,-309.5 0,-443.5 223,-443.5 223,-309.5 0,-309.5"/>
<text text-anchor="middle" x="111.5" y="-431.5" font-family="Helvetica,sans-Serif" font-size="10.00">gauri::Layer</text>
<polyline fill="none" stroke="black" points="0,-424.5 223,-424.5 "/>
<text text-anchor="middle" x="111.5" y="-412.5" font-family="Helvetica,sans-Serif" font-size="10.00"> </text>
<polyline fill="none" stroke="black" points="0,-405.5 223,-405.5 "/>
<text text-anchor="start" x="8" y="-393.5" font-family="Helvetica,sans-Serif" font-size="10.00">+ Layer(const std::string &amp;name=&quot;Layer&quot;)</text>
<text text-anchor="start" x="8" y="-382.5" font-family="Helvetica,sans-Serif" font-size="10.00">+ virtual ~Layer()</text>
<text text-anchor="start" x="8" y="-371.5" font-family="Helvetica,sans-Serif" font-size="10.00">+ virtual void OnAttach()</text>
<text text-anchor="start" x="8" y="-360.5" font-family="Helvetica,sans-Serif" font-size="10.00">+ virtual void OnDetach()</text>
<text text-anchor="start" x="8" y="-349.5" font-family="Helvetica,sans-Serif" font-size="10.00">+ virtual void OnUpdate(Timestep ts)</text>
<text text-anchor="start" x="8" y="-338.5" font-family="Helvetica,sans-Serif" font-size="10.00">+ virtual void OnImGuiRender()</text>
<text text-anchor="start" x="8" y="-327.5" font-family="Helvetica,sans-Serif" font-size="10.00">+ virtual void OnEvent(Event &amp;)</text>
<text text-anchor="start" x="8" y="-316.5" font-family="Helvetica,sans-Serif" font-size="10.00">+ const std::string &amp; GetName() const</text>
</a>
</g>
</g>
<!-- Node4&#45;&gt;Node3 -->
<g id="edge3" class="edge">
<title>Node4&#45;&gt;Node3</title>
<path fill="none" stroke="#404040" d="M156.85,-309.29C163.72,-299.44 170.76,-289.43 177.5,-280 179.5,-277.2 181.59,-274.31 183.69,-271.41"/>
<polygon fill="none" stroke="#404040" points="183.77,-271.31 184.09,-264.1 190.86,-261.63 190.54,-268.83 183.77,-271.31"/>
<text text-anchor="middle" x="206.5" y="-283" font-family="Helvetica,sans-Serif" font-size="10.00"> +elements</text>
</g>
<!-- Node5 -->
<g id="node5" class="node">
<title>Node5</title>
<g id="a_node5"><a xlink:title=" ">
<polygon fill="white" stroke="#bfbfbf" points="79,-491.5 79,-548.5 144,-548.5 144,-491.5 79,-491.5"/>
<text text-anchor="middle" x="111.5" y="-536.5" font-family="Helvetica,sans-Serif" font-size="10.00">std::string</text>
<polyline fill="none" stroke="#bfbfbf" points="79,-529.5 144,-529.5 "/>
<text text-anchor="middle" x="111.5" y="-517.5" font-family="Helvetica,sans-Serif" font-size="10.00"> </text>
<polyline fill="none" stroke="#bfbfbf" points="79,-510.5 144,-510.5 "/>
<text text-anchor="middle" x="111.5" y="-498.5" font-family="Helvetica,sans-Serif" font-size="10.00"> </text>
</a>
</g>
</g>
<!-- Node5&#45;&gt;Node4 -->
<g id="edge4" class="edge">
<title>Node5&#45;&gt;Node4</title>
<path fill="none" stroke="#404040" d="M111.5,-491.38C111.5,-481.02 111.5,-468.66 111.5,-455.97"/>
<polygon fill="none" stroke="#404040" points="111.5,-455.75 107.5,-449.75 111.5,-443.75 115.5,-449.75 111.5,-455.75"/>
<text text-anchor="middle" x="155.5" y="-465" font-family="Helvetica,sans-Serif" font-size="10.00"> #m_DebugName</text>
</g>
<!-- Node6 -->
<g id="node6" class="node">
<title>Node6</title>
<g id="a_node6"><a xlink:title=" ">
<polygon fill="white" stroke="#bfbfbf" points="41,-586.5 41,-643.5 182,-643.5 182,-586.5 41,-586.5"/>
<text text-anchor="middle" x="111.5" y="-631.5" font-family="Helvetica,sans-Serif" font-size="10.00">std::basic_string&lt; Char &gt;</text>
<polyline fill="none" stroke="#bfbfbf" points="41,-624.5 182,-624.5 "/>
<text text-anchor="middle" x="111.5" y="-612.5" font-family="Helvetica,sans-Serif" font-size="10.00"> </text>
<polyline fill="none" stroke="#bfbfbf" points="41,-605.5 182,-605.5 "/>
<text text-anchor="middle" x="111.5" y="-593.5" font-family="Helvetica,sans-Serif" font-size="10.00"> </text>
</a>
</g>
</g>
<!-- Node6&#45;&gt;Node5 -->
<g id="edge5" class="edge">
<title>Node6&#45;&gt;Node5</title>
<path fill="none" stroke="midnightblue" d="M111.5,-576.24C111.5,-567.03 111.5,-557.35 111.5,-548.71"/>
<polygon fill="none" stroke="midnightblue" points="108,-576.35 111.5,-586.35 115,-576.35 108,-576.35"/>
</g>
<!-- Node7 -->
<g id="node7" class="node">
<title>Node7</title>
<g id="a_node7"><a xlink:title=" ">
<polygon fill="white" stroke="#bfbfbf" points="241,-348 241,-405 338,-405 338,-348 241,-348"/>
<text text-anchor="middle" x="289.5" y="-393" font-family="Helvetica,sans-Serif" font-size="10.00">std::vector&lt; T &gt;</text>
<polyline fill="none" stroke="#bfbfbf" points="241,-386 338,-386 "/>
<text text-anchor="middle" x="289.5" y="-374" font-family="Helvetica,sans-Serif" font-size="10.00"> </text>
<polyline fill="none" stroke="#bfbfbf" points="241,-367 338,-367 "/>
<text text-anchor="middle" x="289.5" y="-355" font-family="Helvetica,sans-Serif" font-size="10.00"> </text>
</a>
</g>
</g>
<!-- Node7&#45;&gt;Node3 -->
<g id="edge6" class="edge">
<title>Node7&#45;&gt;Node3</title>
<path fill="none" stroke="orange" d="M269.38,-339C256.06,-314.83 238.86,-283.64 226.69,-261.55"/>
<polygon fill="orange" stroke="orange" points="266.38,-340.81 274.28,-347.88 272.51,-337.43 266.38,-340.81"/>
<text text-anchor="middle" x="287.5" y="-283" font-family="Helvetica,sans-Serif" font-size="10.00"> &lt; gauri::Layer * &gt;</text>
</g>
<!-- Node8 -->
<g id="node8" class="node">
<title>Node8</title>
<g id="a_node8"><a xlink:title=" ">
<polygon fill="white" stroke="#bfbfbf" points="275,-491.5 275,-548.5 304,-548.5 304,-491.5 275,-491.5"/>
<text text-anchor="middle" x="289.5" y="-536.5" font-family="Helvetica,sans-Serif" font-size="10.00">T</text>
<polyline fill="none" stroke="#bfbfbf" points="275,-529.5 304,-529.5 "/>
<text text-anchor="middle" x="289.5" y="-517.5" font-family="Helvetica,sans-Serif" font-size="10.00"> </text>
<polyline fill="none" stroke="#bfbfbf" points="275,-510.5 304,-510.5 "/>
<text text-anchor="middle" x="289.5" y="-498.5" font-family="Helvetica,sans-Serif" font-size="10.00"> </text>
</a>
</g>
</g>
<!-- Node8&#45;&gt;Node7 -->
<g id="edge7" class="edge">
<title>Node8&#45;&gt;Node7</title>
<path fill="none" stroke="#404040" d="M289.5,-491.38C289.5,-470.25 289.5,-440.81 289.5,-417.16"/>
<polygon fill="none" stroke="#404040" points="289.5,-417.05 285.5,-411.05 289.5,-405.05 293.5,-411.05 289.5,-417.05"/>
<text text-anchor="middle" x="318.5" y="-465" font-family="Helvetica,sans-Serif" font-size="10.00"> +elements</text>
</g>
</g>
</svg>
