<?xml version="1.0" encoding="UTF-8" standalone="no"?>
<!DOCTYPE svg PUBLIC "-//W3C//DTD SVG 1.1//EN"
 "http://www.w3.org/Graphics/SVG/1.1/DTD/svg11.dtd">
<!-- Generated by graphviz version 2.43.0 (0)
 -->
<!-- Title: gauri::RendererAPI Pages: 1 -->
<svg width="487pt" height="259pt"
 viewBox="0.00 0.00 487.00 259.00" xmlns="http://www.w3.org/2000/svg" xmlns:xlink="http://www.w3.org/1999/xlink">
<g id="graph0" class="graph" transform="scale(1 1) rotate(0) translate(4 255)">
<title>gauri::RendererAPI</title>
<polygon fill="white" stroke="transparent" points="-4,4 -4,-255 483,-255 483,4 -4,4"/>
<!-- Node1 -->
<g id="node1" class="node">
<title>Node1</title>
<g id="a_node1"><a xlink:title=" ">
<polygon fill="#bfbfbf" stroke="black" points="4.5,-138.5 4.5,-250.5 474.5,-250.5 474.5,-138.5 4.5,-138.5"/>
<text text-anchor="middle" x="239.5" y="-238.5" font-family="Helvetica,sans-Serif" font-size="10.00">gauri::RendererAPI</text>
<polyline fill="none" stroke="black" points="4.5,-231.5 474.5,-231.5 "/>
<text text-anchor="start" x="12.5" y="-219.5" font-family="Helvetica,sans-Serif" font-size="10.00">&#45; static API s_API</text>
<polyline fill="none" stroke="black" points="4.5,-212.5 474.5,-212.5 "/>
<text text-anchor="start" x="12.5" y="-200.5" font-family="Helvetica,sans-Serif" font-size="10.00">+ virtual void Init()=0</text>
<text text-anchor="start" x="12.5" y="-189.5" font-family="Helvetica,sans-Serif" font-size="10.00">+ virtual void SetClearColor(const glm::vec4 &amp;color)=0</text>
<text text-anchor="start" x="12.5" y="-178.5" font-family="Helvetica,sans-Serif" font-size="10.00">+ virtual void SetViewport(uint32_t x, uint32_t y, uint32_t width, uint32_t height)=0</text>
<text text-anchor="start" x="12.5" y="-167.5" font-family="Helvetica,sans-Serif" font-size="10.00">+ virtual void Clear()=0</text>
<text text-anchor="start" x="12.5" y="-156.5" font-family="Helvetica,sans-Serif" font-size="10.00">+ virtual void DrawIndexed(const Ref&lt; VertexArray &gt; &amp;vertexArray, uint32_t indexCount)=0</text>
<text text-anchor="start" x="12.5" y="-145.5" font-family="Helvetica,sans-Serif" font-size="10.00">+ static API GetAPI()</text>
</a>
</g>
</g>
<!-- Node2 -->
<g id="node2" class="node">
<title>Node2</title>
<g id="a_node2"><a xlink:href="classgauri_1_1OpenGLRendererAPI.html" target="_top" xlink:title=" ">
<polygon fill="white" stroke="black" points="0,-0.5 0,-101.5 479,-101.5 479,-0.5 0,-0.5"/>
<text text-anchor="middle" x="239.5" y="-89.5" font-family="Helvetica,sans-Serif" font-size="10.00">gauri::OpenGLRendererAPI</text>
<polyline fill="none" stroke="black" points="0,-82.5 479,-82.5 "/>
<text text-anchor="middle" x="239.5" y="-70.5" font-family="Helvetica,sans-Serif" font-size="10.00"> </text>
<polyline fill="none" stroke="black" points="0,-63.5 479,-63.5 "/>
<text text-anchor="start" x="8" y="-51.5" font-family="Helvetica,sans-Serif" font-size="10.00">+ void Init() override</text>
<text text-anchor="start" x="8" y="-40.5" font-family="Helvetica,sans-Serif" font-size="10.00">+ void SetViewport(uint32_t x, uint32_t y, uint32_t width, uint32_t height) override</text>
<text text-anchor="start" x="8" y="-29.5" font-family="Helvetica,sans-Serif" font-size="10.00">+ void SetClearColor(const glm::vec4 &amp;color) override</text>
<text text-anchor="start" x="8" y="-18.5" font-family="Helvetica,sans-Serif" font-size="10.00">+ void Clear() override</text>
<text text-anchor="start" x="8" y="-7.5" font-family="Helvetica,sans-Serif" font-size="10.00">+ void DrawIndexed(const Ref&lt; VertexArray &gt; &amp;vertexArray, uint32_t indexCount=0) override</text>
</a>
</g>
</g>
<!-- Node1&#45;&gt;Node2 -->
<g id="edge1" class="edge">
<title>Node1&#45;&gt;Node2</title>
<path fill="none" stroke="midnightblue" d="M239.5,-128.34C239.5,-119.38 239.5,-110.29 239.5,-101.66"/>
<polygon fill="none" stroke="midnightblue" points="236,-128.39 239.5,-138.39 243,-128.39 236,-128.39"/>
</g>
</g>
</svg>
