<?xml version="1.0" encoding="UTF-8" standalone="no"?>
<!DOCTYPE svg PUBLIC "-//W3C//DTD SVG 1.1//EN"
 "http://www.w3.org/Graphics/SVG/1.1/DTD/svg11.dtd">
<!-- Generated by graphviz version 2.43.0 (0)
 -->
<!-- Title: gauri::Renderer Pages: 1 -->
<svg width="706pt" height="331pt"
 viewBox="0.00 0.00 706.00 331.00" xmlns="http://www.w3.org/2000/svg" xmlns:xlink="http://www.w3.org/1999/xlink">
<g id="graph0" class="graph" transform="scale(1 1) rotate(0) translate(4 327)">
<title>gauri::Renderer</title>
<polygon fill="white" stroke="transparent" points="-4,4 -4,-327 702,-327 702,4 -4,4"/>
<!-- Node1 -->
<g id="node1" class="node">
<title>Node1</title>
<g id="a_node1"><a xlink:title=" ">
<polygon fill="#bfbfbf" stroke="black" points="0,-0.5 0,-112.5 698,-112.5 698,-0.5 0,-0.5"/>
<text text-anchor="middle" x="349" y="-100.5" font-family="Helvetica,sans-Serif" font-size="10.00">gauri::Renderer</text>
<polyline fill="none" stroke="black" points="0,-93.5 698,-93.5 "/>
<text text-anchor="middle" x="349" y="-81.5" font-family="Helvetica,sans-Serif" font-size="10.00"> </text>
<polyline fill="none" stroke="black" points="0,-74.5 698,-74.5 "/>
<text text-anchor="start" x="8" y="-62.5" font-family="Helvetica,sans-Serif" font-size="10.00">+ static void Init()</text>
<text text-anchor="start" x="8" y="-51.5" font-family="Helvetica,sans-Serif" font-size="10.00">+ static void OnWindowResize(uint32_t width, uint32_t height)</text>
<text text-anchor="start" x="8" y="-40.5" font-family="Helvetica,sans-Serif" font-size="10.00">+ static void BeginScene(OrthographicCamera &amp;camera)</text>
<text text-anchor="start" x="8" y="-29.5" font-family="Helvetica,sans-Serif" font-size="10.00">+ static void EndScene()</text>
<text text-anchor="start" x="8" y="-18.5" font-family="Helvetica,sans-Serif" font-size="10.00">+ static void Submit(const Ref&lt; Shader &gt; &amp;shader, const Ref&lt; VertexArray &gt; &amp;vertexArray, const glm::mat4 &amp;transform=glm::mat4(1.0f))</text>
<text text-anchor="start" x="8" y="-7.5" font-family="Helvetica,sans-Serif" font-size="10.00">+ static RendererAPI::API GetAPI()</text>
</a>
</g>
</g>
<!-- Node2 -->
<g id="node2" class="node">
<title>Node2</title>
<g id="a_node2"><a xlink:href="classgauri_1_1Renderer.html#structgauri_1_1Renderer_1_1SceneData" target="_top" xlink:title=" ">
<polygon fill="white" stroke="black" points="274,-160.5 274,-217.5 424,-217.5 424,-160.5 274,-160.5"/>
<text text-anchor="middle" x="349" y="-205.5" font-family="Helvetica,sans-Serif" font-size="10.00">gauri::Renderer::SceneData</text>
<polyline fill="none" stroke="black" points="274,-198.5 424,-198.5 "/>
<text text-anchor="middle" x="349" y="-186.5" font-family="Helvetica,sans-Serif" font-size="10.00"> </text>
<polyline fill="none" stroke="black" points="274,-179.5 424,-179.5 "/>
<text text-anchor="middle" x="349" y="-167.5" font-family="Helvetica,sans-Serif" font-size="10.00"> </text>
</a>
</g>
</g>
<!-- Node2&#45;&gt;Node1 -->
<g id="edge1" class="edge">
<title>Node2&#45;&gt;Node1</title>
<path fill="none" stroke="#404040" d="M349,-160.32C349,-149.78 349,-137.25 349,-124.62"/>
<polygon fill="none" stroke="#404040" points="349,-124.55 345,-118.55 349,-112.55 353,-118.55 349,-124.55"/>
<text text-anchor="middle" x="386.5" y="-134" font-family="Helvetica,sans-Serif" font-size="10.00"> &#45;m_SceneData</text>
</g>
<!-- Node3 -->
<g id="node3" class="node">
<title>Node3</title>
<g id="a_node3"><a xlink:title=" ">
<polygon fill="white" stroke="#bfbfbf" points="328,-265.5 328,-322.5 370,-322.5 370,-265.5 328,-265.5"/>
<text text-anchor="middle" x="349" y="-310.5" font-family="Helvetica,sans-Serif" font-size="10.00">mat4</text>
<polyline fill="none" stroke="#bfbfbf" points="328,-303.5 370,-303.5 "/>
<text text-anchor="middle" x="349" y="-291.5" font-family="Helvetica,sans-Serif" font-size="10.00"> </text>
<polyline fill="none" stroke="#bfbfbf" points="328,-284.5 370,-284.5 "/>
<text text-anchor="middle" x="349" y="-272.5" font-family="Helvetica,sans-Serif" font-size="10.00"> </text>
</a>
</g>
</g>
<!-- Node3&#45;&gt;Node2 -->
<g id="edge2" class="edge">
<title>Node3&#45;&gt;Node2</title>
<path fill="none" stroke="#404040" d="M349,-265.4C349,-254.55 349,-241.87 349,-230.05"/>
<polygon fill="none" stroke="#404040" points="349,-229.68 345,-223.68 349,-217.68 353,-223.68 349,-229.68"/>
<text text-anchor="middle" x="407" y="-239" font-family="Helvetica,sans-Serif" font-size="10.00"> +ViewProjectionMatrix</text>
</g>
</g>
</svg>
