<?xml version="1.0" encoding="UTF-8" standalone="no"?>
<!DOCTYPE svg PUBLIC "-//W3C//DTD SVG 1.1//EN"
 "http://www.w3.org/Graphics/SVG/1.1/DTD/svg11.dtd">
<!-- Generated by graphviz version 2.43.0 (0)
 -->
<!-- Title: gauri::OpenGLFrameBuffer Pages: 1 -->
<!--zoomable 441 -->
<svg id="main" version="1.1" xmlns="http://www.w3.org/2000/svg" xmlns:xlink="http://www.w3.org/1999/xlink" xml:space="preserve" onload="init(evt)">
<style type="text/css"><![CDATA[
.edge:hover path { stroke: red; }
.edge:hover polygon { stroke: red; fill: red; }
]]></style>
<script type="text/javascript"><![CDATA[
var edges = document.getElementsByTagName('g');
if (edges && edges.length) {
  for (var i=0;i<edges.length;i++) {
    if (edges[i].id.substr(0,4)=='edge') {
      edges[i].setAttribute('class','edge');
    }
  }
}
]]></script>
        <defs>
                <circle id="rim" cx="0" cy="0" r="7"/>
                <circle id="rim2" cx="0" cy="0" r="3.5"/>
                <g id="zoomPlus">
                        <use xlink:href="#rim" fill="#404040">
                                <set attributeName="fill" to="#808080" begin="zoomplus.mouseover" end="zoomplus.mouseout"/>
                        </use>
                        <path d="M-4,0h8M0,-4v8" fill="none" stroke="white" stroke-width="1.5" pointer-events="none"/>
                </g>
                <g id="zoomMin">
                        <use xlink:href="#rim" fill="#404040">
                                <set attributeName="fill" to="#808080" begin="zoomminus.mouseover" end="zoomminus.mouseout"/>
                        </use>
                        <path d="M-4,0h8" fill="none" stroke="white" stroke-width="1.5" pointer-events="none"/>
                </g>
                <g id="dirArrow">
                        <path fill="none" stroke="white" stroke-width="1.5" d="M0,-3.0v7 M-2.5,-0.5L0,-3.0L2.5,-0.5"/>
                </g>
               <g id="resetDef">
                       <use xlink:href="#rim2" fill="#404040">
                               <set attributeName="fill" to="#808080" begin="reset.mouseover" end="reset.mouseout"/>
                       </use>
               </g>
        </defs>

<script type="text/javascript">
var viewWidth = 733;
var viewHeight = 441;
var sectionId = 'dynsection-1';
</script>
<script xlink:href="svgpan.js"/>
<svg id="graph" class="graph">
<g id="viewport">
<title>gauri::OpenGLFrameBuffer</title>
<polygon fill="white" stroke="transparent" points="-4,4 -4,-437 729,-437 729,4 -4,4"/>
<!-- Node1 -->
<g id="node1" class="node">
<title>Node1</title>
<g id="a_node1"><a xlink:title=" ">
<polygon fill="#bfbfbf" stroke="black" points="243.5,-0.5 243.5,-134.5 596.5,-134.5 596.5,-0.5 243.5,-0.5"/>
<text text-anchor="middle" x="420" y="-122.5" font-family="Helvetica,sans-Serif" font-size="10.00">gauri::OpenGLFrameBuffer</text>
<polyline fill="none" stroke="black" points="243.5,-115.5 596.5,-115.5 "/>
<text text-anchor="middle" x="420" y="-103.5" font-family="Helvetica,sans-Serif" font-size="10.00"> </text>
<polyline fill="none" stroke="black" points="243.5,-96.5 596.5,-96.5 "/>
<text text-anchor="start" x="251.5" y="-84.5" font-family="Helvetica,sans-Serif" font-size="10.00">+ OpenGLFrameBuffer(const FrameBufferSpecification &amp;spec)</text>
<text text-anchor="start" x="251.5" y="-73.5" font-family="Helvetica,sans-Serif" font-size="10.00">+ ~OpenGLFrameBuffer() override</text>
<text text-anchor="start" x="251.5" y="-62.5" font-family="Helvetica,sans-Serif" font-size="10.00">+ void Invalidate()</text>
<text text-anchor="start" x="251.5" y="-51.5" font-family="Helvetica,sans-Serif" font-size="10.00">+ void Bind() override</text>
<text text-anchor="start" x="251.5" y="-40.5" font-family="Helvetica,sans-Serif" font-size="10.00">+ void Unbind() override</text>
<text text-anchor="start" x="251.5" y="-29.5" font-family="Helvetica,sans-Serif" font-size="10.00">+ void Resize(uint32_t width, uint32_t height) override</text>
<text text-anchor="start" x="251.5" y="-18.5" font-family="Helvetica,sans-Serif" font-size="10.00">+ uint32_t GetColorAttachmentRendererID() const override</text>
<text text-anchor="start" x="251.5" y="-7.5" font-family="Helvetica,sans-Serif" font-size="10.00">+ const FrameBufferSpecification &amp; GetSpecification() const override</text>
</a>
</g>
</g>
<!-- Node2 -->
<g id="node2" class="node">
<title>Node2</title>
<g id="a_node2"><a xlink:href="classgauri_1_1FrameBuffer.html" target="_top" xlink:title=" ">
<polygon fill="white" stroke="black" points="0,-182.5 0,-305.5 384,-305.5 384,-182.5 0,-182.5"/>
<text text-anchor="middle" x="192" y="-293.5" font-family="Helvetica,sans-Serif" font-size="10.00">gauri::FrameBuffer</text>
<polyline fill="none" stroke="black" points="0,-286.5 384,-286.5 "/>
<text text-anchor="middle" x="192" y="-274.5" font-family="Helvetica,sans-Serif" font-size="10.00"> </text>
<polyline fill="none" stroke="black" points="0,-267.5 384,-267.5 "/>
<text text-anchor="start" x="8" y="-255.5" font-family="Helvetica,sans-Serif" font-size="10.00">+ virtual ~FrameBuffer()=default</text>
<text text-anchor="start" x="8" y="-244.5" font-family="Helvetica,sans-Serif" font-size="10.00">+ virtual void Bind()=0</text>
<text text-anchor="start" x="8" y="-233.5" font-family="Helvetica,sans-Serif" font-size="10.00">+ virtual void Unbind()=0</text>
<text text-anchor="start" x="8" y="-222.5" font-family="Helvetica,sans-Serif" font-size="10.00">+ virtual void Resize(uint32_t width, uint32_t height)=0</text>
<text text-anchor="start" x="8" y="-211.5" font-family="Helvetica,sans-Serif" font-size="10.00">+ virtual uint32_t GetColorAttachmentRendererID() const =0</text>
<text text-anchor="start" x="8" y="-200.5" font-family="Helvetica,sans-Serif" font-size="10.00">+ virtual const FrameBufferSpecification &amp; GetSpecification() const =0</text>
<text text-anchor="start" x="8" y="-189.5" font-family="Helvetica,sans-Serif" font-size="10.00">+ static Ref&lt; FrameBuffer &gt; Create(const FrameBufferSpecification &amp;spec)</text>
</a>
</g>
</g>
<!-- Node2&#45;&gt;Node1 -->
<g id="edge1" class="edge">
<title>Node2&#45;&gt;Node1</title>
<path fill="none" stroke="midnightblue" d="M279.23,-176.24C297.07,-162.59 315.83,-148.22 333.64,-134.59"/>
<polygon fill="none" stroke="midnightblue" points="276.92,-173.6 271.1,-182.46 281.17,-179.16 276.92,-173.6"/>
</g>
<!-- Node3 -->
<g id="node3" class="node">
<title>Node3</title>
<g id="a_node3"><a xlink:title=" ">
<polygon fill="white" stroke="#bfbfbf" points="459,-375.5 459,-432.5 515,-432.5 515,-375.5 459,-375.5"/>
<text text-anchor="middle" x="487" y="-420.5" font-family="Helvetica,sans-Serif" font-size="10.00">uint32_t</text>
<polyline fill="none" stroke="#bfbfbf" points="459,-413.5 515,-413.5 "/>
<text text-anchor="middle" x="487" y="-401.5" font-family="Helvetica,sans-Serif" font-size="10.00"> </text>
<polyline fill="none" stroke="#bfbfbf" points="459,-394.5 515,-394.5 "/>
<text text-anchor="middle" x="487" y="-382.5" font-family="Helvetica,sans-Serif" font-size="10.00"> </text>
</a>
</g>
</g>
<!-- Node3&#45;&gt;Node1 -->
<g id="edge2" class="edge">
<title>Node3&#45;&gt;Node1</title>
<path fill="none" stroke="#404040" d="M465.43,-375.49C452.25,-356.98 436.53,-331.39 429,-306 413.73,-254.53 411.66,-194.02 413.31,-146.96"/>
<polygon fill="none" stroke="#404040" points="413.32,-146.67 409.58,-140.51 413.84,-134.68 417.58,-140.85 413.32,-146.67"/>
<text text-anchor="middle" x="482" y="-252.5" font-family="Helvetica,sans-Serif" font-size="10.00"> &#45;m_ColorAttachment</text>
<text text-anchor="middle" x="482" y="-241.5" font-family="Helvetica,sans-Serif" font-size="10.00">&#45;m_DepthAttachment</text>
<text text-anchor="middle" x="482" y="-230.5" font-family="Helvetica,sans-Serif" font-size="10.00">&#45;m_RendererID</text>
</g>
<!-- Node4 -->
<g id="node4" class="node">
<title>Node4</title>
<g id="a_node4"><a xlink:href="namespacegauri.html#structgauri_1_1FrameBufferSpecification" target="_top" xlink:title=" ">
<polygon fill="white" stroke="black" points="544,-215.5 544,-272.5 714,-272.5 714,-215.5 544,-215.5"/>
<text text-anchor="middle" x="629" y="-260.5" font-family="Helvetica,sans-Serif" font-size="10.00">gauri::FrameBufferSpecification</text>
<polyline fill="none" stroke="black" points="544,-253.5 714,-253.5 "/>
<text text-anchor="middle" x="629" y="-241.5" font-family="Helvetica,sans-Serif" font-size="10.00"> </text>
<polyline fill="none" stroke="black" points="544,-234.5 714,-234.5 "/>
<text text-anchor="middle" x="629" y="-222.5" font-family="Helvetica,sans-Serif" font-size="10.00"> </text>
</a>
</g>
</g>
<!-- Node3&#45;&gt;Node4 -->
<g id="edge4" class="edge">
<title>Node3&#45;&gt;Node4</title>
<path fill="none" stroke="#404040" d="M511.73,-375.48C535.01,-349.58 570.03,-310.62 595.74,-282.01"/>
<polygon fill="none" stroke="#404040" points="596.05,-281.66 597.09,-274.53 604.07,-272.74 603.04,-279.87 596.05,-281.66"/>
<text text-anchor="middle" x="583.5" y="-349" font-family="Helvetica,sans-Serif" font-size="10.00"> +Height</text>
<text text-anchor="middle" x="583.5" y="-338" font-family="Helvetica,sans-Serif" font-size="10.00">+Samples</text>
<text text-anchor="middle" x="583.5" y="-327" font-family="Helvetica,sans-Serif" font-size="10.00">+Width</text>
</g>
<!-- Node4&#45;&gt;Node1 -->
<g id="edge3" class="edge">
<title>Node4&#45;&gt;Node1</title>
<path fill="none" stroke="#404040" d="M595.88,-215.35C572.41,-195.75 539.74,-168.48 508.92,-142.74"/>
<polygon fill="none" stroke="#404040" points="508.64,-142.51 501.47,-141.73 499.42,-134.81 506.59,-135.59 508.64,-142.51"/>
<text text-anchor="middle" x="572.5" y="-156" font-family="Helvetica,sans-Serif" font-size="10.00"> &#45;m_Specification</text>
</g>
<!-- Node5 -->
<g id="node5" class="node">
<title>Node5</title>
<g id="a_node5"><a xlink:title=" ">
<polygon fill="white" stroke="#bfbfbf" points="610,-375.5 610,-432.5 648,-432.5 648,-375.5 610,-375.5"/>
<text text-anchor="middle" x="629" y="-420.5" font-family="Helvetica,sans-Serif" font-size="10.00">bool</text>
<polyline fill="none" stroke="#bfbfbf" points="610,-413.5 648,-413.5 "/>
<text text-anchor="middle" x="629" y="-401.5" font-family="Helvetica,sans-Serif" font-size="10.00"> </text>
<polyline fill="none" stroke="#bfbfbf" points="610,-394.5 648,-394.5 "/>
<text text-anchor="middle" x="629" y="-382.5" font-family="Helvetica,sans-Serif" font-size="10.00"> </text>
</a>
</g>
</g>
<!-- Node5&#45;&gt;Node4 -->
<g id="edge5" class="edge">
<title>Node5&#45;&gt;Node4</title>
<path fill="none" stroke="#404040" d="M629,-375.48C629,-350.48 629,-313.31 629,-285.03"/>
<polygon fill="none" stroke="#404040" points="629,-284.74 625,-278.74 629,-272.74 633,-278.74 629,-284.74"/>
<text text-anchor="middle" x="677" y="-338" font-family="Helvetica,sans-Serif" font-size="10.00"> +SwapChainTarget</text>
</g>
</g>
</svg>
        <g id="navigator" transform="translate(0 0)" fill="#404254">
                <rect fill="#f2f5e9" fill-opacity="0.5" stroke="#606060" stroke-width=".5" x="0" y="0" width="60" height="60"/>
                <use id="zoomplus" xlink:href="#zoomPlus" x="17" y="9" onmousedown="handleZoom(evt,'in')"/>
                <use id="zoomminus" xlink:href="#zoomMin" x="42" y="9" onmousedown="handleZoom(evt,'out')"/>
                <use id="reset" xlink:href="#resetDef" x="30" y="36" onmousedown="handleReset()"/>
                <g id="arrowUp" xlink:href="#dirArrow" transform="translate(30 24)" onmousedown="handlePan(0,-1)">
                  <use xlink:href="#rim" fill="#404040">
                        <set attributeName="fill" to="#808080" begin="arrowUp.mouseover" end="arrowUp.mouseout"/>
                  </use>
                  <path fill="none" stroke="white" stroke-width="1.5" d="M0,-3.0v7 M-2.5,-0.5L0,-3.0L2.5,-0.5"/>
                </g>
                <g id="arrowRight" xlink:href="#dirArrow" transform="rotate(90) translate(36 -43)" onmousedown="handlePan(1,0)">
                  <use xlink:href="#rim" fill="#404040">
                        <set attributeName="fill" to="#808080" begin="arrowRight.mouseover" end="arrowRight.mouseout"/>
                  </use>
                  <path fill="none" stroke="white" stroke-width="1.5" d="M0,-3.0v7 M-2.5,-0.5L0,-3.0L2.5,-0.5"/>
                </g>
                <g id="arrowDown" xlink:href="#dirArrow" transform="rotate(180) translate(-30 -48)" onmousedown="handlePan(0,1)">
                  <use xlink:href="#rim" fill="#404040">
                        <set attributeName="fill" to="#808080" begin="arrowDown.mouseover" end="arrowDown.mouseout"/>
                  </use>
                  <path fill="none" stroke="white" stroke-width="1.5" d="M0,-3.0v7 M-2.5,-0.5L0,-3.0L2.5,-0.5"/>
                </g>
                <g id="arrowLeft" xlink:href="#dirArrow" transform="rotate(270) translate(-36 17)" onmousedown="handlePan(-1,0)">
                  <use xlink:href="#rim" fill="#404040">
                        <set attributeName="fill" to="#808080" begin="arrowLeft.mouseover" end="arrowLeft.mouseout"/>
                  </use>
                  <path fill="none" stroke="white" stroke-width="1.5" d="M0,-3.0v7 M-2.5,-0.5L0,-3.0L2.5,-0.5"/>
                </g>
        </g>
        <svg viewBox="0 0 15 15" width="100%" height="30px" preserveAspectRatio="xMaxYMin meet">
         <g id="arrow_out" transform="scale(0.3 0.3)">
          <a xlink:href="classgauri_1_1OpenGLFrameBuffer__coll__graph_org.svg" target="_base">
           <rect id="button" ry="5" rx="5" y="6" x="6" height="38" width="38"
                fill="#f2f5e9" fill-opacity="0.5" stroke="#606060" stroke-width="1.0"/>
           <path id="arrow"
             d="M 11.500037,31.436501 C 11.940474,20.09759 22.043105,11.32322 32.158766,21.979434 L 37.068811,17.246167 C 37.068811,17.246167 37.088388,32 37.088388,32 L 22.160133,31.978069 C 22.160133,31.978069 26.997745,27.140456 26.997745,27.140456 C 18.528582,18.264221 13.291696,25.230495 11.500037,31.436501 z"
             style="fill:#404040;"/>
          </a>
         </g>
        </svg>
</svg>
