<?xml version="1.0" encoding="UTF-8" standalone="no"?>
<!DOCTYPE svg PUBLIC "-//W3C//DTD SVG 1.1//EN"
 "http://www.w3.org/Graphics/SVG/1.1/DTD/svg11.dtd">
<!-- Generated by graphviz version 2.43.0 (0)
 -->
<!-- Title: gauri::WindowsWindow Pages: 1 -->
<!--zoomable 580 -->
<svg id="main" version="1.1" xmlns="http://www.w3.org/2000/svg" xmlns:xlink="http://www.w3.org/1999/xlink" xml:space="preserve" onload="init(evt)">
<style type="text/css"><![CDATA[
.edge:hover path { stroke: red; }
.edge:hover polygon { stroke: red; fill: red; }
]]></style>
<script type="text/javascript"><![CDATA[
var edges = document.getElementsByTagName('g');
if (edges && edges.length) {
  for (var i=0;i<edges.length;i++) {
    if (edges[i].id.substr(0,4)=='edge') {
      edges[i].setAttribute('class','edge');
    }
  }
}
]]></script>
        <defs>
                <circle id="rim" cx="0" cy="0" r="7"/>
                <circle id="rim2" cx="0" cy="0" r="3.5"/>
                <g id="zoomPlus">
                        <use xlink:href="#rim" fill="#404040">
                                <set attributeName="fill" to="#808080" begin="zoomplus.mouseover" end="zoomplus.mouseout"/>
                        </use>
                        <path d="M-4,0h8M0,-4v8" fill="none" stroke="white" stroke-width="1.5" pointer-events="none"/>
                </g>
                <g id="zoomMin">
                        <use xlink:href="#rim" fill="#404040">
                                <set attributeName="fill" to="#808080" begin="zoomminus.mouseover" end="zoomminus.mouseout"/>
                        </use>
                        <path d="M-4,0h8" fill="none" stroke="white" stroke-width="1.5" pointer-events="none"/>
                </g>
                <g id="dirArrow">
                        <path fill="none" stroke="white" stroke-width="1.5" d="M0,-3.0v7 M-2.5,-0.5L0,-3.0L2.5,-0.5"/>
                </g>
               <g id="resetDef">
                       <use xlink:href="#rim2" fill="#404040">
                               <set attributeName="fill" to="#808080" begin="reset.mouseover" end="reset.mouseout"/>
                       </use>
               </g>
        </defs>

<script type="text/javascript">
var viewWidth = 988;
var viewHeight = 580;
var sectionId = 'dynsection-1';
</script>
<script xlink:href="svgpan.js"/>
<svg id="graph" class="graph">
<g id="viewport">
<title>gauri::WindowsWindow</title>
<polygon fill="white" stroke="transparent" points="-4,4 -4,-576 984,-576 984,4 -4,4"/>
<!-- Node1 -->
<g id="node1" class="node">
<title>Node1</title>
<g id="a_node1"><a xlink:title=" ">
<polygon fill="#bfbfbf" stroke="black" points="385,-0.5 385,-167.5 735,-167.5 735,-0.5 385,-0.5"/>
<text text-anchor="middle" x="560" y="-155.5" font-family="Helvetica,sans-Serif" font-size="10.00">gauri::WindowsWindow</text>
<polyline fill="none" stroke="black" points="385,-148.5 735,-148.5 "/>
<text text-anchor="middle" x="560" y="-136.5" font-family="Helvetica,sans-Serif" font-size="10.00"> </text>
<polyline fill="none" stroke="black" points="385,-129.5 735,-129.5 "/>
<text text-anchor="start" x="393" y="-117.5" font-family="Helvetica,sans-Serif" font-size="10.00">+ WindowsWindow(const WindowProperty &amp;props)</text>
<text text-anchor="start" x="393" y="-106.5" font-family="Helvetica,sans-Serif" font-size="10.00">+ ~WindowsWindow() override</text>
<text text-anchor="start" x="393" y="-95.5" font-family="Helvetica,sans-Serif" font-size="10.00">+ void OnUpdate() override</text>
<text text-anchor="start" x="393" y="-84.5" font-family="Helvetica,sans-Serif" font-size="10.00">+ uint32_t GetWidth() const override</text>
<text text-anchor="start" x="393" y="-73.5" font-family="Helvetica,sans-Serif" font-size="10.00">+ uint32_t GetHeight() const override</text>
<text text-anchor="start" x="393" y="-62.5" font-family="Helvetica,sans-Serif" font-size="10.00">+ void SetEventCallback(const EventCallbackFn &amp;callback) override</text>
<text text-anchor="start" x="393" y="-51.5" font-family="Helvetica,sans-Serif" font-size="10.00">+ void SetVSync(bool enabled) override</text>
<text text-anchor="start" x="393" y="-40.5" font-family="Helvetica,sans-Serif" font-size="10.00">+ bool IsVSync() const override</text>
<text text-anchor="start" x="393" y="-29.5" font-family="Helvetica,sans-Serif" font-size="10.00">+ void * GetNativeWindow() const override</text>
<text text-anchor="start" x="393" y="-18.5" font-family="Helvetica,sans-Serif" font-size="10.00">&#45; virtual void Init(const WindowProperty &amp;props)</text>
<text text-anchor="start" x="393" y="-7.5" font-family="Helvetica,sans-Serif" font-size="10.00">&#45; virtual void Shutdown()</text>
</a>
</g>
</g>
<!-- Node2 -->
<g id="node2" class="node">
<title>Node2</title>
<g id="a_node2"><a xlink:href="classgauri_1_1Window.html" target="_top" xlink:title=" ">
<polygon fill="white" stroke="black" points="0,-215.5 0,-360.5 434,-360.5 434,-215.5 0,-215.5"/>
<text text-anchor="middle" x="217" y="-348.5" font-family="Helvetica,sans-Serif" font-size="10.00">gauri::Window</text>
<polyline fill="none" stroke="black" points="0,-341.5 434,-341.5 "/>
<text text-anchor="middle" x="217" y="-329.5" font-family="Helvetica,sans-Serif" font-size="10.00"> </text>
<polyline fill="none" stroke="black" points="0,-322.5 434,-322.5 "/>
<text text-anchor="start" x="8" y="-310.5" font-family="Helvetica,sans-Serif" font-size="10.00">+ virtual ~Window()=default</text>
<text text-anchor="start" x="8" y="-299.5" font-family="Helvetica,sans-Serif" font-size="10.00">+ virtual void OnUpdate()=0</text>
<text text-anchor="start" x="8" y="-288.5" font-family="Helvetica,sans-Serif" font-size="10.00">+ virtual uint32_t GetWidth() const =0</text>
<text text-anchor="start" x="8" y="-277.5" font-family="Helvetica,sans-Serif" font-size="10.00">+ virtual uint32_t GetHeight() const =0</text>
<text text-anchor="start" x="8" y="-266.5" font-family="Helvetica,sans-Serif" font-size="10.00">+ virtual void SetEventCallback(const EventCallbackFn &amp;callback)=0</text>
<text text-anchor="start" x="8" y="-255.5" font-family="Helvetica,sans-Serif" font-size="10.00">+ virtual void SetVSync(bool enabled)=0</text>
<text text-anchor="start" x="8" y="-244.5" font-family="Helvetica,sans-Serif" font-size="10.00">+ virtual bool IsVSync() const =0</text>
<text text-anchor="start" x="8" y="-233.5" font-family="Helvetica,sans-Serif" font-size="10.00">+ virtual void * GetNativeWindow() const =0</text>
<text text-anchor="start" x="8" y="-222.5" font-family="Helvetica,sans-Serif" font-size="10.00">+ static Scope&lt; Window &gt; Create(const WindowProperty &amp;props=WindowProperty())</text>
</a>
</g>
</g>
<!-- Node2&#45;&gt;Node1 -->
<g id="edge1" class="edge">
<title>Node2&#45;&gt;Node1</title>
<path fill="none" stroke="midnightblue" d="M347.1,-210.38C370.84,-196.4 395.7,-181.76 419.71,-167.62"/>
<polygon fill="none" stroke="midnightblue" points="345.25,-207.41 338.41,-215.5 348.8,-213.44 345.25,-207.41"/>
</g>
<!-- Node3 -->
<g id="node3" class="node">
<title>Node3</title>
<g id="a_node3"><a xlink:title=" ">
<polygon fill="white" stroke="#bfbfbf" points="452.5,-259.5 452.5,-316.5 543.5,-316.5 543.5,-259.5 452.5,-259.5"/>
<text text-anchor="middle" x="498" y="-304.5" font-family="Helvetica,sans-Serif" font-size="10.00">GLFWwindow *</text>
<polyline fill="none" stroke="#bfbfbf" points="452.5,-297.5 543.5,-297.5 "/>
<text text-anchor="middle" x="498" y="-285.5" font-family="Helvetica,sans-Serif" font-size="10.00"> </text>
<polyline fill="none" stroke="#bfbfbf" points="452.5,-278.5 543.5,-278.5 "/>
<text text-anchor="middle" x="498" y="-266.5" font-family="Helvetica,sans-Serif" font-size="10.00"> </text>
</a>
</g>
</g>
<!-- Node3&#45;&gt;Node1 -->
<g id="edge2" class="edge">
<title>Node3&#45;&gt;Node1</title>
<path fill="none" stroke="#404040" d="M506.49,-259.34C512.9,-238.45 522.1,-208.47 531.07,-179.26"/>
<polygon fill="none" stroke="#404040" points="531.1,-179.16 529.04,-172.25 534.62,-167.69 536.68,-174.6 531.1,-179.16"/>
<text text-anchor="middle" x="559.5" y="-189" font-family="Helvetica,sans-Serif" font-size="10.00"> &#45;m_Window</text>
</g>
<!-- Node4 -->
<g id="node4" class="node">
<title>Node4</title>
<g id="a_node4"><a xlink:href="classgauri_1_1WindowsWindow.html#structgauri_1_1WindowsWindow_1_1WindowData" target="_top" xlink:title=" ">
<polygon fill="white" stroke="black" points="562,-259.5 562,-316.5 760,-316.5 760,-259.5 562,-259.5"/>
<text text-anchor="middle" x="661" y="-304.5" font-family="Helvetica,sans-Serif" font-size="10.00">gauri::WindowsWindow::WindowData</text>
<polyline fill="none" stroke="black" points="562,-297.5 760,-297.5 "/>
<text text-anchor="middle" x="661" y="-285.5" font-family="Helvetica,sans-Serif" font-size="10.00"> </text>
<polyline fill="none" stroke="black" points="562,-278.5 760,-278.5 "/>
<text text-anchor="middle" x="661" y="-266.5" font-family="Helvetica,sans-Serif" font-size="10.00"> </text>
</a>
</g>
</g>
<!-- Node4&#45;&gt;Node1 -->
<g id="edge3" class="edge">
<title>Node4&#45;&gt;Node1</title>
<path fill="none" stroke="#404040" d="M647.17,-259.34C636.63,-238.26 621.47,-207.94 606.74,-178.48"/>
<polygon fill="none" stroke="#404040" points="606.71,-178.42 600.45,-174.84 601.34,-167.69 607.6,-171.26 606.71,-178.42"/>
<text text-anchor="middle" x="637" y="-189" font-family="Helvetica,sans-Serif" font-size="10.00"> &#45;m_Data</text>
</g>
<!-- Node5 -->
<g id="node5" class="node">
<title>Node5</title>
<g id="a_node5"><a xlink:title=" ">
<polygon fill="white" stroke="#bfbfbf" points="485,-419.5 485,-476.5 541,-476.5 541,-419.5 485,-419.5"/>
<text text-anchor="middle" x="513" y="-464.5" font-family="Helvetica,sans-Serif" font-size="10.00">uint32_t</text>
<polyline fill="none" stroke="#bfbfbf" points="485,-457.5 541,-457.5 "/>
<text text-anchor="middle" x="513" y="-445.5" font-family="Helvetica,sans-Serif" font-size="10.00"> </text>
<polyline fill="none" stroke="#bfbfbf" points="485,-438.5 541,-438.5 "/>
<text text-anchor="middle" x="513" y="-426.5" font-family="Helvetica,sans-Serif" font-size="10.00"> </text>
</a>
</g>
</g>
<!-- Node5&#45;&gt;Node4 -->
<g id="edge4" class="edge">
<title>Node5&#45;&gt;Node4</title>
<path fill="none" stroke="#404040" d="M526.87,-419.47C534.06,-406.52 543.52,-391.26 554,-379 571.13,-358.95 592.99,-339.71 612.49,-324.2"/>
<polygon fill="none" stroke="#404040" points="612.67,-324.06 614.94,-317.21 622.13,-316.67 619.86,-323.52 612.67,-324.06"/>
<text text-anchor="middle" x="576" y="-393" font-family="Helvetica,sans-Serif" font-size="10.00"> +Height</text>
<text text-anchor="middle" x="576" y="-382" font-family="Helvetica,sans-Serif" font-size="10.00">+Width</text>
</g>
<!-- Node6 -->
<g id="node6" class="node">
<title>Node6</title>
<g id="a_node6"><a xlink:title=" ">
<polygon fill="white" stroke="#bfbfbf" points="559,-419.5 559,-476.5 657,-476.5 657,-419.5 559,-419.5"/>
<text text-anchor="middle" x="608" y="-464.5" font-family="Helvetica,sans-Serif" font-size="10.00">EventCallbackFn</text>
<polyline fill="none" stroke="#bfbfbf" points="559,-457.5 657,-457.5 "/>
<text text-anchor="middle" x="608" y="-445.5" font-family="Helvetica,sans-Serif" font-size="10.00"> </text>
<polyline fill="none" stroke="#bfbfbf" points="559,-438.5 657,-438.5 "/>
<text text-anchor="middle" x="608" y="-426.5" font-family="Helvetica,sans-Serif" font-size="10.00"> </text>
</a>
</g>
</g>
<!-- Node6&#45;&gt;Node4 -->
<g id="edge5" class="edge">
<title>Node6&#45;&gt;Node4</title>
<path fill="none" stroke="#404040" d="M602.84,-419.4C601.49,-406.85 601.3,-391.95 605,-379 610.3,-360.45 620.65,-342.01 631.02,-326.69"/>
<polygon fill="none" stroke="#404040" points="631.21,-326.42 631.41,-319.21 638.14,-316.62 637.94,-323.83 631.21,-326.42"/>
<text text-anchor="middle" x="646" y="-387.5" font-family="Helvetica,sans-Serif" font-size="10.00"> +EventCallback</text>
</g>
<!-- Node7 -->
<g id="node7" class="node">
<title>Node7</title>
<g id="a_node7"><a xlink:title=" ">
<polygon fill="white" stroke="#bfbfbf" points="694,-419.5 694,-476.5 732,-476.5 732,-419.5 694,-419.5"/>
<text text-anchor="middle" x="713" y="-464.5" font-family="Helvetica,sans-Serif" font-size="10.00">bool</text>
<polyline fill="none" stroke="#bfbfbf" points="694,-457.5 732,-457.5 "/>
<text text-anchor="middle" x="713" y="-445.5" font-family="Helvetica,sans-Serif" font-size="10.00"> </text>
<polyline fill="none" stroke="#bfbfbf" points="694,-438.5 732,-438.5 "/>
<text text-anchor="middle" x="713" y="-426.5" font-family="Helvetica,sans-Serif" font-size="10.00"> </text>
</a>
</g>
</g>
<!-- Node7&#45;&gt;Node4 -->
<g id="edge6" class="edge">
<title>Node7&#45;&gt;Node4</title>
<path fill="none" stroke="#404040" d="M704.06,-419.19C700.09,-406.87 695.34,-392.2 691,-379 685.51,-362.29 679.38,-343.86 674.1,-328.06"/>
<polygon fill="none" stroke="#404040" points="674.06,-327.93 668.36,-323.51 670.25,-316.55 675.95,-320.97 674.06,-327.93"/>
<text text-anchor="middle" x="718" y="-387.5" font-family="Helvetica,sans-Serif" font-size="10.00"> +VSync</text>
</g>
<!-- Node8 -->
<g id="node8" class="node">
<title>Node8</title>
<g id="a_node8"><a xlink:title=" ">
<polygon fill="white" stroke="#bfbfbf" points="750.5,-419.5 750.5,-476.5 815.5,-476.5 815.5,-419.5 750.5,-419.5"/>
<text text-anchor="middle" x="783" y="-464.5" font-family="Helvetica,sans-Serif" font-size="10.00">std::string</text>
<polyline fill="none" stroke="#bfbfbf" points="750.5,-457.5 815.5,-457.5 "/>
<text text-anchor="middle" x="783" y="-445.5" font-family="Helvetica,sans-Serif" font-size="10.00"> </text>
<polyline fill="none" stroke="#bfbfbf" points="750.5,-438.5 815.5,-438.5 "/>
<text text-anchor="middle" x="783" y="-426.5" font-family="Helvetica,sans-Serif" font-size="10.00"> </text>
</a>
</g>
</g>
<!-- Node8&#45;&gt;Node4 -->
<g id="edge7" class="edge">
<title>Node8&#45;&gt;Node4</title>
<path fill="none" stroke="#404040" d="M768.47,-419.38C761.37,-406.69 752.35,-391.68 743,-379 729.37,-360.51 712.53,-341.5 697.67,-325.74"/>
<polygon fill="none" stroke="#404040" points="697.48,-325.55 690.44,-323.97 689.19,-316.87 696.23,-318.44 697.48,-325.55"/>
<text text-anchor="middle" x="774" y="-387.5" font-family="Helvetica,sans-Serif" font-size="10.00"> +Title</text>
</g>
<!-- Node9 -->
<g id="node9" class="node">
<title>Node9</title>
<g id="a_node9"><a xlink:title=" ">
<polygon fill="white" stroke="#bfbfbf" points="712.5,-514.5 712.5,-571.5 853.5,-571.5 853.5,-514.5 712.5,-514.5"/>
<text text-anchor="middle" x="783" y="-559.5" font-family="Helvetica,sans-Serif" font-size="10.00">std::basic_string&lt; Char &gt;</text>
<polyline fill="none" stroke="#bfbfbf" points="712.5,-552.5 853.5,-552.5 "/>
<text text-anchor="middle" x="783" y="-540.5" font-family="Helvetica,sans-Serif" font-size="10.00"> </text>
<polyline fill="none" stroke="#bfbfbf" points="712.5,-533.5 853.5,-533.5 "/>
<text text-anchor="middle" x="783" y="-521.5" font-family="Helvetica,sans-Serif" font-size="10.00"> </text>
</a>
</g>
</g>
<!-- Node9&#45;&gt;Node8 -->
<g id="edge8" class="edge">
<title>Node9&#45;&gt;Node8</title>
<path fill="none" stroke="midnightblue" d="M783,-504.24C783,-495.03 783,-485.35 783,-476.71"/>
<polygon fill="none" stroke="midnightblue" points="779.5,-504.35 783,-514.35 786.5,-504.35 779.5,-504.35"/>
</g>
<!-- Node10 -->
<g id="node10" class="node">
<title>Node10</title>
<g id="a_node10"><a xlink:href="classgauri_1_1GraphicsContext.html" target="_top" xlink:title=" ">
<polygon fill="white" stroke="black" points="778,-248.5 778,-327.5 980,-327.5 980,-248.5 778,-248.5"/>
<text text-anchor="middle" x="879" y="-315.5" font-family="Helvetica,sans-Serif" font-size="10.00">gauri::GraphicsContext</text>
<polyline fill="none" stroke="black" points="778,-308.5 980,-308.5 "/>
<text text-anchor="middle" x="879" y="-296.5" font-family="Helvetica,sans-Serif" font-size="10.00"> </text>
<polyline fill="none" stroke="black" points="778,-289.5 980,-289.5 "/>
<text text-anchor="start" x="786" y="-277.5" font-family="Helvetica,sans-Serif" font-size="10.00">+ virtual ~GraphicsContext()=default</text>
<text text-anchor="start" x="786" y="-266.5" font-family="Helvetica,sans-Serif" font-size="10.00">+ virtual void Init()=0</text>
<text text-anchor="start" x="786" y="-255.5" font-family="Helvetica,sans-Serif" font-size="10.00">+ virtual void SwapBuffers()=0</text>
</a>
</g>
</g>
<!-- Node10&#45;&gt;Node1 -->
<g id="edge9" class="edge">
<title>Node10&#45;&gt;Node1</title>
<path fill="none" stroke="#404040" d="M820.65,-248.45C804.01,-237.55 785.84,-225.74 769,-215 748.09,-201.65 725.91,-187.68 704.12,-174.04"/>
<polygon fill="none" stroke="#404040" points="703.98,-173.95 696.77,-174.16 693.8,-167.59 701.01,-167.38 703.98,-173.95"/>
<text text-anchor="middle" x="764.5" y="-189" font-family="Helvetica,sans-Serif" font-size="10.00"> &#45;m_Context</text>
</g>
</g>
</svg>
        <g id="navigator" transform="translate(0 0)" fill="#404254">
                <rect fill="#f2f5e9" fill-opacity="0.5" stroke="#606060" stroke-width=".5" x="0" y="0" width="60" height="60"/>
                <use id="zoomplus" xlink:href="#zoomPlus" x="17" y="9" onmousedown="handleZoom(evt,'in')"/>
                <use id="zoomminus" xlink:href="#zoomMin" x="42" y="9" onmousedown="handleZoom(evt,'out')"/>
                <use id="reset" xlink:href="#resetDef" x="30" y="36" onmousedown="handleReset()"/>
                <g id="arrowUp" xlink:href="#dirArrow" transform="translate(30 24)" onmousedown="handlePan(0,-1)">
                  <use xlink:href="#rim" fill="#404040">
                        <set attributeName="fill" to="#808080" begin="arrowUp.mouseover" end="arrowUp.mouseout"/>
                  </use>
                  <path fill="none" stroke="white" stroke-width="1.5" d="M0,-3.0v7 M-2.5,-0.5L0,-3.0L2.5,-0.5"/>
                </g>
                <g id="arrowRight" xlink:href="#dirArrow" transform="rotate(90) translate(36 -43)" onmousedown="handlePan(1,0)">
                  <use xlink:href="#rim" fill="#404040">
                        <set attributeName="fill" to="#808080" begin="arrowRight.mouseover" end="arrowRight.mouseout"/>
                  </use>
                  <path fill="none" stroke="white" stroke-width="1.5" d="M0,-3.0v7 M-2.5,-0.5L0,-3.0L2.5,-0.5"/>
                </g>
                <g id="arrowDown" xlink:href="#dirArrow" transform="rotate(180) translate(-30 -48)" onmousedown="handlePan(0,1)">
                  <use xlink:href="#rim" fill="#404040">
                        <set attributeName="fill" to="#808080" begin="arrowDown.mouseover" end="arrowDown.mouseout"/>
                  </use>
                  <path fill="none" stroke="white" stroke-width="1.5" d="M0,-3.0v7 M-2.5,-0.5L0,-3.0L2.5,-0.5"/>
                </g>
                <g id="arrowLeft" xlink:href="#dirArrow" transform="rotate(270) translate(-36 17)" onmousedown="handlePan(-1,0)">
                  <use xlink:href="#rim" fill="#404040">
                        <set attributeName="fill" to="#808080" begin="arrowLeft.mouseover" end="arrowLeft.mouseout"/>
                  </use>
                  <path fill="none" stroke="white" stroke-width="1.5" d="M0,-3.0v7 M-2.5,-0.5L0,-3.0L2.5,-0.5"/>
                </g>
        </g>
        <svg viewBox="0 0 15 15" width="100%" height="30px" preserveAspectRatio="xMaxYMin meet">
         <g id="arrow_out" transform="scale(0.3 0.3)">
          <a xlink:href="classgauri_1_1WindowsWindow__coll__graph_org.svg" target="_base">
           <rect id="button" ry="5" rx="5" y="6" x="6" height="38" width="38"
                fill="#f2f5e9" fill-opacity="0.5" stroke="#606060" stroke-width="1.0"/>
           <path id="arrow"
             d="M 11.500037,31.436501 C 11.940474,20.09759 22.043105,11.32322 32.158766,21.979434 L 37.068811,17.246167 C 37.068811,17.246167 37.088388,32 37.088388,32 L 22.160133,31.978069 C 22.160133,31.978069 26.997745,27.140456 26.997745,27.140456 C 18.528582,18.264221 13.291696,25.230495 11.500037,31.436501 z"
             style="fill:#404040;"/>
          </a>
         </g>
        </svg>
</svg>
