<?xml version="1.0" encoding="UTF-8" standalone="no"?>
<!DOCTYPE svg PUBLIC "-//W3C//DTD SVG 1.1//EN"
 "http://www.w3.org/Graphics/SVG/1.1/DTD/svg11.dtd">
<!-- Generated by graphviz version 2.43.0 (0)
 -->
<!-- Title: gauri::Application Pages: 1 -->
<svg width="869pt" height="892pt"
 viewBox="0.00 0.00 868.50 892.00" xmlns="http://www.w3.org/2000/svg" xmlns:xlink="http://www.w3.org/1999/xlink">
<g id="graph0" class="graph" transform="scale(1 1) rotate(0) translate(4 888)">
<title>gauri::Application</title>
<polygon fill="white" stroke="transparent" points="-4,4 -4,-888 864.5,-888 864.5,4 -4,4"/>
<!-- Node1 -->
<g id="node1" class="node">
<title>Node1</title>
<g id="a_node1"><a xlink:title=" ">
<polygon fill="#bfbfbf" stroke="black" points="365,-0.5 365,-156.5 620,-156.5 620,-0.5 365,-0.5"/>
<text text-anchor="middle" x="492.5" y="-144.5" font-family="Helvetica,sans-Serif" font-size="10.00">gauri::Application</text>
<polyline fill="none" stroke="black" points="365,-137.5 620,-137.5 "/>
<text text-anchor="middle" x="492.5" y="-125.5" font-family="Helvetica,sans-Serif" font-size="10.00"> </text>
<polyline fill="none" stroke="black" points="365,-118.5 620,-118.5 "/>
<text text-anchor="start" x="373" y="-106.5" font-family="Helvetica,sans-Serif" font-size="10.00">+ Application()</text>
<text text-anchor="start" x="373" y="-95.5" font-family="Helvetica,sans-Serif" font-size="10.00">+ virtual ~Application()</text>
<text text-anchor="start" x="373" y="-84.5" font-family="Helvetica,sans-Serif" font-size="10.00">+ void Run()</text>
<text text-anchor="start" x="373" y="-73.5" font-family="Helvetica,sans-Serif" font-size="10.00">+ void OnEvent(Event &amp;e)</text>
<text text-anchor="start" x="373" y="-62.5" font-family="Helvetica,sans-Serif" font-size="10.00">+ void PushLayer(Layer *layer)</text>
<text text-anchor="start" x="373" y="-51.5" font-family="Helvetica,sans-Serif" font-size="10.00">+ void PushOverlay(Layer *overlay)</text>
<text text-anchor="start" x="373" y="-40.5" font-family="Helvetica,sans-Serif" font-size="10.00">+ Window &amp; GetWindow()</text>
<text text-anchor="start" x="373" y="-29.5" font-family="Helvetica,sans-Serif" font-size="10.00">+ static Application &amp; Get()</text>
<text text-anchor="start" x="373" y="-18.5" font-family="Helvetica,sans-Serif" font-size="10.00">&#45; bool OnWindowClose(WindowCloseEvent &amp;e)</text>
<text text-anchor="start" x="373" y="-7.5" font-family="Helvetica,sans-Serif" font-size="10.00">&#45; bool OnWindowResize(WindowResizeEvent &amp;e)</text>
</a>
</g>
</g>
<!-- Node1&#45;&gt;Node1 -->
<g id="edge14" class="edge">
<title>Node1&#45;&gt;Node1</title>
<path fill="none" stroke="#404040" d="M620.19,-94.01C631.16,-90.71 638,-85.54 638,-78.5 638,-74.32 635.59,-70.8 631.33,-67.94"/>
<polygon fill="none" stroke="#404040" points="631.16,-67.86 624.05,-69.08 620.19,-62.99 627.3,-61.77 631.16,-67.86"/>
<text text-anchor="middle" x="667.5" y="-76" font-family="Helvetica,sans-Serif" font-size="10.00"> &#45;s_Instance</text>
</g>
<!-- Node2 -->
<g id="node2" class="node">
<title>Node2</title>
<g id="a_node2"><a xlink:href="classgauri_1_1LayerStack.html" target="_top" xlink:title=" ">
<polygon fill="white" stroke="black" points="489,-215.5 489,-349.5 706,-349.5 706,-215.5 489,-215.5"/>
<text text-anchor="middle" x="597.5" y="-337.5" font-family="Helvetica,sans-Serif" font-size="10.00">gauri::LayerStack</text>
<polyline fill="none" stroke="black" points="489,-330.5 706,-330.5 "/>
<text text-anchor="middle" x="597.5" y="-318.5" font-family="Helvetica,sans-Serif" font-size="10.00"> </text>
<polyline fill="none" stroke="black" points="489,-311.5 706,-311.5 "/>
<text text-anchor="start" x="497" y="-299.5" font-family="Helvetica,sans-Serif" font-size="10.00">+ LayerStack()=default</text>
<text text-anchor="start" x="497" y="-288.5" font-family="Helvetica,sans-Serif" font-size="10.00">+ ~LayerStack()</text>
<text text-anchor="start" x="497" y="-277.5" font-family="Helvetica,sans-Serif" font-size="10.00">+ void PushLayer(Layer *layer)</text>
<text text-anchor="start" x="497" y="-266.5" font-family="Helvetica,sans-Serif" font-size="10.00">+ void PushOverlay(Layer *overlay)</text>
<text text-anchor="start" x="497" y="-255.5" font-family="Helvetica,sans-Serif" font-size="10.00">+ void PopLayer(Layer *layer)</text>
<text text-anchor="start" x="497" y="-244.5" font-family="Helvetica,sans-Serif" font-size="10.00">+ void PopOverlay(Layer *overlay)</text>
<text text-anchor="start" x="497" y="-233.5" font-family="Helvetica,sans-Serif" font-size="10.00">+ std::vector&lt; Layer * &gt;::iterator begin()</text>
<text text-anchor="start" x="497" y="-222.5" font-family="Helvetica,sans-Serif" font-size="10.00">+ std::vector&lt; Layer * &gt;::iterator end()</text>
</a>
</g>
</g>
<!-- Node2&#45;&gt;Node1 -->
<g id="edge1" class="edge">
<title>Node2&#45;&gt;Node1</title>
<path fill="none" stroke="#404040" d="M563.12,-215.36C555.2,-200.12 546.65,-183.67 538.33,-167.67"/>
<polygon fill="none" stroke="#404040" points="538.15,-167.32 531.83,-163.84 532.61,-156.67 538.93,-160.15 538.15,-167.32"/>
<text text-anchor="middle" x="588.5" y="-183.5" font-family="Helvetica,sans-Serif" font-size="10.00"> &#45;m_LayerStack</text>
</g>
<!-- Node3 -->
<g id="node3" class="node">
<title>Node3</title>
<g id="a_node3"><a xlink:title=" ">
<polygon fill="white" stroke="#bfbfbf" points="439.5,-444.5 439.5,-501.5 495.5,-501.5 495.5,-444.5 439.5,-444.5"/>
<text text-anchor="middle" x="467.5" y="-489.5" font-family="Helvetica,sans-Serif" font-size="10.00">uint32_t</text>
<polyline fill="none" stroke="#bfbfbf" points="439.5,-482.5 495.5,-482.5 "/>
<text text-anchor="middle" x="467.5" y="-470.5" font-family="Helvetica,sans-Serif" font-size="10.00"> </text>
<polyline fill="none" stroke="#bfbfbf" points="439.5,-463.5 495.5,-463.5 "/>
<text text-anchor="middle" x="467.5" y="-451.5" font-family="Helvetica,sans-Serif" font-size="10.00"> </text>
</a>
</g>
</g>
<!-- Node3&#45;&gt;Node2 -->
<g id="edge2" class="edge">
<title>Node3&#45;&gt;Node2</title>
<path fill="none" stroke="#404040" d="M465.5,-444.45C465.17,-422.3 467.69,-391.16 481.5,-368 483.29,-364.99 485.24,-362.06 487.32,-359.2"/>
<polygon fill="none" stroke="#404040" points="487.36,-359.15 487.98,-351.97 494.85,-349.78 494.23,-356.96 487.36,-359.15"/>
<text text-anchor="middle" x="533.5" y="-394.5" font-family="Helvetica,sans-Serif" font-size="10.00"> &#45;m_LayerInsertIndex</text>
</g>
<!-- Node4 -->
<g id="node4" class="node">
<title>Node4</title>
<g id="a_node4"><a xlink:title=" ">
<polygon fill="white" stroke="#bfbfbf" points="516,-444.5 516,-501.5 673,-501.5 673,-444.5 516,-444.5"/>
<text text-anchor="middle" x="594.5" y="-489.5" font-family="Helvetica,sans-Serif" font-size="10.00">std::vector&lt; gauri::Layer * &gt;</text>
<polyline fill="none" stroke="#bfbfbf" points="516,-482.5 673,-482.5 "/>
<text text-anchor="middle" x="594.5" y="-470.5" font-family="Helvetica,sans-Serif" font-size="10.00"> </text>
<polyline fill="none" stroke="#bfbfbf" points="516,-463.5 673,-463.5 "/>
<text text-anchor="middle" x="594.5" y="-451.5" font-family="Helvetica,sans-Serif" font-size="10.00"> </text>
</a>
</g>
</g>
<!-- Node4&#45;&gt;Node2 -->
<g id="edge3" class="edge">
<title>Node4&#45;&gt;Node2</title>
<path fill="none" stroke="#404040" d="M591.7,-444.3C591.2,-438.27 590.76,-431.93 590.5,-426 589.38,-400.25 589.44,-393.76 590.5,-368 590.58,-366.07 590.67,-364.12 590.77,-362.14"/>
<polygon fill="none" stroke="#404040" points="590.78,-361.87 587.14,-355.65 591.48,-349.89 595.13,-356.11 590.78,-361.87"/>
<text text-anchor="middle" x="618" y="-394.5" font-family="Helvetica,sans-Serif" font-size="10.00"> &#45;m_Layers</text>
</g>
<!-- Node5 -->
<g id="node5" class="node">
<title>Node5</title>
<g id="a_node5"><a xlink:href="classgauri_1_1Layer.html" target="_top" xlink:title=" ">
<polygon fill="white" stroke="black" points="154,-549.5 154,-683.5 377,-683.5 377,-549.5 154,-549.5"/>
<text text-anchor="middle" x="265.5" y="-671.5" font-family="Helvetica,sans-Serif" font-size="10.00">gauri::Layer</text>
<polyline fill="none" stroke="black" points="154,-664.5 377,-664.5 "/>
<text text-anchor="middle" x="265.5" y="-652.5" font-family="Helvetica,sans-Serif" font-size="10.00"> </text>
<polyline fill="none" stroke="black" points="154,-645.5 377,-645.5 "/>
<text text-anchor="start" x="162" y="-633.5" font-family="Helvetica,sans-Serif" font-size="10.00">+ Layer(const std::string &amp;name=&quot;Layer&quot;)</text>
<text text-anchor="start" x="162" y="-622.5" font-family="Helvetica,sans-Serif" font-size="10.00">+ virtual ~Layer()</text>
<text text-anchor="start" x="162" y="-611.5" font-family="Helvetica,sans-Serif" font-size="10.00">+ virtual void OnAttach()</text>
<text text-anchor="start" x="162" y="-600.5" font-family="Helvetica,sans-Serif" font-size="10.00">+ virtual void OnDetach()</text>
<text text-anchor="start" x="162" y="-589.5" font-family="Helvetica,sans-Serif" font-size="10.00">+ virtual void OnUpdate(Timestep ts)</text>
<text text-anchor="start" x="162" y="-578.5" font-family="Helvetica,sans-Serif" font-size="10.00">+ virtual void OnImGuiRender()</text>
<text text-anchor="start" x="162" y="-567.5" font-family="Helvetica,sans-Serif" font-size="10.00">+ virtual void OnEvent(Event &amp;)</text>
<text text-anchor="start" x="162" y="-556.5" font-family="Helvetica,sans-Serif" font-size="10.00">+ const std::string &amp; GetName() const</text>
</a>
</g>
</g>
<!-- Node5&#45;&gt;Node4 -->
<g id="edge4" class="edge">
<title>Node5&#45;&gt;Node4</title>
<path fill="none" stroke="#404040" d="M377.34,-567.4C424.1,-547.29 477.2,-524.45 519.19,-506.39"/>
<polygon fill="none" stroke="#404040" points="519.42,-506.29 523.35,-500.25 530.44,-501.55 526.51,-507.6 519.42,-506.29"/>
<text text-anchor="middle" x="508.5" y="-523" font-family="Helvetica,sans-Serif" font-size="10.00"> +elements</text>
</g>
<!-- Node15 -->
<g id="node15" class="node">
<title>Node15</title>
<g id="a_node15"><a xlink:href="classgauri_1_1ImGuiLayer.html" target="_top" xlink:title=" ">
<polygon fill="white" stroke="black" points="0,-226.5 0,-338.5 151,-338.5 151,-226.5 0,-226.5"/>
<text text-anchor="middle" x="75.5" y="-326.5" font-family="Helvetica,sans-Serif" font-size="10.00">gauri::ImGuiLayer</text>
<polyline fill="none" stroke="black" points="0,-319.5 151,-319.5 "/>
<text text-anchor="middle" x="75.5" y="-307.5" font-family="Helvetica,sans-Serif" font-size="10.00"> </text>
<polyline fill="none" stroke="black" points="0,-300.5 151,-300.5 "/>
<text text-anchor="start" x="8" y="-288.5" font-family="Helvetica,sans-Serif" font-size="10.00">+ ImGuiLayer()</text>
<text text-anchor="start" x="8" y="-277.5" font-family="Helvetica,sans-Serif" font-size="10.00">+ ~ImGuiLayer() override</text>
<text text-anchor="start" x="8" y="-266.5" font-family="Helvetica,sans-Serif" font-size="10.00">+ void OnAttach() override</text>
<text text-anchor="start" x="8" y="-255.5" font-family="Helvetica,sans-Serif" font-size="10.00">+ void OnDetach() override</text>
<text text-anchor="start" x="8" y="-244.5" font-family="Helvetica,sans-Serif" font-size="10.00">+ void Begin()</text>
<text text-anchor="start" x="8" y="-233.5" font-family="Helvetica,sans-Serif" font-size="10.00">+ void End()</text>
</a>
</g>
</g>
<!-- Node5&#45;&gt;Node15 -->
<g id="edge18" class="edge">
<title>Node5&#45;&gt;Node15</title>
<path fill="none" stroke="midnightblue" d="M179.14,-541.98C147.12,-509.79 113.9,-469.45 94.5,-426 82.34,-398.77 77.39,-365.91 75.57,-338.61"/>
<polygon fill="none" stroke="midnightblue" points="176.81,-544.6 186.38,-549.14 181.73,-539.62 176.81,-544.6"/>
</g>
<!-- Node6 -->
<g id="node6" class="node">
<title>Node6</title>
<g id="a_node6"><a xlink:title=" ">
<polygon fill="white" stroke="#bfbfbf" points="233,-731.5 233,-788.5 298,-788.5 298,-731.5 233,-731.5"/>
<text text-anchor="middle" x="265.5" y="-776.5" font-family="Helvetica,sans-Serif" font-size="10.00">std::string</text>
<polyline fill="none" stroke="#bfbfbf" points="233,-769.5 298,-769.5 "/>
<text text-anchor="middle" x="265.5" y="-757.5" font-family="Helvetica,sans-Serif" font-size="10.00"> </text>
<polyline fill="none" stroke="#bfbfbf" points="233,-750.5 298,-750.5 "/>
<text text-anchor="middle" x="265.5" y="-738.5" font-family="Helvetica,sans-Serif" font-size="10.00"> </text>
</a>
</g>
</g>
<!-- Node6&#45;&gt;Node5 -->
<g id="edge5" class="edge">
<title>Node6&#45;&gt;Node5</title>
<path fill="none" stroke="#404040" d="M265.5,-731.38C265.5,-721.02 265.5,-708.66 265.5,-695.97"/>
<polygon fill="none" stroke="#404040" points="265.5,-695.75 261.5,-689.75 265.5,-683.75 269.5,-689.75 265.5,-695.75"/>
<text text-anchor="middle" x="309.5" y="-705" font-family="Helvetica,sans-Serif" font-size="10.00"> #m_DebugName</text>
</g>
<!-- Node7 -->
<g id="node7" class="node">
<title>Node7</title>
<g id="a_node7"><a xlink:title=" ">
<polygon fill="white" stroke="#bfbfbf" points="195,-826.5 195,-883.5 336,-883.5 336,-826.5 195,-826.5"/>
<text text-anchor="middle" x="265.5" y="-871.5" font-family="Helvetica,sans-Serif" font-size="10.00">std::basic_string&lt; Char &gt;</text>
<polyline fill="none" stroke="#bfbfbf" points="195,-864.5 336,-864.5 "/>
<text text-anchor="middle" x="265.5" y="-852.5" font-family="Helvetica,sans-Serif" font-size="10.00"> </text>
<polyline fill="none" stroke="#bfbfbf" points="195,-845.5 336,-845.5 "/>
<text text-anchor="middle" x="265.5" y="-833.5" font-family="Helvetica,sans-Serif" font-size="10.00"> </text>
</a>
</g>
</g>
<!-- Node7&#45;&gt;Node6 -->
<g id="edge6" class="edge">
<title>Node7&#45;&gt;Node6</title>
<path fill="none" stroke="midnightblue" d="M265.5,-816.24C265.5,-807.03 265.5,-797.35 265.5,-788.71"/>
<polygon fill="none" stroke="midnightblue" points="262,-816.35 265.5,-826.35 269,-816.35 262,-816.35"/>
</g>
<!-- Node8 -->
<g id="node8" class="node">
<title>Node8</title>
<g id="a_node8"><a xlink:title=" ">
<polygon fill="white" stroke="#bfbfbf" points="555,-588 555,-645 652,-645 652,-588 555,-588"/>
<text text-anchor="middle" x="603.5" y="-633" font-family="Helvetica,sans-Serif" font-size="10.00">std::vector&lt; T &gt;</text>
<polyline fill="none" stroke="#bfbfbf" points="555,-626 652,-626 "/>
<text text-anchor="middle" x="603.5" y="-614" font-family="Helvetica,sans-Serif" font-size="10.00"> </text>
<polyline fill="none" stroke="#bfbfbf" points="555,-607 652,-607 "/>
<text text-anchor="middle" x="603.5" y="-595" font-family="Helvetica,sans-Serif" font-size="10.00"> </text>
</a>
</g>
</g>
<!-- Node8&#45;&gt;Node4 -->
<g id="edge7" class="edge">
<title>Node8&#45;&gt;Node4</title>
<path fill="none" stroke="orange" d="M601.1,-577.71C599.57,-553.73 597.63,-523.25 596.25,-501.55"/>
<polygon fill="orange" stroke="orange" points="597.62,-578.12 601.74,-587.88 604.6,-577.68 597.62,-578.12"/>
<text text-anchor="middle" x="643.5" y="-523" font-family="Helvetica,sans-Serif" font-size="10.00"> &lt; gauri::Layer * &gt;</text>
</g>
<!-- Node9 -->
<g id="node9" class="node">
<title>Node9</title>
<g id="a_node9"><a xlink:title=" ">
<polygon fill="white" stroke="#bfbfbf" points="657,-731.5 657,-788.5 686,-788.5 686,-731.5 657,-731.5"/>
<text text-anchor="middle" x="671.5" y="-776.5" font-family="Helvetica,sans-Serif" font-size="10.00">T</text>
<polyline fill="none" stroke="#bfbfbf" points="657,-769.5 686,-769.5 "/>
<text text-anchor="middle" x="671.5" y="-757.5" font-family="Helvetica,sans-Serif" font-size="10.00"> </text>
<polyline fill="none" stroke="#bfbfbf" points="657,-750.5 686,-750.5 "/>
<text text-anchor="middle" x="671.5" y="-738.5" font-family="Helvetica,sans-Serif" font-size="10.00"> </text>
</a>
</g>
</g>
<!-- Node9&#45;&gt;Node8 -->
<g id="edge8" class="edge">
<title>Node9&#45;&gt;Node8</title>
<path fill="none" stroke="#404040" d="M656.85,-736.46C652.33,-729.11 647.49,-720.83 643.5,-713 634.23,-694.83 625.32,-674 618.27,-656.44"/>
<polygon fill="none" stroke="#404040" points="618.22,-656.32 612.3,-652.21 613.81,-645.16 619.74,-649.27 618.22,-656.32"/>
<text text-anchor="middle" x="672.5" y="-705" font-family="Helvetica,sans-Serif" font-size="10.00"> +elements</text>
</g>
<!-- Node13 -->
<g id="node13" class="node">
<title>Node13</title>
<g id="a_node13"><a xlink:title=" ">
<polygon fill="white" stroke="#bfbfbf" points="682.5,-588 682.5,-645 800.5,-645 800.5,-588 682.5,-588"/>
<text text-anchor="middle" x="741.5" y="-633" font-family="Helvetica,sans-Serif" font-size="10.00">std::unique_ptr&lt; T &gt;</text>
<polyline fill="none" stroke="#bfbfbf" points="682.5,-626 800.5,-626 "/>
<text text-anchor="middle" x="741.5" y="-614" font-family="Helvetica,sans-Serif" font-size="10.00"> </text>
<polyline fill="none" stroke="#bfbfbf" points="682.5,-607 800.5,-607 "/>
<text text-anchor="start" x="690.5" y="-595" font-family="Helvetica,sans-Serif" font-size="10.00">+ T * operator&#45;&gt;()</text>
</a>
</g>
</g>
<!-- Node9&#45;&gt;Node13 -->
<g id="edge13" class="edge">
<title>Node9&#45;&gt;Node13</title>
<path fill="none" stroke="#404040" d="M686.06,-738.42C691.26,-730.64 696.95,-721.59 701.5,-713 711.05,-694.98 719.99,-674.17 726.99,-656.58"/>
<polygon fill="none" stroke="#404040" points="727.04,-656.45 725.5,-649.41 731.4,-645.28 732.95,-652.32 727.04,-656.45"/>
<text text-anchor="middle" x="719" y="-705" font-family="Helvetica,sans-Serif" font-size="10.00"> +ptr</text>
</g>
<!-- Node10 -->
<g id="node10" class="node">
<title>Node10</title>
<g id="a_node10"><a xlink:href="classgauri_1_1Timestep.html" target="_top" xlink:title=" ">
<polygon fill="white" stroke="black" points="304,-237.5 304,-327.5 471,-327.5 471,-237.5 304,-237.5"/>
<text text-anchor="middle" x="387.5" y="-315.5" font-family="Helvetica,sans-Serif" font-size="10.00">gauri::Timestep</text>
<polyline fill="none" stroke="black" points="304,-308.5 471,-308.5 "/>
<text text-anchor="middle" x="387.5" y="-296.5" font-family="Helvetica,sans-Serif" font-size="10.00"> </text>
<polyline fill="none" stroke="black" points="304,-289.5 471,-289.5 "/>
<text text-anchor="start" x="312" y="-277.5" font-family="Helvetica,sans-Serif" font-size="10.00">+ Timestep(float time=0.0f)</text>
<text text-anchor="start" x="312" y="-266.5" font-family="Helvetica,sans-Serif" font-size="10.00">+ operator float() const</text>
<text text-anchor="start" x="312" y="-255.5" font-family="Helvetica,sans-Serif" font-size="10.00">+ float GetSeconds() const</text>
<text text-anchor="start" x="312" y="-244.5" font-family="Helvetica,sans-Serif" font-size="10.00">+ float GetMilliseconds() const</text>
</a>
</g>
</g>
<!-- Node10&#45;&gt;Node1 -->
<g id="edge9" class="edge">
<title>Node10&#45;&gt;Node1</title>
<path fill="none" stroke="#404040" d="M410.54,-237.17C421.17,-216.73 434.18,-191.7 446.67,-167.66"/>
<polygon fill="none" stroke="#404040" points="446.83,-167.35 446.05,-160.19 452.37,-156.71 453.15,-163.87 446.83,-167.35"/>
<text text-anchor="middle" x="474.5" y="-183.5" font-family="Helvetica,sans-Serif" font-size="10.00"> &#45;m_Timestep</text>
</g>
<!-- Node11 -->
<g id="node11" class="node">
<title>Node11</title>
<g id="a_node11"><a xlink:title=" ">
<polygon fill="white" stroke="#bfbfbf" points="168.5,-444.5 168.5,-501.5 206.5,-501.5 206.5,-444.5 168.5,-444.5"/>
<text text-anchor="middle" x="187.5" y="-489.5" font-family="Helvetica,sans-Serif" font-size="10.00">float</text>
<polyline fill="none" stroke="#bfbfbf" points="168.5,-482.5 206.5,-482.5 "/>
<text text-anchor="middle" x="187.5" y="-470.5" font-family="Helvetica,sans-Serif" font-size="10.00"> </text>
<polyline fill="none" stroke="#bfbfbf" points="168.5,-463.5 206.5,-463.5 "/>
<text text-anchor="middle" x="187.5" y="-451.5" font-family="Helvetica,sans-Serif" font-size="10.00"> </text>
</a>
</g>
</g>
<!-- Node11&#45;&gt;Node1 -->
<g id="edge15" class="edge">
<title>Node11&#45;&gt;Node1</title>
<path fill="none" stroke="#404040" d="M184.9,-444.06C180,-385.4 171.97,-251.77 196.5,-215 232.22,-161.44 294.76,-128.72 353.17,-108.9"/>
<polygon fill="none" stroke="#404040" points="353.38,-108.83 357.85,-103.16 364.79,-105.1 360.33,-110.77 353.38,-108.83"/>
<text text-anchor="middle" x="245.5" y="-280" font-family="Helvetica,sans-Serif" font-size="10.00"> &#45;m_LastFrameTime</text>
</g>
<!-- Node11&#45;&gt;Node10 -->
<g id="edge10" class="edge">
<title>Node11&#45;&gt;Node10</title>
<path fill="none" stroke="#404040" d="M206.68,-453.93C235.19,-427.06 289.88,-375.51 331.68,-336.11"/>
<polygon fill="none" stroke="#404040" points="331.92,-335.88 333.54,-328.86 340.65,-327.65 339.03,-334.68 331.92,-335.88"/>
<text text-anchor="middle" x="317" y="-394.5" font-family="Helvetica,sans-Serif" font-size="10.00"> &#45;m_Time</text>
</g>
<!-- Node11&#45;&gt;Node15 -->
<g id="edge19" class="edge">
<title>Node11&#45;&gt;Node15</title>
<path fill="none" stroke="#404040" d="M168.34,-461.61C154.96,-453.49 137.58,-441.07 126.5,-426 110.1,-403.71 98.56,-375.64 90.66,-350.32"/>
<polygon fill="none" stroke="#404040" points="90.58,-350.04 85.04,-345.42 87.18,-338.53 92.72,-343.15 90.58,-350.04"/>
<text text-anchor="middle" x="150" y="-394.5" font-family="Helvetica,sans-Serif" font-size="10.00"> &#45;m_Time</text>
</g>
<!-- Node12 -->
<g id="node12" class="node">
<title>Node12</title>
<g id="a_node12"><a xlink:title=" ">
<polygon fill="white" stroke="#bfbfbf" points="654.5,-368.5 654.5,-425.5 836.5,-425.5 836.5,-368.5 654.5,-368.5"/>
<text text-anchor="middle" x="745.5" y="-413.5" font-family="Helvetica,sans-Serif" font-size="10.00">std::unique_ptr&lt; gauri::Window &gt;</text>
<polyline fill="none" stroke="#bfbfbf" points="654.5,-406.5 836.5,-406.5 "/>
<text text-anchor="start" x="662.5" y="-394.5" font-family="Helvetica,sans-Serif" font-size="10.00">+ gauri::Window ptr</text>
<polyline fill="none" stroke="#bfbfbf" points="654.5,-387.5 836.5,-387.5 "/>
<text text-anchor="start" x="662.5" y="-375.5" font-family="Helvetica,sans-Serif" font-size="10.00">+ gauri::Window * operator&#45;&gt;()</text>
</a>
</g>
</g>
<!-- Node12&#45;&gt;Node1 -->
<g id="edge11" class="edge">
<title>Node12&#45;&gt;Node1</title>
<path fill="none" stroke="#404040" d="M747.71,-368.27C749.33,-330.35 747.08,-261.7 715.5,-215 694.26,-183.59 663.08,-158.24 630.72,-138.34"/>
<polygon fill="none" stroke="#404040" points="630.5,-138.2 623.29,-138.57 620.18,-132.06 627.39,-131.7 630.5,-138.2"/>
<text text-anchor="middle" x="778" y="-280" font-family="Helvetica,sans-Serif" font-size="10.00"> &#45;m_Window</text>
</g>
<!-- Node13&#45;&gt;Node12 -->
<g id="edge12" class="edge">
<title>Node13&#45;&gt;Node12</title>
<path fill="none" stroke="orange" d="M742.19,-577.81C742.99,-534.44 744.28,-464.28 744.99,-425.67"/>
<polygon fill="orange" stroke="orange" points="738.69,-577.89 742.01,-587.95 745.69,-578.02 738.69,-577.89"/>
<text text-anchor="middle" x="790.5" y="-523" font-family="Helvetica,sans-Serif" font-size="10.00"> &lt; gauri::Window &gt;</text>
</g>
<!-- Node14 -->
<g id="node14" class="node">
<title>Node14</title>
<g id="a_node14"><a xlink:title=" ">
<polygon fill="white" stroke="#bfbfbf" points="821.5,-254 821.5,-311 859.5,-311 859.5,-254 821.5,-254"/>
<text text-anchor="middle" x="840.5" y="-299" font-family="Helvetica,sans-Serif" font-size="10.00">bool</text>
<polyline fill="none" stroke="#bfbfbf" points="821.5,-292 859.5,-292 "/>
<text text-anchor="middle" x="840.5" y="-280" font-family="Helvetica,sans-Serif" font-size="10.00"> </text>
<polyline fill="none" stroke="#bfbfbf" points="821.5,-273 859.5,-273 "/>
<text text-anchor="middle" x="840.5" y="-261" font-family="Helvetica,sans-Serif" font-size="10.00"> </text>
</a>
</g>
</g>
<!-- Node14&#45;&gt;Node1 -->
<g id="edge16" class="edge">
<title>Node14&#45;&gt;Node1</title>
<path fill="none" stroke="#404040" d="M830.15,-253.99C824.6,-241.34 816.94,-226.6 807.5,-215 789.32,-192.66 781.7,-188.96 756.5,-175 717.73,-153.51 673.18,-135.24 631.86,-120.61"/>
<polygon fill="none" stroke="#404040" points="631.63,-120.53 624.65,-122.33 620.3,-116.58 627.28,-114.77 631.63,-120.53"/>
<text text-anchor="middle" x="825.5" y="-189" font-family="Helvetica,sans-Serif" font-size="10.00"> &#45;m_IsRunning</text>
<text text-anchor="middle" x="825.5" y="-178" font-family="Helvetica,sans-Serif" font-size="10.00">&#45;m_Minimized</text>
</g>
<!-- Node15&#45;&gt;Node1 -->
<g id="edge17" class="edge">
<title>Node15&#45;&gt;Node1</title>
<path fill="none" stroke="#404040" d="M73.72,-226.28C75.9,-207.91 81.62,-188.67 94.5,-175 129.83,-137.52 252.8,-111.86 352.8,-96.66"/>
<polygon fill="none" stroke="#404040" points="353.01,-96.63 358.35,-91.78 364.88,-94.85 359.54,-99.7 353.01,-96.63"/>
<text text-anchor="middle" x="134" y="-183.5" font-family="Helvetica,sans-Serif" font-size="10.00"> &#45;m_ImGuiLayer</text>
</g>
</g>
</svg>
