<?xml version="1.0" encoding="UTF-8" standalone="no"?>
<!DOCTYPE svg PUBLIC "-//W3C//DTD SVG 1.1//EN"
 "http://www.w3.org/Graphics/SVG/1.1/DTD/svg11.dtd">
<!-- Generated by graphviz version 2.43.0 (0)
 -->
<!-- Title: gauri::OpenGLIndexBuffer Pages: 1 -->
<svg width="331pt" height="259pt"
 viewBox="0.00 0.00 331.00 259.00" xmlns="http://www.w3.org/2000/svg" xmlns:xlink="http://www.w3.org/1999/xlink">
<g id="graph0" class="graph" transform="scale(1 1) rotate(0) translate(4 255)">
<title>gauri::OpenGLIndexBuffer</title>
<polygon fill="white" stroke="transparent" points="-4,4 -4,-255 327,-255 327,4 -4,4"/>
<!-- Node1 -->
<g id="node1" class="node">
<title>Node1</title>
<g id="a_node1"><a xlink:title=" ">
<polygon fill="#bfbfbf" stroke="black" points="17.5,-0.5 17.5,-112.5 305.5,-112.5 305.5,-0.5 17.5,-0.5"/>
<text text-anchor="middle" x="161.5" y="-100.5" font-family="Helvetica,sans-Serif" font-size="10.00">gauri::OpenGLIndexBuffer</text>
<polyline fill="none" stroke="black" points="17.5,-93.5 305.5,-93.5 "/>
<text text-anchor="start" x="25.5" y="-81.5" font-family="Helvetica,sans-Serif" font-size="10.00">&#45; uint32_t m_RendererID</text>
<text text-anchor="start" x="25.5" y="-70.5" font-family="Helvetica,sans-Serif" font-size="10.00">&#45; uint32_t m_Count</text>
<polyline fill="none" stroke="black" points="17.5,-63.5 305.5,-63.5 "/>
<text text-anchor="start" x="25.5" y="-51.5" font-family="Helvetica,sans-Serif" font-size="10.00">+ OpenGLIndexBuffer(uint32_t *indices, uint32_t count)</text>
<text text-anchor="start" x="25.5" y="-40.5" font-family="Helvetica,sans-Serif" font-size="10.00">+ ~OpenGLIndexBuffer() override</text>
<text text-anchor="start" x="25.5" y="-29.5" font-family="Helvetica,sans-Serif" font-size="10.00">+ void Bind() const override</text>
<text text-anchor="start" x="25.5" y="-18.5" font-family="Helvetica,sans-Serif" font-size="10.00">+ void Unbind() const override</text>
<text text-anchor="start" x="25.5" y="-7.5" font-family="Helvetica,sans-Serif" font-size="10.00">+ uint32_t GetCount() const override</text>
</a>
</g>
</g>
<!-- Node2 -->
<g id="node2" class="node">
<title>Node2</title>
<g id="a_node2"><a xlink:href="classgauri_1_1IndexBuffer.html" target="_top" xlink:title=" ">
<polygon fill="white" stroke="black" points="0,-149.5 0,-250.5 323,-250.5 323,-149.5 0,-149.5"/>
<text text-anchor="middle" x="161.5" y="-238.5" font-family="Helvetica,sans-Serif" font-size="10.00">gauri::IndexBuffer</text>
<polyline fill="none" stroke="black" points="0,-231.5 323,-231.5 "/>
<text text-anchor="middle" x="161.5" y="-219.5" font-family="Helvetica,sans-Serif" font-size="10.00"> </text>
<polyline fill="none" stroke="black" points="0,-212.5 323,-212.5 "/>
<text text-anchor="start" x="8" y="-200.5" font-family="Helvetica,sans-Serif" font-size="10.00">+ virtual ~IndexBuffer()=default</text>
<text text-anchor="start" x="8" y="-189.5" font-family="Helvetica,sans-Serif" font-size="10.00">+ virtual void Bind() const =0</text>
<text text-anchor="start" x="8" y="-178.5" font-family="Helvetica,sans-Serif" font-size="10.00">+ virtual void Unbind() const =0</text>
<text text-anchor="start" x="8" y="-167.5" font-family="Helvetica,sans-Serif" font-size="10.00">+ virtual uint32_t GetCount() const =0</text>
<text text-anchor="start" x="8" y="-156.5" font-family="Helvetica,sans-Serif" font-size="10.00">+ static IndexBuffer * Create(uint32_t *indices, uint32_t count)</text>
</a>
</g>
</g>
<!-- Node2&#45;&gt;Node1 -->
<g id="edge1" class="edge">
<title>Node2&#45;&gt;Node1</title>
<path fill="none" stroke="midnightblue" d="M161.5,-139.01C161.5,-130.29 161.5,-121.34 161.5,-112.72"/>
<polygon fill="none" stroke="midnightblue" points="158,-139.11 161.5,-149.11 165,-139.11 158,-139.11"/>
</g>
</g>
</svg>
