<?xml version="1.0" encoding="UTF-8" standalone="no"?>
<!DOCTYPE svg PUBLIC "-//W3C//DTD SVG 1.1//EN"
 "http://www.w3.org/Graphics/SVG/1.1/DTD/svg11.dtd">
<!-- Generated by graphviz version 2.43.0 (0)
 -->
<!-- Title: gauri::WindowResizeEvent Pages: 1 -->
<svg width="292pt" height="259pt"
 viewBox="0.00 0.00 292.00 259.00" xmlns="http://www.w3.org/2000/svg" xmlns:xlink="http://www.w3.org/1999/xlink">
<g id="graph0" class="graph" transform="scale(1 1) rotate(0) translate(4 255)">
<title>gauri::WindowResizeEvent</title>
<polygon fill="white" stroke="transparent" points="-4,4 -4,-255 288,-255 288,4 -4,4"/>
<!-- Node1 -->
<g id="node1" class="node">
<title>Node1</title>
<g id="a_node1"><a xlink:title=" ">
<polygon fill="#bfbfbf" stroke="black" points="0,-0.5 0,-101.5 284,-101.5 284,-0.5 0,-0.5"/>
<text text-anchor="middle" x="142" y="-89.5" font-family="Helvetica,sans-Serif" font-size="10.00">gauri::WindowResizeEvent</text>
<polyline fill="none" stroke="black" points="0,-82.5 284,-82.5 "/>
<text text-anchor="start" x="8" y="-70.5" font-family="Helvetica,sans-Serif" font-size="10.00">&#45; uint32_t m_Width</text>
<text text-anchor="start" x="8" y="-59.5" font-family="Helvetica,sans-Serif" font-size="10.00">&#45; uint32_t m_Height</text>
<polyline fill="none" stroke="black" points="0,-52.5 284,-52.5 "/>
<text text-anchor="start" x="8" y="-40.5" font-family="Helvetica,sans-Serif" font-size="10.00">+ WindowResizeEvent(uint32_t width, uint32_t height)</text>
<text text-anchor="start" x="8" y="-29.5" font-family="Helvetica,sans-Serif" font-size="10.00">+ uint32_t GetWidth() const</text>
<text text-anchor="start" x="8" y="-18.5" font-family="Helvetica,sans-Serif" font-size="10.00">+ uint32_t GetHeight() const</text>
<text text-anchor="start" x="8" y="-7.5" font-family="Helvetica,sans-Serif" font-size="10.00">+ std::string ToString() const override</text>
</a>
</g>
</g>
<!-- Node2 -->
<g id="node2" class="node">
<title>Node2</title>
<g id="a_node2"><a xlink:href="classgauri_1_1Event.html" target="_top" xlink:title=" ">
<polygon fill="white" stroke="black" points="21.5,-138.5 21.5,-250.5 262.5,-250.5 262.5,-138.5 21.5,-138.5"/>
<text text-anchor="middle" x="142" y="-238.5" font-family="Helvetica,sans-Serif" font-size="10.00">gauri::Event</text>
<polyline fill="none" stroke="black" points="21.5,-231.5 262.5,-231.5 "/>
<text text-anchor="start" x="29.5" y="-219.5" font-family="Helvetica,sans-Serif" font-size="10.00">+ bool Handled</text>
<polyline fill="none" stroke="black" points="21.5,-212.5 262.5,-212.5 "/>
<text text-anchor="start" x="29.5" y="-200.5" font-family="Helvetica,sans-Serif" font-size="10.00">+ virtual ~Event()=default</text>
<text text-anchor="start" x="29.5" y="-189.5" font-family="Helvetica,sans-Serif" font-size="10.00">+ virtual EventType GetEventType() const =0</text>
<text text-anchor="start" x="29.5" y="-178.5" font-family="Helvetica,sans-Serif" font-size="10.00">+ virtual const char * GetName() const =0</text>
<text text-anchor="start" x="29.5" y="-167.5" font-family="Helvetica,sans-Serif" font-size="10.00">+ virtual int32_t GetCategoryFlags() const =0</text>
<text text-anchor="start" x="29.5" y="-156.5" font-family="Helvetica,sans-Serif" font-size="10.00">+ virtual std::string ToString() const</text>
<text text-anchor="start" x="29.5" y="-145.5" font-family="Helvetica,sans-Serif" font-size="10.00">+ bool IsInCategory(EventCategory category)</text>
</a>
</g>
</g>
<!-- Node2&#45;&gt;Node1 -->
<g id="edge1" class="edge">
<title>Node2&#45;&gt;Node1</title>
<path fill="none" stroke="midnightblue" d="M142,-128.34C142,-119.38 142,-110.29 142,-101.66"/>
<polygon fill="none" stroke="midnightblue" points="138.5,-128.39 142,-138.39 145.5,-128.39 138.5,-128.39"/>
</g>
</g>
</svg>
