<?xml version="1.0" encoding="UTF-8" standalone="no"?>
<!DOCTYPE svg PUBLIC "-//W3C//DTD SVG 1.1//EN"
 "http://www.w3.org/Graphics/SVG/1.1/DTD/svg11.dtd">
<!-- Generated by graphviz version 2.43.0 (0)
 -->
<!-- Title: gauri::Shader Pages: 1 -->
<svg width="593pt" height="281pt"
 viewBox="0.00 0.00 593.00 281.00" xmlns="http://www.w3.org/2000/svg" xmlns:xlink="http://www.w3.org/1999/xlink">
<g id="graph0" class="graph" transform="scale(1 1) rotate(0) translate(4 277)">
<title>gauri::Shader</title>
<polygon fill="white" stroke="transparent" points="-4,4 -4,-277 589,-277 589,4 -4,4"/>
<!-- Node1 -->
<g id="node1" class="node">
<title>Node1</title>
<g id="a_node1"><a xlink:title=" ">
<polygon fill="#bfbfbf" stroke="black" points="0,-0.5 0,-167.5 585,-167.5 585,-0.5 0,-0.5"/>
<text text-anchor="middle" x="292.5" y="-155.5" font-family="Helvetica,sans-Serif" font-size="10.00">gauri::Shader</text>
<polyline fill="none" stroke="black" points="0,-148.5 585,-148.5 "/>
<text text-anchor="middle" x="292.5" y="-136.5" font-family="Helvetica,sans-Serif" font-size="10.00"> </text>
<polyline fill="none" stroke="black" points="0,-129.5 585,-129.5 "/>
<text text-anchor="start" x="8" y="-117.5" font-family="Helvetica,sans-Serif" font-size="10.00">+ virtual ~Shader()=default</text>
<text text-anchor="start" x="8" y="-106.5" font-family="Helvetica,sans-Serif" font-size="10.00">+ virtual void Bind() const =0</text>
<text text-anchor="start" x="8" y="-95.5" font-family="Helvetica,sans-Serif" font-size="10.00">+ virtual void Unbind() const =0</text>
<text text-anchor="start" x="8" y="-84.5" font-family="Helvetica,sans-Serif" font-size="10.00">+ virtual void SetInt(const std::string &amp;name, int value)=0</text>
<text text-anchor="start" x="8" y="-73.5" font-family="Helvetica,sans-Serif" font-size="10.00">+ virtual void SetFloat(const std::string &amp;name, float value)=0</text>
<text text-anchor="start" x="8" y="-62.5" font-family="Helvetica,sans-Serif" font-size="10.00">+ virtual void SetFloat3(const std::string &amp;name, const glm::vec3 &amp;value)=0</text>
<text text-anchor="start" x="8" y="-51.5" font-family="Helvetica,sans-Serif" font-size="10.00">+ virtual void SetFloat4(const std::string &amp;name, const glm::vec4 &amp;value)=0</text>
<text text-anchor="start" x="8" y="-40.5" font-family="Helvetica,sans-Serif" font-size="10.00">+ virtual void SetMat4(const std::string &amp;name, const glm::mat4 &amp;value)=0</text>
<text text-anchor="start" x="8" y="-29.5" font-family="Helvetica,sans-Serif" font-size="10.00">+ virtual const std::string &amp; GetName() const =0</text>
<text text-anchor="start" x="8" y="-18.5" font-family="Helvetica,sans-Serif" font-size="10.00">+ static Ref&lt; Shader &gt; Create(const std::string &amp;filepath)</text>
<text text-anchor="start" x="8" y="-7.5" font-family="Helvetica,sans-Serif" font-size="10.00">+ static Ref&lt; Shader &gt; Create(const std::string &amp;name, const std::string &amp;vertexSrc, const std::string &amp;fragmentSrc)</text>
</a>
</g>
</g>
<!-- Node2 -->
<g id="node2" class="node">
<title>Node2</title>
<g id="a_node2"><a xlink:title=" ">
<polygon fill="white" stroke="#bfbfbf" points="264.5,-215.5 264.5,-272.5 320.5,-272.5 320.5,-215.5 264.5,-215.5"/>
<text text-anchor="middle" x="292.5" y="-260.5" font-family="Helvetica,sans-Serif" font-size="10.00">uint32_t</text>
<polyline fill="none" stroke="#bfbfbf" points="264.5,-253.5 320.5,-253.5 "/>
<text text-anchor="middle" x="292.5" y="-241.5" font-family="Helvetica,sans-Serif" font-size="10.00"> </text>
<polyline fill="none" stroke="#bfbfbf" points="264.5,-234.5 320.5,-234.5 "/>
<text text-anchor="middle" x="292.5" y="-222.5" font-family="Helvetica,sans-Serif" font-size="10.00"> </text>
</a>
</g>
</g>
<!-- Node2&#45;&gt;Node1 -->
<g id="edge1" class="edge">
<title>Node2&#45;&gt;Node1</title>
<path fill="none" stroke="#404040" d="M292.5,-215.48C292.5,-205.12 292.5,-192.67 292.5,-179.63"/>
<polygon fill="none" stroke="#404040" points="292.5,-179.54 288.5,-173.54 292.5,-167.54 296.5,-173.54 292.5,-179.54"/>
<text text-anchor="middle" x="331" y="-189" font-family="Helvetica,sans-Serif" font-size="10.00"> &#45;m_RendererID</text>
</g>
</g>
</svg>
