<?xml version="1.0" encoding="UTF-8" standalone="no"?>
<!DOCTYPE svg PUBLIC "-//W3C//DTD SVG 1.1//EN"
 "http://www.w3.org/Graphics/SVG/1.1/DTD/svg11.dtd">
<!-- Generated by graphviz version 2.43.0 (0)
 -->
<!-- Title: gauri::Application Pages: 1 -->
<!--zoomable 878 -->
<svg id="main" version="1.1" xmlns="http://www.w3.org/2000/svg" xmlns:xlink="http://www.w3.org/1999/xlink" xml:space="preserve" onload="init(evt)">
<style type="text/css"><![CDATA[
.edge:hover path { stroke: red; }
.edge:hover polygon { stroke: red; fill: red; }
]]></style>
<script type="text/javascript"><![CDATA[
var edges = document.getElementsByTagName('g');
if (edges && edges.length) {
  for (var i=0;i<edges.length;i++) {
    if (edges[i].id.substr(0,4)=='edge') {
      edges[i].setAttribute('class','edge');
    }
  }
}
]]></script>
        <defs>
                <circle id="rim" cx="0" cy="0" r="7"/>
                <circle id="rim2" cx="0" cy="0" r="3.5"/>
                <g id="zoomPlus">
                        <use xlink:href="#rim" fill="#404040">
                                <set attributeName="fill" to="#808080" begin="zoomplus.mouseover" end="zoomplus.mouseout"/>
                        </use>
                        <path d="M-4,0h8M0,-4v8" fill="none" stroke="white" stroke-width="1.5" pointer-events="none"/>
                </g>
                <g id="zoomMin">
                        <use xlink:href="#rim" fill="#404040">
                                <set attributeName="fill" to="#808080" begin="zoomminus.mouseover" end="zoomminus.mouseout"/>
                        </use>
                        <path d="M-4,0h8" fill="none" stroke="white" stroke-width="1.5" pointer-events="none"/>
                </g>
                <g id="dirArrow">
                        <path fill="none" stroke="white" stroke-width="1.5" d="M0,-3.0v7 M-2.5,-0.5L0,-3.0L2.5,-0.5"/>
                </g>
               <g id="resetDef">
                       <use xlink:href="#rim2" fill="#404040">
                               <set attributeName="fill" to="#808080" begin="reset.mouseover" end="reset.mouseout"/>
                       </use>
               </g>
        </defs>

<script type="text/javascript">
var viewWidth = 1058;
var viewHeight = 878;
var sectionId = 'dynsection-0';
</script>
<script xlink:href="svgpan.js"/>
<svg id="graph" class="graph">
<g id="viewport">
<title>gauri::Application</title>
<polygon fill="white" stroke="transparent" points="-4,4 -4,-874 1053.5,-874 1053.5,4 -4,4"/>
<!-- Node1 -->
<g id="node1" class="node">
<title>Node1</title>
<g id="a_node1"><a xlink:title=" ">
<polygon fill="#bfbfbf" stroke="black" points="439.5,-0.5 439.5,-178.5 711.5,-178.5 711.5,-0.5 439.5,-0.5"/>
<text text-anchor="middle" x="575.5" y="-166.5" font-family="Helvetica,sans-Serif" font-size="10.00">gauri::Application</text>
<polyline fill="none" stroke="black" points="439.5,-159.5 711.5,-159.5 "/>
<text text-anchor="middle" x="575.5" y="-147.5" font-family="Helvetica,sans-Serif" font-size="10.00"> </text>
<polyline fill="none" stroke="black" points="439.5,-140.5 711.5,-140.5 "/>
<text text-anchor="start" x="447.5" y="-128.5" font-family="Helvetica,sans-Serif" font-size="10.00">+ Application(const std::string &amp;name=&quot;Gauri App&quot;)</text>
<text text-anchor="start" x="447.5" y="-117.5" font-family="Helvetica,sans-Serif" font-size="10.00">+ virtual ~Application()</text>
<text text-anchor="start" x="447.5" y="-106.5" font-family="Helvetica,sans-Serif" font-size="10.00">+ void Run()</text>
<text text-anchor="start" x="447.5" y="-95.5" font-family="Helvetica,sans-Serif" font-size="10.00">+ void OnEvent(Event &amp;e)</text>
<text text-anchor="start" x="447.5" y="-84.5" font-family="Helvetica,sans-Serif" font-size="10.00">+ void PushLayer(Layer *layer)</text>
<text text-anchor="start" x="447.5" y="-73.5" font-family="Helvetica,sans-Serif" font-size="10.00">+ void PushOverlay(Layer *overlay)</text>
<text text-anchor="start" x="447.5" y="-62.5" font-family="Helvetica,sans-Serif" font-size="10.00">+ Window &amp; GetWindow()</text>
<text text-anchor="start" x="447.5" y="-51.5" font-family="Helvetica,sans-Serif" font-size="10.00">+ void Close()</text>
<text text-anchor="start" x="447.5" y="-40.5" font-family="Helvetica,sans-Serif" font-size="10.00">+ ImGuiLayer * GetImGuiLayer()</text>
<text text-anchor="start" x="447.5" y="-29.5" font-family="Helvetica,sans-Serif" font-size="10.00">+ static Application &amp; Get()</text>
<text text-anchor="start" x="447.5" y="-18.5" font-family="Helvetica,sans-Serif" font-size="10.00">&#45; bool OnWindowClose(WindowCloseEvent &amp;e)</text>
<text text-anchor="start" x="447.5" y="-7.5" font-family="Helvetica,sans-Serif" font-size="10.00">&#45; bool OnWindowResize(WindowResizeEvent &amp;e)</text>
</a>
</g>
</g>
<!-- Node1&#45;&gt;Node1 -->
<g id="edge11" class="edge">
<title>Node1&#45;&gt;Node1</title>
<path fill="none" stroke="#404040" d="M711.67,-105.57C722.68,-102.08 729.5,-96.72 729.5,-89.5 729.5,-85.21 727.09,-81.58 722.84,-78.61"/>
<polygon fill="none" stroke="#404040" points="722.55,-78.48 715.43,-79.58 711.67,-73.43 718.79,-72.32 722.55,-78.48"/>
<text text-anchor="middle" x="759" y="-87" font-family="Helvetica,sans-Serif" font-size="10.00"> &#45;s_Instance</text>
</g>
<!-- Node2 -->
<g id="node2" class="node">
<title>Node2</title>
<g id="a_node2"><a xlink:href="classgauri_1_1LayerStack.html" target="_top" xlink:title=" ">
<polygon fill="white" stroke="black" points="0,-226.5 0,-382.5 263,-382.5 263,-226.5 0,-226.5"/>
<text text-anchor="middle" x="131.5" y="-370.5" font-family="Helvetica,sans-Serif" font-size="10.00">gauri::LayerStack</text>
<polyline fill="none" stroke="black" points="0,-363.5 263,-363.5 "/>
<text text-anchor="middle" x="131.5" y="-351.5" font-family="Helvetica,sans-Serif" font-size="10.00"> </text>
<polyline fill="none" stroke="black" points="0,-344.5 263,-344.5 "/>
<text text-anchor="start" x="8" y="-332.5" font-family="Helvetica,sans-Serif" font-size="10.00">+ LayerStack()=default</text>
<text text-anchor="start" x="8" y="-321.5" font-family="Helvetica,sans-Serif" font-size="10.00">+ ~LayerStack()</text>
<text text-anchor="start" x="8" y="-310.5" font-family="Helvetica,sans-Serif" font-size="10.00">+ void PushLayer(Layer *layer)</text>
<text text-anchor="start" x="8" y="-299.5" font-family="Helvetica,sans-Serif" font-size="10.00">+ void PushOverlay(Layer *overlay)</text>
<text text-anchor="start" x="8" y="-288.5" font-family="Helvetica,sans-Serif" font-size="10.00">+ void PopLayer(Layer *layer)</text>
<text text-anchor="start" x="8" y="-277.5" font-family="Helvetica,sans-Serif" font-size="10.00">+ void PopOverlay(Layer *overlay)</text>
<text text-anchor="start" x="8" y="-266.5" font-family="Helvetica,sans-Serif" font-size="10.00">+ std::vector&lt; Layer * &gt;::iterator begin()</text>
<text text-anchor="start" x="8" y="-255.5" font-family="Helvetica,sans-Serif" font-size="10.00">+ std::vector&lt; Layer * &gt;::iterator end()</text>
<text text-anchor="start" x="8" y="-244.5" font-family="Helvetica,sans-Serif" font-size="10.00">+ std::vector&lt; Layer * &gt;::reverse_iterator rbegin()</text>
<text text-anchor="start" x="8" y="-233.5" font-family="Helvetica,sans-Serif" font-size="10.00">+ std::vector&lt; Layer * &gt;::reverse_iterator rend()</text>
</a>
</g>
</g>
<!-- Node2&#45;&gt;Node1 -->
<g id="edge1" class="edge">
<title>Node2&#45;&gt;Node1</title>
<path fill="none" stroke="#404040" d="M258.74,-226.42C277.22,-216.11 296.19,-206.01 314.5,-197 350.61,-179.23 390.46,-161.89 427.92,-146.53"/>
<polygon fill="none" stroke="#404040" points="428.34,-146.36 432.39,-140.39 439.46,-141.83 435.41,-147.8 428.34,-146.36"/>
<text text-anchor="middle" x="352.5" y="-200" font-family="Helvetica,sans-Serif" font-size="10.00"> &#45;m_LayerStack</text>
</g>
<!-- Node3 -->
<g id="node3" class="node">
<title>Node3</title>
<g id="a_node3"><a xlink:title=" ">
<polygon fill="white" stroke="#bfbfbf" points="103.5,-430.5 103.5,-487.5 159.5,-487.5 159.5,-430.5 103.5,-430.5"/>
<text text-anchor="middle" x="131.5" y="-475.5" font-family="Helvetica,sans-Serif" font-size="10.00">uint32_t</text>
<polyline fill="none" stroke="#bfbfbf" points="103.5,-468.5 159.5,-468.5 "/>
<text text-anchor="middle" x="131.5" y="-456.5" font-family="Helvetica,sans-Serif" font-size="10.00"> </text>
<polyline fill="none" stroke="#bfbfbf" points="103.5,-449.5 159.5,-449.5 "/>
<text text-anchor="middle" x="131.5" y="-437.5" font-family="Helvetica,sans-Serif" font-size="10.00"> </text>
</a>
</g>
</g>
<!-- Node3&#45;&gt;Node2 -->
<g id="edge2" class="edge">
<title>Node3&#45;&gt;Node2</title>
<path fill="none" stroke="#404040" d="M131.5,-430.38C131.5,-420.11 131.5,-407.81 131.5,-394.99"/>
<polygon fill="none" stroke="#404040" points="131.5,-394.6 127.5,-388.6 131.5,-382.6 135.5,-388.6 131.5,-394.6"/>
<text text-anchor="middle" x="183.5" y="-404" font-family="Helvetica,sans-Serif" font-size="10.00"> &#45;m_LayerInsertIndex</text>
</g>
<!-- Node4 -->
<g id="node4" class="node">
<title>Node4</title>
<g id="a_node4"><a xlink:title=" ">
<polygon fill="white" stroke="#bfbfbf" points="277,-430.5 277,-487.5 434,-487.5 434,-430.5 277,-430.5"/>
<text text-anchor="middle" x="355.5" y="-475.5" font-family="Helvetica,sans-Serif" font-size="10.00">std::vector&lt; gauri::Layer * &gt;</text>
<polyline fill="none" stroke="#bfbfbf" points="277,-468.5 434,-468.5 "/>
<text text-anchor="middle" x="355.5" y="-456.5" font-family="Helvetica,sans-Serif" font-size="10.00"> </text>
<polyline fill="none" stroke="#bfbfbf" points="277,-449.5 434,-449.5 "/>
<text text-anchor="middle" x="355.5" y="-437.5" font-family="Helvetica,sans-Serif" font-size="10.00"> </text>
</a>
</g>
</g>
<!-- Node4&#45;&gt;Node2 -->
<g id="edge3" class="edge">
<title>Node4&#45;&gt;Node2</title>
<path fill="none" stroke="#404040" d="M314.94,-430.38C297.66,-418.62 276.5,-404.21 254.76,-389.41"/>
<polygon fill="none" stroke="#404040" points="254.66,-389.35 247.45,-389.28 244.74,-382.6 251.95,-382.67 254.66,-389.35"/>
<text text-anchor="middle" x="311" y="-404" font-family="Helvetica,sans-Serif" font-size="10.00"> &#45;m_Layers</text>
</g>
<!-- Node5 -->
<g id="node5" class="node">
<title>Node5</title>
<g id="a_node5"><a xlink:href="classgauri_1_1Layer.html" target="_top" xlink:title=" ">
<polygon fill="white" stroke="black" points="244,-535.5 244,-669.5 467,-669.5 467,-535.5 244,-535.5"/>
<text text-anchor="middle" x="355.5" y="-657.5" font-family="Helvetica,sans-Serif" font-size="10.00">gauri::Layer</text>
<polyline fill="none" stroke="black" points="244,-650.5 467,-650.5 "/>
<text text-anchor="middle" x="355.5" y="-638.5" font-family="Helvetica,sans-Serif" font-size="10.00"> </text>
<polyline fill="none" stroke="black" points="244,-631.5 467,-631.5 "/>
<text text-anchor="start" x="252" y="-619.5" font-family="Helvetica,sans-Serif" font-size="10.00">+ Layer(const std::string &amp;name=&quot;Layer&quot;)</text>
<text text-anchor="start" x="252" y="-608.5" font-family="Helvetica,sans-Serif" font-size="10.00">+ virtual ~Layer()</text>
<text text-anchor="start" x="252" y="-597.5" font-family="Helvetica,sans-Serif" font-size="10.00">+ virtual void OnAttach()</text>
<text text-anchor="start" x="252" y="-586.5" font-family="Helvetica,sans-Serif" font-size="10.00">+ virtual void OnDetach()</text>
<text text-anchor="start" x="252" y="-575.5" font-family="Helvetica,sans-Serif" font-size="10.00">+ virtual void OnUpdate(Timestep ts)</text>
<text text-anchor="start" x="252" y="-564.5" font-family="Helvetica,sans-Serif" font-size="10.00">+ virtual void OnImGuiRender()</text>
<text text-anchor="start" x="252" y="-553.5" font-family="Helvetica,sans-Serif" font-size="10.00">+ virtual void OnEvent(Event &amp;)</text>
<text text-anchor="start" x="252" y="-542.5" font-family="Helvetica,sans-Serif" font-size="10.00">+ const std::string &amp; GetName() const</text>
</a>
</g>
</g>
<!-- Node5&#45;&gt;Node4 -->
<g id="edge4" class="edge">
<title>Node5&#45;&gt;Node4</title>
<path fill="none" stroke="#404040" d="M355.5,-535.31C355.5,-523.21 355.5,-510.93 355.5,-499.9"/>
<polygon fill="none" stroke="#404040" points="355.5,-499.61 351.5,-493.61 355.5,-487.61 359.5,-493.61 355.5,-499.61"/>
<text text-anchor="middle" x="384.5" y="-509" font-family="Helvetica,sans-Serif" font-size="10.00"> +elements</text>
</g>
<!-- Node14 -->
<g id="node14" class="node">
<title>Node14</title>
<g id="a_node14"><a xlink:href="classgauri_1_1ImGuiLayer.html" target="_top" xlink:title=" ">
<polygon fill="white" stroke="black" points="861.5,-237.5 861.5,-371.5 1049.5,-371.5 1049.5,-237.5 861.5,-237.5"/>
<text text-anchor="middle" x="955.5" y="-359.5" font-family="Helvetica,sans-Serif" font-size="10.00">gauri::ImGuiLayer</text>
<polyline fill="none" stroke="black" points="861.5,-352.5 1049.5,-352.5 "/>
<text text-anchor="middle" x="955.5" y="-340.5" font-family="Helvetica,sans-Serif" font-size="10.00"> </text>
<polyline fill="none" stroke="black" points="861.5,-333.5 1049.5,-333.5 "/>
<text text-anchor="start" x="869.5" y="-321.5" font-family="Helvetica,sans-Serif" font-size="10.00">+ ImGuiLayer()</text>
<text text-anchor="start" x="869.5" y="-310.5" font-family="Helvetica,sans-Serif" font-size="10.00">+ ~ImGuiLayer() override</text>
<text text-anchor="start" x="869.5" y="-299.5" font-family="Helvetica,sans-Serif" font-size="10.00">+ void OnAttach() override</text>
<text text-anchor="start" x="869.5" y="-288.5" font-family="Helvetica,sans-Serif" font-size="10.00">+ void OnDetach() override</text>
<text text-anchor="start" x="869.5" y="-277.5" font-family="Helvetica,sans-Serif" font-size="10.00">+ void OnEvent(Event &amp;e) override</text>
<text text-anchor="start" x="869.5" y="-266.5" font-family="Helvetica,sans-Serif" font-size="10.00">+ void Begin()</text>
<text text-anchor="start" x="869.5" y="-255.5" font-family="Helvetica,sans-Serif" font-size="10.00">+ void End()</text>
<text text-anchor="start" x="869.5" y="-244.5" font-family="Helvetica,sans-Serif" font-size="10.00">+ void BlockEvents(bool block)</text>
</a>
</g>
</g>
<!-- Node5&#45;&gt;Node14 -->
<g id="edge16" class="edge">
<title>Node5&#45;&gt;Node14</title>
<path fill="none" stroke="midnightblue" d="M477.07,-535.12C639.5,-485.56 699.75,-549.39 853.5,-488 906.34,-466.91 930.86,-462.78 956.5,-412 962.71,-399.7 965.22,-385.54 965.66,-371.65"/>
<polygon fill="none" stroke="midnightblue" points="475.72,-531.88 467.24,-538.22 477.83,-538.55 475.72,-531.88"/>
</g>
<!-- Node6 -->
<g id="node6" class="node">
<title>Node6</title>
<g id="a_node6"><a xlink:title=" ">
<polygon fill="white" stroke="#bfbfbf" points="323,-717.5 323,-774.5 388,-774.5 388,-717.5 323,-717.5"/>
<text text-anchor="middle" x="355.5" y="-762.5" font-family="Helvetica,sans-Serif" font-size="10.00">std::string</text>
<polyline fill="none" stroke="#bfbfbf" points="323,-755.5 388,-755.5 "/>
<text text-anchor="middle" x="355.5" y="-743.5" font-family="Helvetica,sans-Serif" font-size="10.00"> </text>
<polyline fill="none" stroke="#bfbfbf" points="323,-736.5 388,-736.5 "/>
<text text-anchor="middle" x="355.5" y="-724.5" font-family="Helvetica,sans-Serif" font-size="10.00"> </text>
</a>
</g>
</g>
<!-- Node6&#45;&gt;Node5 -->
<g id="edge5" class="edge">
<title>Node6&#45;&gt;Node5</title>
<path fill="none" stroke="#404040" d="M355.5,-717.38C355.5,-707.02 355.5,-694.66 355.5,-681.97"/>
<polygon fill="none" stroke="#404040" points="355.5,-681.75 351.5,-675.75 355.5,-669.75 359.5,-675.75 355.5,-681.75"/>
<text text-anchor="middle" x="399.5" y="-691" font-family="Helvetica,sans-Serif" font-size="10.00"> #m_DebugName</text>
</g>
<!-- Node7 -->
<g id="node7" class="node">
<title>Node7</title>
<g id="a_node7"><a xlink:title=" ">
<polygon fill="white" stroke="#bfbfbf" points="285,-812.5 285,-869.5 426,-869.5 426,-812.5 285,-812.5"/>
<text text-anchor="middle" x="355.5" y="-857.5" font-family="Helvetica,sans-Serif" font-size="10.00">std::basic_string&lt; Char &gt;</text>
<polyline fill="none" stroke="#bfbfbf" points="285,-850.5 426,-850.5 "/>
<text text-anchor="middle" x="355.5" y="-838.5" font-family="Helvetica,sans-Serif" font-size="10.00"> </text>
<polyline fill="none" stroke="#bfbfbf" points="285,-831.5 426,-831.5 "/>
<text text-anchor="middle" x="355.5" y="-819.5" font-family="Helvetica,sans-Serif" font-size="10.00"> </text>
</a>
</g>
</g>
<!-- Node7&#45;&gt;Node6 -->
<g id="edge6" class="edge">
<title>Node7&#45;&gt;Node6</title>
<path fill="none" stroke="midnightblue" d="M355.5,-802.24C355.5,-793.03 355.5,-783.35 355.5,-774.71"/>
<polygon fill="none" stroke="midnightblue" points="352,-802.35 355.5,-812.35 359,-802.35 352,-802.35"/>
</g>
<!-- Node8 -->
<g id="node8" class="node">
<title>Node8</title>
<g id="a_node8"><a xlink:title=" ">
<polygon fill="white" stroke="#bfbfbf" points="485,-574 485,-631 582,-631 582,-574 485,-574"/>
<text text-anchor="middle" x="533.5" y="-619" font-family="Helvetica,sans-Serif" font-size="10.00">std::vector&lt; T &gt;</text>
<polyline fill="none" stroke="#bfbfbf" points="485,-612 582,-612 "/>
<text text-anchor="middle" x="533.5" y="-600" font-family="Helvetica,sans-Serif" font-size="10.00"> </text>
<polyline fill="none" stroke="#bfbfbf" points="485,-593 582,-593 "/>
<text text-anchor="middle" x="533.5" y="-581" font-family="Helvetica,sans-Serif" font-size="10.00"> </text>
</a>
</g>
</g>
<!-- Node8&#45;&gt;Node4 -->
<g id="edge7" class="edge">
<title>Node8&#45;&gt;Node4</title>
<path fill="none" stroke="orange" d="M505.92,-566C496.83,-555.41 486.28,-544.19 475.5,-535 454.56,-517.15 428.98,-500.56 406.82,-487.55"/>
<polygon fill="orange" stroke="orange" points="503.46,-568.52 512.57,-573.93 508.83,-564.02 503.46,-568.52"/>
<text text-anchor="middle" x="497.5" y="-509" font-family="Helvetica,sans-Serif" font-size="10.00"> &lt; gauri::Layer * &gt;</text>
</g>
<!-- Node9 -->
<g id="node9" class="node">
<title>Node9</title>
<g id="a_node9"><a xlink:title=" ">
<polygon fill="white" stroke="#bfbfbf" points="519,-717.5 519,-774.5 548,-774.5 548,-717.5 519,-717.5"/>
<text text-anchor="middle" x="533.5" y="-762.5" font-family="Helvetica,sans-Serif" font-size="10.00">T</text>
<polyline fill="none" stroke="#bfbfbf" points="519,-755.5 548,-755.5 "/>
<text text-anchor="middle" x="533.5" y="-743.5" font-family="Helvetica,sans-Serif" font-size="10.00"> </text>
<polyline fill="none" stroke="#bfbfbf" points="519,-736.5 548,-736.5 "/>
<text text-anchor="middle" x="533.5" y="-724.5" font-family="Helvetica,sans-Serif" font-size="10.00"> </text>
</a>
</g>
</g>
<!-- Node9&#45;&gt;Node8 -->
<g id="edge8" class="edge">
<title>Node9&#45;&gt;Node8</title>
<path fill="none" stroke="#404040" d="M533.5,-717.38C533.5,-696.25 533.5,-666.81 533.5,-643.16"/>
<polygon fill="none" stroke="#404040" points="533.5,-643.05 529.5,-637.05 533.5,-631.05 537.5,-637.05 533.5,-643.05"/>
<text text-anchor="middle" x="562.5" y="-691" font-family="Helvetica,sans-Serif" font-size="10.00"> +elements</text>
</g>
<!-- Node10 -->
<g id="node10" class="node">
<title>Node10</title>
<g id="a_node10"><a xlink:href="classgauri_1_1Timestep.html" target="_top" xlink:title=" ">
<polygon fill="white" stroke="black" points="281,-259.5 281,-349.5 448,-349.5 448,-259.5 281,-259.5"/>
<text text-anchor="middle" x="364.5" y="-337.5" font-family="Helvetica,sans-Serif" font-size="10.00">gauri::Timestep</text>
<polyline fill="none" stroke="black" points="281,-330.5 448,-330.5 "/>
<text text-anchor="middle" x="364.5" y="-318.5" font-family="Helvetica,sans-Serif" font-size="10.00"> </text>
<polyline fill="none" stroke="black" points="281,-311.5 448,-311.5 "/>
<text text-anchor="start" x="289" y="-299.5" font-family="Helvetica,sans-Serif" font-size="10.00">+ Timestep(float time=0.0f)</text>
<text text-anchor="start" x="289" y="-288.5" font-family="Helvetica,sans-Serif" font-size="10.00">+ operator float() const</text>
<text text-anchor="start" x="289" y="-277.5" font-family="Helvetica,sans-Serif" font-size="10.00">+ float GetSeconds() const</text>
<text text-anchor="start" x="289" y="-266.5" font-family="Helvetica,sans-Serif" font-size="10.00">+ float GetMilliseconds() const</text>
</a>
</g>
</g>
<!-- Node10&#45;&gt;Node1 -->
<g id="edge9" class="edge">
<title>Node10&#45;&gt;Node1</title>
<path fill="none" stroke="#404040" d="M372.6,-259.44C378.1,-238.82 387.07,-214.91 401.5,-197 409.75,-186.76 419.27,-177.24 429.51,-168.47"/>
<polygon fill="none" stroke="#404040" points="429.82,-168.21 431.93,-161.32 439.1,-160.61 437,-167.51 429.82,-168.21"/>
<text text-anchor="middle" x="435.5" y="-200" font-family="Helvetica,sans-Serif" font-size="10.00"> &#45;m_Timestep</text>
</g>
<!-- Node11 -->
<g id="node11" class="node">
<title>Node11</title>
<g id="a_node11"><a xlink:title=" ">
<polygon fill="white" stroke="#bfbfbf" points="464.5,-430.5 464.5,-487.5 502.5,-487.5 502.5,-430.5 464.5,-430.5"/>
<text text-anchor="middle" x="483.5" y="-475.5" font-family="Helvetica,sans-Serif" font-size="10.00">float</text>
<polyline fill="none" stroke="#bfbfbf" points="464.5,-468.5 502.5,-468.5 "/>
<text text-anchor="middle" x="483.5" y="-456.5" font-family="Helvetica,sans-Serif" font-size="10.00"> </text>
<polyline fill="none" stroke="#bfbfbf" points="464.5,-449.5 502.5,-449.5 "/>
<text text-anchor="middle" x="483.5" y="-437.5" font-family="Helvetica,sans-Serif" font-size="10.00"> </text>
</a>
</g>
</g>
<!-- Node11&#45;&gt;Node1 -->
<g id="edge12" class="edge">
<title>Node11&#45;&gt;Node1</title>
<path fill="none" stroke="#404040" d="M480.17,-430.47C475.78,-386.26 470.94,-297.17 492.5,-226 496.24,-213.67 501.37,-201.33 507.27,-189.39"/>
<polygon fill="none" stroke="#404040" points="507.37,-189.21 506.57,-182.04 512.89,-178.55 513.68,-185.72 507.37,-189.21"/>
<text text-anchor="middle" x="541.5" y="-302" font-family="Helvetica,sans-Serif" font-size="10.00"> &#45;m_LastFrameTime</text>
</g>
<!-- Node11&#45;&gt;Node10 -->
<g id="edge10" class="edge">
<title>Node11&#45;&gt;Node10</title>
<path fill="none" stroke="#404040" d="M464.43,-444.96C449.09,-434.22 429.04,-419.58 422.5,-412 409.42,-396.83 398.04,-378.22 388.92,-360.83"/>
<polygon fill="none" stroke="#404040" points="388.67,-360.33 382.39,-356.78 383.26,-349.62 389.53,-353.17 388.67,-360.33"/>
<text text-anchor="middle" x="446" y="-404" font-family="Helvetica,sans-Serif" font-size="10.00"> &#45;m_Time</text>
</g>
<!-- Node11&#45;&gt;Node14 -->
<g id="edge17" class="edge">
<title>Node11&#45;&gt;Node14</title>
<path fill="none" stroke="#404040" d="M502.51,-456.87C557.96,-453 723.39,-437.36 847.5,-383 851.37,-381.31 855.24,-379.46 859.09,-377.48"/>
<polygon fill="none" stroke="#404040" points="859.31,-377.36 862.67,-370.98 869.86,-371.63 866.5,-378.01 859.31,-377.36"/>
<text text-anchor="middle" x="824" y="-404" font-family="Helvetica,sans-Serif" font-size="10.00"> &#45;m_Time</text>
</g>
<!-- Node12 -->
<g id="node12" class="node">
<title>Node12</title>
<g id="a_node12"><a xlink:title=" ">
<polygon fill="white" stroke="#bfbfbf" points="599.5,-276 599.5,-333 737.5,-333 737.5,-276 599.5,-276"/>
<text text-anchor="middle" x="668.5" y="-321" font-family="Helvetica,sans-Serif" font-size="10.00">Scope&lt; gauri::Window &gt;</text>
<polyline fill="none" stroke="#bfbfbf" points="599.5,-314 737.5,-314 "/>
<text text-anchor="middle" x="668.5" y="-302" font-family="Helvetica,sans-Serif" font-size="10.00"> </text>
<polyline fill="none" stroke="#bfbfbf" points="599.5,-295 737.5,-295 "/>
<text text-anchor="middle" x="668.5" y="-283" font-family="Helvetica,sans-Serif" font-size="10.00"> </text>
</a>
</g>
</g>
<!-- Node12&#45;&gt;Node1 -->
<g id="edge13" class="edge">
<title>Node12&#45;&gt;Node1</title>
<path fill="none" stroke="#404040" d="M656.34,-275.65C646.7,-253.56 632.6,-221.27 618.86,-189.82"/>
<polygon fill="none" stroke="#404040" points="618.83,-189.74 612.76,-185.84 614.03,-178.74 620.1,-182.64 618.83,-189.74"/>
<text text-anchor="middle" x="655" y="-200" font-family="Helvetica,sans-Serif" font-size="10.00"> &#45;m_Window</text>
</g>
<!-- Node13 -->
<g id="node13" class="node">
<title>Node13</title>
<g id="a_node13"><a xlink:title=" ">
<polygon fill="white" stroke="#bfbfbf" points="806.5,-430.5 806.5,-487.5 844.5,-487.5 844.5,-430.5 806.5,-430.5"/>
<text text-anchor="middle" x="825.5" y="-475.5" font-family="Helvetica,sans-Serif" font-size="10.00">bool</text>
<polyline fill="none" stroke="#bfbfbf" points="806.5,-468.5 844.5,-468.5 "/>
<text text-anchor="middle" x="825.5" y="-456.5" font-family="Helvetica,sans-Serif" font-size="10.00"> </text>
<polyline fill="none" stroke="#bfbfbf" points="806.5,-449.5 844.5,-449.5 "/>
<text text-anchor="middle" x="825.5" y="-437.5" font-family="Helvetica,sans-Serif" font-size="10.00"> </text>
</a>
</g>
</g>
<!-- Node13&#45;&gt;Node1 -->
<g id="edge14" class="edge">
<title>Node13&#45;&gt;Node1</title>
<path fill="none" stroke="#404040" d="M806.21,-438.85C799.38,-431.09 792.22,-421.68 787.5,-412 750.4,-335.91 791.38,-297.77 746.5,-226 737.93,-212.3 727.48,-199.41 716,-187.43"/>
<polygon fill="none" stroke="#404040" points="715.94,-187.37 708.87,-185.95 707.47,-178.87 714.54,-180.3 715.94,-187.37"/>
<text text-anchor="middle" x="810.5" y="-307.5" font-family="Helvetica,sans-Serif" font-size="10.00"> &#45;m_IsRunning</text>
<text text-anchor="middle" x="810.5" y="-296.5" font-family="Helvetica,sans-Serif" font-size="10.00">&#45;m_Minimized</text>
</g>
<!-- Node13&#45;&gt;Node14 -->
<g id="edge18" class="edge">
<title>Node13&#45;&gt;Node14</title>
<path fill="none" stroke="#404040" d="M844.68,-435.5C857.18,-420.84 874.27,-400.79 891.29,-380.83"/>
<polygon fill="none" stroke="#404040" points="891.3,-380.81 892.15,-373.65 899.08,-371.68 898.23,-378.84 891.3,-380.81"/>
<text text-anchor="middle" x="911.5" y="-404" font-family="Helvetica,sans-Serif" font-size="10.00"> &#45;m_BlockEvents</text>
</g>
<!-- Node14&#45;&gt;Node1 -->
<g id="edge15" class="edge">
<title>Node14&#45;&gt;Node1</title>
<path fill="none" stroke="#404040" d="M865.77,-237.49C859.65,-233.5 853.53,-229.63 847.5,-226 807.99,-202.19 763.74,-178.84 722.59,-158.41"/>
<polygon fill="none" stroke="#404040" points="722.4,-158.32 715.25,-159.25 711.64,-153.01 718.79,-152.07 722.4,-158.32"/>
<text text-anchor="middle" x="851" y="-200" font-family="Helvetica,sans-Serif" font-size="10.00"> &#45;m_ImGuiLayer</text>
</g>
</g>
</svg>
        <g id="navigator" transform="translate(0 0)" fill="#404254">
                <rect fill="#f2f5e9" fill-opacity="0.5" stroke="#606060" stroke-width=".5" x="0" y="0" width="60" height="60"/>
                <use id="zoomplus" xlink:href="#zoomPlus" x="17" y="9" onmousedown="handleZoom(evt,'in')"/>
                <use id="zoomminus" xlink:href="#zoomMin" x="42" y="9" onmousedown="handleZoom(evt,'out')"/>
                <use id="reset" xlink:href="#resetDef" x="30" y="36" onmousedown="handleReset()"/>
                <g id="arrowUp" xlink:href="#dirArrow" transform="translate(30 24)" onmousedown="handlePan(0,-1)">
                  <use xlink:href="#rim" fill="#404040">
                        <set attributeName="fill" to="#808080" begin="arrowUp.mouseover" end="arrowUp.mouseout"/>
                  </use>
                  <path fill="none" stroke="white" stroke-width="1.5" d="M0,-3.0v7 M-2.5,-0.5L0,-3.0L2.5,-0.5"/>
                </g>
                <g id="arrowRight" xlink:href="#dirArrow" transform="rotate(90) translate(36 -43)" onmousedown="handlePan(1,0)">
                  <use xlink:href="#rim" fill="#404040">
                        <set attributeName="fill" to="#808080" begin="arrowRight.mouseover" end="arrowRight.mouseout"/>
                  </use>
                  <path fill="none" stroke="white" stroke-width="1.5" d="M0,-3.0v7 M-2.5,-0.5L0,-3.0L2.5,-0.5"/>
                </g>
                <g id="arrowDown" xlink:href="#dirArrow" transform="rotate(180) translate(-30 -48)" onmousedown="handlePan(0,1)">
                  <use xlink:href="#rim" fill="#404040">
                        <set attributeName="fill" to="#808080" begin="arrowDown.mouseover" end="arrowDown.mouseout"/>
                  </use>
                  <path fill="none" stroke="white" stroke-width="1.5" d="M0,-3.0v7 M-2.5,-0.5L0,-3.0L2.5,-0.5"/>
                </g>
                <g id="arrowLeft" xlink:href="#dirArrow" transform="rotate(270) translate(-36 17)" onmousedown="handlePan(-1,0)">
                  <use xlink:href="#rim" fill="#404040">
                        <set attributeName="fill" to="#808080" begin="arrowLeft.mouseover" end="arrowLeft.mouseout"/>
                  </use>
                  <path fill="none" stroke="white" stroke-width="1.5" d="M0,-3.0v7 M-2.5,-0.5L0,-3.0L2.5,-0.5"/>
                </g>
        </g>
        <svg viewBox="0 0 15 15" width="100%" height="30px" preserveAspectRatio="xMaxYMin meet">
         <g id="arrow_out" transform="scale(0.3 0.3)">
          <a xlink:href="classgauri_1_1Application__coll__graph_org.svg" target="_base">
           <rect id="button" ry="5" rx="5" y="6" x="6" height="38" width="38"
                fill="#f2f5e9" fill-opacity="0.5" stroke="#606060" stroke-width="1.0"/>
           <path id="arrow"
             d="M 11.500037,31.436501 C 11.940474,20.09759 22.043105,11.32322 32.158766,21.979434 L 37.068811,17.246167 C 37.068811,17.246167 37.088388,32 37.088388,32 L 22.160133,31.978069 C 22.160133,31.978069 26.997745,27.140456 26.997745,27.140456 C 18.528582,18.264221 13.291696,25.230495 11.500037,31.436501 z"
             style="fill:#404040;"/>
          </a>
         </g>
        </svg>
</svg>
