<?xml version="1.0" encoding="UTF-8" standalone="no"?>
<!DOCTYPE svg PUBLIC "-//W3C//DTD SVG 1.1//EN"
 "http://www.w3.org/Graphics/SVG/1.1/DTD/svg11.dtd">
<!-- Generated by graphviz version 2.43.0 (0)
 -->
<!-- Title: gauri::OpenGLTexture2D Pages: 1 -->
<svg width="674pt" height="409pt"
 viewBox="0.00 0.00 673.50 409.00" xmlns="http://www.w3.org/2000/svg" xmlns:xlink="http://www.w3.org/1999/xlink">
<g id="graph0" class="graph" transform="scale(1 1) rotate(0) translate(4 405)">
<title>gauri::OpenGLTexture2D</title>
<polygon fill="white" stroke="transparent" points="-4,4 -4,-405 669.5,-405 669.5,4 -4,4"/>
<!-- Node1 -->
<g id="node1" class="node">
<title>Node1</title>
<g id="a_node1"><a xlink:title=" ">
<polygon fill="#bfbfbf" stroke="black" points="296,-0.5 296,-123.5 568,-123.5 568,-0.5 296,-0.5"/>
<text text-anchor="middle" x="432" y="-111.5" font-family="Helvetica,sans-Serif" font-size="10.00">gauri::OpenGLTexture2D</text>
<polyline fill="none" stroke="black" points="296,-104.5 568,-104.5 "/>
<text text-anchor="middle" x="432" y="-92.5" font-family="Helvetica,sans-Serif" font-size="10.00"> </text>
<polyline fill="none" stroke="black" points="296,-85.5 568,-85.5 "/>
<text text-anchor="start" x="304" y="-73.5" font-family="Helvetica,sans-Serif" font-size="10.00">+ OpenGLTexture2D(uint32_t width, uint32_t height)</text>
<text text-anchor="start" x="304" y="-62.5" font-family="Helvetica,sans-Serif" font-size="10.00">+ OpenGLTexture2D(const std::string &amp;path)</text>
<text text-anchor="start" x="304" y="-51.5" font-family="Helvetica,sans-Serif" font-size="10.00">+ ~OpenGLTexture2D() override</text>
<text text-anchor="start" x="304" y="-40.5" font-family="Helvetica,sans-Serif" font-size="10.00">+ uint32_t GetWidth() const override</text>
<text text-anchor="start" x="304" y="-29.5" font-family="Helvetica,sans-Serif" font-size="10.00">+ uint32_t GetHeight() const override</text>
<text text-anchor="start" x="304" y="-18.5" font-family="Helvetica,sans-Serif" font-size="10.00">+ void SetData(void *data, uint32_t size) override</text>
<text text-anchor="start" x="304" y="-7.5" font-family="Helvetica,sans-Serif" font-size="10.00">+ void Bind(uint32_t slot=0) const override</text>
</a>
</g>
</g>
<!-- Node2 -->
<g id="node2" class="node">
<title>Node2</title>
<g id="a_node2"><a xlink:href="classgauri_1_1Texture2D.html" target="_top" xlink:title=" ">
<polygon fill="white" stroke="black" points="0,-193.5 0,-261.5 338,-261.5 338,-193.5 0,-193.5"/>
<text text-anchor="middle" x="169" y="-249.5" font-family="Helvetica,sans-Serif" font-size="10.00">gauri::Texture2D</text>
<polyline fill="none" stroke="black" points="0,-242.5 338,-242.5 "/>
<text text-anchor="middle" x="169" y="-230.5" font-family="Helvetica,sans-Serif" font-size="10.00"> </text>
<polyline fill="none" stroke="black" points="0,-223.5 338,-223.5 "/>
<text text-anchor="start" x="8" y="-211.5" font-family="Helvetica,sans-Serif" font-size="10.00">+ static Ref&lt; Texture2D &gt; Create(uint32_t width, uint32_t height)</text>
<text text-anchor="start" x="8" y="-200.5" font-family="Helvetica,sans-Serif" font-size="10.00">+ static Ref&lt; Texture2D &gt; Create(const std::string &amp;path)</text>
</a>
</g>
</g>
<!-- Node2&#45;&gt;Node1 -->
<g id="edge1" class="edge">
<title>Node2&#45;&gt;Node1</title>
<path fill="none" stroke="midnightblue" d="M230.73,-188.12C261.61,-168.92 299.72,-145.23 334.44,-123.65"/>
<polygon fill="none" stroke="midnightblue" points="228.87,-185.16 222.22,-193.41 232.56,-191.11 228.87,-185.16"/>
</g>
<!-- Node3 -->
<g id="node3" class="node">
<title>Node3</title>
<g id="a_node3"><a xlink:href="classgauri_1_1Texture.html" target="_top" xlink:title=" ">
<polygon fill="white" stroke="black" points="36,-299.5 36,-400.5 302,-400.5 302,-299.5 36,-299.5"/>
<text text-anchor="middle" x="169" y="-388.5" font-family="Helvetica,sans-Serif" font-size="10.00">gauri::Texture</text>
<polyline fill="none" stroke="black" points="36,-381.5 302,-381.5 "/>
<text text-anchor="middle" x="169" y="-369.5" font-family="Helvetica,sans-Serif" font-size="10.00"> </text>
<polyline fill="none" stroke="black" points="36,-362.5 302,-362.5 "/>
<text text-anchor="start" x="44" y="-350.5" font-family="Helvetica,sans-Serif" font-size="10.00">+ virtual ~Texture()=default</text>
<text text-anchor="start" x="44" y="-339.5" font-family="Helvetica,sans-Serif" font-size="10.00">+ virtual uint32_t GetWidth() const =0</text>
<text text-anchor="start" x="44" y="-328.5" font-family="Helvetica,sans-Serif" font-size="10.00">+ virtual uint32_t GetHeight() const =0</text>
<text text-anchor="start" x="44" y="-317.5" font-family="Helvetica,sans-Serif" font-size="10.00">+ virtual void SetData(void *data, uint32_t size)=0</text>
<text text-anchor="start" x="44" y="-306.5" font-family="Helvetica,sans-Serif" font-size="10.00">+ virtual void Bind(uint32_t slot=0) const =0</text>
</a>
</g>
</g>
<!-- Node3&#45;&gt;Node2 -->
<g id="edge2" class="edge">
<title>Node3&#45;&gt;Node2</title>
<path fill="none" stroke="midnightblue" d="M169,-289.07C169,-279.61 169,-270.14 169,-261.59"/>
<polygon fill="none" stroke="midnightblue" points="165.5,-289.29 169,-299.29 172.5,-289.29 165.5,-289.29"/>
</g>
<!-- Node4 -->
<g id="node4" class="node">
<title>Node4</title>
<g id="a_node4"><a xlink:title=" ">
<polygon fill="white" stroke="#bfbfbf" points="356,-199 356,-256 412,-256 412,-199 356,-199"/>
<text text-anchor="middle" x="384" y="-244" font-family="Helvetica,sans-Serif" font-size="10.00">uint32_t</text>
<polyline fill="none" stroke="#bfbfbf" points="356,-237 412,-237 "/>
<text text-anchor="middle" x="384" y="-225" font-family="Helvetica,sans-Serif" font-size="10.00"> </text>
<polyline fill="none" stroke="#bfbfbf" points="356,-218 412,-218 "/>
<text text-anchor="middle" x="384" y="-206" font-family="Helvetica,sans-Serif" font-size="10.00"> </text>
</a>
</g>
</g>
<!-- Node4&#45;&gt;Node1 -->
<g id="edge3" class="edge">
<title>Node4&#45;&gt;Node1</title>
<path fill="none" stroke="#404040" d="M380.76,-198.97C379.65,-182.19 379.79,-160.5 385,-142 385.65,-139.7 386.38,-137.39 387.19,-135.09"/>
<polygon fill="none" stroke="#404040" points="387.3,-134.82 385.83,-127.77 391.78,-123.69 393.25,-130.75 387.3,-134.82"/>
<text text-anchor="middle" x="422" y="-167" font-family="Helvetica,sans-Serif" font-size="10.00"> &#45;m_Height</text>
<text text-anchor="middle" x="422" y="-156" font-family="Helvetica,sans-Serif" font-size="10.00">&#45;m_RendererID</text>
<text text-anchor="middle" x="422" y="-145" font-family="Helvetica,sans-Serif" font-size="10.00">&#45;m_Width</text>
</g>
<!-- Node5 -->
<g id="node5" class="node">
<title>Node5</title>
<g id="a_node5"><a xlink:title=" ">
<polygon fill="white" stroke="#bfbfbf" points="466.5,-199 466.5,-256 495.5,-256 495.5,-199 466.5,-199"/>
<text text-anchor="middle" x="481" y="-244" font-family="Helvetica,sans-Serif" font-size="10.00">int</text>
<polyline fill="none" stroke="#bfbfbf" points="466.5,-237 495.5,-237 "/>
<text text-anchor="middle" x="481" y="-225" font-family="Helvetica,sans-Serif" font-size="10.00"> </text>
<polyline fill="none" stroke="#bfbfbf" points="466.5,-218 495.5,-218 "/>
<text text-anchor="middle" x="481" y="-206" font-family="Helvetica,sans-Serif" font-size="10.00"> </text>
</a>
</g>
</g>
<!-- Node5&#45;&gt;Node1 -->
<g id="edge4" class="edge">
<title>Node5&#45;&gt;Node1</title>
<path fill="none" stroke="#404040" d="M474.38,-198.96C470.26,-182.37 464.67,-160.87 459,-142 458.33,-139.76 457.63,-137.49 456.92,-135.2"/>
<polygon fill="none" stroke="#404040" points="456.89,-135.1 451.25,-130.6 453.24,-123.67 458.88,-128.17 456.89,-135.1"/>
<text text-anchor="middle" x="514.5" y="-161.5" font-family="Helvetica,sans-Serif" font-size="10.00"> &#45;m_DataFormat</text>
<text text-anchor="middle" x="514.5" y="-150.5" font-family="Helvetica,sans-Serif" font-size="10.00">&#45;m_InternalFormat</text>
</g>
<!-- Node6 -->
<g id="node6" class="node">
<title>Node6</title>
<g id="a_node6"><a xlink:title=" ">
<polygon fill="white" stroke="#bfbfbf" points="562.5,-199 562.5,-256 627.5,-256 627.5,-199 562.5,-199"/>
<text text-anchor="middle" x="595" y="-244" font-family="Helvetica,sans-Serif" font-size="10.00">std::string</text>
<polyline fill="none" stroke="#bfbfbf" points="562.5,-237 627.5,-237 "/>
<text text-anchor="middle" x="595" y="-225" font-family="Helvetica,sans-Serif" font-size="10.00"> </text>
<polyline fill="none" stroke="#bfbfbf" points="562.5,-218 627.5,-218 "/>
<text text-anchor="middle" x="595" y="-206" font-family="Helvetica,sans-Serif" font-size="10.00"> </text>
</a>
</g>
</g>
<!-- Node6&#45;&gt;Node1 -->
<g id="edge5" class="edge">
<title>Node6&#45;&gt;Node1</title>
<path fill="none" stroke="#404040" d="M589.89,-199C585.45,-181.19 577.55,-158.37 564,-142 561.15,-138.56 558.11,-135.23 554.91,-132.01"/>
<polygon fill="none" stroke="#404040" points="554.87,-131.97 547.76,-130.78 546.12,-123.76 553.23,-124.95 554.87,-131.97"/>
<text text-anchor="middle" x="603.5" y="-156" font-family="Helvetica,sans-Serif" font-size="10.00"> &#45;m_Path</text>
</g>
<!-- Node7 -->
<g id="node7" class="node">
<title>Node7</title>
<g id="a_node7"><a xlink:title=" ">
<polygon fill="white" stroke="#bfbfbf" points="524.5,-321.5 524.5,-378.5 665.5,-378.5 665.5,-321.5 524.5,-321.5"/>
<text text-anchor="middle" x="595" y="-366.5" font-family="Helvetica,sans-Serif" font-size="10.00">std::basic_string&lt; Char &gt;</text>
<polyline fill="none" stroke="#bfbfbf" points="524.5,-359.5 665.5,-359.5 "/>
<text text-anchor="middle" x="595" y="-347.5" font-family="Helvetica,sans-Serif" font-size="10.00"> </text>
<polyline fill="none" stroke="#bfbfbf" points="524.5,-340.5 665.5,-340.5 "/>
<text text-anchor="middle" x="595" y="-328.5" font-family="Helvetica,sans-Serif" font-size="10.00"> </text>
</a>
</g>
</g>
<!-- Node7&#45;&gt;Node6 -->
<g id="edge6" class="edge">
<title>Node7&#45;&gt;Node6</title>
<path fill="none" stroke="midnightblue" d="M595,-311.24C595,-293.35 595,-272.37 595,-256.02"/>
<polygon fill="none" stroke="midnightblue" points="591.5,-311.35 595,-321.35 598.5,-311.35 591.5,-311.35"/>
</g>
</g>
</svg>
