<?xml version="1.0" encoding="UTF-8" standalone="no"?>
<!DOCTYPE svg PUBLIC "-//W3C//DTD SVG 1.1//EN"
 "http://www.w3.org/Graphics/SVG/1.1/DTD/svg11.dtd">
<!-- Generated by graphviz version 2.43.0 (0)
 -->
<!-- Title: gauri::OpenGLTexture2D Pages: 1 -->
<!--zoomable 453 -->
<svg id="main" version="1.1" xmlns="http://www.w3.org/2000/svg" xmlns:xlink="http://www.w3.org/1999/xlink" xml:space="preserve" onload="init(evt)">
<style type="text/css"><![CDATA[
.edge:hover path { stroke: red; }
.edge:hover polygon { stroke: red; fill: red; }
]]></style>
<script type="text/javascript"><![CDATA[
var edges = document.getElementsByTagName('g');
if (edges && edges.length) {
  for (var i=0;i<edges.length;i++) {
    if (edges[i].id.substr(0,4)=='edge') {
      edges[i].setAttribute('class','edge');
    }
  }
}
]]></script>
        <defs>
                <circle id="rim" cx="0" cy="0" r="7"/>
                <circle id="rim2" cx="0" cy="0" r="3.5"/>
                <g id="zoomPlus">
                        <use xlink:href="#rim" fill="#404040">
                                <set attributeName="fill" to="#808080" begin="zoomplus.mouseover" end="zoomplus.mouseout"/>
                        </use>
                        <path d="M-4,0h8M0,-4v8" fill="none" stroke="white" stroke-width="1.5" pointer-events="none"/>
                </g>
                <g id="zoomMin">
                        <use xlink:href="#rim" fill="#404040">
                                <set attributeName="fill" to="#808080" begin="zoomminus.mouseover" end="zoomminus.mouseout"/>
                        </use>
                        <path d="M-4,0h8" fill="none" stroke="white" stroke-width="1.5" pointer-events="none"/>
                </g>
                <g id="dirArrow">
                        <path fill="none" stroke="white" stroke-width="1.5" d="M0,-3.0v7 M-2.5,-0.5L0,-3.0L2.5,-0.5"/>
                </g>
               <g id="resetDef">
                       <use xlink:href="#rim2" fill="#404040">
                               <set attributeName="fill" to="#808080" begin="reset.mouseover" end="reset.mouseout"/>
                       </use>
               </g>
        </defs>

<script type="text/javascript">
var viewWidth = 674;
var viewHeight = 453;
var sectionId = 'dynsection-1';
</script>
<script xlink:href="svgpan.js"/>
<svg id="graph" class="graph">
<g id="viewport">
<title>gauri::OpenGLTexture2D</title>
<polygon fill="white" stroke="transparent" points="-4,4 -4,-449 669.5,-449 669.5,4 -4,4"/>
<!-- Node1 -->
<g id="node1" class="node">
<title>Node1</title>
<g id="a_node1"><a xlink:title=" ">
<polygon fill="#bfbfbf" stroke="black" points="286.5,-0.5 286.5,-145.5 577.5,-145.5 577.5,-0.5 286.5,-0.5"/>
<text text-anchor="middle" x="432" y="-133.5" font-family="Helvetica,sans-Serif" font-size="10.00">gauri::OpenGLTexture2D</text>
<polyline fill="none" stroke="black" points="286.5,-126.5 577.5,-126.5 "/>
<text text-anchor="middle" x="432" y="-114.5" font-family="Helvetica,sans-Serif" font-size="10.00"> </text>
<polyline fill="none" stroke="black" points="286.5,-107.5 577.5,-107.5 "/>
<text text-anchor="start" x="294.5" y="-95.5" font-family="Helvetica,sans-Serif" font-size="10.00">+ OpenGLTexture2D(uint32_t width, uint32_t height)</text>
<text text-anchor="start" x="294.5" y="-84.5" font-family="Helvetica,sans-Serif" font-size="10.00">+ OpenGLTexture2D(const std::string &amp;path)</text>
<text text-anchor="start" x="294.5" y="-73.5" font-family="Helvetica,sans-Serif" font-size="10.00">+ ~OpenGLTexture2D() override</text>
<text text-anchor="start" x="294.5" y="-62.5" font-family="Helvetica,sans-Serif" font-size="10.00">+ uint32_t GetWidth() const override</text>
<text text-anchor="start" x="294.5" y="-51.5" font-family="Helvetica,sans-Serif" font-size="10.00">+ uint32_t GetHeight() const override</text>
<text text-anchor="start" x="294.5" y="-40.5" font-family="Helvetica,sans-Serif" font-size="10.00">+ uint32_t GetRendererID() const override</text>
<text text-anchor="start" x="294.5" y="-29.5" font-family="Helvetica,sans-Serif" font-size="10.00">+ void SetData(void *data, uint32_t size) override</text>
<text text-anchor="start" x="294.5" y="-18.5" font-family="Helvetica,sans-Serif" font-size="10.00">+ void Bind(uint32_t slot=0) const override</text>
<text text-anchor="start" x="294.5" y="-7.5" font-family="Helvetica,sans-Serif" font-size="10.00">+ bool operator==(const Texture &amp;other) const override</text>
</a>
</g>
</g>
<!-- Node2 -->
<g id="node2" class="node">
<title>Node2</title>
<g id="a_node2"><a xlink:href="classgauri_1_1Texture2D.html" target="_top" xlink:title=" ">
<polygon fill="white" stroke="black" points="0,-215.5 0,-283.5 338,-283.5 338,-215.5 0,-215.5"/>
<text text-anchor="middle" x="169" y="-271.5" font-family="Helvetica,sans-Serif" font-size="10.00">gauri::Texture2D</text>
<polyline fill="none" stroke="black" points="0,-264.5 338,-264.5 "/>
<text text-anchor="middle" x="169" y="-252.5" font-family="Helvetica,sans-Serif" font-size="10.00"> </text>
<polyline fill="none" stroke="black" points="0,-245.5 338,-245.5 "/>
<text text-anchor="start" x="8" y="-233.5" font-family="Helvetica,sans-Serif" font-size="10.00">+ static Ref&lt; Texture2D &gt; Create(uint32_t width, uint32_t height)</text>
<text text-anchor="start" x="8" y="-222.5" font-family="Helvetica,sans-Serif" font-size="10.00">+ static Ref&lt; Texture2D &gt; Create(const std::string &amp;path)</text>
</a>
</g>
</g>
<!-- Node2&#45;&gt;Node1 -->
<g id="edge1" class="edge">
<title>Node2&#45;&gt;Node1</title>
<path fill="none" stroke="midnightblue" d="M227.39,-209.76C255.86,-190.87 291.04,-167.53 324.14,-145.56"/>
<polygon fill="none" stroke="midnightblue" points="225.18,-207.03 218.78,-215.47 229.05,-212.86 225.18,-207.03"/>
</g>
<!-- Node3 -->
<g id="node3" class="node">
<title>Node3</title>
<g id="a_node3"><a xlink:href="classgauri_1_1Texture.html" target="_top" xlink:title=" ">
<polygon fill="white" stroke="black" points="19.5,-321.5 19.5,-444.5 318.5,-444.5 318.5,-321.5 19.5,-321.5"/>
<text text-anchor="middle" x="169" y="-432.5" font-family="Helvetica,sans-Serif" font-size="10.00">gauri::Texture</text>
<polyline fill="none" stroke="black" points="19.5,-425.5 318.5,-425.5 "/>
<text text-anchor="middle" x="169" y="-413.5" font-family="Helvetica,sans-Serif" font-size="10.00"> </text>
<polyline fill="none" stroke="black" points="19.5,-406.5 318.5,-406.5 "/>
<text text-anchor="start" x="27.5" y="-394.5" font-family="Helvetica,sans-Serif" font-size="10.00">+ virtual ~Texture()=default</text>
<text text-anchor="start" x="27.5" y="-383.5" font-family="Helvetica,sans-Serif" font-size="10.00">+ virtual uint32_t GetWidth() const =0</text>
<text text-anchor="start" x="27.5" y="-372.5" font-family="Helvetica,sans-Serif" font-size="10.00">+ virtual uint32_t GetHeight() const =0</text>
<text text-anchor="start" x="27.5" y="-361.5" font-family="Helvetica,sans-Serif" font-size="10.00">+ virtual uint32_t GetRendererID() const =0</text>
<text text-anchor="start" x="27.5" y="-350.5" font-family="Helvetica,sans-Serif" font-size="10.00">+ virtual void SetData(void *data, uint32_t size)=0</text>
<text text-anchor="start" x="27.5" y="-339.5" font-family="Helvetica,sans-Serif" font-size="10.00">+ virtual void Bind(uint32_t slot=0) const =0</text>
<text text-anchor="start" x="27.5" y="-328.5" font-family="Helvetica,sans-Serif" font-size="10.00">+ virtual bool operator==(const Texture &amp;other) const =0</text>
</a>
</g>
</g>
<!-- Node3&#45;&gt;Node2 -->
<g id="edge2" class="edge">
<title>Node3&#45;&gt;Node2</title>
<path fill="none" stroke="midnightblue" d="M169,-311.24C169,-301.65 169,-292.21 169,-283.73"/>
<polygon fill="none" stroke="midnightblue" points="165.5,-311.25 169,-321.25 172.5,-311.25 165.5,-311.25"/>
</g>
<!-- Node4 -->
<g id="node4" class="node">
<title>Node4</title>
<g id="a_node4"><a xlink:title=" ">
<polygon fill="white" stroke="#bfbfbf" points="356,-221 356,-278 412,-278 412,-221 356,-221"/>
<text text-anchor="middle" x="384" y="-266" font-family="Helvetica,sans-Serif" font-size="10.00">uint32_t</text>
<polyline fill="none" stroke="#bfbfbf" points="356,-259 412,-259 "/>
<text text-anchor="middle" x="384" y="-247" font-family="Helvetica,sans-Serif" font-size="10.00"> </text>
<polyline fill="none" stroke="#bfbfbf" points="356,-240 412,-240 "/>
<text text-anchor="middle" x="384" y="-228" font-family="Helvetica,sans-Serif" font-size="10.00"> </text>
</a>
</g>
</g>
<!-- Node4&#45;&gt;Node1 -->
<g id="edge3" class="edge">
<title>Node4&#45;&gt;Node1</title>
<path fill="none" stroke="#404040" d="M381.11,-220.68C380.16,-204 380.35,-182.5 385,-164 385.58,-161.69 386.23,-159.38 386.94,-157.06"/>
<polygon fill="none" stroke="#404040" points="387.01,-156.86 385.21,-149.88 390.96,-145.53 392.76,-152.51 387.01,-156.86"/>
<text text-anchor="middle" x="422" y="-189" font-family="Helvetica,sans-Serif" font-size="10.00"> &#45;m_Height</text>
<text text-anchor="middle" x="422" y="-178" font-family="Helvetica,sans-Serif" font-size="10.00">&#45;m_RendererID</text>
<text text-anchor="middle" x="422" y="-167" font-family="Helvetica,sans-Serif" font-size="10.00">&#45;m_Width</text>
</g>
<!-- Node5 -->
<g id="node5" class="node">
<title>Node5</title>
<g id="a_node5"><a xlink:title=" ">
<polygon fill="white" stroke="#bfbfbf" points="466.5,-221 466.5,-278 495.5,-278 495.5,-221 466.5,-221"/>
<text text-anchor="middle" x="481" y="-266" font-family="Helvetica,sans-Serif" font-size="10.00">int</text>
<polyline fill="none" stroke="#bfbfbf" points="466.5,-259 495.5,-259 "/>
<text text-anchor="middle" x="481" y="-247" font-family="Helvetica,sans-Serif" font-size="10.00"> </text>
<polyline fill="none" stroke="#bfbfbf" points="466.5,-240 495.5,-240 "/>
<text text-anchor="middle" x="481" y="-228" font-family="Helvetica,sans-Serif" font-size="10.00"> </text>
</a>
</g>
</g>
<!-- Node5&#45;&gt;Node1 -->
<g id="edge4" class="edge">
<title>Node5&#45;&gt;Node1</title>
<path fill="none" stroke="#404040" d="M474.02,-220.65C469.82,-204.14 464.27,-182.83 459,-164 458.37,-161.76 457.73,-159.49 457.08,-157.21"/>
<polygon fill="none" stroke="#404040" points="457.08,-157.19 451.57,-152.53 453.75,-145.65 459.26,-150.31 457.08,-157.19"/>
<text text-anchor="middle" x="513.5" y="-183.5" font-family="Helvetica,sans-Serif" font-size="10.00"> &#45;m_DataFormat</text>
<text text-anchor="middle" x="513.5" y="-172.5" font-family="Helvetica,sans-Serif" font-size="10.00">&#45;m_InternalFormat</text>
</g>
<!-- Node6 -->
<g id="node6" class="node">
<title>Node6</title>
<g id="a_node6"><a xlink:title=" ">
<polygon fill="white" stroke="#bfbfbf" points="562.5,-221 562.5,-278 627.5,-278 627.5,-221 562.5,-221"/>
<text text-anchor="middle" x="595" y="-266" font-family="Helvetica,sans-Serif" font-size="10.00">std::string</text>
<polyline fill="none" stroke="#bfbfbf" points="562.5,-259 627.5,-259 "/>
<text text-anchor="middle" x="595" y="-247" font-family="Helvetica,sans-Serif" font-size="10.00"> </text>
<polyline fill="none" stroke="#bfbfbf" points="562.5,-240 627.5,-240 "/>
<text text-anchor="middle" x="595" y="-228" font-family="Helvetica,sans-Serif" font-size="10.00"> </text>
</a>
</g>
</g>
<!-- Node6&#45;&gt;Node1 -->
<g id="edge5" class="edge">
<title>Node6&#45;&gt;Node1</title>
<path fill="none" stroke="#404040" d="M589.07,-220.88C584.26,-203.25 576.07,-180.66 563,-164 560.41,-160.7 557.66,-157.47 554.79,-154.32"/>
<polygon fill="none" stroke="#404040" points="554.74,-154.27 547.69,-152.74 546.38,-145.65 553.43,-147.17 554.74,-154.27"/>
<text text-anchor="middle" x="602.5" y="-178" font-family="Helvetica,sans-Serif" font-size="10.00"> &#45;m_Path</text>
</g>
<!-- Node7 -->
<g id="node7" class="node">
<title>Node7</title>
<g id="a_node7"><a xlink:title=" ">
<polygon fill="white" stroke="#bfbfbf" points="524.5,-354.5 524.5,-411.5 665.5,-411.5 665.5,-354.5 524.5,-354.5"/>
<text text-anchor="middle" x="595" y="-399.5" font-family="Helvetica,sans-Serif" font-size="10.00">std::basic_string&lt; Char &gt;</text>
<polyline fill="none" stroke="#bfbfbf" points="524.5,-392.5 665.5,-392.5 "/>
<text text-anchor="middle" x="595" y="-380.5" font-family="Helvetica,sans-Serif" font-size="10.00"> </text>
<polyline fill="none" stroke="#bfbfbf" points="524.5,-373.5 665.5,-373.5 "/>
<text text-anchor="middle" x="595" y="-361.5" font-family="Helvetica,sans-Serif" font-size="10.00"> </text>
</a>
</g>
</g>
<!-- Node7&#45;&gt;Node6 -->
<g id="edge6" class="edge">
<title>Node7&#45;&gt;Node6</title>
<path fill="none" stroke="midnightblue" d="M595,-344.19C595,-323.07 595,-297.22 595,-278.03"/>
<polygon fill="none" stroke="midnightblue" points="591.5,-344.43 595,-354.43 598.5,-344.43 591.5,-344.43"/>
</g>
</g>
</svg>
        <g id="navigator" transform="translate(0 0)" fill="#404254">
                <rect fill="#f2f5e9" fill-opacity="0.5" stroke="#606060" stroke-width=".5" x="0" y="0" width="60" height="60"/>
                <use id="zoomplus" xlink:href="#zoomPlus" x="17" y="9" onmousedown="handleZoom(evt,'in')"/>
                <use id="zoomminus" xlink:href="#zoomMin" x="42" y="9" onmousedown="handleZoom(evt,'out')"/>
                <use id="reset" xlink:href="#resetDef" x="30" y="36" onmousedown="handleReset()"/>
                <g id="arrowUp" xlink:href="#dirArrow" transform="translate(30 24)" onmousedown="handlePan(0,-1)">
                  <use xlink:href="#rim" fill="#404040">
                        <set attributeName="fill" to="#808080" begin="arrowUp.mouseover" end="arrowUp.mouseout"/>
                  </use>
                  <path fill="none" stroke="white" stroke-width="1.5" d="M0,-3.0v7 M-2.5,-0.5L0,-3.0L2.5,-0.5"/>
                </g>
                <g id="arrowRight" xlink:href="#dirArrow" transform="rotate(90) translate(36 -43)" onmousedown="handlePan(1,0)">
                  <use xlink:href="#rim" fill="#404040">
                        <set attributeName="fill" to="#808080" begin="arrowRight.mouseover" end="arrowRight.mouseout"/>
                  </use>
                  <path fill="none" stroke="white" stroke-width="1.5" d="M0,-3.0v7 M-2.5,-0.5L0,-3.0L2.5,-0.5"/>
                </g>
                <g id="arrowDown" xlink:href="#dirArrow" transform="rotate(180) translate(-30 -48)" onmousedown="handlePan(0,1)">
                  <use xlink:href="#rim" fill="#404040">
                        <set attributeName="fill" to="#808080" begin="arrowDown.mouseover" end="arrowDown.mouseout"/>
                  </use>
                  <path fill="none" stroke="white" stroke-width="1.5" d="M0,-3.0v7 M-2.5,-0.5L0,-3.0L2.5,-0.5"/>
                </g>
                <g id="arrowLeft" xlink:href="#dirArrow" transform="rotate(270) translate(-36 17)" onmousedown="handlePan(-1,0)">
                  <use xlink:href="#rim" fill="#404040">
                        <set attributeName="fill" to="#808080" begin="arrowLeft.mouseover" end="arrowLeft.mouseout"/>
                  </use>
                  <path fill="none" stroke="white" stroke-width="1.5" d="M0,-3.0v7 M-2.5,-0.5L0,-3.0L2.5,-0.5"/>
                </g>
        </g>
        <svg viewBox="0 0 15 15" width="100%" height="30px" preserveAspectRatio="xMaxYMin meet">
         <g id="arrow_out" transform="scale(0.3 0.3)">
          <a xlink:href="classgauri_1_1OpenGLTexture2D__coll__graph_org.svg" target="_base">
           <rect id="button" ry="5" rx="5" y="6" x="6" height="38" width="38"
                fill="#f2f5e9" fill-opacity="0.5" stroke="#606060" stroke-width="1.0"/>
           <path id="arrow"
             d="M 11.500037,31.436501 C 11.940474,20.09759 22.043105,11.32322 32.158766,21.979434 L 37.068811,17.246167 C 37.068811,17.246167 37.088388,32 37.088388,32 L 22.160133,31.978069 C 22.160133,31.978069 26.997745,27.140456 26.997745,27.140456 C 18.528582,18.264221 13.291696,25.230495 11.500037,31.436501 z"
             style="fill:#404040;"/>
          </a>
         </g>
        </svg>
</svg>
