<?xml version="1.0" encoding="UTF-8" standalone="no"?>
<!DOCTYPE svg PUBLIC "-//W3C//DTD SVG 1.1//EN"
 "http://www.w3.org/Graphics/SVG/1.1/DTD/svg11.dtd">
<!-- Generated by graphviz version 2.43.0 (0)
 -->
<!-- Title: gauri::RendererAPI Pages: 1 -->
<svg width="478pt" height="226pt"
 viewBox="0.00 0.00 478.00 226.00" xmlns="http://www.w3.org/2000/svg" xmlns:xlink="http://www.w3.org/1999/xlink">
<g id="graph0" class="graph" transform="scale(1 1) rotate(0) translate(4 222)">
<title>gauri::RendererAPI</title>
<polygon fill="white" stroke="transparent" points="-4,4 -4,-222 474,-222 474,4 -4,4"/>
<!-- Node1 -->
<g id="node1" class="node">
<title>Node1</title>
<g id="a_node1"><a xlink:title=" ">
<polygon fill="#bfbfbf" stroke="black" points="0,-0.5 0,-112.5 470,-112.5 470,-0.5 0,-0.5"/>
<text text-anchor="middle" x="235" y="-100.5" font-family="Helvetica,sans-Serif" font-size="10.00">gauri::RendererAPI</text>
<polyline fill="none" stroke="black" points="0,-93.5 470,-93.5 "/>
<text text-anchor="middle" x="235" y="-81.5" font-family="Helvetica,sans-Serif" font-size="10.00"> </text>
<polyline fill="none" stroke="black" points="0,-74.5 470,-74.5 "/>
<text text-anchor="start" x="8" y="-62.5" font-family="Helvetica,sans-Serif" font-size="10.00">+ virtual void Init()=0</text>
<text text-anchor="start" x="8" y="-51.5" font-family="Helvetica,sans-Serif" font-size="10.00">+ virtual void SetClearColor(const glm::vec4 &amp;color)=0</text>
<text text-anchor="start" x="8" y="-40.5" font-family="Helvetica,sans-Serif" font-size="10.00">+ virtual void SetViewport(uint32_t x, uint32_t y, uint32_t width, uint32_t height)=0</text>
<text text-anchor="start" x="8" y="-29.5" font-family="Helvetica,sans-Serif" font-size="10.00">+ virtual void Clear()=0</text>
<text text-anchor="start" x="8" y="-18.5" font-family="Helvetica,sans-Serif" font-size="10.00">+ virtual void DrawIndexed(const Ref&lt; VertexArray &gt; &amp;vertexArray, uint32_t indexCount)=0</text>
<text text-anchor="start" x="8" y="-7.5" font-family="Helvetica,sans-Serif" font-size="10.00">+ static API GetAPI()</text>
</a>
</g>
</g>
<!-- Node2 -->
<g id="node2" class="node">
<title>Node2</title>
<g id="a_node2"><a xlink:title=" ">
<polygon fill="white" stroke="#bfbfbf" points="204,-160.5 204,-217.5 266,-217.5 266,-160.5 204,-160.5"/>
<text text-anchor="middle" x="235" y="-205.5" font-family="Helvetica,sans-Serif" font-size="10.00">static API</text>
<polyline fill="none" stroke="#bfbfbf" points="204,-198.5 266,-198.5 "/>
<text text-anchor="middle" x="235" y="-186.5" font-family="Helvetica,sans-Serif" font-size="10.00"> </text>
<polyline fill="none" stroke="#bfbfbf" points="204,-179.5 266,-179.5 "/>
<text text-anchor="middle" x="235" y="-167.5" font-family="Helvetica,sans-Serif" font-size="10.00"> </text>
</a>
</g>
</g>
<!-- Node2&#45;&gt;Node1 -->
<g id="edge1" class="edge">
<title>Node2&#45;&gt;Node1</title>
<path fill="none" stroke="#404040" d="M235,-160.32C235,-149.78 235,-137.25 235,-124.62"/>
<polygon fill="none" stroke="#404040" points="235,-124.55 231,-118.55 235,-112.55 239,-118.55 235,-124.55"/>
<text text-anchor="middle" x="252" y="-134" font-family="Helvetica,sans-Serif" font-size="10.00"> &#45;s_API</text>
</g>
</g>
</svg>
