<?xml version="1.0" encoding="UTF-8" standalone="no"?>
<!DOCTYPE svg PUBLIC "-//W3C//DTD SVG 1.1//EN"
 "http://www.w3.org/Graphics/SVG/1.1/DTD/svg11.dtd">
<!-- Generated by graphviz version 2.43.0 (0)
 -->
<!-- Title: gauri::OpenGLShader Pages: 1 -->
<!--zoomable 584 -->
<svg id="main" version="1.1" xmlns="http://www.w3.org/2000/svg" xmlns:xlink="http://www.w3.org/1999/xlink" xml:space="preserve" onload="init(evt)">
<style type="text/css"><![CDATA[
.edge:hover path { stroke: red; }
.edge:hover polygon { stroke: red; fill: red; }
]]></style>
<script type="text/javascript"><![CDATA[
var edges = document.getElementsByTagName('g');
if (edges && edges.length) {
  for (var i=0;i<edges.length;i++) {
    if (edges[i].id.substr(0,4)=='edge') {
      edges[i].setAttribute('class','edge');
    }
  }
}
]]></script>
        <defs>
                <circle id="rim" cx="0" cy="0" r="7"/>
                <circle id="rim2" cx="0" cy="0" r="3.5"/>
                <g id="zoomPlus">
                        <use xlink:href="#rim" fill="#404040">
                                <set attributeName="fill" to="#808080" begin="zoomplus.mouseover" end="zoomplus.mouseout"/>
                        </use>
                        <path d="M-4,0h8M0,-4v8" fill="none" stroke="white" stroke-width="1.5" pointer-events="none"/>
                </g>
                <g id="zoomMin">
                        <use xlink:href="#rim" fill="#404040">
                                <set attributeName="fill" to="#808080" begin="zoomminus.mouseover" end="zoomminus.mouseout"/>
                        </use>
                        <path d="M-4,0h8" fill="none" stroke="white" stroke-width="1.5" pointer-events="none"/>
                </g>
                <g id="dirArrow">
                        <path fill="none" stroke="white" stroke-width="1.5" d="M0,-3.0v7 M-2.5,-0.5L0,-3.0L2.5,-0.5"/>
                </g>
               <g id="resetDef">
                       <use xlink:href="#rim2" fill="#404040">
                               <set attributeName="fill" to="#808080" begin="reset.mouseover" end="reset.mouseout"/>
                       </use>
               </g>
        </defs>

<script type="text/javascript">
var viewWidth = 826;
var viewHeight = 584;
var sectionId = 'dynsection-1';
</script>
<script xlink:href="svgpan.js"/>
<svg id="graph" class="graph">
<g id="viewport">
<title>gauri::OpenGLShader</title>
<polygon fill="white" stroke="transparent" points="-4,4 -4,-580 822.23,-580 822.23,4 -4,4"/>
<!-- Node1 -->
<g id="node1" class="node">
<title>Node1</title>
<g id="a_node1"><a xlink:title=" ">
<polygon fill="#bfbfbf" stroke="black" points="145.23,-0.5 145.23,-266.5 664.23,-266.5 664.23,-0.5 145.23,-0.5"/>
<text text-anchor="middle" x="404.73" y="-254.5" font-family="Helvetica,sans-Serif" font-size="10.00">gauri::OpenGLShader</text>
<polyline fill="none" stroke="black" points="145.23,-247.5 664.23,-247.5 "/>
<text text-anchor="middle" x="404.73" y="-235.5" font-family="Helvetica,sans-Serif" font-size="10.00"> </text>
<polyline fill="none" stroke="black" points="145.23,-228.5 664.23,-228.5 "/>
<text text-anchor="start" x="153.23" y="-216.5" font-family="Helvetica,sans-Serif" font-size="10.00">+ OpenGLShader(const std::string &amp;filepath)</text>
<text text-anchor="start" x="153.23" y="-205.5" font-family="Helvetica,sans-Serif" font-size="10.00">+ OpenGLShader(const std::string &amp;name, const std::string &amp;vertexSrc, const std::string &amp;fragmentSrc)</text>
<text text-anchor="start" x="153.23" y="-194.5" font-family="Helvetica,sans-Serif" font-size="10.00">+ ~OpenGLShader() override</text>
<text text-anchor="start" x="153.23" y="-183.5" font-family="Helvetica,sans-Serif" font-size="10.00">+ void Bind() const override</text>
<text text-anchor="start" x="153.23" y="-172.5" font-family="Helvetica,sans-Serif" font-size="10.00">+ void Unbind() const override</text>
<text text-anchor="start" x="153.23" y="-161.5" font-family="Helvetica,sans-Serif" font-size="10.00">+ void SetInt(const std::string &amp;name, int value) override</text>
<text text-anchor="start" x="153.23" y="-150.5" font-family="Helvetica,sans-Serif" font-size="10.00">+ void SetFloat3(const std::string &amp;name, const glm::vec3 &amp;value) override</text>
<text text-anchor="start" x="153.23" y="-139.5" font-family="Helvetica,sans-Serif" font-size="10.00">+ void SetFloat4(const std::string &amp;name, const glm::vec4 &amp;value) override</text>
<text text-anchor="start" x="153.23" y="-128.5" font-family="Helvetica,sans-Serif" font-size="10.00">+ void SetMat4(const std::string &amp;name, const glm::mat4 &amp;value) override</text>
<text text-anchor="start" x="153.23" y="-117.5" font-family="Helvetica,sans-Serif" font-size="10.00">+ const std::string &amp; GetName() const override</text>
<text text-anchor="start" x="153.23" y="-106.5" font-family="Helvetica,sans-Serif" font-size="10.00">+ void UploadUniformInt(const std::string &amp;name, int value)</text>
<text text-anchor="start" x="153.23" y="-95.5" font-family="Helvetica,sans-Serif" font-size="10.00">+ void UploadUniformFloat(const std::string &amp;name, float value)</text>
<text text-anchor="start" x="153.23" y="-84.5" font-family="Helvetica,sans-Serif" font-size="10.00">+ void UploadUniformFloat2(const std::string &amp;name, const glm::vec2 &amp;values)</text>
<text text-anchor="start" x="153.23" y="-73.5" font-family="Helvetica,sans-Serif" font-size="10.00">+ void UploadUniformFloat3(const std::string &amp;name, const glm::vec3 &amp;values)</text>
<text text-anchor="start" x="153.23" y="-62.5" font-family="Helvetica,sans-Serif" font-size="10.00">+ void UploadUniformFloat4(const std::string &amp;name, const glm::vec4 &amp;values)</text>
<text text-anchor="start" x="153.23" y="-51.5" font-family="Helvetica,sans-Serif" font-size="10.00">+ void UploadUniformMat3(const std::string &amp;name, const glm::mat3 &amp;matrix)</text>
<text text-anchor="start" x="153.23" y="-40.5" font-family="Helvetica,sans-Serif" font-size="10.00">+ void UploadUniformMat4(const std::string &amp;name, const glm::mat4 &amp;matrix)</text>
<text text-anchor="start" x="153.23" y="-29.5" font-family="Helvetica,sans-Serif" font-size="10.00">&#45; std::string ReadFile(const std::string &amp;filepath)</text>
<text text-anchor="start" x="153.23" y="-18.5" font-family="Helvetica,sans-Serif" font-size="10.00">&#45; std::unordered_map&lt; GLenum, std::string &gt; PreProcess(const std::string &amp;source)</text>
<text text-anchor="start" x="153.23" y="-7.5" font-family="Helvetica,sans-Serif" font-size="10.00">&#45; void Compile(const std::unordered_map&lt; GLenum, std::string &gt; &amp;shaderSources)</text>
</a>
</g>
</g>
<!-- Node2 -->
<g id="node2" class="node">
<title>Node2</title>
<g id="a_node2"><a xlink:href="classgauri_1_1Shader.html" target="_top" xlink:title=" ">
<polygon fill="white" stroke="black" points="112.23,-314.5 112.23,-470.5 697.23,-470.5 697.23,-314.5 112.23,-314.5"/>
<text text-anchor="middle" x="404.73" y="-458.5" font-family="Helvetica,sans-Serif" font-size="10.00">gauri::Shader</text>
<polyline fill="none" stroke="black" points="112.23,-451.5 697.23,-451.5 "/>
<text text-anchor="middle" x="404.73" y="-439.5" font-family="Helvetica,sans-Serif" font-size="10.00"> </text>
<polyline fill="none" stroke="black" points="112.23,-432.5 697.23,-432.5 "/>
<text text-anchor="start" x="120.23" y="-420.5" font-family="Helvetica,sans-Serif" font-size="10.00">+ virtual ~Shader()=default</text>
<text text-anchor="start" x="120.23" y="-409.5" font-family="Helvetica,sans-Serif" font-size="10.00">+ virtual void Bind() const =0</text>
<text text-anchor="start" x="120.23" y="-398.5" font-family="Helvetica,sans-Serif" font-size="10.00">+ virtual void Unbind() const =0</text>
<text text-anchor="start" x="120.23" y="-387.5" font-family="Helvetica,sans-Serif" font-size="10.00">+ virtual void SetInt(const std::string &amp;name, int value)=0</text>
<text text-anchor="start" x="120.23" y="-376.5" font-family="Helvetica,sans-Serif" font-size="10.00">+ virtual void SetFloat3(const std::string &amp;name, const glm::vec3 &amp;value)=0</text>
<text text-anchor="start" x="120.23" y="-365.5" font-family="Helvetica,sans-Serif" font-size="10.00">+ virtual void SetFloat4(const std::string &amp;name, const glm::vec4 &amp;value)=0</text>
<text text-anchor="start" x="120.23" y="-354.5" font-family="Helvetica,sans-Serif" font-size="10.00">+ virtual void SetMat4(const std::string &amp;name, const glm::mat4 &amp;value)=0</text>
<text text-anchor="start" x="120.23" y="-343.5" font-family="Helvetica,sans-Serif" font-size="10.00">+ virtual const std::string &amp; GetName() const =0</text>
<text text-anchor="start" x="120.23" y="-332.5" font-family="Helvetica,sans-Serif" font-size="10.00">+ static Ref&lt; Shader &gt; Create(const std::string &amp;filepath)</text>
<text text-anchor="start" x="120.23" y="-321.5" font-family="Helvetica,sans-Serif" font-size="10.00">+ static Ref&lt; Shader &gt; Create(const std::string &amp;name, const std::string &amp;vertexSrc, const std::string &amp;fragmentSrc)</text>
</a>
</g>
</g>
<!-- Node2&#45;&gt;Node1 -->
<g id="edge1" class="edge">
<title>Node2&#45;&gt;Node1</title>
<path fill="none" stroke="midnightblue" d="M404.73,-304.34C404.73,-292.21 404.73,-279.53 404.73,-266.81"/>
<polygon fill="none" stroke="midnightblue" points="401.23,-304.39 404.73,-314.39 408.23,-304.39 401.23,-304.39"/>
</g>
<!-- Node3 -->
<g id="node3" class="node">
<title>Node3</title>
<g id="a_node3"><a xlink:title=" ">
<polygon fill="white" stroke="#bfbfbf" points="94.73,-518.5 94.73,-575.5 150.73,-575.5 150.73,-518.5 94.73,-518.5"/>
<text text-anchor="middle" x="122.73" y="-563.5" font-family="Helvetica,sans-Serif" font-size="10.00">uint32_t</text>
<polyline fill="none" stroke="#bfbfbf" points="94.73,-556.5 150.73,-556.5 "/>
<text text-anchor="middle" x="122.73" y="-544.5" font-family="Helvetica,sans-Serif" font-size="10.00"> </text>
<polyline fill="none" stroke="#bfbfbf" points="94.73,-537.5 150.73,-537.5 "/>
<text text-anchor="middle" x="122.73" y="-525.5" font-family="Helvetica,sans-Serif" font-size="10.00"> </text>
</a>
</g>
</g>
<!-- Node3&#45;&gt;Node1 -->
<g id="edge3" class="edge">
<title>Node3&#45;&gt;Node1</title>
<path fill="none" stroke="#404040" d="M94.31,-533.06C71.09,-520.76 39.89,-499.85 25.73,-471 -5.02,-408.36 -11.59,-372.96 25.73,-314 52.17,-272.23 91.24,-239.99 134.39,-215.16"/>
<polygon fill="none" stroke="#404040" points="134.66,-215.01 137.96,-208.59 145.14,-209.17 141.85,-215.58 134.66,-215.01"/>
<text text-anchor="middle" x="64.23" y="-390" font-family="Helvetica,sans-Serif" font-size="10.00"> &#45;m_RendererID</text>
</g>
<!-- Node3&#45;&gt;Node2 -->
<g id="edge2" class="edge">
<title>Node3&#45;&gt;Node2</title>
<path fill="none" stroke="#404040" d="M150.8,-530.82C175.18,-517.63 212.58,-497.41 251.23,-476.51"/>
<polygon fill="none" stroke="#404040" points="251.6,-476.31 254.98,-469.94 262.16,-470.6 258.78,-476.97 251.6,-476.31"/>
<text text-anchor="middle" x="261.23" y="-492" font-family="Helvetica,sans-Serif" font-size="10.00"> &#45;m_RendererID</text>
</g>
<!-- Node4 -->
<g id="node4" class="node">
<title>Node4</title>
<g id="a_node4"><a xlink:title=" ">
<polygon fill="white" stroke="#bfbfbf" points="715.23,-364 715.23,-421 780.23,-421 780.23,-364 715.23,-364"/>
<text text-anchor="middle" x="747.73" y="-409" font-family="Helvetica,sans-Serif" font-size="10.00">std::string</text>
<polyline fill="none" stroke="#bfbfbf" points="715.23,-402 780.23,-402 "/>
<text text-anchor="middle" x="747.73" y="-390" font-family="Helvetica,sans-Serif" font-size="10.00"> </text>
<polyline fill="none" stroke="#bfbfbf" points="715.23,-383 780.23,-383 "/>
<text text-anchor="middle" x="747.73" y="-371" font-family="Helvetica,sans-Serif" font-size="10.00"> </text>
</a>
</g>
</g>
<!-- Node4&#45;&gt;Node1 -->
<g id="edge4" class="edge">
<title>Node4&#45;&gt;Node1</title>
<path fill="none" stroke="#404040" d="M737.07,-363.72C729.96,-347.81 719.4,-328.24 705.73,-314 692.38,-300.1 677.73,-286.88 662.3,-274.41"/>
<polygon fill="none" stroke="#404040" points="662.01,-274.18 654.83,-273.59 652.6,-266.73 659.79,-267.32 662.01,-274.18"/>
<text text-anchor="middle" x="711.73" y="-288" font-family="Helvetica,sans-Serif" font-size="10.00"> &#45;m_Name</text>
</g>
<!-- Node5 -->
<g id="node5" class="node">
<title>Node5</title>
<g id="a_node5"><a xlink:title=" ">
<polygon fill="white" stroke="#bfbfbf" points="677.23,-518.5 677.23,-575.5 818.23,-575.5 818.23,-518.5 677.23,-518.5"/>
<text text-anchor="middle" x="747.73" y="-563.5" font-family="Helvetica,sans-Serif" font-size="10.00">std::basic_string&lt; Char &gt;</text>
<polyline fill="none" stroke="#bfbfbf" points="677.23,-556.5 818.23,-556.5 "/>
<text text-anchor="middle" x="747.73" y="-544.5" font-family="Helvetica,sans-Serif" font-size="10.00"> </text>
<polyline fill="none" stroke="#bfbfbf" points="677.23,-537.5 818.23,-537.5 "/>
<text text-anchor="middle" x="747.73" y="-525.5" font-family="Helvetica,sans-Serif" font-size="10.00"> </text>
</a>
</g>
</g>
<!-- Node5&#45;&gt;Node4 -->
<g id="edge5" class="edge">
<title>Node5&#45;&gt;Node4</title>
<path fill="none" stroke="midnightblue" d="M747.73,-508.14C747.73,-481.17 747.73,-445.51 747.73,-421.17"/>
<polygon fill="none" stroke="midnightblue" points="744.23,-508.38 747.73,-518.38 751.23,-508.38 744.23,-508.38"/>
</g>
</g>
</svg>
        <g id="navigator" transform="translate(0 0)" fill="#404254">
                <rect fill="#f2f5e9" fill-opacity="0.5" stroke="#606060" stroke-width=".5" x="0" y="0" width="60" height="60"/>
                <use id="zoomplus" xlink:href="#zoomPlus" x="17" y="9" onmousedown="handleZoom(evt,'in')"/>
                <use id="zoomminus" xlink:href="#zoomMin" x="42" y="9" onmousedown="handleZoom(evt,'out')"/>
                <use id="reset" xlink:href="#resetDef" x="30" y="36" onmousedown="handleReset()"/>
                <g id="arrowUp" xlink:href="#dirArrow" transform="translate(30 24)" onmousedown="handlePan(0,-1)">
                  <use xlink:href="#rim" fill="#404040">
                        <set attributeName="fill" to="#808080" begin="arrowUp.mouseover" end="arrowUp.mouseout"/>
                  </use>
                  <path fill="none" stroke="white" stroke-width="1.5" d="M0,-3.0v7 M-2.5,-0.5L0,-3.0L2.5,-0.5"/>
                </g>
                <g id="arrowRight" xlink:href="#dirArrow" transform="rotate(90) translate(36 -43)" onmousedown="handlePan(1,0)">
                  <use xlink:href="#rim" fill="#404040">
                        <set attributeName="fill" to="#808080" begin="arrowRight.mouseover" end="arrowRight.mouseout"/>
                  </use>
                  <path fill="none" stroke="white" stroke-width="1.5" d="M0,-3.0v7 M-2.5,-0.5L0,-3.0L2.5,-0.5"/>
                </g>
                <g id="arrowDown" xlink:href="#dirArrow" transform="rotate(180) translate(-30 -48)" onmousedown="handlePan(0,1)">
                  <use xlink:href="#rim" fill="#404040">
                        <set attributeName="fill" to="#808080" begin="arrowDown.mouseover" end="arrowDown.mouseout"/>
                  </use>
                  <path fill="none" stroke="white" stroke-width="1.5" d="M0,-3.0v7 M-2.5,-0.5L0,-3.0L2.5,-0.5"/>
                </g>
                <g id="arrowLeft" xlink:href="#dirArrow" transform="rotate(270) translate(-36 17)" onmousedown="handlePan(-1,0)">
                  <use xlink:href="#rim" fill="#404040">
                        <set attributeName="fill" to="#808080" begin="arrowLeft.mouseover" end="arrowLeft.mouseout"/>
                  </use>
                  <path fill="none" stroke="white" stroke-width="1.5" d="M0,-3.0v7 M-2.5,-0.5L0,-3.0L2.5,-0.5"/>
                </g>
        </g>
        <svg viewBox="0 0 15 15" width="100%" height="30px" preserveAspectRatio="xMaxYMin meet">
         <g id="arrow_out" transform="scale(0.3 0.3)">
          <a xlink:href="classgauri_1_1OpenGLShader__coll__graph_org.svg" target="_base">
           <rect id="button" ry="5" rx="5" y="6" x="6" height="38" width="38"
                fill="#f2f5e9" fill-opacity="0.5" stroke="#606060" stroke-width="1.0"/>
           <path id="arrow"
             d="M 11.500037,31.436501 C 11.940474,20.09759 22.043105,11.32322 32.158766,21.979434 L 37.068811,17.246167 C 37.068811,17.246167 37.088388,32 37.088388,32 L 22.160133,31.978069 C 22.160133,31.978069 26.997745,27.140456 26.997745,27.140456 C 18.528582,18.264221 13.291696,25.230495 11.500037,31.436501 z"
             style="fill:#404040;"/>
          </a>
         </g>
        </svg>
</svg>
