<?xml version="1.0" encoding="UTF-8" standalone="no"?>
<!DOCTYPE svg PUBLIC "-//W3C//DTD SVG 1.1//EN"
 "http://www.w3.org/Graphics/SVG/1.1/DTD/svg11.dtd">
<!-- Generated by graphviz version 2.43.0 (0)
 -->
<!-- Title: gauri::KeyEvent Pages: 1 -->
<svg width="318pt" height="342pt"
 viewBox="0.00 0.00 317.50 342.00" xmlns="http://www.w3.org/2000/svg" xmlns:xlink="http://www.w3.org/1999/xlink">
<g id="graph0" class="graph" transform="scale(1 1) rotate(0) translate(4 338)">
<title>gauri::KeyEvent</title>
<polygon fill="white" stroke="transparent" points="-4,4 -4,-338 313.5,-338 313.5,4 -4,4"/>
<!-- Node1 -->
<g id="node1" class="node">
<title>Node1</title>
<g id="a_node1"><a xlink:title=" ">
<polygon fill="#bfbfbf" stroke="black" points="122,-0.5 122,-68.5 283,-68.5 283,-0.5 122,-0.5"/>
<text text-anchor="middle" x="202.5" y="-56.5" font-family="Helvetica,sans-Serif" font-size="10.00">gauri::KeyEvent</text>
<polyline fill="none" stroke="black" points="122,-49.5 283,-49.5 "/>
<text text-anchor="middle" x="202.5" y="-37.5" font-family="Helvetica,sans-Serif" font-size="10.00"> </text>
<polyline fill="none" stroke="black" points="122,-30.5 283,-30.5 "/>
<text text-anchor="start" x="130" y="-18.5" font-family="Helvetica,sans-Serif" font-size="10.00">+ int32_t GetKeyCode() const</text>
<text text-anchor="start" x="130" y="-7.5" font-family="Helvetica,sans-Serif" font-size="10.00"># KeyEvent(int32_t keycode)</text>
</a>
</g>
</g>
<!-- Node2 -->
<g id="node2" class="node">
<title>Node2</title>
<g id="a_node2"><a xlink:href="classgauri_1_1Event.html" target="_top" xlink:title=" ">
<polygon fill="white" stroke="black" points="0,-116.5 0,-228.5 241,-228.5 241,-116.5 0,-116.5"/>
<text text-anchor="middle" x="120.5" y="-216.5" font-family="Helvetica,sans-Serif" font-size="10.00">gauri::Event</text>
<polyline fill="none" stroke="black" points="0,-209.5 241,-209.5 "/>
<text text-anchor="middle" x="120.5" y="-197.5" font-family="Helvetica,sans-Serif" font-size="10.00"> </text>
<polyline fill="none" stroke="black" points="0,-190.5 241,-190.5 "/>
<text text-anchor="start" x="8" y="-178.5" font-family="Helvetica,sans-Serif" font-size="10.00">+ virtual ~Event()=default</text>
<text text-anchor="start" x="8" y="-167.5" font-family="Helvetica,sans-Serif" font-size="10.00">+ virtual EventType GetEventType() const =0</text>
<text text-anchor="start" x="8" y="-156.5" font-family="Helvetica,sans-Serif" font-size="10.00">+ virtual const char * GetName() const =0</text>
<text text-anchor="start" x="8" y="-145.5" font-family="Helvetica,sans-Serif" font-size="10.00">+ virtual int32_t GetCategoryFlags() const =0</text>
<text text-anchor="start" x="8" y="-134.5" font-family="Helvetica,sans-Serif" font-size="10.00">+ virtual std::string ToString() const</text>
<text text-anchor="start" x="8" y="-123.5" font-family="Helvetica,sans-Serif" font-size="10.00">+ bool IsInCategory(EventCategory category)</text>
</a>
</g>
</g>
<!-- Node2&#45;&gt;Node1 -->
<g id="edge1" class="edge">
<title>Node2&#45;&gt;Node1</title>
<path fill="none" stroke="midnightblue" d="M159.16,-107.39C167.27,-93.93 175.51,-80.26 182.6,-68.51"/>
<polygon fill="none" stroke="midnightblue" points="156.02,-105.81 153.85,-116.18 162.01,-109.43 156.02,-105.81"/>
</g>
<!-- Node3 -->
<g id="node3" class="node">
<title>Node3</title>
<g id="a_node3"><a xlink:title=" ">
<polygon fill="white" stroke="#bfbfbf" points="101.5,-276.5 101.5,-333.5 139.5,-333.5 139.5,-276.5 101.5,-276.5"/>
<text text-anchor="middle" x="120.5" y="-321.5" font-family="Helvetica,sans-Serif" font-size="10.00">bool</text>
<polyline fill="none" stroke="#bfbfbf" points="101.5,-314.5 139.5,-314.5 "/>
<text text-anchor="middle" x="120.5" y="-302.5" font-family="Helvetica,sans-Serif" font-size="10.00"> </text>
<polyline fill="none" stroke="#bfbfbf" points="101.5,-295.5 139.5,-295.5 "/>
<text text-anchor="middle" x="120.5" y="-283.5" font-family="Helvetica,sans-Serif" font-size="10.00"> </text>
</a>
</g>
</g>
<!-- Node3&#45;&gt;Node2 -->
<g id="edge2" class="edge">
<title>Node3&#45;&gt;Node2</title>
<path fill="none" stroke="#404040" d="M120.5,-276.32C120.5,-265.78 120.5,-253.25 120.5,-240.62"/>
<polygon fill="none" stroke="#404040" points="120.5,-240.55 116.5,-234.55 120.5,-228.55 124.5,-234.55 120.5,-240.55"/>
<text text-anchor="middle" x="146.5" y="-250" font-family="Helvetica,sans-Serif" font-size="10.00"> +Handled</text>
</g>
<!-- Node4 -->
<g id="node4" class="node">
<title>Node4</title>
<g id="a_node4"><a xlink:title=" ">
<polygon fill="white" stroke="#bfbfbf" points="259.5,-144 259.5,-201 309.5,-201 309.5,-144 259.5,-144"/>
<text text-anchor="middle" x="284.5" y="-189" font-family="Helvetica,sans-Serif" font-size="10.00">int32_t</text>
<polyline fill="none" stroke="#bfbfbf" points="259.5,-182 309.5,-182 "/>
<text text-anchor="middle" x="284.5" y="-170" font-family="Helvetica,sans-Serif" font-size="10.00"> </text>
<polyline fill="none" stroke="#bfbfbf" points="259.5,-163 309.5,-163 "/>
<text text-anchor="middle" x="284.5" y="-151" font-family="Helvetica,sans-Serif" font-size="10.00"> </text>
</a>
</g>
</g>
<!-- Node4&#45;&gt;Node1 -->
<g id="edge3" class="edge">
<title>Node4&#45;&gt;Node1</title>
<path fill="none" stroke="#404040" d="M267.91,-143.98C256.7,-125.39 241.66,-100.45 228.83,-79.17"/>
<polygon fill="none" stroke="#404040" points="228.74,-79.02 222.22,-75.95 222.55,-68.75 229.07,-71.82 228.74,-79.02"/>
<text text-anchor="middle" x="274.5" y="-90" font-family="Helvetica,sans-Serif" font-size="10.00"> #m_KeyCode</text>
</g>
</g>
</svg>
