<?xml version="1.0" encoding="UTF-8" standalone="no"?>
<!DOCTYPE svg PUBLIC "-//W3C//DTD SVG 1.1//EN"
 "http://www.w3.org/Graphics/SVG/1.1/DTD/svg11.dtd">
<!-- Generated by graphviz version 2.43.0 (0)
 -->
<!-- Title: gauri::WindowCloseEvent Pages: 1 -->
<svg width="249pt" height="321pt"
 viewBox="0.00 0.00 249.00 321.00" xmlns="http://www.w3.org/2000/svg" xmlns:xlink="http://www.w3.org/1999/xlink">
<g id="graph0" class="graph" transform="scale(1 1) rotate(0) translate(4 317)">
<title>gauri::WindowCloseEvent</title>
<polygon fill="white" stroke="transparent" points="-4,4 -4,-317 245,-317 245,4 -4,4"/>
<!-- Node1 -->
<g id="node1" class="node">
<title>Node1</title>
<g id="a_node1"><a xlink:title=" ">
<polygon fill="#bfbfbf" stroke="black" points="50,-0.5 50,-57.5 191,-57.5 191,-0.5 50,-0.5"/>
<text text-anchor="middle" x="120.5" y="-45.5" font-family="Helvetica,sans-Serif" font-size="10.00">gauri::WindowCloseEvent</text>
<polyline fill="none" stroke="black" points="50,-38.5 191,-38.5 "/>
<text text-anchor="middle" x="120.5" y="-26.5" font-family="Helvetica,sans-Serif" font-size="10.00"> </text>
<polyline fill="none" stroke="black" points="50,-19.5 191,-19.5 "/>
<text text-anchor="start" x="58" y="-7.5" font-family="Helvetica,sans-Serif" font-size="10.00">+ WindowCloseEvent()</text>
</a>
</g>
</g>
<!-- Node2 -->
<g id="node2" class="node">
<title>Node2</title>
<g id="a_node2"><a xlink:href="classgauri_1_1Event.html" target="_top" xlink:title=" ">
<polygon fill="white" stroke="black" points="0,-95.5 0,-207.5 241,-207.5 241,-95.5 0,-95.5"/>
<text text-anchor="middle" x="120.5" y="-195.5" font-family="Helvetica,sans-Serif" font-size="10.00">gauri::Event</text>
<polyline fill="none" stroke="black" points="0,-188.5 241,-188.5 "/>
<text text-anchor="middle" x="120.5" y="-176.5" font-family="Helvetica,sans-Serif" font-size="10.00"> </text>
<polyline fill="none" stroke="black" points="0,-169.5 241,-169.5 "/>
<text text-anchor="start" x="8" y="-157.5" font-family="Helvetica,sans-Serif" font-size="10.00">+ virtual EventType GetEventType() const =0</text>
<text text-anchor="start" x="8" y="-146.5" font-family="Helvetica,sans-Serif" font-size="10.00">+ virtual const char * GetName() const =0</text>
<text text-anchor="start" x="8" y="-135.5" font-family="Helvetica,sans-Serif" font-size="10.00">+ virtual int32_t GetCategoryFlags() const =0</text>
<text text-anchor="start" x="8" y="-124.5" font-family="Helvetica,sans-Serif" font-size="10.00">+ virtual std::string ToString() const</text>
<text text-anchor="start" x="8" y="-113.5" font-family="Helvetica,sans-Serif" font-size="10.00">+ bool IsInCategory(EventCategory category)</text>
<text text-anchor="start" x="8" y="-102.5" font-family="Helvetica,sans-Serif" font-size="10.00">+ bool IsHandled() const</text>
</a>
</g>
</g>
<!-- Node2&#45;&gt;Node1 -->
<g id="edge1" class="edge">
<title>Node2&#45;&gt;Node1</title>
<path fill="none" stroke="midnightblue" d="M120.5,-85.12C120.5,-75.48 120.5,-66.01 120.5,-57.72"/>
<polygon fill="none" stroke="midnightblue" points="117,-85.19 120.5,-95.19 124,-85.19 117,-85.19"/>
</g>
<!-- Node3 -->
<g id="node3" class="node">
<title>Node3</title>
<g id="a_node3"><a xlink:title=" ">
<polygon fill="white" stroke="#bfbfbf" points="101.5,-255.5 101.5,-312.5 139.5,-312.5 139.5,-255.5 101.5,-255.5"/>
<text text-anchor="middle" x="120.5" y="-300.5" font-family="Helvetica,sans-Serif" font-size="10.00">bool</text>
<polyline fill="none" stroke="#bfbfbf" points="101.5,-293.5 139.5,-293.5 "/>
<text text-anchor="middle" x="120.5" y="-281.5" font-family="Helvetica,sans-Serif" font-size="10.00"> </text>
<polyline fill="none" stroke="#bfbfbf" points="101.5,-274.5 139.5,-274.5 "/>
<text text-anchor="middle" x="120.5" y="-262.5" font-family="Helvetica,sans-Serif" font-size="10.00"> </text>
</a>
</g>
</g>
<!-- Node3&#45;&gt;Node2 -->
<g id="edge2" class="edge">
<title>Node3&#45;&gt;Node2</title>
<path fill="none" stroke="#404040" d="M120.5,-255.32C120.5,-244.78 120.5,-232.25 120.5,-219.62"/>
<polygon fill="none" stroke="#404040" points="120.5,-219.55 116.5,-213.55 120.5,-207.55 124.5,-213.55 120.5,-219.55"/>
<text text-anchor="middle" x="154" y="-229" font-family="Helvetica,sans-Serif" font-size="10.00"> #m_Handled</text>
</g>
</g>
</svg>
