<?xml version="1.0" encoding="UTF-8" standalone="no"?>
<!DOCTYPE svg PUBLIC "-//W3C//DTD SVG 1.1//EN"
 "http://www.w3.org/Graphics/SVG/1.1/DTD/svg11.dtd">
<!-- Generated by graphviz version 2.43.0 (0)
 -->
<!-- Title: gauri::Application Pages: 1 -->
<svg width="897pt" height="892pt"
 viewBox="0.00 0.00 897.00 892.00" xmlns="http://www.w3.org/2000/svg" xmlns:xlink="http://www.w3.org/1999/xlink">
<g id="graph0" class="graph" transform="scale(1 1) rotate(0) translate(4 888)">
<title>gauri::Application</title>
<polygon fill="white" stroke="transparent" points="-4,4 -4,-888 893,-888 893,4 -4,4"/>
<!-- Node1 -->
<g id="node1" class="node">
<title>Node1</title>
<g id="a_node1"><a xlink:title=" ">
<polygon fill="#bfbfbf" stroke="black" points="393.5,-0.5 393.5,-156.5 648.5,-156.5 648.5,-0.5 393.5,-0.5"/>
<text text-anchor="middle" x="521" y="-144.5" font-family="Helvetica,sans-Serif" font-size="10.00">gauri::Application</text>
<polyline fill="none" stroke="black" points="393.5,-137.5 648.5,-137.5 "/>
<text text-anchor="middle" x="521" y="-125.5" font-family="Helvetica,sans-Serif" font-size="10.00"> </text>
<polyline fill="none" stroke="black" points="393.5,-118.5 648.5,-118.5 "/>
<text text-anchor="start" x="401.5" y="-106.5" font-family="Helvetica,sans-Serif" font-size="10.00">+ Application()</text>
<text text-anchor="start" x="401.5" y="-95.5" font-family="Helvetica,sans-Serif" font-size="10.00">+ virtual ~Application()</text>
<text text-anchor="start" x="401.5" y="-84.5" font-family="Helvetica,sans-Serif" font-size="10.00">+ void Run()</text>
<text text-anchor="start" x="401.5" y="-73.5" font-family="Helvetica,sans-Serif" font-size="10.00">+ void OnEvent(Event &amp;e)</text>
<text text-anchor="start" x="401.5" y="-62.5" font-family="Helvetica,sans-Serif" font-size="10.00">+ void PushLayer(Layer *layer)</text>
<text text-anchor="start" x="401.5" y="-51.5" font-family="Helvetica,sans-Serif" font-size="10.00">+ void PushOverlay(Layer *overlay)</text>
<text text-anchor="start" x="401.5" y="-40.5" font-family="Helvetica,sans-Serif" font-size="10.00">+ Window &amp; GetWindow()</text>
<text text-anchor="start" x="401.5" y="-29.5" font-family="Helvetica,sans-Serif" font-size="10.00">+ static Application &amp; Get()</text>
<text text-anchor="start" x="401.5" y="-18.5" font-family="Helvetica,sans-Serif" font-size="10.00">&#45; bool OnWindowClose(WindowCloseEvent &amp;e)</text>
<text text-anchor="start" x="401.5" y="-7.5" font-family="Helvetica,sans-Serif" font-size="10.00">&#45; bool OnWindowResize(WindowResizeEvent &amp;e)</text>
</a>
</g>
</g>
<!-- Node1&#45;&gt;Node1 -->
<g id="edge14" class="edge">
<title>Node1&#45;&gt;Node1</title>
<path fill="none" stroke="#404040" d="M648.69,-94.01C659.66,-90.71 666.5,-85.54 666.5,-78.5 666.5,-74.32 664.09,-70.8 659.83,-67.94"/>
<polygon fill="none" stroke="#404040" points="659.66,-67.86 652.55,-69.08 648.69,-62.99 655.8,-61.77 659.66,-67.86"/>
<text text-anchor="middle" x="696" y="-76" font-family="Helvetica,sans-Serif" font-size="10.00"> &#45;s_Instance</text>
</g>
<!-- Node2 -->
<g id="node2" class="node">
<title>Node2</title>
<g id="a_node2"><a xlink:href="classgauri_1_1LayerStack.html" target="_top" xlink:title=" ">
<polygon fill="white" stroke="black" points="517.5,-215.5 517.5,-349.5 734.5,-349.5 734.5,-215.5 517.5,-215.5"/>
<text text-anchor="middle" x="626" y="-337.5" font-family="Helvetica,sans-Serif" font-size="10.00">gauri::LayerStack</text>
<polyline fill="none" stroke="black" points="517.5,-330.5 734.5,-330.5 "/>
<text text-anchor="middle" x="626" y="-318.5" font-family="Helvetica,sans-Serif" font-size="10.00"> </text>
<polyline fill="none" stroke="black" points="517.5,-311.5 734.5,-311.5 "/>
<text text-anchor="start" x="525.5" y="-299.5" font-family="Helvetica,sans-Serif" font-size="10.00">+ LayerStack()=default</text>
<text text-anchor="start" x="525.5" y="-288.5" font-family="Helvetica,sans-Serif" font-size="10.00">+ ~LayerStack()</text>
<text text-anchor="start" x="525.5" y="-277.5" font-family="Helvetica,sans-Serif" font-size="10.00">+ void PushLayer(Layer *layer)</text>
<text text-anchor="start" x="525.5" y="-266.5" font-family="Helvetica,sans-Serif" font-size="10.00">+ void PushOverlay(Layer *overlay)</text>
<text text-anchor="start" x="525.5" y="-255.5" font-family="Helvetica,sans-Serif" font-size="10.00">+ void PopLayer(Layer *layer)</text>
<text text-anchor="start" x="525.5" y="-244.5" font-family="Helvetica,sans-Serif" font-size="10.00">+ void PopOverlay(Layer *overlay)</text>
<text text-anchor="start" x="525.5" y="-233.5" font-family="Helvetica,sans-Serif" font-size="10.00">+ std::vector&lt; Layer * &gt;::iterator begin()</text>
<text text-anchor="start" x="525.5" y="-222.5" font-family="Helvetica,sans-Serif" font-size="10.00">+ std::vector&lt; Layer * &gt;::iterator end()</text>
</a>
</g>
</g>
<!-- Node2&#45;&gt;Node1 -->
<g id="edge1" class="edge">
<title>Node2&#45;&gt;Node1</title>
<path fill="none" stroke="#404040" d="M591.62,-215.36C583.7,-200.12 575.15,-183.67 566.83,-167.67"/>
<polygon fill="none" stroke="#404040" points="566.65,-167.32 560.33,-163.84 561.11,-156.67 567.43,-160.15 566.65,-167.32"/>
<text text-anchor="middle" x="617" y="-183.5" font-family="Helvetica,sans-Serif" font-size="10.00"> &#45;m_LayerStack</text>
</g>
<!-- Node3 -->
<g id="node3" class="node">
<title>Node3</title>
<g id="a_node3"><a xlink:title=" ">
<polygon fill="white" stroke="#bfbfbf" points="468,-444.5 468,-501.5 524,-501.5 524,-444.5 468,-444.5"/>
<text text-anchor="middle" x="496" y="-489.5" font-family="Helvetica,sans-Serif" font-size="10.00">uint32_t</text>
<polyline fill="none" stroke="#bfbfbf" points="468,-482.5 524,-482.5 "/>
<text text-anchor="middle" x="496" y="-470.5" font-family="Helvetica,sans-Serif" font-size="10.00"> </text>
<polyline fill="none" stroke="#bfbfbf" points="468,-463.5 524,-463.5 "/>
<text text-anchor="middle" x="496" y="-451.5" font-family="Helvetica,sans-Serif" font-size="10.00"> </text>
</a>
</g>
</g>
<!-- Node3&#45;&gt;Node2 -->
<g id="edge2" class="edge">
<title>Node3&#45;&gt;Node2</title>
<path fill="none" stroke="#404040" d="M494,-444.45C493.67,-422.3 496.19,-391.16 510,-368 511.79,-364.99 513.74,-362.06 515.82,-359.2"/>
<polygon fill="none" stroke="#404040" points="515.86,-359.15 516.48,-351.97 523.35,-349.78 522.73,-356.96 515.86,-359.15"/>
<text text-anchor="middle" x="562" y="-394.5" font-family="Helvetica,sans-Serif" font-size="10.00"> &#45;m_LayerInsertIndex</text>
</g>
<!-- Node4 -->
<g id="node4" class="node">
<title>Node4</title>
<g id="a_node4"><a xlink:title=" ">
<polygon fill="white" stroke="#bfbfbf" points="544.5,-444.5 544.5,-501.5 701.5,-501.5 701.5,-444.5 544.5,-444.5"/>
<text text-anchor="middle" x="623" y="-489.5" font-family="Helvetica,sans-Serif" font-size="10.00">std::vector&lt; gauri::Layer * &gt;</text>
<polyline fill="none" stroke="#bfbfbf" points="544.5,-482.5 701.5,-482.5 "/>
<text text-anchor="middle" x="623" y="-470.5" font-family="Helvetica,sans-Serif" font-size="10.00"> </text>
<polyline fill="none" stroke="#bfbfbf" points="544.5,-463.5 701.5,-463.5 "/>
<text text-anchor="middle" x="623" y="-451.5" font-family="Helvetica,sans-Serif" font-size="10.00"> </text>
</a>
</g>
</g>
<!-- Node4&#45;&gt;Node2 -->
<g id="edge3" class="edge">
<title>Node4&#45;&gt;Node2</title>
<path fill="none" stroke="#404040" d="M620.2,-444.3C619.7,-438.27 619.26,-431.93 619,-426 617.88,-400.25 617.94,-393.76 619,-368 619.08,-366.07 619.17,-364.12 619.27,-362.14"/>
<polygon fill="none" stroke="#404040" points="619.28,-361.87 615.64,-355.65 619.98,-349.89 623.63,-356.11 619.28,-361.87"/>
<text text-anchor="middle" x="646.5" y="-394.5" font-family="Helvetica,sans-Serif" font-size="10.00"> &#45;m_Layers</text>
</g>
<!-- Node5 -->
<g id="node5" class="node">
<title>Node5</title>
<g id="a_node5"><a xlink:href="classgauri_1_1Layer.html" target="_top" xlink:title=" ">
<polygon fill="white" stroke="black" points="182.5,-549.5 182.5,-683.5 405.5,-683.5 405.5,-549.5 182.5,-549.5"/>
<text text-anchor="middle" x="294" y="-671.5" font-family="Helvetica,sans-Serif" font-size="10.00">gauri::Layer</text>
<polyline fill="none" stroke="black" points="182.5,-664.5 405.5,-664.5 "/>
<text text-anchor="middle" x="294" y="-652.5" font-family="Helvetica,sans-Serif" font-size="10.00"> </text>
<polyline fill="none" stroke="black" points="182.5,-645.5 405.5,-645.5 "/>
<text text-anchor="start" x="190.5" y="-633.5" font-family="Helvetica,sans-Serif" font-size="10.00">+ Layer(const std::string &amp;name=&quot;Layer&quot;)</text>
<text text-anchor="start" x="190.5" y="-622.5" font-family="Helvetica,sans-Serif" font-size="10.00">+ virtual ~Layer()</text>
<text text-anchor="start" x="190.5" y="-611.5" font-family="Helvetica,sans-Serif" font-size="10.00">+ virtual void OnAttach()</text>
<text text-anchor="start" x="190.5" y="-600.5" font-family="Helvetica,sans-Serif" font-size="10.00">+ virtual void OnDetach()</text>
<text text-anchor="start" x="190.5" y="-589.5" font-family="Helvetica,sans-Serif" font-size="10.00">+ virtual void OnUpdate(Timestep ts)</text>
<text text-anchor="start" x="190.5" y="-578.5" font-family="Helvetica,sans-Serif" font-size="10.00">+ virtual void OnImGuiRender()</text>
<text text-anchor="start" x="190.5" y="-567.5" font-family="Helvetica,sans-Serif" font-size="10.00">+ virtual void OnEvent(Event &amp;)</text>
<text text-anchor="start" x="190.5" y="-556.5" font-family="Helvetica,sans-Serif" font-size="10.00">+ const std::string &amp; GetName() const</text>
</a>
</g>
</g>
<!-- Node5&#45;&gt;Node4 -->
<g id="edge4" class="edge">
<title>Node5&#45;&gt;Node4</title>
<path fill="none" stroke="#404040" d="M405.84,-567.4C452.6,-547.29 505.7,-524.45 547.69,-506.39"/>
<polygon fill="none" stroke="#404040" points="547.92,-506.29 551.85,-500.25 558.94,-501.55 555.01,-507.6 547.92,-506.29"/>
<text text-anchor="middle" x="537" y="-523" font-family="Helvetica,sans-Serif" font-size="10.00"> +elements</text>
</g>
<!-- Node15 -->
<g id="node15" class="node">
<title>Node15</title>
<g id="a_node15"><a xlink:href="classgauri_1_1ImGuiLayer.html" target="_top" xlink:title=" ">
<polygon fill="white" stroke="black" points="0,-221 0,-344 180,-344 180,-221 0,-221"/>
<text text-anchor="middle" x="90" y="-332" font-family="Helvetica,sans-Serif" font-size="10.00">gauri::ImGuiLayer</text>
<polyline fill="none" stroke="black" points="0,-325 180,-325 "/>
<text text-anchor="middle" x="90" y="-313" font-family="Helvetica,sans-Serif" font-size="10.00"> </text>
<polyline fill="none" stroke="black" points="0,-306 180,-306 "/>
<text text-anchor="start" x="8" y="-294" font-family="Helvetica,sans-Serif" font-size="10.00">+ ImGuiLayer()</text>
<text text-anchor="start" x="8" y="-283" font-family="Helvetica,sans-Serif" font-size="10.00">+ ~ImGuiLayer() override</text>
<text text-anchor="start" x="8" y="-272" font-family="Helvetica,sans-Serif" font-size="10.00">+ void OnAttach() override</text>
<text text-anchor="start" x="8" y="-261" font-family="Helvetica,sans-Serif" font-size="10.00">+ void OnDetach() override</text>
<text text-anchor="start" x="8" y="-250" font-family="Helvetica,sans-Serif" font-size="10.00">+ void OnImGuiRender() override</text>
<text text-anchor="start" x="8" y="-239" font-family="Helvetica,sans-Serif" font-size="10.00">+ void Begin()</text>
<text text-anchor="start" x="8" y="-228" font-family="Helvetica,sans-Serif" font-size="10.00">+ void End()</text>
</a>
</g>
</g>
<!-- Node5&#45;&gt;Node15 -->
<g id="edge18" class="edge">
<title>Node5&#45;&gt;Node15</title>
<path fill="none" stroke="midnightblue" d="M207.38,-541.95C174.58,-509.62 139.89,-469.19 118,-426 105.23,-400.81 98.28,-370.39 94.49,-344.13"/>
<polygon fill="none" stroke="midnightblue" points="205.18,-544.69 214.79,-549.15 210.06,-539.67 205.18,-544.69"/>
</g>
<!-- Node6 -->
<g id="node6" class="node">
<title>Node6</title>
<g id="a_node6"><a xlink:title=" ">
<polygon fill="white" stroke="#bfbfbf" points="261.5,-731.5 261.5,-788.5 326.5,-788.5 326.5,-731.5 261.5,-731.5"/>
<text text-anchor="middle" x="294" y="-776.5" font-family="Helvetica,sans-Serif" font-size="10.00">std::string</text>
<polyline fill="none" stroke="#bfbfbf" points="261.5,-769.5 326.5,-769.5 "/>
<text text-anchor="middle" x="294" y="-757.5" font-family="Helvetica,sans-Serif" font-size="10.00"> </text>
<polyline fill="none" stroke="#bfbfbf" points="261.5,-750.5 326.5,-750.5 "/>
<text text-anchor="middle" x="294" y="-738.5" font-family="Helvetica,sans-Serif" font-size="10.00"> </text>
</a>
</g>
</g>
<!-- Node6&#45;&gt;Node5 -->
<g id="edge5" class="edge">
<title>Node6&#45;&gt;Node5</title>
<path fill="none" stroke="#404040" d="M294,-731.38C294,-721.02 294,-708.66 294,-695.97"/>
<polygon fill="none" stroke="#404040" points="294,-695.75 290,-689.75 294,-683.75 298,-689.75 294,-695.75"/>
<text text-anchor="middle" x="338" y="-705" font-family="Helvetica,sans-Serif" font-size="10.00"> #m_DebugName</text>
</g>
<!-- Node7 -->
<g id="node7" class="node">
<title>Node7</title>
<g id="a_node7"><a xlink:title=" ">
<polygon fill="white" stroke="#bfbfbf" points="223.5,-826.5 223.5,-883.5 364.5,-883.5 364.5,-826.5 223.5,-826.5"/>
<text text-anchor="middle" x="294" y="-871.5" font-family="Helvetica,sans-Serif" font-size="10.00">std::basic_string&lt; Char &gt;</text>
<polyline fill="none" stroke="#bfbfbf" points="223.5,-864.5 364.5,-864.5 "/>
<text text-anchor="middle" x="294" y="-852.5" font-family="Helvetica,sans-Serif" font-size="10.00"> </text>
<polyline fill="none" stroke="#bfbfbf" points="223.5,-845.5 364.5,-845.5 "/>
<text text-anchor="middle" x="294" y="-833.5" font-family="Helvetica,sans-Serif" font-size="10.00"> </text>
</a>
</g>
</g>
<!-- Node7&#45;&gt;Node6 -->
<g id="edge6" class="edge">
<title>Node7&#45;&gt;Node6</title>
<path fill="none" stroke="midnightblue" d="M294,-816.24C294,-807.03 294,-797.35 294,-788.71"/>
<polygon fill="none" stroke="midnightblue" points="290.5,-816.35 294,-826.35 297.5,-816.35 290.5,-816.35"/>
</g>
<!-- Node8 -->
<g id="node8" class="node">
<title>Node8</title>
<g id="a_node8"><a xlink:title=" ">
<polygon fill="white" stroke="#bfbfbf" points="583.5,-588 583.5,-645 680.5,-645 680.5,-588 583.5,-588"/>
<text text-anchor="middle" x="632" y="-633" font-family="Helvetica,sans-Serif" font-size="10.00">std::vector&lt; T &gt;</text>
<polyline fill="none" stroke="#bfbfbf" points="583.5,-626 680.5,-626 "/>
<text text-anchor="middle" x="632" y="-614" font-family="Helvetica,sans-Serif" font-size="10.00"> </text>
<polyline fill="none" stroke="#bfbfbf" points="583.5,-607 680.5,-607 "/>
<text text-anchor="middle" x="632" y="-595" font-family="Helvetica,sans-Serif" font-size="10.00"> </text>
</a>
</g>
</g>
<!-- Node8&#45;&gt;Node4 -->
<g id="edge7" class="edge">
<title>Node8&#45;&gt;Node4</title>
<path fill="none" stroke="orange" d="M629.6,-577.71C628.07,-553.73 626.13,-523.25 624.75,-501.55"/>
<polygon fill="orange" stroke="orange" points="626.12,-578.12 630.24,-587.88 633.1,-577.68 626.12,-578.12"/>
<text text-anchor="middle" x="672" y="-523" font-family="Helvetica,sans-Serif" font-size="10.00"> &lt; gauri::Layer * &gt;</text>
</g>
<!-- Node9 -->
<g id="node9" class="node">
<title>Node9</title>
<g id="a_node9"><a xlink:title=" ">
<polygon fill="white" stroke="#bfbfbf" points="685.5,-731.5 685.5,-788.5 714.5,-788.5 714.5,-731.5 685.5,-731.5"/>
<text text-anchor="middle" x="700" y="-776.5" font-family="Helvetica,sans-Serif" font-size="10.00">T</text>
<polyline fill="none" stroke="#bfbfbf" points="685.5,-769.5 714.5,-769.5 "/>
<text text-anchor="middle" x="700" y="-757.5" font-family="Helvetica,sans-Serif" font-size="10.00"> </text>
<polyline fill="none" stroke="#bfbfbf" points="685.5,-750.5 714.5,-750.5 "/>
<text text-anchor="middle" x="700" y="-738.5" font-family="Helvetica,sans-Serif" font-size="10.00"> </text>
</a>
</g>
</g>
<!-- Node9&#45;&gt;Node8 -->
<g id="edge8" class="edge">
<title>Node9&#45;&gt;Node8</title>
<path fill="none" stroke="#404040" d="M685.35,-736.46C680.83,-729.11 675.99,-720.83 672,-713 662.73,-694.83 653.82,-674 646.77,-656.44"/>
<polygon fill="none" stroke="#404040" points="646.72,-656.32 640.8,-652.21 642.31,-645.16 648.24,-649.27 646.72,-656.32"/>
<text text-anchor="middle" x="701" y="-705" font-family="Helvetica,sans-Serif" font-size="10.00"> +elements</text>
</g>
<!-- Node13 -->
<g id="node13" class="node">
<title>Node13</title>
<g id="a_node13"><a xlink:title=" ">
<polygon fill="white" stroke="#bfbfbf" points="711,-588 711,-645 829,-645 829,-588 711,-588"/>
<text text-anchor="middle" x="770" y="-633" font-family="Helvetica,sans-Serif" font-size="10.00">std::unique_ptr&lt; T &gt;</text>
<polyline fill="none" stroke="#bfbfbf" points="711,-626 829,-626 "/>
<text text-anchor="middle" x="770" y="-614" font-family="Helvetica,sans-Serif" font-size="10.00"> </text>
<polyline fill="none" stroke="#bfbfbf" points="711,-607 829,-607 "/>
<text text-anchor="start" x="719" y="-595" font-family="Helvetica,sans-Serif" font-size="10.00">+ T * operator&#45;&gt;()</text>
</a>
</g>
</g>
<!-- Node9&#45;&gt;Node13 -->
<g id="edge13" class="edge">
<title>Node9&#45;&gt;Node13</title>
<path fill="none" stroke="#404040" d="M714.56,-738.42C719.76,-730.64 725.45,-721.59 730,-713 739.55,-694.98 748.49,-674.17 755.49,-656.58"/>
<polygon fill="none" stroke="#404040" points="755.54,-656.45 754,-649.41 759.9,-645.28 761.45,-652.32 755.54,-656.45"/>
<text text-anchor="middle" x="747.5" y="-705" font-family="Helvetica,sans-Serif" font-size="10.00"> +ptr</text>
</g>
<!-- Node10 -->
<g id="node10" class="node">
<title>Node10</title>
<g id="a_node10"><a xlink:href="classgauri_1_1Timestep.html" target="_top" xlink:title=" ">
<polygon fill="white" stroke="black" points="332.5,-237.5 332.5,-327.5 499.5,-327.5 499.5,-237.5 332.5,-237.5"/>
<text text-anchor="middle" x="416" y="-315.5" font-family="Helvetica,sans-Serif" font-size="10.00">gauri::Timestep</text>
<polyline fill="none" stroke="black" points="332.5,-308.5 499.5,-308.5 "/>
<text text-anchor="middle" x="416" y="-296.5" font-family="Helvetica,sans-Serif" font-size="10.00"> </text>
<polyline fill="none" stroke="black" points="332.5,-289.5 499.5,-289.5 "/>
<text text-anchor="start" x="340.5" y="-277.5" font-family="Helvetica,sans-Serif" font-size="10.00">+ Timestep(float time=0.0f)</text>
<text text-anchor="start" x="340.5" y="-266.5" font-family="Helvetica,sans-Serif" font-size="10.00">+ operator float() const</text>
<text text-anchor="start" x="340.5" y="-255.5" font-family="Helvetica,sans-Serif" font-size="10.00">+ float GetSeconds() const</text>
<text text-anchor="start" x="340.5" y="-244.5" font-family="Helvetica,sans-Serif" font-size="10.00">+ float GetMilliseconds() const</text>
</a>
</g>
</g>
<!-- Node10&#45;&gt;Node1 -->
<g id="edge9" class="edge">
<title>Node10&#45;&gt;Node1</title>
<path fill="none" stroke="#404040" d="M439.04,-237.17C449.67,-216.73 462.68,-191.7 475.17,-167.66"/>
<polygon fill="none" stroke="#404040" points="475.33,-167.35 474.55,-160.19 480.87,-156.71 481.65,-163.87 475.33,-167.35"/>
<text text-anchor="middle" x="503" y="-183.5" font-family="Helvetica,sans-Serif" font-size="10.00"> &#45;m_Timestep</text>
</g>
<!-- Node11 -->
<g id="node11" class="node">
<title>Node11</title>
<g id="a_node11"><a xlink:title=" ">
<polygon fill="white" stroke="#bfbfbf" points="197,-444.5 197,-501.5 235,-501.5 235,-444.5 197,-444.5"/>
<text text-anchor="middle" x="216" y="-489.5" font-family="Helvetica,sans-Serif" font-size="10.00">float</text>
<polyline fill="none" stroke="#bfbfbf" points="197,-482.5 235,-482.5 "/>
<text text-anchor="middle" x="216" y="-470.5" font-family="Helvetica,sans-Serif" font-size="10.00"> </text>
<polyline fill="none" stroke="#bfbfbf" points="197,-463.5 235,-463.5 "/>
<text text-anchor="middle" x="216" y="-451.5" font-family="Helvetica,sans-Serif" font-size="10.00"> </text>
</a>
</g>
</g>
<!-- Node11&#45;&gt;Node1 -->
<g id="edge15" class="edge">
<title>Node11&#45;&gt;Node1</title>
<path fill="none" stroke="#404040" d="M213.4,-444.06C208.5,-385.4 200.47,-251.77 225,-215 260.72,-161.44 323.26,-128.72 381.67,-108.9"/>
<polygon fill="none" stroke="#404040" points="381.88,-108.83 386.35,-103.16 393.29,-105.1 388.83,-110.77 381.88,-108.83"/>
<text text-anchor="middle" x="274" y="-280" font-family="Helvetica,sans-Serif" font-size="10.00"> &#45;m_LastFrameTime</text>
</g>
<!-- Node11&#45;&gt;Node10 -->
<g id="edge10" class="edge">
<title>Node11&#45;&gt;Node10</title>
<path fill="none" stroke="#404040" d="M235.18,-453.93C263.69,-427.06 318.38,-375.51 360.18,-336.11"/>
<polygon fill="none" stroke="#404040" points="360.42,-335.88 362.04,-328.86 369.15,-327.65 367.53,-334.68 360.42,-335.88"/>
<text text-anchor="middle" x="345.5" y="-394.5" font-family="Helvetica,sans-Serif" font-size="10.00"> &#45;m_Time</text>
</g>
<!-- Node11&#45;&gt;Node15 -->
<g id="edge19" class="edge">
<title>Node11&#45;&gt;Node15</title>
<path fill="none" stroke="#404040" d="M196.94,-461.15C183.78,-452.88 166.62,-440.48 155,-426 138.25,-405.13 124.77,-379.25 114.53,-355.29"/>
<polygon fill="none" stroke="#404040" points="114.48,-355.17 108.49,-351.15 109.9,-344.08 115.89,-348.1 114.48,-355.17"/>
<text text-anchor="middle" x="178.5" y="-394.5" font-family="Helvetica,sans-Serif" font-size="10.00"> &#45;m_Time</text>
</g>
<!-- Node12 -->
<g id="node12" class="node">
<title>Node12</title>
<g id="a_node12"><a xlink:title=" ">
<polygon fill="white" stroke="#bfbfbf" points="683,-368.5 683,-425.5 865,-425.5 865,-368.5 683,-368.5"/>
<text text-anchor="middle" x="774" y="-413.5" font-family="Helvetica,sans-Serif" font-size="10.00">std::unique_ptr&lt; gauri::Window &gt;</text>
<polyline fill="none" stroke="#bfbfbf" points="683,-406.5 865,-406.5 "/>
<text text-anchor="start" x="691" y="-394.5" font-family="Helvetica,sans-Serif" font-size="10.00">+ gauri::Window ptr</text>
<polyline fill="none" stroke="#bfbfbf" points="683,-387.5 865,-387.5 "/>
<text text-anchor="start" x="691" y="-375.5" font-family="Helvetica,sans-Serif" font-size="10.00">+ gauri::Window * operator&#45;&gt;()</text>
</a>
</g>
</g>
<!-- Node12&#45;&gt;Node1 -->
<g id="edge11" class="edge">
<title>Node12&#45;&gt;Node1</title>
<path fill="none" stroke="#404040" d="M776.21,-368.27C777.83,-330.35 775.58,-261.7 744,-215 722.76,-183.59 691.58,-158.24 659.22,-138.34"/>
<polygon fill="none" stroke="#404040" points="659,-138.2 651.79,-138.57 648.68,-132.06 655.89,-131.7 659,-138.2"/>
<text text-anchor="middle" x="806.5" y="-280" font-family="Helvetica,sans-Serif" font-size="10.00"> &#45;m_Window</text>
</g>
<!-- Node13&#45;&gt;Node12 -->
<g id="edge12" class="edge">
<title>Node13&#45;&gt;Node12</title>
<path fill="none" stroke="orange" d="M770.69,-577.81C771.49,-534.44 772.78,-464.28 773.49,-425.67"/>
<polygon fill="orange" stroke="orange" points="767.19,-577.89 770.51,-587.95 774.19,-578.02 767.19,-577.89"/>
<text text-anchor="middle" x="819" y="-523" font-family="Helvetica,sans-Serif" font-size="10.00"> &lt; gauri::Window &gt;</text>
</g>
<!-- Node14 -->
<g id="node14" class="node">
<title>Node14</title>
<g id="a_node14"><a xlink:title=" ">
<polygon fill="white" stroke="#bfbfbf" points="850,-254 850,-311 888,-311 888,-254 850,-254"/>
<text text-anchor="middle" x="869" y="-299" font-family="Helvetica,sans-Serif" font-size="10.00">bool</text>
<polyline fill="none" stroke="#bfbfbf" points="850,-292 888,-292 "/>
<text text-anchor="middle" x="869" y="-280" font-family="Helvetica,sans-Serif" font-size="10.00"> </text>
<polyline fill="none" stroke="#bfbfbf" points="850,-273 888,-273 "/>
<text text-anchor="middle" x="869" y="-261" font-family="Helvetica,sans-Serif" font-size="10.00"> </text>
</a>
</g>
</g>
<!-- Node14&#45;&gt;Node1 -->
<g id="edge16" class="edge">
<title>Node14&#45;&gt;Node1</title>
<path fill="none" stroke="#404040" d="M858.65,-253.99C853.1,-241.34 845.44,-226.6 836,-215 817.82,-192.66 810.2,-188.96 785,-175 746.23,-153.51 701.68,-135.24 660.36,-120.61"/>
<polygon fill="none" stroke="#404040" points="660.13,-120.53 653.15,-122.33 648.8,-116.58 655.78,-114.77 660.13,-120.53"/>
<text text-anchor="middle" x="854" y="-189" font-family="Helvetica,sans-Serif" font-size="10.00"> &#45;m_IsRunning</text>
<text text-anchor="middle" x="854" y="-178" font-family="Helvetica,sans-Serif" font-size="10.00">&#45;m_Minimized</text>
</g>
<!-- Node15&#45;&gt;Node1 -->
<g id="edge17" class="edge">
<title>Node15&#45;&gt;Node1</title>
<path fill="none" stroke="#404040" d="M97.44,-220.81C102.26,-203.98 110.15,-187.04 123,-175 160.43,-139.92 282.24,-114.04 381.34,-98.13"/>
<polygon fill="none" stroke="#404040" points="381.45,-98.11 386.76,-93.22 393.31,-96.24 388,-101.13 381.45,-98.11"/>
<text text-anchor="middle" x="162.5" y="-183.5" font-family="Helvetica,sans-Serif" font-size="10.00"> &#45;m_ImGuiLayer</text>
</g>
</g>
</svg>
