<?xml version="1.0" encoding="UTF-8" standalone="no"?>
<!DOCTYPE svg PUBLIC "-//W3C//DTD SVG 1.1//EN"
 "http://www.w3.org/Graphics/SVG/1.1/DTD/svg11.dtd">
<!-- Generated by graphviz version 2.43.0 (0)
 -->
<!-- Title: gauri::OpenGLFrameBuffer Pages: 1 -->
<svg width="733pt" height="419pt"
 viewBox="0.00 0.00 733.00 419.00" xmlns="http://www.w3.org/2000/svg" xmlns:xlink="http://www.w3.org/1999/xlink">
<g id="graph0" class="graph" transform="scale(1 1) rotate(0) translate(4 415)">
<title>gauri::OpenGLFrameBuffer</title>
<polygon fill="white" stroke="transparent" points="-4,4 -4,-415 729,-415 729,4 -4,4"/>
<!-- Node1 -->
<g id="node1" class="node">
<title>Node1</title>
<g id="a_node1"><a xlink:title=" ">
<polygon fill="#bfbfbf" stroke="black" points="243.5,-0.5 243.5,-123.5 596.5,-123.5 596.5,-0.5 243.5,-0.5"/>
<text text-anchor="middle" x="420" y="-111.5" font-family="Helvetica,sans-Serif" font-size="10.00">gauri::OpenGLFrameBuffer</text>
<polyline fill="none" stroke="black" points="243.5,-104.5 596.5,-104.5 "/>
<text text-anchor="middle" x="420" y="-92.5" font-family="Helvetica,sans-Serif" font-size="10.00"> </text>
<polyline fill="none" stroke="black" points="243.5,-85.5 596.5,-85.5 "/>
<text text-anchor="start" x="251.5" y="-73.5" font-family="Helvetica,sans-Serif" font-size="10.00">+ OpenGLFrameBuffer(const FrameBufferSpecification &amp;spec)</text>
<text text-anchor="start" x="251.5" y="-62.5" font-family="Helvetica,sans-Serif" font-size="10.00">+ ~OpenGLFrameBuffer() override</text>
<text text-anchor="start" x="251.5" y="-51.5" font-family="Helvetica,sans-Serif" font-size="10.00">+ void Invalidate()</text>
<text text-anchor="start" x="251.5" y="-40.5" font-family="Helvetica,sans-Serif" font-size="10.00">+ void Bind() override</text>
<text text-anchor="start" x="251.5" y="-29.5" font-family="Helvetica,sans-Serif" font-size="10.00">+ void Unbind() override</text>
<text text-anchor="start" x="251.5" y="-18.5" font-family="Helvetica,sans-Serif" font-size="10.00">+ uint32_t GetColorAttachmentRendererID() const override</text>
<text text-anchor="start" x="251.5" y="-7.5" font-family="Helvetica,sans-Serif" font-size="10.00">+ const FrameBufferSpecification &amp; GetSpecification() const override</text>
</a>
</g>
</g>
<!-- Node2 -->
<g id="node2" class="node">
<title>Node2</title>
<g id="a_node2"><a xlink:href="classgauri_1_1FrameBuffer.html" target="_top" xlink:title=" ">
<polygon fill="white" stroke="black" points="0,-171.5 0,-283.5 384,-283.5 384,-171.5 0,-171.5"/>
<text text-anchor="middle" x="192" y="-271.5" font-family="Helvetica,sans-Serif" font-size="10.00">gauri::FrameBuffer</text>
<polyline fill="none" stroke="black" points="0,-264.5 384,-264.5 "/>
<text text-anchor="middle" x="192" y="-252.5" font-family="Helvetica,sans-Serif" font-size="10.00"> </text>
<polyline fill="none" stroke="black" points="0,-245.5 384,-245.5 "/>
<text text-anchor="start" x="8" y="-233.5" font-family="Helvetica,sans-Serif" font-size="10.00">+ virtual ~FrameBuffer()=default</text>
<text text-anchor="start" x="8" y="-222.5" font-family="Helvetica,sans-Serif" font-size="10.00">+ virtual void Bind()=0</text>
<text text-anchor="start" x="8" y="-211.5" font-family="Helvetica,sans-Serif" font-size="10.00">+ virtual void Unbind()=0</text>
<text text-anchor="start" x="8" y="-200.5" font-family="Helvetica,sans-Serif" font-size="10.00">+ virtual uint32_t GetColorAttachmentRendererID() const =0</text>
<text text-anchor="start" x="8" y="-189.5" font-family="Helvetica,sans-Serif" font-size="10.00">+ virtual const FrameBufferSpecification &amp; GetSpecification() const =0</text>
<text text-anchor="start" x="8" y="-178.5" font-family="Helvetica,sans-Serif" font-size="10.00">+ static Ref&lt; FrameBuffer &gt; Create(const FrameBufferSpecification &amp;spec)</text>
</a>
</g>
</g>
<!-- Node2&#45;&gt;Node1 -->
<g id="edge1" class="edge">
<title>Node2&#45;&gt;Node1</title>
<path fill="none" stroke="midnightblue" d="M277.01,-165.54C296.17,-151.8 316.5,-137.22 335.63,-123.5"/>
<polygon fill="none" stroke="midnightblue" points="274.96,-162.7 268.87,-171.37 279.04,-168.39 274.96,-162.7"/>
</g>
<!-- Node3 -->
<g id="node3" class="node">
<title>Node3</title>
<g id="a_node3"><a xlink:title=" ">
<polygon fill="white" stroke="#bfbfbf" points="459,-353.5 459,-410.5 515,-410.5 515,-353.5 459,-353.5"/>
<text text-anchor="middle" x="487" y="-398.5" font-family="Helvetica,sans-Serif" font-size="10.00">uint32_t</text>
<polyline fill="none" stroke="#bfbfbf" points="459,-391.5 515,-391.5 "/>
<text text-anchor="middle" x="487" y="-379.5" font-family="Helvetica,sans-Serif" font-size="10.00"> </text>
<polyline fill="none" stroke="#bfbfbf" points="459,-372.5 515,-372.5 "/>
<text text-anchor="middle" x="487" y="-360.5" font-family="Helvetica,sans-Serif" font-size="10.00"> </text>
</a>
</g>
</g>
<!-- Node3&#45;&gt;Node1 -->
<g id="edge2" class="edge">
<title>Node3&#45;&gt;Node1</title>
<path fill="none" stroke="#404040" d="M465.45,-353.49C452.28,-334.97 436.57,-309.38 429,-284 414.71,-236.07 412.63,-179.7 414.04,-135.89"/>
<polygon fill="none" stroke="#404040" points="414.04,-135.87 410.28,-129.72 414.52,-123.88 418.27,-130.04 414.04,-135.87"/>
<text text-anchor="middle" x="482" y="-236" font-family="Helvetica,sans-Serif" font-size="10.00"> &#45;m_ColorAttachment</text>
<text text-anchor="middle" x="482" y="-225" font-family="Helvetica,sans-Serif" font-size="10.00">&#45;m_DepthAttachment</text>
<text text-anchor="middle" x="482" y="-214" font-family="Helvetica,sans-Serif" font-size="10.00">&#45;m_RendererID</text>
</g>
<!-- Node4 -->
<g id="node4" class="node">
<title>Node4</title>
<g id="a_node4"><a xlink:href="namespacegauri.html#structgauri_1_1FrameBufferSpecification" target="_top" xlink:title=" ">
<polygon fill="white" stroke="black" points="544,-199 544,-256 714,-256 714,-199 544,-199"/>
<text text-anchor="middle" x="629" y="-244" font-family="Helvetica,sans-Serif" font-size="10.00">gauri::FrameBufferSpecification</text>
<polyline fill="none" stroke="black" points="544,-237 714,-237 "/>
<text text-anchor="middle" x="629" y="-225" font-family="Helvetica,sans-Serif" font-size="10.00"> </text>
<polyline fill="none" stroke="black" points="544,-218 714,-218 "/>
<text text-anchor="middle" x="629" y="-206" font-family="Helvetica,sans-Serif" font-size="10.00"> </text>
</a>
</g>
</g>
<!-- Node3&#45;&gt;Node4 -->
<g id="edge4" class="edge">
<title>Node3&#45;&gt;Node4</title>
<path fill="none" stroke="#404040" d="M512.72,-353.38C535.76,-328.63 569.74,-292.14 595.02,-264.99"/>
<polygon fill="none" stroke="#404040" points="595.06,-264.95 596.22,-257.83 603.24,-256.17 602.08,-263.29 595.06,-264.95"/>
<text text-anchor="middle" x="583.5" y="-327" font-family="Helvetica,sans-Serif" font-size="10.00"> +Height</text>
<text text-anchor="middle" x="583.5" y="-316" font-family="Helvetica,sans-Serif" font-size="10.00">+Samples</text>
<text text-anchor="middle" x="583.5" y="-305" font-family="Helvetica,sans-Serif" font-size="10.00">+Width</text>
</g>
<!-- Node4&#45;&gt;Node1 -->
<g id="edge3" class="edge">
<title>Node4&#45;&gt;Node1</title>
<path fill="none" stroke="#404040" d="M593.55,-198.76C569.9,-180.27 537.72,-155.09 507.49,-131.44"/>
<polygon fill="none" stroke="#404040" points="507.21,-131.22 500.02,-130.68 497.76,-123.83 504.95,-124.38 507.21,-131.22"/>
<text text-anchor="middle" x="572.5" y="-145" font-family="Helvetica,sans-Serif" font-size="10.00"> &#45;m_Specification</text>
</g>
<!-- Node5 -->
<g id="node5" class="node">
<title>Node5</title>
<g id="a_node5"><a xlink:title=" ">
<polygon fill="white" stroke="#bfbfbf" points="610,-353.5 610,-410.5 648,-410.5 648,-353.5 610,-353.5"/>
<text text-anchor="middle" x="629" y="-398.5" font-family="Helvetica,sans-Serif" font-size="10.00">bool</text>
<polyline fill="none" stroke="#bfbfbf" points="610,-391.5 648,-391.5 "/>
<text text-anchor="middle" x="629" y="-379.5" font-family="Helvetica,sans-Serif" font-size="10.00"> </text>
<polyline fill="none" stroke="#bfbfbf" points="610,-372.5 648,-372.5 "/>
<text text-anchor="middle" x="629" y="-360.5" font-family="Helvetica,sans-Serif" font-size="10.00"> </text>
</a>
</g>
</g>
<!-- Node5&#45;&gt;Node4 -->
<g id="edge5" class="edge">
<title>Node5&#45;&gt;Node4</title>
<path fill="none" stroke="#404040" d="M629,-353.38C629,-329.6 629,-294.98 629,-268.22"/>
<polygon fill="none" stroke="#404040" points="629,-268.17 625,-262.17 629,-256.17 633,-262.17 629,-268.17"/>
<text text-anchor="middle" x="677" y="-316" font-family="Helvetica,sans-Serif" font-size="10.00"> +SwapChainTarget</text>
</g>
</g>
</svg>
