<?xml version="1.0" encoding="UTF-8" standalone="no"?>
<!DOCTYPE svg PUBLIC "-//W3C//DTD SVG 1.1//EN"
 "http://www.w3.org/Graphics/SVG/1.1/DTD/svg11.dtd">
<!-- Generated by graphviz version 2.43.0 (0)
 -->
<!-- Title: gauri::OrthographicCameraController Pages: 1 -->
<svg width="927pt" height="507pt"
 viewBox="0.00 0.00 926.65 507.00" xmlns="http://www.w3.org/2000/svg" xmlns:xlink="http://www.w3.org/1999/xlink">
<g id="graph0" class="graph" transform="scale(1 1) rotate(0) translate(4 503)">
<title>gauri::OrthographicCameraController</title>
<polygon fill="white" stroke="transparent" points="-4,4 -4,-503 922.65,-503 922.65,4 -4,4"/>
<!-- Node1 -->
<g id="node1" class="node">
<title>Node1</title>
<g id="a_node1"><a xlink:title=" ">
<polygon fill="#bfbfbf" stroke="black" points="371.65,-0.5 371.65,-156.5 739.65,-156.5 739.65,-0.5 371.65,-0.5"/>
<text text-anchor="middle" x="555.65" y="-144.5" font-family="Helvetica,sans-Serif" font-size="10.00">gauri::OrthographicCameraController</text>
<polyline fill="none" stroke="black" points="371.65,-137.5 739.65,-137.5 "/>
<text text-anchor="middle" x="555.65" y="-125.5" font-family="Helvetica,sans-Serif" font-size="10.00"> </text>
<polyline fill="none" stroke="black" points="371.65,-118.5 739.65,-118.5 "/>
<text text-anchor="start" x="379.65" y="-106.5" font-family="Helvetica,sans-Serif" font-size="10.00">+ OrthographicCameraController(float aspectRatio, bool rotation=false)</text>
<text text-anchor="start" x="379.65" y="-95.5" font-family="Helvetica,sans-Serif" font-size="10.00">+ void OnUpdate(Timestep ts)</text>
<text text-anchor="start" x="379.65" y="-84.5" font-family="Helvetica,sans-Serif" font-size="10.00">+ void OnEvent(Event &amp;e)</text>
<text text-anchor="start" x="379.65" y="-73.5" font-family="Helvetica,sans-Serif" font-size="10.00">+ const OrthographicCamera &amp; GetCamera() const</text>
<text text-anchor="start" x="379.65" y="-62.5" font-family="Helvetica,sans-Serif" font-size="10.00">+ OrthographicCamera &amp; GetCamera()</text>
<text text-anchor="start" x="379.65" y="-51.5" font-family="Helvetica,sans-Serif" font-size="10.00">+ void SetZoomLevel(float level)</text>
<text text-anchor="start" x="379.65" y="-40.5" font-family="Helvetica,sans-Serif" font-size="10.00">+ float GetZoomLevel() const</text>
<text text-anchor="start" x="379.65" y="-29.5" font-family="Helvetica,sans-Serif" font-size="10.00">+ const OrthographicCameraBounds &amp; GetBounds() const</text>
<text text-anchor="start" x="379.65" y="-18.5" font-family="Helvetica,sans-Serif" font-size="10.00">&#45; bool OnMouseScrolled(MouseScrolledEvent &amp;e)</text>
<text text-anchor="start" x="379.65" y="-7.5" font-family="Helvetica,sans-Serif" font-size="10.00">&#45; bool OnWindowResized(WindowResizeEvent &amp;e)</text>
</a>
</g>
</g>
<!-- Node2 -->
<g id="node2" class="node">
<title>Node2</title>
<g id="a_node2"><a xlink:title=" ">
<polygon fill="white" stroke="#bfbfbf" points="254.65,-441.5 254.65,-498.5 292.65,-498.5 292.65,-441.5 254.65,-441.5"/>
<text text-anchor="middle" x="273.65" y="-486.5" font-family="Helvetica,sans-Serif" font-size="10.00">float</text>
<polyline fill="none" stroke="#bfbfbf" points="254.65,-479.5 292.65,-479.5 "/>
<text text-anchor="middle" x="273.65" y="-467.5" font-family="Helvetica,sans-Serif" font-size="10.00"> </text>
<polyline fill="none" stroke="#bfbfbf" points="254.65,-460.5 292.65,-460.5 "/>
<text text-anchor="middle" x="273.65" y="-448.5" font-family="Helvetica,sans-Serif" font-size="10.00"> </text>
</a>
</g>
</g>
<!-- Node2&#45;&gt;Node1 -->
<g id="edge1" class="edge">
<title>Node2&#45;&gt;Node1</title>
<path fill="none" stroke="#404040" d="M254.35,-467.26C206.41,-461.77 82.1,-440.16 30.65,-361 -7.37,-302.49 -12.62,-258.74 30.65,-204 71.78,-151.98 227.99,-119.42 359.42,-100.71"/>
<polygon fill="none" stroke="#404040" points="359.76,-100.66 365.15,-95.86 371.65,-98.99 366.26,-103.79 359.76,-100.66"/>
<text text-anchor="middle" x="101.15" y="-302" font-family="Helvetica,sans-Serif" font-size="10.00"> &#45;m_AspectRatio</text>
<text text-anchor="middle" x="101.15" y="-291" font-family="Helvetica,sans-Serif" font-size="10.00">&#45;m_CameraRotation</text>
<text text-anchor="middle" x="101.15" y="-280" font-family="Helvetica,sans-Serif" font-size="10.00">&#45;m_CameraRotationSpeed</text>
<text text-anchor="middle" x="101.15" y="-269" font-family="Helvetica,sans-Serif" font-size="10.00">&#45;m_CameraTranslationSpeed</text>
<text text-anchor="middle" x="101.15" y="-258" font-family="Helvetica,sans-Serif" font-size="10.00">&#45;m_ZoomLevel</text>
</g>
<!-- Node3 -->
<g id="node3" class="node">
<title>Node3</title>
<g id="a_node3"><a xlink:href="structgauri_1_1OrthographicCameraBounds.html" target="_top" xlink:title=" ">
<polygon fill="white" stroke="black" points="181.15,-248.5 181.15,-316.5 366.15,-316.5 366.15,-248.5 181.15,-248.5"/>
<text text-anchor="middle" x="273.65" y="-304.5" font-family="Helvetica,sans-Serif" font-size="10.00">gauri::OrthographicCameraBounds</text>
<polyline fill="none" stroke="black" points="181.15,-297.5 366.15,-297.5 "/>
<text text-anchor="middle" x="273.65" y="-285.5" font-family="Helvetica,sans-Serif" font-size="10.00"> </text>
<polyline fill="none" stroke="black" points="181.15,-278.5 366.15,-278.5 "/>
<text text-anchor="start" x="189.15" y="-266.5" font-family="Helvetica,sans-Serif" font-size="10.00">+ float GetWidth()</text>
<text text-anchor="start" x="189.15" y="-255.5" font-family="Helvetica,sans-Serif" font-size="10.00">+ float GetHeight()</text>
</a>
</g>
</g>
<!-- Node2&#45;&gt;Node3 -->
<g id="edge3" class="edge">
<title>Node2&#45;&gt;Node3</title>
<path fill="none" stroke="#404040" d="M273.65,-441.23C273.65,-411.61 273.65,-364.24 273.65,-329.13"/>
<polygon fill="none" stroke="#404040" points="273.65,-328.8 269.65,-322.8 273.65,-316.8 277.65,-322.8 273.65,-328.8"/>
<text text-anchor="middle" x="297.65" y="-415" font-family="Helvetica,sans-Serif" font-size="10.00"> +Bottom</text>
<text text-anchor="middle" x="297.65" y="-404" font-family="Helvetica,sans-Serif" font-size="10.00">+Left</text>
<text text-anchor="middle" x="297.65" y="-393" font-family="Helvetica,sans-Serif" font-size="10.00">+Right</text>
<text text-anchor="middle" x="297.65" y="-382" font-family="Helvetica,sans-Serif" font-size="10.00">+Top</text>
</g>
<!-- Node5 -->
<g id="node5" class="node">
<title>Node5</title>
<g id="a_node5"><a xlink:href="classgauri_1_1OrthographicCamera.html" target="_top" xlink:title=" ">
<polygon fill="white" stroke="black" points="384.15,-204.5 384.15,-360.5 727.15,-360.5 727.15,-204.5 384.15,-204.5"/>
<text text-anchor="middle" x="555.65" y="-348.5" font-family="Helvetica,sans-Serif" font-size="10.00">gauri::OrthographicCamera</text>
<polyline fill="none" stroke="black" points="384.15,-341.5 727.15,-341.5 "/>
<text text-anchor="middle" x="555.65" y="-329.5" font-family="Helvetica,sans-Serif" font-size="10.00"> </text>
<polyline fill="none" stroke="black" points="384.15,-322.5 727.15,-322.5 "/>
<text text-anchor="start" x="392.15" y="-310.5" font-family="Helvetica,sans-Serif" font-size="10.00">+ OrthographicCamera(float left, float right, float bottom, float top)</text>
<text text-anchor="start" x="392.15" y="-299.5" font-family="Helvetica,sans-Serif" font-size="10.00">+ void SetProjection(float left, float right, float bottom, float top)</text>
<text text-anchor="start" x="392.15" y="-288.5" font-family="Helvetica,sans-Serif" font-size="10.00">+ const glm::vec3 &amp; GetPosition() const</text>
<text text-anchor="start" x="392.15" y="-277.5" font-family="Helvetica,sans-Serif" font-size="10.00">+ const float GetRotation() const</text>
<text text-anchor="start" x="392.15" y="-266.5" font-family="Helvetica,sans-Serif" font-size="10.00">+ void SetPosition(const glm::vec3 &amp;position)</text>
<text text-anchor="start" x="392.15" y="-255.5" font-family="Helvetica,sans-Serif" font-size="10.00">+ void SetRotation(float rotation)</text>
<text text-anchor="start" x="392.15" y="-244.5" font-family="Helvetica,sans-Serif" font-size="10.00">+ const glm::mat4 &amp; GetProjectionMatrix() const</text>
<text text-anchor="start" x="392.15" y="-233.5" font-family="Helvetica,sans-Serif" font-size="10.00">+ const glm::mat4 &amp; GetViewMatrix() const</text>
<text text-anchor="start" x="392.15" y="-222.5" font-family="Helvetica,sans-Serif" font-size="10.00">+ const glm::mat4 &amp; GetViewProjectionMatrix() const</text>
<text text-anchor="start" x="392.15" y="-211.5" font-family="Helvetica,sans-Serif" font-size="10.00">&#45; void RecalculateViewMatrix()</text>
</a>
</g>
</g>
<!-- Node2&#45;&gt;Node5 -->
<g id="edge6" class="edge">
<title>Node2&#45;&gt;Node5</title>
<path fill="none" stroke="#404040" d="M293.03,-456.25C321.27,-437.68 376.04,-401.65 428.3,-367.27"/>
<polygon fill="none" stroke="#404040" points="428.34,-367.25 431.15,-360.61 438.36,-360.65 435.55,-367.29 428.34,-367.25"/>
<text text-anchor="middle" x="438.65" y="-398.5" font-family="Helvetica,sans-Serif" font-size="10.00"> &#45;m_Rotation</text>
</g>
<!-- Node3&#45;&gt;Node1 -->
<g id="edge2" class="edge">
<title>Node3&#45;&gt;Node1</title>
<path fill="none" stroke="#404040" d="M316.04,-248.2C333.96,-234.32 355.16,-218.16 374.65,-204 392.91,-190.73 412.4,-176.94 431.58,-163.58"/>
<polygon fill="none" stroke="#404040" points="431.71,-163.49 434.36,-156.78 441.57,-156.64 438.92,-163.35 431.71,-163.49"/>
<text text-anchor="middle" x="443.65" y="-178" font-family="Helvetica,sans-Serif" font-size="10.00"> &#45;m_Bounds</text>
</g>
<!-- Node4 -->
<g id="node4" class="node">
<title>Node4</title>
<g id="a_node4"><a xlink:title=" ">
<polygon fill="white" stroke="#bfbfbf" points="880.65,-254 880.65,-311 918.65,-311 918.65,-254 880.65,-254"/>
<text text-anchor="middle" x="899.65" y="-299" font-family="Helvetica,sans-Serif" font-size="10.00">bool</text>
<polyline fill="none" stroke="#bfbfbf" points="880.65,-292 918.65,-292 "/>
<text text-anchor="middle" x="899.65" y="-280" font-family="Helvetica,sans-Serif" font-size="10.00"> </text>
<polyline fill="none" stroke="#bfbfbf" points="880.65,-273 918.65,-273 "/>
<text text-anchor="middle" x="899.65" y="-261" font-family="Helvetica,sans-Serif" font-size="10.00"> </text>
</a>
</g>
</g>
<!-- Node4&#45;&gt;Node1 -->
<g id="edge4" class="edge">
<title>Node4&#45;&gt;Node1</title>
<path fill="none" stroke="#404040" d="M893.52,-253.7C888.66,-237.38 880.34,-217.4 866.65,-204 834.31,-172.36 792.9,-148.45 750.93,-130.49"/>
<polygon fill="none" stroke="#404040" points="750.75,-130.42 743.68,-131.82 739.67,-125.82 746.74,-124.43 750.75,-130.42"/>
<text text-anchor="middle" x="870.65" y="-178" font-family="Helvetica,sans-Serif" font-size="10.00"> &#45;m_Rotation</text>
</g>
<!-- Node5&#45;&gt;Node1 -->
<g id="edge5" class="edge">
<title>Node5&#45;&gt;Node1</title>
<path fill="none" stroke="#404040" d="M555.65,-204.27C555.65,-192.69 555.65,-180.68 555.65,-168.88"/>
<polygon fill="none" stroke="#404040" points="555.65,-168.69 551.65,-162.69 555.65,-156.69 559.65,-162.69 555.65,-168.69"/>
<text text-anchor="middle" x="586.15" y="-178" font-family="Helvetica,sans-Serif" font-size="10.00"> &#45;m_Camera</text>
</g>
<!-- Node6 -->
<g id="node6" class="node">
<title>Node6</title>
<g id="a_node6"><a xlink:title=" ">
<polygon fill="white" stroke="#bfbfbf" points="518.65,-441.5 518.65,-498.5 560.65,-498.5 560.65,-441.5 518.65,-441.5"/>
<text text-anchor="middle" x="539.65" y="-486.5" font-family="Helvetica,sans-Serif" font-size="10.00">mat4</text>
<polyline fill="none" stroke="#bfbfbf" points="518.65,-479.5 560.65,-479.5 "/>
<text text-anchor="middle" x="539.65" y="-467.5" font-family="Helvetica,sans-Serif" font-size="10.00"> </text>
<polyline fill="none" stroke="#bfbfbf" points="518.65,-460.5 560.65,-460.5 "/>
<text text-anchor="middle" x="539.65" y="-448.5" font-family="Helvetica,sans-Serif" font-size="10.00"> </text>
</a>
</g>
</g>
<!-- Node6&#45;&gt;Node5 -->
<g id="edge7" class="edge">
<title>Node6&#45;&gt;Node5</title>
<path fill="none" stroke="#404040" d="M538.93,-441.38C538.71,-423.55 538.91,-399.87 540.65,-379 540.82,-376.93 541.02,-374.84 541.22,-372.73"/>
<polygon fill="none" stroke="#404040" points="541.25,-372.45 537.94,-366.05 542.57,-360.53 545.89,-366.93 541.25,-372.45"/>
<text text-anchor="middle" x="602.65" y="-409.5" font-family="Helvetica,sans-Serif" font-size="10.00"> &#45;m_ProjectionMatrix</text>
<text text-anchor="middle" x="602.65" y="-398.5" font-family="Helvetica,sans-Serif" font-size="10.00">&#45;m_ViewMatrix</text>
<text text-anchor="middle" x="602.65" y="-387.5" font-family="Helvetica,sans-Serif" font-size="10.00">&#45;m_ViewProjectionMatrix</text>
</g>
<!-- Node7 -->
<g id="node7" class="node">
<title>Node7</title>
<g id="a_node7"><a xlink:title=" ">
<polygon fill="white" stroke="#bfbfbf" points="704.65,-441.5 704.65,-498.5 744.65,-498.5 744.65,-441.5 704.65,-441.5"/>
<text text-anchor="middle" x="724.65" y="-486.5" font-family="Helvetica,sans-Serif" font-size="10.00">vec3</text>
<polyline fill="none" stroke="#bfbfbf" points="704.65,-479.5 744.65,-479.5 "/>
<text text-anchor="middle" x="724.65" y="-467.5" font-family="Helvetica,sans-Serif" font-size="10.00"> </text>
<polyline fill="none" stroke="#bfbfbf" points="704.65,-460.5 744.65,-460.5 "/>
<text text-anchor="middle" x="724.65" y="-448.5" font-family="Helvetica,sans-Serif" font-size="10.00"> </text>
</a>
</g>
</g>
<!-- Node7&#45;&gt;Node1 -->
<g id="edge9" class="edge">
<title>Node7&#45;&gt;Node1</title>
<path fill="none" stroke="#404040" d="M741.87,-441.14C744.67,-435.34 747.15,-429.12 748.65,-423 762.64,-365.95 772.66,-268.65 735.65,-204 727.52,-189.8 717.04,-176.86 705.22,-165.15"/>
<polygon fill="none" stroke="#404040" points="705.13,-165.07 698.02,-163.87 696.39,-156.84 703.51,-158.04 705.13,-165.07"/>
<text text-anchor="middle" x="810.65" y="-280" font-family="Helvetica,sans-Serif" font-size="10.00"> &#45;m_CameraPosition</text>
</g>
<!-- Node7&#45;&gt;Node5 -->
<g id="edge8" class="edge">
<title>Node7&#45;&gt;Node5</title>
<path fill="none" stroke="#404040" d="M704.53,-445.79C698.77,-438.69 692.7,-430.72 687.65,-423 675.57,-404.54 678.29,-396.34 664.65,-379 662.2,-375.89 659.64,-372.79 656.99,-369.73"/>
<polygon fill="none" stroke="#404040" points="656.84,-369.56 649.85,-367.78 648.8,-360.65 655.79,-362.42 656.84,-369.56"/>
<text text-anchor="middle" x="718.15" y="-398.5" font-family="Helvetica,sans-Serif" font-size="10.00"> &#45;m_Position</text>
</g>
</g>
</svg>
