<?xml version="1.0" encoding="UTF-8" standalone="no"?>
<!DOCTYPE svg PUBLIC "-//W3C//DTD SVG 1.1//EN"
 "http://www.w3.org/Graphics/SVG/1.1/DTD/svg11.dtd">
<!-- Generated by graphviz version 2.43.0 (0)
 -->
<!-- Title: gauri::SubTexture2D Pages: 1 -->
<svg width="690pt" height="204pt"
 viewBox="0.00 0.00 690.00 204.00" xmlns="http://www.w3.org/2000/svg" xmlns:xlink="http://www.w3.org/1999/xlink">
<g id="graph0" class="graph" transform="scale(1 1) rotate(0) translate(4 200)">
<title>gauri::SubTexture2D</title>
<polygon fill="white" stroke="transparent" points="-4,4 -4,-200 686,-200 686,4 -4,4"/>
<!-- Node1 -->
<g id="node1" class="node">
<title>Node1</title>
<g id="a_node1"><a xlink:title=" ">
<polygon fill="#bfbfbf" stroke="black" points="0,-0.5 0,-90.5 682,-90.5 682,-0.5 0,-0.5"/>
<text text-anchor="middle" x="341" y="-78.5" font-family="Helvetica,sans-Serif" font-size="10.00">gauri::SubTexture2D</text>
<polyline fill="none" stroke="black" points="0,-71.5 682,-71.5 "/>
<text text-anchor="middle" x="341" y="-59.5" font-family="Helvetica,sans-Serif" font-size="10.00"> </text>
<polyline fill="none" stroke="black" points="0,-52.5 682,-52.5 "/>
<text text-anchor="start" x="8" y="-40.5" font-family="Helvetica,sans-Serif" font-size="10.00">+ SubTexture2D(const Ref&lt; Texture2D &gt; &amp;texture, const glm::vec2 &amp;min, const glm::vec2 &amp;max)</text>
<text text-anchor="start" x="8" y="-29.5" font-family="Helvetica,sans-Serif" font-size="10.00">+ const Ref&lt; Texture2D &gt; &amp; GetTexture() const</text>
<text text-anchor="start" x="8" y="-18.5" font-family="Helvetica,sans-Serif" font-size="10.00">+ const glm::vec2 * GetTexCoords()</text>
<text text-anchor="start" x="8" y="-7.5" font-family="Helvetica,sans-Serif" font-size="10.00">+ static Ref&lt; SubTexture2D &gt; CreateFromCoords(const Ref&lt; Texture2D &gt; &amp;texture, const glm::vec2 coords, const glm::vec2 spriteSize)</text>
</a>
</g>
</g>
<!-- Node2 -->
<g id="node2" class="node">
<title>Node2</title>
<g id="a_node2"><a xlink:title=" ">
<polygon fill="white" stroke="#bfbfbf" points="220,-138.5 220,-195.5 356,-195.5 356,-138.5 220,-138.5"/>
<text text-anchor="middle" x="288" y="-183.5" font-family="Helvetica,sans-Serif" font-size="10.00">Ref&lt; gauri::Texture2D &gt;</text>
<polyline fill="none" stroke="#bfbfbf" points="220,-176.5 356,-176.5 "/>
<text text-anchor="middle" x="288" y="-164.5" font-family="Helvetica,sans-Serif" font-size="10.00"> </text>
<polyline fill="none" stroke="#bfbfbf" points="220,-157.5 356,-157.5 "/>
<text text-anchor="middle" x="288" y="-145.5" font-family="Helvetica,sans-Serif" font-size="10.00"> </text>
</a>
</g>
</g>
<!-- Node2&#45;&gt;Node1 -->
<g id="edge1" class="edge">
<title>Node2&#45;&gt;Node1</title>
<path fill="none" stroke="#404040" d="M300.29,-138.28C305.12,-127.41 310.83,-114.51 316.44,-101.89"/>
<polygon fill="none" stroke="#404040" points="316.44,-101.88 315.21,-94.78 321.3,-90.91 322.53,-98.02 316.44,-101.88"/>
<text text-anchor="middle" x="342" y="-112" font-family="Helvetica,sans-Serif" font-size="10.00"> &#45;m_Texture</text>
</g>
<!-- Node3 -->
<g id="node3" class="node">
<title>Node3</title>
<g id="a_node3"><a xlink:title=" ">
<polygon fill="white" stroke="#bfbfbf" points="374,-138.5 374,-195.5 414,-195.5 414,-138.5 374,-138.5"/>
<text text-anchor="middle" x="394" y="-183.5" font-family="Helvetica,sans-Serif" font-size="10.00">vec2</text>
<polyline fill="none" stroke="#bfbfbf" points="374,-176.5 414,-176.5 "/>
<text text-anchor="middle" x="394" y="-164.5" font-family="Helvetica,sans-Serif" font-size="10.00"> </text>
<polyline fill="none" stroke="#bfbfbf" points="374,-157.5 414,-157.5 "/>
<text text-anchor="middle" x="394" y="-145.5" font-family="Helvetica,sans-Serif" font-size="10.00"> </text>
</a>
</g>
</g>
<!-- Node3&#45;&gt;Node1 -->
<g id="edge2" class="edge">
<title>Node3&#45;&gt;Node1</title>
<path fill="none" stroke="#404040" d="M383.88,-138.25C380.3,-128.88 376.14,-118.42 372,-109 370.93,-106.57 369.82,-104.09 368.67,-101.6"/>
<polygon fill="none" stroke="#404040" points="368.63,-101.51 362.46,-97.78 363.52,-90.65 369.7,-94.38 368.63,-101.51"/>
<text text-anchor="middle" x="412.5" y="-112" font-family="Helvetica,sans-Serif" font-size="10.00"> &#45;m_TexCoords</text>
</g>
</g>
</svg>
