<?xml version="1.0" encoding="UTF-8" standalone="no"?>
<!DOCTYPE svg PUBLIC "-//W3C//DTD SVG 1.1//EN"
 "http://www.w3.org/Graphics/SVG/1.1/DTD/svg11.dtd">
<!-- Generated by graphviz version 2.43.0 (0)
 -->
<!-- Title: gauri::MouseButtonEvent Pages: 1 -->
<svg width="460pt" height="331pt"
 viewBox="0.00 0.00 459.50 331.00" xmlns="http://www.w3.org/2000/svg" xmlns:xlink="http://www.w3.org/1999/xlink">
<g id="graph0" class="graph" transform="scale(1 1) rotate(0) translate(4 327)">
<title>gauri::MouseButtonEvent</title>
<polygon fill="white" stroke="transparent" points="-4,4 -4,-327 455.5,-327 455.5,4 -4,4"/>
<!-- Node1 -->
<g id="node1" class="node">
<title>Node1</title>
<g id="a_node1"><a xlink:title=" ">
<polygon fill="#bfbfbf" stroke="black" points="136,-105.5 136,-173.5 311,-173.5 311,-105.5 136,-105.5"/>
<text text-anchor="middle" x="223.5" y="-161.5" font-family="Helvetica,sans-Serif" font-size="10.00">gauri::MouseButtonEvent</text>
<polyline fill="none" stroke="black" points="136,-154.5 311,-154.5 "/>
<text text-anchor="start" x="144" y="-142.5" font-family="Helvetica,sans-Serif" font-size="10.00"># int m_Button</text>
<polyline fill="none" stroke="black" points="136,-135.5 311,-135.5 "/>
<text text-anchor="start" x="144" y="-123.5" font-family="Helvetica,sans-Serif" font-size="10.00">+ int GetMouseButton() const</text>
<text text-anchor="start" x="144" y="-112.5" font-family="Helvetica,sans-Serif" font-size="10.00"># MouseButtonEvent(int button)</text>
</a>
</g>
</g>
<!-- Node3 -->
<g id="node3" class="node">
<title>Node3</title>
<g id="a_node3"><a xlink:href="classgauri_1_1MouseButtonPressedEvent.html" target="_top" xlink:title=" ">
<polygon fill="white" stroke="black" points="0,-0.5 0,-68.5 213,-68.5 213,-0.5 0,-0.5"/>
<text text-anchor="middle" x="106.5" y="-56.5" font-family="Helvetica,sans-Serif" font-size="10.00">gauri::MouseButtonPressedEvent</text>
<polyline fill="none" stroke="black" points="0,-49.5 213,-49.5 "/>
<text text-anchor="middle" x="106.5" y="-37.5" font-family="Helvetica,sans-Serif" font-size="10.00"> </text>
<polyline fill="none" stroke="black" points="0,-30.5 213,-30.5 "/>
<text text-anchor="start" x="8" y="-18.5" font-family="Helvetica,sans-Serif" font-size="10.00">+ MouseButtonPressedEvent(int button)</text>
<text text-anchor="start" x="8" y="-7.5" font-family="Helvetica,sans-Serif" font-size="10.00">+ std::string ToString() const override</text>
</a>
</g>
</g>
<!-- Node1&#45;&gt;Node3 -->
<g id="edge2" class="edge">
<title>Node1&#45;&gt;Node3</title>
<path fill="none" stroke="midnightblue" d="M178.17,-98.59C166.9,-88.67 154.94,-78.15 144.09,-68.59"/>
<polygon fill="none" stroke="midnightblue" points="176.02,-101.36 185.84,-105.34 180.64,-96.11 176.02,-101.36"/>
</g>
<!-- Node4 -->
<g id="node4" class="node">
<title>Node4</title>
<g id="a_node4"><a xlink:href="classgauri_1_1MouseButtonReleasedEvent.html" target="_top" xlink:title=" ">
<polygon fill="white" stroke="black" points="231.5,-0.5 231.5,-68.5 451.5,-68.5 451.5,-0.5 231.5,-0.5"/>
<text text-anchor="middle" x="341.5" y="-56.5" font-family="Helvetica,sans-Serif" font-size="10.00">gauri::MouseButtonReleasedEvent</text>
<polyline fill="none" stroke="black" points="231.5,-49.5 451.5,-49.5 "/>
<text text-anchor="middle" x="341.5" y="-37.5" font-family="Helvetica,sans-Serif" font-size="10.00"> </text>
<polyline fill="none" stroke="black" points="231.5,-30.5 451.5,-30.5 "/>
<text text-anchor="start" x="239.5" y="-18.5" font-family="Helvetica,sans-Serif" font-size="10.00">+ MouseButtonReleasedEvent(int button)</text>
<text text-anchor="start" x="239.5" y="-7.5" font-family="Helvetica,sans-Serif" font-size="10.00">+ std::string ToString() const override</text>
</a>
</g>
</g>
<!-- Node1&#45;&gt;Node4 -->
<g id="edge3" class="edge">
<title>Node1&#45;&gt;Node4</title>
<path fill="none" stroke="midnightblue" d="M269.22,-98.59C280.58,-88.67 292.64,-78.15 303.59,-68.59"/>
<polygon fill="none" stroke="midnightblue" points="266.72,-96.13 261.49,-105.34 271.32,-101.4 266.72,-96.13"/>
</g>
<!-- Node2 -->
<g id="node2" class="node">
<title>Node2</title>
<g id="a_node2"><a xlink:href="classgauri_1_1Event.html" target="_top" xlink:title=" ">
<polygon fill="white" stroke="black" points="103,-210.5 103,-322.5 344,-322.5 344,-210.5 103,-210.5"/>
<text text-anchor="middle" x="223.5" y="-310.5" font-family="Helvetica,sans-Serif" font-size="10.00">gauri::Event</text>
<polyline fill="none" stroke="black" points="103,-303.5 344,-303.5 "/>
<text text-anchor="start" x="111" y="-291.5" font-family="Helvetica,sans-Serif" font-size="10.00"># bool m_Handled</text>
<polyline fill="none" stroke="black" points="103,-284.5 344,-284.5 "/>
<text text-anchor="start" x="111" y="-272.5" font-family="Helvetica,sans-Serif" font-size="10.00">+ virtual EventType GetEventType() const =0</text>
<text text-anchor="start" x="111" y="-261.5" font-family="Helvetica,sans-Serif" font-size="10.00">+ virtual const char * GetName() const =0</text>
<text text-anchor="start" x="111" y="-250.5" font-family="Helvetica,sans-Serif" font-size="10.00">+ virtual int32_t GetCategoryFlags() const =0</text>
<text text-anchor="start" x="111" y="-239.5" font-family="Helvetica,sans-Serif" font-size="10.00">+ virtual std::string ToString() const</text>
<text text-anchor="start" x="111" y="-228.5" font-family="Helvetica,sans-Serif" font-size="10.00">+ bool IsInCategory(EventCategory category)</text>
<text text-anchor="start" x="111" y="-217.5" font-family="Helvetica,sans-Serif" font-size="10.00">+ bool IsHandled() const</text>
</a>
</g>
</g>
<!-- Node2&#45;&gt;Node1 -->
<g id="edge1" class="edge">
<title>Node2&#45;&gt;Node1</title>
<path fill="none" stroke="midnightblue" d="M223.5,-200.26C223.5,-190.99 223.5,-181.8 223.5,-173.51"/>
<polygon fill="none" stroke="midnightblue" points="220,-200.31 223.5,-210.31 227,-200.31 220,-200.31"/>
</g>
</g>
</svg>
