<?xml version="1.0" encoding="UTF-8" standalone="no"?>
<!DOCTYPE svg PUBLIC "-//W3C//DTD SVG 1.1//EN"
 "http://www.w3.org/Graphics/SVG/1.1/DTD/svg11.dtd">
<!-- Generated by graphviz version 2.43.0 (0)
 -->
<!-- Title: gauri::MouseButtonPressedEvent Pages: 1 -->
<svg width="349pt" height="448pt"
 viewBox="0.00 0.00 349.00 448.00" xmlns="http://www.w3.org/2000/svg" xmlns:xlink="http://www.w3.org/1999/xlink">
<g id="graph0" class="graph" transform="scale(1 1) rotate(0) translate(4 444)">
<title>gauri::MouseButtonPressedEvent</title>
<polygon fill="white" stroke="transparent" points="-4,4 -4,-444 345,-444 345,4 -4,4"/>
<!-- Node1 -->
<g id="node1" class="node">
<title>Node1</title>
<g id="a_node1"><a xlink:title=" ">
<polygon fill="#bfbfbf" stroke="black" points="128,-0.5 128,-68.5 341,-68.5 341,-0.5 128,-0.5"/>
<text text-anchor="middle" x="234.5" y="-56.5" font-family="Helvetica,sans-Serif" font-size="10.00">gauri::MouseButtonPressedEvent</text>
<polyline fill="none" stroke="black" points="128,-49.5 341,-49.5 "/>
<text text-anchor="middle" x="234.5" y="-37.5" font-family="Helvetica,sans-Serif" font-size="10.00"> </text>
<polyline fill="none" stroke="black" points="128,-30.5 341,-30.5 "/>
<text text-anchor="start" x="136" y="-18.5" font-family="Helvetica,sans-Serif" font-size="10.00">+ MouseButtonPressedEvent(int button)</text>
<text text-anchor="start" x="136" y="-7.5" font-family="Helvetica,sans-Serif" font-size="10.00">+ std::string ToString() const override</text>
</a>
</g>
</g>
<!-- Node2 -->
<g id="node2" class="node">
<title>Node2</title>
<g id="a_node2"><a xlink:href="classgauri_1_1MouseButtonEvent.html" target="_top" xlink:title=" ">
<polygon fill="white" stroke="black" points="147,-106.5 147,-174.5 322,-174.5 322,-106.5 147,-106.5"/>
<text text-anchor="middle" x="234.5" y="-162.5" font-family="Helvetica,sans-Serif" font-size="10.00">gauri::MouseButtonEvent</text>
<polyline fill="none" stroke="black" points="147,-155.5 322,-155.5 "/>
<text text-anchor="middle" x="234.5" y="-143.5" font-family="Helvetica,sans-Serif" font-size="10.00"> </text>
<polyline fill="none" stroke="black" points="147,-136.5 322,-136.5 "/>
<text text-anchor="start" x="155" y="-124.5" font-family="Helvetica,sans-Serif" font-size="10.00">+ int GetMouseButton() const</text>
<text text-anchor="start" x="155" y="-113.5" font-family="Helvetica,sans-Serif" font-size="10.00"># MouseButtonEvent(int button)</text>
</a>
</g>
</g>
<!-- Node2&#45;&gt;Node1 -->
<g id="edge1" class="edge">
<title>Node2&#45;&gt;Node1</title>
<path fill="none" stroke="midnightblue" d="M234.5,-96.17C234.5,-87 234.5,-77.46 234.5,-68.73"/>
<polygon fill="none" stroke="midnightblue" points="231,-96.31 234.5,-106.31 238,-96.31 231,-96.31"/>
</g>
<!-- Node3 -->
<g id="node3" class="node">
<title>Node3</title>
<g id="a_node3"><a xlink:href="classgauri_1_1Event.html" target="_top" xlink:title=" ">
<polygon fill="white" stroke="black" points="0,-222.5 0,-334.5 241,-334.5 241,-222.5 0,-222.5"/>
<text text-anchor="middle" x="120.5" y="-322.5" font-family="Helvetica,sans-Serif" font-size="10.00">gauri::Event</text>
<polyline fill="none" stroke="black" points="0,-315.5 241,-315.5 "/>
<text text-anchor="middle" x="120.5" y="-303.5" font-family="Helvetica,sans-Serif" font-size="10.00"> </text>
<polyline fill="none" stroke="black" points="0,-296.5 241,-296.5 "/>
<text text-anchor="start" x="8" y="-284.5" font-family="Helvetica,sans-Serif" font-size="10.00">+ virtual ~Event()=default</text>
<text text-anchor="start" x="8" y="-273.5" font-family="Helvetica,sans-Serif" font-size="10.00">+ virtual EventType GetEventType() const =0</text>
<text text-anchor="start" x="8" y="-262.5" font-family="Helvetica,sans-Serif" font-size="10.00">+ virtual const char * GetName() const =0</text>
<text text-anchor="start" x="8" y="-251.5" font-family="Helvetica,sans-Serif" font-size="10.00">+ virtual int32_t GetCategoryFlags() const =0</text>
<text text-anchor="start" x="8" y="-240.5" font-family="Helvetica,sans-Serif" font-size="10.00">+ virtual std::string ToString() const</text>
<text text-anchor="start" x="8" y="-229.5" font-family="Helvetica,sans-Serif" font-size="10.00">+ bool IsInCategory(EventCategory category)</text>
</a>
</g>
</g>
<!-- Node3&#45;&gt;Node2 -->
<g id="edge2" class="edge">
<title>Node3&#45;&gt;Node2</title>
<path fill="none" stroke="midnightblue" d="M173.6,-214.16C185.09,-200.45 196.79,-186.48 206.83,-174.51"/>
<polygon fill="none" stroke="midnightblue" points="170.61,-212.27 166.87,-222.18 175.97,-216.77 170.61,-212.27"/>
</g>
<!-- Node4 -->
<g id="node4" class="node">
<title>Node4</title>
<g id="a_node4"><a xlink:title=" ">
<polygon fill="white" stroke="#bfbfbf" points="101.5,-382.5 101.5,-439.5 139.5,-439.5 139.5,-382.5 101.5,-382.5"/>
<text text-anchor="middle" x="120.5" y="-427.5" font-family="Helvetica,sans-Serif" font-size="10.00">bool</text>
<polyline fill="none" stroke="#bfbfbf" points="101.5,-420.5 139.5,-420.5 "/>
<text text-anchor="middle" x="120.5" y="-408.5" font-family="Helvetica,sans-Serif" font-size="10.00"> </text>
<polyline fill="none" stroke="#bfbfbf" points="101.5,-401.5 139.5,-401.5 "/>
<text text-anchor="middle" x="120.5" y="-389.5" font-family="Helvetica,sans-Serif" font-size="10.00"> </text>
</a>
</g>
</g>
<!-- Node4&#45;&gt;Node3 -->
<g id="edge3" class="edge">
<title>Node4&#45;&gt;Node3</title>
<path fill="none" stroke="#404040" d="M120.5,-382.32C120.5,-371.78 120.5,-359.25 120.5,-346.62"/>
<polygon fill="none" stroke="#404040" points="120.5,-346.55 116.5,-340.55 120.5,-334.55 124.5,-340.55 120.5,-346.55"/>
<text text-anchor="middle" x="146.5" y="-356" font-family="Helvetica,sans-Serif" font-size="10.00"> +Handled</text>
</g>
<!-- Node5 -->
<g id="node5" class="node">
<title>Node5</title>
<g id="a_node5"><a xlink:title=" ">
<polygon fill="white" stroke="#bfbfbf" points="259,-250 259,-307 288,-307 288,-250 259,-250"/>
<text text-anchor="middle" x="273.5" y="-295" font-family="Helvetica,sans-Serif" font-size="10.00">int</text>
<polyline fill="none" stroke="#bfbfbf" points="259,-288 288,-288 "/>
<text text-anchor="middle" x="273.5" y="-276" font-family="Helvetica,sans-Serif" font-size="10.00"> </text>
<polyline fill="none" stroke="#bfbfbf" points="259,-269 288,-269 "/>
<text text-anchor="middle" x="273.5" y="-257" font-family="Helvetica,sans-Serif" font-size="10.00"> </text>
</a>
</g>
</g>
<!-- Node5&#45;&gt;Node2 -->
<g id="edge4" class="edge">
<title>Node5&#45;&gt;Node2</title>
<path fill="none" stroke="#404040" d="M265.61,-249.98C260.37,-231.73 253.39,-207.36 247.36,-186.34"/>
<polygon fill="none" stroke="#404040" points="247.34,-186.28 241.84,-181.62 244.03,-174.75 249.53,-179.41 247.34,-186.28"/>
<text text-anchor="middle" x="281" y="-196" font-family="Helvetica,sans-Serif" font-size="10.00"> #m_Button</text>
</g>
</g>
</svg>
