<?xml version="1.0" encoding="UTF-8" standalone="no"?>
<!DOCTYPE svg PUBLIC "-//W3C//DTD SVG 1.1//EN"
 "http://www.w3.org/Graphics/SVG/1.1/DTD/svg11.dtd">
<!-- Generated by graphviz version 2.43.0 (0)
 -->
<!-- Title: gauri::RenderCommand Pages: 1 -->
<svg width="374pt" height="353pt"
 viewBox="0.00 0.00 374.00 353.00" xmlns="http://www.w3.org/2000/svg" xmlns:xlink="http://www.w3.org/1999/xlink">
<g id="graph0" class="graph" transform="scale(1 1) rotate(0) translate(4 349)">
<title>gauri::RenderCommand</title>
<polygon fill="white" stroke="transparent" points="-4,4 -4,-349 370,-349 370,4 -4,4"/>
<!-- Node1 -->
<g id="node1" class="node">
<title>Node1</title>
<g id="a_node1"><a xlink:title=" ">
<polygon fill="#bfbfbf" stroke="black" points="9.5,-0.5 9.5,-90.5 356.5,-90.5 356.5,-0.5 9.5,-0.5"/>
<text text-anchor="middle" x="183" y="-78.5" font-family="Helvetica,sans-Serif" font-size="10.00">gauri::RenderCommand</text>
<polyline fill="none" stroke="black" points="9.5,-71.5 356.5,-71.5 "/>
<text text-anchor="middle" x="183" y="-59.5" font-family="Helvetica,sans-Serif" font-size="10.00"> </text>
<polyline fill="none" stroke="black" points="9.5,-52.5 356.5,-52.5 "/>
<text text-anchor="start" x="17.5" y="-40.5" font-family="Helvetica,sans-Serif" font-size="10.00">+ static void Init()</text>
<text text-anchor="start" x="17.5" y="-29.5" font-family="Helvetica,sans-Serif" font-size="10.00">+ static void SetClearColor(const glm::vec4 &amp;color)</text>
<text text-anchor="start" x="17.5" y="-18.5" font-family="Helvetica,sans-Serif" font-size="10.00">+ static void Clear()</text>
<text text-anchor="start" x="17.5" y="-7.5" font-family="Helvetica,sans-Serif" font-size="10.00">+ static void DrawIndexed(const Ref&lt; VertexArray &gt; &amp;vertexArray)</text>
</a>
</g>
</g>
<!-- Node2 -->
<g id="node2" class="node">
<title>Node2</title>
<g id="a_node2"><a xlink:href="classgauri_1_1RendererAPI.html" target="_top" xlink:title=" ">
<polygon fill="white" stroke="black" points="0,-138.5 0,-239.5 366,-239.5 366,-138.5 0,-138.5"/>
<text text-anchor="middle" x="183" y="-227.5" font-family="Helvetica,sans-Serif" font-size="10.00">gauri::RendererAPI</text>
<polyline fill="none" stroke="black" points="0,-220.5 366,-220.5 "/>
<text text-anchor="middle" x="183" y="-208.5" font-family="Helvetica,sans-Serif" font-size="10.00"> </text>
<polyline fill="none" stroke="black" points="0,-201.5 366,-201.5 "/>
<text text-anchor="start" x="8" y="-189.5" font-family="Helvetica,sans-Serif" font-size="10.00">+ virtual void Init()=0</text>
<text text-anchor="start" x="8" y="-178.5" font-family="Helvetica,sans-Serif" font-size="10.00">+ virtual void SetClearColor(const glm::vec4 &amp;color)=0</text>
<text text-anchor="start" x="8" y="-167.5" font-family="Helvetica,sans-Serif" font-size="10.00">+ virtual void Clear()=0</text>
<text text-anchor="start" x="8" y="-156.5" font-family="Helvetica,sans-Serif" font-size="10.00">+ virtual void DrawIndexed(const Ref&lt; VertexArray &gt; &amp;vertexArray)=0</text>
<text text-anchor="start" x="8" y="-145.5" font-family="Helvetica,sans-Serif" font-size="10.00">+ static API GetAPI()</text>
</a>
</g>
</g>
<!-- Node2&#45;&gt;Node1 -->
<g id="edge1" class="edge">
<title>Node2&#45;&gt;Node1</title>
<path fill="none" stroke="#404040" d="M183,-138.11C183,-126.78 183,-114.66 183,-103.06"/>
<polygon fill="none" stroke="#404040" points="183,-102.76 179,-96.76 183,-90.76 187,-96.76 183,-102.76"/>
<text text-anchor="middle" x="222" y="-112" font-family="Helvetica,sans-Serif" font-size="10.00"> &#45;s_RendererAPI</text>
</g>
<!-- Node3 -->
<g id="node3" class="node">
<title>Node3</title>
<g id="a_node3"><a xlink:title=" ">
<polygon fill="white" stroke="#bfbfbf" points="152,-287.5 152,-344.5 214,-344.5 214,-287.5 152,-287.5"/>
<text text-anchor="middle" x="183" y="-332.5" font-family="Helvetica,sans-Serif" font-size="10.00">static API</text>
<polyline fill="none" stroke="#bfbfbf" points="152,-325.5 214,-325.5 "/>
<text text-anchor="middle" x="183" y="-313.5" font-family="Helvetica,sans-Serif" font-size="10.00"> </text>
<polyline fill="none" stroke="#bfbfbf" points="152,-306.5 214,-306.5 "/>
<text text-anchor="middle" x="183" y="-294.5" font-family="Helvetica,sans-Serif" font-size="10.00"> </text>
</a>
</g>
</g>
<!-- Node3&#45;&gt;Node2 -->
<g id="edge2" class="edge">
<title>Node3&#45;&gt;Node2</title>
<path fill="none" stroke="#404040" d="M183,-287.26C183,-276.79 183,-264.42 183,-252.07"/>
<polygon fill="none" stroke="#404040" points="183,-251.8 179,-245.8 183,-239.8 187,-245.8 183,-251.8"/>
<text text-anchor="middle" x="200" y="-261" font-family="Helvetica,sans-Serif" font-size="10.00"> &#45;s_API</text>
</g>
</g>
</svg>
