<?xml version="1.0" encoding="UTF-8" standalone="no"?>
<!DOCTYPE svg PUBLIC "-//W3C//DTD SVG 1.1//EN"
 "http://www.w3.org/Graphics/SVG/1.1/DTD/svg11.dtd">
<!-- Generated by graphviz version 2.43.0 (0)
 -->
<!-- Title: gauri::Entity Pages: 1 -->
<svg width="407pt" height="496pt"
 viewBox="0.00 0.00 407.00 496.00" xmlns="http://www.w3.org/2000/svg" xmlns:xlink="http://www.w3.org/1999/xlink">
<g id="graph0" class="graph" transform="scale(1 1) rotate(0) translate(4 492)">
<title>gauri::Entity</title>
<polygon fill="white" stroke="transparent" points="-4,4 -4,-492 403,-492 403,4 -4,4"/>
<!-- Node1 -->
<g id="node1" class="node">
<title>Node1</title>
<g id="a_node1"><a xlink:title=" ">
<polygon fill="#bfbfbf" stroke="black" points="136,-0.5 136,-178.5 376,-178.5 376,-0.5 136,-0.5"/>
<text text-anchor="middle" x="256" y="-166.5" font-family="Helvetica,sans-Serif" font-size="10.00">gauri::Entity</text>
<polyline fill="none" stroke="black" points="136,-159.5 376,-159.5 "/>
<text text-anchor="middle" x="256" y="-147.5" font-family="Helvetica,sans-Serif" font-size="10.00"> </text>
<polyline fill="none" stroke="black" points="136,-140.5 376,-140.5 "/>
<text text-anchor="start" x="144" y="-128.5" font-family="Helvetica,sans-Serif" font-size="10.00">+ Entity()=default</text>
<text text-anchor="start" x="144" y="-117.5" font-family="Helvetica,sans-Serif" font-size="10.00">+ Entity(entt::entity handle, Scene *scene)</text>
<text text-anchor="start" x="144" y="-106.5" font-family="Helvetica,sans-Serif" font-size="10.00">+ Entity(const Entity &amp;other)=default</text>
<text text-anchor="start" x="144" y="-95.5" font-family="Helvetica,sans-Serif" font-size="10.00">+ T &amp; AddComponent(Args &amp;&amp;...args)</text>
<text text-anchor="start" x="144" y="-84.5" font-family="Helvetica,sans-Serif" font-size="10.00">+ T &amp; GetComponent()</text>
<text text-anchor="start" x="144" y="-73.5" font-family="Helvetica,sans-Serif" font-size="10.00">+ bool HasComponent()</text>
<text text-anchor="start" x="144" y="-62.5" font-family="Helvetica,sans-Serif" font-size="10.00">+ void RemoveComponent()</text>
<text text-anchor="start" x="144" y="-51.5" font-family="Helvetica,sans-Serif" font-size="10.00">+ operator bool() const</text>
<text text-anchor="start" x="144" y="-40.5" font-family="Helvetica,sans-Serif" font-size="10.00">+ operator uint32_t() const</text>
<text text-anchor="start" x="144" y="-29.5" font-family="Helvetica,sans-Serif" font-size="10.00">+ operator entt::entity() const</text>
<text text-anchor="start" x="144" y="-18.5" font-family="Helvetica,sans-Serif" font-size="10.00">+ bool operator==(const Entity &amp;other) const</text>
<text text-anchor="start" x="144" y="-7.5" font-family="Helvetica,sans-Serif" font-size="10.00">+ bool operator!=(const Entity &amp;other) const</text>
</a>
</g>
</g>
<!-- Node2 -->
<g id="node2" class="node">
<title>Node2</title>
<g id="a_node2"><a xlink:href="classgauri_1_1Scene.html" target="_top" xlink:title=" ">
<polygon fill="white" stroke="black" points="0,-226.5 0,-371.5 314,-371.5 314,-226.5 0,-226.5"/>
<text text-anchor="middle" x="157" y="-359.5" font-family="Helvetica,sans-Serif" font-size="10.00">gauri::Scene</text>
<polyline fill="none" stroke="black" points="0,-352.5 314,-352.5 "/>
<text text-anchor="middle" x="157" y="-340.5" font-family="Helvetica,sans-Serif" font-size="10.00"> </text>
<polyline fill="none" stroke="black" points="0,-333.5 314,-333.5 "/>
<text text-anchor="start" x="8" y="-321.5" font-family="Helvetica,sans-Serif" font-size="10.00">+ Scene()</text>
<text text-anchor="start" x="8" y="-310.5" font-family="Helvetica,sans-Serif" font-size="10.00">+ ~Scene()</text>
<text text-anchor="start" x="8" y="-299.5" font-family="Helvetica,sans-Serif" font-size="10.00">+ Entity CreateEntity(const std::string &amp;name=std::string())</text>
<text text-anchor="start" x="8" y="-288.5" font-family="Helvetica,sans-Serif" font-size="10.00">+ void DestroyEntity(Entity entity)</text>
<text text-anchor="start" x="8" y="-277.5" font-family="Helvetica,sans-Serif" font-size="10.00">+ void OnUpdateEditor(Timestep ts, EditorCamera &amp;camera)</text>
<text text-anchor="start" x="8" y="-266.5" font-family="Helvetica,sans-Serif" font-size="10.00">+ void OnUpdateRuntime(Timestep ts)</text>
<text text-anchor="start" x="8" y="-255.5" font-family="Helvetica,sans-Serif" font-size="10.00">+ void OnViewportResize(uint32_t width, uint32_t height)</text>
<text text-anchor="start" x="8" y="-244.5" font-family="Helvetica,sans-Serif" font-size="10.00">+ Entity GetPrimaryCameraEntity()</text>
<text text-anchor="start" x="8" y="-233.5" font-family="Helvetica,sans-Serif" font-size="10.00">&#45; void OnComponentAdded(Entity entity, T &amp;component)</text>
</a>
</g>
</g>
<!-- Node2&#45;&gt;Node1 -->
<g id="edge1" class="edge">
<title>Node2&#45;&gt;Node1</title>
<path fill="none" stroke="#404040" d="M191.21,-226.3C196.87,-214.43 202.83,-201.94 208.75,-189.54"/>
<polygon fill="none" stroke="#404040" points="208.76,-189.52 207.73,-182.38 213.93,-178.69 214.95,-185.82 208.76,-189.52"/>
<text text-anchor="middle" x="230" y="-200" font-family="Helvetica,sans-Serif" font-size="10.00"> &#45;m_Scene</text>
</g>
<!-- Node3 -->
<g id="node3" class="node">
<title>Node3</title>
<g id="a_node3"><a xlink:title=" ">
<polygon fill="white" stroke="#bfbfbf" points="87,-430.5 87,-487.5 141,-487.5 141,-430.5 87,-430.5"/>
<text text-anchor="middle" x="114" y="-475.5" font-family="Helvetica,sans-Serif" font-size="10.00">registry</text>
<polyline fill="none" stroke="#bfbfbf" points="87,-468.5 141,-468.5 "/>
<text text-anchor="middle" x="114" y="-456.5" font-family="Helvetica,sans-Serif" font-size="10.00"> </text>
<polyline fill="none" stroke="#bfbfbf" points="87,-449.5 141,-449.5 "/>
<text text-anchor="middle" x="114" y="-437.5" font-family="Helvetica,sans-Serif" font-size="10.00"> </text>
</a>
</g>
</g>
<!-- Node3&#45;&gt;Node2 -->
<g id="edge2" class="edge">
<title>Node3&#45;&gt;Node2</title>
<path fill="none" stroke="#404040" d="M111.79,-430.22C111.47,-417.78 112.01,-403 115,-390 115.53,-387.7 116.12,-385.39 116.77,-383.07"/>
<polygon fill="none" stroke="#404040" points="116.81,-382.95 114.8,-376.02 120.42,-371.5 122.43,-378.43 116.81,-382.95"/>
<text text-anchor="middle" x="146.5" y="-398.5" font-family="Helvetica,sans-Serif" font-size="10.00"> &#45;m_Registry</text>
</g>
<!-- Node4 -->
<g id="node4" class="node">
<title>Node4</title>
<g id="a_node4"><a xlink:title=" ">
<polygon fill="white" stroke="#bfbfbf" points="172,-430.5 172,-487.5 228,-487.5 228,-430.5 172,-430.5"/>
<text text-anchor="middle" x="200" y="-475.5" font-family="Helvetica,sans-Serif" font-size="10.00">uint32_t</text>
<polyline fill="none" stroke="#bfbfbf" points="172,-468.5 228,-468.5 "/>
<text text-anchor="middle" x="200" y="-456.5" font-family="Helvetica,sans-Serif" font-size="10.00"> </text>
<polyline fill="none" stroke="#bfbfbf" points="172,-449.5 228,-449.5 "/>
<text text-anchor="middle" x="200" y="-437.5" font-family="Helvetica,sans-Serif" font-size="10.00"> </text>
</a>
</g>
</g>
<!-- Node4&#45;&gt;Node2 -->
<g id="edge3" class="edge">
<title>Node4&#45;&gt;Node2</title>
<path fill="none" stroke="#404040" d="M192.51,-430.48C188.89,-417.19 184.34,-400.46 179.71,-383.45"/>
<polygon fill="none" stroke="#404040" points="179.66,-383.25 174.22,-378.51 176.5,-371.67 181.94,-376.41 179.66,-383.25"/>
<text text-anchor="middle" x="237" y="-404" font-family="Helvetica,sans-Serif" font-size="10.00"> &#45;m_ViewportHeight</text>
<text text-anchor="middle" x="237" y="-393" font-family="Helvetica,sans-Serif" font-size="10.00">&#45;m_ViewportWidth</text>
</g>
<!-- Node5 -->
<g id="node5" class="node">
<title>Node5</title>
<g id="a_node5"><a xlink:title=" ">
<polygon fill="white" stroke="#bfbfbf" points="332.5,-270.5 332.5,-327.5 377.5,-327.5 377.5,-270.5 332.5,-270.5"/>
<text text-anchor="middle" x="355" y="-315.5" font-family="Helvetica,sans-Serif" font-size="10.00">entity</text>
<polyline fill="none" stroke="#bfbfbf" points="332.5,-308.5 377.5,-308.5 "/>
<text text-anchor="middle" x="355" y="-296.5" font-family="Helvetica,sans-Serif" font-size="10.00"> </text>
<polyline fill="none" stroke="#bfbfbf" points="332.5,-289.5 377.5,-289.5 "/>
<text text-anchor="middle" x="355" y="-277.5" font-family="Helvetica,sans-Serif" font-size="10.00"> </text>
</a>
</g>
</g>
<!-- Node5&#45;&gt;Node1 -->
<g id="edge4" class="edge">
<title>Node5&#45;&gt;Node1</title>
<path fill="none" stroke="#404040" d="M342.96,-270.19C337.07,-256.77 329.8,-240.49 323,-226 317.5,-214.27 311.62,-202.02 305.72,-189.89"/>
<polygon fill="none" stroke="#404040" points="305.58,-189.59 299.35,-185.95 300.31,-178.81 306.54,-182.44 305.58,-189.59"/>
<text text-anchor="middle" x="356.5" y="-200" font-family="Helvetica,sans-Serif" font-size="10.00"> &#45;m_EntityHandle</text>
</g>
</g>
</svg>
