<?xml version="1.0" encoding="UTF-8" standalone="no"?>
<!DOCTYPE svg PUBLIC "-//W3C//DTD SVG 1.1//EN"
 "http://www.w3.org/Graphics/SVG/1.1/DTD/svg11.dtd">
<!-- Generated by graphviz version 2.43.0 (0)
 -->
<!-- Title: gauri::ShaderLibrary Pages: 1 -->
<svg width="466pt" height="436pt"
 viewBox="0.00 0.00 466.00 436.00" xmlns="http://www.w3.org/2000/svg" xmlns:xlink="http://www.w3.org/1999/xlink">
<g id="graph0" class="graph" transform="scale(1 1) rotate(0) translate(4 432)">
<title>gauri::ShaderLibrary</title>
<polygon fill="white" stroke="transparent" points="-4,4 -4,-432 462,-432 462,4 -4,4"/>
<!-- Node1 -->
<g id="node1" class="node">
<title>Node1</title>
<g id="a_node1"><a xlink:title=" ">
<polygon fill="#bfbfbf" stroke="black" points="0,-0.5 0,-112.5 382,-112.5 382,-0.5 0,-0.5"/>
<text text-anchor="middle" x="191" y="-100.5" font-family="Helvetica,sans-Serif" font-size="10.00">gauri::ShaderLibrary</text>
<polyline fill="none" stroke="black" points="0,-93.5 382,-93.5 "/>
<text text-anchor="middle" x="191" y="-81.5" font-family="Helvetica,sans-Serif" font-size="10.00"> </text>
<polyline fill="none" stroke="black" points="0,-74.5 382,-74.5 "/>
<text text-anchor="start" x="8" y="-62.5" font-family="Helvetica,sans-Serif" font-size="10.00">+ void Add(const Ref&lt; Shader &gt; &amp;shader)</text>
<text text-anchor="start" x="8" y="-51.5" font-family="Helvetica,sans-Serif" font-size="10.00">+ void Add(const std::string &amp;name, const Ref&lt; Shader &gt; &amp;shader)</text>
<text text-anchor="start" x="8" y="-40.5" font-family="Helvetica,sans-Serif" font-size="10.00">+ Ref&lt; Shader &gt; Load(const std::string &amp;filepath)</text>
<text text-anchor="start" x="8" y="-29.5" font-family="Helvetica,sans-Serif" font-size="10.00">+ Ref&lt; Shader &gt; Load(const std::string &amp;name, const std::string &amp;filepath)</text>
<text text-anchor="start" x="8" y="-18.5" font-family="Helvetica,sans-Serif" font-size="10.00">+ Ref&lt; Shader &gt; Get(const std::string &amp;name)</text>
<text text-anchor="start" x="8" y="-7.5" font-family="Helvetica,sans-Serif" font-size="10.00">+ bool Exists(const std::string &amp;name) const</text>
</a>
</g>
</g>
<!-- Node2 -->
<g id="node2" class="node">
<title>Node2</title>
<g id="a_node2"><a xlink:title=" ">
<polygon fill="white" stroke="#bfbfbf" points="43.5,-160.5 43.5,-217.5 338.5,-217.5 338.5,-160.5 43.5,-160.5"/>
<text text-anchor="middle" x="191" y="-205.5" font-family="Helvetica,sans-Serif" font-size="10.00">std::unordered_map&lt; std::string, Ref&lt; gauri::Shader &gt; &gt;</text>
<polyline fill="none" stroke="#bfbfbf" points="43.5,-198.5 338.5,-198.5 "/>
<text text-anchor="middle" x="191" y="-186.5" font-family="Helvetica,sans-Serif" font-size="10.00"> </text>
<polyline fill="none" stroke="#bfbfbf" points="43.5,-179.5 338.5,-179.5 "/>
<text text-anchor="middle" x="191" y="-167.5" font-family="Helvetica,sans-Serif" font-size="10.00"> </text>
</a>
</g>
</g>
<!-- Node2&#45;&gt;Node1 -->
<g id="edge1" class="edge">
<title>Node2&#45;&gt;Node1</title>
<path fill="none" stroke="#404040" d="M191,-160.32C191,-149.78 191,-137.25 191,-124.62"/>
<polygon fill="none" stroke="#404040" points="191,-124.55 187,-118.55 191,-112.55 195,-118.55 191,-124.55"/>
<text text-anchor="middle" x="221.5" y="-134" font-family="Helvetica,sans-Serif" font-size="10.00"> &#45;m_Shaders</text>
</g>
<!-- Node3 -->
<g id="node3" class="node">
<title>Node3</title>
<g id="a_node3"><a xlink:title=" ">
<polygon fill="white" stroke="#bfbfbf" points="47.5,-265.5 47.5,-322.5 112.5,-322.5 112.5,-265.5 47.5,-265.5"/>
<text text-anchor="middle" x="80" y="-310.5" font-family="Helvetica,sans-Serif" font-size="10.00">std::string</text>
<polyline fill="none" stroke="#bfbfbf" points="47.5,-303.5 112.5,-303.5 "/>
<text text-anchor="middle" x="80" y="-291.5" font-family="Helvetica,sans-Serif" font-size="10.00"> </text>
<polyline fill="none" stroke="#bfbfbf" points="47.5,-284.5 112.5,-284.5 "/>
<text text-anchor="middle" x="80" y="-272.5" font-family="Helvetica,sans-Serif" font-size="10.00"> </text>
</a>
</g>
</g>
<!-- Node3&#45;&gt;Node2 -->
<g id="edge2" class="edge">
<title>Node3&#45;&gt;Node2</title>
<path fill="none" stroke="#404040" d="M109.75,-265.4C122.81,-253.28 138.32,-238.88 152.27,-225.94"/>
<polygon fill="none" stroke="#404040" points="152.38,-225.84 154.05,-218.83 161.17,-217.68 159.49,-224.69 152.38,-225.84"/>
<text text-anchor="middle" x="156" y="-239" font-family="Helvetica,sans-Serif" font-size="10.00"> +keys</text>
</g>
<!-- Node4 -->
<g id="node4" class="node">
<title>Node4</title>
<g id="a_node4"><a xlink:title=" ">
<polygon fill="white" stroke="#bfbfbf" points="9.5,-370.5 9.5,-427.5 150.5,-427.5 150.5,-370.5 9.5,-370.5"/>
<text text-anchor="middle" x="80" y="-415.5" font-family="Helvetica,sans-Serif" font-size="10.00">std::basic_string&lt; Char &gt;</text>
<polyline fill="none" stroke="#bfbfbf" points="9.5,-408.5 150.5,-408.5 "/>
<text text-anchor="middle" x="80" y="-396.5" font-family="Helvetica,sans-Serif" font-size="10.00"> </text>
<polyline fill="none" stroke="#bfbfbf" points="9.5,-389.5 150.5,-389.5 "/>
<text text-anchor="middle" x="80" y="-377.5" font-family="Helvetica,sans-Serif" font-size="10.00"> </text>
</a>
</g>
</g>
<!-- Node4&#45;&gt;Node3 -->
<g id="edge3" class="edge">
<title>Node4&#45;&gt;Node3</title>
<path fill="none" stroke="midnightblue" d="M80,-360.29C80,-347.84 80,-334.23 80,-322.68"/>
<polygon fill="none" stroke="midnightblue" points="76.5,-360.4 80,-370.4 83.5,-360.4 76.5,-360.4"/>
</g>
<!-- Node5 -->
<g id="node5" class="node">
<title>Node5</title>
<g id="a_node5"><a xlink:title=" ">
<polygon fill="white" stroke="#bfbfbf" points="131,-265.5 131,-322.5 251,-322.5 251,-265.5 131,-265.5"/>
<text text-anchor="middle" x="191" y="-310.5" font-family="Helvetica,sans-Serif" font-size="10.00">Ref&lt; gauri::Shader &gt;</text>
<polyline fill="none" stroke="#bfbfbf" points="131,-303.5 251,-303.5 "/>
<text text-anchor="middle" x="191" y="-291.5" font-family="Helvetica,sans-Serif" font-size="10.00"> </text>
<polyline fill="none" stroke="#bfbfbf" points="131,-284.5 251,-284.5 "/>
<text text-anchor="middle" x="191" y="-272.5" font-family="Helvetica,sans-Serif" font-size="10.00"> </text>
</a>
</g>
</g>
<!-- Node5&#45;&gt;Node2 -->
<g id="edge4" class="edge">
<title>Node5&#45;&gt;Node2</title>
<path fill="none" stroke="#404040" d="M191,-265.4C191,-254.55 191,-241.87 191,-230.05"/>
<polygon fill="none" stroke="#404040" points="191,-229.68 187,-223.68 191,-217.68 195,-223.68 191,-229.68"/>
<text text-anchor="middle" x="220" y="-239" font-family="Helvetica,sans-Serif" font-size="10.00"> +elements</text>
</g>
<!-- Node6 -->
<g id="node6" class="node">
<title>Node6</title>
<g id="a_node6"><a xlink:title=" ">
<polygon fill="white" stroke="#bfbfbf" points="269.5,-265.5 269.5,-322.5 424.5,-322.5 424.5,-265.5 269.5,-265.5"/>
<text text-anchor="middle" x="347" y="-310.5" font-family="Helvetica,sans-Serif" font-size="10.00">std::unordered_map&lt; K, T &gt;</text>
<polyline fill="none" stroke="#bfbfbf" points="269.5,-303.5 424.5,-303.5 "/>
<text text-anchor="middle" x="347" y="-291.5" font-family="Helvetica,sans-Serif" font-size="10.00"> </text>
<polyline fill="none" stroke="#bfbfbf" points="269.5,-284.5 424.5,-284.5 "/>
<text text-anchor="middle" x="347" y="-272.5" font-family="Helvetica,sans-Serif" font-size="10.00"> </text>
</a>
</g>
</g>
<!-- Node6&#45;&gt;Node2 -->
<g id="edge5" class="edge">
<title>Node6&#45;&gt;Node2</title>
<path fill="none" stroke="orange" d="M296.58,-259.71C276.02,-246.13 252.52,-230.62 232.92,-217.68"/>
<polygon fill="orange" stroke="orange" points="294.92,-262.81 305.19,-265.4 298.78,-256.97 294.92,-262.81"/>
<text text-anchor="middle" x="366" y="-239" font-family="Helvetica,sans-Serif" font-size="10.00"> &lt; std::string, Ref&lt; gauri::Shader &gt; &gt;</text>
</g>
<!-- Node7 -->
<g id="node7" class="node">
<title>Node7</title>
<g id="a_node7"><a xlink:title=" ">
<polygon fill="white" stroke="#bfbfbf" points="303.5,-370.5 303.5,-427.5 332.5,-427.5 332.5,-370.5 303.5,-370.5"/>
<text text-anchor="middle" x="318" y="-415.5" font-family="Helvetica,sans-Serif" font-size="10.00">K</text>
<polyline fill="none" stroke="#bfbfbf" points="303.5,-408.5 332.5,-408.5 "/>
<text text-anchor="middle" x="318" y="-396.5" font-family="Helvetica,sans-Serif" font-size="10.00"> </text>
<polyline fill="none" stroke="#bfbfbf" points="303.5,-389.5 332.5,-389.5 "/>
<text text-anchor="middle" x="318" y="-377.5" font-family="Helvetica,sans-Serif" font-size="10.00"> </text>
</a>
</g>
</g>
<!-- Node7&#45;&gt;Node6 -->
<g id="edge6" class="edge">
<title>Node7&#45;&gt;Node6</title>
<path fill="none" stroke="#404040" d="M318.24,-370.34C318.9,-360.89 320.27,-350.34 323,-341 323.66,-338.73 324.44,-336.44 325.31,-334.16"/>
<polygon fill="none" stroke="#404040" points="325.39,-333.97 324.13,-326.87 330.2,-322.98 331.46,-330.08 325.39,-333.97"/>
<text text-anchor="middle" x="340" y="-344" font-family="Helvetica,sans-Serif" font-size="10.00"> +keys</text>
</g>
<!-- Node8 -->
<g id="node8" class="node">
<title>Node8</title>
<g id="a_node8"><a xlink:title=" ">
<polygon fill="white" stroke="#bfbfbf" points="360.5,-370.5 360.5,-427.5 389.5,-427.5 389.5,-370.5 360.5,-370.5"/>
<text text-anchor="middle" x="375" y="-415.5" font-family="Helvetica,sans-Serif" font-size="10.00">T</text>
<polyline fill="none" stroke="#bfbfbf" points="360.5,-408.5 389.5,-408.5 "/>
<text text-anchor="middle" x="375" y="-396.5" font-family="Helvetica,sans-Serif" font-size="10.00"> </text>
<polyline fill="none" stroke="#bfbfbf" points="360.5,-389.5 389.5,-389.5 "/>
<text text-anchor="middle" x="375" y="-377.5" font-family="Helvetica,sans-Serif" font-size="10.00"> </text>
</a>
</g>
</g>
<!-- Node8&#45;&gt;Node6 -->
<g id="edge7" class="edge">
<title>Node8&#45;&gt;Node6</title>
<path fill="none" stroke="#404040" d="M367.5,-370.4C364.48,-359.31 360.95,-346.33 357.68,-334.3"/>
<polygon fill="none" stroke="#404040" points="357.67,-334.26 352.24,-329.52 354.52,-322.68 359.96,-327.42 357.67,-334.26"/>
<text text-anchor="middle" x="391" y="-344" font-family="Helvetica,sans-Serif" font-size="10.00"> +elements</text>
</g>
</g>
</svg>
