<?xml version="1.0" encoding="UTF-8" standalone="no"?>
<!DOCTYPE svg PUBLIC "-//W3C//DTD SVG 1.1//EN"
 "http://www.w3.org/Graphics/SVG/1.1/DTD/svg11.dtd">
<!-- Generated by graphviz version 2.43.0 (0)
 -->
<!-- Title: gauri::OpenGLFrameBuffer Pages: 1 -->
<!--zoomable 778 -->
<svg id="main" version="1.1" xmlns="http://www.w3.org/2000/svg" xmlns:xlink="http://www.w3.org/1999/xlink" xml:space="preserve" onload="init(evt)">
<style type="text/css"><![CDATA[
.edge:hover path { stroke: red; }
.edge:hover polygon { stroke: red; fill: red; }
]]></style>
<script type="text/javascript"><![CDATA[
var edges = document.getElementsByTagName('g');
if (edges && edges.length) {
  for (var i=0;i<edges.length;i++) {
    if (edges[i].id.substr(0,4)=='edge') {
      edges[i].setAttribute('class','edge');
    }
  }
}
]]></script>
        <defs>
                <circle id="rim" cx="0" cy="0" r="7"/>
                <circle id="rim2" cx="0" cy="0" r="3.5"/>
                <g id="zoomPlus">
                        <use xlink:href="#rim" fill="#404040">
                                <set attributeName="fill" to="#808080" begin="zoomplus.mouseover" end="zoomplus.mouseout"/>
                        </use>
                        <path d="M-4,0h8M0,-4v8" fill="none" stroke="white" stroke-width="1.5" pointer-events="none"/>
                </g>
                <g id="zoomMin">
                        <use xlink:href="#rim" fill="#404040">
                                <set attributeName="fill" to="#808080" begin="zoomminus.mouseover" end="zoomminus.mouseout"/>
                        </use>
                        <path d="M-4,0h8" fill="none" stroke="white" stroke-width="1.5" pointer-events="none"/>
                </g>
                <g id="dirArrow">
                        <path fill="none" stroke="white" stroke-width="1.5" d="M0,-3.0v7 M-2.5,-0.5L0,-3.0L2.5,-0.5"/>
                </g>
               <g id="resetDef">
                       <use xlink:href="#rim2" fill="#404040">
                               <set attributeName="fill" to="#808080" begin="reset.mouseover" end="reset.mouseout"/>
                       </use>
               </g>
        </defs>

<script type="text/javascript">
var viewWidth = 1452;
var viewHeight = 778;
var sectionId = 'dynsection-1';
</script>
<script xlink:href="svgpan.js"/>
<svg id="graph" class="graph">
<g id="viewport">
<title>gauri::OpenGLFrameBuffer</title>
<polygon fill="white" stroke="transparent" points="-4,4 -4,-774 1448,-774 1448,4 -4,4"/>
<!-- Node1 -->
<g id="node1" class="node">
<title>Node1</title>
<g id="a_node1"><a xlink:title=" ">
<polygon fill="#bfbfbf" stroke="black" points="312.5,-0.5 312.5,-134.5 665.5,-134.5 665.5,-0.5 312.5,-0.5"/>
<text text-anchor="middle" x="489" y="-122.5" font-family="Helvetica,sans-Serif" font-size="10.00">gauri::OpenGLFrameBuffer</text>
<polyline fill="none" stroke="black" points="312.5,-115.5 665.5,-115.5 "/>
<text text-anchor="middle" x="489" y="-103.5" font-family="Helvetica,sans-Serif" font-size="10.00"> </text>
<polyline fill="none" stroke="black" points="312.5,-96.5 665.5,-96.5 "/>
<text text-anchor="start" x="320.5" y="-84.5" font-family="Helvetica,sans-Serif" font-size="10.00">+ OpenGLFrameBuffer(const FrameBufferSpecification &amp;spec)</text>
<text text-anchor="start" x="320.5" y="-73.5" font-family="Helvetica,sans-Serif" font-size="10.00">+ ~OpenGLFrameBuffer() override</text>
<text text-anchor="start" x="320.5" y="-62.5" font-family="Helvetica,sans-Serif" font-size="10.00">+ void Invalidate()</text>
<text text-anchor="start" x="320.5" y="-51.5" font-family="Helvetica,sans-Serif" font-size="10.00">+ void Bind() override</text>
<text text-anchor="start" x="320.5" y="-40.5" font-family="Helvetica,sans-Serif" font-size="10.00">+ void Unbind() override</text>
<text text-anchor="start" x="320.5" y="-29.5" font-family="Helvetica,sans-Serif" font-size="10.00">+ void Resize(uint32_t width, uint32_t height) override</text>
<text text-anchor="start" x="320.5" y="-18.5" font-family="Helvetica,sans-Serif" font-size="10.00">+ uint32_t GetColorAttachmentRendererID() const override</text>
<text text-anchor="start" x="320.5" y="-7.5" font-family="Helvetica,sans-Serif" font-size="10.00">+ const FrameBufferSpecification &amp; GetSpecification() const override</text>
</a>
</g>
</g>
<!-- Node2 -->
<g id="node2" class="node">
<title>Node2</title>
<g id="a_node2"><a xlink:href="classgauri_1_1FrameBuffer.html" target="_top" xlink:title=" ">
<polygon fill="white" stroke="black" points="0,-182.5 0,-305.5 384,-305.5 384,-182.5 0,-182.5"/>
<text text-anchor="middle" x="192" y="-293.5" font-family="Helvetica,sans-Serif" font-size="10.00">gauri::FrameBuffer</text>
<polyline fill="none" stroke="black" points="0,-286.5 384,-286.5 "/>
<text text-anchor="middle" x="192" y="-274.5" font-family="Helvetica,sans-Serif" font-size="10.00"> </text>
<polyline fill="none" stroke="black" points="0,-267.5 384,-267.5 "/>
<text text-anchor="start" x="8" y="-255.5" font-family="Helvetica,sans-Serif" font-size="10.00">+ virtual ~FrameBuffer()=default</text>
<text text-anchor="start" x="8" y="-244.5" font-family="Helvetica,sans-Serif" font-size="10.00">+ virtual void Bind()=0</text>
<text text-anchor="start" x="8" y="-233.5" font-family="Helvetica,sans-Serif" font-size="10.00">+ virtual void Unbind()=0</text>
<text text-anchor="start" x="8" y="-222.5" font-family="Helvetica,sans-Serif" font-size="10.00">+ virtual void Resize(uint32_t width, uint32_t height)=0</text>
<text text-anchor="start" x="8" y="-211.5" font-family="Helvetica,sans-Serif" font-size="10.00">+ virtual uint32_t GetColorAttachmentRendererID() const =0</text>
<text text-anchor="start" x="8" y="-200.5" font-family="Helvetica,sans-Serif" font-size="10.00">+ virtual const FrameBufferSpecification &amp; GetSpecification() const =0</text>
<text text-anchor="start" x="8" y="-189.5" font-family="Helvetica,sans-Serif" font-size="10.00">+ static Ref&lt; FrameBuffer &gt; Create(const FrameBufferSpecification &amp;spec)</text>
</a>
</g>
</g>
<!-- Node2&#45;&gt;Node1 -->
<g id="edge1" class="edge">
<title>Node2&#45;&gt;Node1</title>
<path fill="none" stroke="midnightblue" d="M303.74,-177.35C327.54,-163.36 352.68,-148.59 376.51,-134.59"/>
<polygon fill="none" stroke="midnightblue" points="301.89,-174.37 295.04,-182.46 305.44,-180.41 301.89,-174.37"/>
</g>
<!-- Node3 -->
<g id="node3" class="node">
<title>Node3</title>
<g id="a_node3"><a xlink:title=" ">
<polygon fill="white" stroke="#bfbfbf" points="865,-491.5 865,-548.5 1145,-548.5 1145,-491.5 865,-491.5"/>
<text text-anchor="middle" x="1005" y="-536.5" font-family="Helvetica,sans-Serif" font-size="10.00">std::vector&lt; gauri::FrameBufferTextureSpecification &gt;</text>
<polyline fill="none" stroke="#bfbfbf" points="865,-529.5 1145,-529.5 "/>
<text text-anchor="middle" x="1005" y="-517.5" font-family="Helvetica,sans-Serif" font-size="10.00"> </text>
<polyline fill="none" stroke="#bfbfbf" points="865,-510.5 1145,-510.5 "/>
<text text-anchor="middle" x="1005" y="-498.5" font-family="Helvetica,sans-Serif" font-size="10.00"> </text>
</a>
</g>
</g>
<!-- Node3&#45;&gt;Node1 -->
<g id="edge2" class="edge">
<title>Node3&#45;&gt;Node1</title>
<path fill="none" stroke="#404040" d="M1145.17,-498.22C1206.85,-485.93 1269.52,-468.02 1288,-444 1306.7,-419.7 1305.31,-400.31 1288,-375 1152.11,-176.3 868.17,-106.34 678.02,-81.76"/>
<polygon fill="none" stroke="#404040" points="677.83,-81.73 671.37,-84.95 665.92,-80.24 672.37,-77.02 677.83,-81.73"/>
<text text-anchor="middle" x="1358" y="-338" font-family="Helvetica,sans-Serif" font-size="10.00"> &#45;m_ColorAttachmentSpecifications</text>
</g>
<!-- Node11 -->
<g id="node11" class="node">
<title>Node11</title>
<g id="a_node11"><a xlink:href="structgauri_1_1FrameBufferAttachmentSpecification.html" target="_top" xlink:title=" ">
<polygon fill="white" stroke="black" points="731.5,-375.5 731.5,-443.5 1278.5,-443.5 1278.5,-375.5 731.5,-375.5"/>
<text text-anchor="middle" x="1005" y="-431.5" font-family="Helvetica,sans-Serif" font-size="10.00">gauri::FrameBufferAttachmentSpecification</text>
<polyline fill="none" stroke="black" points="731.5,-424.5 1278.5,-424.5 "/>
<text text-anchor="middle" x="1005" y="-412.5" font-family="Helvetica,sans-Serif" font-size="10.00"> </text>
<polyline fill="none" stroke="black" points="731.5,-405.5 1278.5,-405.5 "/>
<text text-anchor="start" x="739.5" y="-393.5" font-family="Helvetica,sans-Serif" font-size="10.00">+ FrameBufferAttachmentSpecification()=default</text>
<text text-anchor="start" x="739.5" y="-382.5" font-family="Helvetica,sans-Serif" font-size="10.00">+ FrameBufferAttachmentSpecification(std::initializer_list&lt; FrameBufferTextureSpecification &gt; attachments)</text>
</a>
</g>
</g>
<!-- Node3&#45;&gt;Node11 -->
<g id="edge13" class="edge">
<title>Node3&#45;&gt;Node11</title>
<path fill="none" stroke="#404040" d="M1005,-491.34C1005,-480.53 1005,-467.85 1005,-455.77"/>
<polygon fill="none" stroke="#404040" points="1005,-455.52 1001,-449.52 1005,-443.52 1009,-449.52 1005,-455.52"/>
<text text-anchor="middle" x="1042" y="-465" font-family="Helvetica,sans-Serif" font-size="10.00"> +Attachments</text>
</g>
<!-- Node4 -->
<g id="node4" class="node">
<title>Node4</title>
<g id="a_node4"><a xlink:href="structgauri_1_1FrameBufferTextureSpecification.html" target="_top" xlink:title=" ">
<polygon fill="white" stroke="black" points="405,-596.5 405,-664.5 765,-664.5 765,-596.5 405,-596.5"/>
<text text-anchor="middle" x="585" y="-652.5" font-family="Helvetica,sans-Serif" font-size="10.00">gauri::FrameBufferTextureSpecification</text>
<polyline fill="none" stroke="black" points="405,-645.5 765,-645.5 "/>
<text text-anchor="middle" x="585" y="-633.5" font-family="Helvetica,sans-Serif" font-size="10.00"> </text>
<polyline fill="none" stroke="black" points="405,-626.5 765,-626.5 "/>
<text text-anchor="start" x="413" y="-614.5" font-family="Helvetica,sans-Serif" font-size="10.00">+ FrameBufferTextureSpecification()=default</text>
<text text-anchor="start" x="413" y="-603.5" font-family="Helvetica,sans-Serif" font-size="10.00">+ FrameBufferTextureSpecification(FrameBufferTextureFormat format)</text>
</a>
</g>
</g>
<!-- Node4&#45;&gt;Node1 -->
<g id="edge8" class="edge">
<title>Node4&#45;&gt;Node1</title>
<path fill="none" stroke="#404040" d="M469.13,-596.48C437.61,-580.03 412,-555.92 412,-521 412,-521 412,-521 412,-243 412,-209.38 424.11,-174.98 438.73,-145.71"/>
<polygon fill="none" stroke="#404040" points="438.89,-145.4 438.11,-138.23 444.43,-134.75 445.21,-141.92 438.89,-145.4"/>
<text text-anchor="middle" x="497.5" y="-407" font-family="Helvetica,sans-Serif" font-size="10.00"> &#45;m_DepthAttachmentSpecification</text>
</g>
<!-- Node4&#45;&gt;Node3 -->
<g id="edge3" class="edge">
<title>Node4&#45;&gt;Node3</title>
<path fill="none" stroke="#404040" d="M713.01,-596.43C768.31,-582.14 832.61,-565.53 886.77,-551.54"/>
<polygon fill="none" stroke="#404040" points="886.9,-551.51 891.71,-546.14 898.52,-548.51 893.71,-553.88 886.9,-551.51"/>
<text text-anchor="middle" x="850" y="-570" font-family="Helvetica,sans-Serif" font-size="10.00"> +elements</text>
</g>
<!-- Node5 -->
<g id="node5" class="node">
<title>Node5</title>
<g id="a_node5"><a xlink:title=" ">
<polygon fill="white" stroke="#bfbfbf" points="511.5,-712.5 511.5,-769.5 658.5,-769.5 658.5,-712.5 511.5,-712.5"/>
<text text-anchor="middle" x="585" y="-757.5" font-family="Helvetica,sans-Serif" font-size="10.00">FrameBufferTextureFormat</text>
<polyline fill="none" stroke="#bfbfbf" points="511.5,-750.5 658.5,-750.5 "/>
<text text-anchor="middle" x="585" y="-738.5" font-family="Helvetica,sans-Serif" font-size="10.00"> </text>
<polyline fill="none" stroke="#bfbfbf" points="511.5,-731.5 658.5,-731.5 "/>
<text text-anchor="middle" x="585" y="-719.5" font-family="Helvetica,sans-Serif" font-size="10.00"> </text>
</a>
</g>
</g>
<!-- Node5&#45;&gt;Node4 -->
<g id="edge4" class="edge">
<title>Node5&#45;&gt;Node4</title>
<path fill="none" stroke="#404040" d="M585,-712.34C585,-701.53 585,-688.85 585,-676.77"/>
<polygon fill="none" stroke="#404040" points="585,-676.52 581,-670.52 585,-664.52 589,-670.52 585,-676.52"/>
<text text-anchor="middle" x="626" y="-686" font-family="Helvetica,sans-Serif" font-size="10.00"> +TextureFormat</text>
</g>
<!-- Node6 -->
<g id="node6" class="node">
<title>Node6</title>
<g id="a_node6"><a xlink:title=" ">
<polygon fill="white" stroke="#bfbfbf" points="956.5,-602 956.5,-659 1053.5,-659 1053.5,-602 956.5,-602"/>
<text text-anchor="middle" x="1005" y="-647" font-family="Helvetica,sans-Serif" font-size="10.00">std::vector&lt; T &gt;</text>
<polyline fill="none" stroke="#bfbfbf" points="956.5,-640 1053.5,-640 "/>
<text text-anchor="middle" x="1005" y="-628" font-family="Helvetica,sans-Serif" font-size="10.00"> </text>
<polyline fill="none" stroke="#bfbfbf" points="956.5,-621 1053.5,-621 "/>
<text text-anchor="middle" x="1005" y="-609" font-family="Helvetica,sans-Serif" font-size="10.00"> </text>
</a>
</g>
</g>
<!-- Node6&#45;&gt;Node3 -->
<g id="edge5" class="edge">
<title>Node6&#45;&gt;Node3</title>
<path fill="none" stroke="orange" d="M1005,-591.44C1005,-577.33 1005,-561.61 1005,-548.61"/>
<polygon fill="orange" stroke="orange" points="1001.5,-591.84 1005,-601.84 1008.5,-591.84 1001.5,-591.84"/>
<text text-anchor="middle" x="1112.5" y="-570" font-family="Helvetica,sans-Serif" font-size="10.00"> &lt; gauri::FrameBufferTextureSpecification &gt;</text>
</g>
<!-- Node7 -->
<g id="node7" class="node">
<title>Node7</title>
<g id="a_node7"><a xlink:title=" ">
<polygon fill="white" stroke="#bfbfbf" points="990.5,-712.5 990.5,-769.5 1019.5,-769.5 1019.5,-712.5 990.5,-712.5"/>
<text text-anchor="middle" x="1005" y="-757.5" font-family="Helvetica,sans-Serif" font-size="10.00">T</text>
<polyline fill="none" stroke="#bfbfbf" points="990.5,-750.5 1019.5,-750.5 "/>
<text text-anchor="middle" x="1005" y="-738.5" font-family="Helvetica,sans-Serif" font-size="10.00"> </text>
<polyline fill="none" stroke="#bfbfbf" points="990.5,-731.5 1019.5,-731.5 "/>
<text text-anchor="middle" x="1005" y="-719.5" font-family="Helvetica,sans-Serif" font-size="10.00"> </text>
</a>
</g>
</g>
<!-- Node7&#45;&gt;Node6 -->
<g id="edge6" class="edge">
<title>Node7&#45;&gt;Node6</title>
<path fill="none" stroke="#404040" d="M1005,-712.34C1005,-699.84 1005,-684.84 1005,-671.18"/>
<polygon fill="none" stroke="#404040" points="1005,-671.11 1001,-665.11 1005,-659.11 1009,-665.11 1005,-671.11"/>
<text text-anchor="middle" x="1034" y="-686" font-family="Helvetica,sans-Serif" font-size="10.00"> +elements</text>
</g>
<!-- Node8 -->
<g id="node8" class="node">
<title>Node8</title>
<g id="a_node8"><a xlink:title=" ">
<polygon fill="white" stroke="#bfbfbf" points="601,-381 601,-438 657,-438 657,-381 601,-381"/>
<text text-anchor="middle" x="629" y="-426" font-family="Helvetica,sans-Serif" font-size="10.00">uint32_t</text>
<polyline fill="none" stroke="#bfbfbf" points="601,-419 657,-419 "/>
<text text-anchor="middle" x="629" y="-407" font-family="Helvetica,sans-Serif" font-size="10.00"> </text>
<polyline fill="none" stroke="#bfbfbf" points="601,-400 657,-400 "/>
<text text-anchor="middle" x="629" y="-388" font-family="Helvetica,sans-Serif" font-size="10.00"> </text>
</a>
</g>
</g>
<!-- Node8&#45;&gt;Node1 -->
<g id="edge7" class="edge">
<title>Node8&#45;&gt;Node1</title>
<path fill="none" stroke="#404040" d="M600.58,-385.74C596.04,-382.14 591.4,-378.46 587,-375 547.66,-344.06 520.87,-350.52 498,-306 472.97,-257.28 471.48,-195.22 475.84,-146.76"/>
<polygon fill="none" stroke="#404040" points="475.85,-146.69 472.48,-140.32 477.07,-134.75 480.44,-141.13 475.85,-146.69"/>
<text text-anchor="middle" x="551" y="-252.5" font-family="Helvetica,sans-Serif" font-size="10.00"> &#45;m_ColorAttachment</text>
<text text-anchor="middle" x="551" y="-241.5" font-family="Helvetica,sans-Serif" font-size="10.00">&#45;m_DepthAttachment</text>
<text text-anchor="middle" x="551" y="-230.5" font-family="Helvetica,sans-Serif" font-size="10.00">&#45;m_RendererID</text>
</g>
<!-- Node9 -->
<g id="node9" class="node">
<title>Node9</title>
<g id="a_node9"><a xlink:href="namespacegauri.html#structgauri_1_1FrameBufferSpecification" target="_top" xlink:title=" ">
<polygon fill="white" stroke="black" points="613,-215.5 613,-272.5 783,-272.5 783,-215.5 613,-215.5"/>
<text text-anchor="middle" x="698" y="-260.5" font-family="Helvetica,sans-Serif" font-size="10.00">gauri::FrameBufferSpecification</text>
<polyline fill="none" stroke="black" points="613,-253.5 783,-253.5 "/>
<text text-anchor="middle" x="698" y="-241.5" font-family="Helvetica,sans-Serif" font-size="10.00"> </text>
<polyline fill="none" stroke="black" points="613,-234.5 783,-234.5 "/>
<text text-anchor="middle" x="698" y="-222.5" font-family="Helvetica,sans-Serif" font-size="10.00"> </text>
</a>
</g>
</g>
<!-- Node8&#45;&gt;Node9 -->
<g id="edge10" class="edge">
<title>Node8&#45;&gt;Node9</title>
<path fill="none" stroke="#404040" d="M629.57,-381C630.73,-364.04 633.69,-342.14 641,-324 646.94,-309.27 656.19,-294.72 665.52,-282.19"/>
<polygon fill="none" stroke="#404040" points="665.6,-282.09 666.12,-274.9 672.96,-272.62 672.44,-279.81 665.6,-282.09"/>
<text text-anchor="middle" x="666.5" y="-349" font-family="Helvetica,sans-Serif" font-size="10.00"> +Height</text>
<text text-anchor="middle" x="666.5" y="-338" font-family="Helvetica,sans-Serif" font-size="10.00">+Samples</text>
<text text-anchor="middle" x="666.5" y="-327" font-family="Helvetica,sans-Serif" font-size="10.00">+Width</text>
</g>
<!-- Node9&#45;&gt;Node1 -->
<g id="edge9" class="edge">
<title>Node9&#45;&gt;Node1</title>
<path fill="none" stroke="#404040" d="M664.88,-215.35C641.41,-195.75 608.74,-168.48 577.92,-142.74"/>
<polygon fill="none" stroke="#404040" points="577.64,-142.51 570.47,-141.73 568.42,-134.81 575.59,-135.59 577.64,-142.51"/>
<text text-anchor="middle" x="642.5" y="-156" font-family="Helvetica,sans-Serif" font-size="10.00"> &#45;m_Specification</text>
</g>
<!-- Node10 -->
<g id="node10" class="node">
<title>Node10</title>
<g id="a_node10"><a xlink:title=" ">
<polygon fill="white" stroke="#bfbfbf" points="675,-381 675,-438 713,-438 713,-381 675,-381"/>
<text text-anchor="middle" x="694" y="-426" font-family="Helvetica,sans-Serif" font-size="10.00">bool</text>
<polyline fill="none" stroke="#bfbfbf" points="675,-419 713,-419 "/>
<text text-anchor="middle" x="694" y="-407" font-family="Helvetica,sans-Serif" font-size="10.00"> </text>
<polyline fill="none" stroke="#bfbfbf" points="675,-400 713,-400 "/>
<text text-anchor="middle" x="694" y="-388" font-family="Helvetica,sans-Serif" font-size="10.00"> </text>
</a>
</g>
</g>
<!-- Node10&#45;&gt;Node9 -->
<g id="edge11" class="edge">
<title>Node10&#45;&gt;Node9</title>
<path fill="none" stroke="#404040" d="M694.68,-380.76C695.32,-354.38 696.3,-314.4 697.03,-284.65"/>
<polygon fill="none" stroke="#404040" points="697.03,-284.59 693.18,-278.5 697.32,-272.6 701.18,-278.69 697.03,-284.59"/>
<text text-anchor="middle" x="744" y="-338" font-family="Helvetica,sans-Serif" font-size="10.00"> +SwapChainTarget</text>
</g>
<!-- Node11&#45;&gt;Node9 -->
<g id="edge12" class="edge">
<title>Node11&#45;&gt;Node9</title>
<path fill="none" stroke="#404040" d="M942.87,-375.41C889.77,-347.13 813.71,-306.63 760.5,-278.28"/>
<polygon fill="none" stroke="#404040" points="760.43,-278.25 753.26,-278.96 749.84,-272.61 757.02,-271.9 760.43,-278.25"/>
<text text-anchor="middle" x="943" y="-338" font-family="Helvetica,sans-Serif" font-size="10.00"> +Attachments</text>
</g>
</g>
</svg>
        <g id="navigator" transform="translate(0 0)" fill="#404254">
                <rect fill="#f2f5e9" fill-opacity="0.5" stroke="#606060" stroke-width=".5" x="0" y="0" width="60" height="60"/>
                <use id="zoomplus" xlink:href="#zoomPlus" x="17" y="9" onmousedown="handleZoom(evt,'in')"/>
                <use id="zoomminus" xlink:href="#zoomMin" x="42" y="9" onmousedown="handleZoom(evt,'out')"/>
                <use id="reset" xlink:href="#resetDef" x="30" y="36" onmousedown="handleReset()"/>
                <g id="arrowUp" xlink:href="#dirArrow" transform="translate(30 24)" onmousedown="handlePan(0,-1)">
                  <use xlink:href="#rim" fill="#404040">
                        <set attributeName="fill" to="#808080" begin="arrowUp.mouseover" end="arrowUp.mouseout"/>
                  </use>
                  <path fill="none" stroke="white" stroke-width="1.5" d="M0,-3.0v7 M-2.5,-0.5L0,-3.0L2.5,-0.5"/>
                </g>
                <g id="arrowRight" xlink:href="#dirArrow" transform="rotate(90) translate(36 -43)" onmousedown="handlePan(1,0)">
                  <use xlink:href="#rim" fill="#404040">
                        <set attributeName="fill" to="#808080" begin="arrowRight.mouseover" end="arrowRight.mouseout"/>
                  </use>
                  <path fill="none" stroke="white" stroke-width="1.5" d="M0,-3.0v7 M-2.5,-0.5L0,-3.0L2.5,-0.5"/>
                </g>
                <g id="arrowDown" xlink:href="#dirArrow" transform="rotate(180) translate(-30 -48)" onmousedown="handlePan(0,1)">
                  <use xlink:href="#rim" fill="#404040">
                        <set attributeName="fill" to="#808080" begin="arrowDown.mouseover" end="arrowDown.mouseout"/>
                  </use>
                  <path fill="none" stroke="white" stroke-width="1.5" d="M0,-3.0v7 M-2.5,-0.5L0,-3.0L2.5,-0.5"/>
                </g>
                <g id="arrowLeft" xlink:href="#dirArrow" transform="rotate(270) translate(-36 17)" onmousedown="handlePan(-1,0)">
                  <use xlink:href="#rim" fill="#404040">
                        <set attributeName="fill" to="#808080" begin="arrowLeft.mouseover" end="arrowLeft.mouseout"/>
                  </use>
                  <path fill="none" stroke="white" stroke-width="1.5" d="M0,-3.0v7 M-2.5,-0.5L0,-3.0L2.5,-0.5"/>
                </g>
        </g>
        <svg viewBox="0 0 15 15" width="100%" height="30px" preserveAspectRatio="xMaxYMin meet">
         <g id="arrow_out" transform="scale(0.3 0.3)">
          <a xlink:href="classgauri_1_1OpenGLFrameBuffer__coll__graph_org.svg" target="_base">
           <rect id="button" ry="5" rx="5" y="6" x="6" height="38" width="38"
                fill="#f2f5e9" fill-opacity="0.5" stroke="#606060" stroke-width="1.0"/>
           <path id="arrow"
             d="M 11.500037,31.436501 C 11.940474,20.09759 22.043105,11.32322 32.158766,21.979434 L 37.068811,17.246167 C 37.068811,17.246167 37.088388,32 37.088388,32 L 22.160133,31.978069 C 22.160133,31.978069 26.997745,27.140456 26.997745,27.140456 C 18.528582,18.264221 13.291696,25.230495 11.500037,31.436501 z"
             style="fill:#404040;"/>
          </a>
         </g>
        </svg>
</svg>
