<?xml version="1.0" encoding="UTF-8" standalone="no"?>
<!DOCTYPE svg PUBLIC "-//W3C//DTD SVG 1.1//EN"
 "http://www.w3.org/Graphics/SVG/1.1/DTD/svg11.dtd">
<!-- Generated by graphviz version 2.43.0 (0)
 -->
<!-- Title: gauri::Instrumentor::Get Pages: 1 -->
<svg width="671pt" height="28pt"
 viewBox="0.00 0.00 671.00 28.00" xmlns="http://www.w3.org/2000/svg" xmlns:xlink="http://www.w3.org/1999/xlink">
<g id="graph0" class="graph" transform="scale(1 1) rotate(0) translate(4 24)">
<title>gauri::Instrumentor::Get</title>
<polygon fill="white" stroke="transparent" points="-4,4 -4,-24 667,-24 667,4 -4,4"/>
<!-- Node1 -->
<g id="node1" class="node">
<title>Node1</title>
<g id="a_node1"><a xlink:title=" ">
<polygon fill="#bfbfbf" stroke="black" points="529,-0.5 529,-19.5 663,-19.5 663,-0.5 529,-0.5"/>
<text text-anchor="middle" x="596" y="-7.5" font-family="Helvetica,sans-Serif" font-size="10.00">gauri::Instrumentor::Get</text>
</a>
</g>
</g>
<!-- Node2 -->
<g id="node2" class="node">
<title>Node2</title>
<g id="a_node2"><a xlink:href="classgauri_1_1InstrumentationTimer.html#a47cada30d224c5dcf449537e025bc24c" target="_top" xlink:title=" ">
<polygon fill="white" stroke="black" points="311,-0.5 311,-19.5 493,-19.5 493,-0.5 311,-0.5"/>
<text text-anchor="middle" x="402" y="-7.5" font-family="Helvetica,sans-Serif" font-size="10.00">gauri::InstrumentationTimer::Stop</text>
</a>
</g>
</g>
<!-- Node1&#45;&gt;Node2 -->
<g id="edge1" class="edge">
<title>Node1&#45;&gt;Node2</title>
<path fill="none" stroke="midnightblue" d="M518.81,-10C510.42,-10 501.82,-10 493.28,-10"/>
<polygon fill="midnightblue" stroke="midnightblue" points="518.92,-13.5 528.92,-10 518.92,-6.5 518.92,-13.5"/>
</g>
<!-- Node3 -->
<g id="node3" class="node">
<title>Node3</title>
<g id="a_node3"><a xlink:href="classgauri_1_1InstrumentationTimer.html#af32bd9f3a32499d5a35e078e776edd83" target="_top" xlink:title=" ">
<polygon fill="white" stroke="black" points="0,-0.5 0,-19.5 275,-19.5 275,-0.5 0,-0.5"/>
<text text-anchor="middle" x="137.5" y="-7.5" font-family="Helvetica,sans-Serif" font-size="10.00">gauri::InstrumentationTimer::~InstrumentationTimer</text>
</a>
</g>
</g>
<!-- Node2&#45;&gt;Node3 -->
<g id="edge2" class="edge">
<title>Node2&#45;&gt;Node3</title>
<path fill="none" stroke="midnightblue" d="M300.65,-10C292.37,-10 283.91,-10 275.42,-10"/>
<polygon fill="midnightblue" stroke="midnightblue" points="300.66,-13.5 310.66,-10 300.66,-6.5 300.66,-13.5"/>
</g>
</g>
</svg>
