<?xml version="1.0" encoding="UTF-8" standalone="no"?>
<!DOCTYPE svg PUBLIC "-//W3C//DTD SVG 1.1//EN"
 "http://www.w3.org/Graphics/SVG/1.1/DTD/svg11.dtd">
<!-- Generated by graphviz version 2.43.0 (0)
 -->
<!-- Title: gauri::SceneCamera Pages: 1 -->
<svg width="487pt" height="584pt"
 viewBox="0.00 0.00 487.00 584.00" xmlns="http://www.w3.org/2000/svg" xmlns:xlink="http://www.w3.org/1999/xlink">
<g id="graph0" class="graph" transform="scale(1 1) rotate(0) translate(4 580)">
<title>gauri::SceneCamera</title>
<polygon fill="white" stroke="transparent" points="-4,4 -4,-580 483,-580 483,4 -4,4"/>
<!-- Node1 -->
<g id="node1" class="node">
<title>Node1</title>
<g id="a_node1"><a xlink:title=" ">
<polygon fill="#bfbfbf" stroke="black" points="88.5,-0.5 88.5,-266.5 433.5,-266.5 433.5,-0.5 88.5,-0.5"/>
<text text-anchor="middle" x="261" y="-254.5" font-family="Helvetica,sans-Serif" font-size="10.00">gauri::SceneCamera</text>
<polyline fill="none" stroke="black" points="88.5,-247.5 433.5,-247.5 "/>
<text text-anchor="middle" x="261" y="-235.5" font-family="Helvetica,sans-Serif" font-size="10.00"> </text>
<polyline fill="none" stroke="black" points="88.5,-228.5 433.5,-228.5 "/>
<text text-anchor="start" x="96.5" y="-216.5" font-family="Helvetica,sans-Serif" font-size="10.00">+ SceneCamera()</text>
<text text-anchor="start" x="96.5" y="-205.5" font-family="Helvetica,sans-Serif" font-size="10.00">+ ~SceneCamera() override=default</text>
<text text-anchor="start" x="96.5" y="-194.5" font-family="Helvetica,sans-Serif" font-size="10.00">+ void SetOrthographic(float size, float nearClip, float farClip)</text>
<text text-anchor="start" x="96.5" y="-183.5" font-family="Helvetica,sans-Serif" font-size="10.00">+ void SetPerspective(float verticalFov, float nearClip, float farClip)</text>
<text text-anchor="start" x="96.5" y="-172.5" font-family="Helvetica,sans-Serif" font-size="10.00">+ void SetViewportSize(uint32_t width, uint32_t height)</text>
<text text-anchor="start" x="96.5" y="-161.5" font-family="Helvetica,sans-Serif" font-size="10.00">+ ProjectionType GetProjectionType() const</text>
<text text-anchor="start" x="96.5" y="-150.5" font-family="Helvetica,sans-Serif" font-size="10.00">+ void SetProjectionType(ProjectionType type)</text>
<text text-anchor="start" x="96.5" y="-139.5" font-family="Helvetica,sans-Serif" font-size="10.00">+ float GetOrthographicSize() const</text>
<text text-anchor="start" x="96.5" y="-128.5" font-family="Helvetica,sans-Serif" font-size="10.00">+ void SetOrthographicSize(float size)</text>
<text text-anchor="start" x="96.5" y="-117.5" font-family="Helvetica,sans-Serif" font-size="10.00">+ float GetOrthographicNearClip() const</text>
<text text-anchor="start" x="96.5" y="-106.5" font-family="Helvetica,sans-Serif" font-size="10.00">+ float GetOrthographicFarClip() const</text>
<text text-anchor="start" x="96.5" y="-95.5" font-family="Helvetica,sans-Serif" font-size="10.00">+ void SetOrthographicNearClip(float nearClip)</text>
<text text-anchor="start" x="96.5" y="-84.5" font-family="Helvetica,sans-Serif" font-size="10.00">+ void SetOrthographicFarClip(float farClip)</text>
<text text-anchor="start" x="96.5" y="-73.5" font-family="Helvetica,sans-Serif" font-size="10.00">+ float GetPerspectiveVerticalFov() const</text>
<text text-anchor="start" x="96.5" y="-62.5" font-family="Helvetica,sans-Serif" font-size="10.00">+ void SetPerspectiveVerticalFov(float verticalFov)</text>
<text text-anchor="start" x="96.5" y="-51.5" font-family="Helvetica,sans-Serif" font-size="10.00">+ float GetPerspectiveNearClip() const</text>
<text text-anchor="start" x="96.5" y="-40.5" font-family="Helvetica,sans-Serif" font-size="10.00">+ float GetPerspectiveFarClip() const</text>
<text text-anchor="start" x="96.5" y="-29.5" font-family="Helvetica,sans-Serif" font-size="10.00">+ void SetPerspectiveNearClip(float nearClip)</text>
<text text-anchor="start" x="96.5" y="-18.5" font-family="Helvetica,sans-Serif" font-size="10.00">+ void SetPerspectiveFarClip(float farClip)</text>
<text text-anchor="start" x="96.5" y="-7.5" font-family="Helvetica,sans-Serif" font-size="10.00">&#45; void RecalculateProjection()</text>
</a>
</g>
</g>
<!-- Node2 -->
<g id="node2" class="node">
<title>Node2</title>
<g id="a_node2"><a xlink:href="classgauri_1_1Camera.html" target="_top" xlink:title=" ">
<polygon fill="white" stroke="black" points="0,-380.5 0,-470.5 224,-470.5 224,-380.5 0,-380.5"/>
<text text-anchor="middle" x="112" y="-458.5" font-family="Helvetica,sans-Serif" font-size="10.00">gauri::Camera</text>
<polyline fill="none" stroke="black" points="0,-451.5 224,-451.5 "/>
<text text-anchor="middle" x="112" y="-439.5" font-family="Helvetica,sans-Serif" font-size="10.00"> </text>
<polyline fill="none" stroke="black" points="0,-432.5 224,-432.5 "/>
<text text-anchor="start" x="8" y="-420.5" font-family="Helvetica,sans-Serif" font-size="10.00">+ Camera()=default</text>
<text text-anchor="start" x="8" y="-409.5" font-family="Helvetica,sans-Serif" font-size="10.00">+ Camera(const glm::mat4 &amp;projection)</text>
<text text-anchor="start" x="8" y="-398.5" font-family="Helvetica,sans-Serif" font-size="10.00">+ virtual ~Camera()=default</text>
<text text-anchor="start" x="8" y="-387.5" font-family="Helvetica,sans-Serif" font-size="10.00">+ const glm::mat4 &amp; GetProjection() const</text>
</a>
</g>
</g>
<!-- Node2&#45;&gt;Node1 -->
<g id="edge1" class="edge">
<title>Node2&#45;&gt;Node1</title>
<path fill="none" stroke="midnightblue" d="M139.39,-371.19C154.54,-341.7 174.11,-303.62 193.1,-266.66"/>
<polygon fill="none" stroke="midnightblue" points="136.09,-369.96 134.63,-380.46 142.31,-373.16 136.09,-369.96"/>
</g>
<!-- Node3 -->
<g id="node3" class="node">
<title>Node3</title>
<g id="a_node3"><a xlink:title=" ">
<polygon fill="white" stroke="#bfbfbf" points="91,-518.5 91,-575.5 133,-575.5 133,-518.5 91,-518.5"/>
<text text-anchor="middle" x="112" y="-563.5" font-family="Helvetica,sans-Serif" font-size="10.00">mat4</text>
<polyline fill="none" stroke="#bfbfbf" points="91,-556.5 133,-556.5 "/>
<text text-anchor="middle" x="112" y="-544.5" font-family="Helvetica,sans-Serif" font-size="10.00"> </text>
<polyline fill="none" stroke="#bfbfbf" points="91,-537.5 133,-537.5 "/>
<text text-anchor="middle" x="112" y="-525.5" font-family="Helvetica,sans-Serif" font-size="10.00"> </text>
</a>
</g>
</g>
<!-- Node3&#45;&gt;Node2 -->
<g id="edge2" class="edge">
<title>Node3&#45;&gt;Node2</title>
<path fill="none" stroke="#404040" d="M112,-518.28C112,-507.73 112,-495.29 112,-483.03"/>
<polygon fill="none" stroke="#404040" points="112,-482.91 108,-476.91 112,-470.91 116,-476.91 112,-482.91"/>
<text text-anchor="middle" x="150" y="-492" font-family="Helvetica,sans-Serif" font-size="10.00"> #m_Projection</text>
</g>
<!-- Node4 -->
<g id="node4" class="node">
<title>Node4</title>
<g id="a_node4"><a xlink:title=" ">
<polygon fill="white" stroke="#bfbfbf" points="242,-397 242,-454 280,-454 280,-397 242,-397"/>
<text text-anchor="middle" x="261" y="-442" font-family="Helvetica,sans-Serif" font-size="10.00">float</text>
<polyline fill="none" stroke="#bfbfbf" points="242,-435 280,-435 "/>
<text text-anchor="middle" x="261" y="-423" font-family="Helvetica,sans-Serif" font-size="10.00"> </text>
<polyline fill="none" stroke="#bfbfbf" points="242,-416 280,-416 "/>
<text text-anchor="middle" x="261" y="-404" font-family="Helvetica,sans-Serif" font-size="10.00"> </text>
</a>
</g>
</g>
<!-- Node4&#45;&gt;Node1 -->
<g id="edge3" class="edge">
<title>Node4&#45;&gt;Node1</title>
<path fill="none" stroke="#404040" d="M261,-396.96C261,-369.12 261,-323.87 261,-278.73"/>
<polygon fill="none" stroke="#404040" points="261,-278.64 257,-272.64 261,-266.64 265,-272.64 261,-278.64"/>
<text text-anchor="middle" x="314" y="-354" font-family="Helvetica,sans-Serif" font-size="10.00"> &#45;m_AspectRatio</text>
<text text-anchor="middle" x="314" y="-343" font-family="Helvetica,sans-Serif" font-size="10.00">&#45;m_OrthographicFar</text>
<text text-anchor="middle" x="314" y="-332" font-family="Helvetica,sans-Serif" font-size="10.00">&#45;m_OrthographicNear</text>
<text text-anchor="middle" x="314" y="-321" font-family="Helvetica,sans-Serif" font-size="10.00">&#45;m_OrthographicSize</text>
<text text-anchor="middle" x="314" y="-310" font-family="Helvetica,sans-Serif" font-size="10.00">&#45;m_PerspectiveFar</text>
<text text-anchor="middle" x="314" y="-299" font-family="Helvetica,sans-Serif" font-size="10.00">&#45;m_PerspectiveFov</text>
<text text-anchor="middle" x="314" y="-288" font-family="Helvetica,sans-Serif" font-size="10.00">&#45;m_PerspectiveNear</text>
</g>
<!-- Node5 -->
<g id="node5" class="node">
<title>Node5</title>
<g id="a_node5"><a xlink:title=" ">
<polygon fill="white" stroke="#bfbfbf" points="346,-397 346,-454 434,-454 434,-397 346,-397"/>
<text text-anchor="middle" x="390" y="-442" font-family="Helvetica,sans-Serif" font-size="10.00">ProjectionType</text>
<polyline fill="none" stroke="#bfbfbf" points="346,-435 434,-435 "/>
<text text-anchor="middle" x="390" y="-423" font-family="Helvetica,sans-Serif" font-size="10.00"> </text>
<polyline fill="none" stroke="#bfbfbf" points="346,-416 434,-416 "/>
<text text-anchor="middle" x="390" y="-404" font-family="Helvetica,sans-Serif" font-size="10.00"> </text>
</a>
</g>
</g>
<!-- Node5&#45;&gt;Node1 -->
<g id="edge4" class="edge">
<title>Node5&#45;&gt;Node1</title>
<path fill="none" stroke="#404040" d="M389.35,-396.76C387.82,-367.87 383,-321.78 368,-285 367.03,-282.62 366.02,-280.25 364.96,-277.88"/>
<polygon fill="none" stroke="#404040" points="364.86,-277.67 358.69,-273.94 359.75,-266.81 365.93,-270.53 364.86,-277.67"/>
<text text-anchor="middle" x="432" y="-321" font-family="Helvetica,sans-Serif" font-size="10.00"> &#45;m_ProjectionType</text>
</g>
</g>
</svg>
