<?xml version="1.0" encoding="UTF-8" standalone="no"?>
<!DOCTYPE svg PUBLIC "-//W3C//DTD SVG 1.1//EN"
 "http://www.w3.org/Graphics/SVG/1.1/DTD/svg11.dtd">
<!-- Generated by graphviz version 2.43.0 (0)
 -->
<!-- Title: gauri::OpenGLRendererAPI Pages: 1 -->
<svg width="487pt" height="365pt"
 viewBox="0.00 0.00 487.00 365.00" xmlns="http://www.w3.org/2000/svg" xmlns:xlink="http://www.w3.org/1999/xlink">
<g id="graph0" class="graph" transform="scale(1 1) rotate(0) translate(4 361)">
<title>gauri::OpenGLRendererAPI</title>
<polygon fill="white" stroke="transparent" points="-4,4 -4,-361 483,-361 483,4 -4,4"/>
<!-- Node1 -->
<g id="node1" class="node">
<title>Node1</title>
<g id="a_node1"><a xlink:title=" ">
<polygon fill="#bfbfbf" stroke="black" points="0,-0.5 0,-101.5 479,-101.5 479,-0.5 0,-0.5"/>
<text text-anchor="middle" x="239.5" y="-89.5" font-family="Helvetica,sans-Serif" font-size="10.00">gauri::OpenGLRendererAPI</text>
<polyline fill="none" stroke="black" points="0,-82.5 479,-82.5 "/>
<text text-anchor="middle" x="239.5" y="-70.5" font-family="Helvetica,sans-Serif" font-size="10.00"> </text>
<polyline fill="none" stroke="black" points="0,-63.5 479,-63.5 "/>
<text text-anchor="start" x="8" y="-51.5" font-family="Helvetica,sans-Serif" font-size="10.00">+ void Init() override</text>
<text text-anchor="start" x="8" y="-40.5" font-family="Helvetica,sans-Serif" font-size="10.00">+ void SetViewport(uint32_t x, uint32_t y, uint32_t width, uint32_t height) override</text>
<text text-anchor="start" x="8" y="-29.5" font-family="Helvetica,sans-Serif" font-size="10.00">+ void SetClearColor(const glm::vec4 &amp;color) override</text>
<text text-anchor="start" x="8" y="-18.5" font-family="Helvetica,sans-Serif" font-size="10.00">+ void Clear() override</text>
<text text-anchor="start" x="8" y="-7.5" font-family="Helvetica,sans-Serif" font-size="10.00">+ void DrawIndexed(const Ref&lt; VertexArray &gt; &amp;vertexArray, uint32_t indexCount=0) override</text>
</a>
</g>
</g>
<!-- Node2 -->
<g id="node2" class="node">
<title>Node2</title>
<g id="a_node2"><a xlink:href="classgauri_1_1RendererAPI.html" target="_top" xlink:title=" ">
<polygon fill="white" stroke="black" points="4.5,-139.5 4.5,-251.5 474.5,-251.5 474.5,-139.5 4.5,-139.5"/>
<text text-anchor="middle" x="239.5" y="-239.5" font-family="Helvetica,sans-Serif" font-size="10.00">gauri::RendererAPI</text>
<polyline fill="none" stroke="black" points="4.5,-232.5 474.5,-232.5 "/>
<text text-anchor="middle" x="239.5" y="-220.5" font-family="Helvetica,sans-Serif" font-size="10.00"> </text>
<polyline fill="none" stroke="black" points="4.5,-213.5 474.5,-213.5 "/>
<text text-anchor="start" x="12.5" y="-201.5" font-family="Helvetica,sans-Serif" font-size="10.00">+ virtual void Init()=0</text>
<text text-anchor="start" x="12.5" y="-190.5" font-family="Helvetica,sans-Serif" font-size="10.00">+ virtual void SetClearColor(const glm::vec4 &amp;color)=0</text>
<text text-anchor="start" x="12.5" y="-179.5" font-family="Helvetica,sans-Serif" font-size="10.00">+ virtual void SetViewport(uint32_t x, uint32_t y, uint32_t width, uint32_t height)=0</text>
<text text-anchor="start" x="12.5" y="-168.5" font-family="Helvetica,sans-Serif" font-size="10.00">+ virtual void Clear()=0</text>
<text text-anchor="start" x="12.5" y="-157.5" font-family="Helvetica,sans-Serif" font-size="10.00">+ virtual void DrawIndexed(const Ref&lt; VertexArray &gt; &amp;vertexArray, uint32_t indexCount)=0</text>
<text text-anchor="start" x="12.5" y="-146.5" font-family="Helvetica,sans-Serif" font-size="10.00">+ static API GetAPI()</text>
</a>
</g>
</g>
<!-- Node2&#45;&gt;Node1 -->
<g id="edge1" class="edge">
<title>Node2&#45;&gt;Node1</title>
<path fill="none" stroke="midnightblue" d="M239.5,-129.13C239.5,-119.96 239.5,-110.65 239.5,-101.83"/>
<polygon fill="none" stroke="midnightblue" points="236,-129.41 239.5,-139.41 243,-129.41 236,-129.41"/>
</g>
<!-- Node3 -->
<g id="node3" class="node">
<title>Node3</title>
<g id="a_node3"><a xlink:title=" ">
<polygon fill="white" stroke="#bfbfbf" points="208.5,-299.5 208.5,-356.5 270.5,-356.5 270.5,-299.5 208.5,-299.5"/>
<text text-anchor="middle" x="239.5" y="-344.5" font-family="Helvetica,sans-Serif" font-size="10.00">static API</text>
<polyline fill="none" stroke="#bfbfbf" points="208.5,-337.5 270.5,-337.5 "/>
<text text-anchor="middle" x="239.5" y="-325.5" font-family="Helvetica,sans-Serif" font-size="10.00"> </text>
<polyline fill="none" stroke="#bfbfbf" points="208.5,-318.5 270.5,-318.5 "/>
<text text-anchor="middle" x="239.5" y="-306.5" font-family="Helvetica,sans-Serif" font-size="10.00"> </text>
</a>
</g>
</g>
<!-- Node3&#45;&gt;Node2 -->
<g id="edge2" class="edge">
<title>Node3&#45;&gt;Node2</title>
<path fill="none" stroke="#404040" d="M239.5,-299.32C239.5,-288.78 239.5,-276.25 239.5,-263.62"/>
<polygon fill="none" stroke="#404040" points="239.5,-263.55 235.5,-257.55 239.5,-251.55 243.5,-257.55 239.5,-263.55"/>
<text text-anchor="middle" x="256.5" y="-273" font-family="Helvetica,sans-Serif" font-size="10.00"> &#45;s_API</text>
</g>
</g>
</svg>
