<?xml version="1.0" encoding="UTF-8" standalone="no"?>
<!DOCTYPE svg PUBLIC "-//W3C//DTD SVG 1.1//EN"
 "http://www.w3.org/Graphics/SVG/1.1/DTD/svg11.dtd">
<!-- Generated by graphviz version 2.43.0 (0)
 -->
<!-- Title: gauri::KeyTypedEvent Pages: 1 -->
<svg width="318pt" height="459pt"
 viewBox="0.00 0.00 317.50 459.00" xmlns="http://www.w3.org/2000/svg" xmlns:xlink="http://www.w3.org/1999/xlink">
<g id="graph0" class="graph" transform="scale(1 1) rotate(0) translate(4 455)">
<title>gauri::KeyTypedEvent</title>
<polygon fill="white" stroke="transparent" points="-4,4 -4,-455 313.5,-455 313.5,4 -4,4"/>
<!-- Node1 -->
<g id="node1" class="node">
<title>Node1</title>
<g id="a_node1"><a xlink:title=" ">
<polygon fill="#bfbfbf" stroke="black" points="103,-0.5 103,-79.5 302,-79.5 302,-0.5 103,-0.5"/>
<text text-anchor="middle" x="202.5" y="-67.5" font-family="Helvetica,sans-Serif" font-size="10.00">gauri::KeyTypedEvent</text>
<polyline fill="none" stroke="black" points="103,-60.5 302,-60.5 "/>
<text text-anchor="middle" x="202.5" y="-48.5" font-family="Helvetica,sans-Serif" font-size="10.00"> </text>
<polyline fill="none" stroke="black" points="103,-41.5 302,-41.5 "/>
<text text-anchor="start" x="111" y="-29.5" font-family="Helvetica,sans-Serif" font-size="10.00">+ KeyTypedEvent(int32_t keycode)</text>
<text text-anchor="start" x="111" y="-18.5" font-family="Helvetica,sans-Serif" font-size="10.00">+ std::string ToString() const override</text>
<text text-anchor="start" x="111" y="-7.5" font-family="Helvetica,sans-Serif" font-size="10.00">+ EVENT_CLASS_TYPE(KeyTyped)</text>
</a>
</g>
</g>
<!-- Node2 -->
<g id="node2" class="node">
<title>Node2</title>
<g id="a_node2"><a xlink:href="classgauri_1_1KeyEvent.html" target="_top" xlink:title=" ">
<polygon fill="white" stroke="black" points="122,-117.5 122,-185.5 283,-185.5 283,-117.5 122,-117.5"/>
<text text-anchor="middle" x="202.5" y="-173.5" font-family="Helvetica,sans-Serif" font-size="10.00">gauri::KeyEvent</text>
<polyline fill="none" stroke="black" points="122,-166.5 283,-166.5 "/>
<text text-anchor="middle" x="202.5" y="-154.5" font-family="Helvetica,sans-Serif" font-size="10.00"> </text>
<polyline fill="none" stroke="black" points="122,-147.5 283,-147.5 "/>
<text text-anchor="start" x="130" y="-135.5" font-family="Helvetica,sans-Serif" font-size="10.00">+ int32_t GetKeyCode() const</text>
<text text-anchor="start" x="130" y="-124.5" font-family="Helvetica,sans-Serif" font-size="10.00"># KeyEvent(int32_t keycode)</text>
</a>
</g>
</g>
<!-- Node2&#45;&gt;Node1 -->
<g id="edge1" class="edge">
<title>Node2&#45;&gt;Node1</title>
<path fill="none" stroke="midnightblue" d="M202.5,-107.34C202.5,-98.25 202.5,-88.72 202.5,-79.81"/>
<polygon fill="none" stroke="midnightblue" points="199,-107.35 202.5,-117.35 206,-107.35 199,-107.35"/>
</g>
<!-- Node3 -->
<g id="node3" class="node">
<title>Node3</title>
<g id="a_node3"><a xlink:href="classgauri_1_1Event.html" target="_top" xlink:title=" ">
<polygon fill="white" stroke="black" points="0,-233.5 0,-345.5 241,-345.5 241,-233.5 0,-233.5"/>
<text text-anchor="middle" x="120.5" y="-333.5" font-family="Helvetica,sans-Serif" font-size="10.00">gauri::Event</text>
<polyline fill="none" stroke="black" points="0,-326.5 241,-326.5 "/>
<text text-anchor="middle" x="120.5" y="-314.5" font-family="Helvetica,sans-Serif" font-size="10.00"> </text>
<polyline fill="none" stroke="black" points="0,-307.5 241,-307.5 "/>
<text text-anchor="start" x="8" y="-295.5" font-family="Helvetica,sans-Serif" font-size="10.00">+ virtual EventType GetEventType() const =0</text>
<text text-anchor="start" x="8" y="-284.5" font-family="Helvetica,sans-Serif" font-size="10.00">+ virtual const char * GetName() const =0</text>
<text text-anchor="start" x="8" y="-273.5" font-family="Helvetica,sans-Serif" font-size="10.00">+ virtual int32_t GetCategoryFlags() const =0</text>
<text text-anchor="start" x="8" y="-262.5" font-family="Helvetica,sans-Serif" font-size="10.00">+ virtual std::string ToString() const</text>
<text text-anchor="start" x="8" y="-251.5" font-family="Helvetica,sans-Serif" font-size="10.00">+ bool IsInCategory(EventCategory category)</text>
<text text-anchor="start" x="8" y="-240.5" font-family="Helvetica,sans-Serif" font-size="10.00">+ bool IsHandled() const</text>
</a>
</g>
</g>
<!-- Node3&#45;&gt;Node2 -->
<g id="edge2" class="edge">
<title>Node3&#45;&gt;Node2</title>
<path fill="none" stroke="midnightblue" d="M159.16,-224.39C167.27,-210.93 175.51,-197.26 182.6,-185.51"/>
<polygon fill="none" stroke="midnightblue" points="156.02,-222.81 153.85,-233.18 162.01,-226.43 156.02,-222.81"/>
</g>
<!-- Node4 -->
<g id="node4" class="node">
<title>Node4</title>
<g id="a_node4"><a xlink:title=" ">
<polygon fill="white" stroke="#bfbfbf" points="101.5,-393.5 101.5,-450.5 139.5,-450.5 139.5,-393.5 101.5,-393.5"/>
<text text-anchor="middle" x="120.5" y="-438.5" font-family="Helvetica,sans-Serif" font-size="10.00">bool</text>
<polyline fill="none" stroke="#bfbfbf" points="101.5,-431.5 139.5,-431.5 "/>
<text text-anchor="middle" x="120.5" y="-419.5" font-family="Helvetica,sans-Serif" font-size="10.00"> </text>
<polyline fill="none" stroke="#bfbfbf" points="101.5,-412.5 139.5,-412.5 "/>
<text text-anchor="middle" x="120.5" y="-400.5" font-family="Helvetica,sans-Serif" font-size="10.00"> </text>
</a>
</g>
</g>
<!-- Node4&#45;&gt;Node3 -->
<g id="edge3" class="edge">
<title>Node4&#45;&gt;Node3</title>
<path fill="none" stroke="#404040" d="M120.5,-393.32C120.5,-382.78 120.5,-370.25 120.5,-357.62"/>
<polygon fill="none" stroke="#404040" points="120.5,-357.55 116.5,-351.55 120.5,-345.55 124.5,-351.55 120.5,-357.55"/>
<text text-anchor="middle" x="154" y="-367" font-family="Helvetica,sans-Serif" font-size="10.00"> #m_Handled</text>
</g>
<!-- Node5 -->
<g id="node5" class="node">
<title>Node5</title>
<g id="a_node5"><a xlink:title=" ">
<polygon fill="white" stroke="#bfbfbf" points="259.5,-261 259.5,-318 309.5,-318 309.5,-261 259.5,-261"/>
<text text-anchor="middle" x="284.5" y="-306" font-family="Helvetica,sans-Serif" font-size="10.00">int32_t</text>
<polyline fill="none" stroke="#bfbfbf" points="259.5,-299 309.5,-299 "/>
<text text-anchor="middle" x="284.5" y="-287" font-family="Helvetica,sans-Serif" font-size="10.00"> </text>
<polyline fill="none" stroke="#bfbfbf" points="259.5,-280 309.5,-280 "/>
<text text-anchor="middle" x="284.5" y="-268" font-family="Helvetica,sans-Serif" font-size="10.00"> </text>
</a>
</g>
</g>
<!-- Node5&#45;&gt;Node2 -->
<g id="edge4" class="edge">
<title>Node5&#45;&gt;Node2</title>
<path fill="none" stroke="#404040" d="M267.91,-260.98C256.7,-242.39 241.66,-217.45 228.83,-196.17"/>
<polygon fill="none" stroke="#404040" points="228.74,-196.02 222.22,-192.95 222.55,-185.75 229.07,-188.82 228.74,-196.02"/>
<text text-anchor="middle" x="274.5" y="-207" font-family="Helvetica,sans-Serif" font-size="10.00"> #m_KeyCode</text>
</g>
</g>
</svg>
