<?xml version="1.0" encoding="UTF-8" standalone="no"?>
<!DOCTYPE svg PUBLIC "-//W3C//DTD SVG 1.1//EN"
 "http://www.w3.org/Graphics/SVG/1.1/DTD/svg11.dtd">
<!-- Generated by graphviz version 2.43.0 (0)
 -->
<!-- Title: gauri::OpenGLTexture2D Pages: 1 -->
<svg width="346pt" height="430pt"
 viewBox="0.00 0.00 346.00 430.00" xmlns="http://www.w3.org/2000/svg" xmlns:xlink="http://www.w3.org/1999/xlink">
<g id="graph0" class="graph" transform="scale(1 1) rotate(0) translate(4 426)">
<title>gauri::OpenGLTexture2D</title>
<polygon fill="white" stroke="transparent" points="-4,4 -4,-426 342,-426 342,4 -4,4"/>
<!-- Node1 -->
<g id="node1" class="node">
<title>Node1</title>
<g id="a_node1"><a xlink:title=" ">
<polygon fill="#bfbfbf" stroke="black" points="33,-0.5 33,-178.5 305,-178.5 305,-0.5 33,-0.5"/>
<text text-anchor="middle" x="169" y="-166.5" font-family="Helvetica,sans-Serif" font-size="10.00">gauri::OpenGLTexture2D</text>
<polyline fill="none" stroke="black" points="33,-159.5 305,-159.5 "/>
<text text-anchor="start" x="41" y="-147.5" font-family="Helvetica,sans-Serif" font-size="10.00">&#45; std::string m_Path</text>
<text text-anchor="start" x="41" y="-136.5" font-family="Helvetica,sans-Serif" font-size="10.00">&#45; uint32_t m_RendererID</text>
<text text-anchor="start" x="41" y="-125.5" font-family="Helvetica,sans-Serif" font-size="10.00">&#45; uint32_t m_Width</text>
<text text-anchor="start" x="41" y="-114.5" font-family="Helvetica,sans-Serif" font-size="10.00">&#45; uint32_t m_Height</text>
<text text-anchor="start" x="41" y="-103.5" font-family="Helvetica,sans-Serif" font-size="10.00">&#45; GLenum m_InternalFormat</text>
<text text-anchor="start" x="41" y="-92.5" font-family="Helvetica,sans-Serif" font-size="10.00">&#45; GLenum m_DataFormat</text>
<polyline fill="none" stroke="black" points="33,-85.5 305,-85.5 "/>
<text text-anchor="start" x="41" y="-73.5" font-family="Helvetica,sans-Serif" font-size="10.00">+ OpenGLTexture2D(uint32_t width, uint32_t height)</text>
<text text-anchor="start" x="41" y="-62.5" font-family="Helvetica,sans-Serif" font-size="10.00">+ OpenGLTexture2D(const std::string &amp;path)</text>
<text text-anchor="start" x="41" y="-51.5" font-family="Helvetica,sans-Serif" font-size="10.00">+ ~OpenGLTexture2D() override</text>
<text text-anchor="start" x="41" y="-40.5" font-family="Helvetica,sans-Serif" font-size="10.00">+ uint32_t GetWidth() const override</text>
<text text-anchor="start" x="41" y="-29.5" font-family="Helvetica,sans-Serif" font-size="10.00">+ uint32_t GetHeight() const override</text>
<text text-anchor="start" x="41" y="-18.5" font-family="Helvetica,sans-Serif" font-size="10.00">+ void SetData(void *data, uint32_t size) override</text>
<text text-anchor="start" x="41" y="-7.5" font-family="Helvetica,sans-Serif" font-size="10.00">+ void Bind(uint32_t slot=0) const override</text>
</a>
</g>
</g>
<!-- Node2 -->
<g id="node2" class="node">
<title>Node2</title>
<g id="a_node2"><a xlink:href="classgauri_1_1Texture2D.html" target="_top" xlink:title=" ">
<polygon fill="white" stroke="black" points="0,-215.5 0,-283.5 338,-283.5 338,-215.5 0,-215.5"/>
<text text-anchor="middle" x="169" y="-271.5" font-family="Helvetica,sans-Serif" font-size="10.00">gauri::Texture2D</text>
<polyline fill="none" stroke="black" points="0,-264.5 338,-264.5 "/>
<text text-anchor="middle" x="169" y="-252.5" font-family="Helvetica,sans-Serif" font-size="10.00"> </text>
<polyline fill="none" stroke="black" points="0,-245.5 338,-245.5 "/>
<text text-anchor="start" x="8" y="-233.5" font-family="Helvetica,sans-Serif" font-size="10.00">+ static Ref&lt; Texture2D &gt; Create(uint32_t width, uint32_t height)</text>
<text text-anchor="start" x="8" y="-222.5" font-family="Helvetica,sans-Serif" font-size="10.00">+ static Ref&lt; Texture2D &gt; Create(const std::string &amp;path)</text>
</a>
</g>
</g>
<!-- Node2&#45;&gt;Node1 -->
<g id="edge1" class="edge">
<title>Node2&#45;&gt;Node1</title>
<path fill="none" stroke="midnightblue" d="M169,-205.19C169,-196.83 169,-187.8 169,-178.59"/>
<polygon fill="none" stroke="midnightblue" points="165.5,-205.38 169,-215.38 172.5,-205.38 165.5,-205.38"/>
</g>
<!-- Node3 -->
<g id="node3" class="node">
<title>Node3</title>
<g id="a_node3"><a xlink:href="classgauri_1_1Texture.html" target="_top" xlink:title=" ">
<polygon fill="white" stroke="black" points="36,-320.5 36,-421.5 302,-421.5 302,-320.5 36,-320.5"/>
<text text-anchor="middle" x="169" y="-409.5" font-family="Helvetica,sans-Serif" font-size="10.00">gauri::Texture</text>
<polyline fill="none" stroke="black" points="36,-402.5 302,-402.5 "/>
<text text-anchor="middle" x="169" y="-390.5" font-family="Helvetica,sans-Serif" font-size="10.00"> </text>
<polyline fill="none" stroke="black" points="36,-383.5 302,-383.5 "/>
<text text-anchor="start" x="44" y="-371.5" font-family="Helvetica,sans-Serif" font-size="10.00">+ virtual ~Texture()=default</text>
<text text-anchor="start" x="44" y="-360.5" font-family="Helvetica,sans-Serif" font-size="10.00">+ virtual uint32_t GetWidth() const =0</text>
<text text-anchor="start" x="44" y="-349.5" font-family="Helvetica,sans-Serif" font-size="10.00">+ virtual uint32_t GetHeight() const =0</text>
<text text-anchor="start" x="44" y="-338.5" font-family="Helvetica,sans-Serif" font-size="10.00">+ virtual void SetData(void *data, uint32_t size)=0</text>
<text text-anchor="start" x="44" y="-327.5" font-family="Helvetica,sans-Serif" font-size="10.00">+ virtual void Bind(uint32_t slot=0) const =0</text>
</a>
</g>
</g>
<!-- Node3&#45;&gt;Node2 -->
<g id="edge2" class="edge">
<title>Node3&#45;&gt;Node2</title>
<path fill="none" stroke="midnightblue" d="M169,-310.17C169,-301.11 169,-292.05 169,-283.83"/>
<polygon fill="none" stroke="midnightblue" points="165.5,-310.36 169,-320.36 172.5,-310.36 165.5,-310.36"/>
</g>
</g>
</svg>
