<?xml version="1.0" encoding="UTF-8" standalone="no"?>
<!DOCTYPE svg PUBLIC "-//W3C//DTD SVG 1.1//EN"
 "http://www.w3.org/Graphics/SVG/1.1/DTD/svg11.dtd">
<!-- Generated by graphviz version 2.43.0 (0)
 -->
<!-- Title: gauri::Event Pages: 1 -->
<svg width="1856pt" height="397pt"
 viewBox="0.00 0.00 1856.00 397.00" xmlns="http://www.w3.org/2000/svg" xmlns:xlink="http://www.w3.org/1999/xlink">
<g id="graph0" class="graph" transform="scale(1 1) rotate(0) translate(4 393)">
<title>gauri::Event</title>
<polygon fill="white" stroke="transparent" points="-4,4 -4,-393 1852,-393 1852,4 -4,4"/>
<!-- Node1 -->
<g id="node1" class="node">
<title>Node1</title>
<g id="a_node1"><a xlink:title=" ">
<polygon fill="#bfbfbf" stroke="black" points="682.5,-276.5 682.5,-388.5 923.5,-388.5 923.5,-276.5 682.5,-276.5"/>
<text text-anchor="middle" x="803" y="-376.5" font-family="Helvetica,sans-Serif" font-size="10.00">gauri::Event</text>
<polyline fill="none" stroke="black" points="682.5,-369.5 923.5,-369.5 "/>
<text text-anchor="start" x="690.5" y="-357.5" font-family="Helvetica,sans-Serif" font-size="10.00">+ bool Handled</text>
<polyline fill="none" stroke="black" points="682.5,-350.5 923.5,-350.5 "/>
<text text-anchor="start" x="690.5" y="-338.5" font-family="Helvetica,sans-Serif" font-size="10.00">+ virtual ~Event()=default</text>
<text text-anchor="start" x="690.5" y="-327.5" font-family="Helvetica,sans-Serif" font-size="10.00">+ virtual EventType GetEventType() const =0</text>
<text text-anchor="start" x="690.5" y="-316.5" font-family="Helvetica,sans-Serif" font-size="10.00">+ virtual const char * GetName() const =0</text>
<text text-anchor="start" x="690.5" y="-305.5" font-family="Helvetica,sans-Serif" font-size="10.00">+ virtual int32_t GetCategoryFlags() const =0</text>
<text text-anchor="start" x="690.5" y="-294.5" font-family="Helvetica,sans-Serif" font-size="10.00">+ virtual std::string ToString() const</text>
<text text-anchor="start" x="690.5" y="-283.5" font-family="Helvetica,sans-Serif" font-size="10.00">+ bool IsInCategory(EventCategory category)</text>
</a>
</g>
</g>
<!-- Node2 -->
<g id="node2" class="node">
<title>Node2</title>
<g id="a_node2"><a xlink:href="classgauri_1_1AppRenderEvent.html" target="_top" xlink:title=" ">
<polygon fill="white" stroke="black" points="111,-155 111,-212 239,-212 239,-155 111,-155"/>
<text text-anchor="middle" x="175" y="-200" font-family="Helvetica,sans-Serif" font-size="10.00">gauri::AppRenderEvent</text>
<polyline fill="none" stroke="black" points="111,-193 239,-193 "/>
<text text-anchor="middle" x="175" y="-181" font-family="Helvetica,sans-Serif" font-size="10.00"> </text>
<polyline fill="none" stroke="black" points="111,-174 239,-174 "/>
<text text-anchor="start" x="119" y="-162" font-family="Helvetica,sans-Serif" font-size="10.00">+ AppRenderEvent()</text>
</a>
</g>
</g>
<!-- Node1&#45;&gt;Node2 -->
<g id="edge1" class="edge">
<title>Node1&#45;&gt;Node2</title>
<path fill="none" stroke="midnightblue" d="M672.15,-327.67C556.41,-320.21 385.12,-299.06 248,-240 232.35,-233.26 217.03,-222.46 204.5,-212.17"/>
<polygon fill="none" stroke="midnightblue" points="672.28,-331.19 682.47,-328.31 672.71,-324.2 672.28,-331.19"/>
</g>
<!-- Node3 -->
<g id="node3" class="node">
<title>Node3</title>
<g id="a_node3"><a xlink:href="classgauri_1_1AppTickEvent.html" target="_top" xlink:title=" ">
<polygon fill="white" stroke="black" points="257,-155 257,-212 371,-212 371,-155 257,-155"/>
<text text-anchor="middle" x="314" y="-200" font-family="Helvetica,sans-Serif" font-size="10.00">gauri::AppTickEvent</text>
<polyline fill="none" stroke="black" points="257,-193 371,-193 "/>
<text text-anchor="middle" x="314" y="-181" font-family="Helvetica,sans-Serif" font-size="10.00"> </text>
<polyline fill="none" stroke="black" points="257,-174 371,-174 "/>
<text text-anchor="start" x="265" y="-162" font-family="Helvetica,sans-Serif" font-size="10.00">+ AppTickEvent()</text>
</a>
</g>
</g>
<!-- Node1&#45;&gt;Node3 -->
<g id="edge2" class="edge">
<title>Node1&#45;&gt;Node3</title>
<path fill="none" stroke="midnightblue" d="M671.99,-319.73C585.57,-308.06 471.81,-285.05 380,-240 365.75,-233.01 351.99,-222.29 340.75,-212.13"/>
<polygon fill="none" stroke="midnightblue" points="671.75,-323.23 682.12,-321.06 672.66,-316.29 671.75,-323.23"/>
</g>
<!-- Node4 -->
<g id="node4" class="node">
<title>Node4</title>
<g id="a_node4"><a xlink:href="classgauri_1_1AppUpdateEvent.html" target="_top" xlink:title=" ">
<polygon fill="white" stroke="black" points="389.5,-155 389.5,-212 518.5,-212 518.5,-155 389.5,-155"/>
<text text-anchor="middle" x="454" y="-200" font-family="Helvetica,sans-Serif" font-size="10.00">gauri::AppUpdateEvent</text>
<polyline fill="none" stroke="black" points="389.5,-193 518.5,-193 "/>
<text text-anchor="middle" x="454" y="-181" font-family="Helvetica,sans-Serif" font-size="10.00"> </text>
<polyline fill="none" stroke="black" points="389.5,-174 518.5,-174 "/>
<text text-anchor="start" x="397.5" y="-162" font-family="Helvetica,sans-Serif" font-size="10.00">+ AppUpdateEvent()</text>
</a>
</g>
</g>
<!-- Node1&#45;&gt;Node4 -->
<g id="edge3" class="edge">
<title>Node1&#45;&gt;Node4</title>
<path fill="none" stroke="midnightblue" d="M672.62,-297.96C625.35,-283.31 572.43,-263.95 527,-240 512.49,-232.35 497.84,-221.88 485.51,-212.08"/>
<polygon fill="none" stroke="midnightblue" points="671.72,-301.34 682.31,-300.91 673.77,-294.65 671.72,-301.34"/>
</g>
<!-- Node5 -->
<g id="node5" class="node">
<title>Node5</title>
<g id="a_node5"><a xlink:href="classgauri_1_1KeyEvent.html" target="_top" xlink:title=" ">
<polygon fill="white" stroke="black" points="536.5,-149.5 536.5,-217.5 697.5,-217.5 697.5,-149.5 536.5,-149.5"/>
<text text-anchor="middle" x="617" y="-205.5" font-family="Helvetica,sans-Serif" font-size="10.00">gauri::KeyEvent</text>
<polyline fill="none" stroke="black" points="536.5,-198.5 697.5,-198.5 "/>
<text text-anchor="start" x="544.5" y="-186.5" font-family="Helvetica,sans-Serif" font-size="10.00"># int32_t m_KeyCode</text>
<polyline fill="none" stroke="black" points="536.5,-179.5 697.5,-179.5 "/>
<text text-anchor="start" x="544.5" y="-167.5" font-family="Helvetica,sans-Serif" font-size="10.00">+ int32_t GetKeyCode() const</text>
<text text-anchor="start" x="544.5" y="-156.5" font-family="Helvetica,sans-Serif" font-size="10.00"># KeyEvent(int32_t keycode)</text>
</a>
</g>
</g>
<!-- Node1&#45;&gt;Node5 -->
<g id="edge4" class="edge">
<title>Node1&#45;&gt;Node5</title>
<path fill="none" stroke="midnightblue" d="M725.21,-270.02C702.43,-252.02 678.4,-233.03 658.78,-217.52"/>
<polygon fill="none" stroke="midnightblue" points="723.2,-272.89 733.21,-276.34 727.54,-267.4 723.2,-272.89"/>
</g>
<!-- Node9 -->
<g id="node9" class="node">
<title>Node9</title>
<g id="a_node9"><a xlink:href="classgauri_1_1MouseButtonEvent.html" target="_top" xlink:title=" ">
<polygon fill="white" stroke="black" points="715.5,-149.5 715.5,-217.5 890.5,-217.5 890.5,-149.5 715.5,-149.5"/>
<text text-anchor="middle" x="803" y="-205.5" font-family="Helvetica,sans-Serif" font-size="10.00">gauri::MouseButtonEvent</text>
<polyline fill="none" stroke="black" points="715.5,-198.5 890.5,-198.5 "/>
<text text-anchor="start" x="723.5" y="-186.5" font-family="Helvetica,sans-Serif" font-size="10.00"># int m_Button</text>
<polyline fill="none" stroke="black" points="715.5,-179.5 890.5,-179.5 "/>
<text text-anchor="start" x="723.5" y="-167.5" font-family="Helvetica,sans-Serif" font-size="10.00">+ int GetMouseButton() const</text>
<text text-anchor="start" x="723.5" y="-156.5" font-family="Helvetica,sans-Serif" font-size="10.00"># MouseButtonEvent(int button)</text>
</a>
</g>
</g>
<!-- Node1&#45;&gt;Node9 -->
<g id="edge8" class="edge">
<title>Node1&#45;&gt;Node9</title>
<path fill="none" stroke="midnightblue" d="M803,-266.04C803,-249.33 803,-232.06 803,-217.74"/>
<polygon fill="none" stroke="midnightblue" points="799.5,-266.34 803,-276.34 806.5,-266.34 799.5,-266.34"/>
</g>
<!-- Node12 -->
<g id="node12" class="node">
<title>Node12</title>
<g id="a_node12"><a xlink:href="classgauri_1_1MouseMovedEvent.html" target="_top" xlink:title=" ">
<polygon fill="white" stroke="black" points="908.5,-127.5 908.5,-239.5 1107.5,-239.5 1107.5,-127.5 908.5,-127.5"/>
<text text-anchor="middle" x="1008" y="-227.5" font-family="Helvetica,sans-Serif" font-size="10.00">gauri::MouseMovedEvent</text>
<polyline fill="none" stroke="black" points="908.5,-220.5 1107.5,-220.5 "/>
<text text-anchor="start" x="916.5" y="-208.5" font-family="Helvetica,sans-Serif" font-size="10.00">&#45; float m_MouseX</text>
<text text-anchor="start" x="916.5" y="-197.5" font-family="Helvetica,sans-Serif" font-size="10.00">&#45; float m_MouseY</text>
<polyline fill="none" stroke="black" points="908.5,-190.5 1107.5,-190.5 "/>
<text text-anchor="start" x="916.5" y="-178.5" font-family="Helvetica,sans-Serif" font-size="10.00">+ MouseMovedEvent(float x, float y)</text>
<text text-anchor="start" x="916.5" y="-167.5" font-family="Helvetica,sans-Serif" font-size="10.00">+ float GetX() const</text>
<text text-anchor="start" x="916.5" y="-156.5" font-family="Helvetica,sans-Serif" font-size="10.00">+ float GetY() const</text>
<text text-anchor="start" x="916.5" y="-145.5" font-family="Helvetica,sans-Serif" font-size="10.00">+ std::string ToString() const override</text>
<text text-anchor="start" x="916.5" y="-134.5" font-family="Helvetica,sans-Serif" font-size="10.00">+ EVENT_CLASS_TYPE(MouseMoved)</text>
</a>
</g>
</g>
<!-- Node1&#45;&gt;Node12 -->
<g id="edge11" class="edge">
<title>Node1&#45;&gt;Node12</title>
<path fill="none" stroke="midnightblue" d="M888.21,-270.4C902.39,-260.23 917.03,-249.73 930.99,-239.72"/>
<polygon fill="none" stroke="midnightblue" points="886,-267.67 879.92,-276.34 890.08,-273.36 886,-267.67"/>
</g>
<!-- Node13 -->
<g id="node13" class="node">
<title>Node13</title>
<g id="a_node13"><a xlink:href="classgauri_1_1MouseScrolledEvent.html" target="_top" xlink:title=" ">
<polygon fill="white" stroke="black" points="1126,-133 1126,-234 1386,-234 1386,-133 1126,-133"/>
<text text-anchor="middle" x="1256" y="-222" font-family="Helvetica,sans-Serif" font-size="10.00">gauri::MouseScrolledEvent</text>
<polyline fill="none" stroke="black" points="1126,-215 1386,-215 "/>
<text text-anchor="start" x="1134" y="-203" font-family="Helvetica,sans-Serif" font-size="10.00">&#45; float m_XOffset</text>
<text text-anchor="start" x="1134" y="-192" font-family="Helvetica,sans-Serif" font-size="10.00">&#45; float m_YOffset</text>
<polyline fill="none" stroke="black" points="1126,-185 1386,-185 "/>
<text text-anchor="start" x="1134" y="-173" font-family="Helvetica,sans-Serif" font-size="10.00">+ MouseScrolledEvent(float xOffset, float yOffset)</text>
<text text-anchor="start" x="1134" y="-162" font-family="Helvetica,sans-Serif" font-size="10.00">+ float GetXOffset() const</text>
<text text-anchor="start" x="1134" y="-151" font-family="Helvetica,sans-Serif" font-size="10.00">+ float GetYOffset() const</text>
<text text-anchor="start" x="1134" y="-140" font-family="Helvetica,sans-Serif" font-size="10.00">+ std::string ToString() const override</text>
</a>
</g>
</g>
<!-- Node1&#45;&gt;Node13 -->
<g id="edge12" class="edge">
<title>Node1&#45;&gt;Node13</title>
<path fill="none" stroke="midnightblue" d="M933.26,-296.58C990.09,-280.57 1057.24,-260.58 1117,-240 1122.53,-238.1 1128.16,-236.1 1133.83,-234.04"/>
<polygon fill="none" stroke="midnightblue" points="932.19,-293.24 923.51,-299.32 934.08,-299.98 932.19,-293.24"/>
</g>
<!-- Node14 -->
<g id="node14" class="node">
<title>Node14</title>
<g id="a_node14"><a xlink:href="classgauri_1_1WindowCloseEvent.html" target="_top" xlink:title=" ">
<polygon fill="white" stroke="black" points="1404.5,-155 1404.5,-212 1545.5,-212 1545.5,-155 1404.5,-155"/>
<text text-anchor="middle" x="1475" y="-200" font-family="Helvetica,sans-Serif" font-size="10.00">gauri::WindowCloseEvent</text>
<polyline fill="none" stroke="black" points="1404.5,-193 1545.5,-193 "/>
<text text-anchor="middle" x="1475" y="-181" font-family="Helvetica,sans-Serif" font-size="10.00"> </text>
<polyline fill="none" stroke="black" points="1404.5,-174 1545.5,-174 "/>
<text text-anchor="start" x="1412.5" y="-162" font-family="Helvetica,sans-Serif" font-size="10.00">+ WindowCloseEvent()</text>
</a>
</g>
</g>
<!-- Node1&#45;&gt;Node14 -->
<g id="edge13" class="edge">
<title>Node1&#45;&gt;Node14</title>
<path fill="none" stroke="midnightblue" d="M933.9,-328.1C1056.9,-321.04 1244.11,-300.26 1395,-240 1411.8,-233.29 1428.53,-222.5 1442.32,-212.2"/>
<polygon fill="none" stroke="midnightblue" points="933.48,-324.61 923.68,-328.66 933.86,-331.6 933.48,-324.61"/>
</g>
<!-- Node15 -->
<g id="node15" class="node">
<title>Node15</title>
<g id="a_node15"><a xlink:href="classgauri_1_1WindowResizeEvent.html" target="_top" xlink:title=" ">
<polygon fill="white" stroke="black" points="1564,-133 1564,-234 1848,-234 1848,-133 1564,-133"/>
<text text-anchor="middle" x="1706" y="-222" font-family="Helvetica,sans-Serif" font-size="10.00">gauri::WindowResizeEvent</text>
<polyline fill="none" stroke="black" points="1564,-215 1848,-215 "/>
<text text-anchor="start" x="1572" y="-203" font-family="Helvetica,sans-Serif" font-size="10.00">&#45; uint32_t m_Width</text>
<text text-anchor="start" x="1572" y="-192" font-family="Helvetica,sans-Serif" font-size="10.00">&#45; uint32_t m_Height</text>
<polyline fill="none" stroke="black" points="1564,-185 1848,-185 "/>
<text text-anchor="start" x="1572" y="-173" font-family="Helvetica,sans-Serif" font-size="10.00">+ WindowResizeEvent(uint32_t width, uint32_t height)</text>
<text text-anchor="start" x="1572" y="-162" font-family="Helvetica,sans-Serif" font-size="10.00">+ uint32_t GetWidth() const</text>
<text text-anchor="start" x="1572" y="-151" font-family="Helvetica,sans-Serif" font-size="10.00">+ uint32_t GetHeight() const</text>
<text text-anchor="start" x="1572" y="-140" font-family="Helvetica,sans-Serif" font-size="10.00">+ std::string ToString() const override</text>
</a>
</g>
</g>
<!-- Node1&#45;&gt;Node15 -->
<g id="edge14" class="edge">
<title>Node1&#45;&gt;Node15</title>
<path fill="none" stroke="midnightblue" d="M933.96,-324.76C1085.29,-314.85 1340.97,-291.62 1555,-240 1562.33,-238.23 1569.8,-236.22 1577.28,-234.03"/>
<polygon fill="none" stroke="midnightblue" points="933.45,-321.28 923.69,-325.42 933.9,-328.27 933.45,-321.28"/>
</g>
<!-- Node6 -->
<g id="node6" class="node">
<title>Node6</title>
<g id="a_node6"><a xlink:href="classgauri_1_1KeyPressedEvent.html" target="_top" xlink:title=" ">
<polygon fill="white" stroke="black" points="0,-0.5 0,-90.5 278,-90.5 278,-0.5 0,-0.5"/>
<text text-anchor="middle" x="139" y="-78.5" font-family="Helvetica,sans-Serif" font-size="10.00">gauri::KeyPressedEvent</text>
<polyline fill="none" stroke="black" points="0,-71.5 278,-71.5 "/>
<text text-anchor="start" x="8" y="-59.5" font-family="Helvetica,sans-Serif" font-size="10.00">&#45; int32_t m_RepeatCount</text>
<polyline fill="none" stroke="black" points="0,-52.5 278,-52.5 "/>
<text text-anchor="start" x="8" y="-40.5" font-family="Helvetica,sans-Serif" font-size="10.00">+ KeyPressedEvent(int32_t keycode, int repeatCount)</text>
<text text-anchor="start" x="8" y="-29.5" font-family="Helvetica,sans-Serif" font-size="10.00">+ int32_t GetRepeatCount() const</text>
<text text-anchor="start" x="8" y="-18.5" font-family="Helvetica,sans-Serif" font-size="10.00">+ std::string ToString() const override</text>
<text text-anchor="start" x="8" y="-7.5" font-family="Helvetica,sans-Serif" font-size="10.00">+ EVENT_CLASS_TYPE(KeyPressed)</text>
</a>
</g>
</g>
<!-- Node5&#45;&gt;Node6 -->
<g id="edge5" class="edge">
<title>Node5&#45;&gt;Node6</title>
<path fill="none" stroke="midnightblue" d="M562.34,-144.01C551.07,-137.47 538.97,-131.38 527,-127 425.71,-89.94 392.25,-114.59 287,-91 284.12,-90.35 281.21,-89.68 278.29,-88.99"/>
<polygon fill="none" stroke="midnightblue" points="560.82,-147.18 571.19,-149.34 564.43,-141.18 560.82,-147.18"/>
</g>
<!-- Node7 -->
<g id="node7" class="node">
<title>Node7</title>
<g id="a_node7"><a xlink:href="classgauri_1_1KeyReleasedEvent.html" target="_top" xlink:title=" ">
<polygon fill="white" stroke="black" points="296.5,-6 296.5,-85 499.5,-85 499.5,-6 296.5,-6"/>
<text text-anchor="middle" x="398" y="-73" font-family="Helvetica,sans-Serif" font-size="10.00">gauri::KeyReleasedEvent</text>
<polyline fill="none" stroke="black" points="296.5,-66 499.5,-66 "/>
<text text-anchor="middle" x="398" y="-54" font-family="Helvetica,sans-Serif" font-size="10.00"> </text>
<polyline fill="none" stroke="black" points="296.5,-47 499.5,-47 "/>
<text text-anchor="start" x="304.5" y="-35" font-family="Helvetica,sans-Serif" font-size="10.00">+ KeyReleasedEvent(int32_t keycode)</text>
<text text-anchor="start" x="304.5" y="-24" font-family="Helvetica,sans-Serif" font-size="10.00">+ std::string ToString() const override</text>
<text text-anchor="start" x="304.5" y="-13" font-family="Helvetica,sans-Serif" font-size="10.00">+ EVENT_CLASS_TYPE(KeyReleased)</text>
</a>
</g>
</g>
<!-- Node5&#45;&gt;Node7 -->
<g id="edge6" class="edge">
<title>Node5&#45;&gt;Node7</title>
<path fill="none" stroke="midnightblue" d="M555.09,-144.05C525.36,-125.59 489.83,-103.53 460.09,-85.06"/>
<polygon fill="none" stroke="midnightblue" points="553.36,-147.1 563.71,-149.4 557.06,-141.16 553.36,-147.1"/>
</g>
<!-- Node8 -->
<g id="node8" class="node">
<title>Node8</title>
<g id="a_node8"><a xlink:href="classgauri_1_1KeyTypedEvent.html" target="_top" xlink:title=" ">
<polygon fill="white" stroke="black" points="517.5,-6 517.5,-85 716.5,-85 716.5,-6 517.5,-6"/>
<text text-anchor="middle" x="617" y="-73" font-family="Helvetica,sans-Serif" font-size="10.00">gauri::KeyTypedEvent</text>
<polyline fill="none" stroke="black" points="517.5,-66 716.5,-66 "/>
<text text-anchor="middle" x="617" y="-54" font-family="Helvetica,sans-Serif" font-size="10.00"> </text>
<polyline fill="none" stroke="black" points="517.5,-47 716.5,-47 "/>
<text text-anchor="start" x="525.5" y="-35" font-family="Helvetica,sans-Serif" font-size="10.00">+ KeyTypedEvent(int32_t keycode)</text>
<text text-anchor="start" x="525.5" y="-24" font-family="Helvetica,sans-Serif" font-size="10.00">+ std::string ToString() const override</text>
<text text-anchor="start" x="525.5" y="-13" font-family="Helvetica,sans-Serif" font-size="10.00">+ EVENT_CLASS_TYPE(KeyTyped)</text>
</a>
</g>
</g>
<!-- Node5&#45;&gt;Node8 -->
<g id="edge7" class="edge">
<title>Node5&#45;&gt;Node8</title>
<path fill="none" stroke="midnightblue" d="M617,-138.85C617,-121.6 617,-101.94 617,-85.21"/>
<polygon fill="none" stroke="midnightblue" points="613.5,-139.23 617,-149.23 620.5,-139.23 613.5,-139.23"/>
</g>
<!-- Node10 -->
<g id="node10" class="node">
<title>Node10</title>
<g id="a_node10"><a xlink:href="classgauri_1_1MouseButtonPressedEvent.html" target="_top" xlink:title=" ">
<polygon fill="white" stroke="black" points="734.5,-11.5 734.5,-79.5 947.5,-79.5 947.5,-11.5 734.5,-11.5"/>
<text text-anchor="middle" x="841" y="-67.5" font-family="Helvetica,sans-Serif" font-size="10.00">gauri::MouseButtonPressedEvent</text>
<polyline fill="none" stroke="black" points="734.5,-60.5 947.5,-60.5 "/>
<text text-anchor="middle" x="841" y="-48.5" font-family="Helvetica,sans-Serif" font-size="10.00"> </text>
<polyline fill="none" stroke="black" points="734.5,-41.5 947.5,-41.5 "/>
<text text-anchor="start" x="742.5" y="-29.5" font-family="Helvetica,sans-Serif" font-size="10.00">+ MouseButtonPressedEvent(int button)</text>
<text text-anchor="start" x="742.5" y="-18.5" font-family="Helvetica,sans-Serif" font-size="10.00">+ std::string ToString() const override</text>
</a>
</g>
</g>
<!-- Node9&#45;&gt;Node10 -->
<g id="edge9" class="edge">
<title>Node9&#45;&gt;Node10</title>
<path fill="none" stroke="midnightblue" d="M815.02,-139.48C820.4,-120.23 826.65,-97.86 831.67,-79.9"/>
<polygon fill="none" stroke="midnightblue" points="811.62,-138.66 812.3,-149.23 818.36,-140.54 811.62,-138.66"/>
</g>
<!-- Node11 -->
<g id="node11" class="node">
<title>Node11</title>
<g id="a_node11"><a xlink:href="classgauri_1_1MouseButtonReleasedEvent.html" target="_top" xlink:title=" ">
<polygon fill="white" stroke="black" points="966,-11.5 966,-79.5 1186,-79.5 1186,-11.5 966,-11.5"/>
<text text-anchor="middle" x="1076" y="-67.5" font-family="Helvetica,sans-Serif" font-size="10.00">gauri::MouseButtonReleasedEvent</text>
<polyline fill="none" stroke="black" points="966,-60.5 1186,-60.5 "/>
<text text-anchor="middle" x="1076" y="-48.5" font-family="Helvetica,sans-Serif" font-size="10.00"> </text>
<polyline fill="none" stroke="black" points="966,-41.5 1186,-41.5 "/>
<text text-anchor="start" x="974" y="-29.5" font-family="Helvetica,sans-Serif" font-size="10.00">+ MouseButtonReleasedEvent(int button)</text>
<text text-anchor="start" x="974" y="-18.5" font-family="Helvetica,sans-Serif" font-size="10.00">+ std::string ToString() const override</text>
</a>
</g>
</g>
<!-- Node9&#45;&gt;Node11 -->
<g id="edge10" class="edge">
<title>Node9&#45;&gt;Node11</title>
<path fill="none" stroke="midnightblue" d="M867.6,-144.46C878.33,-138.45 889.41,-132.43 900,-127 932.13,-110.5 968.31,-93.66 999.48,-79.68"/>
<polygon fill="none" stroke="midnightblue" points="865.68,-141.53 858.69,-149.49 869.12,-147.62 865.68,-141.53"/>
</g>
</g>
</svg>
