<?xml version="1.0" encoding="UTF-8" standalone="no"?>
<!DOCTYPE svg PUBLIC "-//W3C//DTD SVG 1.1//EN"
 "http://www.w3.org/Graphics/SVG/1.1/DTD/svg11.dtd">
<!-- Generated by graphviz version 2.43.0 (0)
 -->
<!-- Title: gauri::OrthographicCameraController Pages: 1 -->
<svg width="927pt" height="518pt"
 viewBox="0.00 0.00 926.54 518.00" xmlns="http://www.w3.org/2000/svg" xmlns:xlink="http://www.w3.org/1999/xlink">
<g id="graph0" class="graph" transform="scale(1 1) rotate(0) translate(4 514)">
<title>gauri::OrthographicCameraController</title>
<polygon fill="white" stroke="transparent" points="-4,4 -4,-514 922.54,-514 922.54,4 -4,4"/>
<!-- Node1 -->
<g id="node1" class="node">
<title>Node1</title>
<g id="a_node1"><a xlink:title=" ">
<polygon fill="#bfbfbf" stroke="black" points="371.54,-0.5 371.54,-167.5 739.54,-167.5 739.54,-0.5 371.54,-0.5"/>
<text text-anchor="middle" x="555.54" y="-155.5" font-family="Helvetica,sans-Serif" font-size="10.00">gauri::OrthographicCameraController</text>
<polyline fill="none" stroke="black" points="371.54,-148.5 739.54,-148.5 "/>
<text text-anchor="middle" x="555.54" y="-136.5" font-family="Helvetica,sans-Serif" font-size="10.00"> </text>
<polyline fill="none" stroke="black" points="371.54,-129.5 739.54,-129.5 "/>
<text text-anchor="start" x="379.54" y="-117.5" font-family="Helvetica,sans-Serif" font-size="10.00">+ OrthographicCameraController(float aspectRatio, bool rotation=false)</text>
<text text-anchor="start" x="379.54" y="-106.5" font-family="Helvetica,sans-Serif" font-size="10.00">+ void OnUpdate(Timestep ts)</text>
<text text-anchor="start" x="379.54" y="-95.5" font-family="Helvetica,sans-Serif" font-size="10.00">+ void OnEvent(Event &amp;e)</text>
<text text-anchor="start" x="379.54" y="-84.5" font-family="Helvetica,sans-Serif" font-size="10.00">+ void OnResize(float width, float height)</text>
<text text-anchor="start" x="379.54" y="-73.5" font-family="Helvetica,sans-Serif" font-size="10.00">+ const OrthographicCamera &amp; GetCamera() const</text>
<text text-anchor="start" x="379.54" y="-62.5" font-family="Helvetica,sans-Serif" font-size="10.00">+ OrthographicCamera &amp; GetCamera()</text>
<text text-anchor="start" x="379.54" y="-51.5" font-family="Helvetica,sans-Serif" font-size="10.00">+ void SetZoomLevel(float level)</text>
<text text-anchor="start" x="379.54" y="-40.5" font-family="Helvetica,sans-Serif" font-size="10.00">+ float GetZoomLevel() const</text>
<text text-anchor="start" x="379.54" y="-29.5" font-family="Helvetica,sans-Serif" font-size="10.00">+ const OrthographicCameraBounds &amp; GetBounds() const</text>
<text text-anchor="start" x="379.54" y="-18.5" font-family="Helvetica,sans-Serif" font-size="10.00">&#45; bool OnMouseScrolled(MouseScrolledEvent &amp;e)</text>
<text text-anchor="start" x="379.54" y="-7.5" font-family="Helvetica,sans-Serif" font-size="10.00">&#45; bool OnWindowResized(WindowResizeEvent &amp;e)</text>
</a>
</g>
</g>
<!-- Node2 -->
<g id="node2" class="node">
<title>Node2</title>
<g id="a_node2"><a xlink:title=" ">
<polygon fill="white" stroke="#bfbfbf" points="254.54,-452.5 254.54,-509.5 292.54,-509.5 292.54,-452.5 254.54,-452.5"/>
<text text-anchor="middle" x="273.54" y="-497.5" font-family="Helvetica,sans-Serif" font-size="10.00">float</text>
<polyline fill="none" stroke="#bfbfbf" points="254.54,-490.5 292.54,-490.5 "/>
<text text-anchor="middle" x="273.54" y="-478.5" font-family="Helvetica,sans-Serif" font-size="10.00"> </text>
<polyline fill="none" stroke="#bfbfbf" points="254.54,-471.5 292.54,-471.5 "/>
<text text-anchor="middle" x="273.54" y="-459.5" font-family="Helvetica,sans-Serif" font-size="10.00"> </text>
</a>
</g>
</g>
<!-- Node2&#45;&gt;Node1 -->
<g id="edge1" class="edge">
<title>Node2&#45;&gt;Node1</title>
<path fill="none" stroke="#404040" d="M254.24,-478.26C206.3,-472.77 81.99,-451.16 30.54,-372 -7.48,-313.49 -12.46,-269.95 30.54,-215 71.51,-162.65 227.74,-128.44 359.21,-108.32"/>
<polygon fill="none" stroke="#404040" points="359.58,-108.27 364.92,-103.42 371.45,-106.48 366.11,-111.33 359.58,-108.27"/>
<text text-anchor="middle" x="101.04" y="-313" font-family="Helvetica,sans-Serif" font-size="10.00"> &#45;m_AspectRatio</text>
<text text-anchor="middle" x="101.04" y="-302" font-family="Helvetica,sans-Serif" font-size="10.00">&#45;m_CameraRotation</text>
<text text-anchor="middle" x="101.04" y="-291" font-family="Helvetica,sans-Serif" font-size="10.00">&#45;m_CameraRotationSpeed</text>
<text text-anchor="middle" x="101.04" y="-280" font-family="Helvetica,sans-Serif" font-size="10.00">&#45;m_CameraTranslationSpeed</text>
<text text-anchor="middle" x="101.04" y="-269" font-family="Helvetica,sans-Serif" font-size="10.00">&#45;m_ZoomLevel</text>
</g>
<!-- Node3 -->
<g id="node3" class="node">
<title>Node3</title>
<g id="a_node3"><a xlink:href="structgauri_1_1OrthographicCameraBounds.html" target="_top" xlink:title=" ">
<polygon fill="white" stroke="black" points="181.04,-259.5 181.04,-327.5 366.04,-327.5 366.04,-259.5 181.04,-259.5"/>
<text text-anchor="middle" x="273.54" y="-315.5" font-family="Helvetica,sans-Serif" font-size="10.00">gauri::OrthographicCameraBounds</text>
<polyline fill="none" stroke="black" points="181.04,-308.5 366.04,-308.5 "/>
<text text-anchor="middle" x="273.54" y="-296.5" font-family="Helvetica,sans-Serif" font-size="10.00"> </text>
<polyline fill="none" stroke="black" points="181.04,-289.5 366.04,-289.5 "/>
<text text-anchor="start" x="189.04" y="-277.5" font-family="Helvetica,sans-Serif" font-size="10.00">+ float GetWidth()</text>
<text text-anchor="start" x="189.04" y="-266.5" font-family="Helvetica,sans-Serif" font-size="10.00">+ float GetHeight()</text>
</a>
</g>
</g>
<!-- Node2&#45;&gt;Node3 -->
<g id="edge3" class="edge">
<title>Node2&#45;&gt;Node3</title>
<path fill="none" stroke="#404040" d="M273.54,-452.23C273.54,-422.61 273.54,-375.24 273.54,-340.13"/>
<polygon fill="none" stroke="#404040" points="273.54,-339.8 269.54,-333.8 273.54,-327.8 277.54,-333.8 273.54,-339.8"/>
<text text-anchor="middle" x="297.54" y="-426" font-family="Helvetica,sans-Serif" font-size="10.00"> +Bottom</text>
<text text-anchor="middle" x="297.54" y="-415" font-family="Helvetica,sans-Serif" font-size="10.00">+Left</text>
<text text-anchor="middle" x="297.54" y="-404" font-family="Helvetica,sans-Serif" font-size="10.00">+Right</text>
<text text-anchor="middle" x="297.54" y="-393" font-family="Helvetica,sans-Serif" font-size="10.00">+Top</text>
</g>
<!-- Node5 -->
<g id="node5" class="node">
<title>Node5</title>
<g id="a_node5"><a xlink:href="classgauri_1_1OrthographicCamera.html" target="_top" xlink:title=" ">
<polygon fill="white" stroke="black" points="384.04,-215.5 384.04,-371.5 727.04,-371.5 727.04,-215.5 384.04,-215.5"/>
<text text-anchor="middle" x="555.54" y="-359.5" font-family="Helvetica,sans-Serif" font-size="10.00">gauri::OrthographicCamera</text>
<polyline fill="none" stroke="black" points="384.04,-352.5 727.04,-352.5 "/>
<text text-anchor="middle" x="555.54" y="-340.5" font-family="Helvetica,sans-Serif" font-size="10.00"> </text>
<polyline fill="none" stroke="black" points="384.04,-333.5 727.04,-333.5 "/>
<text text-anchor="start" x="392.04" y="-321.5" font-family="Helvetica,sans-Serif" font-size="10.00">+ OrthographicCamera(float left, float right, float bottom, float top)</text>
<text text-anchor="start" x="392.04" y="-310.5" font-family="Helvetica,sans-Serif" font-size="10.00">+ void SetProjection(float left, float right, float bottom, float top)</text>
<text text-anchor="start" x="392.04" y="-299.5" font-family="Helvetica,sans-Serif" font-size="10.00">+ const glm::vec3 &amp; GetPosition() const</text>
<text text-anchor="start" x="392.04" y="-288.5" font-family="Helvetica,sans-Serif" font-size="10.00">+ const float GetRotation() const</text>
<text text-anchor="start" x="392.04" y="-277.5" font-family="Helvetica,sans-Serif" font-size="10.00">+ void SetPosition(const glm::vec3 &amp;position)</text>
<text text-anchor="start" x="392.04" y="-266.5" font-family="Helvetica,sans-Serif" font-size="10.00">+ void SetRotation(float rotation)</text>
<text text-anchor="start" x="392.04" y="-255.5" font-family="Helvetica,sans-Serif" font-size="10.00">+ const glm::mat4 &amp; GetProjectionMatrix() const</text>
<text text-anchor="start" x="392.04" y="-244.5" font-family="Helvetica,sans-Serif" font-size="10.00">+ const glm::mat4 &amp; GetViewMatrix() const</text>
<text text-anchor="start" x="392.04" y="-233.5" font-family="Helvetica,sans-Serif" font-size="10.00">+ const glm::mat4 &amp; GetViewProjectionMatrix() const</text>
<text text-anchor="start" x="392.04" y="-222.5" font-family="Helvetica,sans-Serif" font-size="10.00">&#45; void RecalculateViewMatrix()</text>
</a>
</g>
</g>
<!-- Node2&#45;&gt;Node5 -->
<g id="edge6" class="edge">
<title>Node2&#45;&gt;Node5</title>
<path fill="none" stroke="#404040" d="M292.92,-467.25C321.16,-448.68 375.93,-412.65 428.19,-378.27"/>
<polygon fill="none" stroke="#404040" points="428.23,-378.25 431.04,-371.61 438.25,-371.65 435.44,-378.29 428.23,-378.25"/>
<text text-anchor="middle" x="438.54" y="-409.5" font-family="Helvetica,sans-Serif" font-size="10.00"> &#45;m_Rotation</text>
</g>
<!-- Node3&#45;&gt;Node1 -->
<g id="edge2" class="edge">
<title>Node3&#45;&gt;Node1</title>
<path fill="none" stroke="#404040" d="M316.07,-259.39C334.02,-245.54 355.2,-229.36 374.54,-215 392.18,-201.9 410.9,-188.22 429.36,-174.85"/>
<polygon fill="none" stroke="#404040" points="429.55,-174.71 432.07,-167.95 439.28,-167.68 436.76,-174.44 429.55,-174.71"/>
<text text-anchor="middle" x="443.54" y="-189" font-family="Helvetica,sans-Serif" font-size="10.00"> &#45;m_Bounds</text>
</g>
<!-- Node4 -->
<g id="node4" class="node">
<title>Node4</title>
<g id="a_node4"><a xlink:title=" ">
<polygon fill="white" stroke="#bfbfbf" points="880.54,-265 880.54,-322 918.54,-322 918.54,-265 880.54,-265"/>
<text text-anchor="middle" x="899.54" y="-310" font-family="Helvetica,sans-Serif" font-size="10.00">bool</text>
<polyline fill="none" stroke="#bfbfbf" points="880.54,-303 918.54,-303 "/>
<text text-anchor="middle" x="899.54" y="-291" font-family="Helvetica,sans-Serif" font-size="10.00"> </text>
<polyline fill="none" stroke="#bfbfbf" points="880.54,-284 918.54,-284 "/>
<text text-anchor="middle" x="899.54" y="-272" font-family="Helvetica,sans-Serif" font-size="10.00"> </text>
</a>
</g>
</g>
<!-- Node4&#45;&gt;Node1 -->
<g id="edge4" class="edge">
<title>Node4&#45;&gt;Node1</title>
<path fill="none" stroke="#404040" d="M893.34,-264.77C888.45,-248.48 880.13,-228.5 866.54,-215 834.24,-182.91 792.85,-158.32 750.88,-139.64"/>
<polygon fill="none" stroke="#404040" points="750.63,-139.53 743.54,-140.82 739.62,-134.77 746.71,-133.48 750.63,-139.53"/>
<text text-anchor="middle" x="877.54" y="-189" font-family="Helvetica,sans-Serif" font-size="10.00"> &#45;m_Rotation</text>
</g>
<!-- Node5&#45;&gt;Node1 -->
<g id="edge5" class="edge">
<title>Node5&#45;&gt;Node1</title>
<path fill="none" stroke="#404040" d="M555.54,-215.23C555.54,-203.69 555.54,-191.68 555.54,-179.82"/>
<polygon fill="none" stroke="#404040" points="555.54,-179.55 551.54,-173.55 555.54,-167.55 559.54,-173.55 555.54,-179.55"/>
<text text-anchor="middle" x="586.04" y="-189" font-family="Helvetica,sans-Serif" font-size="10.00"> &#45;m_Camera</text>
</g>
<!-- Node6 -->
<g id="node6" class="node">
<title>Node6</title>
<g id="a_node6"><a xlink:title=" ">
<polygon fill="white" stroke="#bfbfbf" points="518.54,-452.5 518.54,-509.5 560.54,-509.5 560.54,-452.5 518.54,-452.5"/>
<text text-anchor="middle" x="539.54" y="-497.5" font-family="Helvetica,sans-Serif" font-size="10.00">mat4</text>
<polyline fill="none" stroke="#bfbfbf" points="518.54,-490.5 560.54,-490.5 "/>
<text text-anchor="middle" x="539.54" y="-478.5" font-family="Helvetica,sans-Serif" font-size="10.00"> </text>
<polyline fill="none" stroke="#bfbfbf" points="518.54,-471.5 560.54,-471.5 "/>
<text text-anchor="middle" x="539.54" y="-459.5" font-family="Helvetica,sans-Serif" font-size="10.00"> </text>
</a>
</g>
</g>
<!-- Node6&#45;&gt;Node5 -->
<g id="edge7" class="edge">
<title>Node6&#45;&gt;Node5</title>
<path fill="none" stroke="#404040" d="M538.82,-452.38C538.6,-434.55 538.8,-410.87 540.54,-390 540.71,-387.93 540.91,-385.84 541.11,-383.73"/>
<polygon fill="none" stroke="#404040" points="541.14,-383.45 537.83,-377.05 542.46,-371.53 545.78,-377.93 541.14,-383.45"/>
<text text-anchor="middle" x="602.54" y="-420.5" font-family="Helvetica,sans-Serif" font-size="10.00"> &#45;m_ProjectionMatrix</text>
<text text-anchor="middle" x="602.54" y="-409.5" font-family="Helvetica,sans-Serif" font-size="10.00">&#45;m_ViewMatrix</text>
<text text-anchor="middle" x="602.54" y="-398.5" font-family="Helvetica,sans-Serif" font-size="10.00">&#45;m_ViewProjectionMatrix</text>
</g>
<!-- Node7 -->
<g id="node7" class="node">
<title>Node7</title>
<g id="a_node7"><a xlink:title=" ">
<polygon fill="white" stroke="#bfbfbf" points="704.54,-452.5 704.54,-509.5 744.54,-509.5 744.54,-452.5 704.54,-452.5"/>
<text text-anchor="middle" x="724.54" y="-497.5" font-family="Helvetica,sans-Serif" font-size="10.00">vec3</text>
<polyline fill="none" stroke="#bfbfbf" points="704.54,-490.5 744.54,-490.5 "/>
<text text-anchor="middle" x="724.54" y="-478.5" font-family="Helvetica,sans-Serif" font-size="10.00"> </text>
<polyline fill="none" stroke="#bfbfbf" points="704.54,-471.5 744.54,-471.5 "/>
<text text-anchor="middle" x="724.54" y="-459.5" font-family="Helvetica,sans-Serif" font-size="10.00"> </text>
</a>
</g>
</g>
<!-- Node7&#45;&gt;Node1 -->
<g id="edge9" class="edge">
<title>Node7&#45;&gt;Node1</title>
<path fill="none" stroke="#404040" d="M741.76,-452.14C744.56,-446.34 747.04,-440.12 748.54,-434 762.46,-377.22 772.28,-280.73 735.54,-215 727.75,-201.06 717.76,-188.22 706.49,-176.5"/>
<polygon fill="none" stroke="#404040" points="706.18,-176.19 699.1,-174.82 697.64,-167.76 704.72,-169.13 706.18,-176.19"/>
<text text-anchor="middle" x="810.54" y="-291" font-family="Helvetica,sans-Serif" font-size="10.00"> &#45;m_CameraPosition</text>
</g>
<!-- Node7&#45;&gt;Node5 -->
<g id="edge8" class="edge">
<title>Node7&#45;&gt;Node5</title>
<path fill="none" stroke="#404040" d="M704.42,-456.79C698.66,-449.69 692.59,-441.72 687.54,-434 675.46,-415.54 678.18,-407.34 664.54,-390 662.09,-386.89 659.53,-383.79 656.88,-380.73"/>
<polygon fill="none" stroke="#404040" points="656.73,-380.56 649.74,-378.78 648.69,-371.65 655.68,-373.42 656.73,-380.56"/>
<text text-anchor="middle" x="718.04" y="-409.5" font-family="Helvetica,sans-Serif" font-size="10.00"> &#45;m_Position</text>
</g>
</g>
</svg>
