<?xml version="1.0" encoding="UTF-8" standalone="no"?>
<!DOCTYPE svg PUBLIC "-//W3C//DTD SVG 1.1//EN"
 "http://www.w3.org/Graphics/SVG/1.1/DTD/svg11.dtd">
<!-- Generated by graphviz version 2.43.0 (0)
 -->
<!-- Title: gauri::InstrumentationTimer::Stop Pages: 1 -->
<svg width="399pt" height="66pt"
 viewBox="0.00 0.00 399.00 66.00" xmlns="http://www.w3.org/2000/svg" xmlns:xlink="http://www.w3.org/1999/xlink">
<g id="graph0" class="graph" transform="scale(1 1) rotate(0) translate(4 62)">
<title>gauri::InstrumentationTimer::Stop</title>
<polygon fill="white" stroke="transparent" points="-4,4 -4,-62 395,-62 395,4 -4,4"/>
<!-- Node1 -->
<g id="node1" class="node">
<title>Node1</title>
<g id="a_node1"><a xlink:title=" ">
<polygon fill="#bfbfbf" stroke="black" points="0,-19.5 0,-38.5 182,-38.5 182,-19.5 0,-19.5"/>
<text text-anchor="middle" x="91" y="-26.5" font-family="Helvetica,sans-Serif" font-size="10.00">gauri::InstrumentationTimer::Stop</text>
</a>
</g>
</g>
<!-- Node2 -->
<g id="node2" class="node">
<title>Node2</title>
<g id="a_node2"><a xlink:href="classgauri_1_1Instrumentor.html#a754f5470f988f1c0c99652c6da92ce8f" target="_top" xlink:title=" ">
<polygon fill="white" stroke="black" points="237.5,-38.5 237.5,-57.5 371.5,-57.5 371.5,-38.5 237.5,-38.5"/>
<text text-anchor="middle" x="304.5" y="-45.5" font-family="Helvetica,sans-Serif" font-size="10.00">gauri::Instrumentor::Get</text>
</a>
</g>
</g>
<!-- Node1&#45;&gt;Node2 -->
<g id="edge1" class="edge">
<title>Node1&#45;&gt;Node2</title>
<path fill="none" stroke="midnightblue" d="M182,-37.09C197.07,-38.44 212.58,-39.83 227.27,-41.15"/>
<polygon fill="midnightblue" stroke="midnightblue" points="227.01,-44.64 237.29,-42.05 227.64,-37.67 227.01,-44.64"/>
</g>
<!-- Node3 -->
<g id="node3" class="node">
<title>Node3</title>
<g id="a_node3"><a xlink:href="classgauri_1_1Instrumentor.html#a6e91045992f15d20782810c91db8c870" target="_top" xlink:title=" ">
<polygon fill="white" stroke="black" points="218,-0.5 218,-19.5 391,-19.5 391,-0.5 218,-0.5"/>
<text text-anchor="middle" x="304.5" y="-7.5" font-family="Helvetica,sans-Serif" font-size="10.00">gauri::Instrumentor::WriteProfile</text>
</a>
</g>
</g>
<!-- Node1&#45;&gt;Node3 -->
<g id="edge2" class="edge">
<title>Node1&#45;&gt;Node3</title>
<path fill="none" stroke="midnightblue" d="M182,-20.91C190.57,-20.15 199.27,-19.36 207.89,-18.59"/>
<polygon fill="midnightblue" stroke="midnightblue" points="208.3,-22.07 217.95,-17.69 207.68,-15.09 208.3,-22.07"/>
</g>
</g>
</svg>
