<?xml version="1.0" encoding="UTF-8" standalone="no"?>
<!DOCTYPE svg PUBLIC "-//W3C//DTD SVG 1.1//EN"
 "http://www.w3.org/Graphics/SVG/1.1/DTD/svg11.dtd">
<!-- Generated by graphviz version 2.43.0 (0)
 -->
<!-- Title: gauri::Shader Pages: 1 -->
<svg width="593pt" height="259pt"
 viewBox="0.00 0.00 593.00 259.00" xmlns="http://www.w3.org/2000/svg" xmlns:xlink="http://www.w3.org/1999/xlink">
<g id="graph0" class="graph" transform="scale(1 1) rotate(0) translate(4 255)">
<title>gauri::Shader</title>
<polygon fill="white" stroke="transparent" points="-4,4 -4,-255 589,-255 589,4 -4,4"/>
<!-- Node1 -->
<g id="node1" class="node">
<title>Node1</title>
<g id="a_node1"><a xlink:title=" ">
<polygon fill="#bfbfbf" stroke="black" points="0,-0.5 0,-145.5 585,-145.5 585,-0.5 0,-0.5"/>
<text text-anchor="middle" x="292.5" y="-133.5" font-family="Helvetica,sans-Serif" font-size="10.00">gauri::Shader</text>
<polyline fill="none" stroke="black" points="0,-126.5 585,-126.5 "/>
<text text-anchor="middle" x="292.5" y="-114.5" font-family="Helvetica,sans-Serif" font-size="10.00"> </text>
<polyline fill="none" stroke="black" points="0,-107.5 585,-107.5 "/>
<text text-anchor="start" x="8" y="-95.5" font-family="Helvetica,sans-Serif" font-size="10.00">+ virtual ~Shader()=default</text>
<text text-anchor="start" x="8" y="-84.5" font-family="Helvetica,sans-Serif" font-size="10.00">+ virtual void Bind() const =0</text>
<text text-anchor="start" x="8" y="-73.5" font-family="Helvetica,sans-Serif" font-size="10.00">+ virtual void Unbind() const =0</text>
<text text-anchor="start" x="8" y="-62.5" font-family="Helvetica,sans-Serif" font-size="10.00">+ virtual void SetFloat3(const std::string &amp;name, const glm::vec3 &amp;value)=0</text>
<text text-anchor="start" x="8" y="-51.5" font-family="Helvetica,sans-Serif" font-size="10.00">+ virtual void SetFloat4(const std::string &amp;name, const glm::vec4 &amp;value)=0</text>
<text text-anchor="start" x="8" y="-40.5" font-family="Helvetica,sans-Serif" font-size="10.00">+ virtual void SetMat4(const std::string &amp;name, const glm::mat4 &amp;value)=0</text>
<text text-anchor="start" x="8" y="-29.5" font-family="Helvetica,sans-Serif" font-size="10.00">+ virtual const std::string &amp; GetName() const =0</text>
<text text-anchor="start" x="8" y="-18.5" font-family="Helvetica,sans-Serif" font-size="10.00">+ static Ref&lt; Shader &gt; Create(const std::string &amp;filepath)</text>
<text text-anchor="start" x="8" y="-7.5" font-family="Helvetica,sans-Serif" font-size="10.00">+ static Ref&lt; Shader &gt; Create(const std::string &amp;name, const std::string &amp;vertexSrc, const std::string &amp;fragmentSrc)</text>
</a>
</g>
</g>
<!-- Node2 -->
<g id="node2" class="node">
<title>Node2</title>
<g id="a_node2"><a xlink:title=" ">
<polygon fill="white" stroke="#bfbfbf" points="264.5,-193.5 264.5,-250.5 320.5,-250.5 320.5,-193.5 264.5,-193.5"/>
<text text-anchor="middle" x="292.5" y="-238.5" font-family="Helvetica,sans-Serif" font-size="10.00">uint32_t</text>
<polyline fill="none" stroke="#bfbfbf" points="264.5,-231.5 320.5,-231.5 "/>
<text text-anchor="middle" x="292.5" y="-219.5" font-family="Helvetica,sans-Serif" font-size="10.00"> </text>
<polyline fill="none" stroke="#bfbfbf" points="264.5,-212.5 320.5,-212.5 "/>
<text text-anchor="middle" x="292.5" y="-200.5" font-family="Helvetica,sans-Serif" font-size="10.00"> </text>
</a>
</g>
</g>
<!-- Node2&#45;&gt;Node1 -->
<g id="edge1" class="edge">
<title>Node2&#45;&gt;Node1</title>
<path fill="none" stroke="#404040" d="M292.5,-193.35C292.5,-183.01 292.5,-170.66 292.5,-157.89"/>
<polygon fill="none" stroke="#404040" points="292.5,-157.56 288.5,-151.56 292.5,-145.56 296.5,-151.56 292.5,-157.56"/>
<text text-anchor="middle" x="331" y="-167" font-family="Helvetica,sans-Serif" font-size="10.00"> &#45;m_RendererID</text>
</g>
</g>
</svg>
