<?xml version="1.0" encoding="UTF-8" standalone="no"?>
<!DOCTYPE svg PUBLIC "-//W3C//DTD SVG 1.1//EN"
 "http://www.w3.org/Graphics/SVG/1.1/DTD/svg11.dtd">
<!-- Generated by graphviz version 2.43.0 (0)
 -->
<!-- Title: gauri::KeyEvent Pages: 1 -->
<svg width="725pt" height="353pt"
 viewBox="0.00 0.00 724.50 353.00" xmlns="http://www.w3.org/2000/svg" xmlns:xlink="http://www.w3.org/1999/xlink">
<g id="graph0" class="graph" transform="scale(1 1) rotate(0) translate(4 349)">
<title>gauri::KeyEvent</title>
<polygon fill="white" stroke="transparent" points="-4,4 -4,-349 720.5,-349 720.5,4 -4,4"/>
<!-- Node1 -->
<g id="node1" class="node">
<title>Node1</title>
<g id="a_node1"><a xlink:title=" ">
<polygon fill="#bfbfbf" stroke="black" points="317.5,-127.5 317.5,-195.5 478.5,-195.5 478.5,-127.5 317.5,-127.5"/>
<text text-anchor="middle" x="398" y="-183.5" font-family="Helvetica,sans-Serif" font-size="10.00">gauri::KeyEvent</text>
<polyline fill="none" stroke="black" points="317.5,-176.5 478.5,-176.5 "/>
<text text-anchor="start" x="325.5" y="-164.5" font-family="Helvetica,sans-Serif" font-size="10.00"># int32_t m_KeyCode</text>
<polyline fill="none" stroke="black" points="317.5,-157.5 478.5,-157.5 "/>
<text text-anchor="start" x="325.5" y="-145.5" font-family="Helvetica,sans-Serif" font-size="10.00">+ int32_t GetKeyCode() const</text>
<text text-anchor="start" x="325.5" y="-134.5" font-family="Helvetica,sans-Serif" font-size="10.00"># KeyEvent(int32_t keycode)</text>
</a>
</g>
</g>
<!-- Node3 -->
<g id="node3" class="node">
<title>Node3</title>
<g id="a_node3"><a xlink:href="classgauri_1_1KeyPressedEvent.html" target="_top" xlink:title=" ">
<polygon fill="white" stroke="black" points="0,-0.5 0,-90.5 278,-90.5 278,-0.5 0,-0.5"/>
<text text-anchor="middle" x="139" y="-78.5" font-family="Helvetica,sans-Serif" font-size="10.00">gauri::KeyPressedEvent</text>
<polyline fill="none" stroke="black" points="0,-71.5 278,-71.5 "/>
<text text-anchor="start" x="8" y="-59.5" font-family="Helvetica,sans-Serif" font-size="10.00">&#45; int32_t m_RepeatCount</text>
<polyline fill="none" stroke="black" points="0,-52.5 278,-52.5 "/>
<text text-anchor="start" x="8" y="-40.5" font-family="Helvetica,sans-Serif" font-size="10.00">+ KeyPressedEvent(int32_t keycode, int repeatCount)</text>
<text text-anchor="start" x="8" y="-29.5" font-family="Helvetica,sans-Serif" font-size="10.00">+ int32_t GetRepeatCount() const</text>
<text text-anchor="start" x="8" y="-18.5" font-family="Helvetica,sans-Serif" font-size="10.00">+ std::string ToString() const override</text>
<text text-anchor="start" x="8" y="-7.5" font-family="Helvetica,sans-Serif" font-size="10.00">+ EVENT_CLASS_TYPE(KeyPressed)</text>
</a>
</g>
</g>
<!-- Node1&#45;&gt;Node3 -->
<g id="edge2" class="edge">
<title>Node1&#45;&gt;Node3</title>
<path fill="none" stroke="midnightblue" d="M313.41,-123.27C289.66,-112.81 263.61,-101.35 239.05,-90.54"/>
<polygon fill="none" stroke="midnightblue" points="312.18,-126.55 322.74,-127.37 315,-120.14 312.18,-126.55"/>
</g>
<!-- Node4 -->
<g id="node4" class="node">
<title>Node4</title>
<g id="a_node4"><a xlink:href="classgauri_1_1KeyReleasedEvent.html" target="_top" xlink:title=" ">
<polygon fill="white" stroke="black" points="296.5,-6 296.5,-85 499.5,-85 499.5,-6 296.5,-6"/>
<text text-anchor="middle" x="398" y="-73" font-family="Helvetica,sans-Serif" font-size="10.00">gauri::KeyReleasedEvent</text>
<polyline fill="none" stroke="black" points="296.5,-66 499.5,-66 "/>
<text text-anchor="middle" x="398" y="-54" font-family="Helvetica,sans-Serif" font-size="10.00"> </text>
<polyline fill="none" stroke="black" points="296.5,-47 499.5,-47 "/>
<text text-anchor="start" x="304.5" y="-35" font-family="Helvetica,sans-Serif" font-size="10.00">+ KeyReleasedEvent(int32_t keycode)</text>
<text text-anchor="start" x="304.5" y="-24" font-family="Helvetica,sans-Serif" font-size="10.00">+ std::string ToString() const override</text>
<text text-anchor="start" x="304.5" y="-13" font-family="Helvetica,sans-Serif" font-size="10.00">+ EVENT_CLASS_TYPE(KeyReleased)</text>
</a>
</g>
</g>
<!-- Node1&#45;&gt;Node4 -->
<g id="edge3" class="edge">
<title>Node1&#45;&gt;Node4</title>
<path fill="none" stroke="midnightblue" d="M398,-117.03C398,-106.58 398,-95.48 398,-85.25"/>
<polygon fill="none" stroke="midnightblue" points="394.5,-117.22 398,-127.22 401.5,-117.22 394.5,-117.22"/>
</g>
<!-- Node5 -->
<g id="node5" class="node">
<title>Node5</title>
<g id="a_node5"><a xlink:href="classgauri_1_1KeyTypedEvent.html" target="_top" xlink:title=" ">
<polygon fill="white" stroke="black" points="517.5,-6 517.5,-85 716.5,-85 716.5,-6 517.5,-6"/>
<text text-anchor="middle" x="617" y="-73" font-family="Helvetica,sans-Serif" font-size="10.00">gauri::KeyTypedEvent</text>
<polyline fill="none" stroke="black" points="517.5,-66 716.5,-66 "/>
<text text-anchor="middle" x="617" y="-54" font-family="Helvetica,sans-Serif" font-size="10.00"> </text>
<polyline fill="none" stroke="black" points="517.5,-47 716.5,-47 "/>
<text text-anchor="start" x="525.5" y="-35" font-family="Helvetica,sans-Serif" font-size="10.00">+ KeyTypedEvent(int32_t keycode)</text>
<text text-anchor="start" x="525.5" y="-24" font-family="Helvetica,sans-Serif" font-size="10.00">+ std::string ToString() const override</text>
<text text-anchor="start" x="525.5" y="-13" font-family="Helvetica,sans-Serif" font-size="10.00">+ EVENT_CLASS_TYPE(KeyTyped)</text>
</a>
</g>
</g>
<!-- Node1&#45;&gt;Node5 -->
<g id="edge4" class="edge">
<title>Node1&#45;&gt;Node5</title>
<path fill="none" stroke="midnightblue" d="M470.72,-122.65C493.87,-110.59 519.51,-97.25 542.77,-85.14"/>
<polygon fill="none" stroke="midnightblue" points="468.89,-119.65 461.64,-127.37 472.12,-125.86 468.89,-119.65"/>
</g>
<!-- Node2 -->
<g id="node2" class="node">
<title>Node2</title>
<g id="a_node2"><a xlink:href="classgauri_1_1Event.html" target="_top" xlink:title=" ">
<polygon fill="white" stroke="black" points="277.5,-232.5 277.5,-344.5 518.5,-344.5 518.5,-232.5 277.5,-232.5"/>
<text text-anchor="middle" x="398" y="-332.5" font-family="Helvetica,sans-Serif" font-size="10.00">gauri::Event</text>
<polyline fill="none" stroke="black" points="277.5,-325.5 518.5,-325.5 "/>
<text text-anchor="start" x="285.5" y="-313.5" font-family="Helvetica,sans-Serif" font-size="10.00"># bool m_Handled</text>
<polyline fill="none" stroke="black" points="277.5,-306.5 518.5,-306.5 "/>
<text text-anchor="start" x="285.5" y="-294.5" font-family="Helvetica,sans-Serif" font-size="10.00">+ virtual EventType GetEventType() const =0</text>
<text text-anchor="start" x="285.5" y="-283.5" font-family="Helvetica,sans-Serif" font-size="10.00">+ virtual const char * GetName() const =0</text>
<text text-anchor="start" x="285.5" y="-272.5" font-family="Helvetica,sans-Serif" font-size="10.00">+ virtual int32_t GetCategoryFlags() const =0</text>
<text text-anchor="start" x="285.5" y="-261.5" font-family="Helvetica,sans-Serif" font-size="10.00">+ virtual std::string ToString() const</text>
<text text-anchor="start" x="285.5" y="-250.5" font-family="Helvetica,sans-Serif" font-size="10.00">+ bool IsInCategory(EventCategory category)</text>
<text text-anchor="start" x="285.5" y="-239.5" font-family="Helvetica,sans-Serif" font-size="10.00">+ bool IsHandled() const</text>
</a>
</g>
</g>
<!-- Node2&#45;&gt;Node1 -->
<g id="edge1" class="edge">
<title>Node2&#45;&gt;Node1</title>
<path fill="none" stroke="midnightblue" d="M398,-222.26C398,-212.99 398,-203.8 398,-195.51"/>
<polygon fill="none" stroke="midnightblue" points="394.5,-222.31 398,-232.31 401.5,-222.31 394.5,-222.31"/>
</g>
</g>
</svg>
