<?xml version="1.0" encoding="UTF-8" standalone="no"?>
<!DOCTYPE svg PUBLIC "-//W3C//DTD SVG 1.1//EN"
 "http://www.w3.org/Graphics/SVG/1.1/DTD/svg11.dtd">
<!-- Generated by graphviz version 2.43.0 (0)
 -->
<!-- Title: gauri::Instrumentor Pages: 1 -->
<!--zoomable 627 -->
<svg id="main" version="1.1" xmlns="http://www.w3.org/2000/svg" xmlns:xlink="http://www.w3.org/1999/xlink" xml:space="preserve" onload="init(evt)">
<style type="text/css"><![CDATA[
.edge:hover path { stroke: red; }
.edge:hover polygon { stroke: red; fill: red; }
]]></style>
<script type="text/javascript"><![CDATA[
var edges = document.getElementsByTagName('g');
if (edges && edges.length) {
  for (var i=0;i<edges.length;i++) {
    if (edges[i].id.substr(0,4)=='edge') {
      edges[i].setAttribute('class','edge');
    }
  }
}
]]></script>
        <defs>
                <circle id="rim" cx="0" cy="0" r="7"/>
                <circle id="rim2" cx="0" cy="0" r="3.5"/>
                <g id="zoomPlus">
                        <use xlink:href="#rim" fill="#404040">
                                <set attributeName="fill" to="#808080" begin="zoomplus.mouseover" end="zoomplus.mouseout"/>
                        </use>
                        <path d="M-4,0h8M0,-4v8" fill="none" stroke="white" stroke-width="1.5" pointer-events="none"/>
                </g>
                <g id="zoomMin">
                        <use xlink:href="#rim" fill="#404040">
                                <set attributeName="fill" to="#808080" begin="zoomminus.mouseover" end="zoomminus.mouseout"/>
                        </use>
                        <path d="M-4,0h8" fill="none" stroke="white" stroke-width="1.5" pointer-events="none"/>
                </g>
                <g id="dirArrow">
                        <path fill="none" stroke="white" stroke-width="1.5" d="M0,-3.0v7 M-2.5,-0.5L0,-3.0L2.5,-0.5"/>
                </g>
               <g id="resetDef">
                       <use xlink:href="#rim2" fill="#404040">
                               <set attributeName="fill" to="#808080" begin="reset.mouseover" end="reset.mouseout"/>
                       </use>
               </g>
        </defs>

<script type="text/javascript">
var viewWidth = 454;
var viewHeight = 627;
var sectionId = 'dynsection-0';
</script>
<script xlink:href="svgpan.js"/>
<svg id="graph" class="graph">
<g id="viewport">
<title>gauri::Instrumentor</title>
<polygon fill="white" stroke="transparent" points="-4,4 -4,-623 450,-623 450,4 -4,4"/>
<!-- Node1 -->
<g id="node1" class="node">
<title>Node1</title>
<g id="a_node1"><a xlink:title=" ">
<polygon fill="#bfbfbf" stroke="black" points="0,-0.5 0,-123.5 446,-123.5 446,-0.5 0,-0.5"/>
<text text-anchor="middle" x="223" y="-111.5" font-family="Helvetica,sans-Serif" font-size="10.00">gauri::Instrumentor</text>
<polyline fill="none" stroke="black" points="0,-104.5 446,-104.5 "/>
<text text-anchor="middle" x="223" y="-92.5" font-family="Helvetica,sans-Serif" font-size="10.00"> </text>
<polyline fill="none" stroke="black" points="0,-85.5 446,-85.5 "/>
<text text-anchor="start" x="8" y="-73.5" font-family="Helvetica,sans-Serif" font-size="10.00">+ Instrumentor()</text>
<text text-anchor="start" x="8" y="-62.5" font-family="Helvetica,sans-Serif" font-size="10.00">+ void BeginSession(const std::string &amp;name, const std::string &amp;filepath=&quot;results.json&quot;)</text>
<text text-anchor="start" x="8" y="-51.5" font-family="Helvetica,sans-Serif" font-size="10.00">+ void EndSession()</text>
<text text-anchor="start" x="8" y="-40.5" font-family="Helvetica,sans-Serif" font-size="10.00">+ void WriteProfile(const ProfileResult &amp;result)</text>
<text text-anchor="start" x="8" y="-29.5" font-family="Helvetica,sans-Serif" font-size="10.00">+ void WriteHeader()</text>
<text text-anchor="start" x="8" y="-18.5" font-family="Helvetica,sans-Serif" font-size="10.00">+ void WriteFooter()</text>
<text text-anchor="start" x="8" y="-7.5" font-family="Helvetica,sans-Serif" font-size="10.00">+ static Instrumentor &amp; Get()</text>
</a>
</g>
</g>
<!-- Node2 -->
<g id="node2" class="node">
<title>Node2</title>
<g id="a_node2"><a xlink:href="namespacegauri.html#structgauri_1_1InstrumentationSession" target="_top" xlink:title=" ">
<polygon fill="white" stroke="black" points="22.5,-171.5 22.5,-228.5 185.5,-228.5 185.5,-171.5 22.5,-171.5"/>
<text text-anchor="middle" x="104" y="-216.5" font-family="Helvetica,sans-Serif" font-size="10.00">gauri::InstrumentationSession</text>
<polyline fill="none" stroke="black" points="22.5,-209.5 185.5,-209.5 "/>
<text text-anchor="middle" x="104" y="-197.5" font-family="Helvetica,sans-Serif" font-size="10.00"> </text>
<polyline fill="none" stroke="black" points="22.5,-190.5 185.5,-190.5 "/>
<text text-anchor="middle" x="104" y="-178.5" font-family="Helvetica,sans-Serif" font-size="10.00"> </text>
</a>
</g>
</g>
<!-- Node2&#45;&gt;Node1 -->
<g id="edge1" class="edge">
<title>Node2&#45;&gt;Node1</title>
<path fill="none" stroke="#404040" d="M109.72,-171.39C112.63,-161.53 116.89,-150.71 123,-142 125.15,-138.93 127.46,-135.92 129.89,-132.98"/>
<polygon fill="none" stroke="#404040" points="130.07,-132.77 131.07,-125.63 138.04,-123.8 137.05,-130.94 130.07,-132.77"/>
<text text-anchor="middle" x="171" y="-145" font-family="Helvetica,sans-Serif" font-size="10.00"> &#45;m_CurrentSession</text>
</g>
<!-- Node3 -->
<g id="node3" class="node">
<title>Node3</title>
<g id="a_node3"><a xlink:title=" ">
<polygon fill="white" stroke="#bfbfbf" points="71.5,-276.5 71.5,-333.5 136.5,-333.5 136.5,-276.5 71.5,-276.5"/>
<text text-anchor="middle" x="104" y="-321.5" font-family="Helvetica,sans-Serif" font-size="10.00">std::string</text>
<polyline fill="none" stroke="#bfbfbf" points="71.5,-314.5 136.5,-314.5 "/>
<text text-anchor="middle" x="104" y="-302.5" font-family="Helvetica,sans-Serif" font-size="10.00"> </text>
<polyline fill="none" stroke="#bfbfbf" points="71.5,-295.5 136.5,-295.5 "/>
<text text-anchor="middle" x="104" y="-283.5" font-family="Helvetica,sans-Serif" font-size="10.00"> </text>
</a>
</g>
</g>
<!-- Node3&#45;&gt;Node2 -->
<g id="edge2" class="edge">
<title>Node3&#45;&gt;Node2</title>
<path fill="none" stroke="#404040" d="M104,-276.4C104,-265.55 104,-252.87 104,-241.05"/>
<polygon fill="none" stroke="#404040" points="104,-240.68 100,-234.68 104,-228.68 108,-234.68 104,-240.68"/>
<text text-anchor="middle" x="124.5" y="-250" font-family="Helvetica,sans-Serif" font-size="10.00"> +Name</text>
</g>
<!-- Node4 -->
<g id="node4" class="node">
<title>Node4</title>
<g id="a_node4"><a xlink:title=" ">
<polygon fill="white" stroke="#bfbfbf" points="33.5,-371.5 33.5,-428.5 174.5,-428.5 174.5,-371.5 33.5,-371.5"/>
<text text-anchor="middle" x="104" y="-416.5" font-family="Helvetica,sans-Serif" font-size="10.00">std::basic_string&lt; Char &gt;</text>
<polyline fill="none" stroke="#bfbfbf" points="33.5,-409.5 174.5,-409.5 "/>
<text text-anchor="middle" x="104" y="-397.5" font-family="Helvetica,sans-Serif" font-size="10.00"> </text>
<polyline fill="none" stroke="#bfbfbf" points="33.5,-390.5 174.5,-390.5 "/>
<text text-anchor="middle" x="104" y="-378.5" font-family="Helvetica,sans-Serif" font-size="10.00"> </text>
</a>
</g>
</g>
<!-- Node4&#45;&gt;Node3 -->
<g id="edge3" class="edge">
<title>Node4&#45;&gt;Node3</title>
<path fill="none" stroke="midnightblue" d="M104,-361.24C104,-352.03 104,-342.35 104,-333.71"/>
<polygon fill="none" stroke="midnightblue" points="100.5,-361.35 104,-371.35 107.5,-361.35 100.5,-361.35"/>
</g>
<!-- Node5 -->
<g id="node5" class="node">
<title>Node5</title>
<g id="a_node5"><a xlink:title=" ">
<polygon fill="white" stroke="#bfbfbf" points="208.5,-171.5 208.5,-228.5 237.5,-228.5 237.5,-171.5 208.5,-171.5"/>
<text text-anchor="middle" x="223" y="-216.5" font-family="Helvetica,sans-Serif" font-size="10.00">int</text>
<polyline fill="none" stroke="#bfbfbf" points="208.5,-209.5 237.5,-209.5 "/>
<text text-anchor="middle" x="223" y="-197.5" font-family="Helvetica,sans-Serif" font-size="10.00"> </text>
<polyline fill="none" stroke="#bfbfbf" points="208.5,-190.5 237.5,-190.5 "/>
<text text-anchor="middle" x="223" y="-178.5" font-family="Helvetica,sans-Serif" font-size="10.00"> </text>
</a>
</g>
</g>
<!-- Node5&#45;&gt;Node1 -->
<g id="edge4" class="edge">
<title>Node5&#45;&gt;Node1</title>
<path fill="none" stroke="#404040" d="M223,-171.48C223,-161.01 223,-148.53 223,-135.82"/>
<polygon fill="none" stroke="#404040" points="223,-135.62 219,-129.62 223,-123.62 227,-129.62 223,-135.62"/>
<text text-anchor="middle" x="264" y="-145" font-family="Helvetica,sans-Serif" font-size="10.00"> &#45;m_ProfileCount</text>
</g>
<!-- Node6 -->
<g id="node6" class="node">
<title>Node6</title>
<g id="a_node6"><a xlink:title=" ">
<polygon fill="white" stroke="#bfbfbf" points="287,-171.5 287,-228.5 369,-228.5 369,-171.5 287,-171.5"/>
<text text-anchor="middle" x="328" y="-216.5" font-family="Helvetica,sans-Serif" font-size="10.00">std::ofstream</text>
<polyline fill="none" stroke="#bfbfbf" points="287,-209.5 369,-209.5 "/>
<text text-anchor="middle" x="328" y="-197.5" font-family="Helvetica,sans-Serif" font-size="10.00"> </text>
<polyline fill="none" stroke="#bfbfbf" points="287,-190.5 369,-190.5 "/>
<text text-anchor="middle" x="328" y="-178.5" font-family="Helvetica,sans-Serif" font-size="10.00"> </text>
</a>
</g>
</g>
<!-- Node6&#45;&gt;Node1 -->
<g id="edge5" class="edge">
<title>Node6&#45;&gt;Node1</title>
<path fill="none" stroke="#404040" d="M320.12,-171.41C316.63,-161.66 311.95,-150.91 306,-142 303.97,-138.96 301.79,-135.94 299.52,-132.97"/>
<polygon fill="none" stroke="#404040" points="299.49,-132.93 292.6,-130.8 291.92,-123.62 298.81,-125.75 299.49,-132.93"/>
<text text-anchor="middle" x="356.5" y="-145" font-family="Helvetica,sans-Serif" font-size="10.00"> &#45;m_OutputStream</text>
</g>
<!-- Node7 -->
<g id="node7" class="node">
<title>Node7</title>
<g id="a_node7"><a xlink:title=" ">
<polygon fill="white" stroke="#bfbfbf" points="249,-276.5 249,-333.5 407,-333.5 407,-276.5 249,-276.5"/>
<text text-anchor="middle" x="328" y="-321.5" font-family="Helvetica,sans-Serif" font-size="10.00">std::basic_ofstream&lt; Char &gt;</text>
<polyline fill="none" stroke="#bfbfbf" points="249,-314.5 407,-314.5 "/>
<text text-anchor="middle" x="328" y="-302.5" font-family="Helvetica,sans-Serif" font-size="10.00"> </text>
<polyline fill="none" stroke="#bfbfbf" points="249,-295.5 407,-295.5 "/>
<text text-anchor="middle" x="328" y="-283.5" font-family="Helvetica,sans-Serif" font-size="10.00"> </text>
</a>
</g>
</g>
<!-- Node7&#45;&gt;Node6 -->
<g id="edge6" class="edge">
<title>Node7&#45;&gt;Node6</title>
<path fill="none" stroke="midnightblue" d="M328,-266.29C328,-253.84 328,-240.23 328,-228.68"/>
<polygon fill="none" stroke="midnightblue" points="324.5,-266.4 328,-276.4 331.5,-266.4 324.5,-266.4"/>
</g>
<!-- Node8 -->
<g id="node8" class="node">
<title>Node8</title>
<g id="a_node8"><a xlink:title=" ">
<polygon fill="white" stroke="#bfbfbf" points="251,-371.5 251,-428.5 405,-428.5 405,-371.5 251,-371.5"/>
<text text-anchor="middle" x="328" y="-416.5" font-family="Helvetica,sans-Serif" font-size="10.00">std::basic_ostream&lt; Char &gt;</text>
<polyline fill="none" stroke="#bfbfbf" points="251,-409.5 405,-409.5 "/>
<text text-anchor="middle" x="328" y="-397.5" font-family="Helvetica,sans-Serif" font-size="10.00"> </text>
<polyline fill="none" stroke="#bfbfbf" points="251,-390.5 405,-390.5 "/>
<text text-anchor="middle" x="328" y="-378.5" font-family="Helvetica,sans-Serif" font-size="10.00"> </text>
</a>
</g>
</g>
<!-- Node8&#45;&gt;Node7 -->
<g id="edge7" class="edge">
<title>Node8&#45;&gt;Node7</title>
<path fill="none" stroke="midnightblue" d="M328,-361.24C328,-352.03 328,-342.35 328,-333.71"/>
<polygon fill="none" stroke="midnightblue" points="324.5,-361.35 328,-371.35 331.5,-361.35 324.5,-361.35"/>
</g>
<!-- Node9 -->
<g id="node9" class="node">
<title>Node9</title>
<g id="a_node9"><a xlink:title=" ">
<polygon fill="white" stroke="#bfbfbf" points="264,-466.5 264,-523.5 392,-523.5 392,-466.5 264,-466.5"/>
<text text-anchor="middle" x="328" y="-511.5" font-family="Helvetica,sans-Serif" font-size="10.00">std::basic_ios&lt; Char &gt;</text>
<polyline fill="none" stroke="#bfbfbf" points="264,-504.5 392,-504.5 "/>
<text text-anchor="middle" x="328" y="-492.5" font-family="Helvetica,sans-Serif" font-size="10.00"> </text>
<polyline fill="none" stroke="#bfbfbf" points="264,-485.5 392,-485.5 "/>
<text text-anchor="middle" x="328" y="-473.5" font-family="Helvetica,sans-Serif" font-size="10.00"> </text>
</a>
</g>
</g>
<!-- Node9&#45;&gt;Node8 -->
<g id="edge8" class="edge">
<title>Node9&#45;&gt;Node8</title>
<path fill="none" stroke="midnightblue" d="M328,-456.24C328,-447.03 328,-437.35 328,-428.71"/>
<polygon fill="none" stroke="midnightblue" points="324.5,-456.35 328,-466.35 331.5,-456.35 324.5,-456.35"/>
</g>
<!-- Node10 -->
<g id="node10" class="node">
<title>Node10</title>
<g id="a_node10"><a xlink:title=" ">
<polygon fill="white" stroke="#bfbfbf" points="288,-561.5 288,-618.5 368,-618.5 368,-561.5 288,-561.5"/>
<text text-anchor="middle" x="328" y="-606.5" font-family="Helvetica,sans-Serif" font-size="10.00">std::ios_base</text>
<polyline fill="none" stroke="#bfbfbf" points="288,-599.5 368,-599.5 "/>
<text text-anchor="middle" x="328" y="-587.5" font-family="Helvetica,sans-Serif" font-size="10.00"> </text>
<polyline fill="none" stroke="#bfbfbf" points="288,-580.5 368,-580.5 "/>
<text text-anchor="middle" x="328" y="-568.5" font-family="Helvetica,sans-Serif" font-size="10.00"> </text>
</a>
</g>
</g>
<!-- Node10&#45;&gt;Node9 -->
<g id="edge9" class="edge">
<title>Node10&#45;&gt;Node9</title>
<path fill="none" stroke="midnightblue" d="M328,-551.24C328,-542.03 328,-532.35 328,-523.71"/>
<polygon fill="none" stroke="midnightblue" points="324.5,-551.35 328,-561.35 331.5,-551.35 324.5,-551.35"/>
</g>
</g>
</svg>
        <g id="navigator" transform="translate(0 0)" fill="#404254">
                <rect fill="#f2f5e9" fill-opacity="0.5" stroke="#606060" stroke-width=".5" x="0" y="0" width="60" height="60"/>
                <use id="zoomplus" xlink:href="#zoomPlus" x="17" y="9" onmousedown="handleZoom(evt,'in')"/>
                <use id="zoomminus" xlink:href="#zoomMin" x="42" y="9" onmousedown="handleZoom(evt,'out')"/>
                <use id="reset" xlink:href="#resetDef" x="30" y="36" onmousedown="handleReset()"/>
                <g id="arrowUp" xlink:href="#dirArrow" transform="translate(30 24)" onmousedown="handlePan(0,-1)">
                  <use xlink:href="#rim" fill="#404040">
                        <set attributeName="fill" to="#808080" begin="arrowUp.mouseover" end="arrowUp.mouseout"/>
                  </use>
                  <path fill="none" stroke="white" stroke-width="1.5" d="M0,-3.0v7 M-2.5,-0.5L0,-3.0L2.5,-0.5"/>
                </g>
                <g id="arrowRight" xlink:href="#dirArrow" transform="rotate(90) translate(36 -43)" onmousedown="handlePan(1,0)">
                  <use xlink:href="#rim" fill="#404040">
                        <set attributeName="fill" to="#808080" begin="arrowRight.mouseover" end="arrowRight.mouseout"/>
                  </use>
                  <path fill="none" stroke="white" stroke-width="1.5" d="M0,-3.0v7 M-2.5,-0.5L0,-3.0L2.5,-0.5"/>
                </g>
                <g id="arrowDown" xlink:href="#dirArrow" transform="rotate(180) translate(-30 -48)" onmousedown="handlePan(0,1)">
                  <use xlink:href="#rim" fill="#404040">
                        <set attributeName="fill" to="#808080" begin="arrowDown.mouseover" end="arrowDown.mouseout"/>
                  </use>
                  <path fill="none" stroke="white" stroke-width="1.5" d="M0,-3.0v7 M-2.5,-0.5L0,-3.0L2.5,-0.5"/>
                </g>
                <g id="arrowLeft" xlink:href="#dirArrow" transform="rotate(270) translate(-36 17)" onmousedown="handlePan(-1,0)">
                  <use xlink:href="#rim" fill="#404040">
                        <set attributeName="fill" to="#808080" begin="arrowLeft.mouseover" end="arrowLeft.mouseout"/>
                  </use>
                  <path fill="none" stroke="white" stroke-width="1.5" d="M0,-3.0v7 M-2.5,-0.5L0,-3.0L2.5,-0.5"/>
                </g>
        </g>
        <svg viewBox="0 0 15 15" width="100%" height="30px" preserveAspectRatio="xMaxYMin meet">
         <g id="arrow_out" transform="scale(0.3 0.3)">
          <a xlink:href="classgauri_1_1Instrumentor__coll__graph_org.svg" target="_base">
           <rect id="button" ry="5" rx="5" y="6" x="6" height="38" width="38"
                fill="#f2f5e9" fill-opacity="0.5" stroke="#606060" stroke-width="1.0"/>
           <path id="arrow"
             d="M 11.500037,31.436501 C 11.940474,20.09759 22.043105,11.32322 32.158766,21.979434 L 37.068811,17.246167 C 37.068811,17.246167 37.088388,32 37.088388,32 L 22.160133,31.978069 C 22.160133,31.978069 26.997745,27.140456 26.997745,27.140456 C 18.528582,18.264221 13.291696,25.230495 11.500037,31.436501 z"
             style="fill:#404040;"/>
          </a>
         </g>
        </svg>
</svg>
