<?xml version="1.0" encoding="UTF-8" standalone="no"?>
<!DOCTYPE svg PUBLIC "-//W3C//DTD SVG 1.1//EN"
 "http://www.w3.org/Graphics/SVG/1.1/DTD/svg11.dtd">
<!-- Generated by graphviz version 2.43.0 (0)
 -->
<!-- Title: gauri::LayerStack Pages: 1 -->
<!--zoomable 630 -->
<svg id="main" version="1.1" xmlns="http://www.w3.org/2000/svg" xmlns:xlink="http://www.w3.org/1999/xlink" xml:space="preserve" onload="init(evt)">
<style type="text/css"><![CDATA[
.edge:hover path { stroke: red; }
.edge:hover polygon { stroke: red; fill: red; }
]]></style>
<script type="text/javascript"><![CDATA[
var edges = document.getElementsByTagName('g');
if (edges && edges.length) {
  for (var i=0;i<edges.length;i++) {
    if (edges[i].id.substr(0,4)=='edge') {
      edges[i].setAttribute('class','edge');
    }
  }
}
]]></script>
        <defs>
                <circle id="rim" cx="0" cy="0" r="7"/>
                <circle id="rim2" cx="0" cy="0" r="3.5"/>
                <g id="zoomPlus">
                        <use xlink:href="#rim" fill="#404040">
                                <set attributeName="fill" to="#808080" begin="zoomplus.mouseover" end="zoomplus.mouseout"/>
                        </use>
                        <path d="M-4,0h8M0,-4v8" fill="none" stroke="white" stroke-width="1.5" pointer-events="none"/>
                </g>
                <g id="zoomMin">
                        <use xlink:href="#rim" fill="#404040">
                                <set attributeName="fill" to="#808080" begin="zoomminus.mouseover" end="zoomminus.mouseout"/>
                        </use>
                        <path d="M-4,0h8" fill="none" stroke="white" stroke-width="1.5" pointer-events="none"/>
                </g>
                <g id="dirArrow">
                        <path fill="none" stroke="white" stroke-width="1.5" d="M0,-3.0v7 M-2.5,-0.5L0,-3.0L2.5,-0.5"/>
                </g>
               <g id="resetDef">
                       <use xlink:href="#rim2" fill="#404040">
                               <set attributeName="fill" to="#808080" begin="reset.mouseover" end="reset.mouseout"/>
                       </use>
               </g>
        </defs>

<script type="text/javascript">
var viewWidth = 356;
var viewHeight = 630;
var sectionId = 'dynsection-0';
</script>
<script xlink:href="svgpan.js"/>
<svg id="graph" class="graph">
<g id="viewport">
<title>gauri::LayerStack</title>
<polygon fill="white" stroke="transparent" points="-4,4 -4,-626 351.5,-626 351.5,4 -4,4"/>
<!-- Node1 -->
<g id="node1" class="node">
<title>Node1</title>
<g id="a_node1"><a xlink:title=" ">
<polygon fill="#bfbfbf" stroke="black" points="39,-0.5 39,-134.5 256,-134.5 256,-0.5 39,-0.5"/>
<text text-anchor="middle" x="147.5" y="-122.5" font-family="Helvetica,sans-Serif" font-size="10.00">gauri::LayerStack</text>
<polyline fill="none" stroke="black" points="39,-115.5 256,-115.5 "/>
<text text-anchor="middle" x="147.5" y="-103.5" font-family="Helvetica,sans-Serif" font-size="10.00"> </text>
<polyline fill="none" stroke="black" points="39,-96.5 256,-96.5 "/>
<text text-anchor="start" x="47" y="-84.5" font-family="Helvetica,sans-Serif" font-size="10.00">+ LayerStack()=default</text>
<text text-anchor="start" x="47" y="-73.5" font-family="Helvetica,sans-Serif" font-size="10.00">+ ~LayerStack()</text>
<text text-anchor="start" x="47" y="-62.5" font-family="Helvetica,sans-Serif" font-size="10.00">+ void PushLayer(Layer *layer)</text>
<text text-anchor="start" x="47" y="-51.5" font-family="Helvetica,sans-Serif" font-size="10.00">+ void PushOverlay(Layer *overlay)</text>
<text text-anchor="start" x="47" y="-40.5" font-family="Helvetica,sans-Serif" font-size="10.00">+ void PopLayer(Layer *layer)</text>
<text text-anchor="start" x="47" y="-29.5" font-family="Helvetica,sans-Serif" font-size="10.00">+ void PopOverlay(Layer *overlay)</text>
<text text-anchor="start" x="47" y="-18.5" font-family="Helvetica,sans-Serif" font-size="10.00">+ std::vector&lt; Layer * &gt;::iterator begin()</text>
<text text-anchor="start" x="47" y="-7.5" font-family="Helvetica,sans-Serif" font-size="10.00">+ std::vector&lt; Layer * &gt;::iterator end()</text>
</a>
</g>
</g>
<!-- Node2 -->
<g id="node2" class="node">
<title>Node2</title>
<g id="a_node2"><a xlink:title=" ">
<polygon fill="white" stroke="#bfbfbf" points="56.5,-182.5 56.5,-239.5 112.5,-239.5 112.5,-182.5 56.5,-182.5"/>
<text text-anchor="middle" x="84.5" y="-227.5" font-family="Helvetica,sans-Serif" font-size="10.00">uint32_t</text>
<polyline fill="none" stroke="#bfbfbf" points="56.5,-220.5 112.5,-220.5 "/>
<text text-anchor="middle" x="84.5" y="-208.5" font-family="Helvetica,sans-Serif" font-size="10.00"> </text>
<polyline fill="none" stroke="#bfbfbf" points="56.5,-201.5 112.5,-201.5 "/>
<text text-anchor="middle" x="84.5" y="-189.5" font-family="Helvetica,sans-Serif" font-size="10.00"> </text>
</a>
</g>
</g>
<!-- Node2&#45;&gt;Node1 -->
<g id="edge1" class="edge">
<title>Node2&#45;&gt;Node1</title>
<path fill="none" stroke="#404040" d="M81.63,-182.46C81.51,-172.91 82.37,-162.28 85.5,-153 86.32,-150.58 87.23,-148.16 88.23,-145.77"/>
<polygon fill="none" stroke="#404040" points="88.33,-145.55 87.29,-138.42 93.47,-134.71 94.52,-141.84 88.33,-145.55"/>
<text text-anchor="middle" x="137.5" y="-156" font-family="Helvetica,sans-Serif" font-size="10.00"> &#45;m_LayerInsertIndex</text>
</g>
<!-- Node3 -->
<g id="node3" class="node">
<title>Node3</title>
<g id="a_node3"><a xlink:title=" ">
<polygon fill="white" stroke="#bfbfbf" points="133,-182.5 133,-239.5 290,-239.5 290,-182.5 133,-182.5"/>
<text text-anchor="middle" x="211.5" y="-227.5" font-family="Helvetica,sans-Serif" font-size="10.00">std::vector&lt; gauri::Layer * &gt;</text>
<polyline fill="none" stroke="#bfbfbf" points="133,-220.5 290,-220.5 "/>
<text text-anchor="middle" x="211.5" y="-208.5" font-family="Helvetica,sans-Serif" font-size="10.00"> </text>
<polyline fill="none" stroke="#bfbfbf" points="133,-201.5 290,-201.5 "/>
<text text-anchor="middle" x="211.5" y="-189.5" font-family="Helvetica,sans-Serif" font-size="10.00"> </text>
</a>
</g>
</g>
<!-- Node3&#45;&gt;Node1 -->
<g id="edge2" class="edge">
<title>Node3&#45;&gt;Node1</title>
<path fill="none" stroke="#404040" d="M201.38,-182.25C197.81,-172.88 193.65,-162.42 189.5,-153 188.43,-150.56 187.32,-148.1 186.19,-145.61"/>
<polygon fill="none" stroke="#404040" points="186.15,-145.53 180,-141.77 181.1,-134.65 187.26,-138.41 186.15,-145.53"/>
<text text-anchor="middle" x="222" y="-156" font-family="Helvetica,sans-Serif" font-size="10.00"> &#45;m_Layers</text>
</g>
<!-- Node4 -->
<g id="node4" class="node">
<title>Node4</title>
<g id="a_node4"><a xlink:href="classgauri_1_1Layer.html" target="_top" xlink:title=" ">
<polygon fill="white" stroke="black" points="0,-287.5 0,-421.5 223,-421.5 223,-287.5 0,-287.5"/>
<text text-anchor="middle" x="111.5" y="-409.5" font-family="Helvetica,sans-Serif" font-size="10.00">gauri::Layer</text>
<polyline fill="none" stroke="black" points="0,-402.5 223,-402.5 "/>
<text text-anchor="middle" x="111.5" y="-390.5" font-family="Helvetica,sans-Serif" font-size="10.00"> </text>
<polyline fill="none" stroke="black" points="0,-383.5 223,-383.5 "/>
<text text-anchor="start" x="8" y="-371.5" font-family="Helvetica,sans-Serif" font-size="10.00">+ Layer(const std::string &amp;name=&quot;Layer&quot;)</text>
<text text-anchor="start" x="8" y="-360.5" font-family="Helvetica,sans-Serif" font-size="10.00">+ virtual ~Layer()</text>
<text text-anchor="start" x="8" y="-349.5" font-family="Helvetica,sans-Serif" font-size="10.00">+ virtual void OnAttach()</text>
<text text-anchor="start" x="8" y="-338.5" font-family="Helvetica,sans-Serif" font-size="10.00">+ virtual void OnDetach()</text>
<text text-anchor="start" x="8" y="-327.5" font-family="Helvetica,sans-Serif" font-size="10.00">+ virtual void OnUpdate(Timestep ts)</text>
<text text-anchor="start" x="8" y="-316.5" font-family="Helvetica,sans-Serif" font-size="10.00">+ virtual void OnImGuiRender()</text>
<text text-anchor="start" x="8" y="-305.5" font-family="Helvetica,sans-Serif" font-size="10.00">+ virtual void OnEvent(Event &amp;)</text>
<text text-anchor="start" x="8" y="-294.5" font-family="Helvetica,sans-Serif" font-size="10.00">+ const std::string &amp; GetName() const</text>
</a>
</g>
</g>
<!-- Node4&#45;&gt;Node3 -->
<g id="edge3" class="edge">
<title>Node4&#45;&gt;Node3</title>
<path fill="none" stroke="#404040" d="M156.85,-287.29C163.72,-277.44 170.76,-267.43 177.5,-258 179.5,-255.2 181.59,-252.31 183.69,-249.41"/>
<polygon fill="none" stroke="#404040" points="183.77,-249.31 184.09,-242.1 190.86,-239.63 190.54,-246.83 183.77,-249.31"/>
<text text-anchor="middle" x="206.5" y="-261" font-family="Helvetica,sans-Serif" font-size="10.00"> +elements</text>
</g>
<!-- Node5 -->
<g id="node5" class="node">
<title>Node5</title>
<g id="a_node5"><a xlink:title=" ">
<polygon fill="white" stroke="#bfbfbf" points="79,-469.5 79,-526.5 144,-526.5 144,-469.5 79,-469.5"/>
<text text-anchor="middle" x="111.5" y="-514.5" font-family="Helvetica,sans-Serif" font-size="10.00">std::string</text>
<polyline fill="none" stroke="#bfbfbf" points="79,-507.5 144,-507.5 "/>
<text text-anchor="middle" x="111.5" y="-495.5" font-family="Helvetica,sans-Serif" font-size="10.00"> </text>
<polyline fill="none" stroke="#bfbfbf" points="79,-488.5 144,-488.5 "/>
<text text-anchor="middle" x="111.5" y="-476.5" font-family="Helvetica,sans-Serif" font-size="10.00"> </text>
</a>
</g>
</g>
<!-- Node5&#45;&gt;Node4 -->
<g id="edge4" class="edge">
<title>Node5&#45;&gt;Node4</title>
<path fill="none" stroke="#404040" d="M111.5,-469.38C111.5,-459.02 111.5,-446.66 111.5,-433.97"/>
<polygon fill="none" stroke="#404040" points="111.5,-433.75 107.5,-427.75 111.5,-421.75 115.5,-427.75 111.5,-433.75"/>
<text text-anchor="middle" x="155.5" y="-443" font-family="Helvetica,sans-Serif" font-size="10.00"> #m_DebugName</text>
</g>
<!-- Node6 -->
<g id="node6" class="node">
<title>Node6</title>
<g id="a_node6"><a xlink:title=" ">
<polygon fill="white" stroke="#bfbfbf" points="41,-564.5 41,-621.5 182,-621.5 182,-564.5 41,-564.5"/>
<text text-anchor="middle" x="111.5" y="-609.5" font-family="Helvetica,sans-Serif" font-size="10.00">std::basic_string&lt; Char &gt;</text>
<polyline fill="none" stroke="#bfbfbf" points="41,-602.5 182,-602.5 "/>
<text text-anchor="middle" x="111.5" y="-590.5" font-family="Helvetica,sans-Serif" font-size="10.00"> </text>
<polyline fill="none" stroke="#bfbfbf" points="41,-583.5 182,-583.5 "/>
<text text-anchor="middle" x="111.5" y="-571.5" font-family="Helvetica,sans-Serif" font-size="10.00"> </text>
</a>
</g>
</g>
<!-- Node6&#45;&gt;Node5 -->
<g id="edge5" class="edge">
<title>Node6&#45;&gt;Node5</title>
<path fill="none" stroke="midnightblue" d="M111.5,-554.24C111.5,-545.03 111.5,-535.35 111.5,-526.71"/>
<polygon fill="none" stroke="midnightblue" points="108,-554.35 111.5,-564.35 115,-554.35 108,-554.35"/>
</g>
<!-- Node7 -->
<g id="node7" class="node">
<title>Node7</title>
<g id="a_node7"><a xlink:title=" ">
<polygon fill="white" stroke="#bfbfbf" points="241,-326 241,-383 338,-383 338,-326 241,-326"/>
<text text-anchor="middle" x="289.5" y="-371" font-family="Helvetica,sans-Serif" font-size="10.00">std::vector&lt; T &gt;</text>
<polyline fill="none" stroke="#bfbfbf" points="241,-364 338,-364 "/>
<text text-anchor="middle" x="289.5" y="-352" font-family="Helvetica,sans-Serif" font-size="10.00"> </text>
<polyline fill="none" stroke="#bfbfbf" points="241,-345 338,-345 "/>
<text text-anchor="middle" x="289.5" y="-333" font-family="Helvetica,sans-Serif" font-size="10.00"> </text>
</a>
</g>
</g>
<!-- Node7&#45;&gt;Node3 -->
<g id="edge6" class="edge">
<title>Node7&#45;&gt;Node3</title>
<path fill="none" stroke="orange" d="M269.38,-317C256.06,-292.83 238.86,-261.64 226.69,-239.55"/>
<polygon fill="orange" stroke="orange" points="266.38,-318.81 274.28,-325.88 272.51,-315.43 266.38,-318.81"/>
<text text-anchor="middle" x="287.5" y="-261" font-family="Helvetica,sans-Serif" font-size="10.00"> &lt; gauri::Layer * &gt;</text>
</g>
<!-- Node8 -->
<g id="node8" class="node">
<title>Node8</title>
<g id="a_node8"><a xlink:title=" ">
<polygon fill="white" stroke="#bfbfbf" points="275,-469.5 275,-526.5 304,-526.5 304,-469.5 275,-469.5"/>
<text text-anchor="middle" x="289.5" y="-514.5" font-family="Helvetica,sans-Serif" font-size="10.00">T</text>
<polyline fill="none" stroke="#bfbfbf" points="275,-507.5 304,-507.5 "/>
<text text-anchor="middle" x="289.5" y="-495.5" font-family="Helvetica,sans-Serif" font-size="10.00"> </text>
<polyline fill="none" stroke="#bfbfbf" points="275,-488.5 304,-488.5 "/>
<text text-anchor="middle" x="289.5" y="-476.5" font-family="Helvetica,sans-Serif" font-size="10.00"> </text>
</a>
</g>
</g>
<!-- Node8&#45;&gt;Node7 -->
<g id="edge7" class="edge">
<title>Node8&#45;&gt;Node7</title>
<path fill="none" stroke="#404040" d="M289.5,-469.38C289.5,-448.25 289.5,-418.81 289.5,-395.16"/>
<polygon fill="none" stroke="#404040" points="289.5,-395.05 285.5,-389.05 289.5,-383.05 293.5,-389.05 289.5,-395.05"/>
<text text-anchor="middle" x="318.5" y="-443" font-family="Helvetica,sans-Serif" font-size="10.00"> +elements</text>
</g>
</g>
</svg>
        <g id="navigator" transform="translate(0 0)" fill="#404254">
                <rect fill="#f2f5e9" fill-opacity="0.5" stroke="#606060" stroke-width=".5" x="0" y="0" width="60" height="60"/>
                <use id="zoomplus" xlink:href="#zoomPlus" x="17" y="9" onmousedown="handleZoom(evt,'in')"/>
                <use id="zoomminus" xlink:href="#zoomMin" x="42" y="9" onmousedown="handleZoom(evt,'out')"/>
                <use id="reset" xlink:href="#resetDef" x="30" y="36" onmousedown="handleReset()"/>
                <g id="arrowUp" xlink:href="#dirArrow" transform="translate(30 24)" onmousedown="handlePan(0,-1)">
                  <use xlink:href="#rim" fill="#404040">
                        <set attributeName="fill" to="#808080" begin="arrowUp.mouseover" end="arrowUp.mouseout"/>
                  </use>
                  <path fill="none" stroke="white" stroke-width="1.5" d="M0,-3.0v7 M-2.5,-0.5L0,-3.0L2.5,-0.5"/>
                </g>
                <g id="arrowRight" xlink:href="#dirArrow" transform="rotate(90) translate(36 -43)" onmousedown="handlePan(1,0)">
                  <use xlink:href="#rim" fill="#404040">
                        <set attributeName="fill" to="#808080" begin="arrowRight.mouseover" end="arrowRight.mouseout"/>
                  </use>
                  <path fill="none" stroke="white" stroke-width="1.5" d="M0,-3.0v7 M-2.5,-0.5L0,-3.0L2.5,-0.5"/>
                </g>
                <g id="arrowDown" xlink:href="#dirArrow" transform="rotate(180) translate(-30 -48)" onmousedown="handlePan(0,1)">
                  <use xlink:href="#rim" fill="#404040">
                        <set attributeName="fill" to="#808080" begin="arrowDown.mouseover" end="arrowDown.mouseout"/>
                  </use>
                  <path fill="none" stroke="white" stroke-width="1.5" d="M0,-3.0v7 M-2.5,-0.5L0,-3.0L2.5,-0.5"/>
                </g>
                <g id="arrowLeft" xlink:href="#dirArrow" transform="rotate(270) translate(-36 17)" onmousedown="handlePan(-1,0)">
                  <use xlink:href="#rim" fill="#404040">
                        <set attributeName="fill" to="#808080" begin="arrowLeft.mouseover" end="arrowLeft.mouseout"/>
                  </use>
                  <path fill="none" stroke="white" stroke-width="1.5" d="M0,-3.0v7 M-2.5,-0.5L0,-3.0L2.5,-0.5"/>
                </g>
        </g>
        <svg viewBox="0 0 15 15" width="100%" height="30px" preserveAspectRatio="xMaxYMin meet">
         <g id="arrow_out" transform="scale(0.3 0.3)">
          <a xlink:href="classgauri_1_1LayerStack__coll__graph_org.svg" target="_base">
           <rect id="button" ry="5" rx="5" y="6" x="6" height="38" width="38"
                fill="#f2f5e9" fill-opacity="0.5" stroke="#606060" stroke-width="1.0"/>
           <path id="arrow"
             d="M 11.500037,31.436501 C 11.940474,20.09759 22.043105,11.32322 32.158766,21.979434 L 37.068811,17.246167 C 37.068811,17.246167 37.088388,32 37.088388,32 L 22.160133,31.978069 C 22.160133,31.978069 26.997745,27.140456 26.997745,27.140456 C 18.528582,18.264221 13.291696,25.230495 11.500037,31.436501 z"
             style="fill:#404040;"/>
          </a>
         </g>
        </svg>
</svg>
