<?xml version="1.0" encoding="UTF-8" standalone="no"?>
<!DOCTYPE svg PUBLIC "-//W3C//DTD SVG 1.1//EN"
 "http://www.w3.org/Graphics/SVG/1.1/DTD/svg11.dtd">
<!-- Generated by graphviz version 2.43.0 (0)
 -->
<!-- Title: gauri::IndexBuffer Pages: 1 -->
<svg width="362pt" height="259pt"
 viewBox="0.00 0.00 362.00 259.00" xmlns="http://www.w3.org/2000/svg" xmlns:xlink="http://www.w3.org/1999/xlink">
<g id="graph0" class="graph" transform="scale(1 1) rotate(0) translate(4 255)">
<title>gauri::IndexBuffer</title>
<polygon fill="white" stroke="transparent" points="-4,4 -4,-255 358,-255 358,4 -4,4"/>
<!-- Node1 -->
<g id="node1" class="node">
<title>Node1</title>
<g id="a_node1"><a xlink:title=" ">
<polygon fill="#bfbfbf" stroke="black" points="0,-149.5 0,-250.5 354,-250.5 354,-149.5 0,-149.5"/>
<text text-anchor="middle" x="177" y="-238.5" font-family="Helvetica,sans-Serif" font-size="10.00">gauri::IndexBuffer</text>
<polyline fill="none" stroke="black" points="0,-231.5 354,-231.5 "/>
<text text-anchor="middle" x="177" y="-219.5" font-family="Helvetica,sans-Serif" font-size="10.00"> </text>
<polyline fill="none" stroke="black" points="0,-212.5 354,-212.5 "/>
<text text-anchor="start" x="8" y="-200.5" font-family="Helvetica,sans-Serif" font-size="10.00">+ virtual ~IndexBuffer()=default</text>
<text text-anchor="start" x="8" y="-189.5" font-family="Helvetica,sans-Serif" font-size="10.00">+ virtual void Bind() const =0</text>
<text text-anchor="start" x="8" y="-178.5" font-family="Helvetica,sans-Serif" font-size="10.00">+ virtual void Unbind() const =0</text>
<text text-anchor="start" x="8" y="-167.5" font-family="Helvetica,sans-Serif" font-size="10.00">+ virtual uint32_t GetCount() const =0</text>
<text text-anchor="start" x="8" y="-156.5" font-family="Helvetica,sans-Serif" font-size="10.00">+ static Ref&lt; IndexBuffer &gt; Create(uint32_t *indices, uint32_t count)</text>
</a>
</g>
</g>
<!-- Node2 -->
<g id="node2" class="node">
<title>Node2</title>
<g id="a_node2"><a xlink:href="classgauri_1_1OpenGLIndexBuffer.html" target="_top" xlink:title=" ">
<polygon fill="white" stroke="black" points="33,-0.5 33,-112.5 321,-112.5 321,-0.5 33,-0.5"/>
<text text-anchor="middle" x="177" y="-100.5" font-family="Helvetica,sans-Serif" font-size="10.00">gauri::OpenGLIndexBuffer</text>
<polyline fill="none" stroke="black" points="33,-93.5 321,-93.5 "/>
<text text-anchor="start" x="41" y="-81.5" font-family="Helvetica,sans-Serif" font-size="10.00">&#45; uint32_t m_RendererID</text>
<text text-anchor="start" x="41" y="-70.5" font-family="Helvetica,sans-Serif" font-size="10.00">&#45; uint32_t m_Count</text>
<polyline fill="none" stroke="black" points="33,-63.5 321,-63.5 "/>
<text text-anchor="start" x="41" y="-51.5" font-family="Helvetica,sans-Serif" font-size="10.00">+ OpenGLIndexBuffer(uint32_t *indices, uint32_t count)</text>
<text text-anchor="start" x="41" y="-40.5" font-family="Helvetica,sans-Serif" font-size="10.00">+ ~OpenGLIndexBuffer() override</text>
<text text-anchor="start" x="41" y="-29.5" font-family="Helvetica,sans-Serif" font-size="10.00">+ void Bind() const override</text>
<text text-anchor="start" x="41" y="-18.5" font-family="Helvetica,sans-Serif" font-size="10.00">+ void Unbind() const override</text>
<text text-anchor="start" x="41" y="-7.5" font-family="Helvetica,sans-Serif" font-size="10.00">+ uint32_t GetCount() const override</text>
</a>
</g>
</g>
<!-- Node1&#45;&gt;Node2 -->
<g id="edge1" class="edge">
<title>Node1&#45;&gt;Node2</title>
<path fill="none" stroke="midnightblue" d="M177,-139.01C177,-130.29 177,-121.34 177,-112.72"/>
<polygon fill="none" stroke="midnightblue" points="173.5,-139.11 177,-149.11 180.5,-139.11 173.5,-139.11"/>
</g>
</g>
</svg>
