<?xml version="1.0" encoding="UTF-8" standalone="no"?>
<!DOCTYPE svg PUBLIC "-//W3C//DTD SVG 1.1//EN"
 "http://www.w3.org/Graphics/SVG/1.1/DTD/svg11.dtd">
<!-- Generated by graphviz version 2.43.0 (0)
 -->
<!-- Title: gauri::EditorCamera Pages: 1 -->
<svg width="675pt" height="672pt"
 viewBox="0.00 0.00 675.00 672.00" xmlns="http://www.w3.org/2000/svg" xmlns:xlink="http://www.w3.org/1999/xlink">
<g id="graph0" class="graph" transform="scale(1 1) rotate(0) translate(4 668)">
<title>gauri::EditorCamera</title>
<polygon fill="white" stroke="transparent" points="-4,4 -4,-668 671,-668 671,4 -4,4"/>
<!-- Node1 -->
<g id="node1" class="node">
<title>Node1</title>
<g id="a_node1"><a xlink:title=" ">
<polygon fill="#bfbfbf" stroke="black" points="148.5,-0.5 148.5,-332.5 513.5,-332.5 513.5,-0.5 148.5,-0.5"/>
<text text-anchor="middle" x="331" y="-320.5" font-family="Helvetica,sans-Serif" font-size="10.00">gauri::EditorCamera</text>
<polyline fill="none" stroke="black" points="148.5,-313.5 513.5,-313.5 "/>
<text text-anchor="middle" x="331" y="-301.5" font-family="Helvetica,sans-Serif" font-size="10.00"> </text>
<polyline fill="none" stroke="black" points="148.5,-294.5 513.5,-294.5 "/>
<text text-anchor="start" x="156.5" y="-282.5" font-family="Helvetica,sans-Serif" font-size="10.00">+ EditorCamera()=default</text>
<text text-anchor="start" x="156.5" y="-271.5" font-family="Helvetica,sans-Serif" font-size="10.00">+ EditorCamera(float fov, float aspectRatio, float nearClip, float farClip)</text>
<text text-anchor="start" x="156.5" y="-260.5" font-family="Helvetica,sans-Serif" font-size="10.00">+ void OnUpdate(Timestep ts)</text>
<text text-anchor="start" x="156.5" y="-249.5" font-family="Helvetica,sans-Serif" font-size="10.00">+ void OnEvent(Event &amp;e)</text>
<text text-anchor="start" x="156.5" y="-238.5" font-family="Helvetica,sans-Serif" font-size="10.00">+ float GetDistance() const</text>
<text text-anchor="start" x="156.5" y="-227.5" font-family="Helvetica,sans-Serif" font-size="10.00">+ void SetDistance(float distance)</text>
<text text-anchor="start" x="156.5" y="-216.5" font-family="Helvetica,sans-Serif" font-size="10.00">+ void SetViewportSize(float width, float height)</text>
<text text-anchor="start" x="156.5" y="-205.5" font-family="Helvetica,sans-Serif" font-size="10.00">+ const glm::mat4 &amp; GetViewMatrix() const</text>
<text text-anchor="start" x="156.5" y="-194.5" font-family="Helvetica,sans-Serif" font-size="10.00">+ glm::mat4 GetViewProjection() const</text>
<text text-anchor="start" x="156.5" y="-183.5" font-family="Helvetica,sans-Serif" font-size="10.00">+ glm::vec3 GetUpDirection() const</text>
<text text-anchor="start" x="156.5" y="-172.5" font-family="Helvetica,sans-Serif" font-size="10.00">+ glm::vec3 GetRightDirection() const</text>
<text text-anchor="start" x="156.5" y="-161.5" font-family="Helvetica,sans-Serif" font-size="10.00">+ glm::vec3 GetForwardDirection() const</text>
<text text-anchor="start" x="156.5" y="-150.5" font-family="Helvetica,sans-Serif" font-size="10.00">+ const glm::vec3 &amp; GetPosition() const</text>
<text text-anchor="start" x="156.5" y="-139.5" font-family="Helvetica,sans-Serif" font-size="10.00">+ glm::quat GetOrientation() const</text>
<text text-anchor="start" x="156.5" y="-128.5" font-family="Helvetica,sans-Serif" font-size="10.00">+ float GetPitch() const</text>
<text text-anchor="start" x="156.5" y="-117.5" font-family="Helvetica,sans-Serif" font-size="10.00">+ float GetYaw() const</text>
<text text-anchor="start" x="156.5" y="-106.5" font-family="Helvetica,sans-Serif" font-size="10.00">&#45; void UpdateProjection()</text>
<text text-anchor="start" x="156.5" y="-95.5" font-family="Helvetica,sans-Serif" font-size="10.00">&#45; void UpdateView()</text>
<text text-anchor="start" x="156.5" y="-84.5" font-family="Helvetica,sans-Serif" font-size="10.00">&#45; bool OnMouseScroll(MouseScrolledEvent &amp;e)</text>
<text text-anchor="start" x="156.5" y="-73.5" font-family="Helvetica,sans-Serif" font-size="10.00">&#45; void MousePan(const glm::vec2 &amp;delta)</text>
<text text-anchor="start" x="156.5" y="-62.5" font-family="Helvetica,sans-Serif" font-size="10.00">&#45; void MouseRotate(const glm::vec2 &amp;delta)</text>
<text text-anchor="start" x="156.5" y="-51.5" font-family="Helvetica,sans-Serif" font-size="10.00">&#45; void MouseZoom(float delta)</text>
<text text-anchor="start" x="156.5" y="-40.5" font-family="Helvetica,sans-Serif" font-size="10.00">&#45; glm::vec3 CalculatePosition() const</text>
<text text-anchor="start" x="156.5" y="-29.5" font-family="Helvetica,sans-Serif" font-size="10.00">&#45; std::pair&lt; float, float &gt; PanSpeed() const</text>
<text text-anchor="start" x="156.5" y="-18.5" font-family="Helvetica,sans-Serif" font-size="10.00">&#45; float RotationSpeed() const</text>
<text text-anchor="start" x="156.5" y="-7.5" font-family="Helvetica,sans-Serif" font-size="10.00">&#45; float ZoomSpeed() const</text>
</a>
</g>
</g>
<!-- Node2 -->
<g id="node2" class="node">
<title>Node2</title>
<g id="a_node2"><a xlink:href="classgauri_1_1Camera.html" target="_top" xlink:title=" ">
<polygon fill="white" stroke="black" points="101,-468.5 101,-558.5 325,-558.5 325,-468.5 101,-468.5"/>
<text text-anchor="middle" x="213" y="-546.5" font-family="Helvetica,sans-Serif" font-size="10.00">gauri::Camera</text>
<polyline fill="none" stroke="black" points="101,-539.5 325,-539.5 "/>
<text text-anchor="middle" x="213" y="-527.5" font-family="Helvetica,sans-Serif" font-size="10.00"> </text>
<polyline fill="none" stroke="black" points="101,-520.5 325,-520.5 "/>
<text text-anchor="start" x="109" y="-508.5" font-family="Helvetica,sans-Serif" font-size="10.00">+ Camera()=default</text>
<text text-anchor="start" x="109" y="-497.5" font-family="Helvetica,sans-Serif" font-size="10.00">+ Camera(const glm::mat4 &amp;projection)</text>
<text text-anchor="start" x="109" y="-486.5" font-family="Helvetica,sans-Serif" font-size="10.00">+ virtual ~Camera()=default</text>
<text text-anchor="start" x="109" y="-475.5" font-family="Helvetica,sans-Serif" font-size="10.00">+ const glm::mat4 &amp; GetProjection() const</text>
</a>
</g>
</g>
<!-- Node2&#45;&gt;Node1 -->
<g id="edge1" class="edge">
<title>Node2&#45;&gt;Node1</title>
<path fill="none" stroke="midnightblue" d="M231.4,-458.7C243.09,-424.53 258.9,-378.3 274.48,-332.75"/>
<polygon fill="none" stroke="midnightblue" points="227.99,-457.86 228.06,-468.46 234.61,-460.13 227.99,-457.86"/>
</g>
<!-- Node3 -->
<g id="node3" class="node">
<title>Node3</title>
<g id="a_node3"><a xlink:title=" ">
<polygon fill="white" stroke="#bfbfbf" points="0,-606.5 0,-663.5 42,-663.5 42,-606.5 0,-606.5"/>
<text text-anchor="middle" x="21" y="-651.5" font-family="Helvetica,sans-Serif" font-size="10.00">mat4</text>
<polyline fill="none" stroke="#bfbfbf" points="0,-644.5 42,-644.5 "/>
<text text-anchor="middle" x="21" y="-632.5" font-family="Helvetica,sans-Serif" font-size="10.00"> </text>
<polyline fill="none" stroke="#bfbfbf" points="0,-625.5 42,-625.5 "/>
<text text-anchor="middle" x="21" y="-613.5" font-family="Helvetica,sans-Serif" font-size="10.00"> </text>
</a>
</g>
</g>
<!-- Node3&#45;&gt;Node1 -->
<g id="edge3" class="edge">
<title>Node3&#45;&gt;Node1</title>
<path fill="none" stroke="#404040" d="M12.75,-606.24C4.19,-572.16 -5.48,-513.31 14,-468 41.2,-404.74 88.98,-348.56 139.32,-302.38"/>
<polygon fill="none" stroke="#404040" points="139.51,-302.22 141.28,-295.23 148.42,-294.17 146.64,-301.16 139.51,-302.22"/>
<text text-anchor="middle" x="53" y="-511" font-family="Helvetica,sans-Serif" font-size="10.00"> &#45;m_ViewMatrix</text>
</g>
<!-- Node3&#45;&gt;Node2 -->
<g id="edge2" class="edge">
<title>Node3&#45;&gt;Node2</title>
<path fill="none" stroke="#404040" d="M42.28,-620.75C63.95,-607.27 98.92,-585.5 131.59,-565.17"/>
<polygon fill="none" stroke="#404040" points="131.9,-564.97 134.88,-558.41 142.09,-558.63 139.11,-565.2 131.9,-564.97"/>
<text text-anchor="middle" x="150" y="-580" font-family="Helvetica,sans-Serif" font-size="10.00"> #m_Projection</text>
</g>
<!-- Node4 -->
<g id="node4" class="node">
<title>Node4</title>
<g id="a_node4"><a xlink:title=" ">
<polygon fill="white" stroke="#bfbfbf" points="343,-485 343,-542 381,-542 381,-485 343,-485"/>
<text text-anchor="middle" x="362" y="-530" font-family="Helvetica,sans-Serif" font-size="10.00">float</text>
<polyline fill="none" stroke="#bfbfbf" points="343,-523 381,-523 "/>
<text text-anchor="middle" x="362" y="-511" font-family="Helvetica,sans-Serif" font-size="10.00"> </text>
<polyline fill="none" stroke="#bfbfbf" points="343,-504 381,-504 "/>
<text text-anchor="middle" x="362" y="-492" font-family="Helvetica,sans-Serif" font-size="10.00"> </text>
</a>
</g>
</g>
<!-- Node4&#45;&gt;Node1 -->
<g id="edge4" class="edge">
<title>Node4&#45;&gt;Node1</title>
<path fill="none" stroke="#404040" d="M345.47,-484.85C340.07,-474.32 334.75,-461.97 332,-450 324.32,-416.54 320.77,-380.26 319.66,-345.2"/>
<polygon fill="none" stroke="#404040" points="319.65,-344.85 315.51,-338.95 319.36,-332.85 323.51,-338.76 319.65,-344.85"/>
<text text-anchor="middle" x="379.5" y="-442" font-family="Helvetica,sans-Serif" font-size="10.00"> &#45;m_AspectRatio</text>
<text text-anchor="middle" x="379.5" y="-431" font-family="Helvetica,sans-Serif" font-size="10.00">&#45;m_Distance</text>
<text text-anchor="middle" x="379.5" y="-420" font-family="Helvetica,sans-Serif" font-size="10.00">&#45;m_FarClip</text>
<text text-anchor="middle" x="379.5" y="-409" font-family="Helvetica,sans-Serif" font-size="10.00">&#45;m_Fov</text>
<text text-anchor="middle" x="379.5" y="-398" font-family="Helvetica,sans-Serif" font-size="10.00">&#45;m_NearClip</text>
<text text-anchor="middle" x="379.5" y="-387" font-family="Helvetica,sans-Serif" font-size="10.00">&#45;m_Pitch</text>
<text text-anchor="middle" x="379.5" y="-376" font-family="Helvetica,sans-Serif" font-size="10.00">&#45;m_ViewportHeight</text>
<text text-anchor="middle" x="379.5" y="-365" font-family="Helvetica,sans-Serif" font-size="10.00">&#45;m_ViewportWidth</text>
<text text-anchor="middle" x="379.5" y="-354" font-family="Helvetica,sans-Serif" font-size="10.00">&#45;m_Yaw</text>
</g>
<!-- Node5 -->
<g id="node5" class="node">
<title>Node5</title>
<g id="a_node5"><a xlink:title=" ">
<polygon fill="white" stroke="#bfbfbf" points="429,-485 429,-542 469,-542 469,-485 429,-485"/>
<text text-anchor="middle" x="449" y="-530" font-family="Helvetica,sans-Serif" font-size="10.00">vec2</text>
<polyline fill="none" stroke="#bfbfbf" points="429,-523 469,-523 "/>
<text text-anchor="middle" x="449" y="-511" font-family="Helvetica,sans-Serif" font-size="10.00"> </text>
<polyline fill="none" stroke="#bfbfbf" points="429,-504 469,-504 "/>
<text text-anchor="middle" x="449" y="-492" font-family="Helvetica,sans-Serif" font-size="10.00"> </text>
</a>
</g>
</g>
<!-- Node5&#45;&gt;Node1 -->
<g id="edge5" class="edge">
<title>Node5&#45;&gt;Node1</title>
<path fill="none" stroke="#404040" d="M448.12,-484.72C446.43,-452.02 441.49,-396.43 427,-351 426.27,-348.72 425.52,-346.43 424.74,-344.15"/>
<polygon fill="none" stroke="#404040" points="424.68,-343.98 418.89,-339.67 420.64,-332.68 426.43,-336.98 424.68,-343.98"/>
<text text-anchor="middle" x="505.5" y="-398" font-family="Helvetica,sans-Serif" font-size="10.00"> &#45;m_InitialMousePosition</text>
</g>
<!-- Node6 -->
<g id="node6" class="node">
<title>Node6</title>
<g id="a_node6"><a xlink:title=" ">
<polygon fill="white" stroke="#bfbfbf" points="573,-485 573,-542 613,-542 613,-485 573,-485"/>
<text text-anchor="middle" x="593" y="-530" font-family="Helvetica,sans-Serif" font-size="10.00">vec3</text>
<polyline fill="none" stroke="#bfbfbf" points="573,-523 613,-523 "/>
<text text-anchor="middle" x="593" y="-511" font-family="Helvetica,sans-Serif" font-size="10.00"> </text>
<polyline fill="none" stroke="#bfbfbf" points="573,-504 613,-504 "/>
<text text-anchor="middle" x="593" y="-492" font-family="Helvetica,sans-Serif" font-size="10.00"> </text>
</a>
</g>
</g>
<!-- Node6&#45;&gt;Node1 -->
<g id="edge6" class="edge">
<title>Node6&#45;&gt;Node1</title>
<path fill="none" stroke="#404040" d="M595.16,-484.74C596.49,-450.83 594.43,-392.82 570,-351 557.3,-329.26 540.93,-309.21 522.72,-290.98"/>
<polygon fill="none" stroke="#404040" points="522.25,-290.54 515.16,-289.23 513.64,-282.18 520.73,-283.49 522.25,-290.54"/>
<text text-anchor="middle" x="630.5" y="-403.5" font-family="Helvetica,sans-Serif" font-size="10.00"> &#45;m_FocalPoint</text>
<text text-anchor="middle" x="630.5" y="-392.5" font-family="Helvetica,sans-Serif" font-size="10.00">&#45;m_Position</text>
</g>
</g>
</svg>
