<?xml version="1.0" encoding="UTF-8" standalone="no"?>
<!DOCTYPE svg PUBLIC "-//W3C//DTD SVG 1.1//EN"
 "http://www.w3.org/Graphics/SVG/1.1/DTD/svg11.dtd">
<!-- Generated by graphviz version 2.43.0 (0)
 -->
<!-- Title: gauri::Application Pages: 1 -->
<svg width="869pt" height="903pt"
 viewBox="0.00 0.00 868.50 903.00" xmlns="http://www.w3.org/2000/svg" xmlns:xlink="http://www.w3.org/1999/xlink">
<g id="graph0" class="graph" transform="scale(1 1) rotate(0) translate(4 899)">
<title>gauri::Application</title>
<polygon fill="white" stroke="transparent" points="-4,4 -4,-899 864.5,-899 864.5,4 -4,4"/>
<!-- Node1 -->
<g id="node1" class="node">
<title>Node1</title>
<g id="a_node1"><a xlink:title=" ">
<polygon fill="#bfbfbf" stroke="black" points="365,-0.5 365,-167.5 620,-167.5 620,-0.5 365,-0.5"/>
<text text-anchor="middle" x="492.5" y="-155.5" font-family="Helvetica,sans-Serif" font-size="10.00">gauri::Application</text>
<polyline fill="none" stroke="black" points="365,-148.5 620,-148.5 "/>
<text text-anchor="middle" x="492.5" y="-136.5" font-family="Helvetica,sans-Serif" font-size="10.00"> </text>
<polyline fill="none" stroke="black" points="365,-129.5 620,-129.5 "/>
<text text-anchor="start" x="373" y="-117.5" font-family="Helvetica,sans-Serif" font-size="10.00">+ Application()</text>
<text text-anchor="start" x="373" y="-106.5" font-family="Helvetica,sans-Serif" font-size="10.00">+ virtual ~Application()</text>
<text text-anchor="start" x="373" y="-95.5" font-family="Helvetica,sans-Serif" font-size="10.00">+ void Run()</text>
<text text-anchor="start" x="373" y="-84.5" font-family="Helvetica,sans-Serif" font-size="10.00">+ void OnEvent(Event &amp;e)</text>
<text text-anchor="start" x="373" y="-73.5" font-family="Helvetica,sans-Serif" font-size="10.00">+ void PushLayer(Layer *layer)</text>
<text text-anchor="start" x="373" y="-62.5" font-family="Helvetica,sans-Serif" font-size="10.00">+ void PushOverlay(Layer *overlay)</text>
<text text-anchor="start" x="373" y="-51.5" font-family="Helvetica,sans-Serif" font-size="10.00">+ Window &amp; GetWindow()</text>
<text text-anchor="start" x="373" y="-40.5" font-family="Helvetica,sans-Serif" font-size="10.00">+ void Close()</text>
<text text-anchor="start" x="373" y="-29.5" font-family="Helvetica,sans-Serif" font-size="10.00">+ static Application &amp; Get()</text>
<text text-anchor="start" x="373" y="-18.5" font-family="Helvetica,sans-Serif" font-size="10.00">&#45; bool OnWindowClose(WindowCloseEvent &amp;e)</text>
<text text-anchor="start" x="373" y="-7.5" font-family="Helvetica,sans-Serif" font-size="10.00">&#45; bool OnWindowResize(WindowResizeEvent &amp;e)</text>
</a>
</g>
</g>
<!-- Node1&#45;&gt;Node1 -->
<g id="edge14" class="edge">
<title>Node1&#45;&gt;Node1</title>
<path fill="none" stroke="#404040" d="M620.19,-100.39C631.16,-96.9 638,-91.44 638,-84 638,-79.58 635.59,-75.86 631.33,-72.84"/>
<polygon fill="none" stroke="#404040" points="631.06,-72.71 623.93,-73.78 620.19,-67.61 627.33,-66.54 631.06,-72.71"/>
<text text-anchor="middle" x="667.5" y="-81.5" font-family="Helvetica,sans-Serif" font-size="10.00"> &#45;s_Instance</text>
</g>
<!-- Node2 -->
<g id="node2" class="node">
<title>Node2</title>
<g id="a_node2"><a xlink:href="classgauri_1_1LayerStack.html" target="_top" xlink:title=" ">
<polygon fill="white" stroke="black" points="489,-226.5 489,-360.5 706,-360.5 706,-226.5 489,-226.5"/>
<text text-anchor="middle" x="597.5" y="-348.5" font-family="Helvetica,sans-Serif" font-size="10.00">gauri::LayerStack</text>
<polyline fill="none" stroke="black" points="489,-341.5 706,-341.5 "/>
<text text-anchor="middle" x="597.5" y="-329.5" font-family="Helvetica,sans-Serif" font-size="10.00"> </text>
<polyline fill="none" stroke="black" points="489,-322.5 706,-322.5 "/>
<text text-anchor="start" x="497" y="-310.5" font-family="Helvetica,sans-Serif" font-size="10.00">+ LayerStack()=default</text>
<text text-anchor="start" x="497" y="-299.5" font-family="Helvetica,sans-Serif" font-size="10.00">+ ~LayerStack()</text>
<text text-anchor="start" x="497" y="-288.5" font-family="Helvetica,sans-Serif" font-size="10.00">+ void PushLayer(Layer *layer)</text>
<text text-anchor="start" x="497" y="-277.5" font-family="Helvetica,sans-Serif" font-size="10.00">+ void PushOverlay(Layer *overlay)</text>
<text text-anchor="start" x="497" y="-266.5" font-family="Helvetica,sans-Serif" font-size="10.00">+ void PopLayer(Layer *layer)</text>
<text text-anchor="start" x="497" y="-255.5" font-family="Helvetica,sans-Serif" font-size="10.00">+ void PopOverlay(Layer *overlay)</text>
<text text-anchor="start" x="497" y="-244.5" font-family="Helvetica,sans-Serif" font-size="10.00">+ std::vector&lt; Layer * &gt;::iterator begin()</text>
<text text-anchor="start" x="497" y="-233.5" font-family="Helvetica,sans-Serif" font-size="10.00">+ std::vector&lt; Layer * &gt;::iterator end()</text>
</a>
</g>
</g>
<!-- Node2&#45;&gt;Node1 -->
<g id="edge1" class="edge">
<title>Node2&#45;&gt;Node1</title>
<path fill="none" stroke="#404040" d="M563.99,-226.28C556.33,-211.15 548.05,-194.79 539.94,-178.75"/>
<polygon fill="none" stroke="#404040" points="539.77,-178.42 533.5,-174.87 534.36,-167.71 540.63,-171.26 539.77,-178.42"/>
<text text-anchor="middle" x="591.5" y="-194.5" font-family="Helvetica,sans-Serif" font-size="10.00"> &#45;m_LayerStack</text>
</g>
<!-- Node3 -->
<g id="node3" class="node">
<title>Node3</title>
<g id="a_node3"><a xlink:title=" ">
<polygon fill="white" stroke="#bfbfbf" points="439.5,-455.5 439.5,-512.5 495.5,-512.5 495.5,-455.5 439.5,-455.5"/>
<text text-anchor="middle" x="467.5" y="-500.5" font-family="Helvetica,sans-Serif" font-size="10.00">uint32_t</text>
<polyline fill="none" stroke="#bfbfbf" points="439.5,-493.5 495.5,-493.5 "/>
<text text-anchor="middle" x="467.5" y="-481.5" font-family="Helvetica,sans-Serif" font-size="10.00"> </text>
<polyline fill="none" stroke="#bfbfbf" points="439.5,-474.5 495.5,-474.5 "/>
<text text-anchor="middle" x="467.5" y="-462.5" font-family="Helvetica,sans-Serif" font-size="10.00"> </text>
</a>
</g>
</g>
<!-- Node3&#45;&gt;Node2 -->
<g id="edge2" class="edge">
<title>Node3&#45;&gt;Node2</title>
<path fill="none" stroke="#404040" d="M465.5,-455.45C465.17,-433.3 467.69,-402.16 481.5,-379 483.29,-375.99 485.24,-373.06 487.32,-370.2"/>
<polygon fill="none" stroke="#404040" points="487.36,-370.15 487.98,-362.97 494.85,-360.78 494.23,-367.96 487.36,-370.15"/>
<text text-anchor="middle" x="533.5" y="-405.5" font-family="Helvetica,sans-Serif" font-size="10.00"> &#45;m_LayerInsertIndex</text>
</g>
<!-- Node4 -->
<g id="node4" class="node">
<title>Node4</title>
<g id="a_node4"><a xlink:title=" ">
<polygon fill="white" stroke="#bfbfbf" points="516,-455.5 516,-512.5 673,-512.5 673,-455.5 516,-455.5"/>
<text text-anchor="middle" x="594.5" y="-500.5" font-family="Helvetica,sans-Serif" font-size="10.00">std::vector&lt; gauri::Layer * &gt;</text>
<polyline fill="none" stroke="#bfbfbf" points="516,-493.5 673,-493.5 "/>
<text text-anchor="middle" x="594.5" y="-481.5" font-family="Helvetica,sans-Serif" font-size="10.00"> </text>
<polyline fill="none" stroke="#bfbfbf" points="516,-474.5 673,-474.5 "/>
<text text-anchor="middle" x="594.5" y="-462.5" font-family="Helvetica,sans-Serif" font-size="10.00"> </text>
</a>
</g>
</g>
<!-- Node4&#45;&gt;Node2 -->
<g id="edge3" class="edge">
<title>Node4&#45;&gt;Node2</title>
<path fill="none" stroke="#404040" d="M591.7,-455.3C591.2,-449.27 590.76,-442.93 590.5,-437 589.38,-411.25 589.44,-404.76 590.5,-379 590.58,-377.07 590.67,-375.12 590.77,-373.14"/>
<polygon fill="none" stroke="#404040" points="590.78,-372.87 587.14,-366.65 591.48,-360.89 595.13,-367.11 590.78,-372.87"/>
<text text-anchor="middle" x="618" y="-405.5" font-family="Helvetica,sans-Serif" font-size="10.00"> &#45;m_Layers</text>
</g>
<!-- Node5 -->
<g id="node5" class="node">
<title>Node5</title>
<g id="a_node5"><a xlink:href="classgauri_1_1Layer.html" target="_top" xlink:title=" ">
<polygon fill="white" stroke="black" points="154,-560.5 154,-694.5 377,-694.5 377,-560.5 154,-560.5"/>
<text text-anchor="middle" x="265.5" y="-682.5" font-family="Helvetica,sans-Serif" font-size="10.00">gauri::Layer</text>
<polyline fill="none" stroke="black" points="154,-675.5 377,-675.5 "/>
<text text-anchor="middle" x="265.5" y="-663.5" font-family="Helvetica,sans-Serif" font-size="10.00"> </text>
<polyline fill="none" stroke="black" points="154,-656.5 377,-656.5 "/>
<text text-anchor="start" x="162" y="-644.5" font-family="Helvetica,sans-Serif" font-size="10.00">+ Layer(const std::string &amp;name=&quot;Layer&quot;)</text>
<text text-anchor="start" x="162" y="-633.5" font-family="Helvetica,sans-Serif" font-size="10.00">+ virtual ~Layer()</text>
<text text-anchor="start" x="162" y="-622.5" font-family="Helvetica,sans-Serif" font-size="10.00">+ virtual void OnAttach()</text>
<text text-anchor="start" x="162" y="-611.5" font-family="Helvetica,sans-Serif" font-size="10.00">+ virtual void OnDetach()</text>
<text text-anchor="start" x="162" y="-600.5" font-family="Helvetica,sans-Serif" font-size="10.00">+ virtual void OnUpdate(Timestep ts)</text>
<text text-anchor="start" x="162" y="-589.5" font-family="Helvetica,sans-Serif" font-size="10.00">+ virtual void OnImGuiRender()</text>
<text text-anchor="start" x="162" y="-578.5" font-family="Helvetica,sans-Serif" font-size="10.00">+ virtual void OnEvent(Event &amp;)</text>
<text text-anchor="start" x="162" y="-567.5" font-family="Helvetica,sans-Serif" font-size="10.00">+ const std::string &amp; GetName() const</text>
</a>
</g>
</g>
<!-- Node5&#45;&gt;Node4 -->
<g id="edge4" class="edge">
<title>Node5&#45;&gt;Node4</title>
<path fill="none" stroke="#404040" d="M377.34,-578.4C424.1,-558.29 477.2,-535.45 519.19,-517.39"/>
<polygon fill="none" stroke="#404040" points="519.42,-517.29 523.35,-511.25 530.44,-512.55 526.51,-518.6 519.42,-517.29"/>
<text text-anchor="middle" x="508.5" y="-534" font-family="Helvetica,sans-Serif" font-size="10.00"> +elements</text>
</g>
<!-- Node15 -->
<g id="node15" class="node">
<title>Node15</title>
<g id="a_node15"><a xlink:href="classgauri_1_1ImGuiLayer.html" target="_top" xlink:title=" ">
<polygon fill="white" stroke="black" points="0,-237.5 0,-349.5 151,-349.5 151,-237.5 0,-237.5"/>
<text text-anchor="middle" x="75.5" y="-337.5" font-family="Helvetica,sans-Serif" font-size="10.00">gauri::ImGuiLayer</text>
<polyline fill="none" stroke="black" points="0,-330.5 151,-330.5 "/>
<text text-anchor="middle" x="75.5" y="-318.5" font-family="Helvetica,sans-Serif" font-size="10.00"> </text>
<polyline fill="none" stroke="black" points="0,-311.5 151,-311.5 "/>
<text text-anchor="start" x="8" y="-299.5" font-family="Helvetica,sans-Serif" font-size="10.00">+ ImGuiLayer()</text>
<text text-anchor="start" x="8" y="-288.5" font-family="Helvetica,sans-Serif" font-size="10.00">+ ~ImGuiLayer() override</text>
<text text-anchor="start" x="8" y="-277.5" font-family="Helvetica,sans-Serif" font-size="10.00">+ void OnAttach() override</text>
<text text-anchor="start" x="8" y="-266.5" font-family="Helvetica,sans-Serif" font-size="10.00">+ void OnDetach() override</text>
<text text-anchor="start" x="8" y="-255.5" font-family="Helvetica,sans-Serif" font-size="10.00">+ void Begin()</text>
<text text-anchor="start" x="8" y="-244.5" font-family="Helvetica,sans-Serif" font-size="10.00">+ void End()</text>
</a>
</g>
</g>
<!-- Node5&#45;&gt;Node15 -->
<g id="edge18" class="edge">
<title>Node5&#45;&gt;Node15</title>
<path fill="none" stroke="midnightblue" d="M179.14,-552.98C147.12,-520.79 113.9,-480.45 94.5,-437 82.34,-409.77 77.39,-376.91 75.57,-349.61"/>
<polygon fill="none" stroke="midnightblue" points="176.81,-555.6 186.38,-560.14 181.73,-550.62 176.81,-555.6"/>
</g>
<!-- Node6 -->
<g id="node6" class="node">
<title>Node6</title>
<g id="a_node6"><a xlink:title=" ">
<polygon fill="white" stroke="#bfbfbf" points="233,-742.5 233,-799.5 298,-799.5 298,-742.5 233,-742.5"/>
<text text-anchor="middle" x="265.5" y="-787.5" font-family="Helvetica,sans-Serif" font-size="10.00">std::string</text>
<polyline fill="none" stroke="#bfbfbf" points="233,-780.5 298,-780.5 "/>
<text text-anchor="middle" x="265.5" y="-768.5" font-family="Helvetica,sans-Serif" font-size="10.00"> </text>
<polyline fill="none" stroke="#bfbfbf" points="233,-761.5 298,-761.5 "/>
<text text-anchor="middle" x="265.5" y="-749.5" font-family="Helvetica,sans-Serif" font-size="10.00"> </text>
</a>
</g>
</g>
<!-- Node6&#45;&gt;Node5 -->
<g id="edge5" class="edge">
<title>Node6&#45;&gt;Node5</title>
<path fill="none" stroke="#404040" d="M265.5,-742.38C265.5,-732.02 265.5,-719.66 265.5,-706.97"/>
<polygon fill="none" stroke="#404040" points="265.5,-706.75 261.5,-700.75 265.5,-694.75 269.5,-700.75 265.5,-706.75"/>
<text text-anchor="middle" x="309.5" y="-716" font-family="Helvetica,sans-Serif" font-size="10.00"> #m_DebugName</text>
</g>
<!-- Node7 -->
<g id="node7" class="node">
<title>Node7</title>
<g id="a_node7"><a xlink:title=" ">
<polygon fill="white" stroke="#bfbfbf" points="195,-837.5 195,-894.5 336,-894.5 336,-837.5 195,-837.5"/>
<text text-anchor="middle" x="265.5" y="-882.5" font-family="Helvetica,sans-Serif" font-size="10.00">std::basic_string&lt; Char &gt;</text>
<polyline fill="none" stroke="#bfbfbf" points="195,-875.5 336,-875.5 "/>
<text text-anchor="middle" x="265.5" y="-863.5" font-family="Helvetica,sans-Serif" font-size="10.00"> </text>
<polyline fill="none" stroke="#bfbfbf" points="195,-856.5 336,-856.5 "/>
<text text-anchor="middle" x="265.5" y="-844.5" font-family="Helvetica,sans-Serif" font-size="10.00"> </text>
</a>
</g>
</g>
<!-- Node7&#45;&gt;Node6 -->
<g id="edge6" class="edge">
<title>Node7&#45;&gt;Node6</title>
<path fill="none" stroke="midnightblue" d="M265.5,-827.24C265.5,-818.03 265.5,-808.35 265.5,-799.71"/>
<polygon fill="none" stroke="midnightblue" points="262,-827.35 265.5,-837.35 269,-827.35 262,-827.35"/>
</g>
<!-- Node8 -->
<g id="node8" class="node">
<title>Node8</title>
<g id="a_node8"><a xlink:title=" ">
<polygon fill="white" stroke="#bfbfbf" points="555,-599 555,-656 652,-656 652,-599 555,-599"/>
<text text-anchor="middle" x="603.5" y="-644" font-family="Helvetica,sans-Serif" font-size="10.00">std::vector&lt; T &gt;</text>
<polyline fill="none" stroke="#bfbfbf" points="555,-637 652,-637 "/>
<text text-anchor="middle" x="603.5" y="-625" font-family="Helvetica,sans-Serif" font-size="10.00"> </text>
<polyline fill="none" stroke="#bfbfbf" points="555,-618 652,-618 "/>
<text text-anchor="middle" x="603.5" y="-606" font-family="Helvetica,sans-Serif" font-size="10.00"> </text>
</a>
</g>
</g>
<!-- Node8&#45;&gt;Node4 -->
<g id="edge7" class="edge">
<title>Node8&#45;&gt;Node4</title>
<path fill="none" stroke="orange" d="M601.1,-588.71C599.57,-564.73 597.63,-534.25 596.25,-512.55"/>
<polygon fill="orange" stroke="orange" points="597.62,-589.12 601.74,-598.88 604.6,-588.68 597.62,-589.12"/>
<text text-anchor="middle" x="643.5" y="-534" font-family="Helvetica,sans-Serif" font-size="10.00"> &lt; gauri::Layer * &gt;</text>
</g>
<!-- Node9 -->
<g id="node9" class="node">
<title>Node9</title>
<g id="a_node9"><a xlink:title=" ">
<polygon fill="white" stroke="#bfbfbf" points="657,-742.5 657,-799.5 686,-799.5 686,-742.5 657,-742.5"/>
<text text-anchor="middle" x="671.5" y="-787.5" font-family="Helvetica,sans-Serif" font-size="10.00">T</text>
<polyline fill="none" stroke="#bfbfbf" points="657,-780.5 686,-780.5 "/>
<text text-anchor="middle" x="671.5" y="-768.5" font-family="Helvetica,sans-Serif" font-size="10.00"> </text>
<polyline fill="none" stroke="#bfbfbf" points="657,-761.5 686,-761.5 "/>
<text text-anchor="middle" x="671.5" y="-749.5" font-family="Helvetica,sans-Serif" font-size="10.00"> </text>
</a>
</g>
</g>
<!-- Node9&#45;&gt;Node8 -->
<g id="edge8" class="edge">
<title>Node9&#45;&gt;Node8</title>
<path fill="none" stroke="#404040" d="M656.85,-747.46C652.33,-740.11 647.49,-731.83 643.5,-724 634.23,-705.83 625.32,-685 618.27,-667.44"/>
<polygon fill="none" stroke="#404040" points="618.22,-667.32 612.3,-663.21 613.81,-656.16 619.74,-660.27 618.22,-667.32"/>
<text text-anchor="middle" x="672.5" y="-716" font-family="Helvetica,sans-Serif" font-size="10.00"> +elements</text>
</g>
<!-- Node13 -->
<g id="node13" class="node">
<title>Node13</title>
<g id="a_node13"><a xlink:title=" ">
<polygon fill="white" stroke="#bfbfbf" points="682.5,-599 682.5,-656 800.5,-656 800.5,-599 682.5,-599"/>
<text text-anchor="middle" x="741.5" y="-644" font-family="Helvetica,sans-Serif" font-size="10.00">std::unique_ptr&lt; T &gt;</text>
<polyline fill="none" stroke="#bfbfbf" points="682.5,-637 800.5,-637 "/>
<text text-anchor="middle" x="741.5" y="-625" font-family="Helvetica,sans-Serif" font-size="10.00"> </text>
<polyline fill="none" stroke="#bfbfbf" points="682.5,-618 800.5,-618 "/>
<text text-anchor="start" x="690.5" y="-606" font-family="Helvetica,sans-Serif" font-size="10.00">+ T * operator&#45;&gt;()</text>
</a>
</g>
</g>
<!-- Node9&#45;&gt;Node13 -->
<g id="edge13" class="edge">
<title>Node9&#45;&gt;Node13</title>
<path fill="none" stroke="#404040" d="M686.06,-749.42C691.26,-741.64 696.95,-732.59 701.5,-724 711.05,-705.98 719.99,-685.17 726.99,-667.58"/>
<polygon fill="none" stroke="#404040" points="727.04,-667.45 725.5,-660.41 731.4,-656.28 732.95,-663.32 727.04,-667.45"/>
<text text-anchor="middle" x="719" y="-716" font-family="Helvetica,sans-Serif" font-size="10.00"> +ptr</text>
</g>
<!-- Node10 -->
<g id="node10" class="node">
<title>Node10</title>
<g id="a_node10"><a xlink:href="classgauri_1_1Timestep.html" target="_top" xlink:title=" ">
<polygon fill="white" stroke="black" points="304,-248.5 304,-338.5 471,-338.5 471,-248.5 304,-248.5"/>
<text text-anchor="middle" x="387.5" y="-326.5" font-family="Helvetica,sans-Serif" font-size="10.00">gauri::Timestep</text>
<polyline fill="none" stroke="black" points="304,-319.5 471,-319.5 "/>
<text text-anchor="middle" x="387.5" y="-307.5" font-family="Helvetica,sans-Serif" font-size="10.00"> </text>
<polyline fill="none" stroke="black" points="304,-300.5 471,-300.5 "/>
<text text-anchor="start" x="312" y="-288.5" font-family="Helvetica,sans-Serif" font-size="10.00">+ Timestep(float time=0.0f)</text>
<text text-anchor="start" x="312" y="-277.5" font-family="Helvetica,sans-Serif" font-size="10.00">+ operator float() const</text>
<text text-anchor="start" x="312" y="-266.5" font-family="Helvetica,sans-Serif" font-size="10.00">+ float GetSeconds() const</text>
<text text-anchor="start" x="312" y="-255.5" font-family="Helvetica,sans-Serif" font-size="10.00">+ float GetMilliseconds() const</text>
</a>
</g>
</g>
<!-- Node10&#45;&gt;Node1 -->
<g id="edge9" class="edge">
<title>Node10&#45;&gt;Node1</title>
<path fill="none" stroke="#404040" d="M409.77,-248.49C420.1,-228.08 432.8,-202.98 445.12,-178.64"/>
<polygon fill="none" stroke="#404040" points="445.14,-178.6 444.28,-171.44 450.55,-167.89 451.41,-175.05 445.14,-178.6"/>
<text text-anchor="middle" x="474.5" y="-194.5" font-family="Helvetica,sans-Serif" font-size="10.00"> &#45;m_Timestep</text>
</g>
<!-- Node11 -->
<g id="node11" class="node">
<title>Node11</title>
<g id="a_node11"><a xlink:title=" ">
<polygon fill="white" stroke="#bfbfbf" points="168.5,-455.5 168.5,-512.5 206.5,-512.5 206.5,-455.5 168.5,-455.5"/>
<text text-anchor="middle" x="187.5" y="-500.5" font-family="Helvetica,sans-Serif" font-size="10.00">float</text>
<polyline fill="none" stroke="#bfbfbf" points="168.5,-493.5 206.5,-493.5 "/>
<text text-anchor="middle" x="187.5" y="-481.5" font-family="Helvetica,sans-Serif" font-size="10.00"> </text>
<polyline fill="none" stroke="#bfbfbf" points="168.5,-474.5 206.5,-474.5 "/>
<text text-anchor="middle" x="187.5" y="-462.5" font-family="Helvetica,sans-Serif" font-size="10.00"> </text>
</a>
</g>
</g>
<!-- Node11&#45;&gt;Node1 -->
<g id="edge15" class="edge">
<title>Node11&#45;&gt;Node1</title>
<path fill="none" stroke="#404040" d="M184.94,-455.09C180.13,-396.48 172.25,-262.96 196.5,-226 232.07,-171.79 294.58,-137.9 353.03,-116.99"/>
<polygon fill="none" stroke="#404040" points="353.31,-116.89 357.68,-111.16 364.65,-112.98 360.29,-118.72 353.31,-116.89"/>
<text text-anchor="middle" x="245.5" y="-291" font-family="Helvetica,sans-Serif" font-size="10.00"> &#45;m_LastFrameTime</text>
</g>
<!-- Node11&#45;&gt;Node10 -->
<g id="edge10" class="edge">
<title>Node11&#45;&gt;Node10</title>
<path fill="none" stroke="#404040" d="M206.68,-464.93C235.19,-438.06 289.88,-386.51 331.68,-347.11"/>
<polygon fill="none" stroke="#404040" points="331.92,-346.88 333.54,-339.86 340.65,-338.65 339.03,-345.68 331.92,-346.88"/>
<text text-anchor="middle" x="317" y="-405.5" font-family="Helvetica,sans-Serif" font-size="10.00"> &#45;m_Time</text>
</g>
<!-- Node11&#45;&gt;Node15 -->
<g id="edge19" class="edge">
<title>Node11&#45;&gt;Node15</title>
<path fill="none" stroke="#404040" d="M168.34,-472.61C154.96,-464.49 137.58,-452.07 126.5,-437 110.1,-414.71 98.56,-386.64 90.66,-361.32"/>
<polygon fill="none" stroke="#404040" points="90.58,-361.04 85.04,-356.42 87.18,-349.53 92.72,-354.15 90.58,-361.04"/>
<text text-anchor="middle" x="150" y="-405.5" font-family="Helvetica,sans-Serif" font-size="10.00"> &#45;m_Time</text>
</g>
<!-- Node12 -->
<g id="node12" class="node">
<title>Node12</title>
<g id="a_node12"><a xlink:title=" ">
<polygon fill="white" stroke="#bfbfbf" points="654.5,-379.5 654.5,-436.5 836.5,-436.5 836.5,-379.5 654.5,-379.5"/>
<text text-anchor="middle" x="745.5" y="-424.5" font-family="Helvetica,sans-Serif" font-size="10.00">std::unique_ptr&lt; gauri::Window &gt;</text>
<polyline fill="none" stroke="#bfbfbf" points="654.5,-417.5 836.5,-417.5 "/>
<text text-anchor="start" x="662.5" y="-405.5" font-family="Helvetica,sans-Serif" font-size="10.00">+ gauri::Window ptr</text>
<polyline fill="none" stroke="#bfbfbf" points="654.5,-398.5 836.5,-398.5 "/>
<text text-anchor="start" x="662.5" y="-386.5" font-family="Helvetica,sans-Serif" font-size="10.00">+ gauri::Window * operator&#45;&gt;()</text>
</a>
</g>
</g>
<!-- Node12&#45;&gt;Node1 -->
<g id="edge11" class="edge">
<title>Node12&#45;&gt;Node1</title>
<path fill="none" stroke="#404040" d="M747.59,-379.35C749.07,-341.52 746.66,-272.98 715.5,-226 694.31,-194.05 663.14,-167.92 630.78,-147.22"/>
<polygon fill="none" stroke="#404040" points="630.45,-147.01 623.24,-147.25 620.25,-140.69 627.46,-140.45 630.45,-147.01"/>
<text text-anchor="middle" x="778" y="-291" font-family="Helvetica,sans-Serif" font-size="10.00"> &#45;m_Window</text>
</g>
<!-- Node13&#45;&gt;Node12 -->
<g id="edge12" class="edge">
<title>Node13&#45;&gt;Node12</title>
<path fill="none" stroke="orange" d="M742.19,-588.81C742.99,-545.44 744.28,-475.28 744.99,-436.67"/>
<polygon fill="orange" stroke="orange" points="738.69,-588.89 742.01,-598.95 745.69,-589.02 738.69,-588.89"/>
<text text-anchor="middle" x="790.5" y="-534" font-family="Helvetica,sans-Serif" font-size="10.00"> &lt; gauri::Window &gt;</text>
</g>
<!-- Node14 -->
<g id="node14" class="node">
<title>Node14</title>
<g id="a_node14"><a xlink:title=" ">
<polygon fill="white" stroke="#bfbfbf" points="821.5,-265 821.5,-322 859.5,-322 859.5,-265 821.5,-265"/>
<text text-anchor="middle" x="840.5" y="-310" font-family="Helvetica,sans-Serif" font-size="10.00">bool</text>
<polyline fill="none" stroke="#bfbfbf" points="821.5,-303 859.5,-303 "/>
<text text-anchor="middle" x="840.5" y="-291" font-family="Helvetica,sans-Serif" font-size="10.00"> </text>
<polyline fill="none" stroke="#bfbfbf" points="821.5,-284 859.5,-284 "/>
<text text-anchor="middle" x="840.5" y="-272" font-family="Helvetica,sans-Serif" font-size="10.00"> </text>
</a>
</g>
</g>
<!-- Node14&#45;&gt;Node1 -->
<g id="edge16" class="edge">
<title>Node14&#45;&gt;Node1</title>
<path fill="none" stroke="#404040" d="M830.15,-264.99C824.6,-252.34 816.94,-237.6 807.5,-226 789.32,-203.66 781.57,-200.19 756.5,-186 717.58,-163.96 672.91,-144.81 631.52,-129.29"/>
<polygon fill="none" stroke="#404040" points="631.48,-129.27 624.46,-130.95 620.22,-125.11 627.24,-123.44 631.48,-129.27"/>
<text text-anchor="middle" x="825.5" y="-200" font-family="Helvetica,sans-Serif" font-size="10.00"> &#45;m_IsRunning</text>
<text text-anchor="middle" x="825.5" y="-189" font-family="Helvetica,sans-Serif" font-size="10.00">&#45;m_Minimized</text>
</g>
<!-- Node15&#45;&gt;Node1 -->
<g id="edge17" class="edge">
<title>Node15&#45;&gt;Node1</title>
<path fill="none" stroke="#404040" d="M73.81,-237.37C76.01,-219.01 81.71,-199.75 94.5,-186 129.7,-148.17 252.68,-120.79 352.73,-104.16"/>
<polygon fill="none" stroke="#404040" points="352.97,-104.13 358.24,-99.21 364.81,-102.19 359.53,-107.11 352.97,-104.13"/>
<text text-anchor="middle" x="134" y="-194.5" font-family="Helvetica,sans-Serif" font-size="10.00"> &#45;m_ImGuiLayer</text>
</g>
</g>
</svg>
