<?xml version="1.0" encoding="UTF-8" standalone="no"?>
<!DOCTYPE svg PUBLIC "-//W3C//DTD SVG 1.1//EN"
 "http://www.w3.org/Graphics/SVG/1.1/DTD/svg11.dtd">
<!-- Generated by graphviz version 2.43.0 (0)
 -->
<!-- Title: gauri::OpenGLShader Pages: 1 -->
<svg width="825pt" height="562pt"
 viewBox="0.00 0.00 824.56 562.00" xmlns="http://www.w3.org/2000/svg" xmlns:xlink="http://www.w3.org/1999/xlink">
<g id="graph0" class="graph" transform="scale(1 1) rotate(0) translate(4 558)">
<title>gauri::OpenGLShader</title>
<polygon fill="white" stroke="transparent" points="-4,4 -4,-558 820.56,-558 820.56,4 -4,4"/>
<!-- Node1 -->
<g id="node1" class="node">
<title>Node1</title>
<g id="a_node1"><a xlink:title=" ">
<polygon fill="#bfbfbf" stroke="black" points="143.56,-0.5 143.56,-255.5 662.56,-255.5 662.56,-0.5 143.56,-0.5"/>
<text text-anchor="middle" x="403.06" y="-243.5" font-family="Helvetica,sans-Serif" font-size="10.00">gauri::OpenGLShader</text>
<polyline fill="none" stroke="black" points="143.56,-236.5 662.56,-236.5 "/>
<text text-anchor="middle" x="403.06" y="-224.5" font-family="Helvetica,sans-Serif" font-size="10.00"> </text>
<polyline fill="none" stroke="black" points="143.56,-217.5 662.56,-217.5 "/>
<text text-anchor="start" x="151.56" y="-205.5" font-family="Helvetica,sans-Serif" font-size="10.00">+ OpenGLShader(const std::string &amp;filepath)</text>
<text text-anchor="start" x="151.56" y="-194.5" font-family="Helvetica,sans-Serif" font-size="10.00">+ OpenGLShader(const std::string &amp;name, const std::string &amp;vertexSrc, const std::string &amp;fragmentSrc)</text>
<text text-anchor="start" x="151.56" y="-183.5" font-family="Helvetica,sans-Serif" font-size="10.00">+ ~OpenGLShader() override</text>
<text text-anchor="start" x="151.56" y="-172.5" font-family="Helvetica,sans-Serif" font-size="10.00">+ void Bind() const override</text>
<text text-anchor="start" x="151.56" y="-161.5" font-family="Helvetica,sans-Serif" font-size="10.00">+ void Unbind() const override</text>
<text text-anchor="start" x="151.56" y="-150.5" font-family="Helvetica,sans-Serif" font-size="10.00">+ void SetFloat3(const std::string &amp;name, const glm::vec3 &amp;value) override</text>
<text text-anchor="start" x="151.56" y="-139.5" font-family="Helvetica,sans-Serif" font-size="10.00">+ void SetFloat4(const std::string &amp;name, const glm::vec4 &amp;value) override</text>
<text text-anchor="start" x="151.56" y="-128.5" font-family="Helvetica,sans-Serif" font-size="10.00">+ void SetMat4(const std::string &amp;name, const glm::mat4 &amp;value) override</text>
<text text-anchor="start" x="151.56" y="-117.5" font-family="Helvetica,sans-Serif" font-size="10.00">+ const std::string &amp; GetName() const override</text>
<text text-anchor="start" x="151.56" y="-106.5" font-family="Helvetica,sans-Serif" font-size="10.00">+ void UploadUniformInt(const std::string &amp;name, int value)</text>
<text text-anchor="start" x="151.56" y="-95.5" font-family="Helvetica,sans-Serif" font-size="10.00">+ void UploadUniformFloat(const std::string &amp;name, float value)</text>
<text text-anchor="start" x="151.56" y="-84.5" font-family="Helvetica,sans-Serif" font-size="10.00">+ void UploadUniformFloat2(const std::string &amp;name, const glm::vec2 &amp;values)</text>
<text text-anchor="start" x="151.56" y="-73.5" font-family="Helvetica,sans-Serif" font-size="10.00">+ void UploadUniformFloat3(const std::string &amp;name, const glm::vec3 &amp;values)</text>
<text text-anchor="start" x="151.56" y="-62.5" font-family="Helvetica,sans-Serif" font-size="10.00">+ void UploadUniformFloat4(const std::string &amp;name, const glm::vec4 &amp;values)</text>
<text text-anchor="start" x="151.56" y="-51.5" font-family="Helvetica,sans-Serif" font-size="10.00">+ void UploadUniformMat3(const std::string &amp;name, const glm::mat3 &amp;matrix)</text>
<text text-anchor="start" x="151.56" y="-40.5" font-family="Helvetica,sans-Serif" font-size="10.00">+ void UploadUniformMat4(const std::string &amp;name, const glm::mat4 &amp;matrix)</text>
<text text-anchor="start" x="151.56" y="-29.5" font-family="Helvetica,sans-Serif" font-size="10.00">&#45; std::string ReadFile(const std::string &amp;filepath)</text>
<text text-anchor="start" x="151.56" y="-18.5" font-family="Helvetica,sans-Serif" font-size="10.00">&#45; std::unordered_map&lt; GLenum, std::string &gt; PreProcess(const std::string &amp;source)</text>
<text text-anchor="start" x="151.56" y="-7.5" font-family="Helvetica,sans-Serif" font-size="10.00">&#45; void Compile(const std::unordered_map&lt; GLenum, std::string &gt; &amp;shaderSources)</text>
</a>
</g>
</g>
<!-- Node2 -->
<g id="node2" class="node">
<title>Node2</title>
<g id="a_node2"><a xlink:href="classgauri_1_1Shader.html" target="_top" xlink:title=" ">
<polygon fill="white" stroke="black" points="110.56,-303.5 110.56,-448.5 695.56,-448.5 695.56,-303.5 110.56,-303.5"/>
<text text-anchor="middle" x="403.06" y="-436.5" font-family="Helvetica,sans-Serif" font-size="10.00">gauri::Shader</text>
<polyline fill="none" stroke="black" points="110.56,-429.5 695.56,-429.5 "/>
<text text-anchor="middle" x="403.06" y="-417.5" font-family="Helvetica,sans-Serif" font-size="10.00"> </text>
<polyline fill="none" stroke="black" points="110.56,-410.5 695.56,-410.5 "/>
<text text-anchor="start" x="118.56" y="-398.5" font-family="Helvetica,sans-Serif" font-size="10.00">+ virtual ~Shader()=default</text>
<text text-anchor="start" x="118.56" y="-387.5" font-family="Helvetica,sans-Serif" font-size="10.00">+ virtual void Bind() const =0</text>
<text text-anchor="start" x="118.56" y="-376.5" font-family="Helvetica,sans-Serif" font-size="10.00">+ virtual void Unbind() const =0</text>
<text text-anchor="start" x="118.56" y="-365.5" font-family="Helvetica,sans-Serif" font-size="10.00">+ virtual void SetFloat3(const std::string &amp;name, const glm::vec3 &amp;value)=0</text>
<text text-anchor="start" x="118.56" y="-354.5" font-family="Helvetica,sans-Serif" font-size="10.00">+ virtual void SetFloat4(const std::string &amp;name, const glm::vec4 &amp;value)=0</text>
<text text-anchor="start" x="118.56" y="-343.5" font-family="Helvetica,sans-Serif" font-size="10.00">+ virtual void SetMat4(const std::string &amp;name, const glm::mat4 &amp;value)=0</text>
<text text-anchor="start" x="118.56" y="-332.5" font-family="Helvetica,sans-Serif" font-size="10.00">+ virtual const std::string &amp; GetName() const =0</text>
<text text-anchor="start" x="118.56" y="-321.5" font-family="Helvetica,sans-Serif" font-size="10.00">+ static Ref&lt; Shader &gt; Create(const std::string &amp;filepath)</text>
<text text-anchor="start" x="118.56" y="-310.5" font-family="Helvetica,sans-Serif" font-size="10.00">+ static Ref&lt; Shader &gt; Create(const std::string &amp;name, const std::string &amp;vertexSrc, const std::string &amp;fragmentSrc)</text>
</a>
</g>
</g>
<!-- Node2&#45;&gt;Node1 -->
<g id="edge1" class="edge">
<title>Node2&#45;&gt;Node1</title>
<path fill="none" stroke="midnightblue" d="M403.06,-293.15C403.06,-281.03 403.06,-268.3 403.06,-255.52"/>
<polygon fill="none" stroke="midnightblue" points="399.56,-293.19 403.06,-303.19 406.56,-293.19 399.56,-293.19"/>
</g>
<!-- Node3 -->
<g id="node3" class="node">
<title>Node3</title>
<g id="a_node3"><a xlink:title=" ">
<polygon fill="white" stroke="#bfbfbf" points="93.06,-496.5 93.06,-553.5 149.06,-553.5 149.06,-496.5 93.06,-496.5"/>
<text text-anchor="middle" x="121.06" y="-541.5" font-family="Helvetica,sans-Serif" font-size="10.00">uint32_t</text>
<polyline fill="none" stroke="#bfbfbf" points="93.06,-534.5 149.06,-534.5 "/>
<text text-anchor="middle" x="121.06" y="-522.5" font-family="Helvetica,sans-Serif" font-size="10.00"> </text>
<polyline fill="none" stroke="#bfbfbf" points="93.06,-515.5 149.06,-515.5 "/>
<text text-anchor="middle" x="121.06" y="-503.5" font-family="Helvetica,sans-Serif" font-size="10.00"> </text>
</a>
</g>
</g>
<!-- Node3&#45;&gt;Node1 -->
<g id="edge3" class="edge">
<title>Node3&#45;&gt;Node1</title>
<path fill="none" stroke="#404040" d="M92.64,-511.06C69.42,-498.76 38.22,-477.85 24.06,-449 -4.53,-390.75 -10.97,-357.62 24.06,-303 50.51,-261.76 89.45,-230.16 132.44,-205.99"/>
<polygon fill="none" stroke="#404040" points="132.62,-205.9 135.97,-199.52 143.16,-200.16 139.8,-206.54 132.62,-205.9"/>
<text text-anchor="middle" x="62.56" y="-373.5" font-family="Helvetica,sans-Serif" font-size="10.00"> &#45;m_RendererID</text>
</g>
<!-- Node3&#45;&gt;Node2 -->
<g id="edge2" class="edge">
<title>Node3&#45;&gt;Node2</title>
<path fill="none" stroke="#404040" d="M149.13,-509.37C174.64,-496.07 214.39,-475.35 254.93,-454.22"/>
<polygon fill="none" stroke="#404040" points="255.16,-454.09 258.64,-447.77 265.8,-448.55 262.33,-454.87 255.16,-454.09"/>
<text text-anchor="middle" x="267.56" y="-470" font-family="Helvetica,sans-Serif" font-size="10.00"> &#45;m_RendererID</text>
</g>
<!-- Node4 -->
<g id="node4" class="node">
<title>Node4</title>
<g id="a_node4"><a xlink:title=" ">
<polygon fill="white" stroke="#bfbfbf" points="713.56,-347.5 713.56,-404.5 778.56,-404.5 778.56,-347.5 713.56,-347.5"/>
<text text-anchor="middle" x="746.06" y="-392.5" font-family="Helvetica,sans-Serif" font-size="10.00">std::string</text>
<polyline fill="none" stroke="#bfbfbf" points="713.56,-385.5 778.56,-385.5 "/>
<text text-anchor="middle" x="746.06" y="-373.5" font-family="Helvetica,sans-Serif" font-size="10.00"> </text>
<polyline fill="none" stroke="#bfbfbf" points="713.56,-366.5 778.56,-366.5 "/>
<text text-anchor="middle" x="746.06" y="-354.5" font-family="Helvetica,sans-Serif" font-size="10.00"> </text>
</a>
</g>
</g>
<!-- Node4&#45;&gt;Node1 -->
<g id="edge4" class="edge">
<title>Node4&#45;&gt;Node1</title>
<path fill="none" stroke="#404040" d="M734.21,-347.41C727.02,-332.95 716.77,-315.66 704.06,-303 689.94,-288.93 674.45,-275.6 658.19,-263.05"/>
<polygon fill="none" stroke="#404040" points="658.1,-262.98 650.9,-262.56 648.53,-255.75 655.73,-256.17 658.1,-262.98"/>
<text text-anchor="middle" x="710.06" y="-277" font-family="Helvetica,sans-Serif" font-size="10.00"> &#45;m_Name</text>
</g>
<!-- Node5 -->
<g id="node5" class="node">
<title>Node5</title>
<g id="a_node5"><a xlink:title=" ">
<polygon fill="white" stroke="#bfbfbf" points="675.56,-496.5 675.56,-553.5 816.56,-553.5 816.56,-496.5 675.56,-496.5"/>
<text text-anchor="middle" x="746.06" y="-541.5" font-family="Helvetica,sans-Serif" font-size="10.00">std::basic_string&lt; Char &gt;</text>
<polyline fill="none" stroke="#bfbfbf" points="675.56,-534.5 816.56,-534.5 "/>
<text text-anchor="middle" x="746.06" y="-522.5" font-family="Helvetica,sans-Serif" font-size="10.00"> </text>
<polyline fill="none" stroke="#bfbfbf" points="675.56,-515.5 816.56,-515.5 "/>
<text text-anchor="middle" x="746.06" y="-503.5" font-family="Helvetica,sans-Serif" font-size="10.00"> </text>
</a>
</g>
</g>
<!-- Node5&#45;&gt;Node4 -->
<g id="edge5" class="edge">
<title>Node5&#45;&gt;Node4</title>
<path fill="none" stroke="midnightblue" d="M746.06,-486.28C746.06,-460.74 746.06,-427.59 746.06,-404.53"/>
<polygon fill="none" stroke="midnightblue" points="742.56,-486.35 746.06,-496.35 749.56,-486.35 742.56,-486.35"/>
</g>
</g>
</svg>
