<?xml version="1.0" encoding="UTF-8" standalone="no"?>
<!DOCTYPE svg PUBLIC "-//W3C//DTD SVG 1.1//EN"
 "http://www.w3.org/Graphics/SVG/1.1/DTD/svg11.dtd">
<!-- Generated by graphviz version 2.43.0 (0)
 -->
<!-- Title: gauri::ImstrumentationTimer::~ImstrumentationTimer Pages: 1 -->
<svg width="720pt" height="66pt"
 viewBox="0.00 0.00 720.00 66.00" xmlns="http://www.w3.org/2000/svg" xmlns:xlink="http://www.w3.org/1999/xlink">
<g id="graph0" class="graph" transform="scale(1 1) rotate(0) translate(4 62)">
<title>gauri::ImstrumentationTimer::~ImstrumentationTimer</title>
<polygon fill="white" stroke="transparent" points="-4,4 -4,-62 716,-62 716,4 -4,4"/>
<!-- Node1 -->
<g id="node1" class="node">
<title>Node1</title>
<g id="a_node1"><a xlink:title=" ">
<polygon fill="#bfbfbf" stroke="black" points="0,-19.5 0,-38.5 282,-38.5 282,-19.5 0,-19.5"/>
<text text-anchor="middle" x="141" y="-26.5" font-family="Helvetica,sans-Serif" font-size="10.00">gauri::ImstrumentationTimer::~ImstrumentationTimer</text>
</a>
</g>
</g>
<!-- Node2 -->
<g id="node2" class="node">
<title>Node2</title>
<g id="a_node2"><a xlink:href="classgauri_1_1ImstrumentationTimer.html#a0ef7605350641c2a32042d5107e9d914" target="_top" xlink:title=" ">
<polygon fill="white" stroke="black" points="318,-19.5 318,-38.5 503,-38.5 503,-19.5 318,-19.5"/>
<text text-anchor="middle" x="410.5" y="-26.5" font-family="Helvetica,sans-Serif" font-size="10.00">gauri::ImstrumentationTimer::Stop</text>
</a>
</g>
</g>
<!-- Node1&#45;&gt;Node2 -->
<g id="edge1" class="edge">
<title>Node1&#45;&gt;Node2</title>
<path fill="none" stroke="midnightblue" d="M282.02,-29C290.64,-29 299.24,-29 307.65,-29"/>
<polygon fill="midnightblue" stroke="midnightblue" points="307.82,-32.5 317.82,-29 307.82,-25.5 307.82,-32.5"/>
</g>
<!-- Node3 -->
<g id="node3" class="node">
<title>Node3</title>
<g id="a_node3"><a xlink:href="classgauri_1_1Instrumentor.html#a754f5470f988f1c0c99652c6da92ce8f" target="_top" xlink:title=" ">
<polygon fill="white" stroke="black" points="558.5,-38.5 558.5,-57.5 692.5,-57.5 692.5,-38.5 558.5,-38.5"/>
<text text-anchor="middle" x="625.5" y="-45.5" font-family="Helvetica,sans-Serif" font-size="10.00">gauri::Instrumentor::Get</text>
</a>
</g>
</g>
<!-- Node2&#45;&gt;Node3 -->
<g id="edge2" class="edge">
<title>Node2&#45;&gt;Node3</title>
<path fill="none" stroke="midnightblue" d="M503.07,-37.17C518.18,-38.52 533.71,-39.9 548.39,-41.21"/>
<polygon fill="midnightblue" stroke="midnightblue" points="548.14,-44.7 558.41,-42.1 548.76,-37.73 548.14,-44.7"/>
</g>
<!-- Node4 -->
<g id="node4" class="node">
<title>Node4</title>
<g id="a_node4"><a xlink:href="classgauri_1_1Instrumentor.html#a6e91045992f15d20782810c91db8c870" target="_top" xlink:title=" ">
<polygon fill="white" stroke="black" points="539,-0.5 539,-19.5 712,-19.5 712,-0.5 539,-0.5"/>
<text text-anchor="middle" x="625.5" y="-7.5" font-family="Helvetica,sans-Serif" font-size="10.00">gauri::Instrumentor::WriteProfile</text>
</a>
</g>
</g>
<!-- Node2&#45;&gt;Node4 -->
<g id="edge3" class="edge">
<title>Node2&#45;&gt;Node4</title>
<path fill="none" stroke="midnightblue" d="M503.07,-20.83C511.58,-20.07 520.22,-19.3 528.76,-18.54"/>
<polygon fill="midnightblue" stroke="midnightblue" points="529.09,-22.02 538.74,-17.65 528.47,-15.05 529.09,-22.02"/>
</g>
</g>
</svg>
