<?xml version="1.0" encoding="UTF-8" standalone="no"?>
<!DOCTYPE svg PUBLIC "-//W3C//DTD SVG 1.1//EN"
 "http://www.w3.org/Graphics/SVG/1.1/DTD/svg11.dtd">
<!-- Generated by graphviz version 2.43.0 (0)
 -->
<!-- Title: gauri::OpenGLIndexBuffer Pages: 1 -->
<svg width="418pt" height="270pt"
 viewBox="0.00 0.00 417.50 270.00" xmlns="http://www.w3.org/2000/svg" xmlns:xlink="http://www.w3.org/1999/xlink">
<g id="graph0" class="graph" transform="scale(1 1) rotate(0) translate(4 266)">
<title>gauri::OpenGLIndexBuffer</title>
<polygon fill="white" stroke="transparent" points="-4,4 -4,-266 413.5,-266 413.5,4 -4,4"/>
<!-- Node1 -->
<g id="node1" class="node">
<title>Node1</title>
<g id="a_node1"><a xlink:title=" ">
<polygon fill="#bfbfbf" stroke="black" points="121.5,-0.5 121.5,-101.5 409.5,-101.5 409.5,-0.5 121.5,-0.5"/>
<text text-anchor="middle" x="265.5" y="-89.5" font-family="Helvetica,sans-Serif" font-size="10.00">gauri::OpenGLIndexBuffer</text>
<polyline fill="none" stroke="black" points="121.5,-82.5 409.5,-82.5 "/>
<text text-anchor="middle" x="265.5" y="-70.5" font-family="Helvetica,sans-Serif" font-size="10.00"> </text>
<polyline fill="none" stroke="black" points="121.5,-63.5 409.5,-63.5 "/>
<text text-anchor="start" x="129.5" y="-51.5" font-family="Helvetica,sans-Serif" font-size="10.00">+ OpenGLIndexBuffer(uint32_t *indices, uint32_t count)</text>
<text text-anchor="start" x="129.5" y="-40.5" font-family="Helvetica,sans-Serif" font-size="10.00">+ ~OpenGLIndexBuffer() override</text>
<text text-anchor="start" x="129.5" y="-29.5" font-family="Helvetica,sans-Serif" font-size="10.00">+ void Bind() const override</text>
<text text-anchor="start" x="129.5" y="-18.5" font-family="Helvetica,sans-Serif" font-size="10.00">+ void Unbind() const override</text>
<text text-anchor="start" x="129.5" y="-7.5" font-family="Helvetica,sans-Serif" font-size="10.00">+ uint32_t GetCount() const override</text>
</a>
</g>
</g>
<!-- Node2 -->
<g id="node2" class="node">
<title>Node2</title>
<g id="a_node2"><a xlink:href="classgauri_1_1IndexBuffer.html" target="_top" xlink:title=" ">
<polygon fill="white" stroke="black" points="0,-160.5 0,-261.5 323,-261.5 323,-160.5 0,-160.5"/>
<text text-anchor="middle" x="161.5" y="-249.5" font-family="Helvetica,sans-Serif" font-size="10.00">gauri::IndexBuffer</text>
<polyline fill="none" stroke="black" points="0,-242.5 323,-242.5 "/>
<text text-anchor="middle" x="161.5" y="-230.5" font-family="Helvetica,sans-Serif" font-size="10.00"> </text>
<polyline fill="none" stroke="black" points="0,-223.5 323,-223.5 "/>
<text text-anchor="start" x="8" y="-211.5" font-family="Helvetica,sans-Serif" font-size="10.00">+ virtual ~IndexBuffer()=default</text>
<text text-anchor="start" x="8" y="-200.5" font-family="Helvetica,sans-Serif" font-size="10.00">+ virtual void Bind() const =0</text>
<text text-anchor="start" x="8" y="-189.5" font-family="Helvetica,sans-Serif" font-size="10.00">+ virtual void Unbind() const =0</text>
<text text-anchor="start" x="8" y="-178.5" font-family="Helvetica,sans-Serif" font-size="10.00">+ virtual uint32_t GetCount() const =0</text>
<text text-anchor="start" x="8" y="-167.5" font-family="Helvetica,sans-Serif" font-size="10.00">+ static IndexBuffer * Create(uint32_t *indices, uint32_t count)</text>
</a>
</g>
</g>
<!-- Node2&#45;&gt;Node1 -->
<g id="edge1" class="edge">
<title>Node2&#45;&gt;Node1</title>
<path fill="none" stroke="midnightblue" d="M199.71,-151.95C210.58,-135.44 222.31,-117.61 232.82,-101.65"/>
<polygon fill="none" stroke="midnightblue" points="196.7,-150.16 194.12,-160.44 202.54,-154.01 196.7,-150.16"/>
</g>
<!-- Node3 -->
<g id="node3" class="node">
<title>Node3</title>
<g id="a_node3"><a xlink:title=" ">
<polygon fill="white" stroke="#bfbfbf" points="341.5,-182.5 341.5,-239.5 397.5,-239.5 397.5,-182.5 341.5,-182.5"/>
<text text-anchor="middle" x="369.5" y="-227.5" font-family="Helvetica,sans-Serif" font-size="10.00">uint32_t</text>
<polyline fill="none" stroke="#bfbfbf" points="341.5,-220.5 397.5,-220.5 "/>
<text text-anchor="middle" x="369.5" y="-208.5" font-family="Helvetica,sans-Serif" font-size="10.00"> </text>
<polyline fill="none" stroke="#bfbfbf" points="341.5,-201.5 397.5,-201.5 "/>
<text text-anchor="middle" x="369.5" y="-189.5" font-family="Helvetica,sans-Serif" font-size="10.00"> </text>
</a>
</g>
</g>
<!-- Node3&#45;&gt;Node1 -->
<g id="edge2" class="edge">
<title>Node3&#45;&gt;Node1</title>
<path fill="none" stroke="#404040" d="M351.38,-182.48C338.55,-162.98 320.84,-136.08 304.84,-111.76"/>
<polygon fill="none" stroke="#404040" points="304.7,-111.56 298.06,-108.74 298.1,-101.53 304.74,-104.34 304.7,-111.56"/>
<text text-anchor="middle" x="361.5" y="-134" font-family="Helvetica,sans-Serif" font-size="10.00"> &#45;m_Count</text>
<text text-anchor="middle" x="361.5" y="-123" font-family="Helvetica,sans-Serif" font-size="10.00">&#45;m_RendererID</text>
</g>
</g>
</svg>
