<?xml version="1.0" encoding="UTF-8" standalone="no"?>
<!DOCTYPE svg PUBLIC "-//W3C//DTD SVG 1.1//EN"
 "http://www.w3.org/Graphics/SVG/1.1/DTD/svg11.dtd">
<!-- Generated by graphviz version 2.43.0 (0)
 -->
<!-- Title: gauri::InstrumentationTimer::~InstrumentationTimer Pages: 1 -->
<svg width="710pt" height="66pt"
 viewBox="0.00 0.00 710.00 66.00" xmlns="http://www.w3.org/2000/svg" xmlns:xlink="http://www.w3.org/1999/xlink">
<g id="graph0" class="graph" transform="scale(1 1) rotate(0) translate(4 62)">
<title>gauri::InstrumentationTimer::~InstrumentationTimer</title>
<polygon fill="white" stroke="transparent" points="-4,4 -4,-62 706,-62 706,4 -4,4"/>
<!-- Node1 -->
<g id="node1" class="node">
<title>Node1</title>
<g id="a_node1"><a xlink:title=" ">
<polygon fill="#bfbfbf" stroke="black" points="0,-19.5 0,-38.5 275,-38.5 275,-19.5 0,-19.5"/>
<text text-anchor="middle" x="137.5" y="-26.5" font-family="Helvetica,sans-Serif" font-size="10.00">gauri::InstrumentationTimer::~InstrumentationTimer</text>
</a>
</g>
</g>
<!-- Node2 -->
<g id="node2" class="node">
<title>Node2</title>
<g id="a_node2"><a xlink:href="classgauri_1_1InstrumentationTimer.html#a47cada30d224c5dcf449537e025bc24c" target="_top" xlink:title=" ">
<polygon fill="white" stroke="black" points="311,-19.5 311,-38.5 493,-38.5 493,-19.5 311,-19.5"/>
<text text-anchor="middle" x="402" y="-26.5" font-family="Helvetica,sans-Serif" font-size="10.00">gauri::InstrumentationTimer::Stop</text>
</a>
</g>
</g>
<!-- Node1&#45;&gt;Node2 -->
<g id="edge1" class="edge">
<title>Node1&#45;&gt;Node2</title>
<path fill="none" stroke="midnightblue" d="M275.13,-29C283.72,-29 292.28,-29 300.66,-29"/>
<polygon fill="midnightblue" stroke="midnightblue" points="300.79,-32.5 310.79,-29 300.79,-25.5 300.79,-32.5"/>
</g>
<!-- Node3 -->
<g id="node3" class="node">
<title>Node3</title>
<g id="a_node3"><a xlink:href="classgauri_1_1Instrumentor.html#a754f5470f988f1c0c99652c6da92ce8f" target="_top" xlink:title=" ">
<polygon fill="white" stroke="black" points="548.5,-38.5 548.5,-57.5 682.5,-57.5 682.5,-38.5 548.5,-38.5"/>
<text text-anchor="middle" x="615.5" y="-45.5" font-family="Helvetica,sans-Serif" font-size="10.00">gauri::Instrumentor::Get</text>
</a>
</g>
</g>
<!-- Node2&#45;&gt;Node3 -->
<g id="edge2" class="edge">
<title>Node2&#45;&gt;Node3</title>
<path fill="none" stroke="midnightblue" d="M493,-37.09C508.07,-38.44 523.58,-39.83 538.27,-41.15"/>
<polygon fill="midnightblue" stroke="midnightblue" points="538.01,-44.64 548.29,-42.05 538.64,-37.67 538.01,-44.64"/>
</g>
<!-- Node4 -->
<g id="node4" class="node">
<title>Node4</title>
<g id="a_node4"><a xlink:href="classgauri_1_1Instrumentor.html#a6e91045992f15d20782810c91db8c870" target="_top" xlink:title=" ">
<polygon fill="white" stroke="black" points="529,-0.5 529,-19.5 702,-19.5 702,-0.5 529,-0.5"/>
<text text-anchor="middle" x="615.5" y="-7.5" font-family="Helvetica,sans-Serif" font-size="10.00">gauri::Instrumentor::WriteProfile</text>
</a>
</g>
</g>
<!-- Node2&#45;&gt;Node4 -->
<g id="edge3" class="edge">
<title>Node2&#45;&gt;Node4</title>
<path fill="none" stroke="midnightblue" d="M493,-20.91C501.57,-20.15 510.27,-19.36 518.89,-18.59"/>
<polygon fill="midnightblue" stroke="midnightblue" points="519.3,-22.07 528.95,-17.69 518.68,-15.09 519.3,-22.07"/>
</g>
</g>
</svg>
