<?xml version="1.0" encoding="UTF-8" standalone="no"?>
<!DOCTYPE svg PUBLIC "-//W3C//DTD SVG 1.1//EN"
 "http://www.w3.org/Graphics/SVG/1.1/DTD/svg11.dtd">
<!-- Generated by graphviz version 2.43.0 (0)
 -->
<!-- Title: gauri::OrthographicCameraController Pages: 1 -->
<svg width="716pt" height="485pt"
 viewBox="0.00 0.00 715.81 485.00" xmlns="http://www.w3.org/2000/svg" xmlns:xlink="http://www.w3.org/1999/xlink">
<g id="graph0" class="graph" transform="scale(1 1) rotate(0) translate(4 481)">
<title>gauri::OrthographicCameraController</title>
<polygon fill="white" stroke="transparent" points="-4,4 -4,-481 711.81,-481 711.81,4 -4,4"/>
<!-- Node1 -->
<g id="node1" class="node">
<title>Node1</title>
<g id="a_node1"><a xlink:title=" ">
<polygon fill="#bfbfbf" stroke="black" points="315.81,-0.5 315.81,-145.5 683.81,-145.5 683.81,-0.5 315.81,-0.5"/>
<text text-anchor="middle" x="499.81" y="-133.5" font-family="Helvetica,sans-Serif" font-size="10.00">gauri::OrthographicCameraController</text>
<polyline fill="none" stroke="black" points="315.81,-126.5 683.81,-126.5 "/>
<text text-anchor="middle" x="499.81" y="-114.5" font-family="Helvetica,sans-Serif" font-size="10.00"> </text>
<polyline fill="none" stroke="black" points="315.81,-107.5 683.81,-107.5 "/>
<text text-anchor="start" x="323.81" y="-95.5" font-family="Helvetica,sans-Serif" font-size="10.00">+ OrthographicCameraController(float aspectRatio, bool rotation=false)</text>
<text text-anchor="start" x="323.81" y="-84.5" font-family="Helvetica,sans-Serif" font-size="10.00">+ void OnUpdate(Timestep ts)</text>
<text text-anchor="start" x="323.81" y="-73.5" font-family="Helvetica,sans-Serif" font-size="10.00">+ void OnEvent(Event &amp;e)</text>
<text text-anchor="start" x="323.81" y="-62.5" font-family="Helvetica,sans-Serif" font-size="10.00">+ const OrthographicCamera &amp; GetCamera() const</text>
<text text-anchor="start" x="323.81" y="-51.5" font-family="Helvetica,sans-Serif" font-size="10.00">+ OrthographicCamera &amp; GetCamera()</text>
<text text-anchor="start" x="323.81" y="-40.5" font-family="Helvetica,sans-Serif" font-size="10.00">+ void SetZoomLevel(float level)</text>
<text text-anchor="start" x="323.81" y="-29.5" font-family="Helvetica,sans-Serif" font-size="10.00">+ float GetZoomLevel() const</text>
<text text-anchor="start" x="323.81" y="-18.5" font-family="Helvetica,sans-Serif" font-size="10.00">&#45; bool OnMouseScrolled(MouseScrolledEvent &amp;e)</text>
<text text-anchor="start" x="323.81" y="-7.5" font-family="Helvetica,sans-Serif" font-size="10.00">&#45; bool OnWindowResized(WindowResizeEvent &amp;e)</text>
</a>
</g>
</g>
<!-- Node2 -->
<g id="node2" class="node">
<title>Node2</title>
<g id="a_node2"><a xlink:title=" ">
<polygon fill="white" stroke="#bfbfbf" points="51.81,-419.5 51.81,-476.5 89.81,-476.5 89.81,-419.5 51.81,-419.5"/>
<text text-anchor="middle" x="70.81" y="-464.5" font-family="Helvetica,sans-Serif" font-size="10.00">float</text>
<polyline fill="none" stroke="#bfbfbf" points="51.81,-457.5 89.81,-457.5 "/>
<text text-anchor="middle" x="70.81" y="-445.5" font-family="Helvetica,sans-Serif" font-size="10.00"> </text>
<polyline fill="none" stroke="#bfbfbf" points="51.81,-438.5 89.81,-438.5 "/>
<text text-anchor="middle" x="70.81" y="-426.5" font-family="Helvetica,sans-Serif" font-size="10.00"> </text>
</a>
</g>
</g>
<!-- Node2&#45;&gt;Node1 -->
<g id="edge1" class="edge">
<title>Node2&#45;&gt;Node1</title>
<path fill="none" stroke="#404040" d="M52.89,-419.25C22.73,-368.69 -29.96,-260.55 22.81,-193 58.14,-147.77 188,-117.22 303.31,-98.41"/>
<polygon fill="none" stroke="#404040" points="303.65,-98.36 308.94,-93.46 315.49,-96.46 310.2,-101.36 303.65,-98.36"/>
<text text-anchor="middle" x="93.31" y="-291" font-family="Helvetica,sans-Serif" font-size="10.00"> &#45;m_AspectRatio</text>
<text text-anchor="middle" x="93.31" y="-280" font-family="Helvetica,sans-Serif" font-size="10.00">&#45;m_CameraRotation</text>
<text text-anchor="middle" x="93.31" y="-269" font-family="Helvetica,sans-Serif" font-size="10.00">&#45;m_CameraRotationSpeed</text>
<text text-anchor="middle" x="93.31" y="-258" font-family="Helvetica,sans-Serif" font-size="10.00">&#45;m_CameraTranslationSpeed</text>
<text text-anchor="middle" x="93.31" y="-247" font-family="Helvetica,sans-Serif" font-size="10.00">&#45;m_ZoomLevel</text>
</g>
<!-- Node4 -->
<g id="node4" class="node">
<title>Node4</title>
<g id="a_node4"><a xlink:href="classgauri_1_1OrthographicCamera.html" target="_top" xlink:title=" ">
<polygon fill="white" stroke="black" points="173.31,-193.5 173.31,-349.5 516.31,-349.5 516.31,-193.5 173.31,-193.5"/>
<text text-anchor="middle" x="344.81" y="-337.5" font-family="Helvetica,sans-Serif" font-size="10.00">gauri::OrthographicCamera</text>
<polyline fill="none" stroke="black" points="173.31,-330.5 516.31,-330.5 "/>
<text text-anchor="middle" x="344.81" y="-318.5" font-family="Helvetica,sans-Serif" font-size="10.00"> </text>
<polyline fill="none" stroke="black" points="173.31,-311.5 516.31,-311.5 "/>
<text text-anchor="start" x="181.31" y="-299.5" font-family="Helvetica,sans-Serif" font-size="10.00">+ OrthographicCamera(float left, float right, float bottom, float top)</text>
<text text-anchor="start" x="181.31" y="-288.5" font-family="Helvetica,sans-Serif" font-size="10.00">+ void SetProjection(float left, float right, float bottom, float top)</text>
<text text-anchor="start" x="181.31" y="-277.5" font-family="Helvetica,sans-Serif" font-size="10.00">+ const glm::vec3 &amp; GetPosition() const</text>
<text text-anchor="start" x="181.31" y="-266.5" font-family="Helvetica,sans-Serif" font-size="10.00">+ const float GetRotation() const</text>
<text text-anchor="start" x="181.31" y="-255.5" font-family="Helvetica,sans-Serif" font-size="10.00">+ void SetPosition(const glm::vec3 &amp;position)</text>
<text text-anchor="start" x="181.31" y="-244.5" font-family="Helvetica,sans-Serif" font-size="10.00">+ void SetRotation(float rotation)</text>
<text text-anchor="start" x="181.31" y="-233.5" font-family="Helvetica,sans-Serif" font-size="10.00">+ const glm::mat4 &amp; GetProjectionMatrix() const</text>
<text text-anchor="start" x="181.31" y="-222.5" font-family="Helvetica,sans-Serif" font-size="10.00">+ const glm::mat4 &amp; GetViewMatrix() const</text>
<text text-anchor="start" x="181.31" y="-211.5" font-family="Helvetica,sans-Serif" font-size="10.00">+ const glm::mat4 &amp; GetViewProjectionMatrix() const</text>
<text text-anchor="start" x="181.31" y="-200.5" font-family="Helvetica,sans-Serif" font-size="10.00">&#45; void RecalculateViewMatrix()</text>
</a>
</g>
</g>
<!-- Node2&#45;&gt;Node4 -->
<g id="edge4" class="edge">
<title>Node2&#45;&gt;Node4</title>
<path fill="none" stroke="#404040" d="M90.07,-434.73C116.23,-418.07 165.25,-386.85 213.36,-356.21"/>
<polygon fill="none" stroke="#404040" points="213.48,-356.14 216.39,-349.54 223.6,-349.69 220.69,-356.29 213.48,-356.14"/>
<text text-anchor="middle" x="223.81" y="-382" font-family="Helvetica,sans-Serif" font-size="10.00"> &#45;m_Rotation</text>
</g>
<!-- Node3 -->
<g id="node3" class="node">
<title>Node3</title>
<g id="a_node3"><a xlink:title=" ">
<polygon fill="white" stroke="#bfbfbf" points="669.81,-243 669.81,-300 707.81,-300 707.81,-243 669.81,-243"/>
<text text-anchor="middle" x="688.81" y="-288" font-family="Helvetica,sans-Serif" font-size="10.00">bool</text>
<polyline fill="none" stroke="#bfbfbf" points="669.81,-281 707.81,-281 "/>
<text text-anchor="middle" x="688.81" y="-269" font-family="Helvetica,sans-Serif" font-size="10.00"> </text>
<polyline fill="none" stroke="#bfbfbf" points="669.81,-262 707.81,-262 "/>
<text text-anchor="middle" x="688.81" y="-250" font-family="Helvetica,sans-Serif" font-size="10.00"> </text>
</a>
</g>
</g>
<!-- Node3&#45;&gt;Node1 -->
<g id="edge2" class="edge">
<title>Node3&#45;&gt;Node1</title>
<path fill="none" stroke="#404040" d="M680.92,-242.83C675.55,-227.15 667.3,-207.78 655.81,-193 644.92,-178.99 632,-165.76 618.33,-153.56"/>
<polygon fill="none" stroke="#404040" points="618.32,-153.56 611.17,-152.65 609.25,-145.7 616.41,-146.6 618.32,-153.56"/>
<text text-anchor="middle" x="669.81" y="-167" font-family="Helvetica,sans-Serif" font-size="10.00"> &#45;m_Rotation</text>
</g>
<!-- Node4&#45;&gt;Node1 -->
<g id="edge3" class="edge">
<title>Node4&#45;&gt;Node1</title>
<path fill="none" stroke="#404040" d="M405.62,-193.4C415.49,-180.89 425.74,-167.9 435.68,-155.3"/>
<polygon fill="none" stroke="#404040" points="435.78,-155.17 436.36,-147.98 443.21,-145.75 442.64,-152.93 435.78,-155.17"/>
<text text-anchor="middle" x="458.31" y="-167" font-family="Helvetica,sans-Serif" font-size="10.00"> &#45;m_Camera</text>
</g>
<!-- Node5 -->
<g id="node5" class="node">
<title>Node5</title>
<g id="a_node5"><a xlink:title=" ">
<polygon fill="white" stroke="#bfbfbf" points="307.81,-419.5 307.81,-476.5 349.81,-476.5 349.81,-419.5 307.81,-419.5"/>
<text text-anchor="middle" x="328.81" y="-464.5" font-family="Helvetica,sans-Serif" font-size="10.00">mat4</text>
<polyline fill="none" stroke="#bfbfbf" points="307.81,-457.5 349.81,-457.5 "/>
<text text-anchor="middle" x="328.81" y="-445.5" font-family="Helvetica,sans-Serif" font-size="10.00"> </text>
<polyline fill="none" stroke="#bfbfbf" points="307.81,-438.5 349.81,-438.5 "/>
<text text-anchor="middle" x="328.81" y="-426.5" font-family="Helvetica,sans-Serif" font-size="10.00"> </text>
</a>
</g>
</g>
<!-- Node5&#45;&gt;Node4 -->
<g id="edge5" class="edge">
<title>Node5&#45;&gt;Node4</title>
<path fill="none" stroke="#404040" d="M328.19,-419.17C328.1,-404.01 328.38,-384.95 329.81,-368 329.98,-365.93 330.17,-363.84 330.38,-361.73"/>
<polygon fill="none" stroke="#404040" points="330.41,-361.45 327.1,-355.05 331.74,-349.53 335.05,-355.93 330.41,-361.45"/>
<text text-anchor="middle" x="391.81" y="-393" font-family="Helvetica,sans-Serif" font-size="10.00"> &#45;m_ProjectionMatrix</text>
<text text-anchor="middle" x="391.81" y="-382" font-family="Helvetica,sans-Serif" font-size="10.00">&#45;m_ViewMatrix</text>
<text text-anchor="middle" x="391.81" y="-371" font-family="Helvetica,sans-Serif" font-size="10.00">&#45;m_ViewProjectionMatrix</text>
</g>
<!-- Node6 -->
<g id="node6" class="node">
<title>Node6</title>
<g id="a_node6"><a xlink:title=" ">
<polygon fill="white" stroke="#bfbfbf" points="493.81,-419.5 493.81,-476.5 533.81,-476.5 533.81,-419.5 493.81,-419.5"/>
<text text-anchor="middle" x="513.81" y="-464.5" font-family="Helvetica,sans-Serif" font-size="10.00">vec3</text>
<polyline fill="none" stroke="#bfbfbf" points="493.81,-457.5 533.81,-457.5 "/>
<text text-anchor="middle" x="513.81" y="-445.5" font-family="Helvetica,sans-Serif" font-size="10.00"> </text>
<polyline fill="none" stroke="#bfbfbf" points="493.81,-438.5 533.81,-438.5 "/>
<text text-anchor="middle" x="513.81" y="-426.5" font-family="Helvetica,sans-Serif" font-size="10.00"> </text>
</a>
</g>
</g>
<!-- Node6&#45;&gt;Node1 -->
<g id="edge7" class="edge">
<title>Node6&#45;&gt;Node1</title>
<path fill="none" stroke="#404040" d="M531.03,-419.14C533.83,-413.34 536.31,-407.12 537.81,-401 541.3,-386.76 538.35,-382.66 537.81,-368 534.92,-290.06 535.74,-270.22 524.81,-193 523.19,-181.6 521.13,-169.65 518.89,-157.91"/>
<polygon fill="none" stroke="#404040" points="518.82,-157.55 513.73,-152.44 516.49,-145.78 521.58,-150.89 518.82,-157.55"/>
<text text-anchor="middle" x="587.81" y="-269" font-family="Helvetica,sans-Serif" font-size="10.00"> &#45;m_CameraPosition</text>
</g>
<!-- Node6&#45;&gt;Node4 -->
<g id="edge6" class="edge">
<title>Node6&#45;&gt;Node4</title>
<path fill="none" stroke="#404040" d="M493.52,-422.42C488,-415.56 482.09,-408.05 476.81,-401 466.09,-386.69 465.73,-381.32 453.81,-368 450.87,-364.71 447.82,-361.43 444.69,-358.16"/>
<polygon fill="none" stroke="#404040" points="444.65,-358.12 437.59,-356.65 436.24,-349.56 443.29,-351.04 444.65,-358.12"/>
<text text-anchor="middle" x="507.31" y="-382" font-family="Helvetica,sans-Serif" font-size="10.00"> &#45;m_Position</text>
</g>
</g>
</svg>
