<?xml version="1.0" encoding="UTF-8" standalone="no"?>
<!DOCTYPE svg PUBLIC "-//W3C//DTD SVG 1.1//EN"
 "http://www.w3.org/Graphics/SVG/1.1/DTD/svg11.dtd">
<!-- Generated by graphviz version 2.43.0 (0)
 -->
<!-- Title: gauri::EventDispatcher Pages: 1 -->
<svg width="249pt" height="342pt"
 viewBox="0.00 0.00 249.00 342.00" xmlns="http://www.w3.org/2000/svg" xmlns:xlink="http://www.w3.org/1999/xlink">
<g id="graph0" class="graph" transform="scale(1 1) rotate(0) translate(4 338)">
<title>gauri::EventDispatcher</title>
<polygon fill="white" stroke="transparent" points="-4,4 -4,-338 245,-338 245,4 -4,4"/>
<!-- Node1 -->
<g id="node1" class="node">
<title>Node1</title>
<g id="a_node1"><a xlink:title=" ">
<polygon fill="#bfbfbf" stroke="black" points="23.5,-0.5 23.5,-68.5 217.5,-68.5 217.5,-0.5 23.5,-0.5"/>
<text text-anchor="middle" x="120.5" y="-56.5" font-family="Helvetica,sans-Serif" font-size="10.00">gauri::EventDispatcher</text>
<polyline fill="none" stroke="black" points="23.5,-49.5 217.5,-49.5 "/>
<text text-anchor="middle" x="120.5" y="-37.5" font-family="Helvetica,sans-Serif" font-size="10.00"> </text>
<polyline fill="none" stroke="black" points="23.5,-30.5 217.5,-30.5 "/>
<text text-anchor="start" x="31.5" y="-18.5" font-family="Helvetica,sans-Serif" font-size="10.00">+ EventDispatcher(Event &amp;event)</text>
<text text-anchor="start" x="31.5" y="-7.5" font-family="Helvetica,sans-Serif" font-size="10.00">+ bool Dispatch(EventFn&lt; T &gt; func)</text>
</a>
</g>
</g>
<!-- Node2 -->
<g id="node2" class="node">
<title>Node2</title>
<g id="a_node2"><a xlink:href="classgauri_1_1Event.html" target="_top" xlink:title=" ">
<polygon fill="white" stroke="black" points="0,-116.5 0,-228.5 241,-228.5 241,-116.5 0,-116.5"/>
<text text-anchor="middle" x="120.5" y="-216.5" font-family="Helvetica,sans-Serif" font-size="10.00">gauri::Event</text>
<polyline fill="none" stroke="black" points="0,-209.5 241,-209.5 "/>
<text text-anchor="middle" x="120.5" y="-197.5" font-family="Helvetica,sans-Serif" font-size="10.00"> </text>
<polyline fill="none" stroke="black" points="0,-190.5 241,-190.5 "/>
<text text-anchor="start" x="8" y="-178.5" font-family="Helvetica,sans-Serif" font-size="10.00">+ virtual ~Event()=default</text>
<text text-anchor="start" x="8" y="-167.5" font-family="Helvetica,sans-Serif" font-size="10.00">+ virtual EventType GetEventType() const =0</text>
<text text-anchor="start" x="8" y="-156.5" font-family="Helvetica,sans-Serif" font-size="10.00">+ virtual const char * GetName() const =0</text>
<text text-anchor="start" x="8" y="-145.5" font-family="Helvetica,sans-Serif" font-size="10.00">+ virtual int32_t GetCategoryFlags() const =0</text>
<text text-anchor="start" x="8" y="-134.5" font-family="Helvetica,sans-Serif" font-size="10.00">+ virtual std::string ToString() const</text>
<text text-anchor="start" x="8" y="-123.5" font-family="Helvetica,sans-Serif" font-size="10.00">+ bool IsInCategory(EventCategory category)</text>
</a>
</g>
</g>
<!-- Node2&#45;&gt;Node1 -->
<g id="edge1" class="edge">
<title>Node2&#45;&gt;Node1</title>
<path fill="none" stroke="#404040" d="M120.5,-116.18C120.5,-104.43 120.5,-92.15 120.5,-80.82"/>
<polygon fill="none" stroke="#404040" points="120.5,-80.51 116.5,-74.51 120.5,-68.51 124.5,-74.51 120.5,-80.51"/>
<text text-anchor="middle" x="145.5" y="-90" font-family="Helvetica,sans-Serif" font-size="10.00"> &#45;m_Event</text>
</g>
<!-- Node3 -->
<g id="node3" class="node">
<title>Node3</title>
<g id="a_node3"><a xlink:title=" ">
<polygon fill="white" stroke="#bfbfbf" points="101.5,-276.5 101.5,-333.5 139.5,-333.5 139.5,-276.5 101.5,-276.5"/>
<text text-anchor="middle" x="120.5" y="-321.5" font-family="Helvetica,sans-Serif" font-size="10.00">bool</text>
<polyline fill="none" stroke="#bfbfbf" points="101.5,-314.5 139.5,-314.5 "/>
<text text-anchor="middle" x="120.5" y="-302.5" font-family="Helvetica,sans-Serif" font-size="10.00"> </text>
<polyline fill="none" stroke="#bfbfbf" points="101.5,-295.5 139.5,-295.5 "/>
<text text-anchor="middle" x="120.5" y="-283.5" font-family="Helvetica,sans-Serif" font-size="10.00"> </text>
</a>
</g>
</g>
<!-- Node3&#45;&gt;Node2 -->
<g id="edge2" class="edge">
<title>Node3&#45;&gt;Node2</title>
<path fill="none" stroke="#404040" d="M120.5,-276.32C120.5,-265.78 120.5,-253.25 120.5,-240.62"/>
<polygon fill="none" stroke="#404040" points="120.5,-240.55 116.5,-234.55 120.5,-228.55 124.5,-234.55 120.5,-240.55"/>
<text text-anchor="middle" x="146.5" y="-250" font-family="Helvetica,sans-Serif" font-size="10.00"> +Handled</text>
</g>
</g>
</svg>
