<?xml version="1.0" encoding="UTF-8" standalone="no"?>
<!DOCTYPE svg PUBLIC "-//W3C//DTD SVG 1.1//EN"
 "http://www.w3.org/Graphics/SVG/1.1/DTD/svg11.dtd">
<!-- Generated by graphviz version 2.43.0 (0)
 -->
<!-- Title: gauri::Application Pages: 1 -->
<svg width="896pt" height="870pt"
 viewBox="0.00 0.00 896.00 870.00" xmlns="http://www.w3.org/2000/svg" xmlns:xlink="http://www.w3.org/1999/xlink">
<g id="graph0" class="graph" transform="scale(1 1) rotate(0) translate(4 866)">
<title>gauri::Application</title>
<polygon fill="white" stroke="transparent" points="-4,4 -4,-866 892,-866 892,4 -4,4"/>
<!-- Node1 -->
<g id="node1" class="node">
<title>Node1</title>
<g id="a_node1"><a xlink:title=" ">
<polygon fill="#bfbfbf" stroke="black" points="398.5,-0.5 398.5,-145.5 643.5,-145.5 643.5,-0.5 398.5,-0.5"/>
<text text-anchor="middle" x="521" y="-133.5" font-family="Helvetica,sans-Serif" font-size="10.00">gauri::Application</text>
<polyline fill="none" stroke="black" points="398.5,-126.5 643.5,-126.5 "/>
<text text-anchor="middle" x="521" y="-114.5" font-family="Helvetica,sans-Serif" font-size="10.00"> </text>
<polyline fill="none" stroke="black" points="398.5,-107.5 643.5,-107.5 "/>
<text text-anchor="start" x="406.5" y="-95.5" font-family="Helvetica,sans-Serif" font-size="10.00">+ Application()</text>
<text text-anchor="start" x="406.5" y="-84.5" font-family="Helvetica,sans-Serif" font-size="10.00">+ virtual ~Application()</text>
<text text-anchor="start" x="406.5" y="-73.5" font-family="Helvetica,sans-Serif" font-size="10.00">+ void Run()</text>
<text text-anchor="start" x="406.5" y="-62.5" font-family="Helvetica,sans-Serif" font-size="10.00">+ void OnEvent(Event &amp;e)</text>
<text text-anchor="start" x="406.5" y="-51.5" font-family="Helvetica,sans-Serif" font-size="10.00">+ void PushLayer(Layer *layer)</text>
<text text-anchor="start" x="406.5" y="-40.5" font-family="Helvetica,sans-Serif" font-size="10.00">+ void PushOverlay(Layer *overlay)</text>
<text text-anchor="start" x="406.5" y="-29.5" font-family="Helvetica,sans-Serif" font-size="10.00">+ Window &amp; GetWindow()</text>
<text text-anchor="start" x="406.5" y="-18.5" font-family="Helvetica,sans-Serif" font-size="10.00">+ static Application &amp; Get()</text>
<text text-anchor="start" x="406.5" y="-7.5" font-family="Helvetica,sans-Serif" font-size="10.00">&#45; bool OnWindowClose(WindowCloseEvent &amp;e)</text>
</a>
</g>
</g>
<!-- Node1&#45;&gt;Node1 -->
<g id="edge14" class="edge">
<title>Node1&#45;&gt;Node1</title>
<path fill="none" stroke="#404040" d="M643.84,-87.18C654.7,-84.19 661.5,-79.47 661.5,-73 661.5,-69.26 659.23,-66.1 655.21,-63.53"/>
<polygon fill="none" stroke="#404040" points="654.93,-63.41 647.85,-64.81 643.84,-58.82 650.91,-57.42 654.93,-63.41"/>
<text text-anchor="middle" x="691" y="-70.5" font-family="Helvetica,sans-Serif" font-size="10.00"> &#45;s_Instance</text>
</g>
<!-- Node2 -->
<g id="node2" class="node">
<title>Node2</title>
<g id="a_node2"><a xlink:href="classgauri_1_1LayerStack.html" target="_top" xlink:title=" ">
<polygon fill="white" stroke="black" points="517.5,-193.5 517.5,-327.5 734.5,-327.5 734.5,-193.5 517.5,-193.5"/>
<text text-anchor="middle" x="626" y="-315.5" font-family="Helvetica,sans-Serif" font-size="10.00">gauri::LayerStack</text>
<polyline fill="none" stroke="black" points="517.5,-308.5 734.5,-308.5 "/>
<text text-anchor="middle" x="626" y="-296.5" font-family="Helvetica,sans-Serif" font-size="10.00"> </text>
<polyline fill="none" stroke="black" points="517.5,-289.5 734.5,-289.5 "/>
<text text-anchor="start" x="525.5" y="-277.5" font-family="Helvetica,sans-Serif" font-size="10.00">+ LayerStack()=default</text>
<text text-anchor="start" x="525.5" y="-266.5" font-family="Helvetica,sans-Serif" font-size="10.00">+ ~LayerStack()</text>
<text text-anchor="start" x="525.5" y="-255.5" font-family="Helvetica,sans-Serif" font-size="10.00">+ void PushLayer(Layer *layer)</text>
<text text-anchor="start" x="525.5" y="-244.5" font-family="Helvetica,sans-Serif" font-size="10.00">+ void PushOverlay(Layer *overlay)</text>
<text text-anchor="start" x="525.5" y="-233.5" font-family="Helvetica,sans-Serif" font-size="10.00">+ void PopLayer(Layer *layer)</text>
<text text-anchor="start" x="525.5" y="-222.5" font-family="Helvetica,sans-Serif" font-size="10.00">+ void PopOverlay(Layer *overlay)</text>
<text text-anchor="start" x="525.5" y="-211.5" font-family="Helvetica,sans-Serif" font-size="10.00">+ std::vector&lt; Layer * &gt;::iterator begin()</text>
<text text-anchor="start" x="525.5" y="-200.5" font-family="Helvetica,sans-Serif" font-size="10.00">+ std::vector&lt; Layer * &gt;::iterator end()</text>
</a>
</g>
</g>
<!-- Node2&#45;&gt;Node1 -->
<g id="edge1" class="edge">
<title>Node2&#45;&gt;Node1</title>
<path fill="none" stroke="#404040" d="M588.54,-193.32C581.75,-181.33 574.6,-168.69 567.59,-156.3"/>
<polygon fill="none" stroke="#404040" points="567.39,-155.95 560.95,-152.7 561.47,-145.5 567.91,-148.76 567.39,-155.95"/>
<text text-anchor="middle" x="614" y="-167" font-family="Helvetica,sans-Serif" font-size="10.00"> &#45;m_LayerStack</text>
</g>
<!-- Node3 -->
<g id="node3" class="node">
<title>Node3</title>
<g id="a_node3"><a xlink:title=" ">
<polygon fill="white" stroke="#bfbfbf" points="468,-422.5 468,-479.5 524,-479.5 524,-422.5 468,-422.5"/>
<text text-anchor="middle" x="496" y="-467.5" font-family="Helvetica,sans-Serif" font-size="10.00">uint32_t</text>
<polyline fill="none" stroke="#bfbfbf" points="468,-460.5 524,-460.5 "/>
<text text-anchor="middle" x="496" y="-448.5" font-family="Helvetica,sans-Serif" font-size="10.00"> </text>
<polyline fill="none" stroke="#bfbfbf" points="468,-441.5 524,-441.5 "/>
<text text-anchor="middle" x="496" y="-429.5" font-family="Helvetica,sans-Serif" font-size="10.00"> </text>
</a>
</g>
</g>
<!-- Node3&#45;&gt;Node2 -->
<g id="edge2" class="edge">
<title>Node3&#45;&gt;Node2</title>
<path fill="none" stroke="#404040" d="M494,-422.45C493.67,-400.3 496.19,-369.16 510,-346 511.79,-342.99 513.74,-340.06 515.82,-337.2"/>
<polygon fill="none" stroke="#404040" points="515.86,-337.15 516.48,-329.97 523.35,-327.78 522.73,-334.96 515.86,-337.15"/>
<text text-anchor="middle" x="562" y="-372.5" font-family="Helvetica,sans-Serif" font-size="10.00"> &#45;m_LayerInsertIndex</text>
</g>
<!-- Node4 -->
<g id="node4" class="node">
<title>Node4</title>
<g id="a_node4"><a xlink:title=" ">
<polygon fill="white" stroke="#bfbfbf" points="544.5,-422.5 544.5,-479.5 701.5,-479.5 701.5,-422.5 544.5,-422.5"/>
<text text-anchor="middle" x="623" y="-467.5" font-family="Helvetica,sans-Serif" font-size="10.00">std::vector&lt; gauri::Layer * &gt;</text>
<polyline fill="none" stroke="#bfbfbf" points="544.5,-460.5 701.5,-460.5 "/>
<text text-anchor="middle" x="623" y="-448.5" font-family="Helvetica,sans-Serif" font-size="10.00"> </text>
<polyline fill="none" stroke="#bfbfbf" points="544.5,-441.5 701.5,-441.5 "/>
<text text-anchor="middle" x="623" y="-429.5" font-family="Helvetica,sans-Serif" font-size="10.00"> </text>
</a>
</g>
</g>
<!-- Node4&#45;&gt;Node2 -->
<g id="edge3" class="edge">
<title>Node4&#45;&gt;Node2</title>
<path fill="none" stroke="#404040" d="M620.2,-422.3C619.7,-416.27 619.26,-409.93 619,-404 617.88,-378.25 617.94,-371.76 619,-346 619.08,-344.07 619.17,-342.12 619.27,-340.14"/>
<polygon fill="none" stroke="#404040" points="619.28,-339.87 615.64,-333.65 619.98,-327.89 623.63,-334.11 619.28,-339.87"/>
<text text-anchor="middle" x="646.5" y="-372.5" font-family="Helvetica,sans-Serif" font-size="10.00"> &#45;m_Layers</text>
</g>
<!-- Node5 -->
<g id="node5" class="node">
<title>Node5</title>
<g id="a_node5"><a xlink:href="classgauri_1_1Layer.html" target="_top" xlink:title=" ">
<polygon fill="white" stroke="black" points="182.5,-527.5 182.5,-661.5 405.5,-661.5 405.5,-527.5 182.5,-527.5"/>
<text text-anchor="middle" x="294" y="-649.5" font-family="Helvetica,sans-Serif" font-size="10.00">gauri::Layer</text>
<polyline fill="none" stroke="black" points="182.5,-642.5 405.5,-642.5 "/>
<text text-anchor="middle" x="294" y="-630.5" font-family="Helvetica,sans-Serif" font-size="10.00"> </text>
<polyline fill="none" stroke="black" points="182.5,-623.5 405.5,-623.5 "/>
<text text-anchor="start" x="190.5" y="-611.5" font-family="Helvetica,sans-Serif" font-size="10.00">+ Layer(const std::string &amp;name=&quot;Layer&quot;)</text>
<text text-anchor="start" x="190.5" y="-600.5" font-family="Helvetica,sans-Serif" font-size="10.00">+ virtual ~Layer()</text>
<text text-anchor="start" x="190.5" y="-589.5" font-family="Helvetica,sans-Serif" font-size="10.00">+ virtual void OnAttach()</text>
<text text-anchor="start" x="190.5" y="-578.5" font-family="Helvetica,sans-Serif" font-size="10.00">+ virtual void OnDetach()</text>
<text text-anchor="start" x="190.5" y="-567.5" font-family="Helvetica,sans-Serif" font-size="10.00">+ virtual void OnUpdate(Timestep ts)</text>
<text text-anchor="start" x="190.5" y="-556.5" font-family="Helvetica,sans-Serif" font-size="10.00">+ virtual void OnImGuiRender()</text>
<text text-anchor="start" x="190.5" y="-545.5" font-family="Helvetica,sans-Serif" font-size="10.00">+ virtual void OnEvent(Event &amp;)</text>
<text text-anchor="start" x="190.5" y="-534.5" font-family="Helvetica,sans-Serif" font-size="10.00">+ const std::string &amp; GetName() const</text>
</a>
</g>
</g>
<!-- Node5&#45;&gt;Node4 -->
<g id="edge4" class="edge">
<title>Node5&#45;&gt;Node4</title>
<path fill="none" stroke="#404040" d="M405.84,-545.4C452.6,-525.29 505.7,-502.45 547.69,-484.39"/>
<polygon fill="none" stroke="#404040" points="547.92,-484.29 551.85,-478.25 558.94,-479.55 555.01,-485.6 547.92,-484.29"/>
<text text-anchor="middle" x="537" y="-501" font-family="Helvetica,sans-Serif" font-size="10.00"> +elements</text>
</g>
<!-- Node15 -->
<g id="node15" class="node">
<title>Node15</title>
<g id="a_node15"><a xlink:href="classgauri_1_1ImGuiLayer.html" target="_top" xlink:title=" ">
<polygon fill="white" stroke="black" points="0,-199 0,-322 180,-322 180,-199 0,-199"/>
<text text-anchor="middle" x="90" y="-310" font-family="Helvetica,sans-Serif" font-size="10.00">gauri::ImGuiLayer</text>
<polyline fill="none" stroke="black" points="0,-303 180,-303 "/>
<text text-anchor="middle" x="90" y="-291" font-family="Helvetica,sans-Serif" font-size="10.00"> </text>
<polyline fill="none" stroke="black" points="0,-284 180,-284 "/>
<text text-anchor="start" x="8" y="-272" font-family="Helvetica,sans-Serif" font-size="10.00">+ ImGuiLayer()</text>
<text text-anchor="start" x="8" y="-261" font-family="Helvetica,sans-Serif" font-size="10.00">+ ~ImGuiLayer() override</text>
<text text-anchor="start" x="8" y="-250" font-family="Helvetica,sans-Serif" font-size="10.00">+ void OnAttach() override</text>
<text text-anchor="start" x="8" y="-239" font-family="Helvetica,sans-Serif" font-size="10.00">+ void OnDetach() override</text>
<text text-anchor="start" x="8" y="-228" font-family="Helvetica,sans-Serif" font-size="10.00">+ void OnImGuiRender() override</text>
<text text-anchor="start" x="8" y="-217" font-family="Helvetica,sans-Serif" font-size="10.00">+ void Begin()</text>
<text text-anchor="start" x="8" y="-206" font-family="Helvetica,sans-Serif" font-size="10.00">+ void End()</text>
</a>
</g>
</g>
<!-- Node5&#45;&gt;Node15 -->
<g id="edge18" class="edge">
<title>Node5&#45;&gt;Node15</title>
<path fill="none" stroke="midnightblue" d="M207.38,-519.95C174.58,-487.62 139.89,-447.19 118,-404 105.23,-378.81 98.28,-348.39 94.49,-322.13"/>
<polygon fill="none" stroke="midnightblue" points="205.18,-522.69 214.79,-527.15 210.06,-517.67 205.18,-522.69"/>
</g>
<!-- Node6 -->
<g id="node6" class="node">
<title>Node6</title>
<g id="a_node6"><a xlink:title=" ">
<polygon fill="white" stroke="#bfbfbf" points="261.5,-709.5 261.5,-766.5 326.5,-766.5 326.5,-709.5 261.5,-709.5"/>
<text text-anchor="middle" x="294" y="-754.5" font-family="Helvetica,sans-Serif" font-size="10.00">std::string</text>
<polyline fill="none" stroke="#bfbfbf" points="261.5,-747.5 326.5,-747.5 "/>
<text text-anchor="middle" x="294" y="-735.5" font-family="Helvetica,sans-Serif" font-size="10.00"> </text>
<polyline fill="none" stroke="#bfbfbf" points="261.5,-728.5 326.5,-728.5 "/>
<text text-anchor="middle" x="294" y="-716.5" font-family="Helvetica,sans-Serif" font-size="10.00"> </text>
</a>
</g>
</g>
<!-- Node6&#45;&gt;Node5 -->
<g id="edge5" class="edge">
<title>Node6&#45;&gt;Node5</title>
<path fill="none" stroke="#404040" d="M294,-709.38C294,-699.02 294,-686.66 294,-673.97"/>
<polygon fill="none" stroke="#404040" points="294,-673.75 290,-667.75 294,-661.75 298,-667.75 294,-673.75"/>
<text text-anchor="middle" x="338" y="-683" font-family="Helvetica,sans-Serif" font-size="10.00"> #m_DebugName</text>
</g>
<!-- Node7 -->
<g id="node7" class="node">
<title>Node7</title>
<g id="a_node7"><a xlink:title=" ">
<polygon fill="white" stroke="#bfbfbf" points="223.5,-804.5 223.5,-861.5 364.5,-861.5 364.5,-804.5 223.5,-804.5"/>
<text text-anchor="middle" x="294" y="-849.5" font-family="Helvetica,sans-Serif" font-size="10.00">std::basic_string&lt; Char &gt;</text>
<polyline fill="none" stroke="#bfbfbf" points="223.5,-842.5 364.5,-842.5 "/>
<text text-anchor="middle" x="294" y="-830.5" font-family="Helvetica,sans-Serif" font-size="10.00"> </text>
<polyline fill="none" stroke="#bfbfbf" points="223.5,-823.5 364.5,-823.5 "/>
<text text-anchor="middle" x="294" y="-811.5" font-family="Helvetica,sans-Serif" font-size="10.00"> </text>
</a>
</g>
</g>
<!-- Node7&#45;&gt;Node6 -->
<g id="edge6" class="edge">
<title>Node7&#45;&gt;Node6</title>
<path fill="none" stroke="midnightblue" d="M294,-794.24C294,-785.03 294,-775.35 294,-766.71"/>
<polygon fill="none" stroke="midnightblue" points="290.5,-794.35 294,-804.35 297.5,-794.35 290.5,-794.35"/>
</g>
<!-- Node8 -->
<g id="node8" class="node">
<title>Node8</title>
<g id="a_node8"><a xlink:title=" ">
<polygon fill="white" stroke="#bfbfbf" points="583.5,-566 583.5,-623 680.5,-623 680.5,-566 583.5,-566"/>
<text text-anchor="middle" x="632" y="-611" font-family="Helvetica,sans-Serif" font-size="10.00">std::vector&lt; T &gt;</text>
<polyline fill="none" stroke="#bfbfbf" points="583.5,-604 680.5,-604 "/>
<text text-anchor="middle" x="632" y="-592" font-family="Helvetica,sans-Serif" font-size="10.00"> </text>
<polyline fill="none" stroke="#bfbfbf" points="583.5,-585 680.5,-585 "/>
<text text-anchor="middle" x="632" y="-573" font-family="Helvetica,sans-Serif" font-size="10.00"> </text>
</a>
</g>
</g>
<!-- Node8&#45;&gt;Node4 -->
<g id="edge7" class="edge">
<title>Node8&#45;&gt;Node4</title>
<path fill="none" stroke="orange" d="M629.6,-555.71C628.07,-531.73 626.13,-501.25 624.75,-479.55"/>
<polygon fill="orange" stroke="orange" points="626.12,-556.12 630.24,-565.88 633.1,-555.68 626.12,-556.12"/>
<text text-anchor="middle" x="672" y="-501" font-family="Helvetica,sans-Serif" font-size="10.00"> &lt; gauri::Layer * &gt;</text>
</g>
<!-- Node9 -->
<g id="node9" class="node">
<title>Node9</title>
<g id="a_node9"><a xlink:title=" ">
<polygon fill="white" stroke="#bfbfbf" points="685.5,-709.5 685.5,-766.5 714.5,-766.5 714.5,-709.5 685.5,-709.5"/>
<text text-anchor="middle" x="700" y="-754.5" font-family="Helvetica,sans-Serif" font-size="10.00">T</text>
<polyline fill="none" stroke="#bfbfbf" points="685.5,-747.5 714.5,-747.5 "/>
<text text-anchor="middle" x="700" y="-735.5" font-family="Helvetica,sans-Serif" font-size="10.00"> </text>
<polyline fill="none" stroke="#bfbfbf" points="685.5,-728.5 714.5,-728.5 "/>
<text text-anchor="middle" x="700" y="-716.5" font-family="Helvetica,sans-Serif" font-size="10.00"> </text>
</a>
</g>
</g>
<!-- Node9&#45;&gt;Node8 -->
<g id="edge8" class="edge">
<title>Node9&#45;&gt;Node8</title>
<path fill="none" stroke="#404040" d="M685.35,-714.46C680.83,-707.11 675.99,-698.83 672,-691 662.73,-672.83 653.82,-652 646.77,-634.44"/>
<polygon fill="none" stroke="#404040" points="646.72,-634.32 640.8,-630.21 642.31,-623.16 648.24,-627.27 646.72,-634.32"/>
<text text-anchor="middle" x="701" y="-683" font-family="Helvetica,sans-Serif" font-size="10.00"> +elements</text>
</g>
<!-- Node13 -->
<g id="node13" class="node">
<title>Node13</title>
<g id="a_node13"><a xlink:title=" ">
<polygon fill="white" stroke="#bfbfbf" points="711,-566 711,-623 829,-623 829,-566 711,-566"/>
<text text-anchor="middle" x="770" y="-611" font-family="Helvetica,sans-Serif" font-size="10.00">std::unique_ptr&lt; T &gt;</text>
<polyline fill="none" stroke="#bfbfbf" points="711,-604 829,-604 "/>
<text text-anchor="middle" x="770" y="-592" font-family="Helvetica,sans-Serif" font-size="10.00"> </text>
<polyline fill="none" stroke="#bfbfbf" points="711,-585 829,-585 "/>
<text text-anchor="start" x="719" y="-573" font-family="Helvetica,sans-Serif" font-size="10.00">+ T * operator&#45;&gt;()</text>
</a>
</g>
</g>
<!-- Node9&#45;&gt;Node13 -->
<g id="edge13" class="edge">
<title>Node9&#45;&gt;Node13</title>
<path fill="none" stroke="#404040" d="M714.56,-716.42C719.76,-708.64 725.45,-699.59 730,-691 739.55,-672.98 748.49,-652.17 755.49,-634.58"/>
<polygon fill="none" stroke="#404040" points="755.54,-634.45 754,-627.41 759.9,-623.28 761.45,-630.32 755.54,-634.45"/>
<text text-anchor="middle" x="747.5" y="-683" font-family="Helvetica,sans-Serif" font-size="10.00"> +ptr</text>
</g>
<!-- Node10 -->
<g id="node10" class="node">
<title>Node10</title>
<g id="a_node10"><a xlink:href="classgauri_1_1Timestep.html" target="_top" xlink:title=" ">
<polygon fill="white" stroke="black" points="332.5,-215.5 332.5,-305.5 499.5,-305.5 499.5,-215.5 332.5,-215.5"/>
<text text-anchor="middle" x="416" y="-293.5" font-family="Helvetica,sans-Serif" font-size="10.00">gauri::Timestep</text>
<polyline fill="none" stroke="black" points="332.5,-286.5 499.5,-286.5 "/>
<text text-anchor="middle" x="416" y="-274.5" font-family="Helvetica,sans-Serif" font-size="10.00"> </text>
<polyline fill="none" stroke="black" points="332.5,-267.5 499.5,-267.5 "/>
<text text-anchor="start" x="340.5" y="-255.5" font-family="Helvetica,sans-Serif" font-size="10.00">+ Timestep(float time=0.0f)</text>
<text text-anchor="start" x="340.5" y="-244.5" font-family="Helvetica,sans-Serif" font-size="10.00">+ operator float() const</text>
<text text-anchor="start" x="340.5" y="-233.5" font-family="Helvetica,sans-Serif" font-size="10.00">+ float GetSeconds() const</text>
<text text-anchor="start" x="340.5" y="-222.5" font-family="Helvetica,sans-Serif" font-size="10.00">+ float GetMilliseconds() const</text>
</a>
</g>
</g>
<!-- Node10&#45;&gt;Node1 -->
<g id="edge9" class="edge">
<title>Node10&#45;&gt;Node1</title>
<path fill="none" stroke="#404040" d="M441.15,-215.07C451.17,-197.36 463.04,-176.39 474.52,-156.11"/>
<polygon fill="none" stroke="#404040" points="474.56,-156.04 474.04,-148.84 480.48,-145.59 481,-152.78 474.56,-156.04"/>
<text text-anchor="middle" x="503" y="-167" font-family="Helvetica,sans-Serif" font-size="10.00"> &#45;m_Timestep</text>
</g>
<!-- Node11 -->
<g id="node11" class="node">
<title>Node11</title>
<g id="a_node11"><a xlink:title=" ">
<polygon fill="white" stroke="#bfbfbf" points="197,-422.5 197,-479.5 235,-479.5 235,-422.5 197,-422.5"/>
<text text-anchor="middle" x="216" y="-467.5" font-family="Helvetica,sans-Serif" font-size="10.00">float</text>
<polyline fill="none" stroke="#bfbfbf" points="197,-460.5 235,-460.5 "/>
<text text-anchor="middle" x="216" y="-448.5" font-family="Helvetica,sans-Serif" font-size="10.00"> </text>
<polyline fill="none" stroke="#bfbfbf" points="197,-441.5 235,-441.5 "/>
<text text-anchor="middle" x="216" y="-429.5" font-family="Helvetica,sans-Serif" font-size="10.00"> </text>
</a>
</g>
</g>
<!-- Node11&#45;&gt;Node1 -->
<g id="edge15" class="edge">
<title>Node11&#45;&gt;Node1</title>
<path fill="none" stroke="#404040" d="M213.31,-422.42C208.16,-363.81 199.55,-229.27 225,-193 262.13,-140.08 326.93,-110.68 386.46,-94.35"/>
<polygon fill="none" stroke="#404040" points="386.67,-94.29 391.46,-88.91 398.28,-91.26 393.49,-96.64 386.67,-94.29"/>
<text text-anchor="middle" x="274" y="-258" font-family="Helvetica,sans-Serif" font-size="10.00"> &#45;m_LastFrameTime</text>
</g>
<!-- Node11&#45;&gt;Node10 -->
<g id="edge10" class="edge">
<title>Node11&#45;&gt;Node10</title>
<path fill="none" stroke="#404040" d="M235.18,-431.93C263.69,-405.06 318.38,-353.51 360.18,-314.11"/>
<polygon fill="none" stroke="#404040" points="360.42,-313.88 362.04,-306.86 369.15,-305.65 367.53,-312.68 360.42,-313.88"/>
<text text-anchor="middle" x="345.5" y="-372.5" font-family="Helvetica,sans-Serif" font-size="10.00"> &#45;m_Time</text>
</g>
<!-- Node11&#45;&gt;Node15 -->
<g id="edge19" class="edge">
<title>Node11&#45;&gt;Node15</title>
<path fill="none" stroke="#404040" d="M196.94,-439.15C183.78,-430.88 166.62,-418.48 155,-404 138.25,-383.13 124.77,-357.25 114.53,-333.29"/>
<polygon fill="none" stroke="#404040" points="114.48,-333.17 108.49,-329.15 109.9,-322.08 115.89,-326.1 114.48,-333.17"/>
<text text-anchor="middle" x="178.5" y="-372.5" font-family="Helvetica,sans-Serif" font-size="10.00"> &#45;m_Time</text>
</g>
<!-- Node12 -->
<g id="node12" class="node">
<title>Node12</title>
<g id="a_node12"><a xlink:title=" ">
<polygon fill="white" stroke="#bfbfbf" points="683,-346.5 683,-403.5 865,-403.5 865,-346.5 683,-346.5"/>
<text text-anchor="middle" x="774" y="-391.5" font-family="Helvetica,sans-Serif" font-size="10.00">std::unique_ptr&lt; gauri::Window &gt;</text>
<polyline fill="none" stroke="#bfbfbf" points="683,-384.5 865,-384.5 "/>
<text text-anchor="start" x="691" y="-372.5" font-family="Helvetica,sans-Serif" font-size="10.00">+ gauri::Window ptr</text>
<polyline fill="none" stroke="#bfbfbf" points="683,-365.5 865,-365.5 "/>
<text text-anchor="start" x="691" y="-353.5" font-family="Helvetica,sans-Serif" font-size="10.00">+ gauri::Window * operator&#45;&gt;()</text>
</a>
</g>
</g>
<!-- Node12&#45;&gt;Node1 -->
<g id="edge11" class="edge">
<title>Node12&#45;&gt;Node1</title>
<path fill="none" stroke="#404040" d="M776.57,-346.34C778.64,-308.19 776.96,-238.94 744,-193 721.66,-161.87 688.63,-138.14 654.79,-120.37"/>
<polygon fill="none" stroke="#404040" points="654.5,-120.22 647.34,-121.09 643.79,-114.81 650.94,-113.95 654.5,-120.22"/>
<text text-anchor="middle" x="807.5" y="-258" font-family="Helvetica,sans-Serif" font-size="10.00"> &#45;m_Window</text>
</g>
<!-- Node13&#45;&gt;Node12 -->
<g id="edge12" class="edge">
<title>Node13&#45;&gt;Node12</title>
<path fill="none" stroke="orange" d="M770.69,-555.81C771.49,-512.44 772.78,-442.28 773.49,-403.67"/>
<polygon fill="orange" stroke="orange" points="767.19,-555.89 770.51,-565.95 774.19,-556.02 767.19,-555.89"/>
<text text-anchor="middle" x="819" y="-501" font-family="Helvetica,sans-Serif" font-size="10.00"> &lt; gauri::Window &gt;</text>
</g>
<!-- Node14 -->
<g id="node14" class="node">
<title>Node14</title>
<g id="a_node14"><a xlink:title=" ">
<polygon fill="white" stroke="#bfbfbf" points="850,-232 850,-289 888,-289 888,-232 850,-232"/>
<text text-anchor="middle" x="869" y="-277" font-family="Helvetica,sans-Serif" font-size="10.00">bool</text>
<polyline fill="none" stroke="#bfbfbf" points="850,-270 888,-270 "/>
<text text-anchor="middle" x="869" y="-258" font-family="Helvetica,sans-Serif" font-size="10.00"> </text>
<polyline fill="none" stroke="#bfbfbf" points="850,-251 888,-251 "/>
<text text-anchor="middle" x="869" y="-239" font-family="Helvetica,sans-Serif" font-size="10.00"> </text>
</a>
</g>
</g>
<!-- Node14&#45;&gt;Node1 -->
<g id="edge16" class="edge">
<title>Node14&#45;&gt;Node1</title>
<path fill="none" stroke="#404040" d="M859.68,-232C854.27,-219.05 846.45,-204.05 836,-193 788.66,-142.91 718.11,-113.72 655.77,-96.8"/>
<polygon fill="none" stroke="#404040" points="655.44,-96.71 648.62,-99.06 643.83,-93.68 650.64,-91.32 655.44,-96.71"/>
<text text-anchor="middle" x="851" y="-167" font-family="Helvetica,sans-Serif" font-size="10.00"> &#45;m_IsRunning</text>
</g>
<!-- Node15&#45;&gt;Node1 -->
<g id="edge17" class="edge">
<title>Node15&#45;&gt;Node1</title>
<path fill="none" stroke="#404040" d="M100.71,-198.93C105.58,-185.88 112.68,-173.24 123,-164 161.67,-129.38 286.49,-104.9 386.15,-90.3"/>
<polygon fill="none" stroke="#404040" points="386.29,-90.28 391.66,-85.47 398.17,-88.57 392.8,-93.38 386.29,-90.28"/>
<text text-anchor="middle" x="162.5" y="-167" font-family="Helvetica,sans-Serif" font-size="10.00"> &#45;m_ImGuiLayer</text>
</g>
</g>
</svg>
