<?xml version="1.0" encoding="UTF-8" standalone="no"?>
<!DOCTYPE svg PUBLIC "-//W3C//DTD SVG 1.1//EN"
 "http://www.w3.org/Graphics/SVG/1.1/DTD/svg11.dtd">
<!-- Generated by graphviz version 2.43.0 (0)
 -->
<!-- Title: gauri::ScriptableEntity Pages: 1 -->
<svg width="398pt" height="557pt"
 viewBox="0.00 0.00 398.00 557.00" xmlns="http://www.w3.org/2000/svg" xmlns:xlink="http://www.w3.org/1999/xlink">
<g id="graph0" class="graph" transform="scale(1 1) rotate(0) translate(4 553)">
<title>gauri::ScriptableEntity</title>
<polygon fill="white" stroke="transparent" points="-4,4 -4,-553 394,-553 394,4 -4,4"/>
<!-- Node1 -->
<g id="node1" class="node">
<title>Node1</title>
<g id="a_node1"><a xlink:title=" ">
<polygon fill="#bfbfbf" stroke="black" points="151,-0.5 151,-101.5 351,-101.5 351,-0.5 151,-0.5"/>
<text text-anchor="middle" x="251" y="-89.5" font-family="Helvetica,sans-Serif" font-size="10.00">gauri::ScriptableEntity</text>
<polyline fill="none" stroke="black" points="151,-82.5 351,-82.5 "/>
<text text-anchor="middle" x="251" y="-70.5" font-family="Helvetica,sans-Serif" font-size="10.00"> </text>
<polyline fill="none" stroke="black" points="151,-63.5 351,-63.5 "/>
<text text-anchor="start" x="159" y="-51.5" font-family="Helvetica,sans-Serif" font-size="10.00">+ virtual ~ScriptableEntity()=default</text>
<text text-anchor="start" x="159" y="-40.5" font-family="Helvetica,sans-Serif" font-size="10.00">+ T &amp; GetComponent()</text>
<text text-anchor="start" x="159" y="-29.5" font-family="Helvetica,sans-Serif" font-size="10.00"># virtual void OnCreate()</text>
<text text-anchor="start" x="159" y="-18.5" font-family="Helvetica,sans-Serif" font-size="10.00"># virtual void OnDestroy()</text>
<text text-anchor="start" x="159" y="-7.5" font-family="Helvetica,sans-Serif" font-size="10.00"># virtual void OnUpdate(Timestep ts)</text>
</a>
</g>
</g>
<!-- Node2 -->
<g id="node2" class="node">
<title>Node2</title>
<g id="a_node2"><a xlink:href="classgauri_1_1Entity.html" target="_top" xlink:title=" ">
<polygon fill="white" stroke="black" points="138,-149.5 138,-283.5 364,-283.5 364,-149.5 138,-149.5"/>
<text text-anchor="middle" x="251" y="-271.5" font-family="Helvetica,sans-Serif" font-size="10.00">gauri::Entity</text>
<polyline fill="none" stroke="black" points="138,-264.5 364,-264.5 "/>
<text text-anchor="middle" x="251" y="-252.5" font-family="Helvetica,sans-Serif" font-size="10.00"> </text>
<polyline fill="none" stroke="black" points="138,-245.5 364,-245.5 "/>
<text text-anchor="start" x="146" y="-233.5" font-family="Helvetica,sans-Serif" font-size="10.00">+ Entity()=default</text>
<text text-anchor="start" x="146" y="-222.5" font-family="Helvetica,sans-Serif" font-size="10.00">+ Entity(entt::entity handle, Scene *scene)</text>
<text text-anchor="start" x="146" y="-211.5" font-family="Helvetica,sans-Serif" font-size="10.00">+ Entity(const Entity &amp;other)=default</text>
<text text-anchor="start" x="146" y="-200.5" font-family="Helvetica,sans-Serif" font-size="10.00">+ T &amp; AddComponent(Args &amp;&amp;...args)</text>
<text text-anchor="start" x="146" y="-189.5" font-family="Helvetica,sans-Serif" font-size="10.00">+ T &amp; GetComponent()</text>
<text text-anchor="start" x="146" y="-178.5" font-family="Helvetica,sans-Serif" font-size="10.00">+ bool HasComponent()</text>
<text text-anchor="start" x="146" y="-167.5" font-family="Helvetica,sans-Serif" font-size="10.00">+ void RemoveComponent()</text>
<text text-anchor="start" x="146" y="-156.5" font-family="Helvetica,sans-Serif" font-size="10.00">+ operator bool() const</text>
</a>
</g>
</g>
<!-- Node2&#45;&gt;Node1 -->
<g id="edge1" class="edge">
<title>Node2&#45;&gt;Node1</title>
<path fill="none" stroke="#404040" d="M251,-149.47C251,-137.75 251,-125.59 251,-113.99"/>
<polygon fill="none" stroke="#404040" points="251,-113.68 247,-107.68 251,-101.68 255,-107.68 251,-113.68"/>
<text text-anchor="middle" x="276.5" y="-123" font-family="Helvetica,sans-Serif" font-size="10.00"> &#45;m_Entity</text>
</g>
<!-- Node3 -->
<g id="node3" class="node">
<title>Node3</title>
<g id="a_node3"><a xlink:href="classgauri_1_1Scene.html" target="_top" xlink:title=" ">
<polygon fill="white" stroke="black" points="0,-331.5 0,-432.5 308,-432.5 308,-331.5 0,-331.5"/>
<text text-anchor="middle" x="154" y="-420.5" font-family="Helvetica,sans-Serif" font-size="10.00">gauri::Scene</text>
<polyline fill="none" stroke="black" points="0,-413.5 308,-413.5 "/>
<text text-anchor="middle" x="154" y="-401.5" font-family="Helvetica,sans-Serif" font-size="10.00"> </text>
<polyline fill="none" stroke="black" points="0,-394.5 308,-394.5 "/>
<text text-anchor="start" x="8" y="-382.5" font-family="Helvetica,sans-Serif" font-size="10.00">+ Scene()</text>
<text text-anchor="start" x="8" y="-371.5" font-family="Helvetica,sans-Serif" font-size="10.00">+ ~Scene()</text>
<text text-anchor="start" x="8" y="-360.5" font-family="Helvetica,sans-Serif" font-size="10.00">+ Entity CreateEntity(const std::string &amp;name=std::string())</text>
<text text-anchor="start" x="8" y="-349.5" font-family="Helvetica,sans-Serif" font-size="10.00">+ void OnUpdate(Timestep ts)</text>
<text text-anchor="start" x="8" y="-338.5" font-family="Helvetica,sans-Serif" font-size="10.00">+ void OnViewportResize(uint32_t width, uint32_t height)</text>
</a>
</g>
</g>
<!-- Node3&#45;&gt;Node2 -->
<g id="edge2" class="edge">
<title>Node3&#45;&gt;Node2</title>
<path fill="none" stroke="#404040" d="M183.63,-331.06C190.55,-319.39 198.08,-306.7 205.51,-294.17"/>
<polygon fill="none" stroke="#404040" points="205.6,-294.03 205.22,-286.83 211.72,-283.71 212.1,-290.91 205.6,-294.03"/>
<text text-anchor="middle" x="226" y="-305" font-family="Helvetica,sans-Serif" font-size="10.00"> &#45;m_Scene</text>
</g>
<!-- Node4 -->
<g id="node4" class="node">
<title>Node4</title>
<g id="a_node4"><a xlink:title=" ">
<polygon fill="white" stroke="#bfbfbf" points="84,-491.5 84,-548.5 138,-548.5 138,-491.5 84,-491.5"/>
<text text-anchor="middle" x="111" y="-536.5" font-family="Helvetica,sans-Serif" font-size="10.00">registry</text>
<polyline fill="none" stroke="#bfbfbf" points="84,-529.5 138,-529.5 "/>
<text text-anchor="middle" x="111" y="-517.5" font-family="Helvetica,sans-Serif" font-size="10.00"> </text>
<polyline fill="none" stroke="#bfbfbf" points="84,-510.5 138,-510.5 "/>
<text text-anchor="middle" x="111" y="-498.5" font-family="Helvetica,sans-Serif" font-size="10.00"> </text>
</a>
</g>
</g>
<!-- Node4&#45;&gt;Node3 -->
<g id="edge3" class="edge">
<title>Node4&#45;&gt;Node3</title>
<path fill="none" stroke="#404040" d="M108.1,-491.37C107.62,-478.82 108.23,-463.92 112,-451 112.67,-448.7 113.44,-446.41 114.3,-444.12"/>
<polygon fill="none" stroke="#404040" points="114.42,-443.84 113.13,-436.75 119.19,-432.83 120.47,-439.93 114.42,-443.84"/>
<text text-anchor="middle" x="143.5" y="-459.5" font-family="Helvetica,sans-Serif" font-size="10.00"> &#45;m_Registry</text>
</g>
<!-- Node5 -->
<g id="node5" class="node">
<title>Node5</title>
<g id="a_node5"><a xlink:title=" ">
<polygon fill="white" stroke="#bfbfbf" points="169,-491.5 169,-548.5 225,-548.5 225,-491.5 169,-491.5"/>
<text text-anchor="middle" x="197" y="-536.5" font-family="Helvetica,sans-Serif" font-size="10.00">uint32_t</text>
<polyline fill="none" stroke="#bfbfbf" points="169,-529.5 225,-529.5 "/>
<text text-anchor="middle" x="197" y="-517.5" font-family="Helvetica,sans-Serif" font-size="10.00"> </text>
<polyline fill="none" stroke="#bfbfbf" points="169,-510.5 225,-510.5 "/>
<text text-anchor="middle" x="197" y="-498.5" font-family="Helvetica,sans-Serif" font-size="10.00"> </text>
</a>
</g>
</g>
<!-- Node5&#45;&gt;Node3 -->
<g id="edge4" class="edge">
<title>Node5&#45;&gt;Node3</title>
<path fill="none" stroke="#404040" d="M188.3,-491.48C184.01,-477.93 178.66,-461 173.47,-444.58"/>
<polygon fill="none" stroke="#404040" points="173.35,-444.21 167.73,-439.69 169.73,-432.76 175.36,-437.28 173.35,-444.21"/>
<text text-anchor="middle" x="231" y="-465" font-family="Helvetica,sans-Serif" font-size="10.00"> &#45;m_ViewportHeight</text>
<text text-anchor="middle" x="231" y="-454" font-family="Helvetica,sans-Serif" font-size="10.00">&#45;m_ViewportWidth</text>
</g>
<!-- Node6 -->
<g id="node6" class="node">
<title>Node6</title>
<g id="a_node6"><a xlink:title=" ">
<polygon fill="white" stroke="#bfbfbf" points="326.5,-353.5 326.5,-410.5 371.5,-410.5 371.5,-353.5 326.5,-353.5"/>
<text text-anchor="middle" x="349" y="-398.5" font-family="Helvetica,sans-Serif" font-size="10.00">entity</text>
<polyline fill="none" stroke="#bfbfbf" points="326.5,-391.5 371.5,-391.5 "/>
<text text-anchor="middle" x="349" y="-379.5" font-family="Helvetica,sans-Serif" font-size="10.00"> </text>
<polyline fill="none" stroke="#bfbfbf" points="326.5,-372.5 371.5,-372.5 "/>
<text text-anchor="middle" x="349" y="-360.5" font-family="Helvetica,sans-Serif" font-size="10.00"> </text>
</a>
</g>
</g>
<!-- Node6&#45;&gt;Node2 -->
<g id="edge5" class="edge">
<title>Node6&#45;&gt;Node2</title>
<path fill="none" stroke="#404040" d="M332.38,-353.26C322.52,-336.82 309.5,-315.1 296.78,-293.87"/>
<polygon fill="none" stroke="#404040" points="296.74,-293.8 290.22,-290.71 290.57,-283.51 297.08,-286.6 296.74,-293.8"/>
<text text-anchor="middle" x="347.5" y="-305" font-family="Helvetica,sans-Serif" font-size="10.00"> &#45;m_EntityHandle</text>
</g>
</g>
</svg>
