<?xml version="1.0" encoding="UTF-8" standalone="no"?>
<!DOCTYPE svg PUBLIC "-//W3C//DTD SVG 1.1//EN"
 "http://www.w3.org/Graphics/SVG/1.1/DTD/svg11.dtd">
<!-- Generated by graphviz version 2.43.0 (0)
 -->
<!-- Title: gauri::OpenGLVertexBuffer Pages: 1 -->
<!--zoomable 757 -->
<svg id="main" version="1.1" xmlns="http://www.w3.org/2000/svg" xmlns:xlink="http://www.w3.org/1999/xlink" xml:space="preserve" onload="init(evt)">
<style type="text/css"><![CDATA[
.edge:hover path { stroke: red; }
.edge:hover polygon { stroke: red; fill: red; }
]]></style>
<script type="text/javascript"><![CDATA[
var edges = document.getElementsByTagName('g');
if (edges && edges.length) {
  for (var i=0;i<edges.length;i++) {
    if (edges[i].id.substr(0,4)=='edge') {
      edges[i].setAttribute('class','edge');
    }
  }
}
]]></script>
        <defs>
                <circle id="rim" cx="0" cy="0" r="7"/>
                <circle id="rim2" cx="0" cy="0" r="3.5"/>
                <g id="zoomPlus">
                        <use xlink:href="#rim" fill="#404040">
                                <set attributeName="fill" to="#808080" begin="zoomplus.mouseover" end="zoomplus.mouseout"/>
                        </use>
                        <path d="M-4,0h8M0,-4v8" fill="none" stroke="white" stroke-width="1.5" pointer-events="none"/>
                </g>
                <g id="zoomMin">
                        <use xlink:href="#rim" fill="#404040">
                                <set attributeName="fill" to="#808080" begin="zoomminus.mouseover" end="zoomminus.mouseout"/>
                        </use>
                        <path d="M-4,0h8" fill="none" stroke="white" stroke-width="1.5" pointer-events="none"/>
                </g>
                <g id="dirArrow">
                        <path fill="none" stroke="white" stroke-width="1.5" d="M0,-3.0v7 M-2.5,-0.5L0,-3.0L2.5,-0.5"/>
                </g>
               <g id="resetDef">
                       <use xlink:href="#rim2" fill="#404040">
                               <set attributeName="fill" to="#808080" begin="reset.mouseover" end="reset.mouseout"/>
                       </use>
               </g>
        </defs>

<script type="text/javascript">
var viewWidth = 1050;
var viewHeight = 757;
var sectionId = 'dynsection-1';
</script>
<script xlink:href="svgpan.js"/>
<svg id="graph" class="graph">
<g id="viewport">
<title>gauri::OpenGLVertexBuffer</title>
<polygon fill="white" stroke="transparent" points="-4,4 -4,-753 1045.5,-753 1045.5,4 -4,4"/>
<!-- Node1 -->
<g id="node1" class="node">
<title>Node1</title>
<g id="a_node1"><a xlink:title=" ">
<polygon fill="#bfbfbf" stroke="black" points="192.5,-0.5 192.5,-112.5 476.5,-112.5 476.5,-0.5 192.5,-0.5"/>
<text text-anchor="middle" x="334.5" y="-100.5" font-family="Helvetica,sans-Serif" font-size="10.00">gauri::OpenGLVertexBuffer</text>
<polyline fill="none" stroke="black" points="192.5,-93.5 476.5,-93.5 "/>
<text text-anchor="middle" x="334.5" y="-81.5" font-family="Helvetica,sans-Serif" font-size="10.00"> </text>
<polyline fill="none" stroke="black" points="192.5,-74.5 476.5,-74.5 "/>
<text text-anchor="start" x="200.5" y="-62.5" font-family="Helvetica,sans-Serif" font-size="10.00">+ OpenGLVertexBuffer(float *vertices, uint32_t size)</text>
<text text-anchor="start" x="200.5" y="-51.5" font-family="Helvetica,sans-Serif" font-size="10.00">+ ~OpenGLVertexBuffer() override</text>
<text text-anchor="start" x="200.5" y="-40.5" font-family="Helvetica,sans-Serif" font-size="10.00">+ void Bind() const override</text>
<text text-anchor="start" x="200.5" y="-29.5" font-family="Helvetica,sans-Serif" font-size="10.00">+ void Unbind() const override</text>
<text text-anchor="start" x="200.5" y="-18.5" font-family="Helvetica,sans-Serif" font-size="10.00">+ void SetLayout(const BufferLayout &amp;layout) override</text>
<text text-anchor="start" x="200.5" y="-7.5" font-family="Helvetica,sans-Serif" font-size="10.00">+ const BufferLayout &amp; GetLayout() const override</text>
</a>
</g>
</g>
<!-- Node2 -->
<g id="node2" class="node">
<title>Node2</title>
<g id="a_node2"><a xlink:href="classgauri_1_1VertexBuffer.html" target="_top" xlink:title=" ">
<polygon fill="white" stroke="black" points="0,-177 0,-289 307,-289 307,-177 0,-177"/>
<text text-anchor="middle" x="153.5" y="-277" font-family="Helvetica,sans-Serif" font-size="10.00">gauri::VertexBuffer</text>
<polyline fill="none" stroke="black" points="0,-270 307,-270 "/>
<text text-anchor="middle" x="153.5" y="-258" font-family="Helvetica,sans-Serif" font-size="10.00"> </text>
<polyline fill="none" stroke="black" points="0,-251 307,-251 "/>
<text text-anchor="start" x="8" y="-239" font-family="Helvetica,sans-Serif" font-size="10.00">+ virtual ~VertexBuffer()=default</text>
<text text-anchor="start" x="8" y="-228" font-family="Helvetica,sans-Serif" font-size="10.00">+ virtual void Bind() const =0</text>
<text text-anchor="start" x="8" y="-217" font-family="Helvetica,sans-Serif" font-size="10.00">+ virtual void Unbind() const =0</text>
<text text-anchor="start" x="8" y="-206" font-family="Helvetica,sans-Serif" font-size="10.00">+ virtual const BufferLayout &amp; GetLayout() const =0</text>
<text text-anchor="start" x="8" y="-195" font-family="Helvetica,sans-Serif" font-size="10.00">+ virtual void SetLayout(const BufferLayout &amp;layout)=0</text>
<text text-anchor="start" x="8" y="-184" font-family="Helvetica,sans-Serif" font-size="10.00">+ static VertexBuffer * Create(float *vertices, uint32_t size)</text>
</a>
</g>
</g>
<!-- Node2&#45;&gt;Node1 -->
<g id="edge1" class="edge">
<title>Node2&#45;&gt;Node1</title>
<path fill="none" stroke="midnightblue" d="M218.09,-169.73C237.42,-151.1 258.47,-130.8 277.29,-112.65"/>
<polygon fill="none" stroke="midnightblue" points="215.54,-167.33 210.77,-176.79 220.4,-172.37 215.54,-167.33"/>
</g>
<!-- Node3 -->
<g id="node3" class="node">
<title>Node3</title>
<g id="a_node3"><a xlink:href="classgauri_1_1BufferLayout.html" target="_top" xlink:title=" ">
<polygon fill="white" stroke="black" points="362.5,-160.5 362.5,-305.5 724.5,-305.5 724.5,-160.5 362.5,-160.5"/>
<text text-anchor="middle" x="543.5" y="-293.5" font-family="Helvetica,sans-Serif" font-size="10.00">gauri::BufferLayout</text>
<polyline fill="none" stroke="black" points="362.5,-286.5 724.5,-286.5 "/>
<text text-anchor="middle" x="543.5" y="-274.5" font-family="Helvetica,sans-Serif" font-size="10.00"> </text>
<polyline fill="none" stroke="black" points="362.5,-267.5 724.5,-267.5 "/>
<text text-anchor="start" x="370.5" y="-255.5" font-family="Helvetica,sans-Serif" font-size="10.00">+ BufferLayout()=default</text>
<text text-anchor="start" x="370.5" y="-244.5" font-family="Helvetica,sans-Serif" font-size="10.00">+ BufferLayout(const std::initializer_list&lt; BufferElement &gt; &amp;elements)</text>
<text text-anchor="start" x="370.5" y="-233.5" font-family="Helvetica,sans-Serif" font-size="10.00">+ uint32_t GetStride() const</text>
<text text-anchor="start" x="370.5" y="-222.5" font-family="Helvetica,sans-Serif" font-size="10.00">+ const std::vector&lt; BufferElement &gt; &amp; GetElements() const</text>
<text text-anchor="start" x="370.5" y="-211.5" font-family="Helvetica,sans-Serif" font-size="10.00">+ std::vector&lt; BufferElement &gt;::iterator begin()</text>
<text text-anchor="start" x="370.5" y="-200.5" font-family="Helvetica,sans-Serif" font-size="10.00">+ std::vector&lt; BufferElement &gt;::iterator end()</text>
<text text-anchor="start" x="370.5" y="-189.5" font-family="Helvetica,sans-Serif" font-size="10.00">+ std::vector&lt; BufferElement &gt;::const_iterator begin() const</text>
<text text-anchor="start" x="370.5" y="-178.5" font-family="Helvetica,sans-Serif" font-size="10.00">+ std::vector&lt; BufferElement &gt;::const_iterator end() const</text>
<text text-anchor="start" x="370.5" y="-167.5" font-family="Helvetica,sans-Serif" font-size="10.00">&#45; void CalculateOffsetAndStride()</text>
</a>
</g>
</g>
<!-- Node3&#45;&gt;Node1 -->
<g id="edge2" class="edge">
<title>Node3&#45;&gt;Node1</title>
<path fill="none" stroke="#404040" d="M457.59,-160.27C441.83,-147.11 425.49,-133.47 410.06,-120.59"/>
<polygon fill="none" stroke="#404040" points="409.8,-120.37 402.63,-119.6 400.59,-112.68 407.76,-113.46 409.8,-120.37"/>
<text text-anchor="middle" x="461" y="-134" font-family="Helvetica,sans-Serif" font-size="10.00"> &#45;m_Layout</text>
</g>
<!-- Node4 -->
<g id="node4" class="node">
<title>Node4</title>
<g id="a_node4"><a xlink:title=" ">
<polygon fill="white" stroke="#bfbfbf" points="411.5,-596.5 411.5,-653.5 467.5,-653.5 467.5,-596.5 411.5,-596.5"/>
<text text-anchor="middle" x="439.5" y="-641.5" font-family="Helvetica,sans-Serif" font-size="10.00">uint32_t</text>
<polyline fill="none" stroke="#bfbfbf" points="411.5,-634.5 467.5,-634.5 "/>
<text text-anchor="middle" x="439.5" y="-622.5" font-family="Helvetica,sans-Serif" font-size="10.00"> </text>
<polyline fill="none" stroke="#bfbfbf" points="411.5,-615.5 467.5,-615.5 "/>
<text text-anchor="middle" x="439.5" y="-603.5" font-family="Helvetica,sans-Serif" font-size="10.00"> </text>
</a>
</g>
</g>
<!-- Node4&#45;&gt;Node1 -->
<g id="edge13" class="edge">
<title>Node4&#45;&gt;Node1</title>
<path fill="none" stroke="#404040" d="M411.36,-607.1C380.26,-586.03 334.5,-546.9 334.5,-499 334.5,-499 334.5,-499 334.5,-232 334.5,-196.54 334.5,-157.03 334.5,-124.58"/>
<polygon fill="none" stroke="#404040" points="334.5,-124.51 330.5,-118.51 334.5,-112.51 338.5,-118.51 334.5,-124.51"/>
<text text-anchor="middle" x="373" y="-379.5" font-family="Helvetica,sans-Serif" font-size="10.00"> &#45;m_RendererID</text>
</g>
<!-- Node4&#45;&gt;Node3 -->
<g id="edge3" class="edge">
<title>Node4&#45;&gt;Node3</title>
<path fill="none" stroke="#404040" d="M440.57,-596.32C442.33,-563.06 446.89,-505.78 458.5,-458 470.15,-410.05 489.25,-358.44 506.4,-316.86"/>
<polygon fill="none" stroke="#404040" points="506.44,-316.76 505.06,-309.69 511.06,-305.69 512.44,-312.77 506.44,-316.76"/>
<text text-anchor="middle" x="492" y="-432" font-family="Helvetica,sans-Serif" font-size="10.00"> &#45;m_Stride</text>
</g>
<!-- Node6 -->
<g id="node6" class="node">
<title>Node6</title>
<g id="a_node6"><a xlink:href="structgauri_1_1BufferElement.html" target="_top" xlink:title=" ">
<polygon fill="white" stroke="black" points="468,-458.5 468,-537.5 917,-537.5 917,-458.5 468,-458.5"/>
<text text-anchor="middle" x="692.5" y="-525.5" font-family="Helvetica,sans-Serif" font-size="10.00">gauri::BufferElement</text>
<polyline fill="none" stroke="black" points="468,-518.5 917,-518.5 "/>
<text text-anchor="middle" x="692.5" y="-506.5" font-family="Helvetica,sans-Serif" font-size="10.00"> </text>
<polyline fill="none" stroke="black" points="468,-499.5 917,-499.5 "/>
<text text-anchor="start" x="476" y="-487.5" font-family="Helvetica,sans-Serif" font-size="10.00">+ BufferElement()=default</text>
<text text-anchor="start" x="476" y="-476.5" font-family="Helvetica,sans-Serif" font-size="10.00">+ BufferElement(ShaderDataType type, const std::string &amp;name, bool normalized=false)</text>
<text text-anchor="start" x="476" y="-465.5" font-family="Helvetica,sans-Serif" font-size="10.00">+ uint32_t GetComponentCount() const</text>
</a>
</g>
</g>
<!-- Node4&#45;&gt;Node6 -->
<g id="edge7" class="edge">
<title>Node4&#45;&gt;Node6</title>
<path fill="none" stroke="#404040" d="M467.54,-610.15C500.19,-594.02 555.72,-566.58 603.45,-543"/>
<polygon fill="none" stroke="#404040" points="603.68,-542.88 607.29,-536.64 614.44,-537.57 610.83,-543.81 603.68,-542.88"/>
<text text-anchor="middle" x="595" y="-570" font-family="Helvetica,sans-Serif" font-size="10.00"> +Offset</text>
<text text-anchor="middle" x="595" y="-559" font-family="Helvetica,sans-Serif" font-size="10.00">+Size</text>
</g>
<!-- Node5 -->
<g id="node5" class="node">
<title>Node5</title>
<g id="a_node5"><a xlink:title=" ">
<polygon fill="white" stroke="#bfbfbf" points="597,-353.5 597,-410.5 788,-410.5 788,-353.5 597,-353.5"/>
<text text-anchor="middle" x="692.5" y="-398.5" font-family="Helvetica,sans-Serif" font-size="10.00">std::vector&lt; gauri::BufferElement &gt;</text>
<polyline fill="none" stroke="#bfbfbf" points="597,-391.5 788,-391.5 "/>
<text text-anchor="middle" x="692.5" y="-379.5" font-family="Helvetica,sans-Serif" font-size="10.00"> </text>
<polyline fill="none" stroke="#bfbfbf" points="597,-372.5 788,-372.5 "/>
<text text-anchor="middle" x="692.5" y="-360.5" font-family="Helvetica,sans-Serif" font-size="10.00"> </text>
</a>
</g>
</g>
<!-- Node5&#45;&gt;Node3 -->
<g id="edge4" class="edge">
<title>Node5&#45;&gt;Node3</title>
<path fill="none" stroke="#404040" d="M664.47,-353.35C653.03,-342.06 639.14,-328.35 624.91,-314.32"/>
<polygon fill="none" stroke="#404040" points="624.57,-313.98 617.49,-312.62 616.03,-305.56 623.11,-306.92 624.57,-313.98"/>
<text text-anchor="middle" x="678.5" y="-327" font-family="Helvetica,sans-Serif" font-size="10.00"> &#45;m_Elements</text>
</g>
<!-- Node6&#45;&gt;Node5 -->
<g id="edge5" class="edge">
<title>Node6&#45;&gt;Node5</title>
<path fill="none" stroke="#404040" d="M692.5,-458.4C692.5,-446.93 692.5,-434.33 692.5,-422.78"/>
<polygon fill="none" stroke="#404040" points="692.5,-422.75 688.5,-416.75 692.5,-410.75 696.5,-416.75 692.5,-422.75"/>
<text text-anchor="middle" x="721.5" y="-432" font-family="Helvetica,sans-Serif" font-size="10.00"> +elements</text>
</g>
<!-- Node7 -->
<g id="node7" class="node">
<title>Node7</title>
<g id="a_node7"><a xlink:title=" ">
<polygon fill="white" stroke="#bfbfbf" points="559.5,-596.5 559.5,-653.5 655.5,-653.5 655.5,-596.5 559.5,-596.5"/>
<text text-anchor="middle" x="607.5" y="-641.5" font-family="Helvetica,sans-Serif" font-size="10.00">ShaderDataType</text>
<polyline fill="none" stroke="#bfbfbf" points="559.5,-634.5 655.5,-634.5 "/>
<text text-anchor="middle" x="607.5" y="-622.5" font-family="Helvetica,sans-Serif" font-size="10.00"> </text>
<polyline fill="none" stroke="#bfbfbf" points="559.5,-615.5 655.5,-615.5 "/>
<text text-anchor="middle" x="607.5" y="-603.5" font-family="Helvetica,sans-Serif" font-size="10.00"> </text>
</a>
</g>
</g>
<!-- Node7&#45;&gt;Node6 -->
<g id="edge6" class="edge">
<title>Node7&#45;&gt;Node6</title>
<path fill="none" stroke="#404040" d="M626.36,-596.26C636.09,-581.96 648.22,-564.11 659.44,-547.62"/>
<polygon fill="none" stroke="#404040" points="659.53,-547.49 659.59,-540.28 666.27,-537.57 666.21,-544.78 659.53,-547.49"/>
<text text-anchor="middle" x="670.5" y="-564.5" font-family="Helvetica,sans-Serif" font-size="10.00"> +Type</text>
</g>
<!-- Node8 -->
<g id="node8" class="node">
<title>Node8</title>
<g id="a_node8"><a xlink:title=" ">
<polygon fill="white" stroke="#bfbfbf" points="673.5,-596.5 673.5,-653.5 711.5,-653.5 711.5,-596.5 673.5,-596.5"/>
<text text-anchor="middle" x="692.5" y="-641.5" font-family="Helvetica,sans-Serif" font-size="10.00">bool</text>
<polyline fill="none" stroke="#bfbfbf" points="673.5,-634.5 711.5,-634.5 "/>
<text text-anchor="middle" x="692.5" y="-622.5" font-family="Helvetica,sans-Serif" font-size="10.00"> </text>
<polyline fill="none" stroke="#bfbfbf" points="673.5,-615.5 711.5,-615.5 "/>
<text text-anchor="middle" x="692.5" y="-603.5" font-family="Helvetica,sans-Serif" font-size="10.00"> </text>
</a>
</g>
</g>
<!-- Node8&#45;&gt;Node6 -->
<g id="edge8" class="edge">
<title>Node8&#45;&gt;Node6</title>
<path fill="none" stroke="#404040" d="M692.5,-596.26C692.5,-582.64 692.5,-565.79 692.5,-549.96"/>
<polygon fill="none" stroke="#404040" points="692.5,-549.57 688.5,-543.57 692.5,-537.57 696.5,-543.57 692.5,-549.57"/>
<text text-anchor="middle" x="726.5" y="-564.5" font-family="Helvetica,sans-Serif" font-size="10.00"> +Normalized</text>
</g>
<!-- Node9 -->
<g id="node9" class="node">
<title>Node9</title>
<g id="a_node9"><a xlink:title=" ">
<polygon fill="white" stroke="#bfbfbf" points="751,-596.5 751,-653.5 816,-653.5 816,-596.5 751,-596.5"/>
<text text-anchor="middle" x="783.5" y="-641.5" font-family="Helvetica,sans-Serif" font-size="10.00">std::string</text>
<polyline fill="none" stroke="#bfbfbf" points="751,-634.5 816,-634.5 "/>
<text text-anchor="middle" x="783.5" y="-622.5" font-family="Helvetica,sans-Serif" font-size="10.00"> </text>
<polyline fill="none" stroke="#bfbfbf" points="751,-615.5 816,-615.5 "/>
<text text-anchor="middle" x="783.5" y="-603.5" font-family="Helvetica,sans-Serif" font-size="10.00"> </text>
</a>
</g>
</g>
<!-- Node9&#45;&gt;Node6 -->
<g id="edge9" class="edge">
<title>Node9&#45;&gt;Node6</title>
<path fill="none" stroke="#404040" d="M778.3,-596.25C774.95,-583.25 769.66,-568.01 761.5,-556 759.27,-552.72 756.81,-549.53 754.17,-546.44"/>
<polygon fill="none" stroke="#404040" points="754.01,-546.27 746.99,-544.62 745.81,-537.5 752.83,-539.16 754.01,-546.27"/>
<text text-anchor="middle" x="793" y="-564.5" font-family="Helvetica,sans-Serif" font-size="10.00"> +Name</text>
</g>
<!-- Node10 -->
<g id="node10" class="node">
<title>Node10</title>
<g id="a_node10"><a xlink:title=" ">
<polygon fill="white" stroke="#bfbfbf" points="713,-691.5 713,-748.5 854,-748.5 854,-691.5 713,-691.5"/>
<text text-anchor="middle" x="783.5" y="-736.5" font-family="Helvetica,sans-Serif" font-size="10.00">std::basic_string&lt; Char &gt;</text>
<polyline fill="none" stroke="#bfbfbf" points="713,-729.5 854,-729.5 "/>
<text text-anchor="middle" x="783.5" y="-717.5" font-family="Helvetica,sans-Serif" font-size="10.00"> </text>
<polyline fill="none" stroke="#bfbfbf" points="713,-710.5 854,-710.5 "/>
<text text-anchor="middle" x="783.5" y="-698.5" font-family="Helvetica,sans-Serif" font-size="10.00"> </text>
</a>
</g>
</g>
<!-- Node10&#45;&gt;Node9 -->
<g id="edge10" class="edge">
<title>Node10&#45;&gt;Node9</title>
<path fill="none" stroke="midnightblue" d="M783.5,-681.24C783.5,-672.03 783.5,-662.35 783.5,-653.71"/>
<polygon fill="none" stroke="midnightblue" points="780,-681.35 783.5,-691.35 787,-681.35 780,-681.35"/>
</g>
<!-- Node11 -->
<g id="node11" class="node">
<title>Node11</title>
<g id="a_node11"><a xlink:title=" ">
<polygon fill="white" stroke="#bfbfbf" points="935,-469.5 935,-526.5 1032,-526.5 1032,-469.5 935,-469.5"/>
<text text-anchor="middle" x="983.5" y="-514.5" font-family="Helvetica,sans-Serif" font-size="10.00">std::vector&lt; T &gt;</text>
<polyline fill="none" stroke="#bfbfbf" points="935,-507.5 1032,-507.5 "/>
<text text-anchor="middle" x="983.5" y="-495.5" font-family="Helvetica,sans-Serif" font-size="10.00"> </text>
<polyline fill="none" stroke="#bfbfbf" points="935,-488.5 1032,-488.5 "/>
<text text-anchor="middle" x="983.5" y="-476.5" font-family="Helvetica,sans-Serif" font-size="10.00"> </text>
</a>
</g>
</g>
<!-- Node11&#45;&gt;Node5 -->
<g id="edge11" class="edge">
<title>Node11&#45;&gt;Node5</title>
<path fill="none" stroke="orange" d="M937.79,-464.09C934.05,-461.9 930.26,-459.84 926.5,-458 882.72,-436.58 831.41,-419.34 788.01,-406.81"/>
<polygon fill="orange" stroke="orange" points="936.06,-467.13 946.41,-469.38 939.73,-461.17 936.06,-467.13"/>
<text text-anchor="middle" x="947" y="-432" font-family="Helvetica,sans-Serif" font-size="10.00"> &lt; gauri::BufferElement &gt;</text>
</g>
<!-- Node12 -->
<g id="node12" class="node">
<title>Node12</title>
<g id="a_node12"><a xlink:title=" ">
<polygon fill="white" stroke="#bfbfbf" points="969,-596.5 969,-653.5 998,-653.5 998,-596.5 969,-596.5"/>
<text text-anchor="middle" x="983.5" y="-641.5" font-family="Helvetica,sans-Serif" font-size="10.00">T</text>
<polyline fill="none" stroke="#bfbfbf" points="969,-634.5 998,-634.5 "/>
<text text-anchor="middle" x="983.5" y="-622.5" font-family="Helvetica,sans-Serif" font-size="10.00"> </text>
<polyline fill="none" stroke="#bfbfbf" points="969,-615.5 998,-615.5 "/>
<text text-anchor="middle" x="983.5" y="-603.5" font-family="Helvetica,sans-Serif" font-size="10.00"> </text>
</a>
</g>
</g>
<!-- Node12&#45;&gt;Node11 -->
<g id="edge12" class="edge">
<title>Node12&#45;&gt;Node11</title>
<path fill="none" stroke="#404040" d="M983.5,-596.26C983.5,-579.35 983.5,-557.46 983.5,-538.73"/>
<polygon fill="none" stroke="#404040" points="983.5,-538.66 979.5,-532.66 983.5,-526.66 987.5,-532.66 983.5,-538.66"/>
<text text-anchor="middle" x="1012.5" y="-564.5" font-family="Helvetica,sans-Serif" font-size="10.00"> +elements</text>
</g>
</g>
</svg>
        <g id="navigator" transform="translate(0 0)" fill="#404254">
                <rect fill="#f2f5e9" fill-opacity="0.5" stroke="#606060" stroke-width=".5" x="0" y="0" width="60" height="60"/>
                <use id="zoomplus" xlink:href="#zoomPlus" x="17" y="9" onmousedown="handleZoom(evt,'in')"/>
                <use id="zoomminus" xlink:href="#zoomMin" x="42" y="9" onmousedown="handleZoom(evt,'out')"/>
                <use id="reset" xlink:href="#resetDef" x="30" y="36" onmousedown="handleReset()"/>
                <g id="arrowUp" xlink:href="#dirArrow" transform="translate(30 24)" onmousedown="handlePan(0,-1)">
                  <use xlink:href="#rim" fill="#404040">
                        <set attributeName="fill" to="#808080" begin="arrowUp.mouseover" end="arrowUp.mouseout"/>
                  </use>
                  <path fill="none" stroke="white" stroke-width="1.5" d="M0,-3.0v7 M-2.5,-0.5L0,-3.0L2.5,-0.5"/>
                </g>
                <g id="arrowRight" xlink:href="#dirArrow" transform="rotate(90) translate(36 -43)" onmousedown="handlePan(1,0)">
                  <use xlink:href="#rim" fill="#404040">
                        <set attributeName="fill" to="#808080" begin="arrowRight.mouseover" end="arrowRight.mouseout"/>
                  </use>
                  <path fill="none" stroke="white" stroke-width="1.5" d="M0,-3.0v7 M-2.5,-0.5L0,-3.0L2.5,-0.5"/>
                </g>
                <g id="arrowDown" xlink:href="#dirArrow" transform="rotate(180) translate(-30 -48)" onmousedown="handlePan(0,1)">
                  <use xlink:href="#rim" fill="#404040">
                        <set attributeName="fill" to="#808080" begin="arrowDown.mouseover" end="arrowDown.mouseout"/>
                  </use>
                  <path fill="none" stroke="white" stroke-width="1.5" d="M0,-3.0v7 M-2.5,-0.5L0,-3.0L2.5,-0.5"/>
                </g>
                <g id="arrowLeft" xlink:href="#dirArrow" transform="rotate(270) translate(-36 17)" onmousedown="handlePan(-1,0)">
                  <use xlink:href="#rim" fill="#404040">
                        <set attributeName="fill" to="#808080" begin="arrowLeft.mouseover" end="arrowLeft.mouseout"/>
                  </use>
                  <path fill="none" stroke="white" stroke-width="1.5" d="M0,-3.0v7 M-2.5,-0.5L0,-3.0L2.5,-0.5"/>
                </g>
        </g>
        <svg viewBox="0 0 15 15" width="100%" height="30px" preserveAspectRatio="xMaxYMin meet">
         <g id="arrow_out" transform="scale(0.3 0.3)">
          <a xlink:href="classgauri_1_1OpenGLVertexBuffer__coll__graph_org.svg" target="_base">
           <rect id="button" ry="5" rx="5" y="6" x="6" height="38" width="38"
                fill="#f2f5e9" fill-opacity="0.5" stroke="#606060" stroke-width="1.0"/>
           <path id="arrow"
             d="M 11.500037,31.436501 C 11.940474,20.09759 22.043105,11.32322 32.158766,21.979434 L 37.068811,17.246167 C 37.068811,17.246167 37.088388,32 37.088388,32 L 22.160133,31.978069 C 22.160133,31.978069 26.997745,27.140456 26.997745,27.140456 C 18.528582,18.264221 13.291696,25.230495 11.500037,31.436501 z"
             style="fill:#404040;"/>
          </a>
         </g>
        </svg>
</svg>
