<?xml version="1.0" encoding="UTF-8" standalone="no"?>
<!DOCTYPE svg PUBLIC "-//W3C//DTD SVG 1.1//EN"
 "http://www.w3.org/Graphics/SVG/1.1/DTD/svg11.dtd">
<!-- Generated by graphviz version 2.43.0 (0)
 -->
<!-- Title: gauri::SceneCamera::RecalculateProjection Pages: 1 -->
<svg width="519pt" height="256pt"
 viewBox="0.00 0.00 519.00 256.00" xmlns="http://www.w3.org/2000/svg" xmlns:xlink="http://www.w3.org/1999/xlink">
<g id="graph0" class="graph" transform="scale(1 1) rotate(0) translate(4 252)">
<title>gauri::SceneCamera::RecalculateProjection</title>
<polygon fill="white" stroke="transparent" points="-4,4 -4,-252 515,-252 515,4 -4,4"/>
<!-- Node1 -->
<g id="node1" class="node">
<title>Node1</title>
<g id="a_node1"><a xlink:title=" ">
<polygon fill="#bfbfbf" stroke="black" points="284,-114.5 284,-133.5 511,-133.5 511,-114.5 284,-114.5"/>
<text text-anchor="middle" x="397.5" y="-121.5" font-family="Helvetica,sans-Serif" font-size="10.00">gauri::SceneCamera::RecalculateProjection</text>
</a>
</g>
</g>
<!-- Node2 -->
<g id="node2" class="node">
<title>Node2</title>
<g id="a_node2"><a xlink:href="classgauri_1_1SceneCamera.html#a2178b23476067e0facd41f82f59875e7" target="_top" xlink:title=" ">
<polygon fill="white" stroke="black" points="7.5,-228.5 7.5,-247.5 240.5,-247.5 240.5,-228.5 7.5,-228.5"/>
<text text-anchor="middle" x="124" y="-235.5" font-family="Helvetica,sans-Serif" font-size="10.00">gauri::SceneCamera::SetOrthographicFarClip</text>
</a>
</g>
</g>
<!-- Node1&#45;&gt;Node2 -->
<g id="edge1" class="edge">
<title>Node1&#45;&gt;Node2</title>
<path fill="none" stroke="midnightblue" d="M377.22,-140.14C350.18,-161.83 298.64,-199.87 248,-219 237.69,-222.89 226.61,-225.99 215.47,-228.45"/>
<polygon fill="midnightblue" stroke="midnightblue" points="379.56,-142.75 385.1,-133.72 375.14,-137.32 379.56,-142.75"/>
</g>
<!-- Node3 -->
<g id="node3" class="node">
<title>Node3</title>
<g id="a_node3"><a xlink:href="classgauri_1_1SceneCamera.html#a8ef6a56f61a0491add0cdcbaebee1528" target="_top" xlink:title=" ">
<polygon fill="white" stroke="black" points="3,-190.5 3,-209.5 245,-209.5 245,-190.5 3,-190.5"/>
<text text-anchor="middle" x="124" y="-197.5" font-family="Helvetica,sans-Serif" font-size="10.00">gauri::SceneCamera::SetOrthographicNearClip</text>
</a>
</g>
</g>
<!-- Node1&#45;&gt;Node3 -->
<g id="edge2" class="edge">
<title>Node1&#45;&gt;Node3</title>
<path fill="none" stroke="midnightblue" d="M366.48,-137.7C336.92,-150.67 290.2,-169.78 248,-181 233.7,-184.8 218.24,-187.93 203.27,-190.47"/>
<polygon fill="midnightblue" stroke="midnightblue" points="368.1,-140.82 375.82,-133.56 365.26,-134.42 368.1,-140.82"/>
</g>
<!-- Node4 -->
<g id="node4" class="node">
<title>Node4</title>
<g id="a_node4"><a xlink:href="classgauri_1_1SceneCamera.html#a39f5b6963389a54222c50225d1af616a" target="_top" xlink:title=" ">
<polygon fill="white" stroke="black" points="14,-152.5 14,-171.5 234,-171.5 234,-152.5 14,-152.5"/>
<text text-anchor="middle" x="124" y="-159.5" font-family="Helvetica,sans-Serif" font-size="10.00">gauri::SceneCamera::SetOrthographicSize</text>
</a>
</g>
</g>
<!-- Node1&#45;&gt;Node4 -->
<g id="edge3" class="edge">
<title>Node1&#45;&gt;Node4</title>
<path fill="none" stroke="midnightblue" d="M318.21,-134.96C278.69,-140.49 231.2,-147.14 193.19,-152.46"/>
<polygon fill="midnightblue" stroke="midnightblue" points="318.92,-138.39 328.34,-133.54 317.95,-131.46 318.92,-138.39"/>
</g>
<!-- Node5 -->
<g id="node5" class="node">
<title>Node5</title>
<g id="a_node5"><a xlink:href="classgauri_1_1SceneCamera.html#aecaf9889bd89d1c8dc467bae5d8d0ca8" target="_top" xlink:title=" ">
<polygon fill="white" stroke="black" points="10.5,-114.5 10.5,-133.5 237.5,-133.5 237.5,-114.5 10.5,-114.5"/>
<text text-anchor="middle" x="124" y="-121.5" font-family="Helvetica,sans-Serif" font-size="10.00">gauri::SceneCamera::SetPerspectiveFarClip</text>
</a>
</g>
</g>
<!-- Node1&#45;&gt;Node5 -->
<g id="edge4" class="edge">
<title>Node1&#45;&gt;Node5</title>
<path fill="none" stroke="midnightblue" d="M273.37,-124C261.54,-124 249.59,-124 237.87,-124"/>
<polygon fill="midnightblue" stroke="midnightblue" points="273.72,-127.5 283.72,-124 273.72,-120.5 273.72,-127.5"/>
</g>
<!-- Node6 -->
<g id="node6" class="node">
<title>Node6</title>
<g id="a_node6"><a xlink:href="classgauri_1_1SceneCamera.html#a4ab5dea84ec592b35baea6c3a0fae5a1" target="_top" xlink:title=" ">
<polygon fill="white" stroke="black" points="6,-76.5 6,-95.5 242,-95.5 242,-76.5 6,-76.5"/>
<text text-anchor="middle" x="124" y="-83.5" font-family="Helvetica,sans-Serif" font-size="10.00">gauri::SceneCamera::SetPerspectiveNearClip</text>
</a>
</g>
</g>
<!-- Node1&#45;&gt;Node6 -->
<g id="edge5" class="edge">
<title>Node1&#45;&gt;Node6</title>
<path fill="none" stroke="midnightblue" d="M318.21,-113.04C278.69,-107.51 231.2,-100.86 193.19,-95.54"/>
<polygon fill="midnightblue" stroke="midnightblue" points="317.95,-116.54 328.34,-114.46 318.92,-109.61 317.95,-116.54"/>
</g>
<!-- Node7 -->
<g id="node7" class="node">
<title>Node7</title>
<g id="a_node7"><a xlink:href="classgauri_1_1SceneCamera.html#af47c91c6f27dba433b0193591024be8f" target="_top" xlink:title=" ">
<polygon fill="white" stroke="black" points="0,-38.5 0,-57.5 248,-57.5 248,-38.5 0,-38.5"/>
<text text-anchor="middle" x="124" y="-45.5" font-family="Helvetica,sans-Serif" font-size="10.00">gauri::SceneCamera::SetPerspectiveVerticalFov</text>
</a>
</g>
</g>
<!-- Node1&#45;&gt;Node7 -->
<g id="edge6" class="edge">
<title>Node1&#45;&gt;Node7</title>
<path fill="none" stroke="midnightblue" d="M366.48,-110.3C336.92,-97.33 290.2,-78.22 248,-67 233.7,-63.2 218.24,-60.07 203.27,-57.53"/>
<polygon fill="midnightblue" stroke="midnightblue" points="365.26,-113.58 375.82,-114.44 368.1,-107.18 365.26,-113.58"/>
</g>
<!-- Node8 -->
<g id="node8" class="node">
<title>Node8</title>
<g id="a_node8"><a xlink:href="classgauri_1_1SceneCamera.html#a6c8787053a220837d9366d1b16b4e8a4" target="_top" xlink:title=" ">
<polygon fill="white" stroke="black" points="20,-0.5 20,-19.5 228,-19.5 228,-0.5 20,-0.5"/>
<text text-anchor="middle" x="124" y="-7.5" font-family="Helvetica,sans-Serif" font-size="10.00">gauri::SceneCamera::SetProjectionType</text>
</a>
</g>
</g>
<!-- Node1&#45;&gt;Node8 -->
<g id="edge7" class="edge">
<title>Node1&#45;&gt;Node8</title>
<path fill="none" stroke="midnightblue" d="M377.22,-107.86C350.18,-86.17 298.64,-48.13 248,-29 237.69,-25.11 226.61,-22.01 215.47,-19.55"/>
<polygon fill="midnightblue" stroke="midnightblue" points="375.14,-110.68 385.1,-114.28 379.56,-105.25 375.14,-110.68"/>
</g>
</g>
</svg>
