<?xml version="1.0" encoding="UTF-8" standalone="no"?>
<!DOCTYPE svg PUBLIC "-//W3C//DTD SVG 1.1//EN"
 "http://www.w3.org/Graphics/SVG/1.1/DTD/svg11.dtd">
<!-- Generated by graphviz version 2.43.0 (0)
 -->
<!-- Title: gauri::OpenGLTexture2D Pages: 1 -->
<svg width="521pt" height="365pt"
 viewBox="0.00 0.00 521.00 365.00" xmlns="http://www.w3.org/2000/svg" xmlns:xlink="http://www.w3.org/1999/xlink">
<g id="graph0" class="graph" transform="scale(1 1) rotate(0) translate(4 361)">
<title>gauri::OpenGLTexture2D</title>
<polygon fill="white" stroke="transparent" points="-4,4 -4,-361 517,-361 517,4 -4,4"/>
<!-- Node1 -->
<g id="node1" class="node">
<title>Node1</title>
<g id="a_node1"><a xlink:title=" ">
<polygon fill="#bfbfbf" stroke="black" points="229,-0.5 229,-101.5 462,-101.5 462,-0.5 229,-0.5"/>
<text text-anchor="middle" x="345.5" y="-89.5" font-family="Helvetica,sans-Serif" font-size="10.00">gauri::OpenGLTexture2D</text>
<polyline fill="none" stroke="black" points="229,-82.5 462,-82.5 "/>
<text text-anchor="middle" x="345.5" y="-70.5" font-family="Helvetica,sans-Serif" font-size="10.00"> </text>
<polyline fill="none" stroke="black" points="229,-63.5 462,-63.5 "/>
<text text-anchor="start" x="237" y="-51.5" font-family="Helvetica,sans-Serif" font-size="10.00">+ OpenGLTexture2D(const std::string &amp;path)</text>
<text text-anchor="start" x="237" y="-40.5" font-family="Helvetica,sans-Serif" font-size="10.00">+ ~OpenGLTexture2D() override</text>
<text text-anchor="start" x="237" y="-29.5" font-family="Helvetica,sans-Serif" font-size="10.00">+ uint32_t GetWidth() const override</text>
<text text-anchor="start" x="237" y="-18.5" font-family="Helvetica,sans-Serif" font-size="10.00">+ uint32_t GetHeight() const override</text>
<text text-anchor="start" x="237" y="-7.5" font-family="Helvetica,sans-Serif" font-size="10.00">+ void Bind(uint32_t slot=0) const override</text>
</a>
</g>
</g>
<!-- Node2 -->
<g id="node2" class="node">
<title>Node2</title>
<g id="a_node2"><a xlink:href="classgauri_1_1Texture2D.html" target="_top" xlink:title=" ">
<polygon fill="white" stroke="black" points="0,-171.5 0,-228.5 299,-228.5 299,-171.5 0,-171.5"/>
<text text-anchor="middle" x="149.5" y="-216.5" font-family="Helvetica,sans-Serif" font-size="10.00">gauri::Texture2D</text>
<polyline fill="none" stroke="black" points="0,-209.5 299,-209.5 "/>
<text text-anchor="middle" x="149.5" y="-197.5" font-family="Helvetica,sans-Serif" font-size="10.00"> </text>
<polyline fill="none" stroke="black" points="0,-190.5 299,-190.5 "/>
<text text-anchor="start" x="8" y="-178.5" font-family="Helvetica,sans-Serif" font-size="10.00">+ static Ref&lt; Texture2D &gt; Create(const std::string &amp;path)</text>
</a>
</g>
</g>
<!-- Node2&#45;&gt;Node1 -->
<g id="edge1" class="edge">
<title>Node2&#45;&gt;Node1</title>
<path fill="none" stroke="midnightblue" d="M194.62,-165.16C219.77,-146.3 251.54,-122.47 279.44,-101.54"/>
<polygon fill="none" stroke="midnightblue" points="192.27,-162.55 186.37,-171.35 196.47,-168.15 192.27,-162.55"/>
</g>
<!-- Node3 -->
<g id="node3" class="node">
<title>Node3</title>
<g id="a_node3"><a xlink:href="classgauri_1_1Texture.html" target="_top" xlink:title=" ">
<polygon fill="white" stroke="black" points="31,-266.5 31,-356.5 268,-356.5 268,-266.5 31,-266.5"/>
<text text-anchor="middle" x="149.5" y="-344.5" font-family="Helvetica,sans-Serif" font-size="10.00">gauri::Texture</text>
<polyline fill="none" stroke="black" points="31,-337.5 268,-337.5 "/>
<text text-anchor="middle" x="149.5" y="-325.5" font-family="Helvetica,sans-Serif" font-size="10.00"> </text>
<polyline fill="none" stroke="black" points="31,-318.5 268,-318.5 "/>
<text text-anchor="start" x="39" y="-306.5" font-family="Helvetica,sans-Serif" font-size="10.00">+ virtual ~Texture()=default</text>
<text text-anchor="start" x="39" y="-295.5" font-family="Helvetica,sans-Serif" font-size="10.00">+ virtual uint32_t GetWidth() const =0</text>
<text text-anchor="start" x="39" y="-284.5" font-family="Helvetica,sans-Serif" font-size="10.00">+ virtual uint32_t GetHeight() const =0</text>
<text text-anchor="start" x="39" y="-273.5" font-family="Helvetica,sans-Serif" font-size="10.00">+ virtual void Bind(uint32_t slot=0) const =0</text>
</a>
</g>
</g>
<!-- Node3&#45;&gt;Node2 -->
<g id="edge2" class="edge">
<title>Node3&#45;&gt;Node2</title>
<path fill="none" stroke="midnightblue" d="M149.5,-256.04C149.5,-246.56 149.5,-237.06 149.5,-228.69"/>
<polygon fill="none" stroke="midnightblue" points="146,-256.28 149.5,-266.28 153,-256.28 146,-256.28"/>
</g>
<!-- Node4 -->
<g id="node4" class="node">
<title>Node4</title>
<g id="a_node4"><a xlink:title=" ">
<polygon fill="white" stroke="#bfbfbf" points="317.5,-171.5 317.5,-228.5 373.5,-228.5 373.5,-171.5 317.5,-171.5"/>
<text text-anchor="middle" x="345.5" y="-216.5" font-family="Helvetica,sans-Serif" font-size="10.00">uint32_t</text>
<polyline fill="none" stroke="#bfbfbf" points="317.5,-209.5 373.5,-209.5 "/>
<text text-anchor="middle" x="345.5" y="-197.5" font-family="Helvetica,sans-Serif" font-size="10.00"> </text>
<polyline fill="none" stroke="#bfbfbf" points="317.5,-190.5 373.5,-190.5 "/>
<text text-anchor="middle" x="345.5" y="-178.5" font-family="Helvetica,sans-Serif" font-size="10.00"> </text>
</a>
</g>
</g>
<!-- Node4&#45;&gt;Node1 -->
<g id="edge3" class="edge">
<title>Node4&#45;&gt;Node1</title>
<path fill="none" stroke="#404040" d="M345.5,-171.35C345.5,-155.1 345.5,-133.86 345.5,-113.82"/>
<polygon fill="none" stroke="#404040" points="345.5,-113.54 341.5,-107.54 345.5,-101.54 349.5,-107.54 345.5,-113.54"/>
<text text-anchor="middle" x="382.5" y="-145" font-family="Helvetica,sans-Serif" font-size="10.00"> &#45;m_Height</text>
<text text-anchor="middle" x="382.5" y="-134" font-family="Helvetica,sans-Serif" font-size="10.00">&#45;m_RendererID</text>
<text text-anchor="middle" x="382.5" y="-123" font-family="Helvetica,sans-Serif" font-size="10.00">&#45;m_Width</text>
</g>
<!-- Node5 -->
<g id="node5" class="node">
<title>Node5</title>
<g id="a_node5"><a xlink:title=" ">
<polygon fill="white" stroke="#bfbfbf" points="410,-171.5 410,-228.5 475,-228.5 475,-171.5 410,-171.5"/>
<text text-anchor="middle" x="442.5" y="-216.5" font-family="Helvetica,sans-Serif" font-size="10.00">std::string</text>
<polyline fill="none" stroke="#bfbfbf" points="410,-209.5 475,-209.5 "/>
<text text-anchor="middle" x="442.5" y="-197.5" font-family="Helvetica,sans-Serif" font-size="10.00"> </text>
<polyline fill="none" stroke="#bfbfbf" points="410,-190.5 475,-190.5 "/>
<text text-anchor="middle" x="442.5" y="-178.5" font-family="Helvetica,sans-Serif" font-size="10.00"> </text>
</a>
</g>
</g>
<!-- Node5&#45;&gt;Node1 -->
<g id="edge4" class="edge">
<title>Node5&#45;&gt;Node1</title>
<path fill="none" stroke="#404040" d="M438.68,-171.13C435.57,-155.26 430.07,-135.51 420.5,-120 418.58,-116.88 416.47,-113.83 414.22,-110.84"/>
<polygon fill="none" stroke="#404040" points="414.21,-110.82 407.32,-108.71 406.62,-101.53 413.51,-103.65 414.21,-110.82"/>
<text text-anchor="middle" x="456" y="-134" font-family="Helvetica,sans-Serif" font-size="10.00"> &#45;m_Path</text>
</g>
<!-- Node6 -->
<g id="node6" class="node">
<title>Node6</title>
<g id="a_node6"><a xlink:title=" ">
<polygon fill="white" stroke="#bfbfbf" points="372,-283 372,-340 513,-340 513,-283 372,-283"/>
<text text-anchor="middle" x="442.5" y="-328" font-family="Helvetica,sans-Serif" font-size="10.00">std::basic_string&lt; Char &gt;</text>
<polyline fill="none" stroke="#bfbfbf" points="372,-321 513,-321 "/>
<text text-anchor="middle" x="442.5" y="-309" font-family="Helvetica,sans-Serif" font-size="10.00"> </text>
<polyline fill="none" stroke="#bfbfbf" points="372,-302 513,-302 "/>
<text text-anchor="middle" x="442.5" y="-290" font-family="Helvetica,sans-Serif" font-size="10.00"> </text>
</a>
</g>
</g>
<!-- Node6&#45;&gt;Node5 -->
<g id="edge5" class="edge">
<title>Node6&#45;&gt;Node5</title>
<path fill="none" stroke="midnightblue" d="M442.5,-272.7C442.5,-258.22 442.5,-241.98 442.5,-228.62"/>
<polygon fill="none" stroke="midnightblue" points="439,-272.87 442.5,-282.87 446,-272.87 439,-272.87"/>
</g>
</g>
</svg>
