<?xml version="1.0" encoding="UTF-8" standalone="no"?>
<!DOCTYPE svg PUBLIC "-//W3C//DTD SVG 1.1//EN"
 "http://www.w3.org/Graphics/SVG/1.1/DTD/svg11.dtd">
<!-- Generated by graphviz version 2.43.0 (0)
 -->
<!-- Title: gauri::OrthographicCamera::RecalculateViewMatrix Pages: 1 -->
<svg width="523pt" height="66pt"
 viewBox="0.00 0.00 523.00 66.00" xmlns="http://www.w3.org/2000/svg" xmlns:xlink="http://www.w3.org/1999/xlink">
<g id="graph0" class="graph" transform="scale(1 1) rotate(0) translate(4 62)">
<title>gauri::OrthographicCamera::RecalculateViewMatrix</title>
<polygon fill="white" stroke="transparent" points="-4,4 -4,-62 519,-62 519,4 -4,4"/>
<!-- Node1 -->
<g id="node1" class="node">
<title>Node1</title>
<g id="a_node1"><a xlink:title=" ">
<polygon fill="#bfbfbf" stroke="black" points="248,-19.5 248,-38.5 515,-38.5 515,-19.5 248,-19.5"/>
<text text-anchor="middle" x="381.5" y="-26.5" font-family="Helvetica,sans-Serif" font-size="10.00">gauri::OrthographicCamera::RecalculateViewMatrix</text>
</a>
</g>
</g>
<!-- Node2 -->
<g id="node2" class="node">
<title>Node2</title>
<g id="a_node2"><a xlink:href="classgauri_1_1OrthographicCamera.html#a1217762dd69709a591d103eeec89bce7" target="_top" xlink:title=" ">
<polygon fill="white" stroke="black" points="1.5,-38.5 1.5,-57.5 210.5,-57.5 210.5,-38.5 1.5,-38.5"/>
<text text-anchor="middle" x="106" y="-45.5" font-family="Helvetica,sans-Serif" font-size="10.00">gauri::OrthographicCamera::SetPosition</text>
</a>
</g>
</g>
<!-- Node1&#45;&gt;Node2 -->
<g id="edge1" class="edge">
<title>Node1&#45;&gt;Node2</title>
<path fill="none" stroke="midnightblue" d="M237.59,-38.93C228.6,-39.55 219.64,-40.17 210.88,-40.78"/>
<polygon fill="midnightblue" stroke="midnightblue" points="238.02,-42.41 247.76,-38.22 237.54,-35.42 238.02,-42.41"/>
</g>
<!-- Node3 -->
<g id="node3" class="node">
<title>Node3</title>
<g id="a_node3"><a xlink:href="classgauri_1_1OrthographicCamera.html#a619e360ace1c056bb9b334f0c79b6743" target="_top" xlink:title=" ">
<polygon fill="white" stroke="black" points="0,-0.5 0,-19.5 212,-19.5 212,-0.5 0,-0.5"/>
<text text-anchor="middle" x="106" y="-7.5" font-family="Helvetica,sans-Serif" font-size="10.00">gauri::OrthographicCamera::SetRotation</text>
</a>
</g>
</g>
<!-- Node1&#45;&gt;Node3 -->
<g id="edge2" class="edge">
<title>Node1&#45;&gt;Node3</title>
<path fill="none" stroke="midnightblue" d="M237.65,-19.08C229.04,-18.48 220.47,-17.88 212.07,-17.3"/>
<polygon fill="midnightblue" stroke="midnightblue" points="237.54,-22.58 247.76,-19.78 238.02,-15.59 237.54,-22.58"/>
</g>
</g>
</svg>
