<?xml version="1.0" encoding="UTF-8" standalone="no"?>
<!DOCTYPE svg PUBLIC "-//W3C//DTD SVG 1.1//EN"
 "http://www.w3.org/Graphics/SVG/1.1/DTD/svg11.dtd">
<!-- Generated by graphviz version 2.43.0 (0)
 -->
<!-- Title: gauri::OpenGLTexture2D Pages: 1 -->
<svg width="674pt" height="431pt"
 viewBox="0.00 0.00 673.50 431.00" xmlns="http://www.w3.org/2000/svg" xmlns:xlink="http://www.w3.org/1999/xlink">
<g id="graph0" class="graph" transform="scale(1 1) rotate(0) translate(4 427)">
<title>gauri::OpenGLTexture2D</title>
<polygon fill="white" stroke="transparent" points="-4,4 -4,-427 669.5,-427 669.5,4 -4,4"/>
<!-- Node1 -->
<g id="node1" class="node">
<title>Node1</title>
<g id="a_node1"><a xlink:title=" ">
<polygon fill="#bfbfbf" stroke="black" points="286.5,-0.5 286.5,-134.5 577.5,-134.5 577.5,-0.5 286.5,-0.5"/>
<text text-anchor="middle" x="432" y="-122.5" font-family="Helvetica,sans-Serif" font-size="10.00">gauri::OpenGLTexture2D</text>
<polyline fill="none" stroke="black" points="286.5,-115.5 577.5,-115.5 "/>
<text text-anchor="middle" x="432" y="-103.5" font-family="Helvetica,sans-Serif" font-size="10.00"> </text>
<polyline fill="none" stroke="black" points="286.5,-96.5 577.5,-96.5 "/>
<text text-anchor="start" x="294.5" y="-84.5" font-family="Helvetica,sans-Serif" font-size="10.00">+ OpenGLTexture2D(uint32_t width, uint32_t height)</text>
<text text-anchor="start" x="294.5" y="-73.5" font-family="Helvetica,sans-Serif" font-size="10.00">+ OpenGLTexture2D(const std::string &amp;path)</text>
<text text-anchor="start" x="294.5" y="-62.5" font-family="Helvetica,sans-Serif" font-size="10.00">+ ~OpenGLTexture2D() override</text>
<text text-anchor="start" x="294.5" y="-51.5" font-family="Helvetica,sans-Serif" font-size="10.00">+ uint32_t GetWidth() const override</text>
<text text-anchor="start" x="294.5" y="-40.5" font-family="Helvetica,sans-Serif" font-size="10.00">+ uint32_t GetHeight() const override</text>
<text text-anchor="start" x="294.5" y="-29.5" font-family="Helvetica,sans-Serif" font-size="10.00">+ void SetData(void *data, uint32_t size) override</text>
<text text-anchor="start" x="294.5" y="-18.5" font-family="Helvetica,sans-Serif" font-size="10.00">+ void Bind(uint32_t slot=0) const override</text>
<text text-anchor="start" x="294.5" y="-7.5" font-family="Helvetica,sans-Serif" font-size="10.00">+ bool operator==(const Texture &amp;other) const override</text>
</a>
</g>
</g>
<!-- Node2 -->
<g id="node2" class="node">
<title>Node2</title>
<g id="a_node2"><a xlink:href="classgauri_1_1Texture2D.html" target="_top" xlink:title=" ">
<polygon fill="white" stroke="black" points="0,-204.5 0,-272.5 338,-272.5 338,-204.5 0,-204.5"/>
<text text-anchor="middle" x="169" y="-260.5" font-family="Helvetica,sans-Serif" font-size="10.00">gauri::Texture2D</text>
<polyline fill="none" stroke="black" points="0,-253.5 338,-253.5 "/>
<text text-anchor="middle" x="169" y="-241.5" font-family="Helvetica,sans-Serif" font-size="10.00"> </text>
<polyline fill="none" stroke="black" points="0,-234.5 338,-234.5 "/>
<text text-anchor="start" x="8" y="-222.5" font-family="Helvetica,sans-Serif" font-size="10.00">+ static Ref&lt; Texture2D &gt; Create(uint32_t width, uint32_t height)</text>
<text text-anchor="start" x="8" y="-211.5" font-family="Helvetica,sans-Serif" font-size="10.00">+ static Ref&lt; Texture2D &gt; Create(const std::string &amp;path)</text>
</a>
</g>
</g>
<!-- Node2&#45;&gt;Node1 -->
<g id="edge1" class="edge">
<title>Node2&#45;&gt;Node1</title>
<path fill="none" stroke="midnightblue" d="M229.19,-198.82C258.76,-179.82 295.23,-156.39 329.05,-134.65"/>
<polygon fill="none" stroke="midnightblue" points="227.17,-195.96 220.65,-204.31 230.95,-201.85 227.17,-195.96"/>
</g>
<!-- Node3 -->
<g id="node3" class="node">
<title>Node3</title>
<g id="a_node3"><a xlink:href="classgauri_1_1Texture.html" target="_top" xlink:title=" ">
<polygon fill="white" stroke="black" points="19.5,-310.5 19.5,-422.5 318.5,-422.5 318.5,-310.5 19.5,-310.5"/>
<text text-anchor="middle" x="169" y="-410.5" font-family="Helvetica,sans-Serif" font-size="10.00">gauri::Texture</text>
<polyline fill="none" stroke="black" points="19.5,-403.5 318.5,-403.5 "/>
<text text-anchor="middle" x="169" y="-391.5" font-family="Helvetica,sans-Serif" font-size="10.00"> </text>
<polyline fill="none" stroke="black" points="19.5,-384.5 318.5,-384.5 "/>
<text text-anchor="start" x="27.5" y="-372.5" font-family="Helvetica,sans-Serif" font-size="10.00">+ virtual ~Texture()=default</text>
<text text-anchor="start" x="27.5" y="-361.5" font-family="Helvetica,sans-Serif" font-size="10.00">+ virtual uint32_t GetWidth() const =0</text>
<text text-anchor="start" x="27.5" y="-350.5" font-family="Helvetica,sans-Serif" font-size="10.00">+ virtual uint32_t GetHeight() const =0</text>
<text text-anchor="start" x="27.5" y="-339.5" font-family="Helvetica,sans-Serif" font-size="10.00">+ virtual void SetData(void *data, uint32_t size)=0</text>
<text text-anchor="start" x="27.5" y="-328.5" font-family="Helvetica,sans-Serif" font-size="10.00">+ virtual void Bind(uint32_t slot=0) const =0</text>
<text text-anchor="start" x="27.5" y="-317.5" font-family="Helvetica,sans-Serif" font-size="10.00">+ virtual bool operator==(const Texture &amp;other) const =0</text>
</a>
</g>
</g>
<!-- Node3&#45;&gt;Node2 -->
<g id="edge2" class="edge">
<title>Node3&#45;&gt;Node2</title>
<path fill="none" stroke="midnightblue" d="M169,-299.96C169,-290.48 169,-281.08 169,-272.62"/>
<polygon fill="none" stroke="midnightblue" points="165.5,-300.23 169,-310.23 172.5,-300.23 165.5,-300.23"/>
</g>
<!-- Node4 -->
<g id="node4" class="node">
<title>Node4</title>
<g id="a_node4"><a xlink:title=" ">
<polygon fill="white" stroke="#bfbfbf" points="356,-210 356,-267 412,-267 412,-210 356,-210"/>
<text text-anchor="middle" x="384" y="-255" font-family="Helvetica,sans-Serif" font-size="10.00">uint32_t</text>
<polyline fill="none" stroke="#bfbfbf" points="356,-248 412,-248 "/>
<text text-anchor="middle" x="384" y="-236" font-family="Helvetica,sans-Serif" font-size="10.00"> </text>
<polyline fill="none" stroke="#bfbfbf" points="356,-229 412,-229 "/>
<text text-anchor="middle" x="384" y="-217" font-family="Helvetica,sans-Serif" font-size="10.00"> </text>
</a>
</g>
</g>
<!-- Node4&#45;&gt;Node1 -->
<g id="edge3" class="edge">
<title>Node4&#45;&gt;Node1</title>
<path fill="none" stroke="#404040" d="M380.93,-209.64C379.92,-192.94 380.1,-171.43 385,-153 385.61,-150.69 386.31,-148.37 387.06,-146.06"/>
<polygon fill="none" stroke="#404040" points="387.16,-145.8 385.52,-138.78 391.36,-134.56 393.01,-141.58 387.16,-145.8"/>
<text text-anchor="middle" x="422" y="-178" font-family="Helvetica,sans-Serif" font-size="10.00"> &#45;m_Height</text>
<text text-anchor="middle" x="422" y="-167" font-family="Helvetica,sans-Serif" font-size="10.00">&#45;m_RendererID</text>
<text text-anchor="middle" x="422" y="-156" font-family="Helvetica,sans-Serif" font-size="10.00">&#45;m_Width</text>
</g>
<!-- Node5 -->
<g id="node5" class="node">
<title>Node5</title>
<g id="a_node5"><a xlink:title=" ">
<polygon fill="white" stroke="#bfbfbf" points="466.5,-210 466.5,-267 495.5,-267 495.5,-210 466.5,-210"/>
<text text-anchor="middle" x="481" y="-255" font-family="Helvetica,sans-Serif" font-size="10.00">int</text>
<polyline fill="none" stroke="#bfbfbf" points="466.5,-248 495.5,-248 "/>
<text text-anchor="middle" x="481" y="-236" font-family="Helvetica,sans-Serif" font-size="10.00"> </text>
<polyline fill="none" stroke="#bfbfbf" points="466.5,-229 495.5,-229 "/>
<text text-anchor="middle" x="481" y="-217" font-family="Helvetica,sans-Serif" font-size="10.00"> </text>
</a>
</g>
</g>
<!-- Node5&#45;&gt;Node1 -->
<g id="edge4" class="edge">
<title>Node5&#45;&gt;Node1</title>
<path fill="none" stroke="#404040" d="M474.24,-210C470.07,-193.42 464.48,-171.93 459,-153 458.38,-150.87 457.75,-148.72 457.11,-146.55"/>
<polygon fill="none" stroke="#404040" points="457.04,-146.31 451.47,-141.72 453.57,-134.82 459.13,-139.41 457.04,-146.31"/>
<text text-anchor="middle" x="513.5" y="-172.5" font-family="Helvetica,sans-Serif" font-size="10.00"> &#45;m_DataFormat</text>
<text text-anchor="middle" x="513.5" y="-161.5" font-family="Helvetica,sans-Serif" font-size="10.00">&#45;m_InternalFormat</text>
</g>
<!-- Node6 -->
<g id="node6" class="node">
<title>Node6</title>
<g id="a_node6"><a xlink:title=" ">
<polygon fill="white" stroke="#bfbfbf" points="562.5,-210 562.5,-267 627.5,-267 627.5,-210 562.5,-210"/>
<text text-anchor="middle" x="595" y="-255" font-family="Helvetica,sans-Serif" font-size="10.00">std::string</text>
<polyline fill="none" stroke="#bfbfbf" points="562.5,-248 627.5,-248 "/>
<text text-anchor="middle" x="595" y="-236" font-family="Helvetica,sans-Serif" font-size="10.00"> </text>
<polyline fill="none" stroke="#bfbfbf" points="562.5,-229 627.5,-229 "/>
<text text-anchor="middle" x="595" y="-217" font-family="Helvetica,sans-Serif" font-size="10.00"> </text>
</a>
</g>
</g>
<!-- Node6&#45;&gt;Node1 -->
<g id="edge5" class="edge">
<title>Node6&#45;&gt;Node1</title>
<path fill="none" stroke="#404040" d="M589.24,-209.75C584.49,-192.07 576.32,-169.47 563,-153 560.32,-149.69 557.48,-146.47 554.51,-143.34"/>
<polygon fill="none" stroke="#404040" points="554.33,-143.17 547.25,-141.81 545.78,-134.75 552.87,-136.11 554.33,-143.17"/>
<text text-anchor="middle" x="603.5" y="-167" font-family="Helvetica,sans-Serif" font-size="10.00"> &#45;m_Path</text>
</g>
<!-- Node7 -->
<g id="node7" class="node">
<title>Node7</title>
<g id="a_node7"><a xlink:title=" ">
<polygon fill="white" stroke="#bfbfbf" points="524.5,-338 524.5,-395 665.5,-395 665.5,-338 524.5,-338"/>
<text text-anchor="middle" x="595" y="-383" font-family="Helvetica,sans-Serif" font-size="10.00">std::basic_string&lt; Char &gt;</text>
<polyline fill="none" stroke="#bfbfbf" points="524.5,-376 665.5,-376 "/>
<text text-anchor="middle" x="595" y="-364" font-family="Helvetica,sans-Serif" font-size="10.00"> </text>
<polyline fill="none" stroke="#bfbfbf" points="524.5,-357 665.5,-357 "/>
<text text-anchor="middle" x="595" y="-345" font-family="Helvetica,sans-Serif" font-size="10.00"> </text>
</a>
</g>
</g>
<!-- Node7&#45;&gt;Node6 -->
<g id="edge6" class="edge">
<title>Node7&#45;&gt;Node6</title>
<path fill="none" stroke="midnightblue" d="M595,-327.76C595,-308.26 595,-284.88 595,-267.09"/>
<polygon fill="none" stroke="midnightblue" points="591.5,-327.85 595,-337.85 598.5,-327.85 591.5,-327.85"/>
</g>
</g>
</svg>
