<?xml version="1.0" encoding="UTF-8" standalone="no"?>
<!DOCTYPE svg PUBLIC "-//W3C//DTD SVG 1.1//EN"
 "http://www.w3.org/Graphics/SVG/1.1/DTD/svg11.dtd">
<!-- Generated by graphviz version 2.43.0 (0)
 -->
<!-- Title: gauri::MouseMovedEvent Pages: 1 -->
<svg width="249pt" height="270pt"
 viewBox="0.00 0.00 249.00 270.00" xmlns="http://www.w3.org/2000/svg" xmlns:xlink="http://www.w3.org/1999/xlink">
<g id="graph0" class="graph" transform="scale(1 1) rotate(0) translate(4 266)">
<title>gauri::MouseMovedEvent</title>
<polygon fill="white" stroke="transparent" points="-4,4 -4,-266 245,-266 245,4 -4,4"/>
<!-- Node1 -->
<g id="node1" class="node">
<title>Node1</title>
<g id="a_node1"><a xlink:title=" ">
<polygon fill="#bfbfbf" stroke="black" points="21,-0.5 21,-112.5 220,-112.5 220,-0.5 21,-0.5"/>
<text text-anchor="middle" x="120.5" y="-100.5" font-family="Helvetica,sans-Serif" font-size="10.00">gauri::MouseMovedEvent</text>
<polyline fill="none" stroke="black" points="21,-93.5 220,-93.5 "/>
<text text-anchor="start" x="29" y="-81.5" font-family="Helvetica,sans-Serif" font-size="10.00">&#45; float m_MouseX</text>
<text text-anchor="start" x="29" y="-70.5" font-family="Helvetica,sans-Serif" font-size="10.00">&#45; float m_MouseY</text>
<polyline fill="none" stroke="black" points="21,-63.5 220,-63.5 "/>
<text text-anchor="start" x="29" y="-51.5" font-family="Helvetica,sans-Serif" font-size="10.00">+ MouseMovedEvent(float x, float y)</text>
<text text-anchor="start" x="29" y="-40.5" font-family="Helvetica,sans-Serif" font-size="10.00">+ float GetX() const</text>
<text text-anchor="start" x="29" y="-29.5" font-family="Helvetica,sans-Serif" font-size="10.00">+ float GetY() const</text>
<text text-anchor="start" x="29" y="-18.5" font-family="Helvetica,sans-Serif" font-size="10.00">+ std::string ToString() const override</text>
<text text-anchor="start" x="29" y="-7.5" font-family="Helvetica,sans-Serif" font-size="10.00">+ EVENT_CLASS_TYPE(MouseMoved)</text>
</a>
</g>
</g>
<!-- Node2 -->
<g id="node2" class="node">
<title>Node2</title>
<g id="a_node2"><a xlink:href="classgauri_1_1Event.html" target="_top" xlink:title=" ">
<polygon fill="white" stroke="black" points="0,-149.5 0,-261.5 241,-261.5 241,-149.5 0,-149.5"/>
<text text-anchor="middle" x="120.5" y="-249.5" font-family="Helvetica,sans-Serif" font-size="10.00">gauri::Event</text>
<polyline fill="none" stroke="black" points="0,-242.5 241,-242.5 "/>
<text text-anchor="start" x="8" y="-230.5" font-family="Helvetica,sans-Serif" font-size="10.00">+ bool Handled</text>
<polyline fill="none" stroke="black" points="0,-223.5 241,-223.5 "/>
<text text-anchor="start" x="8" y="-211.5" font-family="Helvetica,sans-Serif" font-size="10.00">+ virtual ~Event()=default</text>
<text text-anchor="start" x="8" y="-200.5" font-family="Helvetica,sans-Serif" font-size="10.00">+ virtual EventType GetEventType() const =0</text>
<text text-anchor="start" x="8" y="-189.5" font-family="Helvetica,sans-Serif" font-size="10.00">+ virtual const char * GetName() const =0</text>
<text text-anchor="start" x="8" y="-178.5" font-family="Helvetica,sans-Serif" font-size="10.00">+ virtual int32_t GetCategoryFlags() const =0</text>
<text text-anchor="start" x="8" y="-167.5" font-family="Helvetica,sans-Serif" font-size="10.00">+ virtual std::string ToString() const</text>
<text text-anchor="start" x="8" y="-156.5" font-family="Helvetica,sans-Serif" font-size="10.00">+ bool IsInCategory(EventCategory category)</text>
</a>
</g>
</g>
<!-- Node2&#45;&gt;Node1 -->
<g id="edge1" class="edge">
<title>Node2&#45;&gt;Node1</title>
<path fill="none" stroke="midnightblue" d="M120.5,-139.18C120.5,-130.43 120.5,-121.52 120.5,-112.96"/>
<polygon fill="none" stroke="midnightblue" points="117,-139.34 120.5,-149.34 124,-139.34 117,-139.34"/>
</g>
</g>
</svg>
