<?xml version="1.0" encoding="UTF-8" standalone="no"?>
<!DOCTYPE svg PUBLIC "-//W3C//DTD SVG 1.1//EN"
 "http://www.w3.org/Graphics/SVG/1.1/DTD/svg11.dtd">
<!-- Generated by graphviz version 2.43.0 (0)
 -->
<!-- Title: gauri::OpenGLRendererAPI Pages: 1 -->
<svg width="374pt" height="343pt"
 viewBox="0.00 0.00 374.00 343.00" xmlns="http://www.w3.org/2000/svg" xmlns:xlink="http://www.w3.org/1999/xlink">
<g id="graph0" class="graph" transform="scale(1 1) rotate(0) translate(4 339)">
<title>gauri::OpenGLRendererAPI</title>
<polygon fill="white" stroke="transparent" points="-4,4 -4,-339 370,-339 370,4 -4,4"/>
<!-- Node1 -->
<g id="node1" class="node">
<title>Node1</title>
<g id="a_node1"><a xlink:title=" ">
<polygon fill="#bfbfbf" stroke="black" points="2.5,-0.5 2.5,-90.5 363.5,-90.5 363.5,-0.5 2.5,-0.5"/>
<text text-anchor="middle" x="183" y="-78.5" font-family="Helvetica,sans-Serif" font-size="10.00">gauri::OpenGLRendererAPI</text>
<polyline fill="none" stroke="black" points="2.5,-71.5 363.5,-71.5 "/>
<text text-anchor="middle" x="183" y="-59.5" font-family="Helvetica,sans-Serif" font-size="10.00"> </text>
<polyline fill="none" stroke="black" points="2.5,-52.5 363.5,-52.5 "/>
<text text-anchor="start" x="10.5" y="-40.5" font-family="Helvetica,sans-Serif" font-size="10.00">+ void Init() override</text>
<text text-anchor="start" x="10.5" y="-29.5" font-family="Helvetica,sans-Serif" font-size="10.00">+ void SetClearColor(const glm::vec4 &amp;color) override</text>
<text text-anchor="start" x="10.5" y="-18.5" font-family="Helvetica,sans-Serif" font-size="10.00">+ void Clear() override</text>
<text text-anchor="start" x="10.5" y="-7.5" font-family="Helvetica,sans-Serif" font-size="10.00">+ void DrawIndexed(const Ref&lt; VertexArray &gt; &amp;vertexArray) override</text>
</a>
</g>
</g>
<!-- Node2 -->
<g id="node2" class="node">
<title>Node2</title>
<g id="a_node2"><a xlink:href="classgauri_1_1RendererAPI.html" target="_top" xlink:title=" ">
<polygon fill="white" stroke="black" points="0,-128.5 0,-229.5 366,-229.5 366,-128.5 0,-128.5"/>
<text text-anchor="middle" x="183" y="-217.5" font-family="Helvetica,sans-Serif" font-size="10.00">gauri::RendererAPI</text>
<polyline fill="none" stroke="black" points="0,-210.5 366,-210.5 "/>
<text text-anchor="middle" x="183" y="-198.5" font-family="Helvetica,sans-Serif" font-size="10.00"> </text>
<polyline fill="none" stroke="black" points="0,-191.5 366,-191.5 "/>
<text text-anchor="start" x="8" y="-179.5" font-family="Helvetica,sans-Serif" font-size="10.00">+ virtual void Init()=0</text>
<text text-anchor="start" x="8" y="-168.5" font-family="Helvetica,sans-Serif" font-size="10.00">+ virtual void SetClearColor(const glm::vec4 &amp;color)=0</text>
<text text-anchor="start" x="8" y="-157.5" font-family="Helvetica,sans-Serif" font-size="10.00">+ virtual void Clear()=0</text>
<text text-anchor="start" x="8" y="-146.5" font-family="Helvetica,sans-Serif" font-size="10.00">+ virtual void DrawIndexed(const Ref&lt; VertexArray &gt; &amp;vertexArray)=0</text>
<text text-anchor="start" x="8" y="-135.5" font-family="Helvetica,sans-Serif" font-size="10.00">+ static API GetAPI()</text>
</a>
</g>
</g>
<!-- Node2&#45;&gt;Node1 -->
<g id="edge1" class="edge">
<title>Node2&#45;&gt;Node1</title>
<path fill="none" stroke="midnightblue" d="M183,-118C183,-108.8 183,-99.45 183,-90.67"/>
<polygon fill="none" stroke="midnightblue" points="179.5,-118.29 183,-128.29 186.5,-118.29 179.5,-118.29"/>
</g>
<!-- Node3 -->
<g id="node3" class="node">
<title>Node3</title>
<g id="a_node3"><a xlink:title=" ">
<polygon fill="white" stroke="#bfbfbf" points="152,-277.5 152,-334.5 214,-334.5 214,-277.5 152,-277.5"/>
<text text-anchor="middle" x="183" y="-322.5" font-family="Helvetica,sans-Serif" font-size="10.00">static API</text>
<polyline fill="none" stroke="#bfbfbf" points="152,-315.5 214,-315.5 "/>
<text text-anchor="middle" x="183" y="-303.5" font-family="Helvetica,sans-Serif" font-size="10.00"> </text>
<polyline fill="none" stroke="#bfbfbf" points="152,-296.5 214,-296.5 "/>
<text text-anchor="middle" x="183" y="-284.5" font-family="Helvetica,sans-Serif" font-size="10.00"> </text>
</a>
</g>
</g>
<!-- Node3&#45;&gt;Node2 -->
<g id="edge2" class="edge">
<title>Node3&#45;&gt;Node2</title>
<path fill="none" stroke="#404040" d="M183,-277.26C183,-266.79 183,-254.42 183,-242.07"/>
<polygon fill="none" stroke="#404040" points="183,-241.8 179,-235.8 183,-229.8 187,-235.8 183,-241.8"/>
<text text-anchor="middle" x="200" y="-251" font-family="Helvetica,sans-Serif" font-size="10.00"> &#45;s_API</text>
</g>
</g>
</svg>
