<?xml version="1.0" encoding="UTF-8" standalone="no"?>
<!DOCTYPE svg PUBLIC "-//W3C//DTD SVG 1.1//EN"
 "http://www.w3.org/Graphics/SVG/1.1/DTD/svg11.dtd">
<!-- Generated by graphviz version 2.43.0 (0)
 -->
<!-- Title: gauri::WindowsWindow Pages: 1 -->
<svg width="945pt" height="580pt"
 viewBox="0.00 0.00 944.50 580.00" xmlns="http://www.w3.org/2000/svg" xmlns:xlink="http://www.w3.org/1999/xlink">
<g id="graph0" class="graph" transform="scale(1 1) rotate(0) translate(4 576)">
<title>gauri::WindowsWindow</title>
<polygon fill="white" stroke="transparent" points="-4,4 -4,-576 940.5,-576 940.5,4 -4,4"/>
<!-- Node1 -->
<g id="node1" class="node">
<title>Node1</title>
<g id="a_node1"><a xlink:title=" ">
<polygon fill="#bfbfbf" stroke="black" points="341.5,-0.5 341.5,-167.5 691.5,-167.5 691.5,-0.5 341.5,-0.5"/>
<text text-anchor="middle" x="516.5" y="-155.5" font-family="Helvetica,sans-Serif" font-size="10.00">gauri::WindowsWindow</text>
<polyline fill="none" stroke="black" points="341.5,-148.5 691.5,-148.5 "/>
<text text-anchor="middle" x="516.5" y="-136.5" font-family="Helvetica,sans-Serif" font-size="10.00"> </text>
<polyline fill="none" stroke="black" points="341.5,-129.5 691.5,-129.5 "/>
<text text-anchor="start" x="349.5" y="-117.5" font-family="Helvetica,sans-Serif" font-size="10.00">+ WindowsWindow(const WindowProperty &amp;props)</text>
<text text-anchor="start" x="349.5" y="-106.5" font-family="Helvetica,sans-Serif" font-size="10.00">+ ~WindowsWindow() override</text>
<text text-anchor="start" x="349.5" y="-95.5" font-family="Helvetica,sans-Serif" font-size="10.00">+ void OnUpdate() override</text>
<text text-anchor="start" x="349.5" y="-84.5" font-family="Helvetica,sans-Serif" font-size="10.00">+ uint32_t GetWidth() const override</text>
<text text-anchor="start" x="349.5" y="-73.5" font-family="Helvetica,sans-Serif" font-size="10.00">+ uint32_t GetHeight() const override</text>
<text text-anchor="start" x="349.5" y="-62.5" font-family="Helvetica,sans-Serif" font-size="10.00">+ void SetEventCallback(const EventCallbackFn &amp;callback) override</text>
<text text-anchor="start" x="349.5" y="-51.5" font-family="Helvetica,sans-Serif" font-size="10.00">+ void SetVSync(bool enabled) override</text>
<text text-anchor="start" x="349.5" y="-40.5" font-family="Helvetica,sans-Serif" font-size="10.00">+ bool IsVSync() const override</text>
<text text-anchor="start" x="349.5" y="-29.5" font-family="Helvetica,sans-Serif" font-size="10.00">+ void * GetNativeWindow() const override</text>
<text text-anchor="start" x="349.5" y="-18.5" font-family="Helvetica,sans-Serif" font-size="10.00">&#45; virtual void Init(const WindowProperty &amp;props)</text>
<text text-anchor="start" x="349.5" y="-7.5" font-family="Helvetica,sans-Serif" font-size="10.00">&#45; virtual void Shutdown()</text>
</a>
</g>
</g>
<!-- Node2 -->
<g id="node2" class="node">
<title>Node2</title>
<g id="a_node2"><a xlink:href="classgauri_1_1Window.html" target="_top" xlink:title=" ">
<polygon fill="white" stroke="black" points="0,-215.5 0,-360.5 391,-360.5 391,-215.5 0,-215.5"/>
<text text-anchor="middle" x="195.5" y="-348.5" font-family="Helvetica,sans-Serif" font-size="10.00">gauri::Window</text>
<polyline fill="none" stroke="black" points="0,-341.5 391,-341.5 "/>
<text text-anchor="middle" x="195.5" y="-329.5" font-family="Helvetica,sans-Serif" font-size="10.00"> </text>
<polyline fill="none" stroke="black" points="0,-322.5 391,-322.5 "/>
<text text-anchor="start" x="8" y="-310.5" font-family="Helvetica,sans-Serif" font-size="10.00">+ virtual ~Window()=default</text>
<text text-anchor="start" x="8" y="-299.5" font-family="Helvetica,sans-Serif" font-size="10.00">+ virtual void OnUpdate()=0</text>
<text text-anchor="start" x="8" y="-288.5" font-family="Helvetica,sans-Serif" font-size="10.00">+ virtual uint32_t GetWidth() const =0</text>
<text text-anchor="start" x="8" y="-277.5" font-family="Helvetica,sans-Serif" font-size="10.00">+ virtual uint32_t GetHeight() const =0</text>
<text text-anchor="start" x="8" y="-266.5" font-family="Helvetica,sans-Serif" font-size="10.00">+ virtual void SetEventCallback(const EventCallbackFn &amp;callback)=0</text>
<text text-anchor="start" x="8" y="-255.5" font-family="Helvetica,sans-Serif" font-size="10.00">+ virtual void SetVSync(bool enabled)=0</text>
<text text-anchor="start" x="8" y="-244.5" font-family="Helvetica,sans-Serif" font-size="10.00">+ virtual bool IsVSync() const =0</text>
<text text-anchor="start" x="8" y="-233.5" font-family="Helvetica,sans-Serif" font-size="10.00">+ virtual void * GetNativeWindow() const =0</text>
<text text-anchor="start" x="8" y="-222.5" font-family="Helvetica,sans-Serif" font-size="10.00">+ static Window * Create(const WindowProperty &amp;props=WindowProperty())</text>
</a>
</g>
</g>
<!-- Node2&#45;&gt;Node1 -->
<g id="edge1" class="edge">
<title>Node2&#45;&gt;Node1</title>
<path fill="none" stroke="midnightblue" d="M317.84,-210.01C339.88,-196.15 362.93,-181.64 385.21,-167.62"/>
<polygon fill="none" stroke="midnightblue" points="315.72,-207.21 309.12,-215.5 319.45,-213.13 315.72,-207.21"/>
</g>
<!-- Node3 -->
<g id="node3" class="node">
<title>Node3</title>
<g id="a_node3"><a xlink:title=" ">
<polygon fill="white" stroke="#bfbfbf" points="409,-259.5 409,-316.5 500,-316.5 500,-259.5 409,-259.5"/>
<text text-anchor="middle" x="454.5" y="-304.5" font-family="Helvetica,sans-Serif" font-size="10.00">GLFWwindow *</text>
<polyline fill="none" stroke="#bfbfbf" points="409,-297.5 500,-297.5 "/>
<text text-anchor="middle" x="454.5" y="-285.5" font-family="Helvetica,sans-Serif" font-size="10.00"> </text>
<polyline fill="none" stroke="#bfbfbf" points="409,-278.5 500,-278.5 "/>
<text text-anchor="middle" x="454.5" y="-266.5" font-family="Helvetica,sans-Serif" font-size="10.00"> </text>
</a>
</g>
</g>
<!-- Node3&#45;&gt;Node1 -->
<g id="edge2" class="edge">
<title>Node3&#45;&gt;Node1</title>
<path fill="none" stroke="#404040" d="M462.99,-259.34C469.4,-238.45 478.6,-208.47 487.57,-179.26"/>
<polygon fill="none" stroke="#404040" points="487.6,-179.16 485.54,-172.25 491.12,-167.69 493.18,-174.6 487.6,-179.16"/>
<text text-anchor="middle" x="516" y="-189" font-family="Helvetica,sans-Serif" font-size="10.00"> &#45;m_Window</text>
</g>
<!-- Node4 -->
<g id="node4" class="node">
<title>Node4</title>
<g id="a_node4"><a xlink:href="classgauri_1_1WindowsWindow.html#structgauri_1_1WindowsWindow_1_1WindowData" target="_top" xlink:title=" ">
<polygon fill="white" stroke="black" points="518.5,-259.5 518.5,-316.5 716.5,-316.5 716.5,-259.5 518.5,-259.5"/>
<text text-anchor="middle" x="617.5" y="-304.5" font-family="Helvetica,sans-Serif" font-size="10.00">gauri::WindowsWindow::WindowData</text>
<polyline fill="none" stroke="black" points="518.5,-297.5 716.5,-297.5 "/>
<text text-anchor="middle" x="617.5" y="-285.5" font-family="Helvetica,sans-Serif" font-size="10.00"> </text>
<polyline fill="none" stroke="black" points="518.5,-278.5 716.5,-278.5 "/>
<text text-anchor="middle" x="617.5" y="-266.5" font-family="Helvetica,sans-Serif" font-size="10.00"> </text>
</a>
</g>
</g>
<!-- Node4&#45;&gt;Node1 -->
<g id="edge3" class="edge">
<title>Node4&#45;&gt;Node1</title>
<path fill="none" stroke="#404040" d="M603.67,-259.34C593.13,-238.26 577.97,-207.94 563.24,-178.48"/>
<polygon fill="none" stroke="#404040" points="563.21,-178.42 556.95,-174.84 557.84,-167.69 564.1,-171.26 563.21,-178.42"/>
<text text-anchor="middle" x="593.5" y="-189" font-family="Helvetica,sans-Serif" font-size="10.00"> &#45;m_Data</text>
</g>
<!-- Node5 -->
<g id="node5" class="node">
<title>Node5</title>
<g id="a_node5"><a xlink:title=" ">
<polygon fill="white" stroke="#bfbfbf" points="441.5,-419.5 441.5,-476.5 497.5,-476.5 497.5,-419.5 441.5,-419.5"/>
<text text-anchor="middle" x="469.5" y="-464.5" font-family="Helvetica,sans-Serif" font-size="10.00">uint32_t</text>
<polyline fill="none" stroke="#bfbfbf" points="441.5,-457.5 497.5,-457.5 "/>
<text text-anchor="middle" x="469.5" y="-445.5" font-family="Helvetica,sans-Serif" font-size="10.00"> </text>
<polyline fill="none" stroke="#bfbfbf" points="441.5,-438.5 497.5,-438.5 "/>
<text text-anchor="middle" x="469.5" y="-426.5" font-family="Helvetica,sans-Serif" font-size="10.00"> </text>
</a>
</g>
</g>
<!-- Node5&#45;&gt;Node4 -->
<g id="edge4" class="edge">
<title>Node5&#45;&gt;Node4</title>
<path fill="none" stroke="#404040" d="M483.37,-419.47C490.56,-406.52 500.02,-391.26 510.5,-379 527.63,-358.95 549.49,-339.71 568.99,-324.2"/>
<polygon fill="none" stroke="#404040" points="569.17,-324.06 571.44,-317.21 578.63,-316.67 576.36,-323.52 569.17,-324.06"/>
<text text-anchor="middle" x="532.5" y="-393" font-family="Helvetica,sans-Serif" font-size="10.00"> +Height</text>
<text text-anchor="middle" x="532.5" y="-382" font-family="Helvetica,sans-Serif" font-size="10.00">+Width</text>
</g>
<!-- Node6 -->
<g id="node6" class="node">
<title>Node6</title>
<g id="a_node6"><a xlink:title=" ">
<polygon fill="white" stroke="#bfbfbf" points="515.5,-419.5 515.5,-476.5 613.5,-476.5 613.5,-419.5 515.5,-419.5"/>
<text text-anchor="middle" x="564.5" y="-464.5" font-family="Helvetica,sans-Serif" font-size="10.00">EventCallbackFn</text>
<polyline fill="none" stroke="#bfbfbf" points="515.5,-457.5 613.5,-457.5 "/>
<text text-anchor="middle" x="564.5" y="-445.5" font-family="Helvetica,sans-Serif" font-size="10.00"> </text>
<polyline fill="none" stroke="#bfbfbf" points="515.5,-438.5 613.5,-438.5 "/>
<text text-anchor="middle" x="564.5" y="-426.5" font-family="Helvetica,sans-Serif" font-size="10.00"> </text>
</a>
</g>
</g>
<!-- Node6&#45;&gt;Node4 -->
<g id="edge5" class="edge">
<title>Node6&#45;&gt;Node4</title>
<path fill="none" stroke="#404040" d="M559.34,-419.4C557.99,-406.85 557.8,-391.95 561.5,-379 566.8,-360.45 577.15,-342.01 587.52,-326.69"/>
<polygon fill="none" stroke="#404040" points="587.71,-326.42 587.91,-319.21 594.64,-316.62 594.44,-323.83 587.71,-326.42"/>
<text text-anchor="middle" x="602.5" y="-387.5" font-family="Helvetica,sans-Serif" font-size="10.00"> +EventCallback</text>
</g>
<!-- Node7 -->
<g id="node7" class="node">
<title>Node7</title>
<g id="a_node7"><a xlink:title=" ">
<polygon fill="white" stroke="#bfbfbf" points="650.5,-419.5 650.5,-476.5 688.5,-476.5 688.5,-419.5 650.5,-419.5"/>
<text text-anchor="middle" x="669.5" y="-464.5" font-family="Helvetica,sans-Serif" font-size="10.00">bool</text>
<polyline fill="none" stroke="#bfbfbf" points="650.5,-457.5 688.5,-457.5 "/>
<text text-anchor="middle" x="669.5" y="-445.5" font-family="Helvetica,sans-Serif" font-size="10.00"> </text>
<polyline fill="none" stroke="#bfbfbf" points="650.5,-438.5 688.5,-438.5 "/>
<text text-anchor="middle" x="669.5" y="-426.5" font-family="Helvetica,sans-Serif" font-size="10.00"> </text>
</a>
</g>
</g>
<!-- Node7&#45;&gt;Node4 -->
<g id="edge6" class="edge">
<title>Node7&#45;&gt;Node4</title>
<path fill="none" stroke="#404040" d="M660.56,-419.19C656.59,-406.87 651.84,-392.2 647.5,-379 642.01,-362.29 635.88,-343.86 630.6,-328.06"/>
<polygon fill="none" stroke="#404040" points="630.56,-327.93 624.86,-323.51 626.75,-316.55 632.45,-320.97 630.56,-327.93"/>
<text text-anchor="middle" x="674.5" y="-387.5" font-family="Helvetica,sans-Serif" font-size="10.00"> +VSync</text>
</g>
<!-- Node8 -->
<g id="node8" class="node">
<title>Node8</title>
<g id="a_node8"><a xlink:title=" ">
<polygon fill="white" stroke="#bfbfbf" points="707,-419.5 707,-476.5 772,-476.5 772,-419.5 707,-419.5"/>
<text text-anchor="middle" x="739.5" y="-464.5" font-family="Helvetica,sans-Serif" font-size="10.00">std::string</text>
<polyline fill="none" stroke="#bfbfbf" points="707,-457.5 772,-457.5 "/>
<text text-anchor="middle" x="739.5" y="-445.5" font-family="Helvetica,sans-Serif" font-size="10.00"> </text>
<polyline fill="none" stroke="#bfbfbf" points="707,-438.5 772,-438.5 "/>
<text text-anchor="middle" x="739.5" y="-426.5" font-family="Helvetica,sans-Serif" font-size="10.00"> </text>
</a>
</g>
</g>
<!-- Node8&#45;&gt;Node4 -->
<g id="edge7" class="edge">
<title>Node8&#45;&gt;Node4</title>
<path fill="none" stroke="#404040" d="M724.97,-419.38C717.87,-406.69 708.85,-391.68 699.5,-379 685.87,-360.51 669.03,-341.5 654.17,-325.74"/>
<polygon fill="none" stroke="#404040" points="653.98,-325.55 646.94,-323.97 645.69,-316.87 652.73,-318.44 653.98,-325.55"/>
<text text-anchor="middle" x="730.5" y="-387.5" font-family="Helvetica,sans-Serif" font-size="10.00"> +Title</text>
</g>
<!-- Node9 -->
<g id="node9" class="node">
<title>Node9</title>
<g id="a_node9"><a xlink:title=" ">
<polygon fill="white" stroke="#bfbfbf" points="669,-514.5 669,-571.5 810,-571.5 810,-514.5 669,-514.5"/>
<text text-anchor="middle" x="739.5" y="-559.5" font-family="Helvetica,sans-Serif" font-size="10.00">std::basic_string&lt; Char &gt;</text>
<polyline fill="none" stroke="#bfbfbf" points="669,-552.5 810,-552.5 "/>
<text text-anchor="middle" x="739.5" y="-540.5" font-family="Helvetica,sans-Serif" font-size="10.00"> </text>
<polyline fill="none" stroke="#bfbfbf" points="669,-533.5 810,-533.5 "/>
<text text-anchor="middle" x="739.5" y="-521.5" font-family="Helvetica,sans-Serif" font-size="10.00"> </text>
</a>
</g>
</g>
<!-- Node9&#45;&gt;Node8 -->
<g id="edge8" class="edge">
<title>Node9&#45;&gt;Node8</title>
<path fill="none" stroke="midnightblue" d="M739.5,-504.24C739.5,-495.03 739.5,-485.35 739.5,-476.71"/>
<polygon fill="none" stroke="midnightblue" points="736,-504.35 739.5,-514.35 743,-504.35 736,-504.35"/>
</g>
<!-- Node10 -->
<g id="node10" class="node">
<title>Node10</title>
<g id="a_node10"><a xlink:href="classgauri_1_1GraphicsContext.html" target="_top" xlink:title=" ">
<polygon fill="white" stroke="black" points="734.5,-248.5 734.5,-327.5 936.5,-327.5 936.5,-248.5 734.5,-248.5"/>
<text text-anchor="middle" x="835.5" y="-315.5" font-family="Helvetica,sans-Serif" font-size="10.00">gauri::GraphicsContext</text>
<polyline fill="none" stroke="black" points="734.5,-308.5 936.5,-308.5 "/>
<text text-anchor="middle" x="835.5" y="-296.5" font-family="Helvetica,sans-Serif" font-size="10.00"> </text>
<polyline fill="none" stroke="black" points="734.5,-289.5 936.5,-289.5 "/>
<text text-anchor="start" x="742.5" y="-277.5" font-family="Helvetica,sans-Serif" font-size="10.00">+ virtual ~GraphicsContext()=default</text>
<text text-anchor="start" x="742.5" y="-266.5" font-family="Helvetica,sans-Serif" font-size="10.00">+ virtual void Init()=0</text>
<text text-anchor="start" x="742.5" y="-255.5" font-family="Helvetica,sans-Serif" font-size="10.00">+ virtual void SwapBuffers()=0</text>
</a>
</g>
</g>
<!-- Node10&#45;&gt;Node1 -->
<g id="edge9" class="edge">
<title>Node10&#45;&gt;Node1</title>
<path fill="none" stroke="#404040" d="M777.15,-248.45C760.51,-237.55 742.34,-225.74 725.5,-215 704.59,-201.65 682.41,-187.68 660.62,-174.04"/>
<polygon fill="none" stroke="#404040" points="660.48,-173.95 653.27,-174.16 650.3,-167.59 657.51,-167.38 660.48,-173.95"/>
<text text-anchor="middle" x="721" y="-189" font-family="Helvetica,sans-Serif" font-size="10.00"> &#45;m_Context</text>
</g>
</g>
</svg>
