<?xml version="1.0" encoding="UTF-8" standalone="no"?>
<!DOCTYPE svg PUBLIC "-//W3C//DTD SVG 1.1//EN"
 "http://www.w3.org/Graphics/SVG/1.1/DTD/svg11.dtd">
<!-- Generated by graphviz version 2.43.0 (0)
 -->
<!-- Title: gauri::SceneSerializer Pages: 1 -->
<svg width="289pt" height="215pt"
 viewBox="0.00 0.00 289.00 215.00" xmlns="http://www.w3.org/2000/svg" xmlns:xlink="http://www.w3.org/1999/xlink">
<g id="graph0" class="graph" transform="scale(1 1) rotate(0) translate(4 211)">
<title>gauri::SceneSerializer</title>
<polygon fill="white" stroke="transparent" points="-4,4 -4,-211 285,-211 285,4 -4,4"/>
<!-- Node1 -->
<g id="node1" class="node">
<title>Node1</title>
<g id="a_node1"><a xlink:title=" ">
<polygon fill="#bfbfbf" stroke="black" points="0,-0.5 0,-101.5 281,-101.5 281,-0.5 0,-0.5"/>
<text text-anchor="middle" x="140.5" y="-89.5" font-family="Helvetica,sans-Serif" font-size="10.00">gauri::SceneSerializer</text>
<polyline fill="none" stroke="black" points="0,-82.5 281,-82.5 "/>
<text text-anchor="middle" x="140.5" y="-70.5" font-family="Helvetica,sans-Serif" font-size="10.00"> </text>
<polyline fill="none" stroke="black" points="0,-63.5 281,-63.5 "/>
<text text-anchor="start" x="8" y="-51.5" font-family="Helvetica,sans-Serif" font-size="10.00">+ SceneSerializer(const Ref&lt; Scene &gt; &amp;scene)</text>
<text text-anchor="start" x="8" y="-40.5" font-family="Helvetica,sans-Serif" font-size="10.00">+ void Serialize(const std::string &amp;filepath)</text>
<text text-anchor="start" x="8" y="-29.5" font-family="Helvetica,sans-Serif" font-size="10.00">+ void SerializeRuntime(const std::string &amp;filepath)</text>
<text text-anchor="start" x="8" y="-18.5" font-family="Helvetica,sans-Serif" font-size="10.00">+ bool Deserialize(const std::string &amp;filepath)</text>
<text text-anchor="start" x="8" y="-7.5" font-family="Helvetica,sans-Serif" font-size="10.00">+ bool DeserializeRuntime(const std::string &amp;filepath)</text>
</a>
</g>
</g>
<!-- Node2 -->
<g id="node2" class="node">
<title>Node2</title>
<g id="a_node2"><a xlink:title=" ">
<polygon fill="white" stroke="#bfbfbf" points="82.5,-149.5 82.5,-206.5 198.5,-206.5 198.5,-149.5 82.5,-149.5"/>
<text text-anchor="middle" x="140.5" y="-194.5" font-family="Helvetica,sans-Serif" font-size="10.00">Ref&lt; gauri::Scene &gt;</text>
<polyline fill="none" stroke="#bfbfbf" points="82.5,-187.5 198.5,-187.5 "/>
<text text-anchor="middle" x="140.5" y="-175.5" font-family="Helvetica,sans-Serif" font-size="10.00"> </text>
<polyline fill="none" stroke="#bfbfbf" points="82.5,-168.5 198.5,-168.5 "/>
<text text-anchor="middle" x="140.5" y="-156.5" font-family="Helvetica,sans-Serif" font-size="10.00"> </text>
</a>
</g>
</g>
<!-- Node2&#45;&gt;Node1 -->
<g id="edge1" class="edge">
<title>Node2&#45;&gt;Node1</title>
<path fill="none" stroke="#404040" d="M140.5,-149.26C140.5,-138.79 140.5,-126.42 140.5,-114.07"/>
<polygon fill="none" stroke="#404040" points="140.5,-113.8 136.5,-107.8 140.5,-101.8 144.5,-107.8 140.5,-113.8"/>
<text text-anchor="middle" x="166.5" y="-123" font-family="Helvetica,sans-Serif" font-size="10.00"> &#45;m_Scene</text>
</g>
</g>
</svg>
