<?xml version="1.0" encoding="UTF-8" standalone="no"?>
<!DOCTYPE svg PUBLIC "-//W3C//DTD SVG 1.1//EN"
 "http://www.w3.org/Graphics/SVG/1.1/DTD/svg11.dtd">
<!-- Generated by graphviz version 2.43.0 (0)
 -->
<!-- Title: gauri::BufferLayout Pages: 1 -->
<!--zoomable 597 -->
<svg id="main" version="1.1" xmlns="http://www.w3.org/2000/svg" xmlns:xlink="http://www.w3.org/1999/xlink" xml:space="preserve" onload="init(evt)">
<style type="text/css"><![CDATA[
.edge:hover path { stroke: red; }
.edge:hover polygon { stroke: red; fill: red; }
]]></style>
<script type="text/javascript"><![CDATA[
var edges = document.getElementsByTagName('g');
if (edges && edges.length) {
  for (var i=0;i<edges.length;i++) {
    if (edges[i].id.substr(0,4)=='edge') {
      edges[i].setAttribute('class','edge');
    }
  }
}
]]></script>
        <defs>
                <circle id="rim" cx="0" cy="0" r="7"/>
                <circle id="rim2" cx="0" cy="0" r="3.5"/>
                <g id="zoomPlus">
                        <use xlink:href="#rim" fill="#404040">
                                <set attributeName="fill" to="#808080" begin="zoomplus.mouseover" end="zoomplus.mouseout"/>
                        </use>
                        <path d="M-4,0h8M0,-4v8" fill="none" stroke="white" stroke-width="1.5" pointer-events="none"/>
                </g>
                <g id="zoomMin">
                        <use xlink:href="#rim" fill="#404040">
                                <set attributeName="fill" to="#808080" begin="zoomminus.mouseover" end="zoomminus.mouseout"/>
                        </use>
                        <path d="M-4,0h8" fill="none" stroke="white" stroke-width="1.5" pointer-events="none"/>
                </g>
                <g id="dirArrow">
                        <path fill="none" stroke="white" stroke-width="1.5" d="M0,-3.0v7 M-2.5,-0.5L0,-3.0L2.5,-0.5"/>
                </g>
               <g id="resetDef">
                       <use xlink:href="#rim2" fill="#404040">
                               <set attributeName="fill" to="#808080" begin="reset.mouseover" end="reset.mouseout"/>
                       </use>
               </g>
        </defs>

<script type="text/javascript">
var viewWidth = 775;
var viewHeight = 597;
var sectionId = 'dynsection-0';
</script>
<script xlink:href="svgpan.js"/>
<svg id="graph" class="graph">
<g id="viewport">
<title>gauri::BufferLayout</title>
<polygon fill="white" stroke="transparent" points="-4,4 -4,-593 771,-593 771,4 -4,4"/>
<!-- Node1 -->
<g id="node1" class="node">
<title>Node1</title>
<g id="a_node1"><a xlink:title=" ">
<polygon fill="#bfbfbf" stroke="black" points="0,-0.5 0,-145.5 362,-145.5 362,-0.5 0,-0.5"/>
<text text-anchor="middle" x="181" y="-133.5" font-family="Helvetica,sans-Serif" font-size="10.00">gauri::BufferLayout</text>
<polyline fill="none" stroke="black" points="0,-126.5 362,-126.5 "/>
<text text-anchor="middle" x="181" y="-114.5" font-family="Helvetica,sans-Serif" font-size="10.00"> </text>
<polyline fill="none" stroke="black" points="0,-107.5 362,-107.5 "/>
<text text-anchor="start" x="8" y="-95.5" font-family="Helvetica,sans-Serif" font-size="10.00">+ BufferLayout()=default</text>
<text text-anchor="start" x="8" y="-84.5" font-family="Helvetica,sans-Serif" font-size="10.00">+ BufferLayout(const std::initializer_list&lt; BufferElement &gt; &amp;elements)</text>
<text text-anchor="start" x="8" y="-73.5" font-family="Helvetica,sans-Serif" font-size="10.00">+ uint32_t GetStride() const</text>
<text text-anchor="start" x="8" y="-62.5" font-family="Helvetica,sans-Serif" font-size="10.00">+ const std::vector&lt; BufferElement &gt; &amp; GetElements() const</text>
<text text-anchor="start" x="8" y="-51.5" font-family="Helvetica,sans-Serif" font-size="10.00">+ std::vector&lt; BufferElement &gt;::iterator begin()</text>
<text text-anchor="start" x="8" y="-40.5" font-family="Helvetica,sans-Serif" font-size="10.00">+ std::vector&lt; BufferElement &gt;::iterator end()</text>
<text text-anchor="start" x="8" y="-29.5" font-family="Helvetica,sans-Serif" font-size="10.00">+ std::vector&lt; BufferElement &gt;::const_iterator begin() const</text>
<text text-anchor="start" x="8" y="-18.5" font-family="Helvetica,sans-Serif" font-size="10.00">+ std::vector&lt; BufferElement &gt;::const_iterator end() const</text>
<text text-anchor="start" x="8" y="-7.5" font-family="Helvetica,sans-Serif" font-size="10.00">&#45; void CalculateOffsetAndStride()</text>
</a>
</g>
</g>
<!-- Node2 -->
<g id="node2" class="node">
<title>Node2</title>
<g id="a_node2"><a xlink:title=" ">
<polygon fill="white" stroke="#bfbfbf" points="174,-436.5 174,-493.5 230,-493.5 230,-436.5 174,-436.5"/>
<text text-anchor="middle" x="202" y="-481.5" font-family="Helvetica,sans-Serif" font-size="10.00">uint32_t</text>
<polyline fill="none" stroke="#bfbfbf" points="174,-474.5 230,-474.5 "/>
<text text-anchor="middle" x="202" y="-462.5" font-family="Helvetica,sans-Serif" font-size="10.00"> </text>
<polyline fill="none" stroke="#bfbfbf" points="174,-455.5 230,-455.5 "/>
<text text-anchor="middle" x="202" y="-443.5" font-family="Helvetica,sans-Serif" font-size="10.00"> </text>
</a>
</g>
</g>
<!-- Node2&#45;&gt;Node1 -->
<g id="edge1" class="edge">
<title>Node2&#45;&gt;Node1</title>
<path fill="none" stroke="#404040" d="M194.77,-436.34C190.75,-419.58 186.14,-397.71 184,-378 175.97,-304 175.88,-219.27 177.41,-158.09"/>
<polygon fill="none" stroke="#404040" points="177.42,-157.79 173.59,-151.68 177.75,-145.79 181.58,-151.9 177.42,-157.79"/>
<text text-anchor="middle" x="203.5" y="-272" font-family="Helvetica,sans-Serif" font-size="10.00"> &#45;m_Stride</text>
</g>
<!-- Node4 -->
<g id="node4" class="node">
<title>Node4</title>
<g id="a_node4"><a xlink:href="structgauri_1_1BufferElement.html" target="_top" xlink:title=" ">
<polygon fill="white" stroke="black" points="193.5,-298.5 193.5,-377.5 642.5,-377.5 642.5,-298.5 193.5,-298.5"/>
<text text-anchor="middle" x="418" y="-365.5" font-family="Helvetica,sans-Serif" font-size="10.00">gauri::BufferElement</text>
<polyline fill="none" stroke="black" points="193.5,-358.5 642.5,-358.5 "/>
<text text-anchor="middle" x="418" y="-346.5" font-family="Helvetica,sans-Serif" font-size="10.00"> </text>
<polyline fill="none" stroke="black" points="193.5,-339.5 642.5,-339.5 "/>
<text text-anchor="start" x="201.5" y="-327.5" font-family="Helvetica,sans-Serif" font-size="10.00">+ BufferElement()=default</text>
<text text-anchor="start" x="201.5" y="-316.5" font-family="Helvetica,sans-Serif" font-size="10.00">+ BufferElement(ShaderDataType type, const std::string &amp;name, bool normalized=false)</text>
<text text-anchor="start" x="201.5" y="-305.5" font-family="Helvetica,sans-Serif" font-size="10.00">+ uint32_t GetComponentCount() const</text>
</a>
</g>
</g>
<!-- Node2&#45;&gt;Node4 -->
<g id="edge5" class="edge">
<title>Node2&#45;&gt;Node4</title>
<path fill="none" stroke="#404040" d="M230.24,-447.66C258.15,-431.51 302.11,-406.07 340.48,-383.86"/>
<polygon fill="none" stroke="#404040" points="340.75,-383.7 343.94,-377.24 351.14,-377.69 347.95,-384.16 340.75,-383.7"/>
<text text-anchor="middle" x="337.5" y="-410" font-family="Helvetica,sans-Serif" font-size="10.00"> +Offset</text>
<text text-anchor="middle" x="337.5" y="-399" font-family="Helvetica,sans-Serif" font-size="10.00">+Size</text>
</g>
<!-- Node3 -->
<g id="node3" class="node">
<title>Node3</title>
<g id="a_node3"><a xlink:title=" ">
<polygon fill="white" stroke="#bfbfbf" points="322.5,-193.5 322.5,-250.5 513.5,-250.5 513.5,-193.5 322.5,-193.5"/>
<text text-anchor="middle" x="418" y="-238.5" font-family="Helvetica,sans-Serif" font-size="10.00">std::vector&lt; gauri::BufferElement &gt;</text>
<polyline fill="none" stroke="#bfbfbf" points="322.5,-231.5 513.5,-231.5 "/>
<text text-anchor="middle" x="418" y="-219.5" font-family="Helvetica,sans-Serif" font-size="10.00"> </text>
<polyline fill="none" stroke="#bfbfbf" points="322.5,-212.5 513.5,-212.5 "/>
<text text-anchor="middle" x="418" y="-200.5" font-family="Helvetica,sans-Serif" font-size="10.00"> </text>
</a>
</g>
</g>
<!-- Node3&#45;&gt;Node1 -->
<g id="edge2" class="edge">
<title>Node3&#45;&gt;Node1</title>
<path fill="none" stroke="#404040" d="M373.42,-193.35C354.18,-181.42 330.61,-166.8 306.65,-151.93"/>
<polygon fill="none" stroke="#404040" points="306.56,-151.88 299.36,-152.12 296.36,-145.56 303.57,-145.32 306.56,-151.88"/>
<text text-anchor="middle" x="376" y="-167" font-family="Helvetica,sans-Serif" font-size="10.00"> &#45;m_Elements</text>
</g>
<!-- Node4&#45;&gt;Node3 -->
<g id="edge3" class="edge">
<title>Node4&#45;&gt;Node3</title>
<path fill="none" stroke="#404040" d="M418,-298.4C418,-286.93 418,-274.33 418,-262.78"/>
<polygon fill="none" stroke="#404040" points="418,-262.75 414,-256.75 418,-250.75 422,-256.75 418,-262.75"/>
<text text-anchor="middle" x="447" y="-272" font-family="Helvetica,sans-Serif" font-size="10.00"> +elements</text>
</g>
<!-- Node5 -->
<g id="node5" class="node">
<title>Node5</title>
<g id="a_node5"><a xlink:title=" ">
<polygon fill="white" stroke="#bfbfbf" points="285,-436.5 285,-493.5 381,-493.5 381,-436.5 285,-436.5"/>
<text text-anchor="middle" x="333" y="-481.5" font-family="Helvetica,sans-Serif" font-size="10.00">ShaderDataType</text>
<polyline fill="none" stroke="#bfbfbf" points="285,-474.5 381,-474.5 "/>
<text text-anchor="middle" x="333" y="-462.5" font-family="Helvetica,sans-Serif" font-size="10.00"> </text>
<polyline fill="none" stroke="#bfbfbf" points="285,-455.5 381,-455.5 "/>
<text text-anchor="middle" x="333" y="-443.5" font-family="Helvetica,sans-Serif" font-size="10.00"> </text>
</a>
</g>
</g>
<!-- Node5&#45;&gt;Node4 -->
<g id="edge4" class="edge">
<title>Node5&#45;&gt;Node4</title>
<path fill="none" stroke="#404040" d="M351.86,-436.26C361.59,-421.96 373.72,-404.11 384.94,-387.62"/>
<polygon fill="none" stroke="#404040" points="385.03,-387.49 385.09,-380.28 391.77,-377.57 391.71,-384.78 385.03,-387.49"/>
<text text-anchor="middle" x="396" y="-404.5" font-family="Helvetica,sans-Serif" font-size="10.00"> +Type</text>
</g>
<!-- Node6 -->
<g id="node6" class="node">
<title>Node6</title>
<g id="a_node6"><a xlink:title=" ">
<polygon fill="white" stroke="#bfbfbf" points="399,-436.5 399,-493.5 437,-493.5 437,-436.5 399,-436.5"/>
<text text-anchor="middle" x="418" y="-481.5" font-family="Helvetica,sans-Serif" font-size="10.00">bool</text>
<polyline fill="none" stroke="#bfbfbf" points="399,-474.5 437,-474.5 "/>
<text text-anchor="middle" x="418" y="-462.5" font-family="Helvetica,sans-Serif" font-size="10.00"> </text>
<polyline fill="none" stroke="#bfbfbf" points="399,-455.5 437,-455.5 "/>
<text text-anchor="middle" x="418" y="-443.5" font-family="Helvetica,sans-Serif" font-size="10.00"> </text>
</a>
</g>
</g>
<!-- Node6&#45;&gt;Node4 -->
<g id="edge6" class="edge">
<title>Node6&#45;&gt;Node4</title>
<path fill="none" stroke="#404040" d="M418,-436.26C418,-422.64 418,-405.79 418,-389.96"/>
<polygon fill="none" stroke="#404040" points="418,-389.57 414,-383.57 418,-377.57 422,-383.57 418,-389.57"/>
<text text-anchor="middle" x="452" y="-404.5" font-family="Helvetica,sans-Serif" font-size="10.00"> +Normalized</text>
</g>
<!-- Node7 -->
<g id="node7" class="node">
<title>Node7</title>
<g id="a_node7"><a xlink:title=" ">
<polygon fill="white" stroke="#bfbfbf" points="476.5,-436.5 476.5,-493.5 541.5,-493.5 541.5,-436.5 476.5,-436.5"/>
<text text-anchor="middle" x="509" y="-481.5" font-family="Helvetica,sans-Serif" font-size="10.00">std::string</text>
<polyline fill="none" stroke="#bfbfbf" points="476.5,-474.5 541.5,-474.5 "/>
<text text-anchor="middle" x="509" y="-462.5" font-family="Helvetica,sans-Serif" font-size="10.00"> </text>
<polyline fill="none" stroke="#bfbfbf" points="476.5,-455.5 541.5,-455.5 "/>
<text text-anchor="middle" x="509" y="-443.5" font-family="Helvetica,sans-Serif" font-size="10.00"> </text>
</a>
</g>
</g>
<!-- Node7&#45;&gt;Node4 -->
<g id="edge7" class="edge">
<title>Node7&#45;&gt;Node4</title>
<path fill="none" stroke="#404040" d="M503.8,-436.25C500.45,-423.25 495.16,-408.01 487,-396 484.77,-392.72 482.31,-389.53 479.67,-386.44"/>
<polygon fill="none" stroke="#404040" points="479.51,-386.27 472.49,-384.62 471.31,-377.5 478.33,-379.16 479.51,-386.27"/>
<text text-anchor="middle" x="518.5" y="-404.5" font-family="Helvetica,sans-Serif" font-size="10.00"> +Name</text>
</g>
<!-- Node8 -->
<g id="node8" class="node">
<title>Node8</title>
<g id="a_node8"><a xlink:title=" ">
<polygon fill="white" stroke="#bfbfbf" points="438.5,-531.5 438.5,-588.5 579.5,-588.5 579.5,-531.5 438.5,-531.5"/>
<text text-anchor="middle" x="509" y="-576.5" font-family="Helvetica,sans-Serif" font-size="10.00">std::basic_string&lt; Char &gt;</text>
<polyline fill="none" stroke="#bfbfbf" points="438.5,-569.5 579.5,-569.5 "/>
<text text-anchor="middle" x="509" y="-557.5" font-family="Helvetica,sans-Serif" font-size="10.00"> </text>
<polyline fill="none" stroke="#bfbfbf" points="438.5,-550.5 579.5,-550.5 "/>
<text text-anchor="middle" x="509" y="-538.5" font-family="Helvetica,sans-Serif" font-size="10.00"> </text>
</a>
</g>
</g>
<!-- Node8&#45;&gt;Node7 -->
<g id="edge8" class="edge">
<title>Node8&#45;&gt;Node7</title>
<path fill="none" stroke="midnightblue" d="M509,-521.24C509,-512.03 509,-502.35 509,-493.71"/>
<polygon fill="none" stroke="midnightblue" points="505.5,-521.35 509,-531.35 512.5,-521.35 505.5,-521.35"/>
</g>
<!-- Node9 -->
<g id="node9" class="node">
<title>Node9</title>
<g id="a_node9"><a xlink:title=" ">
<polygon fill="white" stroke="#bfbfbf" points="660.5,-309.5 660.5,-366.5 757.5,-366.5 757.5,-309.5 660.5,-309.5"/>
<text text-anchor="middle" x="709" y="-354.5" font-family="Helvetica,sans-Serif" font-size="10.00">std::vector&lt; T &gt;</text>
<polyline fill="none" stroke="#bfbfbf" points="660.5,-347.5 757.5,-347.5 "/>
<text text-anchor="middle" x="709" y="-335.5" font-family="Helvetica,sans-Serif" font-size="10.00"> </text>
<polyline fill="none" stroke="#bfbfbf" points="660.5,-328.5 757.5,-328.5 "/>
<text text-anchor="middle" x="709" y="-316.5" font-family="Helvetica,sans-Serif" font-size="10.00"> </text>
</a>
</g>
</g>
<!-- Node9&#45;&gt;Node3 -->
<g id="edge9" class="edge">
<title>Node9&#45;&gt;Node3</title>
<path fill="none" stroke="orange" d="M663.29,-304.09C659.55,-301.9 655.76,-299.84 652,-298 608.22,-276.58 556.91,-259.34 513.51,-246.81"/>
<polygon fill="orange" stroke="orange" points="661.56,-307.13 671.91,-309.38 665.23,-301.17 661.56,-307.13"/>
<text text-anchor="middle" x="672.5" y="-272" font-family="Helvetica,sans-Serif" font-size="10.00"> &lt; gauri::BufferElement &gt;</text>
</g>
<!-- Node10 -->
<g id="node10" class="node">
<title>Node10</title>
<g id="a_node10"><a xlink:title=" ">
<polygon fill="white" stroke="#bfbfbf" points="694.5,-436.5 694.5,-493.5 723.5,-493.5 723.5,-436.5 694.5,-436.5"/>
<text text-anchor="middle" x="709" y="-481.5" font-family="Helvetica,sans-Serif" font-size="10.00">T</text>
<polyline fill="none" stroke="#bfbfbf" points="694.5,-474.5 723.5,-474.5 "/>
<text text-anchor="middle" x="709" y="-462.5" font-family="Helvetica,sans-Serif" font-size="10.00"> </text>
<polyline fill="none" stroke="#bfbfbf" points="694.5,-455.5 723.5,-455.5 "/>
<text text-anchor="middle" x="709" y="-443.5" font-family="Helvetica,sans-Serif" font-size="10.00"> </text>
</a>
</g>
</g>
<!-- Node10&#45;&gt;Node9 -->
<g id="edge10" class="edge">
<title>Node10&#45;&gt;Node9</title>
<path fill="none" stroke="#404040" d="M709,-436.26C709,-419.35 709,-397.46 709,-378.73"/>
<polygon fill="none" stroke="#404040" points="709,-378.66 705,-372.66 709,-366.66 713,-372.66 709,-378.66"/>
<text text-anchor="middle" x="738" y="-404.5" font-family="Helvetica,sans-Serif" font-size="10.00"> +elements</text>
</g>
</g>
</svg>
        <g id="navigator" transform="translate(0 0)" fill="#404254">
                <rect fill="#f2f5e9" fill-opacity="0.5" stroke="#606060" stroke-width=".5" x="0" y="0" width="60" height="60"/>
                <use id="zoomplus" xlink:href="#zoomPlus" x="17" y="9" onmousedown="handleZoom(evt,'in')"/>
                <use id="zoomminus" xlink:href="#zoomMin" x="42" y="9" onmousedown="handleZoom(evt,'out')"/>
                <use id="reset" xlink:href="#resetDef" x="30" y="36" onmousedown="handleReset()"/>
                <g id="arrowUp" xlink:href="#dirArrow" transform="translate(30 24)" onmousedown="handlePan(0,-1)">
                  <use xlink:href="#rim" fill="#404040">
                        <set attributeName="fill" to="#808080" begin="arrowUp.mouseover" end="arrowUp.mouseout"/>
                  </use>
                  <path fill="none" stroke="white" stroke-width="1.5" d="M0,-3.0v7 M-2.5,-0.5L0,-3.0L2.5,-0.5"/>
                </g>
                <g id="arrowRight" xlink:href="#dirArrow" transform="rotate(90) translate(36 -43)" onmousedown="handlePan(1,0)">
                  <use xlink:href="#rim" fill="#404040">
                        <set attributeName="fill" to="#808080" begin="arrowRight.mouseover" end="arrowRight.mouseout"/>
                  </use>
                  <path fill="none" stroke="white" stroke-width="1.5" d="M0,-3.0v7 M-2.5,-0.5L0,-3.0L2.5,-0.5"/>
                </g>
                <g id="arrowDown" xlink:href="#dirArrow" transform="rotate(180) translate(-30 -48)" onmousedown="handlePan(0,1)">
                  <use xlink:href="#rim" fill="#404040">
                        <set attributeName="fill" to="#808080" begin="arrowDown.mouseover" end="arrowDown.mouseout"/>
                  </use>
                  <path fill="none" stroke="white" stroke-width="1.5" d="M0,-3.0v7 M-2.5,-0.5L0,-3.0L2.5,-0.5"/>
                </g>
                <g id="arrowLeft" xlink:href="#dirArrow" transform="rotate(270) translate(-36 17)" onmousedown="handlePan(-1,0)">
                  <use xlink:href="#rim" fill="#404040">
                        <set attributeName="fill" to="#808080" begin="arrowLeft.mouseover" end="arrowLeft.mouseout"/>
                  </use>
                  <path fill="none" stroke="white" stroke-width="1.5" d="M0,-3.0v7 M-2.5,-0.5L0,-3.0L2.5,-0.5"/>
                </g>
        </g>
        <svg viewBox="0 0 15 15" width="100%" height="30px" preserveAspectRatio="xMaxYMin meet">
         <g id="arrow_out" transform="scale(0.3 0.3)">
          <a xlink:href="classgauri_1_1BufferLayout__coll__graph_org.svg" target="_base">
           <rect id="button" ry="5" rx="5" y="6" x="6" height="38" width="38"
                fill="#f2f5e9" fill-opacity="0.5" stroke="#606060" stroke-width="1.0"/>
           <path id="arrow"
             d="M 11.500037,31.436501 C 11.940474,20.09759 22.043105,11.32322 32.158766,21.979434 L 37.068811,17.246167 C 37.068811,17.246167 37.088388,32 37.088388,32 L 22.160133,31.978069 C 22.160133,31.978069 26.997745,27.140456 26.997745,27.140456 C 18.528582,18.264221 13.291696,25.230495 11.500037,31.436501 z"
             style="fill:#404040;"/>
          </a>
         </g>
        </svg>
</svg>
