<?xml version="1.0" encoding="UTF-8" standalone="no"?>
<!DOCTYPE svg PUBLIC "-//W3C//DTD SVG 1.1//EN"
 "http://www.w3.org/Graphics/SVG/1.1/DTD/svg11.dtd">
<!-- Generated by graphviz version 2.43.0 (0)
 -->
<!-- Title: gauri::KeyTypedEvent Pages: 1 -->
<svg width="249pt" height="342pt"
 viewBox="0.00 0.00 249.00 342.00" xmlns="http://www.w3.org/2000/svg" xmlns:xlink="http://www.w3.org/1999/xlink">
<g id="graph0" class="graph" transform="scale(1 1) rotate(0) translate(4 338)">
<title>gauri::KeyTypedEvent</title>
<polygon fill="white" stroke="transparent" points="-4,4 -4,-338 245,-338 245,4 -4,4"/>
<!-- Node1 -->
<g id="node1" class="node">
<title>Node1</title>
<g id="a_node1"><a xlink:title=" ">
<polygon fill="#bfbfbf" stroke="black" points="21,-0.5 21,-79.5 220,-79.5 220,-0.5 21,-0.5"/>
<text text-anchor="middle" x="120.5" y="-67.5" font-family="Helvetica,sans-Serif" font-size="10.00">gauri::KeyTypedEvent</text>
<polyline fill="none" stroke="black" points="21,-60.5 220,-60.5 "/>
<text text-anchor="middle" x="120.5" y="-48.5" font-family="Helvetica,sans-Serif" font-size="10.00"> </text>
<polyline fill="none" stroke="black" points="21,-41.5 220,-41.5 "/>
<text text-anchor="start" x="29" y="-29.5" font-family="Helvetica,sans-Serif" font-size="10.00">+ KeyTypedEvent(int32_t keycode)</text>
<text text-anchor="start" x="29" y="-18.5" font-family="Helvetica,sans-Serif" font-size="10.00">+ std::string ToString() const override</text>
<text text-anchor="start" x="29" y="-7.5" font-family="Helvetica,sans-Serif" font-size="10.00">+ EVENT_CLASS_TYPE(KeyTyped)</text>
</a>
</g>
</g>
<!-- Node2 -->
<g id="node2" class="node">
<title>Node2</title>
<g id="a_node2"><a xlink:href="classgauri_1_1KeyEvent.html" target="_top" xlink:title=" ">
<polygon fill="white" stroke="black" points="40,-116.5 40,-184.5 201,-184.5 201,-116.5 40,-116.5"/>
<text text-anchor="middle" x="120.5" y="-172.5" font-family="Helvetica,sans-Serif" font-size="10.00">gauri::KeyEvent</text>
<polyline fill="none" stroke="black" points="40,-165.5 201,-165.5 "/>
<text text-anchor="start" x="48" y="-153.5" font-family="Helvetica,sans-Serif" font-size="10.00"># int32_t m_KeyCode</text>
<polyline fill="none" stroke="black" points="40,-146.5 201,-146.5 "/>
<text text-anchor="start" x="48" y="-134.5" font-family="Helvetica,sans-Serif" font-size="10.00">+ int32_t GetKeyCode() const</text>
<text text-anchor="start" x="48" y="-123.5" font-family="Helvetica,sans-Serif" font-size="10.00"># KeyEvent(int32_t keycode)</text>
</a>
</g>
</g>
<!-- Node2&#45;&gt;Node1 -->
<g id="edge1" class="edge">
<title>Node2&#45;&gt;Node1</title>
<path fill="none" stroke="midnightblue" d="M120.5,-106.27C120.5,-97.48 120.5,-88.28 120.5,-79.65"/>
<polygon fill="none" stroke="midnightblue" points="117,-106.36 120.5,-116.36 124,-106.36 117,-106.36"/>
</g>
<!-- Node3 -->
<g id="node3" class="node">
<title>Node3</title>
<g id="a_node3"><a xlink:href="classgauri_1_1Event.html" target="_top" xlink:title=" ">
<polygon fill="white" stroke="black" points="0,-221.5 0,-333.5 241,-333.5 241,-221.5 0,-221.5"/>
<text text-anchor="middle" x="120.5" y="-321.5" font-family="Helvetica,sans-Serif" font-size="10.00">gauri::Event</text>
<polyline fill="none" stroke="black" points="0,-314.5 241,-314.5 "/>
<text text-anchor="start" x="8" y="-302.5" font-family="Helvetica,sans-Serif" font-size="10.00"># bool m_Handled</text>
<polyline fill="none" stroke="black" points="0,-295.5 241,-295.5 "/>
<text text-anchor="start" x="8" y="-283.5" font-family="Helvetica,sans-Serif" font-size="10.00">+ virtual EventType GetEventType() const =0</text>
<text text-anchor="start" x="8" y="-272.5" font-family="Helvetica,sans-Serif" font-size="10.00">+ virtual const char * GetName() const =0</text>
<text text-anchor="start" x="8" y="-261.5" font-family="Helvetica,sans-Serif" font-size="10.00">+ virtual int32_t GetCategoryFlags() const =0</text>
<text text-anchor="start" x="8" y="-250.5" font-family="Helvetica,sans-Serif" font-size="10.00">+ virtual std::string ToString() const</text>
<text text-anchor="start" x="8" y="-239.5" font-family="Helvetica,sans-Serif" font-size="10.00">+ bool IsInCategory(EventCategory category)</text>
<text text-anchor="start" x="8" y="-228.5" font-family="Helvetica,sans-Serif" font-size="10.00">+ bool IsHandled() const</text>
</a>
</g>
</g>
<!-- Node3&#45;&gt;Node2 -->
<g id="edge2" class="edge">
<title>Node3&#45;&gt;Node2</title>
<path fill="none" stroke="midnightblue" d="M120.5,-211.26C120.5,-201.99 120.5,-192.8 120.5,-184.51"/>
<polygon fill="none" stroke="midnightblue" points="117,-211.31 120.5,-221.31 124,-211.31 117,-211.31"/>
</g>
</g>
</svg>
