<?xml version="1.0" encoding="UTF-8" standalone="no"?>
<!DOCTYPE svg PUBLIC "-//W3C//DTD SVG 1.1//EN"
 "http://www.w3.org/Graphics/SVG/1.1/DTD/svg11.dtd">
<!-- Generated by graphviz version 2.43.0 (0)
 -->
<!-- Title: gauri::Texture2D Pages: 1 -->
<svg width="346pt" height="452pt"
 viewBox="0.00 0.00 346.00 452.00" xmlns="http://www.w3.org/2000/svg" xmlns:xlink="http://www.w3.org/1999/xlink">
<g id="graph0" class="graph" transform="scale(1 1) rotate(0) translate(4 448)">
<title>gauri::Texture2D</title>
<polygon fill="white" stroke="transparent" points="-4,4 -4,-448 342,-448 342,4 -4,4"/>
<!-- Node1 -->
<g id="node1" class="node">
<title>Node1</title>
<g id="a_node1"><a xlink:title=" ">
<polygon fill="#bfbfbf" stroke="black" points="0,-226.5 0,-294.5 338,-294.5 338,-226.5 0,-226.5"/>
<text text-anchor="middle" x="169" y="-282.5" font-family="Helvetica,sans-Serif" font-size="10.00">gauri::Texture2D</text>
<polyline fill="none" stroke="black" points="0,-275.5 338,-275.5 "/>
<text text-anchor="middle" x="169" y="-263.5" font-family="Helvetica,sans-Serif" font-size="10.00"> </text>
<polyline fill="none" stroke="black" points="0,-256.5 338,-256.5 "/>
<text text-anchor="start" x="8" y="-244.5" font-family="Helvetica,sans-Serif" font-size="10.00">+ static Ref&lt; Texture2D &gt; Create(uint32_t width, uint32_t height)</text>
<text text-anchor="start" x="8" y="-233.5" font-family="Helvetica,sans-Serif" font-size="10.00">+ static Ref&lt; Texture2D &gt; Create(const std::string &amp;path)</text>
</a>
</g>
</g>
<!-- Node3 -->
<g id="node3" class="node">
<title>Node3</title>
<g id="a_node3"><a xlink:href="classgauri_1_1OpenGLTexture2D.html" target="_top" xlink:title=" ">
<polygon fill="white" stroke="black" points="23.5,-0.5 23.5,-189.5 314.5,-189.5 314.5,-0.5 23.5,-0.5"/>
<text text-anchor="middle" x="169" y="-177.5" font-family="Helvetica,sans-Serif" font-size="10.00">gauri::OpenGLTexture2D</text>
<polyline fill="none" stroke="black" points="23.5,-170.5 314.5,-170.5 "/>
<text text-anchor="start" x="31.5" y="-158.5" font-family="Helvetica,sans-Serif" font-size="10.00">&#45; std::string m_Path</text>
<text text-anchor="start" x="31.5" y="-147.5" font-family="Helvetica,sans-Serif" font-size="10.00">&#45; uint32_t m_RendererID</text>
<text text-anchor="start" x="31.5" y="-136.5" font-family="Helvetica,sans-Serif" font-size="10.00">&#45; uint32_t m_Width</text>
<text text-anchor="start" x="31.5" y="-125.5" font-family="Helvetica,sans-Serif" font-size="10.00">&#45; uint32_t m_Height</text>
<text text-anchor="start" x="31.5" y="-114.5" font-family="Helvetica,sans-Serif" font-size="10.00">&#45; GLenum m_InternalFormat</text>
<text text-anchor="start" x="31.5" y="-103.5" font-family="Helvetica,sans-Serif" font-size="10.00">&#45; GLenum m_DataFormat</text>
<polyline fill="none" stroke="black" points="23.5,-96.5 314.5,-96.5 "/>
<text text-anchor="start" x="31.5" y="-84.5" font-family="Helvetica,sans-Serif" font-size="10.00">+ OpenGLTexture2D(uint32_t width, uint32_t height)</text>
<text text-anchor="start" x="31.5" y="-73.5" font-family="Helvetica,sans-Serif" font-size="10.00">+ OpenGLTexture2D(const std::string &amp;path)</text>
<text text-anchor="start" x="31.5" y="-62.5" font-family="Helvetica,sans-Serif" font-size="10.00">+ ~OpenGLTexture2D() override</text>
<text text-anchor="start" x="31.5" y="-51.5" font-family="Helvetica,sans-Serif" font-size="10.00">+ uint32_t GetWidth() const override</text>
<text text-anchor="start" x="31.5" y="-40.5" font-family="Helvetica,sans-Serif" font-size="10.00">+ uint32_t GetHeight() const override</text>
<text text-anchor="start" x="31.5" y="-29.5" font-family="Helvetica,sans-Serif" font-size="10.00">+ void SetData(void *data, uint32_t size) override</text>
<text text-anchor="start" x="31.5" y="-18.5" font-family="Helvetica,sans-Serif" font-size="10.00">+ void Bind(uint32_t slot=0) const override</text>
<text text-anchor="start" x="31.5" y="-7.5" font-family="Helvetica,sans-Serif" font-size="10.00">+ bool operator==(const Texture &amp;other) const override</text>
</a>
</g>
</g>
<!-- Node1&#45;&gt;Node3 -->
<g id="edge2" class="edge">
<title>Node1&#45;&gt;Node3</title>
<path fill="none" stroke="midnightblue" d="M169,-216.25C169,-207.9 169,-198.85 169,-189.6"/>
<polygon fill="none" stroke="midnightblue" points="165.5,-216.41 169,-226.41 172.5,-216.41 165.5,-216.41"/>
</g>
<!-- Node2 -->
<g id="node2" class="node">
<title>Node2</title>
<g id="a_node2"><a xlink:href="classgauri_1_1Texture.html" target="_top" xlink:title=" ">
<polygon fill="white" stroke="black" points="19.5,-331.5 19.5,-443.5 318.5,-443.5 318.5,-331.5 19.5,-331.5"/>
<text text-anchor="middle" x="169" y="-431.5" font-family="Helvetica,sans-Serif" font-size="10.00">gauri::Texture</text>
<polyline fill="none" stroke="black" points="19.5,-424.5 318.5,-424.5 "/>
<text text-anchor="middle" x="169" y="-412.5" font-family="Helvetica,sans-Serif" font-size="10.00"> </text>
<polyline fill="none" stroke="black" points="19.5,-405.5 318.5,-405.5 "/>
<text text-anchor="start" x="27.5" y="-393.5" font-family="Helvetica,sans-Serif" font-size="10.00">+ virtual ~Texture()=default</text>
<text text-anchor="start" x="27.5" y="-382.5" font-family="Helvetica,sans-Serif" font-size="10.00">+ virtual uint32_t GetWidth() const =0</text>
<text text-anchor="start" x="27.5" y="-371.5" font-family="Helvetica,sans-Serif" font-size="10.00">+ virtual uint32_t GetHeight() const =0</text>
<text text-anchor="start" x="27.5" y="-360.5" font-family="Helvetica,sans-Serif" font-size="10.00">+ virtual void SetData(void *data, uint32_t size)=0</text>
<text text-anchor="start" x="27.5" y="-349.5" font-family="Helvetica,sans-Serif" font-size="10.00">+ virtual void Bind(uint32_t slot=0) const =0</text>
<text text-anchor="start" x="27.5" y="-338.5" font-family="Helvetica,sans-Serif" font-size="10.00">+ virtual bool operator==(const Texture &amp;other) const =0</text>
</a>
</g>
</g>
<!-- Node2&#45;&gt;Node1 -->
<g id="edge1" class="edge">
<title>Node2&#45;&gt;Node1</title>
<path fill="none" stroke="midnightblue" d="M169,-321.26C169,-311.99 169,-302.8 169,-294.51"/>
<polygon fill="none" stroke="midnightblue" points="165.5,-321.31 169,-331.31 172.5,-321.31 165.5,-321.31"/>
</g>
</g>
</svg>
