<?xml version="1.0" encoding="UTF-8" standalone="no"?>
<!DOCTYPE svg PUBLIC "-//W3C//DTD SVG 1.1//EN"
 "http://www.w3.org/Graphics/SVG/1.1/DTD/svg11.dtd">
<!-- Generated by graphviz version 2.43.0 (0)
 -->
<!-- Title: gauri::OpenGLTexture2D Pages: 1 -->
<!--zoomable 365 -->
<svg id="main" version="1.1" xmlns="http://www.w3.org/2000/svg" xmlns:xlink="http://www.w3.org/1999/xlink" xml:space="preserve" onload="init(evt)">
<style type="text/css"><![CDATA[
.edge:hover path { stroke: red; }
.edge:hover polygon { stroke: red; fill: red; }
]]></style>
<script type="text/javascript"><![CDATA[
var edges = document.getElementsByTagName('g');
if (edges && edges.length) {
  for (var i=0;i<edges.length;i++) {
    if (edges[i].id.substr(0,4)=='edge') {
      edges[i].setAttribute('class','edge');
    }
  }
}
]]></script>
        <defs>
                <circle id="rim" cx="0" cy="0" r="7"/>
                <circle id="rim2" cx="0" cy="0" r="3.5"/>
                <g id="zoomPlus">
                        <use xlink:href="#rim" fill="#404040">
                                <set attributeName="fill" to="#808080" begin="zoomplus.mouseover" end="zoomplus.mouseout"/>
                        </use>
                        <path d="M-4,0h8M0,-4v8" fill="none" stroke="white" stroke-width="1.5" pointer-events="none"/>
                </g>
                <g id="zoomMin">
                        <use xlink:href="#rim" fill="#404040">
                                <set attributeName="fill" to="#808080" begin="zoomminus.mouseover" end="zoomminus.mouseout"/>
                        </use>
                        <path d="M-4,0h8" fill="none" stroke="white" stroke-width="1.5" pointer-events="none"/>
                </g>
                <g id="dirArrow">
                        <path fill="none" stroke="white" stroke-width="1.5" d="M0,-3.0v7 M-2.5,-0.5L0,-3.0L2.5,-0.5"/>
                </g>
               <g id="resetDef">
                       <use xlink:href="#rim2" fill="#404040">
                               <set attributeName="fill" to="#808080" begin="reset.mouseover" end="reset.mouseout"/>
                       </use>
               </g>
        </defs>

<script type="text/javascript">
var viewWidth = 521;
var viewHeight = 365;
var sectionId = 'dynsection-1';
</script>
<script xlink:href="svgpan.js"/>
<svg id="graph" class="graph">
<g id="viewport">
<title>gauri::OpenGLTexture2D</title>
<polygon fill="white" stroke="transparent" points="-4,4 -4,-361 517,-361 517,4 -4,4"/>
<!-- Node1 -->
<g id="node1" class="node">
<title>Node1</title>
<g id="a_node1"><a xlink:title=" ">
<polygon fill="#bfbfbf" stroke="black" points="229,-0.5 229,-101.5 462,-101.5 462,-0.5 229,-0.5"/>
<text text-anchor="middle" x="345.5" y="-89.5" font-family="Helvetica,sans-Serif" font-size="10.00">gauri::OpenGLTexture2D</text>
<polyline fill="none" stroke="black" points="229,-82.5 462,-82.5 "/>
<text text-anchor="middle" x="345.5" y="-70.5" font-family="Helvetica,sans-Serif" font-size="10.00"> </text>
<polyline fill="none" stroke="black" points="229,-63.5 462,-63.5 "/>
<text text-anchor="start" x="237" y="-51.5" font-family="Helvetica,sans-Serif" font-size="10.00">+ OpenGLTexture2D(const std::string &amp;path)</text>
<text text-anchor="start" x="237" y="-40.5" font-family="Helvetica,sans-Serif" font-size="10.00">+ ~OpenGLTexture2D() override</text>
<text text-anchor="start" x="237" y="-29.5" font-family="Helvetica,sans-Serif" font-size="10.00">+ uint32_t GetWidth() const override</text>
<text text-anchor="start" x="237" y="-18.5" font-family="Helvetica,sans-Serif" font-size="10.00">+ uint32_t GetHeight() const override</text>
<text text-anchor="start" x="237" y="-7.5" font-family="Helvetica,sans-Serif" font-size="10.00">+ void Bind(uint32_t slot=0) const override</text>
</a>
</g>
</g>
<!-- Node2 -->
<g id="node2" class="node">
<title>Node2</title>
<g id="a_node2"><a xlink:href="classgauri_1_1Texture2D.html" target="_top" xlink:title=" ">
<polygon fill="white" stroke="black" points="0,-171.5 0,-228.5 299,-228.5 299,-171.5 0,-171.5"/>
<text text-anchor="middle" x="149.5" y="-216.5" font-family="Helvetica,sans-Serif" font-size="10.00">gauri::Texture2D</text>
<polyline fill="none" stroke="black" points="0,-209.5 299,-209.5 "/>
<text text-anchor="middle" x="149.5" y="-197.5" font-family="Helvetica,sans-Serif" font-size="10.00"> </text>
<polyline fill="none" stroke="black" points="0,-190.5 299,-190.5 "/>
<text text-anchor="start" x="8" y="-178.5" font-family="Helvetica,sans-Serif" font-size="10.00">+ static Ref&lt; Texture2D &gt; Create(const std::string &amp;path)</text>
</a>
</g>
</g>
<!-- Node2&#45;&gt;Node1 -->
<g id="edge1" class="edge">
<title>Node2&#45;&gt;Node1</title>
<path fill="none" stroke="midnightblue" d="M194.62,-165.16C219.77,-146.3 251.54,-122.47 279.44,-101.54"/>
<polygon fill="none" stroke="midnightblue" points="192.27,-162.55 186.37,-171.35 196.47,-168.15 192.27,-162.55"/>
</g>
<!-- Node3 -->
<g id="node3" class="node">
<title>Node3</title>
<g id="a_node3"><a xlink:href="classgauri_1_1Texture.html" target="_top" xlink:title=" ">
<polygon fill="white" stroke="black" points="31,-266.5 31,-356.5 268,-356.5 268,-266.5 31,-266.5"/>
<text text-anchor="middle" x="149.5" y="-344.5" font-family="Helvetica,sans-Serif" font-size="10.00">gauri::Texture</text>
<polyline fill="none" stroke="black" points="31,-337.5 268,-337.5 "/>
<text text-anchor="middle" x="149.5" y="-325.5" font-family="Helvetica,sans-Serif" font-size="10.00"> </text>
<polyline fill="none" stroke="black" points="31,-318.5 268,-318.5 "/>
<text text-anchor="start" x="39" y="-306.5" font-family="Helvetica,sans-Serif" font-size="10.00">+ virtual ~Texture()=default</text>
<text text-anchor="start" x="39" y="-295.5" font-family="Helvetica,sans-Serif" font-size="10.00">+ virtual uint32_t GetWidth() const =0</text>
<text text-anchor="start" x="39" y="-284.5" font-family="Helvetica,sans-Serif" font-size="10.00">+ virtual uint32_t GetHeight() const =0</text>
<text text-anchor="start" x="39" y="-273.5" font-family="Helvetica,sans-Serif" font-size="10.00">+ virtual void Bind(uint32_t slot=0) const =0</text>
</a>
</g>
</g>
<!-- Node3&#45;&gt;Node2 -->
<g id="edge2" class="edge">
<title>Node3&#45;&gt;Node2</title>
<path fill="none" stroke="midnightblue" d="M149.5,-256.04C149.5,-246.56 149.5,-237.06 149.5,-228.69"/>
<polygon fill="none" stroke="midnightblue" points="146,-256.28 149.5,-266.28 153,-256.28 146,-256.28"/>
</g>
<!-- Node4 -->
<g id="node4" class="node">
<title>Node4</title>
<g id="a_node4"><a xlink:title=" ">
<polygon fill="white" stroke="#bfbfbf" points="317.5,-171.5 317.5,-228.5 373.5,-228.5 373.5,-171.5 317.5,-171.5"/>
<text text-anchor="middle" x="345.5" y="-216.5" font-family="Helvetica,sans-Serif" font-size="10.00">uint32_t</text>
<polyline fill="none" stroke="#bfbfbf" points="317.5,-209.5 373.5,-209.5 "/>
<text text-anchor="middle" x="345.5" y="-197.5" font-family="Helvetica,sans-Serif" font-size="10.00"> </text>
<polyline fill="none" stroke="#bfbfbf" points="317.5,-190.5 373.5,-190.5 "/>
<text text-anchor="middle" x="345.5" y="-178.5" font-family="Helvetica,sans-Serif" font-size="10.00"> </text>
</a>
</g>
</g>
<!-- Node4&#45;&gt;Node1 -->
<g id="edge3" class="edge">
<title>Node4&#45;&gt;Node1</title>
<path fill="none" stroke="#404040" d="M345.5,-171.35C345.5,-155.1 345.5,-133.86 345.5,-113.82"/>
<polygon fill="none" stroke="#404040" points="345.5,-113.54 341.5,-107.54 345.5,-101.54 349.5,-107.54 345.5,-113.54"/>
<text text-anchor="middle" x="382.5" y="-145" font-family="Helvetica,sans-Serif" font-size="10.00"> &#45;m_Height</text>
<text text-anchor="middle" x="382.5" y="-134" font-family="Helvetica,sans-Serif" font-size="10.00">&#45;m_RendererID</text>
<text text-anchor="middle" x="382.5" y="-123" font-family="Helvetica,sans-Serif" font-size="10.00">&#45;m_Width</text>
</g>
<!-- Node5 -->
<g id="node5" class="node">
<title>Node5</title>
<g id="a_node5"><a xlink:title=" ">
<polygon fill="white" stroke="#bfbfbf" points="410,-171.5 410,-228.5 475,-228.5 475,-171.5 410,-171.5"/>
<text text-anchor="middle" x="442.5" y="-216.5" font-family="Helvetica,sans-Serif" font-size="10.00">std::string</text>
<polyline fill="none" stroke="#bfbfbf" points="410,-209.5 475,-209.5 "/>
<text text-anchor="middle" x="442.5" y="-197.5" font-family="Helvetica,sans-Serif" font-size="10.00"> </text>
<polyline fill="none" stroke="#bfbfbf" points="410,-190.5 475,-190.5 "/>
<text text-anchor="middle" x="442.5" y="-178.5" font-family="Helvetica,sans-Serif" font-size="10.00"> </text>
</a>
</g>
</g>
<!-- Node5&#45;&gt;Node1 -->
<g id="edge4" class="edge">
<title>Node5&#45;&gt;Node1</title>
<path fill="none" stroke="#404040" d="M438.68,-171.13C435.57,-155.26 430.07,-135.51 420.5,-120 418.58,-116.88 416.47,-113.83 414.22,-110.84"/>
<polygon fill="none" stroke="#404040" points="414.21,-110.82 407.32,-108.71 406.62,-101.53 413.51,-103.65 414.21,-110.82"/>
<text text-anchor="middle" x="456" y="-134" font-family="Helvetica,sans-Serif" font-size="10.00"> &#45;m_Path</text>
</g>
<!-- Node6 -->
<g id="node6" class="node">
<title>Node6</title>
<g id="a_node6"><a xlink:title=" ">
<polygon fill="white" stroke="#bfbfbf" points="372,-283 372,-340 513,-340 513,-283 372,-283"/>
<text text-anchor="middle" x="442.5" y="-328" font-family="Helvetica,sans-Serif" font-size="10.00">std::basic_string&lt; Char &gt;</text>
<polyline fill="none" stroke="#bfbfbf" points="372,-321 513,-321 "/>
<text text-anchor="middle" x="442.5" y="-309" font-family="Helvetica,sans-Serif" font-size="10.00"> </text>
<polyline fill="none" stroke="#bfbfbf" points="372,-302 513,-302 "/>
<text text-anchor="middle" x="442.5" y="-290" font-family="Helvetica,sans-Serif" font-size="10.00"> </text>
</a>
</g>
</g>
<!-- Node6&#45;&gt;Node5 -->
<g id="edge5" class="edge">
<title>Node6&#45;&gt;Node5</title>
<path fill="none" stroke="midnightblue" d="M442.5,-272.7C442.5,-258.22 442.5,-241.98 442.5,-228.62"/>
<polygon fill="none" stroke="midnightblue" points="439,-272.87 442.5,-282.87 446,-272.87 439,-272.87"/>
</g>
</g>
</svg>
        <g id="navigator" transform="translate(0 0)" fill="#404254">
                <rect fill="#f2f5e9" fill-opacity="0.5" stroke="#606060" stroke-width=".5" x="0" y="0" width="60" height="60"/>
                <use id="zoomplus" xlink:href="#zoomPlus" x="17" y="9" onmousedown="handleZoom(evt,'in')"/>
                <use id="zoomminus" xlink:href="#zoomMin" x="42" y="9" onmousedown="handleZoom(evt,'out')"/>
                <use id="reset" xlink:href="#resetDef" x="30" y="36" onmousedown="handleReset()"/>
                <g id="arrowUp" xlink:href="#dirArrow" transform="translate(30 24)" onmousedown="handlePan(0,-1)">
                  <use xlink:href="#rim" fill="#404040">
                        <set attributeName="fill" to="#808080" begin="arrowUp.mouseover" end="arrowUp.mouseout"/>
                  </use>
                  <path fill="none" stroke="white" stroke-width="1.5" d="M0,-3.0v7 M-2.5,-0.5L0,-3.0L2.5,-0.5"/>
                </g>
                <g id="arrowRight" xlink:href="#dirArrow" transform="rotate(90) translate(36 -43)" onmousedown="handlePan(1,0)">
                  <use xlink:href="#rim" fill="#404040">
                        <set attributeName="fill" to="#808080" begin="arrowRight.mouseover" end="arrowRight.mouseout"/>
                  </use>
                  <path fill="none" stroke="white" stroke-width="1.5" d="M0,-3.0v7 M-2.5,-0.5L0,-3.0L2.5,-0.5"/>
                </g>
                <g id="arrowDown" xlink:href="#dirArrow" transform="rotate(180) translate(-30 -48)" onmousedown="handlePan(0,1)">
                  <use xlink:href="#rim" fill="#404040">
                        <set attributeName="fill" to="#808080" begin="arrowDown.mouseover" end="arrowDown.mouseout"/>
                  </use>
                  <path fill="none" stroke="white" stroke-width="1.5" d="M0,-3.0v7 M-2.5,-0.5L0,-3.0L2.5,-0.5"/>
                </g>
                <g id="arrowLeft" xlink:href="#dirArrow" transform="rotate(270) translate(-36 17)" onmousedown="handlePan(-1,0)">
                  <use xlink:href="#rim" fill="#404040">
                        <set attributeName="fill" to="#808080" begin="arrowLeft.mouseover" end="arrowLeft.mouseout"/>
                  </use>
                  <path fill="none" stroke="white" stroke-width="1.5" d="M0,-3.0v7 M-2.5,-0.5L0,-3.0L2.5,-0.5"/>
                </g>
        </g>
        <svg viewBox="0 0 15 15" width="100%" height="30px" preserveAspectRatio="xMaxYMin meet">
         <g id="arrow_out" transform="scale(0.3 0.3)">
          <a xlink:href="classgauri_1_1OpenGLTexture2D__coll__graph_org.svg" target="_base">
           <rect id="button" ry="5" rx="5" y="6" x="6" height="38" width="38"
                fill="#f2f5e9" fill-opacity="0.5" stroke="#606060" stroke-width="1.0"/>
           <path id="arrow"
             d="M 11.500037,31.436501 C 11.940474,20.09759 22.043105,11.32322 32.158766,21.979434 L 37.068811,17.246167 C 37.068811,17.246167 37.088388,32 37.088388,32 L 22.160133,31.978069 C 22.160133,31.978069 26.997745,27.140456 26.997745,27.140456 C 18.528582,18.264221 13.291696,25.230495 11.500037,31.436501 z"
             style="fill:#404040;"/>
          </a>
         </g>
        </svg>
</svg>
