<?xml version="1.0" encoding="UTF-8" standalone="no"?>
<!DOCTYPE svg PUBLIC "-//W3C//DTD SVG 1.1//EN"
 "http://www.w3.org/Graphics/SVG/1.1/DTD/svg11.dtd">
<!-- Generated by graphviz version 2.43.0 (0)
 -->
<!-- Title: gauri::MouseScrolledEvent::ToString Pages: 1 -->
<svg width="440pt" height="66pt"
 viewBox="0.00 0.00 440.00 66.00" xmlns="http://www.w3.org/2000/svg" xmlns:xlink="http://www.w3.org/1999/xlink">
<g id="graph0" class="graph" transform="scale(1 1) rotate(0) translate(4 62)">
<title>gauri::MouseScrolledEvent::ToString</title>
<polygon fill="white" stroke="transparent" points="-4,4 -4,-62 436,-62 436,4 -4,4"/>
<!-- Node1 -->
<g id="node1" class="node">
<title>Node1</title>
<g id="a_node1"><a xlink:title=" ">
<polygon fill="#bfbfbf" stroke="black" points="0,-19.5 0,-38.5 191,-38.5 191,-19.5 0,-19.5"/>
<text text-anchor="middle" x="95.5" y="-26.5" font-family="Helvetica,sans-Serif" font-size="10.00">gauri::MouseScrolledEvent::ToString</text>
</a>
</g>
</g>
<!-- Node2 -->
<g id="node2" class="node">
<title>Node2</title>
<g id="a_node2"><a xlink:href="classgauri_1_1MouseScrolledEvent.html#aebcdc0536a7eae3a2d796854382d3bd2" target="_top" xlink:title=" ">
<polygon fill="white" stroke="black" points="227,-38.5 227,-57.5 432,-57.5 432,-38.5 227,-38.5"/>
<text text-anchor="middle" x="329.5" y="-45.5" font-family="Helvetica,sans-Serif" font-size="10.00">gauri::MouseScrolledEvent::GetXOffset</text>
</a>
</g>
</g>
<!-- Node1&#45;&gt;Node2 -->
<g id="edge1" class="edge">
<title>Node1&#45;&gt;Node2</title>
<path fill="none" stroke="midnightblue" d="M191.2,-36.76C199.66,-37.45 208.28,-38.15 216.87,-38.86"/>
<polygon fill="midnightblue" stroke="midnightblue" points="216.68,-42.35 226.93,-39.68 217.25,-35.38 216.68,-42.35"/>
</g>
<!-- Node3 -->
<g id="node3" class="node">
<title>Node3</title>
<g id="a_node3"><a xlink:href="classgauri_1_1MouseScrolledEvent.html#ac46e97052b5be60bc355526c137cce21" target="_top" xlink:title=" ">
<polygon fill="white" stroke="black" points="227.5,-0.5 227.5,-19.5 431.5,-19.5 431.5,-0.5 227.5,-0.5"/>
<text text-anchor="middle" x="329.5" y="-7.5" font-family="Helvetica,sans-Serif" font-size="10.00">gauri::MouseScrolledEvent::GetYOffset</text>
</a>
</g>
</g>
<!-- Node1&#45;&gt;Node3 -->
<g id="edge2" class="edge">
<title>Node1&#45;&gt;Node3</title>
<path fill="none" stroke="midnightblue" d="M191.2,-21.24C199.75,-20.54 208.47,-19.83 217.15,-19.12"/>
<polygon fill="midnightblue" stroke="midnightblue" points="217.63,-22.59 227.31,-18.29 217.06,-15.61 217.63,-22.59"/>
</g>
</g>
</svg>
