<?xml version="1.0" encoding="UTF-8" standalone="no"?>
<!DOCTYPE svg PUBLIC "-//W3C//DTD SVG 1.1//EN"
 "http://www.w3.org/Graphics/SVG/1.1/DTD/svg11.dtd">
<!-- Generated by graphviz version 2.43.0 (0)
 -->
<!-- Title: gauri::OpenGLIndexBuffer Pages: 1 -->
<svg width="440pt" height="270pt"
 viewBox="0.00 0.00 440.00 270.00" xmlns="http://www.w3.org/2000/svg" xmlns:xlink="http://www.w3.org/1999/xlink">
<g id="graph0" class="graph" transform="scale(1 1) rotate(0) translate(4 266)">
<title>gauri::OpenGLIndexBuffer</title>
<polygon fill="white" stroke="transparent" points="-4,4 -4,-266 436,-266 436,4 -4,4"/>
<!-- Node1 -->
<g id="node1" class="node">
<title>Node1</title>
<g id="a_node1"><a xlink:title=" ">
<polygon fill="#bfbfbf" stroke="black" points="144,-0.5 144,-101.5 432,-101.5 432,-0.5 144,-0.5"/>
<text text-anchor="middle" x="288" y="-89.5" font-family="Helvetica,sans-Serif" font-size="10.00">gauri::OpenGLIndexBuffer</text>
<polyline fill="none" stroke="black" points="144,-82.5 432,-82.5 "/>
<text text-anchor="middle" x="288" y="-70.5" font-family="Helvetica,sans-Serif" font-size="10.00"> </text>
<polyline fill="none" stroke="black" points="144,-63.5 432,-63.5 "/>
<text text-anchor="start" x="152" y="-51.5" font-family="Helvetica,sans-Serif" font-size="10.00">+ OpenGLIndexBuffer(uint32_t *indices, uint32_t count)</text>
<text text-anchor="start" x="152" y="-40.5" font-family="Helvetica,sans-Serif" font-size="10.00">+ ~OpenGLIndexBuffer() override</text>
<text text-anchor="start" x="152" y="-29.5" font-family="Helvetica,sans-Serif" font-size="10.00">+ void Bind() const override</text>
<text text-anchor="start" x="152" y="-18.5" font-family="Helvetica,sans-Serif" font-size="10.00">+ void Unbind() const override</text>
<text text-anchor="start" x="152" y="-7.5" font-family="Helvetica,sans-Serif" font-size="10.00">+ uint32_t GetCount() const override</text>
</a>
</g>
</g>
<!-- Node2 -->
<g id="node2" class="node">
<title>Node2</title>
<g id="a_node2"><a xlink:href="classgauri_1_1IndexBuffer.html" target="_top" xlink:title=" ">
<polygon fill="white" stroke="black" points="0,-160.5 0,-261.5 354,-261.5 354,-160.5 0,-160.5"/>
<text text-anchor="middle" x="177" y="-249.5" font-family="Helvetica,sans-Serif" font-size="10.00">gauri::IndexBuffer</text>
<polyline fill="none" stroke="black" points="0,-242.5 354,-242.5 "/>
<text text-anchor="middle" x="177" y="-230.5" font-family="Helvetica,sans-Serif" font-size="10.00"> </text>
<polyline fill="none" stroke="black" points="0,-223.5 354,-223.5 "/>
<text text-anchor="start" x="8" y="-211.5" font-family="Helvetica,sans-Serif" font-size="10.00">+ virtual ~IndexBuffer()=default</text>
<text text-anchor="start" x="8" y="-200.5" font-family="Helvetica,sans-Serif" font-size="10.00">+ virtual void Bind() const =0</text>
<text text-anchor="start" x="8" y="-189.5" font-family="Helvetica,sans-Serif" font-size="10.00">+ virtual void Unbind() const =0</text>
<text text-anchor="start" x="8" y="-178.5" font-family="Helvetica,sans-Serif" font-size="10.00">+ virtual uint32_t GetCount() const =0</text>
<text text-anchor="start" x="8" y="-167.5" font-family="Helvetica,sans-Serif" font-size="10.00">+ static Ref&lt; IndexBuffer &gt; Create(uint32_t *indices, uint32_t count)</text>
</a>
</g>
</g>
<!-- Node2&#45;&gt;Node1 -->
<g id="edge1" class="edge">
<title>Node2&#45;&gt;Node1</title>
<path fill="none" stroke="midnightblue" d="M217.79,-151.95C229.38,-135.44 241.9,-117.61 253.12,-101.65"/>
<polygon fill="none" stroke="midnightblue" points="214.7,-150.25 211.82,-160.44 220.43,-154.27 214.7,-150.25"/>
</g>
<!-- Node3 -->
<g id="node3" class="node">
<title>Node3</title>
<g id="a_node3"><a xlink:title=" ">
<polygon fill="white" stroke="#bfbfbf" points="372,-182.5 372,-239.5 428,-239.5 428,-182.5 372,-182.5"/>
<text text-anchor="middle" x="400" y="-227.5" font-family="Helvetica,sans-Serif" font-size="10.00">uint32_t</text>
<polyline fill="none" stroke="#bfbfbf" points="372,-220.5 428,-220.5 "/>
<text text-anchor="middle" x="400" y="-208.5" font-family="Helvetica,sans-Serif" font-size="10.00"> </text>
<polyline fill="none" stroke="#bfbfbf" points="372,-201.5 428,-201.5 "/>
<text text-anchor="middle" x="400" y="-189.5" font-family="Helvetica,sans-Serif" font-size="10.00"> </text>
</a>
</g>
</g>
<!-- Node3&#45;&gt;Node1 -->
<g id="edge2" class="edge">
<title>Node3&#45;&gt;Node1</title>
<path fill="none" stroke="#404040" d="M380.49,-182.48C366.61,-162.9 347.43,-135.84 330.13,-111.44"/>
<polygon fill="none" stroke="#404040" points="330.05,-111.32 323.32,-108.74 323.11,-101.53 329.84,-104.11 330.05,-111.32"/>
<text text-anchor="middle" x="388" y="-134" font-family="Helvetica,sans-Serif" font-size="10.00"> &#45;m_Count</text>
<text text-anchor="middle" x="388" y="-123" font-family="Helvetica,sans-Serif" font-size="10.00">&#45;m_RendererID</text>
</g>
</g>
</svg>
