<?xml version="1.0" encoding="UTF-8" standalone="no"?>
<!DOCTYPE svg PUBLIC "-//W3C//DTD SVG 1.1//EN"
 "http://www.w3.org/Graphics/SVG/1.1/DTD/svg11.dtd">
<!-- Generated by graphviz version 2.43.0 (0)
 -->
<!-- Title: gauri::Entity Pages: 1 -->
<!--zoomable 485 -->
<svg id="main" version="1.1" xmlns="http://www.w3.org/2000/svg" xmlns:xlink="http://www.w3.org/1999/xlink" xml:space="preserve" onload="init(evt)">
<style type="text/css"><![CDATA[
.edge:hover path { stroke: red; }
.edge:hover polygon { stroke: red; fill: red; }
]]></style>
<script type="text/javascript"><![CDATA[
var edges = document.getElementsByTagName('g');
if (edges && edges.length) {
  for (var i=0;i<edges.length;i++) {
    if (edges[i].id.substr(0,4)=='edge') {
      edges[i].setAttribute('class','edge');
    }
  }
}
]]></script>
        <defs>
                <circle id="rim" cx="0" cy="0" r="7"/>
                <circle id="rim2" cx="0" cy="0" r="3.5"/>
                <g id="zoomPlus">
                        <use xlink:href="#rim" fill="#404040">
                                <set attributeName="fill" to="#808080" begin="zoomplus.mouseover" end="zoomplus.mouseout"/>
                        </use>
                        <path d="M-4,0h8M0,-4v8" fill="none" stroke="white" stroke-width="1.5" pointer-events="none"/>
                </g>
                <g id="zoomMin">
                        <use xlink:href="#rim" fill="#404040">
                                <set attributeName="fill" to="#808080" begin="zoomminus.mouseover" end="zoomminus.mouseout"/>
                        </use>
                        <path d="M-4,0h8" fill="none" stroke="white" stroke-width="1.5" pointer-events="none"/>
                </g>
                <g id="dirArrow">
                        <path fill="none" stroke="white" stroke-width="1.5" d="M0,-3.0v7 M-2.5,-0.5L0,-3.0L2.5,-0.5"/>
                </g>
               <g id="resetDef">
                       <use xlink:href="#rim2" fill="#404040">
                               <set attributeName="fill" to="#808080" begin="reset.mouseover" end="reset.mouseout"/>
                       </use>
               </g>
        </defs>

<script type="text/javascript">
var viewWidth = 401;
var viewHeight = 485;
var sectionId = 'dynsection-0';
</script>
<script xlink:href="svgpan.js"/>
<svg id="graph" class="graph">
<g id="viewport">
<title>gauri::Entity</title>
<polygon fill="white" stroke="transparent" points="-4,4 -4,-481 397,-481 397,4 -4,4"/>
<!-- Node1 -->
<g id="node1" class="node">
<title>Node1</title>
<g id="a_node1"><a xlink:title=" ">
<polygon fill="#bfbfbf" stroke="black" points="131,-0.5 131,-178.5 371,-178.5 371,-0.5 131,-0.5"/>
<text text-anchor="middle" x="251" y="-166.5" font-family="Helvetica,sans-Serif" font-size="10.00">gauri::Entity</text>
<polyline fill="none" stroke="black" points="131,-159.5 371,-159.5 "/>
<text text-anchor="middle" x="251" y="-147.5" font-family="Helvetica,sans-Serif" font-size="10.00"> </text>
<polyline fill="none" stroke="black" points="131,-140.5 371,-140.5 "/>
<text text-anchor="start" x="139" y="-128.5" font-family="Helvetica,sans-Serif" font-size="10.00">+ Entity()=default</text>
<text text-anchor="start" x="139" y="-117.5" font-family="Helvetica,sans-Serif" font-size="10.00">+ Entity(entt::entity handle, Scene *scene)</text>
<text text-anchor="start" x="139" y="-106.5" font-family="Helvetica,sans-Serif" font-size="10.00">+ Entity(const Entity &amp;other)=default</text>
<text text-anchor="start" x="139" y="-95.5" font-family="Helvetica,sans-Serif" font-size="10.00">+ T &amp; AddComponent(Args &amp;&amp;...args)</text>
<text text-anchor="start" x="139" y="-84.5" font-family="Helvetica,sans-Serif" font-size="10.00">+ T &amp; GetComponent()</text>
<text text-anchor="start" x="139" y="-73.5" font-family="Helvetica,sans-Serif" font-size="10.00">+ bool HasComponent()</text>
<text text-anchor="start" x="139" y="-62.5" font-family="Helvetica,sans-Serif" font-size="10.00">+ void RemoveComponent()</text>
<text text-anchor="start" x="139" y="-51.5" font-family="Helvetica,sans-Serif" font-size="10.00">+ operator bool() const</text>
<text text-anchor="start" x="139" y="-40.5" font-family="Helvetica,sans-Serif" font-size="10.00">+ operator uint32_t() const</text>
<text text-anchor="start" x="139" y="-29.5" font-family="Helvetica,sans-Serif" font-size="10.00">+ operator entt::entity() const</text>
<text text-anchor="start" x="139" y="-18.5" font-family="Helvetica,sans-Serif" font-size="10.00">+ bool operator==(const Entity &amp;other) const</text>
<text text-anchor="start" x="139" y="-7.5" font-family="Helvetica,sans-Serif" font-size="10.00">+ bool operator!=(const Entity &amp;other) const</text>
</a>
</g>
</g>
<!-- Node2 -->
<g id="node2" class="node">
<title>Node2</title>
<g id="a_node2"><a xlink:href="classgauri_1_1Scene.html" target="_top" xlink:title=" ">
<polygon fill="white" stroke="black" points="0,-226.5 0,-360.5 308,-360.5 308,-226.5 0,-226.5"/>
<text text-anchor="middle" x="154" y="-348.5" font-family="Helvetica,sans-Serif" font-size="10.00">gauri::Scene</text>
<polyline fill="none" stroke="black" points="0,-341.5 308,-341.5 "/>
<text text-anchor="middle" x="154" y="-329.5" font-family="Helvetica,sans-Serif" font-size="10.00"> </text>
<polyline fill="none" stroke="black" points="0,-322.5 308,-322.5 "/>
<text text-anchor="start" x="8" y="-310.5" font-family="Helvetica,sans-Serif" font-size="10.00">+ Scene()</text>
<text text-anchor="start" x="8" y="-299.5" font-family="Helvetica,sans-Serif" font-size="10.00">+ ~Scene()</text>
<text text-anchor="start" x="8" y="-288.5" font-family="Helvetica,sans-Serif" font-size="10.00">+ Entity CreateEntity(const std::string &amp;name=std::string())</text>
<text text-anchor="start" x="8" y="-277.5" font-family="Helvetica,sans-Serif" font-size="10.00">+ void DestroyEntity(Entity entity)</text>
<text text-anchor="start" x="8" y="-266.5" font-family="Helvetica,sans-Serif" font-size="10.00">+ void OnUpdate(Timestep ts)</text>
<text text-anchor="start" x="8" y="-255.5" font-family="Helvetica,sans-Serif" font-size="10.00">+ void OnViewportResize(uint32_t width, uint32_t height)</text>
<text text-anchor="start" x="8" y="-244.5" font-family="Helvetica,sans-Serif" font-size="10.00">+ Entity GetPrimaryCameraEntity()</text>
<text text-anchor="start" x="8" y="-233.5" font-family="Helvetica,sans-Serif" font-size="10.00">&#45; void OnComponentAdded(Entity entity, T &amp;component)</text>
</a>
</g>
</g>
<!-- Node2&#45;&gt;Node1 -->
<g id="edge1" class="edge">
<title>Node2&#45;&gt;Node1</title>
<path fill="none" stroke="#404040" d="M185.76,-226.36C191.4,-214.61 197.39,-202.15 203.36,-189.72"/>
<polygon fill="none" stroke="#404040" points="203.39,-189.64 202.38,-182.5 208.59,-178.82 209.6,-185.96 203.39,-189.64"/>
<text text-anchor="middle" x="226" y="-200" font-family="Helvetica,sans-Serif" font-size="10.00"> &#45;m_Scene</text>
</g>
<!-- Node3 -->
<g id="node3" class="node">
<title>Node3</title>
<g id="a_node3"><a xlink:title=" ">
<polygon fill="white" stroke="#bfbfbf" points="84,-419.5 84,-476.5 138,-476.5 138,-419.5 84,-419.5"/>
<text text-anchor="middle" x="111" y="-464.5" font-family="Helvetica,sans-Serif" font-size="10.00">registry</text>
<polyline fill="none" stroke="#bfbfbf" points="84,-457.5 138,-457.5 "/>
<text text-anchor="middle" x="111" y="-445.5" font-family="Helvetica,sans-Serif" font-size="10.00"> </text>
<polyline fill="none" stroke="#bfbfbf" points="84,-438.5 138,-438.5 "/>
<text text-anchor="middle" x="111" y="-426.5" font-family="Helvetica,sans-Serif" font-size="10.00"> </text>
</a>
</g>
</g>
<!-- Node3&#45;&gt;Node2 -->
<g id="edge2" class="edge">
<title>Node3&#45;&gt;Node2</title>
<path fill="none" stroke="#404040" d="M108.64,-419.19C108.29,-406.73 108.85,-391.97 112,-379 112.55,-376.73 113.17,-374.45 113.85,-372.17"/>
<polygon fill="none" stroke="#404040" points="113.85,-372.17 111.98,-365.21 117.69,-360.81 119.56,-367.77 113.85,-372.17"/>
<text text-anchor="middle" x="143.5" y="-387.5" font-family="Helvetica,sans-Serif" font-size="10.00"> &#45;m_Registry</text>
</g>
<!-- Node4 -->
<g id="node4" class="node">
<title>Node4</title>
<g id="a_node4"><a xlink:title=" ">
<polygon fill="white" stroke="#bfbfbf" points="169,-419.5 169,-476.5 225,-476.5 225,-419.5 169,-419.5"/>
<text text-anchor="middle" x="197" y="-464.5" font-family="Helvetica,sans-Serif" font-size="10.00">uint32_t</text>
<polyline fill="none" stroke="#bfbfbf" points="169,-457.5 225,-457.5 "/>
<text text-anchor="middle" x="197" y="-445.5" font-family="Helvetica,sans-Serif" font-size="10.00"> </text>
<polyline fill="none" stroke="#bfbfbf" points="169,-438.5 225,-438.5 "/>
<text text-anchor="middle" x="197" y="-426.5" font-family="Helvetica,sans-Serif" font-size="10.00"> </text>
</a>
</g>
</g>
<!-- Node4&#45;&gt;Node2 -->
<g id="edge3" class="edge">
<title>Node4&#45;&gt;Node2</title>
<path fill="none" stroke="#404040" d="M189.21,-419.38C185.44,-405.99 180.69,-389.17 175.92,-372.25"/>
<polygon fill="none" stroke="#404040" points="175.88,-372.11 170.4,-367.42 172.63,-360.56 178.1,-365.25 175.88,-372.11"/>
<text text-anchor="middle" x="233" y="-393" font-family="Helvetica,sans-Serif" font-size="10.00"> &#45;m_ViewportHeight</text>
<text text-anchor="middle" x="233" y="-382" font-family="Helvetica,sans-Serif" font-size="10.00">&#45;m_ViewportWidth</text>
</g>
<!-- Node5 -->
<g id="node5" class="node">
<title>Node5</title>
<g id="a_node5"><a xlink:title=" ">
<polygon fill="white" stroke="#bfbfbf" points="326.5,-265 326.5,-322 371.5,-322 371.5,-265 326.5,-265"/>
<text text-anchor="middle" x="349" y="-310" font-family="Helvetica,sans-Serif" font-size="10.00">entity</text>
<polyline fill="none" stroke="#bfbfbf" points="326.5,-303 371.5,-303 "/>
<text text-anchor="middle" x="349" y="-291" font-family="Helvetica,sans-Serif" font-size="10.00"> </text>
<polyline fill="none" stroke="#bfbfbf" points="326.5,-284 371.5,-284 "/>
<text text-anchor="middle" x="349" y="-272" font-family="Helvetica,sans-Serif" font-size="10.00"> </text>
</a>
</g>
</g>
<!-- Node5&#45;&gt;Node1 -->
<g id="edge4" class="edge">
<title>Node5&#45;&gt;Node1</title>
<path fill="none" stroke="#404040" d="M335.8,-264.98C330.04,-253 323.2,-238.8 317,-226 311.33,-214.28 305.36,-202 299.44,-189.81"/>
<polygon fill="none" stroke="#404040" points="299.27,-189.46 293.05,-185.81 294.02,-178.66 300.24,-182.31 299.27,-189.46"/>
<text text-anchor="middle" x="350.5" y="-200" font-family="Helvetica,sans-Serif" font-size="10.00"> &#45;m_EntityHandle</text>
</g>
</g>
</svg>
        <g id="navigator" transform="translate(0 0)" fill="#404254">
                <rect fill="#f2f5e9" fill-opacity="0.5" stroke="#606060" stroke-width=".5" x="0" y="0" width="60" height="60"/>
                <use id="zoomplus" xlink:href="#zoomPlus" x="17" y="9" onmousedown="handleZoom(evt,'in')"/>
                <use id="zoomminus" xlink:href="#zoomMin" x="42" y="9" onmousedown="handleZoom(evt,'out')"/>
                <use id="reset" xlink:href="#resetDef" x="30" y="36" onmousedown="handleReset()"/>
                <g id="arrowUp" xlink:href="#dirArrow" transform="translate(30 24)" onmousedown="handlePan(0,-1)">
                  <use xlink:href="#rim" fill="#404040">
                        <set attributeName="fill" to="#808080" begin="arrowUp.mouseover" end="arrowUp.mouseout"/>
                  </use>
                  <path fill="none" stroke="white" stroke-width="1.5" d="M0,-3.0v7 M-2.5,-0.5L0,-3.0L2.5,-0.5"/>
                </g>
                <g id="arrowRight" xlink:href="#dirArrow" transform="rotate(90) translate(36 -43)" onmousedown="handlePan(1,0)">
                  <use xlink:href="#rim" fill="#404040">
                        <set attributeName="fill" to="#808080" begin="arrowRight.mouseover" end="arrowRight.mouseout"/>
                  </use>
                  <path fill="none" stroke="white" stroke-width="1.5" d="M0,-3.0v7 M-2.5,-0.5L0,-3.0L2.5,-0.5"/>
                </g>
                <g id="arrowDown" xlink:href="#dirArrow" transform="rotate(180) translate(-30 -48)" onmousedown="handlePan(0,1)">
                  <use xlink:href="#rim" fill="#404040">
                        <set attributeName="fill" to="#808080" begin="arrowDown.mouseover" end="arrowDown.mouseout"/>
                  </use>
                  <path fill="none" stroke="white" stroke-width="1.5" d="M0,-3.0v7 M-2.5,-0.5L0,-3.0L2.5,-0.5"/>
                </g>
                <g id="arrowLeft" xlink:href="#dirArrow" transform="rotate(270) translate(-36 17)" onmousedown="handlePan(-1,0)">
                  <use xlink:href="#rim" fill="#404040">
                        <set attributeName="fill" to="#808080" begin="arrowLeft.mouseover" end="arrowLeft.mouseout"/>
                  </use>
                  <path fill="none" stroke="white" stroke-width="1.5" d="M0,-3.0v7 M-2.5,-0.5L0,-3.0L2.5,-0.5"/>
                </g>
        </g>
        <svg viewBox="0 0 15 15" width="100%" height="30px" preserveAspectRatio="xMaxYMin meet">
         <g id="arrow_out" transform="scale(0.3 0.3)">
          <a xlink:href="classgauri_1_1Entity__coll__graph_org.svg" target="_base">
           <rect id="button" ry="5" rx="5" y="6" x="6" height="38" width="38"
                fill="#f2f5e9" fill-opacity="0.5" stroke="#606060" stroke-width="1.0"/>
           <path id="arrow"
             d="M 11.500037,31.436501 C 11.940474,20.09759 22.043105,11.32322 32.158766,21.979434 L 37.068811,17.246167 C 37.068811,17.246167 37.088388,32 37.088388,32 L 22.160133,31.978069 C 22.160133,31.978069 26.997745,27.140456 26.997745,27.140456 C 18.528582,18.264221 13.291696,25.230495 11.500037,31.436501 z"
             style="fill:#404040;"/>
          </a>
         </g>
        </svg>
</svg>
