<?xml version="1.0" encoding="UTF-8" standalone="no"?>
<!DOCTYPE svg PUBLIC "-//W3C//DTD SVG 1.1//EN"
 "http://www.w3.org/Graphics/SVG/1.1/DTD/svg11.dtd">
<!-- Generated by graphviz version 2.43.0 (0)
 -->
<!-- Title: gauri::WindowResizeEvent Pages: 1 -->
<svg width="354pt" height="375pt"
 viewBox="0.00 0.00 353.50 375.00" xmlns="http://www.w3.org/2000/svg" xmlns:xlink="http://www.w3.org/1999/xlink">
<g id="graph0" class="graph" transform="scale(1 1) rotate(0) translate(4 371)">
<title>gauri::WindowResizeEvent</title>
<polygon fill="white" stroke="transparent" points="-4,4 -4,-371 349.5,-371 349.5,4 -4,4"/>
<!-- Node1 -->
<g id="node1" class="node">
<title>Node1</title>
<g id="a_node1"><a xlink:title=" ">
<polygon fill="#bfbfbf" stroke="black" points="61.5,-0.5 61.5,-90.5 345.5,-90.5 345.5,-0.5 61.5,-0.5"/>
<text text-anchor="middle" x="203.5" y="-78.5" font-family="Helvetica,sans-Serif" font-size="10.00">gauri::WindowResizeEvent</text>
<polyline fill="none" stroke="black" points="61.5,-71.5 345.5,-71.5 "/>
<text text-anchor="middle" x="203.5" y="-59.5" font-family="Helvetica,sans-Serif" font-size="10.00"> </text>
<polyline fill="none" stroke="black" points="61.5,-52.5 345.5,-52.5 "/>
<text text-anchor="start" x="69.5" y="-40.5" font-family="Helvetica,sans-Serif" font-size="10.00">+ WindowResizeEvent(uint32_t width, uint32_t height)</text>
<text text-anchor="start" x="69.5" y="-29.5" font-family="Helvetica,sans-Serif" font-size="10.00">+ uint32_t GetWidth() const</text>
<text text-anchor="start" x="69.5" y="-18.5" font-family="Helvetica,sans-Serif" font-size="10.00">+ uint32_t GetHeight() const</text>
<text text-anchor="start" x="69.5" y="-7.5" font-family="Helvetica,sans-Serif" font-size="10.00">+ std::string ToString() const override</text>
</a>
</g>
</g>
<!-- Node2 -->
<g id="node2" class="node">
<title>Node2</title>
<g id="a_node2"><a xlink:href="classgauri_1_1Event.html" target="_top" xlink:title=" ">
<polygon fill="white" stroke="black" points="0,-149.5 0,-261.5 241,-261.5 241,-149.5 0,-149.5"/>
<text text-anchor="middle" x="120.5" y="-249.5" font-family="Helvetica,sans-Serif" font-size="10.00">gauri::Event</text>
<polyline fill="none" stroke="black" points="0,-242.5 241,-242.5 "/>
<text text-anchor="middle" x="120.5" y="-230.5" font-family="Helvetica,sans-Serif" font-size="10.00"> </text>
<polyline fill="none" stroke="black" points="0,-223.5 241,-223.5 "/>
<text text-anchor="start" x="8" y="-211.5" font-family="Helvetica,sans-Serif" font-size="10.00">+ virtual EventType GetEventType() const =0</text>
<text text-anchor="start" x="8" y="-200.5" font-family="Helvetica,sans-Serif" font-size="10.00">+ virtual const char * GetName() const =0</text>
<text text-anchor="start" x="8" y="-189.5" font-family="Helvetica,sans-Serif" font-size="10.00">+ virtual int32_t GetCategoryFlags() const =0</text>
<text text-anchor="start" x="8" y="-178.5" font-family="Helvetica,sans-Serif" font-size="10.00">+ virtual std::string ToString() const</text>
<text text-anchor="start" x="8" y="-167.5" font-family="Helvetica,sans-Serif" font-size="10.00">+ bool IsInCategory(EventCategory category)</text>
<text text-anchor="start" x="8" y="-156.5" font-family="Helvetica,sans-Serif" font-size="10.00">+ bool IsHandled() const</text>
</a>
</g>
</g>
<!-- Node2&#45;&gt;Node1 -->
<g id="edge1" class="edge">
<title>Node2&#45;&gt;Node1</title>
<path fill="none" stroke="midnightblue" d="M154.33,-140.1C163.08,-123.44 172.3,-105.89 180.37,-90.54"/>
<polygon fill="none" stroke="midnightblue" points="151.08,-138.76 149.53,-149.24 157.28,-142.01 151.08,-138.76"/>
</g>
<!-- Node3 -->
<g id="node3" class="node">
<title>Node3</title>
<g id="a_node3"><a xlink:title=" ">
<polygon fill="white" stroke="#bfbfbf" points="101.5,-309.5 101.5,-366.5 139.5,-366.5 139.5,-309.5 101.5,-309.5"/>
<text text-anchor="middle" x="120.5" y="-354.5" font-family="Helvetica,sans-Serif" font-size="10.00">bool</text>
<polyline fill="none" stroke="#bfbfbf" points="101.5,-347.5 139.5,-347.5 "/>
<text text-anchor="middle" x="120.5" y="-335.5" font-family="Helvetica,sans-Serif" font-size="10.00"> </text>
<polyline fill="none" stroke="#bfbfbf" points="101.5,-328.5 139.5,-328.5 "/>
<text text-anchor="middle" x="120.5" y="-316.5" font-family="Helvetica,sans-Serif" font-size="10.00"> </text>
</a>
</g>
</g>
<!-- Node3&#45;&gt;Node2 -->
<g id="edge2" class="edge">
<title>Node3&#45;&gt;Node2</title>
<path fill="none" stroke="#404040" d="M120.5,-309.32C120.5,-298.78 120.5,-286.25 120.5,-273.62"/>
<polygon fill="none" stroke="#404040" points="120.5,-273.55 116.5,-267.55 120.5,-261.55 124.5,-267.55 120.5,-273.55"/>
<text text-anchor="middle" x="154" y="-283" font-family="Helvetica,sans-Serif" font-size="10.00"> #m_Handled</text>
</g>
<!-- Node4 -->
<g id="node4" class="node">
<title>Node4</title>
<g id="a_node4"><a xlink:title=" ">
<polygon fill="white" stroke="#bfbfbf" points="259.5,-177 259.5,-234 315.5,-234 315.5,-177 259.5,-177"/>
<text text-anchor="middle" x="287.5" y="-222" font-family="Helvetica,sans-Serif" font-size="10.00">uint32_t</text>
<polyline fill="none" stroke="#bfbfbf" points="259.5,-215 315.5,-215 "/>
<text text-anchor="middle" x="287.5" y="-203" font-family="Helvetica,sans-Serif" font-size="10.00"> </text>
<polyline fill="none" stroke="#bfbfbf" points="259.5,-196 315.5,-196 "/>
<text text-anchor="middle" x="287.5" y="-184" font-family="Helvetica,sans-Serif" font-size="10.00"> </text>
</a>
</g>
</g>
<!-- Node4&#45;&gt;Node1 -->
<g id="edge3" class="edge">
<title>Node4&#45;&gt;Node1</title>
<path fill="none" stroke="#404040" d="M272.87,-176.98C261.8,-156.17 246.25,-126.92 232.68,-101.38"/>
<polygon fill="none" stroke="#404040" points="232.63,-101.3 226.28,-97.88 227,-90.7 233.35,-94.12 232.63,-101.3"/>
<text text-anchor="middle" x="276" y="-123" font-family="Helvetica,sans-Serif" font-size="10.00"> &#45;m_Height</text>
<text text-anchor="middle" x="276" y="-112" font-family="Helvetica,sans-Serif" font-size="10.00">&#45;m_Width</text>
</g>
</g>
</svg>
