<?xml version="1.0" encoding="UTF-8" standalone="no"?>
<!DOCTYPE svg PUBLIC "-//W3C//DTD SVG 1.1//EN"
 "http://www.w3.org/Graphics/SVG/1.1/DTD/svg11.dtd">
<!-- Generated by graphviz version 2.43.0 (0)
 -->
<!-- Title: gauri::OpenGLShader Pages: 1 -->
<!--zoomable 496 -->
<svg id="main" version="1.1" xmlns="http://www.w3.org/2000/svg" xmlns:xlink="http://www.w3.org/1999/xlink" xml:space="preserve" onload="init(evt)">
<style type="text/css"><![CDATA[
.edge:hover path { stroke: red; }
.edge:hover polygon { stroke: red; fill: red; }
]]></style>
<script type="text/javascript"><![CDATA[
var edges = document.getElementsByTagName('g');
if (edges && edges.length) {
  for (var i=0;i<edges.length;i++) {
    if (edges[i].id.substr(0,4)=='edge') {
      edges[i].setAttribute('class','edge');
    }
  }
}
]]></script>
        <defs>
                <circle id="rim" cx="0" cy="0" r="7"/>
                <circle id="rim2" cx="0" cy="0" r="3.5"/>
                <g id="zoomPlus">
                        <use xlink:href="#rim" fill="#404040">
                                <set attributeName="fill" to="#808080" begin="zoomplus.mouseover" end="zoomplus.mouseout"/>
                        </use>
                        <path d="M-4,0h8M0,-4v8" fill="none" stroke="white" stroke-width="1.5" pointer-events="none"/>
                </g>
                <g id="zoomMin">
                        <use xlink:href="#rim" fill="#404040">
                                <set attributeName="fill" to="#808080" begin="zoomminus.mouseover" end="zoomminus.mouseout"/>
                        </use>
                        <path d="M-4,0h8" fill="none" stroke="white" stroke-width="1.5" pointer-events="none"/>
                </g>
                <g id="dirArrow">
                        <path fill="none" stroke="white" stroke-width="1.5" d="M0,-3.0v7 M-2.5,-0.5L0,-3.0L2.5,-0.5"/>
                </g>
               <g id="resetDef">
                       <use xlink:href="#rim2" fill="#404040">
                               <set attributeName="fill" to="#808080" begin="reset.mouseover" end="reset.mouseout"/>
                       </use>
               </g>
        </defs>

<script type="text/javascript">
var viewWidth = 820;
var viewHeight = 496;
var sectionId = 'dynsection-1';
</script>
<script xlink:href="svgpan.js"/>
<svg id="graph" class="graph">
<g id="viewport">
<title>gauri::OpenGLShader</title>
<polygon fill="white" stroke="transparent" points="-4,4 -4,-492 815.61,-492 815.61,4 -4,4"/>
<!-- Node1 -->
<g id="node1" class="node">
<title>Node1</title>
<g id="a_node1"><a xlink:title=" ">
<polygon fill="#bfbfbf" stroke="black" points="138.61,-0.5 138.61,-222.5 657.61,-222.5 657.61,-0.5 138.61,-0.5"/>
<text text-anchor="middle" x="398.11" y="-210.5" font-family="Helvetica,sans-Serif" font-size="10.00">gauri::OpenGLShader</text>
<polyline fill="none" stroke="black" points="138.61,-203.5 657.61,-203.5 "/>
<text text-anchor="middle" x="398.11" y="-191.5" font-family="Helvetica,sans-Serif" font-size="10.00"> </text>
<polyline fill="none" stroke="black" points="138.61,-184.5 657.61,-184.5 "/>
<text text-anchor="start" x="146.61" y="-172.5" font-family="Helvetica,sans-Serif" font-size="10.00">+ OpenGLShader(const std::string &amp;filepath)</text>
<text text-anchor="start" x="146.61" y="-161.5" font-family="Helvetica,sans-Serif" font-size="10.00">+ OpenGLShader(const std::string &amp;name, const std::string &amp;vertexSrc, const std::string &amp;fragmentSrc)</text>
<text text-anchor="start" x="146.61" y="-150.5" font-family="Helvetica,sans-Serif" font-size="10.00">+ ~OpenGLShader() override</text>
<text text-anchor="start" x="146.61" y="-139.5" font-family="Helvetica,sans-Serif" font-size="10.00">+ void Bind() const override</text>
<text text-anchor="start" x="146.61" y="-128.5" font-family="Helvetica,sans-Serif" font-size="10.00">+ void Unbind() const override</text>
<text text-anchor="start" x="146.61" y="-117.5" font-family="Helvetica,sans-Serif" font-size="10.00">+ const std::string &amp; GetName() const override</text>
<text text-anchor="start" x="146.61" y="-106.5" font-family="Helvetica,sans-Serif" font-size="10.00">+ void UploadUniformInt(const std::string &amp;name, int value)</text>
<text text-anchor="start" x="146.61" y="-95.5" font-family="Helvetica,sans-Serif" font-size="10.00">+ void UploadUniformFloat(const std::string &amp;name, float value)</text>
<text text-anchor="start" x="146.61" y="-84.5" font-family="Helvetica,sans-Serif" font-size="10.00">+ void UploadUniformFloat2(const std::string &amp;name, const glm::vec2 &amp;values)</text>
<text text-anchor="start" x="146.61" y="-73.5" font-family="Helvetica,sans-Serif" font-size="10.00">+ void UploadUniformFloat3(const std::string &amp;name, const glm::vec3 &amp;values)</text>
<text text-anchor="start" x="146.61" y="-62.5" font-family="Helvetica,sans-Serif" font-size="10.00">+ void UploadUniformFloat4(const std::string &amp;name, const glm::vec4 &amp;values)</text>
<text text-anchor="start" x="146.61" y="-51.5" font-family="Helvetica,sans-Serif" font-size="10.00">+ void UploadUniformMat3(const std::string &amp;name, const glm::mat3 &amp;matrix)</text>
<text text-anchor="start" x="146.61" y="-40.5" font-family="Helvetica,sans-Serif" font-size="10.00">+ void UploadUniformMat4(const std::string &amp;name, const glm::mat4 &amp;matrix)</text>
<text text-anchor="start" x="146.61" y="-29.5" font-family="Helvetica,sans-Serif" font-size="10.00">&#45; std::string ReadFile(const std::string &amp;filepath)</text>
<text text-anchor="start" x="146.61" y="-18.5" font-family="Helvetica,sans-Serif" font-size="10.00">&#45; std::unordered_map&lt; GLenum, std::string &gt; PreProcess(const std::string &amp;source)</text>
<text text-anchor="start" x="146.61" y="-7.5" font-family="Helvetica,sans-Serif" font-size="10.00">&#45; void Compile(const std::unordered_map&lt; GLenum, std::string &gt; &amp;shaderSources)</text>
</a>
</g>
</g>
<!-- Node2 -->
<g id="node2" class="node">
<title>Node2</title>
<g id="a_node2"><a xlink:href="classgauri_1_1Shader.html" target="_top" xlink:title=" ">
<polygon fill="white" stroke="black" points="105.61,-270.5 105.61,-382.5 690.61,-382.5 690.61,-270.5 105.61,-270.5"/>
<text text-anchor="middle" x="398.11" y="-370.5" font-family="Helvetica,sans-Serif" font-size="10.00">gauri::Shader</text>
<polyline fill="none" stroke="black" points="105.61,-363.5 690.61,-363.5 "/>
<text text-anchor="middle" x="398.11" y="-351.5" font-family="Helvetica,sans-Serif" font-size="10.00"> </text>
<polyline fill="none" stroke="black" points="105.61,-344.5 690.61,-344.5 "/>
<text text-anchor="start" x="113.61" y="-332.5" font-family="Helvetica,sans-Serif" font-size="10.00">+ virtual ~Shader()=default</text>
<text text-anchor="start" x="113.61" y="-321.5" font-family="Helvetica,sans-Serif" font-size="10.00">+ virtual void Bind() const =0</text>
<text text-anchor="start" x="113.61" y="-310.5" font-family="Helvetica,sans-Serif" font-size="10.00">+ virtual void Unbind() const =0</text>
<text text-anchor="start" x="113.61" y="-299.5" font-family="Helvetica,sans-Serif" font-size="10.00">+ virtual const std::string &amp; GetName() const =0</text>
<text text-anchor="start" x="113.61" y="-288.5" font-family="Helvetica,sans-Serif" font-size="10.00">+ static Ref&lt; Shader &gt; Create(const std::string &amp;filepath)</text>
<text text-anchor="start" x="113.61" y="-277.5" font-family="Helvetica,sans-Serif" font-size="10.00">+ static Ref&lt; Shader &gt; Create(const std::string &amp;name, const std::string &amp;vertexSrc, const std::string &amp;fragmentSrc)</text>
</a>
</g>
</g>
<!-- Node2&#45;&gt;Node1 -->
<g id="edge1" class="edge">
<title>Node2&#45;&gt;Node1</title>
<path fill="none" stroke="midnightblue" d="M398.11,-260.16C398.11,-248.27 398.11,-235.59 398.11,-222.82"/>
<polygon fill="none" stroke="midnightblue" points="394.61,-260.37 398.11,-270.37 401.61,-260.37 394.61,-260.37"/>
</g>
<!-- Node3 -->
<g id="node3" class="node">
<title>Node3</title>
<g id="a_node3"><a xlink:title=" ">
<polygon fill="white" stroke="#bfbfbf" points="88.11,-430.5 88.11,-487.5 144.11,-487.5 144.11,-430.5 88.11,-430.5"/>
<text text-anchor="middle" x="116.11" y="-475.5" font-family="Helvetica,sans-Serif" font-size="10.00">uint32_t</text>
<polyline fill="none" stroke="#bfbfbf" points="88.11,-468.5 144.11,-468.5 "/>
<text text-anchor="middle" x="116.11" y="-456.5" font-family="Helvetica,sans-Serif" font-size="10.00"> </text>
<polyline fill="none" stroke="#bfbfbf" points="88.11,-449.5 144.11,-449.5 "/>
<text text-anchor="middle" x="116.11" y="-437.5" font-family="Helvetica,sans-Serif" font-size="10.00"> </text>
</a>
</g>
</g>
<!-- Node3&#45;&gt;Node1 -->
<g id="edge3" class="edge">
<title>Node3&#45;&gt;Node1</title>
<path fill="none" stroke="#404040" d="M87.69,-445.06C64.48,-432.76 33.28,-411.85 19.11,-383 -3.02,-337.92 -8.77,-311.77 19.11,-270 45.73,-230.11 84.54,-200.31 127.3,-178.05"/>
<polygon fill="none" stroke="#404040" points="127.53,-177.94 131.1,-171.67 138.25,-172.56 134.69,-178.82 127.53,-177.94"/>
<text text-anchor="middle" x="57.61" y="-324" font-family="Helvetica,sans-Serif" font-size="10.00"> &#45;m_RendererID</text>
</g>
<!-- Node3&#45;&gt;Node2 -->
<g id="edge2" class="edge">
<title>Node3&#45;&gt;Node2</title>
<path fill="none" stroke="#404040" d="M144.18,-445.01C173.46,-431.46 221.48,-409.24 267.93,-387.74"/>
<polygon fill="none" stroke="#404040" points="268.17,-387.63 271.94,-381.48 279.06,-382.59 275.3,-388.74 268.17,-387.63"/>
<text text-anchor="middle" x="270.61" y="-404" font-family="Helvetica,sans-Serif" font-size="10.00"> &#45;m_RendererID</text>
</g>
<!-- Node4 -->
<g id="node4" class="node">
<title>Node4</title>
<g id="a_node4"><a xlink:title=" ">
<polygon fill="white" stroke="#bfbfbf" points="708.61,-298 708.61,-355 773.61,-355 773.61,-298 708.61,-298"/>
<text text-anchor="middle" x="741.11" y="-343" font-family="Helvetica,sans-Serif" font-size="10.00">std::string</text>
<polyline fill="none" stroke="#bfbfbf" points="708.61,-336 773.61,-336 "/>
<text text-anchor="middle" x="741.11" y="-324" font-family="Helvetica,sans-Serif" font-size="10.00"> </text>
<polyline fill="none" stroke="#bfbfbf" points="708.61,-317 773.61,-317 "/>
<text text-anchor="middle" x="741.11" y="-305" font-family="Helvetica,sans-Serif" font-size="10.00"> </text>
</a>
</g>
</g>
<!-- Node4&#45;&gt;Node1 -->
<g id="edge4" class="edge">
<title>Node4&#45;&gt;Node1</title>
<path fill="none" stroke="#404040" d="M723.81,-297.77C716.93,-288.19 708.43,-277.89 699.11,-270 682.05,-255.56 663.45,-241.94 644.13,-229.22"/>
<polygon fill="none" stroke="#404040" points="644.05,-229.17 636.84,-229.27 633.97,-222.65 641.18,-222.55 644.05,-229.17"/>
<text text-anchor="middle" x="697.11" y="-244" font-family="Helvetica,sans-Serif" font-size="10.00"> &#45;m_Name</text>
</g>
<!-- Node5 -->
<g id="node5" class="node">
<title>Node5</title>
<g id="a_node5"><a xlink:title=" ">
<polygon fill="white" stroke="#bfbfbf" points="670.61,-430.5 670.61,-487.5 811.61,-487.5 811.61,-430.5 670.61,-430.5"/>
<text text-anchor="middle" x="741.11" y="-475.5" font-family="Helvetica,sans-Serif" font-size="10.00">std::basic_string&lt; Char &gt;</text>
<polyline fill="none" stroke="#bfbfbf" points="670.61,-468.5 811.61,-468.5 "/>
<text text-anchor="middle" x="741.11" y="-456.5" font-family="Helvetica,sans-Serif" font-size="10.00"> </text>
<polyline fill="none" stroke="#bfbfbf" points="670.61,-449.5 811.61,-449.5 "/>
<text text-anchor="middle" x="741.11" y="-437.5" font-family="Helvetica,sans-Serif" font-size="10.00"> </text>
</a>
</g>
</g>
<!-- Node5&#45;&gt;Node4 -->
<g id="edge5" class="edge">
<title>Node5&#45;&gt;Node4</title>
<path fill="none" stroke="midnightblue" d="M741.11,-420.23C741.11,-399.43 741.11,-374.07 741.11,-355.14"/>
<polygon fill="none" stroke="midnightblue" points="737.61,-420.32 741.11,-430.32 744.61,-420.32 737.61,-420.32"/>
</g>
</g>
</svg>
        <g id="navigator" transform="translate(0 0)" fill="#404254">
                <rect fill="#f2f5e9" fill-opacity="0.5" stroke="#606060" stroke-width=".5" x="0" y="0" width="60" height="60"/>
                <use id="zoomplus" xlink:href="#zoomPlus" x="17" y="9" onmousedown="handleZoom(evt,'in')"/>
                <use id="zoomminus" xlink:href="#zoomMin" x="42" y="9" onmousedown="handleZoom(evt,'out')"/>
                <use id="reset" xlink:href="#resetDef" x="30" y="36" onmousedown="handleReset()"/>
                <g id="arrowUp" xlink:href="#dirArrow" transform="translate(30 24)" onmousedown="handlePan(0,-1)">
                  <use xlink:href="#rim" fill="#404040">
                        <set attributeName="fill" to="#808080" begin="arrowUp.mouseover" end="arrowUp.mouseout"/>
                  </use>
                  <path fill="none" stroke="white" stroke-width="1.5" d="M0,-3.0v7 M-2.5,-0.5L0,-3.0L2.5,-0.5"/>
                </g>
                <g id="arrowRight" xlink:href="#dirArrow" transform="rotate(90) translate(36 -43)" onmousedown="handlePan(1,0)">
                  <use xlink:href="#rim" fill="#404040">
                        <set attributeName="fill" to="#808080" begin="arrowRight.mouseover" end="arrowRight.mouseout"/>
                  </use>
                  <path fill="none" stroke="white" stroke-width="1.5" d="M0,-3.0v7 M-2.5,-0.5L0,-3.0L2.5,-0.5"/>
                </g>
                <g id="arrowDown" xlink:href="#dirArrow" transform="rotate(180) translate(-30 -48)" onmousedown="handlePan(0,1)">
                  <use xlink:href="#rim" fill="#404040">
                        <set attributeName="fill" to="#808080" begin="arrowDown.mouseover" end="arrowDown.mouseout"/>
                  </use>
                  <path fill="none" stroke="white" stroke-width="1.5" d="M0,-3.0v7 M-2.5,-0.5L0,-3.0L2.5,-0.5"/>
                </g>
                <g id="arrowLeft" xlink:href="#dirArrow" transform="rotate(270) translate(-36 17)" onmousedown="handlePan(-1,0)">
                  <use xlink:href="#rim" fill="#404040">
                        <set attributeName="fill" to="#808080" begin="arrowLeft.mouseover" end="arrowLeft.mouseout"/>
                  </use>
                  <path fill="none" stroke="white" stroke-width="1.5" d="M0,-3.0v7 M-2.5,-0.5L0,-3.0L2.5,-0.5"/>
                </g>
        </g>
        <svg viewBox="0 0 15 15" width="100%" height="30px" preserveAspectRatio="xMaxYMin meet">
         <g id="arrow_out" transform="scale(0.3 0.3)">
          <a xlink:href="classgauri_1_1OpenGLShader__coll__graph_org.svg" target="_base">
           <rect id="button" ry="5" rx="5" y="6" x="6" height="38" width="38"
                fill="#f2f5e9" fill-opacity="0.5" stroke="#606060" stroke-width="1.0"/>
           <path id="arrow"
             d="M 11.500037,31.436501 C 11.940474,20.09759 22.043105,11.32322 32.158766,21.979434 L 37.068811,17.246167 C 37.068811,17.246167 37.088388,32 37.088388,32 L 22.160133,31.978069 C 22.160133,31.978069 26.997745,27.140456 26.997745,27.140456 C 18.528582,18.264221 13.291696,25.230495 11.500037,31.436501 z"
             style="fill:#404040;"/>
          </a>
         </g>
        </svg>
</svg>
