<?xml version="1.0" encoding="UTF-8" standalone="no"?>
<!DOCTYPE svg PUBLIC "-//W3C//DTD SVG 1.1//EN"
 "http://www.w3.org/Graphics/SVG/1.1/DTD/svg11.dtd">
<!-- Generated by graphviz version 2.43.0 (0)
 -->
<!-- Title: gauri::Renderer Pages: 1 -->
<svg width="706pt" height="320pt"
 viewBox="0.00 0.00 706.00 320.00" xmlns="http://www.w3.org/2000/svg" xmlns:xlink="http://www.w3.org/1999/xlink">
<g id="graph0" class="graph" transform="scale(1 1) rotate(0) translate(4 316)">
<title>gauri::Renderer</title>
<polygon fill="white" stroke="transparent" points="-4,4 -4,-316 702,-316 702,4 -4,4"/>
<!-- Node1 -->
<g id="node1" class="node">
<title>Node1</title>
<g id="a_node1"><a xlink:title=" ">
<polygon fill="#bfbfbf" stroke="black" points="0,-0.5 0,-101.5 698,-101.5 698,-0.5 0,-0.5"/>
<text text-anchor="middle" x="349" y="-89.5" font-family="Helvetica,sans-Serif" font-size="10.00">gauri::Renderer</text>
<polyline fill="none" stroke="black" points="0,-82.5 698,-82.5 "/>
<text text-anchor="middle" x="349" y="-70.5" font-family="Helvetica,sans-Serif" font-size="10.00"> </text>
<polyline fill="none" stroke="black" points="0,-63.5 698,-63.5 "/>
<text text-anchor="start" x="8" y="-51.5" font-family="Helvetica,sans-Serif" font-size="10.00">+ static void Init()</text>
<text text-anchor="start" x="8" y="-40.5" font-family="Helvetica,sans-Serif" font-size="10.00">+ static void BeginScene(OrthographicCamera &amp;camera)</text>
<text text-anchor="start" x="8" y="-29.5" font-family="Helvetica,sans-Serif" font-size="10.00">+ static void EndScene()</text>
<text text-anchor="start" x="8" y="-18.5" font-family="Helvetica,sans-Serif" font-size="10.00">+ static void Submit(const Ref&lt; Shader &gt; &amp;shader, const Ref&lt; VertexArray &gt; &amp;vertexArray, const glm::mat4 &amp;transform=glm::mat4(1.0f))</text>
<text text-anchor="start" x="8" y="-7.5" font-family="Helvetica,sans-Serif" font-size="10.00">+ static RendererAPI::API GetAPI()</text>
</a>
</g>
</g>
<!-- Node2 -->
<g id="node2" class="node">
<title>Node2</title>
<g id="a_node2"><a xlink:href="classgauri_1_1Renderer.html#structgauri_1_1Renderer_1_1SceneData" target="_top" xlink:title=" ">
<polygon fill="white" stroke="black" points="274,-149.5 274,-206.5 424,-206.5 424,-149.5 274,-149.5"/>
<text text-anchor="middle" x="349" y="-194.5" font-family="Helvetica,sans-Serif" font-size="10.00">gauri::Renderer::SceneData</text>
<polyline fill="none" stroke="black" points="274,-187.5 424,-187.5 "/>
<text text-anchor="middle" x="349" y="-175.5" font-family="Helvetica,sans-Serif" font-size="10.00"> </text>
<polyline fill="none" stroke="black" points="274,-168.5 424,-168.5 "/>
<text text-anchor="middle" x="349" y="-156.5" font-family="Helvetica,sans-Serif" font-size="10.00"> </text>
</a>
</g>
</g>
<!-- Node2&#45;&gt;Node1 -->
<g id="edge1" class="edge">
<title>Node2&#45;&gt;Node1</title>
<path fill="none" stroke="#404040" d="M349,-149.26C349,-138.79 349,-126.42 349,-114.07"/>
<polygon fill="none" stroke="#404040" points="349,-113.8 345,-107.8 349,-101.8 353,-107.8 349,-113.8"/>
<text text-anchor="middle" x="386.5" y="-123" font-family="Helvetica,sans-Serif" font-size="10.00"> &#45;m_SceneData</text>
</g>
<!-- Node3 -->
<g id="node3" class="node">
<title>Node3</title>
<g id="a_node3"><a xlink:title=" ">
<polygon fill="white" stroke="#bfbfbf" points="328,-254.5 328,-311.5 370,-311.5 370,-254.5 328,-254.5"/>
<text text-anchor="middle" x="349" y="-299.5" font-family="Helvetica,sans-Serif" font-size="10.00">mat4</text>
<polyline fill="none" stroke="#bfbfbf" points="328,-292.5 370,-292.5 "/>
<text text-anchor="middle" x="349" y="-280.5" font-family="Helvetica,sans-Serif" font-size="10.00"> </text>
<polyline fill="none" stroke="#bfbfbf" points="328,-273.5 370,-273.5 "/>
<text text-anchor="middle" x="349" y="-261.5" font-family="Helvetica,sans-Serif" font-size="10.00"> </text>
</a>
</g>
</g>
<!-- Node3&#45;&gt;Node2 -->
<g id="edge2" class="edge">
<title>Node3&#45;&gt;Node2</title>
<path fill="none" stroke="#404040" d="M349,-254.4C349,-243.55 349,-230.87 349,-219.05"/>
<polygon fill="none" stroke="#404040" points="349,-218.68 345,-212.68 349,-206.68 353,-212.68 349,-218.68"/>
<text text-anchor="middle" x="407" y="-228" font-family="Helvetica,sans-Serif" font-size="10.00"> +ViewProjectionMatrix</text>
</g>
</g>
</svg>
