<?xml version="1.0" encoding="UTF-8" standalone="no"?>
<!DOCTYPE svg PUBLIC "-//W3C//DTD SVG 1.1//EN"
 "http://www.w3.org/Graphics/SVG/1.1/DTD/svg11.dtd">
<!-- Generated by graphviz version 2.43.0 (0)
 -->
<!-- Title: gauri::RenderCommand Pages: 1 -->
<svg width="434pt" height="375pt"
 viewBox="0.00 0.00 434.00 375.00" xmlns="http://www.w3.org/2000/svg" xmlns:xlink="http://www.w3.org/1999/xlink">
<g id="graph0" class="graph" transform="scale(1 1) rotate(0) translate(4 371)">
<title>gauri::RenderCommand</title>
<polygon fill="white" stroke="transparent" points="-4,4 -4,-371 430,-371 430,4 -4,4"/>
<!-- Node1 -->
<g id="node1" class="node">
<title>Node1</title>
<g id="a_node1"><a xlink:title=" ">
<polygon fill="#bfbfbf" stroke="black" points="9.5,-0.5 9.5,-101.5 416.5,-101.5 416.5,-0.5 9.5,-0.5"/>
<text text-anchor="middle" x="213" y="-89.5" font-family="Helvetica,sans-Serif" font-size="10.00">gauri::RenderCommand</text>
<polyline fill="none" stroke="black" points="9.5,-82.5 416.5,-82.5 "/>
<text text-anchor="middle" x="213" y="-70.5" font-family="Helvetica,sans-Serif" font-size="10.00"> </text>
<polyline fill="none" stroke="black" points="9.5,-63.5 416.5,-63.5 "/>
<text text-anchor="start" x="17.5" y="-51.5" font-family="Helvetica,sans-Serif" font-size="10.00">+ static void Init()</text>
<text text-anchor="start" x="17.5" y="-40.5" font-family="Helvetica,sans-Serif" font-size="10.00">+ static void SetViewport(uint32_t x, uint32_t y, uint32_t width, uint32_t height)</text>
<text text-anchor="start" x="17.5" y="-29.5" font-family="Helvetica,sans-Serif" font-size="10.00">+ static void SetClearColor(const glm::vec4 &amp;color)</text>
<text text-anchor="start" x="17.5" y="-18.5" font-family="Helvetica,sans-Serif" font-size="10.00">+ static void Clear()</text>
<text text-anchor="start" x="17.5" y="-7.5" font-family="Helvetica,sans-Serif" font-size="10.00">+ static void DrawIndexed(const Ref&lt; VertexArray &gt; &amp;vertexArray)</text>
</a>
</g>
</g>
<!-- Node2 -->
<g id="node2" class="node">
<title>Node2</title>
<g id="a_node2"><a xlink:href="classgauri_1_1RendererAPI.html" target="_top" xlink:title=" ">
<polygon fill="white" stroke="black" points="0,-149.5 0,-261.5 426,-261.5 426,-149.5 0,-149.5"/>
<text text-anchor="middle" x="213" y="-249.5" font-family="Helvetica,sans-Serif" font-size="10.00">gauri::RendererAPI</text>
<polyline fill="none" stroke="black" points="0,-242.5 426,-242.5 "/>
<text text-anchor="middle" x="213" y="-230.5" font-family="Helvetica,sans-Serif" font-size="10.00"> </text>
<polyline fill="none" stroke="black" points="0,-223.5 426,-223.5 "/>
<text text-anchor="start" x="8" y="-211.5" font-family="Helvetica,sans-Serif" font-size="10.00">+ virtual void Init()=0</text>
<text text-anchor="start" x="8" y="-200.5" font-family="Helvetica,sans-Serif" font-size="10.00">+ virtual void SetClearColor(const glm::vec4 &amp;color)=0</text>
<text text-anchor="start" x="8" y="-189.5" font-family="Helvetica,sans-Serif" font-size="10.00">+ virtual void SetViewport(uint32_t x, uint32_t y, uint32_t width, uint32_t height)=0</text>
<text text-anchor="start" x="8" y="-178.5" font-family="Helvetica,sans-Serif" font-size="10.00">+ virtual void Clear()=0</text>
<text text-anchor="start" x="8" y="-167.5" font-family="Helvetica,sans-Serif" font-size="10.00">+ virtual void DrawIndexed(const Ref&lt; VertexArray &gt; &amp;vertexArray)=0</text>
<text text-anchor="start" x="8" y="-156.5" font-family="Helvetica,sans-Serif" font-size="10.00">+ static API GetAPI()</text>
</a>
</g>
</g>
<!-- Node2&#45;&gt;Node1 -->
<g id="edge1" class="edge">
<title>Node2&#45;&gt;Node1</title>
<path fill="none" stroke="#404040" d="M213,-149.44C213,-137.86 213,-125.56 213,-113.74"/>
<polygon fill="none" stroke="#404040" points="213,-113.66 209,-107.66 213,-101.66 217,-107.66 213,-113.66"/>
<text text-anchor="middle" x="252" y="-123" font-family="Helvetica,sans-Serif" font-size="10.00"> &#45;s_RendererAPI</text>
</g>
<!-- Node3 -->
<g id="node3" class="node">
<title>Node3</title>
<g id="a_node3"><a xlink:title=" ">
<polygon fill="white" stroke="#bfbfbf" points="182,-309.5 182,-366.5 244,-366.5 244,-309.5 182,-309.5"/>
<text text-anchor="middle" x="213" y="-354.5" font-family="Helvetica,sans-Serif" font-size="10.00">static API</text>
<polyline fill="none" stroke="#bfbfbf" points="182,-347.5 244,-347.5 "/>
<text text-anchor="middle" x="213" y="-335.5" font-family="Helvetica,sans-Serif" font-size="10.00"> </text>
<polyline fill="none" stroke="#bfbfbf" points="182,-328.5 244,-328.5 "/>
<text text-anchor="middle" x="213" y="-316.5" font-family="Helvetica,sans-Serif" font-size="10.00"> </text>
</a>
</g>
</g>
<!-- Node3&#45;&gt;Node2 -->
<g id="edge2" class="edge">
<title>Node3&#45;&gt;Node2</title>
<path fill="none" stroke="#404040" d="M213,-309.32C213,-298.78 213,-286.25 213,-273.62"/>
<polygon fill="none" stroke="#404040" points="213,-273.55 209,-267.55 213,-261.55 217,-267.55 213,-273.55"/>
<text text-anchor="middle" x="230" y="-283" font-family="Helvetica,sans-Serif" font-size="10.00"> &#45;s_API</text>
</g>
</g>
</svg>
