<?xml version="1.0" encoding="UTF-8" standalone="no"?>
<!DOCTYPE svg PUBLIC "-//W3C//DTD SVG 1.1//EN"
 "http://www.w3.org/Graphics/SVG/1.1/DTD/svg11.dtd">
<!-- Generated by graphviz version 2.43.0 (0)
 -->
<!-- Title: gauri::ScriptableEntity Pages: 1 -->
<!--zoomable 634 -->
<svg id="main" version="1.1" xmlns="http://www.w3.org/2000/svg" xmlns:xlink="http://www.w3.org/1999/xlink" xml:space="preserve" onload="init(evt)">
<style type="text/css"><![CDATA[
.edge:hover path { stroke: red; }
.edge:hover polygon { stroke: red; fill: red; }
]]></style>
<script type="text/javascript"><![CDATA[
var edges = document.getElementsByTagName('g');
if (edges && edges.length) {
  for (var i=0;i<edges.length;i++) {
    if (edges[i].id.substr(0,4)=='edge') {
      edges[i].setAttribute('class','edge');
    }
  }
}
]]></script>
        <defs>
                <circle id="rim" cx="0" cy="0" r="7"/>
                <circle id="rim2" cx="0" cy="0" r="3.5"/>
                <g id="zoomPlus">
                        <use xlink:href="#rim" fill="#404040">
                                <set attributeName="fill" to="#808080" begin="zoomplus.mouseover" end="zoomplus.mouseout"/>
                        </use>
                        <path d="M-4,0h8M0,-4v8" fill="none" stroke="white" stroke-width="1.5" pointer-events="none"/>
                </g>
                <g id="zoomMin">
                        <use xlink:href="#rim" fill="#404040">
                                <set attributeName="fill" to="#808080" begin="zoomminus.mouseover" end="zoomminus.mouseout"/>
                        </use>
                        <path d="M-4,0h8" fill="none" stroke="white" stroke-width="1.5" pointer-events="none"/>
                </g>
                <g id="dirArrow">
                        <path fill="none" stroke="white" stroke-width="1.5" d="M0,-3.0v7 M-2.5,-0.5L0,-3.0L2.5,-0.5"/>
                </g>
               <g id="resetDef">
                       <use xlink:href="#rim2" fill="#404040">
                               <set attributeName="fill" to="#808080" begin="reset.mouseover" end="reset.mouseout"/>
                       </use>
               </g>
        </defs>

<script type="text/javascript">
var viewWidth = 401;
var viewHeight = 634;
var sectionId = 'dynsection-0';
</script>
<script xlink:href="svgpan.js"/>
<svg id="graph" class="graph">
<g id="viewport">
<title>gauri::ScriptableEntity</title>
<polygon fill="white" stroke="transparent" points="-4,4 -4,-630 397,-630 397,4 -4,4"/>
<!-- Node1 -->
<g id="node1" class="node">
<title>Node1</title>
<g id="a_node1"><a xlink:title=" ">
<polygon fill="#bfbfbf" stroke="black" points="151,-0.5 151,-101.5 351,-101.5 351,-0.5 151,-0.5"/>
<text text-anchor="middle" x="251" y="-89.5" font-family="Helvetica,sans-Serif" font-size="10.00">gauri::ScriptableEntity</text>
<polyline fill="none" stroke="black" points="151,-82.5 351,-82.5 "/>
<text text-anchor="middle" x="251" y="-70.5" font-family="Helvetica,sans-Serif" font-size="10.00"> </text>
<polyline fill="none" stroke="black" points="151,-63.5 351,-63.5 "/>
<text text-anchor="start" x="159" y="-51.5" font-family="Helvetica,sans-Serif" font-size="10.00">+ virtual ~ScriptableEntity()=default</text>
<text text-anchor="start" x="159" y="-40.5" font-family="Helvetica,sans-Serif" font-size="10.00">+ T &amp; GetComponent()</text>
<text text-anchor="start" x="159" y="-29.5" font-family="Helvetica,sans-Serif" font-size="10.00"># virtual void OnCreate()</text>
<text text-anchor="start" x="159" y="-18.5" font-family="Helvetica,sans-Serif" font-size="10.00"># virtual void OnDestroy()</text>
<text text-anchor="start" x="159" y="-7.5" font-family="Helvetica,sans-Serif" font-size="10.00"># virtual void OnUpdate(Timestep ts)</text>
</a>
</g>
</g>
<!-- Node2 -->
<g id="node2" class="node">
<title>Node2</title>
<g id="a_node2"><a xlink:href="classgauri_1_1Entity.html" target="_top" xlink:title=" ">
<polygon fill="white" stroke="black" points="131,-149.5 131,-327.5 371,-327.5 371,-149.5 131,-149.5"/>
<text text-anchor="middle" x="251" y="-315.5" font-family="Helvetica,sans-Serif" font-size="10.00">gauri::Entity</text>
<polyline fill="none" stroke="black" points="131,-308.5 371,-308.5 "/>
<text text-anchor="middle" x="251" y="-296.5" font-family="Helvetica,sans-Serif" font-size="10.00"> </text>
<polyline fill="none" stroke="black" points="131,-289.5 371,-289.5 "/>
<text text-anchor="start" x="139" y="-277.5" font-family="Helvetica,sans-Serif" font-size="10.00">+ Entity()=default</text>
<text text-anchor="start" x="139" y="-266.5" font-family="Helvetica,sans-Serif" font-size="10.00">+ Entity(entt::entity handle, Scene *scene)</text>
<text text-anchor="start" x="139" y="-255.5" font-family="Helvetica,sans-Serif" font-size="10.00">+ Entity(const Entity &amp;other)=default</text>
<text text-anchor="start" x="139" y="-244.5" font-family="Helvetica,sans-Serif" font-size="10.00">+ T &amp; AddComponent(Args &amp;&amp;...args)</text>
<text text-anchor="start" x="139" y="-233.5" font-family="Helvetica,sans-Serif" font-size="10.00">+ T &amp; GetComponent()</text>
<text text-anchor="start" x="139" y="-222.5" font-family="Helvetica,sans-Serif" font-size="10.00">+ bool HasComponent()</text>
<text text-anchor="start" x="139" y="-211.5" font-family="Helvetica,sans-Serif" font-size="10.00">+ void RemoveComponent()</text>
<text text-anchor="start" x="139" y="-200.5" font-family="Helvetica,sans-Serif" font-size="10.00">+ operator bool() const</text>
<text text-anchor="start" x="139" y="-189.5" font-family="Helvetica,sans-Serif" font-size="10.00">+ operator uint32_t() const</text>
<text text-anchor="start" x="139" y="-178.5" font-family="Helvetica,sans-Serif" font-size="10.00">+ operator entt::entity() const</text>
<text text-anchor="start" x="139" y="-167.5" font-family="Helvetica,sans-Serif" font-size="10.00">+ bool operator==(const Entity &amp;other) const</text>
<text text-anchor="start" x="139" y="-156.5" font-family="Helvetica,sans-Serif" font-size="10.00">+ bool operator!=(const Entity &amp;other) const</text>
</a>
</g>
</g>
<!-- Node2&#45;&gt;Node1 -->
<g id="edge1" class="edge">
<title>Node2&#45;&gt;Node1</title>
<path fill="none" stroke="#404040" d="M251,-149.37C251,-137.29 251,-125.1 251,-113.63"/>
<polygon fill="none" stroke="#404040" points="251,-113.5 247,-107.51 251,-101.5 255,-107.5 251,-113.5"/>
<text text-anchor="middle" x="276.5" y="-123" font-family="Helvetica,sans-Serif" font-size="10.00"> &#45;m_Entity</text>
</g>
<!-- Node3 -->
<g id="node3" class="node">
<title>Node3</title>
<g id="a_node3"><a xlink:href="classgauri_1_1Scene.html" target="_top" xlink:title=" ">
<polygon fill="white" stroke="black" points="0,-375.5 0,-509.5 308,-509.5 308,-375.5 0,-375.5"/>
<text text-anchor="middle" x="154" y="-497.5" font-family="Helvetica,sans-Serif" font-size="10.00">gauri::Scene</text>
<polyline fill="none" stroke="black" points="0,-490.5 308,-490.5 "/>
<text text-anchor="middle" x="154" y="-478.5" font-family="Helvetica,sans-Serif" font-size="10.00"> </text>
<polyline fill="none" stroke="black" points="0,-471.5 308,-471.5 "/>
<text text-anchor="start" x="8" y="-459.5" font-family="Helvetica,sans-Serif" font-size="10.00">+ Scene()</text>
<text text-anchor="start" x="8" y="-448.5" font-family="Helvetica,sans-Serif" font-size="10.00">+ ~Scene()</text>
<text text-anchor="start" x="8" y="-437.5" font-family="Helvetica,sans-Serif" font-size="10.00">+ Entity CreateEntity(const std::string &amp;name=std::string())</text>
<text text-anchor="start" x="8" y="-426.5" font-family="Helvetica,sans-Serif" font-size="10.00">+ void DestroyEntity(Entity entity)</text>
<text text-anchor="start" x="8" y="-415.5" font-family="Helvetica,sans-Serif" font-size="10.00">+ void OnUpdate(Timestep ts)</text>
<text text-anchor="start" x="8" y="-404.5" font-family="Helvetica,sans-Serif" font-size="10.00">+ void OnViewportResize(uint32_t width, uint32_t height)</text>
<text text-anchor="start" x="8" y="-393.5" font-family="Helvetica,sans-Serif" font-size="10.00">+ Entity GetPrimaryCameraEntity()</text>
<text text-anchor="start" x="8" y="-382.5" font-family="Helvetica,sans-Serif" font-size="10.00">&#45; void OnComponentAdded(Entity entity, T &amp;component)</text>
</a>
</g>
</g>
<!-- Node3&#45;&gt;Node2 -->
<g id="edge2" class="edge">
<title>Node3&#45;&gt;Node2</title>
<path fill="none" stroke="#404040" d="M185.76,-375.36C191.4,-363.61 197.39,-351.15 203.36,-338.72"/>
<polygon fill="none" stroke="#404040" points="203.39,-338.64 202.38,-331.5 208.59,-327.82 209.6,-334.96 203.39,-338.64"/>
<text text-anchor="middle" x="226" y="-349" font-family="Helvetica,sans-Serif" font-size="10.00"> &#45;m_Scene</text>
</g>
<!-- Node4 -->
<g id="node4" class="node">
<title>Node4</title>
<g id="a_node4"><a xlink:title=" ">
<polygon fill="white" stroke="#bfbfbf" points="84,-568.5 84,-625.5 138,-625.5 138,-568.5 84,-568.5"/>
<text text-anchor="middle" x="111" y="-613.5" font-family="Helvetica,sans-Serif" font-size="10.00">registry</text>
<polyline fill="none" stroke="#bfbfbf" points="84,-606.5 138,-606.5 "/>
<text text-anchor="middle" x="111" y="-594.5" font-family="Helvetica,sans-Serif" font-size="10.00"> </text>
<polyline fill="none" stroke="#bfbfbf" points="84,-587.5 138,-587.5 "/>
<text text-anchor="middle" x="111" y="-575.5" font-family="Helvetica,sans-Serif" font-size="10.00"> </text>
</a>
</g>
</g>
<!-- Node4&#45;&gt;Node3 -->
<g id="edge3" class="edge">
<title>Node4&#45;&gt;Node3</title>
<path fill="none" stroke="#404040" d="M108.64,-568.19C108.29,-555.73 108.85,-540.97 112,-528 112.55,-525.73 113.17,-523.45 113.85,-521.17"/>
<polygon fill="none" stroke="#404040" points="113.85,-521.17 111.98,-514.21 117.69,-509.81 119.56,-516.77 113.85,-521.17"/>
<text text-anchor="middle" x="143.5" y="-536.5" font-family="Helvetica,sans-Serif" font-size="10.00"> &#45;m_Registry</text>
</g>
<!-- Node5 -->
<g id="node5" class="node">
<title>Node5</title>
<g id="a_node5"><a xlink:title=" ">
<polygon fill="white" stroke="#bfbfbf" points="169,-568.5 169,-625.5 225,-625.5 225,-568.5 169,-568.5"/>
<text text-anchor="middle" x="197" y="-613.5" font-family="Helvetica,sans-Serif" font-size="10.00">uint32_t</text>
<polyline fill="none" stroke="#bfbfbf" points="169,-606.5 225,-606.5 "/>
<text text-anchor="middle" x="197" y="-594.5" font-family="Helvetica,sans-Serif" font-size="10.00"> </text>
<polyline fill="none" stroke="#bfbfbf" points="169,-587.5 225,-587.5 "/>
<text text-anchor="middle" x="197" y="-575.5" font-family="Helvetica,sans-Serif" font-size="10.00"> </text>
</a>
</g>
</g>
<!-- Node5&#45;&gt;Node3 -->
<g id="edge4" class="edge">
<title>Node5&#45;&gt;Node3</title>
<path fill="none" stroke="#404040" d="M189.21,-568.38C185.44,-554.99 180.69,-538.17 175.92,-521.25"/>
<polygon fill="none" stroke="#404040" points="175.88,-521.11 170.4,-516.42 172.63,-509.56 178.1,-514.25 175.88,-521.11"/>
<text text-anchor="middle" x="233" y="-542" font-family="Helvetica,sans-Serif" font-size="10.00"> &#45;m_ViewportHeight</text>
<text text-anchor="middle" x="233" y="-531" font-family="Helvetica,sans-Serif" font-size="10.00">&#45;m_ViewportWidth</text>
</g>
<!-- Node6 -->
<g id="node6" class="node">
<title>Node6</title>
<g id="a_node6"><a xlink:title=" ">
<polygon fill="white" stroke="#bfbfbf" points="326.5,-414 326.5,-471 371.5,-471 371.5,-414 326.5,-414"/>
<text text-anchor="middle" x="349" y="-459" font-family="Helvetica,sans-Serif" font-size="10.00">entity</text>
<polyline fill="none" stroke="#bfbfbf" points="326.5,-452 371.5,-452 "/>
<text text-anchor="middle" x="349" y="-440" font-family="Helvetica,sans-Serif" font-size="10.00"> </text>
<polyline fill="none" stroke="#bfbfbf" points="326.5,-433 371.5,-433 "/>
<text text-anchor="middle" x="349" y="-421" font-family="Helvetica,sans-Serif" font-size="10.00"> </text>
</a>
</g>
</g>
<!-- Node6&#45;&gt;Node2 -->
<g id="edge5" class="edge">
<title>Node6&#45;&gt;Node2</title>
<path fill="none" stroke="#404040" d="M335.8,-413.98C330.04,-402 323.2,-387.8 317,-375 311.33,-363.28 305.36,-351 299.44,-338.81"/>
<polygon fill="none" stroke="#404040" points="299.27,-338.46 293.05,-334.81 294.02,-327.66 300.24,-331.31 299.27,-338.46"/>
<text text-anchor="middle" x="350.5" y="-349" font-family="Helvetica,sans-Serif" font-size="10.00"> &#45;m_EntityHandle</text>
</g>
</g>
</svg>
        <g id="navigator" transform="translate(0 0)" fill="#404254">
                <rect fill="#f2f5e9" fill-opacity="0.5" stroke="#606060" stroke-width=".5" x="0" y="0" width="60" height="60"/>
                <use id="zoomplus" xlink:href="#zoomPlus" x="17" y="9" onmousedown="handleZoom(evt,'in')"/>
                <use id="zoomminus" xlink:href="#zoomMin" x="42" y="9" onmousedown="handleZoom(evt,'out')"/>
                <use id="reset" xlink:href="#resetDef" x="30" y="36" onmousedown="handleReset()"/>
                <g id="arrowUp" xlink:href="#dirArrow" transform="translate(30 24)" onmousedown="handlePan(0,-1)">
                  <use xlink:href="#rim" fill="#404040">
                        <set attributeName="fill" to="#808080" begin="arrowUp.mouseover" end="arrowUp.mouseout"/>
                  </use>
                  <path fill="none" stroke="white" stroke-width="1.5" d="M0,-3.0v7 M-2.5,-0.5L0,-3.0L2.5,-0.5"/>
                </g>
                <g id="arrowRight" xlink:href="#dirArrow" transform="rotate(90) translate(36 -43)" onmousedown="handlePan(1,0)">
                  <use xlink:href="#rim" fill="#404040">
                        <set attributeName="fill" to="#808080" begin="arrowRight.mouseover" end="arrowRight.mouseout"/>
                  </use>
                  <path fill="none" stroke="white" stroke-width="1.5" d="M0,-3.0v7 M-2.5,-0.5L0,-3.0L2.5,-0.5"/>
                </g>
                <g id="arrowDown" xlink:href="#dirArrow" transform="rotate(180) translate(-30 -48)" onmousedown="handlePan(0,1)">
                  <use xlink:href="#rim" fill="#404040">
                        <set attributeName="fill" to="#808080" begin="arrowDown.mouseover" end="arrowDown.mouseout"/>
                  </use>
                  <path fill="none" stroke="white" stroke-width="1.5" d="M0,-3.0v7 M-2.5,-0.5L0,-3.0L2.5,-0.5"/>
                </g>
                <g id="arrowLeft" xlink:href="#dirArrow" transform="rotate(270) translate(-36 17)" onmousedown="handlePan(-1,0)">
                  <use xlink:href="#rim" fill="#404040">
                        <set attributeName="fill" to="#808080" begin="arrowLeft.mouseover" end="arrowLeft.mouseout"/>
                  </use>
                  <path fill="none" stroke="white" stroke-width="1.5" d="M0,-3.0v7 M-2.5,-0.5L0,-3.0L2.5,-0.5"/>
                </g>
        </g>
        <svg viewBox="0 0 15 15" width="100%" height="30px" preserveAspectRatio="xMaxYMin meet">
         <g id="arrow_out" transform="scale(0.3 0.3)">
          <a xlink:href="classgauri_1_1ScriptableEntity__coll__graph_org.svg" target="_base">
           <rect id="button" ry="5" rx="5" y="6" x="6" height="38" width="38"
                fill="#f2f5e9" fill-opacity="0.5" stroke="#606060" stroke-width="1.0"/>
           <path id="arrow"
             d="M 11.500037,31.436501 C 11.940474,20.09759 22.043105,11.32322 32.158766,21.979434 L 37.068811,17.246167 C 37.068811,17.246167 37.088388,32 37.088388,32 L 22.160133,31.978069 C 22.160133,31.978069 26.997745,27.140456 26.997745,27.140456 C 18.528582,18.264221 13.291696,25.230495 11.500037,31.436501 z"
             style="fill:#404040;"/>
          </a>
         </g>
        </svg>
</svg>
