<?xml version="1.0" encoding="UTF-8" standalone="no"?>
<!DOCTYPE svg PUBLIC "-//W3C//DTD SVG 1.1//EN"
 "http://www.w3.org/Graphics/SVG/1.1/DTD/svg11.dtd">
<!-- Generated by graphviz version 2.43.0 (0)
 -->
<!-- Title: /home/runner/work/gauri/gauri/gauri/include/gauri/scene/component.h Pages: 1 -->
<svg width="495pt" height="308pt"
 viewBox="0.00 0.00 494.50 308.00" xmlns="http://www.w3.org/2000/svg" xmlns:xlink="http://www.w3.org/1999/xlink">
<g id="graph0" class="graph" transform="scale(1 1) rotate(0) translate(4 304)">
<title>/home/runner/work/gauri/gauri/gauri/include/gauri/scene/component.h</title>
<polygon fill="white" stroke="transparent" points="-4,4 -4,-304 490.5,-304 490.5,4 -4,4"/>
<!-- Node1 -->
<g id="node1" class="node">
<title>Node1</title>
<g id="a_node1"><a xlink:title=" ">
<polygon fill="#bfbfbf" stroke="black" points="0,-280.5 0,-299.5 356,-299.5 356,-280.5 0,-280.5"/>
<text text-anchor="middle" x="178" y="-287.5" font-family="Helvetica,sans-Serif" font-size="10.00">/home/runner/work/gauri/gauri/gauri/include/gauri/scene/component.h</text>
</a>
</g>
</g>
<!-- Node2 -->
<g id="node2" class="node">
<title>Node2</title>
<g id="a_node2"><a xlink:title=" ">
<polygon fill="white" stroke="#bfbfbf" points="58,-112.5 58,-131.5 136,-131.5 136,-112.5 58,-112.5"/>
<text text-anchor="middle" x="97" y="-119.5" font-family="Helvetica,sans-Serif" font-size="10.00">glm/glm.hpp</text>
</a>
</g>
</g>
<!-- Node1&#45;&gt;Node2 -->
<g id="edge1" class="edge">
<title>Node1&#45;&gt;Node2</title>
<path fill="none" stroke="midnightblue" d="M142.99,-280.45C124.07,-273.84 102.32,-262.59 91,-244 71.66,-212.23 81.9,-166.62 90.09,-141.44"/>
<polygon fill="midnightblue" stroke="midnightblue" points="93.49,-142.32 93.48,-131.72 86.88,-140.01 93.49,-142.32"/>
</g>
<!-- Node3 -->
<g id="node3" class="node">
<title>Node3</title>
<g id="a_node3"><a xlink:href="scene__camera_8h.html" target="_top" xlink:title=" ">
<polygon fill="white" stroke="black" points="100.5,-224.5 100.5,-243.5 255.5,-243.5 255.5,-224.5 100.5,-224.5"/>
<text text-anchor="middle" x="178" y="-231.5" font-family="Helvetica,sans-Serif" font-size="10.00">gauri/scene/scene_camera.h</text>
</a>
</g>
</g>
<!-- Node1&#45;&gt;Node3 -->
<g id="edge2" class="edge">
<title>Node1&#45;&gt;Node3</title>
<path fill="none" stroke="midnightblue" d="M178,-280.08C178,-273.01 178,-262.86 178,-253.99"/>
<polygon fill="midnightblue" stroke="midnightblue" points="181.5,-253.75 178,-243.75 174.5,-253.75 181.5,-253.75"/>
</g>
<!-- Node5 -->
<g id="node5" class="node">
<title>Node5</title>
<g id="a_node5"><a xlink:href="scriptable__entity_8h.html" target="_top" xlink:title=" ">
<polygon fill="white" stroke="black" points="273.5,-224.5 273.5,-243.5 438.5,-243.5 438.5,-224.5 273.5,-224.5"/>
<text text-anchor="middle" x="356" y="-231.5" font-family="Helvetica,sans-Serif" font-size="10.00">gauri/scene/scriptable_entity.h</text>
</a>
</g>
</g>
<!-- Node1&#45;&gt;Node5 -->
<g id="edge5" class="edge">
<title>Node1&#45;&gt;Node5</title>
<path fill="none" stroke="midnightblue" d="M206.2,-280.44C236.41,-271.28 284.51,-256.69 318.03,-246.52"/>
<polygon fill="midnightblue" stroke="midnightblue" points="319.37,-249.77 327.93,-243.52 317.34,-243.07 319.37,-249.77"/>
</g>
<!-- Node4 -->
<g id="node4" class="node">
<title>Node4</title>
<g id="a_node4"><a xlink:href="camera_8h.html" target="_top" xlink:title=" ">
<polygon fill="white" stroke="black" points="106,-168.5 106,-187.5 240,-187.5 240,-168.5 106,-168.5"/>
<text text-anchor="middle" x="173" y="-175.5" font-family="Helvetica,sans-Serif" font-size="10.00">gauri/renderer/camera.h</text>
</a>
</g>
</g>
<!-- Node3&#45;&gt;Node4 -->
<g id="edge3" class="edge">
<title>Node3&#45;&gt;Node4</title>
<path fill="none" stroke="midnightblue" d="M177.17,-224.08C176.52,-217.01 175.58,-206.86 174.76,-197.99"/>
<polygon fill="midnightblue" stroke="midnightblue" points="178.22,-197.39 173.81,-187.75 171.25,-198.03 178.22,-197.39"/>
</g>
<!-- Node4&#45;&gt;Node2 -->
<g id="edge4" class="edge">
<title>Node4&#45;&gt;Node2</title>
<path fill="none" stroke="midnightblue" d="M160.79,-168.32C149.22,-160.11 131.62,-147.6 117.84,-137.81"/>
<polygon fill="midnightblue" stroke="midnightblue" points="119.61,-134.77 109.43,-131.83 115.56,-140.48 119.61,-134.77"/>
</g>
<!-- Node6 -->
<g id="node6" class="node">
<title>Node6</title>
<g id="a_node6"><a xlink:href="entity_8h.html" target="_top" xlink:title=" ">
<polygon fill="white" stroke="black" points="300,-168.5 300,-187.5 412,-187.5 412,-168.5 300,-168.5"/>
<text text-anchor="middle" x="356" y="-175.5" font-family="Helvetica,sans-Serif" font-size="10.00">gauri/scene/entity.h</text>
</a>
</g>
</g>
<!-- Node5&#45;&gt;Node6 -->
<g id="edge6" class="edge">
<title>Node5&#45;&gt;Node6</title>
<path fill="none" stroke="midnightblue" d="M356,-224.08C356,-217.01 356,-206.86 356,-197.99"/>
<polygon fill="midnightblue" stroke="midnightblue" points="359.5,-197.75 356,-187.75 352.5,-197.75 359.5,-197.75"/>
</g>
<!-- Node7 -->
<g id="node7" class="node">
<title>Node7</title>
<g id="a_node7"><a xlink:title=" ">
<polygon fill="white" stroke="#bfbfbf" points="429.5,-56.5 429.5,-75.5 486.5,-75.5 486.5,-56.5 429.5,-56.5"/>
<text text-anchor="middle" x="458" y="-63.5" font-family="Helvetica,sans-Serif" font-size="10.00">entt.hpp</text>
</a>
</g>
</g>
<!-- Node6&#45;&gt;Node7 -->
<g id="edge7" class="edge">
<title>Node6&#45;&gt;Node7</title>
<path fill="none" stroke="midnightblue" d="M372.8,-168.47C387.2,-160.52 407.8,-147.58 422,-132 434.6,-118.17 444.48,-99.15 450.68,-85.26"/>
<polygon fill="midnightblue" stroke="midnightblue" points="454,-86.38 454.68,-75.8 447.56,-83.65 454,-86.38"/>
</g>
<!-- Node8 -->
<g id="node8" class="node">
<title>Node8</title>
<g id="a_node8"><a xlink:href="base_8h.html" target="_top" xlink:title=" ">
<polygon fill="white" stroke="black" points="167.5,-112.5 167.5,-131.5 268.5,-131.5 268.5,-112.5 167.5,-112.5"/>
<text text-anchor="middle" x="218" y="-119.5" font-family="Helvetica,sans-Serif" font-size="10.00">gauri/core/base.h</text>
</a>
</g>
</g>
<!-- Node6&#45;&gt;Node8 -->
<g id="edge8" class="edge">
<title>Node6&#45;&gt;Node8</title>
<path fill="none" stroke="midnightblue" d="M334.13,-168.44C311.22,-159.48 275.02,-145.31 249.13,-135.18"/>
<polygon fill="midnightblue" stroke="midnightblue" points="250.35,-131.9 239.76,-131.52 247.8,-138.42 250.35,-131.9"/>
</g>
<!-- Node15 -->
<g id="node15" class="node">
<title>Node15</title>
<g id="a_node15"><a xlink:href="scene_8h.html" target="_top" xlink:title=" ">
<polygon fill="white" stroke="black" points="299.5,-112.5 299.5,-131.5 412.5,-131.5 412.5,-112.5 299.5,-112.5"/>
<text text-anchor="middle" x="356" y="-119.5" font-family="Helvetica,sans-Serif" font-size="10.00">gauri/scene/scene.h</text>
</a>
</g>
</g>
<!-- Node6&#45;&gt;Node15 -->
<g id="edge16" class="edge">
<title>Node6&#45;&gt;Node15</title>
<path fill="none" stroke="midnightblue" d="M356,-168.08C356,-161.01 356,-150.86 356,-141.99"/>
<polygon fill="midnightblue" stroke="midnightblue" points="359.5,-141.75 356,-131.75 352.5,-141.75 359.5,-141.75"/>
</g>
<!-- Node9 -->
<g id="node9" class="node">
<title>Node9</title>
<g id="a_node9"><a xlink:title=" ">
<polygon fill="white" stroke="#bfbfbf" points="222,-56.5 222,-75.5 272,-75.5 272,-56.5 222,-56.5"/>
<text text-anchor="middle" x="247" y="-63.5" font-family="Helvetica,sans-Serif" font-size="10.00">cstdint</text>
</a>
</g>
</g>
<!-- Node8&#45;&gt;Node9 -->
<g id="edge9" class="edge">
<title>Node8&#45;&gt;Node9</title>
<path fill="none" stroke="midnightblue" d="M222.79,-112.08C226.76,-104.69 232.53,-93.95 237.43,-84.81"/>
<polygon fill="midnightblue" stroke="midnightblue" points="240.65,-86.22 242.3,-75.75 234.49,-82.91 240.65,-86.22"/>
</g>
<!-- Node10 -->
<g id="node10" class="node">
<title>Node10</title>
<g id="a_node10"><a xlink:title=" ">
<polygon fill="white" stroke="#bfbfbf" points="24,-0.5 24,-19.5 82,-19.5 82,-0.5 24,-0.5"/>
<text text-anchor="middle" x="53" y="-7.5" font-family="Helvetica,sans-Serif" font-size="10.00">memory</text>
</a>
</g>
</g>
<!-- Node8&#45;&gt;Node10 -->
<g id="edge10" class="edge">
<title>Node8&#45;&gt;Node10</title>
<path fill="none" stroke="midnightblue" d="M167.31,-112.6C141.26,-106.17 110.37,-95.04 88,-76 73.69,-63.82 64.29,-44.27 58.87,-29.79"/>
<polygon fill="midnightblue" stroke="midnightblue" points="62.04,-28.23 55.49,-19.91 55.41,-30.5 62.04,-28.23"/>
</g>
<!-- Node11 -->
<g id="node11" class="node">
<title>Node11</title>
<g id="a_node11"><a xlink:href="logger_8h.html" target="_top" xlink:title=" ">
<polygon fill="white" stroke="black" points="96.5,-56.5 96.5,-75.5 203.5,-75.5 203.5,-56.5 96.5,-56.5"/>
<text text-anchor="middle" x="150" y="-63.5" font-family="Helvetica,sans-Serif" font-size="10.00">gauri/core/logger.h</text>
</a>
</g>
</g>
<!-- Node8&#45;&gt;Node11 -->
<g id="edge11" class="edge">
<title>Node8&#45;&gt;Node11</title>
<path fill="none" stroke="midnightblue" d="M207.07,-112.32C196.83,-104.18 181.28,-91.84 169,-82.09"/>
<polygon fill="midnightblue" stroke="midnightblue" points="171.13,-79.31 161.12,-75.83 166.78,-84.79 171.13,-79.31"/>
</g>
<!-- Node11&#45;&gt;Node10 -->
<g id="edge13" class="edge">
<title>Node11&#45;&gt;Node10</title>
<path fill="none" stroke="midnightblue" d="M134.42,-56.32C119,-47.74 95.19,-34.49 77.29,-24.52"/>
<polygon fill="midnightblue" stroke="midnightblue" points="78.99,-21.46 68.55,-19.65 75.58,-27.58 78.99,-21.46"/>
</g>
<!-- Node12 -->
<g id="node12" class="node">
<title>Node12</title>
<g id="a_node12"><a xlink:title=" ">
<polygon fill="white" stroke="#bfbfbf" points="329,-0.5 329,-19.5 379,-19.5 379,-0.5 329,-0.5"/>
<text text-anchor="middle" x="354" y="-7.5" font-family="Helvetica,sans-Serif" font-size="10.00">format</text>
</a>
</g>
</g>
<!-- Node11&#45;&gt;Node12 -->
<g id="edge12" class="edge">
<title>Node11&#45;&gt;Node12</title>
<path fill="none" stroke="midnightblue" d="M182.32,-56.44C219.66,-46.56 280.85,-30.36 319.2,-20.21"/>
<polygon fill="midnightblue" stroke="midnightblue" points="320.13,-23.59 328.9,-17.64 318.34,-16.82 320.13,-23.59"/>
</g>
<!-- Node13 -->
<g id="node13" class="node">
<title>Node13</title>
<g id="a_node13"><a xlink:title=" ">
<polygon fill="white" stroke="#bfbfbf" points="100.5,-0.5 100.5,-19.5 199.5,-19.5 199.5,-0.5 100.5,-0.5"/>
<text text-anchor="middle" x="150" y="-7.5" font-family="Helvetica,sans-Serif" font-size="10.00">spdlog/fmt/ostr.h</text>
</a>
</g>
</g>
<!-- Node11&#45;&gt;Node13 -->
<g id="edge14" class="edge">
<title>Node11&#45;&gt;Node13</title>
<path fill="none" stroke="midnightblue" d="M150,-56.08C150,-49.01 150,-38.86 150,-29.99"/>
<polygon fill="midnightblue" stroke="midnightblue" points="153.5,-29.75 150,-19.75 146.5,-29.75 153.5,-29.75"/>
</g>
<!-- Node14 -->
<g id="node14" class="node">
<title>Node14</title>
<g id="a_node14"><a xlink:title=" ">
<polygon fill="white" stroke="#bfbfbf" points="217.5,-0.5 217.5,-19.5 310.5,-19.5 310.5,-0.5 217.5,-0.5"/>
<text text-anchor="middle" x="264" y="-7.5" font-family="Helvetica,sans-Serif" font-size="10.00">spdlog/spdlog.h</text>
</a>
</g>
</g>
<!-- Node11&#45;&gt;Node14 -->
<g id="edge15" class="edge">
<title>Node11&#45;&gt;Node14</title>
<path fill="none" stroke="midnightblue" d="M168.06,-56.44C186.57,-47.68 215.58,-33.94 236.86,-23.86"/>
<polygon fill="midnightblue" stroke="midnightblue" points="238.48,-26.96 246.02,-19.52 235.49,-20.63 238.48,-26.96"/>
</g>
<!-- Node15&#45;&gt;Node7 -->
<g id="edge17" class="edge">
<title>Node15&#45;&gt;Node7</title>
<path fill="none" stroke="midnightblue" d="M372.39,-112.32C388.67,-103.7 413.87,-90.36 432.72,-80.39"/>
<polygon fill="midnightblue" stroke="midnightblue" points="434.45,-83.43 441.65,-75.65 431.18,-77.24 434.45,-83.43"/>
</g>
<!-- Node16 -->
<g id="node16" class="node">
<title>Node16</title>
<g id="a_node16"><a xlink:href="timestep_8h.html" target="_top" xlink:title=" ">
<polygon fill="white" stroke="black" points="290.5,-56.5 290.5,-75.5 411.5,-75.5 411.5,-56.5 290.5,-56.5"/>
<text text-anchor="middle" x="351" y="-63.5" font-family="Helvetica,sans-Serif" font-size="10.00">gauri/core/timestep.h</text>
</a>
</g>
</g>
<!-- Node15&#45;&gt;Node16 -->
<g id="edge18" class="edge">
<title>Node15&#45;&gt;Node16</title>
<path fill="none" stroke="midnightblue" d="M355.17,-112.08C354.52,-105.01 353.58,-94.86 352.76,-85.99"/>
<polygon fill="midnightblue" stroke="midnightblue" points="356.22,-85.39 351.81,-75.75 349.25,-86.03 356.22,-85.39"/>
</g>
</g>
</svg>
