<?xml version="1.0" encoding="UTF-8" standalone="no"?>
<!DOCTYPE svg PUBLIC "-//W3C//DTD SVG 1.1//EN"
 "http://www.w3.org/Graphics/SVG/1.1/DTD/svg11.dtd">
<!-- Generated by graphviz version 2.43.0 (0)
 -->
<!-- Title: /home/runner/work/gauri/gauri/gauri/include/gauri/scene/component.h Pages: 1 -->
<svg width="364pt" height="196pt"
 viewBox="0.00 0.00 364.00 196.00" xmlns="http://www.w3.org/2000/svg" xmlns:xlink="http://www.w3.org/1999/xlink">
<g id="graph0" class="graph" transform="scale(1 1) rotate(0) translate(4 192)">
<title>/home/runner/work/gauri/gauri/gauri/include/gauri/scene/component.h</title>
<polygon fill="white" stroke="transparent" points="-4,4 -4,-192 360,-192 360,4 -4,4"/>
<!-- Node1 -->
<g id="node1" class="node">
<title>Node1</title>
<g id="a_node1"><a xlink:title=" ">
<polygon fill="#bfbfbf" stroke="black" points="0,-168.5 0,-187.5 356,-187.5 356,-168.5 0,-168.5"/>
<text text-anchor="middle" x="178" y="-175.5" font-family="Helvetica,sans-Serif" font-size="10.00">/home/runner/work/gauri/gauri/gauri/include/gauri/scene/component.h</text>
</a>
</g>
</g>
<!-- Node2 -->
<g id="node2" class="node">
<title>Node2</title>
<g id="a_node2"><a xlink:title=" ">
<polygon fill="white" stroke="#bfbfbf" points="133,-0.5 133,-19.5 211,-19.5 211,-0.5 133,-0.5"/>
<text text-anchor="middle" x="172" y="-7.5" font-family="Helvetica,sans-Serif" font-size="10.00">glm/glm.hpp</text>
</a>
</g>
</g>
<!-- Node1&#45;&gt;Node2 -->
<g id="edge1" class="edge">
<title>Node1&#45;&gt;Node2</title>
<path fill="none" stroke="midnightblue" d="M168.98,-168.34C160.93,-159.93 149.7,-146.36 145,-132 140.56,-118.44 142.5,-79.3 149,-56 151.68,-46.39 156.52,-36.43 161.07,-28.34"/>
<polygon fill="midnightblue" stroke="midnightblue" points="164.2,-29.92 166.31,-19.53 158.19,-26.33 164.2,-29.92"/>
</g>
<!-- Node3 -->
<g id="node3" class="node">
<title>Node3</title>
<g id="a_node3"><a xlink:href="scene__camera_8h.html" target="_top" xlink:title=" ">
<polygon fill="white" stroke="black" points="153.5,-112.5 153.5,-131.5 308.5,-131.5 308.5,-112.5 153.5,-112.5"/>
<text text-anchor="middle" x="231" y="-119.5" font-family="Helvetica,sans-Serif" font-size="10.00">gauri/scene/scene_camera.h</text>
</a>
</g>
</g>
<!-- Node1&#45;&gt;Node3 -->
<g id="edge2" class="edge">
<title>Node1&#45;&gt;Node3</title>
<path fill="none" stroke="midnightblue" d="M186.75,-168.08C194.47,-160.22 205.9,-148.57 215.22,-139.08"/>
<polygon fill="midnightblue" stroke="midnightblue" points="217.9,-141.34 222.41,-131.75 212.91,-136.44 217.9,-141.34"/>
</g>
<!-- Node4 -->
<g id="node4" class="node">
<title>Node4</title>
<g id="a_node4"><a xlink:href="camera_8h.html" target="_top" xlink:title=" ">
<polygon fill="white" stroke="black" points="158,-56.5 158,-75.5 292,-75.5 292,-56.5 158,-56.5"/>
<text text-anchor="middle" x="225" y="-63.5" font-family="Helvetica,sans-Serif" font-size="10.00">gauri/renderer/camera.h</text>
</a>
</g>
</g>
<!-- Node3&#45;&gt;Node4 -->
<g id="edge3" class="edge">
<title>Node3&#45;&gt;Node4</title>
<path fill="none" stroke="midnightblue" d="M230.01,-112.08C229.21,-104.93 228.07,-94.64 227.08,-85.69"/>
<polygon fill="midnightblue" stroke="midnightblue" points="230.56,-85.3 225.97,-75.75 223.6,-86.08 230.56,-85.3"/>
</g>
<!-- Node4&#45;&gt;Node2 -->
<g id="edge4" class="edge">
<title>Node4&#45;&gt;Node2</title>
<path fill="none" stroke="midnightblue" d="M216.25,-56.08C208.53,-48.22 197.1,-36.57 187.78,-27.08"/>
<polygon fill="midnightblue" stroke="midnightblue" points="190.09,-24.44 180.59,-19.75 185.1,-29.34 190.09,-24.44"/>
</g>
</g>
</svg>
