<?xml version="1.0" encoding="UTF-8" standalone="no"?>
<!DOCTYPE svg PUBLIC "-//W3C//DTD SVG 1.1//EN"
 "http://www.w3.org/Graphics/SVG/1.1/DTD/svg11.dtd">
<!-- Generated by graphviz version 2.43.0 (0)
 -->
<!-- Title: /home/runner/work/gauri/gauri/gauri/include/gauri/scene/component.h Pages: 1 -->
<!--zoomable 476 -->
<svg id="main" version="1.1" xmlns="http://www.w3.org/2000/svg" xmlns:xlink="http://www.w3.org/1999/xlink" xml:space="preserve" onload="init(evt)">
<style type="text/css"><![CDATA[
.edge:hover path { stroke: red; }
.edge:hover polygon { stroke: red; fill: red; }
]]></style>
<script type="text/javascript"><![CDATA[
var edges = document.getElementsByTagName('g');
if (edges && edges.length) {
  for (var i=0;i<edges.length;i++) {
    if (edges[i].id.substr(0,4)=='edge') {
      edges[i].setAttribute('class','edge');
    }
  }
}
]]></script>
        <defs>
                <circle id="rim" cx="0" cy="0" r="7"/>
                <circle id="rim2" cx="0" cy="0" r="3.5"/>
                <g id="zoomPlus">
                        <use xlink:href="#rim" fill="#404040">
                                <set attributeName="fill" to="#808080" begin="zoomplus.mouseover" end="zoomplus.mouseout"/>
                        </use>
                        <path d="M-4,0h8M0,-4v8" fill="none" stroke="white" stroke-width="1.5" pointer-events="none"/>
                </g>
                <g id="zoomMin">
                        <use xlink:href="#rim" fill="#404040">
                                <set attributeName="fill" to="#808080" begin="zoomminus.mouseover" end="zoomminus.mouseout"/>
                        </use>
                        <path d="M-4,0h8" fill="none" stroke="white" stroke-width="1.5" pointer-events="none"/>
                </g>
                <g id="dirArrow">
                        <path fill="none" stroke="white" stroke-width="1.5" d="M0,-3.0v7 M-2.5,-0.5L0,-3.0L2.5,-0.5"/>
                </g>
               <g id="resetDef">
                       <use xlink:href="#rim2" fill="#404040">
                               <set attributeName="fill" to="#808080" begin="reset.mouseover" end="reset.mouseout"/>
                       </use>
               </g>
        </defs>

<script type="text/javascript">
var viewWidth = 578;
var viewHeight = 476;
var sectionId = 'dynsection-0';
</script>
<script xlink:href="svgpan.js"/>
<svg id="graph" class="graph">
<g id="viewport">
<title>/home/runner/work/gauri/gauri/gauri/include/gauri/scene/component.h</title>
<polygon fill="white" stroke="transparent" points="-4,4 -4,-472 573.86,-472 573.86,4 -4,4"/>
<!-- Node1 -->
<g id="node1" class="node">
<title>Node1</title>
<g id="a_node1"><a xlink:title=" ">
<polygon fill="#bfbfbf" stroke="black" points="97.86,-448.5 97.86,-467.5 453.86,-467.5 453.86,-448.5 97.86,-448.5"/>
<text text-anchor="middle" x="275.86" y="-455.5" font-family="Helvetica,sans-Serif" font-size="10.00">/home/runner/work/gauri/gauri/gauri/include/gauri/scene/component.h</text>
</a>
</g>
</g>
<!-- Node2 -->
<g id="node2" class="node">
<title>Node2</title>
<g id="a_node2"><a xlink:title=" ">
<polygon fill="white" stroke="#bfbfbf" points="75.86,-112.5 75.86,-131.5 153.86,-131.5 153.86,-112.5 75.86,-112.5"/>
<text text-anchor="middle" x="114.86" y="-119.5" font-family="Helvetica,sans-Serif" font-size="10.00">glm/glm.hpp</text>
</a>
</g>
</g>
<!-- Node1&#45;&gt;Node2 -->
<g id="edge1" class="edge">
<title>Node1&#45;&gt;Node2</title>
<path fill="none" stroke="midnightblue" d="M159.86,-448.49C102.4,-441.98 40.87,-430.81 19.86,-412 -2.57,-391.92 0.86,-377.1 0.86,-347 0.86,-347 0.86,-347 0.86,-233 0.86,-186.11 51.41,-152.89 85.19,-135.93"/>
<polygon fill="midnightblue" stroke="midnightblue" points="86.72,-139.07 94.21,-131.58 83.68,-132.77 86.72,-139.07"/>
</g>
<!-- Node3 -->
<g id="node3" class="node">
<title>Node3</title>
<g id="a_node3"><a xlink:title=" ">
<polygon fill="white" stroke="#bfbfbf" points="29.36,-392.5 29.36,-411.5 192.36,-411.5 192.36,-392.5 29.36,-392.5"/>
<text text-anchor="middle" x="110.86" y="-399.5" font-family="Helvetica,sans-Serif" font-size="10.00">glm/gtc/matrix_transform.hpp</text>
</a>
</g>
</g>
<!-- Node1&#45;&gt;Node3 -->
<g id="edge2" class="edge">
<title>Node1&#45;&gt;Node3</title>
<path fill="none" stroke="midnightblue" d="M249.71,-448.44C221.83,-439.32 177.51,-424.81 146.46,-414.65"/>
<polygon fill="midnightblue" stroke="midnightblue" points="147.47,-411.3 136.88,-411.52 145.29,-417.95 147.47,-411.3"/>
</g>
<!-- Node4 -->
<g id="node4" class="node">
<title>Node4</title>
<g id="a_node4"><a xlink:title=" ">
<polygon fill="white" stroke="#bfbfbf" points="210.36,-392.5 210.36,-411.5 341.36,-411.5 341.36,-392.5 210.36,-392.5"/>
<text text-anchor="middle" x="275.86" y="-399.5" font-family="Helvetica,sans-Serif" font-size="10.00">glm/gtx/quaternion.hpp</text>
</a>
</g>
</g>
<!-- Node1&#45;&gt;Node4 -->
<g id="edge3" class="edge">
<title>Node1&#45;&gt;Node4</title>
<path fill="none" stroke="midnightblue" d="M275.86,-448.08C275.86,-441.01 275.86,-430.86 275.86,-421.99"/>
<polygon fill="midnightblue" stroke="midnightblue" points="279.36,-421.75 275.86,-411.75 272.36,-421.75 279.36,-421.75"/>
</g>
<!-- Node5 -->
<g id="node5" class="node">
<title>Node5</title>
<g id="a_node5"><a xlink:href="scene__camera_8h.html" target="_top" xlink:title=" ">
<polygon fill="white" stroke="black" points="145.36,-336.5 145.36,-355.5 300.36,-355.5 300.36,-336.5 145.36,-336.5"/>
<text text-anchor="middle" x="222.86" y="-343.5" font-family="Helvetica,sans-Serif" font-size="10.00">gauri/scene/scene_camera.h</text>
</a>
</g>
</g>
<!-- Node1&#45;&gt;Node5 -->
<g id="edge4" class="edge">
<title>Node1&#45;&gt;Node5</title>
<path fill="none" stroke="midnightblue" d="M300.01,-448.36C327.59,-437.11 366.83,-416.02 349.86,-392 338.37,-375.74 320.48,-365.32 301.71,-358.65"/>
<polygon fill="midnightblue" stroke="midnightblue" points="302.75,-355.3 292.15,-355.58 300.61,-361.97 302.75,-355.3"/>
</g>
<!-- Node7 -->
<g id="node7" class="node">
<title>Node7</title>
<g id="a_node7"><a xlink:href="scriptable__entity_8h.html" target="_top" xlink:title=" ">
<polygon fill="white" stroke="black" points="398.36,-392.5 398.36,-411.5 563.36,-411.5 563.36,-392.5 398.36,-392.5"/>
<text text-anchor="middle" x="480.86" y="-399.5" font-family="Helvetica,sans-Serif" font-size="10.00">gauri/scene/scriptable_entity.h</text>
</a>
</g>
</g>
<!-- Node1&#45;&gt;Node7 -->
<g id="edge7" class="edge">
<title>Node1&#45;&gt;Node7</title>
<path fill="none" stroke="midnightblue" d="M308.34,-448.44C343.58,-439.16 399.96,-424.31 438.61,-414.13"/>
<polygon fill="midnightblue" stroke="midnightblue" points="439.75,-417.45 448.53,-411.52 437.96,-410.68 439.75,-417.45"/>
</g>
<!-- Node6 -->
<g id="node6" class="node">
<title>Node6</title>
<g id="a_node6"><a xlink:href="camera_8h.html" target="_top" xlink:title=" ">
<polygon fill="white" stroke="black" points="47.86,-168.5 47.86,-187.5 181.86,-187.5 181.86,-168.5 47.86,-168.5"/>
<text text-anchor="middle" x="114.86" y="-175.5" font-family="Helvetica,sans-Serif" font-size="10.00">gauri/renderer/camera.h</text>
</a>
</g>
</g>
<!-- Node5&#45;&gt;Node6 -->
<g id="edge5" class="edge">
<title>Node5&#45;&gt;Node6</title>
<path fill="none" stroke="midnightblue" d="M217.05,-336.08C199.83,-309.61 148.82,-231.21 126.05,-196.21"/>
<polygon fill="midnightblue" stroke="midnightblue" points="128.82,-194.04 120.43,-187.57 122.95,-197.86 128.82,-194.04"/>
</g>
<!-- Node6&#45;&gt;Node2 -->
<g id="edge6" class="edge">
<title>Node6&#45;&gt;Node2</title>
<path fill="none" stroke="midnightblue" d="M114.86,-168.08C114.86,-161.01 114.86,-150.86 114.86,-141.99"/>
<polygon fill="midnightblue" stroke="midnightblue" points="118.36,-141.75 114.86,-131.75 111.36,-141.75 118.36,-141.75"/>
</g>
<!-- Node8 -->
<g id="node8" class="node">
<title>Node8</title>
<g id="a_node8"><a xlink:href="entity_8h.html" target="_top" xlink:title=" ">
<polygon fill="white" stroke="black" points="424.86,-336.5 424.86,-355.5 536.86,-355.5 536.86,-336.5 424.86,-336.5"/>
<text text-anchor="middle" x="480.86" y="-343.5" font-family="Helvetica,sans-Serif" font-size="10.00">gauri/scene/entity.h</text>
</a>
</g>
</g>
<!-- Node7&#45;&gt;Node8 -->
<g id="edge8" class="edge">
<title>Node7&#45;&gt;Node8</title>
<path fill="none" stroke="midnightblue" d="M480.86,-392.08C480.86,-385.01 480.86,-374.86 480.86,-365.99"/>
<polygon fill="midnightblue" stroke="midnightblue" points="484.36,-365.75 480.86,-355.75 477.36,-365.75 484.36,-365.75"/>
</g>
<!-- Node9 -->
<g id="node9" class="node">
<title>Node9</title>
<g id="a_node9"><a xlink:title=" ">
<polygon fill="white" stroke="#bfbfbf" points="433.36,-224.5 433.36,-243.5 490.36,-243.5 490.36,-224.5 433.36,-224.5"/>
<text text-anchor="middle" x="461.86" y="-231.5" font-family="Helvetica,sans-Serif" font-size="10.00">entt.hpp</text>
</a>
</g>
</g>
<!-- Node8&#45;&gt;Node9 -->
<g id="edge9" class="edge">
<title>Node8&#45;&gt;Node9</title>
<path fill="none" stroke="midnightblue" d="M479.37,-336.37C476.3,-318.62 469.23,-277.67 465.07,-253.6"/>
<polygon fill="midnightblue" stroke="midnightblue" points="468.49,-252.85 463.34,-243.59 461.59,-254.04 468.49,-252.85"/>
</g>
<!-- Node10 -->
<g id="node10" class="node">
<title>Node10</title>
<g id="a_node10"><a xlink:href="base_8h.html" target="_top" xlink:title=" ">
<polygon fill="white" stroke="black" points="449.36,-112.5 449.36,-131.5 550.36,-131.5 550.36,-112.5 449.36,-112.5"/>
<text text-anchor="middle" x="499.86" y="-119.5" font-family="Helvetica,sans-Serif" font-size="10.00">gauri/core/base.h</text>
</a>
</g>
</g>
<!-- Node8&#45;&gt;Node10 -->
<g id="edge10" class="edge">
<title>Node8&#45;&gt;Node10</title>
<path fill="none" stroke="midnightblue" d="M483.03,-336.43C487.29,-319.11 496.63,-278.64 499.86,-244 503.22,-207.87 502.05,-165.41 500.93,-141.61"/>
<polygon fill="midnightblue" stroke="midnightblue" points="504.42,-141.34 500.4,-131.53 497.43,-141.7 504.42,-141.34"/>
</g>
<!-- Node17 -->
<g id="node17" class="node">
<title>Node17</title>
<g id="a_node17"><a xlink:href="scene_8h.html" target="_top" xlink:title=" ">
<polygon fill="white" stroke="black" points="339.36,-280.5 339.36,-299.5 452.36,-299.5 452.36,-280.5 339.36,-280.5"/>
<text text-anchor="middle" x="395.86" y="-287.5" font-family="Helvetica,sans-Serif" font-size="10.00">gauri/scene/scene.h</text>
</a>
</g>
</g>
<!-- Node8&#45;&gt;Node17 -->
<g id="edge18" class="edge">
<title>Node8&#45;&gt;Node17</title>
<path fill="none" stroke="midnightblue" d="M467.2,-336.32C453.94,-327.9 433.59,-314.97 418.01,-305.07"/>
<polygon fill="midnightblue" stroke="midnightblue" points="419.8,-302.06 409.48,-299.65 416.04,-307.97 419.8,-302.06"/>
</g>
<!-- Node11 -->
<g id="node11" class="node">
<title>Node11</title>
<g id="a_node11"><a xlink:title=" ">
<polygon fill="white" stroke="#bfbfbf" points="307.86,-56.5 307.86,-75.5 357.86,-75.5 357.86,-56.5 307.86,-56.5"/>
<text text-anchor="middle" x="332.86" y="-63.5" font-family="Helvetica,sans-Serif" font-size="10.00">cstdint</text>
</a>
</g>
</g>
<!-- Node10&#45;&gt;Node11 -->
<g id="edge11" class="edge">
<title>Node10&#45;&gt;Node11</title>
<path fill="none" stroke="midnightblue" d="M473.39,-112.44C444.85,-103.21 399.26,-88.47 367.78,-78.29"/>
<polygon fill="midnightblue" stroke="midnightblue" points="368.69,-74.91 358.1,-75.16 366.54,-81.57 368.69,-74.91"/>
</g>
<!-- Node12 -->
<g id="node12" class="node">
<title>Node12</title>
<g id="a_node12"><a xlink:title=" ">
<polygon fill="white" stroke="#bfbfbf" points="511.86,-0.5 511.86,-19.5 569.86,-19.5 569.86,-0.5 511.86,-0.5"/>
<text text-anchor="middle" x="540.86" y="-7.5" font-family="Helvetica,sans-Serif" font-size="10.00">memory</text>
</a>
</g>
</g>
<!-- Node10&#45;&gt;Node12 -->
<g id="edge12" class="edge">
<title>Node10&#45;&gt;Node12</title>
<path fill="none" stroke="midnightblue" d="M504.7,-112.24C509.49,-103.31 516.83,-88.97 521.86,-76 527.83,-60.58 532.97,-42.49 536.4,-29.31"/>
<polygon fill="midnightblue" stroke="midnightblue" points="539.8,-30.12 538.85,-19.57 533.01,-28.41 539.8,-30.12"/>
</g>
<!-- Node13 -->
<g id="node13" class="node">
<title>Node13</title>
<g id="a_node13"><a xlink:href="logger_8h.html" target="_top" xlink:title=" ">
<polygon fill="white" stroke="black" points="405.36,-56.5 405.36,-75.5 512.36,-75.5 512.36,-56.5 405.36,-56.5"/>
<text text-anchor="middle" x="458.86" y="-63.5" font-family="Helvetica,sans-Serif" font-size="10.00">gauri/core/logger.h</text>
</a>
</g>
</g>
<!-- Node10&#45;&gt;Node13 -->
<g id="edge13" class="edge">
<title>Node10&#45;&gt;Node13</title>
<path fill="none" stroke="midnightblue" d="M493.09,-112.08C487.29,-104.46 478.8,-93.26 471.72,-83.94"/>
<polygon fill="midnightblue" stroke="midnightblue" points="474.34,-81.6 465.5,-75.75 468.76,-85.83 474.34,-81.6"/>
</g>
<!-- Node13&#45;&gt;Node12 -->
<g id="edge15" class="edge">
<title>Node13&#45;&gt;Node12</title>
<path fill="none" stroke="midnightblue" d="M472.03,-56.32C484.7,-47.98 504.09,-35.21 519.06,-25.35"/>
<polygon fill="midnightblue" stroke="midnightblue" points="521.29,-28.08 527.71,-19.65 517.44,-22.23 521.29,-28.08"/>
</g>
<!-- Node14 -->
<g id="node14" class="node">
<title>Node14</title>
<g id="a_node14"><a xlink:title=" ">
<polygon fill="white" stroke="#bfbfbf" points="443.86,-0.5 443.86,-19.5 493.86,-19.5 493.86,-0.5 443.86,-0.5"/>
<text text-anchor="middle" x="468.86" y="-7.5" font-family="Helvetica,sans-Serif" font-size="10.00">format</text>
</a>
</g>
</g>
<!-- Node13&#45;&gt;Node14 -->
<g id="edge14" class="edge">
<title>Node13&#45;&gt;Node14</title>
<path fill="none" stroke="midnightblue" d="M460.51,-56.08C461.83,-48.93 463.74,-38.64 465.39,-29.69"/>
<polygon fill="midnightblue" stroke="midnightblue" points="468.86,-30.22 467.24,-19.75 461.97,-28.95 468.86,-30.22"/>
</g>
<!-- Node15 -->
<g id="node15" class="node">
<title>Node15</title>
<g id="a_node15"><a xlink:title=" ">
<polygon fill="white" stroke="#bfbfbf" points="215.36,-0.5 215.36,-19.5 314.36,-19.5 314.36,-0.5 215.36,-0.5"/>
<text text-anchor="middle" x="264.86" y="-7.5" font-family="Helvetica,sans-Serif" font-size="10.00">spdlog/fmt/ostr.h</text>
</a>
</g>
</g>
<!-- Node13&#45;&gt;Node15 -->
<g id="edge16" class="edge">
<title>Node13&#45;&gt;Node15</title>
<path fill="none" stroke="midnightblue" d="M428.12,-56.44C394.91,-47.2 341.87,-32.44 305.3,-22.26"/>
<polygon fill="midnightblue" stroke="midnightblue" points="306.02,-18.83 295.45,-19.52 304.15,-25.57 306.02,-18.83"/>
</g>
<!-- Node16 -->
<g id="node16" class="node">
<title>Node16</title>
<g id="a_node16"><a xlink:title=" ">
<polygon fill="white" stroke="#bfbfbf" points="332.36,-0.5 332.36,-19.5 425.36,-19.5 425.36,-0.5 332.36,-0.5"/>
<text text-anchor="middle" x="378.86" y="-7.5" font-family="Helvetica,sans-Serif" font-size="10.00">spdlog/spdlog.h</text>
</a>
</g>
</g>
<!-- Node13&#45;&gt;Node16 -->
<g id="edge17" class="edge">
<title>Node13&#45;&gt;Node16</title>
<path fill="none" stroke="midnightblue" d="M446,-56.32C433.64,-47.98 414.73,-35.21 400.12,-25.35"/>
<polygon fill="midnightblue" stroke="midnightblue" points="401.92,-22.35 391.68,-19.65 398.01,-28.15 401.92,-22.35"/>
</g>
<!-- Node17&#45;&gt;Node9 -->
<g id="edge19" class="edge">
<title>Node17&#45;&gt;Node9</title>
<path fill="none" stroke="midnightblue" d="M406.46,-280.32C416.31,-272.26 431.21,-260.08 443.07,-250.37"/>
<polygon fill="midnightblue" stroke="midnightblue" points="445.54,-252.88 451.06,-243.83 441.1,-247.46 445.54,-252.88"/>
</g>
<!-- Node18 -->
<g id="node18" class="node">
<title>Node18</title>
<g id="a_node18"><a xlink:href="timestep_8h.html" target="_top" xlink:title=" ">
<polygon fill="white" stroke="black" points="368.36,-168.5 368.36,-187.5 489.36,-187.5 489.36,-168.5 368.36,-168.5"/>
<text text-anchor="middle" x="428.86" y="-175.5" font-family="Helvetica,sans-Serif" font-size="10.00">gauri/core/timestep.h</text>
</a>
</g>
</g>
<!-- Node17&#45;&gt;Node18 -->
<g id="edge20" class="edge">
<title>Node17&#45;&gt;Node18</title>
<path fill="none" stroke="midnightblue" d="M398.45,-280.37C403.79,-262.54 416.17,-221.3 423.37,-197.27"/>
<polygon fill="midnightblue" stroke="midnightblue" points="426.76,-198.18 426.28,-187.59 420.05,-196.16 426.76,-198.18"/>
</g>
<!-- Node19 -->
<g id="node19" class="node">
<title>Node19</title>
<g id="a_node19"><a xlink:href="editor__camera_8h.html" target="_top" xlink:title=" ">
<polygon fill="white" stroke="black" points="208.86,-224.5 208.86,-243.5 376.86,-243.5 376.86,-224.5 208.86,-224.5"/>
<text text-anchor="middle" x="292.86" y="-231.5" font-family="Helvetica,sans-Serif" font-size="10.00">gauri/renderer/editor_camera.h</text>
</a>
</g>
</g>
<!-- Node17&#45;&gt;Node19 -->
<g id="edge21" class="edge">
<title>Node17&#45;&gt;Node19</title>
<path fill="none" stroke="midnightblue" d="M379.31,-280.32C362.86,-271.7 337.42,-258.36 318.39,-248.39"/>
<polygon fill="midnightblue" stroke="midnightblue" points="319.85,-245.2 309.36,-243.65 316.6,-251.4 319.85,-245.2"/>
</g>
<!-- Node19&#45;&gt;Node2 -->
<g id="edge22" class="edge">
<title>Node19&#45;&gt;Node2</title>
<path fill="none" stroke="midnightblue" d="M279.74,-224.45C260.4,-211.88 223.06,-187.79 190.86,-168 173.44,-157.3 153.55,-145.54 138.49,-136.72"/>
<polygon fill="midnightblue" stroke="midnightblue" points="140.2,-133.67 129.8,-131.65 136.67,-139.72 140.2,-133.67"/>
</g>
<!-- Node19&#45;&gt;Node6 -->
<g id="edge30" class="edge">
<title>Node19&#45;&gt;Node6</title>
<path fill="none" stroke="midnightblue" d="M264.65,-224.44C234.45,-215.28 186.34,-200.69 152.83,-190.52"/>
<polygon fill="midnightblue" stroke="midnightblue" points="153.51,-187.07 142.93,-187.52 151.48,-193.77 153.51,-187.07"/>
</g>
<!-- Node19&#45;&gt;Node18 -->
<g id="edge23" class="edge">
<title>Node19&#45;&gt;Node18</title>
<path fill="none" stroke="midnightblue" d="M314.41,-224.44C336.89,-215.52 372.34,-201.44 397.84,-191.32"/>
<polygon fill="midnightblue" stroke="midnightblue" points="399.4,-194.46 407.41,-187.52 396.82,-187.95 399.4,-194.46"/>
</g>
<!-- Node20 -->
<g id="node20" class="node">
<title>Node20</title>
<g id="a_node20"><a xlink:href="event_8h.html" target="_top" xlink:title=" ">
<polygon fill="white" stroke="black" points="237.86,-168.5 237.86,-187.5 349.86,-187.5 349.86,-168.5 237.86,-168.5"/>
<text text-anchor="middle" x="293.86" y="-175.5" font-family="Helvetica,sans-Serif" font-size="10.00">gauri/event/event.h</text>
</a>
</g>
</g>
<!-- Node19&#45;&gt;Node20 -->
<g id="edge24" class="edge">
<title>Node19&#45;&gt;Node20</title>
<path fill="none" stroke="midnightblue" d="M293.02,-224.08C293.15,-217.01 293.34,-206.86 293.5,-197.99"/>
<polygon fill="midnightblue" stroke="midnightblue" points="297.01,-197.81 293.69,-187.75 290.01,-197.68 297.01,-197.81"/>
</g>
<!-- Node20&#45;&gt;Node10 -->
<g id="edge29" class="edge">
<title>Node20&#45;&gt;Node10</title>
<path fill="none" stroke="midnightblue" d="M326.5,-168.44C361.91,-159.16 418.57,-144.31 457.41,-134.13"/>
<polygon fill="midnightblue" stroke="midnightblue" points="458.58,-137.44 467.37,-131.52 456.81,-130.67 458.58,-137.44"/>
</g>
<!-- Node20&#45;&gt;Node11 -->
<g id="edge25" class="edge">
<title>Node20&#45;&gt;Node11</title>
<path fill="none" stroke="midnightblue" d="M289.06,-168.19C282.74,-155.31 273.36,-130.83 281.86,-112 287.47,-99.56 298.42,-89.17 308.74,-81.53"/>
<polygon fill="midnightblue" stroke="midnightblue" points="310.86,-84.31 317.12,-75.76 306.9,-78.54 310.86,-84.31"/>
</g>
<!-- Node21 -->
<g id="node21" class="node">
<title>Node21</title>
<g id="a_node21"><a xlink:title=" ">
<polygon fill="white" stroke="#bfbfbf" points="291.36,-112.5 291.36,-131.5 356.36,-131.5 356.36,-112.5 291.36,-112.5"/>
<text text-anchor="middle" x="323.86" y="-119.5" font-family="Helvetica,sans-Serif" font-size="10.00">functional</text>
</a>
</g>
</g>
<!-- Node20&#45;&gt;Node21 -->
<g id="edge26" class="edge">
<title>Node20&#45;&gt;Node21</title>
<path fill="none" stroke="midnightblue" d="M298.81,-168.08C302.96,-160.61 309.01,-149.72 314.12,-140.52"/>
<polygon fill="midnightblue" stroke="midnightblue" points="317.2,-142.19 318.99,-131.75 311.08,-138.79 317.2,-142.19"/>
</g>
<!-- Node22 -->
<g id="node22" class="node">
<title>Node22</title>
<g id="a_node22"><a xlink:title=" ">
<polygon fill="white" stroke="#bfbfbf" points="374.86,-112.5 374.86,-131.5 430.86,-131.5 430.86,-112.5 374.86,-112.5"/>
<text text-anchor="middle" x="402.86" y="-119.5" font-family="Helvetica,sans-Serif" font-size="10.00">sstream</text>
</a>
</g>
</g>
<!-- Node20&#45;&gt;Node22 -->
<g id="edge27" class="edge">
<title>Node20&#45;&gt;Node22</title>
<path fill="none" stroke="midnightblue" d="M311.37,-168.32C328.93,-159.62 356.19,-146.12 376.39,-136.11"/>
<polygon fill="midnightblue" stroke="midnightblue" points="377.98,-139.23 385.39,-131.65 374.87,-132.96 377.98,-139.23"/>
</g>
<!-- Node23 -->
<g id="node23" class="node">
<title>Node23</title>
<g id="a_node23"><a xlink:title=" ">
<polygon fill="white" stroke="#bfbfbf" points="190.86,-112.5 190.86,-131.5 234.86,-131.5 234.86,-112.5 190.86,-112.5"/>
<text text-anchor="middle" x="212.86" y="-119.5" font-family="Helvetica,sans-Serif" font-size="10.00">string</text>
</a>
</g>
</g>
<!-- Node20&#45;&gt;Node23 -->
<g id="edge28" class="edge">
<title>Node20&#45;&gt;Node23</title>
<path fill="none" stroke="midnightblue" d="M280.84,-168.32C268.32,-159.98 249.17,-147.21 234.38,-137.35"/>
<polygon fill="midnightblue" stroke="midnightblue" points="236.1,-134.29 225.84,-131.65 232.22,-140.11 236.1,-134.29"/>
</g>
</g>
</svg>
        <g id="navigator" transform="translate(0 0)" fill="#404254">
                <rect fill="#f2f5e9" fill-opacity="0.5" stroke="#606060" stroke-width=".5" x="0" y="0" width="60" height="60"/>
                <use id="zoomplus" xlink:href="#zoomPlus" x="17" y="9" onmousedown="handleZoom(evt,'in')"/>
                <use id="zoomminus" xlink:href="#zoomMin" x="42" y="9" onmousedown="handleZoom(evt,'out')"/>
                <use id="reset" xlink:href="#resetDef" x="30" y="36" onmousedown="handleReset()"/>
                <g id="arrowUp" xlink:href="#dirArrow" transform="translate(30 24)" onmousedown="handlePan(0,-1)">
                  <use xlink:href="#rim" fill="#404040">
                        <set attributeName="fill" to="#808080" begin="arrowUp.mouseover" end="arrowUp.mouseout"/>
                  </use>
                  <path fill="none" stroke="white" stroke-width="1.5" d="M0,-3.0v7 M-2.5,-0.5L0,-3.0L2.5,-0.5"/>
                </g>
                <g id="arrowRight" xlink:href="#dirArrow" transform="rotate(90) translate(36 -43)" onmousedown="handlePan(1,0)">
                  <use xlink:href="#rim" fill="#404040">
                        <set attributeName="fill" to="#808080" begin="arrowRight.mouseover" end="arrowRight.mouseout"/>
                  </use>
                  <path fill="none" stroke="white" stroke-width="1.5" d="M0,-3.0v7 M-2.5,-0.5L0,-3.0L2.5,-0.5"/>
                </g>
                <g id="arrowDown" xlink:href="#dirArrow" transform="rotate(180) translate(-30 -48)" onmousedown="handlePan(0,1)">
                  <use xlink:href="#rim" fill="#404040">
                        <set attributeName="fill" to="#808080" begin="arrowDown.mouseover" end="arrowDown.mouseout"/>
                  </use>
                  <path fill="none" stroke="white" stroke-width="1.5" d="M0,-3.0v7 M-2.5,-0.5L0,-3.0L2.5,-0.5"/>
                </g>
                <g id="arrowLeft" xlink:href="#dirArrow" transform="rotate(270) translate(-36 17)" onmousedown="handlePan(-1,0)">
                  <use xlink:href="#rim" fill="#404040">
                        <set attributeName="fill" to="#808080" begin="arrowLeft.mouseover" end="arrowLeft.mouseout"/>
                  </use>
                  <path fill="none" stroke="white" stroke-width="1.5" d="M0,-3.0v7 M-2.5,-0.5L0,-3.0L2.5,-0.5"/>
                </g>
        </g>
        <svg viewBox="0 0 15 15" width="100%" height="30px" preserveAspectRatio="xMaxYMin meet">
         <g id="arrow_out" transform="scale(0.3 0.3)">
          <a xlink:href="component_8h__incl_org.svg" target="_base">
           <rect id="button" ry="5" rx="5" y="6" x="6" height="38" width="38"
                fill="#f2f5e9" fill-opacity="0.5" stroke="#606060" stroke-width="1.0"/>
           <path id="arrow"
             d="M 11.500037,31.436501 C 11.940474,20.09759 22.043105,11.32322 32.158766,21.979434 L 37.068811,17.246167 C 37.068811,17.246167 37.088388,32 37.088388,32 L 22.160133,31.978069 C 22.160133,31.978069 26.997745,27.140456 26.997745,27.140456 C 18.528582,18.264221 13.291696,25.230495 11.500037,31.436501 z"
             style="fill:#404040;"/>
          </a>
         </g>
        </svg>
</svg>
