<?xml version="1.0" encoding="UTF-8" standalone="no"?>
<!DOCTYPE svg PUBLIC "-//W3C//DTD SVG 1.1//EN"
 "http://www.w3.org/Graphics/SVG/1.1/DTD/svg11.dtd">
<!-- Generated by graphviz version 2.43.0 (0)
 -->
<!-- Title: /home/runner/work/gauri/gauri/gauri/include/gauri/scene/component.h Pages: 1 -->
<!--zoomable 308 -->
<svg id="main" version="1.1" xmlns="http://www.w3.org/2000/svg" xmlns:xlink="http://www.w3.org/1999/xlink" xml:space="preserve" onload="init(evt)">
<style type="text/css"><![CDATA[
.edge:hover path { stroke: red; }
.edge:hover polygon { stroke: red; fill: red; }
]]></style>
<script type="text/javascript"><![CDATA[
var edges = document.getElementsByTagName('g');
if (edges && edges.length) {
  for (var i=0;i<edges.length;i++) {
    if (edges[i].id.substr(0,4)=='edge') {
      edges[i].setAttribute('class','edge');
    }
  }
}
]]></script>
        <defs>
                <circle id="rim" cx="0" cy="0" r="7"/>
                <circle id="rim2" cx="0" cy="0" r="3.5"/>
                <g id="zoomPlus">
                        <use xlink:href="#rim" fill="#404040">
                                <set attributeName="fill" to="#808080" begin="zoomplus.mouseover" end="zoomplus.mouseout"/>
                        </use>
                        <path d="M-4,0h8M0,-4v8" fill="none" stroke="white" stroke-width="1.5" pointer-events="none"/>
                </g>
                <g id="zoomMin">
                        <use xlink:href="#rim" fill="#404040">
                                <set attributeName="fill" to="#808080" begin="zoomminus.mouseover" end="zoomminus.mouseout"/>
                        </use>
                        <path d="M-4,0h8" fill="none" stroke="white" stroke-width="1.5" pointer-events="none"/>
                </g>
                <g id="dirArrow">
                        <path fill="none" stroke="white" stroke-width="1.5" d="M0,-3.0v7 M-2.5,-0.5L0,-3.0L2.5,-0.5"/>
                </g>
               <g id="resetDef">
                       <use xlink:href="#rim2" fill="#404040">
                               <set attributeName="fill" to="#808080" begin="reset.mouseover" end="reset.mouseout"/>
                       </use>
               </g>
        </defs>

<script type="text/javascript">
var viewWidth = 744;
var viewHeight = 308;
var sectionId = 'dynsection-0';
</script>
<script xlink:href="svgpan.js"/>
<svg id="graph" class="graph">
<g id="viewport">
<title>/home/runner/work/gauri/gauri/gauri/include/gauri/scene/component.h</title>
<polygon fill="white" stroke="transparent" points="-4,4 -4,-304 739.98,-304 739.98,4 -4,4"/>
<!-- Node1 -->
<g id="node1" class="node">
<title>Node1</title>
<g id="a_node1"><a xlink:title=" ">
<polygon fill="#bfbfbf" stroke="black" points="88.48,-280.5 88.48,-299.5 444.48,-299.5 444.48,-280.5 88.48,-280.5"/>
<text text-anchor="middle" x="266.48" y="-287.5" font-family="Helvetica,sans-Serif" font-size="10.00">/home/runner/work/gauri/gauri/gauri/include/gauri/scene/component.h</text>
</a>
</g>
</g>
<!-- Node2 -->
<g id="node2" class="node">
<title>Node2</title>
<g id="a_node2"><a xlink:title=" ">
<polygon fill="white" stroke="#bfbfbf" points="140.48,-112.5 140.48,-131.5 218.48,-131.5 218.48,-112.5 140.48,-112.5"/>
<text text-anchor="middle" x="179.48" y="-119.5" font-family="Helvetica,sans-Serif" font-size="10.00">glm/glm.hpp</text>
</a>
</g>
</g>
<!-- Node1&#45;&gt;Node2 -->
<g id="edge1" class="edge">
<title>Node1&#45;&gt;Node2</title>
<path fill="none" stroke="midnightblue" d="M128.28,-280.46C76.62,-274.14 26.55,-263.14 10.48,-244 -32.14,-193.24 73.39,-153.03 136.43,-134.36"/>
<polygon fill="midnightblue" stroke="midnightblue" points="137.51,-137.69 146.15,-131.55 135.57,-130.97 137.51,-137.69"/>
</g>
<!-- Node3 -->
<g id="node3" class="node">
<title>Node3</title>
<g id="a_node3"><a xlink:title=" ">
<polygon fill="white" stroke="#bfbfbf" points="19.98,-224.5 19.98,-243.5 182.98,-243.5 182.98,-224.5 19.98,-224.5"/>
<text text-anchor="middle" x="101.48" y="-231.5" font-family="Helvetica,sans-Serif" font-size="10.00">glm/gtc/matrix_transform.hpp</text>
</a>
</g>
</g>
<!-- Node1&#45;&gt;Node3 -->
<g id="edge2" class="edge">
<title>Node1&#45;&gt;Node3</title>
<path fill="none" stroke="midnightblue" d="M240.33,-280.44C212.46,-271.32 168.13,-256.81 137.08,-246.65"/>
<polygon fill="midnightblue" stroke="midnightblue" points="138.09,-243.3 127.5,-243.52 135.92,-249.95 138.09,-243.3"/>
</g>
<!-- Node4 -->
<g id="node4" class="node">
<title>Node4</title>
<g id="a_node4"><a xlink:title=" ">
<polygon fill="white" stroke="#bfbfbf" points="200.98,-224.5 200.98,-243.5 331.98,-243.5 331.98,-224.5 200.98,-224.5"/>
<text text-anchor="middle" x="266.48" y="-231.5" font-family="Helvetica,sans-Serif" font-size="10.00">glm/gtx/quaternion.hpp</text>
</a>
</g>
</g>
<!-- Node1&#45;&gt;Node4 -->
<g id="edge3" class="edge">
<title>Node1&#45;&gt;Node4</title>
<path fill="none" stroke="midnightblue" d="M266.48,-280.08C266.48,-273.01 266.48,-262.86 266.48,-253.99"/>
<polygon fill="midnightblue" stroke="midnightblue" points="269.98,-253.75 266.48,-243.75 262.98,-253.75 269.98,-253.75"/>
</g>
<!-- Node5 -->
<g id="node5" class="node">
<title>Node5</title>
<g id="a_node5"><a xlink:href="scene__camera_8h.html" target="_top" xlink:title=" ">
<polygon fill="white" stroke="black" points="349.98,-224.5 349.98,-243.5 504.98,-243.5 504.98,-224.5 349.98,-224.5"/>
<text text-anchor="middle" x="427.48" y="-231.5" font-family="Helvetica,sans-Serif" font-size="10.00">gauri/scene/scene_camera.h</text>
</a>
</g>
</g>
<!-- Node1&#45;&gt;Node5 -->
<g id="edge4" class="edge">
<title>Node1&#45;&gt;Node5</title>
<path fill="none" stroke="midnightblue" d="M291.99,-280.44C319.07,-271.36 362.07,-256.94 392.35,-246.78"/>
<polygon fill="midnightblue" stroke="midnightblue" points="393.72,-250.01 402.09,-243.52 391.49,-243.38 393.72,-250.01"/>
</g>
<!-- Node7 -->
<g id="node7" class="node">
<title>Node7</title>
<g id="a_node7"><a xlink:href="scriptable__entity_8h.html" target="_top" xlink:title=" ">
<polygon fill="white" stroke="black" points="522.98,-224.5 522.98,-243.5 687.98,-243.5 687.98,-224.5 522.98,-224.5"/>
<text text-anchor="middle" x="605.48" y="-231.5" font-family="Helvetica,sans-Serif" font-size="10.00">gauri/scene/scriptable_entity.h</text>
</a>
</g>
</g>
<!-- Node1&#45;&gt;Node7 -->
<g id="edge7" class="edge">
<title>Node1&#45;&gt;Node7</title>
<path fill="none" stroke="midnightblue" d="M320.19,-280.44C380.45,-270.85 478.09,-255.29 542.05,-245.1"/>
<polygon fill="midnightblue" stroke="midnightblue" points="542.69,-248.55 552.01,-243.52 541.59,-241.63 542.69,-248.55"/>
</g>
<!-- Node6 -->
<g id="node6" class="node">
<title>Node6</title>
<g id="a_node6"><a xlink:href="camera_8h.html" target="_top" xlink:title=" ">
<polygon fill="white" stroke="black" points="295.48,-168.5 295.48,-187.5 429.48,-187.5 429.48,-168.5 295.48,-168.5"/>
<text text-anchor="middle" x="362.48" y="-175.5" font-family="Helvetica,sans-Serif" font-size="10.00">gauri/renderer/camera.h</text>
</a>
</g>
</g>
<!-- Node5&#45;&gt;Node6 -->
<g id="edge5" class="edge">
<title>Node5&#45;&gt;Node6</title>
<path fill="none" stroke="midnightblue" d="M417.04,-224.32C407.33,-216.26 392.66,-204.08 380.98,-194.37"/>
<polygon fill="midnightblue" stroke="midnightblue" points="383.04,-191.53 373.11,-187.83 378.57,-196.92 383.04,-191.53"/>
</g>
<!-- Node6&#45;&gt;Node2 -->
<g id="edge6" class="edge">
<title>Node6&#45;&gt;Node2</title>
<path fill="none" stroke="midnightblue" d="M333.48,-168.44C302.29,-159.24 252.55,-144.56 218.07,-134.39"/>
<polygon fill="midnightblue" stroke="midnightblue" points="218.92,-130.99 208.34,-131.52 216.94,-137.7 218.92,-130.99"/>
</g>
<!-- Node8 -->
<g id="node8" class="node">
<title>Node8</title>
<g id="a_node8"><a xlink:href="entity_8h.html" target="_top" xlink:title=" ">
<polygon fill="white" stroke="black" points="549.48,-168.5 549.48,-187.5 661.48,-187.5 661.48,-168.5 549.48,-168.5"/>
<text text-anchor="middle" x="605.48" y="-175.5" font-family="Helvetica,sans-Serif" font-size="10.00">gauri/scene/entity.h</text>
</a>
</g>
</g>
<!-- Node7&#45;&gt;Node8 -->
<g id="edge8" class="edge">
<title>Node7&#45;&gt;Node8</title>
<path fill="none" stroke="midnightblue" d="M605.48,-224.08C605.48,-217.01 605.48,-206.86 605.48,-197.99"/>
<polygon fill="midnightblue" stroke="midnightblue" points="608.98,-197.75 605.48,-187.75 601.98,-197.75 608.98,-197.75"/>
</g>
<!-- Node9 -->
<g id="node9" class="node">
<title>Node9</title>
<g id="a_node9"><a xlink:title=" ">
<polygon fill="white" stroke="#bfbfbf" points="678.98,-56.5 678.98,-75.5 735.98,-75.5 735.98,-56.5 678.98,-56.5"/>
<text text-anchor="middle" x="707.48" y="-63.5" font-family="Helvetica,sans-Serif" font-size="10.00">entt.hpp</text>
</a>
</g>
</g>
<!-- Node8&#45;&gt;Node9 -->
<g id="edge9" class="edge">
<title>Node8&#45;&gt;Node9</title>
<path fill="none" stroke="midnightblue" d="M622.28,-168.47C636.67,-160.52 657.28,-147.58 671.48,-132 684.08,-118.17 693.96,-99.15 700.15,-85.26"/>
<polygon fill="midnightblue" stroke="midnightblue" points="703.48,-86.38 704.16,-75.8 697.04,-83.65 703.48,-86.38"/>
</g>
<!-- Node10 -->
<g id="node10" class="node">
<title>Node10</title>
<g id="a_node10"><a xlink:href="base_8h.html" target="_top" xlink:title=" ">
<polygon fill="white" stroke="black" points="388.98,-112.5 388.98,-131.5 489.98,-131.5 489.98,-112.5 388.98,-112.5"/>
<text text-anchor="middle" x="439.48" y="-119.5" font-family="Helvetica,sans-Serif" font-size="10.00">gauri/core/base.h</text>
</a>
</g>
</g>
<!-- Node8&#45;&gt;Node10 -->
<g id="edge10" class="edge">
<title>Node8&#45;&gt;Node10</title>
<path fill="none" stroke="midnightblue" d="M579.18,-168.44C551.13,-159.32 506.53,-144.81 475.29,-134.65"/>
<polygon fill="midnightblue" stroke="midnightblue" points="476.25,-131.28 465.66,-131.52 474.09,-137.94 476.25,-131.28"/>
</g>
<!-- Node17 -->
<g id="node17" class="node">
<title>Node17</title>
<g id="a_node17"><a xlink:href="scene_8h.html" target="_top" xlink:title=" ">
<polygon fill="white" stroke="black" points="548.98,-112.5 548.98,-131.5 661.98,-131.5 661.98,-112.5 548.98,-112.5"/>
<text text-anchor="middle" x="605.48" y="-119.5" font-family="Helvetica,sans-Serif" font-size="10.00">gauri/scene/scene.h</text>
</a>
</g>
</g>
<!-- Node8&#45;&gt;Node17 -->
<g id="edge18" class="edge">
<title>Node8&#45;&gt;Node17</title>
<path fill="none" stroke="midnightblue" d="M605.48,-168.08C605.48,-161.01 605.48,-150.86 605.48,-141.99"/>
<polygon fill="midnightblue" stroke="midnightblue" points="608.98,-141.75 605.48,-131.75 601.98,-141.75 608.98,-141.75"/>
</g>
<!-- Node11 -->
<g id="node11" class="node">
<title>Node11</title>
<g id="a_node11"><a xlink:title=" ">
<polygon fill="white" stroke="#bfbfbf" points="471.48,-56.5 471.48,-75.5 521.48,-75.5 521.48,-56.5 471.48,-56.5"/>
<text text-anchor="middle" x="496.48" y="-63.5" font-family="Helvetica,sans-Serif" font-size="10.00">cstdint</text>
</a>
</g>
</g>
<!-- Node10&#45;&gt;Node11 -->
<g id="edge11" class="edge">
<title>Node10&#45;&gt;Node11</title>
<path fill="none" stroke="midnightblue" d="M448.64,-112.32C456.98,-104.42 469.51,-92.55 479.66,-82.94"/>
<polygon fill="midnightblue" stroke="midnightblue" points="482.3,-85.25 487.15,-75.83 477.49,-80.17 482.3,-85.25"/>
</g>
<!-- Node12 -->
<g id="node12" class="node">
<title>Node12</title>
<g id="a_node12"><a xlink:title=" ">
<polygon fill="white" stroke="#bfbfbf" points="273.48,-0.5 273.48,-19.5 331.48,-19.5 331.48,-0.5 273.48,-0.5"/>
<text text-anchor="middle" x="302.48" y="-7.5" font-family="Helvetica,sans-Serif" font-size="10.00">memory</text>
</a>
</g>
</g>
<!-- Node10&#45;&gt;Node12 -->
<g id="edge12" class="edge">
<title>Node10&#45;&gt;Node12</title>
<path fill="none" stroke="midnightblue" d="M406,-112.39C384.39,-105.45 356.81,-93.87 337.48,-76 323.68,-63.24 314.21,-43.78 308.63,-29.47"/>
<polygon fill="midnightblue" stroke="midnightblue" points="311.8,-27.95 305.12,-19.73 305.22,-30.33 311.8,-27.95"/>
</g>
<!-- Node13 -->
<g id="node13" class="node">
<title>Node13</title>
<g id="a_node13"><a xlink:href="logger_8h.html" target="_top" xlink:title=" ">
<polygon fill="white" stroke="black" points="345.98,-56.5 345.98,-75.5 452.98,-75.5 452.98,-56.5 345.98,-56.5"/>
<text text-anchor="middle" x="399.48" y="-63.5" font-family="Helvetica,sans-Serif" font-size="10.00">gauri/core/logger.h</text>
</a>
</g>
</g>
<!-- Node10&#45;&gt;Node13 -->
<g id="edge13" class="edge">
<title>Node10&#45;&gt;Node13</title>
<path fill="none" stroke="midnightblue" d="M432.87,-112.08C427.22,-104.46 418.93,-93.26 412.03,-83.94"/>
<polygon fill="midnightblue" stroke="midnightblue" points="414.73,-81.7 405.96,-75.75 409.1,-85.87 414.73,-81.7"/>
</g>
<!-- Node13&#45;&gt;Node12 -->
<g id="edge15" class="edge">
<title>Node13&#45;&gt;Node12</title>
<path fill="none" stroke="midnightblue" d="M383.89,-56.32C368.48,-47.74 344.67,-34.49 326.77,-24.52"/>
<polygon fill="midnightblue" stroke="midnightblue" points="328.46,-21.46 318.03,-19.65 325.06,-27.58 328.46,-21.46"/>
</g>
<!-- Node14 -->
<g id="node14" class="node">
<title>Node14</title>
<g id="a_node14"><a xlink:title=" ">
<polygon fill="white" stroke="#bfbfbf" points="578.48,-0.5 578.48,-19.5 628.48,-19.5 628.48,-0.5 578.48,-0.5"/>
<text text-anchor="middle" x="603.48" y="-7.5" font-family="Helvetica,sans-Serif" font-size="10.00">format</text>
</a>
</g>
</g>
<!-- Node13&#45;&gt;Node14 -->
<g id="edge14" class="edge">
<title>Node13&#45;&gt;Node14</title>
<path fill="none" stroke="midnightblue" d="M431.8,-56.44C469.14,-46.56 530.33,-30.36 568.68,-20.21"/>
<polygon fill="midnightblue" stroke="midnightblue" points="569.61,-23.59 578.38,-17.64 567.82,-16.82 569.61,-23.59"/>
</g>
<!-- Node15 -->
<g id="node15" class="node">
<title>Node15</title>
<g id="a_node15"><a xlink:title=" ">
<polygon fill="white" stroke="#bfbfbf" points="349.98,-0.5 349.98,-19.5 448.98,-19.5 448.98,-0.5 349.98,-0.5"/>
<text text-anchor="middle" x="399.48" y="-7.5" font-family="Helvetica,sans-Serif" font-size="10.00">spdlog/fmt/ostr.h</text>
</a>
</g>
</g>
<!-- Node13&#45;&gt;Node15 -->
<g id="edge16" class="edge">
<title>Node13&#45;&gt;Node15</title>
<path fill="none" stroke="midnightblue" d="M399.48,-56.08C399.48,-49.01 399.48,-38.86 399.48,-29.99"/>
<polygon fill="midnightblue" stroke="midnightblue" points="402.98,-29.75 399.48,-19.75 395.98,-29.75 402.98,-29.75"/>
</g>
<!-- Node16 -->
<g id="node16" class="node">
<title>Node16</title>
<g id="a_node16"><a xlink:title=" ">
<polygon fill="white" stroke="#bfbfbf" points="466.98,-0.5 466.98,-19.5 559.98,-19.5 559.98,-0.5 466.98,-0.5"/>
<text text-anchor="middle" x="513.48" y="-7.5" font-family="Helvetica,sans-Serif" font-size="10.00">spdlog/spdlog.h</text>
</a>
</g>
</g>
<!-- Node13&#45;&gt;Node16 -->
<g id="edge17" class="edge">
<title>Node13&#45;&gt;Node16</title>
<path fill="none" stroke="midnightblue" d="M417.54,-56.44C436.05,-47.68 465.06,-33.94 486.33,-23.86"/>
<polygon fill="midnightblue" stroke="midnightblue" points="487.96,-26.96 495.5,-19.52 484.96,-20.63 487.96,-26.96"/>
</g>
<!-- Node17&#45;&gt;Node9 -->
<g id="edge19" class="edge">
<title>Node17&#45;&gt;Node9</title>
<path fill="none" stroke="midnightblue" d="M621.87,-112.32C638.15,-103.7 663.35,-90.36 682.2,-80.39"/>
<polygon fill="midnightblue" stroke="midnightblue" points="683.93,-83.43 691.13,-75.65 680.66,-77.24 683.93,-83.43"/>
</g>
<!-- Node18 -->
<g id="node18" class="node">
<title>Node18</title>
<g id="a_node18"><a xlink:href="timestep_8h.html" target="_top" xlink:title=" ">
<polygon fill="white" stroke="black" points="539.98,-56.5 539.98,-75.5 660.98,-75.5 660.98,-56.5 539.98,-56.5"/>
<text text-anchor="middle" x="600.48" y="-63.5" font-family="Helvetica,sans-Serif" font-size="10.00">gauri/core/timestep.h</text>
</a>
</g>
</g>
<!-- Node17&#45;&gt;Node18 -->
<g id="edge20" class="edge">
<title>Node17&#45;&gt;Node18</title>
<path fill="none" stroke="midnightblue" d="M604.65,-112.08C604,-105.01 603.06,-94.86 602.24,-85.99"/>
<polygon fill="midnightblue" stroke="midnightblue" points="605.7,-85.39 601.29,-75.75 598.73,-86.03 605.7,-85.39"/>
</g>
</g>
</svg>
        <g id="navigator" transform="translate(0 0)" fill="#404254">
                <rect fill="#f2f5e9" fill-opacity="0.5" stroke="#606060" stroke-width=".5" x="0" y="0" width="60" height="60"/>
                <use id="zoomplus" xlink:href="#zoomPlus" x="17" y="9" onmousedown="handleZoom(evt,'in')"/>
                <use id="zoomminus" xlink:href="#zoomMin" x="42" y="9" onmousedown="handleZoom(evt,'out')"/>
                <use id="reset" xlink:href="#resetDef" x="30" y="36" onmousedown="handleReset()"/>
                <g id="arrowUp" xlink:href="#dirArrow" transform="translate(30 24)" onmousedown="handlePan(0,-1)">
                  <use xlink:href="#rim" fill="#404040">
                        <set attributeName="fill" to="#808080" begin="arrowUp.mouseover" end="arrowUp.mouseout"/>
                  </use>
                  <path fill="none" stroke="white" stroke-width="1.5" d="M0,-3.0v7 M-2.5,-0.5L0,-3.0L2.5,-0.5"/>
                </g>
                <g id="arrowRight" xlink:href="#dirArrow" transform="rotate(90) translate(36 -43)" onmousedown="handlePan(1,0)">
                  <use xlink:href="#rim" fill="#404040">
                        <set attributeName="fill" to="#808080" begin="arrowRight.mouseover" end="arrowRight.mouseout"/>
                  </use>
                  <path fill="none" stroke="white" stroke-width="1.5" d="M0,-3.0v7 M-2.5,-0.5L0,-3.0L2.5,-0.5"/>
                </g>
                <g id="arrowDown" xlink:href="#dirArrow" transform="rotate(180) translate(-30 -48)" onmousedown="handlePan(0,1)">
                  <use xlink:href="#rim" fill="#404040">
                        <set attributeName="fill" to="#808080" begin="arrowDown.mouseover" end="arrowDown.mouseout"/>
                  </use>
                  <path fill="none" stroke="white" stroke-width="1.5" d="M0,-3.0v7 M-2.5,-0.5L0,-3.0L2.5,-0.5"/>
                </g>
                <g id="arrowLeft" xlink:href="#dirArrow" transform="rotate(270) translate(-36 17)" onmousedown="handlePan(-1,0)">
                  <use xlink:href="#rim" fill="#404040">
                        <set attributeName="fill" to="#808080" begin="arrowLeft.mouseover" end="arrowLeft.mouseout"/>
                  </use>
                  <path fill="none" stroke="white" stroke-width="1.5" d="M0,-3.0v7 M-2.5,-0.5L0,-3.0L2.5,-0.5"/>
                </g>
        </g>
        <svg viewBox="0 0 15 15" width="100%" height="30px" preserveAspectRatio="xMaxYMin meet">
         <g id="arrow_out" transform="scale(0.3 0.3)">
          <a xlink:href="component_8h__incl_org.svg" target="_base">
           <rect id="button" ry="5" rx="5" y="6" x="6" height="38" width="38"
                fill="#f2f5e9" fill-opacity="0.5" stroke="#606060" stroke-width="1.0"/>
           <path id="arrow"
             d="M 11.500037,31.436501 C 11.940474,20.09759 22.043105,11.32322 32.158766,21.979434 L 37.068811,17.246167 C 37.068811,17.246167 37.088388,32 37.088388,32 L 22.160133,31.978069 C 22.160133,31.978069 26.997745,27.140456 26.997745,27.140456 C 18.528582,18.264221 13.291696,25.230495 11.500037,31.436501 z"
             style="fill:#404040;"/>
          </a>
         </g>
        </svg>
</svg>
