<?xml version="1.0" encoding="UTF-8" standalone="no"?>
<!DOCTYPE svg PUBLIC "-//W3C//DTD SVG 1.1//EN"
 "http://www.w3.org/Graphics/SVG/1.1/DTD/svg11.dtd">
<!-- Generated by graphviz version 2.43.0 (0)
 -->
<!-- Title: /home/runner/work/gauri/gauri/gauri/include/gauri/core/core.h Pages: 1 -->
<svg width="3214pt" height="420pt"
 viewBox="0.00 0.00 3213.95 420.00" xmlns="http://www.w3.org/2000/svg" xmlns:xlink="http://www.w3.org/1999/xlink">
<g id="graph0" class="graph" transform="scale(1 1) rotate(0) translate(4 416)">
<title>/home/runner/work/gauri/gauri/gauri/include/gauri/core/core.h</title>
<polygon fill="white" stroke="transparent" points="-4,4 -4,-416 3209.95,-416 3209.95,4 -4,4"/>
<!-- Node1 -->
<g id="node1" class="node">
<title>Node1</title>
<g id="a_node1"><a xlink:title=" ">
<polygon fill="#bfbfbf" stroke="black" points="1085.5,-392.5 1085.5,-411.5 1400.5,-411.5 1400.5,-392.5 1085.5,-392.5"/>
<text text-anchor="middle" x="1243" y="-399.5" font-family="Helvetica,sans-Serif" font-size="10.00">/home/runner/work/gauri/gauri/gauri/include/gauri/core/core.h</text>
</a>
</g>
</g>
<!-- Node2 -->
<g id="node2" class="node">
<title>Node2</title>
<g id="a_node2"><a xlink:href="input_8h.html" target="_top" xlink:title=" ">
<polygon fill="white" stroke="black" points="274.5,-336.5 274.5,-355.5 593.5,-355.5 593.5,-336.5 274.5,-336.5"/>
<text text-anchor="middle" x="434" y="-343.5" font-family="Helvetica,sans-Serif" font-size="10.00">/home/runner/work/gauri/gauri/gauri/include/gauri/core/input.h</text>
</a>
</g>
</g>
<!-- Node1&#45;&gt;Node2 -->
<g id="edge1" class="edge">
<title>Node1&#45;&gt;Node2</title>
<path fill="none" stroke="midnightblue" d="M1104.9,-391.78C952.53,-381.61 709.36,-365.38 561.4,-355.5"/>
<polygon fill="midnightblue" stroke="midnightblue" points="1105.05,-395.3 1115.26,-392.47 1105.51,-388.32 1105.05,-395.3"/>
</g>
<!-- Node6 -->
<g id="node6" class="node">
<title>Node6</title>
<g id="a_node6"><a xlink:href="layer_8h.html" target="_top" xlink:title=" ">
<polygon fill="white" stroke="black" points="705,-224.5 705,-243.5 1023,-243.5 1023,-224.5 705,-224.5"/>
<text text-anchor="middle" x="864" y="-231.5" font-family="Helvetica,sans-Serif" font-size="10.00">/home/runner/work/gauri/gauri/gauri/include/gauri/core/layer.h</text>
</a>
</g>
</g>
<!-- Node1&#45;&gt;Node6 -->
<g id="edge5" class="edge">
<title>Node1&#45;&gt;Node6</title>
<path fill="none" stroke="midnightblue" d="M1161.04,-390.73C1122.3,-383.98 1076.09,-373.12 1037,-356 967.84,-325.72 897.96,-265.82 873.31,-243.58"/>
<polygon fill="midnightblue" stroke="midnightblue" points="1160.79,-394.24 1171.23,-392.44 1161.95,-387.33 1160.79,-394.24"/>
</g>
<!-- Node7 -->
<g id="node7" class="node">
<title>Node7</title>
<g id="a_node7"><a xlink:href="layer__stack_8h.html" target="_top" xlink:title=" ">
<polygon fill="white" stroke="black" points="876,-168.5 876,-187.5 1226,-187.5 1226,-168.5 876,-168.5"/>
<text text-anchor="middle" x="1051" y="-175.5" font-family="Helvetica,sans-Serif" font-size="10.00">/home/runner/work/gauri/gauri/gauri/include/gauri/core/layer_stack.h</text>
</a>
</g>
</g>
<!-- Node1&#45;&gt;Node7 -->
<g id="edge13" class="edge">
<title>Node1&#45;&gt;Node7</title>
<path fill="none" stroke="midnightblue" d="M1203.15,-389.24C1162.46,-375.03 1100.89,-346.99 1069,-300 1044.67,-264.15 1047.69,-208.6 1049.91,-187.51"/>
<polygon fill="midnightblue" stroke="midnightblue" points="1202.16,-392.6 1212.76,-392.48 1204.4,-385.97 1202.16,-392.6"/>
</g>
<!-- Node10 -->
<g id="node10" class="node">
<title>Node10</title>
<g id="a_node10"><a xlink:href="event_8h.html" target="_top" xlink:title=" ">
<polygon fill="white" stroke="black" points="1078.5,-280.5 1078.5,-299.5 1407.5,-299.5 1407.5,-280.5 1078.5,-280.5"/>
<text text-anchor="middle" x="1243" y="-287.5" font-family="Helvetica,sans-Serif" font-size="10.00">/home/runner/work/gauri/gauri/gauri/include/gauri/event/event.h</text>
</a>
</g>
</g>
<!-- Node1&#45;&gt;Node10 -->
<g id="edge14" class="edge">
<title>Node1&#45;&gt;Node10</title>
<path fill="none" stroke="midnightblue" d="M1243,-382.35C1243,-358.25 1243,-317.31 1243,-299.59"/>
<polygon fill="midnightblue" stroke="midnightblue" points="1239.5,-382.37 1243,-392.37 1246.5,-382.37 1239.5,-382.37"/>
</g>
<!-- Node14 -->
<g id="node14" class="node">
<title>Node14</title>
<g id="a_node14"><a xlink:href="buffer_8h.html" target="_top" xlink:title=" ">
<polygon fill="white" stroke="black" points="1560,-336.5 1560,-355.5 1902,-355.5 1902,-336.5 1560,-336.5"/>
<text text-anchor="middle" x="1731" y="-343.5" font-family="Helvetica,sans-Serif" font-size="10.00">/home/runner/work/gauri/gauri/gauri/include/gauri/renderer/buffer.h</text>
</a>
</g>
</g>
<!-- Node1&#45;&gt;Node14 -->
<g id="edge22" class="edge">
<title>Node1&#45;&gt;Node14</title>
<path fill="none" stroke="midnightblue" d="M1330.18,-391.35C1422.23,-381.17 1565.93,-365.27 1653.95,-355.53"/>
<polygon fill="midnightblue" stroke="midnightblue" points="1329.61,-387.89 1320.06,-392.47 1330.38,-394.85 1329.61,-387.89"/>
</g>
<!-- Node22 -->
<g id="node22" class="node">
<title>Node22</title>
<g id="a_node22"><a xlink:href="shader_8h.html" target="_top" xlink:title=" ">
<polygon fill="white" stroke="black" points="2805.5,-168.5 2805.5,-187.5 3152.5,-187.5 3152.5,-168.5 2805.5,-168.5"/>
<text text-anchor="middle" x="2979" y="-175.5" font-family="Helvetica,sans-Serif" font-size="10.00">/home/runner/work/gauri/gauri/gauri/include/gauri/renderer/shader.h</text>
</a>
</g>
</g>
<!-- Node1&#45;&gt;Node22 -->
<g id="edge36" class="edge">
<title>Node1&#45;&gt;Node22</title>
<path fill="none" stroke="midnightblue" d="M1410.56,-393.12C1545.84,-385.94 1740.97,-373.72 1911,-356 2264.59,-319.14 2353.62,-309.7 2703,-244 2792.02,-227.26 2895.65,-201 2946.91,-187.56"/>
<polygon fill="midnightblue" stroke="midnightblue" points="1410.32,-389.63 1400.52,-393.65 1410.69,-396.62 1410.32,-389.63"/>
</g>
<!-- Node24 -->
<g id="node24" class="node">
<title>Node24</title>
<g id="a_node24"><a xlink:href="texture_8h.html" target="_top" xlink:title=" ">
<polygon fill="white" stroke="black" points="2778,-336.5 2778,-355.5 3128,-355.5 3128,-336.5 2778,-336.5"/>
<text text-anchor="middle" x="2953" y="-343.5" font-family="Helvetica,sans-Serif" font-size="10.00">/home/runner/work/gauri/gauri/gauri/include/gauri/renderer/texture.h</text>
</a>
</g>
</g>
<!-- Node1&#45;&gt;Node24 -->
<g id="edge40" class="edge">
<title>Node1&#45;&gt;Node24</title>
<path fill="none" stroke="midnightblue" d="M1410.64,-396.61C1687.33,-389.22 2256.94,-373.39 2739,-356 2751.63,-355.54 2764.69,-355.05 2777.83,-354.54"/>
<polygon fill="midnightblue" stroke="midnightblue" points="1410.43,-393.12 1400.52,-396.88 1410.61,-400.11 1410.43,-393.12"/>
</g>
<!-- Node3 -->
<g id="node3" class="node">
<title>Node3</title>
<g id="a_node3"><a xlink:href="gauri_8h.html" target="_top" xlink:title=" ">
<polygon fill="white" stroke="black" points="1689.5,-56.5 1689.5,-75.5 1956.5,-75.5 1956.5,-56.5 1689.5,-56.5"/>
<text text-anchor="middle" x="1823" y="-63.5" font-family="Helvetica,sans-Serif" font-size="10.00">/home/runner/work/gauri/gauri/gauri/include/gauri.h</text>
</a>
</g>
</g>
<!-- Node2&#45;&gt;Node3 -->
<g id="edge2" class="edge">
<title>Node2&#45;&gt;Node3</title>
<path fill="none" stroke="midnightblue" d="M434,-326.25C434,-304.36 434,-267.05 434,-235 434,-235 434,-235 434,-177 434,-107.59 508.46,-128 576,-112 681.89,-86.91 1389.81,-73.48 1689.44,-68.87"/>
<polygon fill="midnightblue" stroke="midnightblue" points="430.5,-326.44 434,-336.44 437.5,-326.44 430.5,-326.44"/>
</g>
<!-- Node5 -->
<g id="node5" class="node">
<title>Node5</title>
<g id="a_node5"><a xlink:href="windows__input_8h.html" target="_top" xlink:title=" ">
<polygon fill="white" stroke="black" points="0,-280.5 0,-299.5 406,-299.5 406,-280.5 0,-280.5"/>
<text text-anchor="middle" x="203" y="-287.5" font-family="Helvetica,sans-Serif" font-size="10.00">/home/runner/work/gauri/gauri/gauri/include/platform/windows/windows_input.h</text>
</a>
</g>
</g>
<!-- Node2&#45;&gt;Node5 -->
<g id="edge4" class="edge">
<title>Node2&#45;&gt;Node5</title>
<path fill="none" stroke="midnightblue" d="M387.6,-334.15C343.95,-323.95 279.49,-308.88 239.43,-299.52"/>
<polygon fill="midnightblue" stroke="midnightblue" points="386.86,-337.58 397.4,-336.44 388.46,-330.76 386.86,-337.58"/>
</g>
<!-- Node4 -->
<g id="node4" class="node">
<title>Node4</title>
<g id="a_node4"><a xlink:href="entry__point_8h.html" target="_top" xlink:title=" ">
<polygon fill="white" stroke="black" points="1648,-0.5 1648,-19.5 1998,-19.5 1998,-0.5 1648,-0.5"/>
<text text-anchor="middle" x="1823" y="-7.5" font-family="Helvetica,sans-Serif" font-size="10.00">/home/runner/work/gauri/gauri/gauri/include/gauri/core/entry_point.h</text>
</a>
</g>
</g>
<!-- Node3&#45;&gt;Node4 -->
<g id="edge3" class="edge">
<title>Node3&#45;&gt;Node4</title>
<path fill="none" stroke="midnightblue" d="M1823,-45.8C1823,-36.91 1823,-26.78 1823,-19.75"/>
<polygon fill="midnightblue" stroke="midnightblue" points="1819.5,-46.08 1823,-56.08 1826.5,-46.08 1819.5,-46.08"/>
</g>
<!-- Node6&#45;&gt;Node3 -->
<g id="edge12" class="edge">
<title>Node6&#45;&gt;Node3</title>
<path fill="none" stroke="midnightblue" d="M694.74,-227.27C582.23,-220.11 460.33,-204.05 491,-168 567.59,-77.97 1366.99,-67.28 1689.35,-66.66"/>
<polygon fill="midnightblue" stroke="midnightblue" points="694.7,-230.77 704.9,-227.89 695.13,-223.78 694.7,-230.77"/>
</g>
<!-- Node6&#45;&gt;Node7 -->
<g id="edge6" class="edge">
<title>Node6&#45;&gt;Node7</title>
<path fill="none" stroke="midnightblue" d="M903.59,-221.57C938.87,-211.38 989.69,-196.7 1021.51,-187.52"/>
<polygon fill="midnightblue" stroke="midnightblue" points="902.27,-218.31 893.63,-224.44 904.21,-225.03 902.27,-218.31"/>
</g>
<!-- Node9 -->
<g id="node9" class="node">
<title>Node9</title>
<g id="a_node9"><a xlink:href="imgui__layer_8h.html" target="_top" xlink:title=" ">
<polygon fill="white" stroke="black" points="500,-168.5 500,-187.5 858,-187.5 858,-168.5 500,-168.5"/>
<text text-anchor="middle" x="679" y="-175.5" font-family="Helvetica,sans-Serif" font-size="10.00">/home/runner/work/gauri/gauri/gauri/include/gauri/imgui/imgui_layer.h</text>
</a>
</g>
</g>
<!-- Node6&#45;&gt;Node9 -->
<g id="edge9" class="edge">
<title>Node6&#45;&gt;Node9</title>
<path fill="none" stroke="midnightblue" d="M824.83,-221.57C789.93,-211.38 739.65,-196.7 708.18,-187.52"/>
<polygon fill="midnightblue" stroke="midnightblue" points="824.11,-225 834.69,-224.44 826.07,-218.28 824.11,-225"/>
</g>
<!-- Node8 -->
<g id="node8" class="node">
<title>Node8</title>
<g id="a_node8"><a xlink:href="application_8h.html" target="_top" xlink:title=" ">
<polygon fill="white" stroke="black" points="940,-112.5 940,-131.5 1288,-131.5 1288,-112.5 940,-112.5"/>
<text text-anchor="middle" x="1114" y="-119.5" font-family="Helvetica,sans-Serif" font-size="10.00">/home/runner/work/gauri/gauri/gauri/include/gauri/core/application.h</text>
</a>
</g>
</g>
<!-- Node7&#45;&gt;Node8 -->
<g id="edge7" class="edge">
<title>Node7&#45;&gt;Node8</title>
<path fill="none" stroke="midnightblue" d="M1069.04,-161.54C1080.27,-151.91 1094.32,-139.87 1103.69,-131.83"/>
<polygon fill="midnightblue" stroke="midnightblue" points="1066.44,-159.16 1061.12,-168.32 1070.99,-164.47 1066.44,-159.16"/>
</g>
<!-- Node8&#45;&gt;Node3 -->
<g id="edge8" class="edge">
<title>Node8&#45;&gt;Node3</title>
<path fill="none" stroke="midnightblue" d="M1236.23,-111.69C1369.84,-101.51 1582.07,-85.35 1711.34,-75.5"/>
<polygon fill="midnightblue" stroke="midnightblue" points="1235.66,-108.22 1225.95,-112.47 1236.19,-115.2 1235.66,-108.22"/>
</g>
<!-- Node9&#45;&gt;Node3 -->
<g id="edge11" class="edge">
<title>Node9&#45;&gt;Node3</title>
<path fill="none" stroke="midnightblue" d="M714.82,-165.31C763.25,-150.08 852.61,-123.96 931,-112 1073.07,-90.32 1477.11,-76.44 1689.23,-70.44"/>
<polygon fill="midnightblue" stroke="midnightblue" points="713.59,-162.03 705.12,-168.39 715.71,-168.7 713.59,-162.03"/>
</g>
<!-- Node9&#45;&gt;Node8 -->
<g id="edge10" class="edge">
<title>Node9&#45;&gt;Node8</title>
<path fill="none" stroke="midnightblue" d="M757.96,-167.2C840.08,-157 967.34,-141.21 1045.4,-131.52"/>
<polygon fill="midnightblue" stroke="midnightblue" points="757.42,-163.74 747.93,-168.44 758.28,-170.68 757.42,-163.74"/>
</g>
<!-- Node10&#45;&gt;Node6 -->
<g id="edge16" class="edge">
<title>Node10&#45;&gt;Node6</title>
<path fill="none" stroke="midnightblue" d="M1172.67,-278.98C1101.08,-268.78 991.3,-253.14 923.77,-243.52"/>
<polygon fill="midnightblue" stroke="midnightblue" points="1172.55,-282.5 1182.95,-280.44 1173.54,-275.57 1172.55,-282.5"/>
</g>
<!-- Node10&#45;&gt;Node8 -->
<g id="edge15" class="edge">
<title>Node10&#45;&gt;Node8</title>
<path fill="none" stroke="midnightblue" d="M1247.49,-270.39C1252.53,-244.65 1257.35,-198 1235,-168 1220.74,-148.86 1197.4,-137.86 1175.01,-131.53"/>
<polygon fill="midnightblue" stroke="midnightblue" points="1244.03,-269.8 1245.32,-280.31 1250.87,-271.29 1244.03,-269.8"/>
</g>
<!-- Node11 -->
<g id="node11" class="node">
<title>Node11</title>
<g id="a_node11"><a xlink:href="window_8h.html" target="_top" xlink:title=" ">
<polygon fill="white" stroke="black" points="1282.5,-224.5 1282.5,-243.5 1613.5,-243.5 1613.5,-224.5 1282.5,-224.5"/>
<text text-anchor="middle" x="1448" y="-231.5" font-family="Helvetica,sans-Serif" font-size="10.00">/home/runner/work/gauri/gauri/gauri/include/gauri/core/window.h</text>
</a>
</g>
</g>
<!-- Node10&#45;&gt;Node11 -->
<g id="edge17" class="edge">
<title>Node10&#45;&gt;Node11</title>
<path fill="none" stroke="midnightblue" d="M1285.41,-277.83C1324.11,-267.63 1380.49,-252.78 1415.67,-243.52"/>
<polygon fill="midnightblue" stroke="midnightblue" points="1284.26,-274.51 1275.48,-280.44 1286.04,-281.28 1284.26,-274.51"/>
</g>
<!-- Node13 -->
<g id="node13" class="node">
<title>Node13</title>
<g id="a_node13"><a xlink:href="orthographic__camera__controller_8h.html" target="_top" xlink:title=" ">
<polygon fill="white" stroke="black" points="1306.5,-112.5 1306.5,-131.5 1775.5,-131.5 1775.5,-112.5 1306.5,-112.5"/>
<text text-anchor="middle" x="1541" y="-119.5" font-family="Helvetica,sans-Serif" font-size="10.00">/home/runner/work/gauri/gauri/gauri/include/gauri/renderer/orthographic_camera_controller.h</text>
</a>
</g>
</g>
<!-- Node10&#45;&gt;Node13 -->
<g id="edge20" class="edge">
<title>Node10&#45;&gt;Node13</title>
<path fill="none" stroke="midnightblue" d="M1417.85,-279.78C1548.75,-268.45 1711.15,-243.34 1747,-188 1751.83,-180.54 1752.57,-174.92 1747,-168 1732.08,-149.47 1679.19,-138.15 1630.74,-131.5"/>
<polygon fill="midnightblue" stroke="midnightblue" points="1417.35,-276.31 1407.68,-280.64 1417.94,-283.29 1417.35,-276.31"/>
</g>
<!-- Node11&#45;&gt;Node8 -->
<g id="edge18" class="edge">
<title>Node11&#45;&gt;Node8</title>
<path fill="none" stroke="midnightblue" d="M1409.08,-221.56C1381.42,-213.1 1343.56,-200.87 1311,-188 1291.4,-180.25 1287.73,-175.42 1268,-168 1227.85,-152.9 1180.28,-139.68 1148.74,-131.55"/>
<polygon fill="midnightblue" stroke="midnightblue" points="1408.2,-224.95 1418.78,-224.5 1410.23,-218.25 1408.2,-224.95"/>
</g>
<!-- Node12 -->
<g id="node12" class="node">
<title>Node12</title>
<g id="a_node12"><a xlink:href="windows__window_8h.html" target="_top" xlink:title=" ">
<polygon fill="white" stroke="black" points="1320,-168.5 1320,-187.5 1738,-187.5 1738,-168.5 1320,-168.5"/>
<text text-anchor="middle" x="1529" y="-175.5" font-family="Helvetica,sans-Serif" font-size="10.00">/home/runner/work/gauri/gauri/gauri/include/platform/windows/windows_window.h</text>
</a>
</g>
</g>
<!-- Node11&#45;&gt;Node12 -->
<g id="edge19" class="edge">
<title>Node11&#45;&gt;Node12</title>
<path fill="none" stroke="midnightblue" d="M1469.57,-218.62C1484.36,-208.76 1503.51,-195.99 1516.02,-187.65"/>
<polygon fill="midnightblue" stroke="midnightblue" points="1467.39,-215.86 1461.01,-224.32 1471.28,-221.69 1467.39,-215.86"/>
</g>
<!-- Node13&#45;&gt;Node3 -->
<g id="edge21" class="edge">
<title>Node13&#45;&gt;Node3</title>
<path fill="none" stroke="midnightblue" d="M1595.64,-110.54C1648.94,-100.33 1729,-85 1778.53,-75.52"/>
<polygon fill="midnightblue" stroke="midnightblue" points="1594.85,-107.13 1585.68,-112.44 1596.16,-114 1594.85,-107.13"/>
</g>
<!-- Node14&#45;&gt;Node3 -->
<g id="edge34" class="edge">
<title>Node14&#45;&gt;Node3</title>
<path fill="none" stroke="midnightblue" d="M1779.6,-332.77C1796.3,-325.99 1813.24,-315.64 1823,-300 1827.71,-292.46 1823.12,-288.89 1823,-280 1822.11,-214.2 1819.89,-197.8 1819,-132 1818.88,-123.11 1818.61,-120.88 1819,-112 1819.56,-99.31 1821.02,-84.66 1822.01,-75.61"/>
<polygon fill="midnightblue" stroke="midnightblue" points="1778.02,-329.62 1769.85,-336.36 1780.44,-336.19 1778.02,-329.62"/>
</g>
<!-- Node15 -->
<g id="node15" class="node">
<title>Node15</title>
<g id="a_node15"><a xlink:href="vertex__array_8h.html" target="_top" xlink:title=" ">
<polygon fill="white" stroke="black" points="1872.5,-280.5 1872.5,-299.5 2247.5,-299.5 2247.5,-280.5 1872.5,-280.5"/>
<text text-anchor="middle" x="2060" y="-287.5" font-family="Helvetica,sans-Serif" font-size="10.00">/home/runner/work/gauri/gauri/gauri/include/gauri/renderer/vertex_array.h</text>
</a>
</g>
</g>
<!-- Node14&#45;&gt;Node15 -->
<g id="edge23" class="edge">
<title>Node14&#45;&gt;Node15</title>
<path fill="none" stroke="midnightblue" d="M1793.2,-334.79C1855.37,-324.59 1949.86,-309.08 2008.11,-299.52"/>
<polygon fill="midnightblue" stroke="midnightblue" points="1792.43,-331.37 1783.13,-336.44 1793.57,-338.28 1792.43,-331.37"/>
</g>
<!-- Node21 -->
<g id="node21" class="node">
<title>Node21</title>
<g id="a_node21"><a xlink:href="opengl__buffer_8h.html" target="_top" xlink:title=" ">
<polygon fill="white" stroke="black" points="1425.5,-280.5 1425.5,-299.5 1814.5,-299.5 1814.5,-280.5 1425.5,-280.5"/>
<text text-anchor="middle" x="1620" y="-287.5" font-family="Helvetica,sans-Serif" font-size="10.00">/home/runner/work/gauri/gauri/gauri/include/platform/opengl/opengl_buffer.h</text>
</a>
</g>
</g>
<!-- Node14&#45;&gt;Node21 -->
<g id="edge35" class="edge">
<title>Node14&#45;&gt;Node21</title>
<path fill="none" stroke="midnightblue" d="M1703.99,-331.86C1683.41,-321.85 1655.66,-308.35 1637.79,-299.65"/>
<polygon fill="midnightblue" stroke="midnightblue" points="1702.64,-335.1 1713.17,-336.32 1705.7,-328.8 1702.64,-335.1"/>
</g>
<!-- Node15&#45;&gt;Node3 -->
<g id="edge32" class="edge">
<title>Node15&#45;&gt;Node3</title>
<path fill="none" stroke="midnightblue" d="M1981.73,-278.85C1936.44,-271.43 1885.25,-259.88 1869,-244 1820.41,-196.51 1820.91,-104.73 1822.38,-75.89"/>
<polygon fill="midnightblue" stroke="midnightblue" points="1981.46,-282.35 1991.89,-280.47 1982.56,-275.44 1981.46,-282.35"/>
</g>
<!-- Node16 -->
<g id="node16" class="node">
<title>Node16</title>
<g id="a_node16"><a xlink:href="renderer__api_8h.html" target="_top" xlink:title=" ">
<polygon fill="white" stroke="black" points="1878,-224.5 1878,-243.5 2254,-243.5 2254,-224.5 1878,-224.5"/>
<text text-anchor="middle" x="2066" y="-231.5" font-family="Helvetica,sans-Serif" font-size="10.00">/home/runner/work/gauri/gauri/gauri/include/gauri/renderer/renderer_api.h</text>
</a>
</g>
</g>
<!-- Node15&#45;&gt;Node16 -->
<g id="edge24" class="edge">
<title>Node15&#45;&gt;Node16</title>
<path fill="none" stroke="midnightblue" d="M2062.1,-270.1C2063.1,-261.14 2064.24,-250.86 2065.03,-243.75"/>
<polygon fill="midnightblue" stroke="midnightblue" points="2058.62,-269.76 2060.99,-280.08 2065.57,-270.53 2058.62,-269.76"/>
</g>
<!-- Node20 -->
<g id="node20" class="node">
<title>Node20</title>
<g id="a_node20"><a xlink:href="opengl__vertex__array_8h.html" target="_top" xlink:title=" ">
<polygon fill="white" stroke="black" points="2272,-224.5 2272,-243.5 2694,-243.5 2694,-224.5 2272,-224.5"/>
<text text-anchor="middle" x="2483" y="-231.5" font-family="Helvetica,sans-Serif" font-size="10.00">/home/runner/work/gauri/gauri/gauri/include/platform/opengl/opengl_vertex_array.h</text>
</a>
</g>
</g>
<!-- Node15&#45;&gt;Node20 -->
<g id="edge33" class="edge">
<title>Node15&#45;&gt;Node20</title>
<path fill="none" stroke="midnightblue" d="M2137.03,-279.17C2216.89,-268.97 2340.46,-253.2 2416.29,-243.52"/>
<polygon fill="midnightblue" stroke="midnightblue" points="2136.5,-275.71 2127.03,-280.44 2137.39,-282.65 2136.5,-275.71"/>
</g>
<!-- Node16&#45;&gt;Node3 -->
<g id="edge30" class="edge">
<title>Node16&#45;&gt;Node3</title>
<path fill="none" stroke="midnightblue" d="M1975.62,-222.23C1948.92,-215.64 1920.98,-205.04 1899,-188 1868.33,-164.22 1877.07,-144.59 1856,-112 1847.59,-98.98 1836.8,-84.66 1829.89,-75.75"/>
<polygon fill="midnightblue" stroke="midnightblue" points="1974.86,-225.65 1985.39,-224.48 1976.43,-218.83 1974.86,-225.65"/>
</g>
<!-- Node17 -->
<g id="node17" class="node">
<title>Node17</title>
<g id="a_node17"><a xlink:href="render__command_8h.html" target="_top" xlink:title=" ">
<polygon fill="white" stroke="black" points="1908,-168.5 1908,-187.5 2308,-187.5 2308,-168.5 1908,-168.5"/>
<text text-anchor="middle" x="2108" y="-175.5" font-family="Helvetica,sans-Serif" font-size="10.00">/home/runner/work/gauri/gauri/gauri/include/gauri/renderer/render_command.h</text>
</a>
</g>
</g>
<!-- Node16&#45;&gt;Node17 -->
<g id="edge25" class="edge">
<title>Node16&#45;&gt;Node17</title>
<path fill="none" stroke="midnightblue" d="M2079.11,-216.14C2086.43,-206.74 2095.24,-195.4 2101.19,-187.75"/>
<polygon fill="midnightblue" stroke="midnightblue" points="2076.31,-214.04 2072.94,-224.08 2081.84,-218.34 2076.31,-214.04"/>
</g>
<!-- Node18 -->
<g id="node18" class="node">
<title>Node18</title>
<g id="a_node18"><a xlink:href="renderer_8h.html" target="_top" xlink:title=" ">
<polygon fill="white" stroke="black" points="2100.5,-112.5 2100.5,-131.5 2455.5,-131.5 2455.5,-112.5 2100.5,-112.5"/>
<text text-anchor="middle" x="2278" y="-119.5" font-family="Helvetica,sans-Serif" font-size="10.00">/home/runner/work/gauri/gauri/gauri/include/gauri/renderer/renderer.h</text>
</a>
</g>
</g>
<!-- Node16&#45;&gt;Node18 -->
<g id="edge29" class="edge">
<title>Node16&#45;&gt;Node18</title>
<path fill="none" stroke="midnightblue" d="M2208.74,-223.2C2256.77,-216.7 2302.02,-205.91 2317,-188 2332.37,-169.63 2306.17,-144.53 2289.74,-131.55"/>
<polygon fill="midnightblue" stroke="midnightblue" points="2208.25,-219.73 2198.78,-224.48 2209.14,-226.67 2208.25,-219.73"/>
</g>
<!-- Node19 -->
<g id="node19" class="node">
<title>Node19</title>
<g id="a_node19"><a xlink:href="opengl__renderer__api_8h.html" target="_top" xlink:title=" ">
<polygon fill="white" stroke="black" points="2364.5,-168.5 2364.5,-187.5 2787.5,-187.5 2787.5,-168.5 2364.5,-168.5"/>
<text text-anchor="middle" x="2576" y="-175.5" font-family="Helvetica,sans-Serif" font-size="10.00">/home/runner/work/gauri/gauri/gauri/include/platform/opengl/opengl_renderer_api.h</text>
</a>
</g>
</g>
<!-- Node16&#45;&gt;Node19 -->
<g id="edge31" class="edge">
<title>Node16&#45;&gt;Node19</title>
<path fill="none" stroke="midnightblue" d="M2156.53,-223.41C2252.7,-213.23 2403.3,-197.29 2495.47,-187.53"/>
<polygon fill="midnightblue" stroke="midnightblue" points="2156.11,-219.94 2146.53,-224.47 2156.84,-226.9 2156.11,-219.94"/>
</g>
<!-- Node17&#45;&gt;Node3 -->
<g id="edge28" class="edge">
<title>Node17&#45;&gt;Node3</title>
<path fill="none" stroke="midnightblue" d="M2076.2,-164.73C2017.95,-142.25 1895.52,-94.99 1845.26,-75.59"/>
<polygon fill="midnightblue" stroke="midnightblue" points="2075.05,-168.03 2085.64,-168.37 2077.57,-161.5 2075.05,-168.03"/>
</g>
<!-- Node17&#45;&gt;Node18 -->
<g id="edge26" class="edge">
<title>Node17&#45;&gt;Node18</title>
<path fill="none" stroke="midnightblue" d="M2144.82,-165.3C2176.85,-155.13 2222.52,-140.62 2251.19,-131.52"/>
<polygon fill="midnightblue" stroke="midnightblue" points="2143.41,-162.08 2134.94,-168.44 2145.53,-168.75 2143.41,-162.08"/>
</g>
<!-- Node18&#45;&gt;Node3 -->
<g id="edge27" class="edge">
<title>Node18&#45;&gt;Node3</title>
<path fill="none" stroke="midnightblue" d="M2196.19,-111.29C2110.35,-101.1 1976.74,-85.25 1894.84,-75.53"/>
<polygon fill="midnightblue" stroke="midnightblue" points="2195.81,-114.77 2206.15,-112.47 2196.64,-107.82 2195.81,-114.77"/>
</g>
<!-- Node22&#45;&gt;Node3 -->
<g id="edge38" class="edge">
<title>Node22&#45;&gt;Node3</title>
<path fill="none" stroke="midnightblue" d="M2979.04,-157.84C2977.93,-142.82 2973.73,-122.73 2960,-112 2921.06,-81.59 2248.58,-71.23 1956.56,-68.15"/>
<polygon fill="midnightblue" stroke="midnightblue" points="2975.55,-158.22 2979.38,-168.1 2982.54,-157.98 2975.55,-158.22"/>
</g>
<!-- Node22&#45;&gt;Node18 -->
<g id="edge37" class="edge">
<title>Node22&#45;&gt;Node18</title>
<path fill="none" stroke="midnightblue" d="M2858.15,-167.69C2726.05,-157.51 2516.21,-141.35 2388.4,-131.5"/>
<polygon fill="midnightblue" stroke="midnightblue" points="2858.07,-171.19 2868.31,-168.47 2858.61,-164.22 2858.07,-171.19"/>
</g>
<!-- Node23 -->
<g id="node23" class="node">
<title>Node23</title>
<g id="a_node23"><a xlink:href="opengl__shader_8h.html" target="_top" xlink:title=" ">
<polygon fill="white" stroke="black" points="2557,-112.5 2557,-131.5 2951,-131.5 2951,-112.5 2557,-112.5"/>
<text text-anchor="middle" x="2754" y="-119.5" font-family="Helvetica,sans-Serif" font-size="10.00">/home/runner/work/gauri/gauri/gauri/include/platform/opengl/opengl_shader.h</text>
</a>
</g>
</g>
<!-- Node22&#45;&gt;Node23 -->
<g id="edge39" class="edge">
<title>Node22&#45;&gt;Node23</title>
<path fill="none" stroke="midnightblue" d="M2933.53,-166.09C2891.03,-155.89 2828.42,-140.86 2789.49,-131.52"/>
<polygon fill="midnightblue" stroke="midnightblue" points="2932.81,-169.51 2943.35,-168.44 2934.44,-162.71 2932.81,-169.51"/>
</g>
<!-- Node24&#45;&gt;Node3 -->
<g id="edge41" class="edge">
<title>Node24&#45;&gt;Node3</title>
<path fill="none" stroke="midnightblue" d="M3039.43,-335.06C3087.92,-327.82 3142.17,-316.38 3160,-300 3182.26,-279.55 3180,-265.23 3180,-235 3180,-235 3180,-235 3180,-177 3180,-163.57 3311.93,-168.79 2980,-112 2787,-78.98 2217.72,-70.15 1956.62,-67.82"/>
<polygon fill="midnightblue" stroke="midnightblue" points="3038.89,-331.6 3029.5,-336.5 3039.9,-338.53 3038.89,-331.6"/>
</g>
<!-- Node25 -->
<g id="node25" class="node">
<title>Node25</title>
<g id="a_node25"><a xlink:href="opengl__texture_8h.html" target="_top" xlink:title=" ">
<polygon fill="white" stroke="black" points="2754.5,-280.5 2754.5,-299.5 3151.5,-299.5 3151.5,-280.5 2754.5,-280.5"/>
<text text-anchor="middle" x="2953" y="-287.5" font-family="Helvetica,sans-Serif" font-size="10.00">/home/runner/work/gauri/gauri/gauri/include/platform/opengl/opengl_texture.h</text>
</a>
</g>
</g>
<!-- Node24&#45;&gt;Node25 -->
<g id="edge42" class="edge">
<title>Node24&#45;&gt;Node25</title>
<path fill="none" stroke="midnightblue" d="M2953,-325.8C2953,-316.91 2953,-306.78 2953,-299.75"/>
<polygon fill="midnightblue" stroke="midnightblue" points="2949.5,-326.08 2953,-336.08 2956.5,-326.08 2949.5,-326.08"/>
</g>
</g>
</svg>
