<?xml version="1.0" encoding="UTF-8" standalone="no"?>
<!DOCTYPE svg PUBLIC "-//W3C//DTD SVG 1.1//EN"
 "http://www.w3.org/Graphics/SVG/1.1/DTD/svg11.dtd">
<!-- Generated by graphviz version 2.43.0 (0)
 -->
<!-- Title: /home/runner/work/gauri/gauri/gauri/include/gauri/core.h Pages: 1 -->
<!--zoomable 420 -->
<svg id="main" version="1.1" xmlns="http://www.w3.org/2000/svg" xmlns:xlink="http://www.w3.org/1999/xlink" xml:space="preserve" onload="init(evt)">
<style type="text/css"><![CDATA[
.edge:hover path { stroke: red; }
.edge:hover polygon { stroke: red; fill: red; }
]]></style>
<script type="text/javascript"><![CDATA[
var edges = document.getElementsByTagName('g');
if (edges && edges.length) {
  for (var i=0;i<edges.length;i++) {
    if (edges[i].id.substr(0,4)=='edge') {
      edges[i].setAttribute('class','edge');
    }
  }
}
]]></script>
        <defs>
                <circle id="rim" cx="0" cy="0" r="7"/>
                <circle id="rim2" cx="0" cy="0" r="3.5"/>
                <g id="zoomPlus">
                        <use xlink:href="#rim" fill="#404040">
                                <set attributeName="fill" to="#808080" begin="zoomplus.mouseover" end="zoomplus.mouseout"/>
                        </use>
                        <path d="M-4,0h8M0,-4v8" fill="none" stroke="white" stroke-width="1.5" pointer-events="none"/>
                </g>
                <g id="zoomMin">
                        <use xlink:href="#rim" fill="#404040">
                                <set attributeName="fill" to="#808080" begin="zoomminus.mouseover" end="zoomminus.mouseout"/>
                        </use>
                        <path d="M-4,0h8" fill="none" stroke="white" stroke-width="1.5" pointer-events="none"/>
                </g>
                <g id="dirArrow">
                        <path fill="none" stroke="white" stroke-width="1.5" d="M0,-3.0v7 M-2.5,-0.5L0,-3.0L2.5,-0.5"/>
                </g>
               <g id="resetDef">
                       <use xlink:href="#rim2" fill="#404040">
                               <set attributeName="fill" to="#808080" begin="reset.mouseover" end="reset.mouseout"/>
                       </use>
               </g>
        </defs>

<script type="text/javascript">
var viewWidth = 3128;
var viewHeight = 420;
var sectionId = 'dynsection-1';
</script>
<script xlink:href="svgpan.js"/>
<svg id="graph" class="graph">
<g id="viewport">
<title>/home/runner/work/gauri/gauri/gauri/include/gauri/core.h</title>
<polygon fill="white" stroke="transparent" points="-4,4 -4,-416 3124.5,-416 3124.5,4 -4,4"/>
<!-- Node1 -->
<g id="node1" class="node">
<title>Node1</title>
<g id="a_node1"><a xlink:title=" ">
<polygon fill="#bfbfbf" stroke="black" points="1030.5,-392.5 1030.5,-411.5 1321.5,-411.5 1321.5,-392.5 1030.5,-392.5"/>
<text text-anchor="middle" x="1176" y="-399.5" font-family="Helvetica,sans-Serif" font-size="10.00">/home/runner/work/gauri/gauri/gauri/include/gauri/core.h</text>
</a>
</g>
</g>
<!-- Node2 -->
<g id="node2" class="node">
<title>Node2</title>
<g id="a_node2"><a xlink:href="event_8h.html" target="_top" xlink:title=" ">
<polygon fill="white" stroke="black" points="296.5,-336.5 296.5,-355.5 625.5,-355.5 625.5,-336.5 296.5,-336.5"/>
<text text-anchor="middle" x="461" y="-343.5" font-family="Helvetica,sans-Serif" font-size="10.00">/home/runner/work/gauri/gauri/gauri/include/gauri/event/event.h</text>
</a>
</g>
</g>
<!-- Node1&#45;&gt;Node2 -->
<g id="edge1" class="edge">
<title>Node1&#45;&gt;Node2</title>
<path fill="none" stroke="midnightblue" d="M1052.73,-391.69C918,-381.51 703.97,-365.35 573.6,-355.5"/>
<polygon fill="midnightblue" stroke="midnightblue" points="1052.86,-395.21 1063.1,-392.47 1053.39,-388.23 1052.86,-395.21"/>
</g>
<!-- Node6 -->
<g id="node6" class="node">
<title>Node6</title>
<g id="a_node6"><a xlink:href="layer_8h.html" target="_top" xlink:title=" ">
<polygon fill="white" stroke="black" points="681,-280.5 681,-299.5 975,-299.5 975,-280.5 681,-280.5"/>
<text text-anchor="middle" x="828" y="-287.5" font-family="Helvetica,sans-Serif" font-size="10.00">/home/runner/work/gauri/gauri/gauri/include/gauri/layer.h</text>
</a>
</g>
</g>
<!-- Node1&#45;&gt;Node6 -->
<g id="edge19" class="edge">
<title>Node1&#45;&gt;Node6</title>
<path fill="none" stroke="midnightblue" d="M1135.04,-389.73C1103.48,-380.92 1058.83,-368.17 1020,-356 959.22,-336.96 888.4,-312.35 852.13,-299.56"/>
<polygon fill="midnightblue" stroke="midnightblue" points="1134.22,-393.14 1144.8,-392.45 1136.1,-386.4 1134.22,-393.14"/>
</g>
<!-- Node8 -->
<g id="node8" class="node">
<title>Node8</title>
<g id="a_node8"><a xlink:href="layer__stack_8h.html" target="_top" xlink:title=" ">
<polygon fill="white" stroke="black" points="490,-224.5 490,-243.5 816,-243.5 816,-224.5 490,-224.5"/>
<text text-anchor="middle" x="653" y="-231.5" font-family="Helvetica,sans-Serif" font-size="10.00">/home/runner/work/gauri/gauri/gauri/include/gauri/layer_stack.h</text>
</a>
</g>
</g>
<!-- Node1&#45;&gt;Node8 -->
<g id="edge20" class="edge">
<title>Node1&#45;&gt;Node8</title>
<path fill="none" stroke="midnightblue" d="M1059.28,-391.5C928.49,-378.53 727.45,-350.84 672,-300 655.88,-285.22 653.15,-257.6 652.87,-243.61"/>
<polygon fill="midnightblue" stroke="midnightblue" points="1059.06,-395 1069.36,-392.49 1059.74,-388.03 1059.06,-395"/>
</g>
<!-- Node11 -->
<g id="node11" class="node">
<title>Node11</title>
<g id="a_node11"><a xlink:href="input_8h.html" target="_top" xlink:title=" ">
<polygon fill="white" stroke="black" points="1028.5,-336.5 1028.5,-355.5 1323.5,-355.5 1323.5,-336.5 1028.5,-336.5"/>
<text text-anchor="middle" x="1176" y="-343.5" font-family="Helvetica,sans-Serif" font-size="10.00">/home/runner/work/gauri/gauri/gauri/include/gauri/input.h</text>
</a>
</g>
</g>
<!-- Node1&#45;&gt;Node11 -->
<g id="edge16" class="edge">
<title>Node1&#45;&gt;Node11</title>
<path fill="none" stroke="midnightblue" d="M1176,-381.8C1176,-372.91 1176,-362.78 1176,-355.75"/>
<polygon fill="midnightblue" stroke="midnightblue" points="1172.5,-382.08 1176,-392.08 1179.5,-382.08 1172.5,-382.08"/>
</g>
<!-- Node13 -->
<g id="node13" class="node">
<title>Node13</title>
<g id="a_node13"><a xlink:href="buffer_8h.html" target="_top" xlink:title=" ">
<polygon fill="white" stroke="black" points="1426,-336.5 1426,-355.5 1768,-355.5 1768,-336.5 1426,-336.5"/>
<text text-anchor="middle" x="1597" y="-343.5" font-family="Helvetica,sans-Serif" font-size="10.00">/home/runner/work/gauri/gauri/gauri/include/gauri/renderer/buffer.h</text>
</a>
</g>
</g>
<!-- Node1&#45;&gt;Node13 -->
<g id="edge21" class="edge">
<title>Node1&#45;&gt;Node13</title>
<path fill="none" stroke="midnightblue" d="M1252.66,-391.17C1332.15,-380.97 1455.14,-365.2 1530.6,-355.52"/>
<polygon fill="midnightblue" stroke="midnightblue" points="1252.18,-387.7 1242.71,-392.44 1253.07,-394.64 1252.18,-387.7"/>
</g>
<!-- Node21 -->
<g id="node21" class="node">
<title>Node21</title>
<g id="a_node21"><a xlink:href="shader_8h.html" target="_top" xlink:title=" ">
<polygon fill="white" stroke="black" points="2297.5,-168.5 2297.5,-187.5 2644.5,-187.5 2644.5,-168.5 2297.5,-168.5"/>
<text text-anchor="middle" x="2471" y="-175.5" font-family="Helvetica,sans-Serif" font-size="10.00">/home/runner/work/gauri/gauri/gauri/include/gauri/renderer/shader.h</text>
</a>
</g>
</g>
<!-- Node1&#45;&gt;Node21 -->
<g id="edge35" class="edge">
<title>Node1&#45;&gt;Node21</title>
<path fill="none" stroke="midnightblue" d="M1331.57,-396.4C1594.19,-387.05 2113.57,-361.27 2285,-300 2360.09,-273.16 2435.36,-210.61 2461.42,-187.65"/>
<polygon fill="midnightblue" stroke="midnightblue" points="1331.44,-392.91 1321.57,-396.76 1331.69,-399.9 1331.44,-392.91"/>
</g>
<!-- Node23 -->
<g id="node23" class="node">
<title>Node23</title>
<g id="a_node23"><a xlink:href="texture_8h.html" target="_top" xlink:title=" ">
<polygon fill="white" stroke="black" points="2521,-336.5 2521,-355.5 2871,-355.5 2871,-336.5 2521,-336.5"/>
<text text-anchor="middle" x="2696" y="-343.5" font-family="Helvetica,sans-Serif" font-size="10.00">/home/runner/work/gauri/gauri/gauri/include/gauri/renderer/texture.h</text>
</a>
</g>
</g>
<!-- Node1&#45;&gt;Node23 -->
<g id="edge39" class="edge">
<title>Node1&#45;&gt;Node23</title>
<path fill="none" stroke="midnightblue" d="M1331.76,-395.47C1617.09,-385.33 2221.77,-363.85 2520.89,-353.22"/>
<polygon fill="midnightblue" stroke="midnightblue" points="1331.61,-391.97 1321.74,-395.82 1331.86,-398.96 1331.61,-391.97"/>
</g>
<!-- Node3 -->
<g id="node3" class="node">
<title>Node3</title>
<g id="a_node3"><a xlink:href="application_8h.html" target="_top" xlink:title=" ">
<polygon fill="white" stroke="black" points="491,-168.5 491,-187.5 815,-187.5 815,-168.5 491,-168.5"/>
<text text-anchor="middle" x="653" y="-175.5" font-family="Helvetica,sans-Serif" font-size="10.00">/home/runner/work/gauri/gauri/gauri/include/gauri/application.h</text>
</a>
</g>
</g>
<!-- Node2&#45;&gt;Node3 -->
<g id="edge2" class="edge">
<title>Node2&#45;&gt;Node3</title>
<path fill="none" stroke="midnightblue" d="M366.94,-335.34C219.34,-318.36 -44.84,-279.58 7,-224 39.37,-189.29 310.15,-180.79 490.71,-179.03"/>
<polygon fill="midnightblue" stroke="midnightblue" points="366.59,-338.83 376.92,-336.48 367.38,-331.87 366.59,-338.83"/>
</g>
<!-- Node2&#45;&gt;Node6 -->
<g id="edge6" class="edge">
<title>Node2&#45;&gt;Node6</title>
<path fill="none" stroke="midnightblue" d="M529.1,-334.98C598.43,-324.78 704.73,-309.14 770.12,-299.52"/>
<polygon fill="midnightblue" stroke="midnightblue" points="528.54,-331.53 519.15,-336.44 529.55,-338.45 528.54,-331.53"/>
</g>
<!-- Node9 -->
<g id="node9" class="node">
<title>Node9</title>
<g id="a_node9"><a xlink:href="window_8h.html" target="_top" xlink:title=" ">
<polygon fill="white" stroke="black" points="307.5,-280.5 307.5,-299.5 614.5,-299.5 614.5,-280.5 307.5,-280.5"/>
<text text-anchor="middle" x="461" y="-287.5" font-family="Helvetica,sans-Serif" font-size="10.00">/home/runner/work/gauri/gauri/gauri/include/gauri/window.h</text>
</a>
</g>
</g>
<!-- Node2&#45;&gt;Node9 -->
<g id="edge13" class="edge">
<title>Node2&#45;&gt;Node9</title>
<path fill="none" stroke="midnightblue" d="M461,-325.8C461,-316.91 461,-306.78 461,-299.75"/>
<polygon fill="midnightblue" stroke="midnightblue" points="457.5,-326.08 461,-336.08 464.5,-326.08 457.5,-326.08"/>
</g>
<!-- Node4 -->
<g id="node4" class="node">
<title>Node4</title>
<g id="a_node4"><a xlink:href="gauri_8h.html" target="_top" xlink:title=" ">
<polygon fill="white" stroke="black" points="1200.5,-56.5 1200.5,-75.5 1467.5,-75.5 1467.5,-56.5 1200.5,-56.5"/>
<text text-anchor="middle" x="1334" y="-63.5" font-family="Helvetica,sans-Serif" font-size="10.00">/home/runner/work/gauri/gauri/gauri/include/gauri.h</text>
</a>
</g>
</g>
<!-- Node3&#45;&gt;Node4 -->
<g id="edge3" class="edge">
<title>Node3&#45;&gt;Node4</title>
<path fill="none" stroke="midnightblue" d="M715.91,-166.84C849.09,-145.33 1157.39,-95.53 1281.16,-75.53"/>
<polygon fill="midnightblue" stroke="midnightblue" points="715.18,-163.41 705.87,-168.46 716.3,-170.32 715.18,-163.41"/>
</g>
<!-- Node5 -->
<g id="node5" class="node">
<title>Node5</title>
<g id="a_node5"><a xlink:href="entry__point_8h.html" target="_top" xlink:title=" ">
<polygon fill="white" stroke="black" points="1171,-0.5 1171,-19.5 1497,-19.5 1497,-0.5 1171,-0.5"/>
<text text-anchor="middle" x="1334" y="-7.5" font-family="Helvetica,sans-Serif" font-size="10.00">/home/runner/work/gauri/gauri/gauri/include/gauri/entry_point.h</text>
</a>
</g>
</g>
<!-- Node4&#45;&gt;Node5 -->
<g id="edge4" class="edge">
<title>Node4&#45;&gt;Node5</title>
<path fill="none" stroke="midnightblue" d="M1327.53,-46.1C1326.89,-37.14 1327.34,-26.86 1328.87,-19.75"/>
<polygon fill="midnightblue" stroke="midnightblue" points="1324.06,-46.62 1328.83,-56.08 1331.01,-45.71 1324.06,-46.62"/>
</g>
<!-- Node5&#45;&gt;Node4 -->
<g id="edge5" class="edge">
<title>Node5&#45;&gt;Node4</title>
<path fill="none" stroke="midnightblue" d="M1340.46,-29.69C1341.11,-38.64 1340.67,-48.93 1339.17,-56.08"/>
<polygon fill="midnightblue" stroke="midnightblue" points="1343.92,-29.2 1339.13,-19.75 1336.98,-30.13 1343.92,-29.2"/>
</g>
<!-- Node6&#45;&gt;Node4 -->
<g id="edge12" class="edge">
<title>Node6&#45;&gt;Node4</title>
<path fill="none" stroke="midnightblue" d="M964.28,-279.66C1063.11,-271.71 1182.55,-259.17 1201,-244 1248.67,-204.82 1203.73,-158.75 1244,-112 1259.5,-94 1283.94,-82.42 1303.43,-75.53"/>
<polygon fill="midnightblue" stroke="midnightblue" points="963.87,-276.19 954.18,-280.47 964.42,-283.16 963.87,-276.19"/>
</g>
<!-- Node7 -->
<g id="node7" class="node">
<title>Node7</title>
<g id="a_node7"><a xlink:href="imgui__layer_8h.html" target="_top" xlink:title=" ">
<polygon fill="white" stroke="black" points="834,-224.5 834,-243.5 1192,-243.5 1192,-224.5 834,-224.5"/>
<text text-anchor="middle" x="1013" y="-231.5" font-family="Helvetica,sans-Serif" font-size="10.00">/home/runner/work/gauri/gauri/gauri/include/gauri/imgui/imgui_layer.h</text>
</a>
</g>
</g>
<!-- Node6&#45;&gt;Node7 -->
<g id="edge7" class="edge">
<title>Node6&#45;&gt;Node7</title>
<path fill="none" stroke="midnightblue" d="M867.17,-277.57C902.06,-267.38 952.35,-252.7 983.82,-243.52"/>
<polygon fill="midnightblue" stroke="midnightblue" points="865.93,-274.28 857.31,-280.44 867.89,-281 865.93,-274.28"/>
</g>
<!-- Node6&#45;&gt;Node8 -->
<g id="edge10" class="edge">
<title>Node6&#45;&gt;Node8</title>
<path fill="none" stroke="midnightblue" d="M790.52,-277.44C757.53,-267.26 710.24,-252.66 680.6,-243.52"/>
<polygon fill="midnightblue" stroke="midnightblue" points="789.68,-280.84 800.27,-280.44 791.75,-274.15 789.68,-280.84"/>
</g>
<!-- Node7&#45;&gt;Node3 -->
<g id="edge8" class="edge">
<title>Node7&#45;&gt;Node3</title>
<path fill="none" stroke="midnightblue" d="M945.78,-222.92C877.77,-212.71 773.78,-197.12 709.78,-187.52"/>
<polygon fill="midnightblue" stroke="midnightblue" points="945.55,-226.42 955.96,-224.44 946.59,-219.5 945.55,-226.42"/>
</g>
<!-- Node7&#45;&gt;Node4 -->
<g id="edge9" class="edge">
<title>Node7&#45;&gt;Node4</title>
<path fill="none" stroke="midnightblue" d="M1032.84,-218.47C1066.9,-194.01 1139.28,-144.15 1206,-112 1238.25,-96.46 1277.33,-83.51 1303.76,-75.55"/>
<polygon fill="midnightblue" stroke="midnightblue" points="1030.71,-215.69 1024.66,-224.39 1034.81,-221.36 1030.71,-215.69"/>
</g>
<!-- Node8&#45;&gt;Node3 -->
<g id="edge11" class="edge">
<title>Node8&#45;&gt;Node3</title>
<path fill="none" stroke="midnightblue" d="M653,-213.8C653,-204.91 653,-194.78 653,-187.75"/>
<polygon fill="midnightblue" stroke="midnightblue" points="649.5,-214.08 653,-224.08 656.5,-214.08 649.5,-214.08"/>
</g>
<!-- Node9&#45;&gt;Node3 -->
<g id="edge14" class="edge">
<title>Node9&#45;&gt;Node3</title>
<path fill="none" stroke="midnightblue" d="M461.98,-270.14C463.75,-255.6 468.49,-235.99 481,-224 500.5,-205.31 526.76,-194.14 552.89,-187.54"/>
<polygon fill="midnightblue" stroke="midnightblue" points="458.46,-270.23 461.11,-280.49 465.44,-270.82 458.46,-270.23"/>
</g>
<!-- Node10 -->
<g id="node10" class="node">
<title>Node10</title>
<g id="a_node10"><a xlink:href="windows__window_8h.html" target="_top" xlink:title=" ">
<polygon fill="white" stroke="black" points="16,-224.5 16,-243.5 434,-243.5 434,-224.5 16,-224.5"/>
<text text-anchor="middle" x="225" y="-231.5" font-family="Helvetica,sans-Serif" font-size="10.00">/home/runner/work/gauri/gauri/gauri/include/platform/windows/windows_window.h</text>
</a>
</g>
</g>
<!-- Node9&#45;&gt;Node10 -->
<g id="edge15" class="edge">
<title>Node9&#45;&gt;Node10</title>
<path fill="none" stroke="midnightblue" d="M413.59,-278.15C369,-267.95 303.15,-252.88 262.22,-243.52"/>
<polygon fill="midnightblue" stroke="midnightblue" points="413.08,-281.62 423.6,-280.44 414.64,-274.8 413.08,-281.62"/>
</g>
<!-- Node11&#45;&gt;Node4 -->
<g id="edge17" class="edge">
<title>Node11&#45;&gt;Node4</title>
<path fill="none" stroke="midnightblue" d="M1085.17,-334.67C1039.05,-325.71 997.44,-309.35 1022,-280 1080.24,-210.4 1151.52,-299.92 1223,-244 1273.61,-204.41 1243.68,-163.59 1282,-112 1292.96,-97.24 1309.55,-83.95 1321.03,-75.71"/>
<polygon fill="midnightblue" stroke="midnightblue" points="1084.59,-338.13 1095.06,-336.48 1085.85,-331.24 1084.59,-338.13"/>
</g>
<!-- Node12 -->
<g id="node12" class="node">
<title>Node12</title>
<g id="a_node12"><a xlink:href="windows__input_8h.html" target="_top" xlink:title=" ">
<polygon fill="white" stroke="black" points="1031,-280.5 1031,-299.5 1437,-299.5 1437,-280.5 1031,-280.5"/>
<text text-anchor="middle" x="1234" y="-287.5" font-family="Helvetica,sans-Serif" font-size="10.00">/home/runner/work/gauri/gauri/gauri/include/platform/windows/windows_input.h</text>
</a>
</g>
</g>
<!-- Node11&#45;&gt;Node12 -->
<g id="edge18" class="edge">
<title>Node11&#45;&gt;Node12</title>
<path fill="none" stroke="midnightblue" d="M1192.91,-329.25C1203.2,-319.67 1215.96,-307.79 1224.51,-299.83"/>
<polygon fill="midnightblue" stroke="midnightblue" points="1190.25,-326.95 1185.32,-336.32 1195.02,-332.07 1190.25,-326.95"/>
</g>
<!-- Node13&#45;&gt;Node4 -->
<g id="edge33" class="edge">
<title>Node13&#45;&gt;Node4</title>
<path fill="none" stroke="midnightblue" d="M1564.56,-332.88C1542.02,-324.23 1511.41,-312.05 1485,-300 1467.28,-291.92 1463.7,-288.14 1446,-280 1407.61,-262.34 1387.9,-273.86 1358,-244 1310.82,-196.89 1325.96,-104.06 1332.02,-75.54"/>
<polygon fill="midnightblue" stroke="midnightblue" points="1563.41,-336.18 1574,-336.47 1565.9,-329.64 1563.41,-336.18"/>
</g>
<!-- Node14 -->
<g id="node14" class="node">
<title>Node14</title>
<g id="a_node14"><a xlink:href="vertex__array_8h.html" target="_top" xlink:title=" ">
<polygon fill="white" stroke="black" points="1493.5,-280.5 1493.5,-299.5 1868.5,-299.5 1868.5,-280.5 1493.5,-280.5"/>
<text text-anchor="middle" x="1681" y="-287.5" font-family="Helvetica,sans-Serif" font-size="10.00">/home/runner/work/gauri/gauri/gauri/include/gauri/renderer/vertex_array.h</text>
</a>
</g>
</g>
<!-- Node13&#45;&gt;Node14 -->
<g id="edge22" class="edge">
<title>Node13&#45;&gt;Node14</title>
<path fill="none" stroke="midnightblue" d="M1618.93,-330.9C1634.33,-321 1654.44,-308.07 1667.54,-299.65"/>
<polygon fill="midnightblue" stroke="midnightblue" points="1617.01,-327.97 1610.5,-336.32 1620.8,-333.86 1617.01,-327.97"/>
</g>
<!-- Node20 -->
<g id="node20" class="node">
<title>Node20</title>
<g id="a_node20"><a xlink:href="opengl__buffer_8h.html" target="_top" xlink:title=" ">
<polygon fill="white" stroke="black" points="1886.5,-280.5 1886.5,-299.5 2275.5,-299.5 2275.5,-280.5 1886.5,-280.5"/>
<text text-anchor="middle" x="2081" y="-287.5" font-family="Helvetica,sans-Serif" font-size="10.00">/home/runner/work/gauri/gauri/gauri/include/platform/opengl/opengl_buffer.h</text>
</a>
</g>
</g>
<!-- Node13&#45;&gt;Node20 -->
<g id="edge34" class="edge">
<title>Node13&#45;&gt;Node20</title>
<path fill="none" stroke="midnightblue" d="M1683.47,-335.35C1774.76,-325.17 1917.28,-309.27 2004.58,-299.53"/>
<polygon fill="midnightblue" stroke="midnightblue" points="1682.97,-331.89 1673.42,-336.47 1683.75,-338.84 1682.97,-331.89"/>
</g>
<!-- Node14&#45;&gt;Node4 -->
<g id="edge31" class="edge">
<title>Node14&#45;&gt;Node4</title>
<path fill="none" stroke="midnightblue" d="M1507.95,-279.34C1452.15,-272.87 1399.41,-262.06 1379,-244 1327.94,-198.83 1330.91,-104.69 1333.16,-75.69"/>
<polygon fill="midnightblue" stroke="midnightblue" points="1507.7,-282.84 1518.03,-280.46 1508.48,-275.88 1507.7,-282.84"/>
</g>
<!-- Node15 -->
<g id="node15" class="node">
<title>Node15</title>
<g id="a_node15"><a xlink:href="renderer__api_8h.html" target="_top" xlink:title=" ">
<polygon fill="white" stroke="black" points="1828,-224.5 1828,-243.5 2204,-243.5 2204,-224.5 1828,-224.5"/>
<text text-anchor="middle" x="2016" y="-231.5" font-family="Helvetica,sans-Serif" font-size="10.00">/home/runner/work/gauri/gauri/gauri/include/gauri/renderer/renderer_api.h</text>
</a>
</g>
</g>
<!-- Node14&#45;&gt;Node15 -->
<g id="edge23" class="edge">
<title>Node14&#45;&gt;Node15</title>
<path fill="none" stroke="midnightblue" d="M1744.33,-278.79C1807.64,-268.59 1903.85,-253.08 1963.17,-243.52"/>
<polygon fill="midnightblue" stroke="midnightblue" points="1743.4,-275.4 1734.08,-280.44 1744.51,-282.31 1743.4,-275.4"/>
</g>
<!-- Node19 -->
<g id="node19" class="node">
<title>Node19</title>
<g id="a_node19"><a xlink:href="opengl__vertex__array_8h.html" target="_top" xlink:title=" ">
<polygon fill="white" stroke="black" points="1388,-224.5 1388,-243.5 1810,-243.5 1810,-224.5 1388,-224.5"/>
<text text-anchor="middle" x="1599" y="-231.5" font-family="Helvetica,sans-Serif" font-size="10.00">/home/runner/work/gauri/gauri/gauri/include/platform/opengl/opengl_vertex_array.h</text>
</a>
</g>
</g>
<!-- Node14&#45;&gt;Node19 -->
<g id="edge32" class="edge">
<title>Node14&#45;&gt;Node19</title>
<path fill="none" stroke="midnightblue" d="M1659.17,-274.62C1644.19,-264.76 1624.8,-251.99 1612.14,-243.65"/>
<polygon fill="midnightblue" stroke="midnightblue" points="1657.55,-277.75 1667.82,-280.32 1661.4,-271.9 1657.55,-277.75"/>
</g>
<!-- Node15&#45;&gt;Node4 -->
<g id="edge29" class="edge">
<title>Node15&#45;&gt;Node4</title>
<path fill="none" stroke="midnightblue" d="M1827.01,-223.97C1650,-214.8 1409.98,-200.25 1392,-188 1371.69,-174.17 1345.46,-100.94 1336.86,-75.62"/>
<polygon fill="midnightblue" stroke="midnightblue" points="1827.08,-227.47 1837.25,-224.49 1827.44,-220.48 1827.08,-227.47"/>
</g>
<!-- Node16 -->
<g id="node16" class="node">
<title>Node16</title>
<g id="a_node16"><a xlink:href="render__command_8h.html" target="_top" xlink:title=" ">
<polygon fill="white" stroke="black" points="1842,-168.5 1842,-187.5 2242,-187.5 2242,-168.5 1842,-168.5"/>
<text text-anchor="middle" x="2042" y="-175.5" font-family="Helvetica,sans-Serif" font-size="10.00">/home/runner/work/gauri/gauri/gauri/include/gauri/renderer/render_command.h</text>
</a>
</g>
</g>
<!-- Node15&#45;&gt;Node16 -->
<g id="edge24" class="edge">
<title>Node15&#45;&gt;Node16</title>
<path fill="none" stroke="midnightblue" d="M2024.67,-214.98C2029.09,-205.82 2034.25,-195.09 2037.79,-187.75"/>
<polygon fill="midnightblue" stroke="midnightblue" points="2021.48,-213.55 2020.29,-224.08 2027.78,-216.59 2021.48,-213.55"/>
</g>
<!-- Node17 -->
<g id="node17" class="node">
<title>Node17</title>
<g id="a_node17"><a xlink:href="renderer_8h.html" target="_top" xlink:title=" ">
<polygon fill="white" stroke="black" points="1862.5,-112.5 1862.5,-131.5 2217.5,-131.5 2217.5,-112.5 1862.5,-112.5"/>
<text text-anchor="middle" x="2040" y="-119.5" font-family="Helvetica,sans-Serif" font-size="10.00">/home/runner/work/gauri/gauri/gauri/include/gauri/renderer/renderer.h</text>
</a>
</g>
</g>
<!-- Node15&#45;&gt;Node17 -->
<g id="edge28" class="edge">
<title>Node15&#45;&gt;Node17</title>
<path fill="none" stroke="midnightblue" d="M2142.51,-223.16C2190.1,-216.61 2236.3,-205.78 2251,-188 2276.89,-156.68 2245.16,-140.16 2199.09,-131.54"/>
<polygon fill="midnightblue" stroke="midnightblue" points="2141.8,-219.73 2132.34,-224.5 2142.71,-226.67 2141.8,-219.73"/>
</g>
<!-- Node18 -->
<g id="node18" class="node">
<title>Node18</title>
<g id="a_node18"><a xlink:href="opengl__renderer__api_8h.html" target="_top" xlink:title=" ">
<polygon fill="white" stroke="black" points="1400.5,-168.5 1400.5,-187.5 1823.5,-187.5 1823.5,-168.5 1400.5,-168.5"/>
<text text-anchor="middle" x="1612" y="-175.5" font-family="Helvetica,sans-Serif" font-size="10.00">/home/runner/work/gauri/gauri/gauri/include/platform/opengl/opengl_renderer_api.h</text>
</a>
</g>
</g>
<!-- Node15&#45;&gt;Node18 -->
<g id="edge30" class="edge">
<title>Node15&#45;&gt;Node18</title>
<path fill="none" stroke="midnightblue" d="M1941.97,-223.1C1865.68,-212.91 1747.99,-197.18 1675.71,-187.52"/>
<polygon fill="midnightblue" stroke="midnightblue" points="1941.61,-226.59 1951.98,-224.44 1942.54,-219.65 1941.61,-226.59"/>
</g>
<!-- Node16&#45;&gt;Node4 -->
<g id="edge27" class="edge">
<title>Node16&#45;&gt;Node4</title>
<path fill="none" stroke="midnightblue" d="M1977,-166.9C1838.77,-145.43 1517.74,-95.55 1388.93,-75.53"/>
<polygon fill="midnightblue" stroke="midnightblue" points="1976.61,-170.38 1987.03,-168.46 1977.69,-163.47 1976.61,-170.38"/>
</g>
<!-- Node16&#45;&gt;Node17 -->
<g id="edge25" class="edge">
<title>Node16&#45;&gt;Node17</title>
<path fill="none" stroke="midnightblue" d="M2041.29,-157.8C2040.96,-148.91 2040.58,-138.78 2040.32,-131.75"/>
<polygon fill="midnightblue" stroke="midnightblue" points="2037.8,-158.22 2041.67,-168.08 2044.8,-157.96 2037.8,-158.22"/>
</g>
<!-- Node17&#45;&gt;Node4 -->
<g id="edge26" class="edge">
<title>Node17&#45;&gt;Node4</title>
<path fill="none" stroke="midnightblue" d="M1918.28,-111.69C1785.24,-101.51 1573.91,-85.35 1445.18,-75.5"/>
<polygon fill="midnightblue" stroke="midnightblue" points="1918.28,-115.2 1928.52,-112.47 1918.82,-108.22 1918.28,-115.2"/>
</g>
<!-- Node21&#45;&gt;Node4 -->
<g id="edge37" class="edge">
<title>Node21&#45;&gt;Node4</title>
<path fill="none" stroke="midnightblue" d="M2402.02,-166.72C2361.37,-159.49 2309.38,-148.19 2265,-132 2247.07,-125.46 2245.41,-117.04 2227,-112 2088.05,-73.93 1681.09,-67.41 1467.85,-66.7"/>
<polygon fill="midnightblue" stroke="midnightblue" points="2401.65,-170.21 2412.1,-168.47 2402.84,-163.31 2401.65,-170.21"/>
</g>
<!-- Node21&#45;&gt;Node17 -->
<g id="edge36" class="edge">
<title>Node21&#45;&gt;Node17</title>
<path fill="none" stroke="midnightblue" d="M2392.52,-167.17C2311.14,-156.97 2185.23,-141.2 2107.97,-131.52"/>
<polygon fill="midnightblue" stroke="midnightblue" points="2392.35,-170.67 2402.71,-168.44 2393.22,-163.73 2392.35,-170.67"/>
</g>
<!-- Node22 -->
<g id="node22" class="node">
<title>Node22</title>
<g id="a_node22"><a xlink:href="opengl__shader_8h.html" target="_top" xlink:title=" ">
<polygon fill="white" stroke="black" points="2274,-112.5 2274,-131.5 2668,-131.5 2668,-112.5 2274,-112.5"/>
<text text-anchor="middle" x="2471" y="-119.5" font-family="Helvetica,sans-Serif" font-size="10.00">/home/runner/work/gauri/gauri/gauri/include/platform/opengl/opengl_shader.h</text>
</a>
</g>
</g>
<!-- Node21&#45;&gt;Node22 -->
<g id="edge38" class="edge">
<title>Node21&#45;&gt;Node22</title>
<path fill="none" stroke="midnightblue" d="M2471,-157.8C2471,-148.91 2471,-138.78 2471,-131.75"/>
<polygon fill="midnightblue" stroke="midnightblue" points="2467.5,-158.08 2471,-168.08 2474.5,-158.08 2467.5,-158.08"/>
</g>
<!-- Node23&#45;&gt;Node4 -->
<g id="edge40" class="edge">
<title>Node23&#45;&gt;Node4</title>
<path fill="none" stroke="midnightblue" d="M2696,-326.25C2696,-304.36 2696,-267.05 2696,-235 2696,-235 2696,-235 2696,-177 2696,-146.9 2700.78,-130.45 2677,-112 2629.8,-75.37 1798,-68.55 1467.65,-67.28"/>
<polygon fill="midnightblue" stroke="midnightblue" points="2692.5,-326.44 2696,-336.44 2699.5,-326.44 2692.5,-326.44"/>
</g>
<!-- Node24 -->
<g id="node24" class="node">
<title>Node24</title>
<g id="a_node24"><a xlink:href="opengl__texture_8h.html" target="_top" xlink:title=" ">
<polygon fill="white" stroke="black" points="2723.5,-280.5 2723.5,-299.5 3120.5,-299.5 3120.5,-280.5 2723.5,-280.5"/>
<text text-anchor="middle" x="2922" y="-287.5" font-family="Helvetica,sans-Serif" font-size="10.00">/home/runner/work/gauri/gauri/gauri/include/platform/opengl/opengl_texture.h</text>
</a>
</g>
</g>
<!-- Node23&#45;&gt;Node24 -->
<g id="edge41" class="edge">
<title>Node23&#45;&gt;Node24</title>
<path fill="none" stroke="midnightblue" d="M2741.67,-334.09C2784.36,-323.89 2847.25,-308.86 2886.36,-299.52"/>
<polygon fill="midnightblue" stroke="midnightblue" points="2740.72,-330.72 2731.81,-336.44 2742.35,-337.52 2740.72,-330.72"/>
</g>
</g>
</svg>
        <g id="navigator" transform="translate(0 0)" fill="#404254">
                <rect fill="#f2f5e9" fill-opacity="0.5" stroke="#606060" stroke-width=".5" x="0" y="0" width="60" height="60"/>
                <use id="zoomplus" xlink:href="#zoomPlus" x="17" y="9" onmousedown="handleZoom(evt,'in')"/>
                <use id="zoomminus" xlink:href="#zoomMin" x="42" y="9" onmousedown="handleZoom(evt,'out')"/>
                <use id="reset" xlink:href="#resetDef" x="30" y="36" onmousedown="handleReset()"/>
                <g id="arrowUp" xlink:href="#dirArrow" transform="translate(30 24)" onmousedown="handlePan(0,-1)">
                  <use xlink:href="#rim" fill="#404040">
                        <set attributeName="fill" to="#808080" begin="arrowUp.mouseover" end="arrowUp.mouseout"/>
                  </use>
                  <path fill="none" stroke="white" stroke-width="1.5" d="M0,-3.0v7 M-2.5,-0.5L0,-3.0L2.5,-0.5"/>
                </g>
                <g id="arrowRight" xlink:href="#dirArrow" transform="rotate(90) translate(36 -43)" onmousedown="handlePan(1,0)">
                  <use xlink:href="#rim" fill="#404040">
                        <set attributeName="fill" to="#808080" begin="arrowRight.mouseover" end="arrowRight.mouseout"/>
                  </use>
                  <path fill="none" stroke="white" stroke-width="1.5" d="M0,-3.0v7 M-2.5,-0.5L0,-3.0L2.5,-0.5"/>
                </g>
                <g id="arrowDown" xlink:href="#dirArrow" transform="rotate(180) translate(-30 -48)" onmousedown="handlePan(0,1)">
                  <use xlink:href="#rim" fill="#404040">
                        <set attributeName="fill" to="#808080" begin="arrowDown.mouseover" end="arrowDown.mouseout"/>
                  </use>
                  <path fill="none" stroke="white" stroke-width="1.5" d="M0,-3.0v7 M-2.5,-0.5L0,-3.0L2.5,-0.5"/>
                </g>
                <g id="arrowLeft" xlink:href="#dirArrow" transform="rotate(270) translate(-36 17)" onmousedown="handlePan(-1,0)">
                  <use xlink:href="#rim" fill="#404040">
                        <set attributeName="fill" to="#808080" begin="arrowLeft.mouseover" end="arrowLeft.mouseout"/>
                  </use>
                  <path fill="none" stroke="white" stroke-width="1.5" d="M0,-3.0v7 M-2.5,-0.5L0,-3.0L2.5,-0.5"/>
                </g>
        </g>
        <svg viewBox="0 0 15 15" width="100%" height="30px" preserveAspectRatio="xMaxYMin meet">
         <g id="arrow_out" transform="scale(0.3 0.3)">
          <a xlink:href="core_8h__dep__incl_org.svg" target="_base">
           <rect id="button" ry="5" rx="5" y="6" x="6" height="38" width="38"
                fill="#f2f5e9" fill-opacity="0.5" stroke="#606060" stroke-width="1.0"/>
           <path id="arrow"
             d="M 11.500037,31.436501 C 11.940474,20.09759 22.043105,11.32322 32.158766,21.979434 L 37.068811,17.246167 C 37.068811,17.246167 37.088388,32 37.088388,32 L 22.160133,31.978069 C 22.160133,31.978069 26.997745,27.140456 26.997745,27.140456 C 18.528582,18.264221 13.291696,25.230495 11.500037,31.436501 z"
             style="fill:#404040;"/>
          </a>
         </g>
        </svg>
</svg>
