<?xml version="1.0" encoding="UTF-8" standalone="no"?>
<!DOCTYPE svg PUBLIC "-//W3C//DTD SVG 1.1//EN"
 "http://www.w3.org/Graphics/SVG/1.1/DTD/svg11.dtd">
<!-- Generated by graphviz version 2.43.0 (0)
 -->
<!-- Title: /home/runner/work/gauri/gauri/gauri/include/gauri/core/core.h Pages: 1 -->
<!--zoomable 420 -->
<svg id="main" version="1.1" xmlns="http://www.w3.org/2000/svg" xmlns:xlink="http://www.w3.org/1999/xlink" xml:space="preserve" onload="init(evt)">
<style type="text/css"><![CDATA[
.edge:hover path { stroke: red; }
.edge:hover polygon { stroke: red; fill: red; }
]]></style>
<script type="text/javascript"><![CDATA[
var edges = document.getElementsByTagName('g');
if (edges && edges.length) {
  for (var i=0;i<edges.length;i++) {
    if (edges[i].id.substr(0,4)=='edge') {
      edges[i].setAttribute('class','edge');
    }
  }
}
]]></script>
        <defs>
                <circle id="rim" cx="0" cy="0" r="7"/>
                <circle id="rim2" cx="0" cy="0" r="3.5"/>
                <g id="zoomPlus">
                        <use xlink:href="#rim" fill="#404040">
                                <set attributeName="fill" to="#808080" begin="zoomplus.mouseover" end="zoomplus.mouseout"/>
                        </use>
                        <path d="M-4,0h8M0,-4v8" fill="none" stroke="white" stroke-width="1.5" pointer-events="none"/>
                </g>
                <g id="zoomMin">
                        <use xlink:href="#rim" fill="#404040">
                                <set attributeName="fill" to="#808080" begin="zoomminus.mouseover" end="zoomminus.mouseout"/>
                        </use>
                        <path d="M-4,0h8" fill="none" stroke="white" stroke-width="1.5" pointer-events="none"/>
                </g>
                <g id="dirArrow">
                        <path fill="none" stroke="white" stroke-width="1.5" d="M0,-3.0v7 M-2.5,-0.5L0,-3.0L2.5,-0.5"/>
                </g>
               <g id="resetDef">
                       <use xlink:href="#rim2" fill="#404040">
                               <set attributeName="fill" to="#808080" begin="reset.mouseover" end="reset.mouseout"/>
                       </use>
               </g>
        </defs>

<script type="text/javascript">
var viewWidth = 3620;
var viewHeight = 420;
var sectionId = 'dynsection-1';
</script>
<script xlink:href="svgpan.js"/>
<svg id="graph" class="graph">
<g id="viewport">
<title>/home/runner/work/gauri/gauri/gauri/include/gauri/core/core.h</title>
<polygon fill="white" stroke="transparent" points="-4,4 -4,-416 3615.5,-416 3615.5,4 -4,4"/>
<!-- Node1 -->
<g id="node1" class="node">
<title>Node1</title>
<g id="a_node1"><a xlink:title=" ">
<polygon fill="#bfbfbf" stroke="black" points="836.5,-392.5 836.5,-411.5 1151.5,-411.5 1151.5,-392.5 836.5,-392.5"/>
<text text-anchor="middle" x="994" y="-399.5" font-family="Helvetica,sans-Serif" font-size="10.00">/home/runner/work/gauri/gauri/gauri/include/gauri/core/core.h</text>
</a>
</g>
</g>
<!-- Node2 -->
<g id="node2" class="node">
<title>Node2</title>
<g id="a_node2"><a xlink:href="input_8h.html" target="_top" xlink:title=" ">
<polygon fill="white" stroke="black" points="142.5,-336.5 142.5,-355.5 461.5,-355.5 461.5,-336.5 142.5,-336.5"/>
<text text-anchor="middle" x="302" y="-343.5" font-family="Helvetica,sans-Serif" font-size="10.00">/home/runner/work/gauri/gauri/gauri/include/gauri/core/input.h</text>
</a>
</g>
</g>
<!-- Node1&#45;&gt;Node2 -->
<g id="edge1" class="edge">
<title>Node1&#45;&gt;Node2</title>
<path fill="none" stroke="midnightblue" d="M874.7,-391.69C744.3,-381.51 537.15,-365.35 410.98,-355.5"/>
<polygon fill="midnightblue" stroke="midnightblue" points="874.49,-395.18 884.73,-392.47 875.04,-388.21 874.49,-395.18"/>
</g>
<!-- Node6 -->
<g id="node6" class="node">
<title>Node6</title>
<g id="a_node6"><a xlink:href="layer_8h.html" target="_top" xlink:title=" ">
<polygon fill="white" stroke="black" points="436,-224.5 436,-243.5 754,-243.5 754,-224.5 436,-224.5"/>
<text text-anchor="middle" x="595" y="-231.5" font-family="Helvetica,sans-Serif" font-size="10.00">/home/runner/work/gauri/gauri/gauri/include/gauri/core/layer.h</text>
</a>
</g>
</g>
<!-- Node1&#45;&gt;Node6 -->
<g id="edge5" class="edge">
<title>Node1&#45;&gt;Node6</title>
<path fill="none" stroke="midnightblue" d="M898.54,-390.92C857.23,-384.32 809.05,-373.52 768,-356 698.56,-326.36 628.85,-266.07 604.27,-243.65"/>
<polygon fill="midnightblue" stroke="midnightblue" points="898.2,-394.41 908.61,-392.47 899.26,-387.49 898.2,-394.41"/>
</g>
<!-- Node7 -->
<g id="node7" class="node">
<title>Node7</title>
<g id="a_node7"><a xlink:href="layer__stack_8h.html" target="_top" xlink:title=" ">
<polygon fill="white" stroke="black" points="442,-168.5 442,-187.5 792,-187.5 792,-168.5 442,-168.5"/>
<text text-anchor="middle" x="617" y="-175.5" font-family="Helvetica,sans-Serif" font-size="10.00">/home/runner/work/gauri/gauri/gauri/include/gauri/core/layer_stack.h</text>
</a>
</g>
</g>
<!-- Node1&#45;&gt;Node7 -->
<g id="edge13" class="edge">
<title>Node1&#45;&gt;Node7</title>
<path fill="none" stroke="midnightblue" d="M964.38,-388.31C927.77,-371.66 864.81,-339.83 820,-300 788.44,-271.95 797.53,-248.3 763,-224 736.21,-205.15 701.29,-194.01 672.32,-187.54"/>
<polygon fill="midnightblue" stroke="midnightblue" points="962.97,-391.51 973.53,-392.4 965.83,-385.12 962.97,-391.51"/>
</g>
<!-- Node10 -->
<g id="node10" class="node">
<title>Node10</title>
<g id="a_node10"><a xlink:href="event_8h.html" target="_top" xlink:title=" ">
<polygon fill="white" stroke="black" points="829.5,-280.5 829.5,-299.5 1158.5,-299.5 1158.5,-280.5 829.5,-280.5"/>
<text text-anchor="middle" x="994" y="-287.5" font-family="Helvetica,sans-Serif" font-size="10.00">/home/runner/work/gauri/gauri/gauri/include/gauri/event/event.h</text>
</a>
</g>
</g>
<!-- Node1&#45;&gt;Node10 -->
<g id="edge14" class="edge">
<title>Node1&#45;&gt;Node10</title>
<path fill="none" stroke="midnightblue" d="M994,-382.35C994,-358.25 994,-317.31 994,-299.59"/>
<polygon fill="midnightblue" stroke="midnightblue" points="990.5,-382.37 994,-392.37 997.5,-382.37 990.5,-382.37"/>
</g>
<!-- Node14 -->
<g id="node14" class="node">
<title>Node14</title>
<g id="a_node14"><a xlink:href="buffer_8h.html" target="_top" xlink:title=" ">
<polygon fill="white" stroke="black" points="1307,-336.5 1307,-355.5 1649,-355.5 1649,-336.5 1307,-336.5"/>
<text text-anchor="middle" x="1478" y="-343.5" font-family="Helvetica,sans-Serif" font-size="10.00">/home/runner/work/gauri/gauri/gauri/include/gauri/renderer/buffer.h</text>
</a>
</g>
</g>
<!-- Node1&#45;&gt;Node14 -->
<g id="edge22" class="edge">
<title>Node1&#45;&gt;Node14</title>
<path fill="none" stroke="midnightblue" d="M1080.47,-391.35C1171.76,-381.17 1314.28,-365.27 1401.58,-355.53"/>
<polygon fill="midnightblue" stroke="midnightblue" points="1079.97,-387.89 1070.42,-392.47 1080.75,-394.84 1079.97,-387.89"/>
</g>
<!-- Node22 -->
<g id="node22" class="node">
<title>Node22</title>
<g id="a_node22"><a xlink:href="shader_8h.html" target="_top" xlink:title=" ">
<polygon fill="white" stroke="black" points="2371.5,-168.5 2371.5,-187.5 2718.5,-187.5 2718.5,-168.5 2371.5,-168.5"/>
<text text-anchor="middle" x="2545" y="-175.5" font-family="Helvetica,sans-Serif" font-size="10.00">/home/runner/work/gauri/gauri/gauri/include/gauri/renderer/shader.h</text>
</a>
</g>
</g>
<!-- Node1&#45;&gt;Node22 -->
<g id="edge36" class="edge">
<title>Node1&#45;&gt;Node22</title>
<path fill="none" stroke="midnightblue" d="M1161.87,-400.69C1395.02,-397.13 1828.83,-379.16 2189,-300 2320.66,-271.06 2471.55,-210.08 2524.98,-187.58"/>
<polygon fill="midnightblue" stroke="midnightblue" points="1161.56,-397.19 1151.61,-400.84 1161.66,-404.19 1161.56,-397.19"/>
</g>
<!-- Node24 -->
<g id="node24" class="node">
<title>Node24</title>
<g id="a_node24"><a xlink:href="texture_8h.html" target="_top" xlink:title=" ">
<polygon fill="white" stroke="black" points="2609,-224.5 2609,-243.5 2959,-243.5 2959,-224.5 2609,-224.5"/>
<text text-anchor="middle" x="2784" y="-231.5" font-family="Helvetica,sans-Serif" font-size="10.00">/home/runner/work/gauri/gauri/gauri/include/gauri/renderer/texture.h</text>
</a>
</g>
</g>
<!-- Node1&#45;&gt;Node24 -->
<g id="edge40" class="edge">
<title>Node1&#45;&gt;Node24</title>
<path fill="none" stroke="midnightblue" d="M1161.59,-398.66C1515.48,-393.3 2316.57,-378.81 2439,-356 2568.79,-331.82 2715.42,-267.05 2765.85,-243.62"/>
<polygon fill="midnightblue" stroke="midnightblue" points="1161.46,-395.16 1151.51,-398.81 1161.56,-402.16 1161.46,-395.16"/>
</g>
<!-- Node3 -->
<g id="node3" class="node">
<title>Node3</title>
<g id="a_node3"><a xlink:href="gauri_8h.html" target="_top" xlink:title=" ">
<polygon fill="white" stroke="black" points="1274.5,-56.5 1274.5,-75.5 1541.5,-75.5 1541.5,-56.5 1274.5,-56.5"/>
<text text-anchor="middle" x="1408" y="-63.5" font-family="Helvetica,sans-Serif" font-size="10.00">/home/runner/work/gauri/gauri/gauri/include/gauri.h</text>
</a>
</g>
</g>
<!-- Node2&#45;&gt;Node3 -->
<g id="edge2" class="edge">
<title>Node2&#45;&gt;Node3</title>
<path fill="none" stroke="midnightblue" d="M214.71,-334.84C175.41,-328.18 129.16,-317.36 90,-300 44.89,-280 0,-284.34 0,-235 0,-235 0,-235 0,-177 0,-107.19 75.04,-127.99 143,-112 250.66,-86.67 971.26,-73.35 1274.22,-68.82"/>
<polygon fill="midnightblue" stroke="midnightblue" points="214.37,-338.33 224.8,-336.49 215.5,-331.42 214.37,-338.33"/>
</g>
<!-- Node5 -->
<g id="node5" class="node">
<title>Node5</title>
<g id="a_node5"><a xlink:href="windows__input_8h.html" target="_top" xlink:title=" ">
<polygon fill="white" stroke="black" points="99,-280.5 99,-299.5 505,-299.5 505,-280.5 99,-280.5"/>
<text text-anchor="middle" x="302" y="-287.5" font-family="Helvetica,sans-Serif" font-size="10.00">/home/runner/work/gauri/gauri/gauri/include/platform/windows/windows_input.h</text>
</a>
</g>
</g>
<!-- Node2&#45;&gt;Node5 -->
<g id="edge4" class="edge">
<title>Node2&#45;&gt;Node5</title>
<path fill="none" stroke="midnightblue" d="M302,-325.8C302,-316.91 302,-306.78 302,-299.75"/>
<polygon fill="midnightblue" stroke="midnightblue" points="298.5,-326.08 302,-336.08 305.5,-326.08 298.5,-326.08"/>
</g>
<!-- Node4 -->
<g id="node4" class="node">
<title>Node4</title>
<g id="a_node4"><a xlink:href="entry__point_8h.html" target="_top" xlink:title=" ">
<polygon fill="white" stroke="black" points="1233,-0.5 1233,-19.5 1583,-19.5 1583,-0.5 1233,-0.5"/>
<text text-anchor="middle" x="1408" y="-7.5" font-family="Helvetica,sans-Serif" font-size="10.00">/home/runner/work/gauri/gauri/gauri/include/gauri/core/entry_point.h</text>
</a>
</g>
</g>
<!-- Node3&#45;&gt;Node4 -->
<g id="edge3" class="edge">
<title>Node3&#45;&gt;Node4</title>
<path fill="none" stroke="midnightblue" d="M1408,-45.8C1408,-36.91 1408,-26.78 1408,-19.75"/>
<polygon fill="midnightblue" stroke="midnightblue" points="1404.5,-46.08 1408,-56.08 1411.5,-46.08 1404.5,-46.08"/>
</g>
<!-- Node6&#45;&gt;Node3 -->
<g id="edge12" class="edge">
<title>Node6&#45;&gt;Node3</title>
<path fill="none" stroke="midnightblue" d="M425.69,-230.12C277.43,-225.8 81.83,-214.99 57,-188 50.98,-181.46 51.24,-174.77 57,-168 134.82,-76.53 948.47,-66.72 1274.24,-66.5"/>
<polygon fill="midnightblue" stroke="midnightblue" points="425.74,-233.63 435.83,-230.41 425.93,-226.63 425.74,-233.63"/>
</g>
<!-- Node6&#45;&gt;Node7 -->
<g id="edge6" class="edge">
<title>Node6&#45;&gt;Node7</title>
<path fill="none" stroke="midnightblue" d="M602.46,-214.69C606.17,-205.59 610.48,-195.01 613.43,-187.75"/>
<polygon fill="midnightblue" stroke="midnightblue" points="599.16,-213.5 598.63,-224.08 605.65,-216.14 599.16,-213.5"/>
</g>
<!-- Node9 -->
<g id="node9" class="node">
<title>Node9</title>
<g id="a_node9"><a xlink:href="imgui__layer_8h.html" target="_top" xlink:title=" ">
<polygon fill="white" stroke="black" points="66,-168.5 66,-187.5 424,-187.5 424,-168.5 66,-168.5"/>
<text text-anchor="middle" x="245" y="-175.5" font-family="Helvetica,sans-Serif" font-size="10.00">/home/runner/work/gauri/gauri/gauri/include/gauri/imgui/imgui_layer.h</text>
</a>
</g>
</g>
<!-- Node6&#45;&gt;Node9 -->
<g id="edge9" class="edge">
<title>Node6&#45;&gt;Node9</title>
<path fill="none" stroke="midnightblue" d="M529.64,-222.92C463.52,-212.71 362.43,-197.12 300.2,-187.52"/>
<polygon fill="midnightblue" stroke="midnightblue" points="529.12,-226.38 539.54,-224.44 530.19,-219.46 529.12,-226.38"/>
</g>
<!-- Node8 -->
<g id="node8" class="node">
<title>Node8</title>
<g id="a_node8"><a xlink:href="application_8h.html" target="_top" xlink:title=" ">
<polygon fill="white" stroke="black" points="506,-112.5 506,-131.5 854,-131.5 854,-112.5 506,-112.5"/>
<text text-anchor="middle" x="680" y="-119.5" font-family="Helvetica,sans-Serif" font-size="10.00">/home/runner/work/gauri/gauri/gauri/include/gauri/core/application.h</text>
</a>
</g>
</g>
<!-- Node7&#45;&gt;Node8 -->
<g id="edge7" class="edge">
<title>Node7&#45;&gt;Node8</title>
<path fill="none" stroke="midnightblue" d="M635.04,-161.54C646.27,-151.91 660.32,-139.87 669.69,-131.83"/>
<polygon fill="midnightblue" stroke="midnightblue" points="632.44,-159.16 627.12,-168.32 636.99,-164.47 632.44,-159.16"/>
</g>
<!-- Node8&#45;&gt;Node3 -->
<g id="edge8" class="edge">
<title>Node8&#45;&gt;Node3</title>
<path fill="none" stroke="midnightblue" d="M805.09,-111.72C942.26,-101.55 1160.48,-85.36 1293.35,-75.5"/>
<polygon fill="midnightblue" stroke="midnightblue" points="804.67,-108.24 794.95,-112.47 805.18,-115.22 804.67,-108.24"/>
</g>
<!-- Node9&#45;&gt;Node3 -->
<g id="edge11" class="edge">
<title>Node9&#45;&gt;Node3</title>
<path fill="none" stroke="midnightblue" d="M280.43,-165.42C328.77,-150.19 418.39,-123.95 497,-112 642.79,-89.83 1058.65,-76.1 1274.44,-70.26"/>
<polygon fill="midnightblue" stroke="midnightblue" points="279.23,-162.13 270.76,-168.5 281.35,-168.8 279.23,-162.13"/>
</g>
<!-- Node9&#45;&gt;Node8 -->
<g id="edge10" class="edge">
<title>Node9&#45;&gt;Node8</title>
<path fill="none" stroke="midnightblue" d="M323.96,-167.2C406.08,-157 533.34,-141.21 611.4,-131.52"/>
<polygon fill="midnightblue" stroke="midnightblue" points="323.42,-163.74 313.93,-168.44 324.28,-170.68 323.42,-163.74"/>
</g>
<!-- Node10&#45;&gt;Node6 -->
<g id="edge16" class="edge">
<title>Node10&#45;&gt;Node6</title>
<path fill="none" stroke="midnightblue" d="M920.42,-279.04C845.06,-268.84 729.16,-253.16 657.93,-243.52"/>
<polygon fill="midnightblue" stroke="midnightblue" points="920.4,-282.57 930.78,-280.44 921.34,-275.63 920.4,-282.57"/>
</g>
<!-- Node10&#45;&gt;Node8 -->
<g id="edge15" class="edge">
<title>Node10&#45;&gt;Node8</title>
<path fill="none" stroke="midnightblue" d="M910.67,-278.01C885.52,-271.42 859.24,-260.87 839,-244 809.99,-219.82 829.1,-193.23 801,-168 780.07,-149.21 750.58,-138.03 725.96,-131.51"/>
<polygon fill="midnightblue" stroke="midnightblue" points="910.07,-281.47 920.61,-280.43 911.72,-274.66 910.07,-281.47"/>
</g>
<!-- Node11 -->
<g id="node11" class="node">
<title>Node11</title>
<g id="a_node11"><a xlink:href="window_8h.html" target="_top" xlink:title=" ">
<polygon fill="white" stroke="black" points="848.5,-224.5 848.5,-243.5 1179.5,-243.5 1179.5,-224.5 848.5,-224.5"/>
<text text-anchor="middle" x="1014" y="-231.5" font-family="Helvetica,sans-Serif" font-size="10.00">/home/runner/work/gauri/gauri/gauri/include/gauri/core/window.h</text>
</a>
</g>
</g>
<!-- Node10&#45;&gt;Node11 -->
<g id="edge17" class="edge">
<title>Node10&#45;&gt;Node11</title>
<path fill="none" stroke="midnightblue" d="M1000.78,-270.69C1004.15,-261.59 1008.07,-251.01 1010.76,-243.75"/>
<polygon fill="midnightblue" stroke="midnightblue" points="997.49,-269.49 997.3,-280.08 1004.06,-271.92 997.49,-269.49"/>
</g>
<!-- Node13 -->
<g id="node13" class="node">
<title>Node13</title>
<g id="a_node13"><a xlink:href="orthographic__camera__controller_8h.html" target="_top" xlink:title=" ">
<polygon fill="white" stroke="black" points="872.5,-112.5 872.5,-131.5 1341.5,-131.5 1341.5,-112.5 872.5,-112.5"/>
<text text-anchor="middle" x="1107" y="-119.5" font-family="Helvetica,sans-Serif" font-size="10.00">/home/runner/work/gauri/gauri/gauri/include/gauri/renderer/orthographic_camera_controller.h</text>
</a>
</g>
</g>
<!-- Node10&#45;&gt;Node13 -->
<g id="edge20" class="edge">
<title>Node10&#45;&gt;Node13</title>
<path fill="none" stroke="midnightblue" d="M1056.95,-278.67C1141.63,-263.28 1284.89,-231.4 1313,-188 1317.83,-180.54 1318.57,-174.92 1313,-168 1298.08,-149.47 1245.19,-138.15 1196.74,-131.5"/>
<polygon fill="midnightblue" stroke="midnightblue" points="1056.15,-275.26 1046.92,-280.47 1057.38,-282.15 1056.15,-275.26"/>
</g>
<!-- Node11&#45;&gt;Node8 -->
<g id="edge18" class="edge">
<title>Node11&#45;&gt;Node8</title>
<path fill="none" stroke="midnightblue" d="M975.08,-221.56C947.42,-213.1 909.56,-200.87 877,-188 857.4,-180.25 853.73,-175.42 834,-168 793.85,-152.9 746.28,-139.68 714.74,-131.55"/>
<polygon fill="midnightblue" stroke="midnightblue" points="974.2,-224.95 984.78,-224.5 976.23,-218.25 974.2,-224.95"/>
</g>
<!-- Node12 -->
<g id="node12" class="node">
<title>Node12</title>
<g id="a_node12"><a xlink:href="windows__window_8h.html" target="_top" xlink:title=" ">
<polygon fill="white" stroke="black" points="886,-168.5 886,-187.5 1304,-187.5 1304,-168.5 886,-168.5"/>
<text text-anchor="middle" x="1095" y="-175.5" font-family="Helvetica,sans-Serif" font-size="10.00">/home/runner/work/gauri/gauri/gauri/include/platform/windows/windows_window.h</text>
</a>
</g>
</g>
<!-- Node11&#45;&gt;Node12 -->
<g id="edge19" class="edge">
<title>Node11&#45;&gt;Node12</title>
<path fill="none" stroke="midnightblue" d="M1035.57,-218.62C1050.36,-208.76 1069.51,-195.99 1082.02,-187.65"/>
<polygon fill="midnightblue" stroke="midnightblue" points="1033.39,-215.86 1027.01,-224.32 1037.28,-221.69 1033.39,-215.86"/>
</g>
<!-- Node13&#45;&gt;Node3 -->
<g id="edge21" class="edge">
<title>Node13&#45;&gt;Node3</title>
<path fill="none" stroke="midnightblue" d="M1164.61,-110.66C1221.5,-100.46 1307.45,-85.04 1360.53,-75.52"/>
<polygon fill="midnightblue" stroke="midnightblue" points="1163.92,-107.23 1154.69,-112.44 1165.16,-114.12 1163.92,-107.23"/>
</g>
<!-- Node14&#45;&gt;Node3 -->
<g id="edge34" class="edge">
<title>Node14&#45;&gt;Node3</title>
<path fill="none" stroke="midnightblue" d="M1437.35,-332.62C1420.26,-325.55 1401.49,-315.03 1389,-300 1369.76,-276.85 1370,-265.1 1370,-235 1370,-235 1370,-235 1370,-177 1370,-137.4 1392.27,-93.96 1402.72,-75.77"/>
<polygon fill="midnightblue" stroke="midnightblue" points="1436.57,-336.07 1447.16,-336.39 1439.08,-329.53 1436.57,-336.07"/>
</g>
<!-- Node15 -->
<g id="node15" class="node">
<title>Node15</title>
<g id="a_node15"><a xlink:href="vertex__array_8h.html" target="_top" xlink:title=" ">
<polygon fill="white" stroke="black" points="1398.5,-280.5 1398.5,-299.5 1773.5,-299.5 1773.5,-280.5 1398.5,-280.5"/>
<text text-anchor="middle" x="1586" y="-287.5" font-family="Helvetica,sans-Serif" font-size="10.00">/home/runner/work/gauri/gauri/gauri/include/gauri/renderer/vertex_array.h</text>
</a>
</g>
</g>
<!-- Node14&#45;&gt;Node15 -->
<g id="edge23" class="edge">
<title>Node14&#45;&gt;Node15</title>
<path fill="none" stroke="midnightblue" d="M1504.55,-331.73C1524.55,-321.73 1551.39,-308.31 1568.69,-299.65"/>
<polygon fill="midnightblue" stroke="midnightblue" points="1502.73,-328.72 1495.35,-336.32 1505.86,-334.98 1502.73,-328.72"/>
</g>
<!-- Node21 -->
<g id="node21" class="node">
<title>Node21</title>
<g id="a_node21"><a xlink:href="opengl__buffer_8h.html" target="_top" xlink:title=" ">
<polygon fill="white" stroke="black" points="1791.5,-280.5 1791.5,-299.5 2180.5,-299.5 2180.5,-280.5 1791.5,-280.5"/>
<text text-anchor="middle" x="1986" y="-287.5" font-family="Helvetica,sans-Serif" font-size="10.00">/home/runner/work/gauri/gauri/gauri/include/platform/opengl/opengl_buffer.h</text>
</a>
</g>
</g>
<!-- Node14&#45;&gt;Node21 -->
<g id="edge35" class="edge">
<title>Node14&#45;&gt;Node21</title>
<path fill="none" stroke="midnightblue" d="M1568.17,-335.41C1663.97,-325.23 1813.98,-309.29 1905.79,-299.53"/>
<polygon fill="midnightblue" stroke="midnightblue" points="1567.79,-331.94 1558.21,-336.47 1568.53,-338.9 1567.79,-331.94"/>
</g>
<!-- Node15&#45;&gt;Node3 -->
<g id="edge32" class="edge">
<title>Node15&#45;&gt;Node3</title>
<path fill="none" stroke="midnightblue" d="M1511.06,-277.69C1489.49,-271.07 1467.59,-260.6 1452,-244 1405.6,-194.62 1406.03,-104.11 1407.42,-75.74"/>
<polygon fill="midnightblue" stroke="midnightblue" points="1510.36,-281.12 1520.93,-280.46 1512.25,-274.38 1510.36,-281.12"/>
</g>
<!-- Node16 -->
<g id="node16" class="node">
<title>Node16</title>
<g id="a_node16"><a xlink:href="renderer__api_8h.html" target="_top" xlink:title=" ">
<polygon fill="white" stroke="black" points="1461,-224.5 1461,-243.5 1837,-243.5 1837,-224.5 1461,-224.5"/>
<text text-anchor="middle" x="1649" y="-231.5" font-family="Helvetica,sans-Serif" font-size="10.00">/home/runner/work/gauri/gauri/gauri/include/gauri/renderer/renderer_api.h</text>
</a>
</g>
</g>
<!-- Node15&#45;&gt;Node16 -->
<g id="edge24" class="edge">
<title>Node15&#45;&gt;Node16</title>
<path fill="none" stroke="midnightblue" d="M1604.04,-273.54C1615.27,-263.91 1629.32,-251.87 1638.69,-243.83"/>
<polygon fill="midnightblue" stroke="midnightblue" points="1601.44,-271.16 1596.12,-280.32 1605.99,-276.47 1601.44,-271.16"/>
</g>
<!-- Node20 -->
<g id="node20" class="node">
<title>Node20</title>
<g id="a_node20"><a xlink:href="opengl__vertex__array_8h.html" target="_top" xlink:title=" ">
<polygon fill="white" stroke="black" points="1855,-224.5 1855,-243.5 2277,-243.5 2277,-224.5 1855,-224.5"/>
<text text-anchor="middle" x="2066" y="-231.5" font-family="Helvetica,sans-Serif" font-size="10.00">/home/runner/work/gauri/gauri/gauri/include/platform/opengl/opengl_vertex_array.h</text>
</a>
</g>
</g>
<!-- Node15&#45;&gt;Node20 -->
<g id="edge33" class="edge">
<title>Node15&#45;&gt;Node20</title>
<path fill="none" stroke="midnightblue" d="M1671.75,-279.35C1762.29,-269.17 1903.63,-253.27 1990.21,-243.53"/>
<polygon fill="midnightblue" stroke="midnightblue" points="1671.34,-275.88 1661.79,-280.47 1672.12,-282.83 1671.34,-275.88"/>
</g>
<!-- Node16&#45;&gt;Node3 -->
<g id="edge30" class="edge">
<title>Node16&#45;&gt;Node3</title>
<path fill="none" stroke="midnightblue" d="M1536.37,-222C1510.85,-215.23 1485.32,-204.61 1465,-188 1446.12,-172.57 1419.86,-101.03 1411.03,-75.82"/>
<polygon fill="midnightblue" stroke="midnightblue" points="1535.6,-225.41 1546.14,-224.4 1537.27,-218.61 1535.6,-225.41"/>
</g>
<!-- Node17 -->
<g id="node17" class="node">
<title>Node17</title>
<g id="a_node17"><a xlink:href="render__command_8h.html" target="_top" xlink:title=" ">
<polygon fill="white" stroke="black" points="1474,-168.5 1474,-187.5 1874,-187.5 1874,-168.5 1474,-168.5"/>
<text text-anchor="middle" x="1674" y="-175.5" font-family="Helvetica,sans-Serif" font-size="10.00">/home/runner/work/gauri/gauri/gauri/include/gauri/renderer/render_command.h</text>
</a>
</g>
</g>
<!-- Node16&#45;&gt;Node17 -->
<g id="edge25" class="edge">
<title>Node16&#45;&gt;Node17</title>
<path fill="none" stroke="midnightblue" d="M1657.34,-214.98C1661.58,-205.82 1666.55,-195.09 1669.95,-187.75"/>
<polygon fill="midnightblue" stroke="midnightblue" points="1654.15,-213.54 1653.13,-224.08 1660.51,-216.48 1654.15,-213.54"/>
</g>
<!-- Node18 -->
<g id="node18" class="node">
<title>Node18</title>
<g id="a_node18"><a xlink:href="renderer_8h.html" target="_top" xlink:title=" ">
<polygon fill="white" stroke="black" points="1666.5,-112.5 1666.5,-131.5 2021.5,-131.5 2021.5,-112.5 1666.5,-112.5"/>
<text text-anchor="middle" x="1844" y="-119.5" font-family="Helvetica,sans-Serif" font-size="10.00">/home/runner/work/gauri/gauri/gauri/include/gauri/renderer/renderer.h</text>
</a>
</g>
</g>
<!-- Node16&#45;&gt;Node18 -->
<g id="edge29" class="edge">
<title>Node16&#45;&gt;Node18</title>
<path fill="none" stroke="midnightblue" d="M1774.67,-223.14C1822.17,-216.58 1868.33,-205.75 1883,-188 1898.25,-169.53 1872.11,-144.47 1855.72,-131.52"/>
<polygon fill="midnightblue" stroke="midnightblue" points="1773.99,-219.7 1764.53,-224.48 1774.9,-226.64 1773.99,-219.7"/>
</g>
<!-- Node19 -->
<g id="node19" class="node">
<title>Node19</title>
<g id="a_node19"><a xlink:href="opengl__renderer__api_8h.html" target="_top" xlink:title=" ">
<polygon fill="white" stroke="black" points="1930.5,-168.5 1930.5,-187.5 2353.5,-187.5 2353.5,-168.5 1930.5,-168.5"/>
<text text-anchor="middle" x="2142" y="-175.5" font-family="Helvetica,sans-Serif" font-size="10.00">/home/runner/work/gauri/gauri/gauri/include/platform/opengl/opengl_renderer_api.h</text>
</a>
</g>
</g>
<!-- Node16&#45;&gt;Node19 -->
<g id="edge31" class="edge">
<title>Node16&#45;&gt;Node19</title>
<path fill="none" stroke="midnightblue" d="M1736.79,-223.38C1829.77,-213.2 1975.15,-197.28 2064.16,-187.53"/>
<polygon fill="midnightblue" stroke="midnightblue" points="1736.4,-219.91 1726.85,-224.47 1737.17,-226.86 1736.4,-219.91"/>
</g>
<!-- Node17&#45;&gt;Node3 -->
<g id="edge28" class="edge">
<title>Node17&#45;&gt;Node3</title>
<path fill="none" stroke="midnightblue" d="M1643.64,-164.45C1589.01,-141.86 1475.49,-94.91 1428.78,-75.59"/>
<polygon fill="midnightblue" stroke="midnightblue" points="1642.55,-167.78 1653.13,-168.37 1645.22,-161.31 1642.55,-167.78"/>
</g>
<!-- Node17&#45;&gt;Node18 -->
<g id="edge26" class="edge">
<title>Node17&#45;&gt;Node18</title>
<path fill="none" stroke="midnightblue" d="M1710.82,-165.3C1742.85,-155.13 1788.52,-140.62 1817.19,-131.52"/>
<polygon fill="midnightblue" stroke="midnightblue" points="1709.41,-162.08 1700.94,-168.44 1711.53,-168.75 1709.41,-162.08"/>
</g>
<!-- Node18&#45;&gt;Node3 -->
<g id="edge27" class="edge">
<title>Node18&#45;&gt;Node3</title>
<path fill="none" stroke="midnightblue" d="M1764.86,-111.2C1682.55,-101 1555,-85.21 1476.76,-75.52"/>
<polygon fill="midnightblue" stroke="midnightblue" points="1764.56,-114.69 1774.91,-112.44 1765.42,-107.74 1764.56,-114.69"/>
</g>
<!-- Node22&#45;&gt;Node3 -->
<g id="edge38" class="edge">
<title>Node22&#45;&gt;Node3</title>
<path fill="none" stroke="midnightblue" d="M2475.48,-167.03C2376.66,-153.13 2189.8,-127.85 2030,-112 1861.93,-95.33 1667.72,-82.26 1541.64,-74.6"/>
<polygon fill="midnightblue" stroke="midnightblue" points="2475.25,-170.53 2485.64,-168.46 2476.23,-163.6 2475.25,-170.53"/>
</g>
<!-- Node22&#45;&gt;Node18 -->
<g id="edge37" class="edge">
<title>Node22&#45;&gt;Node18</title>
<path fill="none" stroke="midnightblue" d="M2424.15,-167.69C2292.05,-157.51 2082.21,-141.35 1954.4,-131.5"/>
<polygon fill="midnightblue" stroke="midnightblue" points="2424.07,-171.19 2434.31,-168.47 2424.61,-164.22 2424.07,-171.19"/>
</g>
<!-- Node23 -->
<g id="node23" class="node">
<title>Node23</title>
<g id="a_node23"><a xlink:href="opengl__shader_8h.html" target="_top" xlink:title=" ">
<polygon fill="white" stroke="black" points="2324,-112.5 2324,-131.5 2718,-131.5 2718,-112.5 2324,-112.5"/>
<text text-anchor="middle" x="2521" y="-119.5" font-family="Helvetica,sans-Serif" font-size="10.00">/home/runner/work/gauri/gauri/gauri/include/platform/opengl/opengl_shader.h</text>
</a>
</g>
</g>
<!-- Node22&#45;&gt;Node23 -->
<g id="edge39" class="edge">
<title>Node22&#45;&gt;Node23</title>
<path fill="none" stroke="midnightblue" d="M2536.86,-158.69C2532.82,-149.59 2528.12,-139.01 2524.89,-131.75"/>
<polygon fill="midnightblue" stroke="midnightblue" points="2533.78,-160.37 2541.04,-168.08 2540.17,-157.52 2533.78,-160.37"/>
</g>
<!-- Node24&#45;&gt;Node3 -->
<g id="edge45" class="edge">
<title>Node24&#45;&gt;Node3</title>
<path fill="none" stroke="midnightblue" d="M2781.31,-214.31C2776.21,-186.56 2762.28,-135.23 2727,-112 2678.13,-79.82 1867.12,-70.34 1541.62,-67.83"/>
<polygon fill="midnightblue" stroke="midnightblue" points="2777.87,-215 2782.95,-224.3 2784.78,-213.87 2777.87,-215"/>
</g>
<!-- Node25 -->
<g id="node25" class="node">
<title>Node25</title>
<g id="a_node25"><a xlink:href="renderer__2d_8h.html" target="_top" xlink:title=" ">
<polygon fill="white" stroke="black" points="2774.5,-112.5 2774.5,-131.5 3147.5,-131.5 3147.5,-112.5 2774.5,-112.5"/>
<text text-anchor="middle" x="2961" y="-119.5" font-family="Helvetica,sans-Serif" font-size="10.00">/home/runner/work/gauri/gauri/gauri/include/gauri/renderer/renderer_2d.h</text>
</a>
</g>
</g>
<!-- Node24&#45;&gt;Node25 -->
<g id="edge41" class="edge">
<title>Node24&#45;&gt;Node25</title>
<path fill="none" stroke="midnightblue" d="M2784.79,-213.77C2786.4,-199.32 2790.89,-180.03 2803,-168 2822.02,-149.11 2848.38,-138.02 2874.12,-131.56"/>
<polygon fill="midnightblue" stroke="midnightblue" points="2781.27,-213.85 2784.02,-224.08 2788.25,-214.37 2781.27,-213.85"/>
</g>
<!-- Node26 -->
<g id="node26" class="node">
<title>Node26</title>
<g id="a_node26"><a xlink:href="subtexture__2d_8h.html" target="_top" xlink:title=" ">
<polygon fill="white" stroke="black" points="2812,-168.5 2812,-187.5 3196,-187.5 3196,-168.5 2812,-168.5"/>
<text text-anchor="middle" x="3004" y="-175.5" font-family="Helvetica,sans-Serif" font-size="10.00">/home/runner/work/gauri/gauri/gauri/include/gauri/renderer/subtexture_2d.h</text>
</a>
</g>
</g>
<!-- Node24&#45;&gt;Node26 -->
<g id="edge43" class="edge">
<title>Node24&#45;&gt;Node26</title>
<path fill="none" stroke="midnightblue" d="M2828.72,-222.02C2870.28,-211.82 2931.31,-196.84 2969.3,-187.52"/>
<polygon fill="midnightblue" stroke="midnightblue" points="2827.74,-218.66 2818.86,-224.44 2829.41,-225.46 2827.74,-218.66"/>
</g>
<!-- Node27 -->
<g id="node27" class="node">
<title>Node27</title>
<g id="a_node27"><a xlink:href="opengl__texture_8h.html" target="_top" xlink:title=" ">
<polygon fill="white" stroke="black" points="3214.5,-168.5 3214.5,-187.5 3611.5,-187.5 3611.5,-168.5 3214.5,-168.5"/>
<text text-anchor="middle" x="3413" y="-175.5" font-family="Helvetica,sans-Serif" font-size="10.00">/home/runner/work/gauri/gauri/gauri/include/platform/opengl/opengl_texture.h</text>
</a>
</g>
</g>
<!-- Node24&#45;&gt;Node27 -->
<g id="edge46" class="edge">
<title>Node24&#45;&gt;Node27</title>
<path fill="none" stroke="midnightblue" d="M2893.51,-223.6C3012.1,-213.42 3199.6,-197.32 3313.94,-187.5"/>
<polygon fill="midnightblue" stroke="midnightblue" points="2892.98,-220.13 2883.32,-224.47 2893.58,-227.11 2892.98,-220.13"/>
</g>
<!-- Node25&#45;&gt;Node3 -->
<g id="edge42" class="edge">
<title>Node25&#45;&gt;Node3</title>
<path fill="none" stroke="midnightblue" d="M2763.99,-112.16C2762.66,-112.1 2761.33,-112.05 2760,-112 2313.83,-94.59 1784.66,-78.22 1541.87,-70.95"/>
<polygon fill="midnightblue" stroke="midnightblue" points="2764.17,-115.67 2774.3,-112.57 2764.45,-108.67 2764.17,-115.67"/>
</g>
<!-- Node26&#45;&gt;Node25 -->
<g id="edge44" class="edge">
<title>Node26&#45;&gt;Node25</title>
<path fill="none" stroke="midnightblue" d="M2990.58,-160.14C2983.09,-150.74 2974.06,-139.4 2967.97,-131.75"/>
<polygon fill="midnightblue" stroke="midnightblue" points="2987.93,-162.44 2996.9,-168.08 2993.41,-158.08 2987.93,-162.44"/>
</g>
</g>
</svg>
        <g id="navigator" transform="translate(0 0)" fill="#404254">
                <rect fill="#f2f5e9" fill-opacity="0.5" stroke="#606060" stroke-width=".5" x="0" y="0" width="60" height="60"/>
                <use id="zoomplus" xlink:href="#zoomPlus" x="17" y="9" onmousedown="handleZoom(evt,'in')"/>
                <use id="zoomminus" xlink:href="#zoomMin" x="42" y="9" onmousedown="handleZoom(evt,'out')"/>
                <use id="reset" xlink:href="#resetDef" x="30" y="36" onmousedown="handleReset()"/>
                <g id="arrowUp" xlink:href="#dirArrow" transform="translate(30 24)" onmousedown="handlePan(0,-1)">
                  <use xlink:href="#rim" fill="#404040">
                        <set attributeName="fill" to="#808080" begin="arrowUp.mouseover" end="arrowUp.mouseout"/>
                  </use>
                  <path fill="none" stroke="white" stroke-width="1.5" d="M0,-3.0v7 M-2.5,-0.5L0,-3.0L2.5,-0.5"/>
                </g>
                <g id="arrowRight" xlink:href="#dirArrow" transform="rotate(90) translate(36 -43)" onmousedown="handlePan(1,0)">
                  <use xlink:href="#rim" fill="#404040">
                        <set attributeName="fill" to="#808080" begin="arrowRight.mouseover" end="arrowRight.mouseout"/>
                  </use>
                  <path fill="none" stroke="white" stroke-width="1.5" d="M0,-3.0v7 M-2.5,-0.5L0,-3.0L2.5,-0.5"/>
                </g>
                <g id="arrowDown" xlink:href="#dirArrow" transform="rotate(180) translate(-30 -48)" onmousedown="handlePan(0,1)">
                  <use xlink:href="#rim" fill="#404040">
                        <set attributeName="fill" to="#808080" begin="arrowDown.mouseover" end="arrowDown.mouseout"/>
                  </use>
                  <path fill="none" stroke="white" stroke-width="1.5" d="M0,-3.0v7 M-2.5,-0.5L0,-3.0L2.5,-0.5"/>
                </g>
                <g id="arrowLeft" xlink:href="#dirArrow" transform="rotate(270) translate(-36 17)" onmousedown="handlePan(-1,0)">
                  <use xlink:href="#rim" fill="#404040">
                        <set attributeName="fill" to="#808080" begin="arrowLeft.mouseover" end="arrowLeft.mouseout"/>
                  </use>
                  <path fill="none" stroke="white" stroke-width="1.5" d="M0,-3.0v7 M-2.5,-0.5L0,-3.0L2.5,-0.5"/>
                </g>
        </g>
        <svg viewBox="0 0 15 15" width="100%" height="30px" preserveAspectRatio="xMaxYMin meet">
         <g id="arrow_out" transform="scale(0.3 0.3)">
          <a xlink:href="core_8h__dep__incl_org.svg" target="_base">
           <rect id="button" ry="5" rx="5" y="6" x="6" height="38" width="38"
                fill="#f2f5e9" fill-opacity="0.5" stroke="#606060" stroke-width="1.0"/>
           <path id="arrow"
             d="M 11.500037,31.436501 C 11.940474,20.09759 22.043105,11.32322 32.158766,21.979434 L 37.068811,17.246167 C 37.068811,17.246167 37.088388,32 37.088388,32 L 22.160133,31.978069 C 22.160133,31.978069 26.997745,27.140456 26.997745,27.140456 C 18.528582,18.264221 13.291696,25.230495 11.500037,31.436501 z"
             style="fill:#404040;"/>
          </a>
         </g>
        </svg>
</svg>
