<?xml version="1.0" encoding="UTF-8" standalone="no"?>
<!DOCTYPE svg PUBLIC "-//W3C//DTD SVG 1.1//EN"
 "http://www.w3.org/Graphics/SVG/1.1/DTD/svg11.dtd">
<!-- Generated by graphviz version 2.43.0 (0)
 -->
<!-- Title: /home/runner/work/gauri/gauri/gauri/include/gauri/core.h Pages: 1 -->
<svg width="2784pt" height="420pt"
 viewBox="0.00 0.00 2784.32 420.00" xmlns="http://www.w3.org/2000/svg" xmlns:xlink="http://www.w3.org/1999/xlink">
<g id="graph0" class="graph" transform="scale(1 1) rotate(0) translate(4 416)">
<title>/home/runner/work/gauri/gauri/gauri/include/gauri/core.h</title>
<polygon fill="white" stroke="transparent" points="-4,4 -4,-416 2780.32,-416 2780.32,4 -4,4"/>
<!-- Node1 -->
<g id="node1" class="node">
<title>Node1</title>
<g id="a_node1"><a xlink:title=" ">
<polygon fill="#bfbfbf" stroke="black" points="1027.63,-392.5 1027.63,-411.5 1318.63,-411.5 1318.63,-392.5 1027.63,-392.5"/>
<text text-anchor="middle" x="1173.13" y="-399.5" font-family="Helvetica,sans-Serif" font-size="10.00">/home/runner/work/gauri/gauri/gauri/include/gauri/core.h</text>
</a>
</g>
</g>
<!-- Node2 -->
<g id="node2" class="node">
<title>Node2</title>
<g id="a_node2"><a xlink:href="event_8h.html" target="_top" xlink:title=" ">
<polygon fill="white" stroke="black" points="580.63,-280.5 580.63,-299.5 909.63,-299.5 909.63,-280.5 580.63,-280.5"/>
<text text-anchor="middle" x="745.13" y="-287.5" font-family="Helvetica,sans-Serif" font-size="10.00">/home/runner/work/gauri/gauri/gauri/include/gauri/event/event.h</text>
</a>
</g>
</g>
<!-- Node1&#45;&gt;Node2 -->
<g id="edge1" class="edge">
<title>Node1&#45;&gt;Node2</title>
<path fill="none" stroke="midnightblue" d="M1130,-389.92C1044.47,-367.93 855.04,-319.25 778.34,-299.53"/>
<polygon fill="midnightblue" stroke="midnightblue" points="1129.35,-393.36 1139.9,-392.46 1131.09,-386.58 1129.35,-393.36"/>
</g>
<!-- Node6 -->
<g id="node6" class="node">
<title>Node6</title>
<g id="a_node6"><a xlink:href="layer_8h.html" target="_top" xlink:title=" ">
<polygon fill="white" stroke="black" points="231.13,-224.5 231.13,-243.5 525.13,-243.5 525.13,-224.5 231.13,-224.5"/>
<text text-anchor="middle" x="378.13" y="-231.5" font-family="Helvetica,sans-Serif" font-size="10.00">/home/runner/work/gauri/gauri/gauri/include/gauri/layer.h</text>
</a>
</g>
</g>
<!-- Node1&#45;&gt;Node6 -->
<g id="edge21" class="edge">
<title>Node1&#45;&gt;Node6</title>
<path fill="none" stroke="midnightblue" d="M1017.11,-399.98C858.2,-397.15 623.52,-387.54 539.13,-356 471.33,-330.66 407.91,-267.19 386.12,-243.82"/>
<polygon fill="midnightblue" stroke="midnightblue" points="1017.41,-403.48 1027.46,-400.16 1017.52,-396.49 1017.41,-403.48"/>
</g>
<!-- Node8 -->
<g id="node8" class="node">
<title>Node8</title>
<g id="a_node8"><a xlink:href="layer__stack_8h.html" target="_top" xlink:title=" ">
<polygon fill="white" stroke="black" points="390.13,-168.5 390.13,-187.5 716.13,-187.5 716.13,-168.5 390.13,-168.5"/>
<text text-anchor="middle" x="553.13" y="-175.5" font-family="Helvetica,sans-Serif" font-size="10.00">/home/runner/work/gauri/gauri/gauri/include/gauri/layer_stack.h</text>
</a>
</g>
</g>
<!-- Node1&#45;&gt;Node8 -->
<g id="edge22" class="edge">
<title>Node1&#45;&gt;Node8</title>
<path fill="none" stroke="midnightblue" d="M1017.3,-395C860.31,-385.53 632.84,-361.36 572.13,-300 541.47,-269.01 547.73,-210.06 551.44,-187.8"/>
<polygon fill="midnightblue" stroke="midnightblue" points="1017.35,-398.5 1027.54,-395.6 1017.76,-391.52 1017.35,-398.5"/>
</g>
<!-- Node12 -->
<g id="node12" class="node">
<title>Node12</title>
<g id="a_node12"><a xlink:href="input_8h.html" target="_top" xlink:title=" ">
<polygon fill="white" stroke="black" points="1025.63,-336.5 1025.63,-355.5 1320.63,-355.5 1320.63,-336.5 1025.63,-336.5"/>
<text text-anchor="middle" x="1173.13" y="-343.5" font-family="Helvetica,sans-Serif" font-size="10.00">/home/runner/work/gauri/gauri/gauri/include/gauri/input.h</text>
</a>
</g>
</g>
<!-- Node1&#45;&gt;Node12 -->
<g id="edge18" class="edge">
<title>Node1&#45;&gt;Node12</title>
<path fill="none" stroke="midnightblue" d="M1173.13,-381.8C1173.13,-372.91 1173.13,-362.78 1173.13,-355.75"/>
<polygon fill="midnightblue" stroke="midnightblue" points="1169.63,-382.08 1173.13,-392.08 1176.63,-382.08 1169.63,-382.08"/>
</g>
<!-- Node14 -->
<g id="node14" class="node">
<title>Node14</title>
<g id="a_node14"><a xlink:href="buffer_8h.html" target="_top" xlink:title=" ">
<polygon fill="white" stroke="black" points="1424.13,-336.5 1424.13,-355.5 1766.13,-355.5 1766.13,-336.5 1424.13,-336.5"/>
<text text-anchor="middle" x="1595.13" y="-343.5" font-family="Helvetica,sans-Serif" font-size="10.00">/home/runner/work/gauri/gauri/gauri/include/gauri/renderer/buffer.h</text>
</a>
</g>
</g>
<!-- Node1&#45;&gt;Node14 -->
<g id="edge23" class="edge">
<title>Node1&#45;&gt;Node14</title>
<path fill="none" stroke="midnightblue" d="M1249.97,-391.17C1329.65,-380.97 1452.93,-365.2 1528.58,-355.52"/>
<polygon fill="midnightblue" stroke="midnightblue" points="1249.47,-387.7 1240,-392.44 1250.36,-394.65 1249.47,-387.7"/>
</g>
<!-- Node22 -->
<g id="node22" class="node">
<title>Node22</title>
<g id="a_node22"><a xlink:href="shader_8h.html" target="_top" xlink:title=" ">
<polygon fill="white" stroke="black" points="2400.63,-168.5 2400.63,-187.5 2747.63,-187.5 2747.63,-168.5 2400.63,-168.5"/>
<text text-anchor="middle" x="2574.13" y="-175.5" font-family="Helvetica,sans-Serif" font-size="10.00">/home/runner/work/gauri/gauri/gauri/include/gauri/renderer/shader.h</text>
</a>
</g>
</g>
<!-- Node1&#45;&gt;Node22 -->
<g id="edge37" class="edge">
<title>Node1&#45;&gt;Node22</title>
<path fill="none" stroke="midnightblue" d="M1328.92,-399.87C1539.06,-395.29 1923.69,-376.05 2242.13,-300 2365.35,-270.57 2505.8,-209.89 2555.51,-187.52"/>
<polygon fill="midnightblue" stroke="midnightblue" points="1328.66,-396.38 1318.74,-400.09 1328.81,-403.38 1328.66,-396.38"/>
</g>
<!-- Node24 -->
<g id="node24" class="node">
<title>Node24</title>
<g id="a_node24"><a xlink:href="texture_8h.html" target="_top" xlink:title=" ">
<polygon fill="white" stroke="black" points="2370.13,-336.5 2370.13,-355.5 2720.13,-355.5 2720.13,-336.5 2370.13,-336.5"/>
<text text-anchor="middle" x="2545.13" y="-343.5" font-family="Helvetica,sans-Serif" font-size="10.00">/home/runner/work/gauri/gauri/gauri/include/gauri/renderer/texture.h</text>
</a>
</g>
</g>
<!-- Node1&#45;&gt;Node24 -->
<g id="edge41" class="edge">
<title>Node1&#45;&gt;Node24</title>
<path fill="none" stroke="midnightblue" d="M1328.82,-395.03C1550.36,-386.5 1969.31,-370.29 2326.13,-356 2340.39,-355.43 2355.17,-354.83 2370.01,-354.23"/>
<polygon fill="midnightblue" stroke="midnightblue" points="1328.6,-391.53 1318.74,-395.41 1328.87,-398.53 1328.6,-391.53"/>
</g>
<!-- Node3 -->
<g id="node3" class="node">
<title>Node3</title>
<g id="a_node3"><a xlink:href="application_8h.html" target="_top" xlink:title=" ">
<polygon fill="white" stroke="black" points="565.13,-112.5 565.13,-131.5 889.13,-131.5 889.13,-112.5 565.13,-112.5"/>
<text text-anchor="middle" x="727.13" y="-119.5" font-family="Helvetica,sans-Serif" font-size="10.00">/home/runner/work/gauri/gauri/gauri/include/gauri/application.h</text>
</a>
</g>
</g>
<!-- Node2&#45;&gt;Node3 -->
<g id="edge2" class="edge">
<title>Node2&#45;&gt;Node3</title>
<path fill="none" stroke="midnightblue" d="M840.19,-279.36C987.79,-262.51 1250.12,-224.09 1199.13,-168 1187.81,-155.55 998.42,-140.65 863.04,-131.5"/>
<polygon fill="midnightblue" stroke="midnightblue" points="839.75,-275.88 830.21,-280.48 840.54,-282.84 839.75,-275.88"/>
</g>
<!-- Node2&#45;&gt;Node6 -->
<g id="edge6" class="edge">
<title>Node2&#45;&gt;Node6</title>
<path fill="none" stroke="midnightblue" d="M677.03,-278.98C607.7,-268.78 501.4,-253.14 436.01,-243.52"/>
<polygon fill="midnightblue" stroke="midnightblue" points="676.57,-282.45 686.98,-280.44 677.59,-275.53 676.57,-282.45"/>
</g>
<!-- Node9 -->
<g id="node9" class="node">
<title>Node9</title>
<g id="a_node9"><a xlink:href="orthographic__camera__controller_8h.html" target="_top" xlink:title=" ">
<polygon fill="white" stroke="black" points="907.63,-112.5 907.63,-131.5 1332.63,-131.5 1332.63,-112.5 907.63,-112.5"/>
<text text-anchor="middle" x="1120.13" y="-119.5" font-family="Helvetica,sans-Serif" font-size="10.00">/home/runner/work/gauri/gauri/gauri/include/gauri/orthographic_camera_controller.h</text>
</a>
</g>
</g>
<!-- Node2&#45;&gt;Node9 -->
<g id="edge13" class="edge">
<title>Node2&#45;&gt;Node9</title>
<path fill="none" stroke="midnightblue" d="M866.57,-279.58C957.16,-271.58 1072.77,-259.01 1118.13,-244 1165.75,-228.24 1190.95,-231.39 1216.13,-188 1232.45,-159.89 1189.97,-141.37 1156.39,-131.54"/>
<polygon fill="midnightblue" stroke="midnightblue" points="866.15,-276.11 856.49,-280.47 866.76,-283.08 866.15,-276.11"/>
</g>
<!-- Node10 -->
<g id="node10" class="node">
<title>Node10</title>
<g id="a_node10"><a xlink:href="window_8h.html" target="_top" xlink:title=" ">
<polygon fill="white" stroke="black" points="591.63,-224.5 591.63,-243.5 898.63,-243.5 898.63,-224.5 591.63,-224.5"/>
<text text-anchor="middle" x="745.13" y="-231.5" font-family="Helvetica,sans-Serif" font-size="10.00">/home/runner/work/gauri/gauri/gauri/include/gauri/window.h</text>
</a>
</g>
</g>
<!-- Node2&#45;&gt;Node10 -->
<g id="edge15" class="edge">
<title>Node2&#45;&gt;Node10</title>
<path fill="none" stroke="midnightblue" d="M745.13,-269.8C745.13,-260.91 745.13,-250.78 745.13,-243.75"/>
<polygon fill="midnightblue" stroke="midnightblue" points="741.63,-270.08 745.13,-280.08 748.63,-270.08 741.63,-270.08"/>
</g>
<!-- Node4 -->
<g id="node4" class="node">
<title>Node4</title>
<g id="a_node4"><a xlink:href="gauri_8h.html" target="_top" xlink:title=" ">
<polygon fill="white" stroke="black" points="1284.63,-56.5 1284.63,-75.5 1551.63,-75.5 1551.63,-56.5 1284.63,-56.5"/>
<text text-anchor="middle" x="1418.13" y="-63.5" font-family="Helvetica,sans-Serif" font-size="10.00">/home/runner/work/gauri/gauri/gauri/include/gauri.h</text>
</a>
</g>
</g>
<!-- Node3&#45;&gt;Node4 -->
<g id="edge3" class="edge">
<title>Node3&#45;&gt;Node4</title>
<path fill="none" stroke="midnightblue" d="M846.26,-111.69C976.47,-101.51 1183.32,-85.35 1309.31,-75.5"/>
<polygon fill="midnightblue" stroke="midnightblue" points="845.94,-108.2 836.24,-112.47 846.48,-115.18 845.94,-108.2"/>
</g>
<!-- Node5 -->
<g id="node5" class="node">
<title>Node5</title>
<g id="a_node5"><a xlink:href="entry__point_8h.html" target="_top" xlink:title=" ">
<polygon fill="white" stroke="black" points="1255.13,-0.5 1255.13,-19.5 1581.13,-19.5 1581.13,-0.5 1255.13,-0.5"/>
<text text-anchor="middle" x="1418.13" y="-7.5" font-family="Helvetica,sans-Serif" font-size="10.00">/home/runner/work/gauri/gauri/gauri/include/gauri/entry_point.h</text>
</a>
</g>
</g>
<!-- Node4&#45;&gt;Node5 -->
<g id="edge4" class="edge">
<title>Node4&#45;&gt;Node5</title>
<path fill="none" stroke="midnightblue" d="M1411.66,-46.1C1411.03,-37.14 1411.47,-26.86 1413,-19.75"/>
<polygon fill="midnightblue" stroke="midnightblue" points="1408.2,-46.62 1412.96,-56.08 1415.14,-45.71 1408.2,-46.62"/>
</g>
<!-- Node5&#45;&gt;Node4 -->
<g id="edge5" class="edge">
<title>Node5&#45;&gt;Node4</title>
<path fill="none" stroke="midnightblue" d="M1424.59,-29.69C1425.24,-38.64 1424.81,-48.93 1423.3,-56.08"/>
<polygon fill="midnightblue" stroke="midnightblue" points="1428.05,-29.2 1423.26,-19.75 1421.11,-30.13 1428.05,-29.2"/>
</g>
<!-- Node6&#45;&gt;Node4 -->
<g id="edge12" class="edge">
<title>Node6&#45;&gt;Node4</title>
<path fill="none" stroke="midnightblue" d="M220.86,-227.78C105.02,-220.89 -27.17,-204.93 5.13,-168 88.32,-72.9 948.46,-65.4 1284.58,-66.14"/>
<polygon fill="midnightblue" stroke="midnightblue" points="220.75,-231.28 230.94,-228.36 221.16,-224.29 220.75,-231.28"/>
</g>
<!-- Node7 -->
<g id="node7" class="node">
<title>Node7</title>
<g id="a_node7"><a xlink:href="imgui__layer_8h.html" target="_top" xlink:title=" ">
<polygon fill="white" stroke="black" points="14.13,-168.5 14.13,-187.5 372.13,-187.5 372.13,-168.5 14.13,-168.5"/>
<text text-anchor="middle" x="193.13" y="-175.5" font-family="Helvetica,sans-Serif" font-size="10.00">/home/runner/work/gauri/gauri/gauri/include/gauri/imgui/imgui_layer.h</text>
</a>
</g>
</g>
<!-- Node6&#45;&gt;Node7 -->
<g id="edge7" class="edge">
<title>Node6&#45;&gt;Node7</title>
<path fill="none" stroke="midnightblue" d="M338.96,-221.57C304.06,-211.38 253.78,-196.7 222.31,-187.52"/>
<polygon fill="midnightblue" stroke="midnightblue" points="338.24,-225 348.82,-224.44 340.2,-218.28 338.24,-225"/>
</g>
<!-- Node6&#45;&gt;Node8 -->
<g id="edge10" class="edge">
<title>Node6&#45;&gt;Node8</title>
<path fill="none" stroke="midnightblue" d="M415.6,-221.44C448.6,-211.26 495.89,-196.66 525.53,-187.52"/>
<polygon fill="midnightblue" stroke="midnightblue" points="414.38,-218.15 405.86,-224.44 416.45,-224.84 414.38,-218.15"/>
</g>
<!-- Node7&#45;&gt;Node3 -->
<g id="edge8" class="edge">
<title>Node7&#45;&gt;Node3</title>
<path fill="none" stroke="midnightblue" d="M287.62,-167.45C388.29,-157.26 546.21,-141.3 642.81,-131.53"/>
<polygon fill="midnightblue" stroke="midnightblue" points="287.05,-163.98 277.45,-168.47 287.75,-170.95 287.05,-163.98"/>
</g>
<!-- Node7&#45;&gt;Node4 -->
<g id="edge9" class="edge">
<title>Node7&#45;&gt;Node4</title>
<path fill="none" stroke="midnightblue" d="M241.76,-166.29C311.14,-151.47 442.7,-125.06 556.13,-112 812.75,-82.44 1114.6,-72.29 1284.43,-68.81"/>
<polygon fill="midnightblue" stroke="midnightblue" points="240.62,-162.96 231.58,-168.48 242.09,-169.8 240.62,-162.96"/>
</g>
<!-- Node8&#45;&gt;Node3 -->
<g id="edge11" class="edge">
<title>Node8&#45;&gt;Node3</title>
<path fill="none" stroke="midnightblue" d="M590.39,-165.44C623.2,-155.26 670.21,-140.66 699.69,-131.52"/>
<polygon fill="midnightblue" stroke="midnightblue" points="589.21,-162.14 580.7,-168.44 591.29,-168.82 589.21,-162.14"/>
</g>
<!-- Node9&#45;&gt;Node4 -->
<g id="edge14" class="edge">
<title>Node9&#45;&gt;Node4</title>
<path fill="none" stroke="midnightblue" d="M1177.52,-110.6C1233.84,-100.4 1318.69,-85.02 1371.13,-75.52"/>
<polygon fill="midnightblue" stroke="midnightblue" points="1176.56,-107.22 1167.35,-112.44 1177.81,-114.1 1176.56,-107.22"/>
</g>
<!-- Node10&#45;&gt;Node3 -->
<g id="edge16" class="edge">
<title>Node10&#45;&gt;Node3</title>
<path fill="none" stroke="midnightblue" d="M742.08,-214.35C738.14,-190.25 731.44,-149.31 728.54,-131.59"/>
<polygon fill="midnightblue" stroke="midnightblue" points="738.65,-215.06 743.72,-224.37 745.56,-213.93 738.65,-215.06"/>
</g>
<!-- Node11 -->
<g id="node11" class="node">
<title>Node11</title>
<g id="a_node11"><a xlink:href="windows__window_8h.html" target="_top" xlink:title=" ">
<polygon fill="white" stroke="black" points="772.13,-168.5 772.13,-187.5 1190.13,-187.5 1190.13,-168.5 772.13,-168.5"/>
<text text-anchor="middle" x="981.13" y="-175.5" font-family="Helvetica,sans-Serif" font-size="10.00">/home/runner/work/gauri/gauri/gauri/include/platform/windows/windows_window.h</text>
</a>
</g>
</g>
<!-- Node10&#45;&gt;Node11 -->
<g id="edge17" class="edge">
<title>Node10&#45;&gt;Node11</title>
<path fill="none" stroke="midnightblue" d="M792.54,-222.15C837.13,-211.95 902.98,-196.88 943.91,-187.52"/>
<polygon fill="midnightblue" stroke="midnightblue" points="791.49,-218.8 782.52,-224.44 793.05,-225.62 791.49,-218.8"/>
</g>
<!-- Node12&#45;&gt;Node4 -->
<g id="edge19" class="edge">
<title>Node12&#45;&gt;Node4</title>
<path fill="none" stroke="midnightblue" d="M1280.92,-333.72C1303.44,-326.91 1325.4,-316.33 1342.13,-300 1363.67,-278.98 1361.13,-265.1 1361.13,-235 1361.13,-235 1361.13,-235 1361.13,-177 1361.13,-135.06 1394.2,-93.19 1409.96,-75.62"/>
<polygon fill="midnightblue" stroke="midnightblue" points="1279.94,-330.36 1271.25,-336.41 1281.82,-337.1 1279.94,-330.36"/>
</g>
<!-- Node13 -->
<g id="node13" class="node">
<title>Node13</title>
<g id="a_node13"><a xlink:href="windows__input_8h.html" target="_top" xlink:title=" ">
<polygon fill="white" stroke="black" points="927.13,-280.5 927.13,-299.5 1333.13,-299.5 1333.13,-280.5 927.13,-280.5"/>
<text text-anchor="middle" x="1130.13" y="-287.5" font-family="Helvetica,sans-Serif" font-size="10.00">/home/runner/work/gauri/gauri/gauri/include/platform/windows/windows_input.h</text>
</a>
</g>
</g>
<!-- Node12&#45;&gt;Node13 -->
<g id="edge20" class="edge">
<title>Node12&#45;&gt;Node13</title>
<path fill="none" stroke="midnightblue" d="M1159.71,-328.14C1152.22,-318.74 1143.19,-307.4 1137.1,-299.75"/>
<polygon fill="midnightblue" stroke="midnightblue" points="1157.06,-330.44 1166.03,-336.08 1162.54,-326.08 1157.06,-330.44"/>
</g>
<!-- Node14&#45;&gt;Node4 -->
<g id="edge35" class="edge">
<title>Node14&#45;&gt;Node4</title>
<path fill="none" stroke="midnightblue" d="M1522.93,-334.33C1467.05,-321.49 1399.13,-293.8 1399.13,-235 1399.13,-235 1399.13,-235 1399.13,-177 1399.13,-138.82 1410.38,-94.26 1415.57,-75.75"/>
<polygon fill="midnightblue" stroke="midnightblue" points="1522.33,-337.78 1532.85,-336.48 1523.82,-330.94 1522.33,-337.78"/>
</g>
<!-- Node15 -->
<g id="node15" class="node">
<title>Node15</title>
<g id="a_node15"><a xlink:href="vertex__array_8h.html" target="_top" xlink:title=" ">
<polygon fill="white" stroke="black" points="1450.63,-280.5 1450.63,-299.5 1825.63,-299.5 1825.63,-280.5 1450.63,-280.5"/>
<text text-anchor="middle" x="1638.13" y="-287.5" font-family="Helvetica,sans-Serif" font-size="10.00">/home/runner/work/gauri/gauri/gauri/include/gauri/renderer/vertex_array.h</text>
</a>
</g>
</g>
<!-- Node14&#45;&gt;Node15 -->
<g id="edge24" class="edge">
<title>Node14&#45;&gt;Node15</title>
<path fill="none" stroke="midnightblue" d="M1608.55,-328.14C1616.04,-318.74 1625.07,-307.4 1631.16,-299.75"/>
<polygon fill="midnightblue" stroke="midnightblue" points="1605.72,-326.08 1602.23,-336.08 1611.2,-330.44 1605.72,-326.08"/>
</g>
<!-- Node21 -->
<g id="node21" class="node">
<title>Node21</title>
<g id="a_node21"><a xlink:href="opengl__buffer_8h.html" target="_top" xlink:title=" ">
<polygon fill="white" stroke="black" points="1843.63,-280.5 1843.63,-299.5 2232.63,-299.5 2232.63,-280.5 1843.63,-280.5"/>
<text text-anchor="middle" x="2038.13" y="-287.5" font-family="Helvetica,sans-Serif" font-size="10.00">/home/runner/work/gauri/gauri/gauri/include/platform/opengl/opengl_buffer.h</text>
</a>
</g>
</g>
<!-- Node14&#45;&gt;Node21 -->
<g id="edge36" class="edge">
<title>Node14&#45;&gt;Node21</title>
<path fill="none" stroke="midnightblue" d="M1675.29,-335.23C1758.91,-325.04 1888.69,-309.22 1968.26,-299.52"/>
<polygon fill="midnightblue" stroke="midnightblue" points="1674.83,-331.76 1665.32,-336.44 1675.67,-338.71 1674.83,-331.76"/>
</g>
<!-- Node15&#45;&gt;Node4 -->
<g id="edge33" class="edge">
<title>Node15&#45;&gt;Node4</title>
<path fill="none" stroke="midnightblue" d="M1814.83,-278.53C1857.8,-269.47 1884.69,-253.14 1858.13,-224 1799.8,-160 1540.16,-238.93 1470.13,-188 1431.85,-160.17 1421.48,-98.23 1418.91,-75.54"/>
<polygon fill="midnightblue" stroke="midnightblue" points="1813.97,-275.13 1804.82,-280.46 1815.3,-282 1813.97,-275.13"/>
</g>
<!-- Node16 -->
<g id="node16" class="node">
<title>Node16</title>
<g id="a_node16"><a xlink:href="renderer__api_8h.html" target="_top" xlink:title=" ">
<polygon fill="white" stroke="black" points="1905.13,-224.5 1905.13,-243.5 2281.13,-243.5 2281.13,-224.5 1905.13,-224.5"/>
<text text-anchor="middle" x="2093.13" y="-231.5" font-family="Helvetica,sans-Serif" font-size="10.00">/home/runner/work/gauri/gauri/gauri/include/gauri/renderer/renderer_api.h</text>
</a>
</g>
</g>
<!-- Node15&#45;&gt;Node16 -->
<g id="edge25" class="edge">
<title>Node15&#45;&gt;Node16</title>
<path fill="none" stroke="midnightblue" d="M1719.94,-279.29C1805.78,-269.1 1939.39,-253.25 2021.29,-243.53"/>
<polygon fill="midnightblue" stroke="midnightblue" points="1719.49,-275.82 1709.98,-280.47 1720.32,-282.77 1719.49,-275.82"/>
</g>
<!-- Node20 -->
<g id="node20" class="node">
<title>Node20</title>
<g id="a_node20"><a xlink:href="opengl__vertex__array_8h.html" target="_top" xlink:title=" ">
<polygon fill="white" stroke="black" points="1427.13,-224.5 1427.13,-243.5 1849.13,-243.5 1849.13,-224.5 1427.13,-224.5"/>
<text text-anchor="middle" x="1638.13" y="-231.5" font-family="Helvetica,sans-Serif" font-size="10.00">/home/runner/work/gauri/gauri/gauri/include/platform/opengl/opengl_vertex_array.h</text>
</a>
</g>
</g>
<!-- Node15&#45;&gt;Node20 -->
<g id="edge34" class="edge">
<title>Node15&#45;&gt;Node20</title>
<path fill="none" stroke="midnightblue" d="M1638.13,-269.8C1638.13,-260.91 1638.13,-250.78 1638.13,-243.75"/>
<polygon fill="midnightblue" stroke="midnightblue" points="1634.63,-270.08 1638.13,-280.08 1641.63,-270.08 1634.63,-270.08"/>
</g>
<!-- Node16&#45;&gt;Node4 -->
<g id="edge31" class="edge">
<title>Node16&#45;&gt;Node4</title>
<path fill="none" stroke="midnightblue" d="M1918.98,-223.92C1748.59,-214.42 1512.02,-199.35 1494.13,-188 1461.36,-167.21 1472.2,-144.59 1451.13,-112 1442.72,-98.98 1431.93,-84.66 1425.02,-75.75"/>
<polygon fill="midnightblue" stroke="midnightblue" points="1918.91,-227.42 1929.08,-224.48 1919.29,-220.43 1918.91,-227.42"/>
</g>
<!-- Node17 -->
<g id="node17" class="node">
<title>Node17</title>
<g id="a_node17"><a xlink:href="render__command_8h.html" target="_top" xlink:title=" ">
<polygon fill="white" stroke="black" points="1503.13,-168.5 1503.13,-187.5 1903.13,-187.5 1903.13,-168.5 1503.13,-168.5"/>
<text text-anchor="middle" x="1703.13" y="-175.5" font-family="Helvetica,sans-Serif" font-size="10.00">/home/runner/work/gauri/gauri/gauri/include/gauri/renderer/render_command.h</text>
</a>
</g>
</g>
<!-- Node16&#45;&gt;Node17 -->
<g id="edge26" class="edge">
<title>Node16&#45;&gt;Node17</title>
<path fill="none" stroke="midnightblue" d="M2021.21,-223.04C1947.55,-212.84 1834.26,-197.16 1764.64,-187.52"/>
<polygon fill="midnightblue" stroke="midnightblue" points="2020.95,-226.54 2031.33,-224.44 2021.91,-219.6 2020.95,-226.54"/>
</g>
<!-- Node18 -->
<g id="node18" class="node">
<title>Node18</title>
<g id="a_node18"><a xlink:href="renderer_8h.html" target="_top" xlink:title=" ">
<polygon fill="white" stroke="black" points="1713.63,-112.5 1713.63,-131.5 2068.63,-131.5 2068.63,-112.5 1713.63,-112.5"/>
<text text-anchor="middle" x="1891.13" y="-119.5" font-family="Helvetica,sans-Serif" font-size="10.00">/home/runner/work/gauri/gauri/gauri/include/gauri/renderer/renderer.h</text>
</a>
</g>
</g>
<!-- Node16&#45;&gt;Node18 -->
<g id="edge30" class="edge">
<title>Node16&#45;&gt;Node18</title>
<path fill="none" stroke="midnightblue" d="M2246.48,-223.21C2294.54,-216.72 2339.03,-205.93 2354.13,-188 2359.86,-181.2 2360.1,-174.58 2354.13,-168 2334.63,-146.51 2191.04,-134.96 2068.87,-128.97"/>
<polygon fill="midnightblue" stroke="midnightblue" points="2245.98,-219.74 2236.5,-224.49 2246.87,-226.68 2245.98,-219.74"/>
</g>
<!-- Node19 -->
<g id="node19" class="node">
<title>Node19</title>
<g id="a_node19"><a xlink:href="opengl__renderer__api_8h.html" target="_top" xlink:title=" ">
<polygon fill="white" stroke="black" points="1921.63,-168.5 1921.63,-187.5 2344.63,-187.5 2344.63,-168.5 1921.63,-168.5"/>
<text text-anchor="middle" x="2133.13" y="-175.5" font-family="Helvetica,sans-Serif" font-size="10.00">/home/runner/work/gauri/gauri/gauri/include/platform/opengl/opengl_renderer_api.h</text>
</a>
</g>
</g>
<!-- Node16&#45;&gt;Node19 -->
<g id="edge32" class="edge">
<title>Node16&#45;&gt;Node19</title>
<path fill="none" stroke="midnightblue" d="M2105.83,-215.86C2112.76,-206.5 2121.04,-195.33 2126.65,-187.75"/>
<polygon fill="midnightblue" stroke="midnightblue" points="2102.88,-213.96 2099.74,-224.08 2108.5,-218.13 2102.88,-213.96"/>
</g>
<!-- Node17&#45;&gt;Node4 -->
<g id="edge29" class="edge">
<title>Node17&#45;&gt;Node4</title>
<path fill="none" stroke="midnightblue" d="M1671.33,-164.73C1613.08,-142.25 1490.65,-94.99 1440.39,-75.59"/>
<polygon fill="midnightblue" stroke="midnightblue" points="1670.18,-168.03 1680.77,-168.37 1672.7,-161.5 1670.18,-168.03"/>
</g>
<!-- Node17&#45;&gt;Node18 -->
<g id="edge27" class="edge">
<title>Node17&#45;&gt;Node18</title>
<path fill="none" stroke="midnightblue" d="M1742.93,-165.57C1778.4,-155.38 1829.5,-140.7 1861.48,-131.52"/>
<polygon fill="midnightblue" stroke="midnightblue" points="1741.56,-162.32 1732.92,-168.44 1743.5,-169.05 1741.56,-162.32"/>
</g>
<!-- Node18&#45;&gt;Node4 -->
<g id="edge28" class="edge">
<title>Node18&#45;&gt;Node4</title>
<path fill="none" stroke="midnightblue" d="M1806.35,-111.32C1717.13,-101.14 1578.04,-85.26 1492.82,-75.53"/>
<polygon fill="midnightblue" stroke="midnightblue" points="1806.11,-114.82 1816.44,-112.47 1806.9,-107.86 1806.11,-114.82"/>
</g>
<!-- Node22&#45;&gt;Node4 -->
<g id="edge39" class="edge">
<title>Node22&#45;&gt;Node4</title>
<path fill="none" stroke="midnightblue" d="M2507.69,-166.96C2412.67,-152.9 2232.39,-127.35 2078.13,-112 1896.13,-93.89 1685.16,-80.9 1551.7,-73.66"/>
<polygon fill="midnightblue" stroke="midnightblue" points="2507.32,-170.44 2517.73,-168.45 2508.35,-163.52 2507.32,-170.44"/>
</g>
<!-- Node22&#45;&gt;Node18 -->
<g id="edge38" class="edge">
<title>Node22&#45;&gt;Node18</title>
<path fill="none" stroke="midnightblue" d="M2455.99,-167.66C2327.26,-157.48 2123.1,-141.34 1998.69,-131.5"/>
<polygon fill="midnightblue" stroke="midnightblue" points="2456.04,-171.17 2466.28,-168.47 2456.59,-164.2 2456.04,-171.17"/>
</g>
<!-- Node23 -->
<g id="node23" class="node">
<title>Node23</title>
<g id="a_node23"><a xlink:href="opengl__shader_8h.html" target="_top" xlink:title=" ">
<polygon fill="white" stroke="black" points="2353.13,-112.5 2353.13,-131.5 2747.13,-131.5 2747.13,-112.5 2353.13,-112.5"/>
<text text-anchor="middle" x="2550.13" y="-119.5" font-family="Helvetica,sans-Serif" font-size="10.00">/home/runner/work/gauri/gauri/gauri/include/platform/opengl/opengl_shader.h</text>
</a>
</g>
</g>
<!-- Node22&#45;&gt;Node23 -->
<g id="edge40" class="edge">
<title>Node22&#45;&gt;Node23</title>
<path fill="none" stroke="midnightblue" d="M2565.99,-158.69C2561.95,-149.59 2557.25,-139.01 2554.02,-131.75"/>
<polygon fill="midnightblue" stroke="midnightblue" points="2562.91,-160.37 2570.17,-168.08 2569.3,-157.52 2562.91,-160.37"/>
</g>
<!-- Node24&#45;&gt;Node4 -->
<g id="edge42" class="edge">
<title>Node24&#45;&gt;Node4</title>
<path fill="none" stroke="midnightblue" d="M2631.03,-335.05C2679.89,-327.76 2734.89,-316.29 2753.13,-300 2775.88,-279.69 2775.13,-265.5 2775.13,-235 2775.13,-235 2775.13,-235 2775.13,-177 2775.13,-146.9 2779.91,-130.45 2756.13,-112 2709.14,-75.53 1881.41,-68.61 1551.88,-67.3"/>
<polygon fill="midnightblue" stroke="midnightblue" points="2630.43,-331.6 2621.04,-336.49 2631.43,-338.53 2630.43,-331.6"/>
</g>
<!-- Node25 -->
<g id="node25" class="node">
<title>Node25</title>
<g id="a_node25"><a xlink:href="opengl__texture_8h.html" target="_top" xlink:title=" ">
<polygon fill="white" stroke="black" points="2346.63,-280.5 2346.63,-299.5 2743.63,-299.5 2743.63,-280.5 2346.63,-280.5"/>
<text text-anchor="middle" x="2545.13" y="-287.5" font-family="Helvetica,sans-Serif" font-size="10.00">/home/runner/work/gauri/gauri/gauri/include/platform/opengl/opengl_texture.h</text>
</a>
</g>
</g>
<!-- Node24&#45;&gt;Node25 -->
<g id="edge43" class="edge">
<title>Node24&#45;&gt;Node25</title>
<path fill="none" stroke="midnightblue" d="M2545.13,-325.8C2545.13,-316.91 2545.13,-306.78 2545.13,-299.75"/>
<polygon fill="midnightblue" stroke="midnightblue" points="2541.63,-326.08 2545.13,-336.08 2548.63,-326.08 2541.63,-326.08"/>
</g>
</g>
</svg>
