<?xml version="1.0" encoding="UTF-8" standalone="no"?>
<!DOCTYPE svg PUBLIC "-//W3C//DTD SVG 1.1//EN"
 "http://www.w3.org/Graphics/SVG/1.1/DTD/svg11.dtd">
<!-- Generated by graphviz version 2.43.0 (0)
 -->
<!-- Title: /home/runner/work/gauri/gauri/gauri/include/gauri Pages: 1 -->
<svg width="330pt" height="183pt"
 viewBox="0.00 0.00 330.00 183.00" xmlns="http://www.w3.org/2000/svg" xmlns:xlink="http://www.w3.org/1999/xlink">
<g id="graph0" class="graph" transform="scale(1 1) rotate(0) translate(4 179)">
<title>/home/runner/work/gauri/gauri/gauri/include/gauri</title>
<polygon fill="white" stroke="transparent" points="-4,4 -4,-179 326,-179 326,4 -4,4"/>
<g id="clust1" class="cluster">
<title>clusterdir_d44c64559bbebec7f509842c48db8b23</title>
<g id="a_clust1"><a xlink:href="dir_d44c64559bbebec7f509842c48db8b23.html" target="_top" xlink:title="include">
<polygon fill="#ddddee" stroke="black" points="8,-8 8,-167 314,-167 314,-8 8,-8"/>
<text text-anchor="middle" x="161" y="-155" font-family="Helvetica,sans-Serif" font-size="10.00">include</text>
</a>
</g>
</g>
<g id="clust2" class="cluster">
<title>clusterdir_f663037edfb7f082147afd6082a235f9</title>
<g id="a_clust2"><a xlink:href="dir_f663037edfb7f082147afd6082a235f9.html" target="_top">
<polygon fill="#eeeeff" stroke="black" points="16,-16 16,-140 306,-140 306,-16 16,-16"/>
</a>
</g>
</g>
<!-- dir_f663037edfb7f082147afd6082a235f9 -->
<g id="node1" class="node">
<title>dir_f663037edfb7f082147afd6082a235f9</title>
<text text-anchor="middle" x="159" y="-111.5" font-family="Helvetica,sans-Serif" font-size="10.00">gauri</text>
</g>
<!-- dir_e3f1be6c81707290c49db0b543c8ca0f -->
<g id="node2" class="node">
<title>dir_e3f1be6c81707290c49db0b543c8ca0f</title>
<g id="a_node2"><a xlink:href="dir_e3f1be6c81707290c49db0b543c8ca0f.html" target="_top" xlink:title="core">
<polygon fill="white" stroke="black" points="78,-60 24,-60 24,-24 78,-24 78,-60"/>
<text text-anchor="middle" x="51" y="-39.5" font-family="Helvetica,sans-Serif" font-size="10.00">core</text>
</a>
</g>
</g>
<!-- dir_f663037edfb7f082147afd6082a235f9&#45;&gt;dir_e3f1be6c81707290c49db0b543c8ca0f -->
<g id="edge4" class="edge">
<title>dir_f663037edfb7f082147afd6082a235f9&#45;&gt;dir_e3f1be6c81707290c49db0b543c8ca0f</title>
<path fill="none" stroke="black" d="M132.58,-95.88C118.59,-86.81 101.22,-75.55 86.11,-65.76"/>
<polygon fill="black" stroke="black" points="87.82,-62.69 77.52,-60.19 84.01,-68.57 87.82,-62.69"/>
<g id="a_edge4&#45;headlabel"><a xlink:href="dir_000001_000002.html" target="_top" xlink:title="3">
<text text-anchor="middle" x="92.38" y="-59.76" font-family="Helvetica,sans-Serif" font-size="10.00">3</text>
</a>
</g>
</g>
<!-- dir_41aff1ea0c6b1e926fcadcfce4fc621a -->
<g id="node3" class="node">
<title>dir_41aff1ea0c6b1e926fcadcfce4fc621a</title>
<g id="a_node3"><a xlink:href="dir_41aff1ea0c6b1e926fcadcfce4fc621a.html" target="_top" xlink:title="event">
<polygon fill="white" stroke="black" points="150,-60 96,-60 96,-24 150,-24 150,-60"/>
<text text-anchor="middle" x="123" y="-39.5" font-family="Helvetica,sans-Serif" font-size="10.00">event</text>
</a>
</g>
</g>
<!-- dir_f663037edfb7f082147afd6082a235f9&#45;&gt;dir_41aff1ea0c6b1e926fcadcfce4fc621a -->
<g id="edge1" class="edge">
<title>dir_f663037edfb7f082147afd6082a235f9&#45;&gt;dir_41aff1ea0c6b1e926fcadcfce4fc621a</title>
<path fill="none" stroke="black" d="M150.1,-95.7C146,-87.73 141.05,-78.1 136.51,-69.26"/>
<polygon fill="black" stroke="black" points="139.48,-67.4 131.8,-60.1 133.26,-70.6 139.48,-67.4"/>
<g id="a_edge1&#45;headlabel"><a xlink:href="dir_000001_000003.html" target="_top" xlink:title="4">
<text text-anchor="middle" x="143.65" y="-66.79" font-family="Helvetica,sans-Serif" font-size="10.00">4</text>
</a>
</g>
</g>
<!-- dir_4d12ab9015076de1f5bb3c851ea7efd6 -->
<g id="node4" class="node">
<title>dir_4d12ab9015076de1f5bb3c851ea7efd6</title>
<g id="a_node4"><a xlink:href="dir_4d12ab9015076de1f5bb3c851ea7efd6.html" target="_top" xlink:title="imgui">
<polygon fill="white" stroke="black" points="222,-60 168,-60 168,-24 222,-24 222,-60"/>
<text text-anchor="middle" x="195" y="-39.5" font-family="Helvetica,sans-Serif" font-size="10.00">imgui</text>
</a>
</g>
</g>
<!-- dir_f663037edfb7f082147afd6082a235f9&#45;&gt;dir_4d12ab9015076de1f5bb3c851ea7efd6 -->
<g id="edge2" class="edge">
<title>dir_f663037edfb7f082147afd6082a235f9&#45;&gt;dir_4d12ab9015076de1f5bb3c851ea7efd6</title>
<path fill="none" stroke="black" d="M167.9,-95.7C172,-87.73 176.95,-78.1 181.49,-69.26"/>
<polygon fill="black" stroke="black" points="184.74,-70.6 186.2,-60.1 178.52,-67.4 184.74,-70.6"/>
<g id="a_edge2&#45;headlabel"><a xlink:href="dir_000001_000004.html" target="_top" xlink:title="1">
<text text-anchor="middle" x="185.62" y="-72.59" font-family="Helvetica,sans-Serif" font-size="10.00">1</text>
</a>
</g>
</g>
<!-- dir_d53f1416756d3ee0091b71cd98eb78f6 -->
<g id="node5" class="node">
<title>dir_d53f1416756d3ee0091b71cd98eb78f6</title>
<g id="a_node5"><a xlink:href="dir_d53f1416756d3ee0091b71cd98eb78f6.html" target="_top" xlink:title="renderer">
<polygon fill="white" stroke="black" points="298,-60 240,-60 240,-24 298,-24 298,-60"/>
<text text-anchor="middle" x="269" y="-39.5" font-family="Helvetica,sans-Serif" font-size="10.00">renderer</text>
</a>
</g>
</g>
<!-- dir_f663037edfb7f082147afd6082a235f9&#45;&gt;dir_d53f1416756d3ee0091b71cd98eb78f6 -->
<g id="edge3" class="edge">
<title>dir_f663037edfb7f082147afd6082a235f9&#45;&gt;dir_d53f1416756d3ee0091b71cd98eb78f6</title>
<path fill="none" stroke="black" d="M185.91,-95.88C200.16,-86.81 217.85,-75.55 233.24,-65.76"/>
<polygon fill="black" stroke="black" points="235.43,-68.51 241.99,-60.19 231.67,-62.61 235.43,-68.51"/>
<g id="a_edge3&#45;headlabel"><a xlink:href="dir_000001_000005.html" target="_top" xlink:title="1">
<text text-anchor="middle" x="233.92" y="-70.34" font-family="Helvetica,sans-Serif" font-size="10.00">1</text>
</a>
</g>
</g>
</g>
</svg>
