<?xml version="1.0" encoding="UTF-8" standalone="no"?>
<!DOCTYPE svg PUBLIC "-//W3C//DTD SVG 1.1//EN"
 "http://www.w3.org/Graphics/SVG/1.1/DTD/svg11.dtd">
<!-- Generated by graphviz version 2.43.0 (0)
 -->
<!-- Title: /home/runner/work/gauri/gauri/gauri/include/gauri/renderer Pages: 1 -->
<svg width="114pt" height="239pt"
 viewBox="0.00 0.00 114.00 239.00" xmlns="http://www.w3.org/2000/svg" xmlns:xlink="http://www.w3.org/1999/xlink">
<g id="graph0" class="graph" transform="scale(1 1) rotate(0) translate(4 235)">
<title>/home/runner/work/gauri/gauri/gauri/include/gauri/renderer</title>
<polygon fill="white" stroke="transparent" points="-4,4 -4,-235 110,-235 110,4 -4,4"/>
<g id="clust1" class="cluster">
<title>clusterdir_f663037edfb7f082147afd6082a235f9</title>
<g id="a_clust1"><a xlink:href="dir_f663037edfb7f082147afd6082a235f9.html" target="_top" xlink:title="gauri">
<polygon fill="#ddddee" stroke="black" points="8,-8 8,-223 98,-223 98,-8 8,-8"/>
<text text-anchor="middle" x="53" y="-211" font-family="Helvetica,sans-Serif" font-size="10.00">gauri</text>
</a>
</g>
</g>
<!-- dir_41aff1ea0c6b1e926fcadcfce4fc621a -->
<g id="node1" class="node">
<title>dir_41aff1ea0c6b1e926fcadcfce4fc621a</title>
<g id="a_node1"><a xlink:href="dir_41aff1ea0c6b1e926fcadcfce4fc621a.html" target="_top" xlink:title="event">
<polygon fill="none" stroke="black" points="70,-124 16,-124 16,-88 70,-88 70,-124"/>
<text text-anchor="middle" x="43" y="-103.5" font-family="Helvetica,sans-Serif" font-size="10.00">event</text>
</a>
</g>
</g>
<!-- dir_e3f1be6c81707290c49db0b543c8ca0f -->
<g id="node2" class="node">
<title>dir_e3f1be6c81707290c49db0b543c8ca0f</title>
<g id="a_node2"><a xlink:href="dir_e3f1be6c81707290c49db0b543c8ca0f.html" target="_top" xlink:title="core">
<polygon fill="none" stroke="black" points="70,-52 16,-52 16,-16 70,-16 70,-52"/>
<text text-anchor="middle" x="43" y="-31.5" font-family="Helvetica,sans-Serif" font-size="10.00">core</text>
</a>
</g>
</g>
<!-- dir_41aff1ea0c6b1e926fcadcfce4fc621a&#45;&gt;dir_e3f1be6c81707290c49db0b543c8ca0f -->
<g id="edge4" class="edge">
<title>dir_41aff1ea0c6b1e926fcadcfce4fc621a&#45;&gt;dir_e3f1be6c81707290c49db0b543c8ca0f</title>
<path fill="none" stroke="black" d="M37.08,-87.7C36.29,-79.98 36.06,-70.71 36.4,-62.11"/>
<polygon fill="black" stroke="black" points="39.9,-62.32 37.1,-52.1 32.92,-61.84 39.9,-62.32"/>
<g id="a_edge4&#45;headlabel"><a xlink:href="dir_000004_000002.html" target="_top" xlink:title="1">
<text text-anchor="middle" x="42.48" y="-63.61" font-family="Helvetica,sans-Serif" font-size="10.00">1</text>
</a>
</g>
</g>
<!-- dir_e3f1be6c81707290c49db0b543c8ca0f&#45;&gt;dir_41aff1ea0c6b1e926fcadcfce4fc621a -->
<g id="edge1" class="edge">
<title>dir_e3f1be6c81707290c49db0b543c8ca0f&#45;&gt;dir_41aff1ea0c6b1e926fcadcfce4fc621a</title>
<path fill="none" stroke="black" d="M48.9,-52.1C49.7,-59.79 49.94,-69.05 49.6,-77.67"/>
<polygon fill="black" stroke="black" points="46.11,-77.48 48.92,-87.7 53.09,-77.96 46.11,-77.48"/>
<g id="a_edge1&#45;headlabel"><a xlink:href="dir_000002_000004.html" target="_top" xlink:title="3">
<text text-anchor="middle" x="43.52" y="-71.2" font-family="Helvetica,sans-Serif" font-size="10.00">3</text>
</a>
</g>
</g>
<!-- dir_d53f1416756d3ee0091b71cd98eb78f6 -->
<g id="node3" class="node">
<title>dir_d53f1416756d3ee0091b71cd98eb78f6</title>
<g id="a_node3"><a xlink:href="dir_d53f1416756d3ee0091b71cd98eb78f6.html" target="_top" xlink:title="renderer">
<polygon fill="#eeeeff" stroke="black" points="82,-196 24,-196 24,-160 82,-160 82,-196"/>
<text text-anchor="middle" x="53" y="-175.5" font-family="Helvetica,sans-Serif" font-size="10.00">renderer</text>
</a>
</g>
</g>
<!-- dir_d53f1416756d3ee0091b71cd98eb78f6&#45;&gt;dir_41aff1ea0c6b1e926fcadcfce4fc621a -->
<g id="edge2" class="edge">
<title>dir_d53f1416756d3ee0091b71cd98eb78f6&#45;&gt;dir_41aff1ea0c6b1e926fcadcfce4fc621a</title>
<path fill="none" stroke="black" d="M50.53,-159.7C49.43,-151.98 48.1,-142.71 46.87,-134.11"/>
<polygon fill="black" stroke="black" points="50.32,-133.51 45.44,-124.1 43.39,-134.5 50.32,-133.51"/>
<g id="a_edge2&#45;headlabel"><a xlink:href="dir_000007_000004.html" target="_top" xlink:title="1">
<text text-anchor="middle" x="53.64" y="-134.17" font-family="Helvetica,sans-Serif" font-size="10.00">1</text>
</a>
</g>
</g>
<!-- dir_d53f1416756d3ee0091b71cd98eb78f6&#45;&gt;dir_e3f1be6c81707290c49db0b543c8ca0f -->
<g id="edge3" class="edge">
<title>dir_d53f1416756d3ee0091b71cd98eb78f6&#45;&gt;dir_e3f1be6c81707290c49db0b543c8ca0f</title>
<path fill="none" stroke="black" d="M64.05,-159.61C69.74,-149.62 76.08,-136.58 79,-124 82.62,-108.41 83.7,-103.29 79,-88 75.99,-78.22 70.49,-68.62 64.68,-60.33"/>
<polygon fill="black" stroke="black" points="67.41,-58.13 58.61,-52.23 61.81,-62.33 67.41,-58.13"/>
<g id="a_edge3&#45;headlabel"><a xlink:href="dir_000007_000002.html" target="_top" xlink:title="7">
<text text-anchor="middle" x="71.83" y="-56.8" font-family="Helvetica,sans-Serif" font-size="10.00">7</text>
</a>
</g>
</g>
</g>
</svg>
