<?xml version="1.0" encoding="UTF-8" standalone="no"?>
<!DOCTYPE svg PUBLIC "-//W3C//DTD SVG 1.1//EN"
 "http://www.w3.org/Graphics/SVG/1.1/DTD/svg11.dtd">
<!-- Generated by graphviz version 2.43.0 (0)
 -->
<!-- Title: /home/runner/work/gauri/gauri/gauri/include/gauri Pages: 1 -->
<svg width="258pt" height="255pt"
 viewBox="0.00 0.00 258.00 255.00" xmlns="http://www.w3.org/2000/svg" xmlns:xlink="http://www.w3.org/1999/xlink">
<g id="graph0" class="graph" transform="scale(1 1) rotate(0) translate(4 251)">
<title>/home/runner/work/gauri/gauri/gauri/include/gauri</title>
<polygon fill="white" stroke="transparent" points="-4,4 -4,-251 254,-251 254,4 -4,4"/>
<g id="clust1" class="cluster">
<title>clusterdir_d44c64559bbebec7f509842c48db8b23</title>
<g id="a_clust1"><a xlink:href="dir_d44c64559bbebec7f509842c48db8b23.html" target="_top" xlink:title="include">
<polygon fill="#ddddee" stroke="black" points="8,-8 8,-239 242,-239 242,-8 8,-8"/>
<text text-anchor="middle" x="125" y="-227" font-family="Helvetica,sans-Serif" font-size="10.00">include</text>
</a>
</g>
</g>
<g id="clust2" class="cluster">
<title>clusterdir_f663037edfb7f082147afd6082a235f9</title>
<g id="a_clust2"><a xlink:href="dir_f663037edfb7f082147afd6082a235f9.html" target="_top">
<polygon fill="#eeeeff" stroke="black" points="16,-16 16,-212 234,-212 234,-16 16,-16"/>
</a>
</g>
</g>
<!-- dir_f663037edfb7f082147afd6082a235f9 -->
<g id="node1" class="node">
<title>dir_f663037edfb7f082147afd6082a235f9</title>
<text text-anchor="middle" x="199" y="-183.5" font-family="Helvetica,sans-Serif" font-size="10.00">gauri</text>
</g>
<!-- dir_e3f1be6c81707290c49db0b543c8ca0f -->
<g id="node2" class="node">
<title>dir_e3f1be6c81707290c49db0b543c8ca0f</title>
<g id="a_node2"><a xlink:href="dir_e3f1be6c81707290c49db0b543c8ca0f.html" target="_top" xlink:title="core">
<polygon fill="white" stroke="black" points="80,-132 26,-132 26,-96 80,-96 80,-132"/>
<text text-anchor="middle" x="53" y="-111.5" font-family="Helvetica,sans-Serif" font-size="10.00">core</text>
</a>
</g>
</g>
<!-- dir_41aff1ea0c6b1e926fcadcfce4fc621a -->
<g id="node4" class="node">
<title>dir_41aff1ea0c6b1e926fcadcfce4fc621a</title>
<g id="a_node4"><a xlink:href="dir_41aff1ea0c6b1e926fcadcfce4fc621a.html" target="_top" xlink:title="event">
<polygon fill="white" stroke="black" points="150,-60 96,-60 96,-24 150,-24 150,-60"/>
<text text-anchor="middle" x="123" y="-39.5" font-family="Helvetica,sans-Serif" font-size="10.00">event</text>
</a>
</g>
</g>
<!-- dir_e3f1be6c81707290c49db0b543c8ca0f&#45;&gt;dir_41aff1ea0c6b1e926fcadcfce4fc621a -->
<g id="edge1" class="edge">
<title>dir_e3f1be6c81707290c49db0b543c8ca0f&#45;&gt;dir_41aff1ea0c6b1e926fcadcfce4fc621a</title>
<path fill="none" stroke="black" d="M64.39,-95.7C72.14,-87.05 82.57,-76.45 92.53,-67.03"/>
<polygon fill="black" stroke="black" points="95.04,-69.47 100,-60.1 90.29,-64.33 95.04,-69.47"/>
<g id="a_edge1&#45;headlabel"><a xlink:href="dir_000002_000004.html" target="_top" xlink:title="3">
<text text-anchor="middle" x="94.33" y="-71.49" font-family="Helvetica,sans-Serif" font-size="10.00">3</text>
</a>
</g>
</g>
<!-- dir_4d12ab9015076de1f5bb3c851ea7efd6 -->
<g id="node5" class="node">
<title>dir_4d12ab9015076de1f5bb3c851ea7efd6</title>
<g id="a_node5"><a xlink:href="dir_4d12ab9015076de1f5bb3c851ea7efd6.html" target="_top" xlink:title="imgui">
<polygon fill="white" stroke="black" points="78,-60 24,-60 24,-24 78,-24 78,-60"/>
<text text-anchor="middle" x="51" y="-39.5" font-family="Helvetica,sans-Serif" font-size="10.00">imgui</text>
</a>
</g>
</g>
<!-- dir_e3f1be6c81707290c49db0b543c8ca0f&#45;&gt;dir_4d12ab9015076de1f5bb3c851ea7efd6 -->
<g id="edge2" class="edge">
<title>dir_e3f1be6c81707290c49db0b543c8ca0f&#45;&gt;dir_4d12ab9015076de1f5bb3c851ea7efd6</title>
<path fill="none" stroke="black" d="M46.59,-95.7C45.57,-87.98 45.08,-78.71 45.18,-70.11"/>
<polygon fill="black" stroke="black" points="48.68,-70.24 45.59,-60.1 41.68,-69.95 48.68,-70.24"/>
<g id="a_edge2&#45;headlabel"><a xlink:href="dir_000002_000005.html" target="_top" xlink:title="1">
<text text-anchor="middle" x="51.37" y="-71.45" font-family="Helvetica,sans-Serif" font-size="10.00">1</text>
</a>
</g>
</g>
<!-- dir_cbaa96a9408d6a0eed7a60968132a01f -->
<g id="node3" class="node">
<title>dir_cbaa96a9408d6a0eed7a60968132a01f</title>
<g id="a_node3"><a xlink:href="dir_cbaa96a9408d6a0eed7a60968132a01f.html" target="_top" xlink:title="debug">
<polygon fill="white" stroke="black" points="154,-204 100,-204 100,-168 154,-168 154,-204"/>
<text text-anchor="middle" x="127" y="-183.5" font-family="Helvetica,sans-Serif" font-size="10.00">debug</text>
</a>
</g>
</g>
<!-- dir_41aff1ea0c6b1e926fcadcfce4fc621a&#45;&gt;dir_e3f1be6c81707290c49db0b543c8ca0f -->
<g id="edge5" class="edge">
<title>dir_41aff1ea0c6b1e926fcadcfce4fc621a&#45;&gt;dir_e3f1be6c81707290c49db0b543c8ca0f</title>
<path fill="none" stroke="black" d="M111.79,-60.1C104.08,-68.72 93.67,-79.32 83.7,-88.76"/>
<polygon fill="black" stroke="black" points="81.17,-86.33 76.22,-95.7 85.93,-91.46 81.17,-86.33"/>
<g id="a_edge5&#45;headlabel"><a xlink:href="dir_000004_000002.html" target="_top" xlink:title="1">
<text text-anchor="middle" x="81.88" y="-79.3" font-family="Helvetica,sans-Serif" font-size="10.00">1</text>
</a>
</g>
</g>
<!-- dir_4d12ab9015076de1f5bb3c851ea7efd6&#45;&gt;dir_e3f1be6c81707290c49db0b543c8ca0f -->
<g id="edge6" class="edge">
<title>dir_4d12ab9015076de1f5bb3c851ea7efd6&#45;&gt;dir_e3f1be6c81707290c49db0b543c8ca0f</title>
<path fill="none" stroke="black" d="M57.38,-60.1C58.41,-67.79 58.91,-77.05 58.82,-85.67"/>
<polygon fill="black" stroke="black" points="55.32,-85.56 58.42,-95.7 62.32,-85.84 55.32,-85.56"/>
<g id="a_edge6&#45;headlabel"><a xlink:href="dir_000005_000002.html" target="_top" xlink:title="1">
<text text-anchor="middle" x="52.63" y="-79.36" font-family="Helvetica,sans-Serif" font-size="10.00">1</text>
</a>
</g>
</g>
<!-- dir_d53f1416756d3ee0091b71cd98eb78f6 -->
<g id="node6" class="node">
<title>dir_d53f1416756d3ee0091b71cd98eb78f6</title>
<g id="a_node6"><a xlink:href="dir_d53f1416756d3ee0091b71cd98eb78f6.html" target="_top" xlink:title="renderer">
<polygon fill="white" stroke="black" points="82,-204 24,-204 24,-168 82,-168 82,-204"/>
<text text-anchor="middle" x="53" y="-183.5" font-family="Helvetica,sans-Serif" font-size="10.00">renderer</text>
</a>
</g>
</g>
<!-- dir_d53f1416756d3ee0091b71cd98eb78f6&#45;&gt;dir_e3f1be6c81707290c49db0b543c8ca0f -->
<g id="edge4" class="edge">
<title>dir_d53f1416756d3ee0091b71cd98eb78f6&#45;&gt;dir_e3f1be6c81707290c49db0b543c8ca0f</title>
<path fill="none" stroke="black" d="M53,-167.7C53,-159.98 53,-150.71 53,-142.11"/>
<polygon fill="black" stroke="black" points="56.5,-142.1 53,-132.1 49.5,-142.1 56.5,-142.1"/>
<g id="a_edge4&#45;headlabel"><a xlink:href="dir_000006_000002.html" target="_top" xlink:title="5">
<text text-anchor="middle" x="59.34" y="-143.2" font-family="Helvetica,sans-Serif" font-size="10.00">5</text>
</a>
</g>
</g>
<!-- dir_d53f1416756d3ee0091b71cd98eb78f6&#45;&gt;dir_41aff1ea0c6b1e926fcadcfce4fc621a -->
<g id="edge3" class="edge">
<title>dir_d53f1416756d3ee0091b71cd98eb78f6&#45;&gt;dir_41aff1ea0c6b1e926fcadcfce4fc621a</title>
<path fill="none" stroke="black" d="M66.06,-167.97C73.42,-157.87 82.42,-144.62 89,-132 99.47,-111.92 108.47,-87.87 114.57,-69.83"/>
<polygon fill="black" stroke="black" points="117.93,-70.83 117.74,-60.24 111.28,-68.64 117.93,-70.83"/>
<g id="a_edge3&#45;headlabel"><a xlink:href="dir_000006_000004.html" target="_top" xlink:title="1">
<text text-anchor="middle" x="119.49" y="-72.64" font-family="Helvetica,sans-Serif" font-size="10.00">1</text>
</a>
</g>
</g>
</g>
</svg>
