<?xml version="1.0" encoding="UTF-8" standalone="no"?>
<!DOCTYPE svg PUBLIC "-//W3C//DTD SVG 1.1//EN"
 "http://www.w3.org/Graphics/SVG/1.1/DTD/svg11.dtd">
<!-- Generated by graphviz version 2.43.0 (0)
 -->
<!-- Title: /home/runner/work/gauri/gauri/gauri/include/gauri Pages: 1 -->
<svg width="398pt" height="327pt"
 viewBox="0.00 0.00 398.00 327.00" xmlns="http://www.w3.org/2000/svg" xmlns:xlink="http://www.w3.org/1999/xlink">
<g id="graph0" class="graph" transform="scale(1 1) rotate(0) translate(4 323)">
<title>/home/runner/work/gauri/gauri/gauri/include/gauri</title>
<polygon fill="white" stroke="transparent" points="-4,4 -4,-323 394,-323 394,4 -4,4"/>
<g id="clust1" class="cluster">
<title>clusterdir_d44c64559bbebec7f509842c48db8b23</title>
<g id="a_clust1"><a xlink:href="dir_d44c64559bbebec7f509842c48db8b23.html" target="_top" xlink:title="include">
<polygon fill="#ddddee" stroke="black" points="8,-8 8,-311 382,-311 382,-8 8,-8"/>
<text text-anchor="middle" x="195" y="-299" font-family="Helvetica,sans-Serif" font-size="10.00">include</text>
</a>
</g>
</g>
<g id="clust2" class="cluster">
<title>clusterdir_f663037edfb7f082147afd6082a235f9</title>
<g id="a_clust2"><a xlink:href="dir_f663037edfb7f082147afd6082a235f9.html" target="_top">
<polygon fill="#eeeeff" stroke="black" points="16,-16 16,-284 374,-284 374,-16 16,-16"/>
</a>
</g>
</g>
<!-- dir_f663037edfb7f082147afd6082a235f9 -->
<g id="node1" class="node">
<title>dir_f663037edfb7f082147afd6082a235f9</title>
<text text-anchor="middle" x="339" y="-255.5" font-family="Helvetica,sans-Serif" font-size="10.00">gauri</text>
</g>
<!-- dir_e3f1be6c81707290c49db0b543c8ca0f -->
<g id="node2" class="node">
<title>dir_e3f1be6c81707290c49db0b543c8ca0f</title>
<g id="a_node2"><a xlink:href="dir_e3f1be6c81707290c49db0b543c8ca0f.html" target="_top" xlink:title="core">
<polygon fill="white" stroke="black" points="127,-132 73,-132 73,-96 127,-96 127,-132"/>
<text text-anchor="middle" x="100" y="-111.5" font-family="Helvetica,sans-Serif" font-size="10.00">core</text>
</a>
</g>
</g>
<!-- dir_41aff1ea0c6b1e926fcadcfce4fc621a -->
<g id="node4" class="node">
<title>dir_41aff1ea0c6b1e926fcadcfce4fc621a</title>
<g id="a_node4"><a xlink:href="dir_41aff1ea0c6b1e926fcadcfce4fc621a.html" target="_top" xlink:title="event">
<polygon fill="white" stroke="black" points="174,-60 120,-60 120,-24 174,-24 174,-60"/>
<text text-anchor="middle" x="147" y="-39.5" font-family="Helvetica,sans-Serif" font-size="10.00">event</text>
</a>
</g>
</g>
<!-- dir_e3f1be6c81707290c49db0b543c8ca0f&#45;&gt;dir_41aff1ea0c6b1e926fcadcfce4fc621a -->
<g id="edge3" class="edge">
<title>dir_e3f1be6c81707290c49db0b543c8ca0f&#45;&gt;dir_41aff1ea0c6b1e926fcadcfce4fc621a</title>
<path fill="none" stroke="black" d="M105.7,-95.7C110.42,-87.39 117.02,-77.28 123.61,-68.14"/>
<polygon fill="black" stroke="black" points="126.44,-70.21 129.62,-60.1 120.83,-66.02 126.44,-70.21"/>
<g id="a_edge3&#45;headlabel"><a xlink:href="dir_000002_000004.html" target="_top" xlink:title="3">
<text text-anchor="middle" x="126.56" y="-72.29" font-family="Helvetica,sans-Serif" font-size="10.00">3</text>
</a>
</g>
</g>
<!-- dir_4d12ab9015076de1f5bb3c851ea7efd6 -->
<g id="node5" class="node">
<title>dir_4d12ab9015076de1f5bb3c851ea7efd6</title>
<g id="a_node5"><a xlink:href="dir_4d12ab9015076de1f5bb3c851ea7efd6.html" target="_top" xlink:title="imgui">
<polygon fill="white" stroke="black" points="102,-60 48,-60 48,-24 102,-24 102,-60"/>
<text text-anchor="middle" x="75" y="-39.5" font-family="Helvetica,sans-Serif" font-size="10.00">imgui</text>
</a>
</g>
</g>
<!-- dir_e3f1be6c81707290c49db0b543c8ca0f&#45;&gt;dir_4d12ab9015076de1f5bb3c851ea7efd6 -->
<g id="edge4" class="edge">
<title>dir_e3f1be6c81707290c49db0b543c8ca0f&#45;&gt;dir_4d12ab9015076de1f5bb3c851ea7efd6</title>
<path fill="none" stroke="black" d="M87.9,-95.7C84.31,-87.9 80.74,-78.51 78,-69.83"/>
<polygon fill="black" stroke="black" points="81.33,-68.75 75.21,-60.1 74.6,-70.68 81.33,-68.75"/>
<g id="a_edge4&#45;headlabel"><a xlink:href="dir_000002_000005.html" target="_top" xlink:title="1">
<text text-anchor="middle" x="85.05" y="-68.93" font-family="Helvetica,sans-Serif" font-size="10.00">1</text>
</a>
</g>
</g>
<!-- dir_cbaa96a9408d6a0eed7a60968132a01f -->
<g id="node3" class="node">
<title>dir_cbaa96a9408d6a0eed7a60968132a01f</title>
<g id="a_node3"><a xlink:href="dir_cbaa96a9408d6a0eed7a60968132a01f.html" target="_top" xlink:title="debug">
<polygon fill="white" stroke="black" points="294,-276 240,-276 240,-240 294,-240 294,-276"/>
<text text-anchor="middle" x="267" y="-255.5" font-family="Helvetica,sans-Serif" font-size="10.00">debug</text>
</a>
</g>
</g>
<!-- dir_41aff1ea0c6b1e926fcadcfce4fc621a&#45;&gt;dir_e3f1be6c81707290c49db0b543c8ca0f -->
<g id="edge7" class="edge">
<title>dir_41aff1ea0c6b1e926fcadcfce4fc621a&#45;&gt;dir_e3f1be6c81707290c49db0b543c8ca0f</title>
<path fill="none" stroke="black" d="M141.41,-60.1C136.72,-68.38 130.14,-78.49 123.54,-87.64"/>
<polygon fill="black" stroke="black" points="120.71,-85.59 117.53,-95.7 126.32,-89.77 120.71,-85.59"/>
<g id="a_edge7&#45;headlabel"><a xlink:href="dir_000004_000002.html" target="_top" xlink:title="1">
<text text-anchor="middle" x="120.58" y="-78.51" font-family="Helvetica,sans-Serif" font-size="10.00">1</text>
</a>
</g>
</g>
<!-- dir_4d12ab9015076de1f5bb3c851ea7efd6&#45;&gt;dir_e3f1be6c81707290c49db0b543c8ca0f -->
<g id="edge8" class="edge">
<title>dir_4d12ab9015076de1f5bb3c851ea7efd6&#45;&gt;dir_e3f1be6c81707290c49db0b543c8ca0f</title>
<path fill="none" stroke="black" d="M87,-60.1C90.59,-67.88 94.18,-77.26 96.93,-85.95"/>
<polygon fill="black" stroke="black" points="93.61,-87.05 99.74,-95.7 100.33,-85.12 93.61,-87.05"/>
<g id="a_edge8&#45;headlabel"><a xlink:href="dir_000005_000002.html" target="_top" xlink:title="1">
<text text-anchor="middle" x="89.89" y="-81.88" font-family="Helvetica,sans-Serif" font-size="10.00">1</text>
</a>
</g>
</g>
<!-- dir_8af2c632bc24948389f9f786515158f0 -->
<g id="node6" class="node">
<title>dir_8af2c632bc24948389f9f786515158f0</title>
<g id="a_node6"><a xlink:href="dir_8af2c632bc24948389f9f786515158f0.html" target="_top" xlink:title="math">
<polygon fill="white" stroke="black" points="222,-276 168,-276 168,-240 222,-240 222,-276"/>
<text text-anchor="middle" x="195" y="-255.5" font-family="Helvetica,sans-Serif" font-size="10.00">math</text>
</a>
</g>
</g>
<!-- dir_d53f1416756d3ee0091b71cd98eb78f6 -->
<g id="node7" class="node">
<title>dir_d53f1416756d3ee0091b71cd98eb78f6</title>
<g id="a_node7"><a xlink:href="dir_d53f1416756d3ee0091b71cd98eb78f6.html" target="_top" xlink:title="renderer">
<polygon fill="white" stroke="black" points="176,-204 118,-204 118,-168 176,-168 176,-204"/>
<text text-anchor="middle" x="147" y="-183.5" font-family="Helvetica,sans-Serif" font-size="10.00">renderer</text>
</a>
</g>
</g>
<!-- dir_d53f1416756d3ee0091b71cd98eb78f6&#45;&gt;dir_e3f1be6c81707290c49db0b543c8ca0f -->
<g id="edge6" class="edge">
<title>dir_d53f1416756d3ee0091b71cd98eb78f6&#45;&gt;dir_e3f1be6c81707290c49db0b543c8ca0f</title>
<path fill="none" stroke="black" d="M135.38,-167.7C129.86,-159.47 123.15,-149.48 117.07,-140.42"/>
<polygon fill="black" stroke="black" points="119.96,-138.46 111.48,-132.1 114.15,-142.36 119.96,-138.46"/>
<g id="a_edge6&#45;headlabel"><a xlink:href="dir_000007_000002.html" target="_top" xlink:title="8">
<text text-anchor="middle" x="124.33" y="-137.36" font-family="Helvetica,sans-Serif" font-size="10.00">8</text>
</a>
</g>
</g>
<!-- dir_d53f1416756d3ee0091b71cd98eb78f6&#45;&gt;dir_41aff1ea0c6b1e926fcadcfce4fc621a -->
<g id="edge5" class="edge">
<title>dir_d53f1416756d3ee0091b71cd98eb78f6&#45;&gt;dir_41aff1ea0c6b1e926fcadcfce4fc621a</title>
<path fill="none" stroke="black" d="M147,-167.87C147,-143.67 147,-99.21 147,-70.39"/>
<polygon fill="black" stroke="black" points="150.5,-70.19 147,-60.19 143.5,-70.19 150.5,-70.19"/>
<g id="a_edge5&#45;headlabel"><a xlink:href="dir_000007_000004.html" target="_top" xlink:title="2">
<text text-anchor="middle" x="153.34" y="-71.28" font-family="Helvetica,sans-Serif" font-size="10.00">2</text>
</a>
</g>
</g>
<!-- dir_cf90a32db7eaef8c19fcb86e15c6665a -->
<g id="node8" class="node">
<title>dir_cf90a32db7eaef8c19fcb86e15c6665a</title>
<g id="a_node8"><a xlink:href="dir_cf90a32db7eaef8c19fcb86e15c6665a.html" target="_top" xlink:title="scene">
<polygon fill="white" stroke="black" points="150,-276 96,-276 96,-240 150,-240 150,-276"/>
<text text-anchor="middle" x="123" y="-255.5" font-family="Helvetica,sans-Serif" font-size="10.00">scene</text>
</a>
</g>
</g>
<!-- dir_cf90a32db7eaef8c19fcb86e15c6665a&#45;&gt;dir_e3f1be6c81707290c49db0b543c8ca0f -->
<g id="edge2" class="edge">
<title>dir_cf90a32db7eaef8c19fcb86e15c6665a&#45;&gt;dir_e3f1be6c81707290c49db0b543c8ca0f</title>
<path fill="none" stroke="black" d="M117.77,-239.97C114.78,-229.65 111.21,-216.17 109,-204 105.28,-183.5 102.99,-160.04 101.65,-142.36"/>
<polygon fill="black" stroke="black" points="105.12,-141.9 100.93,-132.17 98.14,-142.39 105.12,-141.9"/>
<g id="a_edge2&#45;headlabel"><a xlink:href="dir_000008_000002.html" target="_top" xlink:title="3">
<text text-anchor="middle" x="108.21" y="-142.79" font-family="Helvetica,sans-Serif" font-size="10.00">3</text>
</a>
</g>
</g>
<!-- dir_cf90a32db7eaef8c19fcb86e15c6665a&#45;&gt;dir_d53f1416756d3ee0091b71cd98eb78f6 -->
<g id="edge1" class="edge">
<title>dir_cf90a32db7eaef8c19fcb86e15c6665a&#45;&gt;dir_d53f1416756d3ee0091b71cd98eb78f6</title>
<path fill="none" stroke="black" d="M128.93,-239.7C131.61,-231.9 134.83,-222.51 137.8,-213.83"/>
<polygon fill="black" stroke="black" points="141.2,-214.7 141.14,-204.1 134.58,-212.43 141.2,-214.7"/>
<g id="a_edge1&#45;headlabel"><a xlink:href="dir_000008_000007.html" target="_top" xlink:title="2">
<text text-anchor="middle" x="142.72" y="-216.52" font-family="Helvetica,sans-Serif" font-size="10.00">2</text>
</a>
</g>
</g>
<!-- dir_1de4b4312bd20a263499a6ee6ac47312 -->
<g id="node9" class="node">
<title>dir_1de4b4312bd20a263499a6ee6ac47312</title>
<g id="a_node9"><a xlink:href="dir_1de4b4312bd20a263499a6ee6ac47312.html" target="_top" xlink:title="utils">
<polygon fill="white" stroke="black" points="78,-276 24,-276 24,-240 78,-240 78,-276"/>
<text text-anchor="middle" x="51" y="-255.5" font-family="Helvetica,sans-Serif" font-size="10.00">utils</text>
</a>
</g>
</g>
</g>
</svg>
