<?xml version="1.0" encoding="UTF-8" standalone="no"?>
<!DOCTYPE svg PUBLIC "-//W3C//DTD SVG 1.1//EN"
 "http://www.w3.org/Graphics/SVG/1.1/DTD/svg11.dtd">
<!-- Generated by graphviz version 2.43.0 (0)
 -->
<!-- Title: /home/runner/work/gauri/gauri/gauri/include/gauri/scene Pages: 1 -->
<svg width="118pt" height="239pt"
 viewBox="0.00 0.00 118.00 239.00" xmlns="http://www.w3.org/2000/svg" xmlns:xlink="http://www.w3.org/1999/xlink">
<g id="graph0" class="graph" transform="scale(1 1) rotate(0) translate(4 235)">
<title>/home/runner/work/gauri/gauri/gauri/include/gauri/scene</title>
<polygon fill="white" stroke="transparent" points="-4,4 -4,-235 114,-235 114,4 -4,4"/>
<g id="clust1" class="cluster">
<title>clusterdir_f663037edfb7f082147afd6082a235f9</title>
<g id="a_clust1"><a xlink:href="dir_f663037edfb7f082147afd6082a235f9.html" target="_top" xlink:title="gauri">
<polygon fill="#ddddee" stroke="black" points="8,-8 8,-223 102,-223 102,-8 8,-8"/>
<text text-anchor="middle" x="55" y="-211" font-family="Helvetica,sans-Serif" font-size="10.00">gauri</text>
</a>
</g>
</g>
<!-- dir_d53f1416756d3ee0091b71cd98eb78f6 -->
<g id="node1" class="node">
<title>dir_d53f1416756d3ee0091b71cd98eb78f6</title>
<g id="a_node1"><a xlink:href="dir_d53f1416756d3ee0091b71cd98eb78f6.html" target="_top" xlink:title="renderer">
<polygon fill="none" stroke="black" points="74,-124 16,-124 16,-88 74,-88 74,-124"/>
<text text-anchor="middle" x="45" y="-103.5" font-family="Helvetica,sans-Serif" font-size="10.00">renderer</text>
</a>
</g>
</g>
<!-- dir_e3f1be6c81707290c49db0b543c8ca0f -->
<g id="node2" class="node">
<title>dir_e3f1be6c81707290c49db0b543c8ca0f</title>
<g id="a_node2"><a xlink:href="dir_e3f1be6c81707290c49db0b543c8ca0f.html" target="_top" xlink:title="core">
<polygon fill="none" stroke="black" points="83,-52 29,-52 29,-16 83,-16 83,-52"/>
<text text-anchor="middle" x="56" y="-31.5" font-family="Helvetica,sans-Serif" font-size="10.00">core</text>
</a>
</g>
</g>
<!-- dir_d53f1416756d3ee0091b71cd98eb78f6&#45;&gt;dir_e3f1be6c81707290c49db0b543c8ca0f -->
<g id="edge3" class="edge">
<title>dir_d53f1416756d3ee0091b71cd98eb78f6&#45;&gt;dir_e3f1be6c81707290c49db0b543c8ca0f</title>
<path fill="none" stroke="black" d="M47.72,-87.7C48.93,-79.98 50.39,-70.71 51.74,-62.11"/>
<polygon fill="black" stroke="black" points="55.22,-62.53 53.31,-52.1 48.3,-61.44 55.22,-62.53"/>
<g id="a_edge3&#45;headlabel"><a xlink:href="dir_000007_000002.html" target="_top" xlink:title="7">
<text text-anchor="middle" x="57.46" y="-64.02" font-family="Helvetica,sans-Serif" font-size="10.00">7</text>
</a>
</g>
</g>
<!-- dir_cf90a32db7eaef8c19fcb86e15c6665a -->
<g id="node3" class="node">
<title>dir_cf90a32db7eaef8c19fcb86e15c6665a</title>
<g id="a_node3"><a xlink:href="dir_cf90a32db7eaef8c19fcb86e15c6665a.html" target="_top" xlink:title="scene">
<polygon fill="#eeeeff" stroke="black" points="83,-196 29,-196 29,-160 83,-160 83,-196"/>
<text text-anchor="middle" x="56" y="-175.5" font-family="Helvetica,sans-Serif" font-size="10.00">scene</text>
</a>
</g>
</g>
<!-- dir_cf90a32db7eaef8c19fcb86e15c6665a&#45;&gt;dir_d53f1416756d3ee0091b71cd98eb78f6 -->
<g id="edge1" class="edge">
<title>dir_cf90a32db7eaef8c19fcb86e15c6665a&#45;&gt;dir_d53f1416756d3ee0091b71cd98eb78f6</title>
<path fill="none" stroke="black" d="M53.28,-159.7C52.07,-151.98 50.61,-142.71 49.26,-134.11"/>
<polygon fill="black" stroke="black" points="52.7,-133.44 47.69,-124.1 45.78,-134.53 52.7,-133.44"/>
<g id="a_edge1&#45;headlabel"><a xlink:href="dir_000008_000007.html" target="_top" xlink:title="1">
<text text-anchor="middle" x="56.06" y="-134.05" font-family="Helvetica,sans-Serif" font-size="10.00">1</text>
</a>
</g>
</g>
<!-- dir_cf90a32db7eaef8c19fcb86e15c6665a&#45;&gt;dir_e3f1be6c81707290c49db0b543c8ca0f -->
<g id="edge2" class="edge">
<title>dir_cf90a32db7eaef8c19fcb86e15c6665a&#45;&gt;dir_e3f1be6c81707290c49db0b543c8ca0f</title>
<path fill="none" stroke="black" d="M67.47,-159.67C73.37,-149.69 79.96,-136.65 83,-124 86.73,-108.44 86.73,-103.56 83,-88 80.79,-78.81 76.71,-69.41 72.38,-61.13"/>
<polygon fill="black" stroke="black" points="75.4,-59.36 67.47,-52.33 69.28,-62.77 75.4,-59.36"/>
<g id="a_edge2&#45;headlabel"><a xlink:href="dir_000008_000002.html" target="_top" xlink:title="3">
<text text-anchor="middle" x="79.63" y="-58.61" font-family="Helvetica,sans-Serif" font-size="10.00">3</text>
</a>
</g>
</g>
</g>
</svg>
