<?xml version="1.0" encoding="UTF-8" standalone="no"?>
<!DOCTYPE svg PUBLIC "-//W3C//DTD SVG 1.1//EN"
 "http://www.w3.org/Graphics/SVG/1.1/DTD/svg11.dtd">
<!-- Generated by graphviz version 2.43.0 (0)
 -->
<!-- Title: /home/runner/work/gauri/gauri/gauri/include/gauri Pages: 1 -->
<svg width="330pt" height="255pt"
 viewBox="0.00 0.00 330.00 255.00" xmlns="http://www.w3.org/2000/svg" xmlns:xlink="http://www.w3.org/1999/xlink">
<g id="graph0" class="graph" transform="scale(1 1) rotate(0) translate(4 251)">
<title>/home/runner/work/gauri/gauri/gauri/include/gauri</title>
<polygon fill="white" stroke="transparent" points="-4,4 -4,-251 326,-251 326,4 -4,4"/>
<g id="clust1" class="cluster">
<title>clusterdir_d44c64559bbebec7f509842c48db8b23</title>
<g id="a_clust1"><a xlink:href="dir_d44c64559bbebec7f509842c48db8b23.html" target="_top" xlink:title="include">
<polygon fill="#ddddee" stroke="black" points="8,-8 8,-239 314,-239 314,-8 8,-8"/>
<text text-anchor="middle" x="161" y="-227" font-family="Helvetica,sans-Serif" font-size="10.00">include</text>
</a>
</g>
</g>
<g id="clust2" class="cluster">
<title>clusterdir_f663037edfb7f082147afd6082a235f9</title>
<g id="a_clust2"><a xlink:href="dir_f663037edfb7f082147afd6082a235f9.html" target="_top">
<polygon fill="#eeeeff" stroke="black" points="16,-16 16,-212 306,-212 306,-16 16,-16"/>
</a>
</g>
</g>
<!-- dir_f663037edfb7f082147afd6082a235f9 -->
<g id="node1" class="node">
<title>dir_f663037edfb7f082147afd6082a235f9</title>
<text text-anchor="middle" x="271" y="-183.5" font-family="Helvetica,sans-Serif" font-size="10.00">gauri</text>
</g>
<!-- dir_e3f1be6c81707290c49db0b543c8ca0f -->
<g id="node2" class="node">
<title>dir_e3f1be6c81707290c49db0b543c8ca0f</title>
<g id="a_node2"><a xlink:href="dir_e3f1be6c81707290c49db0b543c8ca0f.html" target="_top" xlink:title="core">
<polygon fill="white" stroke="black" points="93,-132 39,-132 39,-96 93,-96 93,-132"/>
<text text-anchor="middle" x="66" y="-111.5" font-family="Helvetica,sans-Serif" font-size="10.00">core</text>
</a>
</g>
</g>
<!-- dir_41aff1ea0c6b1e926fcadcfce4fc621a -->
<g id="node4" class="node">
<title>dir_41aff1ea0c6b1e926fcadcfce4fc621a</title>
<g id="a_node4"><a xlink:href="dir_41aff1ea0c6b1e926fcadcfce4fc621a.html" target="_top" xlink:title="event">
<polygon fill="white" stroke="black" points="152,-60 98,-60 98,-24 152,-24 152,-60"/>
<text text-anchor="middle" x="125" y="-39.5" font-family="Helvetica,sans-Serif" font-size="10.00">event</text>
</a>
</g>
</g>
<!-- dir_e3f1be6c81707290c49db0b543c8ca0f&#45;&gt;dir_41aff1ea0c6b1e926fcadcfce4fc621a -->
<g id="edge2" class="edge">
<title>dir_e3f1be6c81707290c49db0b543c8ca0f&#45;&gt;dir_41aff1ea0c6b1e926fcadcfce4fc621a</title>
<path fill="none" stroke="black" d="M74.67,-95.7C80.94,-87.22 89.48,-76.86 97.8,-67.58"/>
<polygon fill="black" stroke="black" points="100.49,-69.83 104.69,-60.1 95.34,-65.09 100.49,-69.83"/>
<g id="a_edge2&#45;headlabel"><a xlink:href="dir_000002_000004.html" target="_top" xlink:title="3">
<text text-anchor="middle" x="100.14" y="-71.9" font-family="Helvetica,sans-Serif" font-size="10.00">3</text>
</a>
</g>
</g>
<!-- dir_4d12ab9015076de1f5bb3c851ea7efd6 -->
<g id="node5" class="node">
<title>dir_4d12ab9015076de1f5bb3c851ea7efd6</title>
<g id="a_node5"><a xlink:href="dir_4d12ab9015076de1f5bb3c851ea7efd6.html" target="_top" xlink:title="imgui">
<polygon fill="white" stroke="black" points="80,-60 26,-60 26,-24 80,-24 80,-60"/>
<text text-anchor="middle" x="53" y="-39.5" font-family="Helvetica,sans-Serif" font-size="10.00">imgui</text>
</a>
</g>
</g>
<!-- dir_e3f1be6c81707290c49db0b543c8ca0f&#45;&gt;dir_4d12ab9015076de1f5bb3c851ea7efd6 -->
<g id="edge3" class="edge">
<title>dir_e3f1be6c81707290c49db0b543c8ca0f&#45;&gt;dir_4d12ab9015076de1f5bb3c851ea7efd6</title>
<path fill="none" stroke="black" d="M56.87,-95.7C54.64,-87.98 52.69,-78.71 51.44,-70.11"/>
<polygon fill="black" stroke="black" points="54.91,-69.64 50.28,-60.1 47.95,-70.44 54.91,-69.64"/>
<g id="a_edge3&#45;headlabel"><a xlink:href="dir_000002_000005.html" target="_top" xlink:title="1">
<text text-anchor="middle" x="58.14" y="-70.38" font-family="Helvetica,sans-Serif" font-size="10.00">1</text>
</a>
</g>
</g>
<!-- dir_cbaa96a9408d6a0eed7a60968132a01f -->
<g id="node3" class="node">
<title>dir_cbaa96a9408d6a0eed7a60968132a01f</title>
<g id="a_node3"><a xlink:href="dir_cbaa96a9408d6a0eed7a60968132a01f.html" target="_top" xlink:title="debug">
<polygon fill="white" stroke="black" points="226,-204 172,-204 172,-168 226,-168 226,-204"/>
<text text-anchor="middle" x="199" y="-183.5" font-family="Helvetica,sans-Serif" font-size="10.00">debug</text>
</a>
</g>
</g>
<!-- dir_41aff1ea0c6b1e926fcadcfce4fc621a&#45;&gt;dir_e3f1be6c81707290c49db0b543c8ca0f -->
<g id="edge6" class="edge">
<title>dir_41aff1ea0c6b1e926fcadcfce4fc621a&#45;&gt;dir_e3f1be6c81707290c49db0b543c8ca0f</title>
<path fill="none" stroke="black" d="M116.48,-60.1C110.24,-68.55 101.72,-78.9 93.39,-88.2"/>
<polygon fill="black" stroke="black" points="90.69,-85.97 86.5,-95.7 95.84,-90.7 90.69,-85.97"/>
<g id="a_edge6&#45;headlabel"><a xlink:href="dir_000004_000002.html" target="_top" xlink:title="1">
<text text-anchor="middle" x="91.03" y="-78.9" font-family="Helvetica,sans-Serif" font-size="10.00">1</text>
</a>
</g>
</g>
<!-- dir_4d12ab9015076de1f5bb3c851ea7efd6&#45;&gt;dir_e3f1be6c81707290c49db0b543c8ca0f -->
<g id="edge7" class="edge">
<title>dir_4d12ab9015076de1f5bb3c851ea7efd6&#45;&gt;dir_e3f1be6c81707290c49db0b543c8ca0f</title>
<path fill="none" stroke="black" d="M62.07,-60.1C64.3,-67.79 66.26,-77.05 67.53,-85.67"/>
<polygon fill="black" stroke="black" points="64.06,-86.17 68.7,-95.7 71.02,-85.36 64.06,-86.17"/>
<g id="a_edge7&#45;headlabel"><a xlink:href="dir_000005_000002.html" target="_top" xlink:title="1">
<text text-anchor="middle" x="60.82" y="-80.43" font-family="Helvetica,sans-Serif" font-size="10.00">1</text>
</a>
</g>
</g>
<!-- dir_d53f1416756d3ee0091b71cd98eb78f6 -->
<g id="node6" class="node">
<title>dir_d53f1416756d3ee0091b71cd98eb78f6</title>
<g id="a_node6"><a xlink:href="dir_d53f1416756d3ee0091b71cd98eb78f6.html" target="_top" xlink:title="renderer">
<polygon fill="white" stroke="black" points="154,-204 96,-204 96,-168 154,-168 154,-204"/>
<text text-anchor="middle" x="125" y="-183.5" font-family="Helvetica,sans-Serif" font-size="10.00">renderer</text>
</a>
</g>
</g>
<!-- dir_d53f1416756d3ee0091b71cd98eb78f6&#45;&gt;dir_e3f1be6c81707290c49db0b543c8ca0f -->
<g id="edge5" class="edge">
<title>dir_d53f1416756d3ee0091b71cd98eb78f6&#45;&gt;dir_e3f1be6c81707290c49db0b543c8ca0f</title>
<path fill="none" stroke="black" d="M110.42,-167.7C103.34,-159.3 94.72,-149.07 86.95,-139.86"/>
<polygon fill="black" stroke="black" points="89.54,-137.49 80.42,-132.1 84.19,-142.01 89.54,-137.49"/>
<g id="a_edge5&#45;headlabel"><a xlink:href="dir_000006_000002.html" target="_top" xlink:title="7">
<text text-anchor="middle" x="94.03" y="-135.91" font-family="Helvetica,sans-Serif" font-size="10.00">7</text>
</a>
</g>
</g>
<!-- dir_d53f1416756d3ee0091b71cd98eb78f6&#45;&gt;dir_41aff1ea0c6b1e926fcadcfce4fc621a -->
<g id="edge4" class="edge">
<title>dir_d53f1416756d3ee0091b71cd98eb78f6&#45;&gt;dir_41aff1ea0c6b1e926fcadcfce4fc621a</title>
<path fill="none" stroke="black" d="M125,-167.87C125,-143.67 125,-99.21 125,-70.39"/>
<polygon fill="black" stroke="black" points="128.5,-70.19 125,-60.19 121.5,-70.19 128.5,-70.19"/>
<g id="a_edge4&#45;headlabel"><a xlink:href="dir_000006_000004.html" target="_top" xlink:title="1">
<text text-anchor="middle" x="131.34" y="-71.28" font-family="Helvetica,sans-Serif" font-size="10.00">1</text>
</a>
</g>
</g>
<!-- dir_cf90a32db7eaef8c19fcb86e15c6665a -->
<g id="node7" class="node">
<title>dir_cf90a32db7eaef8c19fcb86e15c6665a</title>
<g id="a_node7"><a xlink:href="dir_cf90a32db7eaef8c19fcb86e15c6665a.html" target="_top" xlink:title="scene">
<polygon fill="white" stroke="black" points="78,-204 24,-204 24,-168 78,-168 78,-204"/>
<text text-anchor="middle" x="51" y="-183.5" font-family="Helvetica,sans-Serif" font-size="10.00">scene</text>
</a>
</g>
</g>
<!-- dir_cf90a32db7eaef8c19fcb86e15c6665a&#45;&gt;dir_e3f1be6c81707290c49db0b543c8ca0f -->
<g id="edge1" class="edge">
<title>dir_cf90a32db7eaef8c19fcb86e15c6665a&#45;&gt;dir_e3f1be6c81707290c49db0b543c8ca0f</title>
<path fill="none" stroke="black" d="M54.71,-167.7C56.36,-159.98 58.35,-150.71 60.19,-142.11"/>
<polygon fill="black" stroke="black" points="63.66,-142.62 62.33,-132.1 56.82,-141.15 63.66,-142.62"/>
<g id="a_edge1&#45;headlabel"><a xlink:href="dir_000007_000002.html" target="_top" xlink:title="2">
<text text-anchor="middle" x="65.68" y="-144.23" font-family="Helvetica,sans-Serif" font-size="10.00">2</text>
</a>
</g>
</g>
</g>
</svg>
