<?xml version="1.0" encoding="UTF-8" standalone="no"?>
<!DOCTYPE svg PUBLIC "-//W3C//DTD SVG 1.1//EN"
 "http://www.w3.org/Graphics/SVG/1.1/DTD/svg11.dtd">
<!-- Generated by graphviz version 2.43.0 (0)
 -->
<!-- Title: /home/runner/work/gauri/gauri/gauri/include/gauri/renderer/editor_camera.h Pages: 1 -->
<svg width="1165pt" height="364pt"
 viewBox="0.00 0.00 1164.50 364.00" xmlns="http://www.w3.org/2000/svg" xmlns:xlink="http://www.w3.org/1999/xlink">
<g id="graph0" class="graph" transform="scale(1 1) rotate(0) translate(4 360)">
<title>/home/runner/work/gauri/gauri/gauri/include/gauri/renderer/editor_camera.h</title>
<polygon fill="white" stroke="transparent" points="-4,4 -4,-360 1160.5,-360 1160.5,4 -4,4"/>
<!-- Node1 -->
<g id="node1" class="node">
<title>Node1</title>
<g id="a_node1"><a xlink:title=" ">
<polygon fill="#bfbfbf" stroke="black" points="181,-336.5 181,-355.5 566,-355.5 566,-336.5 181,-336.5"/>
<text text-anchor="middle" x="373.5" y="-343.5" font-family="Helvetica,sans-Serif" font-size="10.00">/home/runner/work/gauri/gauri/gauri/include/gauri/renderer/editor_camera.h</text>
</a>
</g>
</g>
<!-- Node2 -->
<g id="node2" class="node">
<title>Node2</title>
<g id="a_node2"><a xlink:href="renderer__2d_8h.html" target="_top" xlink:title=" ">
<polygon fill="white" stroke="black" points="0,-168.5 0,-187.5 373,-187.5 373,-168.5 0,-168.5"/>
<text text-anchor="middle" x="186.5" y="-175.5" font-family="Helvetica,sans-Serif" font-size="10.00">/home/runner/work/gauri/gauri/gauri/include/gauri/renderer/renderer_2d.h</text>
</a>
</g>
</g>
<!-- Node1&#45;&gt;Node2 -->
<g id="edge1" class="edge">
<title>Node1&#45;&gt;Node2</title>
<path fill="none" stroke="midnightblue" d="M353.29,-330.41C341.7,-321.84 327.02,-310.64 314.5,-300 267.43,-260 214.95,-207.79 194.9,-187.54"/>
<polygon fill="midnightblue" stroke="midnightblue" points="351.32,-333.31 361.46,-336.39 355.46,-327.66 351.32,-333.31"/>
</g>
<!-- Node5 -->
<g id="node5" class="node">
<title>Node5</title>
<g id="a_node5"><a xlink:href="scene_8h.html" target="_top" xlink:title=" ">
<polygon fill="white" stroke="black" points="323.5,-280.5 323.5,-299.5 653.5,-299.5 653.5,-280.5 323.5,-280.5"/>
<text text-anchor="middle" x="488.5" y="-287.5" font-family="Helvetica,sans-Serif" font-size="10.00">/home/runner/work/gauri/gauri/gauri/include/gauri/scene/scene.h</text>
</a>
</g>
</g>
<!-- Node1&#45;&gt;Node5 -->
<g id="edge4" class="edge">
<title>Node1&#45;&gt;Node5</title>
<path fill="none" stroke="midnightblue" d="M400.98,-332.1C422.47,-322.01 451.72,-308.27 470.36,-299.52"/>
<polygon fill="midnightblue" stroke="midnightblue" points="399.29,-329.02 391.72,-336.44 402.26,-335.36 399.29,-329.02"/>
</g>
<!-- Node3 -->
<g id="node3" class="node">
<title>Node3</title>
<g id="a_node3"><a xlink:href="gauri_8h.html" target="_top" xlink:title=" ">
<polygon fill="white" stroke="black" points="306,-56.5 306,-75.5 573,-75.5 573,-56.5 306,-56.5"/>
<text text-anchor="middle" x="439.5" y="-63.5" font-family="Helvetica,sans-Serif" font-size="10.00">/home/runner/work/gauri/gauri/gauri/include/gauri.h</text>
</a>
</g>
</g>
<!-- Node2&#45;&gt;Node3 -->
<g id="edge2" class="edge">
<title>Node2&#45;&gt;Node3</title>
<path fill="none" stroke="midnightblue" d="M215.7,-164.3C267.78,-141.66 375.4,-94.87 419.74,-75.59"/>
<polygon fill="midnightblue" stroke="midnightblue" points="214.13,-161.17 206.35,-168.37 216.92,-167.59 214.13,-161.17"/>
</g>
<!-- Node4 -->
<g id="node4" class="node">
<title>Node4</title>
<g id="a_node4"><a xlink:href="entry__point_8h.html" target="_top" xlink:title=" ">
<polygon fill="white" stroke="black" points="264.5,-0.5 264.5,-19.5 614.5,-19.5 614.5,-0.5 264.5,-0.5"/>
<text text-anchor="middle" x="439.5" y="-7.5" font-family="Helvetica,sans-Serif" font-size="10.00">/home/runner/work/gauri/gauri/gauri/include/gauri/core/entry_point.h</text>
</a>
</g>
</g>
<!-- Node3&#45;&gt;Node4 -->
<g id="edge3" class="edge">
<title>Node3&#45;&gt;Node4</title>
<path fill="none" stroke="midnightblue" d="M439.5,-45.8C439.5,-36.91 439.5,-26.78 439.5,-19.75"/>
<polygon fill="midnightblue" stroke="midnightblue" points="436,-46.08 439.5,-56.08 443,-46.08 436,-46.08"/>
</g>
<!-- Node5&#45;&gt;Node3 -->
<g id="edge12" class="edge">
<title>Node5&#45;&gt;Node3</title>
<path fill="none" stroke="midnightblue" d="M455.44,-276.01C441.73,-268.78 427.25,-258.3 419.5,-244 388.27,-186.35 422.48,-102.8 435.16,-75.78"/>
<polygon fill="midnightblue" stroke="midnightblue" points="454.19,-279.29 464.71,-280.5 457.24,-272.99 454.19,-279.29"/>
</g>
<!-- Node6 -->
<g id="node6" class="node">
<title>Node6</title>
<g id="a_node6"><a xlink:href="entity_8h.html" target="_top" xlink:title=" ">
<polygon fill="white" stroke="black" points="429,-224.5 429,-243.5 758,-243.5 758,-224.5 429,-224.5"/>
<text text-anchor="middle" x="593.5" y="-231.5" font-family="Helvetica,sans-Serif" font-size="10.00">/home/runner/work/gauri/gauri/gauri/include/gauri/scene/entity.h</text>
</a>
</g>
</g>
<!-- Node5&#45;&gt;Node6 -->
<g id="edge5" class="edge">
<title>Node5&#45;&gt;Node6</title>
<path fill="none" stroke="midnightblue" d="M514.31,-275.73C533.75,-265.73 559.85,-252.31 576.67,-243.65"/>
<polygon fill="midnightblue" stroke="midnightblue" points="512.66,-272.64 505.37,-280.32 515.86,-278.86 512.66,-272.64"/>
</g>
<!-- Node9 -->
<g id="node9" class="node">
<title>Node9</title>
<g id="a_node9"><a xlink:href="scene__serializer_8h.html" target="_top" xlink:title=" ">
<polygon fill="white" stroke="black" points="776.5,-224.5 776.5,-243.5 1156.5,-243.5 1156.5,-224.5 776.5,-224.5"/>
<text text-anchor="middle" x="966.5" y="-231.5" font-family="Helvetica,sans-Serif" font-size="10.00">/home/runner/work/gauri/gauri/gauri/include/gauri/scene/scene_serializer.h</text>
</a>
</g>
</g>
<!-- Node5&#45;&gt;Node9 -->
<g id="edge11" class="edge">
<title>Node5&#45;&gt;Node9</title>
<path fill="none" stroke="midnightblue" d="M574.17,-279.32C664.34,-269.14 804.9,-253.26 891.03,-243.53"/>
<polygon fill="midnightblue" stroke="midnightblue" points="573.52,-275.87 563.98,-280.47 574.31,-282.83 573.52,-275.87"/>
</g>
<!-- Node6&#45;&gt;Node3 -->
<g id="edge10" class="edge">
<title>Node6&#45;&gt;Node3</title>
<path fill="none" stroke="midnightblue" d="M512.97,-221.55C492.51,-214.9 472.42,-204.44 458.5,-188 430.34,-154.73 435.1,-97.15 438.11,-75.53"/>
<polygon fill="midnightblue" stroke="midnightblue" points="512.11,-224.95 522.69,-224.43 514.09,-218.24 512.11,-224.95"/>
</g>
<!-- Node7 -->
<g id="node7" class="node">
<title>Node7</title>
<g id="a_node7"><a xlink:href="scriptable__entity_8h.html" target="_top" xlink:title=" ">
<polygon fill="white" stroke="black" points="467.5,-168.5 467.5,-187.5 849.5,-187.5 849.5,-168.5 467.5,-168.5"/>
<text text-anchor="middle" x="658.5" y="-175.5" font-family="Helvetica,sans-Serif" font-size="10.00">/home/runner/work/gauri/gauri/gauri/include/gauri/scene/scriptable_entity.h</text>
</a>
</g>
</g>
<!-- Node6&#45;&gt;Node7 -->
<g id="edge6" class="edge">
<title>Node6&#45;&gt;Node7</title>
<path fill="none" stroke="midnightblue" d="M611.77,-217.82C623.42,-208.15 638.1,-195.95 647.87,-187.83"/>
<polygon fill="midnightblue" stroke="midnightblue" points="609.4,-215.24 603.94,-224.32 613.87,-220.63 609.4,-215.24"/>
</g>
<!-- Node7&#45;&gt;Node3 -->
<g id="edge9" class="edge">
<title>Node7&#45;&gt;Node3</title>
<path fill="none" stroke="midnightblue" d="M586.74,-166.38C557.18,-159.71 523.59,-149.02 496.5,-132 472.86,-117.15 453.48,-89.57 444.65,-75.59"/>
<polygon fill="midnightblue" stroke="midnightblue" points="586.08,-169.82 596.6,-168.49 587.55,-162.97 586.08,-169.82"/>
</g>
<!-- Node8 -->
<g id="node8" class="node">
<title>Node8</title>
<g id="a_node8"><a xlink:href="component_8h.html" target="_top" xlink:title=" ">
<polygon fill="white" stroke="black" points="505.5,-112.5 505.5,-131.5 861.5,-131.5 861.5,-112.5 505.5,-112.5"/>
<text text-anchor="middle" x="683.5" y="-119.5" font-family="Helvetica,sans-Serif" font-size="10.00">/home/runner/work/gauri/gauri/gauri/include/gauri/scene/component.h</text>
</a>
</g>
</g>
<!-- Node7&#45;&gt;Node8 -->
<g id="edge7" class="edge">
<title>Node7&#45;&gt;Node8</title>
<path fill="none" stroke="midnightblue" d="M666.84,-158.98C671.08,-149.82 676.05,-139.09 679.45,-131.75"/>
<polygon fill="midnightblue" stroke="midnightblue" points="663.65,-157.54 662.63,-168.08 670.01,-160.48 663.65,-157.54"/>
</g>
<!-- Node8&#45;&gt;Node3 -->
<g id="edge8" class="edge">
<title>Node8&#45;&gt;Node3</title>
<path fill="none" stroke="midnightblue" d="M635.07,-110.28C588.96,-100.08 520.47,-84.92 477.98,-75.52"/>
<polygon fill="midnightblue" stroke="midnightblue" points="634.32,-113.7 644.84,-112.44 635.83,-106.87 634.32,-113.7"/>
</g>
</g>
</svg>
