<?xml version="1.0" encoding="UTF-8" standalone="no"?>
<!DOCTYPE svg PUBLIC "-//W3C//DTD SVG 1.1//EN"
 "http://www.w3.org/Graphics/SVG/1.1/DTD/svg11.dtd">
<!-- Generated by graphviz version 2.43.0 (0)
 -->
<!-- Title: /home/runner/work/gauri/gauri/gauri/include/gauri/scene/entity.h Pages: 1 -->
<svg width="626pt" height="196pt"
 viewBox="0.00 0.00 626.00 196.00" xmlns="http://www.w3.org/2000/svg" xmlns:xlink="http://www.w3.org/1999/xlink">
<g id="graph0" class="graph" transform="scale(1 1) rotate(0) translate(4 192)">
<title>/home/runner/work/gauri/gauri/gauri/include/gauri/scene/entity.h</title>
<polygon fill="white" stroke="transparent" points="-4,4 -4,-192 622,-192 622,4 -4,4"/>
<!-- Node1 -->
<g id="node1" class="node">
<title>Node1</title>
<g id="a_node1"><a xlink:title=" ">
<polygon fill="#bfbfbf" stroke="black" points="127.5,-168.5 127.5,-187.5 456.5,-187.5 456.5,-168.5 127.5,-168.5"/>
<text text-anchor="middle" x="292" y="-175.5" font-family="Helvetica,sans-Serif" font-size="10.00">/home/runner/work/gauri/gauri/gauri/include/gauri/scene/entity.h</text>
</a>
</g>
</g>
<!-- Node2 -->
<g id="node2" class="node">
<title>Node2</title>
<g id="a_node2"><a xlink:title=" ">
<polygon fill="white" stroke="#bfbfbf" points="263.5,-56.5 263.5,-75.5 320.5,-75.5 320.5,-56.5 263.5,-56.5"/>
<text text-anchor="middle" x="292" y="-63.5" font-family="Helvetica,sans-Serif" font-size="10.00">entt.hpp</text>
</a>
</g>
</g>
<!-- Node1&#45;&gt;Node2 -->
<g id="edge1" class="edge">
<title>Node1&#45;&gt;Node2</title>
<path fill="none" stroke="midnightblue" d="M292,-168.37C292,-150.62 292,-109.67 292,-85.6"/>
<polygon fill="midnightblue" stroke="midnightblue" points="295.5,-85.59 292,-75.59 288.5,-85.59 295.5,-85.59"/>
</g>
<!-- Node3 -->
<g id="node3" class="node">
<title>Node3</title>
<g id="a_node3"><a xlink:href="base_8h.html" target="_top" xlink:title=" ">
<polygon fill="white" stroke="black" points="117.5,-112.5 117.5,-131.5 218.5,-131.5 218.5,-112.5 117.5,-112.5"/>
<text text-anchor="middle" x="168" y="-119.5" font-family="Helvetica,sans-Serif" font-size="10.00">gauri/core/base.h</text>
</a>
</g>
</g>
<!-- Node1&#45;&gt;Node3 -->
<g id="edge2" class="edge">
<title>Node1&#45;&gt;Node3</title>
<path fill="none" stroke="midnightblue" d="M272.35,-168.44C252.04,-159.6 220.1,-145.69 196.9,-135.59"/>
<polygon fill="midnightblue" stroke="midnightblue" points="198.12,-132.3 187.56,-131.52 195.33,-138.72 198.12,-132.3"/>
</g>
<!-- Node10 -->
<g id="node10" class="node">
<title>Node10</title>
<g id="a_node10"><a xlink:href="scene_8h.html" target="_top" xlink:title=" ">
<polygon fill="white" stroke="black" points="331.5,-112.5 331.5,-131.5 444.5,-131.5 444.5,-112.5 331.5,-112.5"/>
<text text-anchor="middle" x="388" y="-119.5" font-family="Helvetica,sans-Serif" font-size="10.00">gauri/scene/scene.h</text>
</a>
</g>
</g>
<!-- Node1&#45;&gt;Node10 -->
<g id="edge10" class="edge">
<title>Node1&#45;&gt;Node10</title>
<path fill="none" stroke="midnightblue" d="M307.42,-168.32C322.54,-159.82 345.82,-146.73 363.47,-136.8"/>
<polygon fill="midnightblue" stroke="midnightblue" points="365.61,-139.61 372.61,-131.65 362.18,-133.51 365.61,-139.61"/>
</g>
<!-- Node4 -->
<g id="node4" class="node">
<title>Node4</title>
<g id="a_node4"><a xlink:title=" ">
<polygon fill="white" stroke="#bfbfbf" points="195,-56.5 195,-75.5 245,-75.5 245,-56.5 195,-56.5"/>
<text text-anchor="middle" x="220" y="-63.5" font-family="Helvetica,sans-Serif" font-size="10.00">cstdint</text>
</a>
</g>
</g>
<!-- Node3&#45;&gt;Node4 -->
<g id="edge3" class="edge">
<title>Node3&#45;&gt;Node4</title>
<path fill="none" stroke="midnightblue" d="M176.59,-112.08C184.16,-104.22 195.38,-92.57 204.51,-83.08"/>
<polygon fill="midnightblue" stroke="midnightblue" points="207.16,-85.38 211.57,-75.75 202.12,-80.53 207.16,-85.38"/>
</g>
<!-- Node5 -->
<g id="node5" class="node">
<title>Node5</title>
<g id="a_node5"><a xlink:title=" ">
<polygon fill="white" stroke="#bfbfbf" points="0,-0.5 0,-19.5 58,-19.5 58,-0.5 0,-0.5"/>
<text text-anchor="middle" x="29" y="-7.5" font-family="Helvetica,sans-Serif" font-size="10.00">memory</text>
</a>
</g>
</g>
<!-- Node3&#45;&gt;Node5 -->
<g id="edge4" class="edge">
<title>Node3&#45;&gt;Node5</title>
<path fill="none" stroke="midnightblue" d="M130.89,-112.47C108.41,-105.72 80.43,-94.31 61,-76 47.58,-63.35 39.03,-43.87 34.18,-29.53"/>
<polygon fill="midnightblue" stroke="midnightblue" points="37.46,-28.29 31.17,-19.77 30.77,-30.35 37.46,-28.29"/>
</g>
<!-- Node6 -->
<g id="node6" class="node">
<title>Node6</title>
<g id="a_node6"><a xlink:href="logger_8h.html" target="_top" xlink:title=" ">
<polygon fill="white" stroke="black" points="69.5,-56.5 69.5,-75.5 176.5,-75.5 176.5,-56.5 69.5,-56.5"/>
<text text-anchor="middle" x="123" y="-63.5" font-family="Helvetica,sans-Serif" font-size="10.00">gauri/core/logger.h</text>
</a>
</g>
</g>
<!-- Node3&#45;&gt;Node6 -->
<g id="edge5" class="edge">
<title>Node3&#45;&gt;Node6</title>
<path fill="none" stroke="midnightblue" d="M160.57,-112.08C154.15,-104.38 144.69,-93.03 136.88,-83.65"/>
<polygon fill="midnightblue" stroke="midnightblue" points="139.38,-81.19 130.29,-75.75 134.01,-85.67 139.38,-81.19"/>
</g>
<!-- Node6&#45;&gt;Node5 -->
<g id="edge7" class="edge">
<title>Node6&#45;&gt;Node5</title>
<path fill="none" stroke="midnightblue" d="M107.9,-56.32C93.1,-47.82 70.31,-34.73 53.02,-24.8"/>
<polygon fill="midnightblue" stroke="midnightblue" points="54.48,-21.6 44.07,-19.65 50.99,-27.67 54.48,-21.6"/>
</g>
<!-- Node7 -->
<g id="node7" class="node">
<title>Node7</title>
<g id="a_node7"><a xlink:title=" ">
<polygon fill="white" stroke="#bfbfbf" points="188,-0.5 188,-19.5 238,-19.5 238,-0.5 188,-0.5"/>
<text text-anchor="middle" x="213" y="-7.5" font-family="Helvetica,sans-Serif" font-size="10.00">format</text>
</a>
</g>
</g>
<!-- Node6&#45;&gt;Node7 -->
<g id="edge6" class="edge">
<title>Node6&#45;&gt;Node7</title>
<path fill="none" stroke="midnightblue" d="M137.46,-56.32C151.5,-47.9 173.05,-34.97 189.54,-25.07"/>
<polygon fill="midnightblue" stroke="midnightblue" points="191.8,-27.8 198.58,-19.65 188.2,-21.8 191.8,-27.8"/>
</g>
<!-- Node8 -->
<g id="node8" class="node">
<title>Node8</title>
<g id="a_node8"><a xlink:title=" ">
<polygon fill="white" stroke="#bfbfbf" points="256.5,-0.5 256.5,-19.5 355.5,-19.5 355.5,-0.5 256.5,-0.5"/>
<text text-anchor="middle" x="306" y="-7.5" font-family="Helvetica,sans-Serif" font-size="10.00">spdlog/fmt/ostr.h</text>
</a>
</g>
</g>
<!-- Node6&#45;&gt;Node8 -->
<g id="edge8" class="edge">
<title>Node6&#45;&gt;Node8</title>
<path fill="none" stroke="midnightblue" d="M152,-56.44C183.18,-47.24 232.93,-32.56 267.41,-22.39"/>
<polygon fill="midnightblue" stroke="midnightblue" points="268.54,-25.7 277.14,-19.52 266.56,-18.99 268.54,-25.7"/>
</g>
<!-- Node9 -->
<g id="node9" class="node">
<title>Node9</title>
<g id="a_node9"><a xlink:title=" ">
<polygon fill="white" stroke="#bfbfbf" points="76.5,-0.5 76.5,-19.5 169.5,-19.5 169.5,-0.5 76.5,-0.5"/>
<text text-anchor="middle" x="123" y="-7.5" font-family="Helvetica,sans-Serif" font-size="10.00">spdlog/spdlog.h</text>
</a>
</g>
</g>
<!-- Node6&#45;&gt;Node9 -->
<g id="edge9" class="edge">
<title>Node6&#45;&gt;Node9</title>
<path fill="none" stroke="midnightblue" d="M123,-56.08C123,-49.01 123,-38.86 123,-29.99"/>
<polygon fill="midnightblue" stroke="midnightblue" points="126.5,-29.75 123,-19.75 119.5,-29.75 126.5,-29.75"/>
</g>
<!-- Node10&#45;&gt;Node2 -->
<g id="edge11" class="edge">
<title>Node10&#45;&gt;Node2</title>
<path fill="none" stroke="midnightblue" d="M372.58,-112.32C357.46,-103.82 334.18,-90.73 316.53,-80.8"/>
<polygon fill="midnightblue" stroke="midnightblue" points="317.82,-77.51 307.39,-75.65 314.39,-83.61 317.82,-77.51"/>
</g>
<!-- Node11 -->
<g id="node11" class="node">
<title>Node11</title>
<g id="a_node11"><a xlink:href="timestep_8h.html" target="_top" xlink:title=" ">
<polygon fill="white" stroke="black" points="338.5,-56.5 338.5,-75.5 459.5,-75.5 459.5,-56.5 338.5,-56.5"/>
<text text-anchor="middle" x="399" y="-63.5" font-family="Helvetica,sans-Serif" font-size="10.00">gauri/core/timestep.h</text>
</a>
</g>
</g>
<!-- Node10&#45;&gt;Node11 -->
<g id="edge12" class="edge">
<title>Node10&#45;&gt;Node11</title>
<path fill="none" stroke="midnightblue" d="M389.82,-112.08C391.27,-104.93 393.37,-94.64 395.19,-85.69"/>
<polygon fill="midnightblue" stroke="midnightblue" points="398.65,-86.25 397.22,-75.75 391.79,-84.85 398.65,-86.25"/>
</g>
<!-- Node12 -->
<g id="node12" class="node">
<title>Node12</title>
<g id="a_node12"><a xlink:href="component_8h.html" target="_top" xlink:title=" ">
<polygon fill="white" stroke="black" points="478,-56.5 478,-75.5 618,-75.5 618,-56.5 478,-56.5"/>
<text text-anchor="middle" x="548" y="-63.5" font-family="Helvetica,sans-Serif" font-size="10.00">gauri/scene/component.h</text>
</a>
</g>
</g>
<!-- Node10&#45;&gt;Node12 -->
<g id="edge13" class="edge">
<title>Node10&#45;&gt;Node12</title>
<path fill="none" stroke="midnightblue" d="M413.35,-112.44C440.27,-103.36 483,-88.94 513.09,-78.78"/>
<polygon fill="midnightblue" stroke="midnightblue" points="514.41,-82.03 522.77,-75.52 512.17,-75.4 514.41,-82.03"/>
</g>
<!-- Node13 -->
<g id="node13" class="node">
<title>Node13</title>
<g id="a_node13"><a xlink:title=" ">
<polygon fill="white" stroke="#bfbfbf" points="509,-0.5 509,-19.5 587,-19.5 587,-0.5 509,-0.5"/>
<text text-anchor="middle" x="548" y="-7.5" font-family="Helvetica,sans-Serif" font-size="10.00">glm/glm.hpp</text>
</a>
</g>
</g>
<!-- Node12&#45;&gt;Node13 -->
<g id="edge14" class="edge">
<title>Node12&#45;&gt;Node13</title>
<path fill="none" stroke="midnightblue" d="M548,-56.08C548,-49.01 548,-38.86 548,-29.99"/>
<polygon fill="midnightblue" stroke="midnightblue" points="551.5,-29.75 548,-19.75 544.5,-29.75 551.5,-29.75"/>
</g>
</g>
</svg>
