<?xml version="1.0" encoding="UTF-8" standalone="no"?>
<!DOCTYPE svg PUBLIC "-//W3C//DTD SVG 1.1//EN"
 "http://www.w3.org/Graphics/SVG/1.1/DTD/svg11.dtd">
<!-- Generated by graphviz version 2.43.0 (0)
 -->
<!-- Title: /home/runner/work/gauri/gauri/gauri/include/gauri/scene/entity.h Pages: 1 -->
<svg width="675pt" height="308pt"
 viewBox="0.00 0.00 674.50 308.00" xmlns="http://www.w3.org/2000/svg" xmlns:xlink="http://www.w3.org/1999/xlink">
<g id="graph0" class="graph" transform="scale(1 1) rotate(0) translate(4 304)">
<title>/home/runner/work/gauri/gauri/gauri/include/gauri/scene/entity.h</title>
<polygon fill="white" stroke="transparent" points="-4,4 -4,-304 670.5,-304 670.5,4 -4,4"/>
<!-- Node1 -->
<g id="node1" class="node">
<title>Node1</title>
<g id="a_node1"><a xlink:title=" ">
<polygon fill="#bfbfbf" stroke="black" points="115.5,-280.5 115.5,-299.5 444.5,-299.5 444.5,-280.5 115.5,-280.5"/>
<text text-anchor="middle" x="280" y="-287.5" font-family="Helvetica,sans-Serif" font-size="10.00">/home/runner/work/gauri/gauri/gauri/include/gauri/scene/entity.h</text>
</a>
</g>
</g>
<!-- Node2 -->
<g id="node2" class="node">
<title>Node2</title>
<g id="a_node2"><a xlink:title=" ">
<polygon fill="white" stroke="#bfbfbf" points="251.5,-168.5 251.5,-187.5 308.5,-187.5 308.5,-168.5 251.5,-168.5"/>
<text text-anchor="middle" x="280" y="-175.5" font-family="Helvetica,sans-Serif" font-size="10.00">entt.hpp</text>
</a>
</g>
</g>
<!-- Node1&#45;&gt;Node2 -->
<g id="edge1" class="edge">
<title>Node1&#45;&gt;Node2</title>
<path fill="none" stroke="midnightblue" d="M280,-280.37C280,-262.62 280,-221.67 280,-197.6"/>
<polygon fill="midnightblue" stroke="midnightblue" points="283.5,-197.59 280,-187.59 276.5,-197.59 283.5,-197.59"/>
</g>
<!-- Node3 -->
<g id="node3" class="node">
<title>Node3</title>
<g id="a_node3"><a xlink:href="base_8h.html" target="_top" xlink:title=" ">
<polygon fill="white" stroke="black" points="105.5,-224.5 105.5,-243.5 206.5,-243.5 206.5,-224.5 105.5,-224.5"/>
<text text-anchor="middle" x="156" y="-231.5" font-family="Helvetica,sans-Serif" font-size="10.00">gauri/core/base.h</text>
</a>
</g>
</g>
<!-- Node1&#45;&gt;Node3 -->
<g id="edge2" class="edge">
<title>Node1&#45;&gt;Node3</title>
<path fill="none" stroke="midnightblue" d="M260.35,-280.44C240.04,-271.6 208.1,-257.69 184.9,-247.59"/>
<polygon fill="midnightblue" stroke="midnightblue" points="186.12,-244.3 175.56,-243.52 183.33,-250.72 186.12,-244.3"/>
</g>
<!-- Node10 -->
<g id="node10" class="node">
<title>Node10</title>
<g id="a_node10"><a xlink:href="scene_8h.html" target="_top" xlink:title=" ">
<polygon fill="white" stroke="black" points="319.5,-224.5 319.5,-243.5 432.5,-243.5 432.5,-224.5 319.5,-224.5"/>
<text text-anchor="middle" x="376" y="-231.5" font-family="Helvetica,sans-Serif" font-size="10.00">gauri/scene/scene.h</text>
</a>
</g>
</g>
<!-- Node1&#45;&gt;Node10 -->
<g id="edge10" class="edge">
<title>Node1&#45;&gt;Node10</title>
<path fill="none" stroke="midnightblue" d="M295.42,-280.32C310.54,-271.82 333.82,-258.73 351.47,-248.8"/>
<polygon fill="midnightblue" stroke="midnightblue" points="353.61,-251.61 360.61,-243.65 350.18,-245.51 353.61,-251.61"/>
</g>
<!-- Node4 -->
<g id="node4" class="node">
<title>Node4</title>
<g id="a_node4"><a xlink:title=" ">
<polygon fill="white" stroke="#bfbfbf" points="183,-168.5 183,-187.5 233,-187.5 233,-168.5 183,-168.5"/>
<text text-anchor="middle" x="208" y="-175.5" font-family="Helvetica,sans-Serif" font-size="10.00">cstdint</text>
</a>
</g>
</g>
<!-- Node3&#45;&gt;Node4 -->
<g id="edge3" class="edge">
<title>Node3&#45;&gt;Node4</title>
<path fill="none" stroke="midnightblue" d="M164.59,-224.08C172.16,-216.22 183.38,-204.57 192.51,-195.08"/>
<polygon fill="midnightblue" stroke="midnightblue" points="195.16,-197.38 199.57,-187.75 190.12,-192.53 195.16,-197.38"/>
</g>
<!-- Node5 -->
<g id="node5" class="node">
<title>Node5</title>
<g id="a_node5"><a xlink:title=" ">
<polygon fill="white" stroke="#bfbfbf" points="0,-112.5 0,-131.5 58,-131.5 58,-112.5 0,-112.5"/>
<text text-anchor="middle" x="29" y="-119.5" font-family="Helvetica,sans-Serif" font-size="10.00">memory</text>
</a>
</g>
</g>
<!-- Node3&#45;&gt;Node5 -->
<g id="edge4" class="edge">
<title>Node3&#45;&gt;Node5</title>
<path fill="none" stroke="midnightblue" d="M114.16,-224.46C92.02,-217.93 65.97,-206.75 49,-188 37.5,-175.29 32.61,-156.09 30.53,-141.85"/>
<polygon fill="midnightblue" stroke="midnightblue" points="33.99,-141.26 29.4,-131.71 27.03,-142.04 33.99,-141.26"/>
</g>
<!-- Node6 -->
<g id="node6" class="node">
<title>Node6</title>
<g id="a_node6"><a xlink:href="logger_8h.html" target="_top" xlink:title=" ">
<polygon fill="white" stroke="black" points="57.5,-168.5 57.5,-187.5 164.5,-187.5 164.5,-168.5 57.5,-168.5"/>
<text text-anchor="middle" x="111" y="-175.5" font-family="Helvetica,sans-Serif" font-size="10.00">gauri/core/logger.h</text>
</a>
</g>
</g>
<!-- Node3&#45;&gt;Node6 -->
<g id="edge5" class="edge">
<title>Node3&#45;&gt;Node6</title>
<path fill="none" stroke="midnightblue" d="M148.57,-224.08C142.15,-216.38 132.69,-205.03 124.88,-195.65"/>
<polygon fill="midnightblue" stroke="midnightblue" points="127.38,-193.19 118.29,-187.75 122.01,-197.67 127.38,-193.19"/>
</g>
<!-- Node6&#45;&gt;Node5 -->
<g id="edge7" class="edge">
<title>Node6&#45;&gt;Node5</title>
<path fill="none" stroke="midnightblue" d="M97.83,-168.32C85.15,-159.98 65.77,-147.21 50.79,-137.35"/>
<polygon fill="midnightblue" stroke="midnightblue" points="52.42,-134.23 42.14,-131.65 48.57,-140.08 52.42,-134.23"/>
</g>
<!-- Node7 -->
<g id="node7" class="node">
<title>Node7</title>
<g id="a_node7"><a xlink:title=" ">
<polygon fill="white" stroke="#bfbfbf" points="76,-112.5 76,-131.5 126,-131.5 126,-112.5 76,-112.5"/>
<text text-anchor="middle" x="101" y="-119.5" font-family="Helvetica,sans-Serif" font-size="10.00">format</text>
</a>
</g>
</g>
<!-- Node6&#45;&gt;Node7 -->
<g id="edge6" class="edge">
<title>Node6&#45;&gt;Node7</title>
<path fill="none" stroke="midnightblue" d="M109.35,-168.08C108.02,-160.93 106.12,-150.64 104.46,-141.69"/>
<polygon fill="midnightblue" stroke="midnightblue" points="107.88,-140.95 102.62,-131.75 101,-142.22 107.88,-140.95"/>
</g>
<!-- Node8 -->
<g id="node8" class="node">
<title>Node8</title>
<g id="a_node8"><a xlink:title=" ">
<polygon fill="white" stroke="#bfbfbf" points="144.5,-112.5 144.5,-131.5 243.5,-131.5 243.5,-112.5 144.5,-112.5"/>
<text text-anchor="middle" x="194" y="-119.5" font-family="Helvetica,sans-Serif" font-size="10.00">spdlog/fmt/ostr.h</text>
</a>
</g>
</g>
<!-- Node6&#45;&gt;Node8 -->
<g id="edge8" class="edge">
<title>Node6&#45;&gt;Node8</title>
<path fill="none" stroke="midnightblue" d="M124.34,-168.32C137.16,-159.98 156.78,-147.21 171.94,-137.35"/>
<polygon fill="midnightblue" stroke="midnightblue" points="174.22,-140.04 180.7,-131.65 170.41,-134.17 174.22,-140.04"/>
</g>
<!-- Node9 -->
<g id="node9" class="node">
<title>Node9</title>
<g id="a_node9"><a xlink:title=" ">
<polygon fill="white" stroke="#bfbfbf" points="261.5,-112.5 261.5,-131.5 354.5,-131.5 354.5,-112.5 261.5,-112.5"/>
<text text-anchor="middle" x="308" y="-119.5" font-family="Helvetica,sans-Serif" font-size="10.00">spdlog/spdlog.h</text>
</a>
</g>
</g>
<!-- Node6&#45;&gt;Node9 -->
<g id="edge9" class="edge">
<title>Node6&#45;&gt;Node9</title>
<path fill="none" stroke="midnightblue" d="M142.22,-168.44C175.93,-159.2 229.8,-144.44 266.93,-134.26"/>
<polygon fill="midnightblue" stroke="midnightblue" points="268.21,-137.54 276.93,-131.52 266.36,-130.78 268.21,-137.54"/>
</g>
<!-- Node10&#45;&gt;Node2 -->
<g id="edge11" class="edge">
<title>Node10&#45;&gt;Node2</title>
<path fill="none" stroke="midnightblue" d="M360.58,-224.32C345.46,-215.82 322.18,-202.73 304.53,-192.8"/>
<polygon fill="midnightblue" stroke="midnightblue" points="305.82,-189.51 295.39,-187.65 302.39,-195.61 305.82,-189.51"/>
</g>
<!-- Node11 -->
<g id="node11" class="node">
<title>Node11</title>
<g id="a_node11"><a xlink:href="timestep_8h.html" target="_top" xlink:title=" ">
<polygon fill="white" stroke="black" points="326.5,-168.5 326.5,-187.5 447.5,-187.5 447.5,-168.5 326.5,-168.5"/>
<text text-anchor="middle" x="387" y="-175.5" font-family="Helvetica,sans-Serif" font-size="10.00">gauri/core/timestep.h</text>
</a>
</g>
</g>
<!-- Node10&#45;&gt;Node11 -->
<g id="edge12" class="edge">
<title>Node10&#45;&gt;Node11</title>
<path fill="none" stroke="midnightblue" d="M377.82,-224.08C379.27,-216.93 381.37,-206.64 383.19,-197.69"/>
<polygon fill="midnightblue" stroke="midnightblue" points="386.65,-198.25 385.22,-187.75 379.79,-196.85 386.65,-198.25"/>
</g>
<!-- Node12 -->
<g id="node12" class="node">
<title>Node12</title>
<g id="a_node12"><a xlink:href="component_8h.html" target="_top" xlink:title=" ">
<polygon fill="white" stroke="black" points="466,-168.5 466,-187.5 606,-187.5 606,-168.5 466,-168.5"/>
<text text-anchor="middle" x="536" y="-175.5" font-family="Helvetica,sans-Serif" font-size="10.00">gauri/scene/component.h</text>
</a>
</g>
</g>
<!-- Node10&#45;&gt;Node12 -->
<g id="edge13" class="edge">
<title>Node10&#45;&gt;Node12</title>
<path fill="none" stroke="midnightblue" d="M401.35,-224.44C428.27,-215.36 471,-200.94 501.09,-190.78"/>
<polygon fill="midnightblue" stroke="midnightblue" points="502.41,-194.03 510.77,-187.52 500.17,-187.4 502.41,-194.03"/>
</g>
<!-- Node13 -->
<g id="node13" class="node">
<title>Node13</title>
<g id="a_node13"><a xlink:title=" ">
<polygon fill="white" stroke="#bfbfbf" points="491,-0.5 491,-19.5 569,-19.5 569,-0.5 491,-0.5"/>
<text text-anchor="middle" x="530" y="-7.5" font-family="Helvetica,sans-Serif" font-size="10.00">glm/glm.hpp</text>
</a>
</g>
</g>
<!-- Node12&#45;&gt;Node13 -->
<g id="edge14" class="edge">
<title>Node12&#45;&gt;Node13</title>
<path fill="none" stroke="midnightblue" d="M526.98,-168.34C518.93,-159.93 507.7,-146.36 503,-132 498.56,-118.44 500.5,-79.3 507,-56 509.68,-46.39 514.52,-36.43 519.07,-28.34"/>
<polygon fill="midnightblue" stroke="midnightblue" points="522.2,-29.92 524.31,-19.53 516.19,-26.33 522.2,-29.92"/>
</g>
<!-- Node14 -->
<g id="node14" class="node">
<title>Node14</title>
<g id="a_node14"><a xlink:href="scene__camera_8h.html" target="_top" xlink:title=" ">
<polygon fill="white" stroke="black" points="511.5,-112.5 511.5,-131.5 666.5,-131.5 666.5,-112.5 511.5,-112.5"/>
<text text-anchor="middle" x="589" y="-119.5" font-family="Helvetica,sans-Serif" font-size="10.00">gauri/scene/scene_camera.h</text>
</a>
</g>
</g>
<!-- Node12&#45;&gt;Node14 -->
<g id="edge15" class="edge">
<title>Node12&#45;&gt;Node14</title>
<path fill="none" stroke="midnightblue" d="M544.75,-168.08C552.47,-160.22 563.9,-148.57 573.22,-139.08"/>
<polygon fill="midnightblue" stroke="midnightblue" points="575.9,-141.34 580.41,-131.75 570.91,-136.44 575.9,-141.34"/>
</g>
<!-- Node15 -->
<g id="node15" class="node">
<title>Node15</title>
<g id="a_node15"><a xlink:href="camera_8h.html" target="_top" xlink:title=" ">
<polygon fill="white" stroke="black" points="516,-56.5 516,-75.5 650,-75.5 650,-56.5 516,-56.5"/>
<text text-anchor="middle" x="583" y="-63.5" font-family="Helvetica,sans-Serif" font-size="10.00">gauri/renderer/camera.h</text>
</a>
</g>
</g>
<!-- Node14&#45;&gt;Node15 -->
<g id="edge16" class="edge">
<title>Node14&#45;&gt;Node15</title>
<path fill="none" stroke="midnightblue" d="M588.01,-112.08C587.21,-104.93 586.07,-94.64 585.08,-85.69"/>
<polygon fill="midnightblue" stroke="midnightblue" points="588.56,-85.3 583.97,-75.75 581.6,-86.08 588.56,-85.3"/>
</g>
<!-- Node15&#45;&gt;Node13 -->
<g id="edge17" class="edge">
<title>Node15&#45;&gt;Node13</title>
<path fill="none" stroke="midnightblue" d="M574.25,-56.08C566.53,-48.22 555.1,-36.57 545.78,-27.08"/>
<polygon fill="midnightblue" stroke="midnightblue" points="548.09,-24.44 538.59,-19.75 543.1,-29.34 548.09,-24.44"/>
</g>
</g>
</svg>
