<?xml version="1.0" encoding="UTF-8" standalone="no"?>
<!DOCTYPE svg PUBLIC "-//W3C//DTD SVG 1.1//EN"
 "http://www.w3.org/Graphics/SVG/1.1/DTD/svg11.dtd">
<!-- Generated by graphviz version 2.43.0 (0)
 -->
<!-- Title: /home/runner/work/gauri/gauri/gauri/include/gauri/core/entry_point.h Pages: 1 -->
<!--zoomable 532 -->
<svg id="main" version="1.1" xmlns="http://www.w3.org/2000/svg" xmlns:xlink="http://www.w3.org/1999/xlink" xml:space="preserve" onload="init(evt)">
<style type="text/css"><![CDATA[
.edge:hover path { stroke: red; }
.edge:hover polygon { stroke: red; fill: red; }
]]></style>
<script type="text/javascript"><![CDATA[
var edges = document.getElementsByTagName('g');
if (edges && edges.length) {
  for (var i=0;i<edges.length;i++) {
    if (edges[i].id.substr(0,4)=='edge') {
      edges[i].setAttribute('class','edge');
    }
  }
}
]]></script>
        <defs>
                <circle id="rim" cx="0" cy="0" r="7"/>
                <circle id="rim2" cx="0" cy="0" r="3.5"/>
                <g id="zoomPlus">
                        <use xlink:href="#rim" fill="#404040">
                                <set attributeName="fill" to="#808080" begin="zoomplus.mouseover" end="zoomplus.mouseout"/>
                        </use>
                        <path d="M-4,0h8M0,-4v8" fill="none" stroke="white" stroke-width="1.5" pointer-events="none"/>
                </g>
                <g id="zoomMin">
                        <use xlink:href="#rim" fill="#404040">
                                <set attributeName="fill" to="#808080" begin="zoomminus.mouseover" end="zoomminus.mouseout"/>
                        </use>
                        <path d="M-4,0h8" fill="none" stroke="white" stroke-width="1.5" pointer-events="none"/>
                </g>
                <g id="dirArrow">
                        <path fill="none" stroke="white" stroke-width="1.5" d="M0,-3.0v7 M-2.5,-0.5L0,-3.0L2.5,-0.5"/>
                </g>
               <g id="resetDef">
                       <use xlink:href="#rim2" fill="#404040">
                               <set attributeName="fill" to="#808080" begin="reset.mouseover" end="reset.mouseout"/>
                       </use>
               </g>
        </defs>

<script type="text/javascript">
var viewWidth = 1860;
var viewHeight = 532;
var sectionId = 'dynsection-0';
</script>
<script xlink:href="svgpan.js"/>
<svg id="graph" class="graph">
<g id="viewport">
<title>/home/runner/work/gauri/gauri/gauri/include/gauri/core/entry_point.h</title>
<polygon fill="white" stroke="transparent" points="-4,4 -4,-528 1855.54,-528 1855.54,4 -4,4"/>
<!-- Node1 -->
<g id="node1" class="node">
<title>Node1</title>
<g id="a_node1"><a xlink:title=" ">
<polygon fill="#bfbfbf" stroke="black" points="728.04,-504.5 728.04,-523.5 1078.04,-523.5 1078.04,-504.5 728.04,-504.5"/>
<text text-anchor="middle" x="903.04" y="-511.5" font-family="Helvetica,sans-Serif" font-size="10.00">/home/runner/work/gauri/gauri/gauri/include/gauri/core/entry_point.h</text>
</a>
</g>
</g>
<!-- Node2 -->
<g id="node2" class="node">
<title>Node2</title>
<g id="a_node2"><a xlink:href="gauri_8h.html" target="_top" xlink:title=" ">
<polygon fill="white" stroke="black" points="878.04,-448.5 878.04,-467.5 928.04,-467.5 928.04,-448.5 878.04,-448.5"/>
<text text-anchor="middle" x="903.04" y="-455.5" font-family="Helvetica,sans-Serif" font-size="10.00">gauri.h</text>
</a>
</g>
</g>
<!-- Node1&#45;&gt;Node2 -->
<g id="edge1" class="edge">
<title>Node1&#45;&gt;Node2</title>
<path fill="none" stroke="midnightblue" d="M903.04,-504.08C903.04,-497.01 903.04,-486.86 903.04,-477.99"/>
<polygon fill="midnightblue" stroke="midnightblue" points="906.54,-477.75 903.04,-467.75 899.54,-477.75 906.54,-477.75"/>
</g>
<!-- Node3 -->
<g id="node3" class="node">
<title>Node3</title>
<g id="a_node3"><a xlink:href="application_8h.html" target="_top" xlink:title=" ">
<polygon fill="white" stroke="black" points="378.54,-392.5 378.54,-411.5 509.54,-411.5 509.54,-392.5 378.54,-392.5"/>
<text text-anchor="middle" x="444.04" y="-399.5" font-family="Helvetica,sans-Serif" font-size="10.00">gauri/core/application.h</text>
</a>
</g>
</g>
<!-- Node2&#45;&gt;Node3 -->
<g id="edge2" class="edge">
<title>Node2&#45;&gt;Node3</title>
<path fill="none" stroke="midnightblue" d="M878.04,-454.06C810.99,-446.17 625.12,-424.3 519.65,-411.89"/>
<polygon fill="midnightblue" stroke="midnightblue" points="520.04,-408.42 509.7,-410.72 519.23,-415.37 520.04,-408.42"/>
</g>
<!-- Node8 -->
<g id="node8" class="node">
<title>Node8</title>
<g id="a_node8"><a xlink:href="logger_8h.html" target="_top" xlink:title=" ">
<polygon fill="white" stroke="black" points="674.54,-56.5 674.54,-75.5 781.54,-75.5 781.54,-56.5 674.54,-56.5"/>
<text text-anchor="middle" x="728.04" y="-63.5" font-family="Helvetica,sans-Serif" font-size="10.00">gauri/core/logger.h</text>
</a>
</g>
</g>
<!-- Node2&#45;&gt;Node8 -->
<g id="edge32" class="edge">
<title>Node2&#45;&gt;Node8</title>
<path fill="none" stroke="midnightblue" d="M877.7,-457.09C764,-457.23 300.6,-455.12 163.04,-412 117.37,-397.68 94.5,-397.73 71.04,-356 23.52,-271.43 -117.14,-362.38 210.04,-168 286.3,-122.7 543.49,-88.15 664.32,-74"/>
<polygon fill="midnightblue" stroke="midnightblue" points="665,-77.45 674.53,-72.82 664.2,-70.49 665,-77.45"/>
</g>
<!-- Node12 -->
<g id="node12" class="node">
<title>Node12</title>
<g id="a_node12"><a xlink:href="layer_8h.html" target="_top" xlink:title=" ">
<polygon fill="white" stroke="black" points="403.54,-280.5 403.54,-299.5 504.54,-299.5 504.54,-280.5 403.54,-280.5"/>
<text text-anchor="middle" x="454.04" y="-287.5" font-family="Helvetica,sans-Serif" font-size="10.00">gauri/core/layer.h</text>
</a>
</g>
</g>
<!-- Node2&#45;&gt;Node12 -->
<g id="edge31" class="edge">
<title>Node2&#45;&gt;Node12</title>
<path fill="none" stroke="midnightblue" d="M878.01,-456.64C783.73,-455.01 450.39,-446.86 351.04,-412 309.05,-397.27 288.93,-395.29 268.04,-356 263.87,-348.15 262.55,-342.99 268.04,-336 283.53,-316.32 345.3,-304.21 393.45,-297.58"/>
<polygon fill="midnightblue" stroke="midnightblue" points="394.05,-301.03 403.5,-296.25 393.13,-294.09 394.05,-301.03"/>
</g>
<!-- Node13 -->
<g id="node13" class="node">
<title>Node13</title>
<g id="a_node13"><a xlink:href="timestep_8h.html" target="_top" xlink:title=" ">
<polygon fill="white" stroke="black" points="600.54,-224.5 600.54,-243.5 721.54,-243.5 721.54,-224.5 600.54,-224.5"/>
<text text-anchor="middle" x="661.04" y="-231.5" font-family="Helvetica,sans-Serif" font-size="10.00">gauri/core/timestep.h</text>
</a>
</g>
</g>
<!-- Node2&#45;&gt;Node13 -->
<g id="edge33" class="edge">
<title>Node2&#45;&gt;Node13</title>
<path fill="none" stroke="midnightblue" d="M878.04,-455.62C802.14,-451.19 578.26,-436.15 557.04,-412 518.51,-368.13 584.56,-408.54 640.04,-356 666.18,-331.25 670.82,-315.89 668.04,-280 667.37,-271.22 665.95,-261.56 664.57,-253.45"/>
<polygon fill="midnightblue" stroke="midnightblue" points="668.01,-252.8 662.78,-243.58 661.12,-254.04 668.01,-252.8"/>
</g>
<!-- Node20 -->
<g id="node20" class="node">
<title>Node20</title>
<g id="a_node20"><a xlink:href="imgui__layer_8h.html" target="_top" xlink:title=" ">
<polygon fill="white" stroke="black" points="276.54,-336.5 276.54,-355.5 417.54,-355.5 417.54,-336.5 276.54,-336.5"/>
<text text-anchor="middle" x="347.04" y="-343.5" font-family="Helvetica,sans-Serif" font-size="10.00">gauri/imgui/imgui_layer.h</text>
</a>
</g>
</g>
<!-- Node2&#45;&gt;Node20 -->
<g id="edge38" class="edge">
<title>Node2&#45;&gt;Node20</title>
<path fill="none" stroke="midnightblue" d="M877.82,-456.46C777.54,-454.09 410.61,-443.32 370.04,-412 356,-401.16 350.51,-381.08 348.37,-366.1"/>
<polygon fill="midnightblue" stroke="midnightblue" points="351.83,-365.45 347.31,-355.87 344.86,-366.18 351.83,-365.45"/>
</g>
<!-- Node21 -->
<g id="node21" class="node">
<title>Node21</title>
<g id="a_node21"><a xlink:href="input_8h.html" target="_top" xlink:title=" ">
<polygon fill="white" stroke="black" points="80.04,-336.5 80.04,-355.5 182.04,-355.5 182.04,-336.5 80.04,-336.5"/>
<text text-anchor="middle" x="131.04" y="-343.5" font-family="Helvetica,sans-Serif" font-size="10.00">gauri/core/input.h</text>
</a>
</g>
</g>
<!-- Node2&#45;&gt;Node21 -->
<g id="edge34" class="edge">
<title>Node2&#45;&gt;Node21</title>
<path fill="none" stroke="midnightblue" d="M878.02,-456.45C759.67,-453.72 259.23,-440.56 196.04,-412 173.19,-401.67 153.9,-379.53 142.41,-363.97"/>
<polygon fill="midnightblue" stroke="midnightblue" points="145.21,-361.86 136.58,-355.71 139.49,-365.89 145.21,-361.86"/>
</g>
<!-- Node22 -->
<g id="node22" class="node">
<title>Node22</title>
<g id="a_node22"><a xlink:href="key__codes_8h.html" target="_top" xlink:title=" ">
<polygon fill="white" stroke="black" points="1524.04,-392.5 1524.04,-411.5 1652.04,-411.5 1652.04,-392.5 1524.04,-392.5"/>
<text text-anchor="middle" x="1588.04" y="-399.5" font-family="Helvetica,sans-Serif" font-size="10.00">gauri/core/key_codes.h</text>
</a>
</g>
</g>
<!-- Node2&#45;&gt;Node22 -->
<g id="edge36" class="edge">
<title>Node2&#45;&gt;Node22</title>
<path fill="none" stroke="midnightblue" d="M928.23,-455.5C1011.37,-450.48 1284.65,-433.35 1510.04,-412 1511.16,-411.89 1512.29,-411.79 1513.43,-411.67"/>
<polygon fill="midnightblue" stroke="midnightblue" points="1514.2,-415.11 1523.79,-410.62 1513.49,-408.15 1514.2,-415.11"/>
</g>
<!-- Node23 -->
<g id="node23" class="node">
<title>Node23</title>
<g id="a_node23"><a xlink:href="mouse__button__codes_8h.html" target="_top" xlink:title=" ">
<polygon fill="white" stroke="black" points="1670.54,-392.5 1670.54,-411.5 1851.54,-411.5 1851.54,-392.5 1670.54,-392.5"/>
<text text-anchor="middle" x="1761.04" y="-399.5" font-family="Helvetica,sans-Serif" font-size="10.00">gauri/core/mouse_button_codes.h</text>
</a>
</g>
</g>
<!-- Node2&#45;&gt;Node23 -->
<g id="edge37" class="edge">
<title>Node2&#45;&gt;Node23</title>
<path fill="none" stroke="midnightblue" d="M928.25,-455.78C1022.82,-451.16 1365.65,-433.87 1660.28,-412.03"/>
<polygon fill="midnightblue" stroke="midnightblue" points="1660.59,-415.52 1670.3,-411.29 1660.07,-408.54 1660.59,-415.52"/>
</g>
<!-- Node24 -->
<g id="node24" class="node">
<title>Node24</title>
<g id="a_node24"><a xlink:href="render__command_8h.html" target="_top" xlink:title=" ">
<polygon fill="white" stroke="black" points="1246.54,-336.5 1246.54,-355.5 1429.54,-355.5 1429.54,-336.5 1246.54,-336.5"/>
<text text-anchor="middle" x="1338.04" y="-343.5" font-family="Helvetica,sans-Serif" font-size="10.00">gauri/renderer/render_command.h</text>
</a>
</g>
</g>
<!-- Node2&#45;&gt;Node24 -->
<g id="edge39" class="edge">
<title>Node2&#45;&gt;Node24</title>
<path fill="none" stroke="midnightblue" d="M928.12,-457.39C1006.93,-458.12 1247.98,-456.6 1309.04,-412 1323.84,-401.2 1331.22,-381.12 1334.82,-366.12"/>
<polygon fill="midnightblue" stroke="midnightblue" points="1338.34,-366.38 1336.89,-355.88 1331.48,-364.99 1338.34,-366.38"/>
</g>
<!-- Node25 -->
<g id="node25" class="node">
<title>Node25</title>
<g id="a_node25"><a xlink:href="renderer__api_8h.html" target="_top" xlink:title=" ">
<polygon fill="white" stroke="black" points="1144.54,-280.5 1144.54,-299.5 1303.54,-299.5 1303.54,-280.5 1144.54,-280.5"/>
<text text-anchor="middle" x="1224.04" y="-287.5" font-family="Helvetica,sans-Serif" font-size="10.00">gauri/renderer/renderer_api.h</text>
</a>
</g>
</g>
<!-- Node2&#45;&gt;Node25 -->
<g id="edge70" class="edge">
<title>Node2&#45;&gt;Node25</title>
<path fill="none" stroke="midnightblue" d="M928.31,-456.85C1027.12,-455.62 1384.71,-445.01 1439.04,-356 1443.68,-348.41 1444.65,-342.9 1439.04,-336 1423.04,-316.3 1365.54,-304.92 1314.03,-298.53"/>
<polygon fill="midnightblue" stroke="midnightblue" points="1314.16,-295.02 1303.82,-297.32 1313.34,-301.98 1314.16,-295.02"/>
</g>
<!-- Node27 -->
<g id="node27" class="node">
<title>Node27</title>
<g id="a_node27"><a xlink:href="vertex__array_8h.html" target="_top" xlink:title=" ">
<polygon fill="white" stroke="black" points="1158.04,-224.5 1158.04,-243.5 1316.04,-243.5 1316.04,-224.5 1158.04,-224.5"/>
<text text-anchor="middle" x="1237.04" y="-231.5" font-family="Helvetica,sans-Serif" font-size="10.00">gauri/renderer/vertex_array.h</text>
</a>
</g>
</g>
<!-- Node2&#45;&gt;Node27 -->
<g id="edge64" class="edge">
<title>Node2&#45;&gt;Node27</title>
<path fill="none" stroke="midnightblue" d="M928.15,-456.41C1014.03,-454.11 1295.39,-444.24 1379.04,-412 1417.86,-397.04 1435.4,-393.19 1454.04,-356 1486.33,-291.6 1384.14,-259.73 1309.19,-245.36"/>
<polygon fill="midnightblue" stroke="midnightblue" points="1309.75,-241.9 1299.28,-243.52 1308.48,-248.78 1309.75,-241.9"/>
</g>
<!-- Node28 -->
<g id="node28" class="node">
<title>Node28</title>
<g id="a_node28"><a xlink:href="buffer_8h.html" target="_top" xlink:title=" ">
<polygon fill="white" stroke="black" points="976.54,-168.5 976.54,-187.5 1101.54,-187.5 1101.54,-168.5 976.54,-168.5"/>
<text text-anchor="middle" x="1039.04" y="-175.5" font-family="Helvetica,sans-Serif" font-size="10.00">gauri/renderer/buffer.h</text>
</a>
</g>
</g>
<!-- Node2&#45;&gt;Node28 -->
<g id="edge59" class="edge">
<title>Node2&#45;&gt;Node28</title>
<path fill="none" stroke="midnightblue" d="M900.45,-448.27C892.98,-421.39 873.77,-338.2 903.04,-280 924.87,-236.6 975.16,-207.15 1008.09,-191.73"/>
<polygon fill="midnightblue" stroke="midnightblue" points="1009.62,-194.88 1017.29,-187.57 1006.73,-188.5 1009.62,-194.88"/>
</g>
<!-- Node29 -->
<g id="node29" class="node">
<title>Node29</title>
<g id="a_node29"><a xlink:href="renderer_8h.html" target="_top" xlink:title=" ">
<polygon fill="white" stroke="black" points="1162.04,-392.5 1162.04,-411.5 1300.04,-411.5 1300.04,-392.5 1162.04,-392.5"/>
<text text-anchor="middle" x="1231.04" y="-399.5" font-family="Helvetica,sans-Serif" font-size="10.00">gauri/renderer/renderer.h</text>
</a>
</g>
</g>
<!-- Node2&#45;&gt;Node29 -->
<g id="edge48" class="edge">
<title>Node2&#45;&gt;Node29</title>
<path fill="none" stroke="midnightblue" d="M928.24,-452.85C979.39,-444.43 1096.7,-425.12 1169.37,-413.15"/>
<polygon fill="midnightblue" stroke="midnightblue" points="1170.02,-416.59 1179.32,-411.52 1168.88,-409.69 1170.02,-416.59"/>
</g>
<!-- Node30 -->
<g id="node30" class="node">
<title>Node30</title>
<g id="a_node30"><a xlink:href="orthographic__camera_8h.html" target="_top" xlink:title=" ">
<polygon fill="white" stroke="black" points="950.54,-336.5 950.54,-355.5 1151.54,-355.5 1151.54,-336.5 950.54,-336.5"/>
<text text-anchor="middle" x="1051.04" y="-343.5" font-family="Helvetica,sans-Serif" font-size="10.00">gauri/renderer/orthographic_camera.h</text>
</a>
</g>
</g>
<!-- Node2&#45;&gt;Node30 -->
<g id="edge65" class="edge">
<title>Node2&#45;&gt;Node30</title>
<path fill="none" stroke="midnightblue" d="M912.5,-448.1C926.51,-435.11 953.85,-410.49 979.04,-392 994.55,-380.63 1012.94,-369.16 1027.26,-360.65"/>
<polygon fill="midnightblue" stroke="midnightblue" points="1029.15,-363.59 1036.01,-355.51 1025.61,-357.56 1029.15,-363.59"/>
</g>
<!-- Node31 -->
<g id="node31" class="node">
<title>Node31</title>
<g id="a_node31"><a xlink:href="shader_8h.html" target="_top" xlink:title=" ">
<polygon fill="white" stroke="black" points="912.04,-280.5 912.04,-299.5 1042.04,-299.5 1042.04,-280.5 912.04,-280.5"/>
<text text-anchor="middle" x="977.04" y="-287.5" font-family="Helvetica,sans-Serif" font-size="10.00">gauri/renderer/shader.h</text>
</a>
</g>
</g>
<!-- Node2&#45;&gt;Node31 -->
<g id="edge60" class="edge">
<title>Node2&#45;&gt;Node31</title>
<path fill="none" stroke="midnightblue" d="M904.74,-448.38C908.97,-427.96 921.2,-375.41 942.04,-336 947.47,-325.74 955.27,-315.44 962.13,-307.28"/>
<polygon fill="midnightblue" stroke="midnightblue" points="964.85,-309.49 968.8,-299.66 959.58,-304.88 964.85,-309.49"/>
</g>
<!-- Node32 -->
<g id="node32" class="node">
<title>Node32</title>
<g id="a_node32"><a xlink:href="renderer__2d_8h.html" target="_top" xlink:title=" ">
<polygon fill="white" stroke="black" points="988.04,-392.5 988.04,-411.5 1144.04,-411.5 1144.04,-392.5 988.04,-392.5"/>
<text text-anchor="middle" x="1066.04" y="-399.5" font-family="Helvetica,sans-Serif" font-size="10.00">gauri/renderer/renderer_2d.h</text>
</a>
</g>
</g>
<!-- Node2&#45;&gt;Node32 -->
<g id="edge57" class="edge">
<title>Node2&#45;&gt;Node32</title>
<path fill="none" stroke="midnightblue" d="M928.16,-448.68C955.63,-439.58 999.89,-424.92 1030.83,-414.67"/>
<polygon fill="midnightblue" stroke="midnightblue" points="1031.97,-417.97 1040.37,-411.51 1029.77,-411.33 1031.97,-417.97"/>
</g>
<!-- Node33 -->
<g id="node33" class="node">
<title>Node33</title>
<g id="a_node33"><a xlink:href="texture_8h.html" target="_top" xlink:title=" ">
<polygon fill="white" stroke="black" points="739.54,-224.5 739.54,-243.5 872.54,-243.5 872.54,-224.5 739.54,-224.5"/>
<text text-anchor="middle" x="806.04" y="-231.5" font-family="Helvetica,sans-Serif" font-size="10.00">gauri/renderer/texture.h</text>
</a>
</g>
</g>
<!-- Node2&#45;&gt;Node33 -->
<g id="edge61" class="edge">
<title>Node2&#45;&gt;Node33</title>
<path fill="none" stroke="midnightblue" d="M895.41,-448.2C888.13,-439.48 877.25,-425.51 870.04,-412 840.9,-357.34 819.82,-286.57 810.85,-253.53"/>
<polygon fill="midnightblue" stroke="midnightblue" points="814.23,-252.61 808.28,-243.85 807.46,-254.41 814.23,-252.61"/>
</g>
<!-- Node34 -->
<g id="node34" class="node">
<title>Node34</title>
<g id="a_node34"><a xlink:href="orthographic__camera__controller_8h.html" target="_top" xlink:title=" ">
<polygon fill="white" stroke="black" points="566.04,-392.5 566.04,-411.5 818.04,-411.5 818.04,-392.5 566.04,-392.5"/>
<text text-anchor="middle" x="692.04" y="-399.5" font-family="Helvetica,sans-Serif" font-size="10.00">gauri/renderer/orthographic_camera_controller.h</text>
</a>
</g>
</g>
<!-- Node2&#45;&gt;Node34 -->
<g id="edge66" class="edge">
<title>Node2&#45;&gt;Node34</title>
<path fill="none" stroke="midnightblue" d="M878.01,-450.59C842.84,-441.59 778.3,-425.07 735.28,-414.06"/>
<polygon fill="midnightblue" stroke="midnightblue" points="735.92,-410.62 725.37,-411.53 734.19,-417.4 735.92,-410.62"/>
</g>
<!-- Node4 -->
<g id="node4" class="node">
<title>Node4</title>
<g id="a_node4"><a xlink:href="layer__stack_8h.html" target="_top" xlink:title=" ">
<polygon fill="white" stroke="black" points="474.04,-336.5 474.04,-355.5 608.04,-355.5 608.04,-336.5 474.04,-336.5"/>
<text text-anchor="middle" x="541.04" y="-343.5" font-family="Helvetica,sans-Serif" font-size="10.00">gauri/core/layer_stack.h</text>
</a>
</g>
</g>
<!-- Node3&#45;&gt;Node4 -->
<g id="edge3" class="edge">
<title>Node3&#45;&gt;Node4</title>
<path fill="none" stroke="midnightblue" d="M459.63,-392.32C475.04,-383.74 498.86,-370.49 516.75,-360.52"/>
<polygon fill="midnightblue" stroke="midnightblue" points="518.46,-363.58 525.5,-355.65 515.06,-357.46 518.46,-363.58"/>
</g>
<!-- Node3&#45;&gt;Node13 -->
<g id="edge22" class="edge">
<title>Node3&#45;&gt;Node13</title>
<path fill="none" stroke="midnightblue" d="M493.77,-392.44C537.71,-384.1 597.72,-370.58 617.04,-356 649.36,-331.61 657.98,-281.17 660.25,-253.74"/>
<polygon fill="midnightblue" stroke="midnightblue" points="663.76,-253.74 660.89,-243.54 656.77,-253.3 663.76,-253.74"/>
</g>
<!-- Node14 -->
<g id="node14" class="node">
<title>Node14</title>
<g id="a_node14"><a xlink:href="event_8h.html" target="_top" xlink:title=" ">
<polygon fill="white" stroke="black" points="333.04,-224.5 333.04,-243.5 445.04,-243.5 445.04,-224.5 333.04,-224.5"/>
<text text-anchor="middle" x="389.04" y="-231.5" font-family="Helvetica,sans-Serif" font-size="10.00">gauri/event/event.h</text>
</a>
</g>
</g>
<!-- Node3&#45;&gt;Node14 -->
<g id="edge28" class="edge">
<title>Node3&#45;&gt;Node14</title>
<path fill="none" stroke="midnightblue" d="M443.06,-392.11C441.33,-379.13 436.95,-354.51 427.04,-336 416.95,-317.12 403.57,-319.64 395.04,-300 388.77,-285.53 387.54,-267.57 387.73,-254.2"/>
<polygon fill="midnightblue" stroke="midnightblue" points="391.24,-253.98 388.17,-243.84 384.25,-253.68 391.24,-253.98"/>
</g>
<!-- Node19 -->
<g id="node19" class="node">
<title>Node19</title>
<g id="a_node19"><a xlink:href="window_8h.html" target="_top" xlink:title=" ">
<polygon fill="white" stroke="black" points="233.04,-280.5 233.04,-299.5 347.04,-299.5 347.04,-280.5 233.04,-280.5"/>
<text text-anchor="middle" x="290.04" y="-287.5" font-family="Helvetica,sans-Serif" font-size="10.00">gauri/core/window.h</text>
</a>
</g>
</g>
<!-- Node3&#45;&gt;Node19 -->
<g id="edge23" class="edge">
<title>Node3&#45;&gt;Node19</title>
<path fill="none" stroke="midnightblue" d="M378.13,-392.62C334.06,-385.51 281.73,-373.62 268.04,-356 257.14,-341.95 266.43,-322.18 276.08,-308.14"/>
<polygon fill="midnightblue" stroke="midnightblue" points="279.08,-309.97 282.26,-299.86 273.47,-305.78 279.08,-309.97"/>
</g>
<!-- Node3&#45;&gt;Node20 -->
<g id="edge29" class="edge">
<title>Node3&#45;&gt;Node20</title>
<path fill="none" stroke="midnightblue" d="M428.46,-392.32C413.05,-383.74 389.23,-370.49 371.34,-360.52"/>
<polygon fill="midnightblue" stroke="midnightblue" points="373.03,-357.46 362.59,-355.65 369.63,-363.58 373.03,-357.46"/>
</g>
<!-- Node5 -->
<g id="node5" class="node">
<title>Node5</title>
<g id="a_node5"><a xlink:href="core_8h.html" target="_top" xlink:title=" ">
<polygon fill="white" stroke="black" points="619.04,-112.5 619.04,-131.5 717.04,-131.5 717.04,-112.5 619.04,-112.5"/>
<text text-anchor="middle" x="668.04" y="-119.5" font-family="Helvetica,sans-Serif" font-size="10.00">gauri/core/core.h</text>
</a>
</g>
</g>
<!-- Node4&#45;&gt;Node5 -->
<g id="edge4" class="edge">
<title>Node4&#45;&gt;Node5</title>
<path fill="none" stroke="midnightblue" d="M550.83,-336.39C559.68,-328.01 572.32,-314.46 579.04,-300 593.5,-268.93 580.26,-256.18 592.04,-224 601.98,-196.87 607.62,-191.04 625.04,-168 632.85,-157.68 642.76,-147.17 651.1,-138.91"/>
<polygon fill="midnightblue" stroke="midnightblue" points="653.74,-141.22 658.49,-131.75 648.87,-136.19 653.74,-141.22"/>
</g>
<!-- Node4&#45;&gt;Node12 -->
<g id="edge12" class="edge">
<title>Node4&#45;&gt;Node12</title>
<path fill="none" stroke="midnightblue" d="M527.07,-336.32C513.5,-327.9 492.66,-314.97 476.72,-305.07"/>
<polygon fill="midnightblue" stroke="midnightblue" points="478.33,-301.95 467.99,-299.65 474.64,-307.9 478.33,-301.95"/>
</g>
<!-- Node18 -->
<g id="node18" class="node">
<title>Node18</title>
<g id="a_node18"><a xlink:title=" ">
<polygon fill="white" stroke="#bfbfbf" points="522.54,-280.5 522.54,-299.5 569.54,-299.5 569.54,-280.5 522.54,-280.5"/>
<text text-anchor="middle" x="546.04" y="-287.5" font-family="Helvetica,sans-Serif" font-size="10.00">vector</text>
</a>
</g>
</g>
<!-- Node4&#45;&gt;Node18 -->
<g id="edge21" class="edge">
<title>Node4&#45;&gt;Node18</title>
<path fill="none" stroke="midnightblue" d="M541.87,-336.08C542.53,-329.01 543.47,-318.86 544.29,-309.99"/>
<polygon fill="midnightblue" stroke="midnightblue" points="547.8,-310.03 545.23,-299.75 540.83,-309.39 547.8,-310.03"/>
</g>
<!-- Node6 -->
<g id="node6" class="node">
<title>Node6</title>
<g id="a_node6"><a xlink:title=" ">
<polygon fill="white" stroke="#bfbfbf" points="306.04,-56.5 306.04,-75.5 356.04,-75.5 356.04,-56.5 306.04,-56.5"/>
<text text-anchor="middle" x="331.04" y="-63.5" font-family="Helvetica,sans-Serif" font-size="10.00">cstdint</text>
</a>
</g>
</g>
<!-- Node5&#45;&gt;Node6 -->
<g id="edge5" class="edge">
<title>Node5&#45;&gt;Node6</title>
<path fill="none" stroke="midnightblue" d="M619.04,-113.15C550.33,-102.14 427,-82.38 366.49,-72.68"/>
<polygon fill="midnightblue" stroke="midnightblue" points="366.72,-69.17 356.29,-71.05 365.61,-76.08 366.72,-69.17"/>
</g>
<!-- Node7 -->
<g id="node7" class="node">
<title>Node7</title>
<g id="a_node7"><a xlink:title=" ">
<polygon fill="white" stroke="#bfbfbf" points="984.04,-0.5 984.04,-19.5 1042.04,-19.5 1042.04,-0.5 984.04,-0.5"/>
<text text-anchor="middle" x="1013.04" y="-7.5" font-family="Helvetica,sans-Serif" font-size="10.00">memory</text>
</a>
</g>
</g>
<!-- Node5&#45;&gt;Node7 -->
<g id="edge6" class="edge">
<title>Node5&#45;&gt;Node7</title>
<path fill="none" stroke="midnightblue" d="M694.83,-112.46C756.09,-92.93 906.53,-44.96 976.34,-22.7"/>
<polygon fill="midnightblue" stroke="midnightblue" points="977.58,-25.98 986.04,-19.61 975.45,-19.31 977.58,-25.98"/>
</g>
<!-- Node5&#45;&gt;Node8 -->
<g id="edge7" class="edge">
<title>Node5&#45;&gt;Node8</title>
<path fill="none" stroke="midnightblue" d="M677.68,-112.32C686.55,-104.34 699.92,-92.31 710.65,-82.65"/>
<polygon fill="midnightblue" stroke="midnightblue" points="713.14,-85.13 718.23,-75.83 708.46,-79.92 713.14,-85.13"/>
</g>
<!-- Node8&#45;&gt;Node7 -->
<g id="edge9" class="edge">
<title>Node8&#45;&gt;Node7</title>
<path fill="none" stroke="midnightblue" d="M773.2,-56.44C828.53,-45.96 921.36,-28.37 973.83,-18.43"/>
<polygon fill="midnightblue" stroke="midnightblue" points="974.59,-21.85 983.76,-16.55 973.28,-14.97 974.59,-21.85"/>
</g>
<!-- Node9 -->
<g id="node9" class="node">
<title>Node9</title>
<g id="a_node9"><a xlink:title=" ">
<polygon fill="white" stroke="#bfbfbf" points="793.04,-0.5 793.04,-19.5 843.04,-19.5 843.04,-0.5 793.04,-0.5"/>
<text text-anchor="middle" x="818.04" y="-7.5" font-family="Helvetica,sans-Serif" font-size="10.00">format</text>
</a>
</g>
</g>
<!-- Node8&#45;&gt;Node9 -->
<g id="edge8" class="edge">
<title>Node8&#45;&gt;Node9</title>
<path fill="none" stroke="midnightblue" d="M742.5,-56.32C756.54,-47.9 778.09,-34.97 794.59,-25.07"/>
<polygon fill="midnightblue" stroke="midnightblue" points="796.85,-27.8 803.62,-19.65 793.25,-21.8 796.85,-27.8"/>
</g>
<!-- Node10 -->
<g id="node10" class="node">
<title>Node10</title>
<g id="a_node10"><a xlink:title=" ">
<polygon fill="white" stroke="#bfbfbf" points="564.54,-0.5 564.54,-19.5 663.54,-19.5 663.54,-0.5 564.54,-0.5"/>
<text text-anchor="middle" x="614.04" y="-7.5" font-family="Helvetica,sans-Serif" font-size="10.00">spdlog/fmt/ostr.h</text>
</a>
</g>
</g>
<!-- Node8&#45;&gt;Node10 -->
<g id="edge10" class="edge">
<title>Node8&#45;&gt;Node10</title>
<path fill="none" stroke="midnightblue" d="M709.98,-56.44C691.47,-47.68 662.46,-33.94 641.19,-23.86"/>
<polygon fill="midnightblue" stroke="midnightblue" points="642.56,-20.63 632.02,-19.52 639.56,-26.96 642.56,-20.63"/>
</g>
<!-- Node11 -->
<g id="node11" class="node">
<title>Node11</title>
<g id="a_node11"><a xlink:title=" ">
<polygon fill="white" stroke="#bfbfbf" points="681.54,-0.5 681.54,-19.5 774.54,-19.5 774.54,-0.5 681.54,-0.5"/>
<text text-anchor="middle" x="728.04" y="-7.5" font-family="Helvetica,sans-Serif" font-size="10.00">spdlog/spdlog.h</text>
</a>
</g>
</g>
<!-- Node8&#45;&gt;Node11 -->
<g id="edge11" class="edge">
<title>Node8&#45;&gt;Node11</title>
<path fill="none" stroke="midnightblue" d="M728.04,-56.08C728.04,-49.01 728.04,-38.86 728.04,-29.99"/>
<polygon fill="midnightblue" stroke="midnightblue" points="731.54,-29.75 728.04,-19.75 724.54,-29.75 731.54,-29.75"/>
</g>
<!-- Node12&#45;&gt;Node5 -->
<g id="edge13" class="edge">
<title>Node12&#45;&gt;Node5</title>
<path fill="none" stroke="midnightblue" d="M459.3,-280.46C473,-258.82 511.98,-201.2 558.04,-168 578.66,-153.14 604.89,-142.17 626.57,-134.78"/>
<polygon fill="midnightblue" stroke="midnightblue" points="627.76,-138.07 636.17,-131.63 625.58,-131.42 627.76,-138.07"/>
</g>
<!-- Node12&#45;&gt;Node13 -->
<g id="edge14" class="edge">
<title>Node12&#45;&gt;Node13</title>
<path fill="none" stroke="midnightblue" d="M486.84,-280.44C522.43,-271.16 579.36,-256.31 618.39,-246.13"/>
<polygon fill="midnightblue" stroke="midnightblue" points="619.61,-249.43 628.4,-243.52 617.84,-242.65 619.61,-249.43"/>
</g>
<!-- Node12&#45;&gt;Node14 -->
<g id="edge15" class="edge">
<title>Node12&#45;&gt;Node14</title>
<path fill="none" stroke="midnightblue" d="M443.6,-280.32C433.9,-272.26 419.23,-260.08 407.55,-250.37"/>
<polygon fill="midnightblue" stroke="midnightblue" points="409.61,-247.53 399.68,-243.83 405.13,-252.92 409.61,-247.53"/>
</g>
<!-- Node14&#45;&gt;Node5 -->
<g id="edge20" class="edge">
<title>Node14&#45;&gt;Node5</title>
<path fill="none" stroke="midnightblue" d="M397.25,-224.36C411.1,-210.31 440.58,-182.62 471.04,-168 514.64,-147.08 568.39,-135.64 608.73,-129.54"/>
<polygon fill="midnightblue" stroke="midnightblue" points="609.28,-133 618.68,-128.1 608.28,-126.07 609.28,-133"/>
</g>
<!-- Node14&#45;&gt;Node6 -->
<g id="edge16" class="edge">
<title>Node14&#45;&gt;Node6</title>
<path fill="none" stroke="midnightblue" d="M379.53,-224.33C370.92,-215.91 358.62,-202.34 352.04,-188 336.55,-154.2 332.42,-110.31 331.36,-85.75"/>
<polygon fill="midnightblue" stroke="midnightblue" points="334.86,-85.54 331.06,-75.65 327.86,-85.76 334.86,-85.54"/>
</g>
<!-- Node15 -->
<g id="node15" class="node">
<title>Node15</title>
<g id="a_node15"><a xlink:title=" ">
<polygon fill="white" stroke="#bfbfbf" points="237.54,-168.5 237.54,-187.5 302.54,-187.5 302.54,-168.5 237.54,-168.5"/>
<text text-anchor="middle" x="270.04" y="-175.5" font-family="Helvetica,sans-Serif" font-size="10.00">functional</text>
</a>
</g>
</g>
<!-- Node14&#45;&gt;Node15 -->
<g id="edge17" class="edge">
<title>Node14&#45;&gt;Node15</title>
<path fill="none" stroke="midnightblue" d="M370.19,-224.44C350.78,-215.64 320.31,-201.81 298.08,-191.72"/>
<polygon fill="midnightblue" stroke="midnightblue" points="299.37,-188.46 288.81,-187.52 296.47,-194.84 299.37,-188.46"/>
</g>
<!-- Node16 -->
<g id="node16" class="node">
<title>Node16</title>
<g id="a_node16"><a xlink:title=" ">
<polygon fill="white" stroke="#bfbfbf" points="361.04,-168.5 361.04,-187.5 417.04,-187.5 417.04,-168.5 361.04,-168.5"/>
<text text-anchor="middle" x="389.04" y="-175.5" font-family="Helvetica,sans-Serif" font-size="10.00">sstream</text>
</a>
</g>
</g>
<!-- Node14&#45;&gt;Node16 -->
<g id="edge18" class="edge">
<title>Node14&#45;&gt;Node16</title>
<path fill="none" stroke="midnightblue" d="M389.04,-224.08C389.04,-217.01 389.04,-206.86 389.04,-197.99"/>
<polygon fill="midnightblue" stroke="midnightblue" points="392.54,-197.75 389.04,-187.75 385.54,-197.75 392.54,-197.75"/>
</g>
<!-- Node17 -->
<g id="node17" class="node">
<title>Node17</title>
<g id="a_node17"><a xlink:title=" ">
<polygon fill="white" stroke="#bfbfbf" points="634.04,-168.5 634.04,-187.5 678.04,-187.5 678.04,-168.5 634.04,-168.5"/>
<text text-anchor="middle" x="656.04" y="-175.5" font-family="Helvetica,sans-Serif" font-size="10.00">string</text>
</a>
</g>
</g>
<!-- Node14&#45;&gt;Node17 -->
<g id="edge19" class="edge">
<title>Node14&#45;&gt;Node17</title>
<path fill="none" stroke="midnightblue" d="M431.35,-224.44C484.92,-213.61 576,-195.19 624.1,-185.46"/>
<polygon fill="midnightblue" stroke="midnightblue" points="624.85,-188.88 633.96,-183.47 623.47,-182.02 624.85,-188.88"/>
</g>
<!-- Node19&#45;&gt;Node6 -->
<g id="edge24" class="edge">
<title>Node19&#45;&gt;Node6</title>
<path fill="none" stroke="midnightblue" d="M279.96,-280.4C258.35,-260.85 210.93,-211.42 229.04,-168 245.02,-129.69 283.38,-98.48 308.24,-81.35"/>
<polygon fill="midnightblue" stroke="midnightblue" points="310.35,-84.15 316.72,-75.68 306.46,-78.33 310.35,-84.15"/>
</g>
<!-- Node19&#45;&gt;Node14 -->
<g id="edge27" class="edge">
<title>Node19&#45;&gt;Node14</title>
<path fill="none" stroke="midnightblue" d="M305.95,-280.32C321.68,-271.74 345.99,-258.49 364.25,-248.52"/>
<polygon fill="midnightblue" stroke="midnightblue" points="366.08,-251.52 373.18,-243.65 362.72,-245.37 366.08,-251.52"/>
</g>
<!-- Node19&#45;&gt;Node15 -->
<g id="edge25" class="edge">
<title>Node19&#45;&gt;Node15</title>
<path fill="none" stroke="midnightblue" d="M288.48,-280.37C285.25,-262.62 277.8,-221.67 273.43,-197.6"/>
<polygon fill="midnightblue" stroke="midnightblue" points="276.84,-196.8 271.61,-187.59 269.95,-198.06 276.84,-196.8"/>
</g>
<!-- Node19&#45;&gt;Node17 -->
<g id="edge26" class="edge">
<title>Node19&#45;&gt;Node17</title>
<path fill="none" stroke="midnightblue" d="M322.84,-280.45C356.03,-271.69 408.77,-257.49 454.04,-244 514.62,-225.95 584.73,-202.9 624.39,-189.66"/>
<polygon fill="midnightblue" stroke="midnightblue" points="625.65,-192.93 634.02,-186.43 623.43,-186.29 625.65,-192.93"/>
</g>
<!-- Node20&#45;&gt;Node12 -->
<g id="edge30" class="edge">
<title>Node20&#45;&gt;Node12</title>
<path fill="none" stroke="midnightblue" d="M364.24,-336.32C381.4,-327.66 407.99,-314.24 427.79,-304.25"/>
<polygon fill="midnightblue" stroke="midnightblue" points="429.55,-307.28 436.9,-299.65 426.39,-301.04 429.55,-307.28"/>
</g>
<!-- Node21&#45;&gt;Node5 -->
<g id="edge35" class="edge">
<title>Node21&#45;&gt;Node5</title>
<path fill="none" stroke="midnightblue" d="M135.36,-336.12C152.14,-301.71 212.92,-178.65 229.04,-168 260.04,-147.53 496.04,-132.25 608.63,-126.04"/>
<polygon fill="midnightblue" stroke="midnightblue" points="609.01,-129.53 618.8,-125.49 608.63,-122.54 609.01,-129.53"/>
</g>
<!-- Node24&#45;&gt;Node25 -->
<g id="edge40" class="edge">
<title>Node24&#45;&gt;Node25</title>
<path fill="none" stroke="midnightblue" d="M1319.98,-336.44C1301.47,-327.68 1272.46,-313.94 1251.19,-303.86"/>
<polygon fill="midnightblue" stroke="midnightblue" points="1252.56,-300.63 1242.02,-299.52 1249.56,-306.96 1252.56,-300.63"/>
</g>
<!-- Node25&#45;&gt;Node7 -->
<g id="edge42" class="edge">
<title>Node25&#45;&gt;Node7</title>
<path fill="none" stroke="midnightblue" d="M1200.86,-280.48C1184.16,-273.22 1162.31,-261.19 1149.04,-244 1130.65,-220.17 1130.04,-209.1 1130.04,-179 1130.04,-179 1130.04,-179 1130.04,-121 1130.04,-73.6 1078.44,-40.64 1043.78,-23.85"/>
<polygon fill="midnightblue" stroke="midnightblue" points="1045.05,-20.58 1034.5,-19.54 1042.1,-26.93 1045.05,-20.58"/>
</g>
<!-- Node26 -->
<g id="node26" class="node">
<title>Node26</title>
<g id="a_node26"><a xlink:title=" ">
<polygon fill="white" stroke="#bfbfbf" points="1024.04,-224.5 1024.04,-243.5 1102.04,-243.5 1102.04,-224.5 1024.04,-224.5"/>
<text text-anchor="middle" x="1063.04" y="-231.5" font-family="Helvetica,sans-Serif" font-size="10.00">glm/glm.hpp</text>
</a>
</g>
</g>
<!-- Node25&#45;&gt;Node26 -->
<g id="edge41" class="edge">
<title>Node25&#45;&gt;Node26</title>
<path fill="none" stroke="midnightblue" d="M1198.53,-280.44C1171.45,-271.36 1128.45,-256.94 1098.18,-246.78"/>
<polygon fill="midnightblue" stroke="midnightblue" points="1099.03,-243.38 1088.44,-243.52 1096.8,-250.01 1099.03,-243.38"/>
</g>
<!-- Node25&#45;&gt;Node27 -->
<g id="edge43" class="edge">
<title>Node25&#45;&gt;Node27</title>
<path fill="none" stroke="midnightblue" d="M1226.19,-280.08C1227.91,-272.93 1230.39,-262.64 1232.55,-253.69"/>
<polygon fill="midnightblue" stroke="midnightblue" points="1236,-254.29 1234.94,-243.75 1229.19,-252.65 1236,-254.29"/>
</g>
<!-- Node27&#45;&gt;Node7 -->
<g id="edge44" class="edge">
<title>Node27&#45;&gt;Node7</title>
<path fill="none" stroke="midnightblue" d="M1234.91,-224.18C1227.53,-195.55 1200.43,-104.36 1144.04,-56 1118.03,-33.69 1080.39,-22.27 1052.12,-16.54"/>
<polygon fill="midnightblue" stroke="midnightblue" points="1052.65,-13.07 1042.17,-14.67 1051.36,-19.95 1052.65,-13.07"/>
</g>
<!-- Node27&#45;&gt;Node28 -->
<g id="edge45" class="edge">
<title>Node27&#45;&gt;Node28</title>
<path fill="none" stroke="midnightblue" d="M1205.67,-224.44C1171.78,-215.2 1117.64,-200.44 1080.32,-190.26"/>
<polygon fill="midnightblue" stroke="midnightblue" points="1080.84,-186.77 1070.27,-187.52 1079,-193.52 1080.84,-186.77"/>
</g>
<!-- Node28&#45;&gt;Node5 -->
<g id="edge46" class="edge">
<title>Node28&#45;&gt;Node5</title>
<path fill="none" stroke="midnightblue" d="M980.26,-168.44C910.93,-158.35 796.37,-141.68 726.98,-131.58"/>
<polygon fill="midnightblue" stroke="midnightblue" points="727.48,-128.11 717.08,-130.14 726.47,-135.04 727.48,-128.11"/>
</g>
<!-- Node28&#45;&gt;Node8 -->
<g id="edge47" class="edge">
<title>Node28&#45;&gt;Node8</title>
<path fill="none" stroke="midnightblue" d="M1014.9,-168.46C959.9,-149.01 825.18,-101.36 761.91,-78.98"/>
<polygon fill="midnightblue" stroke="midnightblue" points="762.98,-75.65 752.39,-75.61 760.65,-82.24 762.98,-75.65"/>
</g>
<!-- Node29&#45;&gt;Node24 -->
<g id="edge51" class="edge">
<title>Node29&#45;&gt;Node24</title>
<path fill="none" stroke="midnightblue" d="M1248.24,-392.32C1265.4,-383.66 1291.99,-370.24 1311.79,-360.25"/>
<polygon fill="midnightblue" stroke="midnightblue" points="1313.55,-363.28 1320.9,-355.65 1310.39,-357.04 1313.55,-363.28"/>
</g>
<!-- Node29&#45;&gt;Node25 -->
<g id="edge52" class="edge">
<title>Node29&#45;&gt;Node25</title>
<path fill="none" stroke="midnightblue" d="M1230.5,-392.37C1229.37,-374.62 1226.76,-333.67 1225.23,-309.6"/>
<polygon fill="midnightblue" stroke="midnightblue" points="1228.72,-309.35 1224.59,-299.59 1221.73,-309.79 1228.72,-309.35"/>
</g>
<!-- Node29&#45;&gt;Node30 -->
<g id="edge49" class="edge">
<title>Node29&#45;&gt;Node30</title>
<path fill="none" stroke="midnightblue" d="M1202.52,-392.44C1171.98,-383.28 1123.34,-368.69 1089.44,-358.52"/>
<polygon fill="midnightblue" stroke="midnightblue" points="1090.02,-355.04 1079.43,-355.52 1088.01,-361.74 1090.02,-355.04"/>
</g>
<!-- Node29&#45;&gt;Node31 -->
<g id="edge53" class="edge">
<title>Node29&#45;&gt;Node31</title>
<path fill="none" stroke="midnightblue" d="M1224.3,-392.36C1212.85,-378.31 1188.2,-350.63 1161.04,-336 1127.58,-317.97 1086.82,-307.05 1052.18,-300.49"/>
<polygon fill="midnightblue" stroke="midnightblue" points="1052.58,-297.01 1042.11,-298.68 1051.33,-303.9 1052.58,-297.01"/>
</g>
<!-- Node30&#45;&gt;Node26 -->
<g id="edge50" class="edge">
<title>Node30&#45;&gt;Node26</title>
<path fill="none" stroke="midnightblue" d="M1051.99,-336.37C1053.92,-318.62 1058.39,-277.67 1061.02,-253.6"/>
<polygon fill="midnightblue" stroke="midnightblue" points="1064.5,-253.91 1062.11,-243.59 1057.54,-253.15 1064.5,-253.91"/>
</g>
<!-- Node31&#45;&gt;Node5 -->
<g id="edge56" class="edge">
<title>Node31&#45;&gt;Node5</title>
<path fill="none" stroke="midnightblue" d="M970.58,-280.32C960.06,-266.7 937.99,-240.22 914.04,-224 848.64,-179.71 760.78,-149.5 709.69,-134.34"/>
<polygon fill="midnightblue" stroke="midnightblue" points="710.56,-130.95 699.98,-131.51 708.6,-137.67 710.56,-130.95"/>
</g>
<!-- Node31&#45;&gt;Node17 -->
<g id="edge55" class="edge">
<title>Node31&#45;&gt;Node17</title>
<path fill="none" stroke="midnightblue" d="M967.31,-280.31C950.93,-266.2 916.31,-238.42 882.04,-224 816.5,-196.42 733.02,-185.44 688.11,-181.31"/>
<polygon fill="midnightblue" stroke="midnightblue" points="688.35,-177.82 678.08,-180.45 687.74,-184.79 688.35,-177.82"/>
</g>
<!-- Node31&#45;&gt;Node26 -->
<g id="edge54" class="edge">
<title>Node31&#45;&gt;Node26</title>
<path fill="none" stroke="midnightblue" d="M990.86,-280.32C1004.28,-271.9 1024.87,-258.97 1040.63,-249.07"/>
<polygon fill="midnightblue" stroke="midnightblue" points="1042.65,-251.94 1049.26,-243.65 1038.93,-246.01 1042.65,-251.94"/>
</g>
<!-- Node32&#45;&gt;Node30 -->
<g id="edge58" class="edge">
<title>Node32&#45;&gt;Node30</title>
<path fill="none" stroke="midnightblue" d="M1063.57,-392.08C1061.56,-384.85 1058.66,-374.41 1056.16,-365.4"/>
<polygon fill="midnightblue" stroke="midnightblue" points="1059.52,-364.45 1053.48,-355.75 1052.78,-366.32 1059.52,-364.45"/>
</g>
<!-- Node33&#45;&gt;Node5 -->
<g id="edge63" class="edge">
<title>Node33&#45;&gt;Node5</title>
<path fill="none" stroke="midnightblue" d="M795.22,-224.37C771.74,-205.65 715.91,-161.15 686.65,-137.83"/>
<polygon fill="midnightblue" stroke="midnightblue" points="688.82,-135.09 678.82,-131.59 684.46,-140.56 688.82,-135.09"/>
</g>
<!-- Node33&#45;&gt;Node17 -->
<g id="edge62" class="edge">
<title>Node33&#45;&gt;Node17</title>
<path fill="none" stroke="midnightblue" d="M782.28,-224.44C756.71,-215.24 715.92,-200.56 687.66,-190.38"/>
<polygon fill="midnightblue" stroke="midnightblue" points="688.83,-187.08 678.23,-186.99 686.46,-193.67 688.83,-187.08"/>
</g>
<!-- Node34&#45;&gt;Node13 -->
<g id="edge67" class="edge">
<title>Node34&#45;&gt;Node13</title>
<path fill="none" stroke="midnightblue" d="M701.33,-392.39C709.63,-384.02 721.19,-370.48 726.04,-356 736.78,-323.97 741.72,-309.92 726.04,-280 718.77,-266.11 705.04,-255.65 692.06,-248.33"/>
<polygon fill="midnightblue" stroke="midnightblue" points="693.34,-245.05 682.85,-243.55 690.12,-251.27 693.34,-245.05"/>
</g>
<!-- Node34&#45;&gt;Node14 -->
<g id="edge68" class="edge">
<title>Node34&#45;&gt;Node14</title>
<path fill="none" stroke="midnightblue" d="M686.66,-392.36C672.22,-369.96 630.25,-309.73 579.04,-280 541.37,-258.12 493.64,-246.87 455.44,-241.09"/>
<polygon fill="midnightblue" stroke="midnightblue" points="455.84,-237.61 445.44,-239.67 454.85,-244.54 455.84,-237.61"/>
</g>
<!-- Node34&#45;&gt;Node30 -->
<g id="edge69" class="edge">
<title>Node34&#45;&gt;Node30</title>
<path fill="none" stroke="midnightblue" d="M748.93,-392.44C812.87,-382.83 916.57,-367.23 984.29,-357.04"/>
<polygon fill="midnightblue" stroke="midnightblue" points="985.06,-360.47 994.43,-355.52 984.02,-353.54 985.06,-360.47"/>
</g>
</g>
</svg>
        <g id="navigator" transform="translate(0 0)" fill="#404254">
                <rect fill="#f2f5e9" fill-opacity="0.5" stroke="#606060" stroke-width=".5" x="0" y="0" width="60" height="60"/>
                <use id="zoomplus" xlink:href="#zoomPlus" x="17" y="9" onmousedown="handleZoom(evt,'in')"/>
                <use id="zoomminus" xlink:href="#zoomMin" x="42" y="9" onmousedown="handleZoom(evt,'out')"/>
                <use id="reset" xlink:href="#resetDef" x="30" y="36" onmousedown="handleReset()"/>
                <g id="arrowUp" xlink:href="#dirArrow" transform="translate(30 24)" onmousedown="handlePan(0,-1)">
                  <use xlink:href="#rim" fill="#404040">
                        <set attributeName="fill" to="#808080" begin="arrowUp.mouseover" end="arrowUp.mouseout"/>
                  </use>
                  <path fill="none" stroke="white" stroke-width="1.5" d="M0,-3.0v7 M-2.5,-0.5L0,-3.0L2.5,-0.5"/>
                </g>
                <g id="arrowRight" xlink:href="#dirArrow" transform="rotate(90) translate(36 -43)" onmousedown="handlePan(1,0)">
                  <use xlink:href="#rim" fill="#404040">
                        <set attributeName="fill" to="#808080" begin="arrowRight.mouseover" end="arrowRight.mouseout"/>
                  </use>
                  <path fill="none" stroke="white" stroke-width="1.5" d="M0,-3.0v7 M-2.5,-0.5L0,-3.0L2.5,-0.5"/>
                </g>
                <g id="arrowDown" xlink:href="#dirArrow" transform="rotate(180) translate(-30 -48)" onmousedown="handlePan(0,1)">
                  <use xlink:href="#rim" fill="#404040">
                        <set attributeName="fill" to="#808080" begin="arrowDown.mouseover" end="arrowDown.mouseout"/>
                  </use>
                  <path fill="none" stroke="white" stroke-width="1.5" d="M0,-3.0v7 M-2.5,-0.5L0,-3.0L2.5,-0.5"/>
                </g>
                <g id="arrowLeft" xlink:href="#dirArrow" transform="rotate(270) translate(-36 17)" onmousedown="handlePan(-1,0)">
                  <use xlink:href="#rim" fill="#404040">
                        <set attributeName="fill" to="#808080" begin="arrowLeft.mouseover" end="arrowLeft.mouseout"/>
                  </use>
                  <path fill="none" stroke="white" stroke-width="1.5" d="M0,-3.0v7 M-2.5,-0.5L0,-3.0L2.5,-0.5"/>
                </g>
        </g>
        <svg viewBox="0 0 15 15" width="100%" height="30px" preserveAspectRatio="xMaxYMin meet">
         <g id="arrow_out" transform="scale(0.3 0.3)">
          <a xlink:href="entry__point_8h__incl_org.svg" target="_base">
           <rect id="button" ry="5" rx="5" y="6" x="6" height="38" width="38"
                fill="#f2f5e9" fill-opacity="0.5" stroke="#606060" stroke-width="1.0"/>
           <path id="arrow"
             d="M 11.500037,31.436501 C 11.940474,20.09759 22.043105,11.32322 32.158766,21.979434 L 37.068811,17.246167 C 37.068811,17.246167 37.088388,32 37.088388,32 L 22.160133,31.978069 C 22.160133,31.978069 26.997745,27.140456 26.997745,27.140456 C 18.528582,18.264221 13.291696,25.230495 11.500037,31.436501 z"
             style="fill:#404040;"/>
          </a>
         </g>
        </svg>
</svg>
