<?xml version="1.0" encoding="UTF-8" standalone="no"?>
<!DOCTYPE svg PUBLIC "-//W3C//DTD SVG 1.1//EN"
 "http://www.w3.org/Graphics/SVG/1.1/DTD/svg11.dtd">
<!-- Generated by graphviz version 2.43.0 (0)
 -->
<!-- Title: /home/runner/work/gauri/gauri/gauri/include/gauri/core/entry_point.h Pages: 1 -->
<!--zoomable 532 -->
<svg id="main" version="1.1" xmlns="http://www.w3.org/2000/svg" xmlns:xlink="http://www.w3.org/1999/xlink" xml:space="preserve" onload="init(evt)">
<style type="text/css"><![CDATA[
.edge:hover path { stroke: red; }
.edge:hover polygon { stroke: red; fill: red; }
]]></style>
<script type="text/javascript"><![CDATA[
var edges = document.getElementsByTagName('g');
if (edges && edges.length) {
  for (var i=0;i<edges.length;i++) {
    if (edges[i].id.substr(0,4)=='edge') {
      edges[i].setAttribute('class','edge');
    }
  }
}
]]></script>
        <defs>
                <circle id="rim" cx="0" cy="0" r="7"/>
                <circle id="rim2" cx="0" cy="0" r="3.5"/>
                <g id="zoomPlus">
                        <use xlink:href="#rim" fill="#404040">
                                <set attributeName="fill" to="#808080" begin="zoomplus.mouseover" end="zoomplus.mouseout"/>
                        </use>
                        <path d="M-4,0h8M0,-4v8" fill="none" stroke="white" stroke-width="1.5" pointer-events="none"/>
                </g>
                <g id="zoomMin">
                        <use xlink:href="#rim" fill="#404040">
                                <set attributeName="fill" to="#808080" begin="zoomminus.mouseover" end="zoomminus.mouseout"/>
                        </use>
                        <path d="M-4,0h8" fill="none" stroke="white" stroke-width="1.5" pointer-events="none"/>
                </g>
                <g id="dirArrow">
                        <path fill="none" stroke="white" stroke-width="1.5" d="M0,-3.0v7 M-2.5,-0.5L0,-3.0L2.5,-0.5"/>
                </g>
               <g id="resetDef">
                       <use xlink:href="#rim2" fill="#404040">
                               <set attributeName="fill" to="#808080" begin="reset.mouseover" end="reset.mouseout"/>
                       </use>
               </g>
        </defs>

<script type="text/javascript">
var viewWidth = 1798;
var viewHeight = 532;
var sectionId = 'dynsection-0';
</script>
<script xlink:href="svgpan.js"/>
<svg id="graph" class="graph">
<g id="viewport">
<title>/home/runner/work/gauri/gauri/gauri/include/gauri/core/entry_point.h</title>
<polygon fill="white" stroke="transparent" points="-4,4 -4,-528 1793.58,-528 1793.58,4 -4,4"/>
<!-- Node1 -->
<g id="node1" class="node">
<title>Node1</title>
<g id="a_node1"><a xlink:title=" ">
<polygon fill="#bfbfbf" stroke="black" points="766.08,-504.5 766.08,-523.5 1116.08,-523.5 1116.08,-504.5 766.08,-504.5"/>
<text text-anchor="middle" x="941.08" y="-511.5" font-family="Helvetica,sans-Serif" font-size="10.00">/home/runner/work/gauri/gauri/gauri/include/gauri/core/entry_point.h</text>
</a>
</g>
</g>
<!-- Node2 -->
<g id="node2" class="node">
<title>Node2</title>
<g id="a_node2"><a xlink:href="gauri_8h.html" target="_top" xlink:title=" ">
<polygon fill="white" stroke="black" points="916.08,-448.5 916.08,-467.5 966.08,-467.5 966.08,-448.5 916.08,-448.5"/>
<text text-anchor="middle" x="941.08" y="-455.5" font-family="Helvetica,sans-Serif" font-size="10.00">gauri.h</text>
</a>
</g>
</g>
<!-- Node1&#45;&gt;Node2 -->
<g id="edge1" class="edge">
<title>Node1&#45;&gt;Node2</title>
<path fill="none" stroke="midnightblue" d="M941.08,-504.08C941.08,-497.01 941.08,-486.86 941.08,-477.99"/>
<polygon fill="midnightblue" stroke="midnightblue" points="944.58,-477.75 941.08,-467.75 937.58,-477.75 944.58,-477.75"/>
</g>
<!-- Node3 -->
<g id="node3" class="node">
<title>Node3</title>
<g id="a_node3"><a xlink:href="application_8h.html" target="_top" xlink:title=" ">
<polygon fill="white" stroke="black" points="196.58,-392.5 196.58,-411.5 327.58,-411.5 327.58,-392.5 196.58,-392.5"/>
<text text-anchor="middle" x="262.08" y="-399.5" font-family="Helvetica,sans-Serif" font-size="10.00">gauri/core/application.h</text>
</a>
</g>
</g>
<!-- Node2&#45;&gt;Node3 -->
<g id="edge2" class="edge">
<title>Node2&#45;&gt;Node3</title>
<path fill="none" stroke="midnightblue" d="M915.93,-455.01C836.44,-448.73 583.5,-428.72 374.08,-412 362.39,-411.07 350,-410.07 337.9,-409.1"/>
<polygon fill="midnightblue" stroke="midnightblue" points="338.07,-405.6 327.82,-408.29 337.51,-412.58 338.07,-405.6"/>
</g>
<!-- Node8 -->
<g id="node8" class="node">
<title>Node8</title>
<g id="a_node8"><a xlink:href="logger_8h.html" target="_top" xlink:title=" ">
<polygon fill="white" stroke="black" points="727.58,-56.5 727.58,-75.5 834.58,-75.5 834.58,-56.5 727.58,-56.5"/>
<text text-anchor="middle" x="781.08" y="-63.5" font-family="Helvetica,sans-Serif" font-size="10.00">gauri/core/logger.h</text>
</a>
</g>
</g>
<!-- Node2&#45;&gt;Node8 -->
<g id="edge32" class="edge">
<title>Node2&#45;&gt;Node8</title>
<path fill="none" stroke="midnightblue" d="M916.04,-456.9C797.12,-456.25 288.97,-451.17 136.08,-412 71.19,-395.37 0.08,-413.99 0.08,-347 0.08,-347 0.08,-347 0.08,-289 0.08,-258.9 -0.25,-247.07 19.08,-224 55.09,-181.04 78.66,-184.95 132.08,-168 339.67,-102.14 598.74,-78.33 716.93,-70.49"/>
<polygon fill="midnightblue" stroke="midnightblue" points="717.49,-73.96 727.25,-69.82 717.04,-66.98 717.49,-73.96"/>
</g>
<!-- Node12 -->
<g id="node12" class="node">
<title>Node12</title>
<g id="a_node12"><a xlink:href="layer_8h.html" target="_top" xlink:title=" ">
<polygon fill="white" stroke="black" points="389.58,-280.5 389.58,-299.5 490.58,-299.5 490.58,-280.5 389.58,-280.5"/>
<text text-anchor="middle" x="440.08" y="-287.5" font-family="Helvetica,sans-Serif" font-size="10.00">gauri/core/layer.h</text>
</a>
</g>
</g>
<!-- Node2&#45;&gt;Node12 -->
<g id="edge31" class="edge">
<title>Node2&#45;&gt;Node12</title>
<path fill="none" stroke="midnightblue" d="M915.85,-456.61C820.55,-454.86 486.37,-446.32 455.08,-412 449.09,-405.43 454.23,-400.85 455.08,-392 457.49,-367.03 467.74,-360.44 462.08,-336 459.85,-326.36 455.26,-316.41 450.85,-308.31"/>
<polygon fill="midnightblue" stroke="midnightblue" points="453.78,-306.4 445.72,-299.52 447.73,-309.92 453.78,-306.4"/>
</g>
<!-- Node13 -->
<g id="node13" class="node">
<title>Node13</title>
<g id="a_node13"><a xlink:href="timestep_8h.html" target="_top" xlink:title=" ">
<polygon fill="white" stroke="black" points="524.58,-224.5 524.58,-243.5 645.58,-243.5 645.58,-224.5 524.58,-224.5"/>
<text text-anchor="middle" x="585.08" y="-231.5" font-family="Helvetica,sans-Serif" font-size="10.00">gauri/core/timestep.h</text>
</a>
</g>
</g>
<!-- Node2&#45;&gt;Node13 -->
<g id="edge33" class="edge">
<title>Node2&#45;&gt;Node13</title>
<path fill="none" stroke="midnightblue" d="M915.99,-451.96C882.26,-444.83 820.66,-430.57 770.08,-412 763.32,-409.52 658.34,-360.93 653.08,-356 621.69,-326.6 601.01,-279.37 591.37,-253.47"/>
<polygon fill="midnightblue" stroke="midnightblue" points="594.58,-252.03 587.92,-243.79 587.98,-254.38 594.58,-252.03"/>
</g>
<!-- Node20 -->
<g id="node20" class="node">
<title>Node20</title>
<g id="a_node20"><a xlink:href="imgui__layer_8h.html" target="_top" xlink:title=" ">
<polygon fill="white" stroke="black" points="311.58,-336.5 311.58,-355.5 452.58,-355.5 452.58,-336.5 311.58,-336.5"/>
<text text-anchor="middle" x="382.08" y="-343.5" font-family="Helvetica,sans-Serif" font-size="10.00">gauri/imgui/imgui_layer.h</text>
</a>
</g>
</g>
<!-- Node2&#45;&gt;Node20 -->
<g id="edge38" class="edge">
<title>Node2&#45;&gt;Node20</title>
<path fill="none" stroke="midnightblue" d="M916.03,-456.14C818.09,-452.61 464.47,-438.15 422.08,-412 404.86,-401.37 393.95,-380.29 387.95,-365"/>
<polygon fill="midnightblue" stroke="midnightblue" points="391.23,-363.79 384.56,-355.55 384.64,-366.15 391.23,-363.79"/>
</g>
<!-- Node21 -->
<g id="node21" class="node">
<title>Node21</title>
<g id="a_node21"><a xlink:href="input_8h.html" target="_top" xlink:title=" ">
<polygon fill="white" stroke="black" points="28.08,-224.5 28.08,-243.5 130.08,-243.5 130.08,-224.5 28.08,-224.5"/>
<text text-anchor="middle" x="79.08" y="-231.5" font-family="Helvetica,sans-Serif" font-size="10.00">gauri/core/input.h</text>
</a>
</g>
</g>
<!-- Node2&#45;&gt;Node21 -->
<g id="edge34" class="edge">
<title>Node2&#45;&gt;Node21</title>
<path fill="none" stroke="midnightblue" d="M915.99,-457.32C801.34,-458.51 326.91,-460.36 188.08,-412 121.01,-388.63 93.22,-368.4 74.08,-300 69.79,-284.67 71.73,-266.57 74.34,-253.37"/>
<polygon fill="midnightblue" stroke="midnightblue" points="77.76,-254.13 76.57,-243.6 70.93,-252.57 77.76,-254.13"/>
</g>
<!-- Node22 -->
<g id="node22" class="node">
<title>Node22</title>
<g id="a_node22"><a xlink:href="key__codes_8h.html" target="_top" xlink:title=" ">
<polygon fill="white" stroke="black" points="1462.08,-392.5 1462.08,-411.5 1590.08,-411.5 1590.08,-392.5 1462.08,-392.5"/>
<text text-anchor="middle" x="1526.08" y="-399.5" font-family="Helvetica,sans-Serif" font-size="10.00">gauri/core/key_codes.h</text>
</a>
</g>
</g>
<!-- Node2&#45;&gt;Node22 -->
<g id="edge36" class="edge">
<title>Node2&#45;&gt;Node22</title>
<path fill="none" stroke="midnightblue" d="M966.16,-455.01C1040.04,-449.1 1263.25,-430.86 1448.08,-412 1449.2,-411.89 1450.33,-411.77 1451.46,-411.65"/>
<polygon fill="midnightblue" stroke="midnightblue" points="1452.25,-415.09 1461.82,-410.55 1451.51,-408.13 1452.25,-415.09"/>
</g>
<!-- Node23 -->
<g id="node23" class="node">
<title>Node23</title>
<g id="a_node23"><a xlink:href="mouse__button__codes_8h.html" target="_top" xlink:title=" ">
<polygon fill="white" stroke="black" points="1608.58,-392.5 1608.58,-411.5 1789.58,-411.5 1789.58,-392.5 1608.58,-392.5"/>
<text text-anchor="middle" x="1699.08" y="-399.5" font-family="Helvetica,sans-Serif" font-size="10.00">gauri/core/mouse_button_codes.h</text>
</a>
</g>
</g>
<!-- Node2&#45;&gt;Node23 -->
<g id="edge37" class="edge">
<title>Node2&#45;&gt;Node23</title>
<path fill="none" stroke="midnightblue" d="M966.2,-455.48C1052.44,-450.21 1344.68,-432.01 1598.2,-412.05"/>
<polygon fill="midnightblue" stroke="midnightblue" points="1598.65,-415.53 1608.34,-411.25 1598.09,-408.55 1598.65,-415.53"/>
</g>
<!-- Node24 -->
<g id="node24" class="node">
<title>Node24</title>
<g id="a_node24"><a xlink:href="render__command_8h.html" target="_top" xlink:title=" ">
<polygon fill="white" stroke="black" points="1184.58,-336.5 1184.58,-355.5 1367.58,-355.5 1367.58,-336.5 1184.58,-336.5"/>
<text text-anchor="middle" x="1276.08" y="-343.5" font-family="Helvetica,sans-Serif" font-size="10.00">gauri/renderer/render_command.h</text>
</a>
</g>
</g>
<!-- Node2&#45;&gt;Node24 -->
<g id="edge39" class="edge">
<title>Node2&#45;&gt;Node24</title>
<path fill="none" stroke="midnightblue" d="M966.23,-456.03C1029.94,-453.14 1195.79,-442.78 1240.08,-412 1255.94,-400.98 1265.56,-380.63 1270.82,-365.62"/>
<polygon fill="midnightblue" stroke="midnightblue" points="1274.23,-366.44 1273.9,-355.85 1267.55,-364.33 1274.23,-366.44"/>
</g>
<!-- Node25 -->
<g id="node25" class="node">
<title>Node25</title>
<g id="a_node25"><a xlink:href="renderer__api_8h.html" target="_top" xlink:title=" ">
<polygon fill="white" stroke="black" points="1164.58,-280.5 1164.58,-299.5 1323.58,-299.5 1323.58,-280.5 1164.58,-280.5"/>
<text text-anchor="middle" x="1244.08" y="-287.5" font-family="Helvetica,sans-Serif" font-size="10.00">gauri/renderer/renderer_api.h</text>
</a>
</g>
</g>
<!-- Node2&#45;&gt;Node25 -->
<g id="edge71" class="edge">
<title>Node2&#45;&gt;Node25</title>
<path fill="none" stroke="midnightblue" d="M966.13,-455.6C1052.14,-450.19 1332.54,-427.23 1377.08,-356 1395.11,-327.17 1358.99,-310.78 1319.87,-301.67"/>
<polygon fill="midnightblue" stroke="midnightblue" points="1320.41,-298.21 1309.89,-299.51 1318.92,-305.05 1320.41,-298.21"/>
</g>
<!-- Node27 -->
<g id="node27" class="node">
<title>Node27</title>
<g id="a_node27"><a xlink:href="vertex__array_8h.html" target="_top" xlink:title=" ">
<polygon fill="white" stroke="black" points="1184.08,-224.5 1184.08,-243.5 1342.08,-243.5 1342.08,-224.5 1184.08,-224.5"/>
<text text-anchor="middle" x="1263.08" y="-231.5" font-family="Helvetica,sans-Serif" font-size="10.00">gauri/renderer/vertex_array.h</text>
</a>
</g>
</g>
<!-- Node2&#45;&gt;Node27 -->
<g id="edge65" class="edge">
<title>Node2&#45;&gt;Node27</title>
<path fill="none" stroke="midnightblue" d="M966.1,-455.56C1038.84,-451.13 1249.14,-436.48 1313.08,-412 1353.62,-396.49 1373.04,-394.5 1393.08,-356 1418.87,-306.47 1343.1,-266.46 1296.57,-247.29"/>
<polygon fill="midnightblue" stroke="midnightblue" points="1297.71,-243.98 1287.13,-243.52 1295.11,-250.48 1297.71,-243.98"/>
</g>
<!-- Node28 -->
<g id="node28" class="node">
<title>Node28</title>
<g id="a_node28"><a xlink:href="buffer_8h.html" target="_top" xlink:title=" ">
<polygon fill="white" stroke="black" points="953.58,-168.5 953.58,-187.5 1078.58,-187.5 1078.58,-168.5 953.58,-168.5"/>
<text text-anchor="middle" x="1016.08" y="-175.5" font-family="Helvetica,sans-Serif" font-size="10.00">gauri/renderer/buffer.h</text>
</a>
</g>
</g>
<!-- Node2&#45;&gt;Node28 -->
<g id="edge62" class="edge">
<title>Node2&#45;&gt;Node28</title>
<path fill="none" stroke="midnightblue" d="M966.18,-456.69C1026.38,-455.37 1176.32,-448.4 1207.08,-412 1212.82,-405.21 1210.26,-400.3 1207.08,-392 1205.91,-388.92 1075.42,-244.57 1030.83,-195.29"/>
<polygon fill="midnightblue" stroke="midnightblue" points="1033.3,-192.8 1023.99,-187.73 1028.11,-197.5 1033.3,-192.8"/>
</g>
<!-- Node29 -->
<g id="node29" class="node">
<title>Node29</title>
<g id="a_node29"><a xlink:href="renderer_8h.html" target="_top" xlink:title=" ">
<polygon fill="white" stroke="black" points="1060.08,-392.5 1060.08,-411.5 1198.08,-411.5 1198.08,-392.5 1060.08,-392.5"/>
<text text-anchor="middle" x="1129.08" y="-399.5" font-family="Helvetica,sans-Serif" font-size="10.00">gauri/renderer/renderer.h</text>
</a>
</g>
</g>
<!-- Node2&#45;&gt;Node29 -->
<g id="edge48" class="edge">
<title>Node2&#45;&gt;Node29</title>
<path fill="none" stroke="midnightblue" d="M966.44,-449.72C997.95,-440.67 1052.1,-425.11 1089.2,-414.46"/>
<polygon fill="midnightblue" stroke="midnightblue" points="1090.53,-417.71 1099.18,-411.59 1088.6,-410.99 1090.53,-417.71"/>
</g>
<!-- Node30 -->
<g id="node30" class="node">
<title>Node30</title>
<g id="a_node30"><a xlink:href="orthographic__camera_8h.html" target="_top" xlink:title=" ">
<polygon fill="white" stroke="black" points="812.58,-336.5 812.58,-355.5 1013.58,-355.5 1013.58,-336.5 812.58,-336.5"/>
<text text-anchor="middle" x="913.08" y="-343.5" font-family="Helvetica,sans-Serif" font-size="10.00">gauri/renderer/orthographic_camera.h</text>
</a>
</g>
</g>
<!-- Node2&#45;&gt;Node30 -->
<g id="edge66" class="edge">
<title>Node2&#45;&gt;Node30</title>
<path fill="none" stroke="midnightblue" d="M951.5,-448.2C964.92,-435.73 985.38,-412.2 975.08,-392 968.08,-378.27 954.72,-367.75 942.18,-360.35"/>
<polygon fill="midnightblue" stroke="midnightblue" points="943.76,-357.22 933.31,-355.51 940.41,-363.37 943.76,-357.22"/>
</g>
<!-- Node31 -->
<g id="node31" class="node">
<title>Node31</title>
<g id="a_node31"><a xlink:href="shader_8h.html" target="_top" xlink:title=" ">
<polygon fill="white" stroke="black" points="819.08,-280.5 819.08,-299.5 949.08,-299.5 949.08,-280.5 819.08,-280.5"/>
<text text-anchor="middle" x="884.08" y="-287.5" font-family="Helvetica,sans-Serif" font-size="10.00">gauri/renderer/shader.h</text>
</a>
</g>
</g>
<!-- Node2&#45;&gt;Node31 -->
<g id="edge63" class="edge">
<title>Node2&#45;&gt;Node31</title>
<path fill="none" stroke="midnightblue" d="M954.97,-448.36C985.42,-428.32 1053.09,-377.25 1023.08,-336 1008.13,-315.45 983.59,-304.09 959.26,-297.88"/>
<polygon fill="midnightblue" stroke="midnightblue" points="959.77,-294.4 949.24,-295.59 958.21,-301.23 959.77,-294.4"/>
</g>
<!-- Node32 -->
<g id="node32" class="node">
<title>Node32</title>
<g id="a_node32"><a xlink:href="renderer__2d_8h.html" target="_top" xlink:title=" ">
<polygon fill="white" stroke="black" points="810.08,-392.5 810.08,-411.5 966.08,-411.5 966.08,-392.5 810.08,-392.5"/>
<text text-anchor="middle" x="888.08" y="-399.5" font-family="Helvetica,sans-Serif" font-size="10.00">gauri/renderer/renderer_2d.h</text>
</a>
</g>
</g>
<!-- Node2&#45;&gt;Node32 -->
<g id="edge57" class="edge">
<title>Node2&#45;&gt;Node32</title>
<path fill="none" stroke="midnightblue" d="M932.33,-448.08C924.61,-440.22 913.18,-428.57 903.87,-419.08"/>
<polygon fill="midnightblue" stroke="midnightblue" points="906.17,-416.44 896.67,-411.75 901.18,-421.34 906.17,-416.44"/>
</g>
<!-- Node33 -->
<g id="node33" class="node">
<title>Node33</title>
<g id="a_node33"><a xlink:href="texture_8h.html" target="_top" xlink:title=" ">
<polygon fill="white" stroke="black" points="661.58,-336.5 661.58,-355.5 794.58,-355.5 794.58,-336.5 661.58,-336.5"/>
<text text-anchor="middle" x="728.08" y="-343.5" font-family="Helvetica,sans-Serif" font-size="10.00">gauri/renderer/texture.h</text>
</a>
</g>
</g>
<!-- Node2&#45;&gt;Node33 -->
<g id="edge64" class="edge">
<title>Node2&#45;&gt;Node33</title>
<path fill="none" stroke="midnightblue" d="M916.03,-452.25C886.98,-446.01 838.32,-433.28 801.08,-412 778.42,-399.05 756.64,-378.2 742.86,-363.61"/>
<polygon fill="midnightblue" stroke="midnightblue" points="745.07,-360.85 735.73,-355.86 739.92,-365.58 745.07,-360.85"/>
</g>
<!-- Node34 -->
<g id="node34" class="node">
<title>Node34</title>
<g id="a_node34"><a xlink:href="orthographic__camera__controller_8h.html" target="_top" xlink:title=" ">
<polygon fill="white" stroke="black" points="464.08,-392.5 464.08,-411.5 716.08,-411.5 716.08,-392.5 464.08,-392.5"/>
<text text-anchor="middle" x="590.08" y="-399.5" font-family="Helvetica,sans-Serif" font-size="10.00">gauri/renderer/orthographic_camera_controller.h</text>
</a>
</g>
</g>
<!-- Node2&#45;&gt;Node34 -->
<g id="edge67" class="edge">
<title>Node2&#45;&gt;Node34</title>
<path fill="none" stroke="midnightblue" d="M915.84,-453.12C861.98,-444.83 734.33,-425.19 655.77,-413.11"/>
<polygon fill="midnightblue" stroke="midnightblue" points="655.91,-409.59 645.49,-411.52 654.85,-416.5 655.91,-409.59"/>
</g>
<!-- Node4 -->
<g id="node4" class="node">
<title>Node4</title>
<g id="a_node4"><a xlink:href="layer__stack_8h.html" target="_top" xlink:title=" ">
<polygon fill="white" stroke="black" points="159.08,-336.5 159.08,-355.5 293.08,-355.5 293.08,-336.5 159.08,-336.5"/>
<text text-anchor="middle" x="226.08" y="-343.5" font-family="Helvetica,sans-Serif" font-size="10.00">gauri/core/layer_stack.h</text>
</a>
</g>
</g>
<!-- Node3&#45;&gt;Node4 -->
<g id="edge3" class="edge">
<title>Node3&#45;&gt;Node4</title>
<path fill="none" stroke="midnightblue" d="M256.14,-392.08C251.11,-384.53 243.75,-373.49 237.57,-364.23"/>
<polygon fill="midnightblue" stroke="midnightblue" points="240.38,-362.13 231.92,-355.75 234.55,-366.01 240.38,-362.13"/>
</g>
<!-- Node3&#45;&gt;Node13 -->
<g id="edge22" class="edge">
<title>Node3&#45;&gt;Node13</title>
<path fill="none" stroke="midnightblue" d="M327.91,-395.45C368.56,-389.84 420.68,-378.58 462.08,-356 510.54,-329.57 552.97,-278.5 572.94,-251.95"/>
<polygon fill="midnightblue" stroke="midnightblue" points="575.93,-253.79 579.04,-243.66 570.29,-249.64 575.93,-253.79"/>
</g>
<!-- Node14 -->
<g id="node14" class="node">
<title>Node14</title>
<g id="a_node14"><a xlink:href="event_8h.html" target="_top" xlink:title=" ">
<polygon fill="white" stroke="black" points="246.08,-224.5 246.08,-243.5 358.08,-243.5 358.08,-224.5 246.08,-224.5"/>
<text text-anchor="middle" x="302.08" y="-231.5" font-family="Helvetica,sans-Serif" font-size="10.00">gauri/event/event.h</text>
</a>
</g>
</g>
<!-- Node3&#45;&gt;Node14 -->
<g id="edge28" class="edge">
<title>Node3&#45;&gt;Node14</title>
<path fill="none" stroke="midnightblue" d="M213.91,-392.47C176.54,-383.4 133.65,-366.09 150.08,-336 164.26,-310.03 181.39,-316.3 206.08,-300 232.19,-282.77 261.97,-262.51 281.35,-249.25"/>
<polygon fill="midnightblue" stroke="midnightblue" points="283.45,-252.05 289.72,-243.51 279.49,-246.28 283.45,-252.05"/>
</g>
<!-- Node19 -->
<g id="node19" class="node">
<title>Node19</title>
<g id="a_node19"><a xlink:href="window_8h.html" target="_top" xlink:title=" ">
<polygon fill="white" stroke="black" points="83.08,-280.5 83.08,-299.5 197.08,-299.5 197.08,-280.5 83.08,-280.5"/>
<text text-anchor="middle" x="140.08" y="-287.5" font-family="Helvetica,sans-Serif" font-size="10.00">gauri/core/window.h</text>
</a>
</g>
</g>
<!-- Node3&#45;&gt;Node19 -->
<g id="edge23" class="edge">
<title>Node3&#45;&gt;Node19</title>
<path fill="none" stroke="midnightblue" d="M196.44,-397.57C167.23,-392.36 135.37,-380.83 117.08,-356 106.48,-341.61 116.07,-321.9 125.9,-307.96"/>
<polygon fill="midnightblue" stroke="midnightblue" points="128.89,-309.82 132.19,-299.76 123.33,-305.57 128.89,-309.82"/>
</g>
<!-- Node3&#45;&gt;Node20 -->
<g id="edge29" class="edge">
<title>Node3&#45;&gt;Node20</title>
<path fill="none" stroke="midnightblue" d="M281.1,-392.44C300.67,-383.64 331.39,-369.81 353.81,-359.72"/>
<polygon fill="midnightblue" stroke="midnightblue" points="355.47,-362.81 363.16,-355.52 352.6,-356.43 355.47,-362.81"/>
</g>
<!-- Node5 -->
<g id="node5" class="node">
<title>Node5</title>
<g id="a_node5"><a xlink:href="core_8h.html" target="_top" xlink:title=" ">
<polygon fill="white" stroke="black" points="552.08,-112.5 552.08,-131.5 650.08,-131.5 650.08,-112.5 552.08,-112.5"/>
<text text-anchor="middle" x="601.08" y="-119.5" font-family="Helvetica,sans-Serif" font-size="10.00">gauri/core/core.h</text>
</a>
</g>
</g>
<!-- Node4&#45;&gt;Node5 -->
<g id="edge4" class="edge">
<title>Node4&#45;&gt;Node5</title>
<path fill="none" stroke="midnightblue" d="M242.65,-336.47C259.69,-327.61 286.96,-313.21 310.08,-300 411.88,-241.83 530.56,-167.59 578.9,-137.06"/>
<polygon fill="midnightblue" stroke="midnightblue" points="581.02,-139.86 587.6,-131.56 577.28,-133.95 581.02,-139.86"/>
</g>
<!-- Node4&#45;&gt;Node12 -->
<g id="edge12" class="edge">
<title>Node4&#45;&gt;Node12</title>
<path fill="none" stroke="midnightblue" d="M259.99,-336.44C296.93,-327.12 356.14,-312.18 396.5,-302"/>
<polygon fill="midnightblue" stroke="midnightblue" points="397.49,-305.36 406.33,-299.52 395.78,-298.57 397.49,-305.36"/>
</g>
<!-- Node18 -->
<g id="node18" class="node">
<title>Node18</title>
<g id="a_node18"><a xlink:title=" ">
<polygon fill="white" stroke="#bfbfbf" points="253.58,-280.5 253.58,-299.5 300.58,-299.5 300.58,-280.5 253.58,-280.5"/>
<text text-anchor="middle" x="277.08" y="-287.5" font-family="Helvetica,sans-Serif" font-size="10.00">vector</text>
</a>
</g>
</g>
<!-- Node4&#45;&gt;Node18 -->
<g id="edge21" class="edge">
<title>Node4&#45;&gt;Node18</title>
<path fill="none" stroke="midnightblue" d="M234.5,-336.08C241.93,-328.22 252.93,-316.57 261.9,-307.08"/>
<polygon fill="midnightblue" stroke="midnightblue" points="264.5,-309.42 268.82,-299.75 259.41,-304.62 264.5,-309.42"/>
</g>
<!-- Node6 -->
<g id="node6" class="node">
<title>Node6</title>
<g id="a_node6"><a xlink:title=" ">
<polygon fill="white" stroke="#bfbfbf" points="249.08,-56.5 249.08,-75.5 299.08,-75.5 299.08,-56.5 249.08,-56.5"/>
<text text-anchor="middle" x="274.08" y="-63.5" font-family="Helvetica,sans-Serif" font-size="10.00">cstdint</text>
</a>
</g>
</g>
<!-- Node5&#45;&gt;Node6 -->
<g id="edge5" class="edge">
<title>Node5&#45;&gt;Node6</title>
<path fill="none" stroke="midnightblue" d="M551.77,-112.86C485.09,-101.85 367.8,-82.48 309.31,-72.82"/>
<polygon fill="midnightblue" stroke="midnightblue" points="309.53,-69.31 299.1,-71.13 308.39,-76.21 309.53,-69.31"/>
</g>
<!-- Node7 -->
<g id="node7" class="node">
<title>Node7</title>
<g id="a_node7"><a xlink:title=" ">
<polygon fill="white" stroke="#bfbfbf" points="1061.08,-0.5 1061.08,-19.5 1119.08,-19.5 1119.08,-0.5 1061.08,-0.5"/>
<text text-anchor="middle" x="1090.08" y="-7.5" font-family="Helvetica,sans-Serif" font-size="10.00">memory</text>
</a>
</g>
</g>
<!-- Node5&#45;&gt;Node7 -->
<g id="edge6" class="edge">
<title>Node5&#45;&gt;Node7</title>
<path fill="none" stroke="midnightblue" d="M650.17,-113.02C699.41,-104.76 777.31,-90.98 844.08,-76 917.72,-59.48 1002.64,-36.06 1050.98,-22.31"/>
<polygon fill="midnightblue" stroke="midnightblue" points="1052.07,-25.64 1060.72,-19.52 1050.15,-18.9 1052.07,-25.64"/>
</g>
<!-- Node5&#45;&gt;Node8 -->
<g id="edge7" class="edge">
<title>Node5&#45;&gt;Node8</title>
<path fill="none" stroke="midnightblue" d="M629.6,-112.44C660.15,-103.28 708.79,-88.69 742.69,-78.52"/>
<polygon fill="midnightblue" stroke="midnightblue" points="744.12,-81.74 752.7,-75.52 742.11,-75.04 744.12,-81.74"/>
</g>
<!-- Node8&#45;&gt;Node7 -->
<g id="edge9" class="edge">
<title>Node8&#45;&gt;Node7</title>
<path fill="none" stroke="midnightblue" d="M830.05,-56.44C891.24,-45.75 994.76,-27.66 1050.95,-17.84"/>
<polygon fill="midnightblue" stroke="midnightblue" points="1051.63,-21.27 1060.88,-16.1 1050.42,-14.38 1051.63,-21.27"/>
</g>
<!-- Node9 -->
<g id="node9" class="node">
<title>Node9</title>
<g id="a_node9"><a xlink:title=" ">
<polygon fill="white" stroke="#bfbfbf" points="756.08,-0.5 756.08,-19.5 806.08,-19.5 806.08,-0.5 756.08,-0.5"/>
<text text-anchor="middle" x="781.08" y="-7.5" font-family="Helvetica,sans-Serif" font-size="10.00">format</text>
</a>
</g>
</g>
<!-- Node8&#45;&gt;Node9 -->
<g id="edge8" class="edge">
<title>Node8&#45;&gt;Node9</title>
<path fill="none" stroke="midnightblue" d="M781.08,-56.08C781.08,-49.01 781.08,-38.86 781.08,-29.99"/>
<polygon fill="midnightblue" stroke="midnightblue" points="784.58,-29.75 781.08,-19.75 777.58,-29.75 784.58,-29.75"/>
</g>
<!-- Node10 -->
<g id="node10" class="node">
<title>Node10</title>
<g id="a_node10"><a xlink:title=" ">
<polygon fill="white" stroke="#bfbfbf" points="824.58,-0.5 824.58,-19.5 923.58,-19.5 923.58,-0.5 824.58,-0.5"/>
<text text-anchor="middle" x="874.08" y="-7.5" font-family="Helvetica,sans-Serif" font-size="10.00">spdlog/fmt/ostr.h</text>
</a>
</g>
</g>
<!-- Node8&#45;&gt;Node10 -->
<g id="edge10" class="edge">
<title>Node8&#45;&gt;Node10</title>
<path fill="none" stroke="midnightblue" d="M796.03,-56.32C810.67,-47.82 833.22,-34.73 850.32,-24.8"/>
<polygon fill="midnightblue" stroke="midnightblue" points="852.29,-27.7 859.18,-19.65 848.77,-21.65 852.29,-27.7"/>
</g>
<!-- Node11 -->
<g id="node11" class="node">
<title>Node11</title>
<g id="a_node11"><a xlink:title=" ">
<polygon fill="white" stroke="#bfbfbf" points="644.58,-0.5 644.58,-19.5 737.58,-19.5 737.58,-0.5 644.58,-0.5"/>
<text text-anchor="middle" x="691.08" y="-7.5" font-family="Helvetica,sans-Serif" font-size="10.00">spdlog/spdlog.h</text>
</a>
</g>
</g>
<!-- Node8&#45;&gt;Node11 -->
<g id="edge11" class="edge">
<title>Node8&#45;&gt;Node11</title>
<path fill="none" stroke="midnightblue" d="M766.62,-56.32C752.58,-47.9 731.03,-34.97 714.54,-25.07"/>
<polygon fill="midnightblue" stroke="midnightblue" points="715.88,-21.8 705.51,-19.65 712.28,-27.8 715.88,-21.8"/>
</g>
<!-- Node12&#45;&gt;Node5 -->
<g id="edge13" class="edge">
<title>Node12&#45;&gt;Node5</title>
<path fill="none" stroke="midnightblue" d="M448.74,-280.08C474.74,-253.27 552.4,-173.19 585.68,-138.89"/>
<polygon fill="midnightblue" stroke="midnightblue" points="588.32,-141.18 592.77,-131.57 583.3,-136.31 588.32,-141.18"/>
</g>
<!-- Node12&#45;&gt;Node13 -->
<g id="edge14" class="edge">
<title>Node12&#45;&gt;Node13</title>
<path fill="none" stroke="midnightblue" d="M463.06,-280.44C487.24,-271.44 525.5,-257.19 552.73,-247.05"/>
<polygon fill="midnightblue" stroke="midnightblue" points="554.07,-250.29 562.22,-243.52 551.62,-243.73 554.07,-250.29"/>
</g>
<!-- Node12&#45;&gt;Node14 -->
<g id="edge15" class="edge">
<title>Node12&#45;&gt;Node14</title>
<path fill="none" stroke="midnightblue" d="M418.22,-280.44C395.3,-271.48 359.11,-257.31 333.22,-247.18"/>
<polygon fill="midnightblue" stroke="midnightblue" points="334.44,-243.9 323.85,-243.52 331.88,-250.42 334.44,-243.9"/>
</g>
<!-- Node14&#45;&gt;Node5 -->
<g id="edge20" class="edge">
<title>Node14&#45;&gt;Node5</title>
<path fill="none" stroke="midnightblue" d="M313.74,-224.3C332.88,-210.41 372.59,-183.26 410.08,-168 452.66,-150.67 503.42,-139.1 541.91,-132.04"/>
<polygon fill="midnightblue" stroke="midnightblue" points="542.69,-135.46 551.92,-130.26 541.46,-128.57 542.69,-135.46"/>
</g>
<!-- Node14&#45;&gt;Node6 -->
<g id="edge16" class="edge">
<title>Node14&#45;&gt;Node6</title>
<path fill="none" stroke="midnightblue" d="M300.25,-224.39C298.35,-215.35 295.35,-200.71 293.08,-188 286.63,-151.84 280.24,-109.39 276.76,-85.6"/>
<polygon fill="midnightblue" stroke="midnightblue" points="280.2,-84.92 275.3,-75.53 273.27,-85.93 280.2,-84.92"/>
</g>
<!-- Node15 -->
<g id="node15" class="node">
<title>Node15</title>
<g id="a_node15"><a xlink:title=" ">
<polygon fill="white" stroke="#bfbfbf" points="180.58,-168.5 180.58,-187.5 245.58,-187.5 245.58,-168.5 180.58,-168.5"/>
<text text-anchor="middle" x="213.08" y="-175.5" font-family="Helvetica,sans-Serif" font-size="10.00">functional</text>
</a>
</g>
</g>
<!-- Node14&#45;&gt;Node15 -->
<g id="edge17" class="edge">
<title>Node14&#45;&gt;Node15</title>
<path fill="none" stroke="midnightblue" d="M287.78,-224.32C273.9,-215.9 252.59,-202.97 236.28,-193.07"/>
<polygon fill="midnightblue" stroke="midnightblue" points="237.71,-189.85 227.35,-187.65 234.08,-195.83 237.71,-189.85"/>
</g>
<!-- Node16 -->
<g id="node16" class="node">
<title>Node16</title>
<g id="a_node16"><a xlink:title=" ">
<polygon fill="white" stroke="#bfbfbf" points="302.08,-168.5 302.08,-187.5 358.08,-187.5 358.08,-168.5 302.08,-168.5"/>
<text text-anchor="middle" x="330.08" y="-175.5" font-family="Helvetica,sans-Serif" font-size="10.00">sstream</text>
</a>
</g>
</g>
<!-- Node14&#45;&gt;Node16 -->
<g id="edge18" class="edge">
<title>Node14&#45;&gt;Node16</title>
<path fill="none" stroke="midnightblue" d="M306.71,-224.08C310.54,-216.69 316.11,-205.95 320.85,-196.81"/>
<polygon fill="midnightblue" stroke="midnightblue" points="324.05,-198.24 325.55,-187.75 317.84,-195.02 324.05,-198.24"/>
</g>
<!-- Node17 -->
<g id="node17" class="node">
<title>Node17</title>
<g id="a_node17"><a xlink:title=" ">
<polygon fill="white" stroke="#bfbfbf" points="585.08,-168.5 585.08,-187.5 629.08,-187.5 629.08,-168.5 585.08,-168.5"/>
<text text-anchor="middle" x="607.08" y="-175.5" font-family="Helvetica,sans-Serif" font-size="10.00">string</text>
</a>
</g>
</g>
<!-- Node14&#45;&gt;Node17 -->
<g id="edge19" class="edge">
<title>Node14&#45;&gt;Node17</title>
<path fill="none" stroke="midnightblue" d="M350.41,-224.44C413.24,-213.32 521.27,-194.19 574.91,-184.7"/>
<polygon fill="midnightblue" stroke="midnightblue" points="575.65,-188.12 584.89,-182.93 574.43,-181.23 575.65,-188.12"/>
</g>
<!-- Node19&#45;&gt;Node6 -->
<g id="edge24" class="edge">
<title>Node19&#45;&gt;Node6</title>
<path fill="none" stroke="midnightblue" d="M140.79,-280.5C142.82,-259.89 150,-206.18 172.08,-168 193.11,-131.66 230.64,-99.41 253.84,-81.6"/>
<polygon fill="midnightblue" stroke="midnightblue" points="256.07,-84.31 261.97,-75.51 251.87,-78.7 256.07,-84.31"/>
</g>
<!-- Node19&#45;&gt;Node14 -->
<g id="edge27" class="edge">
<title>Node19&#45;&gt;Node14</title>
<path fill="none" stroke="midnightblue" d="M165.75,-280.44C193.01,-271.36 236.27,-256.94 266.73,-246.78"/>
<polygon fill="midnightblue" stroke="midnightblue" points="268.15,-250 276.53,-243.52 265.94,-243.36 268.15,-250"/>
</g>
<!-- Node19&#45;&gt;Node15 -->
<g id="edge25" class="edge">
<title>Node19&#45;&gt;Node15</title>
<path fill="none" stroke="midnightblue" d="M146.36,-280.47C152.92,-271.49 163.44,-256.9 172.08,-244 182.84,-227.95 194.55,-209.25 202.69,-196.04"/>
<polygon fill="midnightblue" stroke="midnightblue" points="205.68,-197.86 207.92,-187.51 199.71,-194.21 205.68,-197.86"/>
</g>
<!-- Node19&#45;&gt;Node17 -->
<g id="edge26" class="edge">
<title>Node19&#45;&gt;Node17</title>
<path fill="none" stroke="midnightblue" d="M188.12,-280.47C234.2,-272.05 305.67,-258.39 367.08,-244 442.3,-226.38 529.64,-201.63 575.4,-188.33"/>
<polygon fill="midnightblue" stroke="midnightblue" points="576.42,-191.68 585.04,-185.52 574.46,-184.96 576.42,-191.68"/>
</g>
<!-- Node20&#45;&gt;Node12 -->
<g id="edge30" class="edge">
<title>Node20&#45;&gt;Node12</title>
<path fill="none" stroke="midnightblue" d="M391.4,-336.32C399.98,-328.34 412.9,-316.31 423.27,-306.65"/>
<polygon fill="midnightblue" stroke="midnightblue" points="425.66,-309.21 430.59,-299.83 420.89,-304.09 425.66,-309.21"/>
</g>
<!-- Node21&#45;&gt;Node5 -->
<g id="edge35" class="edge">
<title>Node21&#45;&gt;Node5</title>
<path fill="none" stroke="midnightblue" d="M87.94,-224.42C103.5,-209.94 137.39,-180.95 172.08,-168 238.39,-143.25 440.64,-130.52 541.95,-125.55"/>
<polygon fill="midnightblue" stroke="midnightblue" points="542.2,-129.04 552.02,-125.06 541.86,-122.05 542.2,-129.04"/>
</g>
<!-- Node24&#45;&gt;Node25 -->
<g id="edge40" class="edge">
<title>Node24&#45;&gt;Node25</title>
<path fill="none" stroke="midnightblue" d="M1270.8,-336.08C1266.37,-328.61 1259.92,-317.72 1254.47,-308.52"/>
<polygon fill="midnightblue" stroke="midnightblue" points="1257.38,-306.57 1249.27,-299.75 1251.36,-310.14 1257.38,-306.57"/>
</g>
<!-- Node25&#45;&gt;Node7 -->
<g id="edge42" class="edge">
<title>Node25&#45;&gt;Node7</title>
<path fill="none" stroke="midnightblue" d="M1223.39,-280.35C1207.94,-272.88 1187.44,-260.65 1175.08,-244 1157.14,-219.83 1156.08,-209.1 1156.08,-179 1156.08,-179 1156.08,-179 1156.08,-121 1156.08,-82.86 1126.54,-46.52 1106.99,-26.64"/>
<polygon fill="midnightblue" stroke="midnightblue" points="1109.42,-24.12 1099.82,-19.63 1104.52,-29.12 1109.42,-24.12"/>
</g>
<!-- Node26 -->
<g id="node26" class="node">
<title>Node26</title>
<g id="a_node26"><a xlink:title=" ">
<polygon fill="white" stroke="#bfbfbf" points="938.08,-224.5 938.08,-243.5 1016.08,-243.5 1016.08,-224.5 938.08,-224.5"/>
<text text-anchor="middle" x="977.08" y="-231.5" font-family="Helvetica,sans-Serif" font-size="10.00">glm/glm.hpp</text>
</a>
</g>
</g>
<!-- Node25&#45;&gt;Node26 -->
<g id="edge41" class="edge">
<title>Node25&#45;&gt;Node26</title>
<path fill="none" stroke="midnightblue" d="M1201.78,-280.44C1154.04,-270.79 1076.51,-255.11 1026.15,-244.92"/>
<polygon fill="midnightblue" stroke="midnightblue" points="1026.65,-241.45 1016.15,-242.9 1025.26,-248.31 1026.65,-241.45"/>
</g>
<!-- Node25&#45;&gt;Node27 -->
<g id="edge43" class="edge">
<title>Node25&#45;&gt;Node27</title>
<path fill="none" stroke="midnightblue" d="M1247.22,-280.08C1249.77,-272.85 1253.44,-262.41 1256.61,-253.4"/>
<polygon fill="midnightblue" stroke="midnightblue" points="1259.99,-254.35 1260,-243.75 1253.38,-252.02 1259.99,-254.35"/>
</g>
<!-- Node27&#45;&gt;Node7 -->
<g id="edge44" class="edge">
<title>Node27&#45;&gt;Node7</title>
<path fill="none" stroke="midnightblue" d="M1260.45,-224.18C1251.78,-196.35 1221.61,-109.02 1170.08,-56 1156.66,-42.18 1138.07,-31.38 1122.19,-23.83"/>
<polygon fill="midnightblue" stroke="midnightblue" points="1123.27,-20.48 1112.72,-19.54 1120.39,-26.85 1123.27,-20.48"/>
</g>
<!-- Node27&#45;&gt;Node28 -->
<g id="edge45" class="edge">
<title>Node27&#45;&gt;Node28</title>
<path fill="none" stroke="midnightblue" d="M1223.95,-224.44C1180.86,-215.02 1111.52,-199.87 1064.91,-189.68"/>
<polygon fill="midnightblue" stroke="midnightblue" points="1065.55,-186.23 1055.04,-187.52 1064.06,-193.07 1065.55,-186.23"/>
</g>
<!-- Node28&#45;&gt;Node5 -->
<g id="edge46" class="edge">
<title>Node28&#45;&gt;Node5</title>
<path fill="none" stroke="midnightblue" d="M953.5,-168.86C874.08,-158.52 738.08,-140.83 660.3,-130.71"/>
<polygon fill="midnightblue" stroke="midnightblue" points="660.55,-127.21 650.18,-129.39 659.65,-134.15 660.55,-127.21"/>
</g>
<!-- Node28&#45;&gt;Node8 -->
<g id="edge47" class="edge">
<title>Node28&#45;&gt;Node8</title>
<path fill="none" stroke="midnightblue" d="M997.64,-168.37C956.54,-149.13 857.24,-102.65 808.71,-79.93"/>
<polygon fill="midnightblue" stroke="midnightblue" points="809.98,-76.66 799.44,-75.59 807.01,-83 809.98,-76.66"/>
</g>
<!-- Node29&#45;&gt;Node24 -->
<g id="edge51" class="edge">
<title>Node29&#45;&gt;Node24</title>
<path fill="none" stroke="midnightblue" d="M1152.38,-392.44C1176.89,-383.44 1215.68,-369.19 1243.28,-359.05"/>
<polygon fill="midnightblue" stroke="midnightblue" points="1244.72,-362.25 1252.9,-355.52 1242.31,-355.68 1244.72,-362.25"/>
</g>
<!-- Node29&#45;&gt;Node25 -->
<g id="edge52" class="edge">
<title>Node29&#45;&gt;Node25</title>
<path fill="none" stroke="midnightblue" d="M1134.01,-392.24C1141.75,-379 1157.79,-353.55 1176.08,-336 1188.87,-323.74 1205.4,-312.71 1218.96,-304.64"/>
<polygon fill="midnightblue" stroke="midnightblue" points="1220.88,-307.58 1227.79,-299.55 1217.38,-301.51 1220.88,-307.58"/>
</g>
<!-- Node29&#45;&gt;Node30 -->
<g id="edge49" class="edge">
<title>Node29&#45;&gt;Node30</title>
<path fill="none" stroke="midnightblue" d="M1094.86,-392.44C1057.57,-383.12 997.81,-368.18 957.07,-358"/>
<polygon fill="midnightblue" stroke="midnightblue" points="957.7,-354.55 947.15,-355.52 956,-361.34 957.7,-354.55"/>
</g>
<!-- Node29&#45;&gt;Node31 -->
<g id="edge53" class="edge">
<title>Node29&#45;&gt;Node31</title>
<path fill="none" stroke="midnightblue" d="M1121.93,-392.42C1109.84,-378.46 1083.91,-350.9 1056.08,-336 1024.52,-319.1 986.25,-308.27 953.82,-301.49"/>
<polygon fill="midnightblue" stroke="midnightblue" points="954.46,-298.05 943.96,-299.51 953.08,-304.91 954.46,-298.05"/>
</g>
<!-- Node30&#45;&gt;Node26 -->
<g id="edge50" class="edge">
<title>Node30&#45;&gt;Node26</title>
<path fill="none" stroke="midnightblue" d="M924.69,-336.23C934.89,-327.95 949.41,-314.64 958.08,-300 966.6,-285.62 971.52,-267.16 974.21,-253.59"/>
<polygon fill="midnightblue" stroke="midnightblue" points="977.69,-253.99 975.97,-243.54 970.8,-252.78 977.69,-253.99"/>
</g>
<!-- Node31&#45;&gt;Node5 -->
<g id="edge56" class="edge">
<title>Node31&#45;&gt;Node5</title>
<path fill="none" stroke="midnightblue" d="M875.97,-280.4C854.99,-258.63 796.42,-200.73 737.08,-168 709.47,-152.77 675.85,-141.58 648.94,-134.18"/>
<polygon fill="midnightblue" stroke="midnightblue" points="649.55,-130.72 638.98,-131.52 647.74,-137.48 649.55,-130.72"/>
</g>
<!-- Node31&#45;&gt;Node17 -->
<g id="edge55" class="edge">
<title>Node31&#45;&gt;Node17</title>
<path fill="none" stroke="midnightblue" d="M862.35,-280.37C813.5,-260.97 694.89,-213.87 638.23,-191.37"/>
<polygon fill="midnightblue" stroke="midnightblue" points="639.3,-188.03 628.72,-187.59 636.72,-194.54 639.3,-188.03"/>
</g>
<!-- Node31&#45;&gt;Node26 -->
<g id="edge54" class="edge">
<title>Node31&#45;&gt;Node26</title>
<path fill="none" stroke="midnightblue" d="M899.03,-280.32C913.67,-271.82 936.22,-258.73 953.32,-248.8"/>
<polygon fill="midnightblue" stroke="midnightblue" points="955.29,-251.7 962.18,-243.65 951.77,-245.65 955.29,-251.7"/>
</g>
<!-- Node32&#45;&gt;Node30 -->
<g id="edge58" class="edge">
<title>Node32&#45;&gt;Node30</title>
<path fill="none" stroke="midnightblue" d="M892.21,-392.08C895.6,-384.77 900.5,-374.18 904.7,-365.1"/>
<polygon fill="midnightblue" stroke="midnightblue" points="908.01,-366.3 909.03,-355.75 901.65,-363.36 908.01,-366.3"/>
</g>
<!-- Node32&#45;&gt;Node33 -->
<g id="edge59" class="edge">
<title>Node32&#45;&gt;Node33</title>
<path fill="none" stroke="midnightblue" d="M862.73,-392.44C835.81,-383.36 793.09,-368.94 763,-358.78"/>
<polygon fill="midnightblue" stroke="midnightblue" points="763.91,-355.4 753.32,-355.52 761.67,-362.03 763.91,-355.4"/>
</g>
<!-- Node33&#45;&gt;Node5 -->
<g id="edge61" class="edge">
<title>Node33&#45;&gt;Node5</title>
<path fill="none" stroke="midnightblue" d="M726.28,-336.35C723.47,-323.67 717.49,-299.42 709.08,-280 684.78,-223.84 639.21,-166.87 615.8,-139.58"/>
<polygon fill="midnightblue" stroke="midnightblue" points="618.23,-137.05 609.03,-131.8 612.95,-141.64 618.23,-137.05"/>
</g>
<!-- Node33&#45;&gt;Node17 -->
<g id="edge60" class="edge">
<title>Node33&#45;&gt;Node17</title>
<path fill="none" stroke="midnightblue" d="M723.87,-336.26C713.68,-315.59 686.25,-262.53 655.08,-224 646.3,-213.15 634.97,-202.4 625.52,-194.13"/>
<polygon fill="midnightblue" stroke="midnightblue" points="627.69,-191.39 617.81,-187.57 623.15,-196.72 627.69,-191.39"/>
</g>
<!-- Node34&#45;&gt;Node13 -->
<g id="edge68" class="edge">
<title>Node34&#45;&gt;Node13</title>
<path fill="none" stroke="midnightblue" d="M589.81,-392.08C589.03,-365.95 586.72,-289.21 585.64,-253.58"/>
<polygon fill="midnightblue" stroke="midnightblue" points="589.14,-253.46 585.34,-243.57 582.14,-253.67 589.14,-253.46"/>
</g>
<!-- Node34&#45;&gt;Node14 -->
<g id="edge69" class="edge">
<title>Node34&#45;&gt;Node14</title>
<path fill="none" stroke="midnightblue" d="M586.3,-392.32C576.01,-369.85 545.27,-309.44 500.08,-280 460.87,-254.46 409.09,-243.3 368.31,-238.49"/>
<polygon fill="midnightblue" stroke="midnightblue" points="368.51,-234.99 358.19,-237.39 367.76,-241.95 368.51,-234.99"/>
</g>
<!-- Node34&#45;&gt;Node30 -->
<g id="edge70" class="edge">
<title>Node34&#45;&gt;Node30</title>
<path fill="none" stroke="midnightblue" d="M641.26,-392.44C698.56,-382.87 791.33,-367.36 852.27,-357.17"/>
<polygon fill="midnightblue" stroke="midnightblue" points="852.86,-360.62 862.14,-355.52 851.7,-353.71 852.86,-360.62"/>
</g>
</g>
</svg>
        <g id="navigator" transform="translate(0 0)" fill="#404254">
                <rect fill="#f2f5e9" fill-opacity="0.5" stroke="#606060" stroke-width=".5" x="0" y="0" width="60" height="60"/>
                <use id="zoomplus" xlink:href="#zoomPlus" x="17" y="9" onmousedown="handleZoom(evt,'in')"/>
                <use id="zoomminus" xlink:href="#zoomMin" x="42" y="9" onmousedown="handleZoom(evt,'out')"/>
                <use id="reset" xlink:href="#resetDef" x="30" y="36" onmousedown="handleReset()"/>
                <g id="arrowUp" xlink:href="#dirArrow" transform="translate(30 24)" onmousedown="handlePan(0,-1)">
                  <use xlink:href="#rim" fill="#404040">
                        <set attributeName="fill" to="#808080" begin="arrowUp.mouseover" end="arrowUp.mouseout"/>
                  </use>
                  <path fill="none" stroke="white" stroke-width="1.5" d="M0,-3.0v7 M-2.5,-0.5L0,-3.0L2.5,-0.5"/>
                </g>
                <g id="arrowRight" xlink:href="#dirArrow" transform="rotate(90) translate(36 -43)" onmousedown="handlePan(1,0)">
                  <use xlink:href="#rim" fill="#404040">
                        <set attributeName="fill" to="#808080" begin="arrowRight.mouseover" end="arrowRight.mouseout"/>
                  </use>
                  <path fill="none" stroke="white" stroke-width="1.5" d="M0,-3.0v7 M-2.5,-0.5L0,-3.0L2.5,-0.5"/>
                </g>
                <g id="arrowDown" xlink:href="#dirArrow" transform="rotate(180) translate(-30 -48)" onmousedown="handlePan(0,1)">
                  <use xlink:href="#rim" fill="#404040">
                        <set attributeName="fill" to="#808080" begin="arrowDown.mouseover" end="arrowDown.mouseout"/>
                  </use>
                  <path fill="none" stroke="white" stroke-width="1.5" d="M0,-3.0v7 M-2.5,-0.5L0,-3.0L2.5,-0.5"/>
                </g>
                <g id="arrowLeft" xlink:href="#dirArrow" transform="rotate(270) translate(-36 17)" onmousedown="handlePan(-1,0)">
                  <use xlink:href="#rim" fill="#404040">
                        <set attributeName="fill" to="#808080" begin="arrowLeft.mouseover" end="arrowLeft.mouseout"/>
                  </use>
                  <path fill="none" stroke="white" stroke-width="1.5" d="M0,-3.0v7 M-2.5,-0.5L0,-3.0L2.5,-0.5"/>
                </g>
        </g>
        <svg viewBox="0 0 15 15" width="100%" height="30px" preserveAspectRatio="xMaxYMin meet">
         <g id="arrow_out" transform="scale(0.3 0.3)">
          <a xlink:href="entry__point_8h__incl_org.svg" target="_base">
           <rect id="button" ry="5" rx="5" y="6" x="6" height="38" width="38"
                fill="#f2f5e9" fill-opacity="0.5" stroke="#606060" stroke-width="1.0"/>
           <path id="arrow"
             d="M 11.500037,31.436501 C 11.940474,20.09759 22.043105,11.32322 32.158766,21.979434 L 37.068811,17.246167 C 37.068811,17.246167 37.088388,32 37.088388,32 L 22.160133,31.978069 C 22.160133,31.978069 26.997745,27.140456 26.997745,27.140456 C 18.528582,18.264221 13.291696,25.230495 11.500037,31.436501 z"
             style="fill:#404040;"/>
          </a>
         </g>
        </svg>
</svg>
