<?xml version="1.0" encoding="UTF-8" standalone="no"?>
<!DOCTYPE svg PUBLIC "-//W3C//DTD SVG 1.1//EN"
 "http://www.w3.org/Graphics/SVG/1.1/DTD/svg11.dtd">
<!-- Generated by graphviz version 2.43.0 (0)
 -->
<!-- Title: /home/runner/work/gauri/gauri/gauri/include/gauri/core/entry_point.h Pages: 1 -->
<svg width="2070pt" height="532pt"
 viewBox="0.00 0.00 2069.70 532.00" xmlns="http://www.w3.org/2000/svg" xmlns:xlink="http://www.w3.org/1999/xlink">
<g id="graph0" class="graph" transform="scale(1 1) rotate(0) translate(4 528)">
<title>/home/runner/work/gauri/gauri/gauri/include/gauri/core/entry_point.h</title>
<polygon fill="white" stroke="transparent" points="-4,4 -4,-528 2065.7,-528 2065.7,4 -4,4"/>
<!-- Node1 -->
<g id="node1" class="node">
<title>Node1</title>
<g id="a_node1"><a xlink:title=" ">
<polygon fill="#bfbfbf" stroke="black" points="904.2,-504.5 904.2,-523.5 1254.2,-523.5 1254.2,-504.5 904.2,-504.5"/>
<text text-anchor="middle" x="1079.2" y="-511.5" font-family="Helvetica,sans-Serif" font-size="10.00">/home/runner/work/gauri/gauri/gauri/include/gauri/core/entry_point.h</text>
</a>
</g>
</g>
<!-- Node2 -->
<g id="node2" class="node">
<title>Node2</title>
<g id="a_node2"><a xlink:href="gauri_8h.html" target="_top" xlink:title=" ">
<polygon fill="white" stroke="black" points="1054.2,-448.5 1054.2,-467.5 1104.2,-467.5 1104.2,-448.5 1054.2,-448.5"/>
<text text-anchor="middle" x="1079.2" y="-455.5" font-family="Helvetica,sans-Serif" font-size="10.00">gauri.h</text>
</a>
</g>
</g>
<!-- Node1&#45;&gt;Node2 -->
<g id="edge1" class="edge">
<title>Node1&#45;&gt;Node2</title>
<path fill="none" stroke="midnightblue" d="M1079.2,-504.08C1079.2,-497.01 1079.2,-486.86 1079.2,-477.99"/>
<polygon fill="midnightblue" stroke="midnightblue" points="1082.7,-477.75 1079.2,-467.75 1075.7,-477.75 1082.7,-477.75"/>
</g>
<!-- Node3 -->
<g id="node3" class="node">
<title>Node3</title>
<g id="a_node3"><a xlink:href="application_8h.html" target="_top" xlink:title=" ">
<polygon fill="white" stroke="black" points="183.7,-392.5 183.7,-411.5 314.7,-411.5 314.7,-392.5 183.7,-392.5"/>
<text text-anchor="middle" x="249.2" y="-399.5" font-family="Helvetica,sans-Serif" font-size="10.00">gauri/core/application.h</text>
</a>
</g>
</g>
<!-- Node2&#45;&gt;Node3 -->
<g id="edge2" class="edge">
<title>Node2&#45;&gt;Node3</title>
<path fill="none" stroke="midnightblue" d="M1054.11,-455.5C962.65,-450 638.46,-430.35 371.2,-412 356.17,-410.97 340.09,-409.82 324.71,-408.69"/>
<polygon fill="midnightblue" stroke="midnightblue" points="324.95,-405.2 314.72,-407.96 324.44,-412.18 324.95,-405.2"/>
</g>
<!-- Node8 -->
<g id="node8" class="node">
<title>Node8</title>
<g id="a_node8"><a xlink:href="logger_8h.html" target="_top" xlink:title=" ">
<polygon fill="white" stroke="black" points="928.7,-56.5 928.7,-75.5 1035.7,-75.5 1035.7,-56.5 928.7,-56.5"/>
<text text-anchor="middle" x="982.2" y="-63.5" font-family="Helvetica,sans-Serif" font-size="10.00">gauri/core/logger.h</text>
</a>
</g>
</g>
<!-- Node2&#45;&gt;Node8 -->
<g id="edge32" class="edge">
<title>Node2&#45;&gt;Node8</title>
<path fill="none" stroke="midnightblue" d="M1054.11,-456.98C926.42,-456.68 348.17,-453.06 174.2,-412 104.28,-395.5 26.2,-418.84 26.2,-347 26.2,-347 26.2,-347 26.2,-177 26.2,-86.95 704.24,-70.56 918.27,-67.63"/>
<polygon fill="midnightblue" stroke="midnightblue" points="918.46,-71.12 928.41,-67.49 918.36,-64.12 918.46,-71.12"/>
</g>
<!-- Node12 -->
<g id="node12" class="node">
<title>Node12</title>
<g id="a_node12"><a xlink:href="layer_8h.html" target="_top" xlink:title=" ">
<polygon fill="white" stroke="black" points="350.7,-280.5 350.7,-299.5 451.7,-299.5 451.7,-280.5 350.7,-280.5"/>
<text text-anchor="middle" x="401.2" y="-287.5" font-family="Helvetica,sans-Serif" font-size="10.00">gauri/core/layer.h</text>
</a>
</g>
</g>
<!-- Node2&#45;&gt;Node12 -->
<g id="edge31" class="edge">
<title>Node2&#45;&gt;Node12</title>
<path fill="none" stroke="midnightblue" d="M1054.19,-457.19C941.5,-457.81 484.57,-457.47 442.2,-412 436.14,-405.5 438.69,-400.17 442.2,-392 451.39,-370.63 471.01,-377.37 480.2,-356 483.71,-347.83 484.67,-343.69 480.2,-336 471.47,-320.97 455.62,-310.54 440.41,-303.54"/>
<polygon fill="midnightblue" stroke="midnightblue" points="441.66,-300.27 431.08,-299.61 438.94,-306.72 441.66,-300.27"/>
</g>
<!-- Node13 -->
<g id="node13" class="node">
<title>Node13</title>
<g id="a_node13"><a xlink:href="timestep_8h.html" target="_top" xlink:title=" ">
<polygon fill="white" stroke="black" points="472.7,-224.5 472.7,-243.5 593.7,-243.5 593.7,-224.5 472.7,-224.5"/>
<text text-anchor="middle" x="533.2" y="-231.5" font-family="Helvetica,sans-Serif" font-size="10.00">gauri/core/timestep.h</text>
</a>
</g>
</g>
<!-- Node2&#45;&gt;Node13 -->
<g id="edge39" class="edge">
<title>Node2&#45;&gt;Node13</title>
<path fill="none" stroke="midnightblue" d="M1053.91,-457.55C996.8,-457.95 854.33,-454.25 745.2,-412 735,-408.05 672.74,-362.84 664.2,-356 620.35,-320.87 572.83,-274.74 548.89,-250.86"/>
<polygon fill="midnightblue" stroke="midnightblue" points="551.25,-248.27 541.71,-243.66 546.3,-253.21 551.25,-248.27"/>
</g>
<!-- Node20 -->
<g id="node20" class="node">
<title>Node20</title>
<g id="a_node20"><a xlink:href="imgui__layer_8h.html" target="_top" xlink:title=" ">
<polygon fill="white" stroke="black" points="330.7,-336.5 330.7,-355.5 471.7,-355.5 471.7,-336.5 330.7,-336.5"/>
<text text-anchor="middle" x="401.2" y="-343.5" font-family="Helvetica,sans-Serif" font-size="10.00">gauri/imgui/imgui_layer.h</text>
</a>
</g>
</g>
<!-- Node2&#45;&gt;Node20 -->
<g id="edge44" class="edge">
<title>Node2&#45;&gt;Node20</title>
<path fill="none" stroke="midnightblue" d="M1053.81,-457.16C937.23,-457.67 456.79,-457.02 409.2,-412 396.96,-400.42 396.21,-380.46 397.75,-365.7"/>
<polygon fill="midnightblue" stroke="midnightblue" points="401.24,-366.06 399.22,-355.66 394.31,-365.05 401.24,-366.06"/>
</g>
<!-- Node21 -->
<g id="node21" class="node">
<title>Node21</title>
<g id="a_node21"><a xlink:href="instrumentor_8h.html" target="_top" xlink:title=" ">
<polygon fill="white" stroke="black" points="796.7,-392.5 796.7,-411.5 945.7,-411.5 945.7,-392.5 796.7,-392.5"/>
<text text-anchor="middle" x="871.2" y="-399.5" font-family="Helvetica,sans-Serif" font-size="10.00">gauri/debug/instrumentor.h</text>
</a>
</g>
</g>
<!-- Node2&#45;&gt;Node21 -->
<g id="edge33" class="edge">
<title>Node2&#45;&gt;Node21</title>
<path fill="none" stroke="midnightblue" d="M1054.11,-450.49C1019.4,-441.47 956.24,-425.08 914,-414.11"/>
<polygon fill="midnightblue" stroke="midnightblue" points="914.82,-410.71 904.26,-411.58 913.06,-417.48 914.82,-410.71"/>
</g>
<!-- Node26 -->
<g id="node26" class="node">
<title>Node26</title>
<g id="a_node26"><a xlink:href="input_8h.html" target="_top" xlink:title=" ">
<polygon fill="white" stroke="black" points="970.2,-224.5 970.2,-243.5 1072.2,-243.5 1072.2,-224.5 970.2,-224.5"/>
<text text-anchor="middle" x="1021.2" y="-231.5" font-family="Helvetica,sans-Serif" font-size="10.00">gauri/core/input.h</text>
</a>
</g>
</g>
<!-- Node2&#45;&gt;Node26 -->
<g id="edge40" class="edge">
<title>Node2&#45;&gt;Node26</title>
<path fill="none" stroke="midnightblue" d="M1054.04,-451.57C1033.42,-445.65 1005.55,-433.93 992.2,-412 976.07,-385.5 1002.62,-293.01 1015.18,-253.32"/>
<polygon fill="midnightblue" stroke="midnightblue" points="1018.57,-254.22 1018.31,-243.63 1011.91,-252.07 1018.57,-254.22"/>
</g>
<!-- Node27 -->
<g id="node27" class="node">
<title>Node27</title>
<g id="a_node27"><a xlink:href="key__codes_8h.html" target="_top" xlink:title=" ">
<polygon fill="white" stroke="black" points="1734.2,-392.5 1734.2,-411.5 1862.2,-411.5 1862.2,-392.5 1734.2,-392.5"/>
<text text-anchor="middle" x="1798.2" y="-399.5" font-family="Helvetica,sans-Serif" font-size="10.00">gauri/core/key_codes.h</text>
</a>
</g>
</g>
<!-- Node2&#45;&gt;Node27 -->
<g id="edge42" class="edge">
<title>Node2&#45;&gt;Node27</title>
<path fill="none" stroke="midnightblue" d="M1104.28,-455.64C1190.23,-450.91 1480.82,-434.2 1720.2,-412 1721.32,-411.9 1722.45,-411.79 1723.59,-411.68"/>
<polygon fill="midnightblue" stroke="midnightblue" points="1724.35,-415.12 1733.95,-410.64 1723.65,-408.16 1724.35,-415.12"/>
</g>
<!-- Node28 -->
<g id="node28" class="node">
<title>Node28</title>
<g id="a_node28"><a xlink:href="mouse__button__codes_8h.html" target="_top" xlink:title=" ">
<polygon fill="white" stroke="black" points="1880.7,-392.5 1880.7,-411.5 2061.7,-411.5 2061.7,-392.5 1880.7,-392.5"/>
<text text-anchor="middle" x="1971.2" y="-399.5" font-family="Helvetica,sans-Serif" font-size="10.00">gauri/core/mouse_button_codes.h</text>
</a>
</g>
</g>
<!-- Node2&#45;&gt;Node28 -->
<g id="edge43" class="edge">
<title>Node2&#45;&gt;Node28</title>
<path fill="none" stroke="midnightblue" d="M1104.52,-455.87C1201.92,-451.44 1561.86,-434.5 1870.43,-412.03"/>
<polygon fill="midnightblue" stroke="midnightblue" points="1870.74,-415.52 1880.46,-411.3 1870.23,-408.54 1870.74,-415.52"/>
</g>
<!-- Node29 -->
<g id="node29" class="node">
<title>Node29</title>
<g id="a_node29"><a xlink:href="render__command_8h.html" target="_top" xlink:title=" ">
<polygon fill="white" stroke="black" points="1456.7,-336.5 1456.7,-355.5 1639.7,-355.5 1639.7,-336.5 1456.7,-336.5"/>
<text text-anchor="middle" x="1548.2" y="-343.5" font-family="Helvetica,sans-Serif" font-size="10.00">gauri/renderer/render_command.h</text>
</a>
</g>
</g>
<!-- Node2&#45;&gt;Node29 -->
<g id="edge45" class="edge">
<title>Node2&#45;&gt;Node29</title>
<path fill="none" stroke="midnightblue" d="M1104.23,-457.49C1164.34,-457.91 1320.83,-454.48 1442.2,-412 1475.39,-400.38 1509.26,-377.23 1529.51,-361.93"/>
<polygon fill="midnightblue" stroke="midnightblue" points="1531.78,-364.6 1537.55,-355.71 1527.5,-359.06 1531.78,-364.6"/>
</g>
<!-- Node30 -->
<g id="node30" class="node">
<title>Node30</title>
<g id="a_node30"><a xlink:href="renderer__api_8h.html" target="_top" xlink:title=" ">
<polygon fill="white" stroke="black" points="1462.7,-280.5 1462.7,-299.5 1621.7,-299.5 1621.7,-280.5 1462.7,-280.5"/>
<text text-anchor="middle" x="1542.2" y="-287.5" font-family="Helvetica,sans-Serif" font-size="10.00">gauri/renderer/renderer_api.h</text>
</a>
</g>
</g>
<!-- Node2&#45;&gt;Node30 -->
<g id="edge77" class="edge">
<title>Node2&#45;&gt;Node30</title>
<path fill="none" stroke="midnightblue" d="M1104.24,-456.89C1205.69,-455.85 1583.8,-445.91 1649.2,-356 1668.02,-330.13 1629.84,-312.53 1593.98,-302.23"/>
<polygon fill="midnightblue" stroke="midnightblue" points="1594.54,-298.76 1583.97,-299.52 1592.71,-305.51 1594.54,-298.76"/>
</g>
<!-- Node32 -->
<g id="node32" class="node">
<title>Node32</title>
<g id="a_node32"><a xlink:href="vertex__array_8h.html" target="_top" xlink:title=" ">
<polygon fill="white" stroke="black" points="1494.2,-224.5 1494.2,-243.5 1652.2,-243.5 1652.2,-224.5 1494.2,-224.5"/>
<text text-anchor="middle" x="1573.2" y="-231.5" font-family="Helvetica,sans-Serif" font-size="10.00">gauri/renderer/vertex_array.h</text>
</a>
</g>
</g>
<!-- Node2&#45;&gt;Node32 -->
<g id="edge71" class="edge">
<title>Node2&#45;&gt;Node32</title>
<path fill="none" stroke="midnightblue" d="M1104.37,-456.38C1193.22,-453.94 1491.66,-443.55 1581.2,-412 1628.69,-395.27 1678.77,-384.48 1665.2,-336 1657.36,-307.96 1650.58,-301.73 1631.2,-280 1620.79,-268.33 1607.03,-257.51 1595.53,-249.4"/>
<polygon fill="midnightblue" stroke="midnightblue" points="1597.5,-246.51 1587.27,-243.76 1593.55,-252.29 1597.5,-246.51"/>
</g>
<!-- Node33 -->
<g id="node33" class="node">
<title>Node33</title>
<g id="a_node33"><a xlink:href="buffer_8h.html" target="_top" xlink:title=" ">
<polygon fill="white" stroke="black" points="1238.7,-168.5 1238.7,-187.5 1363.7,-187.5 1363.7,-168.5 1238.7,-168.5"/>
<text text-anchor="middle" x="1301.2" y="-175.5" font-family="Helvetica,sans-Serif" font-size="10.00">gauri/renderer/buffer.h</text>
</a>
</g>
</g>
<!-- Node2&#45;&gt;Node33 -->
<g id="edge68" class="edge">
<title>Node2&#45;&gt;Node33</title>
<path fill="none" stroke="midnightblue" d="M1104.35,-456.99C1173.35,-456.45 1363.53,-451.34 1409.2,-412 1432.01,-392.36 1428.2,-377.1 1428.2,-347 1428.2,-347 1428.2,-347 1428.2,-289 1428.2,-239.87 1373.22,-207.77 1335.6,-191.56"/>
<polygon fill="midnightblue" stroke="midnightblue" points="1336.57,-188.17 1325.99,-187.59 1333.9,-194.64 1336.57,-188.17"/>
</g>
<!-- Node34 -->
<g id="node34" class="node">
<title>Node34</title>
<g id="a_node34"><a xlink:href="renderer_8h.html" target="_top" xlink:title=" ">
<polygon fill="white" stroke="black" points="1262.2,-392.5 1262.2,-411.5 1400.2,-411.5 1400.2,-392.5 1262.2,-392.5"/>
<text text-anchor="middle" x="1331.2" y="-399.5" font-family="Helvetica,sans-Serif" font-size="10.00">gauri/renderer/renderer.h</text>
</a>
</g>
</g>
<!-- Node2&#45;&gt;Node34 -->
<g id="edge54" class="edge">
<title>Node2&#45;&gt;Node34</title>
<path fill="none" stroke="midnightblue" d="M1104.29,-451.62C1145.45,-442.8 1228.1,-425.09 1281.47,-413.66"/>
<polygon fill="midnightblue" stroke="midnightblue" points="1282.37,-417.04 1291.41,-411.53 1280.9,-410.2 1282.37,-417.04"/>
</g>
<!-- Node35 -->
<g id="node35" class="node">
<title>Node35</title>
<g id="a_node35"><a xlink:href="orthographic__camera_8h.html" target="_top" xlink:title=" ">
<polygon fill="white" stroke="black" points="1122.7,-336.5 1122.7,-355.5 1323.7,-355.5 1323.7,-336.5 1122.7,-336.5"/>
<text text-anchor="middle" x="1223.2" y="-343.5" font-family="Helvetica,sans-Serif" font-size="10.00">gauri/renderer/orthographic_camera.h</text>
</a>
</g>
</g>
<!-- Node2&#45;&gt;Node35 -->
<g id="edge72" class="edge">
<title>Node2&#45;&gt;Node35</title>
<path fill="none" stroke="midnightblue" d="M1104.58,-453.76C1131.46,-449.06 1173.46,-437.87 1199.2,-412 1211.52,-399.62 1217.59,-380.37 1220.53,-366.03"/>
<polygon fill="midnightblue" stroke="midnightblue" points="1224.04,-366.26 1222.28,-355.81 1217.14,-365.08 1224.04,-366.26"/>
</g>
<!-- Node36 -->
<g id="node36" class="node">
<title>Node36</title>
<g id="a_node36"><a xlink:href="shader_8h.html" target="_top" xlink:title=" ">
<polygon fill="white" stroke="black" points="1071.2,-280.5 1071.2,-299.5 1201.2,-299.5 1201.2,-280.5 1071.2,-280.5"/>
<text text-anchor="middle" x="1136.2" y="-287.5" font-family="Helvetica,sans-Serif" font-size="10.00">gauri/renderer/shader.h</text>
</a>
</g>
</g>
<!-- Node2&#45;&gt;Node36 -->
<g id="edge69" class="edge">
<title>Node2&#45;&gt;Node36</title>
<path fill="none" stroke="midnightblue" d="M1104.37,-451.57C1124.98,-445.65 1152.85,-433.93 1166.2,-412 1170.82,-404.41 1170.33,-399.87 1166.2,-392 1153.16,-367.1 1127.25,-380.9 1114.2,-356 1106.12,-340.57 1114.45,-321.55 1123.08,-308.09"/>
<polygon fill="midnightblue" stroke="midnightblue" points="1126.04,-309.96 1128.9,-299.76 1120.3,-305.95 1126.04,-309.96"/>
</g>
<!-- Node37 -->
<g id="node37" class="node">
<title>Node37</title>
<g id="a_node37"><a xlink:href="renderer__2d_8h.html" target="_top" xlink:title=" ">
<polygon fill="white" stroke="black" points="1001.2,-392.5 1001.2,-411.5 1157.2,-411.5 1157.2,-392.5 1001.2,-392.5"/>
<text text-anchor="middle" x="1079.2" y="-399.5" font-family="Helvetica,sans-Serif" font-size="10.00">gauri/renderer/renderer_2d.h</text>
</a>
</g>
</g>
<!-- Node2&#45;&gt;Node37 -->
<g id="edge63" class="edge">
<title>Node2&#45;&gt;Node37</title>
<path fill="none" stroke="midnightblue" d="M1079.2,-448.08C1079.2,-441.01 1079.2,-430.86 1079.2,-421.99"/>
<polygon fill="midnightblue" stroke="midnightblue" points="1082.7,-421.75 1079.2,-411.75 1075.7,-421.75 1082.7,-421.75"/>
</g>
<!-- Node38 -->
<g id="node38" class="node">
<title>Node38</title>
<g id="a_node38"><a xlink:href="texture_8h.html" target="_top" xlink:title=" ">
<polygon fill="white" stroke="black" points="810.7,-280.5 810.7,-299.5 943.7,-299.5 943.7,-280.5 810.7,-280.5"/>
<text text-anchor="middle" x="877.2" y="-287.5" font-family="Helvetica,sans-Serif" font-size="10.00">gauri/renderer/texture.h</text>
</a>
</g>
</g>
<!-- Node2&#45;&gt;Node38 -->
<g id="edge70" class="edge">
<title>Node2&#45;&gt;Node38</title>
<path fill="none" stroke="midnightblue" d="M1054.03,-455.63C1002.76,-452.31 882.96,-441.76 787.2,-412 786.35,-411.73 671.68,-356.76 671.2,-356 666.48,-348.47 665.63,-342.92 671.2,-336 687.48,-315.78 748.92,-304.16 800.51,-297.81"/>
<polygon fill="midnightblue" stroke="midnightblue" points="801.16,-301.25 810.68,-296.61 800.34,-294.3 801.16,-301.25"/>
</g>
<!-- Node39 -->
<g id="node39" class="node">
<title>Node39</title>
<g id="a_node39"><a xlink:href="orthographic__camera__controller_8h.html" target="_top" xlink:title=" ">
<polygon fill="white" stroke="black" points="451.2,-392.5 451.2,-411.5 703.2,-411.5 703.2,-392.5 451.2,-392.5"/>
<text text-anchor="middle" x="577.2" y="-399.5" font-family="Helvetica,sans-Serif" font-size="10.00">gauri/renderer/orthographic_camera_controller.h</text>
</a>
</g>
</g>
<!-- Node2&#45;&gt;Node39 -->
<g id="edge73" class="edge">
<title>Node2&#45;&gt;Node39</title>
<path fill="none" stroke="midnightblue" d="M1053.96,-454.29C983.83,-446.74 784.06,-425.25 666.55,-412.61"/>
<polygon fill="midnightblue" stroke="midnightblue" points="666.81,-409.12 656.5,-411.53 666.06,-416.08 666.81,-409.12"/>
</g>
<!-- Node4 -->
<g id="node4" class="node">
<title>Node4</title>
<g id="a_node4"><a xlink:href="layer__stack_8h.html" target="_top" xlink:title=" ">
<polygon fill="white" stroke="black" points="140.2,-336.5 140.2,-355.5 274.2,-355.5 274.2,-336.5 140.2,-336.5"/>
<text text-anchor="middle" x="207.2" y="-343.5" font-family="Helvetica,sans-Serif" font-size="10.00">gauri/core/layer_stack.h</text>
</a>
</g>
</g>
<!-- Node3&#45;&gt;Node4 -->
<g id="edge3" class="edge">
<title>Node3&#45;&gt;Node4</title>
<path fill="none" stroke="midnightblue" d="M242.27,-392.08C236.27,-384.38 227.45,-373.03 220.15,-363.65"/>
<polygon fill="midnightblue" stroke="midnightblue" points="222.91,-361.5 214.01,-355.75 217.38,-365.79 222.91,-361.5"/>
</g>
<!-- Node3&#45;&gt;Node13 -->
<g id="edge22" class="edge">
<title>Node3&#45;&gt;Node13</title>
<path fill="none" stroke="midnightblue" d="M256.22,-392.41C268.11,-378.43 293.62,-350.85 321.2,-336 377.39,-305.75 403.91,-330.06 460.2,-300 483.48,-287.57 505.41,-266.26 519.04,-251.45"/>
<polygon fill="midnightblue" stroke="midnightblue" points="522.01,-253.38 526.06,-243.59 516.79,-248.72 522.01,-253.38"/>
</g>
<!-- Node14 -->
<g id="node14" class="node">
<title>Node14</title>
<g id="a_node14"><a xlink:href="event_8h.html" target="_top" xlink:title=" ">
<polygon fill="white" stroke="black" points="172.2,-224.5 172.2,-243.5 284.2,-243.5 284.2,-224.5 172.2,-224.5"/>
<text text-anchor="middle" x="228.2" y="-231.5" font-family="Helvetica,sans-Serif" font-size="10.00">gauri/event/event.h</text>
</a>
</g>
</g>
<!-- Node3&#45;&gt;Node14 -->
<g id="edge28" class="edge">
<title>Node3&#45;&gt;Node14</title>
<path fill="none" stroke="midnightblue" d="M188.72,-392.47C166.88,-386.14 144.39,-375.14 131.2,-356 126.16,-348.68 127.31,-343.99 131.2,-336 142.57,-312.66 158.83,-318.35 177.2,-300 192.21,-285.01 206.9,-265.65 216.62,-251.97"/>
<polygon fill="midnightblue" stroke="midnightblue" points="219.66,-253.73 222.51,-243.53 213.92,-249.73 219.66,-253.73"/>
</g>
<!-- Node19 -->
<g id="node19" class="node">
<title>Node19</title>
<g id="a_node19"><a xlink:href="window_8h.html" target="_top" xlink:title=" ">
<polygon fill="white" stroke="black" points="54.2,-280.5 54.2,-299.5 168.2,-299.5 168.2,-280.5 54.2,-280.5"/>
<text text-anchor="middle" x="111.2" y="-287.5" font-family="Helvetica,sans-Serif" font-size="10.00">gauri/core/window.h</text>
</a>
</g>
</g>
<!-- Node3&#45;&gt;Node19 -->
<g id="edge23" class="edge">
<title>Node3&#45;&gt;Node19</title>
<path fill="none" stroke="midnightblue" d="M183.63,-398.74C152.51,-393.95 117.9,-382.43 98.2,-356 88.02,-342.34 93.96,-322.74 100.79,-308.64"/>
<polygon fill="midnightblue" stroke="midnightblue" points="104.04,-309.97 105.69,-299.5 97.88,-306.66 104.04,-309.97"/>
</g>
<!-- Node3&#45;&gt;Node20 -->
<g id="edge29" class="edge">
<title>Node3&#45;&gt;Node20</title>
<path fill="none" stroke="midnightblue" d="M273.29,-392.44C298.75,-383.4 339.1,-369.06 367.66,-358.92"/>
<polygon fill="midnightblue" stroke="midnightblue" points="368.98,-362.16 377.23,-355.52 366.63,-355.57 368.98,-362.16"/>
</g>
<!-- Node5 -->
<g id="node5" class="node">
<title>Node5</title>
<g id="a_node5"><a xlink:href="core_8h.html" target="_top" xlink:title=" ">
<polygon fill="white" stroke="black" points="876.2,-112.5 876.2,-131.5 974.2,-131.5 974.2,-112.5 876.2,-112.5"/>
<text text-anchor="middle" x="925.2" y="-119.5" font-family="Helvetica,sans-Serif" font-size="10.00">gauri/core/core.h</text>
</a>
</g>
</g>
<!-- Node4&#45;&gt;Node5 -->
<g id="edge4" class="edge">
<title>Node4&#45;&gt;Node5</title>
<path fill="none" stroke="midnightblue" d="M223.12,-336.41C260.09,-316.48 354.67,-265.62 434.2,-224 482.46,-198.75 491.11,-183.88 543.2,-168 653.77,-134.29 789.48,-125.59 865.77,-123.5"/>
<polygon fill="midnightblue" stroke="midnightblue" points="866.22,-126.99 876.13,-123.24 866.04,-119.99 866.22,-126.99"/>
</g>
<!-- Node4&#45;&gt;Node12 -->
<g id="edge12" class="edge">
<title>Node4&#45;&gt;Node12</title>
<path fill="none" stroke="midnightblue" d="M237.94,-336.44C271.15,-327.2 324.19,-312.44 360.76,-302.26"/>
<polygon fill="midnightblue" stroke="midnightblue" points="361.91,-305.57 370.61,-299.52 360.03,-298.83 361.91,-305.57"/>
</g>
<!-- Node18 -->
<g id="node18" class="node">
<title>Node18</title>
<g id="a_node18"><a xlink:title=" ">
<polygon fill="white" stroke="#bfbfbf" points="224.7,-280.5 224.7,-299.5 271.7,-299.5 271.7,-280.5 224.7,-280.5"/>
<text text-anchor="middle" x="248.2" y="-287.5" font-family="Helvetica,sans-Serif" font-size="10.00">vector</text>
</a>
</g>
</g>
<!-- Node4&#45;&gt;Node18 -->
<g id="edge21" class="edge">
<title>Node4&#45;&gt;Node18</title>
<path fill="none" stroke="midnightblue" d="M213.97,-336.08C219.76,-328.46 228.26,-317.26 235.34,-307.94"/>
<polygon fill="midnightblue" stroke="midnightblue" points="238.3,-309.83 241.56,-299.75 232.72,-305.6 238.3,-309.83"/>
</g>
<!-- Node6 -->
<g id="node6" class="node">
<title>Node6</title>
<g id="a_node6"><a xlink:title=" ">
<polygon fill="white" stroke="#bfbfbf" points="147.2,-56.5 147.2,-75.5 197.2,-75.5 197.2,-56.5 147.2,-56.5"/>
<text text-anchor="middle" x="172.2" y="-63.5" font-family="Helvetica,sans-Serif" font-size="10.00">cstdint</text>
</a>
</g>
</g>
<!-- Node5&#45;&gt;Node6 -->
<g id="edge5" class="edge">
<title>Node5&#45;&gt;Node6</title>
<path fill="none" stroke="midnightblue" d="M876.09,-117.48C734.87,-107.35 330.06,-78.32 207.67,-69.54"/>
<polygon fill="midnightblue" stroke="midnightblue" points="207.6,-66.03 197.38,-68.81 207.1,-73.01 207.6,-66.03"/>
</g>
<!-- Node7 -->
<g id="node7" class="node">
<title>Node7</title>
<g id="a_node7"><a xlink:title=" ">
<polygon fill="white" stroke="#bfbfbf" points="1349.2,-0.5 1349.2,-19.5 1407.2,-19.5 1407.2,-0.5 1349.2,-0.5"/>
<text text-anchor="middle" x="1378.2" y="-7.5" font-family="Helvetica,sans-Serif" font-size="10.00">memory</text>
</a>
</g>
</g>
<!-- Node5&#45;&gt;Node7 -->
<g id="edge6" class="edge">
<title>Node5&#45;&gt;Node7</title>
<path fill="none" stroke="midnightblue" d="M960.37,-112.46C1043.66,-92.24 1252.44,-41.54 1339.32,-20.44"/>
<polygon fill="midnightblue" stroke="midnightblue" points="1340.16,-23.84 1349.05,-18.08 1338.51,-17.04 1340.16,-23.84"/>
</g>
<!-- Node5&#45;&gt;Node8 -->
<g id="edge7" class="edge">
<title>Node5&#45;&gt;Node8</title>
<path fill="none" stroke="midnightblue" d="M934.36,-112.32C942.7,-104.42 955.23,-92.55 965.38,-82.94"/>
<polygon fill="midnightblue" stroke="midnightblue" points="968.02,-85.25 972.88,-75.83 963.21,-80.17 968.02,-85.25"/>
</g>
<!-- Node8&#45;&gt;Node7 -->
<g id="edge9" class="edge">
<title>Node8&#45;&gt;Node7</title>
<path fill="none" stroke="midnightblue" d="M1036.02,-57.66C1116.85,-46.64 1267.68,-26.07 1338.96,-16.35"/>
<polygon fill="midnightblue" stroke="midnightblue" points="1339.45,-19.82 1348.88,-15 1338.5,-12.88 1339.45,-19.82"/>
</g>
<!-- Node9 -->
<g id="node9" class="node">
<title>Node9</title>
<g id="a_node9"><a xlink:title=" ">
<polygon fill="white" stroke="#bfbfbf" points="957.2,-0.5 957.2,-19.5 1007.2,-19.5 1007.2,-0.5 957.2,-0.5"/>
<text text-anchor="middle" x="982.2" y="-7.5" font-family="Helvetica,sans-Serif" font-size="10.00">format</text>
</a>
</g>
</g>
<!-- Node8&#45;&gt;Node9 -->
<g id="edge8" class="edge">
<title>Node8&#45;&gt;Node9</title>
<path fill="none" stroke="midnightblue" d="M982.2,-56.08C982.2,-49.01 982.2,-38.86 982.2,-29.99"/>
<polygon fill="midnightblue" stroke="midnightblue" points="985.7,-29.75 982.2,-19.75 978.7,-29.75 985.7,-29.75"/>
</g>
<!-- Node10 -->
<g id="node10" class="node">
<title>Node10</title>
<g id="a_node10"><a xlink:title=" ">
<polygon fill="white" stroke="#bfbfbf" points="1025.7,-0.5 1025.7,-19.5 1124.7,-19.5 1124.7,-0.5 1025.7,-0.5"/>
<text text-anchor="middle" x="1075.2" y="-7.5" font-family="Helvetica,sans-Serif" font-size="10.00">spdlog/fmt/ostr.h</text>
</a>
</g>
</g>
<!-- Node8&#45;&gt;Node10 -->
<g id="edge10" class="edge">
<title>Node8&#45;&gt;Node10</title>
<path fill="none" stroke="midnightblue" d="M997.14,-56.32C1011.79,-47.82 1034.34,-34.73 1051.44,-24.8"/>
<polygon fill="midnightblue" stroke="midnightblue" points="1053.41,-27.7 1060.3,-19.65 1049.89,-21.65 1053.41,-27.7"/>
</g>
<!-- Node11 -->
<g id="node11" class="node">
<title>Node11</title>
<g id="a_node11"><a xlink:title=" ">
<polygon fill="white" stroke="#bfbfbf" points="845.7,-0.5 845.7,-19.5 938.7,-19.5 938.7,-0.5 845.7,-0.5"/>
<text text-anchor="middle" x="892.2" y="-7.5" font-family="Helvetica,sans-Serif" font-size="10.00">spdlog/spdlog.h</text>
</a>
</g>
</g>
<!-- Node8&#45;&gt;Node11 -->
<g id="edge11" class="edge">
<title>Node8&#45;&gt;Node11</title>
<path fill="none" stroke="midnightblue" d="M967.74,-56.32C953.7,-47.9 932.15,-34.97 915.66,-25.07"/>
<polygon fill="midnightblue" stroke="midnightblue" points="917,-21.8 906.63,-19.65 913.4,-27.8 917,-21.8"/>
</g>
<!-- Node12&#45;&gt;Node5 -->
<g id="edge13" class="edge">
<title>Node12&#45;&gt;Node5</title>
<path fill="none" stroke="midnightblue" d="M406.9,-280.27C416.64,-266.09 437.92,-238.21 463.2,-224 594.14,-150.39 773.88,-130.41 865.8,-125"/>
<polygon fill="midnightblue" stroke="midnightblue" points="866.23,-128.48 876.03,-124.44 865.85,-121.49 866.23,-128.48"/>
</g>
<!-- Node12&#45;&gt;Node13 -->
<g id="edge14" class="edge">
<title>Node12&#45;&gt;Node13</title>
<path fill="none" stroke="midnightblue" d="M422.12,-280.44C443.94,-271.52 478.35,-257.44 503.09,-247.32"/>
<polygon fill="midnightblue" stroke="midnightblue" points="504.45,-250.54 512.38,-243.52 501.8,-244.06 504.45,-250.54"/>
</g>
<!-- Node12&#45;&gt;Node14 -->
<g id="edge15" class="edge">
<title>Node12&#45;&gt;Node14</title>
<path fill="none" stroke="midnightblue" d="M373.79,-280.44C344.43,-271.28 297.68,-256.69 265.11,-246.52"/>
<polygon fill="midnightblue" stroke="midnightblue" points="266.07,-243.16 255.49,-243.52 263.99,-249.84 266.07,-243.16"/>
</g>
<!-- Node14&#45;&gt;Node5 -->
<g id="edge20" class="edge">
<title>Node14&#45;&gt;Node5</title>
<path fill="none" stroke="midnightblue" d="M235.52,-224.3C248.44,-209.64 276.93,-180.4 308.2,-168 408.55,-128.21 731.72,-123.16 865.92,-122.83"/>
<polygon fill="midnightblue" stroke="midnightblue" points="866.02,-126.33 876.02,-122.81 866.01,-119.33 866.02,-126.33"/>
</g>
<!-- Node14&#45;&gt;Node6 -->
<g id="edge16" class="edge">
<title>Node14&#45;&gt;Node6</title>
<path fill="none" stroke="midnightblue" d="M218.63,-224.35C209.99,-215.96 197.66,-202.39 191.2,-188 176.02,-154.17 172.7,-110.28 172.13,-85.74"/>
<polygon fill="midnightblue" stroke="midnightblue" points="175.63,-85.61 172.03,-75.65 168.63,-85.68 175.63,-85.61"/>
</g>
<!-- Node15 -->
<g id="node15" class="node">
<title>Node15</title>
<g id="a_node15"><a xlink:title=" ">
<polygon fill="white" stroke="#bfbfbf" points="78.7,-168.5 78.7,-187.5 143.7,-187.5 143.7,-168.5 78.7,-168.5"/>
<text text-anchor="middle" x="111.2" y="-175.5" font-family="Helvetica,sans-Serif" font-size="10.00">functional</text>
</a>
</g>
</g>
<!-- Node14&#45;&gt;Node15 -->
<g id="edge17" class="edge">
<title>Node14&#45;&gt;Node15</title>
<path fill="none" stroke="midnightblue" d="M209.66,-224.44C190.58,-215.64 160.63,-201.81 138.77,-191.72"/>
<polygon fill="midnightblue" stroke="midnightblue" points="140.2,-188.53 129.65,-187.52 137.27,-194.88 140.2,-188.53"/>
</g>
<!-- Node16 -->
<g id="node16" class="node">
<title>Node16</title>
<g id="a_node16"><a xlink:title=" ">
<polygon fill="white" stroke="#bfbfbf" points="200.2,-168.5 200.2,-187.5 256.2,-187.5 256.2,-168.5 200.2,-168.5"/>
<text text-anchor="middle" x="228.2" y="-175.5" font-family="Helvetica,sans-Serif" font-size="10.00">sstream</text>
</a>
</g>
</g>
<!-- Node14&#45;&gt;Node16 -->
<g id="edge18" class="edge">
<title>Node14&#45;&gt;Node16</title>
<path fill="none" stroke="midnightblue" d="M228.2,-224.08C228.2,-217.01 228.2,-206.86 228.2,-197.99"/>
<polygon fill="midnightblue" stroke="midnightblue" points="231.7,-197.75 228.2,-187.75 224.7,-197.75 231.7,-197.75"/>
</g>
<!-- Node17 -->
<g id="node17" class="node">
<title>Node17</title>
<g id="a_node17"><a xlink:title=" ">
<polygon fill="white" stroke="#bfbfbf" points="894.2,-168.5 894.2,-187.5 938.2,-187.5 938.2,-168.5 894.2,-168.5"/>
<text text-anchor="middle" x="916.2" y="-175.5" font-family="Helvetica,sans-Serif" font-size="10.00">string</text>
</a>
</g>
</g>
<!-- Node14&#45;&gt;Node17 -->
<g id="edge19" class="edge">
<title>Node14&#45;&gt;Node17</title>
<path fill="none" stroke="midnightblue" d="M284.21,-228.6C422.2,-217.77 775.19,-190.07 883.87,-181.54"/>
<polygon fill="midnightblue" stroke="midnightblue" points="884.2,-185.02 893.89,-180.75 883.65,-178.04 884.2,-185.02"/>
</g>
<!-- Node19&#45;&gt;Node6 -->
<g id="edge24" class="edge">
<title>Node19&#45;&gt;Node6</title>
<path fill="none" stroke="midnightblue" d="M99.44,-280.38C64.6,-253.84 -32.87,-171.5 12.2,-112 27.25,-92.13 94.85,-78.59 137.22,-71.88"/>
<polygon fill="midnightblue" stroke="midnightblue" points="137.79,-75.33 147.15,-70.36 136.73,-68.41 137.79,-75.33"/>
</g>
<!-- Node19&#45;&gt;Node14 -->
<g id="edge27" class="edge">
<title>Node19&#45;&gt;Node14</title>
<path fill="none" stroke="midnightblue" d="M129.74,-280.44C148.82,-271.64 178.78,-257.81 200.64,-247.72"/>
<polygon fill="midnightblue" stroke="midnightblue" points="202.14,-250.88 209.75,-243.52 199.2,-244.53 202.14,-250.88"/>
</g>
<!-- Node19&#45;&gt;Node15 -->
<g id="edge25" class="edge">
<title>Node19&#45;&gt;Node15</title>
<path fill="none" stroke="midnightblue" d="M111.2,-280.37C111.2,-262.62 111.2,-221.67 111.2,-197.6"/>
<polygon fill="midnightblue" stroke="midnightblue" points="114.7,-197.59 111.2,-187.59 107.7,-197.59 114.7,-197.59"/>
</g>
<!-- Node19&#45;&gt;Node17 -->
<g id="edge26" class="edge">
<title>Node19&#45;&gt;Node17</title>
<path fill="none" stroke="midnightblue" d="M151.14,-280.5C216.24,-266.89 349.37,-240.13 463.2,-224 620.2,-201.75 809.35,-186.73 883.83,-181.28"/>
<polygon fill="midnightblue" stroke="midnightblue" points="884.25,-184.76 893.97,-180.55 883.74,-177.78 884.25,-184.76"/>
</g>
<!-- Node20&#45;&gt;Node12 -->
<g id="edge30" class="edge">
<title>Node20&#45;&gt;Node12</title>
<path fill="none" stroke="midnightblue" d="M401.2,-336.08C401.2,-329.01 401.2,-318.86 401.2,-309.99"/>
<polygon fill="midnightblue" stroke="midnightblue" points="404.7,-309.75 401.2,-299.75 397.7,-309.75 404.7,-309.75"/>
</g>
<!-- Node21&#45;&gt;Node17 -->
<g id="edge37" class="edge">
<title>Node21&#45;&gt;Node17</title>
<path fill="none" stroke="midnightblue" d="M908.3,-392.46C927.65,-385.92 949.63,-374.72 961.2,-356 993.5,-303.73 951.12,-229.18 928.61,-196.02"/>
<polygon fill="midnightblue" stroke="midnightblue" points="931.47,-194 922.86,-187.82 925.73,-198.02 931.47,-194"/>
</g>
<!-- Node22 -->
<g id="node22" class="node">
<title>Node22</title>
<g id="a_node22"><a xlink:title=" ">
<polygon fill="white" stroke="#bfbfbf" points="680.2,-336.5 680.2,-355.5 744.2,-355.5 744.2,-336.5 680.2,-336.5"/>
<text text-anchor="middle" x="712.2" y="-343.5" font-family="Helvetica,sans-Serif" font-size="10.00">algorithm</text>
</a>
</g>
</g>
<!-- Node21&#45;&gt;Node22 -->
<g id="edge34" class="edge">
<title>Node21&#45;&gt;Node22</title>
<path fill="none" stroke="midnightblue" d="M846.01,-392.44C819.26,-383.36 776.8,-368.94 746.9,-358.78"/>
<polygon fill="midnightblue" stroke="midnightblue" points="747.87,-355.42 737.28,-355.52 745.62,-362.05 747.87,-355.42"/>
</g>
<!-- Node23 -->
<g id="node23" class="node">
<title>Node23</title>
<g id="a_node23"><a xlink:title=" ">
<polygon fill="white" stroke="#bfbfbf" points="762.2,-336.5 762.2,-355.5 812.2,-355.5 812.2,-336.5 762.2,-336.5"/>
<text text-anchor="middle" x="787.2" y="-343.5" font-family="Helvetica,sans-Serif" font-size="10.00">chrono</text>
</a>
</g>
</g>
<!-- Node21&#45;&gt;Node23 -->
<g id="edge35" class="edge">
<title>Node21&#45;&gt;Node23</title>
<path fill="none" stroke="midnightblue" d="M857.71,-392.32C844.6,-383.9 824.49,-370.97 809.09,-361.07"/>
<polygon fill="midnightblue" stroke="midnightblue" points="810.97,-358.12 800.66,-355.65 807.18,-364.01 810.97,-358.12"/>
</g>
<!-- Node24 -->
<g id="node24" class="node">
<title>Node24</title>
<g id="a_node24"><a xlink:title=" ">
<polygon fill="white" stroke="#bfbfbf" points="830.7,-336.5 830.7,-355.5 885.7,-355.5 885.7,-336.5 830.7,-336.5"/>
<text text-anchor="middle" x="858.2" y="-343.5" font-family="Helvetica,sans-Serif" font-size="10.00">fstream</text>
</a>
</g>
</g>
<!-- Node21&#45;&gt;Node24 -->
<g id="edge36" class="edge">
<title>Node21&#45;&gt;Node24</title>
<path fill="none" stroke="midnightblue" d="M869.05,-392.08C867.33,-384.93 864.85,-374.64 862.7,-365.69"/>
<polygon fill="midnightblue" stroke="midnightblue" points="866.05,-364.65 860.31,-355.75 859.25,-366.29 866.05,-364.65"/>
</g>
<!-- Node25 -->
<g id="node25" class="node">
<title>Node25</title>
<g id="a_node25"><a xlink:title=" ">
<polygon fill="white" stroke="#bfbfbf" points="904.2,-336.5 904.2,-355.5 952.2,-355.5 952.2,-336.5 904.2,-336.5"/>
<text text-anchor="middle" x="928.2" y="-343.5" font-family="Helvetica,sans-Serif" font-size="10.00">thread</text>
</a>
</g>
</g>
<!-- Node21&#45;&gt;Node25 -->
<g id="edge38" class="edge">
<title>Node21&#45;&gt;Node25</title>
<path fill="none" stroke="midnightblue" d="M880.36,-392.32C888.7,-384.42 901.23,-372.55 911.38,-362.94"/>
<polygon fill="midnightblue" stroke="midnightblue" points="914.02,-365.25 918.88,-355.83 909.21,-360.17 914.02,-365.25"/>
</g>
<!-- Node26&#45;&gt;Node5 -->
<g id="edge41" class="edge">
<title>Node26&#45;&gt;Node5</title>
<path fill="none" stroke="midnightblue" d="M1013.67,-224.37C997.69,-206.05 960.15,-163.05 939.48,-139.36"/>
<polygon fill="midnightblue" stroke="midnightblue" points="941.91,-136.82 932.7,-131.59 936.64,-141.43 941.91,-136.82"/>
</g>
<!-- Node29&#45;&gt;Node30 -->
<g id="edge46" class="edge">
<title>Node29&#45;&gt;Node30</title>
<path fill="none" stroke="midnightblue" d="M1547.21,-336.08C1546.42,-328.93 1545.27,-318.64 1544.28,-309.69"/>
<polygon fill="midnightblue" stroke="midnightblue" points="1547.76,-309.3 1543.17,-299.75 1540.8,-310.08 1547.76,-309.3"/>
</g>
<!-- Node30&#45;&gt;Node7 -->
<g id="edge48" class="edge">
<title>Node30&#45;&gt;Node7</title>
<path fill="none" stroke="midnightblue" d="M1526.67,-280.46C1513.77,-272.6 1495.85,-259.78 1485.2,-244 1468.37,-219.05 1466.2,-209.1 1466.2,-179 1466.2,-179 1466.2,-179 1466.2,-121 1466.2,-79.03 1426.66,-43.9 1400.59,-25.3"/>
<polygon fill="midnightblue" stroke="midnightblue" points="1402.57,-22.41 1392.34,-19.64 1398.61,-28.18 1402.57,-22.41"/>
</g>
<!-- Node31 -->
<g id="node31" class="node">
<title>Node31</title>
<g id="a_node31"><a xlink:title=" ">
<polygon fill="white" stroke="#bfbfbf" points="1190.2,-224.5 1190.2,-243.5 1268.2,-243.5 1268.2,-224.5 1190.2,-224.5"/>
<text text-anchor="middle" x="1229.2" y="-231.5" font-family="Helvetica,sans-Serif" font-size="10.00">glm/glm.hpp</text>
</a>
</g>
</g>
<!-- Node30&#45;&gt;Node31 -->
<g id="edge47" class="edge">
<title>Node30&#45;&gt;Node31</title>
<path fill="none" stroke="midnightblue" d="M1492.61,-280.44C1434.06,-270.34 1337.3,-253.65 1278.77,-243.55"/>
<polygon fill="midnightblue" stroke="midnightblue" points="1279.1,-240.06 1268.66,-241.81 1277.91,-246.96 1279.1,-240.06"/>
</g>
<!-- Node30&#45;&gt;Node32 -->
<g id="edge49" class="edge">
<title>Node30&#45;&gt;Node32</title>
<path fill="none" stroke="midnightblue" d="M1547.32,-280.08C1551.61,-272.61 1557.86,-261.72 1563.14,-252.52"/>
<polygon fill="midnightblue" stroke="midnightblue" points="1566.23,-254.17 1568.18,-243.75 1560.16,-250.68 1566.23,-254.17"/>
</g>
<!-- Node32&#45;&gt;Node7 -->
<g id="edge50" class="edge">
<title>Node32&#45;&gt;Node7</title>
<path fill="none" stroke="midnightblue" d="M1570.9,-224.36C1563,-196.32 1534.49,-106.7 1480.2,-56 1462.58,-39.54 1437.94,-28.44 1417.3,-21.38"/>
<polygon fill="midnightblue" stroke="midnightblue" points="1418.12,-17.97 1407.53,-18.24 1415.98,-24.64 1418.12,-17.97"/>
</g>
<!-- Node32&#45;&gt;Node33 -->
<g id="edge51" class="edge">
<title>Node32&#45;&gt;Node33</title>
<path fill="none" stroke="midnightblue" d="M1530.1,-224.44C1482.35,-214.96 1405.34,-199.67 1354.01,-189.48"/>
<polygon fill="midnightblue" stroke="midnightblue" points="1354.59,-186.03 1344.1,-187.52 1353.23,-192.9 1354.59,-186.03"/>
</g>
<!-- Node33&#45;&gt;Node5 -->
<g id="edge52" class="edge">
<title>Node33&#45;&gt;Node5</title>
<path fill="none" stroke="midnightblue" d="M1241.62,-168.44C1171.16,-158.32 1054.6,-141.58 984.34,-131.49"/>
<polygon fill="midnightblue" stroke="midnightblue" points="984.71,-128.01 974.32,-130.05 983.72,-134.94 984.71,-128.01"/>
</g>
<!-- Node33&#45;&gt;Node8 -->
<g id="edge53" class="edge">
<title>Node33&#45;&gt;Node8</title>
<path fill="none" stroke="midnightblue" d="M1276.44,-168.46C1220.02,-149.01 1081.83,-101.36 1016.93,-78.98"/>
<polygon fill="midnightblue" stroke="midnightblue" points="1017.77,-75.56 1007.17,-75.61 1015.48,-82.18 1017.77,-75.56"/>
</g>
<!-- Node34&#45;&gt;Node29 -->
<g id="edge57" class="edge">
<title>Node34&#45;&gt;Node29</title>
<path fill="none" stroke="midnightblue" d="M1365.59,-392.44C1403.12,-383.1 1463.33,-368.12 1504.27,-357.93"/>
<polygon fill="midnightblue" stroke="midnightblue" points="1505.12,-361.33 1513.98,-355.52 1503.43,-354.53 1505.12,-361.33"/>
</g>
<!-- Node34&#45;&gt;Node30 -->
<g id="edge58" class="edge">
<title>Node34&#45;&gt;Node30</title>
<path fill="none" stroke="midnightblue" d="M1346.19,-392.29C1368.29,-379.53 1411.04,-355.2 1448.2,-336 1470.1,-324.69 1495.32,-312.67 1514.12,-303.9"/>
<polygon fill="midnightblue" stroke="midnightblue" points="1515.71,-307.02 1523.31,-299.63 1512.77,-300.67 1515.71,-307.02"/>
</g>
<!-- Node34&#45;&gt;Node35 -->
<g id="edge55" class="edge">
<title>Node34&#45;&gt;Node35</title>
<path fill="none" stroke="midnightblue" d="M1313.85,-392.32C1296.53,-383.66 1269.69,-370.24 1249.7,-360.25"/>
<polygon fill="midnightblue" stroke="midnightblue" points="1251.02,-357 1240.51,-355.65 1247.89,-363.26 1251.02,-357"/>
</g>
<!-- Node34&#45;&gt;Node36 -->
<g id="edge59" class="edge">
<title>Node34&#45;&gt;Node36</title>
<path fill="none" stroke="midnightblue" d="M1334.66,-392.32C1339.45,-378.72 1346.15,-352.24 1333.2,-336 1317.88,-316.79 1260.33,-305.12 1211.36,-298.5"/>
<polygon fill="midnightblue" stroke="midnightblue" points="1211.74,-295.02 1201.37,-297.21 1210.84,-301.97 1211.74,-295.02"/>
</g>
<!-- Node35&#45;&gt;Node31 -->
<g id="edge56" class="edge">
<title>Node35&#45;&gt;Node31</title>
<path fill="none" stroke="midnightblue" d="M1223.67,-336.37C1224.64,-318.62 1226.87,-277.67 1228.19,-253.6"/>
<polygon fill="midnightblue" stroke="midnightblue" points="1231.68,-253.77 1228.73,-243.59 1224.69,-253.39 1231.68,-253.77"/>
</g>
<!-- Node36&#45;&gt;Node5 -->
<g id="edge62" class="edge">
<title>Node36&#45;&gt;Node5</title>
<path fill="none" stroke="midnightblue" d="M1134.11,-280.45C1130.44,-267.02 1121.74,-240.78 1106.2,-224 1065.29,-179.83 1000.54,-150.25 960.58,-135.06"/>
<polygon fill="midnightblue" stroke="midnightblue" points="961.58,-131.7 950.99,-131.51 959.15,-138.26 961.58,-131.7"/>
</g>
<!-- Node36&#45;&gt;Node17 -->
<g id="edge61" class="edge">
<title>Node36&#45;&gt;Node17</title>
<path fill="none" stroke="midnightblue" d="M1131.31,-280.39C1122.92,-266.39 1104.39,-238.78 1081.2,-224 1040.02,-197.75 983.64,-186.66 948.59,-182.08"/>
<polygon fill="midnightblue" stroke="midnightblue" points="948.79,-178.58 938.44,-180.86 947.95,-185.53 948.79,-178.58"/>
</g>
<!-- Node36&#45;&gt;Node31 -->
<g id="edge60" class="edge">
<title>Node36&#45;&gt;Node31</title>
<path fill="none" stroke="midnightblue" d="M1151.14,-280.32C1165.79,-271.82 1188.34,-258.73 1205.44,-248.8"/>
<polygon fill="midnightblue" stroke="midnightblue" points="1207.41,-251.7 1214.3,-243.65 1203.89,-245.65 1207.41,-251.7"/>
</g>
<!-- Node37&#45;&gt;Node35 -->
<g id="edge64" class="edge">
<title>Node37&#45;&gt;Node35</title>
<path fill="none" stroke="midnightblue" d="M1102.02,-392.44C1126.03,-383.44 1164.03,-369.19 1191.07,-359.05"/>
<polygon fill="midnightblue" stroke="midnightblue" points="1192.36,-362.3 1200.49,-355.52 1189.9,-355.75 1192.36,-362.3"/>
</g>
<!-- Node37&#45;&gt;Node38 -->
<g id="edge65" class="edge">
<title>Node37&#45;&gt;Node38</title>
<path fill="none" stroke="midnightblue" d="M1063.58,-392.32C1041.02,-379.8 997.99,-355.99 961.2,-336 941.51,-325.3 919.15,-313.33 902.45,-304.43"/>
<polygon fill="midnightblue" stroke="midnightblue" points="903.81,-301.18 893.34,-299.57 900.52,-307.36 903.81,-301.18"/>
</g>
<!-- Node38&#45;&gt;Node5 -->
<g id="edge67" class="edge">
<title>Node38&#45;&gt;Node5</title>
<path fill="none" stroke="midnightblue" d="M875.93,-280.36C873.29,-259.89 868.78,-207.23 885.2,-168 889.86,-156.86 898.46,-146.62 906.49,-138.72"/>
<polygon fill="midnightblue" stroke="midnightblue" points="909.18,-141.01 914.17,-131.67 904.44,-135.86 909.18,-141.01"/>
</g>
<!-- Node38&#45;&gt;Node17 -->
<g id="edge66" class="edge">
<title>Node38&#45;&gt;Node17</title>
<path fill="none" stroke="midnightblue" d="M880.26,-280.37C886.58,-262.54 901.21,-221.3 909.72,-197.27"/>
<polygon fill="midnightblue" stroke="midnightblue" points="913.11,-198.19 913.16,-187.59 906.52,-195.85 913.11,-198.19"/>
</g>
<!-- Node39&#45;&gt;Node13 -->
<g id="edge74" class="edge">
<title>Node39&#45;&gt;Node13</title>
<path fill="none" stroke="midnightblue" d="M576.01,-392.35C573.12,-372.28 565.01,-321.17 552.2,-280 549.37,-270.89 545.35,-261.1 541.75,-252.98"/>
<polygon fill="midnightblue" stroke="midnightblue" points="544.87,-251.4 537.51,-243.77 538.51,-254.32 544.87,-251.4"/>
</g>
<!-- Node39&#45;&gt;Node14 -->
<g id="edge75" class="edge">
<title>Node39&#45;&gt;Node14</title>
<path fill="none" stroke="midnightblue" d="M571.61,-392.24C556.63,-369.56 513.12,-308.7 460.2,-280 408.85,-252.15 342.86,-241.36 294.4,-237.27"/>
<polygon fill="midnightblue" stroke="midnightblue" points="294.57,-233.77 284.33,-236.49 294.03,-240.75 294.57,-233.77"/>
</g>
<!-- Node39&#45;&gt;Node35 -->
<g id="edge76" class="edge">
<title>Node39&#45;&gt;Node35</title>
<path fill="none" stroke="midnightblue" d="M679.21,-392.47C797.22,-382.61 990.84,-366.42 1112.45,-356.26"/>
<polygon fill="midnightblue" stroke="midnightblue" points="1112.86,-359.74 1122.53,-355.42 1112.27,-352.76 1112.86,-359.74"/>
</g>
</g>
</svg>
