<?xml version="1.0" encoding="UTF-8" standalone="no"?>
<!DOCTYPE svg PUBLIC "-//W3C//DTD SVG 1.1//EN"
 "http://www.w3.org/Graphics/SVG/1.1/DTD/svg11.dtd">
<!-- Generated by graphviz version 2.43.0 (0)
 -->
<!-- Title: /home/runner/work/gauri/gauri/gauri/include/gauri/entry_point.h Pages: 1 -->
<svg width="1621pt" height="532pt"
 viewBox="0.00 0.00 1620.50 532.00" xmlns="http://www.w3.org/2000/svg" xmlns:xlink="http://www.w3.org/1999/xlink">
<g id="graph0" class="graph" transform="scale(1 1) rotate(0) translate(4 528)">
<title>/home/runner/work/gauri/gauri/gauri/include/gauri/entry_point.h</title>
<polygon fill="white" stroke="transparent" points="-4,4 -4,-528 1616.5,-528 1616.5,4 -4,4"/>
<!-- Node1 -->
<g id="node1" class="node">
<title>Node1</title>
<g id="a_node1"><a xlink:title=" ">
<polygon fill="#bfbfbf" stroke="black" points="582,-504.5 582,-523.5 908,-523.5 908,-504.5 582,-504.5"/>
<text text-anchor="middle" x="745" y="-511.5" font-family="Helvetica,sans-Serif" font-size="10.00">/home/runner/work/gauri/gauri/gauri/include/gauri/entry_point.h</text>
</a>
</g>
</g>
<!-- Node2 -->
<g id="node2" class="node">
<title>Node2</title>
<g id="a_node2"><a xlink:href="gauri_8h.html" target="_top" xlink:title=" ">
<polygon fill="white" stroke="black" points="720,-448.5 720,-467.5 770,-467.5 770,-448.5 720,-448.5"/>
<text text-anchor="middle" x="745" y="-455.5" font-family="Helvetica,sans-Serif" font-size="10.00">gauri.h</text>
</a>
</g>
</g>
<!-- Node1&#45;&gt;Node2 -->
<g id="edge1" class="edge">
<title>Node1&#45;&gt;Node2</title>
<path fill="none" stroke="midnightblue" d="M739.83,-504.08C738.32,-496.93 737.89,-486.64 738.54,-477.69"/>
<polygon fill="midnightblue" stroke="midnightblue" points="742.02,-478.13 739.87,-467.75 735.08,-477.2 742.02,-478.13"/>
</g>
<!-- Node2&#45;&gt;Node1 -->
<g id="edge64" class="edge">
<title>Node2&#45;&gt;Node1</title>
<path fill="none" stroke="midnightblue" d="M750.13,-467.75C751.66,-474.86 752.1,-485.14 751.47,-494.1"/>
<polygon fill="midnightblue" stroke="midnightblue" points="747.99,-493.71 750.17,-504.08 754.93,-494.62 747.99,-493.71"/>
</g>
<!-- Node3 -->
<g id="node3" class="node">
<title>Node3</title>
<g id="a_node3"><a xlink:href="application_8h.html" target="_top" xlink:title=" ">
<polygon fill="white" stroke="black" points="412.5,-392.5 412.5,-411.5 519.5,-411.5 519.5,-392.5 412.5,-392.5"/>
<text text-anchor="middle" x="466" y="-399.5" font-family="Helvetica,sans-Serif" font-size="10.00">gauri/application.h</text>
</a>
</g>
</g>
<!-- Node2&#45;&gt;Node3 -->
<g id="edge2" class="edge">
<title>Node2&#45;&gt;Node3</title>
<path fill="none" stroke="midnightblue" d="M719.75,-452.11C674.86,-443.42 580.25,-425.11 520.09,-413.47"/>
<polygon fill="midnightblue" stroke="midnightblue" points="520.5,-409.98 510.01,-411.52 519.17,-416.86 520.5,-409.98"/>
</g>
<!-- Node4 -->
<g id="node4" class="node">
<title>Node4</title>
<g id="a_node4"><a xlink:href="time__step_8h.html" target="_top" xlink:title=" ">
<polygon fill="white" stroke="black" points="118,-224.5 118,-243.5 244,-243.5 244,-224.5 118,-224.5"/>
<text text-anchor="middle" x="181" y="-231.5" font-family="Helvetica,sans-Serif" font-size="10.00">gauri/core/time_step.h</text>
</a>
</g>
</g>
<!-- Node2&#45;&gt;Node4 -->
<g id="edge33" class="edge">
<title>Node2&#45;&gt;Node4</title>
<path fill="none" stroke="midnightblue" d="M719.89,-456.96C631.27,-456.46 333.96,-451.78 249,-412 194.52,-386.49 183.27,-359.27 173,-300 170.33,-284.58 172.84,-266.94 175.74,-253.94"/>
<polygon fill="midnightblue" stroke="midnightblue" points="179.23,-254.42 178.26,-243.87 172.44,-252.72 179.23,-254.42"/>
</g>
<!-- Node12 -->
<g id="node12" class="node">
<title>Node12</title>
<g id="a_node12"><a xlink:href="logger_8h.html" target="_top" xlink:title=" ">
<polygon fill="white" stroke="black" points="727.5,-56.5 727.5,-75.5 810.5,-75.5 810.5,-56.5 727.5,-56.5"/>
<text text-anchor="middle" x="769" y="-63.5" font-family="Helvetica,sans-Serif" font-size="10.00">gauri/logger.h</text>
</a>
</g>
</g>
<!-- Node2&#45;&gt;Node12 -->
<g id="edge32" class="edge">
<title>Node2&#45;&gt;Node12</title>
<path fill="none" stroke="midnightblue" d="M719.73,-456.28C604.69,-452.85 133.52,-437.39 73,-412 32.94,-395.2 0,-390.44 0,-347 0,-347 0,-347 0,-177 0,-140.68 544.79,-87.57 717.29,-71.67"/>
<polygon fill="midnightblue" stroke="midnightblue" points="717.74,-75.14 727.38,-70.74 717.1,-68.17 717.74,-75.14"/>
</g>
<!-- Node16 -->
<g id="node16" class="node">
<title>Node16</title>
<g id="a_node16"><a xlink:href="imgui__layer_8h.html" target="_top" xlink:title=" ">
<polygon fill="white" stroke="black" points="209.5,-336.5 209.5,-355.5 350.5,-355.5 350.5,-336.5 209.5,-336.5"/>
<text text-anchor="middle" x="280" y="-343.5" font-family="Helvetica,sans-Serif" font-size="10.00">gauri/imgui/imgui_layer.h</text>
</a>
</g>
</g>
<!-- Node2&#45;&gt;Node16 -->
<g id="edge38" class="edge">
<title>Node2&#45;&gt;Node16</title>
<path fill="none" stroke="midnightblue" d="M719.96,-456.67C662.66,-455.29 518.13,-448.18 404,-412 365.75,-399.87 325.27,-376.36 301.34,-361.18"/>
<polygon fill="midnightblue" stroke="midnightblue" points="303.03,-358.11 292.73,-355.63 299.23,-363.99 303.03,-358.11"/>
</g>
<!-- Node17 -->
<g id="node17" class="node">
<title>Node17</title>
<g id="a_node17"><a xlink:href="layer_8h.html" target="_top" xlink:title=" ">
<polygon fill="white" stroke="black" points="219.5,-280.5 219.5,-299.5 296.5,-299.5 296.5,-280.5 219.5,-280.5"/>
<text text-anchor="middle" x="258" y="-287.5" font-family="Helvetica,sans-Serif" font-size="10.00">gauri/layer.h</text>
</a>
</g>
</g>
<!-- Node2&#45;&gt;Node17 -->
<g id="edge31" class="edge">
<title>Node2&#45;&gt;Node17</title>
<path fill="none" stroke="midnightblue" d="M719.98,-456.73C621.21,-455.03 260.87,-442.9 200,-356 186.64,-336.92 210.34,-317.28 231.35,-304.65"/>
<polygon fill="midnightblue" stroke="midnightblue" points="233.11,-307.67 240.07,-299.69 229.65,-301.59 233.11,-307.67"/>
</g>
<!-- Node21 -->
<g id="node21" class="node">
<title>Node21</title>
<g id="a_node21"><a xlink:href="input_8h.html" target="_top" xlink:title=" ">
<polygon fill="white" stroke="black" points="28,-280.5 28,-299.5 106,-299.5 106,-280.5 28,-280.5"/>
<text text-anchor="middle" x="67" y="-287.5" font-family="Helvetica,sans-Serif" font-size="10.00">gauri/input.h</text>
</a>
</g>
</g>
<!-- Node2&#45;&gt;Node21 -->
<g id="edge34" class="edge">
<title>Node2&#45;&gt;Node21</title>
<path fill="none" stroke="midnightblue" d="M719.91,-457.04C605.76,-456.99 138.94,-454.21 91,-412 62.03,-386.49 61.95,-336.92 64.45,-309.81"/>
<polygon fill="midnightblue" stroke="midnightblue" points="67.95,-310.04 65.6,-299.71 60.99,-309.25 67.95,-310.04"/>
</g>
<!-- Node22 -->
<g id="node22" class="node">
<title>Node22</title>
<g id="a_node22"><a xlink:href="key__codes_8h.html" target="_top" xlink:title=" ">
<polygon fill="white" stroke="black" points="1333,-392.5 1333,-411.5 1437,-411.5 1437,-392.5 1333,-392.5"/>
<text text-anchor="middle" x="1385" y="-399.5" font-family="Helvetica,sans-Serif" font-size="10.00">gauri/key_codes.h</text>
</a>
</g>
</g>
<!-- Node2&#45;&gt;Node22 -->
<g id="edge36" class="edge">
<title>Node2&#45;&gt;Node22</title>
<path fill="none" stroke="midnightblue" d="M770.23,-455.54C850.52,-450.78 1107.3,-434.71 1319,-412 1320.26,-411.86 1321.54,-411.72 1322.82,-411.58"/>
<polygon fill="midnightblue" stroke="midnightblue" points="1323.28,-415.05 1332.79,-410.4 1322.45,-408.1 1323.28,-415.05"/>
</g>
<!-- Node23 -->
<g id="node23" class="node">
<title>Node23</title>
<g id="a_node23"><a xlink:href="mouse__button__codes_8h.html" target="_top" xlink:title=" ">
<polygon fill="white" stroke="black" points="1455.5,-392.5 1455.5,-411.5 1612.5,-411.5 1612.5,-392.5 1455.5,-392.5"/>
<text text-anchor="middle" x="1534" y="-399.5" font-family="Helvetica,sans-Serif" font-size="10.00">gauri/mouse_button_codes.h</text>
</a>
</g>
</g>
<!-- Node2&#45;&gt;Node23 -->
<g id="edge37" class="edge">
<title>Node2&#45;&gt;Node23</title>
<path fill="none" stroke="midnightblue" d="M770.17,-455.73C860.11,-451.12 1174.18,-434.38 1445.3,-412.03"/>
<polygon fill="midnightblue" stroke="midnightblue" points="1445.65,-415.51 1455.33,-411.19 1445.08,-408.53 1445.65,-415.51"/>
</g>
<!-- Node24 -->
<g id="node24" class="node">
<title>Node24</title>
<g id="a_node24"><a xlink:href="render__command_8h.html" target="_top" xlink:title=" ">
<polygon fill="white" stroke="black" points="1093.5,-336.5 1093.5,-355.5 1276.5,-355.5 1276.5,-336.5 1093.5,-336.5"/>
<text text-anchor="middle" x="1185" y="-343.5" font-family="Helvetica,sans-Serif" font-size="10.00">gauri/renderer/render_command.h</text>
</a>
</g>
</g>
<!-- Node2&#45;&gt;Node24 -->
<g id="edge39" class="edge">
<title>Node2&#45;&gt;Node24</title>
<path fill="none" stroke="midnightblue" d="M770.06,-455.5C821.69,-451.92 943.3,-440.88 1041,-412 1084.76,-399.06 1132.47,-375.48 1160.5,-360.56"/>
<polygon fill="midnightblue" stroke="midnightblue" points="1162.42,-363.51 1169.56,-355.68 1159.1,-357.34 1162.42,-363.51"/>
</g>
<!-- Node25 -->
<g id="node25" class="node">
<title>Node25</title>
<g id="a_node25"><a xlink:href="renderer__api_8h.html" target="_top" xlink:title=" ">
<polygon fill="white" stroke="black" points="1057.5,-280.5 1057.5,-299.5 1216.5,-299.5 1216.5,-280.5 1057.5,-280.5"/>
<text text-anchor="middle" x="1137" y="-287.5" font-family="Helvetica,sans-Serif" font-size="10.00">gauri/renderer/renderer_api.h</text>
</a>
</g>
</g>
<!-- Node2&#45;&gt;Node25 -->
<g id="edge63" class="edge">
<title>Node2&#45;&gt;Node25</title>
<path fill="none" stroke="midnightblue" d="M770.3,-456.53C868.52,-454.09 1222.22,-439.54 1286,-356 1308.37,-326.7 1269.12,-310.38 1225.31,-301.42"/>
<polygon fill="midnightblue" stroke="midnightblue" points="1225.79,-297.95 1215.32,-299.51 1224.48,-304.82 1225.79,-297.95"/>
</g>
<!-- Node27 -->
<g id="node27" class="node">
<title>Node27</title>
<g id="a_node27"><a xlink:href="vertex__array_8h.html" target="_top" xlink:title=" ">
<polygon fill="white" stroke="black" points="954,-224.5 954,-243.5 1112,-243.5 1112,-224.5 954,-224.5"/>
<text text-anchor="middle" x="1033" y="-231.5" font-family="Helvetica,sans-Serif" font-size="10.00">gauri/renderer/vertex_array.h</text>
</a>
</g>
</g>
<!-- Node2&#45;&gt;Node27 -->
<g id="edge61" class="edge">
<title>Node2&#45;&gt;Node27</title>
<path fill="none" stroke="midnightblue" d="M770.13,-455.11C824.15,-450.6 949.13,-437.61 982,-412 1031.17,-373.69 1035.03,-291.12 1034.07,-253.89"/>
<polygon fill="midnightblue" stroke="midnightblue" points="1037.55,-253.35 1033.64,-243.5 1030.56,-253.64 1037.55,-253.35"/>
</g>
<!-- Node28 -->
<g id="node28" class="node">
<title>Node28</title>
<g id="a_node28"><a xlink:href="buffer_8h.html" target="_top" xlink:title=" ">
<polygon fill="white" stroke="black" points="820.5,-168.5 820.5,-187.5 945.5,-187.5 945.5,-168.5 820.5,-168.5"/>
<text text-anchor="middle" x="883" y="-175.5" font-family="Helvetica,sans-Serif" font-size="10.00">gauri/renderer/buffer.h</text>
</a>
</g>
</g>
<!-- Node2&#45;&gt;Node28 -->
<g id="edge56" class="edge">
<title>Node2&#45;&gt;Node28</title>
<path fill="none" stroke="midnightblue" d="M747.68,-448.32C754,-428.22 770.67,-377.02 789,-336 812.04,-284.44 818.55,-271.56 849,-224 855.27,-214.21 863.04,-203.82 869.57,-195.49"/>
<polygon fill="midnightblue" stroke="midnightblue" points="872.3,-197.67 875.81,-187.67 866.83,-193.3 872.3,-197.67"/>
</g>
<!-- Node29 -->
<g id="node29" class="node">
<title>Node29</title>
<g id="a_node29"><a xlink:href="renderer_8h.html" target="_top" xlink:title=" ">
<polygon fill="white" stroke="black" points="835,-392.5 835,-411.5 973,-411.5 973,-392.5 835,-392.5"/>
<text text-anchor="middle" x="904" y="-399.5" font-family="Helvetica,sans-Serif" font-size="10.00">gauri/renderer/renderer.h</text>
</a>
</g>
</g>
<!-- Node2&#45;&gt;Node29 -->
<g id="edge48" class="edge">
<title>Node2&#45;&gt;Node29</title>
<path fill="none" stroke="midnightblue" d="M770.19,-448.44C796.94,-439.36 839.4,-424.94 869.31,-414.78"/>
<polygon fill="midnightblue" stroke="midnightblue" points="870.58,-418.05 878.92,-411.52 868.33,-411.42 870.58,-418.05"/>
</g>
<!-- Node30 -->
<g id="node30" class="node">
<title>Node30</title>
<g id="a_node30"><a xlink:href="orthographic__camera_8h.html" target="_top" xlink:title=" ">
<polygon fill="white" stroke="black" points="797.5,-336.5 797.5,-355.5 998.5,-355.5 998.5,-336.5 797.5,-336.5"/>
<text text-anchor="middle" x="898" y="-343.5" font-family="Helvetica,sans-Serif" font-size="10.00">gauri/renderer/orthographic_camera.h</text>
</a>
</g>
</g>
<!-- Node2&#45;&gt;Node30 -->
<g id="edge62" class="edge">
<title>Node2&#45;&gt;Node30</title>
<path fill="none" stroke="midnightblue" d="M755.18,-448.18C770.24,-435.29 799.54,-410.79 826,-392 841.68,-380.87 860.07,-369.4 874.34,-360.83"/>
<polygon fill="midnightblue" stroke="midnightblue" points="876.25,-363.76 883.05,-355.64 872.67,-357.75 876.25,-363.76"/>
</g>
<!-- Node31 -->
<g id="node31" class="node">
<title>Node31</title>
<g id="a_node31"><a xlink:href="shader_8h.html" target="_top" xlink:title=" ">
<polygon fill="white" stroke="black" points="611,-336.5 611,-355.5 741,-355.5 741,-336.5 611,-336.5"/>
<text text-anchor="middle" x="676" y="-343.5" font-family="Helvetica,sans-Serif" font-size="10.00">gauri/renderer/shader.h</text>
</a>
</g>
</g>
<!-- Node2&#45;&gt;Node31 -->
<g id="edge57" class="edge">
<title>Node2&#45;&gt;Node31</title>
<path fill="none" stroke="midnightblue" d="M739.59,-448.37C728.25,-430.3 701.83,-388.18 686.86,-364.31"/>
<polygon fill="midnightblue" stroke="midnightblue" points="689.67,-362.2 681.39,-355.59 683.74,-365.92 689.67,-362.2"/>
</g>
<!-- Node32 -->
<g id="node32" class="node">
<title>Node32</title>
<g id="a_node32"><a xlink:href="texture_8h.html" target="_top" xlink:title=" ">
<polygon fill="white" stroke="black" points="630.5,-224.5 630.5,-243.5 763.5,-243.5 763.5,-224.5 630.5,-224.5"/>
<text text-anchor="middle" x="697" y="-231.5" font-family="Helvetica,sans-Serif" font-size="10.00">gauri/renderer/texture.h</text>
</a>
</g>
</g>
<!-- Node2&#45;&gt;Node32 -->
<g id="edge58" class="edge">
<title>Node2&#45;&gt;Node32</title>
<path fill="none" stroke="midnightblue" d="M721.33,-448.43C687.64,-434.78 627.16,-404.58 602,-356 579.67,-312.9 636.94,-270 672.03,-248.75"/>
<polygon fill="midnightblue" stroke="midnightblue" points="673.98,-251.67 680.83,-243.59 670.44,-245.63 673.98,-251.67"/>
</g>
<!-- Node3&#45;&gt;Node4 -->
<g id="edge3" class="edge">
<title>Node3&#45;&gt;Node4</title>
<path fill="none" stroke="midnightblue" d="M412.5,-399.14C343.51,-395.56 228.93,-385.27 200,-356 173.19,-328.87 174.62,-280.35 177.88,-253.74"/>
<polygon fill="midnightblue" stroke="midnightblue" points="181.35,-254.2 179.31,-243.8 174.42,-253.2 181.35,-254.2"/>
</g>
<!-- Node5 -->
<g id="node5" class="node">
<title>Node5</title>
<g id="a_node5"><a xlink:href="event_8h.html" target="_top" xlink:title=" ">
<polygon fill="white" stroke="black" points="348,-224.5 348,-243.5 460,-243.5 460,-224.5 348,-224.5"/>
<text text-anchor="middle" x="404" y="-231.5" font-family="Helvetica,sans-Serif" font-size="10.00">gauri/event/event.h</text>
</a>
</g>
</g>
<!-- Node3&#45;&gt;Node5 -->
<g id="edge4" class="edge">
<title>Node3&#45;&gt;Node5</title>
<path fill="none" stroke="midnightblue" d="M472.98,-392.09C481.96,-379.5 495.54,-355.82 488,-336 480.39,-315.99 469.8,-316.36 456,-300 442.37,-283.84 427.34,-264.93 416.96,-251.69"/>
<polygon fill="midnightblue" stroke="midnightblue" points="419.51,-249.26 410.59,-243.53 413.99,-253.56 419.51,-249.26"/>
</g>
<!-- Node3&#45;&gt;Node16 -->
<g id="edge17" class="edge">
<title>Node3&#45;&gt;Node16</title>
<path fill="none" stroke="midnightblue" d="M436.53,-392.44C404.83,-383.24 354.27,-368.56 319.23,-358.39"/>
<polygon fill="midnightblue" stroke="midnightblue" points="319.91,-354.94 309.33,-355.52 317.96,-361.67 319.91,-354.94"/>
</g>
<!-- Node18 -->
<g id="node18" class="node">
<title>Node18</title>
<g id="a_node18"><a xlink:href="layer__stack_8h.html" target="_top" xlink:title=" ">
<polygon fill="white" stroke="black" points="369,-336.5 369,-355.5 479,-355.5 479,-336.5 369,-336.5"/>
<text text-anchor="middle" x="424" y="-343.5" font-family="Helvetica,sans-Serif" font-size="10.00">gauri/layer_stack.h</text>
</a>
</g>
</g>
<!-- Node3&#45;&gt;Node18 -->
<g id="edge22" class="edge">
<title>Node3&#45;&gt;Node18</title>
<path fill="none" stroke="midnightblue" d="M459.06,-392.08C453.07,-384.38 444.25,-373.03 436.95,-363.65"/>
<polygon fill="midnightblue" stroke="midnightblue" points="439.71,-361.5 430.81,-355.75 434.18,-365.79 439.71,-361.5"/>
</g>
<!-- Node20 -->
<g id="node20" class="node">
<title>Node20</title>
<g id="a_node20"><a xlink:href="window_8h.html" target="_top" xlink:title=" ">
<polygon fill="white" stroke="black" points="465,-280.5 465,-299.5 555,-299.5 555,-280.5 465,-280.5"/>
<text text-anchor="middle" x="510" y="-287.5" font-family="Helvetica,sans-Serif" font-size="10.00">gauri/window.h</text>
</a>
</g>
</g>
<!-- Node3&#45;&gt;Node20 -->
<g id="edge26" class="edge">
<title>Node3&#45;&gt;Node20</title>
<path fill="none" stroke="midnightblue" d="M483.2,-392.39C496.25,-384.79 513.23,-372.39 521,-356 527.96,-341.31 523.81,-322.91 518.74,-309.44"/>
<polygon fill="midnightblue" stroke="midnightblue" points="521.8,-307.7 514.67,-299.86 515.36,-310.43 521.8,-307.7"/>
</g>
<!-- Node6 -->
<g id="node6" class="node">
<title>Node6</title>
<g id="a_node6"><a xlink:title=" ">
<polygon fill="white" stroke="#bfbfbf" points="557,-56.5 557,-75.5 607,-75.5 607,-56.5 557,-56.5"/>
<text text-anchor="middle" x="582" y="-63.5" font-family="Helvetica,sans-Serif" font-size="10.00">cstdint</text>
</a>
</g>
</g>
<!-- Node5&#45;&gt;Node6 -->
<g id="edge5" class="edge">
<title>Node5&#45;&gt;Node6</title>
<path fill="none" stroke="midnightblue" d="M392.84,-224.43C377.85,-211.85 354.47,-187.73 367,-168 406.73,-105.44 496.64,-80.94 546.69,-71.89"/>
<polygon fill="midnightblue" stroke="midnightblue" points="547.46,-75.31 556.73,-70.19 546.29,-68.41 547.46,-75.31"/>
</g>
<!-- Node7 -->
<g id="node7" class="node">
<title>Node7</title>
<g id="a_node7"><a xlink:title=" ">
<polygon fill="white" stroke="#bfbfbf" points="488.5,-168.5 488.5,-187.5 553.5,-187.5 553.5,-168.5 488.5,-168.5"/>
<text text-anchor="middle" x="521" y="-175.5" font-family="Helvetica,sans-Serif" font-size="10.00">functional</text>
</a>
</g>
</g>
<!-- Node5&#45;&gt;Node7 -->
<g id="edge6" class="edge">
<title>Node5&#45;&gt;Node7</title>
<path fill="none" stroke="midnightblue" d="M422.54,-224.44C441.62,-215.64 471.57,-201.81 493.44,-191.72"/>
<polygon fill="midnightblue" stroke="midnightblue" points="494.93,-194.88 502.55,-187.52 492,-188.53 494.93,-194.88"/>
</g>
<!-- Node8 -->
<g id="node8" class="node">
<title>Node8</title>
<g id="a_node8"><a xlink:title=" ">
<polygon fill="white" stroke="#bfbfbf" points="376,-168.5 376,-187.5 432,-187.5 432,-168.5 376,-168.5"/>
<text text-anchor="middle" x="404" y="-175.5" font-family="Helvetica,sans-Serif" font-size="10.00">sstream</text>
</a>
</g>
</g>
<!-- Node5&#45;&gt;Node8 -->
<g id="edge7" class="edge">
<title>Node5&#45;&gt;Node8</title>
<path fill="none" stroke="midnightblue" d="M404,-224.08C404,-217.01 404,-206.86 404,-197.99"/>
<polygon fill="midnightblue" stroke="midnightblue" points="407.5,-197.75 404,-187.75 400.5,-197.75 407.5,-197.75"/>
</g>
<!-- Node9 -->
<g id="node9" class="node">
<title>Node9</title>
<g id="a_node9"><a xlink:title=" ">
<polygon fill="white" stroke="#bfbfbf" points="610,-168.5 610,-187.5 654,-187.5 654,-168.5 610,-168.5"/>
<text text-anchor="middle" x="632" y="-175.5" font-family="Helvetica,sans-Serif" font-size="10.00">string</text>
</a>
</g>
</g>
<!-- Node5&#45;&gt;Node9 -->
<g id="edge8" class="edge">
<title>Node5&#45;&gt;Node9</title>
<path fill="none" stroke="midnightblue" d="M440.13,-224.44C484.11,-214.03 557.73,-196.59 599.84,-186.62"/>
<polygon fill="midnightblue" stroke="midnightblue" points="600.91,-189.96 609.83,-184.25 599.29,-183.15 600.91,-189.96"/>
</g>
<!-- Node10 -->
<g id="node10" class="node">
<title>Node10</title>
<g id="a_node10"><a xlink:href="core_8h.html" target="_top" xlink:title=" ">
<polygon fill="white" stroke="black" points="627,-112.5 627,-131.5 701,-131.5 701,-112.5 627,-112.5"/>
<text text-anchor="middle" x="664" y="-119.5" font-family="Helvetica,sans-Serif" font-size="10.00">gauri/core.h</text>
</a>
</g>
</g>
<!-- Node5&#45;&gt;Node10 -->
<g id="edge9" class="edge">
<title>Node5&#45;&gt;Node10</title>
<path fill="none" stroke="midnightblue" d="M411.49,-224.38C424.16,-210.37 451.26,-182.73 480,-168 523.52,-145.69 578.57,-134.12 617.07,-128.33"/>
<polygon fill="midnightblue" stroke="midnightblue" points="617.57,-131.8 626.97,-126.92 616.58,-124.87 617.57,-131.8"/>
</g>
<!-- Node10&#45;&gt;Node6 -->
<g id="edge10" class="edge">
<title>Node10&#45;&gt;Node6</title>
<path fill="none" stroke="midnightblue" d="M650.83,-112.32C638.15,-103.98 618.77,-91.21 603.79,-81.35"/>
<polygon fill="midnightblue" stroke="midnightblue" points="605.42,-78.23 595.14,-75.65 601.57,-84.08 605.42,-78.23"/>
</g>
<!-- Node11 -->
<g id="node11" class="node">
<title>Node11</title>
<g id="a_node11"><a xlink:title=" ">
<polygon fill="white" stroke="#bfbfbf" points="939,-0.5 939,-19.5 997,-19.5 997,-0.5 939,-0.5"/>
<text text-anchor="middle" x="968" y="-7.5" font-family="Helvetica,sans-Serif" font-size="10.00">memory</text>
</a>
</g>
</g>
<!-- Node10&#45;&gt;Node11 -->
<g id="edge11" class="edge">
<title>Node10&#45;&gt;Node11</title>
<path fill="none" stroke="midnightblue" d="M698.5,-112.46C730.4,-104.23 778.92,-90.87 820,-76 863.38,-60.29 912.09,-37.95 941.38,-23.97"/>
<polygon fill="midnightblue" stroke="midnightblue" points="943.04,-27.06 950.54,-19.58 940.01,-20.75 943.04,-27.06"/>
</g>
<!-- Node10&#45;&gt;Node12 -->
<g id="edge12" class="edge">
<title>Node10&#45;&gt;Node12</title>
<path fill="none" stroke="midnightblue" d="M680.87,-112.32C697.71,-103.66 723.81,-90.24 743.24,-80.25"/>
<polygon fill="midnightblue" stroke="midnightblue" points="744.88,-83.34 752.17,-75.65 741.68,-77.12 744.88,-83.34"/>
</g>
<!-- Node12&#45;&gt;Node11 -->
<g id="edge14" class="edge">
<title>Node12&#45;&gt;Node11</title>
<path fill="none" stroke="midnightblue" d="M800.53,-56.44C835.29,-47.01 891.26,-31.83 928.81,-21.63"/>
<polygon fill="midnightblue" stroke="midnightblue" points="930.15,-24.9 938.88,-18.9 928.31,-18.14 930.15,-24.9"/>
</g>
<!-- Node13 -->
<g id="node13" class="node">
<title>Node13</title>
<g id="a_node13"><a xlink:title=" ">
<polygon fill="white" stroke="#bfbfbf" points="834,-0.5 834,-19.5 884,-19.5 884,-0.5 834,-0.5"/>
<text text-anchor="middle" x="859" y="-7.5" font-family="Helvetica,sans-Serif" font-size="10.00">format</text>
</a>
</g>
</g>
<!-- Node12&#45;&gt;Node13 -->
<g id="edge13" class="edge">
<title>Node12&#45;&gt;Node13</title>
<path fill="none" stroke="midnightblue" d="M783.46,-56.32C797.5,-47.9 819.05,-34.97 835.54,-25.07"/>
<polygon fill="midnightblue" stroke="midnightblue" points="837.8,-27.8 844.58,-19.65 834.2,-21.8 837.8,-27.8"/>
</g>
<!-- Node14 -->
<g id="node14" class="node">
<title>Node14</title>
<g id="a_node14"><a xlink:title=" ">
<polygon fill="white" stroke="#bfbfbf" points="605.5,-0.5 605.5,-19.5 704.5,-19.5 704.5,-0.5 605.5,-0.5"/>
<text text-anchor="middle" x="655" y="-7.5" font-family="Helvetica,sans-Serif" font-size="10.00">spdlog/fmt/ostr.h</text>
</a>
</g>
</g>
<!-- Node12&#45;&gt;Node14 -->
<g id="edge15" class="edge">
<title>Node12&#45;&gt;Node14</title>
<path fill="none" stroke="midnightblue" d="M750.94,-56.44C732.43,-47.68 703.42,-33.94 682.14,-23.86"/>
<polygon fill="midnightblue" stroke="midnightblue" points="683.51,-20.63 672.98,-19.52 680.52,-26.96 683.51,-20.63"/>
</g>
<!-- Node15 -->
<g id="node15" class="node">
<title>Node15</title>
<g id="a_node15"><a xlink:title=" ">
<polygon fill="white" stroke="#bfbfbf" points="722.5,-0.5 722.5,-19.5 815.5,-19.5 815.5,-0.5 722.5,-0.5"/>
<text text-anchor="middle" x="769" y="-7.5" font-family="Helvetica,sans-Serif" font-size="10.00">spdlog/spdlog.h</text>
</a>
</g>
</g>
<!-- Node12&#45;&gt;Node15 -->
<g id="edge16" class="edge">
<title>Node12&#45;&gt;Node15</title>
<path fill="none" stroke="midnightblue" d="M769,-56.08C769,-49.01 769,-38.86 769,-29.99"/>
<polygon fill="midnightblue" stroke="midnightblue" points="772.5,-29.75 769,-19.75 765.5,-29.75 772.5,-29.75"/>
</g>
<!-- Node16&#45;&gt;Node17 -->
<g id="edge18" class="edge">
<title>Node16&#45;&gt;Node17</title>
<path fill="none" stroke="midnightblue" d="M276.37,-336.08C273.39,-328.77 269.07,-318.18 265.38,-309.1"/>
<polygon fill="midnightblue" stroke="midnightblue" points="268.58,-307.69 261.57,-299.75 262.1,-310.33 268.58,-307.69"/>
</g>
<!-- Node17&#45;&gt;Node4 -->
<g id="edge20" class="edge">
<title>Node17&#45;&gt;Node4</title>
<path fill="none" stroke="midnightblue" d="M245.63,-280.32C233.84,-272.06 215.87,-259.45 201.86,-249.63"/>
<polygon fill="midnightblue" stroke="midnightblue" points="203.54,-246.53 193.34,-243.65 199.52,-252.26 203.54,-246.53"/>
</g>
<!-- Node17&#45;&gt;Node5 -->
<g id="edge21" class="edge">
<title>Node17&#45;&gt;Node5</title>
<path fill="none" stroke="midnightblue" d="M281.13,-280.44C305.48,-271.44 344.01,-257.19 371.42,-247.05"/>
<polygon fill="midnightblue" stroke="midnightblue" points="372.81,-250.27 380.97,-243.52 370.38,-243.7 372.81,-250.27"/>
</g>
<!-- Node17&#45;&gt;Node10 -->
<g id="edge19" class="edge">
<title>Node17&#45;&gt;Node10</title>
<path fill="none" stroke="midnightblue" d="M257.79,-280.28C257.78,-257.68 261.14,-197.01 296,-168 343.72,-128.29 528.48,-122.87 616.66,-122.62"/>
<polygon fill="midnightblue" stroke="midnightblue" points="616.92,-126.12 626.92,-122.61 616.91,-119.12 616.92,-126.12"/>
</g>
<!-- Node18&#45;&gt;Node10 -->
<g id="edge23" class="edge">
<title>Node18&#45;&gt;Node10</title>
<path fill="none" stroke="midnightblue" d="M417.25,-336.49C407.29,-323.98 387.99,-299.96 371,-280 357.12,-263.7 346.61,-264.01 339,-244 326.21,-210.35 337.89,-189.17 367,-168 405.89,-139.72 542.9,-128.83 616.46,-124.95"/>
<polygon fill="midnightblue" stroke="midnightblue" points="617.02,-128.43 626.83,-124.43 616.67,-121.44 617.02,-128.43"/>
</g>
<!-- Node18&#45;&gt;Node17 -->
<g id="edge24" class="edge">
<title>Node18&#45;&gt;Node17</title>
<path fill="none" stroke="midnightblue" d="M397.7,-336.44C369.65,-327.32 325.06,-312.81 293.82,-302.65"/>
<polygon fill="midnightblue" stroke="midnightblue" points="294.77,-299.28 284.18,-299.52 292.61,-305.94 294.77,-299.28"/>
</g>
<!-- Node19 -->
<g id="node19" class="node">
<title>Node19</title>
<g id="a_node19"><a xlink:title=" ">
<polygon fill="white" stroke="#bfbfbf" points="314.5,-280.5 314.5,-299.5 361.5,-299.5 361.5,-280.5 314.5,-280.5"/>
<text text-anchor="middle" x="338" y="-287.5" font-family="Helvetica,sans-Serif" font-size="10.00">vector</text>
</a>
</g>
</g>
<!-- Node18&#45;&gt;Node19 -->
<g id="edge25" class="edge">
<title>Node18&#45;&gt;Node19</title>
<path fill="none" stroke="midnightblue" d="M410.18,-336.32C396.77,-327.9 376.18,-314.97 360.41,-305.07"/>
<polygon fill="midnightblue" stroke="midnightblue" points="362.11,-302.01 351.78,-299.65 358.39,-307.94 362.11,-302.01"/>
</g>
<!-- Node20&#45;&gt;Node5 -->
<g id="edge30" class="edge">
<title>Node20&#45;&gt;Node5</title>
<path fill="none" stroke="midnightblue" d="M492.97,-280.32C475.97,-271.66 449.62,-258.24 430.01,-248.25"/>
<polygon fill="midnightblue" stroke="midnightblue" points="431.49,-245.08 420.99,-243.65 428.31,-251.31 431.49,-245.08"/>
</g>
<!-- Node20&#45;&gt;Node6 -->
<g id="edge27" class="edge">
<title>Node20&#45;&gt;Node6</title>
<path fill="none" stroke="midnightblue" d="M515.87,-280.25C526.97,-263.26 551,-224.28 563,-188 574.54,-153.13 579.16,-110.23 580.94,-86.01"/>
<polygon fill="midnightblue" stroke="midnightblue" points="584.45,-85.94 581.6,-75.74 577.47,-85.49 584.45,-85.94"/>
</g>
<!-- Node20&#45;&gt;Node7 -->
<g id="edge28" class="edge">
<title>Node20&#45;&gt;Node7</title>
<path fill="none" stroke="midnightblue" d="M509.81,-280.13C509.64,-267.59 509.71,-243.97 512,-224 513.01,-215.18 514.84,-205.52 516.6,-197.42"/>
<polygon fill="midnightblue" stroke="midnightblue" points="520.03,-198.09 518.85,-187.56 513.21,-196.53 520.03,-198.09"/>
</g>
<!-- Node20&#45;&gt;Node9 -->
<g id="edge29" class="edge">
<title>Node20&#45;&gt;Node9</title>
<path fill="none" stroke="midnightblue" d="M519.57,-280.37C540.15,-261.81 588.84,-217.91 614.88,-194.44"/>
<polygon fill="midnightblue" stroke="midnightblue" points="617.39,-196.89 622.47,-187.59 612.7,-191.69 617.39,-196.89"/>
</g>
<!-- Node21&#45;&gt;Node10 -->
<g id="edge35" class="edge">
<title>Node21&#45;&gt;Node10</title>
<path fill="none" stroke="midnightblue" d="M70.46,-280.06C76.31,-266.1 89.46,-239.15 109,-224 171.2,-175.78 200.17,-185.08 277,-168 397.52,-141.21 542.91,-129.74 616.44,-125.37"/>
<polygon fill="midnightblue" stroke="midnightblue" points="616.98,-128.85 626.76,-124.78 616.57,-121.86 616.98,-128.85"/>
</g>
<!-- Node24&#45;&gt;Node25 -->
<g id="edge40" class="edge">
<title>Node24&#45;&gt;Node25</title>
<path fill="none" stroke="midnightblue" d="M1177.07,-336.08C1170.15,-328.3 1159.93,-316.8 1151.55,-307.37"/>
<polygon fill="midnightblue" stroke="midnightblue" points="1154.04,-304.9 1144.78,-299.75 1148.81,-309.55 1154.04,-304.9"/>
</g>
<!-- Node25&#45;&gt;Node11 -->
<g id="edge42" class="edge">
<title>Node25&#45;&gt;Node11</title>
<path fill="none" stroke="midnightblue" d="M1137.39,-280.44C1138.21,-261.94 1140,-216.83 1140,-179 1140,-179 1140,-179 1140,-121 1140,-58.33 1057.95,-29.75 1007.19,-18.07"/>
<polygon fill="midnightblue" stroke="midnightblue" points="1007.69,-14.6 997.18,-15.89 1006.2,-21.44 1007.69,-14.6"/>
</g>
<!-- Node26 -->
<g id="node26" class="node">
<title>Node26</title>
<g id="a_node26"><a xlink:title=" ">
<polygon fill="white" stroke="#bfbfbf" points="858,-224.5 858,-243.5 936,-243.5 936,-224.5 858,-224.5"/>
<text text-anchor="middle" x="897" y="-231.5" font-family="Helvetica,sans-Serif" font-size="10.00">glm/glm.hpp</text>
</a>
</g>
</g>
<!-- Node25&#45;&gt;Node26 -->
<g id="edge41" class="edge">
<title>Node25&#45;&gt;Node26</title>
<path fill="none" stroke="midnightblue" d="M1098.97,-280.44C1057.19,-271.04 990.02,-255.93 944.73,-245.74"/>
<polygon fill="midnightblue" stroke="midnightblue" points="945.38,-242.3 934.85,-243.52 943.84,-249.13 945.38,-242.3"/>
</g>
<!-- Node25&#45;&gt;Node27 -->
<g id="edge43" class="edge">
<title>Node25&#45;&gt;Node27</title>
<path fill="none" stroke="midnightblue" d="M1120.29,-280.32C1103.69,-271.7 1078,-258.36 1058.78,-248.39"/>
<polygon fill="midnightblue" stroke="midnightblue" points="1060.16,-245.16 1049.67,-243.65 1056.93,-251.37 1060.16,-245.16"/>
</g>
<!-- Node27&#45;&gt;Node11 -->
<g id="edge44" class="edge">
<title>Node27&#45;&gt;Node11</title>
<path fill="none" stroke="midnightblue" d="M1030.45,-224.3C1020.87,-191.56 986.85,-75.38 973.47,-29.67"/>
<polygon fill="midnightblue" stroke="midnightblue" points="976.77,-28.5 970.6,-19.88 970.05,-30.46 976.77,-28.5"/>
</g>
<!-- Node27&#45;&gt;Node28 -->
<g id="edge45" class="edge">
<title>Node27&#45;&gt;Node28</title>
<path fill="none" stroke="midnightblue" d="M1009.23,-224.44C984.11,-215.4 944.29,-201.06 916.1,-190.92"/>
<polygon fill="midnightblue" stroke="midnightblue" points="917.25,-187.61 906.66,-187.52 914.88,-194.2 917.25,-187.61"/>
</g>
<!-- Node28&#45;&gt;Node10 -->
<g id="edge46" class="edge">
<title>Node28&#45;&gt;Node10</title>
<path fill="none" stroke="midnightblue" d="M848.3,-168.44C810.42,-159.1 749.65,-144.12 708.34,-133.93"/>
<polygon fill="midnightblue" stroke="midnightblue" points="709.09,-130.51 698.54,-131.52 707.41,-137.31 709.09,-130.51"/>
</g>
<!-- Node28&#45;&gt;Node12 -->
<g id="edge47" class="edge">
<title>Node28&#45;&gt;Node12</title>
<path fill="none" stroke="midnightblue" d="M874.05,-168.37C854.91,-149.89 809.72,-106.29 785.32,-82.74"/>
<polygon fill="midnightblue" stroke="midnightblue" points="787.53,-80.02 777.9,-75.59 782.67,-85.05 787.53,-80.02"/>
</g>
<!-- Node29&#45;&gt;Node24 -->
<g id="edge51" class="edge">
<title>Node29&#45;&gt;Node24</title>
<path fill="none" stroke="midnightblue" d="M948.53,-392.44C997.96,-382.94 1077.75,-367.61 1130.78,-357.42"/>
<polygon fill="midnightblue" stroke="midnightblue" points="1131.52,-360.84 1140.68,-355.52 1130.2,-353.97 1131.52,-360.84"/>
</g>
<!-- Node29&#45;&gt;Node25 -->
<g id="edge52" class="edge">
<title>Node29&#45;&gt;Node25</title>
<path fill="none" stroke="midnightblue" d="M924.88,-392.39C945.99,-383.58 979.49,-369.34 1008,-356 1044.46,-338.95 1085.91,-317.73 1111.76,-304.27"/>
<polygon fill="midnightblue" stroke="midnightblue" points="1113.61,-307.25 1120.86,-299.52 1110.37,-301.04 1113.61,-307.25"/>
</g>
<!-- Node29&#45;&gt;Node30 -->
<g id="edge49" class="edge">
<title>Node29&#45;&gt;Node30</title>
<path fill="none" stroke="midnightblue" d="M903.01,-392.08C902.21,-384.93 901.07,-374.64 900.08,-365.69"/>
<polygon fill="midnightblue" stroke="midnightblue" points="903.56,-365.3 898.97,-355.75 896.6,-366.08 903.56,-365.3"/>
</g>
<!-- Node29&#45;&gt;Node31 -->
<g id="edge53" class="edge">
<title>Node29&#45;&gt;Node31</title>
<path fill="none" stroke="midnightblue" d="M867.87,-392.44C828.35,-383.08 764.9,-368.06 721.89,-357.87"/>
<polygon fill="midnightblue" stroke="midnightblue" points="722.5,-354.42 711.96,-355.52 720.88,-361.23 722.5,-354.42"/>
</g>
<!-- Node30&#45;&gt;Node26 -->
<g id="edge50" class="edge">
<title>Node30&#45;&gt;Node26</title>
<path fill="none" stroke="midnightblue" d="M897.92,-336.37C897.76,-318.62 897.39,-277.67 897.17,-253.6"/>
<polygon fill="midnightblue" stroke="midnightblue" points="900.67,-253.56 897.08,-243.59 893.67,-253.62 900.67,-253.56"/>
</g>
<!-- Node31&#45;&gt;Node9 -->
<g id="edge54" class="edge">
<title>Node31&#45;&gt;Node9</title>
<path fill="none" stroke="midnightblue" d="M669.49,-336.42C657.28,-319.73 631.33,-281.22 622,-244 618.1,-228.43 621.5,-210.35 625.36,-197.22"/>
<polygon fill="midnightblue" stroke="midnightblue" points="628.75,-198.11 628.56,-187.51 622.1,-195.92 628.75,-198.11"/>
</g>
<!-- Node31&#45;&gt;Node10 -->
<g id="edge55" class="edge">
<title>Node31&#45;&gt;Node10</title>
<path fill="none" stroke="midnightblue" d="M692.46,-336.43C725.34,-318.06 794.23,-272.61 773,-224 755.82,-184.66 714.93,-153.8 688.41,-137"/>
<polygon fill="midnightblue" stroke="midnightblue" points="690.04,-133.9 679.68,-131.66 686.38,-139.87 690.04,-133.9"/>
</g>
<!-- Node32&#45;&gt;Node9 -->
<g id="edge59" class="edge">
<title>Node32&#45;&gt;Node9</title>
<path fill="none" stroke="midnightblue" d="M686.56,-224.32C676.85,-216.26 662.18,-204.08 650.5,-194.37"/>
<polygon fill="midnightblue" stroke="midnightblue" points="652.56,-191.53 642.63,-187.83 648.09,-196.92 652.56,-191.53"/>
</g>
<!-- Node32&#45;&gt;Node10 -->
<g id="edge60" class="edge">
<title>Node32&#45;&gt;Node10</title>
<path fill="none" stroke="midnightblue" d="M694.41,-224.37C689.06,-206.54 676.69,-165.3 669.48,-141.27"/>
<polygon fill="midnightblue" stroke="midnightblue" points="672.8,-140.16 666.58,-131.59 666.1,-142.18 672.8,-140.16"/>
</g>
</g>
</svg>
