<?xml version="1.0" encoding="UTF-8" standalone="no"?>
<!DOCTYPE svg PUBLIC "-//W3C//DTD SVG 1.1//EN"
 "http://www.w3.org/Graphics/SVG/1.1/DTD/svg11.dtd">
<!-- Generated by graphviz version 2.43.0 (0)
 -->
<!-- Title: /home/runner/work/gauri/gauri/gauri/include/gauri/entry_point.h Pages: 1 -->
<svg width="1618pt" height="532pt"
 viewBox="0.00 0.00 1618.40 532.00" xmlns="http://www.w3.org/2000/svg" xmlns:xlink="http://www.w3.org/1999/xlink">
<g id="graph0" class="graph" transform="scale(1 1) rotate(0) translate(4 528)">
<title>/home/runner/work/gauri/gauri/gauri/include/gauri/entry_point.h</title>
<polygon fill="white" stroke="transparent" points="-4,4 -4,-528 1614.4,-528 1614.4,4 -4,4"/>
<!-- Node1 -->
<g id="node1" class="node">
<title>Node1</title>
<g id="a_node1"><a xlink:title=" ">
<polygon fill="#bfbfbf" stroke="black" points="807,-504.5 807,-523.5 1133,-523.5 1133,-504.5 807,-504.5"/>
<text text-anchor="middle" x="970" y="-511.5" font-family="Helvetica,sans-Serif" font-size="10.00">/home/runner/work/gauri/gauri/gauri/include/gauri/entry_point.h</text>
</a>
</g>
</g>
<!-- Node2 -->
<g id="node2" class="node">
<title>Node2</title>
<g id="a_node2"><a xlink:href="gauri_8h.html" target="_top" xlink:title=" ">
<polygon fill="white" stroke="black" points="945,-448.5 945,-467.5 995,-467.5 995,-448.5 945,-448.5"/>
<text text-anchor="middle" x="970" y="-455.5" font-family="Helvetica,sans-Serif" font-size="10.00">gauri.h</text>
</a>
</g>
</g>
<!-- Node1&#45;&gt;Node2 -->
<g id="edge1" class="edge">
<title>Node1&#45;&gt;Node2</title>
<path fill="none" stroke="midnightblue" d="M964.83,-504.08C963.32,-496.93 962.89,-486.64 963.54,-477.69"/>
<polygon fill="midnightblue" stroke="midnightblue" points="967.02,-478.13 964.87,-467.75 960.08,-477.2 967.02,-478.13"/>
</g>
<!-- Node2&#45;&gt;Node1 -->
<g id="edge68" class="edge">
<title>Node2&#45;&gt;Node1</title>
<path fill="none" stroke="midnightblue" d="M975.13,-467.75C976.66,-474.86 977.1,-485.14 976.47,-494.1"/>
<polygon fill="midnightblue" stroke="midnightblue" points="972.99,-493.71 975.17,-504.08 979.93,-494.62 972.99,-493.71"/>
</g>
<!-- Node3 -->
<g id="node3" class="node">
<title>Node3</title>
<g id="a_node3"><a xlink:href="application_8h.html" target="_top" xlink:title=" ">
<polygon fill="white" stroke="black" points="158.5,-392.5 158.5,-411.5 265.5,-411.5 265.5,-392.5 158.5,-392.5"/>
<text text-anchor="middle" x="212" y="-399.5" font-family="Helvetica,sans-Serif" font-size="10.00">gauri/application.h</text>
</a>
</g>
</g>
<!-- Node2&#45;&gt;Node3 -->
<g id="edge2" class="edge">
<title>Node2&#45;&gt;Node3</title>
<path fill="none" stroke="midnightblue" d="M944.89,-455.97C854.77,-452.13 539.24,-437.58 280,-412 278.7,-411.87 277.39,-411.74 276.06,-411.6"/>
<polygon fill="midnightblue" stroke="midnightblue" points="276.11,-408.08 265.78,-410.45 275.33,-415.04 276.11,-408.08"/>
</g>
<!-- Node4 -->
<g id="node4" class="node">
<title>Node4</title>
<g id="a_node4"><a xlink:href="timestep_8h.html" target="_top" xlink:title=" ">
<polygon fill="white" stroke="black" points="474.5,-224.5 474.5,-243.5 595.5,-243.5 595.5,-224.5 474.5,-224.5"/>
<text text-anchor="middle" x="535" y="-231.5" font-family="Helvetica,sans-Serif" font-size="10.00">gauri/core/timestep.h</text>
</a>
</g>
</g>
<!-- Node2&#45;&gt;Node4 -->
<g id="edge33" class="edge">
<title>Node2&#45;&gt;Node4</title>
<path fill="none" stroke="midnightblue" d="M944.59,-456.27C876.68,-453.91 692.74,-444.57 643,-412 627.67,-401.96 568.37,-295.86 544.77,-252.9"/>
<polygon fill="midnightblue" stroke="midnightblue" points="547.7,-250.96 539.82,-243.87 541.56,-254.32 547.7,-250.96"/>
</g>
<!-- Node12 -->
<g id="node12" class="node">
<title>Node12</title>
<g id="a_node12"><a xlink:href="logger_8h.html" target="_top" xlink:title=" ">
<polygon fill="white" stroke="black" points="1014.5,-56.5 1014.5,-75.5 1097.5,-75.5 1097.5,-56.5 1014.5,-56.5"/>
<text text-anchor="middle" x="1056" y="-63.5" font-family="Helvetica,sans-Serif" font-size="10.00">gauri/logger.h</text>
</a>
</g>
</g>
<!-- Node2&#45;&gt;Node12 -->
<g id="edge32" class="edge">
<title>Node2&#45;&gt;Node12</title>
<path fill="none" stroke="midnightblue" d="M981.54,-448.43C1002.8,-431.57 1046,-391.8 1046,-347 1046,-347 1046,-347 1046,-177 1046,-144.82 1050.3,-107.55 1053.26,-85.7"/>
<polygon fill="midnightblue" stroke="midnightblue" points="1056.76,-85.92 1054.69,-75.53 1049.83,-84.95 1056.76,-85.92"/>
</g>
<!-- Node16 -->
<g id="node16" class="node">
<title>Node16</title>
<g id="a_node16"><a xlink:href="imgui__layer_8h.html" target="_top" xlink:title=" ">
<polygon fill="white" stroke="black" points="312.5,-336.5 312.5,-355.5 453.5,-355.5 453.5,-336.5 312.5,-336.5"/>
<text text-anchor="middle" x="383" y="-343.5" font-family="Helvetica,sans-Serif" font-size="10.00">gauri/imgui/imgui_layer.h</text>
</a>
</g>
</g>
<!-- Node2&#45;&gt;Node16 -->
<g id="edge38" class="edge">
<title>Node2&#45;&gt;Node16</title>
<path fill="none" stroke="midnightblue" d="M944.79,-457.24C830.11,-458.06 361.45,-458.55 318,-412 300.81,-393.59 329.53,-373.17 354.08,-360.22"/>
<polygon fill="midnightblue" stroke="midnightblue" points="355.82,-363.26 363.18,-355.64 352.67,-357.01 355.82,-363.26"/>
</g>
<!-- Node17 -->
<g id="node17" class="node">
<title>Node17</title>
<g id="a_node17"><a xlink:href="layer_8h.html" target="_top" xlink:title=" ">
<polygon fill="white" stroke="black" points="376.5,-280.5 376.5,-299.5 453.5,-299.5 453.5,-280.5 376.5,-280.5"/>
<text text-anchor="middle" x="415" y="-287.5" font-family="Helvetica,sans-Serif" font-size="10.00">gauri/layer.h</text>
</a>
</g>
</g>
<!-- Node2&#45;&gt;Node17 -->
<g id="edge31" class="edge">
<title>Node2&#45;&gt;Node17</title>
<path fill="none" stroke="midnightblue" d="M944.96,-457.14C834.21,-457.5 392.04,-456.14 351,-412 344.95,-405.49 345.77,-399.19 351,-392 381.5,-350.05 431.5,-397.95 462,-356 474.6,-338.67 455.08,-318.7 437.5,-305.52"/>
<polygon fill="midnightblue" stroke="midnightblue" points="439.36,-302.55 429.18,-299.63 435.32,-308.26 439.36,-302.55"/>
</g>
<!-- Node21 -->
<g id="node21" class="node">
<title>Node21</title>
<g id="a_node21"><a xlink:href="input_8h.html" target="_top" xlink:title=" ">
<polygon fill="white" stroke="black" points="940,-280.5 940,-299.5 1018,-299.5 1018,-280.5 940,-280.5"/>
<text text-anchor="middle" x="979" y="-287.5" font-family="Helvetica,sans-Serif" font-size="10.00">gauri/input.h</text>
</a>
</g>
</g>
<!-- Node2&#45;&gt;Node21 -->
<g id="edge34" class="edge">
<title>Node2&#45;&gt;Node21</title>
<path fill="none" stroke="midnightblue" d="M973.6,-448.22C977.06,-439.28 982.03,-424.94 984,-412 989.46,-376.1 985.27,-333.55 981.97,-309.68"/>
<polygon fill="midnightblue" stroke="midnightblue" points="985.4,-308.95 980.47,-299.57 978.48,-309.98 985.4,-308.95"/>
</g>
<!-- Node22 -->
<g id="node22" class="node">
<title>Node22</title>
<g id="a_node22"><a xlink:href="key__codes_8h.html" target="_top" xlink:title=" ">
<polygon fill="white" stroke="black" points="662,-392.5 662,-411.5 766,-411.5 766,-392.5 662,-392.5"/>
<text text-anchor="middle" x="714" y="-399.5" font-family="Helvetica,sans-Serif" font-size="10.00">gauri/key_codes.h</text>
</a>
</g>
</g>
<!-- Node2&#45;&gt;Node22 -->
<g id="edge36" class="edge">
<title>Node2&#45;&gt;Node22</title>
<path fill="none" stroke="midnightblue" d="M944.99,-451.72C903.3,-442.93 818.81,-425.11 764.39,-413.63"/>
<polygon fill="midnightblue" stroke="midnightblue" points="765.11,-410.2 754.6,-411.56 763.66,-417.05 765.11,-410.2"/>
</g>
<!-- Node23 -->
<g id="node23" class="node">
<title>Node23</title>
<g id="a_node23"><a xlink:href="mouse__button__codes_8h.html" target="_top" xlink:title=" ">
<polygon fill="white" stroke="black" points="784.5,-392.5 784.5,-411.5 941.5,-411.5 941.5,-392.5 784.5,-392.5"/>
<text text-anchor="middle" x="863" y="-399.5" font-family="Helvetica,sans-Serif" font-size="10.00">gauri/mouse_button_codes.h</text>
</a>
</g>
</g>
<!-- Node2&#45;&gt;Node23 -->
<g id="edge37" class="edge">
<title>Node2&#45;&gt;Node23</title>
<path fill="none" stroke="midnightblue" d="M952.81,-448.32C935.65,-439.66 909.05,-426.24 889.25,-416.25"/>
<polygon fill="midnightblue" stroke="midnightblue" points="890.65,-413.04 880.15,-411.65 887.5,-419.28 890.65,-413.04"/>
</g>
<!-- Node24 -->
<g id="node24" class="node">
<title>Node24</title>
<g id="a_node24"><a xlink:href="render__command_8h.html" target="_top" xlink:title=" ">
<polygon fill="white" stroke="black" points="1408.5,-336.5 1408.5,-355.5 1591.5,-355.5 1591.5,-336.5 1408.5,-336.5"/>
<text text-anchor="middle" x="1500" y="-343.5" font-family="Helvetica,sans-Serif" font-size="10.00">gauri/renderer/render_command.h</text>
</a>
</g>
</g>
<!-- Node2&#45;&gt;Node24 -->
<g id="edge39" class="edge">
<title>Node2&#45;&gt;Node24</title>
<path fill="none" stroke="midnightblue" d="M995.19,-456.08C1055.01,-453.42 1210,-443.78 1335,-412 1385.57,-399.14 1441.49,-374.82 1473.52,-359.85"/>
<polygon fill="midnightblue" stroke="midnightblue" points="1475.12,-362.97 1482.66,-355.53 1472.13,-356.64 1475.12,-362.97"/>
</g>
<!-- Node25 -->
<g id="node25" class="node">
<title>Node25</title>
<g id="a_node25"><a xlink:href="renderer__api_8h.html" target="_top" xlink:title=" ">
<polygon fill="white" stroke="black" points="1307.5,-280.5 1307.5,-299.5 1466.5,-299.5 1466.5,-280.5 1307.5,-280.5"/>
<text text-anchor="middle" x="1387" y="-287.5" font-family="Helvetica,sans-Serif" font-size="10.00">gauri/renderer/renderer_api.h</text>
</a>
</g>
</g>
<!-- Node2&#45;&gt;Node25 -->
<g id="edge67" class="edge">
<title>Node2&#45;&gt;Node25</title>
<path fill="none" stroke="midnightblue" d="M995.33,-457.26C1103.54,-457.79 1525.06,-453.47 1601,-356 1638.15,-308.32 1550.98,-294.59 1476.95,-291.15"/>
<polygon fill="midnightblue" stroke="midnightblue" points="1476.74,-287.64 1466.61,-290.73 1476.46,-294.64 1476.74,-287.64"/>
</g>
<!-- Node27 -->
<g id="node27" class="node">
<title>Node27</title>
<g id="a_node27"><a xlink:href="vertex__array_8h.html" target="_top" xlink:title=" ">
<polygon fill="white" stroke="black" points="1112,-224.5 1112,-243.5 1270,-243.5 1270,-224.5 1112,-224.5"/>
<text text-anchor="middle" x="1191" y="-231.5" font-family="Helvetica,sans-Serif" font-size="10.00">gauri/renderer/vertex_array.h</text>
</a>
</g>
</g>
<!-- Node2&#45;&gt;Node27 -->
<g id="edge61" class="edge">
<title>Node2&#45;&gt;Node27</title>
<path fill="none" stroke="midnightblue" d="M995.11,-453.75C1023.1,-448.96 1068.32,-437.64 1098,-412 1111.35,-400.47 1162.12,-295.68 1182.48,-252.98"/>
<polygon fill="midnightblue" stroke="midnightblue" points="1185.72,-254.31 1186.86,-243.78 1179.4,-251.3 1185.72,-254.31"/>
</g>
<!-- Node28 -->
<g id="node28" class="node">
<title>Node28</title>
<g id="a_node28"><a xlink:href="buffer_8h.html" target="_top" xlink:title=" ">
<polygon fill="white" stroke="black" points="1074.5,-168.5 1074.5,-187.5 1199.5,-187.5 1199.5,-168.5 1074.5,-168.5"/>
<text text-anchor="middle" x="1137" y="-175.5" font-family="Helvetica,sans-Serif" font-size="10.00">gauri/renderer/buffer.h</text>
</a>
</g>
</g>
<!-- Node2&#45;&gt;Node28 -->
<g id="edge56" class="edge">
<title>Node2&#45;&gt;Node28</title>
<path fill="none" stroke="midnightblue" d="M995.33,-450.01C1015.36,-443.29 1042.75,-431.26 1060,-412 1080.55,-389.06 1084,-377.8 1084,-347 1084,-347 1084,-347 1084,-289 1084,-258.9 1089.48,-250.89 1103,-224 1108.16,-213.74 1115.72,-203.44 1122.41,-195.28"/>
<polygon fill="midnightblue" stroke="midnightblue" points="1125.09,-197.54 1128.92,-187.66 1119.77,-192.99 1125.09,-197.54"/>
</g>
<!-- Node29 -->
<g id="node29" class="node">
<title>Node29</title>
<g id="a_node29"><a xlink:href="renderer_8h.html" target="_top" xlink:title=" ">
<polygon fill="white" stroke="black" points="1188,-392.5 1188,-411.5 1326,-411.5 1326,-392.5 1188,-392.5"/>
<text text-anchor="middle" x="1257" y="-399.5" font-family="Helvetica,sans-Serif" font-size="10.00">gauri/renderer/renderer.h</text>
</a>
</g>
</g>
<!-- Node2&#45;&gt;Node29 -->
<g id="edge48" class="edge">
<title>Node2&#45;&gt;Node29</title>
<path fill="none" stroke="midnightblue" d="M995.22,-452.26C1041.15,-443.61 1139.44,-425.12 1201.65,-413.41"/>
<polygon fill="midnightblue" stroke="midnightblue" points="1202.51,-416.81 1211.69,-411.53 1201.22,-409.93 1202.51,-416.81"/>
</g>
<!-- Node30 -->
<g id="node30" class="node">
<title>Node30</title>
<g id="a_node30"><a xlink:href="orthographic__camera_8h.html" target="_top" xlink:title=" ">
<polygon fill="white" stroke="black" points="1150.5,-336.5 1150.5,-355.5 1351.5,-355.5 1351.5,-336.5 1150.5,-336.5"/>
<text text-anchor="middle" x="1251" y="-343.5" font-family="Helvetica,sans-Serif" font-size="10.00">gauri/renderer/orthographic_camera.h</text>
</a>
</g>
</g>
<!-- Node2&#45;&gt;Node30 -->
<g id="edge66" class="edge">
<title>Node2&#45;&gt;Node30</title>
<path fill="none" stroke="midnightblue" d="M995.11,-452.24C1028.18,-445.51 1087.8,-431.79 1136,-412 1170.5,-397.84 1207.56,-375.44 1230.02,-360.99"/>
<polygon fill="midnightblue" stroke="midnightblue" points="1231.96,-363.9 1238.43,-355.51 1228.14,-358.04 1231.96,-363.9"/>
</g>
<!-- Node31 -->
<g id="node31" class="node">
<title>Node31</title>
<g id="a_node31"><a xlink:href="shader_8h.html" target="_top" xlink:title=" ">
<polygon fill="white" stroke="black" points="691,-336.5 691,-355.5 821,-355.5 821,-336.5 691,-336.5"/>
<text text-anchor="middle" x="756" y="-343.5" font-family="Helvetica,sans-Serif" font-size="10.00">gauri/renderer/shader.h</text>
</a>
</g>
</g>
<!-- Node2&#45;&gt;Node31 -->
<g id="edge57" class="edge">
<title>Node2&#45;&gt;Node31</title>
<path fill="none" stroke="midnightblue" d="M944.74,-457.45C876.48,-458.08 690.9,-455.66 653,-412 631.9,-387.7 672.29,-369.32 708.52,-358.41"/>
<polygon fill="midnightblue" stroke="midnightblue" points="709.92,-361.65 718.57,-355.53 707.99,-354.92 709.92,-361.65"/>
</g>
<!-- Node32 -->
<g id="node32" class="node">
<title>Node32</title>
<g id="a_node32"><a xlink:href="texture_8h.html" target="_top" xlink:title=" ">
<polygon fill="white" stroke="black" points="662.5,-224.5 662.5,-243.5 795.5,-243.5 795.5,-224.5 662.5,-224.5"/>
<text text-anchor="middle" x="729" y="-231.5" font-family="Helvetica,sans-Serif" font-size="10.00">gauri/renderer/texture.h</text>
</a>
</g>
</g>
<!-- Node2&#45;&gt;Node32 -->
<g id="edge58" class="edge">
<title>Node2&#45;&gt;Node32</title>
<path fill="none" stroke="midnightblue" d="M969.27,-448.21C967.79,-434.92 963.43,-409.42 951,-392 899.95,-320.46 805.74,-269.94 758.14,-247.7"/>
<polygon fill="midnightblue" stroke="midnightblue" points="759.55,-244.5 749,-243.51 756.63,-250.86 759.55,-244.5"/>
</g>
<!-- Node33 -->
<g id="node33" class="node">
<title>Node33</title>
<g id="a_node33"><a xlink:href="orthographic__camera__controller_8h.html" target="_top" xlink:title=" ">
<polygon fill="white" stroke="black" points="360,-392.5 360,-411.5 568,-411.5 568,-392.5 360,-392.5"/>
<text text-anchor="middle" x="464" y="-399.5" font-family="Helvetica,sans-Serif" font-size="10.00">gauri/orthographic_camera_controller.h</text>
</a>
</g>
</g>
<!-- Node2&#45;&gt;Node33 -->
<g id="edge62" class="edge">
<title>Node2&#45;&gt;Node33</title>
<path fill="none" stroke="midnightblue" d="M944.91,-454.32C874.57,-446.82 672.91,-425.29 554.25,-412.63"/>
<polygon fill="midnightblue" stroke="midnightblue" points="554.4,-409.13 544.09,-411.55 553.66,-416.09 554.4,-409.13"/>
</g>
<!-- Node3&#45;&gt;Node4 -->
<g id="edge3" class="edge">
<title>Node3&#45;&gt;Node4</title>
<path fill="none" stroke="midnightblue" d="M265.55,-396.54C329.24,-390.35 430.85,-377.45 462,-356 498.59,-330.81 519.94,-280.73 529.3,-253.56"/>
<polygon fill="midnightblue" stroke="midnightblue" points="532.72,-254.36 532.5,-243.76 526.07,-252.19 532.72,-254.36"/>
</g>
<!-- Node5 -->
<g id="node5" class="node">
<title>Node5</title>
<g id="a_node5"><a xlink:href="event_8h.html" target="_top" xlink:title=" ">
<polygon fill="white" stroke="black" points="100,-224.5 100,-243.5 212,-243.5 212,-224.5 100,-224.5"/>
<text text-anchor="middle" x="156" y="-231.5" font-family="Helvetica,sans-Serif" font-size="10.00">gauri/event/event.h</text>
</a>
</g>
</g>
<!-- Node3&#45;&gt;Node5 -->
<g id="edge4" class="edge">
<title>Node3&#45;&gt;Node5</title>
<path fill="none" stroke="midnightblue" d="M187.53,-392.44C171.43,-385.38 151.62,-373.63 142,-356 124,-323.03 137.72,-277.56 147.81,-252.81"/>
<polygon fill="midnightblue" stroke="midnightblue" points="151.05,-254.13 151.8,-243.57 144.62,-251.36 151.05,-254.13"/>
</g>
<!-- Node3&#45;&gt;Node16 -->
<g id="edge17" class="edge">
<title>Node3&#45;&gt;Node16</title>
<path fill="none" stroke="midnightblue" d="M239.1,-392.44C267.99,-383.32 313.92,-368.81 346.11,-358.65"/>
<polygon fill="midnightblue" stroke="midnightblue" points="347.55,-361.87 356.03,-355.52 345.44,-355.19 347.55,-361.87"/>
</g>
<!-- Node18 -->
<g id="node18" class="node">
<title>Node18</title>
<g id="a_node18"><a xlink:href="layer__stack_8h.html" target="_top" xlink:title=" ">
<polygon fill="white" stroke="black" points="184,-336.5 184,-355.5 294,-355.5 294,-336.5 184,-336.5"/>
<text text-anchor="middle" x="239" y="-343.5" font-family="Helvetica,sans-Serif" font-size="10.00">gauri/layer_stack.h</text>
</a>
</g>
</g>
<!-- Node3&#45;&gt;Node18 -->
<g id="edge22" class="edge">
<title>Node3&#45;&gt;Node18</title>
<path fill="none" stroke="midnightblue" d="M216.46,-392.08C220.15,-384.69 225.52,-373.95 230.09,-364.81"/>
<polygon fill="midnightblue" stroke="midnightblue" points="233.28,-366.26 234.62,-355.75 227.02,-363.13 233.28,-366.26"/>
</g>
<!-- Node20 -->
<g id="node20" class="node">
<title>Node20</title>
<g id="a_node20"><a xlink:href="window_8h.html" target="_top" xlink:title=" ">
<polygon fill="white" stroke="black" points="0,-280.5 0,-299.5 90,-299.5 90,-280.5 0,-280.5"/>
<text text-anchor="middle" x="45" y="-287.5" font-family="Helvetica,sans-Serif" font-size="10.00">gauri/window.h</text>
</a>
</g>
</g>
<!-- Node3&#45;&gt;Node20 -->
<g id="edge26" class="edge">
<title>Node3&#45;&gt;Node20</title>
<path fill="none" stroke="midnightblue" d="M181.8,-392.38C159.09,-384.99 127.9,-372.86 104,-356 85.2,-342.74 68.06,-322.52 57.16,-308.16"/>
<polygon fill="midnightblue" stroke="midnightblue" points="59.68,-305.68 50.94,-299.7 54.04,-309.83 59.68,-305.68"/>
</g>
<!-- Node6 -->
<g id="node6" class="node">
<title>Node6</title>
<g id="a_node6"><a xlink:title=" ">
<polygon fill="white" stroke="#bfbfbf" points="111,-56.5 111,-75.5 161,-75.5 161,-56.5 111,-56.5"/>
<text text-anchor="middle" x="136" y="-63.5" font-family="Helvetica,sans-Serif" font-size="10.00">cstdint</text>
</a>
</g>
</g>
<!-- Node5&#45;&gt;Node6 -->
<g id="edge5" class="edge">
<title>Node5&#45;&gt;Node6</title>
<path fill="none" stroke="midnightblue" d="M154.92,-224.08C151.78,-197.95 142.53,-121.21 138.24,-85.58"/>
<polygon fill="midnightblue" stroke="midnightblue" points="141.7,-85.08 137.03,-75.57 134.75,-85.92 141.7,-85.08"/>
</g>
<!-- Node7 -->
<g id="node7" class="node">
<title>Node7</title>
<g id="a_node7"><a xlink:title=" ">
<polygon fill="white" stroke="#bfbfbf" points="42.5,-168.5 42.5,-187.5 107.5,-187.5 107.5,-168.5 42.5,-168.5"/>
<text text-anchor="middle" x="75" y="-175.5" font-family="Helvetica,sans-Serif" font-size="10.00">functional</text>
</a>
</g>
</g>
<!-- Node5&#45;&gt;Node7 -->
<g id="edge6" class="edge">
<title>Node5&#45;&gt;Node7</title>
<path fill="none" stroke="midnightblue" d="M142.99,-224.32C130.47,-215.98 111.32,-203.21 96.53,-193.35"/>
<polygon fill="midnightblue" stroke="midnightblue" points="98.24,-190.29 87.98,-187.65 94.36,-196.11 98.24,-190.29"/>
</g>
<!-- Node8 -->
<g id="node8" class="node">
<title>Node8</title>
<g id="a_node8"><a xlink:title=" ">
<polygon fill="white" stroke="#bfbfbf" points="202,-168.5 202,-187.5 258,-187.5 258,-168.5 202,-168.5"/>
<text text-anchor="middle" x="230" y="-175.5" font-family="Helvetica,sans-Serif" font-size="10.00">sstream</text>
</a>
</g>
</g>
<!-- Node5&#45;&gt;Node8 -->
<g id="edge7" class="edge">
<title>Node5&#45;&gt;Node8</title>
<path fill="none" stroke="midnightblue" d="M167.89,-224.32C179.15,-216.11 196.29,-203.6 209.71,-193.81"/>
<polygon fill="midnightblue" stroke="midnightblue" points="211.88,-196.56 217.89,-187.83 207.75,-190.9 211.88,-196.56"/>
</g>
<!-- Node9 -->
<g id="node9" class="node">
<title>Node9</title>
<g id="a_node9"><a xlink:title=" ">
<polygon fill="white" stroke="#bfbfbf" points="276,-168.5 276,-187.5 320,-187.5 320,-168.5 276,-168.5"/>
<text text-anchor="middle" x="298" y="-175.5" font-family="Helvetica,sans-Serif" font-size="10.00">string</text>
</a>
</g>
</g>
<!-- Node5&#45;&gt;Node9 -->
<g id="edge8" class="edge">
<title>Node5&#45;&gt;Node9</title>
<path fill="none" stroke="midnightblue" d="M178.5,-224.44C202.08,-215.48 239.32,-201.31 265.96,-191.18"/>
<polygon fill="midnightblue" stroke="midnightblue" points="267.5,-194.34 275.6,-187.52 265.01,-187.8 267.5,-194.34"/>
</g>
<!-- Node10 -->
<g id="node10" class="node">
<title>Node10</title>
<g id="a_node10"><a xlink:href="core_8h.html" target="_top" xlink:title=" ">
<polygon fill="white" stroke="black" points="754,-112.5 754,-131.5 828,-131.5 828,-112.5 754,-112.5"/>
<text text-anchor="middle" x="791" y="-119.5" font-family="Helvetica,sans-Serif" font-size="10.00">gauri/core.h</text>
</a>
</g>
</g>
<!-- Node5&#45;&gt;Node10 -->
<g id="edge9" class="edge">
<title>Node5&#45;&gt;Node10</title>
<path fill="none" stroke="midnightblue" d="M158.08,-224.44C162.09,-209.99 172.37,-181.05 193,-168 239.09,-138.83 610.49,-127.26 743.68,-124.03"/>
<polygon fill="midnightblue" stroke="midnightblue" points="744.05,-127.52 753.97,-123.78 743.89,-120.52 744.05,-127.52"/>
</g>
<!-- Node10&#45;&gt;Node6 -->
<g id="edge10" class="edge">
<title>Node10&#45;&gt;Node6</title>
<path fill="none" stroke="midnightblue" d="M753.91,-117.94C638.16,-108.4 284.6,-79.25 171.32,-69.91"/>
<polygon fill="midnightblue" stroke="midnightblue" points="171.38,-66.4 161.12,-69.07 170.8,-73.38 171.38,-66.4"/>
</g>
<!-- Node11 -->
<g id="node11" class="node">
<title>Node11</title>
<g id="a_node11"><a xlink:title=" ">
<polygon fill="white" stroke="#bfbfbf" points="1194,-0.5 1194,-19.5 1252,-19.5 1252,-0.5 1194,-0.5"/>
<text text-anchor="middle" x="1223" y="-7.5" font-family="Helvetica,sans-Serif" font-size="10.00">memory</text>
</a>
</g>
</g>
<!-- Node10&#45;&gt;Node11 -->
<g id="edge11" class="edge">
<title>Node10&#45;&gt;Node11</title>
<path fill="none" stroke="midnightblue" d="M828.03,-120.11C888.11,-117.72 1009.89,-108.84 1107,-76 1142.94,-63.85 1180.55,-40.51 1202.86,-25.35"/>
<polygon fill="midnightblue" stroke="midnightblue" points="1204.94,-28.17 1211.17,-19.61 1200.96,-22.42 1204.94,-28.17"/>
</g>
<!-- Node10&#45;&gt;Node12 -->
<g id="edge12" class="edge">
<title>Node10&#45;&gt;Node12</title>
<path fill="none" stroke="midnightblue" d="M828.13,-113.43C874.06,-104.07 952.54,-88.08 1004.34,-77.53"/>
<polygon fill="midnightblue" stroke="midnightblue" points="1005.23,-80.92 1014.33,-75.49 1003.83,-74.06 1005.23,-80.92"/>
</g>
<!-- Node12&#45;&gt;Node11 -->
<g id="edge14" class="edge">
<title>Node12&#45;&gt;Node11</title>
<path fill="none" stroke="midnightblue" d="M1082.46,-56.44C1110.68,-47.32 1155.54,-32.81 1186.97,-22.65"/>
<polygon fill="midnightblue" stroke="midnightblue" points="1188.22,-25.92 1196.66,-19.52 1186.07,-19.26 1188.22,-25.92"/>
</g>
<!-- Node13 -->
<g id="node13" class="node">
<title>Node13</title>
<g id="a_node13"><a xlink:title=" ">
<polygon fill="white" stroke="#bfbfbf" points="1121,-0.5 1121,-19.5 1171,-19.5 1171,-0.5 1121,-0.5"/>
<text text-anchor="middle" x="1146" y="-7.5" font-family="Helvetica,sans-Serif" font-size="10.00">format</text>
</a>
</g>
</g>
<!-- Node12&#45;&gt;Node13 -->
<g id="edge13" class="edge">
<title>Node12&#45;&gt;Node13</title>
<path fill="none" stroke="midnightblue" d="M1070.46,-56.32C1084.5,-47.9 1106.05,-34.97 1122.54,-25.07"/>
<polygon fill="midnightblue" stroke="midnightblue" points="1124.8,-27.8 1131.58,-19.65 1121.2,-21.8 1124.8,-27.8"/>
</g>
<!-- Node14 -->
<g id="node14" class="node">
<title>Node14</title>
<g id="a_node14"><a xlink:title=" ">
<polygon fill="white" stroke="#bfbfbf" points="892.5,-0.5 892.5,-19.5 991.5,-19.5 991.5,-0.5 892.5,-0.5"/>
<text text-anchor="middle" x="942" y="-7.5" font-family="Helvetica,sans-Serif" font-size="10.00">spdlog/fmt/ostr.h</text>
</a>
</g>
</g>
<!-- Node12&#45;&gt;Node14 -->
<g id="edge15" class="edge">
<title>Node12&#45;&gt;Node14</title>
<path fill="none" stroke="midnightblue" d="M1037.94,-56.44C1019.43,-47.68 990.42,-33.94 969.14,-23.86"/>
<polygon fill="midnightblue" stroke="midnightblue" points="970.51,-20.63 959.98,-19.52 967.52,-26.96 970.51,-20.63"/>
</g>
<!-- Node15 -->
<g id="node15" class="node">
<title>Node15</title>
<g id="a_node15"><a xlink:title=" ">
<polygon fill="white" stroke="#bfbfbf" points="1009.5,-0.5 1009.5,-19.5 1102.5,-19.5 1102.5,-0.5 1009.5,-0.5"/>
<text text-anchor="middle" x="1056" y="-7.5" font-family="Helvetica,sans-Serif" font-size="10.00">spdlog/spdlog.h</text>
</a>
</g>
</g>
<!-- Node12&#45;&gt;Node15 -->
<g id="edge16" class="edge">
<title>Node12&#45;&gt;Node15</title>
<path fill="none" stroke="midnightblue" d="M1056,-56.08C1056,-49.01 1056,-38.86 1056,-29.99"/>
<polygon fill="midnightblue" stroke="midnightblue" points="1059.5,-29.75 1056,-19.75 1052.5,-29.75 1059.5,-29.75"/>
</g>
<!-- Node16&#45;&gt;Node17 -->
<g id="edge18" class="edge">
<title>Node16&#45;&gt;Node17</title>
<path fill="none" stroke="midnightblue" d="M388.28,-336.08C392.71,-328.61 399.16,-317.72 404.62,-308.52"/>
<polygon fill="midnightblue" stroke="midnightblue" points="407.73,-310.14 409.81,-299.75 401.71,-306.57 407.73,-310.14"/>
</g>
<!-- Node17&#45;&gt;Node4 -->
<g id="edge20" class="edge">
<title>Node17&#45;&gt;Node4</title>
<path fill="none" stroke="midnightblue" d="M434.01,-280.44C453.59,-271.64 484.31,-257.81 506.73,-247.72"/>
<polygon fill="midnightblue" stroke="midnightblue" points="508.39,-250.81 516.07,-243.52 505.52,-244.43 508.39,-250.81"/>
</g>
<!-- Node17&#45;&gt;Node5 -->
<g id="edge21" class="edge">
<title>Node17&#45;&gt;Node5</title>
<path fill="none" stroke="midnightblue" d="M376.23,-280.92C331.21,-271.53 256.79,-256.01 207.09,-245.65"/>
<polygon fill="midnightblue" stroke="midnightblue" points="207.69,-242.2 197.18,-243.59 206.26,-249.05 207.69,-242.2"/>
</g>
<!-- Node17&#45;&gt;Node10 -->
<g id="edge19" class="edge">
<title>Node17&#45;&gt;Node10</title>
<path fill="none" stroke="midnightblue" d="M419.43,-280.47C427.06,-266.59 444.03,-239.14 466,-224 552.82,-164.17 676.52,-138.67 743.5,-128.72"/>
<polygon fill="midnightblue" stroke="midnightblue" points="744.35,-132.13 753.75,-127.25 743.35,-125.2 744.35,-132.13"/>
</g>
<!-- Node18&#45;&gt;Node10 -->
<g id="edge23" class="edge">
<title>Node18&#45;&gt;Node10</title>
<path fill="none" stroke="midnightblue" d="M249.63,-336.47C286.23,-307.6 411.36,-212.78 531,-168 602.19,-141.35 690.33,-130.34 743.54,-125.9"/>
<polygon fill="midnightblue" stroke="midnightblue" points="744,-129.37 753.7,-125.09 743.45,-122.39 744,-129.37"/>
</g>
<!-- Node18&#45;&gt;Node17 -->
<g id="edge24" class="edge">
<title>Node18&#45;&gt;Node17</title>
<path fill="none" stroke="midnightblue" d="M266.89,-336.44C296.75,-327.28 344.31,-312.69 377.46,-302.52"/>
<polygon fill="midnightblue" stroke="midnightblue" points="378.71,-305.8 387.24,-299.52 376.66,-299.1 378.71,-305.8"/>
</g>
<!-- Node19 -->
<g id="node19" class="node">
<title>Node19</title>
<g id="a_node19"><a xlink:title=" ">
<polygon fill="white" stroke="#bfbfbf" points="215.5,-280.5 215.5,-299.5 262.5,-299.5 262.5,-280.5 215.5,-280.5"/>
<text text-anchor="middle" x="239" y="-287.5" font-family="Helvetica,sans-Serif" font-size="10.00">vector</text>
</a>
</g>
</g>
<!-- Node18&#45;&gt;Node19 -->
<g id="edge25" class="edge">
<title>Node18&#45;&gt;Node19</title>
<path fill="none" stroke="midnightblue" d="M239,-336.08C239,-329.01 239,-318.86 239,-309.99"/>
<polygon fill="midnightblue" stroke="midnightblue" points="242.5,-309.75 239,-299.75 235.5,-309.75 242.5,-309.75"/>
</g>
<!-- Node20&#45;&gt;Node5 -->
<g id="edge30" class="edge">
<title>Node20&#45;&gt;Node5</title>
<path fill="none" stroke="midnightblue" d="M62.83,-280.32C80.72,-271.62 108.48,-258.12 129.05,-248.11"/>
<polygon fill="midnightblue" stroke="midnightblue" points="130.75,-251.18 138.21,-243.65 127.69,-244.88 130.75,-251.18"/>
</g>
<!-- Node20&#45;&gt;Node6 -->
<g id="edge27" class="edge">
<title>Node20&#45;&gt;Node6</title>
<path fill="none" stroke="midnightblue" d="M41.42,-280.37C33.51,-259.92 16.49,-207.32 33,-168 49.15,-129.54 87.88,-98.38 112.98,-81.29"/>
<polygon fill="midnightblue" stroke="midnightblue" points="115.12,-84.07 121.54,-75.65 111.26,-78.23 115.12,-84.07"/>
</g>
<!-- Node20&#45;&gt;Node7 -->
<g id="edge28" class="edge">
<title>Node20&#45;&gt;Node7</title>
<path fill="none" stroke="midnightblue" d="M47.35,-280.37C52.22,-262.54 63.46,-221.3 70.02,-197.27"/>
<polygon fill="midnightblue" stroke="midnightblue" points="73.4,-198.16 72.66,-187.59 66.65,-196.32 73.4,-198.16"/>
</g>
<!-- Node20&#45;&gt;Node9 -->
<g id="edge29" class="edge">
<title>Node20&#45;&gt;Node9</title>
<path fill="none" stroke="midnightblue" d="M90.02,-283.21C126.81,-277.16 179.37,-265.45 221,-244 245.41,-231.43 268.83,-209.84 283.3,-195.02"/>
<polygon fill="midnightblue" stroke="midnightblue" points="286.01,-197.24 290.37,-187.58 280.94,-192.42 286.01,-197.24"/>
</g>
<!-- Node21&#45;&gt;Node10 -->
<g id="edge35" class="edge">
<title>Node21&#45;&gt;Node10</title>
<path fill="none" stroke="midnightblue" d="M969.16,-280.31C938.95,-253.64 847.3,-172.72 808.58,-138.52"/>
<polygon fill="midnightblue" stroke="midnightblue" points="810.56,-135.6 800.75,-131.61 805.93,-140.85 810.56,-135.6"/>
</g>
<!-- Node24&#45;&gt;Node25 -->
<g id="edge40" class="edge">
<title>Node24&#45;&gt;Node25</title>
<path fill="none" stroke="midnightblue" d="M1482.09,-336.44C1463.75,-327.68 1434.99,-313.94 1413.91,-303.86"/>
<polygon fill="midnightblue" stroke="midnightblue" points="1415.35,-300.67 1404.82,-299.52 1412.33,-306.99 1415.35,-300.67"/>
</g>
<!-- Node25&#45;&gt;Node11 -->
<g id="edge42" class="edge">
<title>Node25&#45;&gt;Node11</title>
<path fill="none" stroke="midnightblue" d="M1387.92,-280.45C1389.81,-261.97 1394,-216.89 1394,-179 1394,-179 1394,-179 1394,-121 1394,-58.58 1312.42,-29.91 1261.96,-18.15"/>
<polygon fill="midnightblue" stroke="midnightblue" points="1262.53,-14.69 1252.01,-15.95 1261.02,-21.52 1262.53,-14.69"/>
</g>
<!-- Node26 -->
<g id="node26" class="node">
<title>Node26</title>
<g id="a_node26"><a xlink:title=" ">
<polygon fill="white" stroke="#bfbfbf" points="1288,-224.5 1288,-243.5 1366,-243.5 1366,-224.5 1288,-224.5"/>
<text text-anchor="middle" x="1327" y="-231.5" font-family="Helvetica,sans-Serif" font-size="10.00">glm/glm.hpp</text>
</a>
</g>
</g>
<!-- Node25&#45;&gt;Node26 -->
<g id="edge41" class="edge">
<title>Node25&#45;&gt;Node26</title>
<path fill="none" stroke="midnightblue" d="M1377.36,-280.32C1368.49,-272.34 1355.13,-260.31 1344.39,-250.65"/>
<polygon fill="midnightblue" stroke="midnightblue" points="1346.59,-247.92 1336.82,-243.83 1341.91,-253.13 1346.59,-247.92"/>
</g>
<!-- Node25&#45;&gt;Node27 -->
<g id="edge43" class="edge">
<title>Node25&#45;&gt;Node27</title>
<path fill="none" stroke="midnightblue" d="M1355.94,-280.44C1322.4,-271.2 1268.8,-256.44 1231.86,-246.26"/>
<polygon fill="midnightblue" stroke="midnightblue" points="1232.48,-242.8 1221.91,-243.52 1230.62,-249.55 1232.48,-242.8"/>
</g>
<!-- Node27&#45;&gt;Node11 -->
<g id="edge44" class="edge">
<title>Node27&#45;&gt;Node11</title>
<path fill="none" stroke="midnightblue" d="M1195.4,-224.29C1199.67,-215.41 1205.93,-201.11 1209,-188 1222.19,-131.59 1223.56,-62.62 1223.35,-29.93"/>
<polygon fill="midnightblue" stroke="midnightblue" points="1226.85,-29.57 1223.23,-19.61 1219.85,-29.66 1226.85,-29.57"/>
</g>
<!-- Node27&#45;&gt;Node28 -->
<g id="edge45" class="edge">
<title>Node27&#45;&gt;Node28</title>
<path fill="none" stroke="midnightblue" d="M1182.08,-224.08C1174.22,-216.22 1162.57,-204.57 1153.08,-195.08"/>
<polygon fill="midnightblue" stroke="midnightblue" points="1155.3,-192.35 1145.75,-187.75 1150.35,-197.3 1155.3,-192.35"/>
</g>
<!-- Node28&#45;&gt;Node10 -->
<g id="edge46" class="edge">
<title>Node28&#45;&gt;Node10</title>
<path fill="none" stroke="midnightblue" d="M1082.18,-168.44C1014.85,-157.94 901.78,-140.29 838.16,-130.36"/>
<polygon fill="midnightblue" stroke="midnightblue" points="838.43,-126.86 828.01,-128.78 837.35,-133.78 838.43,-126.86"/>
</g>
<!-- Node28&#45;&gt;Node12 -->
<g id="edge47" class="edge">
<title>Node28&#45;&gt;Node12</title>
<path fill="none" stroke="midnightblue" d="M1130.64,-168.37C1117.22,-150.14 1085.77,-107.43 1068.28,-83.68"/>
<polygon fill="midnightblue" stroke="midnightblue" points="1071.07,-81.57 1062.33,-75.59 1065.44,-85.72 1071.07,-81.57"/>
</g>
<!-- Node29&#45;&gt;Node24 -->
<g id="edge51" class="edge">
<title>Node29&#45;&gt;Node24</title>
<path fill="none" stroke="midnightblue" d="M1295.5,-392.44C1337.81,-383.04 1405.82,-367.93 1451.67,-357.74"/>
<polygon fill="midnightblue" stroke="midnightblue" points="1452.67,-361.1 1461.68,-355.52 1451.15,-354.27 1452.67,-361.1"/>
</g>
<!-- Node29&#45;&gt;Node25 -->
<g id="edge52" class="edge">
<title>Node29&#45;&gt;Node25</title>
<path fill="none" stroke="midnightblue" d="M1294.57,-392.43C1316.42,-385.74 1343.1,-374.41 1361,-356 1373.3,-343.35 1380.01,-324.14 1383.52,-309.88"/>
<polygon fill="midnightblue" stroke="midnightblue" points="1387.02,-310.24 1385.69,-299.73 1380.18,-308.78 1387.02,-310.24"/>
</g>
<!-- Node29&#45;&gt;Node30 -->
<g id="edge49" class="edge">
<title>Node29&#45;&gt;Node30</title>
<path fill="none" stroke="midnightblue" d="M1256.01,-392.08C1255.21,-384.93 1254.07,-374.64 1253.08,-365.69"/>
<polygon fill="midnightblue" stroke="midnightblue" points="1256.56,-365.3 1251.97,-355.75 1249.6,-366.08 1256.56,-365.3"/>
</g>
<!-- Node29&#45;&gt;Node31 -->
<g id="edge53" class="edge">
<title>Node29&#45;&gt;Node31</title>
<path fill="none" stroke="midnightblue" d="M1187.86,-393.55C1094.27,-383.46 927.88,-365.53 831.24,-355.11"/>
<polygon fill="midnightblue" stroke="midnightblue" points="831.56,-351.62 821.25,-354.03 830.81,-358.58 831.56,-351.62"/>
</g>
<!-- Node30&#45;&gt;Node26 -->
<g id="edge50" class="edge">
<title>Node30&#45;&gt;Node26</title>
<path fill="none" stroke="midnightblue" d="M1256.96,-336.37C1269.51,-318.22 1298.81,-275.8 1315.26,-251.99"/>
<polygon fill="midnightblue" stroke="midnightblue" points="1318.26,-253.81 1321.06,-243.59 1312.5,-249.83 1318.26,-253.81"/>
</g>
<!-- Node31&#45;&gt;Node9 -->
<g id="edge54" class="edge">
<title>Node31&#45;&gt;Node9</title>
<path fill="none" stroke="midnightblue" d="M748.53,-336.45C728.14,-313.74 668.76,-251.75 605,-224 511.5,-183.3 388.41,-178.19 330.62,-178.28"/>
<polygon fill="midnightblue" stroke="midnightblue" points="330.26,-174.79 320.29,-178.36 330.31,-181.79 330.26,-174.79"/>
</g>
<!-- Node31&#45;&gt;Node10 -->
<g id="edge55" class="edge">
<title>Node31&#45;&gt;Node10</title>
<path fill="none" stroke="midnightblue" d="M761.91,-336.32C773,-319.45 796.58,-280.66 805,-244 813.22,-208.24 803.86,-165.36 796.98,-141.45"/>
<polygon fill="midnightblue" stroke="midnightblue" points="800.25,-140.16 793.98,-131.62 793.55,-142.21 800.25,-140.16"/>
</g>
<!-- Node32&#45;&gt;Node9 -->
<g id="edge59" class="edge">
<title>Node32&#45;&gt;Node9</title>
<path fill="none" stroke="midnightblue" d="M662.13,-224.62C568.12,-212.84 400.54,-191.85 330.34,-183.05"/>
<polygon fill="midnightblue" stroke="midnightblue" points="330.68,-179.57 320.32,-181.8 329.81,-186.51 330.68,-179.57"/>
</g>
<!-- Node32&#45;&gt;Node10 -->
<g id="edge60" class="edge">
<title>Node32&#45;&gt;Node10</title>
<path fill="none" stroke="midnightblue" d="M733.87,-224.37C744.05,-206.3 767.79,-164.18 781.24,-140.31"/>
<polygon fill="midnightblue" stroke="midnightblue" points="784.3,-142.02 786.16,-131.59 778.2,-138.58 784.3,-142.02"/>
</g>
<!-- Node33&#45;&gt;Node4 -->
<g id="edge63" class="edge">
<title>Node33&#45;&gt;Node4</title>
<path fill="none" stroke="midnightblue" d="M488.42,-392.41C504.5,-385.34 524.3,-373.59 534,-356 551.86,-323.61 545.63,-278.55 539.99,-253.56"/>
<polygon fill="midnightblue" stroke="midnightblue" points="543.33,-252.48 537.54,-243.61 536.54,-254.16 543.33,-252.48"/>
</g>
<!-- Node33&#45;&gt;Node5 -->
<g id="edge64" class="edge">
<title>Node33&#45;&gt;Node5</title>
<path fill="none" stroke="midnightblue" d="M359.8,-397.43C287.85,-392.69 200.69,-381.66 175,-356 147.88,-328.91 149.53,-279.98 152.88,-253.4"/>
<polygon fill="midnightblue" stroke="midnightblue" points="156.35,-253.91 154.34,-243.5 149.42,-252.88 156.35,-253.91"/>
</g>
<!-- Node33&#45;&gt;Node30 -->
<g id="edge65" class="edge">
<title>Node33&#45;&gt;Node30</title>
<path fill="none" stroke="midnightblue" d="M568.1,-393.86C716.55,-383.67 987.87,-365.05 1140.01,-354.62"/>
<polygon fill="midnightblue" stroke="midnightblue" points="1140.57,-358.09 1150.31,-353.91 1140.09,-351.1 1140.57,-358.09"/>
</g>
</g>
</svg>
