<?xml version="1.0" encoding="UTF-8" standalone="no"?>
<!DOCTYPE svg PUBLIC "-//W3C//DTD SVG 1.1//EN"
 "http://www.w3.org/Graphics/SVG/1.1/DTD/svg11.dtd">
<!-- Generated by graphviz version 2.43.0 (0)
 -->
<!-- Title: /home/runner/work/gauri/gauri/gauri/include/gauri/core/entry_point.h Pages: 1 -->
<svg width="1774pt" height="532pt"
 viewBox="0.00 0.00 1774.10 532.00" xmlns="http://www.w3.org/2000/svg" xmlns:xlink="http://www.w3.org/1999/xlink">
<g id="graph0" class="graph" transform="scale(1 1) rotate(0) translate(4 528)">
<title>/home/runner/work/gauri/gauri/gauri/include/gauri/core/entry_point.h</title>
<polygon fill="white" stroke="transparent" points="-4,4 -4,-528 1770.1,-528 1770.1,4 -4,4"/>
<!-- Node1 -->
<g id="node1" class="node">
<title>Node1</title>
<g id="a_node1"><a xlink:title=" ">
<polygon fill="#bfbfbf" stroke="black" points="606.6,-504.5 606.6,-523.5 956.6,-523.5 956.6,-504.5 606.6,-504.5"/>
<text text-anchor="middle" x="781.6" y="-511.5" font-family="Helvetica,sans-Serif" font-size="10.00">/home/runner/work/gauri/gauri/gauri/include/gauri/core/entry_point.h</text>
</a>
</g>
</g>
<!-- Node2 -->
<g id="node2" class="node">
<title>Node2</title>
<g id="a_node2"><a xlink:href="gauri_8h.html" target="_top" xlink:title=" ">
<polygon fill="white" stroke="black" points="756.6,-448.5 756.6,-467.5 806.6,-467.5 806.6,-448.5 756.6,-448.5"/>
<text text-anchor="middle" x="781.6" y="-455.5" font-family="Helvetica,sans-Serif" font-size="10.00">gauri.h</text>
</a>
</g>
</g>
<!-- Node1&#45;&gt;Node2 -->
<g id="edge1" class="edge">
<title>Node1&#45;&gt;Node2</title>
<path fill="none" stroke="midnightblue" d="M776.44,-504.08C774.93,-496.93 774.5,-486.64 775.15,-477.69"/>
<polygon fill="midnightblue" stroke="midnightblue" points="778.62,-478.13 776.47,-467.75 771.68,-477.2 778.62,-478.13"/>
</g>
<!-- Node2&#45;&gt;Node1 -->
<g id="edge68" class="edge">
<title>Node2&#45;&gt;Node1</title>
<path fill="none" stroke="midnightblue" d="M786.74,-467.75C788.26,-474.86 788.71,-485.14 788.08,-494.1"/>
<polygon fill="midnightblue" stroke="midnightblue" points="784.6,-493.71 786.77,-504.08 791.54,-494.62 784.6,-493.71"/>
</g>
<!-- Node3 -->
<g id="node3" class="node">
<title>Node3</title>
<g id="a_node3"><a xlink:href="application_8h.html" target="_top" xlink:title=" ">
<polygon fill="white" stroke="black" points="187.1,-392.5 187.1,-411.5 318.1,-411.5 318.1,-392.5 187.1,-392.5"/>
<text text-anchor="middle" x="252.6" y="-399.5" font-family="Helvetica,sans-Serif" font-size="10.00">gauri/core/application.h</text>
</a>
</g>
</g>
<!-- Node2&#45;&gt;Node3 -->
<g id="edge2" class="edge">
<title>Node2&#45;&gt;Node3</title>
<path fill="none" stroke="midnightblue" d="M756.28,-454.57C687.9,-447.99 493.86,-429.15 332.6,-412 331.31,-411.86 330.01,-411.72 328.7,-411.58"/>
<polygon fill="midnightblue" stroke="midnightblue" points="328.84,-408.08 318.52,-410.48 328.08,-415.04 328.84,-408.08"/>
</g>
<!-- Node8 -->
<g id="node8" class="node">
<title>Node8</title>
<g id="a_node8"><a xlink:href="logger_8h.html" target="_top" xlink:title=" ">
<polygon fill="white" stroke="black" points="784.1,-56.5 784.1,-75.5 891.1,-75.5 891.1,-56.5 784.1,-56.5"/>
<text text-anchor="middle" x="837.6" y="-63.5" font-family="Helvetica,sans-Serif" font-size="10.00">gauri/core/logger.h</text>
</a>
</g>
</g>
<!-- Node2&#45;&gt;Node8 -->
<g id="edge32" class="edge">
<title>Node2&#45;&gt;Node8</title>
<path fill="none" stroke="midnightblue" d="M756.29,-456.23C643.2,-452.67 187.18,-436.88 128.6,-412 54.52,-380.53 -19.04,-356.94 4.6,-280 22.27,-222.5 29.63,-199.94 80.6,-168 195.91,-95.76 612.91,-74.43 773.73,-68.82"/>
<polygon fill="midnightblue" stroke="midnightblue" points="774.07,-72.31 783.95,-68.47 773.83,-65.31 774.07,-72.31"/>
</g>
<!-- Node12 -->
<g id="node12" class="node">
<title>Node12</title>
<g id="a_node12"><a xlink:href="layer_8h.html" target="_top" xlink:title=" ">
<polygon fill="white" stroke="black" points="304.1,-280.5 304.1,-299.5 405.1,-299.5 405.1,-280.5 304.1,-280.5"/>
<text text-anchor="middle" x="354.6" y="-287.5" font-family="Helvetica,sans-Serif" font-size="10.00">gauri/core/layer.h</text>
</a>
</g>
</g>
<!-- Node2&#45;&gt;Node12 -->
<g id="edge31" class="edge">
<title>Node2&#45;&gt;Node12</title>
<path fill="none" stroke="midnightblue" d="M756.32,-456.1C670.35,-452.78 393.1,-439.97 365.6,-412 339.08,-385.02 344.33,-336.44 349.84,-309.78"/>
<polygon fill="midnightblue" stroke="midnightblue" points="353.3,-310.35 352.13,-299.82 346.48,-308.78 353.3,-310.35"/>
</g>
<!-- Node13 -->
<g id="node13" class="node">
<title>Node13</title>
<g id="a_node13"><a xlink:href="timestep_8h.html" target="_top" xlink:title=" ">
<polygon fill="white" stroke="black" points="483.1,-224.5 483.1,-243.5 604.1,-243.5 604.1,-224.5 483.1,-224.5"/>
<text text-anchor="middle" x="543.6" y="-231.5" font-family="Helvetica,sans-Serif" font-size="10.00">gauri/core/timestep.h</text>
</a>
</g>
</g>
<!-- Node2&#45;&gt;Node13 -->
<g id="edge33" class="edge">
<title>Node2&#45;&gt;Node13</title>
<path fill="none" stroke="midnightblue" d="M769.09,-448.3C756.97,-439.66 738.33,-425.73 723.6,-412 666.06,-358.33 664,-332.74 605.6,-280 593.06,-268.67 577.68,-257.49 565.38,-249.11"/>
<polygon fill="midnightblue" stroke="midnightblue" points="567.31,-246.19 557.05,-243.54 563.42,-252.01 567.31,-246.19"/>
</g>
<!-- Node20 -->
<g id="node20" class="node">
<title>Node20</title>
<g id="a_node20"><a xlink:href="imgui__layer_8h.html" target="_top" xlink:title=" ">
<polygon fill="white" stroke="black" points="118.1,-336.5 118.1,-355.5 259.1,-355.5 259.1,-336.5 118.1,-336.5"/>
<text text-anchor="middle" x="188.6" y="-343.5" font-family="Helvetica,sans-Serif" font-size="10.00">gauri/imgui/imgui_layer.h</text>
</a>
</g>
</g>
<!-- Node2&#45;&gt;Node20 -->
<g id="edge38" class="edge">
<title>Node2&#45;&gt;Node20</title>
<path fill="none" stroke="midnightblue" d="M756.48,-457.09C647.39,-457.21 218.46,-454.94 178.6,-412 166.99,-399.49 172.35,-379.42 178.82,-364.89"/>
<polygon fill="midnightblue" stroke="midnightblue" points="181.99,-366.39 183.29,-355.88 175.71,-363.29 181.99,-366.39"/>
</g>
<!-- Node21 -->
<g id="node21" class="node">
<title>Node21</title>
<g id="a_node21"><a xlink:href="input_8h.html" target="_top" xlink:title=" ">
<polygon fill="white" stroke="black" points="13.6,-280.5 13.6,-299.5 115.6,-299.5 115.6,-280.5 13.6,-280.5"/>
<text text-anchor="middle" x="64.6" y="-287.5" font-family="Helvetica,sans-Serif" font-size="10.00">gauri/core/input.h</text>
</a>
</g>
</g>
<!-- Node2&#45;&gt;Node21 -->
<g id="edge34" class="edge">
<title>Node2&#45;&gt;Node21</title>
<path fill="none" stroke="midnightblue" d="M756.45,-457.19C655.13,-457.66 277.08,-456.32 167.6,-412 131.63,-397.44 125.31,-385.93 100.6,-356 88.69,-341.57 78.72,-322.63 72.32,-308.92"/>
<polygon fill="midnightblue" stroke="midnightblue" points="75.43,-307.31 68.14,-299.62 69.04,-310.17 75.43,-307.31"/>
</g>
<!-- Node22 -->
<g id="node22" class="node">
<title>Node22</title>
<g id="a_node22"><a xlink:href="key__codes_8h.html" target="_top" xlink:title=" ">
<polygon fill="white" stroke="black" points="1438.6,-392.5 1438.6,-411.5 1566.6,-411.5 1566.6,-392.5 1438.6,-392.5"/>
<text text-anchor="middle" x="1502.6" y="-399.5" font-family="Helvetica,sans-Serif" font-size="10.00">gauri/core/key_codes.h</text>
</a>
</g>
</g>
<!-- Node2&#45;&gt;Node22 -->
<g id="edge36" class="edge">
<title>Node2&#45;&gt;Node22</title>
<path fill="none" stroke="midnightblue" d="M806.76,-455.65C892.98,-450.93 1184.48,-434.24 1424.6,-412 1425.72,-411.9 1426.85,-411.79 1427.99,-411.68"/>
<polygon fill="midnightblue" stroke="midnightblue" points="1428.75,-415.12 1438.36,-410.65 1428.06,-408.16 1428.75,-415.12"/>
</g>
<!-- Node23 -->
<g id="node23" class="node">
<title>Node23</title>
<g id="a_node23"><a xlink:href="mouse__button__codes_8h.html" target="_top" xlink:title=" ">
<polygon fill="white" stroke="black" points="1585.1,-392.5 1585.1,-411.5 1766.1,-411.5 1766.1,-392.5 1585.1,-392.5"/>
<text text-anchor="middle" x="1675.6" y="-399.5" font-family="Helvetica,sans-Serif" font-size="10.00">gauri/core/mouse_button_codes.h</text>
</a>
</g>
</g>
<!-- Node2&#45;&gt;Node23 -->
<g id="edge37" class="edge">
<title>Node2&#45;&gt;Node23</title>
<path fill="none" stroke="midnightblue" d="M806.66,-455.88C903.8,-451.49 1265.13,-434.55 1574.8,-412.03"/>
<polygon fill="midnightblue" stroke="midnightblue" points="1575.15,-415.52 1584.86,-411.3 1574.64,-408.54 1575.15,-415.52"/>
</g>
<!-- Node24 -->
<g id="node24" class="node">
<title>Node24</title>
<g id="a_node24"><a xlink:href="render__command_8h.html" target="_top" xlink:title=" ">
<polygon fill="white" stroke="black" points="1199.1,-336.5 1199.1,-355.5 1382.1,-355.5 1382.1,-336.5 1199.1,-336.5"/>
<text text-anchor="middle" x="1290.6" y="-343.5" font-family="Helvetica,sans-Serif" font-size="10.00">gauri/renderer/render_command.h</text>
</a>
</g>
</g>
<!-- Node2&#45;&gt;Node24 -->
<g id="edge39" class="edge">
<title>Node2&#45;&gt;Node24</title>
<path fill="none" stroke="midnightblue" d="M806.65,-455.98C898.99,-452.02 1216.91,-436.69 1254.6,-412 1270.93,-401.31 1280.53,-380.55 1285.66,-365.36"/>
<polygon fill="midnightblue" stroke="midnightblue" points="1289.09,-366.09 1288.63,-355.51 1282.39,-364.07 1289.09,-366.09"/>
</g>
<!-- Node25 -->
<g id="node25" class="node">
<title>Node25</title>
<g id="a_node25"><a xlink:href="renderer__api_8h.html" target="_top" xlink:title=" ">
<polygon fill="white" stroke="black" points="1160.1,-280.5 1160.1,-299.5 1319.1,-299.5 1319.1,-280.5 1160.1,-280.5"/>
<text text-anchor="middle" x="1239.6" y="-287.5" font-family="Helvetica,sans-Serif" font-size="10.00">gauri/renderer/renderer_api.h</text>
</a>
</g>
</g>
<!-- Node2&#45;&gt;Node25 -->
<g id="edge67" class="edge">
<title>Node2&#45;&gt;Node25</title>
<path fill="none" stroke="midnightblue" d="M806.96,-457.47C914.24,-458.8 1328.29,-457.25 1391.6,-356 1411.23,-324.61 1372.49,-308.35 1329.21,-299.94"/>
<polygon fill="midnightblue" stroke="midnightblue" points="1329.8,-296.49 1319.34,-298.17 1328.56,-303.38 1329.8,-296.49"/>
</g>
<!-- Node27 -->
<g id="node27" class="node">
<title>Node27</title>
<g id="a_node27"><a xlink:href="vertex__array_8h.html" target="_top" xlink:title=" ">
<polygon fill="white" stroke="black" points="1053.6,-224.5 1053.6,-243.5 1211.6,-243.5 1211.6,-224.5 1053.6,-224.5"/>
<text text-anchor="middle" x="1132.6" y="-231.5" font-family="Helvetica,sans-Serif" font-size="10.00">gauri/renderer/vertex_array.h</text>
</a>
</g>
</g>
<!-- Node2&#45;&gt;Node27 -->
<g id="edge61" class="edge">
<title>Node2&#45;&gt;Node27</title>
<path fill="none" stroke="midnightblue" d="M806.69,-457.67C869.22,-457.86 1032.77,-448.98 1113.6,-356 1138.52,-327.34 1137.92,-279.79 1135.28,-253.65"/>
<polygon fill="midnightblue" stroke="midnightblue" points="1138.74,-253.08 1134.05,-243.58 1131.79,-253.93 1138.74,-253.08"/>
</g>
<!-- Node28 -->
<g id="node28" class="node">
<title>Node28</title>
<g id="a_node28"><a xlink:href="buffer_8h.html" target="_top" xlink:title=" ">
<polygon fill="white" stroke="black" points="850.1,-168.5 850.1,-187.5 975.1,-187.5 975.1,-168.5 850.1,-168.5"/>
<text text-anchor="middle" x="912.6" y="-175.5" font-family="Helvetica,sans-Serif" font-size="10.00">gauri/renderer/buffer.h</text>
</a>
</g>
</g>
<!-- Node2&#45;&gt;Node28 -->
<g id="edge56" class="edge">
<title>Node2&#45;&gt;Node28</title>
<path fill="none" stroke="midnightblue" d="M796.96,-448.31C823.38,-432.09 874.6,-394.51 874.6,-347 874.6,-347 874.6,-347 874.6,-289 874.6,-254.81 891.21,-217.76 902.46,-196.57"/>
<polygon fill="midnightblue" stroke="midnightblue" points="905.55,-198.22 907.32,-187.77 899.42,-194.83 905.55,-198.22"/>
</g>
<!-- Node29 -->
<g id="node29" class="node">
<title>Node29</title>
<g id="a_node29"><a xlink:href="renderer_8h.html" target="_top" xlink:title=" ">
<polygon fill="white" stroke="black" points="1107.6,-392.5 1107.6,-411.5 1245.6,-411.5 1245.6,-392.5 1107.6,-392.5"/>
<text text-anchor="middle" x="1176.6" y="-399.5" font-family="Helvetica,sans-Serif" font-size="10.00">gauri/renderer/renderer.h</text>
</a>
</g>
</g>
<!-- Node2&#45;&gt;Node29 -->
<g id="edge48" class="edge">
<title>Node2&#45;&gt;Node29</title>
<path fill="none" stroke="midnightblue" d="M806.61,-453.58C865.4,-445.54 1014.18,-425.2 1104.15,-412.91"/>
<polygon fill="midnightblue" stroke="midnightblue" points="1104.85,-416.34 1114.28,-411.52 1103.9,-409.41 1104.85,-416.34"/>
</g>
<!-- Node30 -->
<g id="node30" class="node">
<title>Node30</title>
<g id="a_node30"><a xlink:href="orthographic__camera_8h.html" target="_top" xlink:title=" ">
<polygon fill="white" stroke="black" points="903.1,-336.5 903.1,-355.5 1104.1,-355.5 1104.1,-336.5 903.1,-336.5"/>
<text text-anchor="middle" x="1003.6" y="-343.5" font-family="Helvetica,sans-Serif" font-size="10.00">gauri/renderer/orthographic_camera.h</text>
</a>
</g>
</g>
<!-- Node2&#45;&gt;Node30 -->
<g id="edge62" class="edge">
<title>Node2&#45;&gt;Node30</title>
<path fill="none" stroke="midnightblue" d="M804.07,-448.43C825.96,-439.88 860.02,-426.03 888.6,-412 921.54,-395.84 958.21,-374.49 981.1,-360.76"/>
<polygon fill="midnightblue" stroke="midnightblue" points="982.98,-363.71 989.73,-355.54 979.36,-357.72 982.98,-363.71"/>
</g>
<!-- Node31 -->
<g id="node31" class="node">
<title>Node31</title>
<g id="a_node31"><a xlink:href="shader_8h.html" target="_top" xlink:title=" ">
<polygon fill="white" stroke="black" points="716.6,-336.5 716.6,-355.5 846.6,-355.5 846.6,-336.5 716.6,-336.5"/>
<text text-anchor="middle" x="781.6" y="-343.5" font-family="Helvetica,sans-Serif" font-size="10.00">gauri/renderer/shader.h</text>
</a>
</g>
</g>
<!-- Node2&#45;&gt;Node31 -->
<g id="edge57" class="edge">
<title>Node2&#45;&gt;Node31</title>
<path fill="none" stroke="midnightblue" d="M781.6,-448.37C781.6,-430.62 781.6,-389.67 781.6,-365.6"/>
<polygon fill="midnightblue" stroke="midnightblue" points="785.1,-365.59 781.6,-355.59 778.1,-365.59 785.1,-365.59"/>
</g>
<!-- Node32 -->
<g id="node32" class="node">
<title>Node32</title>
<g id="a_node32"><a xlink:href="texture_8h.html" target="_top" xlink:title=" ">
<polygon fill="white" stroke="black" points="622.1,-224.5 622.1,-243.5 755.1,-243.5 755.1,-224.5 622.1,-224.5"/>
<text text-anchor="middle" x="688.6" y="-231.5" font-family="Helvetica,sans-Serif" font-size="10.00">gauri/renderer/texture.h</text>
</a>
</g>
</g>
<!-- Node2&#45;&gt;Node32 -->
<g id="edge58" class="edge">
<title>Node2&#45;&gt;Node32</title>
<path fill="none" stroke="midnightblue" d="M773.05,-448.44C757.24,-432.08 723.63,-394.54 707.6,-356 693.37,-321.76 689.71,-278.02 688.83,-253.61"/>
<polygon fill="midnightblue" stroke="midnightblue" points="692.32,-253.5 688.58,-243.59 685.33,-253.67 692.32,-253.5"/>
</g>
<!-- Node33 -->
<g id="node33" class="node">
<title>Node33</title>
<g id="a_node33"><a xlink:href="orthographic__camera__controller_8h.html" target="_top" xlink:title=" ">
<polygon fill="white" stroke="black" points="374.6,-392.5 374.6,-411.5 626.6,-411.5 626.6,-392.5 374.6,-392.5"/>
<text text-anchor="middle" x="500.6" y="-399.5" font-family="Helvetica,sans-Serif" font-size="10.00">gauri/renderer/orthographic_camera_controller.h</text>
</a>
</g>
</g>
<!-- Node2&#45;&gt;Node33 -->
<g id="edge63" class="edge">
<title>Node2&#45;&gt;Node33</title>
<path fill="none" stroke="midnightblue" d="M756.17,-452.11C710.96,-443.42 615.68,-425.11 555.08,-413.47"/>
<polygon fill="midnightblue" stroke="midnightblue" points="555.41,-409.97 544.93,-411.52 554.09,-416.84 555.41,-409.97"/>
</g>
<!-- Node4 -->
<g id="node4" class="node">
<title>Node4</title>
<g id="a_node4"><a xlink:href="layer__stack_8h.html" target="_top" xlink:title=" ">
<polygon fill="white" stroke="black" points="374.6,-336.5 374.6,-355.5 508.6,-355.5 508.6,-336.5 374.6,-336.5"/>
<text text-anchor="middle" x="441.6" y="-343.5" font-family="Helvetica,sans-Serif" font-size="10.00">gauri/core/layer_stack.h</text>
</a>
</g>
</g>
<!-- Node3&#45;&gt;Node4 -->
<g id="edge3" class="edge">
<title>Node3&#45;&gt;Node4</title>
<path fill="none" stroke="midnightblue" d="M282.55,-392.44C314.76,-383.24 366.14,-368.56 401.75,-358.39"/>
<polygon fill="midnightblue" stroke="midnightblue" points="403.14,-361.63 411.8,-355.52 401.22,-354.9 403.14,-361.63"/>
</g>
<!-- Node3&#45;&gt;Node13 -->
<g id="edge22" class="edge">
<title>Node3&#45;&gt;Node13</title>
<path fill="none" stroke="midnightblue" d="M318.36,-393.7C392.11,-384.92 503.34,-369.66 517.6,-356 545.45,-329.34 547.04,-280.6 545.49,-253.84"/>
<polygon fill="midnightblue" stroke="midnightblue" points="548.95,-253.23 544.68,-243.54 541.98,-253.79 548.95,-253.23"/>
</g>
<!-- Node14 -->
<g id="node14" class="node">
<title>Node14</title>
<g id="a_node14"><a xlink:href="event_8h.html" target="_top" xlink:title=" ">
<polygon fill="white" stroke="black" points="219.6,-224.5 219.6,-243.5 331.6,-243.5 331.6,-224.5 219.6,-224.5"/>
<text text-anchor="middle" x="275.6" y="-231.5" font-family="Helvetica,sans-Serif" font-size="10.00">gauri/event/event.h</text>
</a>
</g>
</g>
<!-- Node3&#45;&gt;Node14 -->
<g id="edge28" class="edge">
<title>Node3&#45;&gt;Node14</title>
<path fill="none" stroke="midnightblue" d="M256.56,-392.25C260.38,-383.33 265.97,-369 268.6,-356 275.81,-320.38 276.48,-277.74 276.15,-253.77"/>
<polygon fill="midnightblue" stroke="midnightblue" points="279.65,-253.54 275.94,-243.62 272.65,-253.69 279.65,-253.54"/>
</g>
<!-- Node19 -->
<g id="node19" class="node">
<title>Node19</title>
<g id="a_node19"><a xlink:href="window_8h.html" target="_top" xlink:title=" ">
<polygon fill="white" stroke="black" points="133.6,-280.5 133.6,-299.5 247.6,-299.5 247.6,-280.5 133.6,-280.5"/>
<text text-anchor="middle" x="190.6" y="-287.5" font-family="Helvetica,sans-Serif" font-size="10.00">gauri/core/window.h</text>
</a>
</g>
</g>
<!-- Node3&#45;&gt;Node19 -->
<g id="edge23" class="edge">
<title>Node3&#45;&gt;Node19</title>
<path fill="none" stroke="midnightblue" d="M187.1,-397.19C158.5,-391.86 127.46,-380.34 109.6,-356 93.22,-333.67 125.67,-314.73 154.25,-303.15"/>
<polygon fill="midnightblue" stroke="midnightblue" points="155.63,-306.37 163.71,-299.52 153.12,-299.84 155.63,-306.37"/>
</g>
<!-- Node3&#45;&gt;Node20 -->
<g id="edge29" class="edge">
<title>Node3&#45;&gt;Node20</title>
<path fill="none" stroke="midnightblue" d="M242.32,-392.32C232.77,-384.26 218.32,-372.08 206.82,-362.37"/>
<polygon fill="midnightblue" stroke="midnightblue" points="208.97,-359.61 199.07,-355.83 204.46,-364.96 208.97,-359.61"/>
</g>
<!-- Node5 -->
<g id="node5" class="node">
<title>Node5</title>
<g id="a_node5"><a xlink:href="core_8h.html" target="_top" xlink:title=" ">
<polygon fill="white" stroke="black" points="473.6,-112.5 473.6,-131.5 571.6,-131.5 571.6,-112.5 473.6,-112.5"/>
<text text-anchor="middle" x="522.6" y="-119.5" font-family="Helvetica,sans-Serif" font-size="10.00">gauri/core/core.h</text>
</a>
</g>
</g>
<!-- Node4&#45;&gt;Node5 -->
<g id="edge4" class="edge">
<title>Node4&#45;&gt;Node5</title>
<path fill="none" stroke="midnightblue" d="M452.32,-336.3C461.54,-328.07 474.2,-314.79 479.6,-300 491.23,-268.21 467.16,-257.02 474.6,-224 481.66,-192.73 499.58,-159.78 511.42,-140.33"/>
<polygon fill="midnightblue" stroke="midnightblue" points="514.48,-142.03 516.81,-131.7 508.54,-138.32 514.48,-142.03"/>
</g>
<!-- Node4&#45;&gt;Node12 -->
<g id="edge12" class="edge">
<title>Node4&#45;&gt;Node12</title>
<path fill="none" stroke="midnightblue" d="M427.63,-336.32C414.05,-327.9 393.22,-314.97 377.28,-305.07"/>
<polygon fill="midnightblue" stroke="midnightblue" points="378.89,-301.95 368.55,-299.65 375.2,-307.9 378.89,-301.95"/>
</g>
<!-- Node18 -->
<g id="node18" class="node">
<title>Node18</title>
<g id="a_node18"><a xlink:title=" ">
<polygon fill="white" stroke="#bfbfbf" points="423.1,-280.5 423.1,-299.5 470.1,-299.5 470.1,-280.5 423.1,-280.5"/>
<text text-anchor="middle" x="446.6" y="-287.5" font-family="Helvetica,sans-Serif" font-size="10.00">vector</text>
</a>
</g>
</g>
<!-- Node4&#45;&gt;Node18 -->
<g id="edge21" class="edge">
<title>Node4&#45;&gt;Node18</title>
<path fill="none" stroke="midnightblue" d="M442.43,-336.08C443.09,-329.01 444.02,-318.86 444.85,-309.99"/>
<polygon fill="midnightblue" stroke="midnightblue" points="448.36,-310.03 445.79,-299.75 441.39,-309.39 448.36,-310.03"/>
</g>
<!-- Node6 -->
<g id="node6" class="node">
<title>Node6</title>
<g id="a_node6"><a xlink:title=" ">
<polygon fill="white" stroke="#bfbfbf" points="179.6,-56.5 179.6,-75.5 229.6,-75.5 229.6,-56.5 179.6,-56.5"/>
<text text-anchor="middle" x="204.6" y="-63.5" font-family="Helvetica,sans-Serif" font-size="10.00">cstdint</text>
</a>
</g>
</g>
<!-- Node5&#45;&gt;Node6 -->
<g id="edge5" class="edge">
<title>Node5&#45;&gt;Node6</title>
<path fill="none" stroke="midnightblue" d="M473.27,-112.62C408.56,-101.63 296.61,-82.62 239.82,-72.98"/>
<polygon fill="midnightblue" stroke="midnightblue" points="240.33,-69.52 229.88,-71.29 239.16,-76.42 240.33,-69.52"/>
</g>
<!-- Node7 -->
<g id="node7" class="node">
<title>Node7</title>
<g id="a_node7"><a xlink:title=" ">
<polygon fill="white" stroke="#bfbfbf" points="999.6,-0.5 999.6,-19.5 1057.6,-19.5 1057.6,-0.5 999.6,-0.5"/>
<text text-anchor="middle" x="1028.6" y="-7.5" font-family="Helvetica,sans-Serif" font-size="10.00">memory</text>
</a>
</g>
</g>
<!-- Node5&#45;&gt;Node7 -->
<g id="edge6" class="edge">
<title>Node5&#45;&gt;Node7</title>
<path fill="none" stroke="midnightblue" d="M571.75,-120.6C644.96,-118.8 786.28,-110.64 900.6,-76 940.16,-64.02 982.17,-40.29 1006.87,-25.05"/>
<polygon fill="midnightblue" stroke="midnightblue" points="1008.83,-27.95 1015.44,-19.68 1005.11,-22.02 1008.83,-27.95"/>
</g>
<!-- Node5&#45;&gt;Node8 -->
<g id="edge7" class="edge">
<title>Node5&#45;&gt;Node8</title>
<path fill="none" stroke="midnightblue" d="M571.82,-112.56C627.52,-103.01 718.23,-87.46 777.92,-77.23"/>
<polygon fill="midnightblue" stroke="midnightblue" points="778.69,-80.65 787.95,-75.51 777.5,-73.75 778.69,-80.65"/>
</g>
<!-- Node8&#45;&gt;Node7 -->
<g id="edge9" class="edge">
<title>Node8&#45;&gt;Node7</title>
<path fill="none" stroke="midnightblue" d="M867.87,-56.44C900.85,-47.12 953.71,-32.17 989.74,-21.99"/>
<polygon fill="midnightblue" stroke="midnightblue" points="990.75,-25.34 999.42,-19.25 988.85,-18.6 990.75,-25.34"/>
</g>
<!-- Node9 -->
<g id="node9" class="node">
<title>Node9</title>
<g id="a_node9"><a xlink:title=" ">
<polygon fill="white" stroke="#bfbfbf" points="902.6,-0.5 902.6,-19.5 952.6,-19.5 952.6,-0.5 902.6,-0.5"/>
<text text-anchor="middle" x="927.6" y="-7.5" font-family="Helvetica,sans-Serif" font-size="10.00">format</text>
</a>
</g>
</g>
<!-- Node8&#45;&gt;Node9 -->
<g id="edge8" class="edge">
<title>Node8&#45;&gt;Node9</title>
<path fill="none" stroke="midnightblue" d="M852.06,-56.32C866.1,-47.9 887.65,-34.97 904.15,-25.07"/>
<polygon fill="midnightblue" stroke="midnightblue" points="906.41,-27.8 913.18,-19.65 902.8,-21.8 906.41,-27.8"/>
</g>
<!-- Node10 -->
<g id="node10" class="node">
<title>Node10</title>
<g id="a_node10"><a xlink:title=" ">
<polygon fill="white" stroke="#bfbfbf" points="674.1,-0.5 674.1,-19.5 773.1,-19.5 773.1,-0.5 674.1,-0.5"/>
<text text-anchor="middle" x="723.6" y="-7.5" font-family="Helvetica,sans-Serif" font-size="10.00">spdlog/fmt/ostr.h</text>
</a>
</g>
</g>
<!-- Node8&#45;&gt;Node10 -->
<g id="edge10" class="edge">
<title>Node8&#45;&gt;Node10</title>
<path fill="none" stroke="midnightblue" d="M819.54,-56.44C801.03,-47.68 772.02,-33.94 750.75,-23.86"/>
<polygon fill="midnightblue" stroke="midnightblue" points="752.12,-20.63 741.58,-19.52 749.12,-26.96 752.12,-20.63"/>
</g>
<!-- Node11 -->
<g id="node11" class="node">
<title>Node11</title>
<g id="a_node11"><a xlink:title=" ">
<polygon fill="white" stroke="#bfbfbf" points="791.1,-0.5 791.1,-19.5 884.1,-19.5 884.1,-0.5 791.1,-0.5"/>
<text text-anchor="middle" x="837.6" y="-7.5" font-family="Helvetica,sans-Serif" font-size="10.00">spdlog/spdlog.h</text>
</a>
</g>
</g>
<!-- Node8&#45;&gt;Node11 -->
<g id="edge11" class="edge">
<title>Node8&#45;&gt;Node11</title>
<path fill="none" stroke="midnightblue" d="M837.6,-56.08C837.6,-49.01 837.6,-38.86 837.6,-29.99"/>
<polygon fill="midnightblue" stroke="midnightblue" points="841.1,-29.75 837.6,-19.75 834.1,-29.75 841.1,-29.75"/>
</g>
<!-- Node12&#45;&gt;Node5 -->
<g id="edge13" class="edge">
<title>Node12&#45;&gt;Node5</title>
<path fill="none" stroke="midnightblue" d="M358.95,-280.38C370.04,-259.04 401.34,-202.96 440.6,-168 455.71,-154.55 475.53,-143.54 491.9,-135.77"/>
<polygon fill="midnightblue" stroke="midnightblue" points="493.43,-138.92 501.08,-131.58 490.52,-132.55 493.43,-138.92"/>
</g>
<!-- Node12&#45;&gt;Node13 -->
<g id="edge14" class="edge">
<title>Node12&#45;&gt;Node13</title>
<path fill="none" stroke="midnightblue" d="M384.55,-280.44C416.76,-271.24 468.14,-256.56 503.75,-246.39"/>
<polygon fill="midnightblue" stroke="midnightblue" points="505.14,-249.63 513.8,-243.52 503.22,-242.9 505.14,-249.63"/>
</g>
<!-- Node12&#45;&gt;Node14 -->
<g id="edge15" class="edge">
<title>Node12&#45;&gt;Node14</title>
<path fill="none" stroke="midnightblue" d="M341.91,-280.32C329.7,-271.98 311.03,-259.21 296.6,-249.35"/>
<polygon fill="midnightblue" stroke="midnightblue" points="298.5,-246.41 288.27,-243.65 294.55,-252.19 298.5,-246.41"/>
</g>
<!-- Node14&#45;&gt;Node5 -->
<g id="edge20" class="edge">
<title>Node14&#45;&gt;Node5</title>
<path fill="none" stroke="midnightblue" d="M281.08,-224.32C290.46,-210.22 310.97,-182.46 335.6,-168 374.73,-145.04 424.99,-133.77 463.56,-128.26"/>
<polygon fill="midnightblue" stroke="midnightblue" points="464.15,-131.71 473.6,-126.91 463.22,-124.77 464.15,-131.71"/>
</g>
<!-- Node14&#45;&gt;Node6 -->
<g id="edge16" class="edge">
<title>Node14&#45;&gt;Node6</title>
<path fill="none" stroke="midnightblue" d="M260.71,-224.3C248.65,-216.42 232.29,-203.66 223.6,-188 205.52,-155.42 203.29,-110.74 203.69,-85.8"/>
<polygon fill="midnightblue" stroke="midnightblue" points="207.19,-85.67 204.02,-75.56 200.2,-85.44 207.19,-85.67"/>
</g>
<!-- Node15 -->
<g id="node15" class="node">
<title>Node15</title>
<g id="a_node15"><a xlink:title=" ">
<polygon fill="white" stroke="#bfbfbf" points="111.1,-168.5 111.1,-187.5 176.1,-187.5 176.1,-168.5 111.1,-168.5"/>
<text text-anchor="middle" x="143.6" y="-175.5" font-family="Helvetica,sans-Serif" font-size="10.00">functional</text>
</a>
</g>
</g>
<!-- Node14&#45;&gt;Node15 -->
<g id="edge17" class="edge">
<title>Node14&#45;&gt;Node15</title>
<path fill="none" stroke="midnightblue" d="M254.69,-224.44C232.87,-215.52 198.45,-201.44 173.71,-191.32"/>
<polygon fill="midnightblue" stroke="midnightblue" points="175,-188.06 164.42,-187.52 172.35,-194.54 175,-188.06"/>
</g>
<!-- Node16 -->
<g id="node16" class="node">
<title>Node16</title>
<g id="a_node16"><a xlink:title=" ">
<polygon fill="white" stroke="#bfbfbf" points="232.6,-168.5 232.6,-187.5 288.6,-187.5 288.6,-168.5 232.6,-168.5"/>
<text text-anchor="middle" x="260.6" y="-175.5" font-family="Helvetica,sans-Serif" font-size="10.00">sstream</text>
</a>
</g>
</g>
<!-- Node14&#45;&gt;Node16 -->
<g id="edge18" class="edge">
<title>Node14&#45;&gt;Node16</title>
<path fill="none" stroke="midnightblue" d="M273.13,-224.08C271.12,-216.85 268.22,-206.41 265.71,-197.4"/>
<polygon fill="midnightblue" stroke="midnightblue" points="269.08,-196.45 263.04,-187.75 262.34,-198.32 269.08,-196.45"/>
</g>
<!-- Node17 -->
<g id="node17" class="node">
<title>Node17</title>
<g id="a_node17"><a xlink:title=" ">
<polygon fill="white" stroke="#bfbfbf" points="344.6,-168.5 344.6,-187.5 388.6,-187.5 388.6,-168.5 344.6,-168.5"/>
<text text-anchor="middle" x="366.6" y="-175.5" font-family="Helvetica,sans-Serif" font-size="10.00">string</text>
</a>
</g>
</g>
<!-- Node14&#45;&gt;Node17 -->
<g id="edge19" class="edge">
<title>Node14&#45;&gt;Node17</title>
<path fill="none" stroke="midnightblue" d="M290.23,-224.32C304.55,-215.82 326.62,-202.73 343.35,-192.8"/>
<polygon fill="midnightblue" stroke="midnightblue" points="345.21,-195.77 352.02,-187.65 341.63,-189.75 345.21,-195.77"/>
</g>
<!-- Node19&#45;&gt;Node6 -->
<g id="edge24" class="edge">
<title>Node19&#45;&gt;Node6</title>
<path fill="none" stroke="midnightblue" d="M176.05,-280.49C146.28,-261.89 82.81,-215.47 102.6,-168 118.58,-129.69 156.94,-98.48 181.8,-81.35"/>
<polygon fill="midnightblue" stroke="midnightblue" points="183.91,-84.15 190.28,-75.68 180.02,-78.33 183.91,-84.15"/>
</g>
<!-- Node19&#45;&gt;Node14 -->
<g id="edge27" class="edge">
<title>Node19&#45;&gt;Node14</title>
<path fill="none" stroke="midnightblue" d="M204.26,-280.32C217.52,-271.9 237.87,-258.97 253.45,-249.07"/>
<polygon fill="midnightblue" stroke="midnightblue" points="255.42,-251.97 261.98,-243.65 251.66,-246.06 255.42,-251.97"/>
</g>
<!-- Node19&#45;&gt;Node15 -->
<g id="edge25" class="edge">
<title>Node19&#45;&gt;Node15</title>
<path fill="none" stroke="midnightblue" d="M186.92,-280.37C179.26,-262.46 161.52,-220.92 151.27,-196.95"/>
<polygon fill="midnightblue" stroke="midnightblue" points="154.42,-195.41 147.28,-187.59 147.99,-198.16 154.42,-195.41"/>
</g>
<!-- Node19&#45;&gt;Node17 -->
<g id="edge26" class="edge">
<title>Node19&#45;&gt;Node17</title>
<path fill="none" stroke="midnightblue" d="M247.81,-283.86C278.59,-278.38 315.33,-267.12 340.6,-244 353.75,-231.97 360.37,-212.4 363.62,-197.87"/>
<polygon fill="midnightblue" stroke="midnightblue" points="367.08,-198.43 365.51,-187.95 360.2,-197.12 367.08,-198.43"/>
</g>
<!-- Node20&#45;&gt;Node12 -->
<g id="edge30" class="edge">
<title>Node20&#45;&gt;Node12</title>
<path fill="none" stroke="midnightblue" d="M214.91,-336.44C242.96,-327.32 287.55,-312.81 318.79,-302.65"/>
<polygon fill="midnightblue" stroke="midnightblue" points="320,-305.94 328.42,-299.52 317.83,-299.28 320,-305.94"/>
</g>
<!-- Node21&#45;&gt;Node5 -->
<g id="edge35" class="edge">
<title>Node21&#45;&gt;Node5</title>
<path fill="none" stroke="midnightblue" d="M64.37,-280.25C64.3,-257.58 67.52,-196.75 102.6,-168 129.9,-145.62 353.72,-131.45 463,-125.8"/>
<polygon fill="midnightblue" stroke="midnightblue" points="463.4,-129.28 473.21,-125.28 463.05,-122.29 463.4,-129.28"/>
</g>
<!-- Node24&#45;&gt;Node25 -->
<g id="edge40" class="edge">
<title>Node24&#45;&gt;Node25</title>
<path fill="none" stroke="midnightblue" d="M1282.18,-336.08C1274.76,-328.22 1263.75,-316.57 1254.79,-307.08"/>
<polygon fill="midnightblue" stroke="midnightblue" points="1257.28,-304.62 1247.87,-299.75 1252.19,-309.42 1257.28,-304.62"/>
</g>
<!-- Node25&#45;&gt;Node7 -->
<g id="edge42" class="edge">
<title>Node25&#45;&gt;Node7</title>
<path fill="none" stroke="midnightblue" d="M1239.6,-280.44C1239.6,-261.94 1239.6,-216.81 1239.6,-179 1239.6,-179 1239.6,-179 1239.6,-121 1239.6,-44.46 1129.08,-21.09 1068.01,-14.02"/>
<polygon fill="midnightblue" stroke="midnightblue" points="1068.26,-10.53 1057.94,-12.95 1067.52,-17.49 1068.26,-10.53"/>
</g>
<!-- Node26 -->
<g id="node26" class="node">
<title>Node26</title>
<g id="a_node26"><a xlink:title=" ">
<polygon fill="white" stroke="#bfbfbf" points="957.6,-224.5 957.6,-243.5 1035.6,-243.5 1035.6,-224.5 957.6,-224.5"/>
<text text-anchor="middle" x="996.6" y="-231.5" font-family="Helvetica,sans-Serif" font-size="10.00">glm/glm.hpp</text>
</a>
</g>
</g>
<!-- Node25&#45;&gt;Node26 -->
<g id="edge41" class="edge">
<title>Node25&#45;&gt;Node26</title>
<path fill="none" stroke="midnightblue" d="M1201.1,-280.44C1158.8,-271.04 1090.79,-255.93 1044.93,-245.74"/>
<polygon fill="midnightblue" stroke="midnightblue" points="1045.45,-242.27 1034.93,-243.52 1043.93,-249.1 1045.45,-242.27"/>
</g>
<!-- Node25&#45;&gt;Node27 -->
<g id="edge43" class="edge">
<title>Node25&#45;&gt;Node27</title>
<path fill="none" stroke="midnightblue" d="M1222.41,-280.32C1205.25,-271.66 1178.66,-258.24 1158.86,-248.25"/>
<polygon fill="midnightblue" stroke="midnightblue" points="1160.26,-245.04 1149.75,-243.65 1157.1,-251.28 1160.26,-245.04"/>
</g>
<!-- Node27&#45;&gt;Node7 -->
<g id="edge44" class="edge">
<title>Node27&#45;&gt;Node7</title>
<path fill="none" stroke="midnightblue" d="M1128.53,-224.3C1113.13,-191.42 1058.3,-74.39 1037.08,-29.09"/>
<polygon fill="midnightblue" stroke="midnightblue" points="1040.18,-27.45 1032.77,-19.88 1033.84,-30.42 1040.18,-27.45"/>
</g>
<!-- Node27&#45;&gt;Node28 -->
<g id="edge45" class="edge">
<title>Node27&#45;&gt;Node28</title>
<path fill="none" stroke="midnightblue" d="M1097.74,-224.44C1059.69,-215.1 998.65,-200.12 957.14,-189.93"/>
<polygon fill="midnightblue" stroke="midnightblue" points="957.85,-186.5 947.3,-187.52 956.18,-193.3 957.85,-186.5"/>
</g>
<!-- Node28&#45;&gt;Node5 -->
<g id="edge46" class="edge">
<title>Node28&#45;&gt;Node5</title>
<path fill="none" stroke="midnightblue" d="M850.81,-168.44C777.11,-158.24 654.79,-141.3 582.11,-131.24"/>
<polygon fill="midnightblue" stroke="midnightblue" points="582.15,-127.71 571.76,-129.81 581.19,-134.65 582.15,-127.71"/>
</g>
<!-- Node28&#45;&gt;Node8 -->
<g id="edge47" class="edge">
<title>Node28&#45;&gt;Node8</title>
<path fill="none" stroke="midnightblue" d="M906.72,-168.37C894.34,-150.22 865.42,-107.8 849.19,-83.99"/>
<polygon fill="midnightblue" stroke="midnightblue" points="851.99,-81.88 843.46,-75.59 846.2,-85.83 851.99,-81.88"/>
</g>
<!-- Node29&#45;&gt;Node24 -->
<g id="edge51" class="edge">
<title>Node29&#45;&gt;Node24</title>
<path fill="none" stroke="midnightblue" d="M1194.67,-392.44C1213.18,-383.68 1242.19,-369.94 1263.46,-359.86"/>
<polygon fill="midnightblue" stroke="midnightblue" points="1265.09,-362.96 1272.63,-355.52 1262.09,-356.63 1265.09,-362.96"/>
</g>
<!-- Node29&#45;&gt;Node25 -->
<g id="edge52" class="edge">
<title>Node29&#45;&gt;Node25</title>
<path fill="none" stroke="midnightblue" d="M1176.82,-392.42C1177.49,-379.39 1180.16,-354.23 1190.6,-336 1197.35,-324.22 1208.24,-313.77 1218.03,-305.91"/>
<polygon fill="midnightblue" stroke="midnightblue" points="1220.37,-308.53 1226.23,-299.7 1216.15,-302.95 1220.37,-308.53"/>
</g>
<!-- Node29&#45;&gt;Node30 -->
<g id="edge49" class="edge">
<title>Node29&#45;&gt;Node30</title>
<path fill="none" stroke="midnightblue" d="M1149.19,-392.44C1119.84,-383.28 1073.09,-368.69 1040.51,-358.52"/>
<polygon fill="midnightblue" stroke="midnightblue" points="1041.48,-355.16 1030.89,-355.52 1039.39,-361.84 1041.48,-355.16"/>
</g>
<!-- Node29&#45;&gt;Node31 -->
<g id="edge53" class="edge">
<title>Node29&#45;&gt;Node31</title>
<path fill="none" stroke="midnightblue" d="M1114.02,-392.44C1043.38,-382.79 928.63,-367.1 854.14,-356.92"/>
<polygon fill="midnightblue" stroke="midnightblue" points="854.28,-353.4 843.9,-355.52 853.33,-360.34 854.28,-353.4"/>
</g>
<!-- Node30&#45;&gt;Node26 -->
<g id="edge50" class="edge">
<title>Node30&#45;&gt;Node26</title>
<path fill="none" stroke="midnightblue" d="M1003.06,-336.37C1001.93,-318.62 999.32,-277.67 997.79,-253.6"/>
<polygon fill="midnightblue" stroke="midnightblue" points="1001.28,-253.35 997.15,-243.59 994.29,-253.79 1001.28,-253.35"/>
</g>
<!-- Node31&#45;&gt;Node5 -->
<g id="edge55" class="edge">
<title>Node31&#45;&gt;Node5</title>
<path fill="none" stroke="midnightblue" d="M786.48,-336.37C791.16,-327.55 797.91,-313.3 800.6,-300 807.45,-266.17 807.89,-249.48 784.6,-224 731.51,-165.92 641.21,-140.93 581.73,-130.39"/>
<polygon fill="midnightblue" stroke="midnightblue" points="582.18,-126.92 571.73,-128.7 581.01,-133.82 582.18,-126.92"/>
</g>
<!-- Node31&#45;&gt;Node17 -->
<g id="edge54" class="edge">
<title>Node31&#45;&gt;Node17</title>
<path fill="none" stroke="midnightblue" d="M783.5,-336.44C787.84,-314.26 795.92,-254.48 764.6,-224 738.54,-198.63 489.19,-184.67 398.98,-180.42"/>
<polygon fill="midnightblue" stroke="midnightblue" points="398.94,-176.91 388.79,-179.95 398.62,-183.9 398.94,-176.91"/>
</g>
<!-- Node32&#45;&gt;Node5 -->
<g id="edge60" class="edge">
<title>Node32&#45;&gt;Node5</title>
<path fill="none" stroke="midnightblue" d="M675.58,-224.37C647.09,-205.49 579.02,-160.38 544.09,-137.24"/>
<polygon fill="midnightblue" stroke="midnightblue" points="545.84,-134.2 535.57,-131.59 541.97,-140.03 545.84,-134.2"/>
</g>
<!-- Node32&#45;&gt;Node17 -->
<g id="edge59" class="edge">
<title>Node32&#45;&gt;Node17</title>
<path fill="none" stroke="midnightblue" d="M637.58,-224.44C570.61,-213.21 455,-193.82 398.95,-184.42"/>
<polygon fill="midnightblue" stroke="midnightblue" points="399.32,-180.94 388.88,-182.74 398.17,-187.84 399.32,-180.94"/>
</g>
<!-- Node33&#45;&gt;Node13 -->
<g id="edge64" class="edge">
<title>Node33&#45;&gt;Node13</title>
<path fill="none" stroke="midnightblue" d="M536.46,-392.4C555.49,-385.81 577.23,-374.59 588.6,-356 606.23,-327.19 601.53,-311.21 588.6,-280 583.68,-268.12 573.94,-257.74 564.77,-249.96"/>
<polygon fill="midnightblue" stroke="midnightblue" points="566.69,-247.01 556.67,-243.56 562.35,-252.51 566.69,-247.01"/>
</g>
<!-- Node33&#45;&gt;Node14 -->
<g id="edge65" class="edge">
<title>Node33&#45;&gt;Node14</title>
<path fill="none" stroke="midnightblue" d="M506.08,-392.1C513.1,-379.52 523.7,-355.85 517.6,-336 508.77,-307.25 504.5,-296.88 479.6,-280 439.03,-252.49 384.43,-241.48 341.93,-237.22"/>
<polygon fill="midnightblue" stroke="midnightblue" points="342.23,-233.74 331.96,-236.33 341.6,-240.71 342.23,-233.74"/>
</g>
<!-- Node33&#45;&gt;Node30 -->
<g id="edge66" class="edge">
<title>Node33&#45;&gt;Node30</title>
<path fill="none" stroke="midnightblue" d="M580.03,-392.47C670.85,-382.72 819.17,-366.8 914.03,-356.62"/>
<polygon fill="midnightblue" stroke="midnightblue" points="914.61,-360.07 924.18,-355.53 913.87,-353.11 914.61,-360.07"/>
</g>
</g>
</svg>
