<?xml version="1.0" encoding="UTF-8" standalone="no"?>
<!DOCTYPE svg PUBLIC "-//W3C//DTD SVG 1.1//EN"
 "http://www.w3.org/Graphics/SVG/1.1/DTD/svg11.dtd">
<!-- Generated by graphviz version 2.43.0 (0)
 -->
<!-- Title: /home/runner/work/gauri/gauri/gauri/include/gauri/event/event.h Pages: 1 -->
<!--zoomable 420 -->
<svg id="main" version="1.1" xmlns="http://www.w3.org/2000/svg" xmlns:xlink="http://www.w3.org/1999/xlink" xml:space="preserve" onload="init(evt)">
<style type="text/css"><![CDATA[
.edge:hover path { stroke: red; }
.edge:hover polygon { stroke: red; fill: red; }
]]></style>
<script type="text/javascript"><![CDATA[
var edges = document.getElementsByTagName('g');
if (edges && edges.length) {
  for (var i=0;i<edges.length;i++) {
    if (edges[i].id.substr(0,4)=='edge') {
      edges[i].setAttribute('class','edge');
    }
  }
}
]]></script>
        <defs>
                <circle id="rim" cx="0" cy="0" r="7"/>
                <circle id="rim2" cx="0" cy="0" r="3.5"/>
                <g id="zoomPlus">
                        <use xlink:href="#rim" fill="#404040">
                                <set attributeName="fill" to="#808080" begin="zoomplus.mouseover" end="zoomplus.mouseout"/>
                        </use>
                        <path d="M-4,0h8M0,-4v8" fill="none" stroke="white" stroke-width="1.5" pointer-events="none"/>
                </g>
                <g id="zoomMin">
                        <use xlink:href="#rim" fill="#404040">
                                <set attributeName="fill" to="#808080" begin="zoomminus.mouseover" end="zoomminus.mouseout"/>
                        </use>
                        <path d="M-4,0h8" fill="none" stroke="white" stroke-width="1.5" pointer-events="none"/>
                </g>
                <g id="dirArrow">
                        <path fill="none" stroke="white" stroke-width="1.5" d="M0,-3.0v7 M-2.5,-0.5L0,-3.0L2.5,-0.5"/>
                </g>
               <g id="resetDef">
                       <use xlink:href="#rim2" fill="#404040">
                               <set attributeName="fill" to="#808080" begin="reset.mouseover" end="reset.mouseout"/>
                       </use>
               </g>
        </defs>

<script type="text/javascript">
var viewWidth = 2500;
var viewHeight = 420;
var sectionId = 'dynsection-1';
</script>
<script xlink:href="svgpan.js"/>
<svg id="graph" class="graph">
<g id="viewport">
<title>/home/runner/work/gauri/gauri/gauri/include/gauri/event/event.h</title>
<polygon fill="white" stroke="transparent" points="-4,4 -4,-416 2496.39,-416 2496.39,4 -4,4"/>
<!-- Node1 -->
<g id="node1" class="node">
<title>Node1</title>
<g id="a_node1"><a xlink:title=" ">
<polygon fill="#bfbfbf" stroke="black" points="845.39,-392.5 845.39,-411.5 1174.39,-411.5 1174.39,-392.5 845.39,-392.5"/>
<text text-anchor="middle" x="1009.89" y="-399.5" font-family="Helvetica,sans-Serif" font-size="10.00">/home/runner/work/gauri/gauri/gauri/include/gauri/event/event.h</text>
</a>
</g>
</g>
<!-- Node2 -->
<g id="node2" class="node">
<title>Node2</title>
<g id="a_node2"><a xlink:href="application_8h.html" target="_top" xlink:title=" ">
<polygon fill="white" stroke="black" points="463.89,-224.5 463.89,-243.5 811.89,-243.5 811.89,-224.5 463.89,-224.5"/>
<text text-anchor="middle" x="637.89" y="-231.5" font-family="Helvetica,sans-Serif" font-size="10.00">/home/runner/work/gauri/gauri/gauri/include/gauri/core/application.h</text>
</a>
</g>
</g>
<!-- Node1&#45;&gt;Node2 -->
<g id="edge1" class="edge">
<title>Node1&#45;&gt;Node2</title>
<path fill="none" stroke="midnightblue" d="M835.11,-399.43C580.33,-396.12 129.66,-386.05 60.89,-356 28.35,-341.78 17.62,-332.75 3.89,-300 0.45,-291.8 -2.17,-286.5 3.89,-280 34.77,-246.85 287.01,-237.71 463.85,-235.42"/>
<polygon fill="midnightblue" stroke="midnightblue" points="835.17,-402.93 845.21,-399.56 835.26,-395.93 835.17,-402.93"/>
</g>
<!-- Node5 -->
<g id="node5" class="node">
<title>Node5</title>
<g id="a_node5"><a xlink:href="layer_8h.html" target="_top" xlink:title=" ">
<polygon fill="white" stroke="black" points="850.89,-336.5 850.89,-355.5 1168.89,-355.5 1168.89,-336.5 850.89,-336.5"/>
<text text-anchor="middle" x="1009.89" y="-343.5" font-family="Helvetica,sans-Serif" font-size="10.00">/home/runner/work/gauri/gauri/gauri/include/gauri/core/layer.h</text>
</a>
</g>
</g>
<!-- Node1&#45;&gt;Node5 -->
<g id="edge4" class="edge">
<title>Node1&#45;&gt;Node5</title>
<path fill="none" stroke="midnightblue" d="M1009.89,-381.8C1009.89,-372.91 1009.89,-362.78 1009.89,-355.75"/>
<polygon fill="midnightblue" stroke="midnightblue" points="1006.39,-382.08 1009.89,-392.08 1013.39,-382.08 1006.39,-382.08"/>
</g>
<!-- Node8 -->
<g id="node8" class="node">
<title>Node8</title>
<g id="a_node8"><a xlink:href="window_8h.html" target="_top" xlink:title=" ">
<polygon fill="white" stroke="black" points="70.39,-336.5 70.39,-355.5 401.39,-355.5 401.39,-336.5 70.39,-336.5"/>
<text text-anchor="middle" x="235.89" y="-343.5" font-family="Helvetica,sans-Serif" font-size="10.00">/home/runner/work/gauri/gauri/gauri/include/gauri/core/window.h</text>
</a>
</g>
</g>
<!-- Node1&#45;&gt;Node8 -->
<g id="edge11" class="edge">
<title>Node1&#45;&gt;Node8</title>
<path fill="none" stroke="midnightblue" d="M877.33,-391.75C731.52,-381.58 499.19,-365.37 357.78,-355.5"/>
<polygon fill="midnightblue" stroke="midnightblue" points="877.45,-395.27 887.67,-392.47 877.94,-388.29 877.45,-395.27"/>
</g>
<!-- Node10 -->
<g id="node10" class="node">
<title>Node10</title>
<g id="a_node10"><a xlink:href="editor__camera_8h.html" target="_top" xlink:title=" ">
<polygon fill="white" stroke="black" points="1546.39,-336.5 1546.39,-355.5 1931.39,-355.5 1931.39,-336.5 1546.39,-336.5"/>
<text text-anchor="middle" x="1738.89" y="-343.5" font-family="Helvetica,sans-Serif" font-size="10.00">/home/runner/work/gauri/gauri/gauri/include/gauri/renderer/editor_camera.h</text>
</a>
</g>
</g>
<!-- Node1&#45;&gt;Node10 -->
<g id="edge14" class="edge">
<title>Node1&#45;&gt;Node10</title>
<path fill="none" stroke="midnightblue" d="M1135.16,-391.72C1272.51,-381.55 1491.03,-365.36 1624.08,-355.5"/>
<polygon fill="midnightblue" stroke="midnightblue" points="1134.71,-388.24 1125,-392.47 1135.23,-395.22 1134.71,-388.24"/>
</g>
<!-- Node17 -->
<g id="node17" class="node">
<title>Node17</title>
<g id="a_node17"><a xlink:href="orthographic__camera__controller_8h.html" target="_top" xlink:title=" ">
<polygon fill="white" stroke="black" points="2023.39,-168.5 2023.39,-187.5 2492.39,-187.5 2492.39,-168.5 2023.39,-168.5"/>
<text text-anchor="middle" x="2257.89" y="-175.5" font-family="Helvetica,sans-Serif" font-size="10.00">/home/runner/work/gauri/gauri/gauri/include/gauri/renderer/orthographic_camera_controller.h</text>
</a>
</g>
</g>
<!-- Node1&#45;&gt;Node17 -->
<g id="edge26" class="edge">
<title>Node1&#45;&gt;Node17</title>
<path fill="none" stroke="midnightblue" d="M1184.7,-396.86C1434.28,-390.3 1870.5,-376.15 1940.89,-356 2072.09,-318.45 2208.1,-217.82 2246.95,-187.66"/>
<polygon fill="midnightblue" stroke="midnightblue" points="1184.34,-393.37 1174.43,-397.13 1184.52,-400.37 1184.34,-393.37"/>
</g>
<!-- Node3 -->
<g id="node3" class="node">
<title>Node3</title>
<g id="a_node3"><a xlink:href="gauri_8h.html" target="_top" xlink:title=" ">
<polygon fill="white" stroke="black" points="1361.39,-56.5 1361.39,-75.5 1628.39,-75.5 1628.39,-56.5 1361.39,-56.5"/>
<text text-anchor="middle" x="1494.89" y="-63.5" font-family="Helvetica,sans-Serif" font-size="10.00">/home/runner/work/gauri/gauri/gauri/include/gauri.h</text>
</a>
</g>
</g>
<!-- Node2&#45;&gt;Node3 -->
<g id="edge2" class="edge">
<title>Node2&#45;&gt;Node3</title>
<path fill="none" stroke="midnightblue" d="M670.09,-220.9C737.35,-196.15 898.11,-139.75 1037.89,-112 1145.41,-90.66 1269.27,-79.26 1360.9,-73.28"/>
<polygon fill="midnightblue" stroke="midnightblue" points="668.65,-217.7 660.49,-224.45 671.08,-224.26 668.65,-217.7"/>
</g>
<!-- Node4 -->
<g id="node4" class="node">
<title>Node4</title>
<g id="a_node4"><a xlink:href="entry__point_8h.html" target="_top" xlink:title=" ">
<polygon fill="white" stroke="black" points="1319.89,-0.5 1319.89,-19.5 1669.89,-19.5 1669.89,-0.5 1319.89,-0.5"/>
<text text-anchor="middle" x="1494.89" y="-7.5" font-family="Helvetica,sans-Serif" font-size="10.00">/home/runner/work/gauri/gauri/gauri/include/gauri/core/entry_point.h</text>
</a>
</g>
</g>
<!-- Node3&#45;&gt;Node4 -->
<g id="edge3" class="edge">
<title>Node3&#45;&gt;Node4</title>
<path fill="none" stroke="midnightblue" d="M1494.89,-45.8C1494.89,-36.91 1494.89,-26.78 1494.89,-19.75"/>
<polygon fill="midnightblue" stroke="midnightblue" points="1491.39,-46.08 1494.89,-56.08 1498.39,-46.08 1491.39,-46.08"/>
</g>
<!-- Node5&#45;&gt;Node3 -->
<g id="edge10" class="edge">
<title>Node5&#45;&gt;Node3</title>
<path fill="none" stroke="midnightblue" d="M1095.31,-334.92C1138.58,-327.87 1184.73,-316.68 1197.89,-300 1218.85,-273.42 1180.9,-255.66 1192.89,-224 1216.41,-161.87 1234.65,-145.73 1291.89,-112 1324.39,-92.85 1364.18,-81.83 1399.9,-75.5"/>
<polygon fill="midnightblue" stroke="midnightblue" points="1094.6,-331.49 1085.27,-336.49 1095.69,-338.4 1094.6,-331.49"/>
</g>
<!-- Node6 -->
<g id="node6" class="node">
<title>Node6</title>
<g id="a_node6"><a xlink:href="layer__stack_8h.html" target="_top" xlink:title=" ">
<polygon fill="white" stroke="black" points="462.89,-280.5 462.89,-299.5 812.89,-299.5 812.89,-280.5 462.89,-280.5"/>
<text text-anchor="middle" x="637.89" y="-287.5" font-family="Helvetica,sans-Serif" font-size="10.00">/home/runner/work/gauri/gauri/gauri/include/gauri/core/layer_stack.h</text>
</a>
</g>
</g>
<!-- Node5&#45;&gt;Node6 -->
<g id="edge5" class="edge">
<title>Node5&#45;&gt;Node6</title>
<path fill="none" stroke="midnightblue" d="M940.86,-334.98C870.59,-324.78 762.83,-309.14 696.56,-299.52"/>
<polygon fill="midnightblue" stroke="midnightblue" points="940.55,-338.47 950.94,-336.44 941.55,-331.54 940.55,-338.47"/>
</g>
<!-- Node7 -->
<g id="node7" class="node">
<title>Node7</title>
<g id="a_node7"><a xlink:href="imgui__layer_8h.html" target="_top" xlink:title=" ">
<polygon fill="white" stroke="black" points="830.89,-280.5 830.89,-299.5 1188.89,-299.5 1188.89,-280.5 830.89,-280.5"/>
<text text-anchor="middle" x="1009.89" y="-287.5" font-family="Helvetica,sans-Serif" font-size="10.00">/home/runner/work/gauri/gauri/gauri/include/gauri/imgui/imgui_layer.h</text>
</a>
</g>
</g>
<!-- Node5&#45;&gt;Node7 -->
<g id="edge7" class="edge">
<title>Node5&#45;&gt;Node7</title>
<path fill="none" stroke="midnightblue" d="M1009.89,-325.8C1009.89,-316.91 1009.89,-306.78 1009.89,-299.75"/>
<polygon fill="midnightblue" stroke="midnightblue" points="1006.39,-326.08 1009.89,-336.08 1013.39,-326.08 1006.39,-326.08"/>
</g>
<!-- Node6&#45;&gt;Node2 -->
<g id="edge6" class="edge">
<title>Node6&#45;&gt;Node2</title>
<path fill="none" stroke="midnightblue" d="M637.89,-269.8C637.89,-260.91 637.89,-250.78 637.89,-243.75"/>
<polygon fill="midnightblue" stroke="midnightblue" points="634.39,-270.08 637.89,-280.08 641.39,-270.08 634.39,-270.08"/>
</g>
<!-- Node7&#45;&gt;Node2 -->
<g id="edge8" class="edge">
<title>Node7&#45;&gt;Node2</title>
<path fill="none" stroke="midnightblue" d="M940.86,-278.98C870.59,-268.78 762.83,-253.14 696.56,-243.52"/>
<polygon fill="midnightblue" stroke="midnightblue" points="940.55,-282.47 950.94,-280.44 941.55,-275.54 940.55,-282.47"/>
</g>
<!-- Node7&#45;&gt;Node3 -->
<g id="edge9" class="edge">
<title>Node7&#45;&gt;Node3</title>
<path fill="none" stroke="midnightblue" d="M1018.89,-271.44C1038.75,-234.75 1090.12,-150.17 1159.89,-112 1194.19,-93.23 1283.54,-81.81 1361.35,-75.17"/>
<polygon fill="midnightblue" stroke="midnightblue" points="1015.71,-269.97 1014.14,-280.45 1021.9,-273.24 1015.71,-269.97"/>
</g>
<!-- Node8&#45;&gt;Node2 -->
<g id="edge12" class="edge">
<title>Node8&#45;&gt;Node2</title>
<path fill="none" stroke="midnightblue" d="M63.76,-334.64C19.23,-325.66 -9.42,-309.37 17.89,-280 47.84,-247.8 291,-238.36 463.73,-235.75"/>
<polygon fill="midnightblue" stroke="midnightblue" points="63.33,-338.12 73.8,-336.5 64.6,-331.24 63.33,-338.12"/>
</g>
<!-- Node9 -->
<g id="node9" class="node">
<title>Node9</title>
<g id="a_node9"><a xlink:href="windows__window_8h.html" target="_top" xlink:title=" ">
<polygon fill="white" stroke="black" points="26.89,-280.5 26.89,-299.5 444.89,-299.5 444.89,-280.5 26.89,-280.5"/>
<text text-anchor="middle" x="235.89" y="-287.5" font-family="Helvetica,sans-Serif" font-size="10.00">/home/runner/work/gauri/gauri/gauri/include/platform/windows/windows_window.h</text>
</a>
</g>
</g>
<!-- Node8&#45;&gt;Node9 -->
<g id="edge13" class="edge">
<title>Node8&#45;&gt;Node9</title>
<path fill="none" stroke="midnightblue" d="M235.89,-325.8C235.89,-316.91 235.89,-306.78 235.89,-299.75"/>
<polygon fill="midnightblue" stroke="midnightblue" points="232.39,-326.08 235.89,-336.08 239.39,-326.08 232.39,-326.08"/>
</g>
<!-- Node11 -->
<g id="node11" class="node">
<title>Node11</title>
<g id="a_node11"><a xlink:href="renderer__2d_8h.html" target="_top" xlink:title=" ">
<polygon fill="white" stroke="black" points="1856.39,-112.5 1856.39,-131.5 2229.39,-131.5 2229.39,-112.5 1856.39,-112.5"/>
<text text-anchor="middle" x="2042.89" y="-119.5" font-family="Helvetica,sans-Serif" font-size="10.00">/home/runner/work/gauri/gauri/gauri/include/gauri/renderer/renderer_2d.h</text>
</a>
</g>
</g>
<!-- Node10&#45;&gt;Node11 -->
<g id="edge15" class="edge">
<title>Node10&#45;&gt;Node11</title>
<path fill="none" stroke="midnightblue" d="M1826.14,-334.35C1855.5,-327.78 1887.27,-317.16 1912.89,-300 1930.31,-288.33 2013.8,-166 2036.93,-131.82"/>
<polygon fill="midnightblue" stroke="midnightblue" points="1825.36,-330.94 1816.29,-336.42 1826.8,-337.79 1825.36,-330.94"/>
</g>
<!-- Node12 -->
<g id="node12" class="node">
<title>Node12</title>
<g id="a_node12"><a xlink:href="scene_8h.html" target="_top" xlink:title=" ">
<polygon fill="white" stroke="black" points="1573.89,-280.5 1573.89,-299.5 1903.89,-299.5 1903.89,-280.5 1573.89,-280.5"/>
<text text-anchor="middle" x="1738.89" y="-287.5" font-family="Helvetica,sans-Serif" font-size="10.00">/home/runner/work/gauri/gauri/gauri/include/gauri/scene/scene.h</text>
</a>
</g>
</g>
<!-- Node10&#45;&gt;Node12 -->
<g id="edge17" class="edge">
<title>Node10&#45;&gt;Node12</title>
<path fill="none" stroke="midnightblue" d="M1738.89,-325.8C1738.89,-316.91 1738.89,-306.78 1738.89,-299.75"/>
<polygon fill="midnightblue" stroke="midnightblue" points="1735.39,-326.08 1738.89,-336.08 1742.39,-326.08 1735.39,-326.08"/>
</g>
<!-- Node11&#45;&gt;Node3 -->
<g id="edge16" class="edge">
<title>Node11&#45;&gt;Node3</title>
<path fill="none" stroke="midnightblue" d="M1946.24,-111.48C1842.93,-101.3 1680.66,-85.31 1581.42,-75.53"/>
<polygon fill="midnightblue" stroke="midnightblue" points="1946.06,-114.98 1956.36,-112.47 1946.75,-108.01 1946.06,-114.98"/>
</g>
<!-- Node12&#45;&gt;Node3 -->
<g id="edge25" class="edge">
<title>Node12&#45;&gt;Node3</title>
<path fill="none" stroke="midnightblue" d="M1900.99,-277.99C1935.03,-268.66 1955.89,-252.32 1937.89,-224 1872.72,-121.49 1733.53,-85.11 1628.45,-72.61"/>
<polygon fill="midnightblue" stroke="midnightblue" points="1899.93,-274.65 1891.06,-280.44 1901.61,-281.44 1899.93,-274.65"/>
</g>
<!-- Node13 -->
<g id="node13" class="node">
<title>Node13</title>
<g id="a_node13"><a xlink:href="entity_8h.html" target="_top" xlink:title=" ">
<polygon fill="white" stroke="black" points="1201.39,-224.5 1201.39,-243.5 1530.39,-243.5 1530.39,-224.5 1201.39,-224.5"/>
<text text-anchor="middle" x="1365.89" y="-231.5" font-family="Helvetica,sans-Serif" font-size="10.00">/home/runner/work/gauri/gauri/gauri/include/gauri/scene/entity.h</text>
</a>
</g>
</g>
<!-- Node12&#45;&gt;Node13 -->
<g id="edge18" class="edge">
<title>Node12&#45;&gt;Node13</title>
<path fill="none" stroke="midnightblue" d="M1669.67,-278.98C1599.21,-268.78 1491.17,-253.14 1424.72,-243.52"/>
<polygon fill="midnightblue" stroke="midnightblue" points="1669.39,-282.47 1679.79,-280.44 1670.39,-275.55 1669.39,-282.47"/>
</g>
<!-- Node16 -->
<g id="node16" class="node">
<title>Node16</title>
<g id="a_node16"><a xlink:href="scene__serializer_8h.html" target="_top" xlink:title=" ">
<polygon fill="white" stroke="black" points="1548.89,-224.5 1548.89,-243.5 1928.89,-243.5 1928.89,-224.5 1548.89,-224.5"/>
<text text-anchor="middle" x="1738.89" y="-231.5" font-family="Helvetica,sans-Serif" font-size="10.00">/home/runner/work/gauri/gauri/gauri/include/gauri/scene/scene_serializer.h</text>
</a>
</g>
</g>
<!-- Node12&#45;&gt;Node16 -->
<g id="edge24" class="edge">
<title>Node12&#45;&gt;Node16</title>
<path fill="none" stroke="midnightblue" d="M1738.89,-269.8C1738.89,-260.91 1738.89,-250.78 1738.89,-243.75"/>
<polygon fill="midnightblue" stroke="midnightblue" points="1735.39,-270.08 1738.89,-280.08 1742.39,-270.08 1735.39,-270.08"/>
</g>
<!-- Node13&#45;&gt;Node3 -->
<g id="edge23" class="edge">
<title>Node13&#45;&gt;Node3</title>
<path fill="none" stroke="midnightblue" d="M1338.76,-219.32C1326.98,-211.82 1314.41,-201.32 1307.89,-188 1293.03,-157.67 1286.98,-138.53 1307.89,-112 1322.02,-94.07 1374.41,-82.45 1420.16,-75.52"/>
<polygon fill="midnightblue" stroke="midnightblue" points="1337.11,-222.41 1347.5,-224.47 1340.66,-216.38 1337.11,-222.41"/>
</g>
<!-- Node14 -->
<g id="node14" class="node">
<title>Node14</title>
<g id="a_node14"><a xlink:href="scriptable__entity_8h.html" target="_top" xlink:title=" ">
<polygon fill="white" stroke="black" points="1316.89,-168.5 1316.89,-187.5 1698.89,-187.5 1698.89,-168.5 1316.89,-168.5"/>
<text text-anchor="middle" x="1507.89" y="-175.5" font-family="Helvetica,sans-Serif" font-size="10.00">/home/runner/work/gauri/gauri/gauri/include/gauri/scene/scriptable_entity.h</text>
</a>
</g>
</g>
<!-- Node13&#45;&gt;Node14 -->
<g id="edge19" class="edge">
<title>Node13&#45;&gt;Node14</title>
<path fill="none" stroke="midnightblue" d="M1398.04,-220.77C1424.72,-210.63 1461.96,-196.47 1485.49,-187.52"/>
<polygon fill="midnightblue" stroke="midnightblue" points="1396.49,-217.62 1388.39,-224.44 1398.98,-224.16 1396.49,-217.62"/>
</g>
<!-- Node14&#45;&gt;Node3 -->
<g id="edge22" class="edge">
<title>Node14&#45;&gt;Node3</title>
<path fill="none" stroke="midnightblue" d="M1626.03,-166.67C1670.54,-157.93 1705.36,-141.79 1681.89,-112 1667.76,-94.07 1615.36,-82.45 1569.62,-75.52"/>
<polygon fill="midnightblue" stroke="midnightblue" points="1625.3,-163.24 1616.09,-168.48 1626.56,-170.13 1625.3,-163.24"/>
</g>
<!-- Node15 -->
<g id="node15" class="node">
<title>Node15</title>
<g id="a_node15"><a xlink:href="component_8h.html" target="_top" xlink:title=" ">
<polygon fill="white" stroke="black" points="1316.89,-112.5 1316.89,-131.5 1672.89,-131.5 1672.89,-112.5 1316.89,-112.5"/>
<text text-anchor="middle" x="1494.89" y="-119.5" font-family="Helvetica,sans-Serif" font-size="10.00">/home/runner/work/gauri/gauri/gauri/include/gauri/scene/component.h</text>
</a>
</g>
</g>
<!-- Node14&#45;&gt;Node15 -->
<g id="edge20" class="edge">
<title>Node14&#45;&gt;Node15</title>
<path fill="none" stroke="midnightblue" d="M1503.34,-158.1C1501.18,-149.14 1498.71,-138.86 1497,-131.75"/>
<polygon fill="midnightblue" stroke="midnightblue" points="1500,-159.18 1505.74,-168.08 1506.8,-157.54 1500,-159.18"/>
</g>
<!-- Node15&#45;&gt;Node3 -->
<g id="edge21" class="edge">
<title>Node15&#45;&gt;Node3</title>
<path fill="none" stroke="midnightblue" d="M1494.89,-101.8C1494.89,-92.91 1494.89,-82.78 1494.89,-75.75"/>
<polygon fill="midnightblue" stroke="midnightblue" points="1491.39,-102.08 1494.89,-112.08 1498.39,-102.08 1491.39,-102.08"/>
</g>
<!-- Node17&#45;&gt;Node3 -->
<g id="edge27" class="edge">
<title>Node17&#45;&gt;Node3</title>
<path fill="none" stroke="midnightblue" d="M2257.86,-157.92C2256.73,-142.94 2252.51,-122.87 2238.89,-112 2192.45,-74.95 1829.85,-67.9 1628.53,-66.87"/>
<polygon fill="midnightblue" stroke="midnightblue" points="2254.38,-158.27 2258.24,-168.14 2261.37,-158.02 2254.38,-158.27"/>
</g>
</g>
</svg>
        <g id="navigator" transform="translate(0 0)" fill="#404254">
                <rect fill="#f2f5e9" fill-opacity="0.5" stroke="#606060" stroke-width=".5" x="0" y="0" width="60" height="60"/>
                <use id="zoomplus" xlink:href="#zoomPlus" x="17" y="9" onmousedown="handleZoom(evt,'in')"/>
                <use id="zoomminus" xlink:href="#zoomMin" x="42" y="9" onmousedown="handleZoom(evt,'out')"/>
                <use id="reset" xlink:href="#resetDef" x="30" y="36" onmousedown="handleReset()"/>
                <g id="arrowUp" xlink:href="#dirArrow" transform="translate(30 24)" onmousedown="handlePan(0,-1)">
                  <use xlink:href="#rim" fill="#404040">
                        <set attributeName="fill" to="#808080" begin="arrowUp.mouseover" end="arrowUp.mouseout"/>
                  </use>
                  <path fill="none" stroke="white" stroke-width="1.5" d="M0,-3.0v7 M-2.5,-0.5L0,-3.0L2.5,-0.5"/>
                </g>
                <g id="arrowRight" xlink:href="#dirArrow" transform="rotate(90) translate(36 -43)" onmousedown="handlePan(1,0)">
                  <use xlink:href="#rim" fill="#404040">
                        <set attributeName="fill" to="#808080" begin="arrowRight.mouseover" end="arrowRight.mouseout"/>
                  </use>
                  <path fill="none" stroke="white" stroke-width="1.5" d="M0,-3.0v7 M-2.5,-0.5L0,-3.0L2.5,-0.5"/>
                </g>
                <g id="arrowDown" xlink:href="#dirArrow" transform="rotate(180) translate(-30 -48)" onmousedown="handlePan(0,1)">
                  <use xlink:href="#rim" fill="#404040">
                        <set attributeName="fill" to="#808080" begin="arrowDown.mouseover" end="arrowDown.mouseout"/>
                  </use>
                  <path fill="none" stroke="white" stroke-width="1.5" d="M0,-3.0v7 M-2.5,-0.5L0,-3.0L2.5,-0.5"/>
                </g>
                <g id="arrowLeft" xlink:href="#dirArrow" transform="rotate(270) translate(-36 17)" onmousedown="handlePan(-1,0)">
                  <use xlink:href="#rim" fill="#404040">
                        <set attributeName="fill" to="#808080" begin="arrowLeft.mouseover" end="arrowLeft.mouseout"/>
                  </use>
                  <path fill="none" stroke="white" stroke-width="1.5" d="M0,-3.0v7 M-2.5,-0.5L0,-3.0L2.5,-0.5"/>
                </g>
        </g>
        <svg viewBox="0 0 15 15" width="100%" height="30px" preserveAspectRatio="xMaxYMin meet">
         <g id="arrow_out" transform="scale(0.3 0.3)">
          <a xlink:href="event_8h__dep__incl_org.svg" target="_base">
           <rect id="button" ry="5" rx="5" y="6" x="6" height="38" width="38"
                fill="#f2f5e9" fill-opacity="0.5" stroke="#606060" stroke-width="1.0"/>
           <path id="arrow"
             d="M 11.500037,31.436501 C 11.940474,20.09759 22.043105,11.32322 32.158766,21.979434 L 37.068811,17.246167 C 37.068811,17.246167 37.088388,32 37.088388,32 L 22.160133,31.978069 C 22.160133,31.978069 26.997745,27.140456 26.997745,27.140456 C 18.528582,18.264221 13.291696,25.230495 11.500037,31.436501 z"
             style="fill:#404040;"/>
          </a>
         </g>
        </svg>
</svg>
