<?xml version="1.0" encoding="UTF-8" standalone="no"?>
<!DOCTYPE svg PUBLIC "-//W3C//DTD SVG 1.1//EN"
 "http://www.w3.org/Graphics/SVG/1.1/DTD/svg11.dtd">
<!-- Generated by graphviz version 2.43.0 (0)
 -->
<!-- Title: /home/runner/work/gauri/gauri/gauri/include/gauri/event/event.h Pages: 1 -->
<svg width="1230pt" height="308pt"
 viewBox="0.00 0.00 1230.34 308.00" xmlns="http://www.w3.org/2000/svg" xmlns:xlink="http://www.w3.org/1999/xlink">
<g id="graph0" class="graph" transform="scale(1 1) rotate(0) translate(4 304)">
<title>/home/runner/work/gauri/gauri/gauri/include/gauri/event/event.h</title>
<polygon fill="white" stroke="transparent" points="-4,4 -4,-304 1226.34,-304 1226.34,4 -4,4"/>
<!-- Node1 -->
<g id="node1" class="node">
<title>Node1</title>
<g id="a_node1"><a xlink:title=" ">
<polygon fill="#bfbfbf" stroke="black" points="703.73,-280.5 703.73,-299.5 1032.73,-299.5 1032.73,-280.5 703.73,-280.5"/>
<text text-anchor="middle" x="868.23" y="-287.5" font-family="Helvetica,sans-Serif" font-size="10.00">/home/runner/work/gauri/gauri/gauri/include/gauri/event/event.h</text>
</a>
</g>
</g>
<!-- Node2 -->
<g id="node2" class="node">
<title>Node2</title>
<g id="a_node2"><a xlink:href="application_8h.html" target="_top" xlink:title=" ">
<polygon fill="white" stroke="black" points="397.23,-112.5 397.23,-131.5 721.23,-131.5 721.23,-112.5 397.23,-112.5"/>
<text text-anchor="middle" x="559.23" y="-119.5" font-family="Helvetica,sans-Serif" font-size="10.00">/home/runner/work/gauri/gauri/gauri/include/gauri/application.h</text>
</a>
</g>
</g>
<!-- Node1&#45;&gt;Node2 -->
<g id="edge1" class="edge">
<title>Node1&#45;&gt;Node2</title>
<path fill="none" stroke="midnightblue" d="M1022.77,-279.42C1139.51,-266.63 1269.5,-236.91 1205.23,-168 1172.85,-133.29 902.08,-124.79 721.52,-123.03"/>
<polygon fill="midnightblue" stroke="midnightblue" points="1022.18,-275.96 1012.6,-280.5 1022.91,-282.93 1022.18,-275.96"/>
</g>
<!-- Node5 -->
<g id="node5" class="node">
<title>Node5</title>
<g id="a_node5"><a xlink:href="layer_8h.html" target="_top" xlink:title=" ">
<polygon fill="white" stroke="black" points="286.23,-224.5 286.23,-243.5 580.23,-243.5 580.23,-224.5 286.23,-224.5"/>
<text text-anchor="middle" x="433.23" y="-231.5" font-family="Helvetica,sans-Serif" font-size="10.00">/home/runner/work/gauri/gauri/gauri/include/gauri/layer.h</text>
</a>
</g>
</g>
<!-- Node1&#45;&gt;Node5 -->
<g id="edge5" class="edge">
<title>Node1&#45;&gt;Node5</title>
<path fill="none" stroke="midnightblue" d="M789.27,-279.2C707.15,-269 579.89,-253.21 501.83,-243.52"/>
<polygon fill="midnightblue" stroke="midnightblue" points="788.95,-282.68 799.3,-280.44 789.81,-275.74 788.95,-282.68"/>
</g>
<!-- Node8 -->
<g id="node8" class="node">
<title>Node8</title>
<g id="a_node8"><a xlink:href="window_8h.html" target="_top" xlink:title=" ">
<polygon fill="white" stroke="black" points="714.73,-224.5 714.73,-243.5 1021.73,-243.5 1021.73,-224.5 714.73,-224.5"/>
<text text-anchor="middle" x="868.23" y="-231.5" font-family="Helvetica,sans-Serif" font-size="10.00">/home/runner/work/gauri/gauri/gauri/include/gauri/window.h</text>
</a>
</g>
</g>
<!-- Node1&#45;&gt;Node8 -->
<g id="edge12" class="edge">
<title>Node1&#45;&gt;Node8</title>
<path fill="none" stroke="midnightblue" d="M868.23,-269.8C868.23,-260.91 868.23,-250.78 868.23,-243.75"/>
<polygon fill="midnightblue" stroke="midnightblue" points="864.73,-270.08 868.23,-280.08 871.73,-270.08 864.73,-270.08"/>
</g>
<!-- Node3 -->
<g id="node3" class="node">
<title>Node3</title>
<g id="a_node3"><a xlink:href="gauri_8h.html" target="_top" xlink:title=" ">
<polygon fill="white" stroke="black" points="65.73,-56.5 65.73,-75.5 332.73,-75.5 332.73,-56.5 65.73,-56.5"/>
<text text-anchor="middle" x="199.23" y="-63.5" font-family="Helvetica,sans-Serif" font-size="10.00">/home/runner/work/gauri/gauri/gauri/include/gauri.h</text>
</a>
</g>
</g>
<!-- Node2&#45;&gt;Node3 -->
<g id="edge2" class="edge">
<title>Node2&#45;&gt;Node3</title>
<path fill="none" stroke="midnightblue" d="M492.01,-110.92C424,-100.71 320.01,-85.12 256.01,-75.52"/>
<polygon fill="midnightblue" stroke="midnightblue" points="491.78,-114.42 502.19,-112.44 492.82,-107.5 491.78,-114.42"/>
</g>
<!-- Node4 -->
<g id="node4" class="node">
<title>Node4</title>
<g id="a_node4"><a xlink:href="entry__point_8h.html" target="_top" xlink:title=" ">
<polygon fill="white" stroke="black" points="36.23,-0.5 36.23,-19.5 362.23,-19.5 362.23,-0.5 36.23,-0.5"/>
<text text-anchor="middle" x="199.23" y="-7.5" font-family="Helvetica,sans-Serif" font-size="10.00">/home/runner/work/gauri/gauri/gauri/include/gauri/entry_point.h</text>
</a>
</g>
</g>
<!-- Node3&#45;&gt;Node4 -->
<g id="edge3" class="edge">
<title>Node3&#45;&gt;Node4</title>
<path fill="none" stroke="midnightblue" d="M192.76,-46.1C192.12,-37.14 192.57,-26.86 194.1,-19.75"/>
<polygon fill="midnightblue" stroke="midnightblue" points="189.29,-46.62 194.06,-56.08 196.24,-45.71 189.29,-46.62"/>
</g>
<!-- Node4&#45;&gt;Node3 -->
<g id="edge4" class="edge">
<title>Node4&#45;&gt;Node3</title>
<path fill="none" stroke="midnightblue" d="M205.69,-29.69C206.34,-38.64 205.9,-48.93 204.4,-56.08"/>
<polygon fill="midnightblue" stroke="midnightblue" points="209.15,-29.2 204.36,-19.75 202.21,-30.13 209.15,-29.2"/>
</g>
<!-- Node5&#45;&gt;Node3 -->
<g id="edge11" class="edge">
<title>Node5&#45;&gt;Node3</title>
<path fill="none" stroke="midnightblue" d="M276.05,-226.27C163.66,-219.8 29.19,-207.98 11.23,-188 -38.6,-132.58 92.07,-92.23 160.51,-75.51"/>
<polygon fill="midnightblue" stroke="midnightblue" points="275.98,-229.77 286.16,-226.84 276.38,-222.78 275.98,-229.77"/>
</g>
<!-- Node6 -->
<g id="node6" class="node">
<title>Node6</title>
<g id="a_node6"><a xlink:href="imgui__layer_8h.html" target="_top" xlink:title=" ">
<polygon fill="white" stroke="black" points="20.23,-168.5 20.23,-187.5 378.23,-187.5 378.23,-168.5 20.23,-168.5"/>
<text text-anchor="middle" x="199.23" y="-175.5" font-family="Helvetica,sans-Serif" font-size="10.00">/home/runner/work/gauri/gauri/gauri/include/gauri/imgui/imgui_layer.h</text>
</a>
</g>
</g>
<!-- Node5&#45;&gt;Node6 -->
<g id="edge6" class="edge">
<title>Node5&#45;&gt;Node6</title>
<path fill="none" stroke="midnightblue" d="M386.22,-222.15C342.01,-211.95 276.71,-196.88 236.13,-187.52"/>
<polygon fill="midnightblue" stroke="midnightblue" points="385.62,-225.61 396.15,-224.44 387.19,-218.78 385.62,-225.61"/>
</g>
<!-- Node7 -->
<g id="node7" class="node">
<title>Node7</title>
<g id="a_node7"><a xlink:href="layer__stack_8h.html" target="_top" xlink:title=" ">
<polygon fill="white" stroke="black" points="396.23,-168.5 396.23,-187.5 722.23,-187.5 722.23,-168.5 396.23,-168.5"/>
<text text-anchor="middle" x="559.23" y="-175.5" font-family="Helvetica,sans-Serif" font-size="10.00">/home/runner/work/gauri/gauri/gauri/include/gauri/layer_stack.h</text>
</a>
</g>
</g>
<!-- Node5&#45;&gt;Node7 -->
<g id="edge9" class="edge">
<title>Node5&#45;&gt;Node7</title>
<path fill="none" stroke="midnightblue" d="M462.39,-220.5C486.01,-210.38 518.66,-196.39 539.36,-187.52"/>
<polygon fill="midnightblue" stroke="midnightblue" points="461.01,-217.29 453.19,-224.44 463.76,-223.72 461.01,-217.29"/>
</g>
<!-- Node6&#45;&gt;Node2 -->
<g id="edge7" class="edge">
<title>Node6&#45;&gt;Node2</title>
<path fill="none" stroke="midnightblue" d="M266.45,-166.92C334.46,-156.71 438.45,-141.12 502.45,-131.52"/>
<polygon fill="midnightblue" stroke="midnightblue" points="265.64,-163.5 256.27,-168.44 266.68,-170.42 265.64,-163.5"/>
</g>
<!-- Node6&#45;&gt;Node3 -->
<g id="edge8" class="edge">
<title>Node6&#45;&gt;Node3</title>
<path fill="none" stroke="midnightblue" d="M199.23,-158.35C199.23,-134.25 199.23,-93.31 199.23,-75.59"/>
<polygon fill="midnightblue" stroke="midnightblue" points="195.73,-158.37 199.23,-168.37 202.73,-158.37 195.73,-158.37"/>
</g>
<!-- Node7&#45;&gt;Node2 -->
<g id="edge10" class="edge">
<title>Node7&#45;&gt;Node2</title>
<path fill="none" stroke="midnightblue" d="M559.23,-157.8C559.23,-148.91 559.23,-138.78 559.23,-131.75"/>
<polygon fill="midnightblue" stroke="midnightblue" points="555.73,-158.08 559.23,-168.08 562.73,-158.08 555.73,-158.08"/>
</g>
<!-- Node8&#45;&gt;Node2 -->
<g id="edge13" class="edge">
<title>Node8&#45;&gt;Node2</title>
<path fill="none" stroke="midnightblue" d="M838.94,-220.22C819.13,-211.45 792.44,-199.37 769.23,-188 752.09,-179.6 749.02,-174.9 731.23,-168 688.79,-151.53 638.15,-139.1 602.86,-131.52"/>
<polygon fill="midnightblue" stroke="midnightblue" points="837.79,-223.54 848.35,-224.37 840.61,-217.13 837.79,-223.54"/>
</g>
<!-- Node9 -->
<g id="node9" class="node">
<title>Node9</title>
<g id="a_node9"><a xlink:href="windows__window_8h.html" target="_top" xlink:title=" ">
<polygon fill="white" stroke="black" points="778.23,-168.5 778.23,-187.5 1196.23,-187.5 1196.23,-168.5 778.23,-168.5"/>
<text text-anchor="middle" x="987.23" y="-175.5" font-family="Helvetica,sans-Serif" font-size="10.00">/home/runner/work/gauri/gauri/gauri/include/platform/windows/windows_window.h</text>
</a>
</g>
</g>
<!-- Node8&#45;&gt;Node9 -->
<g id="edge14" class="edge">
<title>Node8&#45;&gt;Node9</title>
<path fill="none" stroke="midnightblue" d="M896.37,-220.23C918.62,-210.13 949.08,-196.31 968.46,-187.52"/>
<polygon fill="midnightblue" stroke="midnightblue" points="894.74,-217.12 887.08,-224.44 897.64,-223.5 894.74,-217.12"/>
</g>
</g>
</svg>
