<?xml version="1.0" encoding="UTF-8" standalone="no"?>
<!DOCTYPE svg PUBLIC "-//W3C//DTD SVG 1.1//EN"
 "http://www.w3.org/Graphics/SVG/1.1/DTD/svg11.dtd">
<!-- Generated by graphviz version 2.43.0 (0)
 -->
<!-- Title: /home/runner/work/gauri/gauri/gauri/include/gauri/renderer/frame_buffer.h Pages: 1 -->
<svg width="759pt" height="140pt"
 viewBox="0.00 0.00 759.00 140.00" xmlns="http://www.w3.org/2000/svg" xmlns:xlink="http://www.w3.org/1999/xlink">
<g id="graph0" class="graph" transform="scale(1 1) rotate(0) translate(4 136)">
<title>/home/runner/work/gauri/gauri/gauri/include/gauri/renderer/frame_buffer.h</title>
<polygon fill="white" stroke="transparent" points="-4,4 -4,-136 755,-136 755,4 -4,4"/>
<!-- Node1 -->
<g id="node1" class="node">
<title>Node1</title>
<g id="a_node1"><a xlink:title=" ">
<polygon fill="#bfbfbf" stroke="black" points="168.5,-112.5 168.5,-131.5 545.5,-131.5 545.5,-112.5 168.5,-112.5"/>
<text text-anchor="middle" x="357" y="-119.5" font-family="Helvetica,sans-Serif" font-size="10.00">/home/runner/work/gauri/gauri/gauri/include/gauri/renderer/frame_buffer.h</text>
</a>
</g>
</g>
<!-- Node2 -->
<g id="node2" class="node">
<title>Node2</title>
<g id="a_node2"><a xlink:href="gauri_8h.html" target="_top" xlink:title=" ">
<polygon fill="white" stroke="black" points="41.5,-56.5 41.5,-75.5 308.5,-75.5 308.5,-56.5 41.5,-56.5"/>
<text text-anchor="middle" x="175" y="-63.5" font-family="Helvetica,sans-Serif" font-size="10.00">/home/runner/work/gauri/gauri/gauri/include/gauri.h</text>
</a>
</g>
</g>
<!-- Node1&#45;&gt;Node2 -->
<g id="edge1" class="edge">
<title>Node1&#45;&gt;Node2</title>
<path fill="none" stroke="midnightblue" d="M318.47,-109.57C284.14,-99.38 234.67,-84.7 203.7,-75.52"/>
<polygon fill="midnightblue" stroke="midnightblue" points="317.58,-112.95 328.16,-112.44 319.57,-106.24 317.58,-112.95"/>
</g>
<!-- Node4 -->
<g id="node4" class="node">
<title>Node4</title>
<g id="a_node4"><a xlink:href="opengl__frame__buffer_8h.html" target="_top" xlink:title=" ">
<polygon fill="white" stroke="black" points="327,-56.5 327,-75.5 751,-75.5 751,-56.5 327,-56.5"/>
<text text-anchor="middle" x="539" y="-63.5" font-family="Helvetica,sans-Serif" font-size="10.00">/home/runner/work/gauri/gauri/gauri/include/platform/opengl/opengl_frame_buffer.h</text>
</a>
</g>
</g>
<!-- Node1&#45;&gt;Node4 -->
<g id="edge3" class="edge">
<title>Node1&#45;&gt;Node4</title>
<path fill="none" stroke="midnightblue" d="M395.53,-109.57C429.86,-99.38 479.33,-84.7 510.3,-75.52"/>
<polygon fill="midnightblue" stroke="midnightblue" points="394.43,-106.24 385.84,-112.44 396.42,-112.95 394.43,-106.24"/>
</g>
<!-- Node3 -->
<g id="node3" class="node">
<title>Node3</title>
<g id="a_node3"><a xlink:href="entry__point_8h.html" target="_top" xlink:title=" ">
<polygon fill="white" stroke="black" points="0,-0.5 0,-19.5 350,-19.5 350,-0.5 0,-0.5"/>
<text text-anchor="middle" x="175" y="-7.5" font-family="Helvetica,sans-Serif" font-size="10.00">/home/runner/work/gauri/gauri/gauri/include/gauri/core/entry_point.h</text>
</a>
</g>
</g>
<!-- Node2&#45;&gt;Node3 -->
<g id="edge2" class="edge">
<title>Node2&#45;&gt;Node3</title>
<path fill="none" stroke="midnightblue" d="M175,-45.8C175,-36.91 175,-26.78 175,-19.75"/>
<polygon fill="midnightblue" stroke="midnightblue" points="171.5,-46.08 175,-56.08 178.5,-46.08 171.5,-46.08"/>
</g>
</g>
</svg>
