<?xml version="1.0" encoding="UTF-8" standalone="no"?>
<!DOCTYPE svg PUBLIC "-//W3C//DTD SVG 1.1//EN"
 "http://www.w3.org/Graphics/SVG/1.1/DTD/svg11.dtd">
<!-- Generated by graphviz version 2.43.0 (0)
 -->
<!-- Title: /home/runner/work/gauri/gauri/gauri/include/gauri.h Pages: 1 -->
<svg width="2037pt" height="476pt"
 viewBox="0.00 0.00 2036.63 476.00" xmlns="http://www.w3.org/2000/svg" xmlns:xlink="http://www.w3.org/1999/xlink">
<g id="graph0" class="graph" transform="scale(1 1) rotate(0) translate(4 472)">
<title>/home/runner/work/gauri/gauri/gauri/include/gauri.h</title>
<polygon fill="white" stroke="transparent" points="-4,4 -4,-472 2032.63,-472 2032.63,4 -4,4"/>
<!-- Node1 -->
<g id="node1" class="node">
<title>Node1</title>
<g id="a_node1"><a xlink:title=" ">
<polygon fill="#bfbfbf" stroke="black" points="1100.13,-448.5 1100.13,-467.5 1367.13,-467.5 1367.13,-448.5 1100.13,-448.5"/>
<text text-anchor="middle" x="1233.63" y="-455.5" font-family="Helvetica,sans-Serif" font-size="10.00">/home/runner/work/gauri/gauri/gauri/include/gauri.h</text>
</a>
</g>
</g>
<!-- Node2 -->
<g id="node2" class="node">
<title>Node2</title>
<g id="a_node2"><a xlink:href="application_8h.html" target="_top" xlink:title=" ">
<polygon fill="white" stroke="black" points="176.13,-392.5 176.13,-411.5 307.13,-411.5 307.13,-392.5 176.13,-392.5"/>
<text text-anchor="middle" x="241.63" y="-399.5" font-family="Helvetica,sans-Serif" font-size="10.00">gauri/core/application.h</text>
</a>
</g>
</g>
<!-- Node1&#45;&gt;Node2 -->
<g id="edge1" class="edge">
<title>Node1&#45;&gt;Node2</title>
<path fill="none" stroke="midnightblue" d="M1099.84,-450.38C932.2,-441.98 636.11,-426.79 382.63,-412 361.48,-410.77 338.55,-409.34 317.45,-407.99"/>
<polygon fill="midnightblue" stroke="midnightblue" points="317.46,-404.49 307.26,-407.34 317.01,-411.47 317.46,-404.49"/>
</g>
<!-- Node7 -->
<g id="node7" class="node">
<title>Node7</title>
<g id="a_node7"><a xlink:href="logger_8h.html" target="_top" xlink:title=" ">
<polygon fill="white" stroke="black" points="1860.13,-56.5 1860.13,-75.5 1967.13,-75.5 1967.13,-56.5 1860.13,-56.5"/>
<text text-anchor="middle" x="1913.63" y="-63.5" font-family="Helvetica,sans-Serif" font-size="10.00">gauri/core/logger.h</text>
</a>
</g>
</g>
<!-- Node1&#45;&gt;Node7 -->
<g id="edge31" class="edge">
<title>Node1&#45;&gt;Node7</title>
<path fill="none" stroke="midnightblue" d="M1367.31,-452.75C1512.93,-447.05 1735.99,-434.89 1817.63,-412 1879.06,-394.77 1945.63,-410.8 1945.63,-347 1945.63,-347 1945.63,-347 1945.63,-177 1945.63,-143.33 1931.63,-106.08 1922.15,-84.72"/>
<polygon fill="midnightblue" stroke="midnightblue" points="1925.31,-83.21 1917.94,-75.59 1918.95,-86.14 1925.31,-83.21"/>
</g>
<!-- Node11 -->
<g id="node11" class="node">
<title>Node11</title>
<g id="a_node11"><a xlink:href="layer_8h.html" target="_top" xlink:title=" ">
<polygon fill="white" stroke="black" points="335.13,-280.5 335.13,-299.5 436.13,-299.5 436.13,-280.5 335.13,-280.5"/>
<text text-anchor="middle" x="385.63" y="-287.5" font-family="Helvetica,sans-Serif" font-size="10.00">gauri/core/layer.h</text>
</a>
</g>
</g>
<!-- Node1&#45;&gt;Node11 -->
<g id="edge30" class="edge">
<title>Node1&#45;&gt;Node11</title>
<path fill="none" stroke="midnightblue" d="M1099.89,-453.36C909.52,-447.43 577.66,-434.1 526.63,-412 481.32,-392.39 483.43,-367.75 445.63,-336 432.91,-325.32 417.98,-314.12 406.19,-305.56"/>
<polygon fill="midnightblue" stroke="midnightblue" points="408.04,-302.58 397.88,-299.59 403.96,-308.27 408.04,-302.58"/>
</g>
<!-- Node12 -->
<g id="node12" class="node">
<title>Node12</title>
<g id="a_node12"><a xlink:href="timestep_8h.html" target="_top" xlink:title=" ">
<polygon fill="white" stroke="black" points="466.13,-224.5 466.13,-243.5 587.13,-243.5 587.13,-224.5 466.13,-224.5"/>
<text text-anchor="middle" x="526.63" y="-231.5" font-family="Helvetica,sans-Serif" font-size="10.00">gauri/core/timestep.h</text>
</a>
</g>
</g>
<!-- Node1&#45;&gt;Node12 -->
<g id="edge38" class="edge">
<title>Node1&#45;&gt;Node12</title>
<path fill="none" stroke="midnightblue" d="M1099.92,-452.17C959.76,-446.07 749.3,-433.64 671.63,-412 618.02,-397.06 594.91,-399.04 559.63,-356 535.21,-326.21 528.78,-279.81 527.14,-253.98"/>
<polygon fill="midnightblue" stroke="midnightblue" points="530.62,-253.53 526.67,-243.7 523.63,-253.84 530.62,-253.53"/>
</g>
<!-- Node19 -->
<g id="node19" class="node">
<title>Node19</title>
<g id="a_node19"><a xlink:href="imgui__layer_8h.html" target="_top" xlink:title=" ">
<polygon fill="white" stroke="black" points="295.13,-336.5 295.13,-355.5 436.13,-355.5 436.13,-336.5 295.13,-336.5"/>
<text text-anchor="middle" x="365.63" y="-343.5" font-family="Helvetica,sans-Serif" font-size="10.00">gauri/imgui/imgui_layer.h</text>
</a>
</g>
</g>
<!-- Node1&#45;&gt;Node19 -->
<g id="edge43" class="edge">
<title>Node1&#45;&gt;Node19</title>
<path fill="none" stroke="midnightblue" d="M1099.98,-453.59C892.29,-447.65 509.67,-433.9 450.63,-412 422.74,-401.66 396.49,-378.83 380.74,-363.18"/>
<polygon fill="midnightblue" stroke="midnightblue" points="382.99,-360.47 373.5,-355.75 377.97,-365.36 382.99,-360.47"/>
</g>
<!-- Node20 -->
<g id="node20" class="node">
<title>Node20</title>
<g id="a_node20"><a xlink:href="instrumentor_8h.html" target="_top" xlink:title=" ">
<polygon fill="white" stroke="black" points="691.13,-392.5 691.13,-411.5 840.13,-411.5 840.13,-392.5 691.13,-392.5"/>
<text text-anchor="middle" x="765.63" y="-399.5" font-family="Helvetica,sans-Serif" font-size="10.00">gauri/debug/instrumentor.h</text>
</a>
</g>
</g>
<!-- Node1&#45;&gt;Node20 -->
<g id="edge32" class="edge">
<title>Node1&#45;&gt;Node20</title>
<path fill="none" stroke="midnightblue" d="M1159.73,-448.47C1075.4,-438.74 937.78,-422.86 849.5,-412.68"/>
<polygon fill="midnightblue" stroke="midnightblue" points="849.86,-409.2 839.52,-411.53 849.06,-416.15 849.86,-409.2"/>
</g>
<!-- Node25 -->
<g id="node25" class="node">
<title>Node25</title>
<g id="a_node25"><a xlink:href="input_8h.html" target="_top" xlink:title=" ">
<polygon fill="white" stroke="black" points="11.63,-224.5 11.63,-243.5 113.63,-243.5 113.63,-224.5 11.63,-224.5"/>
<text text-anchor="middle" x="62.63" y="-231.5" font-family="Helvetica,sans-Serif" font-size="10.00">gauri/core/input.h</text>
</a>
</g>
</g>
<!-- Node1&#45;&gt;Node25 -->
<g id="edge39" class="edge">
<title>Node1&#45;&gt;Node25</title>
<path fill="none" stroke="midnightblue" d="M1099.89,-455.34C833.35,-451.46 254.03,-439.9 167.63,-412 86.06,-385.66 48.28,-377 10.63,-300 1.08,-280.48 20.69,-261.46 38.5,-249.09"/>
<polygon fill="midnightblue" stroke="midnightblue" points="40.5,-251.97 46.97,-243.58 36.68,-246.1 40.5,-251.97"/>
</g>
<!-- Node26 -->
<g id="node26" class="node">
<title>Node26</title>
<g id="a_node26"><a xlink:href="key__codes_8h.html" target="_top" xlink:title=" ">
<polygon fill="white" stroke="black" points="858.63,-392.5 858.63,-411.5 986.63,-411.5 986.63,-392.5 858.63,-392.5"/>
<text text-anchor="middle" x="922.63" y="-399.5" font-family="Helvetica,sans-Serif" font-size="10.00">gauri/core/key_codes.h</text>
</a>
</g>
</g>
<!-- Node1&#45;&gt;Node26 -->
<g id="edge41" class="edge">
<title>Node1&#45;&gt;Node26</title>
<path fill="none" stroke="midnightblue" d="M1184.35,-448.44C1129.3,-438.89 1040.23,-423.42 981.54,-413.23"/>
<polygon fill="midnightblue" stroke="midnightblue" points="982.13,-409.78 971.68,-411.52 980.93,-416.68 982.13,-409.78"/>
</g>
<!-- Node27 -->
<g id="node27" class="node">
<title>Node27</title>
<g id="a_node27"><a xlink:href="mouse__button__codes_8h.html" target="_top" xlink:title=" ">
<polygon fill="white" stroke="black" points="1005.13,-392.5 1005.13,-411.5 1186.13,-411.5 1186.13,-392.5 1005.13,-392.5"/>
<text text-anchor="middle" x="1095.63" y="-399.5" font-family="Helvetica,sans-Serif" font-size="10.00">gauri/core/mouse_button_codes.h</text>
</a>
</g>
</g>
<!-- Node1&#45;&gt;Node27 -->
<g id="edge42" class="edge">
<title>Node1&#45;&gt;Node27</title>
<path fill="none" stroke="midnightblue" d="M1211.76,-448.44C1188.85,-439.48 1152.65,-425.31 1126.76,-415.18"/>
<polygon fill="midnightblue" stroke="midnightblue" points="1127.98,-411.9 1117.39,-411.52 1125.43,-418.42 1127.98,-411.9"/>
</g>
<!-- Node28 -->
<g id="node28" class="node">
<title>Node28</title>
<g id="a_node28"><a xlink:href="render__command_8h.html" target="_top" xlink:title=" ">
<polygon fill="white" stroke="black" points="1645.13,-336.5 1645.13,-355.5 1828.13,-355.5 1828.13,-336.5 1645.13,-336.5"/>
<text text-anchor="middle" x="1736.63" y="-343.5" font-family="Helvetica,sans-Serif" font-size="10.00">gauri/renderer/render_command.h</text>
</a>
</g>
</g>
<!-- Node1&#45;&gt;Node28 -->
<g id="edge44" class="edge">
<title>Node1&#45;&gt;Node28</title>
<path fill="none" stroke="midnightblue" d="M1367.36,-451.99C1500.51,-445.83 1688.88,-433.44 1715.63,-412 1729.34,-401.01 1734.21,-380.95 1735.89,-366.02"/>
<polygon fill="midnightblue" stroke="midnightblue" points="1739.39,-366.06 1736.64,-355.83 1732.41,-365.54 1739.39,-366.06"/>
</g>
<!-- Node29 -->
<g id="node29" class="node">
<title>Node29</title>
<g id="a_node29"><a xlink:href="renderer__api_8h.html" target="_top" xlink:title=" ">
<polygon fill="white" stroke="black" points="1721.13,-280.5 1721.13,-299.5 1880.13,-299.5 1880.13,-280.5 1721.13,-280.5"/>
<text text-anchor="middle" x="1800.63" y="-287.5" font-family="Helvetica,sans-Serif" font-size="10.00">gauri/renderer/renderer_api.h</text>
</a>
</g>
</g>
<!-- Node1&#45;&gt;Node29 -->
<g id="edge82" class="edge">
<title>Node1&#45;&gt;Node29</title>
<path fill="none" stroke="midnightblue" d="M1367.15,-451.22C1492.11,-444.68 1669.19,-432.24 1735.63,-412 1785.1,-396.93 1811.29,-400.51 1837.63,-356 1847.47,-339.37 1833.37,-320.11 1819.83,-306.9"/>
<polygon fill="midnightblue" stroke="midnightblue" points="1821.87,-304.02 1812.12,-299.89 1817.16,-309.2 1821.87,-304.02"/>
</g>
<!-- Node31 -->
<g id="node31" class="node">
<title>Node31</title>
<g id="a_node31"><a xlink:href="vertex__array_8h.html" target="_top" xlink:title=" ">
<polygon fill="white" stroke="black" points="1623.63,-224.5 1623.63,-243.5 1781.63,-243.5 1781.63,-224.5 1623.63,-224.5"/>
<text text-anchor="middle" x="1702.63" y="-231.5" font-family="Helvetica,sans-Serif" font-size="10.00">gauri/renderer/vertex_array.h</text>
</a>
</g>
</g>
<!-- Node1&#45;&gt;Node31 -->
<g id="edge76" class="edge">
<title>Node1&#45;&gt;Node31</title>
<path fill="none" stroke="midnightblue" d="M1269.32,-448.43C1363.34,-425.23 1614.67,-359 1674.63,-300 1687.47,-287.36 1694.79,-267.88 1698.69,-253.54"/>
<polygon fill="midnightblue" stroke="midnightblue" points="1702.11,-254.31 1701.05,-243.77 1695.3,-252.67 1702.11,-254.31"/>
</g>
<!-- Node32 -->
<g id="node32" class="node">
<title>Node32</title>
<g id="a_node32"><a xlink:href="buffer_8h.html" target="_top" xlink:title=" ">
<polygon fill="white" stroke="black" points="1703.13,-168.5 1703.13,-187.5 1828.13,-187.5 1828.13,-168.5 1703.13,-168.5"/>
<text text-anchor="middle" x="1765.63" y="-175.5" font-family="Helvetica,sans-Serif" font-size="10.00">gauri/renderer/buffer.h</text>
</a>
</g>
</g>
<!-- Node1&#45;&gt;Node32 -->
<g id="edge70" class="edge">
<title>Node1&#45;&gt;Node32</title>
<path fill="none" stroke="midnightblue" d="M1367.17,-454.84C1504.68,-451.05 1708.84,-440.64 1781.63,-412 1852.16,-384.24 1922.16,-348.46 1889.63,-280 1869.84,-238.36 1823.56,-208.25 1793.48,-192.23"/>
<polygon fill="midnightblue" stroke="midnightblue" points="1794.82,-188.99 1784.33,-187.52 1791.62,-195.21 1794.82,-188.99"/>
</g>
<!-- Node33 -->
<g id="node33" class="node">
<title>Node33</title>
<g id="a_node33"><a xlink:href="renderer_8h.html" target="_top" xlink:title=" ">
<polygon fill="white" stroke="black" points="1568.63,-392.5 1568.63,-411.5 1706.63,-411.5 1706.63,-392.5 1568.63,-392.5"/>
<text text-anchor="middle" x="1637.63" y="-399.5" font-family="Helvetica,sans-Serif" font-size="10.00">gauri/renderer/renderer.h</text>
</a>
</g>
</g>
<!-- Node1&#45;&gt;Node33 -->
<g id="edge53" class="edge">
<title>Node1&#45;&gt;Node33</title>
<path fill="none" stroke="midnightblue" d="M1297.64,-448.44C1370.04,-438.77 1487.73,-423.04 1563.91,-412.85"/>
<polygon fill="midnightblue" stroke="midnightblue" points="1564.46,-416.31 1573.91,-411.52 1563.54,-409.37 1564.46,-416.31"/>
</g>
<!-- Node34 -->
<g id="node34" class="node">
<title>Node34</title>
<g id="a_node34"><a xlink:href="orthographic__camera_8h.html" target="_top" xlink:title=" ">
<polygon fill="white" stroke="black" points="1464.13,-280.5 1464.13,-299.5 1665.13,-299.5 1665.13,-280.5 1464.13,-280.5"/>
<text text-anchor="middle" x="1564.63" y="-287.5" font-family="Helvetica,sans-Serif" font-size="10.00">gauri/renderer/orthographic_camera.h</text>
</a>
</g>
</g>
<!-- Node1&#45;&gt;Node34 -->
<g id="edge77" class="edge">
<title>Node1&#45;&gt;Node34</title>
<path fill="none" stroke="midnightblue" d="M1262.25,-448.47C1310.05,-433.57 1408.31,-400.14 1483.63,-356 1507.78,-341.85 1532.43,-320.95 1548.09,-306.7"/>
<polygon fill="midnightblue" stroke="midnightblue" points="1550.85,-308.92 1555.8,-299.55 1546.09,-303.78 1550.85,-308.92"/>
</g>
<!-- Node35 -->
<g id="node35" class="node">
<title>Node35</title>
<g id="a_node35"><a xlink:href="shader_8h.html" target="_top" xlink:title=" ">
<polygon fill="white" stroke="black" points="1017.63,-280.5 1017.63,-299.5 1147.63,-299.5 1147.63,-280.5 1017.63,-280.5"/>
<text text-anchor="middle" x="1082.63" y="-287.5" font-family="Helvetica,sans-Serif" font-size="10.00">gauri/renderer/shader.h</text>
</a>
</g>
</g>
<!-- Node1&#45;&gt;Node35 -->
<g id="edge74" class="edge">
<title>Node1&#45;&gt;Node35</title>
<path fill="none" stroke="midnightblue" d="M1229.66,-448.37C1219.48,-427.02 1190.58,-370.91 1152.63,-336 1139.32,-323.76 1122.3,-312.74 1108.37,-304.66"/>
<polygon fill="midnightblue" stroke="midnightblue" points="1109.74,-301.42 1099.31,-299.57 1106.31,-307.52 1109.74,-301.42"/>
</g>
<!-- Node36 -->
<g id="node36" class="node">
<title>Node36</title>
<g id="a_node36"><a xlink:href="renderer__2d_8h.html" target="_top" xlink:title=" ">
<polygon fill="white" stroke="black" points="1318.63,-336.5 1318.63,-355.5 1474.63,-355.5 1474.63,-336.5 1318.63,-336.5"/>
<text text-anchor="middle" x="1396.63" y="-343.5" font-family="Helvetica,sans-Serif" font-size="10.00">gauri/renderer/renderer_2d.h</text>
</a>
</g>
</g>
<!-- Node1&#45;&gt;Node36 -->
<g id="edge62" class="edge">
<title>Node1&#45;&gt;Node36</title>
<path fill="none" stroke="midnightblue" d="M1247.64,-448.41C1262.05,-439.5 1285.1,-425.07 1304.63,-412 1329.76,-395.17 1358.11,-374.95 1376.62,-361.58"/>
<polygon fill="midnightblue" stroke="midnightblue" points="1378.81,-364.31 1384.85,-355.61 1374.7,-358.64 1378.81,-364.31"/>
</g>
<!-- Node38 -->
<g id="node38" class="node">
<title>Node38</title>
<g id="a_node38"><a xlink:href="texture_8h.html" target="_top" xlink:title=" ">
<polygon fill="white" stroke="black" points="1094.13,-224.5 1094.13,-243.5 1227.13,-243.5 1227.13,-224.5 1094.13,-224.5"/>
<text text-anchor="middle" x="1160.63" y="-231.5" font-family="Helvetica,sans-Serif" font-size="10.00">gauri/renderer/texture.h</text>
</a>
</g>
</g>
<!-- Node1&#45;&gt;Node38 -->
<g id="edge75" class="edge">
<title>Node1&#45;&gt;Node38</title>
<path fill="none" stroke="midnightblue" d="M1231.75,-448.09C1229.02,-435.49 1223.64,-411.79 1217.63,-392 1202.16,-341.07 1179.57,-282.46 1168.02,-253.37"/>
<polygon fill="midnightblue" stroke="midnightblue" points="1171.14,-251.73 1164.18,-243.74 1164.64,-254.33 1171.14,-251.73"/>
</g>
<!-- Node39 -->
<g id="node39" class="node">
<title>Node39</title>
<g id="a_node39"><a xlink:href="frame__buffer_8h.html" target="_top" xlink:title=" ">
<polygon fill="white" stroke="black" points="1175.63,-168.5 1175.63,-187.5 1335.63,-187.5 1335.63,-168.5 1175.63,-168.5"/>
<text text-anchor="middle" x="1255.63" y="-175.5" font-family="Helvetica,sans-Serif" font-size="10.00">gauri/renderer/frame_buffer.h</text>
</a>
</g>
</g>
<!-- Node1&#45;&gt;Node39 -->
<g id="edge71" class="edge">
<title>Node1&#45;&gt;Node39</title>
<path fill="none" stroke="midnightblue" d="M1234.31,-448.38C1237.36,-409.78 1249.81,-252.45 1254.14,-197.81"/>
<polygon fill="midnightblue" stroke="midnightblue" points="1257.65,-197.77 1254.95,-187.52 1250.67,-197.22 1257.65,-197.77"/>
</g>
<!-- Node40 -->
<g id="node40" class="node">
<title>Node40</title>
<g id="a_node40"><a xlink:href="orthographic__camera__controller_8h.html" target="_top" xlink:title=" ">
<polygon fill="white" stroke="black" points="568.63,-336.5 568.63,-355.5 820.63,-355.5 820.63,-336.5 568.63,-336.5"/>
<text text-anchor="middle" x="694.63" y="-343.5" font-family="Helvetica,sans-Serif" font-size="10.00">gauri/renderer/orthographic_camera_controller.h</text>
</a>
</g>
</g>
<!-- Node1&#45;&gt;Node40 -->
<g id="edge78" class="edge">
<title>Node1&#45;&gt;Node40</title>
<path fill="none" stroke="midnightblue" d="M1099.91,-455.37C945.9,-452.07 710.37,-442.1 682.63,-412 671,-399.38 677.05,-379.34 684.09,-364.84"/>
<polygon fill="midnightblue" stroke="midnightblue" points="687.27,-366.31 688.92,-355.85 681.1,-363 687.27,-366.31"/>
</g>
<!-- Node3 -->
<g id="node3" class="node">
<title>Node3</title>
<g id="a_node3"><a xlink:href="layer__stack_8h.html" target="_top" xlink:title=" ">
<polygon fill="white" stroke="black" points="142.63,-336.5 142.63,-355.5 276.63,-355.5 276.63,-336.5 142.63,-336.5"/>
<text text-anchor="middle" x="209.63" y="-343.5" font-family="Helvetica,sans-Serif" font-size="10.00">gauri/core/layer_stack.h</text>
</a>
</g>
</g>
<!-- Node2&#45;&gt;Node3 -->
<g id="edge2" class="edge">
<title>Node2&#45;&gt;Node3</title>
<path fill="none" stroke="midnightblue" d="M236.34,-392.08C231.92,-384.61 225.46,-373.72 220.01,-364.52"/>
<polygon fill="midnightblue" stroke="midnightblue" points="222.92,-362.57 214.81,-355.75 216.9,-366.14 222.92,-362.57"/>
</g>
<!-- Node2&#45;&gt;Node12 -->
<g id="edge21" class="edge">
<title>Node2&#45;&gt;Node12</title>
<path fill="none" stroke="midnightblue" d="M307.22,-398.94C349.86,-394.77 404.89,-383.81 445.63,-356 483.6,-330.08 508.5,-279.92 519.73,-253.05"/>
<polygon fill="midnightblue" stroke="midnightblue" points="523.01,-254.27 523.49,-243.68 516.52,-251.66 523.01,-254.27"/>
</g>
<!-- Node13 -->
<g id="node13" class="node">
<title>Node13</title>
<g id="a_node13"><a xlink:href="event_8h.html" target="_top" xlink:title=" ">
<polygon fill="white" stroke="black" points="176.63,-224.5 176.63,-243.5 288.63,-243.5 288.63,-224.5 176.63,-224.5"/>
<text text-anchor="middle" x="232.63" y="-231.5" font-family="Helvetica,sans-Serif" font-size="10.00">gauri/event/event.h</text>
</a>
</g>
</g>
<!-- Node2&#45;&gt;Node13 -->
<g id="edge27" class="edge">
<title>Node2&#45;&gt;Node13</title>
<path fill="none" stroke="midnightblue" d="M190.1,-392.44C168.89,-386.1 146.36,-375.1 133.63,-356 128.7,-348.6 130.54,-344.34 133.63,-336 147.81,-297.65 185.44,-266.45 210.01,-249.33"/>
<polygon fill="midnightblue" stroke="midnightblue" points="212.06,-252.16 218.4,-243.67 208.15,-246.36 212.06,-252.16"/>
</g>
<!-- Node18 -->
<g id="node18" class="node">
<title>Node18</title>
<g id="a_node18"><a xlink:href="window_8h.html" target="_top" xlink:title=" ">
<polygon fill="white" stroke="black" points="19.63,-280.5 19.63,-299.5 133.63,-299.5 133.63,-280.5 19.63,-280.5"/>
<text text-anchor="middle" x="76.63" y="-287.5" font-family="Helvetica,sans-Serif" font-size="10.00">gauri/core/window.h</text>
</a>
</g>
</g>
<!-- Node2&#45;&gt;Node18 -->
<g id="edge22" class="edge">
<title>Node2&#45;&gt;Node18</title>
<path fill="none" stroke="midnightblue" d="M175.93,-392.76C149.7,-386.49 120.96,-375.45 100.63,-356 87.88,-343.81 81.86,-324.26 79.04,-309.78"/>
<polygon fill="midnightblue" stroke="midnightblue" points="82.5,-309.22 77.46,-299.9 75.59,-310.33 82.5,-309.22"/>
</g>
<!-- Node2&#45;&gt;Node19 -->
<g id="edge28" class="edge">
<title>Node2&#45;&gt;Node19</title>
<path fill="none" stroke="midnightblue" d="M261.27,-392.44C281.59,-383.6 313.53,-369.69 336.72,-359.59"/>
<polygon fill="midnightblue" stroke="midnightblue" points="338.3,-362.72 346.07,-355.52 335.5,-356.3 338.3,-362.72"/>
</g>
<!-- Node4 -->
<g id="node4" class="node">
<title>Node4</title>
<g id="a_node4"><a xlink:href="base_8h.html" target="_top" xlink:title=" ">
<polygon fill="white" stroke="black" points="1015.13,-112.5 1015.13,-131.5 1116.13,-131.5 1116.13,-112.5 1015.13,-112.5"/>
<text text-anchor="middle" x="1065.63" y="-119.5" font-family="Helvetica,sans-Serif" font-size="10.00">gauri/core/base.h</text>
</a>
</g>
</g>
<!-- Node3&#45;&gt;Node4 -->
<g id="edge3" class="edge">
<title>Node3&#45;&gt;Node4</title>
<path fill="none" stroke="midnightblue" d="M223.62,-336.4C257.39,-315.82 346.26,-262.53 423.63,-224 479.57,-196.14 492.04,-183.37 552.63,-168 712.11,-127.53 907.43,-121.99 1004.62,-122.07"/>
<polygon fill="midnightblue" stroke="midnightblue" points="1004.84,-125.57 1014.85,-122.1 1004.86,-118.57 1004.84,-125.57"/>
</g>
<!-- Node3&#45;&gt;Node11 -->
<g id="edge11" class="edge">
<title>Node3&#45;&gt;Node11</title>
<path fill="none" stroke="midnightblue" d="M237.51,-336.44C267.38,-327.28 314.94,-312.69 348.08,-302.52"/>
<polygon fill="midnightblue" stroke="midnightblue" points="349.34,-305.8 357.87,-299.52 347.28,-299.1 349.34,-305.8"/>
</g>
<!-- Node17 -->
<g id="node17" class="node">
<title>Node17</title>
<g id="a_node17"><a xlink:title=" ">
<polygon fill="white" stroke="#bfbfbf" points="190.13,-280.5 190.13,-299.5 237.13,-299.5 237.13,-280.5 190.13,-280.5"/>
<text text-anchor="middle" x="213.63" y="-287.5" font-family="Helvetica,sans-Serif" font-size="10.00">vector</text>
</a>
</g>
</g>
<!-- Node3&#45;&gt;Node17 -->
<g id="edge20" class="edge">
<title>Node3&#45;&gt;Node17</title>
<path fill="none" stroke="midnightblue" d="M210.29,-336.08C210.81,-329.01 211.56,-318.86 212.22,-309.99"/>
<polygon fill="midnightblue" stroke="midnightblue" points="215.73,-309.98 212.98,-299.75 208.75,-309.47 215.73,-309.98"/>
</g>
<!-- Node5 -->
<g id="node5" class="node">
<title>Node5</title>
<g id="a_node5"><a xlink:title=" ">
<polygon fill="white" stroke="#bfbfbf" points="169.63,-56.5 169.63,-75.5 219.63,-75.5 219.63,-56.5 169.63,-56.5"/>
<text text-anchor="middle" x="194.63" y="-63.5" font-family="Helvetica,sans-Serif" font-size="10.00">cstdint</text>
</a>
</g>
</g>
<!-- Node4&#45;&gt;Node5 -->
<g id="edge4" class="edge">
<title>Node4&#45;&gt;Node5</title>
<path fill="none" stroke="midnightblue" d="M1015.03,-117.86C855.61,-107.98 366.2,-77.64 230.08,-69.2"/>
<polygon fill="midnightblue" stroke="midnightblue" points="230.01,-65.69 219.81,-68.56 229.58,-72.67 230.01,-65.69"/>
</g>
<!-- Node6 -->
<g id="node6" class="node">
<title>Node6</title>
<g id="a_node6"><a xlink:title=" ">
<polygon fill="white" stroke="#bfbfbf" points="1669.63,-0.5 1669.63,-19.5 1727.63,-19.5 1727.63,-0.5 1669.63,-0.5"/>
<text text-anchor="middle" x="1698.63" y="-7.5" font-family="Helvetica,sans-Serif" font-size="10.00">memory</text>
</a>
</g>
</g>
<!-- Node4&#45;&gt;Node6 -->
<g id="edge5" class="edge">
<title>Node4&#45;&gt;Node6</title>
<path fill="none" stroke="midnightblue" d="M1114.77,-112.46C1236.34,-91.33 1549.25,-36.96 1659.49,-17.8"/>
<polygon fill="midnightblue" stroke="midnightblue" points="1660.26,-21.22 1669.51,-16.06 1659.06,-14.32 1660.26,-21.22"/>
</g>
<!-- Node4&#45;&gt;Node7 -->
<g id="edge6" class="edge">
<title>Node4&#45;&gt;Node7</title>
<path fill="none" stroke="midnightblue" d="M1116.13,-117.78C1262.58,-108.46 1687.29,-81.41 1849.56,-71.08"/>
<polygon fill="midnightblue" stroke="midnightblue" points="1850.11,-74.55 1859.86,-70.42 1849.66,-67.57 1850.11,-74.55"/>
</g>
<!-- Node7&#45;&gt;Node6 -->
<g id="edge8" class="edge">
<title>Node7&#45;&gt;Node6</title>
<path fill="none" stroke="midnightblue" d="M1879.56,-56.44C1840.92,-46.74 1778.03,-30.94 1737.5,-20.76"/>
<polygon fill="midnightblue" stroke="midnightblue" points="1738.26,-17.35 1727.71,-18.3 1736.55,-24.13 1738.26,-17.35"/>
</g>
<!-- Node8 -->
<g id="node8" class="node">
<title>Node8</title>
<g id="a_node8"><a xlink:title=" ">
<polygon fill="white" stroke="#bfbfbf" points="1978.63,-0.5 1978.63,-19.5 2028.63,-19.5 2028.63,-0.5 1978.63,-0.5"/>
<text text-anchor="middle" x="2003.63" y="-7.5" font-family="Helvetica,sans-Serif" font-size="10.00">format</text>
</a>
</g>
</g>
<!-- Node7&#45;&gt;Node8 -->
<g id="edge7" class="edge">
<title>Node7&#45;&gt;Node8</title>
<path fill="none" stroke="midnightblue" d="M1928.09,-56.32C1942.13,-47.9 1963.68,-34.97 1980.17,-25.07"/>
<polygon fill="midnightblue" stroke="midnightblue" points="1982.43,-27.8 1989.2,-19.65 1978.83,-21.8 1982.43,-27.8"/>
</g>
<!-- Node9 -->
<g id="node9" class="node">
<title>Node9</title>
<g id="a_node9"><a xlink:title=" ">
<polygon fill="white" stroke="#bfbfbf" points="1750.13,-0.5 1750.13,-19.5 1849.13,-19.5 1849.13,-0.5 1750.13,-0.5"/>
<text text-anchor="middle" x="1799.63" y="-7.5" font-family="Helvetica,sans-Serif" font-size="10.00">spdlog/fmt/ostr.h</text>
</a>
</g>
</g>
<!-- Node7&#45;&gt;Node9 -->
<g id="edge9" class="edge">
<title>Node7&#45;&gt;Node9</title>
<path fill="none" stroke="midnightblue" d="M1895.56,-56.44C1877.05,-47.68 1848.05,-33.94 1826.77,-23.86"/>
<polygon fill="midnightblue" stroke="midnightblue" points="1828.14,-20.63 1817.61,-19.52 1825.14,-26.96 1828.14,-20.63"/>
</g>
<!-- Node10 -->
<g id="node10" class="node">
<title>Node10</title>
<g id="a_node10"><a xlink:title=" ">
<polygon fill="white" stroke="#bfbfbf" points="1867.13,-0.5 1867.13,-19.5 1960.13,-19.5 1960.13,-0.5 1867.13,-0.5"/>
<text text-anchor="middle" x="1913.63" y="-7.5" font-family="Helvetica,sans-Serif" font-size="10.00">spdlog/spdlog.h</text>
</a>
</g>
</g>
<!-- Node7&#45;&gt;Node10 -->
<g id="edge10" class="edge">
<title>Node7&#45;&gt;Node10</title>
<path fill="none" stroke="midnightblue" d="M1913.63,-56.08C1913.63,-49.01 1913.63,-38.86 1913.63,-29.99"/>
<polygon fill="midnightblue" stroke="midnightblue" points="1917.13,-29.75 1913.63,-19.75 1910.13,-29.75 1917.13,-29.75"/>
</g>
<!-- Node11&#45;&gt;Node4 -->
<g id="edge12" class="edge">
<title>Node11&#45;&gt;Node4</title>
<path fill="none" stroke="midnightblue" d="M392.5,-280.13C404.19,-265.76 429.42,-237.61 457.63,-224 642.44,-134.84 891.53,-122.59 1004.9,-122.05"/>
<polygon fill="midnightblue" stroke="midnightblue" points="1005.12,-125.55 1015.12,-122.03 1005.11,-118.55 1005.12,-125.55"/>
</g>
<!-- Node11&#45;&gt;Node12 -->
<g id="edge13" class="edge">
<title>Node11&#45;&gt;Node12</title>
<path fill="none" stroke="midnightblue" d="M407.97,-280.44C431.38,-271.48 468.36,-257.31 494.82,-247.18"/>
<polygon fill="midnightblue" stroke="midnightblue" points="496.3,-250.36 504.39,-243.52 493.8,-243.82 496.3,-250.36"/>
</g>
<!-- Node11&#45;&gt;Node13 -->
<g id="edge14" class="edge">
<title>Node11&#45;&gt;Node13</title>
<path fill="none" stroke="midnightblue" d="M361.38,-280.44C335.76,-271.4 295.14,-257.06 266.39,-246.92"/>
<polygon fill="midnightblue" stroke="midnightblue" points="267.35,-243.54 256.76,-243.52 265.02,-250.15 267.35,-243.54"/>
</g>
<!-- Node13&#45;&gt;Node4 -->
<g id="edge19" class="edge">
<title>Node13&#45;&gt;Node4</title>
<path fill="none" stroke="midnightblue" d="M232.27,-224.13C232.23,-209.75 234.5,-181.59 251.63,-168 310.15,-121.56 825.9,-121.11 1004.82,-122.38"/>
<polygon fill="midnightblue" stroke="midnightblue" points="1004.83,-125.88 1014.85,-122.46 1004.88,-118.88 1004.83,-125.88"/>
</g>
<!-- Node13&#45;&gt;Node5 -->
<g id="edge15" class="edge">
<title>Node13&#45;&gt;Node5</title>
<path fill="none" stroke="midnightblue" d="M230.58,-224.08C224.6,-197.95 207.04,-121.21 198.88,-85.58"/>
<polygon fill="midnightblue" stroke="midnightblue" points="202.23,-84.53 196.59,-75.57 195.41,-86.1 202.23,-84.53"/>
</g>
<!-- Node14 -->
<g id="node14" class="node">
<title>Node14</title>
<g id="a_node14"><a xlink:title=" ">
<polygon fill="white" stroke="#bfbfbf" points="101.13,-168.5 101.13,-187.5 166.13,-187.5 166.13,-168.5 101.13,-168.5"/>
<text text-anchor="middle" x="133.63" y="-175.5" font-family="Helvetica,sans-Serif" font-size="10.00">functional</text>
</a>
</g>
</g>
<!-- Node13&#45;&gt;Node14 -->
<g id="edge16" class="edge">
<title>Node13&#45;&gt;Node14</title>
<path fill="none" stroke="midnightblue" d="M216.72,-224.32C200.99,-215.74 176.68,-202.49 158.42,-192.52"/>
<polygon fill="midnightblue" stroke="midnightblue" points="159.95,-189.37 149.49,-187.65 156.6,-195.52 159.95,-189.37"/>
</g>
<!-- Node15 -->
<g id="node15" class="node">
<title>Node15</title>
<g id="a_node15"><a xlink:title=" ">
<polygon fill="white" stroke="#bfbfbf" points="260.63,-168.5 260.63,-187.5 316.63,-187.5 316.63,-168.5 260.63,-168.5"/>
<text text-anchor="middle" x="288.63" y="-175.5" font-family="Helvetica,sans-Serif" font-size="10.00">sstream</text>
</a>
</g>
</g>
<!-- Node13&#45;&gt;Node15 -->
<g id="edge17" class="edge">
<title>Node13&#45;&gt;Node15</title>
<path fill="none" stroke="midnightblue" d="M241.62,-224.32C249.82,-216.42 262.13,-204.55 272.1,-194.94"/>
<polygon fill="midnightblue" stroke="midnightblue" points="274.7,-197.29 279.47,-187.83 269.84,-192.26 274.7,-197.29"/>
</g>
<!-- Node16 -->
<g id="node16" class="node">
<title>Node16</title>
<g id="a_node16"><a xlink:title=" ">
<polygon fill="white" stroke="#bfbfbf" points="967.63,-168.5 967.63,-187.5 1011.63,-187.5 1011.63,-168.5 967.63,-168.5"/>
<text text-anchor="middle" x="989.63" y="-175.5" font-family="Helvetica,sans-Serif" font-size="10.00">string</text>
</a>
</g>
</g>
<!-- Node13&#45;&gt;Node16 -->
<g id="edge18" class="edge">
<title>Node13&#45;&gt;Node16</title>
<path fill="none" stroke="midnightblue" d="M288.91,-228.99C438.1,-218.34 840.3,-189.65 957.29,-181.31"/>
<polygon fill="midnightblue" stroke="midnightblue" points="957.67,-184.79 967.4,-180.59 957.17,-177.81 957.67,-184.79"/>
</g>
<!-- Node18&#45;&gt;Node5 -->
<g id="edge23" class="edge">
<title>Node18&#45;&gt;Node5</title>
<path fill="none" stroke="midnightblue" d="M52.04,-280.44C26.04,-269.84 -9.68,-249.96 2.63,-224 36.74,-152.05 121.76,-102.12 166.34,-79.95"/>
<polygon fill="midnightblue" stroke="midnightblue" points="167.99,-83.03 175.46,-75.51 164.94,-76.73 167.99,-83.03"/>
</g>
<!-- Node18&#45;&gt;Node13 -->
<g id="edge26" class="edge">
<title>Node18&#45;&gt;Node13</title>
<path fill="none" stroke="midnightblue" d="M101.35,-280.44C127.48,-271.4 168.89,-257.06 198.2,-246.92"/>
<polygon fill="midnightblue" stroke="midnightblue" points="199.72,-250.1 208.02,-243.52 197.43,-243.48 199.72,-250.1"/>
</g>
<!-- Node18&#45;&gt;Node14 -->
<g id="edge24" class="edge">
<title>Node18&#45;&gt;Node14</title>
<path fill="none" stroke="midnightblue" d="M89.34,-280.2C100.01,-272.09 114.75,-259.05 122.63,-244 130.17,-229.58 132.73,-211.13 133.51,-197.57"/>
<polygon fill="midnightblue" stroke="midnightblue" points="137.01,-197.63 133.82,-187.53 130.01,-197.41 137.01,-197.63"/>
</g>
<!-- Node18&#45;&gt;Node16 -->
<g id="edge25" class="edge">
<title>Node18&#45;&gt;Node16</title>
<path fill="none" stroke="midnightblue" d="M119.59,-280.45C189.96,-266.72 334.32,-239.71 457.63,-224 646.35,-199.96 874.44,-185.54 957.45,-180.77"/>
<polygon fill="midnightblue" stroke="midnightblue" points="957.73,-184.26 967.51,-180.2 957.33,-177.27 957.73,-184.26"/>
</g>
<!-- Node19&#45;&gt;Node11 -->
<g id="edge29" class="edge">
<title>Node19&#45;&gt;Node11</title>
<path fill="none" stroke="midnightblue" d="M368.93,-336.08C371.61,-328.85 375.48,-318.41 378.81,-309.4"/>
<polygon fill="midnightblue" stroke="midnightblue" points="382.19,-310.34 382.39,-299.75 375.63,-307.91 382.19,-310.34"/>
</g>
<!-- Node20&#45;&gt;Node16 -->
<g id="edge36" class="edge">
<title>Node20&#45;&gt;Node16</title>
<path fill="none" stroke="midnightblue" d="M840.34,-392.74C942.84,-381.24 1115.03,-361.22 1119.63,-356 1125.5,-349.33 1124.85,-343.19 1119.63,-336 1089.13,-294.05 1042.29,-339.45 1008.63,-300 983.98,-271.12 984.47,-223.65 987.02,-197.58"/>
<polygon fill="midnightblue" stroke="midnightblue" points="990.51,-197.89 988.22,-187.55 983.56,-197.06 990.51,-197.89"/>
</g>
<!-- Node21 -->
<g id="node21" class="node">
<title>Node21</title>
<g id="a_node21"><a xlink:title=" ">
<polygon fill="white" stroke="#bfbfbf" points="1046.63,-336.5 1046.63,-355.5 1110.63,-355.5 1110.63,-336.5 1046.63,-336.5"/>
<text text-anchor="middle" x="1078.63" y="-343.5" font-family="Helvetica,sans-Serif" font-size="10.00">algorithm</text>
</a>
</g>
</g>
<!-- Node20&#45;&gt;Node21 -->
<g id="edge33" class="edge">
<title>Node20&#45;&gt;Node21</title>
<path fill="none" stroke="midnightblue" d="M822.56,-392.46C875.44,-384.34 956.6,-371.36 1036.23,-356.19"/>
<polygon fill="midnightblue" stroke="midnightblue" points="1037.27,-359.56 1046.43,-354.23 1035.95,-352.68 1037.27,-359.56"/>
</g>
<!-- Node22 -->
<g id="node22" class="node">
<title>Node22</title>
<g id="a_node22"><a xlink:title=" ">
<polygon fill="white" stroke="#bfbfbf" points="838.63,-336.5 838.63,-355.5 888.63,-355.5 888.63,-336.5 838.63,-336.5"/>
<text text-anchor="middle" x="863.63" y="-343.5" font-family="Helvetica,sans-Serif" font-size="10.00">chrono</text>
</a>
</g>
</g>
<!-- Node20&#45;&gt;Node22 -->
<g id="edge34" class="edge">
<title>Node20&#45;&gt;Node22</title>
<path fill="none" stroke="midnightblue" d="M781.37,-392.32C796.95,-383.74 821,-370.49 839.09,-360.52"/>
<polygon fill="midnightblue" stroke="midnightblue" points="840.85,-363.55 847.92,-355.65 837.47,-357.42 840.85,-363.55"/>
</g>
<!-- Node23 -->
<g id="node23" class="node">
<title>Node23</title>
<g id="a_node23"><a xlink:title=" ">
<polygon fill="white" stroke="#bfbfbf" points="907.13,-336.5 907.13,-355.5 962.13,-355.5 962.13,-336.5 907.13,-336.5"/>
<text text-anchor="middle" x="934.63" y="-343.5" font-family="Helvetica,sans-Serif" font-size="10.00">fstream</text>
</a>
</g>
</g>
<!-- Node20&#45;&gt;Node23 -->
<g id="edge35" class="edge">
<title>Node20&#45;&gt;Node23</title>
<path fill="none" stroke="midnightblue" d="M792.41,-392.44C820.96,-383.32 866.36,-368.81 898.16,-358.65"/>
<polygon fill="midnightblue" stroke="midnightblue" points="899.51,-361.89 907.97,-355.52 897.38,-355.23 899.51,-361.89"/>
</g>
<!-- Node24 -->
<g id="node24" class="node">
<title>Node24</title>
<g id="a_node24"><a xlink:title=" ">
<polygon fill="white" stroke="#bfbfbf" points="980.63,-336.5 980.63,-355.5 1028.63,-355.5 1028.63,-336.5 980.63,-336.5"/>
<text text-anchor="middle" x="1004.63" y="-343.5" font-family="Helvetica,sans-Serif" font-size="10.00">thread</text>
</a>
</g>
</g>
<!-- Node20&#45;&gt;Node24 -->
<g id="edge37" class="edge">
<title>Node20&#45;&gt;Node24</title>
<path fill="none" stroke="midnightblue" d="M807.59,-392.49C847.2,-384.31 908.48,-371.28 970.55,-356.17"/>
<polygon fill="midnightblue" stroke="midnightblue" points="971.63,-359.51 980.51,-353.73 969.97,-352.71 971.63,-359.51"/>
</g>
<!-- Node25&#45;&gt;Node4 -->
<g id="edge40" class="edge">
<title>Node25&#45;&gt;Node4</title>
<path fill="none" stroke="midnightblue" d="M63.75,-224.44C66.15,-209.98 73.24,-181.04 92.63,-168 130.53,-142.5 797.79,-127.98 1004.85,-124.08"/>
<polygon fill="midnightblue" stroke="midnightblue" points="1005.01,-127.58 1014.94,-123.89 1004.88,-120.58 1005.01,-127.58"/>
</g>
<!-- Node28&#45;&gt;Node29 -->
<g id="edge45" class="edge">
<title>Node28&#45;&gt;Node29</title>
<path fill="none" stroke="midnightblue" d="M1746.91,-336.32C1756.46,-328.26 1770.91,-316.08 1782.41,-306.37"/>
<polygon fill="midnightblue" stroke="midnightblue" points="1784.77,-308.96 1790.16,-299.83 1780.26,-303.61 1784.77,-308.96"/>
</g>
<!-- Node29&#45;&gt;Node6 -->
<g id="edge47" class="edge">
<title>Node29&#45;&gt;Node6</title>
<path fill="none" stroke="midnightblue" d="M1807.18,-280.36C1821.54,-260.33 1853.28,-209.29 1837.63,-168 1813.68,-104.84 1751.42,-50.75 1718.97,-25.77"/>
<polygon fill="midnightblue" stroke="midnightblue" points="1720.76,-22.74 1710.66,-19.52 1716.55,-28.33 1720.76,-22.74"/>
</g>
<!-- Node30 -->
<g id="node30" class="node">
<title>Node30</title>
<g id="a_node30"><a xlink:title=" ">
<polygon fill="white" stroke="#bfbfbf" points="1424.63,-224.5 1424.63,-243.5 1502.63,-243.5 1502.63,-224.5 1424.63,-224.5"/>
<text text-anchor="middle" x="1463.63" y="-231.5" font-family="Helvetica,sans-Serif" font-size="10.00">glm/glm.hpp</text>
</a>
</g>
</g>
<!-- Node29&#45;&gt;Node30 -->
<g id="edge46" class="edge">
<title>Node29&#45;&gt;Node30</title>
<path fill="none" stroke="midnightblue" d="M1747.23,-280.44C1682.88,-270.13 1575.64,-252.95 1513.1,-242.93"/>
<polygon fill="midnightblue" stroke="midnightblue" points="1513.51,-239.45 1503.09,-241.32 1512.41,-246.36 1513.51,-239.45"/>
</g>
<!-- Node29&#45;&gt;Node31 -->
<g id="edge48" class="edge">
<title>Node29&#45;&gt;Node31</title>
<path fill="none" stroke="midnightblue" d="M1784.88,-280.32C1769.31,-271.74 1745.25,-258.49 1727.17,-248.52"/>
<polygon fill="midnightblue" stroke="midnightblue" points="1728.78,-245.42 1718.33,-243.65 1725.4,-251.55 1728.78,-245.42"/>
</g>
<!-- Node31&#45;&gt;Node6 -->
<g id="edge49" class="edge">
<title>Node31&#45;&gt;Node6</title>
<path fill="none" stroke="midnightblue" d="M1700.64,-224.43C1698.66,-215.42 1695.76,-200.8 1694.63,-188 1689.58,-130.73 1694.04,-62.67 1696.81,-30.15"/>
<polygon fill="midnightblue" stroke="midnightblue" points="1700.33,-30.14 1697.74,-19.86 1693.36,-29.51 1700.33,-30.14"/>
</g>
<!-- Node31&#45;&gt;Node32 -->
<g id="edge50" class="edge">
<title>Node31&#45;&gt;Node32</title>
<path fill="none" stroke="midnightblue" d="M1712.75,-224.32C1722.15,-216.26 1736.37,-204.08 1747.7,-194.37"/>
<polygon fill="midnightblue" stroke="midnightblue" points="1750.01,-197 1755.32,-187.83 1745.45,-191.68 1750.01,-197"/>
</g>
<!-- Node32&#45;&gt;Node4 -->
<g id="edge51" class="edge">
<title>Node32&#45;&gt;Node4</title>
<path fill="none" stroke="midnightblue" d="M1702.89,-172.16C1569.42,-161.86 1258.76,-137.9 1126.74,-127.71"/>
<polygon fill="midnightblue" stroke="midnightblue" points="1126.66,-124.2 1116.42,-126.92 1126.12,-131.18 1126.66,-124.2"/>
</g>
<!-- Node32&#45;&gt;Node7 -->
<g id="edge52" class="edge">
<title>Node32&#45;&gt;Node7</title>
<path fill="none" stroke="midnightblue" d="M1777.24,-168.37C1802.42,-149.65 1862.3,-105.15 1893.67,-81.83"/>
<polygon fill="midnightblue" stroke="midnightblue" points="1896.13,-84.37 1902.07,-75.59 1891.95,-78.75 1896.13,-84.37"/>
</g>
<!-- Node33&#45;&gt;Node28 -->
<g id="edge56" class="edge">
<title>Node33&#45;&gt;Node28</title>
<path fill="none" stroke="midnightblue" d="M1653.53,-392.32C1669.26,-383.74 1693.57,-370.49 1711.84,-360.52"/>
<polygon fill="midnightblue" stroke="midnightblue" points="1713.66,-363.52 1720.76,-355.65 1710.31,-357.37 1713.66,-363.52"/>
</g>
<!-- Node33&#45;&gt;Node29 -->
<g id="edge57" class="edge">
<title>Node33&#45;&gt;Node29</title>
<path fill="none" stroke="midnightblue" d="M1634.45,-392.39C1630.06,-378.87 1624.03,-352.51 1636.63,-336 1648.55,-320.36 1692.47,-308.81 1731.86,-301.33"/>
<polygon fill="midnightblue" stroke="midnightblue" points="1732.55,-304.77 1741.76,-299.52 1731.29,-297.88 1732.55,-304.77"/>
</g>
<!-- Node33&#45;&gt;Node34 -->
<g id="edge54" class="edge">
<title>Node33&#45;&gt;Node34</title>
<path fill="none" stroke="midnightblue" d="M1630.3,-392.29C1622.96,-383.41 1611.5,-369.11 1602.63,-356 1592.12,-340.47 1581.45,-321.94 1574.11,-308.64"/>
<polygon fill="midnightblue" stroke="midnightblue" points="1577.06,-306.74 1569.2,-299.63 1570.91,-310.09 1577.06,-306.74"/>
</g>
<!-- Node33&#45;&gt;Node35 -->
<g id="edge58" class="edge">
<title>Node33&#45;&gt;Node35</title>
<path fill="none" stroke="midnightblue" d="M1568.34,-394.39C1501.62,-387.35 1398.07,-374.63 1309.63,-356 1240.59,-341.46 1161.79,-317.09 1117.55,-302.68"/>
<polygon fill="midnightblue" stroke="midnightblue" points="1118.45,-299.3 1107.86,-299.51 1116.27,-305.95 1118.45,-299.3"/>
</g>
<!-- Node34&#45;&gt;Node30 -->
<g id="edge55" class="edge">
<title>Node34&#45;&gt;Node30</title>
<path fill="none" stroke="midnightblue" d="M1548.4,-280.32C1532.28,-271.7 1507.33,-258.36 1488.66,-248.39"/>
<polygon fill="midnightblue" stroke="midnightblue" points="1490.28,-245.28 1479.81,-243.65 1486.98,-251.46 1490.28,-245.28"/>
</g>
<!-- Node35&#45;&gt;Node4 -->
<g id="edge61" class="edge">
<title>Node35&#45;&gt;Node4</title>
<path fill="none" stroke="midnightblue" d="M1081.71,-280.08C1079.04,-253.95 1071.18,-177.21 1067.53,-141.58"/>
<polygon fill="midnightblue" stroke="midnightblue" points="1071,-141.16 1066.5,-131.57 1064.04,-141.87 1071,-141.16"/>
</g>
<!-- Node35&#45;&gt;Node16 -->
<g id="edge60" class="edge">
<title>Node35&#45;&gt;Node16</title>
<path fill="none" stroke="midnightblue" d="M1075.33,-280.37C1059.85,-262.05 1023.49,-219.05 1003.46,-195.36"/>
<polygon fill="midnightblue" stroke="midnightblue" points="1006.02,-192.97 996.89,-187.59 1000.67,-197.49 1006.02,-192.97"/>
</g>
<!-- Node35&#45;&gt;Node30 -->
<g id="edge59" class="edge">
<title>Node35&#45;&gt;Node30</title>
<path fill="none" stroke="midnightblue" d="M1143,-280.44C1218.04,-269.81 1344.69,-251.86 1414.23,-242"/>
<polygon fill="midnightblue" stroke="midnightblue" points="1415.07,-245.42 1424.48,-240.55 1414.08,-238.49 1415.07,-245.42"/>
</g>
<!-- Node36&#45;&gt;Node34 -->
<g id="edge63" class="edge">
<title>Node36&#45;&gt;Node34</title>
<path fill="none" stroke="midnightblue" d="M1423.25,-336.44C1451.63,-327.32 1496.76,-312.81 1528.38,-302.65"/>
<polygon fill="midnightblue" stroke="midnightblue" points="1529.68,-305.91 1538.13,-299.52 1527.54,-299.24 1529.68,-305.91"/>
</g>
<!-- Node37 -->
<g id="node37" class="node">
<title>Node37</title>
<g id="a_node37"><a xlink:href="subtexture__2d_8h.html" target="_top" xlink:title=" ">
<polygon fill="white" stroke="black" points="1279.13,-280.5 1279.13,-299.5 1446.13,-299.5 1446.13,-280.5 1279.13,-280.5"/>
<text text-anchor="middle" x="1362.63" y="-287.5" font-family="Helvetica,sans-Serif" font-size="10.00">gauri/renderer/subtexture_2d.h</text>
</a>
</g>
</g>
<!-- Node36&#45;&gt;Node37 -->
<g id="edge64" class="edge">
<title>Node36&#45;&gt;Node37</title>
<path fill="none" stroke="midnightblue" d="M1391.01,-336.08C1386.26,-328.53 1379.31,-317.49 1373.48,-308.23"/>
<polygon fill="midnightblue" stroke="midnightblue" points="1376.43,-306.35 1368.14,-299.75 1370.5,-310.08 1376.43,-306.35"/>
</g>
<!-- Node36&#45;&gt;Node38 -->
<g id="edge69" class="edge">
<title>Node36&#45;&gt;Node38</title>
<path fill="none" stroke="midnightblue" d="M1367.98,-336.49C1342.03,-328.38 1303.02,-315.18 1270.63,-300 1238.47,-284.92 1203.5,-263.28 1181.82,-249.18"/>
<polygon fill="midnightblue" stroke="midnightblue" points="1183.67,-246.2 1173.39,-243.64 1179.83,-252.06 1183.67,-246.2"/>
</g>
<!-- Node37&#45;&gt;Node30 -->
<g id="edge65" class="edge">
<title>Node37&#45;&gt;Node30</title>
<path fill="none" stroke="midnightblue" d="M1378.85,-280.32C1394.98,-271.7 1419.93,-258.36 1438.59,-248.39"/>
<polygon fill="midnightblue" stroke="midnightblue" points="1440.27,-251.46 1447.44,-243.65 1436.97,-245.28 1440.27,-251.46"/>
</g>
<!-- Node37&#45;&gt;Node38 -->
<g id="edge66" class="edge">
<title>Node37&#45;&gt;Node38</title>
<path fill="none" stroke="midnightblue" d="M1330.62,-280.44C1295.9,-271.16 1240.34,-256.31 1202.25,-246.13"/>
<polygon fill="midnightblue" stroke="midnightblue" points="1203.05,-242.72 1192.48,-243.52 1201.24,-249.48 1203.05,-242.72"/>
</g>
<!-- Node38&#45;&gt;Node4 -->
<g id="edge68" class="edge">
<title>Node38&#45;&gt;Node4</title>
<path fill="none" stroke="midnightblue" d="M1153.17,-224.37C1137.36,-206.05 1100.21,-163.05 1079.76,-139.36"/>
<polygon fill="midnightblue" stroke="midnightblue" points="1082.23,-136.87 1073.05,-131.59 1076.93,-141.45 1082.23,-136.87"/>
</g>
<!-- Node38&#45;&gt;Node16 -->
<g id="edge67" class="edge">
<title>Node38&#45;&gt;Node16</title>
<path fill="none" stroke="midnightblue" d="M1133.53,-224.44C1103.11,-214.84 1053.79,-199.26 1021.53,-189.07"/>
<polygon fill="midnightblue" stroke="midnightblue" points="1022.29,-185.64 1011.7,-185.97 1020.18,-192.32 1022.29,-185.64"/>
</g>
<!-- Node39&#45;&gt;Node4 -->
<g id="edge72" class="edge">
<title>Node39&#45;&gt;Node4</title>
<path fill="none" stroke="midnightblue" d="M1225.52,-168.44C1193,-159.2 1141.05,-144.44 1105.24,-134.26"/>
<polygon fill="midnightblue" stroke="midnightblue" points="1106.17,-130.88 1095.59,-131.52 1104.25,-137.62 1106.17,-130.88"/>
</g>
<!-- Node39&#45;&gt;Node7 -->
<g id="edge73" class="edge">
<title>Node39&#45;&gt;Node7</title>
<path fill="none" stroke="midnightblue" d="M1306.71,-168.46C1426.22,-148.48 1723.63,-98.76 1852.48,-77.22"/>
<polygon fill="midnightblue" stroke="midnightblue" points="1853.29,-80.64 1862.57,-75.53 1852.13,-73.73 1853.29,-80.64"/>
</g>
<!-- Node40&#45;&gt;Node12 -->
<g id="edge79" class="edge">
<title>Node40&#45;&gt;Node12</title>
<path fill="none" stroke="midnightblue" d="M681.44,-336.37C652.62,-317.49 583.72,-272.38 548.37,-249.24"/>
<polygon fill="midnightblue" stroke="midnightblue" points="550.03,-246.14 539.75,-243.59 546.2,-252 550.03,-246.14"/>
</g>
<!-- Node40&#45;&gt;Node13 -->
<g id="edge80" class="edge">
<title>Node40&#45;&gt;Node13</title>
<path fill="none" stroke="midnightblue" d="M663.69,-336.42C616.72,-323.51 524.55,-298.63 445.63,-280 391.48,-267.22 329.18,-254.26 286,-245.55"/>
<polygon fill="midnightblue" stroke="midnightblue" points="286.5,-242.08 276,-243.54 285.12,-248.94 286.5,-242.08"/>
</g>
<!-- Node40&#45;&gt;Node34 -->
<g id="edge81" class="edge">
<title>Node40&#45;&gt;Node34</title>
<path fill="none" stroke="midnightblue" d="M820.74,-336.56C823.73,-336.37 826.7,-336.18 829.63,-336 1104.51,-318.93 1175.96,-319.45 1453.99,-300.1"/>
<polygon fill="midnightblue" stroke="midnightblue" points="1454.24,-303.59 1463.97,-299.4 1453.75,-296.61 1454.24,-303.59"/>
</g>
</g>
</svg>
