<?xml version="1.0" encoding="UTF-8" standalone="no"?>
<!DOCTYPE svg PUBLIC "-//W3C//DTD SVG 1.1//EN"
 "http://www.w3.org/Graphics/SVG/1.1/DTD/svg11.dtd">
<!-- Generated by graphviz version 2.43.0 (0)
 -->
<!-- Title: /home/runner/work/gauri/gauri/gauri/include/gauri.h Pages: 1 -->
<svg width="1846pt" height="476pt"
 viewBox="0.00 0.00 1845.86 476.00" xmlns="http://www.w3.org/2000/svg" xmlns:xlink="http://www.w3.org/1999/xlink">
<g id="graph0" class="graph" transform="scale(1 1) rotate(0) translate(4 472)">
<title>/home/runner/work/gauri/gauri/gauri/include/gauri.h</title>
<polygon fill="white" stroke="transparent" points="-4,4 -4,-472 1841.86,-472 1841.86,4 -4,4"/>
<!-- Node1 -->
<g id="node1" class="node">
<title>Node1</title>
<g id="a_node1"><a xlink:title=" ">
<polygon fill="#bfbfbf" stroke="black" points="766.86,-448.5 766.86,-467.5 1033.86,-467.5 1033.86,-448.5 766.86,-448.5"/>
<text text-anchor="middle" x="900.36" y="-455.5" font-family="Helvetica,sans-Serif" font-size="10.00">/home/runner/work/gauri/gauri/gauri/include/gauri.h</text>
</a>
</g>
</g>
<!-- Node2 -->
<g id="node2" class="node">
<title>Node2</title>
<g id="a_node2"><a xlink:href="application_8h.html" target="_top" xlink:title=" ">
<polygon fill="white" stroke="black" points="234.86,-392.5 234.86,-411.5 365.86,-411.5 365.86,-392.5 234.86,-392.5"/>
<text text-anchor="middle" x="300.36" y="-399.5" font-family="Helvetica,sans-Serif" font-size="10.00">gauri/core/application.h</text>
</a>
</g>
</g>
<!-- Node1&#45;&gt;Node2 -->
<g id="edge1" class="edge">
<title>Node1&#45;&gt;Node2</title>
<path fill="none" stroke="midnightblue" d="M805.62,-448.47C686.78,-437.78 485.36,-419.65 376.18,-409.82"/>
<polygon fill="midnightblue" stroke="midnightblue" points="376.18,-406.31 365.91,-408.9 375.55,-413.28 376.18,-406.31"/>
</g>
<!-- Node7 -->
<g id="node7" class="node">
<title>Node7</title>
<g id="a_node7"><a xlink:href="logger_8h.html" target="_top" xlink:title=" ">
<polygon fill="white" stroke="black" points="544.86,-56.5 544.86,-75.5 651.86,-75.5 651.86,-56.5 544.86,-56.5"/>
<text text-anchor="middle" x="598.36" y="-63.5" font-family="Helvetica,sans-Serif" font-size="10.00">gauri/core/logger.h</text>
</a>
</g>
</g>
<!-- Node1&#45;&gt;Node7 -->
<g id="edge31" class="edge">
<title>Node1&#45;&gt;Node7</title>
<path fill="none" stroke="midnightblue" d="M766.63,-456.76C589.88,-455.05 288.68,-446.88 184.36,-412 98.55,-383.31 57.27,-379.66 14.36,-300 -13.47,-248.33 -4.72,-228.76 82.36,-168 154.83,-117.44 412.82,-85.58 534.26,-73.06"/>
<polygon fill="midnightblue" stroke="midnightblue" points="534.93,-76.51 544.53,-72.02 534.22,-69.55 534.93,-76.51"/>
</g>
<!-- Node11 -->
<g id="node11" class="node">
<title>Node11</title>
<g id="a_node11"><a xlink:href="layer_8h.html" target="_top" xlink:title=" ">
<polygon fill="white" stroke="black" points="432.86,-280.5 432.86,-299.5 533.86,-299.5 533.86,-280.5 432.86,-280.5"/>
<text text-anchor="middle" x="483.36" y="-287.5" font-family="Helvetica,sans-Serif" font-size="10.00">gauri/core/layer.h</text>
</a>
</g>
</g>
<!-- Node1&#45;&gt;Node11 -->
<g id="edge30" class="edge">
<title>Node1&#45;&gt;Node11</title>
<path fill="none" stroke="midnightblue" d="M766.67,-450.8C656.45,-444.28 515.36,-432.12 497.36,-412 491.44,-405.38 496.39,-400.84 497.36,-392 500.11,-367.01 511.03,-360.49 505.36,-336 503.13,-326.36 498.54,-316.41 494.13,-308.31"/>
<polygon fill="midnightblue" stroke="midnightblue" points="497.06,-306.4 489,-299.52 491.01,-309.92 497.06,-306.4"/>
</g>
<!-- Node12 -->
<g id="node12" class="node">
<title>Node12</title>
<g id="a_node12"><a xlink:href="timestep_8h.html" target="_top" xlink:title=" ">
<polygon fill="white" stroke="black" points="481.86,-224.5 481.86,-243.5 602.86,-243.5 602.86,-224.5 481.86,-224.5"/>
<text text-anchor="middle" x="542.36" y="-231.5" font-family="Helvetica,sans-Serif" font-size="10.00">gauri/core/timestep.h</text>
</a>
</g>
</g>
<!-- Node1&#45;&gt;Node12 -->
<g id="edge32" class="edge">
<title>Node1&#45;&gt;Node12</title>
<path fill="none" stroke="midnightblue" d="M878.81,-448.48C858.23,-440.06 826.55,-426.4 800.36,-412 780.54,-401.1 733.2,-369.9 715.36,-356 675.91,-325.26 673.57,-308.35 632.36,-280 613.78,-267.22 591.05,-255.89 573.09,-247.79"/>
<polygon fill="midnightblue" stroke="midnightblue" points="574.21,-244.46 563.65,-243.64 571.39,-250.87 574.21,-244.46"/>
</g>
<!-- Node19 -->
<g id="node19" class="node">
<title>Node19</title>
<g id="a_node19"><a xlink:href="imgui__layer_8h.html" target="_top" xlink:title=" ">
<polygon fill="white" stroke="black" points="354.86,-336.5 354.86,-355.5 495.86,-355.5 495.86,-336.5 354.86,-336.5"/>
<text text-anchor="middle" x="425.36" y="-343.5" font-family="Helvetica,sans-Serif" font-size="10.00">gauri/imgui/imgui_layer.h</text>
</a>
</g>
</g>
<!-- Node1&#45;&gt;Node19 -->
<g id="edge37" class="edge">
<title>Node1&#45;&gt;Node19</title>
<path fill="none" stroke="midnightblue" d="M766.85,-456.12C657.48,-453.07 513.12,-443.02 464.36,-412 447.56,-401.31 437,-380.56 431.17,-365.37"/>
<polygon fill="midnightblue" stroke="midnightblue" points="434.33,-363.8 427.74,-355.51 427.72,-366.11 434.33,-363.8"/>
</g>
<!-- Node20 -->
<g id="node20" class="node">
<title>Node20</title>
<g id="a_node20"><a xlink:href="input_8h.html" target="_top" xlink:title=" ">
<polygon fill="white" stroke="black" points="23.36,-280.5 23.36,-299.5 125.36,-299.5 125.36,-280.5 23.36,-280.5"/>
<text text-anchor="middle" x="74.36" y="-287.5" font-family="Helvetica,sans-Serif" font-size="10.00">gauri/core/input.h</text>
</a>
</g>
</g>
<!-- Node1&#45;&gt;Node20 -->
<g id="edge33" class="edge">
<title>Node1&#45;&gt;Node20</title>
<path fill="none" stroke="midnightblue" d="M766.66,-456.99C599.04,-455.45 322.06,-447.37 226.36,-412 166.72,-389.96 112.5,-334.77 88.05,-307.2"/>
<polygon fill="midnightblue" stroke="midnightblue" points="90.65,-304.86 81.45,-299.6 85.36,-309.45 90.65,-304.86"/>
</g>
<!-- Node21 -->
<g id="node21" class="node">
<title>Node21</title>
<g id="a_node21"><a xlink:href="key__codes_8h.html" target="_top" xlink:title=" ">
<polygon fill="white" stroke="black" points="1359.36,-392.5 1359.36,-411.5 1487.36,-411.5 1487.36,-392.5 1359.36,-392.5"/>
<text text-anchor="middle" x="1423.36" y="-399.5" font-family="Helvetica,sans-Serif" font-size="10.00">gauri/core/key_codes.h</text>
</a>
</g>
</g>
<!-- Node1&#45;&gt;Node21 -->
<g id="edge35" class="edge">
<title>Node1&#45;&gt;Node21</title>
<path fill="none" stroke="midnightblue" d="M988.21,-448.48C1078,-439.7 1221.46,-425.41 1345.36,-412 1346.48,-411.88 1347.61,-411.76 1348.74,-411.63"/>
<polygon fill="midnightblue" stroke="midnightblue" points="1349.54,-415.07 1359.1,-410.49 1348.77,-408.11 1349.54,-415.07"/>
</g>
<!-- Node22 -->
<g id="node22" class="node">
<title>Node22</title>
<g id="a_node22"><a xlink:href="mouse__button__codes_8h.html" target="_top" xlink:title=" ">
<polygon fill="white" stroke="black" points="1505.86,-392.5 1505.86,-411.5 1686.86,-411.5 1686.86,-392.5 1505.86,-392.5"/>
<text text-anchor="middle" x="1596.36" y="-399.5" font-family="Helvetica,sans-Serif" font-size="10.00">gauri/core/mouse_button_codes.h</text>
</a>
</g>
</g>
<!-- Node1&#45;&gt;Node22 -->
<g id="edge36" class="edge">
<title>Node1&#45;&gt;Node22</title>
<path fill="none" stroke="midnightblue" d="M1019.7,-448.5C1137.76,-439.97 1323.91,-426.21 1495.63,-412.05"/>
<polygon fill="midnightblue" stroke="midnightblue" points="1495.94,-415.54 1505.62,-411.22 1495.36,-408.56 1495.94,-415.54"/>
</g>
<!-- Node23 -->
<g id="node23" class="node">
<title>Node23</title>
<g id="a_node23"><a xlink:href="render__command_8h.html" target="_top" xlink:title=" ">
<polygon fill="white" stroke="black" points="1224.86,-336.5 1224.86,-355.5 1407.86,-355.5 1407.86,-336.5 1224.86,-336.5"/>
<text text-anchor="middle" x="1316.36" y="-343.5" font-family="Helvetica,sans-Serif" font-size="10.00">gauri/renderer/render_command.h</text>
</a>
</g>
</g>
<!-- Node1&#45;&gt;Node23 -->
<g id="edge38" class="edge">
<title>Node1&#45;&gt;Node23</title>
<path fill="none" stroke="midnightblue" d="M1034.34,-452.76C1125,-447.68 1235.12,-436.52 1274.36,-412 1291.58,-401.24 1303.11,-380.53 1309.66,-365.37"/>
<polygon fill="midnightblue" stroke="midnightblue" points="1312.96,-366.54 1313.41,-355.95 1306.46,-363.95 1312.96,-366.54"/>
</g>
<!-- Node24 -->
<g id="node24" class="node">
<title>Node24</title>
<g id="a_node24"><a xlink:href="renderer__api_8h.html" target="_top" xlink:title=" ">
<polygon fill="white" stroke="black" points="1185.86,-280.5 1185.86,-299.5 1344.86,-299.5 1344.86,-280.5 1185.86,-280.5"/>
<text text-anchor="middle" x="1265.36" y="-287.5" font-family="Helvetica,sans-Serif" font-size="10.00">gauri/renderer/renderer_api.h</text>
</a>
</g>
</g>
<!-- Node1&#45;&gt;Node24 -->
<g id="edge66" class="edge">
<title>Node1&#45;&gt;Node24</title>
<path fill="none" stroke="midnightblue" d="M1034.31,-452.6C1112.27,-447.38 1211.74,-436.14 1297.36,-412 1311.52,-408.01 1409.46,-368.41 1417.36,-356 1437.28,-324.72 1398.36,-308.45 1354.93,-300.02"/>
<polygon fill="midnightblue" stroke="midnightblue" points="1355.48,-296.56 1345.02,-298.24 1354.24,-303.45 1355.48,-296.56"/>
</g>
<!-- Node26 -->
<g id="node26" class="node">
<title>Node26</title>
<g id="a_node26"><a xlink:href="vertex__array_8h.html" target="_top" xlink:title=" ">
<polygon fill="white" stroke="black" points="1079.36,-224.5 1079.36,-243.5 1237.36,-243.5 1237.36,-224.5 1079.36,-224.5"/>
<text text-anchor="middle" x="1158.36" y="-231.5" font-family="Helvetica,sans-Serif" font-size="10.00">gauri/renderer/vertex_array.h</text>
</a>
</g>
</g>
<!-- Node1&#45;&gt;Node26 -->
<g id="edge60" class="edge">
<title>Node1&#45;&gt;Node26</title>
<path fill="none" stroke="midnightblue" d="M959.88,-448.48C1015.28,-437.25 1095.67,-411.9 1139.36,-356 1162.63,-326.23 1162.75,-279.48 1160.65,-253.68"/>
<polygon fill="midnightblue" stroke="midnightblue" points="1164.13,-253.31 1159.63,-243.72 1157.16,-254.02 1164.13,-253.31"/>
</g>
<!-- Node27 -->
<g id="node27" class="node">
<title>Node27</title>
<g id="a_node27"><a xlink:href="buffer_8h.html" target="_top" xlink:title=" ">
<polygon fill="white" stroke="black" points="848.86,-168.5 848.86,-187.5 973.86,-187.5 973.86,-168.5 848.86,-168.5"/>
<text text-anchor="middle" x="911.36" y="-175.5" font-family="Helvetica,sans-Serif" font-size="10.00">gauri/renderer/buffer.h</text>
</a>
</g>
</g>
<!-- Node1&#45;&gt;Node27 -->
<g id="edge55" class="edge">
<title>Node1&#45;&gt;Node27</title>
<path fill="none" stroke="midnightblue" d="M900.36,-448.44C900.36,-429.94 900.36,-384.81 900.36,-347 900.36,-347 900.36,-347 900.36,-289 900.36,-256.79 905.09,-219.53 908.35,-197.69"/>
<polygon fill="midnightblue" stroke="midnightblue" points="911.85,-197.95 909.92,-187.53 904.93,-196.87 911.85,-197.95"/>
</g>
<!-- Node28 -->
<g id="node28" class="node">
<title>Node28</title>
<g id="a_node28"><a xlink:href="renderer_8h.html" target="_top" xlink:title=" ">
<polygon fill="white" stroke="black" points="1127.36,-392.5 1127.36,-411.5 1265.36,-411.5 1265.36,-392.5 1127.36,-392.5"/>
<text text-anchor="middle" x="1196.36" y="-399.5" font-family="Helvetica,sans-Serif" font-size="10.00">gauri/renderer/renderer.h</text>
</a>
</g>
</g>
<!-- Node1&#45;&gt;Node28 -->
<g id="edge47" class="edge">
<title>Node1&#45;&gt;Node28</title>
<path fill="none" stroke="midnightblue" d="M947.26,-448.44C999.44,-438.92 1083.73,-423.55 1139.59,-413.36"/>
<polygon fill="midnightblue" stroke="midnightblue" points="1140.47,-416.75 1149.68,-411.52 1139.21,-409.87 1140.47,-416.75"/>
</g>
<!-- Node29 -->
<g id="node29" class="node">
<title>Node29</title>
<g id="a_node29"><a xlink:href="orthographic__camera_8h.html" target="_top" xlink:title=" ">
<polygon fill="white" stroke="black" points="928.86,-336.5 928.86,-355.5 1129.86,-355.5 1129.86,-336.5 928.86,-336.5"/>
<text text-anchor="middle" x="1029.36" y="-343.5" font-family="Helvetica,sans-Serif" font-size="10.00">gauri/renderer/orthographic_camera.h</text>
</a>
</g>
</g>
<!-- Node1&#45;&gt;Node29 -->
<g id="edge61" class="edge">
<title>Node1&#45;&gt;Node29</title>
<path fill="none" stroke="midnightblue" d="M910.48,-448.37C932.34,-429.73 984.17,-385.53 1011.61,-362.13"/>
<polygon fill="midnightblue" stroke="midnightblue" points="1013.95,-364.74 1019.29,-355.59 1009.41,-359.42 1013.95,-364.74"/>
</g>
<!-- Node30 -->
<g id="node30" class="node">
<title>Node30</title>
<g id="a_node30"><a xlink:href="shader_8h.html" target="_top" xlink:title=" ">
<polygon fill="white" stroke="black" points="742.36,-336.5 742.36,-355.5 872.36,-355.5 872.36,-336.5 742.36,-336.5"/>
<text text-anchor="middle" x="807.36" y="-343.5" font-family="Helvetica,sans-Serif" font-size="10.00">gauri/renderer/shader.h</text>
</a>
</g>
</g>
<!-- Node1&#45;&gt;Node30 -->
<g id="edge56" class="edge">
<title>Node1&#45;&gt;Node30</title>
<path fill="none" stroke="midnightblue" d="M893.06,-448.37C877.58,-430.05 841.22,-387.05 821.2,-363.36"/>
<polygon fill="midnightblue" stroke="midnightblue" points="823.75,-360.97 814.63,-355.59 818.41,-365.49 823.75,-360.97"/>
</g>
<!-- Node31 -->
<g id="node31" class="node">
<title>Node31</title>
<g id="a_node31"><a xlink:href="texture_8h.html" target="_top" xlink:title=" ">
<polygon fill="white" stroke="black" points="620.86,-224.5 620.86,-243.5 753.86,-243.5 753.86,-224.5 620.86,-224.5"/>
<text text-anchor="middle" x="687.36" y="-231.5" font-family="Helvetica,sans-Serif" font-size="10.00">gauri/renderer/texture.h</text>
</a>
</g>
</g>
<!-- Node1&#45;&gt;Node31 -->
<g id="edge57" class="edge">
<title>Node1&#45;&gt;Node31</title>
<path fill="none" stroke="midnightblue" d="M887.95,-448.45C869.25,-435.68 832.61,-411.1 800.36,-392 771.28,-374.77 755.66,-381.4 733.36,-356 707.01,-325.99 695.08,-279.34 690.24,-253.61"/>
<polygon fill="midnightblue" stroke="midnightblue" points="693.68,-252.95 688.54,-243.68 686.78,-254.13 693.68,-252.95"/>
</g>
<!-- Node32 -->
<g id="node32" class="node">
<title>Node32</title>
<g id="a_node32"><a xlink:href="orthographic__camera__controller_8h.html" target="_top" xlink:title=" ">
<polygon fill="white" stroke="black" points="506.36,-392.5 506.36,-411.5 758.36,-411.5 758.36,-392.5 506.36,-392.5"/>
<text text-anchor="middle" x="632.36" y="-399.5" font-family="Helvetica,sans-Serif" font-size="10.00">gauri/renderer/orthographic_camera_controller.h</text>
</a>
</g>
</g>
<!-- Node1&#45;&gt;Node32 -->
<g id="edge62" class="edge">
<title>Node1&#45;&gt;Node32</title>
<path fill="none" stroke="midnightblue" d="M857.9,-448.44C810.95,-438.98 735.29,-423.74 684.71,-413.55"/>
<polygon fill="midnightblue" stroke="midnightblue" points="685.12,-410.06 674.63,-411.52 683.74,-416.92 685.12,-410.06"/>
</g>
<!-- Node33 -->
<g id="node33" class="node">
<title>Node33</title>
<g id="a_node33"><a xlink:href="entry__point_8h.html" target="_top" xlink:title=" ">
<polygon fill="white" stroke="black" points="1704.86,-392.5 1704.86,-411.5 1837.86,-411.5 1837.86,-392.5 1704.86,-392.5"/>
<text text-anchor="middle" x="1771.36" y="-399.5" font-family="Helvetica,sans-Serif" font-size="10.00">gauri/core/entry_point.h</text>
</a>
</g>
</g>
<!-- Node1&#45;&gt;Node33 -->
<g id="edge67" class="edge">
<title>Node1&#45;&gt;Node33</title>
<path fill="none" stroke="midnightblue" d="M1034.21,-451.74C1190.93,-445.15 1458.14,-432.21 1687.36,-412 1689.73,-411.79 1692.14,-411.57 1694.58,-411.33"/>
<polygon fill="midnightblue" stroke="midnightblue" points="1695.12,-414.79 1704.71,-410.29 1694.4,-407.83 1695.12,-414.79"/>
</g>
<!-- Node3 -->
<g id="node3" class="node">
<title>Node3</title>
<g id="a_node3"><a xlink:href="layer__stack_8h.html" target="_top" xlink:title=" ">
<polygon fill="white" stroke="black" points="202.36,-336.5 202.36,-355.5 336.36,-355.5 336.36,-336.5 202.36,-336.5"/>
<text text-anchor="middle" x="269.36" y="-343.5" font-family="Helvetica,sans-Serif" font-size="10.00">gauri/core/layer_stack.h</text>
</a>
</g>
</g>
<!-- Node2&#45;&gt;Node3 -->
<g id="edge2" class="edge">
<title>Node2&#45;&gt;Node3</title>
<path fill="none" stroke="midnightblue" d="M295.24,-392.08C290.95,-384.61 284.7,-373.72 279.42,-364.52"/>
<polygon fill="midnightblue" stroke="midnightblue" points="282.4,-362.68 274.39,-355.75 276.33,-366.17 282.4,-362.68"/>
</g>
<!-- Node2&#45;&gt;Node12 -->
<g id="edge21" class="edge">
<title>Node2&#45;&gt;Node12</title>
<path fill="none" stroke="midnightblue" d="M366.22,-398.93C409.04,-394.75 464.33,-383.79 505.36,-356 530.27,-339.13 534.53,-328.75 543.36,-300 547.98,-284.98 547.28,-267.07 545.68,-253.86"/>
<polygon fill="midnightblue" stroke="midnightblue" points="549.09,-253.02 544.15,-243.65 542.17,-254.06 549.09,-253.02"/>
</g>
<!-- Node13 -->
<g id="node13" class="node">
<title>Node13</title>
<g id="a_node13"><a xlink:href="event_8h.html" target="_top" xlink:title=" ">
<polygon fill="white" stroke="black" points="225.36,-224.5 225.36,-243.5 337.36,-243.5 337.36,-224.5 225.36,-224.5"/>
<text text-anchor="middle" x="281.36" y="-231.5" font-family="Helvetica,sans-Serif" font-size="10.00">gauri/event/event.h</text>
</a>
</g>
</g>
<!-- Node2&#45;&gt;Node13 -->
<g id="edge27" class="edge">
<title>Node2&#45;&gt;Node13</title>
<path fill="none" stroke="midnightblue" d="M249.85,-392.49C228.68,-386.15 206.07,-375.14 193.36,-356 163.47,-311 250,-320.66 266.36,-300 276.8,-286.82 280.22,-267.68 281.23,-253.58"/>
<polygon fill="midnightblue" stroke="midnightblue" points="284.73,-253.69 281.61,-243.57 277.73,-253.43 284.73,-253.69"/>
</g>
<!-- Node18 -->
<g id="node18" class="node">
<title>Node18</title>
<g id="a_node18"><a xlink:href="window_8h.html" target="_top" xlink:title=" ">
<polygon fill="white" stroke="black" points="143.36,-280.5 143.36,-299.5 257.36,-299.5 257.36,-280.5 143.36,-280.5"/>
<text text-anchor="middle" x="200.36" y="-287.5" font-family="Helvetica,sans-Serif" font-size="10.00">gauri/core/window.h</text>
</a>
</g>
</g>
<!-- Node2&#45;&gt;Node18 -->
<g id="edge22" class="edge">
<title>Node2&#45;&gt;Node18</title>
<path fill="none" stroke="midnightblue" d="M234.75,-396.53C207.14,-391.02 177.51,-379.52 160.36,-356 148.4,-339.59 165.1,-319.53 180.43,-306.07"/>
<polygon fill="midnightblue" stroke="midnightblue" points="182.68,-308.75 188.16,-299.69 178.22,-303.35 182.68,-308.75"/>
</g>
<!-- Node2&#45;&gt;Node19 -->
<g id="edge28" class="edge">
<title>Node2&#45;&gt;Node19</title>
<path fill="none" stroke="midnightblue" d="M320.17,-392.44C340.65,-383.6 372.84,-369.69 396.23,-359.59"/>
<polygon fill="midnightblue" stroke="midnightblue" points="397.86,-362.7 405.65,-355.52 395.08,-356.27 397.86,-362.7"/>
</g>
<!-- Node4 -->
<g id="node4" class="node">
<title>Node4</title>
<g id="a_node4"><a xlink:href="core_8h.html" target="_top" xlink:title=" ">
<polygon fill="white" stroke="black" points="472.36,-112.5 472.36,-131.5 570.36,-131.5 570.36,-112.5 472.36,-112.5"/>
<text text-anchor="middle" x="521.36" y="-119.5" font-family="Helvetica,sans-Serif" font-size="10.00">gauri/core/core.h</text>
</a>
</g>
</g>
<!-- Node3&#45;&gt;Node4 -->
<g id="edge3" class="edge">
<title>Node3&#45;&gt;Node4</title>
<path fill="none" stroke="midnightblue" d="M297.32,-336.4C318.68,-328.96 348.13,-316.74 370.36,-300 431.6,-253.89 431.23,-225.98 481.36,-168 489.67,-158.39 499.1,-147.77 506.72,-139.26"/>
<polygon fill="midnightblue" stroke="midnightblue" points="509.55,-141.34 513.62,-131.56 504.34,-136.67 509.55,-141.34"/>
</g>
<!-- Node3&#45;&gt;Node11 -->
<g id="edge11" class="edge">
<title>Node3&#45;&gt;Node11</title>
<path fill="none" stroke="midnightblue" d="M303.27,-336.44C340.21,-327.12 399.42,-312.18 439.78,-302"/>
<polygon fill="midnightblue" stroke="midnightblue" points="440.77,-305.36 449.61,-299.52 439.06,-298.57 440.77,-305.36"/>
</g>
<!-- Node17 -->
<g id="node17" class="node">
<title>Node17</title>
<g id="a_node17"><a xlink:title=" ">
<polygon fill="white" stroke="#bfbfbf" points="313.86,-280.5 313.86,-299.5 360.86,-299.5 360.86,-280.5 313.86,-280.5"/>
<text text-anchor="middle" x="337.36" y="-287.5" font-family="Helvetica,sans-Serif" font-size="10.00">vector</text>
</a>
</g>
</g>
<!-- Node3&#45;&gt;Node17 -->
<g id="edge20" class="edge">
<title>Node3&#45;&gt;Node17</title>
<path fill="none" stroke="midnightblue" d="M280.29,-336.32C290.54,-328.18 306.08,-315.84 318.36,-306.09"/>
<polygon fill="midnightblue" stroke="midnightblue" points="320.58,-308.79 326.24,-299.83 316.23,-303.31 320.58,-308.79"/>
</g>
<!-- Node5 -->
<g id="node5" class="node">
<title>Node5</title>
<g id="a_node5"><a xlink:title=" ">
<polygon fill="white" stroke="#bfbfbf" points="178.36,-56.5 178.36,-75.5 228.36,-75.5 228.36,-56.5 178.36,-56.5"/>
<text text-anchor="middle" x="203.36" y="-63.5" font-family="Helvetica,sans-Serif" font-size="10.00">cstdint</text>
</a>
</g>
</g>
<!-- Node4&#45;&gt;Node5 -->
<g id="edge4" class="edge">
<title>Node4&#45;&gt;Node5</title>
<path fill="none" stroke="midnightblue" d="M472.02,-112.62C407.32,-101.63 295.36,-82.62 238.58,-72.98"/>
<polygon fill="midnightblue" stroke="midnightblue" points="239.09,-69.52 228.64,-71.29 237.91,-76.42 239.09,-69.52"/>
</g>
<!-- Node6 -->
<g id="node6" class="node">
<title>Node6</title>
<g id="a_node6"><a xlink:title=" ">
<polygon fill="white" stroke="#bfbfbf" points="880.36,-0.5 880.36,-19.5 938.36,-19.5 938.36,-0.5 880.36,-0.5"/>
<text text-anchor="middle" x="909.36" y="-7.5" font-family="Helvetica,sans-Serif" font-size="10.00">memory</text>
</a>
</g>
</g>
<!-- Node4&#45;&gt;Node6 -->
<g id="edge5" class="edge">
<title>Node4&#45;&gt;Node6</title>
<path fill="none" stroke="midnightblue" d="M551.48,-112.46C621.09,-92.73 793.06,-43.97 870.48,-22.02"/>
<polygon fill="midnightblue" stroke="midnightblue" points="871.65,-25.33 880.32,-19.23 869.74,-18.59 871.65,-25.33"/>
</g>
<!-- Node4&#45;&gt;Node7 -->
<g id="edge6" class="edge">
<title>Node4&#45;&gt;Node7</title>
<path fill="none" stroke="midnightblue" d="M533.73,-112.32C545.52,-104.06 563.49,-91.45 577.5,-81.63"/>
<polygon fill="midnightblue" stroke="midnightblue" points="579.84,-84.26 586.02,-75.65 575.82,-78.53 579.84,-84.26"/>
</g>
<!-- Node7&#45;&gt;Node6 -->
<g id="edge8" class="edge">
<title>Node7&#45;&gt;Node6</title>
<path fill="none" stroke="midnightblue" d="M647.64,-56.44C709.23,-45.75 813.42,-27.66 869.98,-17.84"/>
<polygon fill="midnightblue" stroke="midnightblue" points="870.71,-21.26 879.97,-16.1 869.51,-14.37 870.71,-21.26"/>
</g>
<!-- Node8 -->
<g id="node8" class="node">
<title>Node8</title>
<g id="a_node8"><a xlink:title=" ">
<polygon fill="white" stroke="#bfbfbf" points="663.36,-0.5 663.36,-19.5 713.36,-19.5 713.36,-0.5 663.36,-0.5"/>
<text text-anchor="middle" x="688.36" y="-7.5" font-family="Helvetica,sans-Serif" font-size="10.00">format</text>
</a>
</g>
</g>
<!-- Node7&#45;&gt;Node8 -->
<g id="edge7" class="edge">
<title>Node7&#45;&gt;Node8</title>
<path fill="none" stroke="midnightblue" d="M612.82,-56.32C626.86,-47.9 648.41,-34.97 664.9,-25.07"/>
<polygon fill="midnightblue" stroke="midnightblue" points="667.16,-27.8 673.94,-19.65 663.56,-21.8 667.16,-27.8"/>
</g>
<!-- Node9 -->
<g id="node9" class="node">
<title>Node9</title>
<g id="a_node9"><a xlink:title=" ">
<polygon fill="white" stroke="#bfbfbf" points="434.86,-0.5 434.86,-19.5 533.86,-19.5 533.86,-0.5 434.86,-0.5"/>
<text text-anchor="middle" x="484.36" y="-7.5" font-family="Helvetica,sans-Serif" font-size="10.00">spdlog/fmt/ostr.h</text>
</a>
</g>
</g>
<!-- Node7&#45;&gt;Node9 -->
<g id="edge9" class="edge">
<title>Node7&#45;&gt;Node9</title>
<path fill="none" stroke="midnightblue" d="M580.3,-56.44C561.79,-47.68 532.78,-33.94 511.51,-23.86"/>
<polygon fill="midnightblue" stroke="midnightblue" points="512.88,-20.63 502.34,-19.52 509.88,-26.96 512.88,-20.63"/>
</g>
<!-- Node10 -->
<g id="node10" class="node">
<title>Node10</title>
<g id="a_node10"><a xlink:title=" ">
<polygon fill="white" stroke="#bfbfbf" points="551.86,-0.5 551.86,-19.5 644.86,-19.5 644.86,-0.5 551.86,-0.5"/>
<text text-anchor="middle" x="598.36" y="-7.5" font-family="Helvetica,sans-Serif" font-size="10.00">spdlog/spdlog.h</text>
</a>
</g>
</g>
<!-- Node7&#45;&gt;Node10 -->
<g id="edge10" class="edge">
<title>Node7&#45;&gt;Node10</title>
<path fill="none" stroke="midnightblue" d="M598.36,-56.08C598.36,-49.01 598.36,-38.86 598.36,-29.99"/>
<polygon fill="midnightblue" stroke="midnightblue" points="601.86,-29.75 598.36,-19.75 594.86,-29.75 601.86,-29.75"/>
</g>
<!-- Node11&#45;&gt;Node4 -->
<g id="edge12" class="edge">
<title>Node11&#45;&gt;Node4</title>
<path fill="none" stroke="midnightblue" d="M479.9,-280.1C475.47,-267.51 468.89,-243.83 473.36,-224 480.41,-192.73 498.34,-159.78 510.17,-140.33"/>
<polygon fill="midnightblue" stroke="midnightblue" points="513.24,-142.03 515.57,-131.7 507.3,-138.32 513.24,-142.03"/>
</g>
<!-- Node11&#45;&gt;Node12 -->
<g id="edge13" class="edge">
<title>Node11&#45;&gt;Node12</title>
<path fill="none" stroke="midnightblue" d="M492.84,-280.32C501.56,-272.34 514.71,-260.31 525.26,-250.65"/>
<polygon fill="midnightblue" stroke="midnightblue" points="527.7,-253.17 532.71,-243.83 522.97,-248 527.7,-253.17"/>
</g>
<!-- Node11&#45;&gt;Node13 -->
<g id="edge14" class="edge">
<title>Node11&#45;&gt;Node13</title>
<path fill="none" stroke="midnightblue" d="M451.35,-280.44C416.63,-271.16 361.07,-256.31 322.98,-246.13"/>
<polygon fill="midnightblue" stroke="midnightblue" points="323.78,-242.72 313.22,-243.52 321.98,-249.48 323.78,-242.72"/>
</g>
<!-- Node13&#45;&gt;Node4 -->
<g id="edge19" class="edge">
<title>Node13&#45;&gt;Node4</title>
<path fill="none" stroke="midnightblue" d="M285.94,-224.31C293.85,-210.2 311.44,-182.42 334.36,-168 372.89,-143.76 423.41,-132.58 462.23,-127.42"/>
<polygon fill="midnightblue" stroke="midnightblue" points="462.84,-130.87 472.34,-126.17 461.98,-123.92 462.84,-130.87"/>
</g>
<!-- Node13&#45;&gt;Node5 -->
<g id="edge15" class="edge">
<title>Node13&#45;&gt;Node5</title>
<path fill="none" stroke="midnightblue" d="M263.93,-224.48C250.32,-216.86 232.12,-204.38 222.36,-188 203.28,-155.99 201.42,-111.1 202.15,-85.97"/>
<polygon fill="midnightblue" stroke="midnightblue" points="205.66,-85.8 202.63,-75.64 198.66,-85.47 205.66,-85.8"/>
</g>
<!-- Node14 -->
<g id="node14" class="node">
<title>Node14</title>
<g id="a_node14"><a xlink:title=" ">
<polygon fill="white" stroke="#bfbfbf" points="109.86,-168.5 109.86,-187.5 174.86,-187.5 174.86,-168.5 109.86,-168.5"/>
<text text-anchor="middle" x="142.36" y="-175.5" font-family="Helvetica,sans-Serif" font-size="10.00">functional</text>
</a>
</g>
</g>
<!-- Node13&#45;&gt;Node14 -->
<g id="edge16" class="edge">
<title>Node13&#45;&gt;Node14</title>
<path fill="none" stroke="midnightblue" d="M259.34,-224.44C236.26,-215.48 199.8,-201.31 173.72,-191.18"/>
<polygon fill="midnightblue" stroke="midnightblue" points="174.87,-187.88 164.28,-187.52 172.34,-194.4 174.87,-187.88"/>
</g>
<!-- Node15 -->
<g id="node15" class="node">
<title>Node15</title>
<g id="a_node15"><a xlink:title=" ">
<polygon fill="white" stroke="#bfbfbf" points="231.36,-168.5 231.36,-187.5 287.36,-187.5 287.36,-168.5 231.36,-168.5"/>
<text text-anchor="middle" x="259.36" y="-175.5" font-family="Helvetica,sans-Serif" font-size="10.00">sstream</text>
</a>
</g>
</g>
<!-- Node13&#45;&gt;Node15 -->
<g id="edge17" class="edge">
<title>Node13&#45;&gt;Node15</title>
<path fill="none" stroke="midnightblue" d="M277.73,-224.08C274.75,-216.77 270.44,-206.18 266.74,-197.1"/>
<polygon fill="midnightblue" stroke="midnightblue" points="269.94,-195.69 262.93,-187.75 263.46,-198.33 269.94,-195.69"/>
</g>
<!-- Node16 -->
<g id="node16" class="node">
<title>Node16</title>
<g id="a_node16"><a xlink:title=" ">
<polygon fill="white" stroke="#bfbfbf" points="343.36,-168.5 343.36,-187.5 387.36,-187.5 387.36,-168.5 343.36,-168.5"/>
<text text-anchor="middle" x="365.36" y="-175.5" font-family="Helvetica,sans-Serif" font-size="10.00">string</text>
</a>
</g>
</g>
<!-- Node13&#45;&gt;Node16 -->
<g id="edge18" class="edge">
<title>Node13&#45;&gt;Node16</title>
<path fill="none" stroke="midnightblue" d="M294.86,-224.32C307.96,-215.9 328.07,-202.97 343.47,-193.07"/>
<polygon fill="midnightblue" stroke="midnightblue" points="345.38,-196.01 351.9,-187.65 341.59,-190.12 345.38,-196.01"/>
</g>
<!-- Node18&#45;&gt;Node5 -->
<g id="edge23" class="edge">
<title>Node18&#45;&gt;Node5</title>
<path fill="none" stroke="midnightblue" d="M183.48,-280.41C150.15,-262.17 80.83,-217.22 101.36,-168 117.34,-129.69 155.7,-98.48 180.56,-81.35"/>
<polygon fill="midnightblue" stroke="midnightblue" points="182.66,-84.15 189.04,-75.68 178.78,-78.33 182.66,-84.15"/>
</g>
<!-- Node18&#45;&gt;Node13 -->
<g id="edge26" class="edge">
<title>Node18&#45;&gt;Node13</title>
<path fill="none" stroke="midnightblue" d="M213.38,-280.32C225.89,-271.98 245.04,-259.21 259.83,-249.35"/>
<polygon fill="midnightblue" stroke="midnightblue" points="262,-252.11 268.38,-243.65 258.12,-246.29 262,-252.11"/>
</g>
<!-- Node18&#45;&gt;Node14 -->
<g id="edge24" class="edge">
<title>Node18&#45;&gt;Node14</title>
<path fill="none" stroke="midnightblue" d="M195.81,-280.37C186.32,-262.38 164.27,-220.55 151.66,-196.63"/>
<polygon fill="midnightblue" stroke="midnightblue" points="154.65,-194.8 146.89,-187.59 148.46,-198.07 154.65,-194.8"/>
</g>
<!-- Node18&#45;&gt;Node16 -->
<g id="edge25" class="edge">
<title>Node18&#45;&gt;Node16</title>
<path fill="none" stroke="midnightblue" d="M257.65,-284.26C287.73,-278.9 323.09,-267.61 346.36,-244 358.34,-231.84 362.85,-212.57 364.5,-198.16"/>
<polygon fill="midnightblue" stroke="midnightblue" points="368.01,-198.12 365.3,-187.88 361.03,-197.57 368.01,-198.12"/>
</g>
<!-- Node19&#45;&gt;Node11 -->
<g id="edge29" class="edge">
<title>Node19&#45;&gt;Node11</title>
<path fill="none" stroke="midnightblue" d="M434.68,-336.32C443.25,-328.34 456.17,-316.31 466.55,-306.65"/>
<polygon fill="midnightblue" stroke="midnightblue" points="468.94,-309.21 473.87,-299.83 464.17,-304.09 468.94,-309.21"/>
</g>
<!-- Node20&#45;&gt;Node4 -->
<g id="edge34" class="edge">
<title>Node20&#45;&gt;Node4</title>
<path fill="none" stroke="midnightblue" d="M73.26,-280.34C70.96,-257.89 68.29,-197.53 101.36,-168 127.72,-144.46 352.56,-130.85 462,-125.57"/>
<polygon fill="midnightblue" stroke="midnightblue" points="462.39,-129.06 472.22,-125.08 462.06,-122.06 462.39,-129.06"/>
</g>
<!-- Node23&#45;&gt;Node24 -->
<g id="edge39" class="edge">
<title>Node23&#45;&gt;Node24</title>
<path fill="none" stroke="midnightblue" d="M1307.94,-336.08C1300.51,-328.22 1289.51,-316.57 1280.55,-307.08"/>
<polygon fill="midnightblue" stroke="midnightblue" points="1283.04,-304.62 1273.63,-299.75 1277.95,-309.42 1283.04,-304.62"/>
</g>
<!-- Node24&#45;&gt;Node6 -->
<g id="edge41" class="edge">
<title>Node24&#45;&gt;Node6</title>
<path fill="none" stroke="midnightblue" d="M1265.36,-280.44C1265.36,-261.94 1265.36,-216.81 1265.36,-179 1265.36,-179 1265.36,-179 1265.36,-121 1265.36,-55.29 1041.13,-24.59 948.59,-14.72"/>
<polygon fill="midnightblue" stroke="midnightblue" points="948.8,-11.23 938.49,-13.68 948.08,-18.19 948.8,-11.23"/>
</g>
<!-- Node25 -->
<g id="node25" class="node">
<title>Node25</title>
<g id="a_node25"><a xlink:title=" ">
<polygon fill="white" stroke="#bfbfbf" points="983.36,-224.5 983.36,-243.5 1061.36,-243.5 1061.36,-224.5 983.36,-224.5"/>
<text text-anchor="middle" x="1022.36" y="-231.5" font-family="Helvetica,sans-Serif" font-size="10.00">glm/glm.hpp</text>
</a>
</g>
</g>
<!-- Node24&#45;&gt;Node25 -->
<g id="edge40" class="edge">
<title>Node24&#45;&gt;Node25</title>
<path fill="none" stroke="midnightblue" d="M1226.86,-280.44C1184.56,-271.04 1116.54,-255.93 1070.69,-245.74"/>
<polygon fill="midnightblue" stroke="midnightblue" points="1071.21,-242.27 1060.69,-243.52 1069.69,-249.1 1071.21,-242.27"/>
</g>
<!-- Node24&#45;&gt;Node26 -->
<g id="edge42" class="edge">
<title>Node24&#45;&gt;Node26</title>
<path fill="none" stroke="midnightblue" d="M1248.17,-280.32C1231.01,-271.66 1204.42,-258.24 1184.61,-248.25"/>
<polygon fill="midnightblue" stroke="midnightblue" points="1186.02,-245.04 1175.51,-243.65 1182.86,-251.28 1186.02,-245.04"/>
</g>
<!-- Node26&#45;&gt;Node6 -->
<g id="edge43" class="edge">
<title>Node26&#45;&gt;Node6</title>
<path fill="none" stroke="midnightblue" d="M1148.6,-224.3C1110.95,-190.73 974.84,-69.38 926.52,-26.3"/>
<polygon fill="midnightblue" stroke="midnightblue" points="928.85,-23.68 919.06,-19.64 924.19,-28.91 928.85,-23.68"/>
</g>
<!-- Node26&#45;&gt;Node27 -->
<g id="edge44" class="edge">
<title>Node26&#45;&gt;Node27</title>
<path fill="none" stroke="midnightblue" d="M1119.22,-224.44C1076.14,-215.02 1006.8,-199.87 960.19,-189.68"/>
<polygon fill="midnightblue" stroke="midnightblue" points="960.83,-186.23 950.32,-187.52 959.34,-193.07 960.83,-186.23"/>
</g>
<!-- Node27&#45;&gt;Node4 -->
<g id="edge45" class="edge">
<title>Node27&#45;&gt;Node4</title>
<path fill="none" stroke="midnightblue" d="M849.57,-168.44C775.87,-158.24 653.55,-141.3 580.87,-131.24"/>
<polygon fill="midnightblue" stroke="midnightblue" points="580.91,-127.71 570.52,-129.81 579.95,-134.65 580.91,-127.71"/>
</g>
<!-- Node27&#45;&gt;Node7 -->
<g id="edge46" class="edge">
<title>Node27&#45;&gt;Node7</title>
<path fill="none" stroke="midnightblue" d="M887.06,-168.46C831.71,-149.01 696.12,-101.36 632.44,-78.98"/>
<polygon fill="midnightblue" stroke="midnightblue" points="633.46,-75.62 622.86,-75.61 631.14,-82.23 633.46,-75.62"/>
</g>
<!-- Node28&#45;&gt;Node23 -->
<g id="edge50" class="edge">
<title>Node28&#45;&gt;Node23</title>
<path fill="none" stroke="midnightblue" d="M1215.38,-392.44C1234.95,-383.64 1265.67,-369.81 1288.09,-359.72"/>
<polygon fill="midnightblue" stroke="midnightblue" points="1289.75,-362.81 1297.44,-355.52 1286.88,-356.43 1289.75,-362.81"/>
</g>
<!-- Node28&#45;&gt;Node24 -->
<g id="edge51" class="edge">
<title>Node28&#45;&gt;Node24</title>
<path fill="none" stroke="midnightblue" d="M1197.53,-392.4C1199.62,-379.36 1204.89,-354.17 1216.36,-336 1223.71,-324.37 1234.82,-313.82 1244.61,-305.86"/>
<polygon fill="midnightblue" stroke="midnightblue" points="1246.98,-308.46 1252.75,-299.58 1242.69,-302.92 1246.98,-308.46"/>
</g>
<!-- Node28&#45;&gt;Node29 -->
<g id="edge48" class="edge">
<title>Node28&#45;&gt;Node29</title>
<path fill="none" stroke="midnightblue" d="M1169.9,-392.44C1141.68,-383.32 1096.82,-368.81 1065.39,-358.65"/>
<polygon fill="midnightblue" stroke="midnightblue" points="1066.29,-355.26 1055.7,-355.52 1064.14,-361.92 1066.29,-355.26"/>
</g>
<!-- Node28&#45;&gt;Node30 -->
<g id="edge52" class="edge">
<title>Node28&#45;&gt;Node30</title>
<path fill="none" stroke="midnightblue" d="M1134.72,-392.44C1065.16,-382.79 952.15,-367.1 878.79,-356.92"/>
<polygon fill="midnightblue" stroke="midnightblue" points="879.1,-353.42 868.71,-355.52 878.14,-360.36 879.1,-353.42"/>
</g>
<!-- Node29&#45;&gt;Node25 -->
<g id="edge49" class="edge">
<title>Node29&#45;&gt;Node25</title>
<path fill="none" stroke="midnightblue" d="M1028.81,-336.37C1027.68,-318.62 1025.08,-277.67 1023.55,-253.6"/>
<polygon fill="midnightblue" stroke="midnightblue" points="1027.04,-253.35 1022.91,-243.59 1020.05,-253.79 1027.04,-253.35"/>
</g>
<!-- Node30&#45;&gt;Node4 -->
<g id="edge54" class="edge">
<title>Node30&#45;&gt;Node4</title>
<path fill="none" stroke="midnightblue" d="M808.76,-336.2C811.76,-313.96 816.21,-255.05 785.36,-224 729.7,-167.97 639.69,-142.47 580.51,-131.26"/>
<polygon fill="midnightblue" stroke="midnightblue" points="581.03,-127.8 570.56,-129.45 579.78,-134.68 581.03,-127.8"/>
</g>
<!-- Node30&#45;&gt;Node16 -->
<g id="edge53" class="edge">
<title>Node30&#45;&gt;Node16</title>
<path fill="none" stroke="midnightblue" d="M807.12,-336.22C805.98,-313.48 799.53,-252.5 763.36,-224 706.86,-179.48 481.71,-177.53 397.43,-178.42"/>
<polygon fill="midnightblue" stroke="midnightblue" points="397.37,-174.92 387.41,-178.54 397.46,-181.92 397.37,-174.92"/>
</g>
<!-- Node31&#45;&gt;Node4 -->
<g id="edge59" class="edge">
<title>Node31&#45;&gt;Node4</title>
<path fill="none" stroke="midnightblue" d="M674.34,-224.37C645.85,-205.49 577.78,-160.38 542.85,-137.24"/>
<polygon fill="midnightblue" stroke="midnightblue" points="544.6,-134.2 534.33,-131.59 540.73,-140.03 544.6,-134.2"/>
</g>
<!-- Node31&#45;&gt;Node16 -->
<g id="edge58" class="edge">
<title>Node31&#45;&gt;Node16</title>
<path fill="none" stroke="midnightblue" d="M636.34,-224.44C569.37,-213.21 453.76,-193.82 397.71,-184.42"/>
<polygon fill="midnightblue" stroke="midnightblue" points="398.08,-180.94 387.64,-182.74 396.92,-187.84 398.08,-180.94"/>
</g>
<!-- Node32&#45;&gt;Node12 -->
<g id="edge63" class="edge">
<title>Node32&#45;&gt;Node12</title>
<path fill="none" stroke="midnightblue" d="M633.4,-392.23C635.46,-371.02 637.99,-316.06 614.36,-280 605.02,-265.74 589.42,-255.18 575.13,-247.89"/>
<polygon fill="midnightblue" stroke="midnightblue" points="576.54,-244.68 566,-243.56 573.54,-251.01 576.54,-244.68"/>
</g>
<!-- Node32&#45;&gt;Node13 -->
<g id="edge64" class="edge">
<title>Node32&#45;&gt;Node13</title>
<path fill="none" stroke="midnightblue" d="M628.73,-392.19C618.84,-369.38 589.06,-308.23 543.36,-280 511.38,-260.25 414.03,-247.41 347.44,-240.69"/>
<polygon fill="midnightblue" stroke="midnightblue" points="347.73,-237.2 337.44,-239.7 347.05,-244.17 347.73,-237.2"/>
</g>
<!-- Node32&#45;&gt;Node29 -->
<g id="edge65" class="edge">
<title>Node32&#45;&gt;Node29</title>
<path fill="none" stroke="midnightblue" d="M695.27,-392.44C766.27,-382.79 881.59,-367.1 956.46,-356.92"/>
<polygon fill="midnightblue" stroke="midnightblue" points="957.31,-360.33 966.75,-355.52 956.37,-353.4 957.31,-360.33"/>
</g>
<!-- Node33&#45;&gt;Node1 -->
<g id="edge68" class="edge">
<title>Node33&#45;&gt;Node1</title>
<path fill="none" stroke="midnightblue" d="M1710.51,-411.53C1708.78,-411.69 1707.06,-411.85 1705.36,-412 1474.82,-432.33 1205.86,-445.3 1044.51,-451.85"/>
<polygon fill="midnightblue" stroke="midnightblue" points="1043.89,-448.37 1034.04,-452.27 1044.17,-455.37 1043.89,-448.37"/>
</g>
</g>
</svg>
