<?xml version="1.0" encoding="UTF-8" standalone="no"?>
<!DOCTYPE svg PUBLIC "-//W3C//DTD SVG 1.1//EN"
 "http://www.w3.org/Graphics/SVG/1.1/DTD/svg11.dtd">
<!-- Generated by graphviz version 2.43.0 (0)
 -->
<!-- Title: /home/runner/work/gauri/gauri/gauri/include/gauri.h Pages: 1 -->
<svg width="2220pt" height="476pt"
 viewBox="0.00 0.00 2219.50 476.00" xmlns="http://www.w3.org/2000/svg" xmlns:xlink="http://www.w3.org/1999/xlink">
<g id="graph0" class="graph" transform="scale(1 1) rotate(0) translate(4 472)">
<title>/home/runner/work/gauri/gauri/gauri/include/gauri.h</title>
<polygon fill="white" stroke="transparent" points="-4,4 -4,-472 2215.5,-472 2215.5,4 -4,4"/>
<!-- Node1 -->
<g id="node1" class="node">
<title>Node1</title>
<g id="a_node1"><a xlink:title=" ">
<polygon fill="#bfbfbf" stroke="black" points="926.5,-448.5 926.5,-467.5 1193.5,-467.5 1193.5,-448.5 926.5,-448.5"/>
<text text-anchor="middle" x="1060" y="-455.5" font-family="Helvetica,sans-Serif" font-size="10.00">/home/runner/work/gauri/gauri/gauri/include/gauri.h</text>
</a>
</g>
</g>
<!-- Node2 -->
<g id="node2" class="node">
<title>Node2</title>
<g id="a_node2"><a xlink:href="application_8h.html" target="_top" xlink:title=" ">
<polygon fill="white" stroke="black" points="350.5,-392.5 350.5,-411.5 481.5,-411.5 481.5,-392.5 350.5,-392.5"/>
<text text-anchor="middle" x="416" y="-399.5" font-family="Helvetica,sans-Serif" font-size="10.00">gauri/core/application.h</text>
</a>
</g>
</g>
<!-- Node1&#45;&gt;Node2 -->
<g id="edge1" class="edge">
<title>Node1&#45;&gt;Node2</title>
<path fill="none" stroke="midnightblue" d="M958.31,-448.47C828.77,-437.61 607.85,-419.09 492,-409.37"/>
<polygon fill="midnightblue" stroke="midnightblue" points="492.06,-405.87 481.8,-408.52 491.48,-412.84 492.06,-405.87"/>
</g>
<!-- Node7 -->
<g id="node7" class="node">
<title>Node7</title>
<g id="a_node7"><a xlink:href="logger_8h.html" target="_top" xlink:title=" ">
<polygon fill="white" stroke="black" points="727.5,-56.5 727.5,-75.5 834.5,-75.5 834.5,-56.5 727.5,-56.5"/>
<text text-anchor="middle" x="781" y="-63.5" font-family="Helvetica,sans-Serif" font-size="10.00">gauri/core/logger.h</text>
</a>
</g>
</g>
<!-- Node1&#45;&gt;Node7 -->
<g id="edge31" class="edge">
<title>Node1&#45;&gt;Node7</title>
<path fill="none" stroke="midnightblue" d="M926.39,-454.7C680.54,-449.87 174.52,-437.04 98,-412 48.33,-395.75 0,-399.27 0,-347 0,-347 0,-347 0,-177 0,-140.88 530.62,-89.57 717.12,-72.65"/>
<polygon fill="midnightblue" stroke="midnightblue" points="717.67,-76.12 727.32,-71.73 717.04,-69.14 717.67,-76.12"/>
</g>
<!-- Node11 -->
<g id="node11" class="node">
<title>Node11</title>
<g id="a_node11"><a xlink:href="layer_8h.html" target="_top" xlink:title=" ">
<polygon fill="white" stroke="black" points="142.5,-280.5 142.5,-299.5 243.5,-299.5 243.5,-280.5 142.5,-280.5"/>
<text text-anchor="middle" x="193" y="-287.5" font-family="Helvetica,sans-Serif" font-size="10.00">gauri/core/layer.h</text>
</a>
</g>
</g>
<!-- Node1&#45;&gt;Node11 -->
<g id="edge30" class="edge">
<title>Node1&#45;&gt;Node11</title>
<path fill="none" stroke="midnightblue" d="M926.15,-453.39C735.01,-447.54 393.55,-434.34 272,-412 190.85,-397.09 143.76,-422.56 95,-356 76.94,-331.34 113.52,-313.29 147.01,-302.56"/>
<polygon fill="midnightblue" stroke="midnightblue" points="148.23,-305.84 156.79,-299.59 146.2,-299.15 148.23,-305.84"/>
</g>
<!-- Node12 -->
<g id="node12" class="node">
<title>Node12</title>
<g id="a_node12"><a xlink:href="timestep_8h.html" target="_top" xlink:title=" ">
<polygon fill="white" stroke="black" points="216.5,-224.5 216.5,-243.5 337.5,-243.5 337.5,-224.5 216.5,-224.5"/>
<text text-anchor="middle" x="277" y="-231.5" font-family="Helvetica,sans-Serif" font-size="10.00">gauri/core/timestep.h</text>
</a>
</g>
</g>
<!-- Node1&#45;&gt;Node12 -->
<g id="edge38" class="edge">
<title>Node1&#45;&gt;Node12</title>
<path fill="none" stroke="midnightblue" d="M926.06,-456.55C685.96,-454.84 200.81,-447.05 132,-412 97.02,-394.18 73.77,-372.96 87,-336 97.86,-305.68 106.29,-298 133,-280 157.66,-263.38 188.78,-252.65 215.77,-245.85"/>
<polygon fill="midnightblue" stroke="midnightblue" points="216.6,-249.25 225.51,-243.52 214.97,-242.45 216.6,-249.25"/>
</g>
<!-- Node19 -->
<g id="node19" class="node">
<title>Node19</title>
<g id="a_node19"><a xlink:href="imgui__layer_8h.html" target="_top" xlink:title=" ">
<polygon fill="white" stroke="black" points="104.5,-336.5 104.5,-355.5 245.5,-355.5 245.5,-336.5 104.5,-336.5"/>
<text text-anchor="middle" x="175" y="-343.5" font-family="Helvetica,sans-Serif" font-size="10.00">gauri/imgui/imgui_layer.h</text>
</a>
</g>
</g>
<!-- Node1&#45;&gt;Node19 -->
<g id="edge43" class="edge">
<title>Node1&#45;&gt;Node19</title>
<path fill="none" stroke="midnightblue" d="M926.23,-453.58C749.71,-448.21 448.77,-435.86 341,-412 289.52,-400.6 233.03,-375.59 201.01,-360.13"/>
<polygon fill="midnightblue" stroke="midnightblue" points="202.41,-356.91 191.89,-355.66 199.33,-363.2 202.41,-356.91"/>
</g>
<!-- Node20 -->
<g id="node20" class="node">
<title>Node20</title>
<g id="a_node20"><a xlink:href="instrumentor_8h.html" target="_top" xlink:title=" ">
<polygon fill="white" stroke="black" points="1199.5,-392.5 1199.5,-411.5 1348.5,-411.5 1348.5,-392.5 1199.5,-392.5"/>
<text text-anchor="middle" x="1274" y="-399.5" font-family="Helvetica,sans-Serif" font-size="10.00">gauri/debug/instrumentor.h</text>
</a>
</g>
</g>
<!-- Node1&#45;&gt;Node20 -->
<g id="edge32" class="edge">
<title>Node1&#45;&gt;Node20</title>
<path fill="none" stroke="midnightblue" d="M1093.91,-448.44C1130.85,-439.12 1190.05,-424.18 1230.42,-414"/>
<polygon fill="midnightblue" stroke="midnightblue" points="1231.41,-417.36 1240.25,-411.52 1229.7,-410.57 1231.41,-417.36"/>
</g>
<!-- Node25 -->
<g id="node25" class="node">
<title>Node25</title>
<g id="a_node25"><a xlink:href="input_8h.html" target="_top" xlink:title=" ">
<polygon fill="white" stroke="black" points="651,-168.5 651,-187.5 753,-187.5 753,-168.5 651,-168.5"/>
<text text-anchor="middle" x="702" y="-175.5" font-family="Helvetica,sans-Serif" font-size="10.00">gauri/core/input.h</text>
</a>
</g>
</g>
<!-- Node1&#45;&gt;Node25 -->
<g id="edge39" class="edge">
<title>Node1&#45;&gt;Node25</title>
<path fill="none" stroke="midnightblue" d="M1031.6,-448.45C1005.15,-440.17 964.81,-426.73 931,-412 887.81,-393.18 779.66,-337.39 751,-300 726.73,-268.33 712.67,-223 706.25,-197.77"/>
<polygon fill="midnightblue" stroke="midnightblue" points="709.57,-196.62 703.83,-187.72 702.77,-198.26 709.57,-196.62"/>
</g>
<!-- Node26 -->
<g id="node26" class="node">
<title>Node26</title>
<g id="a_node26"><a xlink:href="key__codes_8h.html" target="_top" xlink:title=" ">
<polygon fill="white" stroke="black" points="1884,-392.5 1884,-411.5 2012,-411.5 2012,-392.5 1884,-392.5"/>
<text text-anchor="middle" x="1948" y="-399.5" font-family="Helvetica,sans-Serif" font-size="10.00">gauri/core/key_codes.h</text>
</a>
</g>
</g>
<!-- Node1&#45;&gt;Node26 -->
<g id="edge41" class="edge">
<title>Node1&#45;&gt;Node26</title>
<path fill="none" stroke="midnightblue" d="M1193.82,-452C1354.57,-445.43 1632.31,-432.3 1870,-412 1871.12,-411.9 1872.25,-411.81 1873.39,-411.7"/>
<polygon fill="midnightblue" stroke="midnightblue" points="1874.13,-415.15 1883.76,-410.72 1873.47,-408.18 1874.13,-415.15"/>
</g>
<!-- Node27 -->
<g id="node27" class="node">
<title>Node27</title>
<g id="a_node27"><a xlink:href="mouse__button__codes_8h.html" target="_top" xlink:title=" ">
<polygon fill="white" stroke="black" points="2030.5,-392.5 2030.5,-411.5 2211.5,-411.5 2211.5,-392.5 2030.5,-392.5"/>
<text text-anchor="middle" x="2121" y="-399.5" font-family="Helvetica,sans-Serif" font-size="10.00">gauri/core/mouse_button_codes.h</text>
</a>
</g>
</g>
<!-- Node1&#45;&gt;Node27 -->
<g id="edge42" class="edge">
<title>Node1&#45;&gt;Node27</title>
<path fill="none" stroke="midnightblue" d="M1193.8,-452.55C1377.48,-446.03 1718.3,-432.48 2020,-412.04"/>
<polygon fill="midnightblue" stroke="midnightblue" points="2020.52,-415.51 2030.26,-411.34 2020.05,-408.53 2020.52,-415.51"/>
</g>
<!-- Node28 -->
<g id="node28" class="node">
<title>Node28</title>
<g id="a_node28"><a xlink:href="render__command_8h.html" target="_top" xlink:title=" ">
<polygon fill="white" stroke="black" points="1606.5,-336.5 1606.5,-355.5 1789.5,-355.5 1789.5,-336.5 1606.5,-336.5"/>
<text text-anchor="middle" x="1698" y="-343.5" font-family="Helvetica,sans-Serif" font-size="10.00">gauri/renderer/render_command.h</text>
</a>
</g>
</g>
<!-- Node1&#45;&gt;Node28 -->
<g id="edge44" class="edge">
<title>Node1&#45;&gt;Node28</title>
<path fill="none" stroke="midnightblue" d="M1193.5,-455.29C1333.61,-451.9 1543.64,-441.82 1618,-412 1644.35,-401.43 1668.76,-379.01 1683.52,-363.47"/>
<polygon fill="midnightblue" stroke="midnightblue" points="1686.49,-365.41 1690.67,-355.67 1681.34,-360.67 1686.49,-365.41"/>
</g>
<!-- Node29 -->
<g id="node29" class="node">
<title>Node29</title>
<g id="a_node29"><a xlink:href="renderer__api_8h.html" target="_top" xlink:title=" ">
<polygon fill="white" stroke="black" points="1492.5,-280.5 1492.5,-299.5 1651.5,-299.5 1651.5,-280.5 1492.5,-280.5"/>
<text text-anchor="middle" x="1572" y="-287.5" font-family="Helvetica,sans-Serif" font-size="10.00">gauri/renderer/renderer_api.h</text>
</a>
</g>
</g>
<!-- Node1&#45;&gt;Node29 -->
<g id="edge79" class="edge">
<title>Node1&#45;&gt;Node29</title>
<path fill="none" stroke="midnightblue" d="M1193.77,-457.31C1313.96,-455.11 1494.61,-445.62 1648,-412 1717.92,-396.68 1758.12,-414.76 1799,-356 1804.08,-348.7 1804.64,-342.87 1799,-336 1781.51,-314.7 1717.56,-303.3 1661.97,-297.32"/>
<polygon fill="midnightblue" stroke="midnightblue" points="1662.01,-293.8 1651.7,-296.26 1661.29,-300.77 1662.01,-293.8"/>
</g>
<!-- Node31 -->
<g id="node31" class="node">
<title>Node31</title>
<g id="a_node31"><a xlink:href="vertex__array_8h.html" target="_top" xlink:title=" ">
<polygon fill="white" stroke="black" points="1490,-224.5 1490,-243.5 1648,-243.5 1648,-224.5 1490,-224.5"/>
<text text-anchor="middle" x="1569" y="-231.5" font-family="Helvetica,sans-Serif" font-size="10.00">gauri/renderer/vertex_array.h</text>
</a>
</g>
</g>
<!-- Node1&#45;&gt;Node31 -->
<g id="edge73" class="edge">
<title>Node1&#45;&gt;Node31</title>
<path fill="none" stroke="midnightblue" d="M1193.62,-454.88C1356.74,-451.07 1622.55,-440.57 1717,-412 1765.02,-397.47 1789.82,-399.39 1815,-356 1853.95,-288.88 1743.5,-258.18 1658.16,-244.73"/>
<polygon fill="midnightblue" stroke="midnightblue" points="1658.56,-241.25 1648.15,-243.21 1657.51,-248.17 1658.56,-241.25"/>
</g>
<!-- Node32 -->
<g id="node32" class="node">
<title>Node32</title>
<g id="a_node32"><a xlink:href="buffer_8h.html" target="_top" xlink:title=" ">
<polygon fill="white" stroke="black" points="1304.5,-168.5 1304.5,-187.5 1429.5,-187.5 1429.5,-168.5 1304.5,-168.5"/>
<text text-anchor="middle" x="1367" y="-175.5" font-family="Helvetica,sans-Serif" font-size="10.00">gauri/renderer/buffer.h</text>
</a>
</g>
</g>
<!-- Node1&#45;&gt;Node32 -->
<g id="edge70" class="edge">
<title>Node1&#45;&gt;Node32</title>
<path fill="none" stroke="midnightblue" d="M1066.7,-448.34C1084.57,-425.89 1135.88,-365.53 1193,-336 1259.29,-301.73 1307.87,-356.17 1357,-300 1381.89,-271.54 1376.81,-223.56 1371.54,-197.38"/>
<polygon fill="midnightblue" stroke="midnightblue" points="1374.95,-196.62 1369.35,-187.62 1368.12,-198.14 1374.95,-196.62"/>
</g>
<!-- Node33 -->
<g id="node33" class="node">
<title>Node33</title>
<g id="a_node33"><a xlink:href="renderer_8h.html" target="_top" xlink:title=" ">
<polygon fill="white" stroke="black" points="1471,-392.5 1471,-411.5 1609,-411.5 1609,-392.5 1471,-392.5"/>
<text text-anchor="middle" x="1540" y="-399.5" font-family="Helvetica,sans-Serif" font-size="10.00">gauri/renderer/renderer.h</text>
</a>
</g>
</g>
<!-- Node1&#45;&gt;Node33 -->
<g id="edge53" class="edge">
<title>Node1&#45;&gt;Node33</title>
<path fill="none" stroke="midnightblue" d="M1135.79,-448.47C1224.44,-438.5 1370.52,-422.07 1460.67,-411.92"/>
<polygon fill="midnightblue" stroke="midnightblue" points="1461.29,-415.38 1470.83,-410.78 1460.51,-408.42 1461.29,-415.38"/>
</g>
<!-- Node34 -->
<g id="node34" class="node">
<title>Node34</title>
<g id="a_node34"><a xlink:href="orthographic__camera_8h.html" target="_top" xlink:title=" ">
<polygon fill="white" stroke="black" points="960.5,-280.5 960.5,-299.5 1161.5,-299.5 1161.5,-280.5 960.5,-280.5"/>
<text text-anchor="middle" x="1061" y="-287.5" font-family="Helvetica,sans-Serif" font-size="10.00">gauri/renderer/orthographic_camera.h</text>
</a>
</g>
</g>
<!-- Node1&#45;&gt;Node34 -->
<g id="edge74" class="edge">
<title>Node1&#45;&gt;Node34</title>
<path fill="none" stroke="midnightblue" d="M1060.05,-448.08C1060.21,-421.95 1060.67,-345.21 1060.89,-309.58"/>
<polygon fill="midnightblue" stroke="midnightblue" points="1064.39,-309.59 1060.95,-299.57 1057.39,-309.55 1064.39,-309.59"/>
</g>
<!-- Node35 -->
<g id="node35" class="node">
<title>Node35</title>
<g id="a_node35"><a xlink:href="shader_8h.html" target="_top" xlink:title=" ">
<polygon fill="white" stroke="black" points="1218,-280.5 1218,-299.5 1348,-299.5 1348,-280.5 1218,-280.5"/>
<text text-anchor="middle" x="1283" y="-287.5" font-family="Helvetica,sans-Serif" font-size="10.00">gauri/renderer/shader.h</text>
</a>
</g>
</g>
<!-- Node1&#45;&gt;Node35 -->
<g id="edge71" class="edge">
<title>Node1&#45;&gt;Node35</title>
<path fill="none" stroke="midnightblue" d="M1063.43,-448.2C1073.38,-423.06 1102.81,-351.68 1122,-336 1146.23,-316.21 1178.61,-305.1 1207.97,-298.88"/>
<polygon fill="midnightblue" stroke="midnightblue" points="1208.66,-302.31 1217.8,-296.95 1207.31,-295.44 1208.66,-302.31"/>
</g>
<!-- Node36 -->
<g id="node36" class="node">
<title>Node36</title>
<g id="a_node36"><a xlink:href="renderer__2d_8h.html" target="_top" xlink:title=" ">
<polygon fill="white" stroke="black" points="876,-336.5 876,-355.5 1032,-355.5 1032,-336.5 876,-336.5"/>
<text text-anchor="middle" x="954" y="-343.5" font-family="Helvetica,sans-Serif" font-size="10.00">gauri/renderer/renderer_2d.h</text>
</a>
</g>
</g>
<!-- Node1&#45;&gt;Node36 -->
<g id="edge62" class="edge">
<title>Node1&#45;&gt;Node36</title>
<path fill="none" stroke="midnightblue" d="M1051.68,-448.37C1033.96,-429.97 992.23,-386.67 969.47,-363.05"/>
<polygon fill="midnightblue" stroke="midnightblue" points="971.74,-360.36 962.28,-355.59 966.7,-365.22 971.74,-360.36"/>
</g>
<!-- Node38 -->
<g id="node38" class="node">
<title>Node38</title>
<g id="a_node38"><a xlink:href="texture_8h.html" target="_top" xlink:title=" ">
<polygon fill="white" stroke="black" points="738.5,-224.5 738.5,-243.5 871.5,-243.5 871.5,-224.5 738.5,-224.5"/>
<text text-anchor="middle" x="805" y="-231.5" font-family="Helvetica,sans-Serif" font-size="10.00">gauri/renderer/texture.h</text>
</a>
</g>
</g>
<!-- Node1&#45;&gt;Node38 -->
<g id="edge72" class="edge">
<title>Node1&#45;&gt;Node38</title>
<path fill="none" stroke="midnightblue" d="M1043.03,-448.33C979.62,-415.9 760.1,-303.46 758,-300 747.04,-281.96 765.54,-262.49 782.45,-249.62"/>
<polygon fill="midnightblue" stroke="midnightblue" points="784.88,-252.18 790.99,-243.52 780.81,-246.48 784.88,-252.18"/>
</g>
<!-- Node39 -->
<g id="node39" class="node">
<title>Node39</title>
<g id="a_node39"><a xlink:href="orthographic__camera__controller_8h.html" target="_top" xlink:title=" ">
<polygon fill="white" stroke="black" points="530,-336.5 530,-355.5 782,-355.5 782,-336.5 530,-336.5"/>
<text text-anchor="middle" x="656" y="-343.5" font-family="Helvetica,sans-Serif" font-size="10.00">gauri/renderer/orthographic_camera_controller.h</text>
</a>
</g>
</g>
<!-- Node1&#45;&gt;Node39 -->
<g id="edge75" class="edge">
<title>Node1&#45;&gt;Node39</title>
<path fill="none" stroke="midnightblue" d="M976.03,-448.47C923.48,-441.72 854.82,-430.31 796,-412 753.43,-398.75 707.06,-375.27 679.81,-360.45"/>
<polygon fill="midnightblue" stroke="midnightblue" points="681.45,-357.36 671,-355.6 678.07,-363.49 681.45,-357.36"/>
</g>
<!-- Node3 -->
<g id="node3" class="node">
<title>Node3</title>
<g id="a_node3"><a xlink:href="layer__stack_8h.html" target="_top" xlink:title=" ">
<polygon fill="white" stroke="black" points="302,-336.5 302,-355.5 436,-355.5 436,-336.5 302,-336.5"/>
<text text-anchor="middle" x="369" y="-343.5" font-family="Helvetica,sans-Serif" font-size="10.00">gauri/core/layer_stack.h</text>
</a>
</g>
</g>
<!-- Node2&#45;&gt;Node3 -->
<g id="edge2" class="edge">
<title>Node2&#45;&gt;Node3</title>
<path fill="none" stroke="midnightblue" d="M408.24,-392.08C401.46,-384.3 391.46,-372.8 383.24,-363.37"/>
<polygon fill="midnightblue" stroke="midnightblue" points="385.82,-361 376.62,-355.75 380.54,-365.59 385.82,-361"/>
</g>
<!-- Node2&#45;&gt;Node12 -->
<g id="edge21" class="edge">
<title>Node2&#45;&gt;Node12</title>
<path fill="none" stroke="midnightblue" d="M355.61,-392.48C332.65,-386.16 308.36,-375.16 293,-356 269.45,-326.62 270.88,-279.73 273.96,-253.79"/>
<polygon fill="midnightblue" stroke="midnightblue" points="277.45,-254.16 275.37,-243.77 270.51,-253.19 277.45,-254.16"/>
</g>
<!-- Node13 -->
<g id="node13" class="node">
<title>Node13</title>
<g id="a_node13"><a xlink:href="event_8h.html" target="_top" xlink:title=" ">
<polygon fill="white" stroke="black" points="445,-224.5 445,-243.5 557,-243.5 557,-224.5 445,-224.5"/>
<text text-anchor="middle" x="501" y="-231.5" font-family="Helvetica,sans-Serif" font-size="10.00">gauri/event/event.h</text>
</a>
</g>
</g>
<!-- Node2&#45;&gt;Node13 -->
<g id="edge27" class="edge">
<title>Node2&#45;&gt;Node13</title>
<path fill="none" stroke="midnightblue" d="M422.15,-392.26C428.3,-383.35 437.83,-369.03 445,-356 464.54,-320.49 483.54,-276.95 493.61,-252.98"/>
<polygon fill="midnightblue" stroke="midnightblue" points="496.85,-254.29 497.46,-243.71 490.39,-251.6 496.85,-254.29"/>
</g>
<!-- Node18 -->
<g id="node18" class="node">
<title>Node18</title>
<g id="a_node18"><a xlink:href="window_8h.html" target="_top" xlink:title=" ">
<polygon fill="white" stroke="black" points="530,-280.5 530,-299.5 644,-299.5 644,-280.5 530,-280.5"/>
<text text-anchor="middle" x="587" y="-287.5" font-family="Helvetica,sans-Serif" font-size="10.00">gauri/core/window.h</text>
</a>
</g>
</g>
<!-- Node2&#45;&gt;Node18 -->
<g id="edge22" class="edge">
<title>Node2&#45;&gt;Node18</title>
<path fill="none" stroke="midnightblue" d="M429.42,-392.37C458.76,-373.49 528.88,-328.38 564.87,-305.24"/>
<polygon fill="midnightblue" stroke="midnightblue" points="567.13,-307.95 573.64,-299.59 563.34,-302.06 567.13,-307.95"/>
</g>
<!-- Node2&#45;&gt;Node19 -->
<g id="edge28" class="edge">
<title>Node2&#45;&gt;Node19</title>
<path fill="none" stroke="midnightblue" d="M377.81,-392.44C335.86,-383.04 268.41,-367.93 222.93,-357.74"/>
<polygon fill="midnightblue" stroke="midnightblue" points="223.53,-354.29 213.01,-355.52 222,-361.12 223.53,-354.29"/>
</g>
<!-- Node4 -->
<g id="node4" class="node">
<title>Node4</title>
<g id="a_node4"><a xlink:href="core_8h.html" target="_top" xlink:title=" ">
<polygon fill="white" stroke="black" points="693,-112.5 693,-131.5 791,-131.5 791,-112.5 693,-112.5"/>
<text text-anchor="middle" x="742" y="-119.5" font-family="Helvetica,sans-Serif" font-size="10.00">gauri/core/core.h</text>
</a>
</g>
</g>
<!-- Node3&#45;&gt;Node4 -->
<g id="edge3" class="edge">
<title>Node3&#45;&gt;Node4</title>
<path fill="none" stroke="midnightblue" d="M369.62,-336.44C372.13,-304.28 382.65,-191.33 408,-168 446.94,-132.16 597.62,-124.5 682.68,-123.09"/>
<polygon fill="midnightblue" stroke="midnightblue" points="682.77,-126.59 692.72,-122.95 682.67,-119.59 682.77,-126.59"/>
</g>
<!-- Node3&#45;&gt;Node11 -->
<g id="edge11" class="edge">
<title>Node3&#45;&gt;Node11</title>
<path fill="none" stroke="midnightblue" d="M341.11,-336.44C311.25,-327.28 263.69,-312.69 230.54,-302.52"/>
<polygon fill="midnightblue" stroke="midnightblue" points="231.34,-299.1 220.76,-299.52 229.29,-305.8 231.34,-299.1"/>
</g>
<!-- Node17 -->
<g id="node17" class="node">
<title>Node17</title>
<g id="a_node17"><a xlink:title=" ">
<polygon fill="white" stroke="#bfbfbf" points="312.5,-280.5 312.5,-299.5 359.5,-299.5 359.5,-280.5 312.5,-280.5"/>
<text text-anchor="middle" x="336" y="-287.5" font-family="Helvetica,sans-Serif" font-size="10.00">vector</text>
</a>
</g>
</g>
<!-- Node3&#45;&gt;Node17 -->
<g id="edge20" class="edge">
<title>Node3&#45;&gt;Node17</title>
<path fill="none" stroke="midnightblue" d="M363.55,-336.08C358.99,-328.61 352.33,-317.72 346.71,-308.52"/>
<polygon fill="midnightblue" stroke="midnightblue" points="349.55,-306.46 341.35,-299.75 343.58,-310.11 349.55,-306.46"/>
</g>
<!-- Node5 -->
<g id="node5" class="node">
<title>Node5</title>
<g id="a_node5"><a xlink:title=" ">
<polygon fill="white" stroke="#bfbfbf" points="598,-56.5 598,-75.5 648,-75.5 648,-56.5 598,-56.5"/>
<text text-anchor="middle" x="623" y="-63.5" font-family="Helvetica,sans-Serif" font-size="10.00">cstdint</text>
</a>
</g>
</g>
<!-- Node4&#45;&gt;Node5 -->
<g id="edge4" class="edge">
<title>Node4&#45;&gt;Node5</title>
<path fill="none" stroke="midnightblue" d="M723.14,-112.44C703.73,-103.64 673.27,-89.81 651.04,-79.72"/>
<polygon fill="midnightblue" stroke="midnightblue" points="652.32,-76.46 641.77,-75.52 649.43,-82.84 652.32,-76.46"/>
</g>
<!-- Node6 -->
<g id="node6" class="node">
<title>Node6</title>
<g id="a_node6"><a xlink:title=" ">
<polygon fill="white" stroke="#bfbfbf" points="1291,-0.5 1291,-19.5 1349,-19.5 1349,-0.5 1291,-0.5"/>
<text text-anchor="middle" x="1320" y="-7.5" font-family="Helvetica,sans-Serif" font-size="10.00">memory</text>
</a>
</g>
</g>
<!-- Node4&#45;&gt;Node6 -->
<g id="edge5" class="edge">
<title>Node4&#45;&gt;Node6</title>
<path fill="none" stroke="midnightblue" d="M786.87,-112.46C896.63,-91.57 1177.19,-38.18 1280.79,-18.46"/>
<polygon fill="midnightblue" stroke="midnightblue" points="1281.66,-21.86 1290.83,-16.55 1280.35,-14.98 1281.66,-21.86"/>
</g>
<!-- Node4&#45;&gt;Node7 -->
<g id="edge6" class="edge">
<title>Node4&#45;&gt;Node7</title>
<path fill="none" stroke="midnightblue" d="M748.44,-112.08C753.95,-104.46 762.03,-93.26 768.76,-83.94"/>
<polygon fill="midnightblue" stroke="midnightblue" points="771.66,-85.91 774.68,-75.75 765.99,-81.81 771.66,-85.91"/>
</g>
<!-- Node7&#45;&gt;Node6 -->
<g id="edge8" class="edge">
<title>Node7&#45;&gt;Node6</title>
<path fill="none" stroke="midnightblue" d="M834.65,-59.62C942.96,-48.77 1185.5,-24.48 1280.64,-14.94"/>
<polygon fill="midnightblue" stroke="midnightblue" points="1281.1,-18.42 1290.7,-13.94 1280.4,-11.45 1281.1,-18.42"/>
</g>
<!-- Node8 -->
<g id="node8" class="node">
<title>Node8</title>
<g id="a_node8"><a xlink:title=" ">
<polygon fill="white" stroke="#bfbfbf" points="846,-0.5 846,-19.5 896,-19.5 896,-0.5 846,-0.5"/>
<text text-anchor="middle" x="871" y="-7.5" font-family="Helvetica,sans-Serif" font-size="10.00">format</text>
</a>
</g>
</g>
<!-- Node7&#45;&gt;Node8 -->
<g id="edge7" class="edge">
<title>Node7&#45;&gt;Node8</title>
<path fill="none" stroke="midnightblue" d="M795.46,-56.32C809.5,-47.9 831.05,-34.97 847.54,-25.07"/>
<polygon fill="midnightblue" stroke="midnightblue" points="849.8,-27.8 856.58,-19.65 846.2,-21.8 849.8,-27.8"/>
</g>
<!-- Node9 -->
<g id="node9" class="node">
<title>Node9</title>
<g id="a_node9"><a xlink:title=" ">
<polygon fill="white" stroke="#bfbfbf" points="617.5,-0.5 617.5,-19.5 716.5,-19.5 716.5,-0.5 617.5,-0.5"/>
<text text-anchor="middle" x="667" y="-7.5" font-family="Helvetica,sans-Serif" font-size="10.00">spdlog/fmt/ostr.h</text>
</a>
</g>
</g>
<!-- Node7&#45;&gt;Node9 -->
<g id="edge9" class="edge">
<title>Node7&#45;&gt;Node9</title>
<path fill="none" stroke="midnightblue" d="M762.94,-56.44C744.43,-47.68 715.42,-33.94 694.14,-23.86"/>
<polygon fill="midnightblue" stroke="midnightblue" points="695.51,-20.63 684.98,-19.52 692.52,-26.96 695.51,-20.63"/>
</g>
<!-- Node10 -->
<g id="node10" class="node">
<title>Node10</title>
<g id="a_node10"><a xlink:title=" ">
<polygon fill="white" stroke="#bfbfbf" points="734.5,-0.5 734.5,-19.5 827.5,-19.5 827.5,-0.5 734.5,-0.5"/>
<text text-anchor="middle" x="781" y="-7.5" font-family="Helvetica,sans-Serif" font-size="10.00">spdlog/spdlog.h</text>
</a>
</g>
</g>
<!-- Node7&#45;&gt;Node10 -->
<g id="edge10" class="edge">
<title>Node7&#45;&gt;Node10</title>
<path fill="none" stroke="midnightblue" d="M781,-56.08C781,-49.01 781,-38.86 781,-29.99"/>
<polygon fill="midnightblue" stroke="midnightblue" points="784.5,-29.75 781,-19.75 777.5,-29.75 784.5,-29.75"/>
</g>
<!-- Node11&#45;&gt;Node4 -->
<g id="edge12" class="edge">
<title>Node11&#45;&gt;Node4</title>
<path fill="none" stroke="midnightblue" d="M192.34,-280.22C191.8,-266.48 192.84,-239.83 207,-224 259.19,-165.65 297.65,-185.28 374,-168 481.25,-143.72 609.25,-131.81 682.54,-126.57"/>
<polygon fill="midnightblue" stroke="midnightblue" points="683.21,-130.03 692.95,-125.84 682.73,-123.04 683.21,-130.03"/>
</g>
<!-- Node11&#45;&gt;Node12 -->
<g id="edge13" class="edge">
<title>Node11&#45;&gt;Node12</title>
<path fill="none" stroke="midnightblue" d="M206.5,-280.32C219.6,-271.9 239.71,-258.97 255.11,-249.07"/>
<polygon fill="midnightblue" stroke="midnightblue" points="257.02,-252.01 263.54,-243.65 253.23,-246.12 257.02,-252.01"/>
</g>
<!-- Node11&#45;&gt;Node13 -->
<g id="edge14" class="edge">
<title>Node11&#45;&gt;Node13</title>
<path fill="none" stroke="midnightblue" d="M241.8,-280.44C296.21,-270.9 384.17,-255.48 442.29,-245.29"/>
<polygon fill="midnightblue" stroke="midnightblue" points="443.18,-248.69 452.42,-243.52 441.97,-241.8 443.18,-248.69"/>
</g>
<!-- Node13&#45;&gt;Node4 -->
<g id="edge19" class="edge">
<title>Node13&#45;&gt;Node4</title>
<path fill="none" stroke="midnightblue" d="M500.87,-224.4C501.16,-210.41 503.9,-182.8 520,-168 543.32,-146.57 625.19,-134.29 682.69,-128.13"/>
<polygon fill="midnightblue" stroke="midnightblue" points="683.18,-131.6 692.76,-127.09 682.46,-124.64 683.18,-131.6"/>
</g>
<!-- Node13&#45;&gt;Node5 -->
<g id="edge15" class="edge">
<title>Node13&#45;&gt;Node5</title>
<path fill="none" stroke="midnightblue" d="M466.89,-224.42C433.72,-214.28 390.68,-195.27 408,-168 447.73,-105.44 537.64,-80.94 587.69,-71.89"/>
<polygon fill="midnightblue" stroke="midnightblue" points="588.46,-75.31 597.73,-70.19 587.29,-68.41 588.46,-75.31"/>
</g>
<!-- Node14 -->
<g id="node14" class="node">
<title>Node14</title>
<g id="a_node14"><a xlink:title=" ">
<polygon fill="white" stroke="#bfbfbf" points="529.5,-168.5 529.5,-187.5 594.5,-187.5 594.5,-168.5 529.5,-168.5"/>
<text text-anchor="middle" x="562" y="-175.5" font-family="Helvetica,sans-Serif" font-size="10.00">functional</text>
</a>
</g>
</g>
<!-- Node13&#45;&gt;Node14 -->
<g id="edge16" class="edge">
<title>Node13&#45;&gt;Node14</title>
<path fill="none" stroke="midnightblue" d="M510.8,-224.32C519.82,-216.34 533.41,-204.31 544.32,-194.65"/>
<polygon fill="midnightblue" stroke="midnightblue" points="546.85,-197.08 552.02,-187.83 542.21,-191.84 546.85,-197.08"/>
</g>
<!-- Node15 -->
<g id="node15" class="node">
<title>Node15</title>
<g id="a_node15"><a xlink:title=" ">
<polygon fill="white" stroke="#bfbfbf" points="417,-168.5 417,-187.5 473,-187.5 473,-168.5 417,-168.5"/>
<text text-anchor="middle" x="445" y="-175.5" font-family="Helvetica,sans-Serif" font-size="10.00">sstream</text>
</a>
</g>
</g>
<!-- Node13&#45;&gt;Node15 -->
<g id="edge17" class="edge">
<title>Node13&#45;&gt;Node15</title>
<path fill="none" stroke="midnightblue" d="M492,-224.32C483.81,-216.42 471.49,-204.55 461.53,-194.94"/>
<polygon fill="midnightblue" stroke="midnightblue" points="463.79,-192.26 454.16,-187.83 458.93,-197.29 463.79,-192.26"/>
</g>
<!-- Node16 -->
<g id="node16" class="node">
<title>Node16</title>
<g id="a_node16"><a xlink:title=" ">
<polygon fill="white" stroke="#bfbfbf" points="771,-168.5 771,-187.5 815,-187.5 815,-168.5 771,-168.5"/>
<text text-anchor="middle" x="793" y="-175.5" font-family="Helvetica,sans-Serif" font-size="10.00">string</text>
</a>
</g>
</g>
<!-- Node13&#45;&gt;Node16 -->
<g id="edge18" class="edge">
<title>Node13&#45;&gt;Node16</title>
<path fill="none" stroke="midnightblue" d="M557.11,-225.18C607.93,-217.68 685.02,-205.27 760.56,-188.13"/>
<polygon fill="midnightblue" stroke="midnightblue" points="761.77,-191.44 770.73,-185.79 760.2,-184.62 761.77,-191.44"/>
</g>
<!-- Node18&#45;&gt;Node5 -->
<g id="edge23" class="edge">
<title>Node18&#45;&gt;Node5</title>
<path fill="none" stroke="midnightblue" d="M588.41,-280.3C593.71,-247.63 612.48,-131.87 619.93,-85.96"/>
<polygon fill="midnightblue" stroke="midnightblue" points="623.41,-86.32 621.56,-75.88 616.5,-85.19 623.41,-86.32"/>
</g>
<!-- Node18&#45;&gt;Node13 -->
<g id="edge26" class="edge">
<title>Node18&#45;&gt;Node13</title>
<path fill="none" stroke="midnightblue" d="M573.18,-280.32C559.77,-271.9 539.18,-258.97 523.41,-249.07"/>
<polygon fill="midnightblue" stroke="midnightblue" points="525.11,-246.01 514.78,-243.65 521.39,-251.94 525.11,-246.01"/>
</g>
<!-- Node18&#45;&gt;Node14 -->
<g id="edge24" class="edge">
<title>Node18&#45;&gt;Node14</title>
<path fill="none" stroke="midnightblue" d="M585.04,-280.37C581,-262.62 571.7,-221.67 566.23,-197.6"/>
<polygon fill="midnightblue" stroke="midnightblue" points="569.58,-196.57 563.95,-187.59 562.76,-198.12 569.58,-196.57"/>
</g>
<!-- Node18&#45;&gt;Node16 -->
<g id="edge25" class="edge">
<title>Node18&#45;&gt;Node16</title>
<path fill="none" stroke="midnightblue" d="M603.16,-280.37C638.97,-261.25 725.15,-215.23 767.98,-192.36"/>
<polygon fill="midnightblue" stroke="midnightblue" points="769.74,-195.39 776.91,-187.59 766.44,-189.21 769.74,-195.39"/>
</g>
<!-- Node19&#45;&gt;Node11 -->
<g id="edge29" class="edge">
<title>Node19&#45;&gt;Node11</title>
<path fill="none" stroke="midnightblue" d="M177.97,-336.08C180.38,-328.85 183.86,-318.41 186.87,-309.4"/>
<polygon fill="midnightblue" stroke="midnightblue" points="190.24,-310.34 190.08,-299.75 183.6,-308.13 190.24,-310.34"/>
</g>
<!-- Node20&#45;&gt;Node16 -->
<g id="edge36" class="edge">
<title>Node20&#45;&gt;Node16</title>
<path fill="none" stroke="midnightblue" d="M1247.44,-392.35C1229.62,-385.25 1206.93,-373.49 1193,-356 1171.09,-328.5 1184.49,-312.47 1171,-280 1160.09,-253.73 1163.53,-239.99 1140,-224 1089.13,-189.41 901.55,-181.39 825.42,-179.54"/>
<polygon fill="midnightblue" stroke="midnightblue" points="825.1,-176.03 815.03,-179.31 824.95,-183.03 825.1,-176.03"/>
</g>
<!-- Node21 -->
<g id="node21" class="node">
<title>Node21</title>
<g id="a_node21"><a xlink:title=" ">
<polygon fill="white" stroke="#bfbfbf" points="1202,-336.5 1202,-355.5 1266,-355.5 1266,-336.5 1202,-336.5"/>
<text text-anchor="middle" x="1234" y="-343.5" font-family="Helvetica,sans-Serif" font-size="10.00">algorithm</text>
</a>
</g>
</g>
<!-- Node20&#45;&gt;Node21 -->
<g id="edge33" class="edge">
<title>Node20&#45;&gt;Node21</title>
<path fill="none" stroke="midnightblue" d="M1267.39,-392.08C1261.74,-384.46 1253.46,-373.26 1246.55,-363.94"/>
<polygon fill="midnightblue" stroke="midnightblue" points="1249.25,-361.7 1240.48,-355.75 1243.62,-365.87 1249.25,-361.7"/>
</g>
<!-- Node22 -->
<g id="node22" class="node">
<title>Node22</title>
<g id="a_node22"><a xlink:title=" ">
<polygon fill="white" stroke="#bfbfbf" points="1284,-336.5 1284,-355.5 1334,-355.5 1334,-336.5 1284,-336.5"/>
<text text-anchor="middle" x="1309" y="-343.5" font-family="Helvetica,sans-Serif" font-size="10.00">chrono</text>
</a>
</g>
</g>
<!-- Node20&#45;&gt;Node22 -->
<g id="edge34" class="edge">
<title>Node20&#45;&gt;Node22</title>
<path fill="none" stroke="midnightblue" d="M1279.78,-392.08C1284.67,-384.53 1291.83,-373.49 1297.83,-364.23"/>
<polygon fill="midnightblue" stroke="midnightblue" points="1300.83,-366.05 1303.33,-355.75 1294.95,-362.24 1300.83,-366.05"/>
</g>
<!-- Node23 -->
<g id="node23" class="node">
<title>Node23</title>
<g id="a_node23"><a xlink:title=" ">
<polygon fill="white" stroke="#bfbfbf" points="1352.5,-336.5 1352.5,-355.5 1407.5,-355.5 1407.5,-336.5 1352.5,-336.5"/>
<text text-anchor="middle" x="1380" y="-343.5" font-family="Helvetica,sans-Serif" font-size="10.00">fstream</text>
</a>
</g>
</g>
<!-- Node20&#45;&gt;Node23 -->
<g id="edge35" class="edge">
<title>Node20&#45;&gt;Node23</title>
<path fill="none" stroke="midnightblue" d="M1291.03,-392.32C1308.03,-383.66 1334.38,-370.24 1353.99,-360.25"/>
<polygon fill="midnightblue" stroke="midnightblue" points="1355.69,-363.31 1363.01,-355.65 1352.51,-357.08 1355.69,-363.31"/>
</g>
<!-- Node24 -->
<g id="node24" class="node">
<title>Node24</title>
<g id="a_node24"><a xlink:title=" ">
<polygon fill="white" stroke="#bfbfbf" points="1426,-336.5 1426,-355.5 1474,-355.5 1474,-336.5 1426,-336.5"/>
<text text-anchor="middle" x="1450" y="-343.5" font-family="Helvetica,sans-Serif" font-size="10.00">thread</text>
</a>
</g>
</g>
<!-- Node20&#45;&gt;Node24 -->
<g id="edge37" class="edge">
<title>Node20&#45;&gt;Node24</title>
<path fill="none" stroke="midnightblue" d="M1301.89,-392.44C1332.9,-382.93 1382.98,-367.56 1416.19,-357.37"/>
<polygon fill="midnightblue" stroke="midnightblue" points="1417.39,-360.67 1425.92,-354.39 1415.33,-353.98 1417.39,-360.67"/>
</g>
<!-- Node25&#45;&gt;Node4 -->
<g id="edge40" class="edge">
<title>Node25&#45;&gt;Node4</title>
<path fill="none" stroke="midnightblue" d="M708.61,-168.08C714.26,-160.46 722.54,-149.26 729.45,-139.94"/>
<polygon fill="midnightblue" stroke="midnightblue" points="732.38,-141.87 735.52,-131.75 726.75,-137.7 732.38,-141.87"/>
</g>
<!-- Node28&#45;&gt;Node29 -->
<g id="edge45" class="edge">
<title>Node28&#45;&gt;Node29</title>
<path fill="none" stroke="midnightblue" d="M1678.03,-336.44C1657.39,-327.6 1624.94,-313.69 1601.37,-303.59"/>
<polygon fill="midnightblue" stroke="midnightblue" points="1602.44,-300.24 1591.87,-299.52 1599.68,-306.67 1602.44,-300.24"/>
</g>
<!-- Node29&#45;&gt;Node6 -->
<g id="edge47" class="edge">
<title>Node29&#45;&gt;Node6</title>
<path fill="none" stroke="midnightblue" d="M1540.65,-280.42C1521,-273.54 1496.55,-262.01 1481,-244 1461.16,-221.02 1460,-209.36 1460,-179 1460,-179 1460,-179 1460,-121 1460,-69.2 1400.02,-38.09 1358.58,-22.77"/>
<polygon fill="midnightblue" stroke="midnightblue" points="1359.6,-19.42 1349.01,-19.39 1357.27,-26.02 1359.6,-19.42"/>
</g>
<!-- Node30 -->
<g id="node30" class="node">
<title>Node30</title>
<g id="a_node30"><a xlink:title=" ">
<polygon fill="white" stroke="#bfbfbf" points="1053,-224.5 1053,-243.5 1131,-243.5 1131,-224.5 1053,-224.5"/>
<text text-anchor="middle" x="1092" y="-231.5" font-family="Helvetica,sans-Serif" font-size="10.00">glm/glm.hpp</text>
</a>
</g>
</g>
<!-- Node29&#45;&gt;Node30 -->
<g id="edge46" class="edge">
<title>Node29&#45;&gt;Node30</title>
<path fill="none" stroke="midnightblue" d="M1496.21,-280.47C1396.79,-269.29 1225.17,-249.98 1141.18,-240.53"/>
<polygon fill="midnightblue" stroke="midnightblue" points="1141.47,-237.04 1131.14,-239.4 1140.68,-244 1141.47,-237.04"/>
</g>
<!-- Node29&#45;&gt;Node31 -->
<g id="edge48" class="edge">
<title>Node29&#45;&gt;Node31</title>
<path fill="none" stroke="midnightblue" d="M1571.5,-280.08C1571.11,-273.01 1570.55,-262.86 1570.05,-253.99"/>
<polygon fill="midnightblue" stroke="midnightblue" points="1573.54,-253.54 1569.49,-243.75 1566.55,-253.93 1573.54,-253.54"/>
</g>
<!-- Node31&#45;&gt;Node6 -->
<g id="edge49" class="edge">
<title>Node31&#45;&gt;Node6</title>
<path fill="none" stroke="midnightblue" d="M1566.95,-224.47C1559.66,-195.97 1532.25,-103.22 1474,-56 1441.06,-29.29 1392.83,-18.44 1359.15,-14.02"/>
<polygon fill="midnightblue" stroke="midnightblue" points="1359.54,-10.54 1349.2,-12.85 1358.72,-17.5 1359.54,-10.54"/>
</g>
<!-- Node31&#45;&gt;Node32 -->
<g id="edge50" class="edge">
<title>Node31&#45;&gt;Node32</title>
<path fill="none" stroke="midnightblue" d="M1536.99,-224.44C1502.27,-215.16 1446.71,-200.31 1408.62,-190.13"/>
<polygon fill="midnightblue" stroke="midnightblue" points="1409.42,-186.72 1398.86,-187.52 1407.61,-193.48 1409.42,-186.72"/>
</g>
<!-- Node32&#45;&gt;Node4 -->
<g id="edge51" class="edge">
<title>Node32&#45;&gt;Node4</title>
<path fill="none" stroke="midnightblue" d="M1304.13,-169.75C1298.34,-169.14 1292.56,-168.54 1287,-168 1110.64,-150.8 901.74,-134.76 801.5,-127.33"/>
<polygon fill="midnightblue" stroke="midnightblue" points="801.5,-123.82 791.27,-126.58 800.98,-130.8 801.5,-123.82"/>
</g>
<!-- Node32&#45;&gt;Node7 -->
<g id="edge52" class="edge">
<title>Node32&#45;&gt;Node7</title>
<path fill="none" stroke="midnightblue" d="M1321.51,-168.46C1215.39,-148.54 951.8,-99.06 836.49,-77.42"/>
<polygon fill="midnightblue" stroke="midnightblue" points="836.94,-73.94 826.47,-75.53 835.65,-80.82 836.94,-73.94"/>
</g>
<!-- Node33&#45;&gt;Node28 -->
<g id="edge56" class="edge">
<title>Node33&#45;&gt;Node28</title>
<path fill="none" stroke="midnightblue" d="M1565.04,-392.44C1591.62,-383.36 1633.81,-368.94 1663.52,-358.78"/>
<polygon fill="midnightblue" stroke="midnightblue" points="1664.75,-362.06 1673.08,-355.52 1662.49,-355.44 1664.75,-362.06"/>
</g>
<!-- Node33&#45;&gt;Node29 -->
<g id="edge57" class="edge">
<title>Node33&#45;&gt;Node29</title>
<path fill="none" stroke="midnightblue" d="M1542.76,-392.4C1545.65,-383.36 1550.26,-368.72 1554,-356 1558.59,-340.38 1563.51,-322.55 1567.04,-309.52"/>
<polygon fill="midnightblue" stroke="midnightblue" points="1570.42,-310.42 1569.64,-299.86 1563.66,-308.6 1570.42,-310.42"/>
</g>
<!-- Node33&#45;&gt;Node34 -->
<g id="edge54" class="edge">
<title>Node33&#45;&gt;Node34</title>
<path fill="none" stroke="midnightblue" d="M1535.37,-392.43C1527.05,-377.96 1508.05,-348.99 1483,-336 1455.93,-321.96 1287.39,-307.26 1171.68,-298.62"/>
<polygon fill="midnightblue" stroke="midnightblue" points="1171.93,-295.13 1161.7,-297.88 1171.41,-302.11 1171.93,-295.13"/>
</g>
<!-- Node33&#45;&gt;Node35 -->
<g id="edge58" class="edge">
<title>Node33&#45;&gt;Node35</title>
<path fill="none" stroke="midnightblue" d="M1539.42,-392.33C1538,-378.23 1533.06,-350.48 1516,-336 1492.51,-316.06 1416.91,-304.05 1358.12,-297.52"/>
<polygon fill="midnightblue" stroke="midnightblue" points="1358.42,-294.03 1348.1,-296.44 1357.67,-300.99 1358.42,-294.03"/>
</g>
<!-- Node34&#45;&gt;Node30 -->
<g id="edge55" class="edge">
<title>Node34&#45;&gt;Node30</title>
<path fill="none" stroke="midnightblue" d="M1066.12,-280.08C1070.41,-272.61 1076.66,-261.72 1081.94,-252.52"/>
<polygon fill="midnightblue" stroke="midnightblue" points="1085.03,-254.17 1086.98,-243.75 1078.96,-250.68 1085.03,-254.17"/>
</g>
<!-- Node35&#45;&gt;Node4 -->
<g id="edge61" class="edge">
<title>Node35&#45;&gt;Node4</title>
<path fill="none" stroke="midnightblue" d="M1278.86,-280.23C1271.67,-265.99 1255.45,-238.04 1233,-224 1095.79,-138.17 898.81,-123.74 801.32,-122.27"/>
<polygon fill="midnightblue" stroke="midnightblue" points="801.1,-118.77 791.06,-122.16 801.02,-125.77 801.1,-118.77"/>
</g>
<!-- Node35&#45;&gt;Node16 -->
<g id="edge60" class="edge">
<title>Node35&#45;&gt;Node16</title>
<path fill="none" stroke="midnightblue" d="M1275.75,-280.42C1262.95,-265.94 1234.77,-236.97 1204,-224 1135.65,-195.2 909.81,-183.57 825.3,-180.16"/>
<polygon fill="midnightblue" stroke="midnightblue" points="825.38,-176.66 815.25,-179.77 825.11,-183.66 825.38,-176.66"/>
</g>
<!-- Node35&#45;&gt;Node30 -->
<g id="edge59" class="edge">
<title>Node35&#45;&gt;Node30</title>
<path fill="none" stroke="midnightblue" d="M1252.74,-280.44C1220.04,-271.2 1167.82,-256.44 1131.82,-246.26"/>
<polygon fill="midnightblue" stroke="midnightblue" points="1132.7,-242.87 1122.12,-243.52 1130.79,-249.61 1132.7,-242.87"/>
</g>
<!-- Node36&#45;&gt;Node34 -->
<g id="edge63" class="edge">
<title>Node36&#45;&gt;Node34</title>
<path fill="none" stroke="midnightblue" d="M971.19,-336.32C988.35,-327.66 1014.95,-314.24 1034.75,-304.25"/>
<polygon fill="midnightblue" stroke="midnightblue" points="1036.5,-307.28 1043.85,-299.65 1033.35,-301.04 1036.5,-307.28"/>
</g>
<!-- Node37 -->
<g id="node37" class="node">
<title>Node37</title>
<g id="a_node37"><a xlink:href="subtexture__2d_8h.html" target="_top" xlink:title=" ">
<polygon fill="white" stroke="black" points="775.5,-280.5 775.5,-299.5 942.5,-299.5 942.5,-280.5 775.5,-280.5"/>
<text text-anchor="middle" x="859" y="-287.5" font-family="Helvetica,sans-Serif" font-size="10.00">gauri/renderer/subtexture_2d.h</text>
</a>
</g>
</g>
<!-- Node36&#45;&gt;Node37 -->
<g id="edge64" class="edge">
<title>Node36&#45;&gt;Node37</title>
<path fill="none" stroke="midnightblue" d="M938.74,-336.32C923.78,-327.82 900.75,-314.73 883.27,-304.8"/>
<polygon fill="midnightblue" stroke="midnightblue" points="884.65,-301.55 874.23,-299.65 881.19,-307.64 884.65,-301.55"/>
</g>
<!-- Node36&#45;&gt;Node38 -->
<g id="edge69" class="edge">
<title>Node36&#45;&gt;Node38</title>
<path fill="none" stroke="midnightblue" d="M878.62,-336.49C832.69,-329.58 780.19,-317.98 766,-300 753.44,-284.07 770.14,-263.76 785.42,-250.12"/>
<polygon fill="midnightblue" stroke="midnightblue" points="787.71,-252.76 793.12,-243.65 783.21,-247.41 787.71,-252.76"/>
</g>
<!-- Node37&#45;&gt;Node30 -->
<g id="edge65" class="edge">
<title>Node37&#45;&gt;Node30</title>
<path fill="none" stroke="midnightblue" d="M895.92,-280.44C936.4,-271.06 1001.42,-255.99 1045.38,-245.8"/>
<polygon fill="midnightblue" stroke="midnightblue" points="1046.3,-249.18 1055.25,-243.52 1044.72,-242.36 1046.3,-249.18"/>
</g>
<!-- Node37&#45;&gt;Node38 -->
<g id="edge66" class="edge">
<title>Node37&#45;&gt;Node38</title>
<path fill="none" stroke="midnightblue" d="M850.08,-280.08C842.22,-272.22 830.57,-260.57 821.08,-251.08"/>
<polygon fill="midnightblue" stroke="midnightblue" points="823.3,-248.35 813.75,-243.75 818.35,-253.3 823.3,-248.35"/>
</g>
<!-- Node38&#45;&gt;Node4 -->
<g id="edge68" class="edge">
<title>Node38&#45;&gt;Node4</title>
<path fill="none" stroke="midnightblue" d="M811.58,-224.46C820.7,-211.5 834.9,-186.41 824,-168 815.03,-152.84 798.93,-142.45 783.37,-135.5"/>
<polygon fill="midnightblue" stroke="midnightblue" points="784.39,-132.14 773.81,-131.62 781.75,-138.63 784.39,-132.14"/>
</g>
<!-- Node38&#45;&gt;Node16 -->
<g id="edge67" class="edge">
<title>Node38&#45;&gt;Node16</title>
<path fill="none" stroke="midnightblue" d="M803.02,-224.08C801.43,-216.93 799.14,-206.64 797.15,-197.69"/>
<polygon fill="midnightblue" stroke="midnightblue" points="800.53,-196.75 794.94,-187.75 793.7,-198.27 800.53,-196.75"/>
</g>
<!-- Node39&#45;&gt;Node12 -->
<g id="edge76" class="edge">
<title>Node39&#45;&gt;Node12</title>
<path fill="none" stroke="midnightblue" d="M626.58,-336.46C558.91,-316.82 392.25,-268.45 316.1,-246.35"/>
<polygon fill="midnightblue" stroke="midnightblue" points="316.98,-242.96 306.41,-243.53 315.03,-249.68 316.98,-242.96"/>
</g>
<!-- Node39&#45;&gt;Node13 -->
<g id="edge77" class="edge">
<title>Node39&#45;&gt;Node13</title>
<path fill="none" stroke="midnightblue" d="M591.85,-336.49C566.84,-330.18 539.73,-319.17 521,-300 509.02,-287.74 504.2,-268.48 502.26,-254.1"/>
<polygon fill="midnightblue" stroke="midnightblue" points="505.72,-253.45 501.25,-243.85 498.75,-254.14 505.72,-253.45"/>
</g>
<!-- Node39&#45;&gt;Node34 -->
<g id="edge78" class="edge">
<title>Node39&#45;&gt;Node34</title>
<path fill="none" stroke="midnightblue" d="M720.17,-336.44C792.75,-326.77 910.74,-311.04 987.1,-300.85"/>
<polygon fill="midnightblue" stroke="midnightblue" points="987.68,-304.31 997.13,-299.52 986.75,-297.37 987.68,-304.31"/>
</g>
</g>
</svg>
