<?xml version="1.0" encoding="UTF-8" standalone="no"?>
<!DOCTYPE svg PUBLIC "-//W3C//DTD SVG 1.1//EN"
 "http://www.w3.org/Graphics/SVG/1.1/DTD/svg11.dtd">
<!-- Generated by graphviz version 2.43.0 (0)
 -->
<!-- Title: /home/runner/work/gauri/gauri/gauri/include/gauri/imgui/imgui_layer.h Pages: 1 -->
<svg width="403pt" height="308pt"
 viewBox="0.00 0.00 403.00 308.00" xmlns="http://www.w3.org/2000/svg" xmlns:xlink="http://www.w3.org/1999/xlink">
<g id="graph0" class="graph" transform="scale(1 1) rotate(0) translate(4 304)">
<title>/home/runner/work/gauri/gauri/gauri/include/gauri/imgui/imgui_layer.h</title>
<polygon fill="white" stroke="transparent" points="-4,4 -4,-304 399,-304 399,4 -4,4"/>
<!-- Node1 -->
<g id="node1" class="node">
<title>Node1</title>
<g id="a_node1"><a xlink:title=" ">
<polygon fill="#bfbfbf" stroke="black" points="0,-280.5 0,-299.5 358,-299.5 358,-280.5 0,-280.5"/>
<text text-anchor="middle" x="179" y="-287.5" font-family="Helvetica,sans-Serif" font-size="10.00">/home/runner/work/gauri/gauri/gauri/include/gauri/imgui/imgui_layer.h</text>
</a>
</g>
</g>
<!-- Node2 -->
<g id="node2" class="node">
<title>Node2</title>
<g id="a_node2"><a xlink:href="layer_8h.html" target="_top" xlink:title=" ">
<polygon fill="white" stroke="black" points="140.5,-224.5 140.5,-243.5 217.5,-243.5 217.5,-224.5 140.5,-224.5"/>
<text text-anchor="middle" x="179" y="-231.5" font-family="Helvetica,sans-Serif" font-size="10.00">gauri/layer.h</text>
</a>
</g>
</g>
<!-- Node1&#45;&gt;Node2 -->
<g id="edge1" class="edge">
<title>Node1&#45;&gt;Node2</title>
<path fill="none" stroke="midnightblue" d="M179,-280.08C179,-273.01 179,-262.86 179,-253.99"/>
<polygon fill="midnightblue" stroke="midnightblue" points="182.5,-253.75 179,-243.75 175.5,-253.75 182.5,-253.75"/>
</g>
<!-- Node3 -->
<g id="node3" class="node">
<title>Node3</title>
<g id="a_node3"><a xlink:href="core_8h.html" target="_top" xlink:title=" ">
<polygon fill="white" stroke="black" points="81,-112.5 81,-131.5 155,-131.5 155,-112.5 81,-112.5"/>
<text text-anchor="middle" x="118" y="-119.5" font-family="Helvetica,sans-Serif" font-size="10.00">gauri/core.h</text>
</a>
</g>
</g>
<!-- Node2&#45;&gt;Node3 -->
<g id="edge2" class="edge">
<title>Node2&#45;&gt;Node3</title>
<path fill="none" stroke="midnightblue" d="M153.5,-224.47C137.01,-217.48 116.86,-205.79 107,-188 98.95,-173.48 103.55,-154.55 109.06,-140.87"/>
<polygon fill="midnightblue" stroke="midnightblue" points="112.32,-142.14 113.24,-131.59 105.94,-139.26 112.32,-142.14"/>
</g>
<!-- Node10 -->
<g id="node10" class="node">
<title>Node10</title>
<g id="a_node10"><a xlink:href="time__step_8h.html" target="_top" xlink:title=" ">
<polygon fill="white" stroke="black" points="116,-168.5 116,-187.5 242,-187.5 242,-168.5 116,-168.5"/>
<text text-anchor="middle" x="179" y="-175.5" font-family="Helvetica,sans-Serif" font-size="10.00">gauri/core/time_step.h</text>
</a>
</g>
</g>
<!-- Node2&#45;&gt;Node10 -->
<g id="edge10" class="edge">
<title>Node2&#45;&gt;Node10</title>
<path fill="none" stroke="midnightblue" d="M179,-224.08C179,-217.01 179,-206.86 179,-197.99"/>
<polygon fill="midnightblue" stroke="midnightblue" points="182.5,-197.75 179,-187.75 175.5,-197.75 182.5,-197.75"/>
</g>
<!-- Node11 -->
<g id="node11" class="node">
<title>Node11</title>
<g id="a_node11"><a xlink:href="event_8h.html" target="_top" xlink:title=" ">
<polygon fill="white" stroke="black" points="260,-168.5 260,-187.5 372,-187.5 372,-168.5 260,-168.5"/>
<text text-anchor="middle" x="316" y="-175.5" font-family="Helvetica,sans-Serif" font-size="10.00">gauri/event/event.h</text>
</a>
</g>
</g>
<!-- Node2&#45;&gt;Node11 -->
<g id="edge11" class="edge">
<title>Node2&#45;&gt;Node11</title>
<path fill="none" stroke="midnightblue" d="M200.71,-224.44C223.35,-215.52 259.07,-201.44 284.75,-191.32"/>
<polygon fill="midnightblue" stroke="midnightblue" points="286.37,-194.44 294.39,-187.52 283.81,-187.93 286.37,-194.44"/>
</g>
<!-- Node4 -->
<g id="node4" class="node">
<title>Node4</title>
<g id="a_node4"><a xlink:title=" ">
<polygon fill="white" stroke="#bfbfbf" points="302,-56.5 302,-75.5 352,-75.5 352,-56.5 302,-56.5"/>
<text text-anchor="middle" x="327" y="-63.5" font-family="Helvetica,sans-Serif" font-size="10.00">cstdint</text>
</a>
</g>
</g>
<!-- Node3&#45;&gt;Node4 -->
<g id="edge3" class="edge">
<title>Node3&#45;&gt;Node4</title>
<path fill="none" stroke="midnightblue" d="M151.12,-112.44C189.58,-102.51 252.75,-86.18 292,-76.04"/>
<polygon fill="midnightblue" stroke="midnightblue" points="293.1,-79.37 301.91,-73.48 291.35,-72.6 293.1,-79.37"/>
</g>
<!-- Node5 -->
<g id="node5" class="node">
<title>Node5</title>
<g id="a_node5"><a xlink:title=" ">
<polygon fill="white" stroke="#bfbfbf" points="40,-0.5 40,-19.5 98,-19.5 98,-0.5 40,-0.5"/>
<text text-anchor="middle" x="69" y="-7.5" font-family="Helvetica,sans-Serif" font-size="10.00">memory</text>
</a>
</g>
</g>
<!-- Node3&#45;&gt;Node5 -->
<g id="edge4" class="edge">
<title>Node3&#45;&gt;Node5</title>
<path fill="none" stroke="midnightblue" d="M114.16,-112.37C106.18,-94.46 87.67,-52.92 77,-28.95"/>
<polygon fill="midnightblue" stroke="midnightblue" points="80.09,-27.3 72.83,-19.59 73.7,-30.15 80.09,-27.3"/>
</g>
<!-- Node6 -->
<g id="node6" class="node">
<title>Node6</title>
<g id="a_node6"><a xlink:href="logger_8h.html" target="_top" xlink:title=" ">
<polygon fill="white" stroke="black" points="124.5,-56.5 124.5,-75.5 207.5,-75.5 207.5,-56.5 124.5,-56.5"/>
<text text-anchor="middle" x="166" y="-63.5" font-family="Helvetica,sans-Serif" font-size="10.00">gauri/logger.h</text>
</a>
</g>
</g>
<!-- Node3&#45;&gt;Node6 -->
<g id="edge5" class="edge">
<title>Node3&#45;&gt;Node6</title>
<path fill="none" stroke="midnightblue" d="M125.93,-112.08C132.85,-104.3 143.07,-92.8 151.45,-83.37"/>
<polygon fill="midnightblue" stroke="midnightblue" points="154.19,-85.55 158.22,-75.75 148.96,-80.9 154.19,-85.55"/>
</g>
<!-- Node6&#45;&gt;Node5 -->
<g id="edge7" class="edge">
<title>Node6&#45;&gt;Node5</title>
<path fill="none" stroke="midnightblue" d="M150.42,-56.32C135,-47.74 111.19,-34.49 93.29,-24.52"/>
<polygon fill="midnightblue" stroke="midnightblue" points="94.99,-21.46 84.55,-19.65 91.58,-27.58 94.99,-21.46"/>
</g>
<!-- Node7 -->
<g id="node7" class="node">
<title>Node7</title>
<g id="a_node7"><a xlink:title=" ">
<polygon fill="white" stroke="#bfbfbf" points="345,-0.5 345,-19.5 395,-19.5 395,-0.5 345,-0.5"/>
<text text-anchor="middle" x="370" y="-7.5" font-family="Helvetica,sans-Serif" font-size="10.00">format</text>
</a>
</g>
</g>
<!-- Node6&#45;&gt;Node7 -->
<g id="edge6" class="edge">
<title>Node6&#45;&gt;Node7</title>
<path fill="none" stroke="midnightblue" d="M198.32,-56.44C235.66,-46.56 296.85,-30.36 335.2,-20.21"/>
<polygon fill="midnightblue" stroke="midnightblue" points="336.13,-23.59 344.9,-17.64 334.34,-16.82 336.13,-23.59"/>
</g>
<!-- Node8 -->
<g id="node8" class="node">
<title>Node8</title>
<g id="a_node8"><a xlink:title=" ">
<polygon fill="white" stroke="#bfbfbf" points="116.5,-0.5 116.5,-19.5 215.5,-19.5 215.5,-0.5 116.5,-0.5"/>
<text text-anchor="middle" x="166" y="-7.5" font-family="Helvetica,sans-Serif" font-size="10.00">spdlog/fmt/ostr.h</text>
</a>
</g>
</g>
<!-- Node6&#45;&gt;Node8 -->
<g id="edge8" class="edge">
<title>Node6&#45;&gt;Node8</title>
<path fill="none" stroke="midnightblue" d="M166,-56.08C166,-49.01 166,-38.86 166,-29.99"/>
<polygon fill="midnightblue" stroke="midnightblue" points="169.5,-29.75 166,-19.75 162.5,-29.75 169.5,-29.75"/>
</g>
<!-- Node9 -->
<g id="node9" class="node">
<title>Node9</title>
<g id="a_node9"><a xlink:title=" ">
<polygon fill="white" stroke="#bfbfbf" points="233.5,-0.5 233.5,-19.5 326.5,-19.5 326.5,-0.5 233.5,-0.5"/>
<text text-anchor="middle" x="280" y="-7.5" font-family="Helvetica,sans-Serif" font-size="10.00">spdlog/spdlog.h</text>
</a>
</g>
</g>
<!-- Node6&#45;&gt;Node9 -->
<g id="edge9" class="edge">
<title>Node6&#45;&gt;Node9</title>
<path fill="none" stroke="midnightblue" d="M184.06,-56.44C202.57,-47.68 231.58,-33.94 252.86,-23.86"/>
<polygon fill="midnightblue" stroke="midnightblue" points="254.48,-26.96 262.02,-19.52 251.49,-20.63 254.48,-26.96"/>
</g>
<!-- Node11&#45;&gt;Node3 -->
<g id="edge16" class="edge">
<title>Node11&#45;&gt;Node3</title>
<path fill="none" stroke="midnightblue" d="M284.63,-168.44C250.74,-159.2 196.6,-144.44 159.28,-134.26"/>
<polygon fill="midnightblue" stroke="midnightblue" points="159.8,-130.77 149.23,-131.52 157.95,-137.52 159.8,-130.77"/>
</g>
<!-- Node11&#45;&gt;Node4 -->
<g id="edge12" class="edge">
<title>Node11&#45;&gt;Node4</title>
<path fill="none" stroke="midnightblue" d="M339.45,-168.41C355.16,-161.28 374.62,-149.46 384,-132 394.72,-112.05 373,-93.04 353.36,-80.79"/>
<polygon fill="midnightblue" stroke="midnightblue" points="355,-77.69 344.6,-75.65 351.46,-83.73 355,-77.69"/>
</g>
<!-- Node12 -->
<g id="node12" class="node">
<title>Node12</title>
<g id="a_node12"><a xlink:title=" ">
<polygon fill="white" stroke="#bfbfbf" points="173.5,-112.5 173.5,-131.5 238.5,-131.5 238.5,-112.5 173.5,-112.5"/>
<text text-anchor="middle" x="206" y="-119.5" font-family="Helvetica,sans-Serif" font-size="10.00">functional</text>
</a>
</g>
</g>
<!-- Node11&#45;&gt;Node12 -->
<g id="edge13" class="edge">
<title>Node11&#45;&gt;Node12</title>
<path fill="none" stroke="midnightblue" d="M298.33,-168.32C280.61,-159.62 253.1,-146.12 232.71,-136.11"/>
<polygon fill="midnightblue" stroke="midnightblue" points="234.15,-132.92 223.63,-131.65 231.06,-139.2 234.15,-132.92"/>
</g>
<!-- Node13 -->
<g id="node13" class="node">
<title>Node13</title>
<g id="a_node13"><a xlink:title=" ">
<polygon fill="white" stroke="#bfbfbf" points="257,-112.5 257,-131.5 313,-131.5 313,-112.5 257,-112.5"/>
<text text-anchor="middle" x="285" y="-119.5" font-family="Helvetica,sans-Serif" font-size="10.00">sstream</text>
</a>
</g>
</g>
<!-- Node11&#45;&gt;Node13 -->
<g id="edge14" class="edge">
<title>Node11&#45;&gt;Node13</title>
<path fill="none" stroke="midnightblue" d="M310.88,-168.08C306.59,-160.61 300.34,-149.72 295.06,-140.52"/>
<polygon fill="midnightblue" stroke="midnightblue" points="298.04,-138.68 290.02,-131.75 291.97,-142.17 298.04,-138.68"/>
</g>
<!-- Node14 -->
<g id="node14" class="node">
<title>Node14</title>
<g id="a_node14"><a xlink:title=" ">
<polygon fill="white" stroke="#bfbfbf" points="331,-112.5 331,-131.5 375,-131.5 375,-112.5 331,-112.5"/>
<text text-anchor="middle" x="353" y="-119.5" font-family="Helvetica,sans-Serif" font-size="10.00">string</text>
</a>
</g>
</g>
<!-- Node11&#45;&gt;Node14 -->
<g id="edge15" class="edge">
<title>Node11&#45;&gt;Node14</title>
<path fill="none" stroke="midnightblue" d="M322.11,-168.08C327.28,-160.53 334.85,-149.49 341.19,-140.23"/>
<polygon fill="midnightblue" stroke="midnightblue" points="344.24,-141.98 347,-131.75 338.46,-138.02 344.24,-141.98"/>
</g>
</g>
</svg>
