<?xml version="1.0" encoding="UTF-8" standalone="no"?>
<!DOCTYPE svg PUBLIC "-//W3C//DTD SVG 1.1//EN"
 "http://www.w3.org/Graphics/SVG/1.1/DTD/svg11.dtd">
<!-- Generated by graphviz version 2.43.0 (0)
 -->
<!-- Title: /home/runner/work/gauri/gauri/gauri/include/gauri/imgui/imgui_layer.h Pages: 1 -->
<svg width="403pt" height="308pt"
 viewBox="0.00 0.00 402.60 308.00" xmlns="http://www.w3.org/2000/svg" xmlns:xlink="http://www.w3.org/1999/xlink">
<g id="graph0" class="graph" transform="scale(1 1) rotate(0) translate(4 304)">
<title>/home/runner/work/gauri/gauri/gauri/include/gauri/imgui/imgui_layer.h</title>
<polygon fill="white" stroke="transparent" points="-4,4 -4,-304 398.6,-304 398.6,4 -4,4"/>
<!-- Node1 -->
<g id="node1" class="node">
<title>Node1</title>
<g id="a_node1"><a xlink:title=" ">
<polygon fill="#bfbfbf" stroke="black" points="0,-280.5 0,-299.5 358,-299.5 358,-280.5 0,-280.5"/>
<text text-anchor="middle" x="179" y="-287.5" font-family="Helvetica,sans-Serif" font-size="10.00">/home/runner/work/gauri/gauri/gauri/include/gauri/imgui/imgui_layer.h</text>
</a>
</g>
</g>
<!-- Node2 -->
<g id="node2" class="node">
<title>Node2</title>
<g id="a_node2"><a xlink:href="layer_8h.html" target="_top" xlink:title=" ">
<polygon fill="white" stroke="black" points="128.5,-224.5 128.5,-243.5 229.5,-243.5 229.5,-224.5 128.5,-224.5"/>
<text text-anchor="middle" x="179" y="-231.5" font-family="Helvetica,sans-Serif" font-size="10.00">gauri/core/layer.h</text>
</a>
</g>
</g>
<!-- Node1&#45;&gt;Node2 -->
<g id="edge1" class="edge">
<title>Node1&#45;&gt;Node2</title>
<path fill="none" stroke="midnightblue" d="M179,-280.08C179,-273.01 179,-262.86 179,-253.99"/>
<polygon fill="midnightblue" stroke="midnightblue" points="182.5,-253.75 179,-243.75 175.5,-253.75 182.5,-253.75"/>
</g>
<!-- Node3 -->
<g id="node3" class="node">
<title>Node3</title>
<g id="a_node3"><a xlink:href="base_8h.html" target="_top" xlink:title=" ">
<polygon fill="white" stroke="black" points="61.5,-112.5 61.5,-131.5 162.5,-131.5 162.5,-112.5 61.5,-112.5"/>
<text text-anchor="middle" x="112" y="-119.5" font-family="Helvetica,sans-Serif" font-size="10.00">gauri/core/base.h</text>
</a>
</g>
</g>
<!-- Node2&#45;&gt;Node3 -->
<g id="edge2" class="edge">
<title>Node2&#45;&gt;Node3</title>
<path fill="none" stroke="midnightblue" d="M155.21,-224.5C139.28,-217.41 119.54,-205.61 110,-188 102.28,-173.74 103.85,-155.03 106.72,-141.34"/>
<polygon fill="midnightblue" stroke="midnightblue" points="110.12,-142.17 109.14,-131.62 103.32,-140.48 110.12,-142.17"/>
</g>
<!-- Node10 -->
<g id="node10" class="node">
<title>Node10</title>
<g id="a_node10"><a xlink:href="timestep_8h.html" target="_top" xlink:title=" ">
<polygon fill="white" stroke="black" points="118.5,-168.5 118.5,-187.5 239.5,-187.5 239.5,-168.5 118.5,-168.5"/>
<text text-anchor="middle" x="179" y="-175.5" font-family="Helvetica,sans-Serif" font-size="10.00">gauri/core/timestep.h</text>
</a>
</g>
</g>
<!-- Node2&#45;&gt;Node10 -->
<g id="edge10" class="edge">
<title>Node2&#45;&gt;Node10</title>
<path fill="none" stroke="midnightblue" d="M179,-224.08C179,-217.01 179,-206.86 179,-197.99"/>
<polygon fill="midnightblue" stroke="midnightblue" points="182.5,-197.75 179,-187.75 175.5,-197.75 182.5,-197.75"/>
</g>
<!-- Node11 -->
<g id="node11" class="node">
<title>Node11</title>
<g id="a_node11"><a xlink:href="event_8h.html" target="_top" xlink:title=" ">
<polygon fill="white" stroke="black" points="258,-168.5 258,-187.5 370,-187.5 370,-168.5 258,-168.5"/>
<text text-anchor="middle" x="314" y="-175.5" font-family="Helvetica,sans-Serif" font-size="10.00">gauri/event/event.h</text>
</a>
</g>
</g>
<!-- Node2&#45;&gt;Node11 -->
<g id="edge11" class="edge">
<title>Node2&#45;&gt;Node11</title>
<path fill="none" stroke="midnightblue" d="M200.39,-224.44C222.71,-215.52 257.9,-201.44 283.21,-191.32"/>
<polygon fill="midnightblue" stroke="midnightblue" points="284.72,-194.48 292.71,-187.52 282.12,-187.98 284.72,-194.48"/>
</g>
<!-- Node4 -->
<g id="node4" class="node">
<title>Node4</title>
<g id="a_node4"><a xlink:title=" ">
<polygon fill="white" stroke="#bfbfbf" points="308,-56.5 308,-75.5 358,-75.5 358,-56.5 308,-56.5"/>
<text text-anchor="middle" x="333" y="-63.5" font-family="Helvetica,sans-Serif" font-size="10.00">cstdint</text>
</a>
</g>
</g>
<!-- Node3&#45;&gt;Node4 -->
<g id="edge3" class="edge">
<title>Node3&#45;&gt;Node4</title>
<path fill="none" stroke="midnightblue" d="M147.02,-112.44C188.31,-102.35 256.53,-85.68 297.87,-75.58"/>
<polygon fill="midnightblue" stroke="midnightblue" points="298.89,-78.94 307.77,-73.16 297.22,-72.14 298.89,-78.94"/>
</g>
<!-- Node5 -->
<g id="node5" class="node">
<title>Node5</title>
<g id="a_node5"><a xlink:title=" ">
<polygon fill="white" stroke="#bfbfbf" points="34,-0.5 34,-19.5 92,-19.5 92,-0.5 34,-0.5"/>
<text text-anchor="middle" x="63" y="-7.5" font-family="Helvetica,sans-Serif" font-size="10.00">memory</text>
</a>
</g>
</g>
<!-- Node3&#45;&gt;Node5 -->
<g id="edge4" class="edge">
<title>Node3&#45;&gt;Node5</title>
<path fill="none" stroke="midnightblue" d="M108.16,-112.37C100.18,-94.46 81.67,-52.92 71,-28.95"/>
<polygon fill="midnightblue" stroke="midnightblue" points="74.09,-27.3 66.83,-19.59 67.7,-30.15 74.09,-27.3"/>
</g>
<!-- Node6 -->
<g id="node6" class="node">
<title>Node6</title>
<g id="a_node6"><a xlink:href="logger_8h.html" target="_top" xlink:title=" ">
<polygon fill="white" stroke="black" points="106.5,-56.5 106.5,-75.5 213.5,-75.5 213.5,-56.5 106.5,-56.5"/>
<text text-anchor="middle" x="160" y="-63.5" font-family="Helvetica,sans-Serif" font-size="10.00">gauri/core/logger.h</text>
</a>
</g>
</g>
<!-- Node3&#45;&gt;Node6 -->
<g id="edge5" class="edge">
<title>Node3&#45;&gt;Node6</title>
<path fill="none" stroke="midnightblue" d="M119.93,-112.08C126.85,-104.3 137.07,-92.8 145.45,-83.37"/>
<polygon fill="midnightblue" stroke="midnightblue" points="148.19,-85.55 152.22,-75.75 142.96,-80.9 148.19,-85.55"/>
</g>
<!-- Node6&#45;&gt;Node5 -->
<g id="edge7" class="edge">
<title>Node6&#45;&gt;Node5</title>
<path fill="none" stroke="midnightblue" d="M144.42,-56.32C129,-47.74 105.19,-34.49 87.29,-24.52"/>
<polygon fill="midnightblue" stroke="midnightblue" points="88.99,-21.46 78.55,-19.65 85.58,-27.58 88.99,-21.46"/>
</g>
<!-- Node7 -->
<g id="node7" class="node">
<title>Node7</title>
<g id="a_node7"><a xlink:title=" ">
<polygon fill="white" stroke="#bfbfbf" points="339,-0.5 339,-19.5 389,-19.5 389,-0.5 339,-0.5"/>
<text text-anchor="middle" x="364" y="-7.5" font-family="Helvetica,sans-Serif" font-size="10.00">format</text>
</a>
</g>
</g>
<!-- Node6&#45;&gt;Node7 -->
<g id="edge6" class="edge">
<title>Node6&#45;&gt;Node7</title>
<path fill="none" stroke="midnightblue" d="M192.32,-56.44C229.66,-46.56 290.85,-30.36 329.2,-20.21"/>
<polygon fill="midnightblue" stroke="midnightblue" points="330.13,-23.59 338.9,-17.64 328.34,-16.82 330.13,-23.59"/>
</g>
<!-- Node8 -->
<g id="node8" class="node">
<title>Node8</title>
<g id="a_node8"><a xlink:title=" ">
<polygon fill="white" stroke="#bfbfbf" points="110.5,-0.5 110.5,-19.5 209.5,-19.5 209.5,-0.5 110.5,-0.5"/>
<text text-anchor="middle" x="160" y="-7.5" font-family="Helvetica,sans-Serif" font-size="10.00">spdlog/fmt/ostr.h</text>
</a>
</g>
</g>
<!-- Node6&#45;&gt;Node8 -->
<g id="edge8" class="edge">
<title>Node6&#45;&gt;Node8</title>
<path fill="none" stroke="midnightblue" d="M160,-56.08C160,-49.01 160,-38.86 160,-29.99"/>
<polygon fill="midnightblue" stroke="midnightblue" points="163.5,-29.75 160,-19.75 156.5,-29.75 163.5,-29.75"/>
</g>
<!-- Node9 -->
<g id="node9" class="node">
<title>Node9</title>
<g id="a_node9"><a xlink:title=" ">
<polygon fill="white" stroke="#bfbfbf" points="227.5,-0.5 227.5,-19.5 320.5,-19.5 320.5,-0.5 227.5,-0.5"/>
<text text-anchor="middle" x="274" y="-7.5" font-family="Helvetica,sans-Serif" font-size="10.00">spdlog/spdlog.h</text>
</a>
</g>
</g>
<!-- Node6&#45;&gt;Node9 -->
<g id="edge9" class="edge">
<title>Node6&#45;&gt;Node9</title>
<path fill="none" stroke="midnightblue" d="M178.06,-56.44C196.57,-47.68 225.58,-33.94 246.86,-23.86"/>
<polygon fill="midnightblue" stroke="midnightblue" points="248.48,-26.96 256.02,-19.52 245.49,-20.63 248.48,-26.96"/>
</g>
<!-- Node11&#45;&gt;Node3 -->
<g id="edge16" class="edge">
<title>Node11&#45;&gt;Node3</title>
<path fill="none" stroke="midnightblue" d="M281.99,-168.44C247.27,-159.16 191.71,-144.31 153.62,-134.13"/>
<polygon fill="midnightblue" stroke="midnightblue" points="154.42,-130.72 143.86,-131.52 152.61,-137.48 154.42,-130.72"/>
</g>
<!-- Node11&#45;&gt;Node4 -->
<g id="edge12" class="edge">
<title>Node11&#45;&gt;Node4</title>
<path fill="none" stroke="midnightblue" d="M342.37,-168.49C359.75,-161.65 380.6,-150.13 391,-132 402.47,-112 379.72,-92.77 359.43,-80.49"/>
<polygon fill="midnightblue" stroke="midnightblue" points="361.12,-77.42 350.7,-75.51 357.65,-83.5 361.12,-77.42"/>
</g>
<!-- Node12 -->
<g id="node12" class="node">
<title>Node12</title>
<g id="a_node12"><a xlink:title=" ">
<polygon fill="white" stroke="#bfbfbf" points="180.5,-112.5 180.5,-131.5 245.5,-131.5 245.5,-112.5 180.5,-112.5"/>
<text text-anchor="middle" x="213" y="-119.5" font-family="Helvetica,sans-Serif" font-size="10.00">functional</text>
</a>
</g>
</g>
<!-- Node11&#45;&gt;Node12 -->
<g id="edge13" class="edge">
<title>Node11&#45;&gt;Node12</title>
<path fill="none" stroke="midnightblue" d="M297.77,-168.32C281.65,-159.7 256.7,-146.36 238.04,-136.39"/>
<polygon fill="midnightblue" stroke="midnightblue" points="239.66,-133.28 229.19,-131.65 236.36,-139.46 239.66,-133.28"/>
</g>
<!-- Node13 -->
<g id="node13" class="node">
<title>Node13</title>
<g id="a_node13"><a xlink:title=" ">
<polygon fill="white" stroke="#bfbfbf" points="264,-112.5 264,-131.5 320,-131.5 320,-112.5 264,-112.5"/>
<text text-anchor="middle" x="292" y="-119.5" font-family="Helvetica,sans-Serif" font-size="10.00">sstream</text>
</a>
</g>
</g>
<!-- Node11&#45;&gt;Node13 -->
<g id="edge14" class="edge">
<title>Node11&#45;&gt;Node13</title>
<path fill="none" stroke="midnightblue" d="M310.37,-168.08C307.39,-160.77 303.07,-150.18 299.38,-141.1"/>
<polygon fill="midnightblue" stroke="midnightblue" points="302.58,-139.69 295.57,-131.75 296.1,-142.33 302.58,-139.69"/>
</g>
<!-- Node14 -->
<g id="node14" class="node">
<title>Node14</title>
<g id="a_node14"><a xlink:title=" ">
<polygon fill="white" stroke="#bfbfbf" points="338,-112.5 338,-131.5 382,-131.5 382,-112.5 338,-112.5"/>
<text text-anchor="middle" x="360" y="-119.5" font-family="Helvetica,sans-Serif" font-size="10.00">string</text>
</a>
</g>
</g>
<!-- Node11&#45;&gt;Node14 -->
<g id="edge15" class="edge">
<title>Node11&#45;&gt;Node14</title>
<path fill="none" stroke="midnightblue" d="M321.6,-168.08C328.23,-160.3 338.02,-148.8 346.06,-139.37"/>
<polygon fill="midnightblue" stroke="midnightblue" points="348.73,-141.63 352.55,-131.75 343.4,-137.09 348.73,-141.63"/>
</g>
</g>
</svg>
