<?xml version="1.0" encoding="UTF-8" standalone="no"?>
<!DOCTYPE svg PUBLIC "-//W3C//DTD SVG 1.1//EN"
 "http://www.w3.org/Graphics/SVG/1.1/DTD/svg11.dtd">
<!-- Generated by graphviz version 2.43.0 (0)
 -->
<!-- Title: Graphical Class Hierarchy Pages: 1 -->
<svg width="486pt" height="332pt"
 viewBox="0.00 0.00 486.00 332.00" xmlns="http://www.w3.org/2000/svg" xmlns:xlink="http://www.w3.org/1999/xlink">
<g id="graph0" class="graph" transform="scale(1 1) rotate(0) translate(4 328)">
<title>Graphical Class Hierarchy</title>
<polygon fill="white" stroke="transparent" points="-4,4 -4,-328 482,-328 482,4 -4,4"/>
<!-- Node0 -->
<g id="node1" class="node">
<title>Node0</title>
<g id="a_node1"><a xlink:href="classgauri_1_1Event.html" target="_top" xlink:title=" ">
<polygon fill="white" stroke="black" points="0,-152.5 0,-171.5 75,-171.5 75,-152.5 0,-152.5"/>
<text text-anchor="middle" x="37.5" y="-159.5" font-family="Helvetica,sans-Serif" font-size="10.00">gauri::Event</text>
</a>
</g>
</g>
<!-- Node1 -->
<g id="node2" class="node">
<title>Node1</title>
<g id="a_node2"><a xlink:href="classgauri_1_1AppRenderEvent.html" target="_top" xlink:title=" ">
<polygon fill="white" stroke="black" points="120,-304.5 120,-323.5 248,-323.5 248,-304.5 120,-304.5"/>
<text text-anchor="middle" x="184" y="-311.5" font-family="Helvetica,sans-Serif" font-size="10.00">gauri::AppRenderEvent</text>
</a>
</g>
</g>
<!-- Node0&#45;&gt;Node1 -->
<g id="edge1" class="edge">
<title>Node0&#45;&gt;Node1</title>
<path fill="none" stroke="midnightblue" d="M43.76,-181.62C52.63,-210.84 73.38,-265.51 111,-295 115.99,-298.91 121.7,-302.02 127.68,-304.49"/>
<polygon fill="midnightblue" stroke="midnightblue" points="47.06,-180.42 40.93,-171.77 40.33,-182.35 47.06,-180.42"/>
</g>
<!-- Node2 -->
<g id="node3" class="node">
<title>Node2</title>
<g id="a_node3"><a xlink:href="classgauri_1_1AppTickEvent.html" target="_top" xlink:title=" ">
<polygon fill="white" stroke="black" points="127,-266.5 127,-285.5 241,-285.5 241,-266.5 127,-266.5"/>
<text text-anchor="middle" x="184" y="-273.5" font-family="Helvetica,sans-Serif" font-size="10.00">gauri::AppTickEvent</text>
</a>
</g>
</g>
<!-- Node0&#45;&gt;Node2 -->
<g id="edge2" class="edge">
<title>Node0&#45;&gt;Node2</title>
<path fill="none" stroke="midnightblue" d="M47.8,-180.68C59.55,-202.33 81.82,-237.53 111,-257 116.81,-260.88 123.37,-263.96 130.11,-266.42"/>
<polygon fill="midnightblue" stroke="midnightblue" points="50.89,-179.03 43.16,-171.79 44.69,-182.27 50.89,-179.03"/>
</g>
<!-- Node3 -->
<g id="node4" class="node">
<title>Node3</title>
<g id="a_node4"><a xlink:href="classgauri_1_1AppUpdateEvent.html" target="_top" xlink:title=" ">
<polygon fill="white" stroke="black" points="119.5,-228.5 119.5,-247.5 248.5,-247.5 248.5,-228.5 119.5,-228.5"/>
<text text-anchor="middle" x="184" y="-235.5" font-family="Helvetica,sans-Serif" font-size="10.00">gauri::AppUpdateEvent</text>
</a>
</g>
</g>
<!-- Node0&#45;&gt;Node3 -->
<g id="edge3" class="edge">
<title>Node0&#45;&gt;Node3</title>
<path fill="none" stroke="midnightblue" d="M55.24,-178.46C69.12,-191.24 89.91,-208.5 111,-219 118.64,-222.8 127.12,-225.91 135.51,-228.42"/>
<polygon fill="midnightblue" stroke="midnightblue" points="57.6,-175.87 47.93,-171.54 52.79,-180.95 57.6,-175.87"/>
</g>
<!-- Node4 -->
<g id="node5" class="node">
<title>Node4</title>
<g id="a_node5"><a xlink:href="classgauri_1_1KeyEvent.html" target="_top" xlink:title=" ">
<polygon fill="white" stroke="black" points="137.5,-190.5 137.5,-209.5 230.5,-209.5 230.5,-190.5 137.5,-190.5"/>
<text text-anchor="middle" x="184" y="-197.5" font-family="Helvetica,sans-Serif" font-size="10.00">gauri::KeyEvent</text>
</a>
</g>
</g>
<!-- Node0&#45;&gt;Node4 -->
<g id="edge4" class="edge">
<title>Node0&#45;&gt;Node4</title>
<path fill="none" stroke="midnightblue" d="M84.83,-174.18C104.89,-179.46 128.03,-185.54 146.8,-190.48"/>
<polygon fill="midnightblue" stroke="midnightblue" points="85.52,-170.75 74.96,-171.59 83.74,-177.52 85.52,-170.75"/>
</g>
<!-- Node8 -->
<g id="node9" class="node">
<title>Node8</title>
<g id="a_node9"><a xlink:href="classgauri_1_1MouseButtonEvent.html" target="_top" xlink:title=" ">
<polygon fill="white" stroke="black" points="114,-152.5 114,-171.5 254,-171.5 254,-152.5 114,-152.5"/>
<text text-anchor="middle" x="184" y="-159.5" font-family="Helvetica,sans-Serif" font-size="10.00">gauri::MouseButtonEvent</text>
</a>
</g>
</g>
<!-- Node0&#45;&gt;Node8 -->
<g id="edge8" class="edge">
<title>Node0&#45;&gt;Node8</title>
<path fill="none" stroke="midnightblue" d="M85.35,-162C94.48,-162 104.23,-162 113.91,-162"/>
<polygon fill="midnightblue" stroke="midnightblue" points="85.34,-158.5 75.34,-162 85.34,-165.5 85.34,-158.5"/>
</g>
<!-- Node11 -->
<g id="node12" class="node">
<title>Node11</title>
<g id="a_node12"><a xlink:href="classgauri_1_1MouseMovedEvent.html" target="_top" xlink:title=" ">
<polygon fill="white" stroke="black" points="114,-114.5 114,-133.5 254,-133.5 254,-114.5 114,-114.5"/>
<text text-anchor="middle" x="184" y="-121.5" font-family="Helvetica,sans-Serif" font-size="10.00">gauri::MouseMovedEvent</text>
</a>
</g>
</g>
<!-- Node0&#45;&gt;Node11 -->
<g id="edge11" class="edge">
<title>Node0&#45;&gt;Node11</title>
<path fill="none" stroke="midnightblue" d="M84.83,-149.82C104.89,-144.54 128.03,-138.46 146.8,-133.52"/>
<polygon fill="midnightblue" stroke="midnightblue" points="83.74,-146.48 74.96,-152.41 85.52,-153.25 83.74,-146.48"/>
</g>
<!-- Node12 -->
<g id="node13" class="node">
<title>Node12</title>
<g id="a_node13"><a xlink:href="classgauri_1_1MouseScrolledEvent.html" target="_top" xlink:title=" ">
<polygon fill="white" stroke="black" points="111,-76.5 111,-95.5 257,-95.5 257,-76.5 111,-76.5"/>
<text text-anchor="middle" x="184" y="-83.5" font-family="Helvetica,sans-Serif" font-size="10.00">gauri::MouseScrolledEvent</text>
</a>
</g>
</g>
<!-- Node0&#45;&gt;Node12 -->
<g id="edge12" class="edge">
<title>Node0&#45;&gt;Node12</title>
<path fill="none" stroke="midnightblue" d="M55.24,-145.54C69.12,-132.76 89.91,-115.5 111,-105 118.64,-101.2 127.12,-98.09 135.51,-95.58"/>
<polygon fill="midnightblue" stroke="midnightblue" points="52.79,-143.05 47.93,-152.46 57.6,-148.13 52.79,-143.05"/>
</g>
<!-- Node13 -->
<g id="node14" class="node">
<title>Node13</title>
<g id="a_node14"><a xlink:href="classgauri_1_1WindowCloseEvent.html" target="_top" xlink:title=" ">
<polygon fill="white" stroke="black" points="113.5,-38.5 113.5,-57.5 254.5,-57.5 254.5,-38.5 113.5,-38.5"/>
<text text-anchor="middle" x="184" y="-45.5" font-family="Helvetica,sans-Serif" font-size="10.00">gauri::WindowCloseEvent</text>
</a>
</g>
</g>
<!-- Node0&#45;&gt;Node13 -->
<g id="edge13" class="edge">
<title>Node0&#45;&gt;Node13</title>
<path fill="none" stroke="midnightblue" d="M47.8,-143.32C59.55,-121.67 81.82,-86.47 111,-67 116.81,-63.12 123.37,-60.04 130.11,-57.58"/>
<polygon fill="midnightblue" stroke="midnightblue" points="44.69,-141.73 43.16,-152.21 50.89,-144.97 44.69,-141.73"/>
</g>
<!-- Node14 -->
<g id="node15" class="node">
<title>Node14</title>
<g id="a_node15"><a xlink:href="classgauri_1_1WindowResizeEvent.html" target="_top" xlink:title=" ">
<polygon fill="white" stroke="black" points="111,-0.5 111,-19.5 257,-19.5 257,-0.5 111,-0.5"/>
<text text-anchor="middle" x="184" y="-7.5" font-family="Helvetica,sans-Serif" font-size="10.00">gauri::WindowResizeEvent</text>
</a>
</g>
</g>
<!-- Node0&#45;&gt;Node14 -->
<g id="edge14" class="edge">
<title>Node0&#45;&gt;Node14</title>
<path fill="none" stroke="midnightblue" d="M43.76,-142.38C52.63,-113.16 73.38,-58.49 111,-29 115.99,-25.09 121.7,-21.98 127.68,-19.51"/>
<polygon fill="midnightblue" stroke="midnightblue" points="40.33,-141.65 40.93,-152.23 47.06,-143.58 40.33,-141.65"/>
</g>
<!-- Node5 -->
<g id="node6" class="node">
<title>Node5</title>
<g id="a_node6"><a xlink:href="classgauri_1_1KeyPressedEvent.html" target="_top" xlink:title=" ">
<polygon fill="white" stroke="black" points="320,-266.5 320,-285.5 451,-285.5 451,-266.5 320,-266.5"/>
<text text-anchor="middle" x="385.5" y="-273.5" font-family="Helvetica,sans-Serif" font-size="10.00">gauri::KeyPressedEvent</text>
</a>
</g>
</g>
<!-- Node4&#45;&gt;Node5 -->
<g id="edge5" class="edge">
<title>Node4&#45;&gt;Node5</title>
<path fill="none" stroke="midnightblue" d="M240.49,-211.24C246.25,-213.4 251.87,-215.96 257,-219 277.01,-230.87 272.68,-245.67 293,-257 301.22,-261.58 310.41,-265.06 319.71,-267.71"/>
<polygon fill="midnightblue" stroke="midnightblue" points="241.3,-207.82 230.71,-207.98 239.09,-214.46 241.3,-207.82"/>
</g>
<!-- Node6 -->
<g id="node7" class="node">
<title>Node6</title>
<g id="a_node7"><a xlink:href="classgauri_1_1KeyReleasedEvent.html" target="_top" xlink:title=" ">
<polygon fill="white" stroke="black" points="316.5,-228.5 316.5,-247.5 454.5,-247.5 454.5,-228.5 316.5,-228.5"/>
<text text-anchor="middle" x="385.5" y="-235.5" font-family="Helvetica,sans-Serif" font-size="10.00">gauri::KeyReleasedEvent</text>
</a>
</g>
</g>
<!-- Node4&#45;&gt;Node6 -->
<g id="edge6" class="edge">
<title>Node4&#45;&gt;Node6</title>
<path fill="none" stroke="midnightblue" d="M240.87,-210.64C270.23,-216.23 305.93,-223.04 334.4,-228.46"/>
<polygon fill="midnightblue" stroke="midnightblue" points="241.25,-207.15 230.77,-208.72 239.94,-214.03 241.25,-207.15"/>
</g>
<!-- Node7 -->
<g id="node8" class="node">
<title>Node7</title>
<g id="a_node8"><a xlink:href="classgauri_1_1KeyTypedEvent.html" target="_top" xlink:title=" ">
<polygon fill="white" stroke="black" points="324.5,-190.5 324.5,-209.5 446.5,-209.5 446.5,-190.5 324.5,-190.5"/>
<text text-anchor="middle" x="385.5" y="-197.5" font-family="Helvetica,sans-Serif" font-size="10.00">gauri::KeyTypedEvent</text>
</a>
</g>
</g>
<!-- Node4&#45;&gt;Node7 -->
<g id="edge7" class="edge">
<title>Node4&#45;&gt;Node7</title>
<path fill="none" stroke="midnightblue" d="M240.82,-200C266.78,-200 297.7,-200 324.19,-200"/>
<polygon fill="midnightblue" stroke="midnightblue" points="240.77,-196.5 230.77,-200 240.77,-203.5 240.77,-196.5"/>
</g>
<!-- Node9 -->
<g id="node10" class="node">
<title>Node9</title>
<g id="a_node10"><a xlink:href="classgauri_1_1MouseButtonPressedEvent.html" target="_top" xlink:title=" ">
<polygon fill="white" stroke="black" points="296.5,-152.5 296.5,-171.5 474.5,-171.5 474.5,-152.5 296.5,-152.5"/>
<text text-anchor="middle" x="385.5" y="-159.5" font-family="Helvetica,sans-Serif" font-size="10.00">gauri::MouseButtonPressedEvent</text>
</a>
</g>
</g>
<!-- Node8&#45;&gt;Node9 -->
<g id="edge9" class="edge">
<title>Node8&#45;&gt;Node9</title>
<path fill="none" stroke="midnightblue" d="M264.24,-162C274.82,-162 285.71,-162 296.43,-162"/>
<polygon fill="midnightblue" stroke="midnightblue" points="264.22,-158.5 254.22,-162 264.22,-165.5 264.22,-158.5"/>
</g>
<!-- Node10 -->
<g id="node11" class="node">
<title>Node10</title>
<g id="a_node11"><a xlink:href="classgauri_1_1MouseButtonReleasedEvent.html" target="_top" xlink:title=" ">
<polygon fill="white" stroke="black" points="293,-114.5 293,-133.5 478,-133.5 478,-114.5 293,-114.5"/>
<text text-anchor="middle" x="385.5" y="-121.5" font-family="Helvetica,sans-Serif" font-size="10.00">gauri::MouseButtonReleasedEvent</text>
</a>
</g>
</g>
<!-- Node8&#45;&gt;Node10 -->
<g id="edge10" class="edge">
<title>Node8&#45;&gt;Node10</title>
<path fill="none" stroke="midnightblue" d="M244.95,-150.58C273.49,-145.14 307.24,-138.72 334.39,-133.54"/>
<polygon fill="midnightblue" stroke="midnightblue" points="244.25,-147.15 235.08,-152.46 245.56,-154.03 244.25,-147.15"/>
</g>
</g>
</svg>
