<?xml version="1.0" encoding="UTF-8" standalone="no"?>
<!DOCTYPE svg PUBLIC "-//W3C//DTD SVG 1.1//EN"
 "http://www.w3.org/Graphics/SVG/1.1/DTD/svg11.dtd">
<!-- Generated by graphviz version 2.43.0 (0)
 -->
<!-- Title: /home/runner/work/gauri/gauri/gauri/include/gauri/core/input.h Pages: 1 -->
<svg width="741pt" height="140pt"
 viewBox="0.00 0.00 741.00 140.00" xmlns="http://www.w3.org/2000/svg" xmlns:xlink="http://www.w3.org/1999/xlink">
<g id="graph0" class="graph" transform="scale(1 1) rotate(0) translate(4 136)">
<title>/home/runner/work/gauri/gauri/gauri/include/gauri/core/input.h</title>
<polygon fill="white" stroke="transparent" points="-4,4 -4,-136 737,-136 737,4 -4,4"/>
<!-- Node1 -->
<g id="node1" class="node">
<title>Node1</title>
<g id="a_node1"><a xlink:title=" ">
<polygon fill="#bfbfbf" stroke="black" points="192.5,-112.5 192.5,-131.5 511.5,-131.5 511.5,-112.5 192.5,-112.5"/>
<text text-anchor="middle" x="352" y="-119.5" font-family="Helvetica,sans-Serif" font-size="10.00">/home/runner/work/gauri/gauri/gauri/include/gauri/core/input.h</text>
</a>
</g>
</g>
<!-- Node2 -->
<g id="node2" class="node">
<title>Node2</title>
<g id="a_node2"><a xlink:href="gauri_8h.html" target="_top" xlink:title=" ">
<polygon fill="white" stroke="black" points="41.5,-56.5 41.5,-75.5 308.5,-75.5 308.5,-56.5 41.5,-56.5"/>
<text text-anchor="middle" x="175" y="-63.5" font-family="Helvetica,sans-Serif" font-size="10.00">/home/runner/work/gauri/gauri/gauri/include/gauri.h</text>
</a>
</g>
</g>
<!-- Node1&#45;&gt;Node2 -->
<g id="edge1" class="edge">
<title>Node1&#45;&gt;Node2</title>
<path fill="none" stroke="midnightblue" d="M314.1,-109.44C280.72,-99.26 232.9,-84.66 202.91,-75.52"/>
<polygon fill="midnightblue" stroke="midnightblue" points="313.37,-112.87 323.95,-112.44 315.41,-106.18 313.37,-112.87"/>
</g>
<!-- Node4 -->
<g id="node4" class="node">
<title>Node4</title>
<g id="a_node4"><a xlink:href="windows__input_8h.html" target="_top" xlink:title=" ">
<polygon fill="white" stroke="black" points="327,-56.5 327,-75.5 733,-75.5 733,-56.5 327,-56.5"/>
<text text-anchor="middle" x="530" y="-63.5" font-family="Helvetica,sans-Serif" font-size="10.00">/home/runner/work/gauri/gauri/gauri/include/platform/windows/windows_input.h</text>
</a>
</g>
</g>
<!-- Node1&#45;&gt;Node4 -->
<g id="edge3" class="edge">
<title>Node1&#45;&gt;Node4</title>
<path fill="none" stroke="midnightblue" d="M390.12,-109.44C423.68,-99.26 471.77,-84.66 501.93,-75.52"/>
<polygon fill="midnightblue" stroke="midnightblue" points="388.76,-106.19 380.2,-112.44 390.79,-112.89 388.76,-106.19"/>
</g>
<!-- Node3 -->
<g id="node3" class="node">
<title>Node3</title>
<g id="a_node3"><a xlink:href="entry__point_8h.html" target="_top" xlink:title=" ">
<polygon fill="white" stroke="black" points="0,-0.5 0,-19.5 350,-19.5 350,-0.5 0,-0.5"/>
<text text-anchor="middle" x="175" y="-7.5" font-family="Helvetica,sans-Serif" font-size="10.00">/home/runner/work/gauri/gauri/gauri/include/gauri/core/entry_point.h</text>
</a>
</g>
</g>
<!-- Node2&#45;&gt;Node3 -->
<g id="edge2" class="edge">
<title>Node2&#45;&gt;Node3</title>
<path fill="none" stroke="midnightblue" d="M175,-45.8C175,-36.91 175,-26.78 175,-19.75"/>
<polygon fill="midnightblue" stroke="midnightblue" points="171.5,-46.08 175,-56.08 178.5,-46.08 171.5,-46.08"/>
</g>
</g>
</svg>
