<?xml version="1.0" encoding="UTF-8" standalone="no"?>
<!DOCTYPE svg PUBLIC "-//W3C//DTD SVG 1.1//EN"
 "http://www.w3.org/Graphics/SVG/1.1/DTD/svg11.dtd">
<!-- Generated by graphviz version 2.43.0 (0)
 -->
<!-- Title: /home/runner/work/gauri/gauri/gauri/include/gauri/core/input.h Pages: 1 -->
<svg width="493pt" height="196pt"
 viewBox="0.00 0.00 493.00 196.00" xmlns="http://www.w3.org/2000/svg" xmlns:xlink="http://www.w3.org/1999/xlink">
<g id="graph0" class="graph" transform="scale(1 1) rotate(0) translate(4 192)">
<title>/home/runner/work/gauri/gauri/gauri/include/gauri/core/input.h</title>
<polygon fill="white" stroke="transparent" points="-4,4 -4,-192 489,-192 489,4 -4,4"/>
<!-- Node1 -->
<g id="node1" class="node">
<title>Node1</title>
<g id="a_node1"><a xlink:title=" ">
<polygon fill="#bfbfbf" stroke="black" points="0,-168.5 0,-187.5 319,-187.5 319,-168.5 0,-168.5"/>
<text text-anchor="middle" x="159.5" y="-175.5" font-family="Helvetica,sans-Serif" font-size="10.00">/home/runner/work/gauri/gauri/gauri/include/gauri/core/input.h</text>
</a>
</g>
</g>
<!-- Node2 -->
<g id="node2" class="node">
<title>Node2</title>
<g id="a_node2"><a xlink:href="core_8h.html" target="_top" xlink:title=" ">
<polygon fill="white" stroke="black" points="110.5,-112.5 110.5,-131.5 208.5,-131.5 208.5,-112.5 110.5,-112.5"/>
<text text-anchor="middle" x="159.5" y="-119.5" font-family="Helvetica,sans-Serif" font-size="10.00">gauri/core/core.h</text>
</a>
</g>
</g>
<!-- Node1&#45;&gt;Node2 -->
<g id="edge1" class="edge">
<title>Node1&#45;&gt;Node2</title>
<path fill="none" stroke="midnightblue" d="M159.5,-168.08C159.5,-161.01 159.5,-150.86 159.5,-141.99"/>
<polygon fill="midnightblue" stroke="midnightblue" points="163,-141.75 159.5,-131.75 156,-141.75 163,-141.75"/>
</g>
<!-- Node3 -->
<g id="node3" class="node">
<title>Node3</title>
<g id="a_node3"><a xlink:title=" ">
<polygon fill="white" stroke="#bfbfbf" points="81.5,-56.5 81.5,-75.5 131.5,-75.5 131.5,-56.5 81.5,-56.5"/>
<text text-anchor="middle" x="106.5" y="-63.5" font-family="Helvetica,sans-Serif" font-size="10.00">cstdint</text>
</a>
</g>
</g>
<!-- Node2&#45;&gt;Node3 -->
<g id="edge2" class="edge">
<title>Node2&#45;&gt;Node3</title>
<path fill="none" stroke="midnightblue" d="M150.75,-112.08C143.03,-104.22 131.6,-92.57 122.28,-83.08"/>
<polygon fill="midnightblue" stroke="midnightblue" points="124.59,-80.44 115.09,-75.75 119.6,-85.34 124.59,-80.44"/>
</g>
<!-- Node4 -->
<g id="node4" class="node">
<title>Node4</title>
<g id="a_node4"><a xlink:title=" ">
<polygon fill="white" stroke="#bfbfbf" points="130.5,-0.5 130.5,-19.5 188.5,-19.5 188.5,-0.5 130.5,-0.5"/>
<text text-anchor="middle" x="159.5" y="-7.5" font-family="Helvetica,sans-Serif" font-size="10.00">memory</text>
</a>
</g>
</g>
<!-- Node2&#45;&gt;Node4 -->
<g id="edge3" class="edge">
<title>Node2&#45;&gt;Node4</title>
<path fill="none" stroke="midnightblue" d="M159.5,-112.37C159.5,-94.62 159.5,-53.67 159.5,-29.6"/>
<polygon fill="midnightblue" stroke="midnightblue" points="163,-29.59 159.5,-19.59 156,-29.59 163,-29.59"/>
</g>
<!-- Node5 -->
<g id="node5" class="node">
<title>Node5</title>
<g id="a_node5"><a xlink:href="logger_8h.html" target="_top" xlink:title=" ">
<polygon fill="white" stroke="black" points="188,-56.5 188,-75.5 295,-75.5 295,-56.5 188,-56.5"/>
<text text-anchor="middle" x="241.5" y="-63.5" font-family="Helvetica,sans-Serif" font-size="10.00">gauri/core/logger.h</text>
</a>
</g>
</g>
<!-- Node2&#45;&gt;Node5 -->
<g id="edge4" class="edge">
<title>Node2&#45;&gt;Node5</title>
<path fill="none" stroke="midnightblue" d="M172.67,-112.32C185.35,-103.98 204.73,-91.21 219.71,-81.35"/>
<polygon fill="midnightblue" stroke="midnightblue" points="221.93,-84.08 228.36,-75.65 218.08,-78.23 221.93,-84.08"/>
</g>
<!-- Node5&#45;&gt;Node4 -->
<g id="edge6" class="edge">
<title>Node5&#45;&gt;Node4</title>
<path fill="none" stroke="midnightblue" d="M228.33,-56.32C215.65,-47.98 196.27,-35.21 181.29,-25.35"/>
<polygon fill="midnightblue" stroke="midnightblue" points="182.92,-22.23 172.64,-19.65 179.07,-28.08 182.92,-22.23"/>
</g>
<!-- Node6 -->
<g id="node6" class="node">
<title>Node6</title>
<g id="a_node6"><a xlink:title=" ">
<polygon fill="white" stroke="#bfbfbf" points="206.5,-0.5 206.5,-19.5 256.5,-19.5 256.5,-0.5 206.5,-0.5"/>
<text text-anchor="middle" x="231.5" y="-7.5" font-family="Helvetica,sans-Serif" font-size="10.00">format</text>
</a>
</g>
</g>
<!-- Node5&#45;&gt;Node6 -->
<g id="edge5" class="edge">
<title>Node5&#45;&gt;Node6</title>
<path fill="none" stroke="midnightblue" d="M239.85,-56.08C238.52,-48.93 236.62,-38.64 234.96,-29.69"/>
<polygon fill="midnightblue" stroke="midnightblue" points="238.38,-28.95 233.12,-19.75 231.5,-30.22 238.38,-28.95"/>
</g>
<!-- Node7 -->
<g id="node7" class="node">
<title>Node7</title>
<g id="a_node7"><a xlink:title=" ">
<polygon fill="white" stroke="#bfbfbf" points="275,-0.5 275,-19.5 374,-19.5 374,-0.5 275,-0.5"/>
<text text-anchor="middle" x="324.5" y="-7.5" font-family="Helvetica,sans-Serif" font-size="10.00">spdlog/fmt/ostr.h</text>
</a>
</g>
</g>
<!-- Node5&#45;&gt;Node7 -->
<g id="edge7" class="edge">
<title>Node5&#45;&gt;Node7</title>
<path fill="none" stroke="midnightblue" d="M254.84,-56.32C267.66,-47.98 287.28,-35.21 302.44,-25.35"/>
<polygon fill="midnightblue" stroke="midnightblue" points="304.72,-28.04 311.2,-19.65 300.91,-22.17 304.72,-28.04"/>
</g>
<!-- Node8 -->
<g id="node8" class="node">
<title>Node8</title>
<g id="a_node8"><a xlink:title=" ">
<polygon fill="white" stroke="#bfbfbf" points="392,-0.5 392,-19.5 485,-19.5 485,-0.5 392,-0.5"/>
<text text-anchor="middle" x="438.5" y="-7.5" font-family="Helvetica,sans-Serif" font-size="10.00">spdlog/spdlog.h</text>
</a>
</g>
</g>
<!-- Node5&#45;&gt;Node8 -->
<g id="edge8" class="edge">
<title>Node5&#45;&gt;Node8</title>
<path fill="none" stroke="midnightblue" d="M272.72,-56.44C306.43,-47.2 360.3,-32.44 397.43,-22.26"/>
<polygon fill="midnightblue" stroke="midnightblue" points="398.71,-25.54 407.43,-19.52 396.86,-18.78 398.71,-25.54"/>
</g>
</g>
</svg>
