<?xml version="1.0" encoding="UTF-8" standalone="no"?>
<!DOCTYPE svg PUBLIC "-//W3C//DTD SVG 1.1//EN"
 "http://www.w3.org/Graphics/SVG/1.1/DTD/svg11.dtd">
<!-- Generated by graphviz version 2.43.0 (0)
 -->
<!-- Title: /home/runner/work/gauri/gauri/gauri/include/gauri/debug/instrumentor.h Pages: 1 -->
<svg width="373pt" height="140pt"
 viewBox="0.00 0.00 373.00 140.00" xmlns="http://www.w3.org/2000/svg" xmlns:xlink="http://www.w3.org/1999/xlink">
<g id="graph0" class="graph" transform="scale(1 1) rotate(0) translate(4 136)">
<title>/home/runner/work/gauri/gauri/gauri/include/gauri/debug/instrumentor.h</title>
<polygon fill="white" stroke="transparent" points="-4,4 -4,-136 369,-136 369,4 -4,4"/>
<!-- Node1 -->
<g id="node1" class="node">
<title>Node1</title>
<g id="a_node1"><a xlink:title=" ">
<polygon fill="#bfbfbf" stroke="black" points="0,-112.5 0,-131.5 365,-131.5 365,-112.5 0,-112.5"/>
<text text-anchor="middle" x="182.5" y="-119.5" font-family="Helvetica,sans-Serif" font-size="10.00">/home/runner/work/gauri/gauri/gauri/include/gauri/debug/instrumentor.h</text>
</a>
</g>
</g>
<!-- Node2 -->
<g id="node2" class="node">
<title>Node2</title>
<g id="a_node2"><a xlink:href="gauri_8h.html" target="_top" xlink:title=" ">
<polygon fill="white" stroke="black" points="49,-56.5 49,-75.5 316,-75.5 316,-56.5 49,-56.5"/>
<text text-anchor="middle" x="182.5" y="-63.5" font-family="Helvetica,sans-Serif" font-size="10.00">/home/runner/work/gauri/gauri/gauri/include/gauri.h</text>
</a>
</g>
</g>
<!-- Node1&#45;&gt;Node2 -->
<g id="edge1" class="edge">
<title>Node1&#45;&gt;Node2</title>
<path fill="none" stroke="midnightblue" d="M182.5,-101.8C182.5,-92.91 182.5,-82.78 182.5,-75.75"/>
<polygon fill="midnightblue" stroke="midnightblue" points="179,-102.08 182.5,-112.08 186,-102.08 179,-102.08"/>
</g>
<!-- Node3 -->
<g id="node3" class="node">
<title>Node3</title>
<g id="a_node3"><a xlink:href="entry__point_8h.html" target="_top" xlink:title=" ">
<polygon fill="white" stroke="black" points="7.5,-0.5 7.5,-19.5 357.5,-19.5 357.5,-0.5 7.5,-0.5"/>
<text text-anchor="middle" x="182.5" y="-7.5" font-family="Helvetica,sans-Serif" font-size="10.00">/home/runner/work/gauri/gauri/gauri/include/gauri/core/entry_point.h</text>
</a>
</g>
</g>
<!-- Node2&#45;&gt;Node3 -->
<g id="edge2" class="edge">
<title>Node2&#45;&gt;Node3</title>
<path fill="none" stroke="midnightblue" d="M182.5,-45.8C182.5,-36.91 182.5,-26.78 182.5,-19.75"/>
<polygon fill="midnightblue" stroke="midnightblue" points="179,-46.08 182.5,-56.08 186,-46.08 179,-46.08"/>
</g>
</g>
</svg>
