<?xml version="1.0" encoding="UTF-8" standalone="no"?>
<!DOCTYPE svg PUBLIC "-//W3C//DTD SVG 1.1//EN"
 "http://www.w3.org/Graphics/SVG/1.1/DTD/svg11.dtd">
<!-- Generated by graphviz version 2.43.0 (0)
 -->
<!-- Title: /home/runner/work/gauri/gauri/gauri/include/gauri/layer.h Pages: 1 -->
<svg width="371pt" height="252pt"
 viewBox="0.00 0.00 371.00 252.00" xmlns="http://www.w3.org/2000/svg" xmlns:xlink="http://www.w3.org/1999/xlink">
<g id="graph0" class="graph" transform="scale(1 1) rotate(0) translate(4 248)">
<title>/home/runner/work/gauri/gauri/gauri/include/gauri/layer.h</title>
<polygon fill="white" stroke="transparent" points="-4,4 -4,-248 367,-248 367,4 -4,4"/>
<!-- Node1 -->
<g id="node1" class="node">
<title>Node1</title>
<g id="a_node1"><a xlink:title=" ">
<polygon fill="#bfbfbf" stroke="black" points="0,-224.5 0,-243.5 294,-243.5 294,-224.5 0,-224.5"/>
<text text-anchor="middle" x="147" y="-231.5" font-family="Helvetica,sans-Serif" font-size="10.00">/home/runner/work/gauri/gauri/gauri/include/gauri/layer.h</text>
</a>
</g>
</g>
<!-- Node2 -->
<g id="node2" class="node">
<title>Node2</title>
<g id="a_node2"><a xlink:href="core_8h.html" target="_top" xlink:title=" ">
<polygon fill="white" stroke="black" points="49,-112.5 49,-131.5 123,-131.5 123,-112.5 49,-112.5"/>
<text text-anchor="middle" x="86" y="-119.5" font-family="Helvetica,sans-Serif" font-size="10.00">gauri/core.h</text>
</a>
</g>
</g>
<!-- Node1&#45;&gt;Node2 -->
<g id="edge1" class="edge">
<title>Node1&#45;&gt;Node2</title>
<path fill="none" stroke="midnightblue" d="M121.5,-224.47C105.01,-217.48 84.86,-205.79 75,-188 66.95,-173.48 71.55,-154.55 77.06,-140.87"/>
<polygon fill="midnightblue" stroke="midnightblue" points="80.32,-142.14 81.24,-131.59 73.94,-139.26 80.32,-142.14"/>
</g>
<!-- Node9 -->
<g id="node9" class="node">
<title>Node9</title>
<g id="a_node9"><a xlink:href="time__step_8h.html" target="_top" xlink:title=" ">
<polygon fill="white" stroke="black" points="84,-168.5 84,-187.5 210,-187.5 210,-168.5 84,-168.5"/>
<text text-anchor="middle" x="147" y="-175.5" font-family="Helvetica,sans-Serif" font-size="10.00">gauri/core/time_step.h</text>
</a>
</g>
</g>
<!-- Node1&#45;&gt;Node9 -->
<g id="edge9" class="edge">
<title>Node1&#45;&gt;Node9</title>
<path fill="none" stroke="midnightblue" d="M147,-224.08C147,-217.01 147,-206.86 147,-197.99"/>
<polygon fill="midnightblue" stroke="midnightblue" points="150.5,-197.75 147,-187.75 143.5,-197.75 150.5,-197.75"/>
</g>
<!-- Node10 -->
<g id="node10" class="node">
<title>Node10</title>
<g id="a_node10"><a xlink:href="event_8h.html" target="_top" xlink:title=" ">
<polygon fill="white" stroke="black" points="228,-168.5 228,-187.5 340,-187.5 340,-168.5 228,-168.5"/>
<text text-anchor="middle" x="284" y="-175.5" font-family="Helvetica,sans-Serif" font-size="10.00">gauri/event/event.h</text>
</a>
</g>
</g>
<!-- Node1&#45;&gt;Node10 -->
<g id="edge10" class="edge">
<title>Node1&#45;&gt;Node10</title>
<path fill="none" stroke="midnightblue" d="M168.71,-224.44C191.35,-215.52 227.07,-201.44 252.75,-191.32"/>
<polygon fill="midnightblue" stroke="midnightblue" points="254.37,-194.44 262.39,-187.52 251.81,-187.93 254.37,-194.44"/>
</g>
<!-- Node3 -->
<g id="node3" class="node">
<title>Node3</title>
<g id="a_node3"><a xlink:title=" ">
<polygon fill="white" stroke="#bfbfbf" points="270,-56.5 270,-75.5 320,-75.5 320,-56.5 270,-56.5"/>
<text text-anchor="middle" x="295" y="-63.5" font-family="Helvetica,sans-Serif" font-size="10.00">cstdint</text>
</a>
</g>
</g>
<!-- Node2&#45;&gt;Node3 -->
<g id="edge2" class="edge">
<title>Node2&#45;&gt;Node3</title>
<path fill="none" stroke="midnightblue" d="M119.12,-112.44C157.58,-102.51 220.75,-86.18 260,-76.04"/>
<polygon fill="midnightblue" stroke="midnightblue" points="261.1,-79.37 269.91,-73.48 259.35,-72.6 261.1,-79.37"/>
</g>
<!-- Node4 -->
<g id="node4" class="node">
<title>Node4</title>
<g id="a_node4"><a xlink:title=" ">
<polygon fill="white" stroke="#bfbfbf" points="8,-0.5 8,-19.5 66,-19.5 66,-0.5 8,-0.5"/>
<text text-anchor="middle" x="37" y="-7.5" font-family="Helvetica,sans-Serif" font-size="10.00">memory</text>
</a>
</g>
</g>
<!-- Node2&#45;&gt;Node4 -->
<g id="edge3" class="edge">
<title>Node2&#45;&gt;Node4</title>
<path fill="none" stroke="midnightblue" d="M82.16,-112.37C74.18,-94.46 55.67,-52.92 45,-28.95"/>
<polygon fill="midnightblue" stroke="midnightblue" points="48.09,-27.3 40.83,-19.59 41.7,-30.15 48.09,-27.3"/>
</g>
<!-- Node5 -->
<g id="node5" class="node">
<title>Node5</title>
<g id="a_node5"><a xlink:href="logger_8h.html" target="_top" xlink:title=" ">
<polygon fill="white" stroke="black" points="92.5,-56.5 92.5,-75.5 175.5,-75.5 175.5,-56.5 92.5,-56.5"/>
<text text-anchor="middle" x="134" y="-63.5" font-family="Helvetica,sans-Serif" font-size="10.00">gauri/logger.h</text>
</a>
</g>
</g>
<!-- Node2&#45;&gt;Node5 -->
<g id="edge4" class="edge">
<title>Node2&#45;&gt;Node5</title>
<path fill="none" stroke="midnightblue" d="M93.93,-112.08C100.85,-104.3 111.07,-92.8 119.45,-83.37"/>
<polygon fill="midnightblue" stroke="midnightblue" points="122.19,-85.55 126.22,-75.75 116.96,-80.9 122.19,-85.55"/>
</g>
<!-- Node5&#45;&gt;Node4 -->
<g id="edge6" class="edge">
<title>Node5&#45;&gt;Node4</title>
<path fill="none" stroke="midnightblue" d="M118.42,-56.32C103,-47.74 79.19,-34.49 61.29,-24.52"/>
<polygon fill="midnightblue" stroke="midnightblue" points="62.99,-21.46 52.55,-19.65 59.58,-27.58 62.99,-21.46"/>
</g>
<!-- Node6 -->
<g id="node6" class="node">
<title>Node6</title>
<g id="a_node6"><a xlink:title=" ">
<polygon fill="white" stroke="#bfbfbf" points="313,-0.5 313,-19.5 363,-19.5 363,-0.5 313,-0.5"/>
<text text-anchor="middle" x="338" y="-7.5" font-family="Helvetica,sans-Serif" font-size="10.00">format</text>
</a>
</g>
</g>
<!-- Node5&#45;&gt;Node6 -->
<g id="edge5" class="edge">
<title>Node5&#45;&gt;Node6</title>
<path fill="none" stroke="midnightblue" d="M166.32,-56.44C203.66,-46.56 264.85,-30.36 303.2,-20.21"/>
<polygon fill="midnightblue" stroke="midnightblue" points="304.13,-23.59 312.9,-17.64 302.34,-16.82 304.13,-23.59"/>
</g>
<!-- Node7 -->
<g id="node7" class="node">
<title>Node7</title>
<g id="a_node7"><a xlink:title=" ">
<polygon fill="white" stroke="#bfbfbf" points="84.5,-0.5 84.5,-19.5 183.5,-19.5 183.5,-0.5 84.5,-0.5"/>
<text text-anchor="middle" x="134" y="-7.5" font-family="Helvetica,sans-Serif" font-size="10.00">spdlog/fmt/ostr.h</text>
</a>
</g>
</g>
<!-- Node5&#45;&gt;Node7 -->
<g id="edge7" class="edge">
<title>Node5&#45;&gt;Node7</title>
<path fill="none" stroke="midnightblue" d="M134,-56.08C134,-49.01 134,-38.86 134,-29.99"/>
<polygon fill="midnightblue" stroke="midnightblue" points="137.5,-29.75 134,-19.75 130.5,-29.75 137.5,-29.75"/>
</g>
<!-- Node8 -->
<g id="node8" class="node">
<title>Node8</title>
<g id="a_node8"><a xlink:title=" ">
<polygon fill="white" stroke="#bfbfbf" points="201.5,-0.5 201.5,-19.5 294.5,-19.5 294.5,-0.5 201.5,-0.5"/>
<text text-anchor="middle" x="248" y="-7.5" font-family="Helvetica,sans-Serif" font-size="10.00">spdlog/spdlog.h</text>
</a>
</g>
</g>
<!-- Node5&#45;&gt;Node8 -->
<g id="edge8" class="edge">
<title>Node5&#45;&gt;Node8</title>
<path fill="none" stroke="midnightblue" d="M152.06,-56.44C170.57,-47.68 199.58,-33.94 220.86,-23.86"/>
<polygon fill="midnightblue" stroke="midnightblue" points="222.48,-26.96 230.02,-19.52 219.49,-20.63 222.48,-26.96"/>
</g>
<!-- Node10&#45;&gt;Node2 -->
<g id="edge15" class="edge">
<title>Node10&#45;&gt;Node2</title>
<path fill="none" stroke="midnightblue" d="M252.63,-168.44C218.74,-159.2 164.6,-144.44 127.28,-134.26"/>
<polygon fill="midnightblue" stroke="midnightblue" points="127.8,-130.77 117.23,-131.52 125.95,-137.52 127.8,-130.77"/>
</g>
<!-- Node10&#45;&gt;Node3 -->
<g id="edge11" class="edge">
<title>Node10&#45;&gt;Node3</title>
<path fill="none" stroke="midnightblue" d="M307.45,-168.41C323.16,-161.28 342.62,-149.46 352,-132 362.72,-112.05 341,-93.04 321.36,-80.79"/>
<polygon fill="midnightblue" stroke="midnightblue" points="323,-77.69 312.6,-75.65 319.46,-83.73 323,-77.69"/>
</g>
<!-- Node11 -->
<g id="node11" class="node">
<title>Node11</title>
<g id="a_node11"><a xlink:title=" ">
<polygon fill="white" stroke="#bfbfbf" points="141.5,-112.5 141.5,-131.5 206.5,-131.5 206.5,-112.5 141.5,-112.5"/>
<text text-anchor="middle" x="174" y="-119.5" font-family="Helvetica,sans-Serif" font-size="10.00">functional</text>
</a>
</g>
</g>
<!-- Node10&#45;&gt;Node11 -->
<g id="edge12" class="edge">
<title>Node10&#45;&gt;Node11</title>
<path fill="none" stroke="midnightblue" d="M266.33,-168.32C248.61,-159.62 221.1,-146.12 200.71,-136.11"/>
<polygon fill="midnightblue" stroke="midnightblue" points="202.15,-132.92 191.63,-131.65 199.06,-139.2 202.15,-132.92"/>
</g>
<!-- Node12 -->
<g id="node12" class="node">
<title>Node12</title>
<g id="a_node12"><a xlink:title=" ">
<polygon fill="white" stroke="#bfbfbf" points="225,-112.5 225,-131.5 281,-131.5 281,-112.5 225,-112.5"/>
<text text-anchor="middle" x="253" y="-119.5" font-family="Helvetica,sans-Serif" font-size="10.00">sstream</text>
</a>
</g>
</g>
<!-- Node10&#45;&gt;Node12 -->
<g id="edge13" class="edge">
<title>Node10&#45;&gt;Node12</title>
<path fill="none" stroke="midnightblue" d="M278.88,-168.08C274.59,-160.61 268.34,-149.72 263.06,-140.52"/>
<polygon fill="midnightblue" stroke="midnightblue" points="266.04,-138.68 258.02,-131.75 259.97,-142.17 266.04,-138.68"/>
</g>
<!-- Node13 -->
<g id="node13" class="node">
<title>Node13</title>
<g id="a_node13"><a xlink:title=" ">
<polygon fill="white" stroke="#bfbfbf" points="299,-112.5 299,-131.5 343,-131.5 343,-112.5 299,-112.5"/>
<text text-anchor="middle" x="321" y="-119.5" font-family="Helvetica,sans-Serif" font-size="10.00">string</text>
</a>
</g>
</g>
<!-- Node10&#45;&gt;Node13 -->
<g id="edge14" class="edge">
<title>Node10&#45;&gt;Node13</title>
<path fill="none" stroke="midnightblue" d="M290.11,-168.08C295.28,-160.53 302.85,-149.49 309.19,-140.23"/>
<polygon fill="midnightblue" stroke="midnightblue" points="312.24,-141.98 315,-131.75 306.46,-138.02 312.24,-141.98"/>
</g>
</g>
</svg>
