<?xml version="1.0" encoding="UTF-8" standalone="no"?>
<!DOCTYPE svg PUBLIC "-//W3C//DTD SVG 1.1//EN"
 "http://www.w3.org/Graphics/SVG/1.1/DTD/svg11.dtd">
<!-- Generated by graphviz version 2.43.0 (0)
 -->
<!-- Title: /home/runner/work/gauri/gauri/gauri/include/gauri/core/layer_stack.h Pages: 1 -->
<svg width="358pt" height="196pt"
 viewBox="0.00 0.00 358.00 196.00" xmlns="http://www.w3.org/2000/svg" xmlns:xlink="http://www.w3.org/1999/xlink">
<g id="graph0" class="graph" transform="scale(1 1) rotate(0) translate(4 192)">
<title>/home/runner/work/gauri/gauri/gauri/include/gauri/core/layer_stack.h</title>
<polygon fill="white" stroke="transparent" points="-4,4 -4,-192 354,-192 354,4 -4,4"/>
<!-- Node1 -->
<g id="node1" class="node">
<title>Node1</title>
<g id="a_node1"><a xlink:title=" ">
<polygon fill="#bfbfbf" stroke="black" points="0,-168.5 0,-187.5 350,-187.5 350,-168.5 0,-168.5"/>
<text text-anchor="middle" x="175" y="-175.5" font-family="Helvetica,sans-Serif" font-size="10.00">/home/runner/work/gauri/gauri/gauri/include/gauri/core/layer_stack.h</text>
</a>
</g>
</g>
<!-- Node2 -->
<g id="node2" class="node">
<title>Node2</title>
<g id="a_node2"><a xlink:href="application_8h.html" target="_top" xlink:title=" ">
<polygon fill="white" stroke="black" points="1,-112.5 1,-131.5 349,-131.5 349,-112.5 1,-112.5"/>
<text text-anchor="middle" x="175" y="-119.5" font-family="Helvetica,sans-Serif" font-size="10.00">/home/runner/work/gauri/gauri/gauri/include/gauri/core/application.h</text>
</a>
</g>
</g>
<!-- Node1&#45;&gt;Node2 -->
<g id="edge1" class="edge">
<title>Node1&#45;&gt;Node2</title>
<path fill="none" stroke="midnightblue" d="M175,-157.8C175,-148.91 175,-138.78 175,-131.75"/>
<polygon fill="midnightblue" stroke="midnightblue" points="171.5,-158.08 175,-168.08 178.5,-158.08 171.5,-158.08"/>
</g>
<!-- Node3 -->
<g id="node3" class="node">
<title>Node3</title>
<g id="a_node3"><a xlink:href="gauri_8h.html" target="_top" xlink:title=" ">
<polygon fill="white" stroke="black" points="41.5,-56.5 41.5,-75.5 308.5,-75.5 308.5,-56.5 41.5,-56.5"/>
<text text-anchor="middle" x="175" y="-63.5" font-family="Helvetica,sans-Serif" font-size="10.00">/home/runner/work/gauri/gauri/gauri/include/gauri.h</text>
</a>
</g>
</g>
<!-- Node2&#45;&gt;Node3 -->
<g id="edge2" class="edge">
<title>Node2&#45;&gt;Node3</title>
<path fill="none" stroke="midnightblue" d="M175,-101.8C175,-92.91 175,-82.78 175,-75.75"/>
<polygon fill="midnightblue" stroke="midnightblue" points="171.5,-102.08 175,-112.08 178.5,-102.08 171.5,-102.08"/>
</g>
<!-- Node4 -->
<g id="node4" class="node">
<title>Node4</title>
<g id="a_node4"><a xlink:href="entry__point_8h.html" target="_top" xlink:title=" ">
<polygon fill="white" stroke="black" points="0,-0.5 0,-19.5 350,-19.5 350,-0.5 0,-0.5"/>
<text text-anchor="middle" x="175" y="-7.5" font-family="Helvetica,sans-Serif" font-size="10.00">/home/runner/work/gauri/gauri/gauri/include/gauri/core/entry_point.h</text>
</a>
</g>
</g>
<!-- Node3&#45;&gt;Node4 -->
<g id="edge3" class="edge">
<title>Node3&#45;&gt;Node4</title>
<path fill="none" stroke="midnightblue" d="M168.53,-46.1C167.9,-37.14 168.34,-26.86 169.87,-19.75"/>
<polygon fill="midnightblue" stroke="midnightblue" points="165.07,-46.62 169.83,-56.08 172.01,-45.71 165.07,-46.62"/>
</g>
<!-- Node4&#45;&gt;Node3 -->
<g id="edge4" class="edge">
<title>Node4&#45;&gt;Node3</title>
<path fill="none" stroke="midnightblue" d="M181.46,-29.69C182.11,-38.64 181.68,-48.93 180.17,-56.08"/>
<polygon fill="midnightblue" stroke="midnightblue" points="184.92,-29.2 180.13,-19.75 177.98,-30.13 184.92,-29.2"/>
</g>
</g>
</svg>
