<?xml version="1.0" encoding="UTF-8" standalone="no"?>
<!DOCTYPE svg PUBLIC "-//W3C//DTD SVG 1.1//EN"
 "http://www.w3.org/Graphics/SVG/1.1/DTD/svg11.dtd">
<!-- Generated by graphviz version 2.43.0 (0)
 -->
<!-- Title: /home/runner/work/gauri/gauri/gauri/include/gauri/core/layer.h Pages: 1 -->
<svg width="746pt" height="252pt"
 viewBox="0.00 0.00 746.46 252.00" xmlns="http://www.w3.org/2000/svg" xmlns:xlink="http://www.w3.org/1999/xlink">
<g id="graph0" class="graph" transform="scale(1 1) rotate(0) translate(4 248)">
<title>/home/runner/work/gauri/gauri/gauri/include/gauri/core/layer.h</title>
<polygon fill="white" stroke="transparent" points="-4,4 -4,-248 742.46,-248 742.46,4 -4,4"/>
<!-- Node1 -->
<g id="node1" class="node">
<title>Node1</title>
<g id="a_node1"><a xlink:title=" ">
<polygon fill="#bfbfbf" stroke="black" points="28.46,-224.5 28.46,-243.5 346.46,-243.5 346.46,-224.5 28.46,-224.5"/>
<text text-anchor="middle" x="187.46" y="-231.5" font-family="Helvetica,sans-Serif" font-size="10.00">/home/runner/work/gauri/gauri/gauri/include/gauri/core/layer.h</text>
</a>
</g>
</g>
<!-- Node2 -->
<g id="node2" class="node">
<title>Node2</title>
<g id="a_node2"><a xlink:href="layer__stack_8h.html" target="_top" xlink:title=" ">
<polygon fill="white" stroke="black" points="12.46,-168.5 12.46,-187.5 362.46,-187.5 362.46,-168.5 12.46,-168.5"/>
<text text-anchor="middle" x="187.46" y="-175.5" font-family="Helvetica,sans-Serif" font-size="10.00">/home/runner/work/gauri/gauri/gauri/include/gauri/core/layer_stack.h</text>
</a>
</g>
</g>
<!-- Node1&#45;&gt;Node2 -->
<g id="edge1" class="edge">
<title>Node1&#45;&gt;Node2</title>
<path fill="none" stroke="midnightblue" d="M187.46,-213.8C187.46,-204.91 187.46,-194.78 187.46,-187.75"/>
<polygon fill="midnightblue" stroke="midnightblue" points="183.96,-214.08 187.46,-224.08 190.96,-214.08 183.96,-214.08"/>
</g>
<!-- Node4 -->
<g id="node4" class="node">
<title>Node4</title>
<g id="a_node4"><a xlink:href="gauri_8h.html" target="_top" xlink:title=" ">
<polygon fill="white" stroke="black" points="95.96,-56.5 95.96,-75.5 362.96,-75.5 362.96,-56.5 95.96,-56.5"/>
<text text-anchor="middle" x="229.46" y="-63.5" font-family="Helvetica,sans-Serif" font-size="10.00">/home/runner/work/gauri/gauri/gauri/include/gauri.h</text>
</a>
</g>
</g>
<!-- Node1&#45;&gt;Node4 -->
<g id="edge9" class="edge">
<title>Node1&#45;&gt;Node4</title>
<path fill="none" stroke="midnightblue" d="M104.77,-222.84C62.14,-215.73 16.41,-204.5 3.46,-188 -2.03,-181.01 0.6,-176.42 3.46,-168 13.55,-138.29 20.19,-129.16 46.46,-112 75.77,-92.86 112.55,-81.86 145.43,-75.53"/>
<polygon fill="midnightblue" stroke="midnightblue" points="104.23,-226.3 114.66,-224.43 105.34,-219.39 104.23,-226.3"/>
</g>
<!-- Node6 -->
<g id="node6" class="node">
<title>Node6</title>
<g id="a_node6"><a xlink:href="imgui__layer_8h.html" target="_top" xlink:title=" ">
<polygon fill="white" stroke="black" points="380.46,-168.5 380.46,-187.5 738.46,-187.5 738.46,-168.5 380.46,-168.5"/>
<text text-anchor="middle" x="559.46" y="-175.5" font-family="Helvetica,sans-Serif" font-size="10.00">/home/runner/work/gauri/gauri/gauri/include/gauri/imgui/imgui_layer.h</text>
</a>
</g>
</g>
<!-- Node1&#45;&gt;Node6 -->
<g id="edge6" class="edge">
<title>Node1&#45;&gt;Node6</title>
<path fill="none" stroke="midnightblue" d="M256.49,-222.98C326.76,-212.78 434.51,-197.14 500.79,-187.52"/>
<polygon fill="midnightblue" stroke="midnightblue" points="255.8,-219.54 246.4,-224.44 256.8,-226.47 255.8,-219.54"/>
</g>
<!-- Node3 -->
<g id="node3" class="node">
<title>Node3</title>
<g id="a_node3"><a xlink:href="application_8h.html" target="_top" xlink:title=" ">
<polygon fill="white" stroke="black" points="55.46,-112.5 55.46,-131.5 403.46,-131.5 403.46,-112.5 55.46,-112.5"/>
<text text-anchor="middle" x="229.46" y="-119.5" font-family="Helvetica,sans-Serif" font-size="10.00">/home/runner/work/gauri/gauri/gauri/include/gauri/core/application.h</text>
</a>
</g>
</g>
<!-- Node2&#45;&gt;Node3 -->
<g id="edge2" class="edge">
<title>Node2&#45;&gt;Node3</title>
<path fill="none" stroke="midnightblue" d="M200.57,-160.14C207.89,-150.74 216.7,-139.4 222.65,-131.75"/>
<polygon fill="midnightblue" stroke="midnightblue" points="197.77,-158.04 194.39,-168.08 203.3,-162.34 197.77,-158.04"/>
</g>
<!-- Node3&#45;&gt;Node4 -->
<g id="edge3" class="edge">
<title>Node3&#45;&gt;Node4</title>
<path fill="none" stroke="midnightblue" d="M229.46,-101.8C229.46,-92.91 229.46,-82.78 229.46,-75.75"/>
<polygon fill="midnightblue" stroke="midnightblue" points="225.96,-102.08 229.46,-112.08 232.96,-102.08 225.96,-102.08"/>
</g>
<!-- Node5 -->
<g id="node5" class="node">
<title>Node5</title>
<g id="a_node5"><a xlink:href="entry__point_8h.html" target="_top" xlink:title=" ">
<polygon fill="white" stroke="black" points="54.46,-0.5 54.46,-19.5 404.46,-19.5 404.46,-0.5 54.46,-0.5"/>
<text text-anchor="middle" x="229.46" y="-7.5" font-family="Helvetica,sans-Serif" font-size="10.00">/home/runner/work/gauri/gauri/gauri/include/gauri/core/entry_point.h</text>
</a>
</g>
</g>
<!-- Node4&#45;&gt;Node5 -->
<g id="edge4" class="edge">
<title>Node4&#45;&gt;Node5</title>
<path fill="none" stroke="midnightblue" d="M222.99,-46.1C222.35,-37.14 222.8,-26.86 224.33,-19.75"/>
<polygon fill="midnightblue" stroke="midnightblue" points="219.52,-46.62 224.29,-56.08 226.47,-45.71 219.52,-46.62"/>
</g>
<!-- Node5&#45;&gt;Node4 -->
<g id="edge5" class="edge">
<title>Node5&#45;&gt;Node4</title>
<path fill="none" stroke="midnightblue" d="M235.92,-29.69C236.57,-38.64 236.13,-48.93 234.63,-56.08"/>
<polygon fill="midnightblue" stroke="midnightblue" points="239.38,-29.2 234.59,-19.75 232.44,-30.13 239.38,-29.2"/>
</g>
<!-- Node6&#45;&gt;Node3 -->
<g id="edge7" class="edge">
<title>Node6&#45;&gt;Node3</title>
<path fill="none" stroke="midnightblue" d="M497.07,-166.79C434.71,-156.59 339.94,-141.08 281.5,-131.52"/>
<polygon fill="midnightblue" stroke="midnightblue" points="496.74,-170.28 507.17,-168.44 497.87,-163.37 496.74,-170.28"/>
</g>
<!-- Node6&#45;&gt;Node4 -->
<g id="edge8" class="edge">
<title>Node6&#45;&gt;Node4</title>
<path fill="none" stroke="midnightblue" d="M533.62,-163.91C504.69,-149.66 456.12,-126.89 412.46,-112 365.86,-96.1 310.8,-83.35 273.34,-75.53"/>
<polygon fill="midnightblue" stroke="midnightblue" points="532.13,-167.08 542.65,-168.4 535.25,-160.82 532.13,-167.08"/>
</g>
</g>
</svg>
