<?xml version="1.0" encoding="UTF-8" standalone="no"?>
<!DOCTYPE svg PUBLIC "-//W3C//DTD SVG 1.1//EN"
 "http://www.w3.org/Graphics/SVG/1.1/DTD/svg11.dtd">
<!-- Generated by graphviz version 2.43.0 (0)
 -->
<!-- Title: /home/runner/work/gauri/gauri/gauri/include/gauri/layer.h Pages: 1 -->
<svg width="722pt" height="252pt"
 viewBox="0.00 0.00 721.92 252.00" xmlns="http://www.w3.org/2000/svg" xmlns:xlink="http://www.w3.org/1999/xlink">
<g id="graph0" class="graph" transform="scale(1 1) rotate(0) translate(4 248)">
<title>/home/runner/work/gauri/gauri/gauri/include/gauri/layer.h</title>
<polygon fill="white" stroke="transparent" points="-4,4 -4,-248 717.92,-248 717.92,4 -4,4"/>
<!-- Node1 -->
<g id="node1" class="node">
<title>Node1</title>
<g id="a_node1"><a xlink:title=" ">
<polygon fill="#bfbfbf" stroke="black" points="392,-224.5 392,-243.5 686,-243.5 686,-224.5 392,-224.5"/>
<text text-anchor="middle" x="539" y="-231.5" font-family="Helvetica,sans-Serif" font-size="10.00">/home/runner/work/gauri/gauri/gauri/include/gauri/layer.h</text>
</a>
</g>
</g>
<!-- Node2 -->
<g id="node2" class="node">
<title>Node2</title>
<g id="a_node2"><a xlink:href="imgui__layer_8h.html" target="_top" xlink:title=" ">
<polygon fill="white" stroke="black" points="0,-168.5 0,-187.5 358,-187.5 358,-168.5 0,-168.5"/>
<text text-anchor="middle" x="179" y="-175.5" font-family="Helvetica,sans-Serif" font-size="10.00">/home/runner/work/gauri/gauri/gauri/include/gauri/imgui/imgui_layer.h</text>
</a>
</g>
</g>
<!-- Node1&#45;&gt;Node2 -->
<g id="edge1" class="edge">
<title>Node1&#45;&gt;Node2</title>
<path fill="none" stroke="midnightblue" d="M471.78,-222.92C403.77,-212.71 299.78,-197.12 235.78,-187.52"/>
<polygon fill="midnightblue" stroke="midnightblue" points="471.55,-226.42 481.96,-224.44 472.59,-219.5 471.55,-226.42"/>
</g>
<!-- Node4 -->
<g id="node4" class="node">
<title>Node4</title>
<g id="a_node4"><a xlink:href="gauri_8h.html" target="_top" xlink:title=" ">
<polygon fill="white" stroke="black" points="363.5,-56.5 363.5,-75.5 630.5,-75.5 630.5,-56.5 363.5,-56.5"/>
<text text-anchor="middle" x="497" y="-63.5" font-family="Helvetica,sans-Serif" font-size="10.00">/home/runner/work/gauri/gauri/gauri/include/gauri.h</text>
</a>
</g>
</g>
<!-- Node1&#45;&gt;Node4 -->
<g id="edge9" class="edge">
<title>Node1&#45;&gt;Node4</title>
<path fill="none" stroke="midnightblue" d="M671.06,-221.67C700.48,-212.35 720.54,-196.09 711,-168 700.91,-138.29 694.13,-129.37 668,-112 639.24,-92.88 602.73,-81.88 570.84,-75.55"/>
<polygon fill="midnightblue" stroke="midnightblue" points="669.88,-218.37 661.21,-224.46 671.78,-225.11 669.88,-218.37"/>
</g>
<!-- Node6 -->
<g id="node6" class="node">
<title>Node6</title>
<g id="a_node6"><a xlink:href="layer__stack_8h.html" target="_top" xlink:title=" ">
<polygon fill="white" stroke="black" points="376,-168.5 376,-187.5 702,-187.5 702,-168.5 376,-168.5"/>
<text text-anchor="middle" x="539" y="-175.5" font-family="Helvetica,sans-Serif" font-size="10.00">/home/runner/work/gauri/gauri/gauri/include/gauri/layer_stack.h</text>
</a>
</g>
</g>
<!-- Node1&#45;&gt;Node6 -->
<g id="edge7" class="edge">
<title>Node1&#45;&gt;Node6</title>
<path fill="none" stroke="midnightblue" d="M539,-213.8C539,-204.91 539,-194.78 539,-187.75"/>
<polygon fill="midnightblue" stroke="midnightblue" points="535.5,-214.08 539,-224.08 542.5,-214.08 535.5,-214.08"/>
</g>
<!-- Node3 -->
<g id="node3" class="node">
<title>Node3</title>
<g id="a_node3"><a xlink:href="application_8h.html" target="_top" xlink:title=" ">
<polygon fill="white" stroke="black" points="335,-112.5 335,-131.5 659,-131.5 659,-112.5 335,-112.5"/>
<text text-anchor="middle" x="497" y="-119.5" font-family="Helvetica,sans-Serif" font-size="10.00">/home/runner/work/gauri/gauri/gauri/include/gauri/application.h</text>
</a>
</g>
</g>
<!-- Node2&#45;&gt;Node3 -->
<g id="edge2" class="edge">
<title>Node2&#45;&gt;Node3</title>
<path fill="none" stroke="midnightblue" d="M239.49,-166.73C299.59,-156.52 390.66,-141.06 446.85,-131.52"/>
<polygon fill="midnightblue" stroke="midnightblue" points="238.66,-163.32 229.39,-168.44 239.83,-170.22 238.66,-163.32"/>
</g>
<!-- Node2&#45;&gt;Node4 -->
<g id="edge6" class="edge">
<title>Node2&#45;&gt;Node4</title>
<path fill="none" stroke="midnightblue" d="M204.88,-164.05C233.86,-149.91 282.46,-127.25 326,-112 370.18,-96.53 422.41,-83.52 457.41,-75.53"/>
<polygon fill="midnightblue" stroke="midnightblue" points="203.27,-160.94 195.84,-168.49 206.36,-167.22 203.27,-160.94"/>
</g>
<!-- Node3&#45;&gt;Node4 -->
<g id="edge3" class="edge">
<title>Node3&#45;&gt;Node4</title>
<path fill="none" stroke="midnightblue" d="M497,-101.8C497,-92.91 497,-82.78 497,-75.75"/>
<polygon fill="midnightblue" stroke="midnightblue" points="493.5,-102.08 497,-112.08 500.5,-102.08 493.5,-102.08"/>
</g>
<!-- Node5 -->
<g id="node5" class="node">
<title>Node5</title>
<g id="a_node5"><a xlink:href="entry__point_8h.html" target="_top" xlink:title=" ">
<polygon fill="white" stroke="black" points="334,-0.5 334,-19.5 660,-19.5 660,-0.5 334,-0.5"/>
<text text-anchor="middle" x="497" y="-7.5" font-family="Helvetica,sans-Serif" font-size="10.00">/home/runner/work/gauri/gauri/gauri/include/gauri/entry_point.h</text>
</a>
</g>
</g>
<!-- Node4&#45;&gt;Node5 -->
<g id="edge4" class="edge">
<title>Node4&#45;&gt;Node5</title>
<path fill="none" stroke="midnightblue" d="M490.53,-46.1C489.9,-37.14 490.34,-26.86 491.87,-19.75"/>
<polygon fill="midnightblue" stroke="midnightblue" points="487.07,-46.62 491.83,-56.08 494.01,-45.71 487.07,-46.62"/>
</g>
<!-- Node5&#45;&gt;Node4 -->
<g id="edge5" class="edge">
<title>Node5&#45;&gt;Node4</title>
<path fill="none" stroke="midnightblue" d="M503.46,-29.69C504.11,-38.64 503.68,-48.93 502.17,-56.08"/>
<polygon fill="midnightblue" stroke="midnightblue" points="506.92,-29.2 502.13,-19.75 499.98,-30.13 506.92,-29.2"/>
</g>
<!-- Node6&#45;&gt;Node3 -->
<g id="edge8" class="edge">
<title>Node6&#45;&gt;Node3</title>
<path fill="none" stroke="midnightblue" d="M525.89,-160.14C518.57,-150.74 509.76,-139.4 503.81,-131.75"/>
<polygon fill="midnightblue" stroke="midnightblue" points="523.16,-162.34 532.06,-168.08 528.69,-158.04 523.16,-162.34"/>
</g>
</g>
</svg>
