<?xml version="1.0" encoding="UTF-8" standalone="no"?>
<!DOCTYPE svg PUBLIC "-//W3C//DTD SVG 1.1//EN"
 "http://www.w3.org/Graphics/SVG/1.1/DTD/svg11.dtd">
<!-- Generated by graphviz version 2.43.0 (0)
 -->
<!-- Title: /home/runner/work/gauri/gauri/gauri/include/gauri/core/layer_stack.h Pages: 1 -->
<svg width="446pt" height="308pt"
 viewBox="0.00 0.00 446.00 308.00" xmlns="http://www.w3.org/2000/svg" xmlns:xlink="http://www.w3.org/1999/xlink">
<g id="graph0" class="graph" transform="scale(1 1) rotate(0) translate(4 304)">
<title>/home/runner/work/gauri/gauri/gauri/include/gauri/core/layer_stack.h</title>
<polygon fill="white" stroke="transparent" points="-4,4 -4,-304 442,-304 442,4 -4,4"/>
<!-- Node1 -->
<g id="node1" class="node">
<title>Node1</title>
<g id="a_node1"><a xlink:title=" ">
<polygon fill="#bfbfbf" stroke="black" points="1,-280.5 1,-299.5 351,-299.5 351,-280.5 1,-280.5"/>
<text text-anchor="middle" x="176" y="-287.5" font-family="Helvetica,sans-Serif" font-size="10.00">/home/runner/work/gauri/gauri/gauri/include/gauri/core/layer_stack.h</text>
</a>
</g>
</g>
<!-- Node2 -->
<g id="node2" class="node">
<title>Node2</title>
<g id="a_node2"><a xlink:href="core_8h.html" target="_top" xlink:title=" ">
<polygon fill="white" stroke="black" points="62,-112.5 62,-131.5 160,-131.5 160,-112.5 62,-112.5"/>
<text text-anchor="middle" x="111" y="-119.5" font-family="Helvetica,sans-Serif" font-size="10.00">gauri/core/core.h</text>
</a>
</g>
</g>
<!-- Node1&#45;&gt;Node2 -->
<g id="edge1" class="edge">
<title>Node1&#45;&gt;Node2</title>
<path fill="none" stroke="midnightblue" d="M157.53,-280.43C143.72,-272.94 125.76,-260.64 117,-244 99.76,-211.23 103.39,-166.31 107.34,-141.45"/>
<polygon fill="midnightblue" stroke="midnightblue" points="110.8,-142.01 109.11,-131.55 103.91,-140.78 110.8,-142.01"/>
</g>
<!-- Node9 -->
<g id="node9" class="node">
<title>Node9</title>
<g id="a_node9"><a xlink:href="layer_8h.html" target="_top" xlink:title=" ">
<polygon fill="white" stroke="black" points="125.5,-224.5 125.5,-243.5 226.5,-243.5 226.5,-224.5 125.5,-224.5"/>
<text text-anchor="middle" x="176" y="-231.5" font-family="Helvetica,sans-Serif" font-size="10.00">gauri/core/layer.h</text>
</a>
</g>
</g>
<!-- Node1&#45;&gt;Node9 -->
<g id="edge9" class="edge">
<title>Node1&#45;&gt;Node9</title>
<path fill="none" stroke="midnightblue" d="M176,-280.08C176,-273.01 176,-262.86 176,-253.99"/>
<polygon fill="midnightblue" stroke="midnightblue" points="179.5,-253.75 176,-243.75 172.5,-253.75 179.5,-253.75"/>
</g>
<!-- Node15 -->
<g id="node15" class="node">
<title>Node15</title>
<g id="a_node15"><a xlink:title=" ">
<polygon fill="white" stroke="#bfbfbf" points="244.5,-224.5 244.5,-243.5 291.5,-243.5 291.5,-224.5 244.5,-224.5"/>
<text text-anchor="middle" x="268" y="-231.5" font-family="Helvetica,sans-Serif" font-size="10.00">vector</text>
</a>
</g>
</g>
<!-- Node1&#45;&gt;Node15 -->
<g id="edge18" class="edge">
<title>Node1&#45;&gt;Node15</title>
<path fill="none" stroke="midnightblue" d="M190.78,-280.32C205.27,-271.82 227.57,-258.73 244.49,-248.8"/>
<polygon fill="midnightblue" stroke="midnightblue" points="246.4,-251.74 253.26,-243.65 242.86,-245.7 246.4,-251.74"/>
</g>
<!-- Node3 -->
<g id="node3" class="node">
<title>Node3</title>
<g id="a_node3"><a xlink:title=" ">
<polygon fill="white" stroke="#bfbfbf" points="183,-56.5 183,-75.5 233,-75.5 233,-56.5 183,-56.5"/>
<text text-anchor="middle" x="208" y="-63.5" font-family="Helvetica,sans-Serif" font-size="10.00">cstdint</text>
</a>
</g>
</g>
<!-- Node2&#45;&gt;Node3 -->
<g id="edge2" class="edge">
<title>Node2&#45;&gt;Node3</title>
<path fill="none" stroke="midnightblue" d="M126.58,-112.32C142,-103.74 165.81,-90.49 183.71,-80.52"/>
<polygon fill="midnightblue" stroke="midnightblue" points="185.42,-83.58 192.45,-75.65 182.01,-77.46 185.42,-83.58"/>
</g>
<!-- Node4 -->
<g id="node4" class="node">
<title>Node4</title>
<g id="a_node4"><a xlink:title=" ">
<polygon fill="white" stroke="#bfbfbf" points="0,-0.5 0,-19.5 58,-19.5 58,-0.5 0,-0.5"/>
<text text-anchor="middle" x="29" y="-7.5" font-family="Helvetica,sans-Serif" font-size="10.00">memory</text>
</a>
</g>
</g>
<!-- Node2&#45;&gt;Node4 -->
<g id="edge3" class="edge">
<title>Node2&#45;&gt;Node4</title>
<path fill="none" stroke="midnightblue" d="M93.6,-112.44C79.64,-104.72 60.53,-92.12 49,-76 39.24,-62.34 34.15,-43.81 31.55,-30.02"/>
<polygon fill="midnightblue" stroke="midnightblue" points="34.95,-29.09 29.91,-19.77 28.04,-30.2 34.95,-29.09"/>
</g>
<!-- Node5 -->
<g id="node5" class="node">
<title>Node5</title>
<g id="a_node5"><a xlink:href="logger_8h.html" target="_top" xlink:title=" ">
<polygon fill="white" stroke="black" points="57.5,-56.5 57.5,-75.5 164.5,-75.5 164.5,-56.5 57.5,-56.5"/>
<text text-anchor="middle" x="111" y="-63.5" font-family="Helvetica,sans-Serif" font-size="10.00">gauri/core/logger.h</text>
</a>
</g>
</g>
<!-- Node2&#45;&gt;Node5 -->
<g id="edge4" class="edge">
<title>Node2&#45;&gt;Node5</title>
<path fill="none" stroke="midnightblue" d="M111,-112.08C111,-105.01 111,-94.86 111,-85.99"/>
<polygon fill="midnightblue" stroke="midnightblue" points="114.5,-85.75 111,-75.75 107.5,-85.75 114.5,-85.75"/>
</g>
<!-- Node5&#45;&gt;Node4 -->
<g id="edge6" class="edge">
<title>Node5&#45;&gt;Node4</title>
<path fill="none" stroke="midnightblue" d="M97.83,-56.32C85.15,-47.98 65.77,-35.21 50.79,-25.35"/>
<polygon fill="midnightblue" stroke="midnightblue" points="52.42,-22.23 42.14,-19.65 48.57,-28.08 52.42,-22.23"/>
</g>
<!-- Node6 -->
<g id="node6" class="node">
<title>Node6</title>
<g id="a_node6"><a xlink:title=" ">
<polygon fill="white" stroke="#bfbfbf" points="76,-0.5 76,-19.5 126,-19.5 126,-0.5 76,-0.5"/>
<text text-anchor="middle" x="101" y="-7.5" font-family="Helvetica,sans-Serif" font-size="10.00">format</text>
</a>
</g>
</g>
<!-- Node5&#45;&gt;Node6 -->
<g id="edge5" class="edge">
<title>Node5&#45;&gt;Node6</title>
<path fill="none" stroke="midnightblue" d="M109.35,-56.08C108.02,-48.93 106.12,-38.64 104.46,-29.69"/>
<polygon fill="midnightblue" stroke="midnightblue" points="107.88,-28.95 102.62,-19.75 101,-30.22 107.88,-28.95"/>
</g>
<!-- Node7 -->
<g id="node7" class="node">
<title>Node7</title>
<g id="a_node7"><a xlink:title=" ">
<polygon fill="white" stroke="#bfbfbf" points="144.5,-0.5 144.5,-19.5 243.5,-19.5 243.5,-0.5 144.5,-0.5"/>
<text text-anchor="middle" x="194" y="-7.5" font-family="Helvetica,sans-Serif" font-size="10.00">spdlog/fmt/ostr.h</text>
</a>
</g>
</g>
<!-- Node5&#45;&gt;Node7 -->
<g id="edge7" class="edge">
<title>Node5&#45;&gt;Node7</title>
<path fill="none" stroke="midnightblue" d="M124.34,-56.32C137.16,-47.98 156.78,-35.21 171.94,-25.35"/>
<polygon fill="midnightblue" stroke="midnightblue" points="174.22,-28.04 180.7,-19.65 170.41,-22.17 174.22,-28.04"/>
</g>
<!-- Node8 -->
<g id="node8" class="node">
<title>Node8</title>
<g id="a_node8"><a xlink:title=" ">
<polygon fill="white" stroke="#bfbfbf" points="261.5,-0.5 261.5,-19.5 354.5,-19.5 354.5,-0.5 261.5,-0.5"/>
<text text-anchor="middle" x="308" y="-7.5" font-family="Helvetica,sans-Serif" font-size="10.00">spdlog/spdlog.h</text>
</a>
</g>
</g>
<!-- Node5&#45;&gt;Node8 -->
<g id="edge8" class="edge">
<title>Node5&#45;&gt;Node8</title>
<path fill="none" stroke="midnightblue" d="M142.22,-56.44C175.93,-47.2 229.8,-32.44 266.93,-22.26"/>
<polygon fill="midnightblue" stroke="midnightblue" points="268.21,-25.54 276.93,-19.52 266.36,-18.78 268.21,-25.54"/>
</g>
<!-- Node9&#45;&gt;Node2 -->
<g id="edge10" class="edge">
<title>Node9&#45;&gt;Node2</title>
<path fill="none" stroke="midnightblue" d="M164.44,-224.2C154.28,-215.9 139.78,-202.58 131,-188 122.34,-173.62 117.13,-155.16 114.21,-141.59"/>
<polygon fill="midnightblue" stroke="midnightblue" points="117.6,-140.69 112.27,-131.54 110.73,-142.02 117.6,-140.69"/>
</g>
<!-- Node10 -->
<g id="node10" class="node">
<title>Node10</title>
<g id="a_node10"><a xlink:href="timestep_8h.html" target="_top" xlink:title=" ">
<polygon fill="white" stroke="black" points="139.5,-168.5 139.5,-187.5 260.5,-187.5 260.5,-168.5 139.5,-168.5"/>
<text text-anchor="middle" x="200" y="-175.5" font-family="Helvetica,sans-Serif" font-size="10.00">gauri/core/timestep.h</text>
</a>
</g>
</g>
<!-- Node9&#45;&gt;Node10 -->
<g id="edge11" class="edge">
<title>Node9&#45;&gt;Node10</title>
<path fill="none" stroke="midnightblue" d="M179.96,-224.08C183.21,-216.77 187.92,-206.18 191.95,-197.1"/>
<polygon fill="midnightblue" stroke="midnightblue" points="195.25,-198.31 196.11,-187.75 188.85,-195.47 195.25,-198.31"/>
</g>
<!-- Node11 -->
<g id="node11" class="node">
<title>Node11</title>
<g id="a_node11"><a xlink:href="event_8h.html" target="_top" xlink:title=" ">
<polygon fill="white" stroke="black" points="279,-168.5 279,-187.5 391,-187.5 391,-168.5 279,-168.5"/>
<text text-anchor="middle" x="335" y="-175.5" font-family="Helvetica,sans-Serif" font-size="10.00">gauri/event/event.h</text>
</a>
</g>
</g>
<!-- Node9&#45;&gt;Node11 -->
<g id="edge12" class="edge">
<title>Node9&#45;&gt;Node11</title>
<path fill="none" stroke="midnightblue" d="M201.19,-224.44C227.94,-215.36 270.4,-200.94 300.31,-190.78"/>
<polygon fill="midnightblue" stroke="midnightblue" points="301.58,-194.05 309.92,-187.52 299.33,-187.42 301.58,-194.05"/>
</g>
<!-- Node11&#45;&gt;Node2 -->
<g id="edge17" class="edge">
<title>Node11&#45;&gt;Node2</title>
<path fill="none" stroke="midnightblue" d="M299.51,-168.44C260.68,-159.08 198.34,-144.06 156.08,-133.87"/>
<polygon fill="midnightblue" stroke="midnightblue" points="156.87,-130.46 146.33,-131.52 155.23,-137.26 156.87,-130.46"/>
</g>
<!-- Node11&#45;&gt;Node3 -->
<g id="edge13" class="edge">
<title>Node11&#45;&gt;Node3</title>
<path fill="none" stroke="midnightblue" d="M293.16,-168.46C271.02,-161.93 244.97,-150.75 228,-132 216.5,-119.29 211.61,-100.09 209.53,-85.85"/>
<polygon fill="midnightblue" stroke="midnightblue" points="212.99,-85.26 208.4,-75.71 206.03,-86.04 212.99,-85.26"/>
</g>
<!-- Node12 -->
<g id="node12" class="node">
<title>Node12</title>
<g id="a_node12"><a xlink:title=" ">
<polygon fill="white" stroke="#bfbfbf" points="236.5,-112.5 236.5,-131.5 301.5,-131.5 301.5,-112.5 236.5,-112.5"/>
<text text-anchor="middle" x="269" y="-119.5" font-family="Helvetica,sans-Serif" font-size="10.00">functional</text>
</a>
</g>
</g>
<!-- Node11&#45;&gt;Node12 -->
<g id="edge14" class="edge">
<title>Node11&#45;&gt;Node12</title>
<path fill="none" stroke="midnightblue" d="M324.4,-168.32C314.54,-160.26 299.65,-148.08 287.78,-138.37"/>
<polygon fill="midnightblue" stroke="midnightblue" points="289.75,-135.46 279.8,-131.83 285.32,-140.88 289.75,-135.46"/>
</g>
<!-- Node13 -->
<g id="node13" class="node">
<title>Node13</title>
<g id="a_node13"><a xlink:title=" ">
<polygon fill="white" stroke="#bfbfbf" points="320,-112.5 320,-131.5 376,-131.5 376,-112.5 320,-112.5"/>
<text text-anchor="middle" x="348" y="-119.5" font-family="Helvetica,sans-Serif" font-size="10.00">sstream</text>
</a>
</g>
</g>
<!-- Node11&#45;&gt;Node13 -->
<g id="edge15" class="edge">
<title>Node11&#45;&gt;Node13</title>
<path fill="none" stroke="midnightblue" d="M337.15,-168.08C338.87,-160.93 341.35,-150.64 343.5,-141.69"/>
<polygon fill="midnightblue" stroke="midnightblue" points="346.96,-142.29 345.89,-131.75 340.15,-140.65 346.96,-142.29"/>
</g>
<!-- Node14 -->
<g id="node14" class="node">
<title>Node14</title>
<g id="a_node14"><a xlink:title=" ">
<polygon fill="white" stroke="#bfbfbf" points="394,-112.5 394,-131.5 438,-131.5 438,-112.5 394,-112.5"/>
<text text-anchor="middle" x="416" y="-119.5" font-family="Helvetica,sans-Serif" font-size="10.00">string</text>
</a>
</g>
</g>
<!-- Node11&#45;&gt;Node14 -->
<g id="edge16" class="edge">
<title>Node11&#45;&gt;Node14</title>
<path fill="none" stroke="midnightblue" d="M348.01,-168.32C360.53,-159.98 379.68,-147.21 394.47,-137.35"/>
<polygon fill="midnightblue" stroke="midnightblue" points="396.64,-140.11 403.02,-131.65 392.76,-134.29 396.64,-140.11"/>
</g>
</g>
</svg>
