<?xml version="1.0" encoding="UTF-8" standalone="no"?>
<!DOCTYPE svg PUBLIC "-//W3C//DTD SVG 1.1//EN"
 "http://www.w3.org/Graphics/SVG/1.1/DTD/svg11.dtd">
<!-- Generated by graphviz version 2.43.0 (0)
 -->
<!-- Title: /home/runner/work/gauri/gauri/gauri/include/gauri/layer_stack.h Pages: 1 -->
<svg width="427pt" height="308pt"
 viewBox="0.00 0.00 427.00 308.00" xmlns="http://www.w3.org/2000/svg" xmlns:xlink="http://www.w3.org/1999/xlink">
<g id="graph0" class="graph" transform="scale(1 1) rotate(0) translate(4 304)">
<title>/home/runner/work/gauri/gauri/gauri/include/gauri/layer_stack.h</title>
<polygon fill="white" stroke="transparent" points="-4,4 -4,-304 423,-304 423,4 -4,4"/>
<!-- Node1 -->
<g id="node1" class="node">
<title>Node1</title>
<g id="a_node1"><a xlink:title=" ">
<polygon fill="#bfbfbf" stroke="black" points="0,-280.5 0,-299.5 326,-299.5 326,-280.5 0,-280.5"/>
<text text-anchor="middle" x="163" y="-287.5" font-family="Helvetica,sans-Serif" font-size="10.00">/home/runner/work/gauri/gauri/gauri/include/gauri/layer_stack.h</text>
</a>
</g>
</g>
<!-- Node2 -->
<g id="node2" class="node">
<title>Node2</title>
<g id="a_node2"><a xlink:href="core_8h.html" target="_top" xlink:title=" ">
<polygon fill="white" stroke="black" points="67,-112.5 67,-131.5 141,-131.5 141,-112.5 67,-112.5"/>
<text text-anchor="middle" x="104" y="-119.5" font-family="Helvetica,sans-Serif" font-size="10.00">gauri/core.h</text>
</a>
</g>
</g>
<!-- Node1&#45;&gt;Node2 -->
<g id="edge1" class="edge">
<title>Node1&#45;&gt;Node2</title>
<path fill="none" stroke="midnightblue" d="M149.75,-280.4C138.68,-272.41 123.52,-259.44 116,-244 99.89,-210.9 100.16,-166.75 101.97,-141.96"/>
<polygon fill="midnightblue" stroke="midnightblue" points="105.48,-142.04 102.89,-131.76 98.5,-141.41 105.48,-142.04"/>
</g>
<!-- Node9 -->
<g id="node9" class="node">
<title>Node9</title>
<g id="a_node9"><a xlink:href="layer_8h.html" target="_top" xlink:title=" ">
<polygon fill="white" stroke="black" points="124.5,-224.5 124.5,-243.5 201.5,-243.5 201.5,-224.5 124.5,-224.5"/>
<text text-anchor="middle" x="163" y="-231.5" font-family="Helvetica,sans-Serif" font-size="10.00">gauri/layer.h</text>
</a>
</g>
</g>
<!-- Node1&#45;&gt;Node9 -->
<g id="edge9" class="edge">
<title>Node1&#45;&gt;Node9</title>
<path fill="none" stroke="midnightblue" d="M163,-280.08C163,-273.01 163,-262.86 163,-253.99"/>
<polygon fill="midnightblue" stroke="midnightblue" points="166.5,-253.75 163,-243.75 159.5,-253.75 166.5,-253.75"/>
</g>
<!-- Node15 -->
<g id="node15" class="node">
<title>Node15</title>
<g id="a_node15"><a xlink:title=" ">
<polygon fill="white" stroke="#bfbfbf" points="219.5,-224.5 219.5,-243.5 266.5,-243.5 266.5,-224.5 219.5,-224.5"/>
<text text-anchor="middle" x="243" y="-231.5" font-family="Helvetica,sans-Serif" font-size="10.00">vector</text>
</a>
</g>
</g>
<!-- Node1&#45;&gt;Node15 -->
<g id="edge18" class="edge">
<title>Node1&#45;&gt;Node15</title>
<path fill="none" stroke="midnightblue" d="M175.85,-280.32C188.22,-271.98 207.13,-259.21 221.74,-249.35"/>
<polygon fill="midnightblue" stroke="midnightblue" points="223.85,-252.15 230.18,-243.65 219.93,-246.35 223.85,-252.15"/>
</g>
<!-- Node3 -->
<g id="node3" class="node">
<title>Node3</title>
<g id="a_node3"><a xlink:title=" ">
<polygon fill="white" stroke="#bfbfbf" points="164,-56.5 164,-75.5 214,-75.5 214,-56.5 164,-56.5"/>
<text text-anchor="middle" x="189" y="-63.5" font-family="Helvetica,sans-Serif" font-size="10.00">cstdint</text>
</a>
</g>
</g>
<!-- Node2&#45;&gt;Node3 -->
<g id="edge2" class="edge">
<title>Node2&#45;&gt;Node3</title>
<path fill="none" stroke="midnightblue" d="M117.66,-112.32C130.92,-103.9 151.27,-90.97 166.85,-81.07"/>
<polygon fill="midnightblue" stroke="midnightblue" points="168.81,-83.97 175.38,-75.65 165.06,-78.06 168.81,-83.97"/>
</g>
<!-- Node4 -->
<g id="node4" class="node">
<title>Node4</title>
<g id="a_node4"><a xlink:title=" ">
<polygon fill="white" stroke="#bfbfbf" points="3,-0.5 3,-19.5 61,-19.5 61,-0.5 3,-0.5"/>
<text text-anchor="middle" x="32" y="-7.5" font-family="Helvetica,sans-Serif" font-size="10.00">memory</text>
</a>
</g>
</g>
<!-- Node2&#45;&gt;Node4 -->
<g id="edge3" class="edge">
<title>Node2&#45;&gt;Node4</title>
<path fill="none" stroke="midnightblue" d="M90.46,-112.19C78.97,-104.06 62.84,-91.01 53,-76 43.76,-61.9 38.3,-43.41 35.28,-29.76"/>
<polygon fill="midnightblue" stroke="midnightblue" points="38.65,-28.76 33.28,-19.63 31.78,-30.12 38.65,-28.76"/>
</g>
<!-- Node5 -->
<g id="node5" class="node">
<title>Node5</title>
<g id="a_node5"><a xlink:href="logger_8h.html" target="_top" xlink:title=" ">
<polygon fill="white" stroke="black" points="62.5,-56.5 62.5,-75.5 145.5,-75.5 145.5,-56.5 62.5,-56.5"/>
<text text-anchor="middle" x="104" y="-63.5" font-family="Helvetica,sans-Serif" font-size="10.00">gauri/logger.h</text>
</a>
</g>
</g>
<!-- Node2&#45;&gt;Node5 -->
<g id="edge4" class="edge">
<title>Node2&#45;&gt;Node5</title>
<path fill="none" stroke="midnightblue" d="M104,-112.08C104,-105.01 104,-94.86 104,-85.99"/>
<polygon fill="midnightblue" stroke="midnightblue" points="107.5,-85.75 104,-75.75 100.5,-85.75 107.5,-85.75"/>
</g>
<!-- Node5&#45;&gt;Node4 -->
<g id="edge6" class="edge">
<title>Node5&#45;&gt;Node4</title>
<path fill="none" stroke="midnightblue" d="M92.43,-56.32C81.58,-48.18 65.12,-35.84 52.12,-26.09"/>
<polygon fill="midnightblue" stroke="midnightblue" points="53.88,-23.03 43.78,-19.83 49.68,-28.63 53.88,-23.03"/>
</g>
<!-- Node6 -->
<g id="node6" class="node">
<title>Node6</title>
<g id="a_node6"><a xlink:title=" ">
<polygon fill="white" stroke="#bfbfbf" points="79,-0.5 79,-19.5 129,-19.5 129,-0.5 79,-0.5"/>
<text text-anchor="middle" x="104" y="-7.5" font-family="Helvetica,sans-Serif" font-size="10.00">format</text>
</a>
</g>
</g>
<!-- Node5&#45;&gt;Node6 -->
<g id="edge5" class="edge">
<title>Node5&#45;&gt;Node6</title>
<path fill="none" stroke="midnightblue" d="M104,-56.08C104,-49.01 104,-38.86 104,-29.99"/>
<polygon fill="midnightblue" stroke="midnightblue" points="107.5,-29.75 104,-19.75 100.5,-29.75 107.5,-29.75"/>
</g>
<!-- Node7 -->
<g id="node7" class="node">
<title>Node7</title>
<g id="a_node7"><a xlink:title=" ">
<polygon fill="white" stroke="#bfbfbf" points="147.5,-0.5 147.5,-19.5 246.5,-19.5 246.5,-0.5 147.5,-0.5"/>
<text text-anchor="middle" x="197" y="-7.5" font-family="Helvetica,sans-Serif" font-size="10.00">spdlog/fmt/ostr.h</text>
</a>
</g>
</g>
<!-- Node5&#45;&gt;Node7 -->
<g id="edge7" class="edge">
<title>Node5&#45;&gt;Node7</title>
<path fill="none" stroke="midnightblue" d="M118.94,-56.32C133.59,-47.82 156.13,-34.73 173.24,-24.8"/>
<polygon fill="midnightblue" stroke="midnightblue" points="175.2,-27.7 182.1,-19.65 171.69,-21.65 175.2,-27.7"/>
</g>
<!-- Node8 -->
<g id="node8" class="node">
<title>Node8</title>
<g id="a_node8"><a xlink:title=" ">
<polygon fill="white" stroke="#bfbfbf" points="264.5,-0.5 264.5,-19.5 357.5,-19.5 357.5,-0.5 264.5,-0.5"/>
<text text-anchor="middle" x="311" y="-7.5" font-family="Helvetica,sans-Serif" font-size="10.00">spdlog/spdlog.h</text>
</a>
</g>
</g>
<!-- Node5&#45;&gt;Node8 -->
<g id="edge8" class="edge">
<title>Node5&#45;&gt;Node8</title>
<path fill="none" stroke="midnightblue" d="M136.8,-56.44C172.38,-47.16 229.31,-32.31 268.35,-22.13"/>
<polygon fill="midnightblue" stroke="midnightblue" points="269.56,-25.43 278.35,-19.52 267.79,-18.65 269.56,-25.43"/>
</g>
<!-- Node9&#45;&gt;Node2 -->
<g id="edge10" class="edge">
<title>Node9&#45;&gt;Node2</title>
<path fill="none" stroke="midnightblue" d="M153.38,-224.22C144.59,-215.73 131.82,-202.1 124,-188 115.95,-173.48 110.71,-155.3 107.62,-141.86"/>
<polygon fill="midnightblue" stroke="midnightblue" points="111,-140.94 105.52,-131.87 104.15,-142.38 111,-140.94"/>
</g>
<!-- Node10 -->
<g id="node10" class="node">
<title>Node10</title>
<g id="a_node10"><a xlink:href="timestep_8h.html" target="_top" xlink:title=" ">
<polygon fill="white" stroke="black" points="132.5,-168.5 132.5,-187.5 253.5,-187.5 253.5,-168.5 132.5,-168.5"/>
<text text-anchor="middle" x="193" y="-175.5" font-family="Helvetica,sans-Serif" font-size="10.00">gauri/core/timestep.h</text>
</a>
</g>
</g>
<!-- Node9&#45;&gt;Node10 -->
<g id="edge11" class="edge">
<title>Node9&#45;&gt;Node10</title>
<path fill="none" stroke="midnightblue" d="M167.95,-224.08C172.1,-216.61 178.15,-205.72 183.27,-196.52"/>
<polygon fill="midnightblue" stroke="midnightblue" points="186.34,-198.19 188.14,-187.75 180.22,-194.79 186.34,-198.19"/>
</g>
<!-- Node11 -->
<g id="node11" class="node">
<title>Node11</title>
<g id="a_node11"><a xlink:href="event_8h.html" target="_top" xlink:title=" ">
<polygon fill="white" stroke="black" points="272,-168.5 272,-187.5 384,-187.5 384,-168.5 272,-168.5"/>
<text text-anchor="middle" x="328" y="-175.5" font-family="Helvetica,sans-Serif" font-size="10.00">gauri/event/event.h</text>
</a>
</g>
</g>
<!-- Node9&#45;&gt;Node11 -->
<g id="edge12" class="edge">
<title>Node9&#45;&gt;Node11</title>
<path fill="none" stroke="midnightblue" d="M189.14,-224.44C217.02,-215.32 261.35,-200.81 292.4,-190.65"/>
<polygon fill="midnightblue" stroke="midnightblue" points="293.56,-193.95 301.98,-187.52 291.38,-187.3 293.56,-193.95"/>
</g>
<!-- Node11&#45;&gt;Node2 -->
<g id="edge17" class="edge">
<title>Node11&#45;&gt;Node2</title>
<path fill="none" stroke="midnightblue" d="M292.51,-168.44C253.68,-159.08 191.34,-144.06 149.08,-133.87"/>
<polygon fill="midnightblue" stroke="midnightblue" points="149.87,-130.46 139.33,-131.52 148.23,-137.26 149.87,-130.46"/>
</g>
<!-- Node11&#45;&gt;Node3 -->
<g id="edge13" class="edge">
<title>Node11&#45;&gt;Node3</title>
<path fill="none" stroke="midnightblue" d="M277.09,-168.43C253.52,-162.05 226.84,-151 209,-132 197.27,-119.5 192.41,-100.27 190.4,-85.97"/>
<polygon fill="midnightblue" stroke="midnightblue" points="193.86,-85.35 189.33,-75.77 186.9,-86.09 193.86,-85.35"/>
</g>
<!-- Node12 -->
<g id="node12" class="node">
<title>Node12</title>
<g id="a_node12"><a xlink:title=" ">
<polygon fill="white" stroke="#bfbfbf" points="217.5,-112.5 217.5,-131.5 282.5,-131.5 282.5,-112.5 217.5,-112.5"/>
<text text-anchor="middle" x="250" y="-119.5" font-family="Helvetica,sans-Serif" font-size="10.00">functional</text>
</a>
</g>
</g>
<!-- Node11&#45;&gt;Node12 -->
<g id="edge14" class="edge">
<title>Node11&#45;&gt;Node12</title>
<path fill="none" stroke="midnightblue" d="M315.47,-168.32C303.41,-159.98 284.97,-147.21 270.73,-137.35"/>
<polygon fill="midnightblue" stroke="midnightblue" points="272.72,-134.47 262.5,-131.65 268.73,-140.22 272.72,-134.47"/>
</g>
<!-- Node13 -->
<g id="node13" class="node">
<title>Node13</title>
<g id="a_node13"><a xlink:title=" ">
<polygon fill="white" stroke="#bfbfbf" points="301,-112.5 301,-131.5 357,-131.5 357,-112.5 301,-112.5"/>
<text text-anchor="middle" x="329" y="-119.5" font-family="Helvetica,sans-Serif" font-size="10.00">sstream</text>
</a>
</g>
</g>
<!-- Node11&#45;&gt;Node13 -->
<g id="edge15" class="edge">
<title>Node11&#45;&gt;Node13</title>
<path fill="none" stroke="midnightblue" d="M328.17,-168.08C328.3,-161.01 328.48,-150.86 328.65,-141.99"/>
<polygon fill="midnightblue" stroke="midnightblue" points="332.15,-141.81 328.84,-131.75 325.15,-141.68 332.15,-141.81"/>
</g>
<!-- Node14 -->
<g id="node14" class="node">
<title>Node14</title>
<g id="a_node14"><a xlink:title=" ">
<polygon fill="white" stroke="#bfbfbf" points="375,-112.5 375,-131.5 419,-131.5 419,-112.5 375,-112.5"/>
<text text-anchor="middle" x="397" y="-119.5" font-family="Helvetica,sans-Serif" font-size="10.00">string</text>
</a>
</g>
</g>
<!-- Node11&#45;&gt;Node14 -->
<g id="edge16" class="edge">
<title>Node11&#45;&gt;Node14</title>
<path fill="none" stroke="midnightblue" d="M339.09,-168.32C349.49,-160.18 365.26,-147.84 377.72,-138.09"/>
<polygon fill="midnightblue" stroke="midnightblue" points="379.99,-140.75 385.71,-131.83 375.68,-135.24 379.99,-140.75"/>
</g>
</g>
</svg>
