<?xml version="1.0" encoding="UTF-8" standalone="no"?>
<!DOCTYPE svg PUBLIC "-//W3C//DTD SVG 1.1//EN"
 "http://www.w3.org/Graphics/SVG/1.1/DTD/svg11.dtd">
<!-- Generated by graphviz version 2.43.0 (0)
 -->
<!-- Title: /home/runner/work/gauri/gauri/gauri/include/gauri/layer_stack.h Pages: 1 -->
<svg width="429pt" height="308pt"
 viewBox="0.00 0.00 429.00 308.00" xmlns="http://www.w3.org/2000/svg" xmlns:xlink="http://www.w3.org/1999/xlink">
<g id="graph0" class="graph" transform="scale(1 1) rotate(0) translate(4 304)">
<title>/home/runner/work/gauri/gauri/gauri/include/gauri/layer_stack.h</title>
<polygon fill="white" stroke="transparent" points="-4,4 -4,-304 425,-304 425,4 -4,4"/>
<!-- Node1 -->
<g id="node1" class="node">
<title>Node1</title>
<g id="a_node1"><a xlink:title=" ">
<polygon fill="#bfbfbf" stroke="black" points="0,-280.5 0,-299.5 326,-299.5 326,-280.5 0,-280.5"/>
<text text-anchor="middle" x="163" y="-287.5" font-family="Helvetica,sans-Serif" font-size="10.00">/home/runner/work/gauri/gauri/gauri/include/gauri/layer_stack.h</text>
</a>
</g>
</g>
<!-- Node2 -->
<g id="node2" class="node">
<title>Node2</title>
<g id="a_node2"><a xlink:href="core_8h.html" target="_top" xlink:title=" ">
<polygon fill="white" stroke="black" points="67,-112.5 67,-131.5 141,-131.5 141,-112.5 67,-112.5"/>
<text text-anchor="middle" x="104" y="-119.5" font-family="Helvetica,sans-Serif" font-size="10.00">gauri/core.h</text>
</a>
</g>
</g>
<!-- Node1&#45;&gt;Node2 -->
<g id="edge1" class="edge">
<title>Node1&#45;&gt;Node2</title>
<path fill="none" stroke="midnightblue" d="M149.85,-280.35C138.83,-272.33 123.71,-259.34 116,-244 99.47,-211.11 99.89,-166.88 101.84,-142.03"/>
<polygon fill="midnightblue" stroke="midnightblue" points="105.35,-142.08 102.82,-131.79 98.38,-141.42 105.35,-142.08"/>
</g>
<!-- Node9 -->
<g id="node9" class="node">
<title>Node9</title>
<g id="a_node9"><a xlink:href="layer_8h.html" target="_top" xlink:title=" ">
<polygon fill="white" stroke="black" points="124.5,-224.5 124.5,-243.5 201.5,-243.5 201.5,-224.5 124.5,-224.5"/>
<text text-anchor="middle" x="163" y="-231.5" font-family="Helvetica,sans-Serif" font-size="10.00">gauri/layer.h</text>
</a>
</g>
</g>
<!-- Node1&#45;&gt;Node9 -->
<g id="edge9" class="edge">
<title>Node1&#45;&gt;Node9</title>
<path fill="none" stroke="midnightblue" d="M163,-280.08C163,-273.01 163,-262.86 163,-253.99"/>
<polygon fill="midnightblue" stroke="midnightblue" points="166.5,-253.75 163,-243.75 159.5,-253.75 166.5,-253.75"/>
</g>
<!-- Node15 -->
<g id="node15" class="node">
<title>Node15</title>
<g id="a_node15"><a xlink:title=" ">
<polygon fill="white" stroke="#bfbfbf" points="219.5,-224.5 219.5,-243.5 266.5,-243.5 266.5,-224.5 219.5,-224.5"/>
<text text-anchor="middle" x="243" y="-231.5" font-family="Helvetica,sans-Serif" font-size="10.00">vector</text>
</a>
</g>
</g>
<!-- Node1&#45;&gt;Node15 -->
<g id="edge18" class="edge">
<title>Node1&#45;&gt;Node15</title>
<path fill="none" stroke="midnightblue" d="M175.85,-280.32C188.22,-271.98 207.13,-259.21 221.74,-249.35"/>
<polygon fill="midnightblue" stroke="midnightblue" points="223.85,-252.15 230.18,-243.65 219.93,-246.35 223.85,-252.15"/>
</g>
<!-- Node3 -->
<g id="node3" class="node">
<title>Node3</title>
<g id="a_node3"><a xlink:title=" ">
<polygon fill="white" stroke="#bfbfbf" points="165,-56.5 165,-75.5 215,-75.5 215,-56.5 165,-56.5"/>
<text text-anchor="middle" x="190" y="-63.5" font-family="Helvetica,sans-Serif" font-size="10.00">cstdint</text>
</a>
</g>
</g>
<!-- Node2&#45;&gt;Node3 -->
<g id="edge2" class="edge">
<title>Node2&#45;&gt;Node3</title>
<path fill="none" stroke="midnightblue" d="M117.82,-112.32C131.23,-103.9 151.82,-90.97 167.59,-81.07"/>
<polygon fill="midnightblue" stroke="midnightblue" points="169.61,-83.94 176.22,-75.65 165.89,-78.01 169.61,-83.94"/>
</g>
<!-- Node4 -->
<g id="node4" class="node">
<title>Node4</title>
<g id="a_node4"><a xlink:title=" ">
<polygon fill="white" stroke="#bfbfbf" points="4,-0.5 4,-19.5 62,-19.5 62,-0.5 4,-0.5"/>
<text text-anchor="middle" x="33" y="-7.5" font-family="Helvetica,sans-Serif" font-size="10.00">memory</text>
</a>
</g>
</g>
<!-- Node2&#45;&gt;Node4 -->
<g id="edge3" class="edge">
<title>Node2&#45;&gt;Node4</title>
<path fill="none" stroke="midnightblue" d="M91.17,-112.45C79.89,-104.31 63.78,-91.09 54,-76 44.83,-61.85 39.36,-43.37 36.32,-29.73"/>
<polygon fill="midnightblue" stroke="midnightblue" points="39.69,-28.74 34.31,-19.61 32.83,-30.11 39.69,-28.74"/>
</g>
<!-- Node5 -->
<g id="node5" class="node">
<title>Node5</title>
<g id="a_node5"><a xlink:href="logger_8h.html" target="_top" xlink:title=" ">
<polygon fill="white" stroke="black" points="63.5,-56.5 63.5,-75.5 146.5,-75.5 146.5,-56.5 63.5,-56.5"/>
<text text-anchor="middle" x="105" y="-63.5" font-family="Helvetica,sans-Serif" font-size="10.00">gauri/logger.h</text>
</a>
</g>
</g>
<!-- Node2&#45;&gt;Node5 -->
<g id="edge4" class="edge">
<title>Node2&#45;&gt;Node5</title>
<path fill="none" stroke="midnightblue" d="M104.17,-112.08C104.3,-105.01 104.48,-94.86 104.65,-85.99"/>
<polygon fill="midnightblue" stroke="midnightblue" points="108.15,-85.81 104.84,-75.75 101.15,-85.68 108.15,-85.81"/>
</g>
<!-- Node5&#45;&gt;Node4 -->
<g id="edge6" class="edge">
<title>Node5&#45;&gt;Node4</title>
<path fill="none" stroke="midnightblue" d="M93.43,-56.32C82.58,-48.18 66.12,-35.84 53.12,-26.09"/>
<polygon fill="midnightblue" stroke="midnightblue" points="54.88,-23.03 44.78,-19.83 50.68,-28.63 54.88,-23.03"/>
</g>
<!-- Node6 -->
<g id="node6" class="node">
<title>Node6</title>
<g id="a_node6"><a xlink:title=" ">
<polygon fill="white" stroke="#bfbfbf" points="80,-0.5 80,-19.5 130,-19.5 130,-0.5 80,-0.5"/>
<text text-anchor="middle" x="105" y="-7.5" font-family="Helvetica,sans-Serif" font-size="10.00">format</text>
</a>
</g>
</g>
<!-- Node5&#45;&gt;Node6 -->
<g id="edge5" class="edge">
<title>Node5&#45;&gt;Node6</title>
<path fill="none" stroke="midnightblue" d="M105,-56.08C105,-49.01 105,-38.86 105,-29.99"/>
<polygon fill="midnightblue" stroke="midnightblue" points="108.5,-29.75 105,-19.75 101.5,-29.75 108.5,-29.75"/>
</g>
<!-- Node7 -->
<g id="node7" class="node">
<title>Node7</title>
<g id="a_node7"><a xlink:title=" ">
<polygon fill="white" stroke="#bfbfbf" points="148.5,-0.5 148.5,-19.5 247.5,-19.5 247.5,-0.5 148.5,-0.5"/>
<text text-anchor="middle" x="198" y="-7.5" font-family="Helvetica,sans-Serif" font-size="10.00">spdlog/fmt/ostr.h</text>
</a>
</g>
</g>
<!-- Node5&#45;&gt;Node7 -->
<g id="edge7" class="edge">
<title>Node5&#45;&gt;Node7</title>
<path fill="none" stroke="midnightblue" d="M119.94,-56.32C134.59,-47.82 157.13,-34.73 174.24,-24.8"/>
<polygon fill="midnightblue" stroke="midnightblue" points="176.2,-27.7 183.1,-19.65 172.69,-21.65 176.2,-27.7"/>
</g>
<!-- Node8 -->
<g id="node8" class="node">
<title>Node8</title>
<g id="a_node8"><a xlink:title=" ">
<polygon fill="white" stroke="#bfbfbf" points="265.5,-0.5 265.5,-19.5 358.5,-19.5 358.5,-0.5 265.5,-0.5"/>
<text text-anchor="middle" x="312" y="-7.5" font-family="Helvetica,sans-Serif" font-size="10.00">spdlog/spdlog.h</text>
</a>
</g>
</g>
<!-- Node5&#45;&gt;Node8 -->
<g id="edge8" class="edge">
<title>Node5&#45;&gt;Node8</title>
<path fill="none" stroke="midnightblue" d="M137.8,-56.44C173.38,-47.16 230.31,-32.31 269.35,-22.13"/>
<polygon fill="midnightblue" stroke="midnightblue" points="270.56,-25.43 279.35,-19.52 268.79,-18.65 270.56,-25.43"/>
</g>
<!-- Node9&#45;&gt;Node2 -->
<g id="edge10" class="edge">
<title>Node9&#45;&gt;Node2</title>
<path fill="none" stroke="midnightblue" d="M152.77,-224.37C143.45,-215.99 129.97,-202.43 122,-188 114.04,-173.59 109.39,-155.39 106.82,-141.92"/>
<polygon fill="midnightblue" stroke="midnightblue" points="110.25,-141.18 105.12,-131.91 103.34,-142.35 110.25,-141.18"/>
</g>
<!-- Node10 -->
<g id="node10" class="node">
<title>Node10</title>
<g id="a_node10"><a xlink:href="time__step_8h.html" target="_top" xlink:title=" ">
<polygon fill="white" stroke="black" points="131,-168.5 131,-187.5 257,-187.5 257,-168.5 131,-168.5"/>
<text text-anchor="middle" x="194" y="-175.5" font-family="Helvetica,sans-Serif" font-size="10.00">gauri/core/time_step.h</text>
</a>
</g>
</g>
<!-- Node9&#45;&gt;Node10 -->
<g id="edge11" class="edge">
<title>Node9&#45;&gt;Node10</title>
<path fill="none" stroke="midnightblue" d="M168.12,-224.08C172.41,-216.61 178.66,-205.72 183.94,-196.52"/>
<polygon fill="midnightblue" stroke="midnightblue" points="187.03,-198.17 188.98,-187.75 180.96,-194.68 187.03,-198.17"/>
</g>
<!-- Node11 -->
<g id="node11" class="node">
<title>Node11</title>
<g id="a_node11"><a xlink:href="event_8h.html" target="_top" xlink:title=" ">
<polygon fill="white" stroke="black" points="275,-168.5 275,-187.5 387,-187.5 387,-168.5 275,-168.5"/>
<text text-anchor="middle" x="331" y="-175.5" font-family="Helvetica,sans-Serif" font-size="10.00">gauri/event/event.h</text>
</a>
</g>
</g>
<!-- Node9&#45;&gt;Node11 -->
<g id="edge12" class="edge">
<title>Node9&#45;&gt;Node11</title>
<path fill="none" stroke="midnightblue" d="M189.62,-224.44C218.01,-215.32 263.14,-200.81 294.75,-190.65"/>
<polygon fill="midnightblue" stroke="midnightblue" points="296.06,-193.91 304.5,-187.52 293.91,-187.24 296.06,-193.91"/>
</g>
<!-- Node11&#45;&gt;Node2 -->
<g id="edge17" class="edge">
<title>Node11&#45;&gt;Node2</title>
<path fill="none" stroke="midnightblue" d="M295.03,-168.44C255.68,-159.08 192.51,-144.06 149.69,-133.87"/>
<polygon fill="midnightblue" stroke="midnightblue" points="150.34,-130.43 139.8,-131.52 148.72,-137.24 150.34,-130.43"/>
</g>
<!-- Node11&#45;&gt;Node3 -->
<g id="edge13" class="edge">
<title>Node11&#45;&gt;Node3</title>
<path fill="none" stroke="midnightblue" d="M279.79,-168.42C256.04,-162.03 229.13,-150.99 211,-132 199.11,-119.55 193.95,-100.31 191.71,-85.99"/>
<polygon fill="midnightblue" stroke="midnightblue" points="195.16,-85.29 190.47,-75.79 188.21,-86.14 195.16,-85.29"/>
</g>
<!-- Node12 -->
<g id="node12" class="node">
<title>Node12</title>
<g id="a_node12"><a xlink:title=" ">
<polygon fill="white" stroke="#bfbfbf" points="219.5,-112.5 219.5,-131.5 284.5,-131.5 284.5,-112.5 219.5,-112.5"/>
<text text-anchor="middle" x="252" y="-119.5" font-family="Helvetica,sans-Serif" font-size="10.00">functional</text>
</a>
</g>
</g>
<!-- Node11&#45;&gt;Node12 -->
<g id="edge14" class="edge">
<title>Node11&#45;&gt;Node12</title>
<path fill="none" stroke="midnightblue" d="M318.31,-168.32C306.1,-159.98 287.42,-147.21 273,-137.35"/>
<polygon fill="midnightblue" stroke="midnightblue" points="274.89,-134.41 264.66,-131.65 270.94,-140.19 274.89,-134.41"/>
</g>
<!-- Node13 -->
<g id="node13" class="node">
<title>Node13</title>
<g id="a_node13"><a xlink:title=" ">
<polygon fill="white" stroke="#bfbfbf" points="303,-112.5 303,-131.5 359,-131.5 359,-112.5 303,-112.5"/>
<text text-anchor="middle" x="331" y="-119.5" font-family="Helvetica,sans-Serif" font-size="10.00">sstream</text>
</a>
</g>
</g>
<!-- Node11&#45;&gt;Node13 -->
<g id="edge15" class="edge">
<title>Node11&#45;&gt;Node13</title>
<path fill="none" stroke="midnightblue" d="M331,-168.08C331,-161.01 331,-150.86 331,-141.99"/>
<polygon fill="midnightblue" stroke="midnightblue" points="334.5,-141.75 331,-131.75 327.5,-141.75 334.5,-141.75"/>
</g>
<!-- Node14 -->
<g id="node14" class="node">
<title>Node14</title>
<g id="a_node14"><a xlink:title=" ">
<polygon fill="white" stroke="#bfbfbf" points="377,-112.5 377,-131.5 421,-131.5 421,-112.5 377,-112.5"/>
<text text-anchor="middle" x="399" y="-119.5" font-family="Helvetica,sans-Serif" font-size="10.00">string</text>
</a>
</g>
</g>
<!-- Node11&#45;&gt;Node14 -->
<g id="edge16" class="edge">
<title>Node11&#45;&gt;Node14</title>
<path fill="none" stroke="midnightblue" d="M341.93,-168.32C352.17,-160.18 367.72,-147.84 380,-138.09"/>
<polygon fill="midnightblue" stroke="midnightblue" points="382.22,-140.79 387.88,-131.83 377.87,-135.31 382.22,-140.79"/>
</g>
</g>
</svg>
