<?xml version="1.0" encoding="UTF-8" standalone="no"?>
<!DOCTYPE svg PUBLIC "-//W3C//DTD SVG 1.1//EN"
 "http://www.w3.org/Graphics/SVG/1.1/DTD/svg11.dtd">
<!-- Generated by graphviz version 2.43.0 (0)
 -->
<!-- Title: /home/runner/work/gauri/gauri/gauri/include/gauri/core/layer.h Pages: 1 -->
<svg width="382pt" height="252pt"
 viewBox="0.00 0.00 381.55 252.00" xmlns="http://www.w3.org/2000/svg" xmlns:xlink="http://www.w3.org/1999/xlink">
<g id="graph0" class="graph" transform="scale(1 1) rotate(0) translate(4 248)">
<title>/home/runner/work/gauri/gauri/gauri/include/gauri/core/layer.h</title>
<polygon fill="white" stroke="transparent" points="-4,4 -4,-248 377.55,-248 377.55,4 -4,4"/>
<!-- Node1 -->
<g id="node1" class="node">
<title>Node1</title>
<g id="a_node1"><a xlink:title=" ">
<polygon fill="#bfbfbf" stroke="black" points="0,-224.5 0,-243.5 318,-243.5 318,-224.5 0,-224.5"/>
<text text-anchor="middle" x="159" y="-231.5" font-family="Helvetica,sans-Serif" font-size="10.00">/home/runner/work/gauri/gauri/gauri/include/gauri/core/layer.h</text>
</a>
</g>
</g>
<!-- Node2 -->
<g id="node2" class="node">
<title>Node2</title>
<g id="a_node2"><a xlink:href="core_8h.html" target="_top" xlink:title=" ">
<polygon fill="white" stroke="black" points="43,-112.5 43,-131.5 141,-131.5 141,-112.5 43,-112.5"/>
<text text-anchor="middle" x="92" y="-119.5" font-family="Helvetica,sans-Serif" font-size="10.00">gauri/core/core.h</text>
</a>
</g>
</g>
<!-- Node1&#45;&gt;Node2 -->
<g id="edge1" class="edge">
<title>Node1&#45;&gt;Node2</title>
<path fill="none" stroke="midnightblue" d="M135.21,-224.5C119.28,-217.41 99.54,-205.61 90,-188 82.28,-173.74 83.85,-155.03 86.72,-141.34"/>
<polygon fill="midnightblue" stroke="midnightblue" points="90.12,-142.17 89.14,-131.62 83.32,-140.48 90.12,-142.17"/>
</g>
<!-- Node9 -->
<g id="node9" class="node">
<title>Node9</title>
<g id="a_node9"><a xlink:href="timestep_8h.html" target="_top" xlink:title=" ">
<polygon fill="white" stroke="black" points="98.5,-168.5 98.5,-187.5 219.5,-187.5 219.5,-168.5 98.5,-168.5"/>
<text text-anchor="middle" x="159" y="-175.5" font-family="Helvetica,sans-Serif" font-size="10.00">gauri/core/timestep.h</text>
</a>
</g>
</g>
<!-- Node1&#45;&gt;Node9 -->
<g id="edge9" class="edge">
<title>Node1&#45;&gt;Node9</title>
<path fill="none" stroke="midnightblue" d="M159,-224.08C159,-217.01 159,-206.86 159,-197.99"/>
<polygon fill="midnightblue" stroke="midnightblue" points="162.5,-197.75 159,-187.75 155.5,-197.75 162.5,-197.75"/>
</g>
<!-- Node10 -->
<g id="node10" class="node">
<title>Node10</title>
<g id="a_node10"><a xlink:href="event_8h.html" target="_top" xlink:title=" ">
<polygon fill="white" stroke="black" points="238,-168.5 238,-187.5 350,-187.5 350,-168.5 238,-168.5"/>
<text text-anchor="middle" x="294" y="-175.5" font-family="Helvetica,sans-Serif" font-size="10.00">gauri/event/event.h</text>
</a>
</g>
</g>
<!-- Node1&#45;&gt;Node10 -->
<g id="edge10" class="edge">
<title>Node1&#45;&gt;Node10</title>
<path fill="none" stroke="midnightblue" d="M180.39,-224.44C202.71,-215.52 237.9,-201.44 263.21,-191.32"/>
<polygon fill="midnightblue" stroke="midnightblue" points="264.72,-194.48 272.71,-187.52 262.12,-187.98 264.72,-194.48"/>
</g>
<!-- Node3 -->
<g id="node3" class="node">
<title>Node3</title>
<g id="a_node3"><a xlink:title=" ">
<polygon fill="white" stroke="#bfbfbf" points="288,-56.5 288,-75.5 338,-75.5 338,-56.5 288,-56.5"/>
<text text-anchor="middle" x="313" y="-63.5" font-family="Helvetica,sans-Serif" font-size="10.00">cstdint</text>
</a>
</g>
</g>
<!-- Node2&#45;&gt;Node3 -->
<g id="edge2" class="edge">
<title>Node2&#45;&gt;Node3</title>
<path fill="none" stroke="midnightblue" d="M127.02,-112.44C168.31,-102.35 236.53,-85.68 277.87,-75.58"/>
<polygon fill="midnightblue" stroke="midnightblue" points="278.89,-78.94 287.77,-73.16 277.22,-72.14 278.89,-78.94"/>
</g>
<!-- Node4 -->
<g id="node4" class="node">
<title>Node4</title>
<g id="a_node4"><a xlink:title=" ">
<polygon fill="white" stroke="#bfbfbf" points="14,-0.5 14,-19.5 72,-19.5 72,-0.5 14,-0.5"/>
<text text-anchor="middle" x="43" y="-7.5" font-family="Helvetica,sans-Serif" font-size="10.00">memory</text>
</a>
</g>
</g>
<!-- Node2&#45;&gt;Node4 -->
<g id="edge3" class="edge">
<title>Node2&#45;&gt;Node4</title>
<path fill="none" stroke="midnightblue" d="M88.16,-112.37C80.18,-94.46 61.67,-52.92 51,-28.95"/>
<polygon fill="midnightblue" stroke="midnightblue" points="54.09,-27.3 46.83,-19.59 47.7,-30.15 54.09,-27.3"/>
</g>
<!-- Node5 -->
<g id="node5" class="node">
<title>Node5</title>
<g id="a_node5"><a xlink:href="logger_8h.html" target="_top" xlink:title=" ">
<polygon fill="white" stroke="black" points="86.5,-56.5 86.5,-75.5 193.5,-75.5 193.5,-56.5 86.5,-56.5"/>
<text text-anchor="middle" x="140" y="-63.5" font-family="Helvetica,sans-Serif" font-size="10.00">gauri/core/logger.h</text>
</a>
</g>
</g>
<!-- Node2&#45;&gt;Node5 -->
<g id="edge4" class="edge">
<title>Node2&#45;&gt;Node5</title>
<path fill="none" stroke="midnightblue" d="M99.93,-112.08C106.85,-104.3 117.07,-92.8 125.45,-83.37"/>
<polygon fill="midnightblue" stroke="midnightblue" points="128.19,-85.55 132.22,-75.75 122.96,-80.9 128.19,-85.55"/>
</g>
<!-- Node5&#45;&gt;Node4 -->
<g id="edge6" class="edge">
<title>Node5&#45;&gt;Node4</title>
<path fill="none" stroke="midnightblue" d="M124.42,-56.32C109,-47.74 85.19,-34.49 67.29,-24.52"/>
<polygon fill="midnightblue" stroke="midnightblue" points="68.99,-21.46 58.55,-19.65 65.58,-27.58 68.99,-21.46"/>
</g>
<!-- Node6 -->
<g id="node6" class="node">
<title>Node6</title>
<g id="a_node6"><a xlink:title=" ">
<polygon fill="white" stroke="#bfbfbf" points="319,-0.5 319,-19.5 369,-19.5 369,-0.5 319,-0.5"/>
<text text-anchor="middle" x="344" y="-7.5" font-family="Helvetica,sans-Serif" font-size="10.00">format</text>
</a>
</g>
</g>
<!-- Node5&#45;&gt;Node6 -->
<g id="edge5" class="edge">
<title>Node5&#45;&gt;Node6</title>
<path fill="none" stroke="midnightblue" d="M172.32,-56.44C209.66,-46.56 270.85,-30.36 309.2,-20.21"/>
<polygon fill="midnightblue" stroke="midnightblue" points="310.13,-23.59 318.9,-17.64 308.34,-16.82 310.13,-23.59"/>
</g>
<!-- Node7 -->
<g id="node7" class="node">
<title>Node7</title>
<g id="a_node7"><a xlink:title=" ">
<polygon fill="white" stroke="#bfbfbf" points="90.5,-0.5 90.5,-19.5 189.5,-19.5 189.5,-0.5 90.5,-0.5"/>
<text text-anchor="middle" x="140" y="-7.5" font-family="Helvetica,sans-Serif" font-size="10.00">spdlog/fmt/ostr.h</text>
</a>
</g>
</g>
<!-- Node5&#45;&gt;Node7 -->
<g id="edge7" class="edge">
<title>Node5&#45;&gt;Node7</title>
<path fill="none" stroke="midnightblue" d="M140,-56.08C140,-49.01 140,-38.86 140,-29.99"/>
<polygon fill="midnightblue" stroke="midnightblue" points="143.5,-29.75 140,-19.75 136.5,-29.75 143.5,-29.75"/>
</g>
<!-- Node8 -->
<g id="node8" class="node">
<title>Node8</title>
<g id="a_node8"><a xlink:title=" ">
<polygon fill="white" stroke="#bfbfbf" points="207.5,-0.5 207.5,-19.5 300.5,-19.5 300.5,-0.5 207.5,-0.5"/>
<text text-anchor="middle" x="254" y="-7.5" font-family="Helvetica,sans-Serif" font-size="10.00">spdlog/spdlog.h</text>
</a>
</g>
</g>
<!-- Node5&#45;&gt;Node8 -->
<g id="edge8" class="edge">
<title>Node5&#45;&gt;Node8</title>
<path fill="none" stroke="midnightblue" d="M158.06,-56.44C176.57,-47.68 205.58,-33.94 226.86,-23.86"/>
<polygon fill="midnightblue" stroke="midnightblue" points="228.48,-26.96 236.02,-19.52 225.49,-20.63 228.48,-26.96"/>
</g>
<!-- Node10&#45;&gt;Node2 -->
<g id="edge15" class="edge">
<title>Node10&#45;&gt;Node2</title>
<path fill="none" stroke="midnightblue" d="M261.99,-168.44C227.27,-159.16 171.71,-144.31 133.62,-134.13"/>
<polygon fill="midnightblue" stroke="midnightblue" points="134.42,-130.72 123.86,-131.52 132.61,-137.48 134.42,-130.72"/>
</g>
<!-- Node10&#45;&gt;Node3 -->
<g id="edge11" class="edge">
<title>Node10&#45;&gt;Node3</title>
<path fill="none" stroke="midnightblue" d="M322.02,-168.4C339.17,-161.51 359.75,-149.98 370,-132 381.28,-112.21 359.16,-93.04 339.27,-80.71"/>
<polygon fill="midnightblue" stroke="midnightblue" points="340.82,-77.56 330.41,-75.55 337.29,-83.61 340.82,-77.56"/>
</g>
<!-- Node11 -->
<g id="node11" class="node">
<title>Node11</title>
<g id="a_node11"><a xlink:title=" ">
<polygon fill="white" stroke="#bfbfbf" points="159.5,-112.5 159.5,-131.5 224.5,-131.5 224.5,-112.5 159.5,-112.5"/>
<text text-anchor="middle" x="192" y="-119.5" font-family="Helvetica,sans-Serif" font-size="10.00">functional</text>
</a>
</g>
</g>
<!-- Node10&#45;&gt;Node11 -->
<g id="edge12" class="edge">
<title>Node10&#45;&gt;Node11</title>
<path fill="none" stroke="midnightblue" d="M277.61,-168.32C261.33,-159.7 236.13,-146.36 217.28,-136.39"/>
<polygon fill="midnightblue" stroke="midnightblue" points="218.82,-133.24 208.35,-131.65 215.55,-139.43 218.82,-133.24"/>
</g>
<!-- Node12 -->
<g id="node12" class="node">
<title>Node12</title>
<g id="a_node12"><a xlink:title=" ">
<polygon fill="white" stroke="#bfbfbf" points="243,-112.5 243,-131.5 299,-131.5 299,-112.5 243,-112.5"/>
<text text-anchor="middle" x="271" y="-119.5" font-family="Helvetica,sans-Serif" font-size="10.00">sstream</text>
</a>
</g>
</g>
<!-- Node10&#45;&gt;Node12 -->
<g id="edge13" class="edge">
<title>Node10&#45;&gt;Node12</title>
<path fill="none" stroke="midnightblue" d="M290.2,-168.08C287.09,-160.77 282.58,-150.18 278.71,-141.1"/>
<polygon fill="midnightblue" stroke="midnightblue" points="281.87,-139.58 274.73,-131.75 275.43,-142.32 281.87,-139.58"/>
</g>
<!-- Node13 -->
<g id="node13" class="node">
<title>Node13</title>
<g id="a_node13"><a xlink:title=" ">
<polygon fill="white" stroke="#bfbfbf" points="317,-112.5 317,-131.5 361,-131.5 361,-112.5 317,-112.5"/>
<text text-anchor="middle" x="339" y="-119.5" font-family="Helvetica,sans-Serif" font-size="10.00">string</text>
</a>
</g>
</g>
<!-- Node10&#45;&gt;Node13 -->
<g id="edge14" class="edge">
<title>Node10&#45;&gt;Node13</title>
<path fill="none" stroke="midnightblue" d="M301.43,-168.08C307.85,-160.38 317.31,-149.03 325.12,-139.65"/>
<polygon fill="midnightblue" stroke="midnightblue" points="327.99,-141.67 331.71,-131.75 322.62,-137.19 327.99,-141.67"/>
</g>
</g>
</svg>
