<?xml version="1.0" encoding="UTF-8" standalone="no"?>
<!DOCTYPE svg PUBLIC "-//W3C//DTD SVG 1.1//EN"
 "http://www.w3.org/Graphics/SVG/1.1/DTD/svg11.dtd">
<!-- Generated by graphviz version 2.43.0 (0)
 -->
<!-- Title: /home/runner/work/gauri/gauri/gauri/include/gauri/core/logger.h Pages: 1 -->
<svg width="3658pt" height="476pt"
 viewBox="0.00 0.00 3657.50 476.00" xmlns="http://www.w3.org/2000/svg" xmlns:xlink="http://www.w3.org/1999/xlink">
<g id="graph0" class="graph" transform="scale(1 1) rotate(0) translate(4 472)">
<title>/home/runner/work/gauri/gauri/gauri/include/gauri/core/logger.h</title>
<polygon fill="white" stroke="transparent" points="-4,4 -4,-472 3653.5,-472 3653.5,4 -4,4"/>
<!-- Node1 -->
<g id="node1" class="node">
<title>Node1</title>
<g id="a_node1"><a xlink:title=" ">
<polygon fill="#bfbfbf" stroke="black" points="870,-448.5 870,-467.5 1194,-467.5 1194,-448.5 870,-448.5"/>
<text text-anchor="middle" x="1032" y="-455.5" font-family="Helvetica,sans-Serif" font-size="10.00">/home/runner/work/gauri/gauri/gauri/include/gauri/core/logger.h</text>
</a>
</g>
</g>
<!-- Node2 -->
<g id="node2" class="node">
<title>Node2</title>
<g id="a_node2"><a xlink:href="core_8h.html" target="_top" xlink:title=" ">
<polygon fill="white" stroke="black" points="874.5,-392.5 874.5,-411.5 1189.5,-411.5 1189.5,-392.5 874.5,-392.5"/>
<text text-anchor="middle" x="1032" y="-399.5" font-family="Helvetica,sans-Serif" font-size="10.00">/home/runner/work/gauri/gauri/gauri/include/gauri/core/core.h</text>
</a>
</g>
</g>
<!-- Node1&#45;&gt;Node2 -->
<g id="edge1" class="edge">
<title>Node1&#45;&gt;Node2</title>
<path fill="none" stroke="midnightblue" d="M1032,-437.8C1032,-428.91 1032,-418.78 1032,-411.75"/>
<polygon fill="midnightblue" stroke="midnightblue" points="1028.5,-438.08 1032,-448.08 1035.5,-438.08 1028.5,-438.08"/>
</g>
<!-- Node4 -->
<g id="node4" class="node">
<title>Node4</title>
<g id="a_node4"><a xlink:href="gauri_8h.html" target="_top" xlink:title=" ">
<polygon fill="white" stroke="black" points="1293.5,-56.5 1293.5,-75.5 1560.5,-75.5 1560.5,-56.5 1293.5,-56.5"/>
<text text-anchor="middle" x="1427" y="-63.5" font-family="Helvetica,sans-Serif" font-size="10.00">/home/runner/work/gauri/gauri/gauri/include/gauri.h</text>
</a>
</g>
</g>
<!-- Node1&#45;&gt;Node4 -->
<g id="edge49" class="edge">
<title>Node1&#45;&gt;Node4</title>
<path fill="none" stroke="midnightblue" d="M859.57,-455.87C565.87,-451.64 0,-432.39 0,-347 0,-347 0,-347 0,-177 0,-137.68 24.25,-128.36 60,-112 115.38,-86.66 960.18,-73.03 1293.36,-68.62"/>
<polygon fill="midnightblue" stroke="midnightblue" points="859.85,-459.38 869.9,-456.02 859.95,-452.38 859.85,-459.38"/>
</g>
<!-- Node15 -->
<g id="node15" class="node">
<title>Node15</title>
<g id="a_node15"><a xlink:href="buffer_8h.html" target="_top" xlink:title=" ">
<polygon fill="white" stroke="black" points="1237,-336.5 1237,-355.5 1579,-355.5 1579,-336.5 1237,-336.5"/>
<text text-anchor="middle" x="1408" y="-343.5" font-family="Helvetica,sans-Serif" font-size="10.00">/home/runner/work/gauri/gauri/gauri/include/gauri/renderer/buffer.h</text>
</a>
</g>
</g>
<!-- Node1&#45;&gt;Node15 -->
<g id="edge48" class="edge">
<title>Node1&#45;&gt;Node15</title>
<path fill="none" stroke="midnightblue" d="M1074.8,-445.84C1108.39,-436.98 1156.29,-424.1 1198,-412 1264.34,-392.75 1341.85,-368.23 1381.57,-355.51"/>
<polygon fill="midnightblue" stroke="midnightblue" points="1073.63,-442.53 1064.85,-448.46 1075.41,-449.3 1073.63,-442.53"/>
</g>
<!-- Node3 -->
<g id="node3" class="node">
<title>Node3</title>
<g id="a_node3"><a xlink:href="input_8h.html" target="_top" xlink:title=" ">
<polygon fill="white" stroke="black" points="250.5,-336.5 250.5,-355.5 569.5,-355.5 569.5,-336.5 250.5,-336.5"/>
<text text-anchor="middle" x="410" y="-343.5" font-family="Helvetica,sans-Serif" font-size="10.00">/home/runner/work/gauri/gauri/gauri/include/gauri/core/input.h</text>
</a>
</g>
</g>
<!-- Node2&#45;&gt;Node3 -->
<g id="edge2" class="edge">
<title>Node2&#45;&gt;Node3</title>
<path fill="none" stroke="midnightblue" d="M923.71,-391.6C806.44,-381.42 621.03,-365.32 507.96,-355.5"/>
<polygon fill="midnightblue" stroke="midnightblue" points="923.52,-395.1 933.79,-392.47 924.13,-388.12 923.52,-395.1"/>
</g>
<!-- Node7 -->
<g id="node7" class="node">
<title>Node7</title>
<g id="a_node7"><a xlink:href="layer_8h.html" target="_top" xlink:title=" ">
<polygon fill="white" stroke="black" points="474,-224.5 474,-243.5 792,-243.5 792,-224.5 474,-224.5"/>
<text text-anchor="middle" x="633" y="-231.5" font-family="Helvetica,sans-Serif" font-size="10.00">/home/runner/work/gauri/gauri/gauri/include/gauri/core/layer.h</text>
</a>
</g>
</g>
<!-- Node2&#45;&gt;Node7 -->
<g id="edge6" class="edge">
<title>Node2&#45;&gt;Node7</title>
<path fill="none" stroke="midnightblue" d="M936.54,-390.92C895.23,-384.32 847.05,-373.52 806,-356 736.56,-326.36 666.85,-266.07 642.27,-243.65"/>
<polygon fill="midnightblue" stroke="midnightblue" points="936.2,-394.41 946.61,-392.47 937.26,-387.49 936.2,-394.41"/>
</g>
<!-- Node8 -->
<g id="node8" class="node">
<title>Node8</title>
<g id="a_node8"><a xlink:href="layer__stack_8h.html" target="_top" xlink:title=" ">
<polygon fill="white" stroke="black" points="480,-168.5 480,-187.5 830,-187.5 830,-168.5 480,-168.5"/>
<text text-anchor="middle" x="655" y="-175.5" font-family="Helvetica,sans-Serif" font-size="10.00">/home/runner/work/gauri/gauri/gauri/include/gauri/core/layer_stack.h</text>
</a>
</g>
</g>
<!-- Node2&#45;&gt;Node8 -->
<g id="edge14" class="edge">
<title>Node2&#45;&gt;Node8</title>
<path fill="none" stroke="midnightblue" d="M1002.38,-388.31C965.77,-371.66 902.81,-339.83 858,-300 826.44,-271.95 835.53,-248.3 801,-224 774.21,-205.15 739.29,-194.01 710.32,-187.54"/>
<polygon fill="midnightblue" stroke="midnightblue" points="1000.97,-391.51 1011.53,-392.4 1003.83,-385.12 1000.97,-391.51"/>
</g>
<!-- Node11 -->
<g id="node11" class="node">
<title>Node11</title>
<g id="a_node11"><a xlink:href="event_8h.html" target="_top" xlink:title=" ">
<polygon fill="white" stroke="black" points="867.5,-280.5 867.5,-299.5 1196.5,-299.5 1196.5,-280.5 867.5,-280.5"/>
<text text-anchor="middle" x="1032" y="-287.5" font-family="Helvetica,sans-Serif" font-size="10.00">/home/runner/work/gauri/gauri/gauri/include/gauri/event/event.h</text>
</a>
</g>
</g>
<!-- Node2&#45;&gt;Node11 -->
<g id="edge15" class="edge">
<title>Node2&#45;&gt;Node11</title>
<path fill="none" stroke="midnightblue" d="M1032,-382.35C1032,-358.25 1032,-317.31 1032,-299.59"/>
<polygon fill="midnightblue" stroke="midnightblue" points="1028.5,-382.37 1032,-392.37 1035.5,-382.37 1028.5,-382.37"/>
</g>
<!-- Node2&#45;&gt;Node15 -->
<g id="edge23" class="edge">
<title>Node2&#45;&gt;Node15</title>
<path fill="none" stroke="midnightblue" d="M1101.77,-390.98C1172.8,-380.78 1281.71,-365.14 1348.7,-355.52"/>
<polygon fill="midnightblue" stroke="midnightblue" points="1100.98,-387.56 1091.58,-392.44 1101.97,-394.49 1100.98,-387.56"/>
</g>
<!-- Node23 -->
<g id="node23" class="node">
<title>Node23</title>
<g id="a_node23"><a xlink:href="shader_8h.html" target="_top" xlink:title=" ">
<polygon fill="white" stroke="black" points="2409.5,-168.5 2409.5,-187.5 2756.5,-187.5 2756.5,-168.5 2409.5,-168.5"/>
<text text-anchor="middle" x="2583" y="-175.5" font-family="Helvetica,sans-Serif" font-size="10.00">/home/runner/work/gauri/gauri/gauri/include/gauri/renderer/shader.h</text>
</a>
</g>
</g>
<!-- Node2&#45;&gt;Node23 -->
<g id="edge37" class="edge">
<title>Node2&#45;&gt;Node23</title>
<path fill="none" stroke="midnightblue" d="M1200.16,-399.77C1433.2,-395.14 1866.4,-375.93 2227,-300 2359.23,-272.16 2510.38,-210.23 2563.4,-187.54"/>
<polygon fill="midnightblue" stroke="midnightblue" points="1199.84,-396.28 1189.9,-399.97 1199.97,-403.28 1199.84,-396.28"/>
</g>
<!-- Node25 -->
<g id="node25" class="node">
<title>Node25</title>
<g id="a_node25"><a xlink:href="texture_8h.html" target="_top" xlink:title=" ">
<polygon fill="white" stroke="black" points="2647,-224.5 2647,-243.5 2997,-243.5 2997,-224.5 2647,-224.5"/>
<text text-anchor="middle" x="2822" y="-231.5" font-family="Helvetica,sans-Serif" font-size="10.00">/home/runner/work/gauri/gauri/gauri/include/gauri/renderer/texture.h</text>
</a>
</g>
</g>
<!-- Node2&#45;&gt;Node25 -->
<g id="edge41" class="edge">
<title>Node2&#45;&gt;Node25</title>
<path fill="none" stroke="midnightblue" d="M1200.13,-401.84C1524.1,-402.44 2223.76,-398.54 2461,-356 2596.33,-331.73 2750.07,-267.02 2802.96,-243.61"/>
<polygon fill="midnightblue" stroke="midnightblue" points="1199.72,-398.34 1189.71,-401.82 1199.71,-405.34 1199.72,-398.34"/>
</g>
<!-- Node3&#45;&gt;Node4 -->
<g id="edge3" class="edge">
<title>Node3&#45;&gt;Node4</title>
<path fill="none" stroke="midnightblue" d="M310.26,-335.23C200.07,-321.61 38,-291.9 38,-235 38,-235 38,-235 38,-177 38,-107.59 112.46,-128 180,-112 285.89,-86.91 993.81,-73.48 1293.44,-68.87"/>
<polygon fill="midnightblue" stroke="midnightblue" points="310.08,-338.74 320.42,-336.46 310.92,-331.79 310.08,-338.74"/>
</g>
<!-- Node6 -->
<g id="node6" class="node">
<title>Node6</title>
<g id="a_node6"><a xlink:href="windows__input_8h.html" target="_top" xlink:title=" ">
<polygon fill="white" stroke="black" points="207,-280.5 207,-299.5 613,-299.5 613,-280.5 207,-280.5"/>
<text text-anchor="middle" x="410" y="-287.5" font-family="Helvetica,sans-Serif" font-size="10.00">/home/runner/work/gauri/gauri/gauri/include/platform/windows/windows_input.h</text>
</a>
</g>
</g>
<!-- Node3&#45;&gt;Node6 -->
<g id="edge5" class="edge">
<title>Node3&#45;&gt;Node6</title>
<path fill="none" stroke="midnightblue" d="M410,-325.8C410,-316.91 410,-306.78 410,-299.75"/>
<polygon fill="midnightblue" stroke="midnightblue" points="406.5,-326.08 410,-336.08 413.5,-326.08 406.5,-326.08"/>
</g>
<!-- Node5 -->
<g id="node5" class="node">
<title>Node5</title>
<g id="a_node5"><a xlink:href="entry__point_8h.html" target="_top" xlink:title=" ">
<polygon fill="white" stroke="black" points="1252,-0.5 1252,-19.5 1602,-19.5 1602,-0.5 1252,-0.5"/>
<text text-anchor="middle" x="1427" y="-7.5" font-family="Helvetica,sans-Serif" font-size="10.00">/home/runner/work/gauri/gauri/gauri/include/gauri/core/entry_point.h</text>
</a>
</g>
</g>
<!-- Node4&#45;&gt;Node5 -->
<g id="edge4" class="edge">
<title>Node4&#45;&gt;Node5</title>
<path fill="none" stroke="midnightblue" d="M1427,-45.8C1427,-36.91 1427,-26.78 1427,-19.75"/>
<polygon fill="midnightblue" stroke="midnightblue" points="1423.5,-46.08 1427,-56.08 1430.5,-46.08 1423.5,-46.08"/>
</g>
<!-- Node7&#45;&gt;Node4 -->
<g id="edge13" class="edge">
<title>Node7&#45;&gt;Node4</title>
<path fill="none" stroke="midnightblue" d="M463.69,-230.12C315.43,-225.8 119.83,-214.99 95,-188 88.98,-181.46 89.24,-174.77 95,-168 171.59,-77.97 970.99,-67.28 1293.35,-66.66"/>
<polygon fill="midnightblue" stroke="midnightblue" points="463.74,-233.63 473.83,-230.41 463.93,-226.63 463.74,-233.63"/>
</g>
<!-- Node7&#45;&gt;Node8 -->
<g id="edge7" class="edge">
<title>Node7&#45;&gt;Node8</title>
<path fill="none" stroke="midnightblue" d="M640.46,-214.69C644.17,-205.59 648.48,-195.01 651.43,-187.75"/>
<polygon fill="midnightblue" stroke="midnightblue" points="637.16,-213.5 636.63,-224.08 643.65,-216.14 637.16,-213.5"/>
</g>
<!-- Node10 -->
<g id="node10" class="node">
<title>Node10</title>
<g id="a_node10"><a xlink:href="imgui__layer_8h.html" target="_top" xlink:title=" ">
<polygon fill="white" stroke="black" points="104,-168.5 104,-187.5 462,-187.5 462,-168.5 104,-168.5"/>
<text text-anchor="middle" x="283" y="-175.5" font-family="Helvetica,sans-Serif" font-size="10.00">/home/runner/work/gauri/gauri/gauri/include/gauri/imgui/imgui_layer.h</text>
</a>
</g>
</g>
<!-- Node7&#45;&gt;Node10 -->
<g id="edge10" class="edge">
<title>Node7&#45;&gt;Node10</title>
<path fill="none" stroke="midnightblue" d="M567.64,-222.92C501.52,-212.71 400.43,-197.12 338.2,-187.52"/>
<polygon fill="midnightblue" stroke="midnightblue" points="567.12,-226.38 577.54,-224.44 568.19,-219.46 567.12,-226.38"/>
</g>
<!-- Node9 -->
<g id="node9" class="node">
<title>Node9</title>
<g id="a_node9"><a xlink:href="application_8h.html" target="_top" xlink:title=" ">
<polygon fill="white" stroke="black" points="544,-112.5 544,-131.5 892,-131.5 892,-112.5 544,-112.5"/>
<text text-anchor="middle" x="718" y="-119.5" font-family="Helvetica,sans-Serif" font-size="10.00">/home/runner/work/gauri/gauri/gauri/include/gauri/core/application.h</text>
</a>
</g>
</g>
<!-- Node8&#45;&gt;Node9 -->
<g id="edge8" class="edge">
<title>Node8&#45;&gt;Node9</title>
<path fill="none" stroke="midnightblue" d="M673.04,-161.54C684.27,-151.91 698.32,-139.87 707.69,-131.83"/>
<polygon fill="midnightblue" stroke="midnightblue" points="670.44,-159.16 665.12,-168.32 674.99,-164.47 670.44,-159.16"/>
</g>
<!-- Node9&#45;&gt;Node4 -->
<g id="edge9" class="edge">
<title>Node9&#45;&gt;Node4</title>
<path fill="none" stroke="midnightblue" d="M840.23,-111.69C973.84,-101.51 1186.07,-85.35 1315.34,-75.5"/>
<polygon fill="midnightblue" stroke="midnightblue" points="839.66,-108.22 829.95,-112.47 840.19,-115.2 839.66,-108.22"/>
</g>
<!-- Node10&#45;&gt;Node4 -->
<g id="edge12" class="edge">
<title>Node10&#45;&gt;Node4</title>
<path fill="none" stroke="midnightblue" d="M318.82,-165.31C367.25,-150.08 456.61,-123.96 535,-112 677.07,-90.32 1081.11,-76.44 1293.23,-70.44"/>
<polygon fill="midnightblue" stroke="midnightblue" points="317.59,-162.03 309.12,-168.39 319.71,-168.7 317.59,-162.03"/>
</g>
<!-- Node10&#45;&gt;Node9 -->
<g id="edge11" class="edge">
<title>Node10&#45;&gt;Node9</title>
<path fill="none" stroke="midnightblue" d="M361.96,-167.2C444.08,-157 571.34,-141.21 649.4,-131.52"/>
<polygon fill="midnightblue" stroke="midnightblue" points="361.42,-163.74 351.93,-168.44 362.28,-170.68 361.42,-163.74"/>
</g>
<!-- Node11&#45;&gt;Node7 -->
<g id="edge17" class="edge">
<title>Node11&#45;&gt;Node7</title>
<path fill="none" stroke="midnightblue" d="M958.42,-279.04C883.06,-268.84 767.16,-253.16 695.93,-243.52"/>
<polygon fill="midnightblue" stroke="midnightblue" points="958.4,-282.57 968.78,-280.44 959.34,-275.63 958.4,-282.57"/>
</g>
<!-- Node11&#45;&gt;Node9 -->
<g id="edge16" class="edge">
<title>Node11&#45;&gt;Node9</title>
<path fill="none" stroke="midnightblue" d="M948.67,-278.01C923.52,-271.42 897.24,-260.87 877,-244 847.99,-219.82 867.1,-193.23 839,-168 818.07,-149.21 788.58,-138.03 763.96,-131.51"/>
<polygon fill="midnightblue" stroke="midnightblue" points="948.07,-281.47 958.61,-280.43 949.72,-274.66 948.07,-281.47"/>
</g>
<!-- Node12 -->
<g id="node12" class="node">
<title>Node12</title>
<g id="a_node12"><a xlink:href="window_8h.html" target="_top" xlink:title=" ">
<polygon fill="white" stroke="black" points="886.5,-224.5 886.5,-243.5 1217.5,-243.5 1217.5,-224.5 886.5,-224.5"/>
<text text-anchor="middle" x="1052" y="-231.5" font-family="Helvetica,sans-Serif" font-size="10.00">/home/runner/work/gauri/gauri/gauri/include/gauri/core/window.h</text>
</a>
</g>
</g>
<!-- Node11&#45;&gt;Node12 -->
<g id="edge18" class="edge">
<title>Node11&#45;&gt;Node12</title>
<path fill="none" stroke="midnightblue" d="M1038.78,-270.69C1042.15,-261.59 1046.07,-251.01 1048.76,-243.75"/>
<polygon fill="midnightblue" stroke="midnightblue" points="1035.49,-269.49 1035.3,-280.08 1042.06,-271.92 1035.49,-269.49"/>
</g>
<!-- Node14 -->
<g id="node14" class="node">
<title>Node14</title>
<g id="a_node14"><a xlink:href="orthographic__camera__controller_8h.html" target="_top" xlink:title=" ">
<polygon fill="white" stroke="black" points="910.5,-112.5 910.5,-131.5 1379.5,-131.5 1379.5,-112.5 910.5,-112.5"/>
<text text-anchor="middle" x="1145" y="-119.5" font-family="Helvetica,sans-Serif" font-size="10.00">/home/runner/work/gauri/gauri/gauri/include/gauri/renderer/orthographic_camera_controller.h</text>
</a>
</g>
</g>
<!-- Node11&#45;&gt;Node14 -->
<g id="edge21" class="edge">
<title>Node11&#45;&gt;Node14</title>
<path fill="none" stroke="midnightblue" d="M1094.95,-278.67C1179.63,-263.28 1322.89,-231.4 1351,-188 1355.83,-180.54 1356.57,-174.92 1351,-168 1336.08,-149.47 1283.19,-138.15 1234.74,-131.5"/>
<polygon fill="midnightblue" stroke="midnightblue" points="1094.15,-275.26 1084.92,-280.47 1095.38,-282.15 1094.15,-275.26"/>
</g>
<!-- Node12&#45;&gt;Node9 -->
<g id="edge19" class="edge">
<title>Node12&#45;&gt;Node9</title>
<path fill="none" stroke="midnightblue" d="M1013.08,-221.56C985.42,-213.1 947.56,-200.87 915,-188 895.4,-180.25 891.73,-175.42 872,-168 831.85,-152.9 784.28,-139.68 752.74,-131.55"/>
<polygon fill="midnightblue" stroke="midnightblue" points="1012.2,-224.95 1022.78,-224.5 1014.23,-218.25 1012.2,-224.95"/>
</g>
<!-- Node13 -->
<g id="node13" class="node">
<title>Node13</title>
<g id="a_node13"><a xlink:href="windows__window_8h.html" target="_top" xlink:title=" ">
<polygon fill="white" stroke="black" points="924,-168.5 924,-187.5 1342,-187.5 1342,-168.5 924,-168.5"/>
<text text-anchor="middle" x="1133" y="-175.5" font-family="Helvetica,sans-Serif" font-size="10.00">/home/runner/work/gauri/gauri/gauri/include/platform/windows/windows_window.h</text>
</a>
</g>
</g>
<!-- Node12&#45;&gt;Node13 -->
<g id="edge20" class="edge">
<title>Node12&#45;&gt;Node13</title>
<path fill="none" stroke="midnightblue" d="M1073.57,-218.62C1088.36,-208.76 1107.51,-195.99 1120.02,-187.65"/>
<polygon fill="midnightblue" stroke="midnightblue" points="1071.39,-215.86 1065.01,-224.32 1075.28,-221.69 1071.39,-215.86"/>
</g>
<!-- Node14&#45;&gt;Node4 -->
<g id="edge22" class="edge">
<title>Node14&#45;&gt;Node4</title>
<path fill="none" stroke="midnightblue" d="M1199.64,-110.54C1252.94,-100.33 1333,-85 1382.53,-75.52"/>
<polygon fill="midnightblue" stroke="midnightblue" points="1198.85,-107.13 1189.68,-112.44 1200.16,-114 1198.85,-107.13"/>
</g>
<!-- Node15&#45;&gt;Node4 -->
<g id="edge35" class="edge">
<title>Node15&#45;&gt;Node4</title>
<path fill="none" stroke="midnightblue" d="M1408,-326.25C1408,-304.36 1408,-267.05 1408,-235 1408,-235 1408,-235 1408,-177 1408,-138.82 1419.25,-94.26 1424.44,-75.75"/>
<polygon fill="midnightblue" stroke="midnightblue" points="1404.5,-326.44 1408,-336.44 1411.5,-326.44 1404.5,-326.44"/>
</g>
<!-- Node16 -->
<g id="node16" class="node">
<title>Node16</title>
<g id="a_node16"><a xlink:href="vertex__array_8h.html" target="_top" xlink:title=" ">
<polygon fill="white" stroke="black" points="1436.5,-280.5 1436.5,-299.5 1811.5,-299.5 1811.5,-280.5 1436.5,-280.5"/>
<text text-anchor="middle" x="1624" y="-287.5" font-family="Helvetica,sans-Serif" font-size="10.00">/home/runner/work/gauri/gauri/gauri/include/gauri/renderer/vertex_array.h</text>
</a>
</g>
</g>
<!-- Node15&#45;&gt;Node16 -->
<g id="edge24" class="edge">
<title>Node15&#45;&gt;Node16</title>
<path fill="none" stroke="midnightblue" d="M1452.16,-333.96C1492.96,-323.76 1552.71,-308.82 1589.93,-299.52"/>
<polygon fill="midnightblue" stroke="midnightblue" points="1451.08,-330.62 1442.23,-336.44 1452.78,-337.41 1451.08,-330.62"/>
</g>
<!-- Node22 -->
<g id="node22" class="node">
<title>Node22</title>
<g id="a_node22"><a xlink:href="opengl__buffer_8h.html" target="_top" xlink:title=" ">
<polygon fill="white" stroke="black" points="1829.5,-280.5 1829.5,-299.5 2218.5,-299.5 2218.5,-280.5 1829.5,-280.5"/>
<text text-anchor="middle" x="2024" y="-287.5" font-family="Helvetica,sans-Serif" font-size="10.00">/home/runner/work/gauri/gauri/gauri/include/platform/opengl/opengl_buffer.h</text>
</a>
</g>
</g>
<!-- Node15&#45;&gt;Node22 -->
<g id="edge36" class="edge">
<title>Node15&#45;&gt;Node22</title>
<path fill="none" stroke="midnightblue" d="M1515.25,-335.6C1631.39,-325.42 1815.01,-309.32 1926.99,-299.5"/>
<polygon fill="midnightblue" stroke="midnightblue" points="1514.92,-332.11 1505.27,-336.47 1515.53,-339.09 1514.92,-332.11"/>
</g>
<!-- Node16&#45;&gt;Node4 -->
<g id="edge33" class="edge">
<title>Node16&#45;&gt;Node4</title>
<path fill="none" stroke="midnightblue" d="M1552.58,-277.73C1530.19,-271.11 1506.93,-260.63 1490,-244 1440.2,-195.09 1429.64,-104.26 1427.51,-75.78"/>
<polygon fill="midnightblue" stroke="midnightblue" points="1551.87,-281.16 1562.43,-280.42 1553.71,-274.41 1551.87,-281.16"/>
</g>
<!-- Node17 -->
<g id="node17" class="node">
<title>Node17</title>
<g id="a_node17"><a xlink:href="renderer__api_8h.html" target="_top" xlink:title=" ">
<polygon fill="white" stroke="black" points="1499,-224.5 1499,-243.5 1875,-243.5 1875,-224.5 1499,-224.5"/>
<text text-anchor="middle" x="1687" y="-231.5" font-family="Helvetica,sans-Serif" font-size="10.00">/home/runner/work/gauri/gauri/gauri/include/gauri/renderer/renderer_api.h</text>
</a>
</g>
</g>
<!-- Node16&#45;&gt;Node17 -->
<g id="edge25" class="edge">
<title>Node16&#45;&gt;Node17</title>
<path fill="none" stroke="midnightblue" d="M1642.04,-273.54C1653.27,-263.91 1667.32,-251.87 1676.69,-243.83"/>
<polygon fill="midnightblue" stroke="midnightblue" points="1639.44,-271.16 1634.12,-280.32 1643.99,-276.47 1639.44,-271.16"/>
</g>
<!-- Node21 -->
<g id="node21" class="node">
<title>Node21</title>
<g id="a_node21"><a xlink:href="opengl__vertex__array_8h.html" target="_top" xlink:title=" ">
<polygon fill="white" stroke="black" points="1893,-224.5 1893,-243.5 2315,-243.5 2315,-224.5 1893,-224.5"/>
<text text-anchor="middle" x="2104" y="-231.5" font-family="Helvetica,sans-Serif" font-size="10.00">/home/runner/work/gauri/gauri/gauri/include/platform/opengl/opengl_vertex_array.h</text>
</a>
</g>
</g>
<!-- Node16&#45;&gt;Node21 -->
<g id="edge34" class="edge">
<title>Node16&#45;&gt;Node21</title>
<path fill="none" stroke="midnightblue" d="M1709.75,-279.35C1800.29,-269.17 1941.63,-253.27 2028.21,-243.53"/>
<polygon fill="midnightblue" stroke="midnightblue" points="1709.34,-275.88 1699.79,-280.47 1710.12,-282.83 1709.34,-275.88"/>
</g>
<!-- Node17&#45;&gt;Node4 -->
<g id="edge31" class="edge">
<title>Node17&#45;&gt;Node4</title>
<path fill="none" stroke="midnightblue" d="M1580.27,-222.18C1553.1,-215.51 1525.3,-204.88 1503,-188 1472.05,-164.58 1481.07,-144.59 1460,-112 1451.59,-98.98 1440.8,-84.66 1433.89,-75.75"/>
<polygon fill="midnightblue" stroke="midnightblue" points="1579.71,-225.65 1590.24,-224.47 1581.28,-218.82 1579.71,-225.65"/>
</g>
<!-- Node18 -->
<g id="node18" class="node">
<title>Node18</title>
<g id="a_node18"><a xlink:href="render__command_8h.html" target="_top" xlink:title=" ">
<polygon fill="white" stroke="black" points="1512,-168.5 1512,-187.5 1912,-187.5 1912,-168.5 1512,-168.5"/>
<text text-anchor="middle" x="1712" y="-175.5" font-family="Helvetica,sans-Serif" font-size="10.00">/home/runner/work/gauri/gauri/gauri/include/gauri/renderer/render_command.h</text>
</a>
</g>
</g>
<!-- Node17&#45;&gt;Node18 -->
<g id="edge26" class="edge">
<title>Node17&#45;&gt;Node18</title>
<path fill="none" stroke="midnightblue" d="M1695.34,-214.98C1699.58,-205.82 1704.55,-195.09 1707.95,-187.75"/>
<polygon fill="midnightblue" stroke="midnightblue" points="1692.15,-213.54 1691.13,-224.08 1698.51,-216.48 1692.15,-213.54"/>
</g>
<!-- Node19 -->
<g id="node19" class="node">
<title>Node19</title>
<g id="a_node19"><a xlink:href="renderer_8h.html" target="_top" xlink:title=" ">
<polygon fill="white" stroke="black" points="1704.5,-112.5 1704.5,-131.5 2059.5,-131.5 2059.5,-112.5 1704.5,-112.5"/>
<text text-anchor="middle" x="1882" y="-119.5" font-family="Helvetica,sans-Serif" font-size="10.00">/home/runner/work/gauri/gauri/gauri/include/gauri/renderer/renderer.h</text>
</a>
</g>
</g>
<!-- Node17&#45;&gt;Node19 -->
<g id="edge30" class="edge">
<title>Node17&#45;&gt;Node19</title>
<path fill="none" stroke="midnightblue" d="M1812.67,-223.14C1860.17,-216.58 1906.33,-205.75 1921,-188 1936.25,-169.53 1910.11,-144.47 1893.72,-131.52"/>
<polygon fill="midnightblue" stroke="midnightblue" points="1811.99,-219.7 1802.53,-224.48 1812.9,-226.64 1811.99,-219.7"/>
</g>
<!-- Node20 -->
<g id="node20" class="node">
<title>Node20</title>
<g id="a_node20"><a xlink:href="opengl__renderer__api_8h.html" target="_top" xlink:title=" ">
<polygon fill="white" stroke="black" points="1968.5,-168.5 1968.5,-187.5 2391.5,-187.5 2391.5,-168.5 1968.5,-168.5"/>
<text text-anchor="middle" x="2180" y="-175.5" font-family="Helvetica,sans-Serif" font-size="10.00">/home/runner/work/gauri/gauri/gauri/include/platform/opengl/opengl_renderer_api.h</text>
</a>
</g>
</g>
<!-- Node17&#45;&gt;Node20 -->
<g id="edge32" class="edge">
<title>Node17&#45;&gt;Node20</title>
<path fill="none" stroke="midnightblue" d="M1774.79,-223.38C1867.77,-213.2 2013.15,-197.28 2102.16,-187.53"/>
<polygon fill="midnightblue" stroke="midnightblue" points="1774.4,-219.91 1764.85,-224.47 1775.17,-226.86 1774.4,-219.91"/>
</g>
<!-- Node18&#45;&gt;Node4 -->
<g id="edge29" class="edge">
<title>Node18&#45;&gt;Node4</title>
<path fill="none" stroke="midnightblue" d="M1680.2,-164.73C1621.95,-142.25 1499.52,-94.99 1449.26,-75.59"/>
<polygon fill="midnightblue" stroke="midnightblue" points="1679.05,-168.03 1689.64,-168.37 1681.57,-161.5 1679.05,-168.03"/>
</g>
<!-- Node18&#45;&gt;Node19 -->
<g id="edge27" class="edge">
<title>Node18&#45;&gt;Node19</title>
<path fill="none" stroke="midnightblue" d="M1748.82,-165.3C1780.85,-155.13 1826.52,-140.62 1855.19,-131.52"/>
<polygon fill="midnightblue" stroke="midnightblue" points="1747.41,-162.08 1738.94,-168.44 1749.53,-168.75 1747.41,-162.08"/>
</g>
<!-- Node19&#45;&gt;Node4 -->
<g id="edge28" class="edge">
<title>Node19&#45;&gt;Node4</title>
<path fill="none" stroke="midnightblue" d="M1800.19,-111.29C1714.35,-101.1 1580.74,-85.25 1498.84,-75.53"/>
<polygon fill="midnightblue" stroke="midnightblue" points="1799.81,-114.77 1810.15,-112.47 1800.64,-107.82 1799.81,-114.77"/>
</g>
<!-- Node23&#45;&gt;Node4 -->
<g id="edge39" class="edge">
<title>Node23&#45;&gt;Node4</title>
<path fill="none" stroke="midnightblue" d="M2513.89,-167.04C2415.18,-153.1 2228.04,-127.7 2068,-112 1893,-94.83 1690.49,-81.74 1560.69,-74.22"/>
<polygon fill="midnightblue" stroke="midnightblue" points="2513.64,-170.54 2524.03,-168.48 2514.62,-163.61 2513.64,-170.54"/>
</g>
<!-- Node23&#45;&gt;Node19 -->
<g id="edge38" class="edge">
<title>Node23&#45;&gt;Node19</title>
<path fill="none" stroke="midnightblue" d="M2462.15,-167.69C2330.05,-157.51 2120.21,-141.35 1992.4,-131.5"/>
<polygon fill="midnightblue" stroke="midnightblue" points="2462.07,-171.19 2472.31,-168.47 2462.61,-164.22 2462.07,-171.19"/>
</g>
<!-- Node24 -->
<g id="node24" class="node">
<title>Node24</title>
<g id="a_node24"><a xlink:href="opengl__shader_8h.html" target="_top" xlink:title=" ">
<polygon fill="white" stroke="black" points="2362,-112.5 2362,-131.5 2756,-131.5 2756,-112.5 2362,-112.5"/>
<text text-anchor="middle" x="2559" y="-119.5" font-family="Helvetica,sans-Serif" font-size="10.00">/home/runner/work/gauri/gauri/gauri/include/platform/opengl/opengl_shader.h</text>
</a>
</g>
</g>
<!-- Node23&#45;&gt;Node24 -->
<g id="edge40" class="edge">
<title>Node23&#45;&gt;Node24</title>
<path fill="none" stroke="midnightblue" d="M2574.86,-158.69C2570.82,-149.59 2566.12,-139.01 2562.89,-131.75"/>
<polygon fill="midnightblue" stroke="midnightblue" points="2571.78,-160.37 2579.04,-168.08 2578.17,-157.52 2571.78,-160.37"/>
</g>
<!-- Node25&#45;&gt;Node4 -->
<g id="edge46" class="edge">
<title>Node25&#45;&gt;Node4</title>
<path fill="none" stroke="midnightblue" d="M2819.31,-214.31C2814.21,-186.55 2800.29,-135.23 2765,-112 2715.33,-79.31 1889.71,-70.13 1560.73,-67.76"/>
<polygon fill="midnightblue" stroke="midnightblue" points="2815.88,-215 2820.95,-224.3 2822.78,-213.87 2815.88,-215"/>
</g>
<!-- Node26 -->
<g id="node26" class="node">
<title>Node26</title>
<g id="a_node26"><a xlink:href="renderer__2d_8h.html" target="_top" xlink:title=" ">
<polygon fill="white" stroke="black" points="2812.5,-112.5 2812.5,-131.5 3185.5,-131.5 3185.5,-112.5 2812.5,-112.5"/>
<text text-anchor="middle" x="2999" y="-119.5" font-family="Helvetica,sans-Serif" font-size="10.00">/home/runner/work/gauri/gauri/gauri/include/gauri/renderer/renderer_2d.h</text>
</a>
</g>
</g>
<!-- Node25&#45;&gt;Node26 -->
<g id="edge42" class="edge">
<title>Node25&#45;&gt;Node26</title>
<path fill="none" stroke="midnightblue" d="M2822.79,-213.77C2824.4,-199.32 2828.89,-180.03 2841,-168 2860.02,-149.11 2886.38,-138.02 2912.12,-131.56"/>
<polygon fill="midnightblue" stroke="midnightblue" points="2819.27,-213.85 2822.02,-224.08 2826.25,-214.37 2819.27,-213.85"/>
</g>
<!-- Node27 -->
<g id="node27" class="node">
<title>Node27</title>
<g id="a_node27"><a xlink:href="subtexture__2d_8h.html" target="_top" xlink:title=" ">
<polygon fill="white" stroke="black" points="2850,-168.5 2850,-187.5 3234,-187.5 3234,-168.5 2850,-168.5"/>
<text text-anchor="middle" x="3042" y="-175.5" font-family="Helvetica,sans-Serif" font-size="10.00">/home/runner/work/gauri/gauri/gauri/include/gauri/renderer/subtexture_2d.h</text>
</a>
</g>
</g>
<!-- Node25&#45;&gt;Node27 -->
<g id="edge44" class="edge">
<title>Node25&#45;&gt;Node27</title>
<path fill="none" stroke="midnightblue" d="M2866.72,-222.02C2908.28,-211.82 2969.31,-196.84 3007.3,-187.52"/>
<polygon fill="midnightblue" stroke="midnightblue" points="2865.74,-218.66 2856.86,-224.44 2867.41,-225.46 2865.74,-218.66"/>
</g>
<!-- Node28 -->
<g id="node28" class="node">
<title>Node28</title>
<g id="a_node28"><a xlink:href="opengl__texture_8h.html" target="_top" xlink:title=" ">
<polygon fill="white" stroke="black" points="3252.5,-168.5 3252.5,-187.5 3649.5,-187.5 3649.5,-168.5 3252.5,-168.5"/>
<text text-anchor="middle" x="3451" y="-175.5" font-family="Helvetica,sans-Serif" font-size="10.00">/home/runner/work/gauri/gauri/gauri/include/platform/opengl/opengl_texture.h</text>
</a>
</g>
</g>
<!-- Node25&#45;&gt;Node28 -->
<g id="edge47" class="edge">
<title>Node25&#45;&gt;Node28</title>
<path fill="none" stroke="midnightblue" d="M2931.51,-223.6C3050.1,-213.42 3237.6,-197.32 3351.94,-187.5"/>
<polygon fill="midnightblue" stroke="midnightblue" points="2930.98,-220.13 2921.32,-224.47 2931.58,-227.11 2930.98,-220.13"/>
</g>
<!-- Node26&#45;&gt;Node4 -->
<g id="edge43" class="edge">
<title>Node26&#45;&gt;Node4</title>
<path fill="none" stroke="midnightblue" d="M2801.99,-112.16C2800.66,-112.1 2799.33,-112.05 2798,-112 2344.37,-94.4 1806.13,-78.06 1560.81,-70.86"/>
<polygon fill="midnightblue" stroke="midnightblue" points="2802.17,-115.67 2812.3,-112.56 2802.45,-108.67 2802.17,-115.67"/>
</g>
<!-- Node27&#45;&gt;Node26 -->
<g id="edge45" class="edge">
<title>Node27&#45;&gt;Node26</title>
<path fill="none" stroke="midnightblue" d="M3028.58,-160.14C3021.09,-150.74 3012.06,-139.4 3005.97,-131.75"/>
<polygon fill="midnightblue" stroke="midnightblue" points="3025.93,-162.44 3034.9,-168.08 3031.41,-158.08 3025.93,-162.44"/>
</g>
</g>
</svg>
