<?xml version="1.0" encoding="UTF-8" standalone="no"?>
<!DOCTYPE svg PUBLIC "-//W3C//DTD SVG 1.1//EN"
 "http://www.w3.org/Graphics/SVG/1.1/DTD/svg11.dtd">
<!-- Generated by graphviz version 2.43.0 (0)
 -->
<!-- Title: /home/runner/work/gauri/gauri/gauri/include/gauri/core/logger.h Pages: 1 -->
<svg width="4145pt" height="476pt"
 viewBox="0.00 0.00 4145.00 476.00" xmlns="http://www.w3.org/2000/svg" xmlns:xlink="http://www.w3.org/1999/xlink">
<g id="graph0" class="graph" transform="scale(1 1) rotate(0) translate(4 472)">
<title>/home/runner/work/gauri/gauri/gauri/include/gauri/core/logger.h</title>
<polygon fill="white" stroke="transparent" points="-4,4 -4,-472 4141,-472 4141,4 -4,4"/>
<!-- Node1 -->
<g id="node1" class="node">
<title>Node1</title>
<g id="a_node1"><a xlink:title=" ">
<polygon fill="#bfbfbf" stroke="black" points="1843,-448.5 1843,-467.5 2167,-467.5 2167,-448.5 1843,-448.5"/>
<text text-anchor="middle" x="2005" y="-455.5" font-family="Helvetica,sans-Serif" font-size="10.00">/home/runner/work/gauri/gauri/gauri/include/gauri/core/logger.h</text>
</a>
</g>
</g>
<!-- Node2 -->
<g id="node2" class="node">
<title>Node2</title>
<g id="a_node2"><a xlink:href="base_8h.html" target="_top" xlink:title=" ">
<polygon fill="white" stroke="black" points="1940.5,-392.5 1940.5,-411.5 2257.5,-411.5 2257.5,-392.5 1940.5,-392.5"/>
<text text-anchor="middle" x="2099" y="-399.5" font-family="Helvetica,sans-Serif" font-size="10.00">/home/runner/work/gauri/gauri/gauri/include/gauri/core/base.h</text>
</a>
</g>
</g>
<!-- Node1&#45;&gt;Node2 -->
<g id="edge1" class="edge">
<title>Node1&#45;&gt;Node2</title>
<path fill="none" stroke="midnightblue" d="M2029.06,-443.18C2046.36,-433.24 2069.15,-420.15 2083.93,-411.65"/>
<polygon fill="midnightblue" stroke="midnightblue" points="2027.03,-440.31 2020.1,-448.32 2030.52,-446.38 2027.03,-440.31"/>
</g>
<!-- Node4 -->
<g id="node4" class="node">
<title>Node4</title>
<g id="a_node4"><a xlink:href="gauri_8h.html" target="_top" xlink:title=" ">
<polygon fill="white" stroke="black" points="1416.5,-56.5 1416.5,-75.5 1683.5,-75.5 1683.5,-56.5 1416.5,-56.5"/>
<text text-anchor="middle" x="1550" y="-63.5" font-family="Helvetica,sans-Serif" font-size="10.00">/home/runner/work/gauri/gauri/gauri/include/gauri.h</text>
</a>
</g>
</g>
<!-- Node1&#45;&gt;Node4 -->
<g id="edge59" class="edge">
<title>Node1&#45;&gt;Node4</title>
<path fill="none" stroke="midnightblue" d="M1832.35,-456.48C1346.03,-453.87 0,-438.4 0,-347 0,-347 0,-347 0,-177 0,-136.46 26.85,-128.22 64,-112 125.33,-85.22 1062.96,-72.29 1416.49,-68.35"/>
<polygon fill="midnightblue" stroke="midnightblue" points="1832.6,-459.98 1842.62,-456.53 1832.64,-452.98 1832.6,-459.98"/>
</g>
<!-- Node14 -->
<g id="node14" class="node">
<title>Node14</title>
<g id="a_node14"><a xlink:href="buffer_8h.html" target="_top" xlink:title=" ">
<polygon fill="white" stroke="black" points="1741,-336.5 1741,-355.5 2083,-355.5 2083,-336.5 1741,-336.5"/>
<text text-anchor="middle" x="1912" y="-343.5" font-family="Helvetica,sans-Serif" font-size="10.00">/home/runner/work/gauri/gauri/gauri/include/gauri/renderer/buffer.h</text>
</a>
</g>
</g>
<!-- Node1&#45;&gt;Node14 -->
<g id="edge57" class="edge">
<title>Node1&#45;&gt;Node14</title>
<path fill="none" stroke="midnightblue" d="M1972.83,-444.01C1958.17,-436.61 1941.74,-425.99 1931,-412 1917.98,-395.02 1913.87,-369.33 1912.58,-355.9"/>
<polygon fill="midnightblue" stroke="midnightblue" points="1971.59,-447.3 1982.12,-448.41 1974.58,-440.97 1971.59,-447.3"/>
</g>
<!-- Node22 -->
<g id="node22" class="node">
<title>Node22</title>
<g id="a_node22"><a xlink:href="frame__buffer_8h.html" target="_top" xlink:title=" ">
<polygon fill="white" stroke="black" points="3223.5,-336.5 3223.5,-355.5 3600.5,-355.5 3600.5,-336.5 3223.5,-336.5"/>
<text text-anchor="middle" x="3412" y="-343.5" font-family="Helvetica,sans-Serif" font-size="10.00">/home/runner/work/gauri/gauri/gauri/include/gauri/renderer/frame_buffer.h</text>
</a>
</g>
</g>
<!-- Node1&#45;&gt;Node22 -->
<g id="edge58" class="edge">
<title>Node1&#45;&gt;Node22</title>
<path fill="none" stroke="midnightblue" d="M2124.13,-447.69C2393.16,-426.65 3044.39,-375.74 3303.26,-355.5"/>
<polygon fill="midnightblue" stroke="midnightblue" points="2123.64,-444.21 2113.94,-448.48 2124.18,-451.19 2123.64,-444.21"/>
</g>
<!-- Node3 -->
<g id="node3" class="node">
<title>Node3</title>
<g id="a_node3"><a xlink:href="input_8h.html" target="_top" xlink:title=" ">
<polygon fill="white" stroke="black" points="157.5,-336.5 157.5,-355.5 476.5,-355.5 476.5,-336.5 157.5,-336.5"/>
<text text-anchor="middle" x="317" y="-343.5" font-family="Helvetica,sans-Serif" font-size="10.00">/home/runner/work/gauri/gauri/gauri/include/gauri/core/input.h</text>
</a>
</g>
</g>
<!-- Node2&#45;&gt;Node3 -->
<g id="edge2" class="edge">
<title>Node2&#45;&gt;Node3</title>
<path fill="none" stroke="midnightblue" d="M1930.44,-395.89C1587.36,-385.5 812.04,-362 476.62,-351.84"/>
<polygon fill="midnightblue" stroke="midnightblue" points="1930.37,-399.39 1940.47,-396.2 1930.58,-392.39 1930.37,-399.39"/>
</g>
<!-- Node6 -->
<g id="node6" class="node">
<title>Node6</title>
<g id="a_node6"><a xlink:href="layer_8h.html" target="_top" xlink:title=" ">
<polygon fill="white" stroke="black" points="474,-224.5 474,-243.5 792,-243.5 792,-224.5 474,-224.5"/>
<text text-anchor="middle" x="633" y="-231.5" font-family="Helvetica,sans-Serif" font-size="10.00">/home/runner/work/gauri/gauri/gauri/include/gauri/core/layer.h</text>
</a>
</g>
</g>
<!-- Node2&#45;&gt;Node6 -->
<g id="edge5" class="edge">
<title>Node2&#45;&gt;Node6</title>
<path fill="none" stroke="midnightblue" d="M1930.4,-400.46C1604.24,-398.64 909.74,-390.67 806,-356 733.7,-331.83 664.68,-267.06 641.34,-243.62"/>
<polygon fill="midnightblue" stroke="midnightblue" points="1930.4,-403.96 1940.42,-400.51 1930.44,-396.96 1930.4,-403.96"/>
</g>
<!-- Node7 -->
<g id="node7" class="node">
<title>Node7</title>
<g id="a_node7"><a xlink:href="layer__stack_8h.html" target="_top" xlink:title=" ">
<polygon fill="white" stroke="black" points="480,-168.5 480,-187.5 830,-187.5 830,-168.5 480,-168.5"/>
<text text-anchor="middle" x="655" y="-175.5" font-family="Helvetica,sans-Serif" font-size="10.00">/home/runner/work/gauri/gauri/gauri/include/gauri/core/layer_stack.h</text>
</a>
</g>
</g>
<!-- Node2&#45;&gt;Node7 -->
<g id="edge13" class="edge">
<title>Node2&#45;&gt;Node7</title>
<path fill="none" stroke="midnightblue" d="M1930.13,-396.76C1649.79,-388.01 1101.16,-363.21 919,-300 860.07,-279.55 857.56,-250.32 801,-224 765.53,-207.49 722.47,-195.07 692.33,-187.5"/>
<polygon fill="midnightblue" stroke="midnightblue" points="1930.29,-400.26 1940.4,-397.07 1930.51,-393.27 1930.29,-400.26"/>
</g>
<!-- Node10 -->
<g id="node10" class="node">
<title>Node10</title>
<g id="a_node10"><a xlink:href="event_8h.html" target="_top" xlink:title=" ">
<polygon fill="white" stroke="black" points="928.5,-280.5 928.5,-299.5 1257.5,-299.5 1257.5,-280.5 928.5,-280.5"/>
<text text-anchor="middle" x="1093" y="-287.5" font-family="Helvetica,sans-Serif" font-size="10.00">/home/runner/work/gauri/gauri/gauri/include/gauri/event/event.h</text>
</a>
</g>
</g>
<!-- Node2&#45;&gt;Node10 -->
<g id="edge14" class="edge">
<title>Node2&#45;&gt;Node10</title>
<path fill="none" stroke="midnightblue" d="M2010.74,-391.35C1816.64,-370.13 1355.36,-319.69 1171.05,-299.53"/>
<polygon fill="midnightblue" stroke="midnightblue" points="2010.58,-394.85 2020.9,-392.46 2011.34,-387.89 2010.58,-394.85"/>
</g>
<!-- Node2&#45;&gt;Node14 -->
<g id="edge22" class="edge">
<title>Node2&#45;&gt;Node14</title>
<path fill="none" stroke="midnightblue" d="M2059.41,-389.57C2024.13,-379.38 1973.31,-364.7 1941.49,-355.52"/>
<polygon fill="midnightblue" stroke="midnightblue" points="2058.79,-393.03 2069.37,-392.44 2060.73,-386.31 2058.79,-393.03"/>
</g>
<!-- Node2&#45;&gt;Node22 -->
<g id="edge36" class="edge">
<title>Node2&#45;&gt;Node22</title>
<path fill="none" stroke="midnightblue" d="M2268.07,-394.44C2486.54,-385.91 2878.66,-370.39 3214,-356 3217.78,-355.84 3221.6,-355.67 3225.46,-355.51"/>
<polygon fill="midnightblue" stroke="midnightblue" points="2267.66,-390.96 2257.8,-394.85 2267.93,-397.95 2267.66,-390.96"/>
</g>
<!-- Node24 -->
<g id="node24" class="node">
<title>Node24</title>
<g id="a_node24"><a xlink:href="shader_8h.html" target="_top" xlink:title=" ">
<polygon fill="white" stroke="black" points="2409.5,-168.5 2409.5,-187.5 2756.5,-187.5 2756.5,-168.5 2409.5,-168.5"/>
<text text-anchor="middle" x="2583" y="-175.5" font-family="Helvetica,sans-Serif" font-size="10.00">/home/runner/work/gauri/gauri/gauri/include/gauri/renderer/shader.h</text>
</a>
</g>
</g>
<!-- Node2&#45;&gt;Node24 -->
<g id="edge39" class="edge">
<title>Node2&#45;&gt;Node24</title>
<path fill="none" stroke="midnightblue" d="M2126.85,-388.22C2215.6,-347.52 2490.22,-221.56 2564.38,-187.54"/>
<polygon fill="midnightblue" stroke="midnightblue" points="2125.31,-385.08 2117.68,-392.43 2128.23,-391.45 2125.31,-385.08"/>
</g>
<!-- Node26 -->
<g id="node26" class="node">
<title>Node26</title>
<g id="a_node26"><a xlink:href="texture_8h.html" target="_top" xlink:title=" ">
<polygon fill="white" stroke="black" points="2749,-224.5 2749,-243.5 3099,-243.5 3099,-224.5 2749,-224.5"/>
<text text-anchor="middle" x="2924" y="-231.5" font-family="Helvetica,sans-Serif" font-size="10.00">/home/runner/work/gauri/gauri/gauri/include/gauri/renderer/texture.h</text>
</a>
</g>
</g>
<!-- Node2&#45;&gt;Node26 -->
<g id="edge43" class="edge">
<title>Node2&#45;&gt;Node26</title>
<path fill="none" stroke="midnightblue" d="M2225.02,-391.57C2302.02,-384.55 2402.24,-373.17 2490,-356 2570.89,-340.17 2812.73,-268.4 2895.7,-243.52"/>
<polygon fill="midnightblue" stroke="midnightblue" points="2224.44,-388.1 2214.79,-392.48 2225.06,-395.08 2224.44,-388.1"/>
</g>
<!-- Node30 -->
<g id="node30" class="node">
<title>Node30</title>
<g id="a_node30"><a xlink:href="entity_8h.html" target="_top" xlink:title=" ">
<polygon fill="white" stroke="black" points="3550.5,-224.5 3550.5,-243.5 3879.5,-243.5 3879.5,-224.5 3550.5,-224.5"/>
<text text-anchor="middle" x="3715" y="-231.5" font-family="Helvetica,sans-Serif" font-size="10.00">/home/runner/work/gauri/gauri/gauri/include/gauri/scene/entity.h</text>
</a>
</g>
</g>
<!-- Node2&#45;&gt;Node30 -->
<g id="edge50" class="edge">
<title>Node2&#45;&gt;Node30</title>
<path fill="none" stroke="midnightblue" d="M2198.09,-391.51C2288.7,-382.72 2426.43,-369.06 2546,-356 2832.94,-324.65 2903.84,-309.24 3191,-280 3333.39,-265.5 3497.86,-251.89 3603.99,-243.51"/>
<polygon fill="midnightblue" stroke="midnightblue" points="2197.71,-388.03 2188.1,-392.48 2198.39,-395 2197.71,-388.03"/>
</g>
<!-- Node33 -->
<g id="node33" class="node">
<title>Node33</title>
<g id="a_node33"><a xlink:href="scene__serializer_8h.html" target="_top" xlink:title=" ">
<polygon fill="white" stroke="black" points="2825,-336.5 2825,-355.5 3205,-355.5 3205,-336.5 2825,-336.5"/>
<text text-anchor="middle" x="3015" y="-343.5" font-family="Helvetica,sans-Serif" font-size="10.00">/home/runner/work/gauri/gauri/gauri/include/gauri/scene/scene_serializer.h</text>
</a>
</g>
</g>
<!-- Node2&#45;&gt;Node33 -->
<g id="edge56" class="edge">
<title>Node2&#45;&gt;Node33</title>
<path fill="none" stroke="midnightblue" d="M2253.56,-391.89C2425.93,-381.73 2702.55,-365.42 2870.66,-355.51"/>
<polygon fill="midnightblue" stroke="midnightblue" points="2253.16,-388.41 2243.38,-392.49 2253.57,-395.39 2253.16,-388.41"/>
</g>
<!-- Node3&#45;&gt;Node4 -->
<g id="edge3" class="edge">
<title>Node3&#45;&gt;Node4</title>
<path fill="none" stroke="midnightblue" d="M259.53,-334.41C177.85,-317.69 38,-282.18 38,-235 38,-235 38,-235 38,-177 38,-125.84 84.37,-127.89 133,-112 252.72,-72.87 1086.88,-67.55 1416.46,-66.98"/>
<polygon fill="midnightblue" stroke="midnightblue" points="259.18,-337.91 269.67,-336.45 260.56,-331.05 259.18,-337.91"/>
</g>
<!-- Node5 -->
<g id="node5" class="node">
<title>Node5</title>
<g id="a_node5"><a xlink:href="entry__point_8h.html" target="_top" xlink:title=" ">
<polygon fill="white" stroke="black" points="1375,-0.5 1375,-19.5 1725,-19.5 1725,-0.5 1375,-0.5"/>
<text text-anchor="middle" x="1550" y="-7.5" font-family="Helvetica,sans-Serif" font-size="10.00">/home/runner/work/gauri/gauri/gauri/include/gauri/core/entry_point.h</text>
</a>
</g>
</g>
<!-- Node4&#45;&gt;Node5 -->
<g id="edge4" class="edge">
<title>Node4&#45;&gt;Node5</title>
<path fill="none" stroke="midnightblue" d="M1550,-45.8C1550,-36.91 1550,-26.78 1550,-19.75"/>
<polygon fill="midnightblue" stroke="midnightblue" points="1546.5,-46.08 1550,-56.08 1553.5,-46.08 1546.5,-46.08"/>
</g>
<!-- Node6&#45;&gt;Node4 -->
<g id="edge12" class="edge">
<title>Node6&#45;&gt;Node4</title>
<path fill="none" stroke="midnightblue" d="M463.69,-230.12C315.43,-225.8 119.83,-214.99 95,-188 88.98,-181.46 89.25,-174.78 95,-168 193.48,-51.86 281.52,-127.54 433,-112 786.8,-75.71 1206.43,-68.31 1416.37,-67.04"/>
<polygon fill="midnightblue" stroke="midnightblue" points="463.74,-233.63 473.83,-230.41 463.93,-226.63 463.74,-233.63"/>
</g>
<!-- Node6&#45;&gt;Node7 -->
<g id="edge6" class="edge">
<title>Node6&#45;&gt;Node7</title>
<path fill="none" stroke="midnightblue" d="M640.46,-214.69C644.17,-205.59 648.48,-195.01 651.43,-187.75"/>
<polygon fill="midnightblue" stroke="midnightblue" points="637.16,-213.5 636.63,-224.08 643.65,-216.14 637.16,-213.5"/>
</g>
<!-- Node9 -->
<g id="node9" class="node">
<title>Node9</title>
<g id="a_node9"><a xlink:href="imgui__layer_8h.html" target="_top" xlink:title=" ">
<polygon fill="white" stroke="black" points="104,-168.5 104,-187.5 462,-187.5 462,-168.5 104,-168.5"/>
<text text-anchor="middle" x="283" y="-175.5" font-family="Helvetica,sans-Serif" font-size="10.00">/home/runner/work/gauri/gauri/gauri/include/gauri/imgui/imgui_layer.h</text>
</a>
</g>
</g>
<!-- Node6&#45;&gt;Node9 -->
<g id="edge9" class="edge">
<title>Node6&#45;&gt;Node9</title>
<path fill="none" stroke="midnightblue" d="M567.64,-222.92C501.52,-212.71 400.43,-197.12 338.2,-187.52"/>
<polygon fill="midnightblue" stroke="midnightblue" points="567.12,-226.38 577.54,-224.44 568.19,-219.46 567.12,-226.38"/>
</g>
<!-- Node8 -->
<g id="node8" class="node">
<title>Node8</title>
<g id="a_node8"><a xlink:href="application_8h.html" target="_top" xlink:title=" ">
<polygon fill="white" stroke="black" points="544,-112.5 544,-131.5 892,-131.5 892,-112.5 544,-112.5"/>
<text text-anchor="middle" x="718" y="-119.5" font-family="Helvetica,sans-Serif" font-size="10.00">/home/runner/work/gauri/gauri/gauri/include/gauri/core/application.h</text>
</a>
</g>
</g>
<!-- Node7&#45;&gt;Node8 -->
<g id="edge7" class="edge">
<title>Node7&#45;&gt;Node8</title>
<path fill="none" stroke="midnightblue" d="M673.04,-161.54C684.27,-151.91 698.32,-139.87 707.69,-131.83"/>
<polygon fill="midnightblue" stroke="midnightblue" points="670.44,-159.16 665.12,-168.32 674.99,-164.47 670.44,-159.16"/>
</g>
<!-- Node8&#45;&gt;Node4 -->
<g id="edge8" class="edge">
<title>Node8&#45;&gt;Node4</title>
<path fill="none" stroke="midnightblue" d="M859.56,-111.81C1016.22,-101.64 1266.66,-85.39 1418.97,-75.5"/>
<polygon fill="midnightblue" stroke="midnightblue" points="859.13,-108.33 849.37,-112.47 859.58,-115.32 859.13,-108.33"/>
</g>
<!-- Node9&#45;&gt;Node4 -->
<g id="edge11" class="edge">
<title>Node9&#45;&gt;Node4</title>
<path fill="none" stroke="midnightblue" d="M318.42,-165.36C366.75,-150.06 456.36,-123.75 535,-112 700.95,-87.2 1180.82,-74.41 1416.37,-69.47"/>
<polygon fill="midnightblue" stroke="midnightblue" points="317.21,-162.08 308.75,-168.45 319.34,-168.74 317.21,-162.08"/>
</g>
<!-- Node9&#45;&gt;Node8 -->
<g id="edge10" class="edge">
<title>Node9&#45;&gt;Node8</title>
<path fill="none" stroke="midnightblue" d="M361.96,-167.2C444.08,-157 571.34,-141.21 649.4,-131.52"/>
<polygon fill="midnightblue" stroke="midnightblue" points="361.42,-163.74 351.93,-168.44 362.28,-170.68 361.42,-163.74"/>
</g>
<!-- Node10&#45;&gt;Node6 -->
<g id="edge16" class="edge">
<title>Node10&#45;&gt;Node6</title>
<path fill="none" stroke="midnightblue" d="M1010.29,-279.29C923.51,-269.1 788.43,-253.25 705.63,-243.53"/>
<polygon fill="midnightblue" stroke="midnightblue" points="1010.03,-282.78 1020.37,-280.47 1010.84,-275.83 1010.03,-282.78"/>
</g>
<!-- Node10&#45;&gt;Node8 -->
<g id="edge15" class="edge">
<title>Node10&#45;&gt;Node8</title>
<path fill="none" stroke="midnightblue" d="M1018.24,-278.54C985.96,-271.86 948.66,-261.11 918,-244 875.45,-220.26 880.25,-193.92 839,-168 811.77,-150.89 777.05,-138.82 751.79,-131.52"/>
<polygon fill="midnightblue" stroke="midnightblue" points="1017.59,-281.98 1028.08,-280.48 1018.95,-275.11 1017.59,-281.98"/>
</g>
<!-- Node11 -->
<g id="node11" class="node">
<title>Node11</title>
<g id="a_node11"><a xlink:href="window_8h.html" target="_top" xlink:title=" ">
<polygon fill="white" stroke="black" points="927.5,-224.5 927.5,-243.5 1258.5,-243.5 1258.5,-224.5 927.5,-224.5"/>
<text text-anchor="middle" x="1093" y="-231.5" font-family="Helvetica,sans-Serif" font-size="10.00">/home/runner/work/gauri/gauri/gauri/include/gauri/core/window.h</text>
</a>
</g>
</g>
<!-- Node10&#45;&gt;Node11 -->
<g id="edge17" class="edge">
<title>Node10&#45;&gt;Node11</title>
<path fill="none" stroke="midnightblue" d="M1093,-269.8C1093,-260.91 1093,-250.78 1093,-243.75"/>
<polygon fill="midnightblue" stroke="midnightblue" points="1089.5,-270.08 1093,-280.08 1096.5,-270.08 1089.5,-270.08"/>
</g>
<!-- Node13 -->
<g id="node13" class="node">
<title>Node13</title>
<g id="a_node13"><a xlink:href="orthographic__camera__controller_8h.html" target="_top" xlink:title=" ">
<polygon fill="white" stroke="black" points="910.5,-112.5 910.5,-131.5 1379.5,-131.5 1379.5,-112.5 910.5,-112.5"/>
<text text-anchor="middle" x="1145" y="-119.5" font-family="Helvetica,sans-Serif" font-size="10.00">/home/runner/work/gauri/gauri/gauri/include/gauri/renderer/orthographic_camera_controller.h</text>
</a>
</g>
</g>
<!-- Node10&#45;&gt;Node13 -->
<g id="edge20" class="edge">
<title>Node10&#45;&gt;Node13</title>
<path fill="none" stroke="midnightblue" d="M1203.94,-278.44C1260.22,-266.43 1322.58,-241.11 1351,-188 1355.19,-180.16 1356.57,-174.92 1351,-168 1336.08,-149.47 1283.19,-138.15 1234.74,-131.5"/>
<polygon fill="midnightblue" stroke="midnightblue" points="1202.99,-275.06 1193.87,-280.46 1204.36,-281.92 1202.99,-275.06"/>
</g>
<!-- Node11&#45;&gt;Node8 -->
<g id="edge18" class="edge">
<title>Node11&#45;&gt;Node8</title>
<path fill="none" stroke="midnightblue" d="M1039.67,-222.27C1003.9,-214.4 956,-202.57 915,-188 895.14,-180.94 891.73,-175.42 872,-168 831.85,-152.9 784.28,-139.68 752.74,-131.55"/>
<polygon fill="midnightblue" stroke="midnightblue" points="1039.38,-225.78 1049.89,-224.48 1040.86,-218.94 1039.38,-225.78"/>
</g>
<!-- Node12 -->
<g id="node12" class="node">
<title>Node12</title>
<g id="a_node12"><a xlink:href="windows__window_8h.html" target="_top" xlink:title=" ">
<polygon fill="white" stroke="black" points="924,-168.5 924,-187.5 1342,-187.5 1342,-168.5 924,-168.5"/>
<text text-anchor="middle" x="1133" y="-175.5" font-family="Helvetica,sans-Serif" font-size="10.00">/home/runner/work/gauri/gauri/gauri/include/platform/windows/windows_window.h</text>
</a>
</g>
</g>
<!-- Node11&#45;&gt;Node12 -->
<g id="edge19" class="edge">
<title>Node11&#45;&gt;Node12</title>
<path fill="none" stroke="midnightblue" d="M1105.7,-215.86C1112.63,-206.5 1120.91,-195.33 1126.52,-187.75"/>
<polygon fill="midnightblue" stroke="midnightblue" points="1102.75,-213.96 1099.61,-224.08 1108.37,-218.13 1102.75,-213.96"/>
</g>
<!-- Node13&#45;&gt;Node4 -->
<g id="edge21" class="edge">
<title>Node13&#45;&gt;Node4</title>
<path fill="none" stroke="midnightblue" d="M1219.22,-111.1C1295.69,-100.91 1413.68,-85.18 1486.13,-75.52"/>
<polygon fill="midnightblue" stroke="midnightblue" points="1218.62,-107.65 1209.17,-112.44 1219.55,-114.59 1218.62,-107.65"/>
</g>
<!-- Node14&#45;&gt;Node4 -->
<g id="edge34" class="edge">
<title>Node14&#45;&gt;Node4</title>
<path fill="none" stroke="midnightblue" d="M1730.33,-339.01C1585.91,-329.12 1408,-303.11 1408,-235 1408,-235 1408,-235 1408,-177 1408,-121.02 1477.81,-89.47 1519.54,-75.6"/>
<polygon fill="midnightblue" stroke="midnightblue" points="1730.46,-342.52 1740.67,-339.69 1730.92,-335.54 1730.46,-342.52"/>
</g>
<!-- Node15 -->
<g id="node15" class="node">
<title>Node15</title>
<g id="a_node15"><a xlink:href="vertex__array_8h.html" target="_top" xlink:title=" ">
<polygon fill="white" stroke="black" points="1524.5,-280.5 1524.5,-299.5 1899.5,-299.5 1899.5,-280.5 1524.5,-280.5"/>
<text text-anchor="middle" x="1712" y="-287.5" font-family="Helvetica,sans-Serif" font-size="10.00">/home/runner/work/gauri/gauri/gauri/include/gauri/renderer/vertex_array.h</text>
</a>
</g>
</g>
<!-- Node14&#45;&gt;Node15 -->
<g id="edge23" class="edge">
<title>Node14&#45;&gt;Node15</title>
<path fill="none" stroke="midnightblue" d="M1870.63,-333.83C1832.86,-323.63 1777.86,-308.78 1743.54,-299.52"/>
<polygon fill="midnightblue" stroke="midnightblue" points="1869.74,-337.22 1880.31,-336.44 1871.57,-330.46 1869.74,-337.22"/>
</g>
<!-- Node21 -->
<g id="node21" class="node">
<title>Node21</title>
<g id="a_node21"><a xlink:href="opengl__buffer_8h.html" target="_top" xlink:title=" ">
<polygon fill="white" stroke="black" points="1917.5,-280.5 1917.5,-299.5 2306.5,-299.5 2306.5,-280.5 1917.5,-280.5"/>
<text text-anchor="middle" x="2112" y="-287.5" font-family="Helvetica,sans-Serif" font-size="10.00">/home/runner/work/gauri/gauri/gauri/include/platform/opengl/opengl_buffer.h</text>
</a>
</g>
</g>
<!-- Node14&#45;&gt;Node21 -->
<g id="edge35" class="edge">
<title>Node14&#45;&gt;Node21</title>
<path fill="none" stroke="midnightblue" d="M1953.37,-333.83C1991.14,-323.63 2046.14,-308.78 2080.46,-299.52"/>
<polygon fill="midnightblue" stroke="midnightblue" points="1952.43,-330.46 1943.69,-336.44 1954.26,-337.22 1952.43,-330.46"/>
</g>
<!-- Node15&#45;&gt;Node4 -->
<g id="edge32" class="edge">
<title>Node15&#45;&gt;Node4</title>
<path fill="none" stroke="midnightblue" d="M1636.32,-278.93C1588.96,-271.28 1533.52,-259.45 1515,-244 1469.58,-206.11 1470.12,-164.17 1498,-112 1506.44,-96.21 1522.84,-83.47 1534.98,-75.63"/>
<polygon fill="midnightblue" stroke="midnightblue" points="1635.87,-282.4 1646.29,-280.49 1636.96,-275.48 1635.87,-282.4"/>
</g>
<!-- Node16 -->
<g id="node16" class="node">
<title>Node16</title>
<g id="a_node16"><a xlink:href="renderer__api_8h.html" target="_top" xlink:title=" ">
<polygon fill="white" stroke="black" points="1524,-224.5 1524,-243.5 1900,-243.5 1900,-224.5 1524,-224.5"/>
<text text-anchor="middle" x="1712" y="-231.5" font-family="Helvetica,sans-Serif" font-size="10.00">/home/runner/work/gauri/gauri/gauri/include/gauri/renderer/renderer_api.h</text>
</a>
</g>
</g>
<!-- Node15&#45;&gt;Node16 -->
<g id="edge24" class="edge">
<title>Node15&#45;&gt;Node16</title>
<path fill="none" stroke="midnightblue" d="M1712,-269.8C1712,-260.91 1712,-250.78 1712,-243.75"/>
<polygon fill="midnightblue" stroke="midnightblue" points="1708.5,-270.08 1712,-280.08 1715.5,-270.08 1708.5,-270.08"/>
</g>
<!-- Node20 -->
<g id="node20" class="node">
<title>Node20</title>
<g id="a_node20"><a xlink:href="opengl__vertex__array_8h.html" target="_top" xlink:title=" ">
<polygon fill="white" stroke="black" points="1918,-224.5 1918,-243.5 2340,-243.5 2340,-224.5 1918,-224.5"/>
<text text-anchor="middle" x="2129" y="-231.5" font-family="Helvetica,sans-Serif" font-size="10.00">/home/runner/work/gauri/gauri/gauri/include/platform/opengl/opengl_vertex_array.h</text>
</a>
</g>
</g>
<!-- Node15&#45;&gt;Node20 -->
<g id="edge33" class="edge">
<title>Node15&#45;&gt;Node20</title>
<path fill="none" stroke="midnightblue" d="M1788.41,-279.1C1867.16,-268.91 1988.64,-253.18 2063.23,-243.52"/>
<polygon fill="midnightblue" stroke="midnightblue" points="1787.54,-275.69 1778.07,-280.44 1788.44,-282.63 1787.54,-275.69"/>
</g>
<!-- Node16&#45;&gt;Node4 -->
<g id="edge30" class="edge">
<title>Node16&#45;&gt;Node4</title>
<path fill="none" stroke="midnightblue" d="M1609.5,-223.05C1563.75,-216.29 1516.99,-205.32 1503,-188 1474.12,-152.23 1521.11,-96.63 1541.39,-75.52"/>
<polygon fill="midnightblue" stroke="midnightblue" points="1609.15,-226.54 1619.55,-224.48 1610.14,-219.61 1609.15,-226.54"/>
</g>
<!-- Node17 -->
<g id="node17" class="node">
<title>Node17</title>
<g id="a_node17"><a xlink:href="render__command_8h.html" target="_top" xlink:title=" ">
<polygon fill="white" stroke="black" points="1512,-168.5 1512,-187.5 1912,-187.5 1912,-168.5 1512,-168.5"/>
<text text-anchor="middle" x="1712" y="-175.5" font-family="Helvetica,sans-Serif" font-size="10.00">/home/runner/work/gauri/gauri/gauri/include/gauri/renderer/render_command.h</text>
</a>
</g>
</g>
<!-- Node16&#45;&gt;Node17 -->
<g id="edge25" class="edge">
<title>Node16&#45;&gt;Node17</title>
<path fill="none" stroke="midnightblue" d="M1712,-213.8C1712,-204.91 1712,-194.78 1712,-187.75"/>
<polygon fill="midnightblue" stroke="midnightblue" points="1708.5,-214.08 1712,-224.08 1715.5,-214.08 1708.5,-214.08"/>
</g>
<!-- Node18 -->
<g id="node18" class="node">
<title>Node18</title>
<g id="a_node18"><a xlink:href="renderer_8h.html" target="_top" xlink:title=" ">
<polygon fill="white" stroke="black" points="1704.5,-112.5 1704.5,-131.5 2059.5,-131.5 2059.5,-112.5 1704.5,-112.5"/>
<text text-anchor="middle" x="1882" y="-119.5" font-family="Helvetica,sans-Serif" font-size="10.00">/home/runner/work/gauri/gauri/gauri/include/gauri/renderer/renderer.h</text>
</a>
</g>
</g>
<!-- Node16&#45;&gt;Node18 -->
<g id="edge29" class="edge">
<title>Node16&#45;&gt;Node18</title>
<path fill="none" stroke="midnightblue" d="M1814.5,-223.05C1860.25,-216.29 1907.01,-205.32 1921,-188 1935.97,-169.47 1910.27,-144.65 1893.93,-131.7"/>
<polygon fill="midnightblue" stroke="midnightblue" points="1813.86,-219.61 1804.45,-224.48 1814.85,-226.54 1813.86,-219.61"/>
</g>
<!-- Node19 -->
<g id="node19" class="node">
<title>Node19</title>
<g id="a_node19"><a xlink:href="opengl__renderer__api_8h.html" target="_top" xlink:title=" ">
<polygon fill="white" stroke="black" points="1968.5,-168.5 1968.5,-187.5 2391.5,-187.5 2391.5,-168.5 1968.5,-168.5"/>
<text text-anchor="middle" x="2180" y="-175.5" font-family="Helvetica,sans-Serif" font-size="10.00">/home/runner/work/gauri/gauri/gauri/include/platform/opengl/opengl_renderer_api.h</text>
</a>
</g>
</g>
<!-- Node16&#45;&gt;Node19 -->
<g id="edge31" class="edge">
<title>Node16&#45;&gt;Node19</title>
<path fill="none" stroke="midnightblue" d="M1795.88,-223.32C1884.16,-213.14 2021.78,-197.26 2106.1,-187.53"/>
<polygon fill="midnightblue" stroke="midnightblue" points="1795.43,-219.85 1785.9,-224.47 1796.23,-226.8 1795.43,-219.85"/>
</g>
<!-- Node17&#45;&gt;Node4 -->
<g id="edge28" class="edge">
<title>Node17&#45;&gt;Node4</title>
<path fill="none" stroke="midnightblue" d="M1690.96,-162.71C1656.82,-139.53 1590.4,-94.43 1562.65,-75.59"/>
<polygon fill="midnightblue" stroke="midnightblue" points="1689.05,-165.65 1699.29,-168.37 1692.98,-159.86 1689.05,-165.65"/>
</g>
<!-- Node17&#45;&gt;Node18 -->
<g id="edge26" class="edge">
<title>Node17&#45;&gt;Node18</title>
<path fill="none" stroke="midnightblue" d="M1748.82,-165.3C1780.85,-155.13 1826.52,-140.62 1855.19,-131.52"/>
<polygon fill="midnightblue" stroke="midnightblue" points="1747.41,-162.08 1738.94,-168.44 1749.53,-168.75 1747.41,-162.08"/>
</g>
<!-- Node18&#45;&gt;Node4 -->
<g id="edge27" class="edge">
<title>Node18&#45;&gt;Node4</title>
<path fill="none" stroke="midnightblue" d="M1819.23,-110.79C1756.5,-100.59 1661.15,-85.08 1602.36,-75.52"/>
<polygon fill="midnightblue" stroke="midnightblue" points="1818.96,-114.29 1829.39,-112.44 1820.09,-107.38 1818.96,-114.29"/>
</g>
<!-- Node22&#45;&gt;Node4 -->
<g id="edge37" class="edge">
<title>Node22&#45;&gt;Node4</title>
<path fill="none" stroke="midnightblue" d="M3294.55,-335.61C3111.59,-319.77 2775.65,-285.41 2740,-244 2722.35,-223.5 2764.72,-188.89 2765,-188 2775.09,-155.77 2788.44,-136.32 2765,-112 2727.98,-73.59 1991.55,-67.78 1683.58,-67.04"/>
<polygon fill="midnightblue" stroke="midnightblue" points="3294.5,-339.12 3304.76,-336.49 3295.1,-332.14 3294.5,-339.12"/>
</g>
<!-- Node23 -->
<g id="node23" class="node">
<title>Node23</title>
<g id="a_node23"><a xlink:href="opengl__frame__buffer_8h.html" target="_top" xlink:title=" ">
<polygon fill="white" stroke="black" points="3200,-280.5 3200,-299.5 3624,-299.5 3624,-280.5 3200,-280.5"/>
<text text-anchor="middle" x="3412" y="-287.5" font-family="Helvetica,sans-Serif" font-size="10.00">/home/runner/work/gauri/gauri/gauri/include/platform/opengl/opengl_frame_buffer.h</text>
</a>
</g>
</g>
<!-- Node22&#45;&gt;Node23 -->
<g id="edge38" class="edge">
<title>Node22&#45;&gt;Node23</title>
<path fill="none" stroke="midnightblue" d="M3412,-325.8C3412,-316.91 3412,-306.78 3412,-299.75"/>
<polygon fill="midnightblue" stroke="midnightblue" points="3408.5,-326.08 3412,-336.08 3415.5,-326.08 3408.5,-326.08"/>
</g>
<!-- Node24&#45;&gt;Node4 -->
<g id="edge41" class="edge">
<title>Node24&#45;&gt;Node4</title>
<path fill="none" stroke="midnightblue" d="M2511.73,-167.11C2412.43,-153.54 2226.76,-128.91 2068,-112 1928.53,-97.15 1767.55,-83.75 1662.54,-75.51"/>
<polygon fill="midnightblue" stroke="midnightblue" points="2511.27,-170.58 2521.65,-168.47 2512.22,-163.65 2511.27,-170.58"/>
</g>
<!-- Node24&#45;&gt;Node18 -->
<g id="edge40" class="edge">
<title>Node24&#45;&gt;Node18</title>
<path fill="none" stroke="midnightblue" d="M2462.15,-167.69C2330.05,-157.51 2120.21,-141.35 1992.4,-131.5"/>
<polygon fill="midnightblue" stroke="midnightblue" points="2462.07,-171.19 2472.31,-168.47 2462.61,-164.22 2462.07,-171.19"/>
</g>
<!-- Node25 -->
<g id="node25" class="node">
<title>Node25</title>
<g id="a_node25"><a xlink:href="opengl__shader_8h.html" target="_top" xlink:title=" ">
<polygon fill="white" stroke="black" points="2362,-112.5 2362,-131.5 2756,-131.5 2756,-112.5 2362,-112.5"/>
<text text-anchor="middle" x="2559" y="-119.5" font-family="Helvetica,sans-Serif" font-size="10.00">/home/runner/work/gauri/gauri/gauri/include/platform/opengl/opengl_shader.h</text>
</a>
</g>
</g>
<!-- Node24&#45;&gt;Node25 -->
<g id="edge42" class="edge">
<title>Node24&#45;&gt;Node25</title>
<path fill="none" stroke="midnightblue" d="M2574.86,-158.69C2570.82,-149.59 2566.12,-139.01 2562.89,-131.75"/>
<polygon fill="midnightblue" stroke="midnightblue" points="2571.78,-160.37 2579.04,-168.08 2578.17,-157.52 2571.78,-160.37"/>
</g>
<!-- Node26&#45;&gt;Node4 -->
<g id="edge48" class="edge">
<title>Node26&#45;&gt;Node4</title>
<path fill="none" stroke="midnightblue" d="M2905.2,-217.83C2894.88,-209.31 2881.99,-198.34 2871,-188 2836.88,-155.91 2840.75,-131.13 2798,-112 2698.5,-67.47 1985.03,-65.13 1683.73,-66.18"/>
<polygon fill="midnightblue" stroke="midnightblue" points="2903.21,-220.72 2913.17,-224.34 2907.64,-215.3 2903.21,-220.72"/>
</g>
<!-- Node27 -->
<g id="node27" class="node">
<title>Node27</title>
<g id="a_node27"><a xlink:href="renderer__2d_8h.html" target="_top" xlink:title=" ">
<polygon fill="white" stroke="black" points="2850.5,-112.5 2850.5,-131.5 3223.5,-131.5 3223.5,-112.5 2850.5,-112.5"/>
<text text-anchor="middle" x="3037" y="-119.5" font-family="Helvetica,sans-Serif" font-size="10.00">/home/runner/work/gauri/gauri/gauri/include/gauri/renderer/renderer_2d.h</text>
</a>
</g>
</g>
<!-- Node26&#45;&gt;Node27 -->
<g id="edge44" class="edge">
<title>Node26&#45;&gt;Node27</title>
<path fill="none" stroke="midnightblue" d="M2902.42,-218.48C2885.3,-205.14 2866.21,-184.94 2879,-168 2891.59,-151.33 2941.51,-139 2981.92,-131.5"/>
<polygon fill="midnightblue" stroke="midnightblue" points="2900.39,-221.33 2910.52,-224.43 2904.54,-215.69 2900.39,-221.33"/>
</g>
<!-- Node28 -->
<g id="node28" class="node">
<title>Node28</title>
<g id="a_node28"><a xlink:href="subtexture__2d_8h.html" target="_top" xlink:title=" ">
<polygon fill="white" stroke="black" points="2888,-168.5 2888,-187.5 3272,-187.5 3272,-168.5 2888,-168.5"/>
<text text-anchor="middle" x="3080" y="-175.5" font-family="Helvetica,sans-Serif" font-size="10.00">/home/runner/work/gauri/gauri/gauri/include/gauri/renderer/subtexture_2d.h</text>
</a>
</g>
</g>
<!-- Node26&#45;&gt;Node28 -->
<g id="edge46" class="edge">
<title>Node26&#45;&gt;Node28</title>
<path fill="none" stroke="midnightblue" d="M2958.17,-221.17C2987.54,-211 3029.2,-196.59 3055.4,-187.52"/>
<polygon fill="midnightblue" stroke="midnightblue" points="2957.02,-217.86 2948.72,-224.44 2959.31,-224.48 2957.02,-217.86"/>
</g>
<!-- Node29 -->
<g id="node29" class="node">
<title>Node29</title>
<g id="a_node29"><a xlink:href="opengl__texture_8h.html" target="_top" xlink:title=" ">
<polygon fill="white" stroke="black" points="3290.5,-168.5 3290.5,-187.5 3687.5,-187.5 3687.5,-168.5 3290.5,-168.5"/>
<text text-anchor="middle" x="3489" y="-175.5" font-family="Helvetica,sans-Serif" font-size="10.00">/home/runner/work/gauri/gauri/gauri/include/platform/opengl/opengl_texture.h</text>
</a>
</g>
</g>
<!-- Node26&#45;&gt;Node29 -->
<g id="edge49" class="edge">
<title>Node26&#45;&gt;Node29</title>
<path fill="none" stroke="midnightblue" d="M3023.33,-223.51C3129.82,-213.33 3297.37,-197.32 3399.79,-187.53"/>
<polygon fill="midnightblue" stroke="midnightblue" points="3022.84,-220.04 3013.21,-224.47 3023.5,-227.01 3022.84,-220.04"/>
</g>
<!-- Node27&#45;&gt;Node4 -->
<g id="edge45" class="edge">
<title>Node27&#45;&gt;Node4</title>
<path fill="none" stroke="midnightblue" d="M2839.99,-112.16C2838.66,-112.11 2837.33,-112.05 2836,-112 2415.5,-95.23 1917.53,-78.77 1683.78,-71.25"/>
<polygon fill="midnightblue" stroke="midnightblue" points="2840.17,-115.67 2850.3,-112.58 2840.45,-108.68 2840.17,-115.67"/>
</g>
<!-- Node28&#45;&gt;Node27 -->
<g id="edge47" class="edge">
<title>Node28&#45;&gt;Node27</title>
<path fill="none" stroke="midnightblue" d="M3066.58,-160.14C3059.09,-150.74 3050.06,-139.4 3043.97,-131.75"/>
<polygon fill="midnightblue" stroke="midnightblue" points="3063.93,-162.44 3072.9,-168.08 3069.41,-158.08 3063.93,-162.44"/>
</g>
<!-- Node30&#45;&gt;Node4 -->
<g id="edge55" class="edge">
<title>Node30&#45;&gt;Node4</title>
<path fill="none" stroke="midnightblue" d="M3715.11,-214.15C3714.11,-199.32 3710.16,-179.32 3697,-168 3539.17,-32.28 3439.6,-127.24 3232,-112 2656.98,-69.78 1968.8,-65.91 1683.76,-66.36"/>
<polygon fill="midnightblue" stroke="midnightblue" points="3711.62,-214.37 3715.4,-224.26 3718.61,-214.17 3711.62,-214.37"/>
</g>
<!-- Node31 -->
<g id="node31" class="node">
<title>Node31</title>
<g id="a_node31"><a xlink:href="scriptable__entity_8h.html" target="_top" xlink:title=" ">
<polygon fill="white" stroke="black" points="3743,-168.5 3743,-187.5 4125,-187.5 4125,-168.5 3743,-168.5"/>
<text text-anchor="middle" x="3934" y="-175.5" font-family="Helvetica,sans-Serif" font-size="10.00">/home/runner/work/gauri/gauri/gauri/include/gauri/scene/scriptable_entity.h</text>
</a>
</g>
</g>
<!-- Node30&#45;&gt;Node31 -->
<g id="edge51" class="edge">
<title>Node30&#45;&gt;Node31</title>
<path fill="none" stroke="midnightblue" d="M3759.51,-222.02C3800.88,-211.82 3861.64,-196.84 3899.46,-187.52"/>
<polygon fill="midnightblue" stroke="midnightblue" points="3758.57,-218.65 3749.7,-224.44 3760.25,-225.45 3758.57,-218.65"/>
</g>
<!-- Node31&#45;&gt;Node4 -->
<g id="edge54" class="edge">
<title>Node31&#45;&gt;Node4</title>
<path fill="none" stroke="midnightblue" d="M3886.71,-166.05C3854.05,-157.96 3809.85,-145.95 3772,-132 3752.22,-124.71 3749.53,-116.76 3729,-112 3530.77,-66 2126.98,-65.53 1683.75,-66.56"/>
<polygon fill="midnightblue" stroke="midnightblue" points="3885.91,-169.45 3896.45,-168.43 3887.57,-162.65 3885.91,-169.45"/>
</g>
<!-- Node32 -->
<g id="node32" class="node">
<title>Node32</title>
<g id="a_node32"><a xlink:href="component_8h.html" target="_top" xlink:title=" ">
<polygon fill="white" stroke="black" points="3781,-112.5 3781,-131.5 4137,-131.5 4137,-112.5 3781,-112.5"/>
<text text-anchor="middle" x="3959" y="-119.5" font-family="Helvetica,sans-Serif" font-size="10.00">/home/runner/work/gauri/gauri/gauri/include/gauri/scene/component.h</text>
</a>
</g>
</g>
<!-- Node31&#45;&gt;Node32 -->
<g id="edge52" class="edge">
<title>Node31&#45;&gt;Node32</title>
<path fill="none" stroke="midnightblue" d="M3942.34,-158.98C3946.58,-149.82 3951.55,-139.09 3954.95,-131.75"/>
<polygon fill="midnightblue" stroke="midnightblue" points="3939.15,-157.54 3938.13,-168.08 3945.51,-160.48 3939.15,-157.54"/>
</g>
<!-- Node32&#45;&gt;Node4 -->
<g id="edge53" class="edge">
<title>Node32&#45;&gt;Node4</title>
<path fill="none" stroke="midnightblue" d="M3770.95,-112.13C3769.63,-112.09 3768.31,-112.04 3767,-112 2977.28,-85.48 2028.77,-72.56 1683.73,-68.48"/>
<polygon fill="midnightblue" stroke="midnightblue" points="3771.06,-115.64 3781.18,-112.5 3771.31,-108.64 3771.06,-115.64"/>
</g>
</g>
</svg>
