<?xml version="1.0" encoding="UTF-8" standalone="no"?>
<!DOCTYPE svg PUBLIC "-//W3C//DTD SVG 1.1//EN"
 "http://www.w3.org/Graphics/SVG/1.1/DTD/svg11.dtd">
<!-- Generated by graphviz version 2.43.0 (0)
 -->
<!-- Title: /home/runner/work/gauri/gauri/gauri/include/gauri/core/logger.h Pages: 1 -->
<svg width="4604pt" height="532pt"
 viewBox="0.00 0.00 4604.00 532.00" xmlns="http://www.w3.org/2000/svg" xmlns:xlink="http://www.w3.org/1999/xlink">
<g id="graph0" class="graph" transform="scale(1 1) rotate(0) translate(4 528)">
<title>/home/runner/work/gauri/gauri/gauri/include/gauri/core/logger.h</title>
<polygon fill="white" stroke="transparent" points="-4,4 -4,-528 4600,-528 4600,4 -4,4"/>
<!-- Node1 -->
<g id="node1" class="node">
<title>Node1</title>
<g id="a_node1"><a xlink:title=" ">
<polygon fill="#bfbfbf" stroke="black" points="3388,-504.5 3388,-523.5 3712,-523.5 3712,-504.5 3388,-504.5"/>
<text text-anchor="middle" x="3550" y="-511.5" font-family="Helvetica,sans-Serif" font-size="10.00">/home/runner/work/gauri/gauri/gauri/include/gauri/core/logger.h</text>
</a>
</g>
</g>
<!-- Node2 -->
<g id="node2" class="node">
<title>Node2</title>
<g id="a_node2"><a xlink:href="base_8h.html" target="_top" xlink:title=" ">
<polygon fill="white" stroke="black" points="2236.5,-448.5 2236.5,-467.5 2553.5,-467.5 2553.5,-448.5 2236.5,-448.5"/>
<text text-anchor="middle" x="2395" y="-455.5" font-family="Helvetica,sans-Serif" font-size="10.00">/home/runner/work/gauri/gauri/gauri/include/gauri/core/base.h</text>
</a>
</g>
</g>
<!-- Node1&#45;&gt;Node2 -->
<g id="edge1" class="edge">
<title>Node1&#45;&gt;Node2</title>
<path fill="none" stroke="midnightblue" d="M3377.72,-504.95C3154.9,-494.53 2769.81,-476.52 2553.77,-466.42"/>
<polygon fill="midnightblue" stroke="midnightblue" points="3377.73,-508.45 3387.88,-505.42 3378.06,-501.46 3377.73,-508.45"/>
</g>
<!-- Node4 -->
<g id="node4" class="node">
<title>Node4</title>
<g id="a_node4"><a xlink:href="gauri_8h.html" target="_top" xlink:title=" ">
<polygon fill="white" stroke="black" points="2214.5,-56.5 2214.5,-75.5 2481.5,-75.5 2481.5,-56.5 2214.5,-56.5"/>
<text text-anchor="middle" x="2348" y="-63.5" font-family="Helvetica,sans-Serif" font-size="10.00">/home/runner/work/gauri/gauri/gauri/include/gauri.h</text>
</a>
</g>
</g>
<!-- Node1&#45;&gt;Node4 -->
<g id="edge65" class="edge">
<title>Node1&#45;&gt;Node4</title>
<path fill="none" stroke="midnightblue" d="M3722.01,-512.14C4018.89,-508.34 4596,-489.8 4596,-403 4596,-403 4596,-403 4596,-177 4596,-70.52 2965.84,-65.62 2481.89,-66.51"/>
<polygon fill="midnightblue" stroke="midnightblue" points="3721.96,-508.64 3712,-512.26 3722.05,-515.64 3721.96,-508.64"/>
</g>
<!-- Node21 -->
<g id="node21" class="node">
<title>Node21</title>
<g id="a_node21"><a xlink:href="buffer_8h.html" target="_top" xlink:title=" ">
<polygon fill="white" stroke="black" points="2776,-336.5 2776,-355.5 3118,-355.5 3118,-336.5 2776,-336.5"/>
<text text-anchor="middle" x="2947" y="-343.5" font-family="Helvetica,sans-Serif" font-size="10.00">/home/runner/work/gauri/gauri/gauri/include/gauri/renderer/buffer.h</text>
</a>
</g>
</g>
<!-- Node1&#45;&gt;Node21 -->
<g id="edge63" class="edge">
<title>Node1&#45;&gt;Node21</title>
<path fill="none" stroke="midnightblue" d="M3509.14,-501.75C3395.68,-470.52 3078.48,-383.19 2977.96,-355.52"/>
<polygon fill="midnightblue" stroke="midnightblue" points="3508.28,-505.14 3518.85,-504.42 3510.14,-498.4 3508.28,-505.14"/>
</g>
<!-- Node29 -->
<g id="node29" class="node">
<title>Node29</title>
<g id="a_node29"><a xlink:href="frame__buffer_8h.html" target="_top" xlink:title=" ">
<polygon fill="white" stroke="black" points="3927.5,-392.5 3927.5,-411.5 4304.5,-411.5 4304.5,-392.5 3927.5,-392.5"/>
<text text-anchor="middle" x="4116" y="-399.5" font-family="Helvetica,sans-Serif" font-size="10.00">/home/runner/work/gauri/gauri/gauri/include/gauri/renderer/frame_buffer.h</text>
</a>
</g>
</g>
<!-- Node1&#45;&gt;Node29 -->
<g id="edge64" class="edge">
<title>Node1&#45;&gt;Node29</title>
<path fill="none" stroke="midnightblue" d="M3603.97,-502.51C3715.54,-480.83 3969.73,-431.43 4072.09,-411.53"/>
<polygon fill="midnightblue" stroke="midnightblue" points="3603.09,-499.12 3593.94,-504.46 3604.43,-505.99 3603.09,-499.12"/>
</g>
<!-- Node3 -->
<g id="node3" class="node">
<title>Node3</title>
<g id="a_node3"><a xlink:href="input_8h.html" target="_top" xlink:title=" ">
<polygon fill="white" stroke="black" points="2376.5,-112.5 2376.5,-131.5 2695.5,-131.5 2695.5,-112.5 2376.5,-112.5"/>
<text text-anchor="middle" x="2536" y="-119.5" font-family="Helvetica,sans-Serif" font-size="10.00">/home/runner/work/gauri/gauri/gauri/include/gauri/core/input.h</text>
</a>
</g>
</g>
<!-- Node2&#45;&gt;Node3 -->
<g id="edge2" class="edge">
<title>Node2&#45;&gt;Node3</title>
<path fill="none" stroke="midnightblue" d="M2456.2,-446.62C2541.56,-430.38 2686,-395.71 2686,-347 2686,-347 2686,-347 2686,-233 2686,-175.68 2613.89,-144.96 2569.66,-131.52"/>
<polygon fill="midnightblue" stroke="midnightblue" points="2455.54,-443.18 2446.36,-448.46 2456.83,-450.07 2455.54,-443.18"/>
</g>
<!-- Node6 -->
<g id="node6" class="node">
<title>Node6</title>
<g id="a_node6"><a xlink:href="layer_8h.html" target="_top" xlink:title=" ">
<polygon fill="white" stroke="black" points="2236,-336.5 2236,-355.5 2554,-355.5 2554,-336.5 2236,-336.5"/>
<text text-anchor="middle" x="2395" y="-343.5" font-family="Helvetica,sans-Serif" font-size="10.00">/home/runner/work/gauri/gauri/gauri/include/gauri/core/layer.h</text>
</a>
</g>
</g>
<!-- Node2&#45;&gt;Node6 -->
<g id="edge5" class="edge">
<title>Node2&#45;&gt;Node6</title>
<path fill="none" stroke="midnightblue" d="M2395,-438.35C2395,-414.25 2395,-373.31 2395,-355.59"/>
<polygon fill="midnightblue" stroke="midnightblue" points="2391.5,-438.37 2395,-448.37 2398.5,-438.37 2391.5,-438.37"/>
</g>
<!-- Node7 -->
<g id="node7" class="node">
<title>Node7</title>
<g id="a_node7"><a xlink:href="layer__stack_8h.html" target="_top" xlink:title=" ">
<polygon fill="white" stroke="black" points="1894,-280.5 1894,-299.5 2244,-299.5 2244,-280.5 1894,-280.5"/>
<text text-anchor="middle" x="2069" y="-287.5" font-family="Helvetica,sans-Serif" font-size="10.00">/home/runner/work/gauri/gauri/gauri/include/gauri/core/layer_stack.h</text>
</a>
</g>
</g>
<!-- Node2&#45;&gt;Node7 -->
<g id="edge13" class="edge">
<title>Node2&#45;&gt;Node7</title>
<path fill="none" stroke="midnightblue" d="M2368.83,-443.67C2304.35,-410.84 2139.25,-326.77 2085.9,-299.61"/>
<polygon fill="midnightblue" stroke="midnightblue" points="2367.43,-446.89 2377.93,-448.31 2370.61,-440.65 2367.43,-446.89"/>
</g>
<!-- Node10 -->
<g id="node10" class="node">
<title>Node10</title>
<g id="a_node10"><a xlink:href="event_8h.html" target="_top" xlink:title=" ">
<polygon fill="white" stroke="black" points="1359.5,-392.5 1359.5,-411.5 1688.5,-411.5 1688.5,-392.5 1359.5,-392.5"/>
<text text-anchor="middle" x="1524" y="-399.5" font-family="Helvetica,sans-Serif" font-size="10.00">/home/runner/work/gauri/gauri/gauri/include/gauri/event/event.h</text>
</a>
</g>
</g>
<!-- Node2&#45;&gt;Node10 -->
<g id="edge14" class="edge">
<title>Node2&#45;&gt;Node10</title>
<path fill="none" stroke="midnightblue" d="M2247.3,-447.84C2083.32,-437.68 1820.78,-421.4 1661.17,-411.5"/>
<polygon fill="midnightblue" stroke="midnightblue" points="2247.27,-451.35 2257.47,-448.47 2247.7,-444.36 2247.27,-451.35"/>
</g>
<!-- Node16 -->
<g id="node16" class="node">
<title>Node16</title>
<g id="a_node16"><a xlink:href="entity_8h.html" target="_top" xlink:title=" ">
<polygon fill="white" stroke="black" points="891.5,-224.5 891.5,-243.5 1220.5,-243.5 1220.5,-224.5 891.5,-224.5"/>
<text text-anchor="middle" x="1056" y="-231.5" font-family="Helvetica,sans-Serif" font-size="10.00">/home/runner/work/gauri/gauri/gauri/include/gauri/scene/entity.h</text>
</a>
</g>
</g>
<!-- Node2&#45;&gt;Node16 -->
<g id="edge61" class="edge">
<title>Node2&#45;&gt;Node16</title>
<path fill="none" stroke="midnightblue" d="M2226.23,-455.33C1865.42,-451.26 1047.24,-439.07 993,-412 939.17,-385.13 924.66,-326.36 963,-280 978.09,-261.75 1002.34,-250.36 1022.3,-243.6"/>
<polygon fill="midnightblue" stroke="midnightblue" points="2226.21,-458.83 2236.25,-455.45 2226.29,-451.83 2226.21,-458.83"/>
</g>
<!-- Node19 -->
<g id="node19" class="node">
<title>Node19</title>
<g id="a_node19"><a xlink:href="scene__serializer_8h.html" target="_top" xlink:title=" ">
<polygon fill="white" stroke="black" points="1239,-224.5 1239,-243.5 1619,-243.5 1619,-224.5 1239,-224.5"/>
<text text-anchor="middle" x="1429" y="-231.5" font-family="Helvetica,sans-Serif" font-size="10.00">/home/runner/work/gauri/gauri/gauri/include/gauri/scene/scene_serializer.h</text>
</a>
</g>
</g>
<!-- Node2&#45;&gt;Node19 -->
<g id="edge62" class="edge">
<title>Node2&#45;&gt;Node19</title>
<path fill="none" stroke="midnightblue" d="M2226.18,-454.88C2019.29,-451.09 1658.21,-440.64 1350,-412 1175.2,-395.76 1074,-488.64 959,-356 938.82,-332.72 965.13,-295.1 987,-280 1010.58,-263.72 1155.76,-251.17 1273.4,-243.51"/>
<polygon fill="midnightblue" stroke="midnightblue" points="2226.16,-458.38 2236.22,-455.06 2226.28,-451.38 2226.16,-458.38"/>
</g>
<!-- Node2&#45;&gt;Node21 -->
<g id="edge34" class="edge">
<title>Node2&#45;&gt;Node21</title>
<path fill="none" stroke="midnightblue" d="M2478.47,-447.22C2540.02,-439.39 2625.62,-427.23 2700,-412 2780.15,-395.59 2873.07,-369.07 2918.72,-355.54"/>
<polygon fill="midnightblue" stroke="midnightblue" points="2477.91,-443.76 2468.42,-448.49 2478.78,-450.71 2477.91,-443.76"/>
</g>
<!-- Node2&#45;&gt;Node29 -->
<g id="edge48" class="edge">
<title>Node2&#45;&gt;Node29</title>
<path fill="none" stroke="midnightblue" d="M2564,-452.8C2844.34,-445.65 3423.22,-430.12 3913,-412 3917.76,-411.82 3922.58,-411.64 3927.45,-411.45"/>
<polygon fill="midnightblue" stroke="midnightblue" points="2563.65,-449.31 2553.74,-453.06 2563.83,-456.3 2563.65,-449.31"/>
</g>
<!-- Node31 -->
<g id="node31" class="node">
<title>Node31</title>
<g id="a_node31"><a xlink:href="shader_8h.html" target="_top" xlink:title=" ">
<polygon fill="white" stroke="black" points="3725.5,-168.5 3725.5,-187.5 4072.5,-187.5 4072.5,-168.5 3725.5,-168.5"/>
<text text-anchor="middle" x="3899" y="-175.5" font-family="Helvetica,sans-Serif" font-size="10.00">/home/runner/work/gauri/gauri/gauri/include/gauri/renderer/shader.h</text>
</a>
</g>
</g>
<!-- Node2&#45;&gt;Node31 -->
<g id="edge51" class="edge">
<title>Node2&#45;&gt;Node31</title>
<path fill="none" stroke="midnightblue" d="M2563.86,-453.3C2956.74,-443.56 3899,-413.31 3899,-347 3899,-347 3899,-347 3899,-289 3899,-251.19 3899,-206.06 3899,-187.56"/>
<polygon fill="midnightblue" stroke="midnightblue" points="2563.73,-449.8 2553.82,-453.54 2563.9,-456.8 2563.73,-449.8"/>
</g>
<!-- Node33 -->
<g id="node33" class="node">
<title>Node33</title>
<g id="a_node33"><a xlink:href="texture_8h.html" target="_top" xlink:title=" ">
<polygon fill="white" stroke="black" points="463,-392.5 463,-411.5 813,-411.5 813,-392.5 463,-392.5"/>
<text text-anchor="middle" x="638" y="-399.5" font-family="Helvetica,sans-Serif" font-size="10.00">/home/runner/work/gauri/gauri/gauri/include/gauri/renderer/texture.h</text>
</a>
</g>
</g>
<!-- Node2&#45;&gt;Node33 -->
<g id="edge55" class="edge">
<title>Node2&#45;&gt;Node33</title>
<path fill="none" stroke="midnightblue" d="M2226.13,-452.3C1947.43,-444.45 1373.66,-427.99 888,-412 863.8,-411.2 838.28,-410.33 813.17,-409.44"/>
<polygon fill="midnightblue" stroke="midnightblue" points="2226.24,-455.8 2236.33,-452.58 2226.43,-448.8 2226.24,-455.8"/>
</g>
<!-- Node3&#45;&gt;Node4 -->
<g id="edge3" class="edge">
<title>Node3&#45;&gt;Node4</title>
<path fill="none" stroke="midnightblue" d="M2496.2,-109.57C2460.73,-99.38 2409.63,-84.7 2377.65,-75.52"/>
<polygon fill="midnightblue" stroke="midnightblue" points="2495.63,-113.05 2506.21,-112.44 2497.57,-106.32 2495.63,-113.05"/>
</g>
<!-- Node5 -->
<g id="node5" class="node">
<title>Node5</title>
<g id="a_node5"><a xlink:href="entry__point_8h.html" target="_top" xlink:title=" ">
<polygon fill="white" stroke="black" points="2173,-0.5 2173,-19.5 2523,-19.5 2523,-0.5 2173,-0.5"/>
<text text-anchor="middle" x="2348" y="-7.5" font-family="Helvetica,sans-Serif" font-size="10.00">/home/runner/work/gauri/gauri/gauri/include/gauri/core/entry_point.h</text>
</a>
</g>
</g>
<!-- Node4&#45;&gt;Node5 -->
<g id="edge4" class="edge">
<title>Node4&#45;&gt;Node5</title>
<path fill="none" stroke="midnightblue" d="M2348,-45.8C2348,-36.91 2348,-26.78 2348,-19.75"/>
<polygon fill="midnightblue" stroke="midnightblue" points="2344.5,-46.08 2348,-56.08 2351.5,-46.08 2344.5,-46.08"/>
</g>
<!-- Node6&#45;&gt;Node4 -->
<g id="edge12" class="edge">
<title>Node6&#45;&gt;Node4</title>
<path fill="none" stroke="midnightblue" d="M2520.67,-335.14C2568.17,-328.58 2614.33,-317.75 2629,-300 2634.66,-293.15 2633.48,-287.68 2629,-280 2561.59,-164.49 2450.1,-236.79 2367,-132 2353.56,-115.05 2349.62,-88.89 2348.47,-75.51"/>
<polygon fill="midnightblue" stroke="midnightblue" points="2519.99,-331.7 2510.53,-336.48 2520.9,-338.64 2519.99,-331.7"/>
</g>
<!-- Node6&#45;&gt;Node7 -->
<g id="edge6" class="edge">
<title>Node6&#45;&gt;Node7</title>
<path fill="none" stroke="midnightblue" d="M2333.37,-334.79C2271.77,-324.59 2178.14,-309.08 2120.41,-299.52"/>
<polygon fill="midnightblue" stroke="midnightblue" points="2332.91,-338.26 2343.34,-336.44 2334.05,-331.36 2332.91,-338.26"/>
</g>
<!-- Node9 -->
<g id="node9" class="node">
<title>Node9</title>
<g id="a_node9"><a xlink:href="imgui__layer_8h.html" target="_top" xlink:title=" ">
<polygon fill="white" stroke="black" points="2262,-280.5 2262,-299.5 2620,-299.5 2620,-280.5 2262,-280.5"/>
<text text-anchor="middle" x="2441" y="-287.5" font-family="Helvetica,sans-Serif" font-size="10.00">/home/runner/work/gauri/gauri/gauri/include/gauri/imgui/imgui_layer.h</text>
</a>
</g>
</g>
<!-- Node6&#45;&gt;Node9 -->
<g id="edge9" class="edge">
<title>Node6&#45;&gt;Node9</title>
<path fill="none" stroke="midnightblue" d="M2409.11,-328.43C2417.18,-318.97 2426.96,-307.48 2433.55,-299.75"/>
<polygon fill="midnightblue" stroke="midnightblue" points="2406.42,-326.2 2402.6,-336.08 2411.75,-330.74 2406.42,-326.2"/>
</g>
<!-- Node8 -->
<g id="node8" class="node">
<title>Node8</title>
<g id="a_node8"><a xlink:href="application_8h.html" target="_top" xlink:title=" ">
<polygon fill="white" stroke="black" points="1895,-224.5 1895,-243.5 2243,-243.5 2243,-224.5 1895,-224.5"/>
<text text-anchor="middle" x="2069" y="-231.5" font-family="Helvetica,sans-Serif" font-size="10.00">/home/runner/work/gauri/gauri/gauri/include/gauri/core/application.h</text>
</a>
</g>
</g>
<!-- Node7&#45;&gt;Node8 -->
<g id="edge7" class="edge">
<title>Node7&#45;&gt;Node8</title>
<path fill="none" stroke="midnightblue" d="M2069,-269.8C2069,-260.91 2069,-250.78 2069,-243.75"/>
<polygon fill="midnightblue" stroke="midnightblue" points="2065.5,-270.08 2069,-280.08 2072.5,-270.08 2065.5,-270.08"/>
</g>
<!-- Node8&#45;&gt;Node4 -->
<g id="edge8" class="edge">
<title>Node8&#45;&gt;Node4</title>
<path fill="none" stroke="midnightblue" d="M2115.54,-221.77C2141.9,-214.33 2174.92,-203.12 2202,-188 2217.23,-179.5 2307.36,-102.1 2337.89,-75.74"/>
<polygon fill="midnightblue" stroke="midnightblue" points="2114.5,-218.43 2105.78,-224.45 2116.35,-225.18 2114.5,-218.43"/>
</g>
<!-- Node9&#45;&gt;Node4 -->
<g id="edge11" class="edge">
<title>Node9&#45;&gt;Node4</title>
<path fill="none" stroke="midnightblue" d="M2425.34,-273.26C2400.26,-246.81 2352.06,-190.56 2334,-132 2327.88,-112.14 2337.29,-88.08 2343.41,-75.53"/>
<polygon fill="midnightblue" stroke="midnightblue" points="2422.86,-275.73 2432.32,-280.48 2427.89,-270.86 2422.86,-275.73"/>
</g>
<!-- Node9&#45;&gt;Node8 -->
<g id="edge10" class="edge">
<title>Node9&#45;&gt;Node8</title>
<path fill="none" stroke="midnightblue" d="M2371.97,-278.98C2301.7,-268.78 2193.94,-253.14 2127.67,-243.52"/>
<polygon fill="midnightblue" stroke="midnightblue" points="2371.66,-282.47 2382.06,-280.44 2372.66,-275.54 2371.66,-282.47"/>
</g>
<!-- Node10&#45;&gt;Node6 -->
<g id="edge16" class="edge">
<title>Node10&#45;&gt;Node6</title>
<path fill="none" stroke="midnightblue" d="M1671.7,-391.84C1835.68,-381.68 2098.22,-365.4 2257.83,-355.5"/>
<polygon fill="midnightblue" stroke="midnightblue" points="1671.3,-388.36 1661.53,-392.47 1671.73,-395.35 1671.3,-388.36"/>
</g>
<!-- Node10&#45;&gt;Node8 -->
<g id="edge15" class="edge">
<title>Node10&#45;&gt;Node8</title>
<path fill="none" stroke="midnightblue" d="M1495.99,-388.02C1451.73,-365.87 1374.26,-319.34 1411,-280 1427.4,-262.44 1705.25,-248.56 1894.59,-241.08"/>
<polygon fill="midnightblue" stroke="midnightblue" points="1494.61,-391.24 1505.13,-392.49 1497.69,-384.96 1494.61,-391.24"/>
</g>
<!-- Node11 -->
<g id="node11" class="node">
<title>Node11</title>
<g id="a_node11"><a xlink:href="window_8h.html" target="_top" xlink:title=" ">
<polygon fill="white" stroke="black" points="1463.5,-336.5 1463.5,-355.5 1794.5,-355.5 1794.5,-336.5 1463.5,-336.5"/>
<text text-anchor="middle" x="1629" y="-343.5" font-family="Helvetica,sans-Serif" font-size="10.00">/home/runner/work/gauri/gauri/gauri/include/gauri/core/window.h</text>
</a>
</g>
</g>
<!-- Node10&#45;&gt;Node11 -->
<g id="edge17" class="edge">
<title>Node10&#45;&gt;Node11</title>
<path fill="none" stroke="midnightblue" d="M1549.81,-387.73C1569.25,-377.73 1595.35,-364.31 1612.17,-355.65"/>
<polygon fill="midnightblue" stroke="midnightblue" points="1548.16,-384.64 1540.87,-392.32 1551.36,-390.86 1548.16,-384.64"/>
</g>
<!-- Node13 -->
<g id="node13" class="node">
<title>Node13</title>
<g id="a_node13"><a xlink:href="editor__camera_8h.html" target="_top" xlink:title=" ">
<polygon fill="white" stroke="black" points="968.5,-336.5 968.5,-355.5 1353.5,-355.5 1353.5,-336.5 968.5,-336.5"/>
<text text-anchor="middle" x="1161" y="-343.5" font-family="Helvetica,sans-Serif" font-size="10.00">/home/runner/work/gauri/gauri/gauri/include/gauri/renderer/editor_camera.h</text>
</a>
</g>
</g>
<!-- Node10&#45;&gt;Node13 -->
<g id="edge20" class="edge">
<title>Node10&#45;&gt;Node13</title>
<path fill="none" stroke="midnightblue" d="M1456.22,-390.92C1387.64,-380.71 1282.79,-365.12 1218.25,-355.52"/>
<polygon fill="midnightblue" stroke="midnightblue" points="1456.08,-394.43 1466.48,-392.44 1457.11,-387.51 1456.08,-394.43"/>
</g>
<!-- Node20 -->
<g id="node20" class="node">
<title>Node20</title>
<g id="a_node20"><a xlink:href="orthographic__camera__controller_8h.html" target="_top" xlink:title=" ">
<polygon fill="white" stroke="black" points="1724.5,-168.5 1724.5,-187.5 2193.5,-187.5 2193.5,-168.5 1724.5,-168.5"/>
<text text-anchor="middle" x="1959" y="-175.5" font-family="Helvetica,sans-Serif" font-size="10.00">/home/runner/work/gauri/gauri/gauri/include/gauri/renderer/orthographic_camera_controller.h</text>
</a>
</g>
</g>
<!-- Node10&#45;&gt;Node20 -->
<g id="edge32" class="edge">
<title>Node10&#45;&gt;Node20</title>
<path fill="none" stroke="midnightblue" d="M1472.25,-389.43C1452.33,-382.65 1430.83,-372.13 1416,-356 1392.5,-330.45 1375.18,-306.16 1398,-280 1436.78,-235.55 1602.92,-254.29 1661,-244 1756.68,-227.04 1868.3,-201 1923.86,-187.61"/>
<polygon fill="midnightblue" stroke="midnightblue" points="1471.28,-392.8 1481.87,-392.47 1473.39,-386.12 1471.28,-392.8"/>
</g>
<!-- Node11&#45;&gt;Node8 -->
<g id="edge18" class="edge">
<title>Node11&#45;&gt;Node8</title>
<path fill="none" stroke="midnightblue" d="M1704.25,-334.82C1746.93,-327.73 1800.86,-316.53 1847,-300 1864.97,-293.56 1867.15,-286.76 1885,-280 1929.59,-263.11 1982.7,-250.91 2020.37,-243.52"/>
<polygon fill="midnightblue" stroke="midnightblue" points="1703.52,-331.39 1694.21,-336.44 1704.64,-338.3 1703.52,-331.39"/>
</g>
<!-- Node12 -->
<g id="node12" class="node">
<title>Node12</title>
<g id="a_node12"><a xlink:href="windows__window_8h.html" target="_top" xlink:title=" ">
<polygon fill="white" stroke="black" points="1420,-280.5 1420,-299.5 1838,-299.5 1838,-280.5 1420,-280.5"/>
<text text-anchor="middle" x="1629" y="-287.5" font-family="Helvetica,sans-Serif" font-size="10.00">/home/runner/work/gauri/gauri/gauri/include/platform/windows/windows_window.h</text>
</a>
</g>
</g>
<!-- Node11&#45;&gt;Node12 -->
<g id="edge19" class="edge">
<title>Node11&#45;&gt;Node12</title>
<path fill="none" stroke="midnightblue" d="M1629,-325.8C1629,-316.91 1629,-306.78 1629,-299.75"/>
<polygon fill="midnightblue" stroke="midnightblue" points="1625.5,-326.08 1629,-336.08 1632.5,-326.08 1625.5,-326.08"/>
</g>
<!-- Node14 -->
<g id="node14" class="node">
<title>Node14</title>
<g id="a_node14"><a xlink:href="renderer__2d_8h.html" target="_top" xlink:title=" ">
<polygon fill="white" stroke="black" points="343.5,-280.5 343.5,-299.5 716.5,-299.5 716.5,-280.5 343.5,-280.5"/>
<text text-anchor="middle" x="530" y="-287.5" font-family="Helvetica,sans-Serif" font-size="10.00">/home/runner/work/gauri/gauri/gauri/include/gauri/renderer/renderer_2d.h</text>
</a>
</g>
</g>
<!-- Node13&#45;&gt;Node14 -->
<g id="edge21" class="edge">
<title>Node13&#45;&gt;Node14</title>
<path fill="none" stroke="midnightblue" d="M1051.14,-335.6C932.17,-325.42 744.08,-309.32 629.37,-299.5"/>
<polygon fill="midnightblue" stroke="midnightblue" points="1051.1,-339.11 1061.36,-336.47 1051.7,-332.13 1051.1,-339.11"/>
</g>
<!-- Node15 -->
<g id="node15" class="node">
<title>Node15</title>
<g id="a_node15"><a xlink:href="scene_8h.html" target="_top" xlink:title=" ">
<polygon fill="white" stroke="black" points="996,-280.5 996,-299.5 1326,-299.5 1326,-280.5 996,-280.5"/>
<text text-anchor="middle" x="1161" y="-287.5" font-family="Helvetica,sans-Serif" font-size="10.00">/home/runner/work/gauri/gauri/gauri/include/gauri/scene/scene.h</text>
</a>
</g>
</g>
<!-- Node13&#45;&gt;Node15 -->
<g id="edge23" class="edge">
<title>Node13&#45;&gt;Node15</title>
<path fill="none" stroke="midnightblue" d="M1161,-325.8C1161,-316.91 1161,-306.78 1161,-299.75"/>
<polygon fill="midnightblue" stroke="midnightblue" points="1157.5,-326.08 1161,-336.08 1164.5,-326.08 1157.5,-326.08"/>
</g>
<!-- Node14&#45;&gt;Node4 -->
<g id="edge22" class="edge">
<title>Node14&#45;&gt;Node4</title>
<path fill="none" stroke="midnightblue" d="M543.02,-272.2C573.07,-234.93 651.58,-145.96 741,-112 809.29,-86.06 1840.82,-72.45 2214.3,-68.35"/>
<polygon fill="midnightblue" stroke="midnightblue" points="539.91,-270.48 536.45,-280.49 545.4,-274.83 539.91,-270.48"/>
</g>
<!-- Node15&#45;&gt;Node4 -->
<g id="edge31" class="edge">
<title>Node15&#45;&gt;Node4</title>
<path fill="none" stroke="midnightblue" d="M1302.16,-279.78C1428.6,-270.8 1598.55,-256.7 1628,-244 1675.15,-223.67 1668.51,-189.78 1715,-168 1809.04,-123.95 2102.37,-90.45 2254.45,-75.53"/>
<polygon fill="midnightblue" stroke="midnightblue" points="1301.72,-276.3 1291.99,-280.5 1302.21,-283.28 1301.72,-276.3"/>
</g>
<!-- Node15&#45;&gt;Node16 -->
<g id="edge24" class="edge">
<title>Node15&#45;&gt;Node16</title>
<path fill="none" stroke="midnightblue" d="M1135.19,-275.73C1115.75,-265.73 1089.65,-252.31 1072.83,-243.65"/>
<polygon fill="midnightblue" stroke="midnightblue" points="1133.64,-278.86 1144.13,-280.32 1136.84,-272.64 1133.64,-278.86"/>
</g>
<!-- Node15&#45;&gt;Node19 -->
<g id="edge30" class="edge">
<title>Node15&#45;&gt;Node19</title>
<path fill="none" stroke="midnightblue" d="M1213.56,-278.41C1264.21,-268.2 1339.87,-252.96 1386.73,-243.52"/>
<polygon fill="midnightblue" stroke="midnightblue" points="1212.58,-275.04 1203.47,-280.44 1213.96,-281.9 1212.58,-275.04"/>
</g>
<!-- Node16&#45;&gt;Node4 -->
<g id="edge29" class="edge">
<title>Node16&#45;&gt;Node4</title>
<path fill="none" stroke="midnightblue" d="M1098.37,-221.92C1193.32,-197.58 1430.68,-139.44 1633,-112 1834.51,-84.67 2070.27,-73.9 2214.34,-69.68"/>
<polygon fill="midnightblue" stroke="midnightblue" points="1097.38,-218.56 1088.57,-224.45 1099.12,-225.34 1097.38,-218.56"/>
</g>
<!-- Node17 -->
<g id="node17" class="node">
<title>Node17</title>
<g id="a_node17"><a xlink:href="scriptable__entity_8h.html" target="_top" xlink:title=" ">
<polygon fill="white" stroke="black" points="737,-168.5 737,-187.5 1119,-187.5 1119,-168.5 737,-168.5"/>
<text text-anchor="middle" x="928" y="-175.5" font-family="Helvetica,sans-Serif" font-size="10.00">/home/runner/work/gauri/gauri/gauri/include/gauri/scene/scriptable_entity.h</text>
</a>
</g>
</g>
<!-- Node16&#45;&gt;Node17 -->
<g id="edge25" class="edge">
<title>Node16&#45;&gt;Node17</title>
<path fill="none" stroke="midnightblue" d="M1026.38,-220.5C1002.38,-210.38 969.22,-196.39 948.19,-187.52"/>
<polygon fill="midnightblue" stroke="midnightblue" points="1025.14,-223.78 1035.72,-224.44 1027.86,-217.33 1025.14,-223.78"/>
</g>
<!-- Node17&#45;&gt;Node4 -->
<g id="edge28" class="edge">
<title>Node17&#45;&gt;Node4</title>
<path fill="none" stroke="midnightblue" d="M820.26,-166.84C769.21,-158.02 725.07,-141.76 754,-112 779.32,-85.95 1835.1,-72.36 2214.21,-68.32"/>
<polygon fill="midnightblue" stroke="midnightblue" points="819.77,-170.31 830.2,-168.46 820.89,-163.4 819.77,-170.31"/>
</g>
<!-- Node18 -->
<g id="node18" class="node">
<title>Node18</title>
<g id="a_node18"><a xlink:href="component_8h.html" target="_top" xlink:title=" ">
<polygon fill="white" stroke="black" points="763,-112.5 763,-131.5 1119,-131.5 1119,-112.5 763,-112.5"/>
<text text-anchor="middle" x="941" y="-119.5" font-family="Helvetica,sans-Serif" font-size="10.00">/home/runner/work/gauri/gauri/gauri/include/gauri/scene/component.h</text>
</a>
</g>
</g>
<!-- Node17&#45;&gt;Node18 -->
<g id="edge26" class="edge">
<title>Node17&#45;&gt;Node18</title>
<path fill="none" stroke="midnightblue" d="M932.55,-158.1C934.71,-149.14 937.18,-138.86 938.89,-131.75"/>
<polygon fill="midnightblue" stroke="midnightblue" points="929.08,-157.54 930.15,-168.08 935.89,-159.18 929.08,-157.54"/>
</g>
<!-- Node18&#45;&gt;Node4 -->
<g id="edge27" class="edge">
<title>Node18&#45;&gt;Node4</title>
<path fill="none" stroke="midnightblue" d="M1129.12,-112.16C1130.42,-112.11 1131.71,-112.05 1133,-112 1526.06,-95.51 1990.78,-79.18 2214.49,-71.52"/>
<polygon fill="midnightblue" stroke="midnightblue" points="1128.92,-108.67 1119.08,-112.59 1129.22,-115.66 1128.92,-108.67"/>
</g>
<!-- Node20&#45;&gt;Node4 -->
<g id="edge33" class="edge">
<title>Node20&#45;&gt;Node4</title>
<path fill="none" stroke="midnightblue" d="M1999.15,-165.65C2077.33,-143.54 2248.39,-95.17 2317.82,-75.53"/>
<polygon fill="midnightblue" stroke="midnightblue" points="1997.87,-162.37 1989.2,-168.46 1999.78,-169.11 1997.87,-162.37"/>
</g>
<!-- Node21&#45;&gt;Node4 -->
<g id="edge46" class="edge">
<title>Node21&#45;&gt;Node4</title>
<path fill="none" stroke="midnightblue" d="M2861.69,-335C2813.88,-327.74 2760.44,-316.3 2743,-300 2721.01,-279.45 2724,-265.1 2724,-235 2724,-235 2724,-235 2724,-177 2724,-146.77 2727.14,-131.45 2704,-112 2670.8,-84.09 2568.38,-73.23 2481.88,-69.13"/>
<polygon fill="midnightblue" stroke="midnightblue" points="2861.39,-338.49 2871.79,-336.49 2862.41,-331.57 2861.39,-338.49"/>
</g>
<!-- Node22 -->
<g id="node22" class="node">
<title>Node22</title>
<g id="a_node22"><a xlink:href="vertex__array_8h.html" target="_top" xlink:title=" ">
<polygon fill="white" stroke="black" points="3159.5,-280.5 3159.5,-299.5 3534.5,-299.5 3534.5,-280.5 3159.5,-280.5"/>
<text text-anchor="middle" x="3347" y="-287.5" font-family="Helvetica,sans-Serif" font-size="10.00">/home/runner/work/gauri/gauri/gauri/include/gauri/renderer/vertex_array.h</text>
</a>
</g>
</g>
<!-- Node21&#45;&gt;Node22 -->
<g id="edge35" class="edge">
<title>Node21&#45;&gt;Node22</title>
<path fill="none" stroke="midnightblue" d="M3020.3,-335.1C3095.83,-324.91 3212.36,-309.18 3283.92,-299.52"/>
<polygon fill="midnightblue" stroke="midnightblue" points="3019.82,-331.64 3010.38,-336.44 3020.76,-338.57 3019.82,-331.64"/>
</g>
<!-- Node28 -->
<g id="node28" class="node">
<title>Node28</title>
<g id="a_node28"><a xlink:href="opengl__buffer_8h.html" target="_top" xlink:title=" ">
<polygon fill="white" stroke="black" points="2752.5,-280.5 2752.5,-299.5 3141.5,-299.5 3141.5,-280.5 2752.5,-280.5"/>
<text text-anchor="middle" x="2947" y="-287.5" font-family="Helvetica,sans-Serif" font-size="10.00">/home/runner/work/gauri/gauri/gauri/include/platform/opengl/opengl_buffer.h</text>
</a>
</g>
</g>
<!-- Node21&#45;&gt;Node28 -->
<g id="edge47" class="edge">
<title>Node21&#45;&gt;Node28</title>
<path fill="none" stroke="midnightblue" d="M2947,-325.8C2947,-316.91 2947,-306.78 2947,-299.75"/>
<polygon fill="midnightblue" stroke="midnightblue" points="2943.5,-326.08 2947,-336.08 2950.5,-326.08 2943.5,-326.08"/>
</g>
<!-- Node22&#45;&gt;Node4 -->
<g id="edge44" class="edge">
<title>Node22&#45;&gt;Node4</title>
<path fill="none" stroke="midnightblue" d="M3272.59,-279.14C3211.55,-270.75 3122.96,-257.87 3046,-244 2927.53,-222.65 2878.12,-259.12 2781,-188 2749.69,-165.07 2770.35,-133.44 2738,-112 2696.88,-84.74 2577.58,-73.92 2481.65,-69.67"/>
<polygon fill="midnightblue" stroke="midnightblue" points="3272.14,-282.61 3282.52,-280.5 3273.09,-275.67 3272.14,-282.61"/>
</g>
<!-- Node23 -->
<g id="node23" class="node">
<title>Node23</title>
<g id="a_node23"><a xlink:href="renderer__api_8h.html" target="_top" xlink:title=" ">
<polygon fill="white" stroke="black" points="3055,-224.5 3055,-243.5 3431,-243.5 3431,-224.5 3055,-224.5"/>
<text text-anchor="middle" x="3243" y="-231.5" font-family="Helvetica,sans-Serif" font-size="10.00">/home/runner/work/gauri/gauri/gauri/include/gauri/renderer/renderer_api.h</text>
</a>
</g>
</g>
<!-- Node22&#45;&gt;Node23 -->
<g id="edge36" class="edge">
<title>Node22&#45;&gt;Node23</title>
<path fill="none" stroke="midnightblue" d="M3321.17,-275.59C3301.94,-265.61 3276.26,-252.27 3259.67,-243.65"/>
<polygon fill="midnightblue" stroke="midnightblue" points="3319.8,-278.82 3330.29,-280.32 3323.03,-272.61 3319.8,-278.82"/>
</g>
<!-- Node27 -->
<g id="node27" class="node">
<title>Node27</title>
<g id="a_node27"><a xlink:href="opengl__vertex__array_8h.html" target="_top" xlink:title=" ">
<polygon fill="white" stroke="black" points="3449,-224.5 3449,-243.5 3871,-243.5 3871,-224.5 3449,-224.5"/>
<text text-anchor="middle" x="3660" y="-231.5" font-family="Helvetica,sans-Serif" font-size="10.00">/home/runner/work/gauri/gauri/gauri/include/platform/opengl/opengl_vertex_array.h</text>
</a>
</g>
</g>
<!-- Node22&#45;&gt;Node27 -->
<g id="edge45" class="edge">
<title>Node22&#45;&gt;Node27</title>
<path fill="none" stroke="midnightblue" d="M3406.54,-278.73C3465.69,-268.52 3555.33,-253.06 3610.64,-243.52"/>
<polygon fill="midnightblue" stroke="midnightblue" points="3405.86,-275.29 3396.6,-280.44 3407.05,-282.19 3405.86,-275.29"/>
</g>
<!-- Node23&#45;&gt;Node4 -->
<g id="edge42" class="edge">
<title>Node23&#45;&gt;Node4</title>
<path fill="none" stroke="midnightblue" d="M3418.57,-223.78C3517.61,-216.73 3624.6,-205.24 3640,-188 3645.92,-181.37 3646.04,-174.53 3640,-168 3630.12,-157.32 2791.48,-97.87 2470.8,-75.51"/>
<polygon fill="midnightblue" stroke="midnightblue" points="3418.13,-220.3 3408.4,-224.49 3418.62,-227.28 3418.13,-220.3"/>
</g>
<!-- Node24 -->
<g id="node24" class="node">
<title>Node24</title>
<g id="a_node24"><a xlink:href="render__command_8h.html" target="_top" xlink:title=" ">
<polygon fill="white" stroke="black" points="2790,-168.5 2790,-187.5 3190,-187.5 3190,-168.5 2790,-168.5"/>
<text text-anchor="middle" x="2990" y="-175.5" font-family="Helvetica,sans-Serif" font-size="10.00">/home/runner/work/gauri/gauri/gauri/include/gauri/renderer/render_command.h</text>
</a>
</g>
</g>
<!-- Node23&#45;&gt;Node24 -->
<g id="edge37" class="edge">
<title>Node23&#45;&gt;Node24</title>
<path fill="none" stroke="midnightblue" d="M3193.08,-222.35C3145.27,-212.14 3074.05,-196.94 3029.9,-187.52"/>
<polygon fill="midnightblue" stroke="midnightblue" points="3192.4,-225.78 3202.91,-224.44 3193.86,-218.93 3192.4,-225.78"/>
</g>
<!-- Node25 -->
<g id="node25" class="node">
<title>Node25</title>
<g id="a_node25"><a xlink:href="renderer_8h.html" target="_top" xlink:title=" ">
<polygon fill="white" stroke="black" points="3282.5,-112.5 3282.5,-131.5 3637.5,-131.5 3637.5,-112.5 3282.5,-112.5"/>
<text text-anchor="middle" x="3460" y="-119.5" font-family="Helvetica,sans-Serif" font-size="10.00">/home/runner/work/gauri/gauri/gauri/include/gauri/renderer/renderer.h</text>
</a>
</g>
</g>
<!-- Node23&#45;&gt;Node25 -->
<g id="edge41" class="edge">
<title>Node23&#45;&gt;Node25</title>
<path fill="none" stroke="midnightblue" d="M3372.32,-223.69C3495.55,-214.19 3663.85,-199.26 3674,-188 3702.4,-156.49 3667.58,-140.03 3618.34,-131.52"/>
<polygon fill="midnightblue" stroke="midnightblue" points="3371.74,-220.23 3362.04,-224.48 3372.28,-227.21 3371.74,-220.23"/>
</g>
<!-- Node26 -->
<g id="node26" class="node">
<title>Node26</title>
<g id="a_node26"><a xlink:href="opengl__renderer__api_8h.html" target="_top" xlink:title=" ">
<polygon fill="white" stroke="black" points="3208.5,-168.5 3208.5,-187.5 3631.5,-187.5 3631.5,-168.5 3208.5,-168.5"/>
<text text-anchor="middle" x="3420" y="-175.5" font-family="Helvetica,sans-Serif" font-size="10.00">/home/runner/work/gauri/gauri/gauri/include/platform/opengl/opengl_renderer_api.h</text>
</a>
</g>
</g>
<!-- Node23&#45;&gt;Node26 -->
<g id="edge43" class="edge">
<title>Node23&#45;&gt;Node26</title>
<path fill="none" stroke="midnightblue" d="M3280.9,-221.44C3314.28,-211.26 3362.1,-196.66 3392.09,-187.52"/>
<polygon fill="midnightblue" stroke="midnightblue" points="3279.59,-218.18 3271.05,-224.44 3281.63,-224.87 3279.59,-218.18"/>
</g>
<!-- Node24&#45;&gt;Node4 -->
<g id="edge40" class="edge">
<title>Node24&#45;&gt;Node4</title>
<path fill="none" stroke="midnightblue" d="M2957.35,-164.96C2915.81,-150.13 2841.57,-125.28 2776,-112 2678.42,-92.24 2566.47,-80.86 2481.54,-74.49"/>
<polygon fill="midnightblue" stroke="midnightblue" points="2956.35,-168.31 2966.94,-168.41 2958.72,-161.73 2956.35,-168.31"/>
</g>
<!-- Node24&#45;&gt;Node25 -->
<g id="edge38" class="edge">
<title>Node24&#45;&gt;Node25</title>
<path fill="none" stroke="midnightblue" d="M3074.24,-167.32C3162.9,-157.14 3301.1,-141.26 3385.79,-131.53"/>
<polygon fill="midnightblue" stroke="midnightblue" points="3073.75,-163.85 3064.21,-168.47 3074.55,-170.81 3073.75,-163.85"/>
</g>
<!-- Node25&#45;&gt;Node4 -->
<g id="edge39" class="edge">
<title>Node25&#45;&gt;Node4</title>
<path fill="none" stroke="midnightblue" d="M3274.5,-111.99C3050.57,-101.12 2679.48,-83.1 2481.73,-73.49"/>
<polygon fill="midnightblue" stroke="midnightblue" points="3274.56,-115.5 3284.72,-112.49 3274.9,-108.51 3274.56,-115.5"/>
</g>
<!-- Node29&#45;&gt;Node4 -->
<g id="edge49" class="edge">
<title>Node29&#45;&gt;Node4</title>
<path fill="none" stroke="midnightblue" d="M4116,-382.25C4116,-360.36 4116,-323.05 4116,-291 4116,-291 4116,-291 4116,-177 4116,-146.9 4120.85,-130.36 4097,-112 4065.09,-87.44 2885.2,-72.68 2481.7,-68.35"/>
<polygon fill="midnightblue" stroke="midnightblue" points="4112.5,-382.44 4116,-392.44 4119.5,-382.44 4112.5,-382.44"/>
</g>
<!-- Node30 -->
<g id="node30" class="node">
<title>Node30</title>
<g id="a_node30"><a xlink:href="opengl__frame__buffer_8h.html" target="_top" xlink:title=" ">
<polygon fill="white" stroke="black" points="4144,-336.5 4144,-355.5 4568,-355.5 4568,-336.5 4144,-336.5"/>
<text text-anchor="middle" x="4356" y="-343.5" font-family="Helvetica,sans-Serif" font-size="10.00">/home/runner/work/gauri/gauri/gauri/include/platform/opengl/opengl_frame_buffer.h</text>
</a>
</g>
</g>
<!-- Node29&#45;&gt;Node30 -->
<g id="edge50" class="edge">
<title>Node29&#45;&gt;Node30</title>
<path fill="none" stroke="midnightblue" d="M4163.92,-390.22C4209.27,-380.01 4276.44,-364.9 4318.15,-355.52"/>
<polygon fill="midnightblue" stroke="midnightblue" points="4163.02,-386.83 4154.03,-392.44 4164.55,-393.66 4163.02,-386.83"/>
</g>
<!-- Node31&#45;&gt;Node4 -->
<g id="edge53" class="edge">
<title>Node31&#45;&gt;Node4</title>
<path fill="none" stroke="midnightblue" d="M3827.03,-166.79C3784.88,-159.6 3731.05,-148.32 3685,-132 3666.64,-125.49 3664.85,-116.9 3646,-112 3535.72,-83.34 2790.42,-71.89 2481.61,-68.33"/>
<polygon fill="midnightblue" stroke="midnightblue" points="3826.49,-170.25 3836.93,-168.44 3827.64,-163.34 3826.49,-170.25"/>
</g>
<!-- Node31&#45;&gt;Node25 -->
<g id="edge52" class="edge">
<title>Node31&#45;&gt;Node25</title>
<path fill="none" stroke="midnightblue" d="M3819.31,-167.2C3736.44,-157 3608.01,-141.21 3529.24,-131.52"/>
<polygon fill="midnightblue" stroke="midnightblue" points="3819.09,-170.7 3829.44,-168.44 3819.94,-163.75 3819.09,-170.7"/>
</g>
<!-- Node32 -->
<g id="node32" class="node">
<title>Node32</title>
<g id="a_node32"><a xlink:href="opengl__shader_8h.html" target="_top" xlink:title=" ">
<polygon fill="white" stroke="black" points="3694,-112.5 3694,-131.5 4088,-131.5 4088,-112.5 3694,-112.5"/>
<text text-anchor="middle" x="3891" y="-119.5" font-family="Helvetica,sans-Serif" font-size="10.00">/home/runner/work/gauri/gauri/gauri/include/platform/opengl/opengl_shader.h</text>
</a>
</g>
</g>
<!-- Node31&#45;&gt;Node32 -->
<g id="edge54" class="edge">
<title>Node31&#45;&gt;Node32</title>
<path fill="none" stroke="midnightblue" d="M3896.2,-158.1C3894.87,-149.14 3893.35,-138.86 3892.3,-131.75"/>
<polygon fill="midnightblue" stroke="midnightblue" points="3892.75,-158.7 3897.68,-168.08 3899.68,-157.68 3892.75,-158.7"/>
</g>
<!-- Node33&#45;&gt;Node4 -->
<g id="edge59" class="edge">
<title>Node33&#45;&gt;Node4</title>
<path fill="none" stroke="midnightblue" d="M725.91,-391.02C774.11,-383.83 827.54,-372.45 845,-356 889.34,-314.21 836.25,-264.24 882,-224 923.49,-187.51 1073.57,-197.48 1128,-188 1295.96,-158.76 1334.87,-133.48 1504,-112 1753.65,-80.29 2047.59,-70.87 2214.44,-68.11"/>
<polygon fill="midnightblue" stroke="midnightblue" points="725.12,-387.6 715.72,-392.49 726.12,-394.53 725.12,-387.6"/>
</g>
<!-- Node33&#45;&gt;Node14 -->
<g id="edge56" class="edge">
<title>Node33&#45;&gt;Node14</title>
<path fill="none" stroke="midnightblue" d="M536.52,-391.07C490.81,-384.29 443.97,-373.31 430,-356 408.42,-329.25 456.87,-309.86 493.61,-299.53"/>
<polygon fill="midnightblue" stroke="midnightblue" points="536.16,-394.55 546.55,-392.5 537.14,-387.62 536.16,-394.55"/>
</g>
<!-- Node34 -->
<g id="node34" class="node">
<title>Node34</title>
<g id="a_node34"><a xlink:href="subtexture__2d_8h.html" target="_top" xlink:title=" ">
<polygon fill="white" stroke="black" points="0,-336.5 0,-355.5 384,-355.5 384,-336.5 0,-336.5"/>
<text text-anchor="middle" x="192" y="-343.5" font-family="Helvetica,sans-Serif" font-size="10.00">/home/runner/work/gauri/gauri/gauri/include/gauri/renderer/subtexture_2d.h</text>
</a>
</g>
</g>
<!-- Node33&#45;&gt;Node34 -->
<g id="edge57" class="edge">
<title>Node33&#45;&gt;Node34</title>
<path fill="none" stroke="midnightblue" d="M557.3,-391.23C473.11,-381.04 342.45,-365.22 262.34,-355.52"/>
<polygon fill="midnightblue" stroke="midnightblue" points="556.98,-394.72 567.33,-392.44 557.82,-387.77 556.98,-394.72"/>
</g>
<!-- Node35 -->
<g id="node35" class="node">
<title>Node35</title>
<g id="a_node35"><a xlink:href="opengl__texture_8h.html" target="_top" xlink:title=" ">
<polygon fill="white" stroke="black" points="439.5,-336.5 439.5,-355.5 836.5,-355.5 836.5,-336.5 439.5,-336.5"/>
<text text-anchor="middle" x="638" y="-343.5" font-family="Helvetica,sans-Serif" font-size="10.00">/home/runner/work/gauri/gauri/gauri/include/platform/opengl/opengl_texture.h</text>
</a>
</g>
</g>
<!-- Node33&#45;&gt;Node35 -->
<g id="edge60" class="edge">
<title>Node33&#45;&gt;Node35</title>
<path fill="none" stroke="midnightblue" d="M638,-381.8C638,-372.91 638,-362.78 638,-355.75"/>
<polygon fill="midnightblue" stroke="midnightblue" points="634.5,-382.08 638,-392.08 641.5,-382.08 634.5,-382.08"/>
</g>
<!-- Node34&#45;&gt;Node14 -->
<g id="edge58" class="edge">
<title>Node34&#45;&gt;Node14</title>
<path fill="none" stroke="midnightblue" d="M255.51,-334.85C319.37,-324.65 416.72,-309.1 476.69,-299.52"/>
<polygon fill="midnightblue" stroke="midnightblue" points="254.88,-331.41 245.56,-336.44 255.98,-338.32 254.88,-331.41"/>
</g>
</g>
</svg>
