<?xml version="1.0" encoding="UTF-8" standalone="no"?>
<!DOCTYPE svg PUBLIC "-//W3C//DTD SVG 1.1//EN"
 "http://www.w3.org/Graphics/SVG/1.1/DTD/svg11.dtd">
<!-- Generated by graphviz version 2.43.0 (0)
 -->
<!-- Title: /home/runner/work/gauri/gauri/gauri/include/gauri/core/logger.h Pages: 1 -->
<!--zoomable 476 -->
<svg id="main" version="1.1" xmlns="http://www.w3.org/2000/svg" xmlns:xlink="http://www.w3.org/1999/xlink" xml:space="preserve" onload="init(evt)">
<style type="text/css"><![CDATA[
.edge:hover path { stroke: red; }
.edge:hover polygon { stroke: red; fill: red; }
]]></style>
<script type="text/javascript"><![CDATA[
var edges = document.getElementsByTagName('g');
if (edges && edges.length) {
  for (var i=0;i<edges.length;i++) {
    if (edges[i].id.substr(0,4)=='edge') {
      edges[i].setAttribute('class','edge');
    }
  }
}
]]></script>
        <defs>
                <circle id="rim" cx="0" cy="0" r="7"/>
                <circle id="rim2" cx="0" cy="0" r="3.5"/>
                <g id="zoomPlus">
                        <use xlink:href="#rim" fill="#404040">
                                <set attributeName="fill" to="#808080" begin="zoomplus.mouseover" end="zoomplus.mouseout"/>
                        </use>
                        <path d="M-4,0h8M0,-4v8" fill="none" stroke="white" stroke-width="1.5" pointer-events="none"/>
                </g>
                <g id="zoomMin">
                        <use xlink:href="#rim" fill="#404040">
                                <set attributeName="fill" to="#808080" begin="zoomminus.mouseover" end="zoomminus.mouseout"/>
                        </use>
                        <path d="M-4,0h8" fill="none" stroke="white" stroke-width="1.5" pointer-events="none"/>
                </g>
                <g id="dirArrow">
                        <path fill="none" stroke="white" stroke-width="1.5" d="M0,-3.0v7 M-2.5,-0.5L0,-3.0L2.5,-0.5"/>
                </g>
               <g id="resetDef">
                       <use xlink:href="#rim2" fill="#404040">
                               <set attributeName="fill" to="#808080" begin="reset.mouseover" end="reset.mouseout"/>
                       </use>
               </g>
        </defs>

<script type="text/javascript">
var viewWidth = 3217;
var viewHeight = 476;
var sectionId = 'dynsection-1';
</script>
<script xlink:href="svgpan.js"/>
<svg id="graph" class="graph">
<g id="viewport">
<title>/home/runner/work/gauri/gauri/gauri/include/gauri/core/logger.h</title>
<polygon fill="white" stroke="transparent" points="-4,4 -4,-472 3212.5,-472 3212.5,4 -4,4"/>
<!-- Node1 -->
<g id="node1" class="node">
<title>Node1</title>
<g id="a_node1"><a xlink:title=" ">
<polygon fill="#bfbfbf" stroke="black" points="870,-448.5 870,-467.5 1194,-467.5 1194,-448.5 870,-448.5"/>
<text text-anchor="middle" x="1032" y="-455.5" font-family="Helvetica,sans-Serif" font-size="10.00">/home/runner/work/gauri/gauri/gauri/include/gauri/core/logger.h</text>
</a>
</g>
</g>
<!-- Node2 -->
<g id="node2" class="node">
<title>Node2</title>
<g id="a_node2"><a xlink:href="core_8h.html" target="_top" xlink:title=" ">
<polygon fill="white" stroke="black" points="874.5,-392.5 874.5,-411.5 1189.5,-411.5 1189.5,-392.5 874.5,-392.5"/>
<text text-anchor="middle" x="1032" y="-399.5" font-family="Helvetica,sans-Serif" font-size="10.00">/home/runner/work/gauri/gauri/gauri/include/gauri/core/core.h</text>
</a>
</g>
</g>
<!-- Node1&#45;&gt;Node2 -->
<g id="edge1" class="edge">
<title>Node1&#45;&gt;Node2</title>
<path fill="none" stroke="midnightblue" d="M1032,-437.8C1032,-428.91 1032,-418.78 1032,-411.75"/>
<polygon fill="midnightblue" stroke="midnightblue" points="1028.5,-438.08 1032,-448.08 1035.5,-438.08 1028.5,-438.08"/>
</g>
<!-- Node4 -->
<g id="node4" class="node">
<title>Node4</title>
<g id="a_node4"><a xlink:href="gauri_8h.html" target="_top" xlink:title=" ">
<polygon fill="white" stroke="black" points="1274.5,-56.5 1274.5,-75.5 1541.5,-75.5 1541.5,-56.5 1274.5,-56.5"/>
<text text-anchor="middle" x="1408" y="-63.5" font-family="Helvetica,sans-Serif" font-size="10.00">/home/runner/work/gauri/gauri/gauri/include/gauri.h</text>
</a>
</g>
</g>
<!-- Node1&#45;&gt;Node4 -->
<g id="edge46" class="edge">
<title>Node1&#45;&gt;Node4</title>
<path fill="none" stroke="midnightblue" d="M859.57,-455.87C565.87,-451.64 0,-432.39 0,-347 0,-347 0,-347 0,-177 0,-137.98 23.59,-128.39 59,-112 113.44,-86.8 944.24,-73.12 1274.3,-68.66"/>
<polygon fill="midnightblue" stroke="midnightblue" points="859.85,-459.38 869.9,-456.02 859.95,-452.38 859.85,-459.38"/>
</g>
<!-- Node15 -->
<g id="node15" class="node">
<title>Node15</title>
<g id="a_node15"><a xlink:href="buffer_8h.html" target="_top" xlink:title=" ">
<polygon fill="white" stroke="black" points="1237,-336.5 1237,-355.5 1579,-355.5 1579,-336.5 1237,-336.5"/>
<text text-anchor="middle" x="1408" y="-343.5" font-family="Helvetica,sans-Serif" font-size="10.00">/home/runner/work/gauri/gauri/gauri/include/gauri/renderer/buffer.h</text>
</a>
</g>
</g>
<!-- Node1&#45;&gt;Node15 -->
<g id="edge45" class="edge">
<title>Node1&#45;&gt;Node15</title>
<path fill="none" stroke="midnightblue" d="M1074.8,-445.84C1108.39,-436.98 1156.29,-424.1 1198,-412 1264.34,-392.75 1341.85,-368.23 1381.57,-355.51"/>
<polygon fill="midnightblue" stroke="midnightblue" points="1073.63,-442.53 1064.85,-448.46 1075.41,-449.3 1073.63,-442.53"/>
</g>
<!-- Node3 -->
<g id="node3" class="node">
<title>Node3</title>
<g id="a_node3"><a xlink:href="input_8h.html" target="_top" xlink:title=" ">
<polygon fill="white" stroke="black" points="250.5,-336.5 250.5,-355.5 569.5,-355.5 569.5,-336.5 250.5,-336.5"/>
<text text-anchor="middle" x="410" y="-343.5" font-family="Helvetica,sans-Serif" font-size="10.00">/home/runner/work/gauri/gauri/gauri/include/gauri/core/input.h</text>
</a>
</g>
</g>
<!-- Node2&#45;&gt;Node3 -->
<g id="edge2" class="edge">
<title>Node2&#45;&gt;Node3</title>
<path fill="none" stroke="midnightblue" d="M923.71,-391.6C806.44,-381.42 621.03,-365.32 507.96,-355.5"/>
<polygon fill="midnightblue" stroke="midnightblue" points="923.52,-395.1 933.79,-392.47 924.13,-388.12 923.52,-395.1"/>
</g>
<!-- Node7 -->
<g id="node7" class="node">
<title>Node7</title>
<g id="a_node7"><a xlink:href="layer_8h.html" target="_top" xlink:title=" ">
<polygon fill="white" stroke="black" points="474,-224.5 474,-243.5 792,-243.5 792,-224.5 474,-224.5"/>
<text text-anchor="middle" x="633" y="-231.5" font-family="Helvetica,sans-Serif" font-size="10.00">/home/runner/work/gauri/gauri/gauri/include/gauri/core/layer.h</text>
</a>
</g>
</g>
<!-- Node2&#45;&gt;Node7 -->
<g id="edge7" class="edge">
<title>Node2&#45;&gt;Node7</title>
<path fill="none" stroke="midnightblue" d="M936.54,-390.92C895.23,-384.32 847.05,-373.52 806,-356 736.56,-326.36 666.85,-266.07 642.27,-243.65"/>
<polygon fill="midnightblue" stroke="midnightblue" points="936.2,-394.41 946.61,-392.47 937.26,-387.49 936.2,-394.41"/>
</g>
<!-- Node8 -->
<g id="node8" class="node">
<title>Node8</title>
<g id="a_node8"><a xlink:href="layer__stack_8h.html" target="_top" xlink:title=" ">
<polygon fill="white" stroke="black" points="480,-168.5 480,-187.5 830,-187.5 830,-168.5 480,-168.5"/>
<text text-anchor="middle" x="655" y="-175.5" font-family="Helvetica,sans-Serif" font-size="10.00">/home/runner/work/gauri/gauri/gauri/include/gauri/core/layer_stack.h</text>
</a>
</g>
</g>
<!-- Node2&#45;&gt;Node8 -->
<g id="edge15" class="edge">
<title>Node2&#45;&gt;Node8</title>
<path fill="none" stroke="midnightblue" d="M1002.38,-388.31C965.77,-371.66 902.81,-339.83 858,-300 826.44,-271.95 835.53,-248.3 801,-224 774.21,-205.15 739.29,-194.01 710.32,-187.54"/>
<polygon fill="midnightblue" stroke="midnightblue" points="1000.97,-391.51 1011.53,-392.4 1003.83,-385.12 1000.97,-391.51"/>
</g>
<!-- Node11 -->
<g id="node11" class="node">
<title>Node11</title>
<g id="a_node11"><a xlink:href="event_8h.html" target="_top" xlink:title=" ">
<polygon fill="white" stroke="black" points="867.5,-280.5 867.5,-299.5 1196.5,-299.5 1196.5,-280.5 867.5,-280.5"/>
<text text-anchor="middle" x="1032" y="-287.5" font-family="Helvetica,sans-Serif" font-size="10.00">/home/runner/work/gauri/gauri/gauri/include/gauri/event/event.h</text>
</a>
</g>
</g>
<!-- Node2&#45;&gt;Node11 -->
<g id="edge16" class="edge">
<title>Node2&#45;&gt;Node11</title>
<path fill="none" stroke="midnightblue" d="M1032,-382.35C1032,-358.25 1032,-317.31 1032,-299.59"/>
<polygon fill="midnightblue" stroke="midnightblue" points="1028.5,-382.37 1032,-392.37 1035.5,-382.37 1028.5,-382.37"/>
</g>
<!-- Node2&#45;&gt;Node15 -->
<g id="edge24" class="edge">
<title>Node2&#45;&gt;Node15</title>
<path fill="none" stroke="midnightblue" d="M1101.77,-390.98C1172.8,-380.78 1281.71,-365.14 1348.7,-355.52"/>
<polygon fill="midnightblue" stroke="midnightblue" points="1100.98,-387.56 1091.58,-392.44 1101.97,-394.49 1100.98,-387.56"/>
</g>
<!-- Node23 -->
<g id="node23" class="node">
<title>Node23</title>
<g id="a_node23"><a xlink:href="shader_8h.html" target="_top" xlink:title=" ">
<polygon fill="white" stroke="black" points="2409.5,-168.5 2409.5,-187.5 2756.5,-187.5 2756.5,-168.5 2409.5,-168.5"/>
<text text-anchor="middle" x="2583" y="-175.5" font-family="Helvetica,sans-Serif" font-size="10.00">/home/runner/work/gauri/gauri/gauri/include/gauri/renderer/shader.h</text>
</a>
</g>
</g>
<!-- Node2&#45;&gt;Node23 -->
<g id="edge38" class="edge">
<title>Node2&#45;&gt;Node23</title>
<path fill="none" stroke="midnightblue" d="M1200.16,-399.77C1433.2,-395.14 1866.4,-375.93 2227,-300 2359.23,-272.16 2510.38,-210.23 2563.4,-187.54"/>
<polygon fill="midnightblue" stroke="midnightblue" points="1199.84,-396.28 1189.9,-399.97 1199.97,-403.28 1199.84,-396.28"/>
</g>
<!-- Node25 -->
<g id="node25" class="node">
<title>Node25</title>
<g id="a_node25"><a xlink:href="texture_8h.html" target="_top" xlink:title=" ">
<polygon fill="white" stroke="black" points="2609,-336.5 2609,-355.5 2959,-355.5 2959,-336.5 2609,-336.5"/>
<text text-anchor="middle" x="2784" y="-343.5" font-family="Helvetica,sans-Serif" font-size="10.00">/home/runner/work/gauri/gauri/gauri/include/gauri/renderer/texture.h</text>
</a>
</g>
</g>
<!-- Node2&#45;&gt;Node25 -->
<g id="edge42" class="edge">
<title>Node2&#45;&gt;Node25</title>
<path fill="none" stroke="midnightblue" d="M1199.99,-395.82C1532.33,-385.58 2270.75,-362.82 2608.84,-352.4"/>
<polygon fill="midnightblue" stroke="midnightblue" points="1199.68,-392.33 1189.79,-396.14 1199.9,-399.33 1199.68,-392.33"/>
</g>
<!-- Node3&#45;&gt;Node4 -->
<g id="edge3" class="edge">
<title>Node3&#45;&gt;Node4</title>
<path fill="none" stroke="midnightblue" d="M310.26,-335.23C200.07,-321.61 38,-291.9 38,-235 38,-235 38,-235 38,-177 38,-108 111.88,-128.02 179,-112 283.1,-87.16 978.01,-73.62 1274.43,-68.92"/>
<polygon fill="midnightblue" stroke="midnightblue" points="310.08,-338.74 320.42,-336.46 310.92,-331.79 310.08,-338.74"/>
</g>
<!-- Node6 -->
<g id="node6" class="node">
<title>Node6</title>
<g id="a_node6"><a xlink:href="windows__input_8h.html" target="_top" xlink:title=" ">
<polygon fill="white" stroke="black" points="207,-280.5 207,-299.5 613,-299.5 613,-280.5 207,-280.5"/>
<text text-anchor="middle" x="410" y="-287.5" font-family="Helvetica,sans-Serif" font-size="10.00">/home/runner/work/gauri/gauri/gauri/include/platform/windows/windows_input.h</text>
</a>
</g>
</g>
<!-- Node3&#45;&gt;Node6 -->
<g id="edge6" class="edge">
<title>Node3&#45;&gt;Node6</title>
<path fill="none" stroke="midnightblue" d="M410,-325.8C410,-316.91 410,-306.78 410,-299.75"/>
<polygon fill="midnightblue" stroke="midnightblue" points="406.5,-326.08 410,-336.08 413.5,-326.08 406.5,-326.08"/>
</g>
<!-- Node5 -->
<g id="node5" class="node">
<title>Node5</title>
<g id="a_node5"><a xlink:href="entry__point_8h.html" target="_top" xlink:title=" ">
<polygon fill="white" stroke="black" points="1233,-0.5 1233,-19.5 1583,-19.5 1583,-0.5 1233,-0.5"/>
<text text-anchor="middle" x="1408" y="-7.5" font-family="Helvetica,sans-Serif" font-size="10.00">/home/runner/work/gauri/gauri/gauri/include/gauri/core/entry_point.h</text>
</a>
</g>
</g>
<!-- Node4&#45;&gt;Node5 -->
<g id="edge4" class="edge">
<title>Node4&#45;&gt;Node5</title>
<path fill="none" stroke="midnightblue" d="M1401.53,-46.1C1400.9,-37.14 1401.34,-26.86 1402.87,-19.75"/>
<polygon fill="midnightblue" stroke="midnightblue" points="1398.07,-46.62 1402.83,-56.08 1405.01,-45.71 1398.07,-46.62"/>
</g>
<!-- Node5&#45;&gt;Node4 -->
<g id="edge5" class="edge">
<title>Node5&#45;&gt;Node4</title>
<path fill="none" stroke="midnightblue" d="M1414.46,-29.69C1415.11,-38.64 1414.68,-48.93 1413.17,-56.08"/>
<polygon fill="midnightblue" stroke="midnightblue" points="1417.92,-29.2 1413.13,-19.75 1410.98,-30.13 1417.92,-29.2"/>
</g>
<!-- Node7&#45;&gt;Node4 -->
<g id="edge14" class="edge">
<title>Node7&#45;&gt;Node4</title>
<path fill="none" stroke="midnightblue" d="M463.69,-230.12C315.43,-225.8 119.83,-214.99 95,-188 88.98,-181.46 89.24,-174.77 95,-168 170.37,-79.41 955.6,-67.84 1274.5,-66.82"/>
<polygon fill="midnightblue" stroke="midnightblue" points="463.74,-233.63 473.83,-230.41 463.93,-226.63 463.74,-233.63"/>
</g>
<!-- Node7&#45;&gt;Node8 -->
<g id="edge8" class="edge">
<title>Node7&#45;&gt;Node8</title>
<path fill="none" stroke="midnightblue" d="M640.46,-214.69C644.17,-205.59 648.48,-195.01 651.43,-187.75"/>
<polygon fill="midnightblue" stroke="midnightblue" points="637.16,-213.5 636.63,-224.08 643.65,-216.14 637.16,-213.5"/>
</g>
<!-- Node10 -->
<g id="node10" class="node">
<title>Node10</title>
<g id="a_node10"><a xlink:href="imgui__layer_8h.html" target="_top" xlink:title=" ">
<polygon fill="white" stroke="black" points="104,-168.5 104,-187.5 462,-187.5 462,-168.5 104,-168.5"/>
<text text-anchor="middle" x="283" y="-175.5" font-family="Helvetica,sans-Serif" font-size="10.00">/home/runner/work/gauri/gauri/gauri/include/gauri/imgui/imgui_layer.h</text>
</a>
</g>
</g>
<!-- Node7&#45;&gt;Node10 -->
<g id="edge11" class="edge">
<title>Node7&#45;&gt;Node10</title>
<path fill="none" stroke="midnightblue" d="M567.64,-222.92C501.52,-212.71 400.43,-197.12 338.2,-187.52"/>
<polygon fill="midnightblue" stroke="midnightblue" points="567.12,-226.38 577.54,-224.44 568.19,-219.46 567.12,-226.38"/>
</g>
<!-- Node9 -->
<g id="node9" class="node">
<title>Node9</title>
<g id="a_node9"><a xlink:href="application_8h.html" target="_top" xlink:title=" ">
<polygon fill="white" stroke="black" points="544,-112.5 544,-131.5 892,-131.5 892,-112.5 544,-112.5"/>
<text text-anchor="middle" x="718" y="-119.5" font-family="Helvetica,sans-Serif" font-size="10.00">/home/runner/work/gauri/gauri/gauri/include/gauri/core/application.h</text>
</a>
</g>
</g>
<!-- Node8&#45;&gt;Node9 -->
<g id="edge9" class="edge">
<title>Node8&#45;&gt;Node9</title>
<path fill="none" stroke="midnightblue" d="M673.04,-161.54C684.27,-151.91 698.32,-139.87 707.69,-131.83"/>
<polygon fill="midnightblue" stroke="midnightblue" points="670.44,-159.16 665.12,-168.32 674.99,-164.47 670.44,-159.16"/>
</g>
<!-- Node9&#45;&gt;Node4 -->
<g id="edge10" class="edge">
<title>Node9&#45;&gt;Node4</title>
<path fill="none" stroke="midnightblue" d="M836.96,-111.69C966.98,-101.51 1173.53,-85.35 1299.34,-75.5"/>
<polygon fill="midnightblue" stroke="midnightblue" points="836.65,-108.2 826.95,-112.47 837.19,-115.18 836.65,-108.2"/>
</g>
<!-- Node10&#45;&gt;Node4 -->
<g id="edge13" class="edge">
<title>Node10&#45;&gt;Node4</title>
<path fill="none" stroke="midnightblue" d="M318.82,-165.33C367.26,-150.1 456.61,-124 535,-112 673.39,-90.81 1065.75,-76.79 1274.13,-70.61"/>
<polygon fill="midnightblue" stroke="midnightblue" points="317.6,-162.04 309.12,-168.4 319.71,-168.71 317.6,-162.04"/>
</g>
<!-- Node10&#45;&gt;Node9 -->
<g id="edge12" class="edge">
<title>Node10&#45;&gt;Node9</title>
<path fill="none" stroke="midnightblue" d="M361.96,-167.2C444.08,-157 571.34,-141.21 649.4,-131.52"/>
<polygon fill="midnightblue" stroke="midnightblue" points="361.42,-163.74 351.93,-168.44 362.28,-170.68 361.42,-163.74"/>
</g>
<!-- Node11&#45;&gt;Node7 -->
<g id="edge18" class="edge">
<title>Node11&#45;&gt;Node7</title>
<path fill="none" stroke="midnightblue" d="M958.42,-279.04C883.06,-268.84 767.16,-253.16 695.93,-243.52"/>
<polygon fill="midnightblue" stroke="midnightblue" points="958.4,-282.57 968.78,-280.44 959.34,-275.63 958.4,-282.57"/>
</g>
<!-- Node11&#45;&gt;Node9 -->
<g id="edge17" class="edge">
<title>Node11&#45;&gt;Node9</title>
<path fill="none" stroke="midnightblue" d="M948.67,-278.01C923.52,-271.42 897.24,-260.87 877,-244 847.99,-219.82 867.1,-193.23 839,-168 818.07,-149.21 788.58,-138.03 763.96,-131.51"/>
<polygon fill="midnightblue" stroke="midnightblue" points="948.07,-281.47 958.61,-280.43 949.72,-274.66 948.07,-281.47"/>
</g>
<!-- Node12 -->
<g id="node12" class="node">
<title>Node12</title>
<g id="a_node12"><a xlink:href="window_8h.html" target="_top" xlink:title=" ">
<polygon fill="white" stroke="black" points="886.5,-224.5 886.5,-243.5 1217.5,-243.5 1217.5,-224.5 886.5,-224.5"/>
<text text-anchor="middle" x="1052" y="-231.5" font-family="Helvetica,sans-Serif" font-size="10.00">/home/runner/work/gauri/gauri/gauri/include/gauri/core/window.h</text>
</a>
</g>
</g>
<!-- Node11&#45;&gt;Node12 -->
<g id="edge19" class="edge">
<title>Node11&#45;&gt;Node12</title>
<path fill="none" stroke="midnightblue" d="M1038.78,-270.69C1042.15,-261.59 1046.07,-251.01 1048.76,-243.75"/>
<polygon fill="midnightblue" stroke="midnightblue" points="1035.49,-269.49 1035.3,-280.08 1042.06,-271.92 1035.49,-269.49"/>
</g>
<!-- Node14 -->
<g id="node14" class="node">
<title>Node14</title>
<g id="a_node14"><a xlink:href="orthographic__camera__controller_8h.html" target="_top" xlink:title=" ">
<polygon fill="white" stroke="black" points="910.5,-112.5 910.5,-131.5 1379.5,-131.5 1379.5,-112.5 910.5,-112.5"/>
<text text-anchor="middle" x="1145" y="-119.5" font-family="Helvetica,sans-Serif" font-size="10.00">/home/runner/work/gauri/gauri/gauri/include/gauri/renderer/orthographic_camera_controller.h</text>
</a>
</g>
</g>
<!-- Node11&#45;&gt;Node14 -->
<g id="edge22" class="edge">
<title>Node11&#45;&gt;Node14</title>
<path fill="none" stroke="midnightblue" d="M1094.95,-278.67C1179.63,-263.28 1322.89,-231.4 1351,-188 1355.83,-180.54 1356.57,-174.92 1351,-168 1336.08,-149.47 1283.19,-138.15 1234.74,-131.5"/>
<polygon fill="midnightblue" stroke="midnightblue" points="1094.15,-275.26 1084.92,-280.47 1095.38,-282.15 1094.15,-275.26"/>
</g>
<!-- Node12&#45;&gt;Node9 -->
<g id="edge20" class="edge">
<title>Node12&#45;&gt;Node9</title>
<path fill="none" stroke="midnightblue" d="M1013.08,-221.56C985.42,-213.1 947.56,-200.87 915,-188 895.4,-180.25 891.73,-175.42 872,-168 831.85,-152.9 784.28,-139.68 752.74,-131.55"/>
<polygon fill="midnightblue" stroke="midnightblue" points="1012.2,-224.95 1022.78,-224.5 1014.23,-218.25 1012.2,-224.95"/>
</g>
<!-- Node13 -->
<g id="node13" class="node">
<title>Node13</title>
<g id="a_node13"><a xlink:href="windows__window_8h.html" target="_top" xlink:title=" ">
<polygon fill="white" stroke="black" points="924,-168.5 924,-187.5 1342,-187.5 1342,-168.5 924,-168.5"/>
<text text-anchor="middle" x="1133" y="-175.5" font-family="Helvetica,sans-Serif" font-size="10.00">/home/runner/work/gauri/gauri/gauri/include/platform/windows/windows_window.h</text>
</a>
</g>
</g>
<!-- Node12&#45;&gt;Node13 -->
<g id="edge21" class="edge">
<title>Node12&#45;&gt;Node13</title>
<path fill="none" stroke="midnightblue" d="M1073.57,-218.62C1088.36,-208.76 1107.51,-195.99 1120.02,-187.65"/>
<polygon fill="midnightblue" stroke="midnightblue" points="1071.39,-215.86 1065.01,-224.32 1075.28,-221.69 1071.39,-215.86"/>
</g>
<!-- Node14&#45;&gt;Node4 -->
<g id="edge23" class="edge">
<title>Node14&#45;&gt;Node4</title>
<path fill="none" stroke="midnightblue" d="M1196.58,-110.41C1246.28,-100.2 1320.53,-84.96 1366.52,-75.52"/>
<polygon fill="midnightblue" stroke="midnightblue" points="1195.76,-107 1186.67,-112.44 1197.17,-113.86 1195.76,-107"/>
</g>
<!-- Node15&#45;&gt;Node4 -->
<g id="edge36" class="edge">
<title>Node15&#45;&gt;Node4</title>
<path fill="none" stroke="midnightblue" d="M1408,-326.25C1408,-304.36 1408,-267.05 1408,-235 1408,-235 1408,-235 1408,-177 1408,-139.19 1408,-94.06 1408,-75.56"/>
<polygon fill="midnightblue" stroke="midnightblue" points="1404.5,-326.44 1408,-336.44 1411.5,-326.44 1404.5,-326.44"/>
</g>
<!-- Node16 -->
<g id="node16" class="node">
<title>Node16</title>
<g id="a_node16"><a xlink:href="vertex__array_8h.html" target="_top" xlink:title=" ">
<polygon fill="white" stroke="black" points="1436.5,-280.5 1436.5,-299.5 1811.5,-299.5 1811.5,-280.5 1436.5,-280.5"/>
<text text-anchor="middle" x="1624" y="-287.5" font-family="Helvetica,sans-Serif" font-size="10.00">/home/runner/work/gauri/gauri/gauri/include/gauri/renderer/vertex_array.h</text>
</a>
</g>
</g>
<!-- Node15&#45;&gt;Node16 -->
<g id="edge25" class="edge">
<title>Node15&#45;&gt;Node16</title>
<path fill="none" stroke="midnightblue" d="M1452.16,-333.96C1492.96,-323.76 1552.71,-308.82 1589.93,-299.52"/>
<polygon fill="midnightblue" stroke="midnightblue" points="1451.08,-330.62 1442.23,-336.44 1452.78,-337.41 1451.08,-330.62"/>
</g>
<!-- Node22 -->
<g id="node22" class="node">
<title>Node22</title>
<g id="a_node22"><a xlink:href="opengl__buffer_8h.html" target="_top" xlink:title=" ">
<polygon fill="white" stroke="black" points="1829.5,-280.5 1829.5,-299.5 2218.5,-299.5 2218.5,-280.5 1829.5,-280.5"/>
<text text-anchor="middle" x="2024" y="-287.5" font-family="Helvetica,sans-Serif" font-size="10.00">/home/runner/work/gauri/gauri/gauri/include/platform/opengl/opengl_buffer.h</text>
</a>
</g>
</g>
<!-- Node15&#45;&gt;Node22 -->
<g id="edge37" class="edge">
<title>Node15&#45;&gt;Node22</title>
<path fill="none" stroke="midnightblue" d="M1515.25,-335.6C1631.39,-325.42 1815.01,-309.32 1926.99,-299.5"/>
<polygon fill="midnightblue" stroke="midnightblue" points="1514.92,-332.11 1505.27,-336.47 1515.53,-339.09 1514.92,-332.11"/>
</g>
<!-- Node16&#45;&gt;Node4 -->
<g id="edge34" class="edge">
<title>Node16&#45;&gt;Node4</title>
<path fill="none" stroke="midnightblue" d="M1557.07,-277.86C1533.67,-271.22 1508.63,-260.69 1490,-244 1462.5,-219.37 1422.37,-108.33 1411.07,-75.91"/>
<polygon fill="midnightblue" stroke="midnightblue" points="1556.4,-281.3 1566.97,-280.47 1558.19,-274.53 1556.4,-281.3"/>
</g>
<!-- Node17 -->
<g id="node17" class="node">
<title>Node17</title>
<g id="a_node17"><a xlink:href="renderer__api_8h.html" target="_top" xlink:title=" ">
<polygon fill="white" stroke="black" points="1499,-224.5 1499,-243.5 1875,-243.5 1875,-224.5 1499,-224.5"/>
<text text-anchor="middle" x="1687" y="-231.5" font-family="Helvetica,sans-Serif" font-size="10.00">/home/runner/work/gauri/gauri/gauri/include/gauri/renderer/renderer_api.h</text>
</a>
</g>
</g>
<!-- Node16&#45;&gt;Node17 -->
<g id="edge26" class="edge">
<title>Node16&#45;&gt;Node17</title>
<path fill="none" stroke="midnightblue" d="M1642.04,-273.54C1653.27,-263.91 1667.32,-251.87 1676.69,-243.83"/>
<polygon fill="midnightblue" stroke="midnightblue" points="1639.44,-271.16 1634.12,-280.32 1643.99,-276.47 1639.44,-271.16"/>
</g>
<!-- Node21 -->
<g id="node21" class="node">
<title>Node21</title>
<g id="a_node21"><a xlink:href="opengl__vertex__array_8h.html" target="_top" xlink:title=" ">
<polygon fill="white" stroke="black" points="1893,-224.5 1893,-243.5 2315,-243.5 2315,-224.5 1893,-224.5"/>
<text text-anchor="middle" x="2104" y="-231.5" font-family="Helvetica,sans-Serif" font-size="10.00">/home/runner/work/gauri/gauri/gauri/include/platform/opengl/opengl_vertex_array.h</text>
</a>
</g>
</g>
<!-- Node16&#45;&gt;Node21 -->
<g id="edge35" class="edge">
<title>Node16&#45;&gt;Node21</title>
<path fill="none" stroke="midnightblue" d="M1709.75,-279.35C1800.29,-269.17 1941.63,-253.27 2028.21,-243.53"/>
<polygon fill="midnightblue" stroke="midnightblue" points="1709.34,-275.88 1699.79,-280.47 1710.12,-282.83 1709.34,-275.88"/>
</g>
<!-- Node17&#45;&gt;Node4 -->
<g id="edge32" class="edge">
<title>Node17&#45;&gt;Node4</title>
<path fill="none" stroke="midnightblue" d="M1580.27,-222.18C1553.1,-215.51 1525.3,-204.88 1503,-188 1472.05,-164.58 1484.59,-142.03 1460,-112 1448.2,-97.59 1431.47,-84.03 1420.2,-75.64"/>
<polygon fill="midnightblue" stroke="midnightblue" points="1579.71,-225.65 1590.24,-224.47 1581.28,-218.82 1579.71,-225.65"/>
</g>
<!-- Node18 -->
<g id="node18" class="node">
<title>Node18</title>
<g id="a_node18"><a xlink:href="render__command_8h.html" target="_top" xlink:title=" ">
<polygon fill="white" stroke="black" points="1512,-168.5 1512,-187.5 1912,-187.5 1912,-168.5 1512,-168.5"/>
<text text-anchor="middle" x="1712" y="-175.5" font-family="Helvetica,sans-Serif" font-size="10.00">/home/runner/work/gauri/gauri/gauri/include/gauri/renderer/render_command.h</text>
</a>
</g>
</g>
<!-- Node17&#45;&gt;Node18 -->
<g id="edge27" class="edge">
<title>Node17&#45;&gt;Node18</title>
<path fill="none" stroke="midnightblue" d="M1695.34,-214.98C1699.58,-205.82 1704.55,-195.09 1707.95,-187.75"/>
<polygon fill="midnightblue" stroke="midnightblue" points="1692.15,-213.54 1691.13,-224.08 1698.51,-216.48 1692.15,-213.54"/>
</g>
<!-- Node19 -->
<g id="node19" class="node">
<title>Node19</title>
<g id="a_node19"><a xlink:href="renderer_8h.html" target="_top" xlink:title=" ">
<polygon fill="white" stroke="black" points="1704.5,-112.5 1704.5,-131.5 2059.5,-131.5 2059.5,-112.5 1704.5,-112.5"/>
<text text-anchor="middle" x="1882" y="-119.5" font-family="Helvetica,sans-Serif" font-size="10.00">/home/runner/work/gauri/gauri/gauri/include/gauri/renderer/renderer.h</text>
</a>
</g>
</g>
<!-- Node17&#45;&gt;Node19 -->
<g id="edge31" class="edge">
<title>Node17&#45;&gt;Node19</title>
<path fill="none" stroke="midnightblue" d="M1812.67,-223.14C1860.17,-216.58 1906.33,-205.75 1921,-188 1936.25,-169.53 1910.11,-144.47 1893.72,-131.52"/>
<polygon fill="midnightblue" stroke="midnightblue" points="1811.99,-219.7 1802.53,-224.48 1812.9,-226.64 1811.99,-219.7"/>
</g>
<!-- Node20 -->
<g id="node20" class="node">
<title>Node20</title>
<g id="a_node20"><a xlink:href="opengl__renderer__api_8h.html" target="_top" xlink:title=" ">
<polygon fill="white" stroke="black" points="1968.5,-168.5 1968.5,-187.5 2391.5,-187.5 2391.5,-168.5 1968.5,-168.5"/>
<text text-anchor="middle" x="2180" y="-175.5" font-family="Helvetica,sans-Serif" font-size="10.00">/home/runner/work/gauri/gauri/gauri/include/platform/opengl/opengl_renderer_api.h</text>
</a>
</g>
</g>
<!-- Node17&#45;&gt;Node20 -->
<g id="edge33" class="edge">
<title>Node17&#45;&gt;Node20</title>
<path fill="none" stroke="midnightblue" d="M1774.79,-223.38C1867.77,-213.2 2013.15,-197.28 2102.16,-187.53"/>
<polygon fill="midnightblue" stroke="midnightblue" points="1774.4,-219.91 1764.85,-224.47 1775.17,-226.86 1774.4,-219.91"/>
</g>
<!-- Node18&#45;&gt;Node4 -->
<g id="edge30" class="edge">
<title>Node18&#45;&gt;Node4</title>
<path fill="none" stroke="midnightblue" d="M1678.74,-164.97C1616.9,-142.59 1485.63,-95.09 1431.8,-75.61"/>
<polygon fill="midnightblue" stroke="midnightblue" points="1677.8,-168.35 1688.4,-168.46 1680.19,-161.77 1677.8,-168.35"/>
</g>
<!-- Node18&#45;&gt;Node19 -->
<g id="edge28" class="edge">
<title>Node18&#45;&gt;Node19</title>
<path fill="none" stroke="midnightblue" d="M1748.82,-165.3C1780.85,-155.13 1826.52,-140.62 1855.19,-131.52"/>
<polygon fill="midnightblue" stroke="midnightblue" points="1747.41,-162.08 1738.94,-168.44 1749.53,-168.75 1747.41,-162.08"/>
</g>
<!-- Node19&#45;&gt;Node4 -->
<g id="edge29" class="edge">
<title>Node19&#45;&gt;Node4</title>
<path fill="none" stroke="midnightblue" d="M1797.05,-111.32C1707.63,-101.14 1568.25,-85.26 1482.84,-75.53"/>
<polygon fill="midnightblue" stroke="midnightblue" points="1796.82,-114.82 1807.15,-112.47 1797.62,-107.86 1796.82,-114.82"/>
</g>
<!-- Node23&#45;&gt;Node4 -->
<g id="edge40" class="edge">
<title>Node23&#45;&gt;Node4</title>
<path fill="none" stroke="midnightblue" d="M2514.3,-167.05C2415.69,-153.07 2228.27,-127.56 2068,-112 1885.96,-94.32 1675,-81.22 1541.55,-73.85"/>
<polygon fill="midnightblue" stroke="midnightblue" points="2514.03,-170.55 2524.42,-168.49 2515.02,-163.62 2514.03,-170.55"/>
</g>
<!-- Node23&#45;&gt;Node19 -->
<g id="edge39" class="edge">
<title>Node23&#45;&gt;Node19</title>
<path fill="none" stroke="midnightblue" d="M2462.15,-167.69C2330.05,-157.51 2120.21,-141.35 1992.4,-131.5"/>
<polygon fill="midnightblue" stroke="midnightblue" points="2462.07,-171.19 2472.31,-168.47 2462.61,-164.22 2462.07,-171.19"/>
</g>
<!-- Node24 -->
<g id="node24" class="node">
<title>Node24</title>
<g id="a_node24"><a xlink:href="opengl__shader_8h.html" target="_top" xlink:title=" ">
<polygon fill="white" stroke="black" points="2362,-112.5 2362,-131.5 2756,-131.5 2756,-112.5 2362,-112.5"/>
<text text-anchor="middle" x="2559" y="-119.5" font-family="Helvetica,sans-Serif" font-size="10.00">/home/runner/work/gauri/gauri/gauri/include/platform/opengl/opengl_shader.h</text>
</a>
</g>
</g>
<!-- Node23&#45;&gt;Node24 -->
<g id="edge41" class="edge">
<title>Node23&#45;&gt;Node24</title>
<path fill="none" stroke="midnightblue" d="M2574.86,-158.69C2570.82,-149.59 2566.12,-139.01 2562.89,-131.75"/>
<polygon fill="midnightblue" stroke="midnightblue" points="2571.78,-160.37 2579.04,-168.08 2578.17,-157.52 2571.78,-160.37"/>
</g>
<!-- Node25&#45;&gt;Node4 -->
<g id="edge43" class="edge">
<title>Node25&#45;&gt;Node4</title>
<path fill="none" stroke="midnightblue" d="M2784,-326.25C2784,-304.36 2784,-267.05 2784,-235 2784,-235 2784,-235 2784,-177 2784,-146.9 2788.78,-130.45 2765,-112 2717.23,-74.94 1874.27,-68.38 1541.52,-67.23"/>
<polygon fill="midnightblue" stroke="midnightblue" points="2780.5,-326.44 2784,-336.44 2787.5,-326.44 2780.5,-326.44"/>
</g>
<!-- Node26 -->
<g id="node26" class="node">
<title>Node26</title>
<g id="a_node26"><a xlink:href="opengl__texture_8h.html" target="_top" xlink:title=" ">
<polygon fill="white" stroke="black" points="2811.5,-280.5 2811.5,-299.5 3208.5,-299.5 3208.5,-280.5 2811.5,-280.5"/>
<text text-anchor="middle" x="3010" y="-287.5" font-family="Helvetica,sans-Serif" font-size="10.00">/home/runner/work/gauri/gauri/gauri/include/platform/opengl/opengl_texture.h</text>
</a>
</g>
</g>
<!-- Node25&#45;&gt;Node26 -->
<g id="edge44" class="edge">
<title>Node25&#45;&gt;Node26</title>
<path fill="none" stroke="midnightblue" d="M2829.67,-334.09C2872.36,-323.89 2935.25,-308.86 2974.36,-299.52"/>
<polygon fill="midnightblue" stroke="midnightblue" points="2828.72,-330.72 2819.81,-336.44 2830.35,-337.52 2828.72,-330.72"/>
</g>
</g>
</svg>
        <g id="navigator" transform="translate(0 0)" fill="#404254">
                <rect fill="#f2f5e9" fill-opacity="0.5" stroke="#606060" stroke-width=".5" x="0" y="0" width="60" height="60"/>
                <use id="zoomplus" xlink:href="#zoomPlus" x="17" y="9" onmousedown="handleZoom(evt,'in')"/>
                <use id="zoomminus" xlink:href="#zoomMin" x="42" y="9" onmousedown="handleZoom(evt,'out')"/>
                <use id="reset" xlink:href="#resetDef" x="30" y="36" onmousedown="handleReset()"/>
                <g id="arrowUp" xlink:href="#dirArrow" transform="translate(30 24)" onmousedown="handlePan(0,-1)">
                  <use xlink:href="#rim" fill="#404040">
                        <set attributeName="fill" to="#808080" begin="arrowUp.mouseover" end="arrowUp.mouseout"/>
                  </use>
                  <path fill="none" stroke="white" stroke-width="1.5" d="M0,-3.0v7 M-2.5,-0.5L0,-3.0L2.5,-0.5"/>
                </g>
                <g id="arrowRight" xlink:href="#dirArrow" transform="rotate(90) translate(36 -43)" onmousedown="handlePan(1,0)">
                  <use xlink:href="#rim" fill="#404040">
                        <set attributeName="fill" to="#808080" begin="arrowRight.mouseover" end="arrowRight.mouseout"/>
                  </use>
                  <path fill="none" stroke="white" stroke-width="1.5" d="M0,-3.0v7 M-2.5,-0.5L0,-3.0L2.5,-0.5"/>
                </g>
                <g id="arrowDown" xlink:href="#dirArrow" transform="rotate(180) translate(-30 -48)" onmousedown="handlePan(0,1)">
                  <use xlink:href="#rim" fill="#404040">
                        <set attributeName="fill" to="#808080" begin="arrowDown.mouseover" end="arrowDown.mouseout"/>
                  </use>
                  <path fill="none" stroke="white" stroke-width="1.5" d="M0,-3.0v7 M-2.5,-0.5L0,-3.0L2.5,-0.5"/>
                </g>
                <g id="arrowLeft" xlink:href="#dirArrow" transform="rotate(270) translate(-36 17)" onmousedown="handlePan(-1,0)">
                  <use xlink:href="#rim" fill="#404040">
                        <set attributeName="fill" to="#808080" begin="arrowLeft.mouseover" end="arrowLeft.mouseout"/>
                  </use>
                  <path fill="none" stroke="white" stroke-width="1.5" d="M0,-3.0v7 M-2.5,-0.5L0,-3.0L2.5,-0.5"/>
                </g>
        </g>
        <svg viewBox="0 0 15 15" width="100%" height="30px" preserveAspectRatio="xMaxYMin meet">
         <g id="arrow_out" transform="scale(0.3 0.3)">
          <a xlink:href="logger_8h__dep__incl_org.svg" target="_base">
           <rect id="button" ry="5" rx="5" y="6" x="6" height="38" width="38"
                fill="#f2f5e9" fill-opacity="0.5" stroke="#606060" stroke-width="1.0"/>
           <path id="arrow"
             d="M 11.500037,31.436501 C 11.940474,20.09759 22.043105,11.32322 32.158766,21.979434 L 37.068811,17.246167 C 37.068811,17.246167 37.088388,32 37.088388,32 L 22.160133,31.978069 C 22.160133,31.978069 26.997745,27.140456 26.997745,27.140456 C 18.528582,18.264221 13.291696,25.230495 11.500037,31.436501 z"
             style="fill:#404040;"/>
          </a>
         </g>
        </svg>
</svg>
