<?xml version="1.0" encoding="UTF-8" standalone="no"?>
<!DOCTYPE svg PUBLIC "-//W3C//DTD SVG 1.1//EN"
 "http://www.w3.org/Graphics/SVG/1.1/DTD/svg11.dtd">
<!-- Generated by graphviz version 2.43.0 (0)
 -->
<!-- Title: /home/runner/work/gauri/gauri/gauri/include/gauri/core/logger.h Pages: 1 -->
<svg width="3510pt" height="476pt"
 viewBox="0.00 0.00 3509.50 476.00" xmlns="http://www.w3.org/2000/svg" xmlns:xlink="http://www.w3.org/1999/xlink">
<g id="graph0" class="graph" transform="scale(1 1) rotate(0) translate(4 472)">
<title>/home/runner/work/gauri/gauri/gauri/include/gauri/core/logger.h</title>
<polygon fill="white" stroke="transparent" points="-4,4 -4,-472 3505.5,-472 3505.5,4 -4,4"/>
<!-- Node1 -->
<g id="node1" class="node">
<title>Node1</title>
<g id="a_node1"><a xlink:title=" ">
<polygon fill="#bfbfbf" stroke="black" points="595,-448.5 595,-467.5 919,-467.5 919,-448.5 595,-448.5"/>
<text text-anchor="middle" x="757" y="-455.5" font-family="Helvetica,sans-Serif" font-size="10.00">/home/runner/work/gauri/gauri/gauri/include/gauri/core/logger.h</text>
</a>
</g>
</g>
<!-- Node2 -->
<g id="node2" class="node">
<title>Node2</title>
<g id="a_node2"><a xlink:href="core_8h.html" target="_top" xlink:title=" ">
<polygon fill="white" stroke="black" points="599.5,-392.5 599.5,-411.5 914.5,-411.5 914.5,-392.5 599.5,-392.5"/>
<text text-anchor="middle" x="757" y="-399.5" font-family="Helvetica,sans-Serif" font-size="10.00">/home/runner/work/gauri/gauri/gauri/include/gauri/core/core.h</text>
</a>
</g>
</g>
<!-- Node1&#45;&gt;Node2 -->
<g id="edge1" class="edge">
<title>Node1&#45;&gt;Node2</title>
<path fill="none" stroke="midnightblue" d="M757,-437.8C757,-428.91 757,-418.78 757,-411.75"/>
<polygon fill="midnightblue" stroke="midnightblue" points="753.5,-438.08 757,-448.08 760.5,-438.08 753.5,-438.08"/>
</g>
<!-- Node4 -->
<g id="node4" class="node">
<title>Node4</title>
<g id="a_node4"><a xlink:href="gauri_8h.html" target="_top" xlink:title=" ">
<polygon fill="white" stroke="black" points="1293.5,-56.5 1293.5,-75.5 1560.5,-75.5 1560.5,-56.5 1293.5,-56.5"/>
<text text-anchor="middle" x="1427" y="-63.5" font-family="Helvetica,sans-Serif" font-size="10.00">/home/runner/work/gauri/gauri/gauri/include/gauri.h</text>
</a>
</g>
</g>
<!-- Node1&#45;&gt;Node4 -->
<g id="edge47" class="edge">
<title>Node1&#45;&gt;Node4</title>
<path fill="none" stroke="midnightblue" d="M584.4,-448.78C360.99,-435.78 0,-405.69 0,-347 0,-347 0,-347 0,-177 0,-137.68 24.25,-128.36 60,-112 115.38,-86.66 960.18,-73.03 1293.36,-68.62"/>
<polygon fill="midnightblue" stroke="midnightblue" points="584.42,-452.29 594.6,-449.37 584.82,-445.3 584.42,-452.29"/>
</g>
<!-- Node15 -->
<g id="node15" class="node">
<title>Node15</title>
<g id="a_node15"><a xlink:href="buffer_8h.html" target="_top" xlink:title=" ">
<polygon fill="white" stroke="black" points="1287,-336.5 1287,-355.5 1629,-355.5 1629,-336.5 1287,-336.5"/>
<text text-anchor="middle" x="1458" y="-343.5" font-family="Helvetica,sans-Serif" font-size="10.00">/home/runner/work/gauri/gauri/gauri/include/gauri/renderer/buffer.h</text>
</a>
</g>
</g>
<!-- Node1&#45;&gt;Node15 -->
<g id="edge46" class="edge">
<title>Node1&#45;&gt;Node15</title>
<path fill="none" stroke="midnightblue" d="M821.35,-446.9C958.22,-425.43 1276.07,-375.55 1403.61,-355.53"/>
<polygon fill="midnightblue" stroke="midnightblue" points="820.76,-443.45 811.42,-448.46 821.84,-450.37 820.76,-443.45"/>
</g>
<!-- Node3 -->
<g id="node3" class="node">
<title>Node3</title>
<g id="a_node3"><a xlink:href="input_8h.html" target="_top" xlink:title=" ">
<polygon fill="white" stroke="black" points="111.5,-336.5 111.5,-355.5 430.5,-355.5 430.5,-336.5 111.5,-336.5"/>
<text text-anchor="middle" x="271" y="-343.5" font-family="Helvetica,sans-Serif" font-size="10.00">/home/runner/work/gauri/gauri/gauri/include/gauri/core/input.h</text>
</a>
</g>
</g>
<!-- Node2&#45;&gt;Node3 -->
<g id="edge2" class="edge">
<title>Node2&#45;&gt;Node3</title>
<path fill="none" stroke="midnightblue" d="M670.17,-391.35C578.51,-381.17 435.4,-365.27 347.74,-355.53"/>
<polygon fill="midnightblue" stroke="midnightblue" points="669.93,-394.85 680.26,-392.47 670.71,-387.89 669.93,-394.85"/>
</g>
<!-- Node7 -->
<g id="node7" class="node">
<title>Node7</title>
<g id="a_node7"><a xlink:href="layer_8h.html" target="_top" xlink:title=" ">
<polygon fill="white" stroke="black" points="199,-224.5 199,-243.5 517,-243.5 517,-224.5 199,-224.5"/>
<text text-anchor="middle" x="358" y="-231.5" font-family="Helvetica,sans-Serif" font-size="10.00">/home/runner/work/gauri/gauri/gauri/include/gauri/core/layer.h</text>
</a>
</g>
</g>
<!-- Node2&#45;&gt;Node7 -->
<g id="edge6" class="edge">
<title>Node2&#45;&gt;Node7</title>
<path fill="none" stroke="midnightblue" d="M671.89,-391.12C617.79,-383.51 553.78,-371.65 531,-356 498.07,-333.38 514.15,-305.01 483,-280 459.89,-261.44 428.48,-250.18 402.94,-243.56"/>
<polygon fill="midnightblue" stroke="midnightblue" points="671.49,-394.6 681.87,-392.49 672.44,-387.66 671.49,-394.6"/>
</g>
<!-- Node8 -->
<g id="node8" class="node">
<title>Node8</title>
<g id="a_node8"><a xlink:href="layer__stack_8h.html" target="_top" xlink:title=" ">
<polygon fill="white" stroke="black" points="480,-168.5 480,-187.5 830,-187.5 830,-168.5 480,-168.5"/>
<text text-anchor="middle" x="655" y="-175.5" font-family="Helvetica,sans-Serif" font-size="10.00">/home/runner/work/gauri/gauri/gauri/include/gauri/core/layer_stack.h</text>
</a>
</g>
</g>
<!-- Node2&#45;&gt;Node8 -->
<g id="edge14" class="edge">
<title>Node2&#45;&gt;Node8</title>
<path fill="none" stroke="midnightblue" d="M713.47,-389.4C671.65,-375.67 610.83,-348.34 583,-300 574.34,-284.96 578.42,-244.52 591,-224 601.29,-207.21 620.46,-195 635.14,-187.57"/>
<polygon fill="midnightblue" stroke="midnightblue" points="712.55,-392.78 723.14,-392.44 714.65,-386.1 712.55,-392.78"/>
</g>
<!-- Node11 -->
<g id="node11" class="node">
<title>Node11</title>
<g id="a_node11"><a xlink:href="event_8h.html" target="_top" xlink:title=" ">
<polygon fill="white" stroke="black" points="592.5,-280.5 592.5,-299.5 921.5,-299.5 921.5,-280.5 592.5,-280.5"/>
<text text-anchor="middle" x="757" y="-287.5" font-family="Helvetica,sans-Serif" font-size="10.00">/home/runner/work/gauri/gauri/gauri/include/gauri/event/event.h</text>
</a>
</g>
</g>
<!-- Node2&#45;&gt;Node11 -->
<g id="edge15" class="edge">
<title>Node2&#45;&gt;Node11</title>
<path fill="none" stroke="midnightblue" d="M757,-382.35C757,-358.25 757,-317.31 757,-299.59"/>
<polygon fill="midnightblue" stroke="midnightblue" points="753.5,-382.37 757,-392.37 760.5,-382.37 753.5,-382.37"/>
</g>
<!-- Node2&#45;&gt;Node15 -->
<g id="edge23" class="edge">
<title>Node2&#45;&gt;Node15</title>
<path fill="none" stroke="midnightblue" d="M877.85,-391.69C1009.95,-381.51 1219.79,-365.35 1347.6,-355.5"/>
<polygon fill="midnightblue" stroke="midnightblue" points="877.39,-388.22 867.69,-392.47 877.93,-395.19 877.39,-388.22"/>
</g>
<!-- Node23 -->
<g id="node23" class="node">
<title>Node23</title>
<g id="a_node23"><a xlink:href="shader_8h.html" target="_top" xlink:title=" ">
<polygon fill="white" stroke="black" points="2409.5,-168.5 2409.5,-187.5 2756.5,-187.5 2756.5,-168.5 2409.5,-168.5"/>
<text text-anchor="middle" x="2583" y="-175.5" font-family="Helvetica,sans-Serif" font-size="10.00">/home/runner/work/gauri/gauri/gauri/include/gauri/renderer/shader.h</text>
</a>
</g>
</g>
<!-- Node2&#45;&gt;Node23 -->
<g id="edge37" class="edge">
<title>Node2&#45;&gt;Node23</title>
<path fill="none" stroke="midnightblue" d="M924.75,-396.83C1264.76,-387.25 2024.26,-359.71 2277,-300 2392.09,-272.81 2521.13,-210.48 2566.31,-187.61"/>
<polygon fill="midnightblue" stroke="midnightblue" points="924.47,-393.34 914.57,-397.12 924.67,-400.34 924.47,-393.34"/>
</g>
<!-- Node25 -->
<g id="node25" class="node">
<title>Node25</title>
<g id="a_node25"><a xlink:href="texture_8h.html" target="_top" xlink:title=" ">
<polygon fill="white" stroke="black" points="2775,-168.5 2775,-187.5 3125,-187.5 3125,-168.5 2775,-168.5"/>
<text text-anchor="middle" x="2950" y="-175.5" font-family="Helvetica,sans-Serif" font-size="10.00">/home/runner/work/gauri/gauri/gauri/include/gauri/renderer/texture.h</text>
</a>
</g>
</g>
<!-- Node2&#45;&gt;Node25 -->
<g id="edge41" class="edge">
<title>Node2&#45;&gt;Node25</title>
<path fill="none" stroke="midnightblue" d="M924.79,-400.31C1154.9,-398.07 1581.1,-389.29 1943,-356 2113.87,-340.28 2155.83,-328.76 2325,-300 2546.19,-262.4 2809.58,-208.35 2909.17,-187.58"/>
<polygon fill="midnightblue" stroke="midnightblue" points="924.63,-396.81 914.66,-400.41 924.69,-403.81 924.63,-396.81"/>
</g>
<!-- Node3&#45;&gt;Node4 -->
<g id="edge3" class="edge">
<title>Node3&#45;&gt;Node4</title>
<path fill="none" stroke="midnightblue" d="M181.53,-335.05C132.17,-327.86 77.27,-316.47 59,-300 36.45,-279.67 38,-265.36 38,-235 38,-235 38,-235 38,-177 38,-107.19 113.05,-128.01 181,-112 286.81,-87.07 993.73,-73.56 1293.28,-68.89"/>
<polygon fill="midnightblue" stroke="midnightblue" points="181.24,-338.55 191.63,-336.48 182.22,-331.62 181.24,-338.55"/>
</g>
<!-- Node6 -->
<g id="node6" class="node">
<title>Node6</title>
<g id="a_node6"><a xlink:href="windows__input_8h.html" target="_top" xlink:title=" ">
<polygon fill="white" stroke="black" points="68,-280.5 68,-299.5 474,-299.5 474,-280.5 68,-280.5"/>
<text text-anchor="middle" x="271" y="-287.5" font-family="Helvetica,sans-Serif" font-size="10.00">/home/runner/work/gauri/gauri/gauri/include/platform/windows/windows_input.h</text>
</a>
</g>
</g>
<!-- Node3&#45;&gt;Node6 -->
<g id="edge5" class="edge">
<title>Node3&#45;&gt;Node6</title>
<path fill="none" stroke="midnightblue" d="M271,-325.8C271,-316.91 271,-306.78 271,-299.75"/>
<polygon fill="midnightblue" stroke="midnightblue" points="267.5,-326.08 271,-336.08 274.5,-326.08 267.5,-326.08"/>
</g>
<!-- Node5 -->
<g id="node5" class="node">
<title>Node5</title>
<g id="a_node5"><a xlink:href="entry__point_8h.html" target="_top" xlink:title=" ">
<polygon fill="white" stroke="black" points="1252,-0.5 1252,-19.5 1602,-19.5 1602,-0.5 1252,-0.5"/>
<text text-anchor="middle" x="1427" y="-7.5" font-family="Helvetica,sans-Serif" font-size="10.00">/home/runner/work/gauri/gauri/gauri/include/gauri/core/entry_point.h</text>
</a>
</g>
</g>
<!-- Node4&#45;&gt;Node5 -->
<g id="edge4" class="edge">
<title>Node4&#45;&gt;Node5</title>
<path fill="none" stroke="midnightblue" d="M1427,-45.8C1427,-36.91 1427,-26.78 1427,-19.75"/>
<polygon fill="midnightblue" stroke="midnightblue" points="1423.5,-46.08 1427,-56.08 1430.5,-46.08 1423.5,-46.08"/>
</g>
<!-- Node7&#45;&gt;Node4 -->
<g id="edge13" class="edge">
<title>Node7&#45;&gt;Node4</title>
<path fill="none" stroke="midnightblue" d="M202.49,-223.21C154.44,-216.72 110.12,-205.93 95,-188 89.27,-181.21 89.13,-174.67 95,-168 173.05,-79.28 971.1,-67.81 1293.24,-66.82"/>
<polygon fill="midnightblue" stroke="midnightblue" points="202.1,-226.68 212.46,-224.49 202.99,-219.74 202.1,-226.68"/>
</g>
<!-- Node7&#45;&gt;Node8 -->
<g id="edge7" class="edge">
<title>Node7&#45;&gt;Node8</title>
<path fill="none" stroke="midnightblue" d="M415.2,-222.6C471.33,-212.4 555.9,-197.02 608.16,-187.52"/>
<polygon fill="midnightblue" stroke="midnightblue" points="414.27,-219.21 405.06,-224.44 415.53,-226.1 414.27,-219.21"/>
</g>
<!-- Node10 -->
<g id="node10" class="node">
<title>Node10</title>
<g id="a_node10"><a xlink:href="imgui__layer_8h.html" target="_top" xlink:title=" ">
<polygon fill="white" stroke="black" points="104,-168.5 104,-187.5 462,-187.5 462,-168.5 104,-168.5"/>
<text text-anchor="middle" x="283" y="-175.5" font-family="Helvetica,sans-Serif" font-size="10.00">/home/runner/work/gauri/gauri/gauri/include/gauri/imgui/imgui_layer.h</text>
</a>
</g>
</g>
<!-- Node7&#45;&gt;Node10 -->
<g id="edge10" class="edge">
<title>Node7&#45;&gt;Node10</title>
<path fill="none" stroke="midnightblue" d="M337.69,-218.38C324.14,-208.62 306.76,-196.11 295.27,-187.83"/>
<polygon fill="midnightblue" stroke="midnightblue" points="335.79,-221.32 345.95,-224.32 339.88,-215.64 335.79,-221.32"/>
</g>
<!-- Node9 -->
<g id="node9" class="node">
<title>Node9</title>
<g id="a_node9"><a xlink:href="application_8h.html" target="_top" xlink:title=" ">
<polygon fill="white" stroke="black" points="684,-112.5 684,-131.5 1032,-131.5 1032,-112.5 684,-112.5"/>
<text text-anchor="middle" x="858" y="-119.5" font-family="Helvetica,sans-Serif" font-size="10.00">/home/runner/work/gauri/gauri/gauri/include/gauri/core/application.h</text>
</a>
</g>
</g>
<!-- Node8&#45;&gt;Node9 -->
<g id="edge8" class="edge">
<title>Node8&#45;&gt;Node9</title>
<path fill="none" stroke="midnightblue" d="M696.99,-165.83C735.32,-155.63 791.15,-140.78 825.98,-131.52"/>
<polygon fill="midnightblue" stroke="midnightblue" points="695.93,-162.49 687.17,-168.44 697.73,-169.26 695.93,-162.49"/>
</g>
<!-- Node9&#45;&gt;Node4 -->
<g id="edge9" class="edge">
<title>Node9&#45;&gt;Node4</title>
<path fill="none" stroke="midnightblue" d="M958.03,-111.51C1065.28,-101.33 1234.01,-85.32 1337.16,-75.53"/>
<polygon fill="midnightblue" stroke="midnightblue" points="957.47,-108.04 947.85,-112.47 958.13,-115.01 957.47,-108.04"/>
</g>
<!-- Node10&#45;&gt;Node4 -->
<g id="edge12" class="edge">
<title>Node10&#45;&gt;Node4</title>
<path fill="none" stroke="midnightblue" d="M335.56,-166.49C410.55,-151.9 552.73,-125.76 675,-112 890.59,-87.74 1142.51,-76.03 1293.18,-70.79"/>
<polygon fill="midnightblue" stroke="midnightblue" points="334.57,-163.11 325.43,-168.47 335.92,-169.98 334.57,-163.11"/>
</g>
<!-- Node10&#45;&gt;Node9 -->
<g id="edge11" class="edge">
<title>Node10&#45;&gt;Node9</title>
<path fill="none" stroke="midnightblue" d="M383.76,-167.54C492.12,-157.36 662.87,-141.33 767.21,-131.53"/>
<polygon fill="midnightblue" stroke="midnightblue" points="383.42,-164.05 373.79,-168.47 384.08,-171.02 383.42,-164.05"/>
</g>
<!-- Node11&#45;&gt;Node7 -->
<g id="edge17" class="edge">
<title>Node11&#45;&gt;Node7</title>
<path fill="none" stroke="midnightblue" d="M683.42,-279.04C608.06,-268.84 492.16,-253.16 420.93,-243.52"/>
<polygon fill="midnightblue" stroke="midnightblue" points="683.4,-282.57 693.78,-280.44 684.34,-275.63 683.4,-282.57"/>
</g>
<!-- Node11&#45;&gt;Node9 -->
<g id="edge16" class="edge">
<title>Node11&#45;&gt;Node9</title>
<path fill="none" stroke="midnightblue" d="M665.82,-278.65C619.1,-269.66 576.83,-253.28 602,-224 671.45,-143.2 758.8,-258.14 839,-188 855.46,-173.6 858.03,-145.81 858.21,-131.69"/>
<polygon fill="midnightblue" stroke="midnightblue" points="665.37,-282.13 675.83,-280.46 666.61,-275.24 665.37,-282.13"/>
</g>
<!-- Node12 -->
<g id="node12" class="node">
<title>Node12</title>
<g id="a_node12"><a xlink:href="window_8h.html" target="_top" xlink:title=" ">
<polygon fill="white" stroke="black" points="611.5,-224.5 611.5,-243.5 942.5,-243.5 942.5,-224.5 611.5,-224.5"/>
<text text-anchor="middle" x="777" y="-231.5" font-family="Helvetica,sans-Serif" font-size="10.00">/home/runner/work/gauri/gauri/gauri/include/gauri/core/window.h</text>
</a>
</g>
</g>
<!-- Node11&#45;&gt;Node12 -->
<g id="edge18" class="edge">
<title>Node11&#45;&gt;Node12</title>
<path fill="none" stroke="midnightblue" d="M763.78,-270.69C767.15,-261.59 771.07,-251.01 773.76,-243.75"/>
<polygon fill="midnightblue" stroke="midnightblue" points="760.49,-269.49 760.3,-280.08 767.06,-271.92 760.49,-269.49"/>
</g>
<!-- Node14 -->
<g id="node14" class="node">
<title>Node14</title>
<g id="a_node14"><a xlink:href="orthographic__camera__controller_8h.html" target="_top" xlink:title=" ">
<polygon fill="white" stroke="black" points="960.5,-224.5 960.5,-243.5 1429.5,-243.5 1429.5,-224.5 960.5,-224.5"/>
<text text-anchor="middle" x="1195" y="-231.5" font-family="Helvetica,sans-Serif" font-size="10.00">/home/runner/work/gauri/gauri/gauri/include/gauri/renderer/orthographic_camera_controller.h</text>
</a>
</g>
</g>
<!-- Node11&#45;&gt;Node14 -->
<g id="edge21" class="edge">
<title>Node11&#45;&gt;Node14</title>
<path fill="none" stroke="midnightblue" d="M836.5,-279.2C919.19,-269 1047.33,-253.21 1125.92,-243.52"/>
<polygon fill="midnightblue" stroke="midnightblue" points="835.9,-275.75 826.4,-280.44 836.76,-282.69 835.9,-275.75"/>
</g>
<!-- Node12&#45;&gt;Node9 -->
<g id="edge19" class="edge">
<title>Node12&#45;&gt;Node9</title>
<path fill="none" stroke="midnightblue" d="M827.5,-221C844.63,-214.26 861.95,-203.87 872,-188 883.23,-170.25 871.42,-144.88 863.65,-131.7"/>
<polygon fill="midnightblue" stroke="midnightblue" points="826.29,-217.72 818.05,-224.38 828.65,-224.31 826.29,-217.72"/>
</g>
<!-- Node13 -->
<g id="node13" class="node">
<title>Node13</title>
<g id="a_node13"><a xlink:href="windows__window_8h.html" target="_top" xlink:title=" ">
<polygon fill="white" stroke="black" points="924,-168.5 924,-187.5 1342,-187.5 1342,-168.5 924,-168.5"/>
<text text-anchor="middle" x="1133" y="-175.5" font-family="Helvetica,sans-Serif" font-size="10.00">/home/runner/work/gauri/gauri/gauri/include/platform/windows/windows_window.h</text>
</a>
</g>
</g>
<!-- Node12&#45;&gt;Node13 -->
<g id="edge20" class="edge">
<title>Node12&#45;&gt;Node13</title>
<path fill="none" stroke="midnightblue" d="M843.48,-222.92C910.73,-212.71 1013.56,-197.12 1076.85,-187.52"/>
<polygon fill="midnightblue" stroke="midnightblue" points="842.77,-219.48 833.41,-224.44 843.82,-226.4 842.77,-219.48"/>
</g>
<!-- Node14&#45;&gt;Node4 -->
<g id="edge22" class="edge">
<title>Node14&#45;&gt;Node4</title>
<path fill="none" stroke="midnightblue" d="M1275.87,-222.11C1301.89,-215.53 1329.52,-204.96 1351,-188 1381.46,-163.95 1372.93,-144.59 1394,-112 1402.41,-98.98 1413.2,-84.66 1420.11,-75.75"/>
<polygon fill="midnightblue" stroke="midnightblue" points="1274.92,-218.74 1265.99,-224.45 1276.53,-225.56 1274.92,-218.74"/>
</g>
<!-- Node15&#45;&gt;Node4 -->
<g id="edge35" class="edge">
<title>Node15&#45;&gt;Node4</title>
<path fill="none" stroke="midnightblue" d="M1455.85,-326.2C1451.61,-289.08 1441.91,-203.76 1434,-132 1431.79,-111.92 1429.27,-88.34 1427.94,-75.83"/>
<polygon fill="midnightblue" stroke="midnightblue" points="1452.41,-326.94 1457.02,-336.48 1459.37,-326.15 1452.41,-326.94"/>
</g>
<!-- Node16 -->
<g id="node16" class="node">
<title>Node16</title>
<g id="a_node16"><a xlink:href="vertex__array_8h.html" target="_top" xlink:title=" ">
<polygon fill="white" stroke="black" points="1486.5,-280.5 1486.5,-299.5 1861.5,-299.5 1861.5,-280.5 1486.5,-280.5"/>
<text text-anchor="middle" x="1674" y="-287.5" font-family="Helvetica,sans-Serif" font-size="10.00">/home/runner/work/gauri/gauri/gauri/include/gauri/renderer/vertex_array.h</text>
</a>
</g>
</g>
<!-- Node15&#45;&gt;Node16 -->
<g id="edge24" class="edge">
<title>Node15&#45;&gt;Node16</title>
<path fill="none" stroke="midnightblue" d="M1502.16,-333.96C1542.96,-323.76 1602.71,-308.82 1639.93,-299.52"/>
<polygon fill="midnightblue" stroke="midnightblue" points="1501.08,-330.62 1492.23,-336.44 1502.78,-337.41 1501.08,-330.62"/>
</g>
<!-- Node22 -->
<g id="node22" class="node">
<title>Node22</title>
<g id="a_node22"><a xlink:href="opengl__buffer_8h.html" target="_top" xlink:title=" ">
<polygon fill="white" stroke="black" points="1879.5,-280.5 1879.5,-299.5 2268.5,-299.5 2268.5,-280.5 1879.5,-280.5"/>
<text text-anchor="middle" x="2074" y="-287.5" font-family="Helvetica,sans-Serif" font-size="10.00">/home/runner/work/gauri/gauri/gauri/include/platform/opengl/opengl_buffer.h</text>
</a>
</g>
</g>
<!-- Node15&#45;&gt;Node22 -->
<g id="edge36" class="edge">
<title>Node15&#45;&gt;Node22</title>
<path fill="none" stroke="midnightblue" d="M1565.25,-335.6C1681.39,-325.42 1865.01,-309.32 1976.99,-299.5"/>
<polygon fill="midnightblue" stroke="midnightblue" points="1564.92,-332.11 1555.27,-336.47 1565.53,-339.09 1564.92,-332.11"/>
</g>
<!-- Node16&#45;&gt;Node4 -->
<g id="edge33" class="edge">
<title>Node16&#45;&gt;Node4</title>
<path fill="none" stroke="midnightblue" d="M1592.25,-278.1C1565.65,-271.51 1537.27,-260.95 1515,-244 1456.28,-199.32 1434.12,-104.84 1428.53,-75.73"/>
<polygon fill="midnightblue" stroke="midnightblue" points="1591.81,-281.59 1602.35,-280.43 1593.39,-274.77 1591.81,-281.59"/>
</g>
<!-- Node17 -->
<g id="node17" class="node">
<title>Node17</title>
<g id="a_node17"><a xlink:href="renderer__api_8h.html" target="_top" xlink:title=" ">
<polygon fill="white" stroke="black" points="1524,-224.5 1524,-243.5 1900,-243.5 1900,-224.5 1524,-224.5"/>
<text text-anchor="middle" x="1712" y="-231.5" font-family="Helvetica,sans-Serif" font-size="10.00">/home/runner/work/gauri/gauri/gauri/include/gauri/renderer/renderer_api.h</text>
</a>
</g>
</g>
<!-- Node16&#45;&gt;Node17 -->
<g id="edge25" class="edge">
<title>Node16&#45;&gt;Node17</title>
<path fill="none" stroke="midnightblue" d="M1686.06,-271.86C1692.64,-262.5 1700.51,-251.33 1705.84,-243.75"/>
<polygon fill="midnightblue" stroke="midnightblue" points="1683.17,-269.89 1680.27,-280.08 1688.89,-273.92 1683.17,-269.89"/>
</g>
<!-- Node21 -->
<g id="node21" class="node">
<title>Node21</title>
<g id="a_node21"><a xlink:href="opengl__vertex__array_8h.html" target="_top" xlink:title=" ">
<polygon fill="white" stroke="black" points="1918,-224.5 1918,-243.5 2340,-243.5 2340,-224.5 1918,-224.5"/>
<text text-anchor="middle" x="2129" y="-231.5" font-family="Helvetica,sans-Serif" font-size="10.00">/home/runner/work/gauri/gauri/gauri/include/platform/opengl/opengl_vertex_array.h</text>
</a>
</g>
</g>
<!-- Node16&#45;&gt;Node21 -->
<g id="edge34" class="edge">
<title>Node16&#45;&gt;Node21</title>
<path fill="none" stroke="midnightblue" d="M1755.81,-279.29C1841.65,-269.1 1975.26,-253.25 2057.16,-243.53"/>
<polygon fill="midnightblue" stroke="midnightblue" points="1755.36,-275.82 1745.85,-280.47 1756.19,-282.77 1755.36,-275.82"/>
</g>
<!-- Node17&#45;&gt;Node4 -->
<g id="edge31" class="edge">
<title>Node17&#45;&gt;Node4</title>
<path fill="none" stroke="midnightblue" d="M1580.22,-222.12C1552.84,-215.25 1525.5,-204.55 1503,-188 1471.73,-165.01 1481.07,-144.59 1460,-112 1451.59,-98.98 1440.8,-84.66 1433.89,-75.75"/>
<polygon fill="midnightblue" stroke="midnightblue" points="1579.77,-225.61 1590.3,-224.49 1581.36,-218.8 1579.77,-225.61"/>
</g>
<!-- Node18 -->
<g id="node18" class="node">
<title>Node18</title>
<g id="a_node18"><a xlink:href="render__command_8h.html" target="_top" xlink:title=" ">
<polygon fill="white" stroke="black" points="1512,-168.5 1512,-187.5 1912,-187.5 1912,-168.5 1512,-168.5"/>
<text text-anchor="middle" x="1712" y="-175.5" font-family="Helvetica,sans-Serif" font-size="10.00">/home/runner/work/gauri/gauri/gauri/include/gauri/renderer/render_command.h</text>
</a>
</g>
</g>
<!-- Node17&#45;&gt;Node18 -->
<g id="edge26" class="edge">
<title>Node17&#45;&gt;Node18</title>
<path fill="none" stroke="midnightblue" d="M1712,-213.8C1712,-204.91 1712,-194.78 1712,-187.75"/>
<polygon fill="midnightblue" stroke="midnightblue" points="1708.5,-214.08 1712,-224.08 1715.5,-214.08 1708.5,-214.08"/>
</g>
<!-- Node19 -->
<g id="node19" class="node">
<title>Node19</title>
<g id="a_node19"><a xlink:href="renderer_8h.html" target="_top" xlink:title=" ">
<polygon fill="white" stroke="black" points="1703.5,-112.5 1703.5,-131.5 2058.5,-131.5 2058.5,-112.5 1703.5,-112.5"/>
<text text-anchor="middle" x="1881" y="-119.5" font-family="Helvetica,sans-Serif" font-size="10.00">/home/runner/work/gauri/gauri/gauri/include/gauri/renderer/renderer.h</text>
</a>
</g>
</g>
<!-- Node17&#45;&gt;Node19 -->
<g id="edge30" class="edge">
<title>Node17&#45;&gt;Node19</title>
<path fill="none" stroke="midnightblue" d="M1814.5,-223.05C1860.25,-216.29 1907.01,-205.32 1921,-188 1936.07,-169.34 1909.83,-144.57 1893.17,-131.66"/>
<polygon fill="midnightblue" stroke="midnightblue" points="1813.86,-219.61 1804.45,-224.48 1814.85,-226.54 1813.86,-219.61"/>
</g>
<!-- Node20 -->
<g id="node20" class="node">
<title>Node20</title>
<g id="a_node20"><a xlink:href="opengl__renderer__api_8h.html" target="_top" xlink:title=" ">
<polygon fill="white" stroke="black" points="1968.5,-168.5 1968.5,-187.5 2391.5,-187.5 2391.5,-168.5 1968.5,-168.5"/>
<text text-anchor="middle" x="2180" y="-175.5" font-family="Helvetica,sans-Serif" font-size="10.00">/home/runner/work/gauri/gauri/gauri/include/platform/opengl/opengl_renderer_api.h</text>
</a>
</g>
</g>
<!-- Node17&#45;&gt;Node20 -->
<g id="edge32" class="edge">
<title>Node17&#45;&gt;Node20</title>
<path fill="none" stroke="midnightblue" d="M1795.88,-223.32C1884.16,-213.14 2021.78,-197.26 2106.1,-187.53"/>
<polygon fill="midnightblue" stroke="midnightblue" points="1795.43,-219.85 1785.9,-224.47 1796.23,-226.8 1795.43,-219.85"/>
</g>
<!-- Node18&#45;&gt;Node4 -->
<g id="edge29" class="edge">
<title>Node18&#45;&gt;Node4</title>
<path fill="none" stroke="midnightblue" d="M1680.2,-164.73C1621.95,-142.25 1499.52,-94.99 1449.26,-75.59"/>
<polygon fill="midnightblue" stroke="midnightblue" points="1679.05,-168.03 1689.64,-168.37 1681.57,-161.5 1679.05,-168.03"/>
</g>
<!-- Node18&#45;&gt;Node19 -->
<g id="edge27" class="edge">
<title>Node18&#45;&gt;Node19</title>
<path fill="none" stroke="midnightblue" d="M1748.6,-165.3C1780.45,-155.13 1825.84,-140.62 1854.35,-131.52"/>
<polygon fill="midnightblue" stroke="midnightblue" points="1747.24,-162.07 1738.78,-168.44 1749.37,-168.73 1747.24,-162.07"/>
</g>
<!-- Node19&#45;&gt;Node4 -->
<g id="edge28" class="edge">
<title>Node19&#45;&gt;Node4</title>
<path fill="none" stroke="midnightblue" d="M1799.37,-111.29C1713.72,-101.1 1580.41,-85.25 1498.69,-75.53"/>
<polygon fill="midnightblue" stroke="midnightblue" points="1798.97,-114.77 1809.31,-112.47 1799.8,-107.82 1798.97,-114.77"/>
</g>
<!-- Node23&#45;&gt;Node4 -->
<g id="edge39" class="edge">
<title>Node23&#45;&gt;Node4</title>
<path fill="none" stroke="midnightblue" d="M2513.76,-167.05C2414.85,-153.11 2227.34,-127.72 2067,-112 1892.41,-94.88 1690.4,-81.79 1560.79,-74.26"/>
<polygon fill="midnightblue" stroke="midnightblue" points="2513.53,-170.55 2523.92,-168.48 2514.51,-163.62 2513.53,-170.55"/>
</g>
<!-- Node23&#45;&gt;Node19 -->
<g id="edge38" class="edge">
<title>Node23&#45;&gt;Node19</title>
<path fill="none" stroke="midnightblue" d="M2461.98,-167.69C2329.69,-157.51 2119.55,-141.35 1991.55,-131.5"/>
<polygon fill="midnightblue" stroke="midnightblue" points="2461.91,-171.2 2472.15,-168.47 2462.45,-164.22 2461.91,-171.2"/>
</g>
<!-- Node24 -->
<g id="node24" class="node">
<title>Node24</title>
<g id="a_node24"><a xlink:href="opengl__shader_8h.html" target="_top" xlink:title=" ">
<polygon fill="white" stroke="black" points="2263,-112.5 2263,-131.5 2657,-131.5 2657,-112.5 2263,-112.5"/>
<text text-anchor="middle" x="2460" y="-119.5" font-family="Helvetica,sans-Serif" font-size="10.00">/home/runner/work/gauri/gauri/gauri/include/platform/opengl/opengl_shader.h</text>
</a>
</g>
</g>
<!-- Node23&#45;&gt;Node24 -->
<g id="edge40" class="edge">
<title>Node23&#45;&gt;Node24</title>
<path fill="none" stroke="midnightblue" d="M2554.23,-164.37C2531.19,-154.26 2499.52,-140.35 2479.4,-131.52"/>
<polygon fill="midnightblue" stroke="midnightblue" points="2552.95,-167.63 2563.51,-168.44 2555.76,-161.22 2552.95,-167.63"/>
</g>
<!-- Node25&#45;&gt;Node4 -->
<g id="edge44" class="edge">
<title>Node25&#45;&gt;Node4</title>
<path fill="none" stroke="midnightblue" d="M2858.75,-167.03C2811.66,-160.21 2753.8,-149.21 2704,-132 2685.96,-125.77 2684.44,-116.91 2666,-112 2561.62,-84.19 1859.04,-72.32 1560.64,-68.5"/>
<polygon fill="midnightblue" stroke="midnightblue" points="2858.54,-170.53 2868.93,-168.46 2859.52,-163.6 2858.54,-170.53"/>
</g>
<!-- Node26 -->
<g id="node26" class="node">
<title>Node26</title>
<g id="a_node26"><a xlink:href="renderer__2d_8h.html" target="_top" xlink:title=" ">
<polygon fill="white" stroke="black" points="2713.5,-112.5 2713.5,-131.5 3086.5,-131.5 3086.5,-112.5 2713.5,-112.5"/>
<text text-anchor="middle" x="2900" y="-119.5" font-family="Helvetica,sans-Serif" font-size="10.00">/home/runner/work/gauri/gauri/gauri/include/gauri/renderer/renderer_2d.h</text>
</a>
</g>
</g>
<!-- Node25&#45;&gt;Node26 -->
<g id="edge42" class="edge">
<title>Node25&#45;&gt;Node26</title>
<path fill="none" stroke="midnightblue" d="M2934.92,-160.72C2926.11,-151.2 2915.33,-139.56 2908.1,-131.75"/>
<polygon fill="midnightblue" stroke="midnightblue" points="2932.38,-163.12 2941.74,-168.08 2937.52,-158.37 2932.38,-163.12"/>
</g>
<!-- Node27 -->
<g id="node27" class="node">
<title>Node27</title>
<g id="a_node27"><a xlink:href="opengl__texture_8h.html" target="_top" xlink:title=" ">
<polygon fill="white" stroke="black" points="3104.5,-112.5 3104.5,-131.5 3501.5,-131.5 3501.5,-112.5 3104.5,-112.5"/>
<text text-anchor="middle" x="3303" y="-119.5" font-family="Helvetica,sans-Serif" font-size="10.00">/home/runner/work/gauri/gauri/gauri/include/platform/opengl/opengl_texture.h</text>
</a>
</g>
</g>
<!-- Node25&#45;&gt;Node27 -->
<g id="edge45" class="edge">
<title>Node25&#45;&gt;Node27</title>
<path fill="none" stroke="midnightblue" d="M3015.92,-166.92C3082.6,-156.71 3184.57,-141.12 3247.33,-131.52"/>
<polygon fill="midnightblue" stroke="midnightblue" points="3015.29,-163.47 3005.93,-168.44 3016.35,-170.39 3015.29,-163.47"/>
</g>
<!-- Node26&#45;&gt;Node4 -->
<g id="edge43" class="edge">
<title>Node26&#45;&gt;Node4</title>
<path fill="none" stroke="midnightblue" d="M2702.99,-112.16C2701.66,-112.11 2700.33,-112.05 2699,-112 2283.91,-95.36 1792.48,-78.89 1560.7,-71.32"/>
<polygon fill="midnightblue" stroke="midnightblue" points="2703.17,-115.67 2713.3,-112.58 2703.45,-108.68 2703.17,-115.67"/>
</g>
</g>
</svg>
