<?xml version="1.0" encoding="UTF-8" standalone="no"?>
<!DOCTYPE svg PUBLIC "-//W3C//DTD SVG 1.1//EN"
 "http://www.w3.org/Graphics/SVG/1.1/DTD/svg11.dtd">
<!-- Generated by graphviz version 2.43.0 (0)
 -->
<!-- Title: /home/runner/work/gauri/gauri/gauri/include/gauri/logger.h Pages: 1 -->
<!--zoomable 476 -->
<svg id="main" version="1.1" xmlns="http://www.w3.org/2000/svg" xmlns:xlink="http://www.w3.org/1999/xlink" xml:space="preserve" onload="init(evt)">
<style type="text/css"><![CDATA[
.edge:hover path { stroke: red; }
.edge:hover polygon { stroke: red; fill: red; }
]]></style>
<script type="text/javascript"><![CDATA[
var edges = document.getElementsByTagName('g');
if (edges && edges.length) {
  for (var i=0;i<edges.length;i++) {
    if (edges[i].id.substr(0,4)=='edge') {
      edges[i].setAttribute('class','edge');
    }
  }
}
]]></script>
        <defs>
                <circle id="rim" cx="0" cy="0" r="7"/>
                <circle id="rim2" cx="0" cy="0" r="3.5"/>
                <g id="zoomPlus">
                        <use xlink:href="#rim" fill="#404040">
                                <set attributeName="fill" to="#808080" begin="zoomplus.mouseover" end="zoomplus.mouseout"/>
                        </use>
                        <path d="M-4,0h8M0,-4v8" fill="none" stroke="white" stroke-width="1.5" pointer-events="none"/>
                </g>
                <g id="zoomMin">
                        <use xlink:href="#rim" fill="#404040">
                                <set attributeName="fill" to="#808080" begin="zoomminus.mouseover" end="zoomminus.mouseout"/>
                        </use>
                        <path d="M-4,0h8" fill="none" stroke="white" stroke-width="1.5" pointer-events="none"/>
                </g>
                <g id="dirArrow">
                        <path fill="none" stroke="white" stroke-width="1.5" d="M0,-3.0v7 M-2.5,-0.5L0,-3.0L2.5,-0.5"/>
                </g>
               <g id="resetDef">
                       <use xlink:href="#rim2" fill="#404040">
                               <set attributeName="fill" to="#808080" begin="reset.mouseover" end="reset.mouseout"/>
                       </use>
               </g>
        </defs>

<script type="text/javascript">
var viewWidth = 3114;
var viewHeight = 476;
var sectionId = 'dynsection-1';
</script>
<script xlink:href="svgpan.js"/>
<svg id="graph" class="graph">
<g id="viewport">
<title>/home/runner/work/gauri/gauri/gauri/include/gauri/logger.h</title>
<polygon fill="white" stroke="transparent" points="-4,4 -4,-472 3109.5,-472 3109.5,4 -4,4"/>
<!-- Node1 -->
<g id="node1" class="node">
<title>Node1</title>
<g id="a_node1"><a xlink:title=" ">
<polygon fill="#bfbfbf" stroke="black" points="1950.5,-448.5 1950.5,-467.5 2250.5,-467.5 2250.5,-448.5 1950.5,-448.5"/>
<text text-anchor="middle" x="2100.5" y="-455.5" font-family="Helvetica,sans-Serif" font-size="10.00">/home/runner/work/gauri/gauri/gauri/include/gauri/logger.h</text>
</a>
</g>
</g>
<!-- Node2 -->
<g id="node2" class="node">
<title>Node2</title>
<g id="a_node2"><a xlink:href="core_8h.html" target="_top" xlink:title=" ">
<polygon fill="white" stroke="black" points="1168,-392.5 1168,-411.5 1459,-411.5 1459,-392.5 1168,-392.5"/>
<text text-anchor="middle" x="1313.5" y="-399.5" font-family="Helvetica,sans-Serif" font-size="10.00">/home/runner/work/gauri/gauri/gauri/include/gauri/core.h</text>
</a>
</g>
</g>
<!-- Node1&#45;&gt;Node2 -->
<g id="edge1" class="edge">
<title>Node1&#45;&gt;Node2</title>
<path fill="none" stroke="midnightblue" d="M1966.16,-447.78C1817.93,-437.61 1581.37,-421.38 1437.44,-411.5"/>
<polygon fill="midnightblue" stroke="midnightblue" points="1966.02,-451.28 1976.23,-448.47 1966.49,-444.3 1966.02,-451.28"/>
</g>
<!-- Node5 -->
<g id="node5" class="node">
<title>Node5</title>
<g id="a_node5"><a xlink:href="gauri_8h.html" target="_top" xlink:title=" ">
<polygon fill="white" stroke="black" points="1720,-56.5 1720,-75.5 1987,-75.5 1987,-56.5 1720,-56.5"/>
<text text-anchor="middle" x="1853.5" y="-63.5" font-family="Helvetica,sans-Serif" font-size="10.00">/home/runner/work/gauri/gauri/gauri/include/gauri.h</text>
</a>
</g>
</g>
<!-- Node1&#45;&gt;Node5 -->
<g id="edge46" class="edge">
<title>Node1&#45;&gt;Node5</title>
<path fill="none" stroke="midnightblue" d="M2261.08,-455.55C2544.89,-450.83 3105.5,-430.9 3105.5,-347 3105.5,-347 3105.5,-347 3105.5,-177 3105.5,-9.16 2900.29,-130.77 2733.5,-112 2470.13,-82.37 2160.19,-72.23 1987.34,-68.78"/>
<polygon fill="midnightblue" stroke="midnightblue" points="2260.63,-452.06 2250.69,-455.72 2260.74,-459.06 2260.63,-452.06"/>
</g>
<!-- Node15 -->
<g id="node15" class="node">
<title>Node15</title>
<g id="a_node15"><a xlink:href="buffer_8h.html" target="_top" xlink:title=" ">
<polygon fill="white" stroke="black" points="1929.5,-336.5 1929.5,-355.5 2271.5,-355.5 2271.5,-336.5 1929.5,-336.5"/>
<text text-anchor="middle" x="2100.5" y="-343.5" font-family="Helvetica,sans-Serif" font-size="10.00">/home/runner/work/gauri/gauri/gauri/include/gauri/renderer/buffer.h</text>
</a>
</g>
</g>
<!-- Node1&#45;&gt;Node15 -->
<g id="edge45" class="edge">
<title>Node1&#45;&gt;Node15</title>
<path fill="none" stroke="midnightblue" d="M2100.5,-438.35C2100.5,-414.25 2100.5,-373.31 2100.5,-355.59"/>
<polygon fill="midnightblue" stroke="midnightblue" points="2097,-438.37 2100.5,-448.37 2104,-438.37 2097,-438.37"/>
</g>
<!-- Node3 -->
<g id="node3" class="node">
<title>Node3</title>
<g id="a_node3"><a xlink:href="event_8h.html" target="_top" xlink:title=" ">
<polygon fill="white" stroke="black" points="286,-280.5 286,-299.5 615,-299.5 615,-280.5 286,-280.5"/>
<text text-anchor="middle" x="450.5" y="-287.5" font-family="Helvetica,sans-Serif" font-size="10.00">/home/runner/work/gauri/gauri/gauri/include/gauri/event/event.h</text>
</a>
</g>
</g>
<!-- Node2&#45;&gt;Node3 -->
<g id="edge2" class="edge">
<title>Node2&#45;&gt;Node3</title>
<path fill="none" stroke="midnightblue" d="M1157.58,-394.38C1043.31,-388.14 884.69,-376.56 746.5,-356 649.44,-341.56 536.7,-313.66 482.64,-299.58"/>
<polygon fill="midnightblue" stroke="midnightblue" points="1157.63,-397.89 1167.8,-394.93 1158,-390.9 1157.63,-397.89"/>
</g>
<!-- Node7 -->
<g id="node7" class="node">
<title>Node7</title>
<g id="a_node7"><a xlink:href="layer_8h.html" target="_top" xlink:title=" ">
<polygon fill="white" stroke="black" points="788.5,-224.5 788.5,-243.5 1082.5,-243.5 1082.5,-224.5 788.5,-224.5"/>
<text text-anchor="middle" x="935.5" y="-231.5" font-family="Helvetica,sans-Serif" font-size="10.00">/home/runner/work/gauri/gauri/gauri/include/gauri/layer.h</text>
</a>
</g>
</g>
<!-- Node2&#45;&gt;Node7 -->
<g id="edge22" class="edge">
<title>Node2&#45;&gt;Node7</title>
<path fill="none" stroke="midnightblue" d="M1222.26,-391.19C1117.2,-377.7 954.64,-349.3 920.5,-300 908.5,-282.67 921.14,-257.13 929.46,-243.81"/>
<polygon fill="midnightblue" stroke="midnightblue" points="1221.88,-394.67 1232.24,-392.45 1222.76,-387.73 1221.88,-394.67"/>
</g>
<!-- Node9 -->
<g id="node9" class="node">
<title>Node9</title>
<g id="a_node9"><a xlink:href="layer__stack_8h.html" target="_top" xlink:title=" ">
<polygon fill="white" stroke="black" points="597.5,-168.5 597.5,-187.5 923.5,-187.5 923.5,-168.5 597.5,-168.5"/>
<text text-anchor="middle" x="760.5" y="-175.5" font-family="Helvetica,sans-Serif" font-size="10.00">/home/runner/work/gauri/gauri/gauri/include/gauri/layer_stack.h</text>
</a>
</g>
</g>
<!-- Node2&#45;&gt;Node9 -->
<g id="edge23" class="edge">
<title>Node2&#45;&gt;Node9</title>
<path fill="none" stroke="midnightblue" d="M1157.6,-393.76C1097.86,-387.59 1029.84,-376.35 970.5,-356 877.42,-324.07 840.02,-321.59 779.5,-244 766.34,-227.13 762.29,-201.39 761.05,-187.92"/>
<polygon fill="midnightblue" stroke="midnightblue" points="1157.59,-397.27 1167.88,-394.78 1158.28,-390.31 1157.59,-397.27"/>
</g>
<!-- Node13 -->
<g id="node13" class="node">
<title>Node13</title>
<g id="a_node13"><a xlink:href="input_8h.html" target="_top" xlink:title=" ">
<polygon fill="white" stroke="black" points="1078,-336.5 1078,-355.5 1373,-355.5 1373,-336.5 1078,-336.5"/>
<text text-anchor="middle" x="1225.5" y="-343.5" font-family="Helvetica,sans-Serif" font-size="10.00">/home/runner/work/gauri/gauri/gauri/include/gauri/input.h</text>
</a>
</g>
</g>
<!-- Node2&#45;&gt;Node13 -->
<g id="edge19" class="edge">
<title>Node2&#45;&gt;Node13</title>
<path fill="none" stroke="midnightblue" d="M1290.52,-386.9C1274.39,-377 1253.32,-364.07 1239.6,-355.65"/>
<polygon fill="midnightblue" stroke="midnightblue" points="1289.01,-390.08 1299.36,-392.32 1292.67,-384.11 1289.01,-390.08"/>
</g>
<!-- Node2&#45;&gt;Node15 -->
<g id="edge24" class="edge">
<title>Node2&#45;&gt;Node15</title>
<path fill="none" stroke="midnightblue" d="M1447.84,-391.78C1596.07,-381.61 1832.63,-365.38 1976.56,-355.5"/>
<polygon fill="midnightblue" stroke="midnightblue" points="1447.51,-388.3 1437.77,-392.47 1447.98,-395.28 1447.51,-388.3"/>
</g>
<!-- Node23 -->
<g id="node23" class="node">
<title>Node23</title>
<g id="a_node23"><a xlink:href="shader_8h.html" target="_top" xlink:title=" ">
<polygon fill="white" stroke="black" points="1424,-168.5 1424,-187.5 1771,-187.5 1771,-168.5 1424,-168.5"/>
<text text-anchor="middle" x="1597.5" y="-175.5" font-family="Helvetica,sans-Serif" font-size="10.00">/home/runner/work/gauri/gauri/gauri/include/gauri/renderer/shader.h</text>
</a>
</g>
</g>
<!-- Node2&#45;&gt;Node23 -->
<g id="edge38" class="edge">
<title>Node2&#45;&gt;Node23</title>
<path fill="none" stroke="midnightblue" d="M1340.92,-387.6C1354.71,-379.83 1370.9,-369.01 1382.5,-356 1407.64,-327.82 1394.54,-307.43 1420.5,-280 1464.89,-233.11 1535.94,-201.74 1573.08,-187.6"/>
<polygon fill="midnightblue" stroke="midnightblue" points="1339,-384.66 1331.85,-392.48 1342.31,-390.82 1339,-384.66"/>
</g>
<!-- Node25 -->
<g id="node25" class="node">
<title>Node25</title>
<g id="a_node25"><a xlink:href="texture_8h.html" target="_top" xlink:title=" ">
<polygon fill="white" stroke="black" points="1452.5,-336.5 1452.5,-355.5 1802.5,-355.5 1802.5,-336.5 1452.5,-336.5"/>
<text text-anchor="middle" x="1627.5" y="-343.5" font-family="Helvetica,sans-Serif" font-size="10.00">/home/runner/work/gauri/gauri/gauri/include/gauri/renderer/texture.h</text>
</a>
</g>
</g>
<!-- Node2&#45;&gt;Node25 -->
<g id="edge42" class="edge">
<title>Node2&#45;&gt;Node25</title>
<path fill="none" stroke="midnightblue" d="M1373.23,-390.73C1432.57,-380.52 1522.49,-365.06 1577.98,-355.52"/>
<polygon fill="midnightblue" stroke="midnightblue" points="1372.52,-387.3 1363.25,-392.44 1373.7,-394.2 1372.52,-387.3"/>
</g>
<!-- Node4 -->
<g id="node4" class="node">
<title>Node4</title>
<g id="a_node4"><a xlink:href="application_8h.html" target="_top" xlink:title=" ">
<polygon fill="white" stroke="black" points="598.5,-112.5 598.5,-131.5 922.5,-131.5 922.5,-112.5 598.5,-112.5"/>
<text text-anchor="middle" x="760.5" y="-119.5" font-family="Helvetica,sans-Serif" font-size="10.00">/home/runner/work/gauri/gauri/gauri/include/gauri/application.h</text>
</a>
</g>
</g>
<!-- Node3&#45;&gt;Node4 -->
<g id="edge3" class="edge">
<title>Node3&#45;&gt;Node4</title>
<path fill="none" stroke="midnightblue" d="M297.25,-279.42C180.63,-266.63 50.24,-236.89 114.5,-168 130.86,-150.47 412.38,-136.31 598.34,-128.83"/>
<polygon fill="midnightblue" stroke="midnightblue" points="297.09,-282.93 307.4,-280.5 297.83,-275.97 297.09,-282.93"/>
</g>
<!-- Node3&#45;&gt;Node7 -->
<g id="edge7" class="edge">
<title>Node3&#45;&gt;Node7</title>
<path fill="none" stroke="midnightblue" d="M537.15,-279.35C628.63,-269.17 771.44,-253.27 858.92,-243.53"/>
<polygon fill="midnightblue" stroke="midnightblue" points="536.63,-275.89 527.08,-280.47 537.41,-282.85 536.63,-275.89"/>
</g>
<!-- Node10 -->
<g id="node10" class="node">
<title>Node10</title>
<g id="a_node10"><a xlink:href="orthographic__camera__controller_8h.html" target="_top" xlink:title=" ">
<polygon fill="white" stroke="black" points="0,-112.5 0,-131.5 425,-131.5 425,-112.5 0,-112.5"/>
<text text-anchor="middle" x="212.5" y="-119.5" font-family="Helvetica,sans-Serif" font-size="10.00">/home/runner/work/gauri/gauri/gauri/include/gauri/orthographic_camera_controller.h</text>
</a>
</g>
</g>
<!-- Node3&#45;&gt;Node10 -->
<g id="edge14" class="edge">
<title>Node3&#45;&gt;Node10</title>
<path fill="none" stroke="midnightblue" d="M296.72,-279.74C202.14,-272.42 96.25,-260.65 81.5,-244 59.11,-218.71 61.88,-195.49 81.5,-168 95.05,-149.01 117.14,-137.96 139.35,-131.54"/>
<polygon fill="midnightblue" stroke="midnightblue" points="296.48,-283.23 306.71,-280.5 297.01,-276.25 296.48,-283.23"/>
</g>
<!-- Node11 -->
<g id="node11" class="node">
<title>Node11</title>
<g id="a_node11"><a xlink:href="window_8h.html" target="_top" xlink:title=" ">
<polygon fill="white" stroke="black" points="297,-224.5 297,-243.5 604,-243.5 604,-224.5 297,-224.5"/>
<text text-anchor="middle" x="450.5" y="-231.5" font-family="Helvetica,sans-Serif" font-size="10.00">/home/runner/work/gauri/gauri/gauri/include/gauri/window.h</text>
</a>
</g>
</g>
<!-- Node3&#45;&gt;Node11 -->
<g id="edge16" class="edge">
<title>Node3&#45;&gt;Node11</title>
<path fill="none" stroke="midnightblue" d="M450.5,-269.8C450.5,-260.91 450.5,-250.78 450.5,-243.75"/>
<polygon fill="midnightblue" stroke="midnightblue" points="447,-270.08 450.5,-280.08 454,-270.08 447,-270.08"/>
</g>
<!-- Node4&#45;&gt;Node5 -->
<g id="edge4" class="edge">
<title>Node4&#45;&gt;Node5</title>
<path fill="none" stroke="midnightblue" d="M932.93,-112.48C1151.01,-101.71 1521.9,-83.38 1719.79,-73.61"/>
<polygon fill="midnightblue" stroke="midnightblue" points="932.47,-109 922.66,-112.99 932.82,-115.99 932.47,-109"/>
</g>
<!-- Node6 -->
<g id="node6" class="node">
<title>Node6</title>
<g id="a_node6"><a xlink:href="entry__point_8h.html" target="_top" xlink:title=" ">
<polygon fill="white" stroke="black" points="1690.5,-0.5 1690.5,-19.5 2016.5,-19.5 2016.5,-0.5 1690.5,-0.5"/>
<text text-anchor="middle" x="1853.5" y="-7.5" font-family="Helvetica,sans-Serif" font-size="10.00">/home/runner/work/gauri/gauri/gauri/include/gauri/entry_point.h</text>
</a>
</g>
</g>
<!-- Node5&#45;&gt;Node6 -->
<g id="edge5" class="edge">
<title>Node5&#45;&gt;Node6</title>
<path fill="none" stroke="midnightblue" d="M1847.03,-46.1C1846.4,-37.14 1846.84,-26.86 1848.37,-19.75"/>
<polygon fill="midnightblue" stroke="midnightblue" points="1843.57,-46.62 1848.33,-56.08 1850.51,-45.71 1843.57,-46.62"/>
</g>
<!-- Node6&#45;&gt;Node5 -->
<g id="edge6" class="edge">
<title>Node6&#45;&gt;Node5</title>
<path fill="none" stroke="midnightblue" d="M1859.96,-29.69C1860.61,-38.64 1860.18,-48.93 1858.67,-56.08"/>
<polygon fill="midnightblue" stroke="midnightblue" points="1863.42,-29.2 1858.63,-19.75 1856.48,-30.13 1863.42,-29.2"/>
</g>
<!-- Node7&#45;&gt;Node5 -->
<g id="edge13" class="edge">
<title>Node7&#45;&gt;Node5</title>
<path fill="none" stroke="midnightblue" d="M1092.75,-228.07C1178.15,-222.69 1273.33,-211.45 1308.5,-188 1340.79,-166.47 1318.88,-133.03 1351.5,-112 1381.84,-92.44 1581.61,-79.4 1719.8,-72.6"/>
<polygon fill="midnightblue" stroke="midnightblue" points="1092.42,-224.58 1082.65,-228.68 1092.85,-231.57 1092.42,-224.58"/>
</g>
<!-- Node8 -->
<g id="node8" class="node">
<title>Node8</title>
<g id="a_node8"><a xlink:href="imgui__layer_8h.html" target="_top" xlink:title=" ">
<polygon fill="white" stroke="black" points="941.5,-168.5 941.5,-187.5 1299.5,-187.5 1299.5,-168.5 941.5,-168.5"/>
<text text-anchor="middle" x="1120.5" y="-175.5" font-family="Helvetica,sans-Serif" font-size="10.00">/home/runner/work/gauri/gauri/gauri/include/gauri/imgui/imgui_layer.h</text>
</a>
</g>
</g>
<!-- Node7&#45;&gt;Node8 -->
<g id="edge8" class="edge">
<title>Node7&#45;&gt;Node8</title>
<path fill="none" stroke="midnightblue" d="M974.67,-221.57C1009.57,-211.38 1059.85,-196.7 1091.32,-187.52"/>
<polygon fill="midnightblue" stroke="midnightblue" points="973.43,-218.28 964.81,-224.44 975.39,-225 973.43,-218.28"/>
</g>
<!-- Node7&#45;&gt;Node9 -->
<g id="edge11" class="edge">
<title>Node7&#45;&gt;Node9</title>
<path fill="none" stroke="midnightblue" d="M898.03,-221.44C865.03,-211.26 817.74,-196.66 788.1,-187.52"/>
<polygon fill="midnightblue" stroke="midnightblue" points="897.18,-224.84 907.77,-224.44 899.25,-218.15 897.18,-224.84"/>
</g>
<!-- Node8&#45;&gt;Node4 -->
<g id="edge9" class="edge">
<title>Node8&#45;&gt;Node4</title>
<path fill="none" stroke="midnightblue" d="M1053.28,-166.92C985.27,-156.71 881.28,-141.12 817.28,-131.52"/>
<polygon fill="midnightblue" stroke="midnightblue" points="1053.05,-170.42 1063.46,-168.44 1054.09,-163.5 1053.05,-170.42"/>
</g>
<!-- Node8&#45;&gt;Node5 -->
<g id="edge10" class="edge">
<title>Node8&#45;&gt;Node5</title>
<path fill="none" stroke="midnightblue" d="M1149.89,-164.61C1187.2,-149.46 1253.91,-124.33 1313.5,-112 1450.19,-83.72 1609.83,-73.11 1719.9,-69.18"/>
<polygon fill="midnightblue" stroke="midnightblue" points="1148.54,-161.38 1140.62,-168.41 1151.2,-167.86 1148.54,-161.38"/>
</g>
<!-- Node9&#45;&gt;Node4 -->
<g id="edge12" class="edge">
<title>Node9&#45;&gt;Node4</title>
<path fill="none" stroke="midnightblue" d="M760.5,-157.8C760.5,-148.91 760.5,-138.78 760.5,-131.75"/>
<polygon fill="midnightblue" stroke="midnightblue" points="757,-158.08 760.5,-168.08 764,-158.08 757,-158.08"/>
</g>
<!-- Node10&#45;&gt;Node5 -->
<g id="edge15" class="edge">
<title>Node10&#45;&gt;Node5</title>
<path fill="none" stroke="midnightblue" d="M435.51,-113.66C781.86,-102.26 1438.48,-80.66 1719.95,-71.39"/>
<polygon fill="midnightblue" stroke="midnightblue" points="435.23,-110.17 425.35,-114 435.46,-117.16 435.23,-110.17"/>
</g>
<!-- Node11&#45;&gt;Node4 -->
<g id="edge17" class="edge">
<title>Node11&#45;&gt;Node4</title>
<path fill="none" stroke="midnightblue" d="M479.82,-220.37C499.87,-211.6 526.97,-199.47 550.5,-188 567.65,-179.64 570.71,-174.9 588.5,-168 630.94,-151.53 681.58,-139.1 716.87,-131.52"/>
<polygon fill="midnightblue" stroke="midnightblue" points="478.36,-217.19 470.59,-224.39 481.16,-223.61 478.36,-217.19"/>
</g>
<!-- Node12 -->
<g id="node12" class="node">
<title>Node12</title>
<g id="a_node12"><a xlink:href="windows__window_8h.html" target="_top" xlink:title=" ">
<polygon fill="white" stroke="black" points="123.5,-168.5 123.5,-187.5 541.5,-187.5 541.5,-168.5 123.5,-168.5"/>
<text text-anchor="middle" x="332.5" y="-175.5" font-family="Helvetica,sans-Serif" font-size="10.00">/home/runner/work/gauri/gauri/gauri/include/platform/windows/windows_window.h</text>
</a>
</g>
</g>
<!-- Node11&#45;&gt;Node12 -->
<g id="edge18" class="edge">
<title>Node11&#45;&gt;Node12</title>
<path fill="none" stroke="midnightblue" d="M422.6,-220.23C400.53,-210.13 370.32,-196.31 351.11,-187.52"/>
<polygon fill="midnightblue" stroke="midnightblue" points="421.25,-223.46 431.8,-224.44 424.17,-217.1 421.25,-223.46"/>
</g>
<!-- Node13&#45;&gt;Node5 -->
<g id="edge20" class="edge">
<title>Node13&#45;&gt;Node5</title>
<path fill="none" stroke="midnightblue" d="M1284.57,-333.68C1305.82,-327 1328.48,-316.48 1344.5,-300 1406.11,-236.6 1340.17,-166.86 1409.5,-112 1433.57,-92.95 1598.04,-80.24 1719.82,-73.32"/>
<polygon fill="midnightblue" stroke="midnightblue" points="1283.55,-330.33 1274.93,-336.49 1285.51,-337.05 1283.55,-330.33"/>
</g>
<!-- Node14 -->
<g id="node14" class="node">
<title>Node14</title>
<g id="a_node14"><a xlink:href="windows__input_8h.html" target="_top" xlink:title=" ">
<polygon fill="white" stroke="black" points="929.5,-280.5 929.5,-299.5 1335.5,-299.5 1335.5,-280.5 929.5,-280.5"/>
<text text-anchor="middle" x="1132.5" y="-287.5" font-family="Helvetica,sans-Serif" font-size="10.00">/home/runner/work/gauri/gauri/gauri/include/platform/windows/windows_input.h</text>
</a>
</g>
</g>
<!-- Node13&#45;&gt;Node14 -->
<g id="edge21" class="edge">
<title>Node13&#45;&gt;Node14</title>
<path fill="none" stroke="midnightblue" d="M1201.69,-331.18C1184.58,-321.24 1162.03,-308.15 1147.4,-299.65"/>
<polygon fill="midnightblue" stroke="midnightblue" points="1200.15,-334.33 1210.56,-336.32 1203.67,-328.28 1200.15,-334.33"/>
</g>
<!-- Node15&#45;&gt;Node5 -->
<g id="edge36" class="edge">
<title>Node15&#45;&gt;Node5</title>
<path fill="none" stroke="midnightblue" d="M2016.82,-334.45C1958.65,-321.89 1891.5,-294.5 1891.5,-235 1891.5,-235 1891.5,-235 1891.5,-177 1891.5,-137.4 1869.23,-93.96 1858.78,-75.77"/>
<polygon fill="midnightblue" stroke="midnightblue" points="2016.32,-337.92 2026.81,-336.49 2017.71,-331.06 2016.32,-337.92"/>
</g>
<!-- Node16 -->
<g id="node16" class="node">
<title>Node16</title>
<g id="a_node16"><a xlink:href="vertex__array_8h.html" target="_top" xlink:title=" ">
<polygon fill="white" stroke="black" points="2198,-280.5 2198,-299.5 2573,-299.5 2573,-280.5 2198,-280.5"/>
<text text-anchor="middle" x="2385.5" y="-287.5" font-family="Helvetica,sans-Serif" font-size="10.00">/home/runner/work/gauri/gauri/gauri/include/gauri/renderer/vertex_array.h</text>
</a>
</g>
</g>
<!-- Node15&#45;&gt;Node16 -->
<g id="edge25" class="edge">
<title>Node15&#45;&gt;Node16</title>
<path fill="none" stroke="midnightblue" d="M2155.72,-334.54C2209.58,-324.33 2290.5,-309 2340.55,-299.52"/>
<polygon fill="midnightblue" stroke="midnightblue" points="2154.83,-331.14 2145.66,-336.44 2156.14,-338.02 2154.83,-331.14"/>
</g>
<!-- Node22 -->
<g id="node22" class="node">
<title>Node22</title>
<g id="a_node22"><a xlink:href="opengl__buffer_8h.html" target="_top" xlink:title=" ">
<polygon fill="white" stroke="black" points="2591,-280.5 2591,-299.5 2980,-299.5 2980,-280.5 2591,-280.5"/>
<text text-anchor="middle" x="2785.5" y="-287.5" font-family="Helvetica,sans-Serif" font-size="10.00">/home/runner/work/gauri/gauri/gauri/include/platform/opengl/opengl_buffer.h</text>
</a>
</g>
</g>
<!-- Node15&#45;&gt;Node22 -->
<g id="edge37" class="edge">
<title>Node15&#45;&gt;Node22</title>
<path fill="none" stroke="midnightblue" d="M2218.98,-335.66C2348.09,-325.48 2552.85,-309.34 2677.62,-299.5"/>
<polygon fill="midnightblue" stroke="midnightblue" points="2218.36,-332.2 2208.66,-336.47 2218.91,-339.18 2218.36,-332.2"/>
</g>
<!-- Node16&#45;&gt;Node5 -->
<g id="edge34" class="edge">
<title>Node16&#45;&gt;Node5</title>
<path fill="none" stroke="midnightblue" d="M2437.27,-278.33C2477.16,-269.84 2533.58,-257.21 2582.5,-244 2611.27,-236.23 2617.63,-231.41 2646.5,-224 2726.83,-203.38 2873.05,-235.24 2824.5,-168 2778.18,-103.85 2733.23,-126.79 2655.5,-112 2531.43,-88.39 2181.46,-75.67 1987.35,-70.24"/>
<polygon fill="midnightblue" stroke="midnightblue" points="2436.3,-274.96 2427.24,-280.46 2437.75,-281.81 2436.3,-274.96"/>
</g>
<!-- Node17 -->
<g id="node17" class="node">
<title>Node17</title>
<g id="a_node17"><a xlink:href="renderer__api_8h.html" target="_top" xlink:title=" ">
<polygon fill="white" stroke="black" points="2197.5,-224.5 2197.5,-243.5 2573.5,-243.5 2573.5,-224.5 2197.5,-224.5"/>
<text text-anchor="middle" x="2385.5" y="-231.5" font-family="Helvetica,sans-Serif" font-size="10.00">/home/runner/work/gauri/gauri/gauri/include/gauri/renderer/renderer_api.h</text>
</a>
</g>
</g>
<!-- Node16&#45;&gt;Node17 -->
<g id="edge26" class="edge">
<title>Node16&#45;&gt;Node17</title>
<path fill="none" stroke="midnightblue" d="M2385.5,-269.8C2385.5,-260.91 2385.5,-250.78 2385.5,-243.75"/>
<polygon fill="midnightblue" stroke="midnightblue" points="2382,-270.08 2385.5,-280.08 2389,-270.08 2382,-270.08"/>
</g>
<!-- Node21 -->
<g id="node21" class="node">
<title>Node21</title>
<g id="a_node21"><a xlink:href="opengl__vertex__array_8h.html" target="_top" xlink:title=" ">
<polygon fill="white" stroke="black" points="2655.5,-224.5 2655.5,-243.5 3077.5,-243.5 3077.5,-224.5 2655.5,-224.5"/>
<text text-anchor="middle" x="2866.5" y="-231.5" font-family="Helvetica,sans-Serif" font-size="10.00">/home/runner/work/gauri/gauri/gauri/include/platform/opengl/opengl_vertex_array.h</text>
</a>
</g>
</g>
<!-- Node16&#45;&gt;Node21 -->
<g id="edge35" class="edge">
<title>Node16&#45;&gt;Node21</title>
<path fill="none" stroke="midnightblue" d="M2471.43,-279.35C2562.16,-269.17 2703.8,-253.27 2790.55,-243.53"/>
<polygon fill="midnightblue" stroke="midnightblue" points="2471,-275.88 2461.45,-280.47 2471.78,-282.84 2471,-275.88"/>
</g>
<!-- Node17&#45;&gt;Node5 -->
<g id="edge32" class="edge">
<title>Node17&#45;&gt;Node5</title>
<path fill="none" stroke="midnightblue" d="M2583.16,-223.81C2685.56,-216.97 2792.59,-205.69 2808.5,-188 2814.44,-181.39 2814.43,-174.62 2808.5,-168 2754.73,-107.96 2237.28,-81 1987.34,-71.4"/>
<polygon fill="midnightblue" stroke="midnightblue" points="2582.7,-220.34 2572.95,-224.48 2583.15,-227.32 2582.7,-220.34"/>
</g>
<!-- Node18 -->
<g id="node18" class="node">
<title>Node18</title>
<g id="a_node18"><a xlink:href="render__command_8h.html" target="_top" xlink:title=" ">
<polygon fill="white" stroke="black" points="1957.5,-168.5 1957.5,-187.5 2357.5,-187.5 2357.5,-168.5 1957.5,-168.5"/>
<text text-anchor="middle" x="2157.5" y="-175.5" font-family="Helvetica,sans-Serif" font-size="10.00">/home/runner/work/gauri/gauri/gauri/include/gauri/renderer/render_command.h</text>
</a>
</g>
</g>
<!-- Node17&#45;&gt;Node18 -->
<g id="edge27" class="edge">
<title>Node17&#45;&gt;Node18</title>
<path fill="none" stroke="midnightblue" d="M2339.43,-222.09C2296.35,-211.89 2232.91,-196.86 2193.46,-187.52"/>
<polygon fill="midnightblue" stroke="midnightblue" points="2338.84,-225.54 2349.37,-224.44 2340.45,-218.73 2338.84,-225.54"/>
</g>
<!-- Node19 -->
<g id="node19" class="node">
<title>Node19</title>
<g id="a_node19"><a xlink:href="renderer_8h.html" target="_top" xlink:title=" ">
<polygon fill="white" stroke="black" points="1920,-112.5 1920,-131.5 2275,-131.5 2275,-112.5 1920,-112.5"/>
<text text-anchor="middle" x="2097.5" y="-119.5" font-family="Helvetica,sans-Serif" font-size="10.00">/home/runner/work/gauri/gauri/gauri/include/gauri/renderer/renderer.h</text>
</a>
</g>
</g>
<!-- Node17&#45;&gt;Node19 -->
<g id="edge31" class="edge">
<title>Node17&#45;&gt;Node19</title>
<path fill="none" stroke="midnightblue" d="M2187.33,-224.6C2079.75,-217.94 1965.27,-206.58 1948.5,-188 1920.66,-157.15 1974.14,-140.28 2024.61,-131.52"/>
<polygon fill="midnightblue" stroke="midnightblue" points="2187.19,-228.1 2197.38,-225.21 2187.61,-221.11 2187.19,-228.1"/>
</g>
<!-- Node20 -->
<g id="node20" class="node">
<title>Node20</title>
<g id="a_node20"><a xlink:href="opengl__renderer__api_8h.html" target="_top" xlink:title=" ">
<polygon fill="white" stroke="black" points="2376,-168.5 2376,-187.5 2799,-187.5 2799,-168.5 2376,-168.5"/>
<text text-anchor="middle" x="2587.5" y="-175.5" font-family="Helvetica,sans-Serif" font-size="10.00">/home/runner/work/gauri/gauri/gauri/include/platform/opengl/opengl_renderer_api.h</text>
</a>
</g>
</g>
<!-- Node17&#45;&gt;Node20 -->
<g id="edge33" class="edge">
<title>Node17&#45;&gt;Node20</title>
<path fill="none" stroke="midnightblue" d="M2427.29,-221.83C2465.43,-211.63 2520.98,-196.78 2555.64,-187.52"/>
<polygon fill="midnightblue" stroke="midnightblue" points="2426.26,-218.48 2417.51,-224.44 2428.07,-225.24 2426.26,-218.48"/>
</g>
<!-- Node18&#45;&gt;Node5 -->
<g id="edge30" class="edge">
<title>Node18&#45;&gt;Node5</title>
<path fill="none" stroke="midnightblue" d="M2220.59,-166.31C2263.64,-156.37 2308.8,-138.97 2284.5,-112 2264.67,-89.99 2106.1,-78.03 1987.01,-72.09"/>
<polygon fill="midnightblue" stroke="midnightblue" points="2219.62,-162.94 2210.6,-168.5 2221.12,-169.78 2219.62,-162.94"/>
</g>
<!-- Node18&#45;&gt;Node19 -->
<g id="edge28" class="edge">
<title>Node18&#45;&gt;Node19</title>
<path fill="none" stroke="midnightblue" d="M2140.32,-161.54C2129.62,-151.91 2116.24,-139.87 2107.32,-131.83"/>
<polygon fill="midnightblue" stroke="midnightblue" points="2138.09,-164.24 2147.86,-168.32 2142.77,-159.03 2138.09,-164.24"/>
</g>
<!-- Node19&#45;&gt;Node5 -->
<g id="edge29" class="edge">
<title>Node19&#45;&gt;Node5</title>
<path fill="none" stroke="midnightblue" d="M2049.07,-110.28C2002.96,-100.08 1934.47,-84.92 1891.98,-75.52"/>
<polygon fill="midnightblue" stroke="midnightblue" points="2048.32,-113.7 2058.84,-112.44 2049.83,-106.87 2048.32,-113.7"/>
</g>
<!-- Node23&#45;&gt;Node5 -->
<g id="edge40" class="edge">
<title>Node23&#45;&gt;Node5</title>
<path fill="none" stroke="midnightblue" d="M1484.4,-166.78C1435.79,-158.03 1395.61,-141.85 1422.5,-112 1442.33,-89.99 1600.9,-78.03 1719.99,-72.09"/>
<polygon fill="midnightblue" stroke="midnightblue" points="1484.1,-170.28 1494.54,-168.49 1485.26,-163.38 1484.1,-170.28"/>
</g>
<!-- Node23&#45;&gt;Node19 -->
<g id="edge39" class="edge">
<title>Node23&#45;&gt;Node19</title>
<path fill="none" stroke="midnightblue" d="M1686.54,-167.38C1780.84,-157.2 1928.28,-141.28 2018.55,-131.53"/>
<polygon fill="midnightblue" stroke="midnightblue" points="1686.02,-163.92 1676.45,-168.47 1686.77,-170.88 1686.02,-163.92"/>
</g>
<!-- Node24 -->
<g id="node24" class="node">
<title>Node24</title>
<g id="a_node24"><a xlink:href="opengl__shader_8h.html" target="_top" xlink:title=" ">
<polygon fill="white" stroke="black" points="1431.5,-112.5 1431.5,-131.5 1825.5,-131.5 1825.5,-112.5 1431.5,-112.5"/>
<text text-anchor="middle" x="1628.5" y="-119.5" font-family="Helvetica,sans-Serif" font-size="10.00">/home/runner/work/gauri/gauri/gauri/include/platform/opengl/opengl_shader.h</text>
</a>
</g>
</g>
<!-- Node23&#45;&gt;Node24 -->
<g id="edge41" class="edge">
<title>Node23&#45;&gt;Node24</title>
<path fill="none" stroke="midnightblue" d="M1607.68,-159.27C1612.97,-150.05 1619.22,-139.17 1623.48,-131.75"/>
<polygon fill="midnightblue" stroke="midnightblue" points="1604.56,-157.67 1602.62,-168.08 1610.63,-161.15 1604.56,-157.67"/>
</g>
<!-- Node25&#45;&gt;Node5 -->
<g id="edge43" class="edge">
<title>Node25&#45;&gt;Node5</title>
<path fill="none" stroke="midnightblue" d="M1716.07,-335.06C1764.45,-327.88 1818,-316.52 1835.5,-300 1857.29,-279.42 1853.5,-264.98 1853.5,-235 1853.5,-235 1853.5,-235 1853.5,-177 1853.5,-139.19 1853.5,-94.06 1853.5,-75.56"/>
<polygon fill="midnightblue" stroke="midnightblue" points="1715.56,-331.59 1706.16,-336.48 1716.55,-338.52 1715.56,-331.59"/>
</g>
<!-- Node26 -->
<g id="node26" class="node">
<title>Node26</title>
<g id="a_node26"><a xlink:href="opengl__texture_8h.html" target="_top" xlink:title=" ">
<polygon fill="white" stroke="black" points="1429,-280.5 1429,-299.5 1826,-299.5 1826,-280.5 1429,-280.5"/>
<text text-anchor="middle" x="1627.5" y="-287.5" font-family="Helvetica,sans-Serif" font-size="10.00">/home/runner/work/gauri/gauri/gauri/include/platform/opengl/opengl_texture.h</text>
</a>
</g>
</g>
<!-- Node25&#45;&gt;Node26 -->
<g id="edge44" class="edge">
<title>Node25&#45;&gt;Node26</title>
<path fill="none" stroke="midnightblue" d="M1627.5,-325.8C1627.5,-316.91 1627.5,-306.78 1627.5,-299.75"/>
<polygon fill="midnightblue" stroke="midnightblue" points="1624,-326.08 1627.5,-336.08 1631,-326.08 1624,-326.08"/>
</g>
</g>
</svg>
        <g id="navigator" transform="translate(0 0)" fill="#404254">
                <rect fill="#f2f5e9" fill-opacity="0.5" stroke="#606060" stroke-width=".5" x="0" y="0" width="60" height="60"/>
                <use id="zoomplus" xlink:href="#zoomPlus" x="17" y="9" onmousedown="handleZoom(evt,'in')"/>
                <use id="zoomminus" xlink:href="#zoomMin" x="42" y="9" onmousedown="handleZoom(evt,'out')"/>
                <use id="reset" xlink:href="#resetDef" x="30" y="36" onmousedown="handleReset()"/>
                <g id="arrowUp" xlink:href="#dirArrow" transform="translate(30 24)" onmousedown="handlePan(0,-1)">
                  <use xlink:href="#rim" fill="#404040">
                        <set attributeName="fill" to="#808080" begin="arrowUp.mouseover" end="arrowUp.mouseout"/>
                  </use>
                  <path fill="none" stroke="white" stroke-width="1.5" d="M0,-3.0v7 M-2.5,-0.5L0,-3.0L2.5,-0.5"/>
                </g>
                <g id="arrowRight" xlink:href="#dirArrow" transform="rotate(90) translate(36 -43)" onmousedown="handlePan(1,0)">
                  <use xlink:href="#rim" fill="#404040">
                        <set attributeName="fill" to="#808080" begin="arrowRight.mouseover" end="arrowRight.mouseout"/>
                  </use>
                  <path fill="none" stroke="white" stroke-width="1.5" d="M0,-3.0v7 M-2.5,-0.5L0,-3.0L2.5,-0.5"/>
                </g>
                <g id="arrowDown" xlink:href="#dirArrow" transform="rotate(180) translate(-30 -48)" onmousedown="handlePan(0,1)">
                  <use xlink:href="#rim" fill="#404040">
                        <set attributeName="fill" to="#808080" begin="arrowDown.mouseover" end="arrowDown.mouseout"/>
                  </use>
                  <path fill="none" stroke="white" stroke-width="1.5" d="M0,-3.0v7 M-2.5,-0.5L0,-3.0L2.5,-0.5"/>
                </g>
                <g id="arrowLeft" xlink:href="#dirArrow" transform="rotate(270) translate(-36 17)" onmousedown="handlePan(-1,0)">
                  <use xlink:href="#rim" fill="#404040">
                        <set attributeName="fill" to="#808080" begin="arrowLeft.mouseover" end="arrowLeft.mouseout"/>
                  </use>
                  <path fill="none" stroke="white" stroke-width="1.5" d="M0,-3.0v7 M-2.5,-0.5L0,-3.0L2.5,-0.5"/>
                </g>
        </g>
        <svg viewBox="0 0 15 15" width="100%" height="30px" preserveAspectRatio="xMaxYMin meet">
         <g id="arrow_out" transform="scale(0.3 0.3)">
          <a xlink:href="logger_8h__dep__incl_org.svg" target="_base">
           <rect id="button" ry="5" rx="5" y="6" x="6" height="38" width="38"
                fill="#f2f5e9" fill-opacity="0.5" stroke="#606060" stroke-width="1.0"/>
           <path id="arrow"
             d="M 11.500037,31.436501 C 11.940474,20.09759 22.043105,11.32322 32.158766,21.979434 L 37.068811,17.246167 C 37.068811,17.246167 37.088388,32 37.088388,32 L 22.160133,31.978069 C 22.160133,31.978069 26.997745,27.140456 26.997745,27.140456 C 18.528582,18.264221 13.291696,25.230495 11.500037,31.436501 z"
             style="fill:#404040;"/>
          </a>
         </g>
        </svg>
</svg>
