<?xml version="1.0" encoding="UTF-8" standalone="no"?>
<!DOCTYPE svg PUBLIC "-//W3C//DTD SVG 1.1//EN"
 "http://www.w3.org/Graphics/SVG/1.1/DTD/svg11.dtd">
<!-- Generated by graphviz version 2.43.0 (0)
 -->
<!-- Title: /home/runner/work/gauri/gauri/gauri/include/gauri/logger.h Pages: 1 -->
<!--zoomable 476 -->
<svg id="main" version="1.1" xmlns="http://www.w3.org/2000/svg" xmlns:xlink="http://www.w3.org/1999/xlink" xml:space="preserve" onload="init(evt)">
<style type="text/css"><![CDATA[
.edge:hover path { stroke: red; }
.edge:hover polygon { stroke: red; fill: red; }
]]></style>
<script type="text/javascript"><![CDATA[
var edges = document.getElementsByTagName('g');
if (edges && edges.length) {
  for (var i=0;i<edges.length;i++) {
    if (edges[i].id.substr(0,4)=='edge') {
      edges[i].setAttribute('class','edge');
    }
  }
}
]]></script>
        <defs>
                <circle id="rim" cx="0" cy="0" r="7"/>
                <circle id="rim2" cx="0" cy="0" r="3.5"/>
                <g id="zoomPlus">
                        <use xlink:href="#rim" fill="#404040">
                                <set attributeName="fill" to="#808080" begin="zoomplus.mouseover" end="zoomplus.mouseout"/>
                        </use>
                        <path d="M-4,0h8M0,-4v8" fill="none" stroke="white" stroke-width="1.5" pointer-events="none"/>
                </g>
                <g id="zoomMin">
                        <use xlink:href="#rim" fill="#404040">
                                <set attributeName="fill" to="#808080" begin="zoomminus.mouseover" end="zoomminus.mouseout"/>
                        </use>
                        <path d="M-4,0h8" fill="none" stroke="white" stroke-width="1.5" pointer-events="none"/>
                </g>
                <g id="dirArrow">
                        <path fill="none" stroke="white" stroke-width="1.5" d="M0,-3.0v7 M-2.5,-0.5L0,-3.0L2.5,-0.5"/>
                </g>
               <g id="resetDef">
                       <use xlink:href="#rim2" fill="#404040">
                               <set attributeName="fill" to="#808080" begin="reset.mouseover" end="reset.mouseout"/>
                       </use>
               </g>
        </defs>

<script type="text/javascript">
var viewWidth = 3418;
var viewHeight = 476;
var sectionId = 'dynsection-1';
</script>
<script xlink:href="svgpan.js"/>
<svg id="graph" class="graph">
<g id="viewport">
<title>/home/runner/work/gauri/gauri/gauri/include/gauri/logger.h</title>
<polygon fill="white" stroke="transparent" points="-4,4 -4,-472 3413.77,-472 3413.77,4 -4,4"/>
<!-- Node1 -->
<g id="node1" class="node">
<title>Node1</title>
<g id="a_node1"><a xlink:title=" ">
<polygon fill="#bfbfbf" stroke="black" points="2639.77,-448.5 2639.77,-467.5 2939.77,-467.5 2939.77,-448.5 2639.77,-448.5"/>
<text text-anchor="middle" x="2789.77" y="-455.5" font-family="Helvetica,sans-Serif" font-size="10.00">/home/runner/work/gauri/gauri/gauri/include/gauri/logger.h</text>
</a>
</g>
</g>
<!-- Node2 -->
<g id="node2" class="node">
<title>Node2</title>
<g id="a_node2"><a xlink:href="core_8h.html" target="_top" xlink:title=" ">
<polygon fill="white" stroke="black" points="1465.27,-392.5 1465.27,-411.5 1756.27,-411.5 1756.27,-392.5 1465.27,-392.5"/>
<text text-anchor="middle" x="1610.77" y="-399.5" font-family="Helvetica,sans-Serif" font-size="10.00">/home/runner/work/gauri/gauri/gauri/include/gauri/core.h</text>
</a>
</g>
</g>
<!-- Node1&#45;&gt;Node2 -->
<g id="edge1" class="edge">
<title>Node1&#45;&gt;Node2</title>
<path fill="none" stroke="midnightblue" d="M2629.4,-449.66C2399.11,-439.11 1978.1,-419.82 1756.32,-409.67"/>
<polygon fill="midnightblue" stroke="midnightblue" points="2629.4,-453.16 2639.55,-450.12 2629.72,-446.17 2629.4,-453.16"/>
</g>
<!-- Node5 -->
<g id="node5" class="node">
<title>Node5</title>
<g id="a_node5"><a xlink:href="gauri_8h.html" target="_top" xlink:title=" ">
<polygon fill="white" stroke="black" points="1858.27,-56.5 1858.27,-75.5 2125.27,-75.5 2125.27,-56.5 1858.27,-56.5"/>
<text text-anchor="middle" x="1991.77" y="-63.5" font-family="Helvetica,sans-Serif" font-size="10.00">/home/runner/work/gauri/gauri/gauri/include/gauri.h</text>
</a>
</g>
</g>
<!-- Node1&#45;&gt;Node5 -->
<g id="edge44" class="edge">
<title>Node1&#45;&gt;Node5</title>
<path fill="none" stroke="midnightblue" d="M2910.69,-447.6C3091.11,-431.93 3409.77,-397.16 3409.77,-347 3409.77,-347 3409.77,-347 3409.77,-177 3409.77,-112.97 2478.72,-80.48 2125.49,-70.46"/>
<polygon fill="midnightblue" stroke="midnightblue" points="2910.27,-444.13 2900.61,-448.47 2910.87,-451.1 2910.27,-444.13"/>
</g>
<!-- Node14 -->
<g id="node14" class="node">
<title>Node14</title>
<g id="a_node14"><a xlink:href="buffer_8h.html" target="_top" xlink:title=" ">
<polygon fill="white" stroke="black" points="2618.77,-336.5 2618.77,-355.5 2960.77,-355.5 2960.77,-336.5 2618.77,-336.5"/>
<text text-anchor="middle" x="2789.77" y="-343.5" font-family="Helvetica,sans-Serif" font-size="10.00">/home/runner/work/gauri/gauri/gauri/include/gauri/renderer/buffer.h</text>
</a>
</g>
</g>
<!-- Node1&#45;&gt;Node14 -->
<g id="edge43" class="edge">
<title>Node1&#45;&gt;Node14</title>
<path fill="none" stroke="midnightblue" d="M2789.77,-438.35C2789.77,-414.25 2789.77,-373.31 2789.77,-355.59"/>
<polygon fill="midnightblue" stroke="midnightblue" points="2786.27,-438.37 2789.77,-448.37 2793.27,-438.37 2786.27,-438.37"/>
</g>
<!-- Node3 -->
<g id="node3" class="node">
<title>Node3</title>
<g id="a_node3"><a xlink:href="event_8h.html" target="_top" xlink:title=" ">
<polygon fill="white" stroke="black" points="718.27,-336.5 718.27,-355.5 1047.27,-355.5 1047.27,-336.5 718.27,-336.5"/>
<text text-anchor="middle" x="882.77" y="-343.5" font-family="Helvetica,sans-Serif" font-size="10.00">/home/runner/work/gauri/gauri/gauri/include/gauri/event/event.h</text>
</a>
</g>
</g>
<!-- Node2&#45;&gt;Node3 -->
<g id="edge2" class="edge">
<title>Node2&#45;&gt;Node3</title>
<path fill="none" stroke="midnightblue" d="M1485.67,-391.72C1348.51,-381.55 1130.29,-365.36 997.42,-355.5"/>
<polygon fill="midnightblue" stroke="midnightblue" points="1485.58,-395.22 1495.81,-392.47 1486.1,-388.24 1485.58,-395.22"/>
</g>
<!-- Node7 -->
<g id="node7" class="node">
<title>Node7</title>
<g id="a_node7"><a xlink:href="layer_8h.html" target="_top" xlink:title=" ">
<polygon fill="white" stroke="black" points="1340.77,-280.5 1340.77,-299.5 1634.77,-299.5 1634.77,-280.5 1340.77,-280.5"/>
<text text-anchor="middle" x="1487.77" y="-287.5" font-family="Helvetica,sans-Serif" font-size="10.00">/home/runner/work/gauri/gauri/gauri/include/gauri/layer.h</text>
</a>
</g>
</g>
<!-- Node2&#45;&gt;Node7 -->
<g id="edge20" class="edge">
<title>Node2&#45;&gt;Node7</title>
<path fill="none" stroke="midnightblue" d="M1593.45,-385.51C1567.17,-362.01 1518.08,-318.11 1497.37,-299.59"/>
<polygon fill="midnightblue" stroke="midnightblue" points="1591.33,-388.31 1601.12,-392.37 1595.99,-383.09 1591.33,-388.31"/>
</g>
<!-- Node9 -->
<g id="node9" class="node">
<title>Node9</title>
<g id="a_node9"><a xlink:href="layer__stack_8h.html" target="_top" xlink:title=" ">
<polygon fill="white" stroke="black" points="964.77,-224.5 964.77,-243.5 1290.77,-243.5 1290.77,-224.5 964.77,-224.5"/>
<text text-anchor="middle" x="1127.77" y="-231.5" font-family="Helvetica,sans-Serif" font-size="10.00">/home/runner/work/gauri/gauri/gauri/include/gauri/layer_stack.h</text>
</a>
</g>
</g>
<!-- Node2&#45;&gt;Node9 -->
<g id="edge21" class="edge">
<title>Node2&#45;&gt;Node9</title>
<path fill="none" stroke="midnightblue" d="M1576.1,-389.08C1483.59,-357.29 1232.51,-271 1152.57,-243.52"/>
<polygon fill="midnightblue" stroke="midnightblue" points="1575.22,-392.48 1585.82,-392.42 1577.5,-385.86 1575.22,-392.48"/>
</g>
<!-- Node12 -->
<g id="node12" class="node">
<title>Node12</title>
<g id="a_node12"><a xlink:href="input_8h.html" target="_top" xlink:title=" ">
<polygon fill="white" stroke="black" points="84.27,-336.5 84.27,-355.5 379.27,-355.5 379.27,-336.5 84.27,-336.5"/>
<text text-anchor="middle" x="231.77" y="-343.5" font-family="Helvetica,sans-Serif" font-size="10.00">/home/runner/work/gauri/gauri/gauri/include/gauri/input.h</text>
</a>
</g>
</g>
<!-- Node2&#45;&gt;Node12 -->
<g id="edge17" class="edge">
<title>Node2&#45;&gt;Node12</title>
<path fill="none" stroke="midnightblue" d="M1454.94,-394.9C1186.78,-384.4 641.63,-363.05 379.3,-352.78"/>
<polygon fill="midnightblue" stroke="midnightblue" points="1455.02,-398.4 1465.15,-395.3 1455.29,-391.41 1455.02,-398.4"/>
</g>
<!-- Node2&#45;&gt;Node14 -->
<g id="edge22" class="edge">
<title>Node2&#45;&gt;Node14</title>
<path fill="none" stroke="midnightblue" d="M1766.57,-393.86C1987.34,-383.75 2389.74,-365.32 2618.6,-354.84"/>
<polygon fill="midnightblue" stroke="midnightblue" points="1766.35,-390.37 1756.52,-394.32 1766.67,-397.36 1766.35,-390.37"/>
</g>
<!-- Node22 -->
<g id="node22" class="node">
<title>Node22</title>
<g id="a_node22"><a xlink:href="shader_8h.html" target="_top" xlink:title=" ">
<polygon fill="white" stroke="black" points="1559.27,-168.5 1559.27,-187.5 1906.27,-187.5 1906.27,-168.5 1559.27,-168.5"/>
<text text-anchor="middle" x="1732.77" y="-175.5" font-family="Helvetica,sans-Serif" font-size="10.00">/home/runner/work/gauri/gauri/gauri/include/gauri/renderer/shader.h</text>
</a>
</g>
</g>
<!-- Node2&#45;&gt;Node22 -->
<g id="edge36" class="edge">
<title>Node2&#45;&gt;Node22</title>
<path fill="none" stroke="midnightblue" d="M1623.14,-383.82C1643.04,-355.64 1682.59,-297.39 1708.77,-244 1718.3,-224.56 1726.29,-200.32 1730.2,-187.64"/>
<polygon fill="midnightblue" stroke="midnightblue" points="1620.14,-382 1617.19,-392.17 1625.84,-386.06 1620.14,-382"/>
</g>
<!-- Node24 -->
<g id="node24" class="node">
<title>Node24</title>
<g id="a_node24"><a xlink:href="texture_8h.html" target="_top" xlink:title=" ">
<polygon fill="white" stroke="black" points="1760.77,-336.5 1760.77,-355.5 2110.77,-355.5 2110.77,-336.5 1760.77,-336.5"/>
<text text-anchor="middle" x="1935.77" y="-343.5" font-family="Helvetica,sans-Serif" font-size="10.00">/home/runner/work/gauri/gauri/gauri/include/gauri/renderer/texture.h</text>
</a>
</g>
</g>
<!-- Node2&#45;&gt;Node24 -->
<g id="edge40" class="edge">
<title>Node2&#45;&gt;Node24</title>
<path fill="none" stroke="midnightblue" d="M1672.21,-390.79C1733.62,-380.59 1826.96,-365.08 1884.51,-355.52"/>
<polygon fill="midnightblue" stroke="midnightblue" points="1671.56,-387.35 1662.26,-392.44 1672.7,-394.26 1671.56,-387.35"/>
</g>
<!-- Node4 -->
<g id="node4" class="node">
<title>Node4</title>
<g id="a_node4"><a xlink:href="application_8h.html" target="_top" xlink:title=" ">
<polygon fill="white" stroke="black" points="965.77,-168.5 965.77,-187.5 1289.77,-187.5 1289.77,-168.5 965.77,-168.5"/>
<text text-anchor="middle" x="1127.77" y="-175.5" font-family="Helvetica,sans-Serif" font-size="10.00">/home/runner/work/gauri/gauri/gauri/include/gauri/application.h</text>
</a>
</g>
</g>
<!-- Node3&#45;&gt;Node4 -->
<g id="edge3" class="edge">
<title>Node3&#45;&gt;Node4</title>
<path fill="none" stroke="midnightblue" d="M707.93,-339.04C577.8,-328.52 433.98,-300.09 504.77,-224 535.61,-190.85 791.33,-181.8 965.41,-179.52"/>
<polygon fill="midnightblue" stroke="midnightblue" points="707.83,-342.54 718.07,-339.83 708.37,-335.56 707.83,-342.54"/>
</g>
<!-- Node3&#45;&gt;Node7 -->
<g id="edge7" class="edge">
<title>Node3&#45;&gt;Node7</title>
<path fill="none" stroke="midnightblue" d="M988.44,-335.57C1102.43,-325.39 1282.34,-309.34 1392.24,-299.53"/>
<polygon fill="midnightblue" stroke="midnightblue" points="987.95,-332.1 978.3,-336.47 988.57,-339.07 987.95,-332.1"/>
</g>
<!-- Node10 -->
<g id="node10" class="node">
<title>Node10</title>
<g id="a_node10"><a xlink:href="window_8h.html" target="_top" xlink:title=" ">
<polygon fill="white" stroke="black" points="584.27,-280.5 584.27,-299.5 891.27,-299.5 891.27,-280.5 584.27,-280.5"/>
<text text-anchor="middle" x="737.77" y="-287.5" font-family="Helvetica,sans-Serif" font-size="10.00">/home/runner/work/gauri/gauri/gauri/include/gauri/window.h</text>
</a>
</g>
</g>
<!-- Node3&#45;&gt;Node10 -->
<g id="edge14" class="edge">
<title>Node3&#45;&gt;Node10</title>
<path fill="none" stroke="midnightblue" d="M850.29,-332.91C823.03,-322.75 784.77,-308.51 760.64,-299.52"/>
<polygon fill="midnightblue" stroke="midnightblue" points="849.2,-336.23 859.79,-336.44 851.64,-329.67 849.2,-336.23"/>
</g>
<!-- Node4&#45;&gt;Node5 -->
<g id="edge4" class="edge">
<title>Node4&#45;&gt;Node5</title>
<path fill="none" stroke="midnightblue" d="M1170.95,-165.95C1229.76,-151.32 1338.52,-125.78 1432.77,-112 1577.4,-90.86 1744.63,-79.04 1858.23,-72.88"/>
<polygon fill="midnightblue" stroke="midnightblue" points="1169.76,-162.64 1160.91,-168.46 1171.46,-169.43 1169.76,-162.64"/>
</g>
<!-- Node6 -->
<g id="node6" class="node">
<title>Node6</title>
<g id="a_node6"><a xlink:href="entry__point_8h.html" target="_top" xlink:title=" ">
<polygon fill="white" stroke="black" points="1828.77,-0.5 1828.77,-19.5 2154.77,-19.5 2154.77,-0.5 1828.77,-0.5"/>
<text text-anchor="middle" x="1991.77" y="-7.5" font-family="Helvetica,sans-Serif" font-size="10.00">/home/runner/work/gauri/gauri/gauri/include/gauri/entry_point.h</text>
</a>
</g>
</g>
<!-- Node5&#45;&gt;Node6 -->
<g id="edge5" class="edge">
<title>Node5&#45;&gt;Node6</title>
<path fill="none" stroke="midnightblue" d="M1985.29,-46.1C1984.66,-37.14 1985.11,-26.86 1986.64,-19.75"/>
<polygon fill="midnightblue" stroke="midnightblue" points="1981.83,-46.62 1986.6,-56.08 1988.77,-45.71 1981.83,-46.62"/>
</g>
<!-- Node6&#45;&gt;Node5 -->
<g id="edge6" class="edge">
<title>Node6&#45;&gt;Node5</title>
<path fill="none" stroke="midnightblue" d="M1998.22,-29.69C1998.87,-38.64 1998.44,-48.93 1996.93,-56.08"/>
<polygon fill="midnightblue" stroke="midnightblue" points="2001.69,-29.2 1996.9,-19.75 1994.75,-30.13 2001.69,-29.2"/>
</g>
<!-- Node7&#45;&gt;Node5 -->
<g id="edge13" class="edge">
<title>Node7&#45;&gt;Node5</title>
<path fill="none" stroke="midnightblue" d="M1573.19,-278.92C1616.46,-271.87 1662.61,-260.68 1675.77,-244 1681.27,-237.02 1681.11,-231.1 1675.77,-224 1641,-177.81 1593.82,-226.59 1550.77,-188 1524.49,-164.45 1504.05,-138.13 1527.77,-112 1549.75,-87.79 1728.92,-76.21 1858.04,-70.97"/>
<polygon fill="midnightblue" stroke="midnightblue" points="1572.48,-275.49 1563.14,-280.49 1573.56,-282.4 1572.48,-275.49"/>
</g>
<!-- Node8 -->
<g id="node8" class="node">
<title>Node8</title>
<g id="a_node8"><a xlink:href="imgui__layer_8h.html" target="_top" xlink:title=" ">
<polygon fill="white" stroke="black" points="1308.77,-224.5 1308.77,-243.5 1666.77,-243.5 1666.77,-224.5 1308.77,-224.5"/>
<text text-anchor="middle" x="1487.77" y="-231.5" font-family="Helvetica,sans-Serif" font-size="10.00">/home/runner/work/gauri/gauri/gauri/include/gauri/imgui/imgui_layer.h</text>
</a>
</g>
</g>
<!-- Node7&#45;&gt;Node8 -->
<g id="edge8" class="edge">
<title>Node7&#45;&gt;Node8</title>
<path fill="none" stroke="midnightblue" d="M1487.77,-269.8C1487.77,-260.91 1487.77,-250.78 1487.77,-243.75"/>
<polygon fill="midnightblue" stroke="midnightblue" points="1484.27,-270.08 1487.77,-280.08 1491.27,-270.08 1484.27,-270.08"/>
</g>
<!-- Node7&#45;&gt;Node9 -->
<g id="edge11" class="edge">
<title>Node7&#45;&gt;Node9</title>
<path fill="none" stroke="midnightblue" d="M1420.54,-278.92C1352.53,-268.71 1248.55,-253.12 1184.54,-243.52"/>
<polygon fill="midnightblue" stroke="midnightblue" points="1420.32,-282.42 1430.72,-280.44 1421.35,-275.5 1420.32,-282.42"/>
</g>
<!-- Node8&#45;&gt;Node4 -->
<g id="edge9" class="edge">
<title>Node8&#45;&gt;Node4</title>
<path fill="none" stroke="midnightblue" d="M1420.54,-222.92C1352.53,-212.71 1248.55,-197.12 1184.54,-187.52"/>
<polygon fill="midnightblue" stroke="midnightblue" points="1420.32,-226.42 1430.72,-224.44 1421.35,-219.5 1420.32,-226.42"/>
</g>
<!-- Node8&#45;&gt;Node5 -->
<g id="edge10" class="edge">
<title>Node8&#45;&gt;Node5</title>
<path fill="none" stroke="midnightblue" d="M1477.56,-215.2C1464.05,-189.05 1444.81,-140.29 1470.77,-112 1496.52,-83.92 1712.54,-73.32 1858.21,-69.34"/>
<polygon fill="midnightblue" stroke="midnightblue" points="1474.66,-217.21 1482.51,-224.32 1480.81,-213.86 1474.66,-217.21"/>
</g>
<!-- Node9&#45;&gt;Node4 -->
<g id="edge12" class="edge">
<title>Node9&#45;&gt;Node4</title>
<path fill="none" stroke="midnightblue" d="M1127.77,-213.8C1127.77,-204.91 1127.77,-194.78 1127.77,-187.75"/>
<polygon fill="midnightblue" stroke="midnightblue" points="1124.27,-214.08 1127.77,-224.08 1131.27,-214.08 1124.27,-214.08"/>
</g>
<!-- Node10&#45;&gt;Node4 -->
<g id="edge15" class="edge">
<title>Node10&#45;&gt;Node4</title>
<path fill="none" stroke="midnightblue" d="M574.07,-280.24C524.89,-271.65 490.79,-255.2 519.77,-224 549.61,-191.86 795.69,-182.48 965.48,-179.85"/>
<polygon fill="midnightblue" stroke="midnightblue" points="573.66,-283.72 584.09,-281.85 574.77,-276.81 573.66,-283.72"/>
</g>
<!-- Node11 -->
<g id="node11" class="node">
<title>Node11</title>
<g id="a_node11"><a xlink:href="windows__window_8h.html" target="_top" xlink:title=" ">
<polygon fill="white" stroke="black" points="528.77,-224.5 528.77,-243.5 946.77,-243.5 946.77,-224.5 528.77,-224.5"/>
<text text-anchor="middle" x="737.77" y="-231.5" font-family="Helvetica,sans-Serif" font-size="10.00">/home/runner/work/gauri/gauri/gauri/include/platform/windows/windows_window.h</text>
</a>
</g>
</g>
<!-- Node10&#45;&gt;Node11 -->
<g id="edge16" class="edge">
<title>Node10&#45;&gt;Node11</title>
<path fill="none" stroke="midnightblue" d="M737.77,-269.8C737.77,-260.91 737.77,-250.78 737.77,-243.75"/>
<polygon fill="midnightblue" stroke="midnightblue" points="734.27,-270.08 737.77,-280.08 741.27,-270.08 734.27,-270.08"/>
</g>
<!-- Node12&#45;&gt;Node5 -->
<g id="edge18" class="edge">
<title>Node12&#45;&gt;Node5</title>
<path fill="none" stroke="midnightblue" d="M141.06,-335.08C91.93,-327.94 37.67,-316.61 19.77,-300 -2.3,-279.53 0.77,-265.1 0.77,-235 0.77,-235 0.77,-235 0.77,-177 0.77,-83.75 1411.63,-69.55 1858.04,-67.39"/>
<polygon fill="midnightblue" stroke="midnightblue" points="140.74,-338.57 151.13,-336.5 141.72,-331.64 140.74,-338.57"/>
</g>
<!-- Node13 -->
<g id="node13" class="node">
<title>Node13</title>
<g id="a_node13"><a xlink:href="windows__input_8h.html" target="_top" xlink:title=" ">
<polygon fill="white" stroke="black" points="28.77,-280.5 28.77,-299.5 434.77,-299.5 434.77,-280.5 28.77,-280.5"/>
<text text-anchor="middle" x="231.77" y="-287.5" font-family="Helvetica,sans-Serif" font-size="10.00">/home/runner/work/gauri/gauri/gauri/include/platform/windows/windows_input.h</text>
</a>
</g>
</g>
<!-- Node12&#45;&gt;Node13 -->
<g id="edge19" class="edge">
<title>Node12&#45;&gt;Node13</title>
<path fill="none" stroke="midnightblue" d="M231.77,-325.8C231.77,-316.91 231.77,-306.78 231.77,-299.75"/>
<polygon fill="midnightblue" stroke="midnightblue" points="228.27,-326.08 231.77,-336.08 235.27,-326.08 228.27,-326.08"/>
</g>
<!-- Node14&#45;&gt;Node5 -->
<g id="edge34" class="edge">
<title>Node14&#45;&gt;Node5</title>
<path fill="none" stroke="midnightblue" d="M2856.6,-334.28C2908.46,-322.06 2977.03,-296.51 3010.77,-244 3015.57,-236.52 3015.34,-231.62 3010.77,-224 2944.35,-113.3 2869.4,-137.06 2742.77,-112 2628.49,-89.38 2308.86,-76.44 2125.52,-70.66"/>
<polygon fill="midnightblue" stroke="midnightblue" points="2855.78,-330.87 2846.79,-336.48 2857.32,-337.7 2855.78,-330.87"/>
</g>
<!-- Node15 -->
<g id="node15" class="node">
<title>Node15</title>
<g id="a_node15"><a xlink:href="vertex__array_8h.html" target="_top" xlink:title=" ">
<polygon fill="white" stroke="black" points="2429.27,-280.5 2429.27,-299.5 2804.27,-299.5 2804.27,-280.5 2429.27,-280.5"/>
<text text-anchor="middle" x="2616.77" y="-287.5" font-family="Helvetica,sans-Serif" font-size="10.00">/home/runner/work/gauri/gauri/gauri/include/gauri/renderer/vertex_array.h</text>
</a>
</g>
</g>
<!-- Node14&#45;&gt;Node15 -->
<g id="edge23" class="edge">
<title>Node14&#45;&gt;Node15</title>
<path fill="none" stroke="midnightblue" d="M2752.72,-333.44C2720.1,-323.26 2673.36,-308.66 2644.05,-299.52"/>
<polygon fill="midnightblue" stroke="midnightblue" points="2751.77,-336.8 2762.35,-336.44 2753.85,-330.12 2751.77,-336.8"/>
</g>
<!-- Node21 -->
<g id="node21" class="node">
<title>Node21</title>
<g id="a_node21"><a xlink:href="opengl__buffer_8h.html" target="_top" xlink:title=" ">
<polygon fill="white" stroke="black" points="2992.27,-280.5 2992.27,-299.5 3381.27,-299.5 3381.27,-280.5 2992.27,-280.5"/>
<text text-anchor="middle" x="3186.77" y="-287.5" font-family="Helvetica,sans-Serif" font-size="10.00">/home/runner/work/gauri/gauri/gauri/include/platform/opengl/opengl_buffer.h</text>
</a>
</g>
</g>
<!-- Node14&#45;&gt;Node21 -->
<g id="edge35" class="edge">
<title>Node14&#45;&gt;Node21</title>
<path fill="none" stroke="midnightblue" d="M2862.98,-335.04C2937.96,-324.84 3053.28,-309.16 3124.16,-299.52"/>
<polygon fill="midnightblue" stroke="midnightblue" points="2862.11,-331.63 2852.67,-336.44 2863.05,-338.56 2862.11,-331.63"/>
</g>
<!-- Node15&#45;&gt;Node5 -->
<g id="edge32" class="edge">
<title>Node15&#45;&gt;Node5</title>
<path fill="none" stroke="midnightblue" d="M2594.46,-274.24C2576.51,-260.58 2556.44,-240.04 2570.77,-224 2665.83,-117.61 2794.7,-294.39 2889.77,-188 2895.69,-181.37 2895.5,-174.79 2889.77,-168 2841.32,-110.67 2363.47,-82.61 2125.29,-72.1"/>
<polygon fill="midnightblue" stroke="midnightblue" points="2592.78,-277.34 2602.94,-280.34 2596.87,-271.66 2592.78,-277.34"/>
</g>
<!-- Node16 -->
<g id="node16" class="node">
<title>Node16</title>
<g id="a_node16"><a xlink:href="renderer__api_8h.html" target="_top" xlink:title=" ">
<polygon fill="white" stroke="black" points="2147.77,-224.5 2147.77,-243.5 2523.77,-243.5 2523.77,-224.5 2147.77,-224.5"/>
<text text-anchor="middle" x="2335.77" y="-231.5" font-family="Helvetica,sans-Serif" font-size="10.00">/home/runner/work/gauri/gauri/gauri/include/gauri/renderer/renderer_api.h</text>
</a>
</g>
</g>
<!-- Node15&#45;&gt;Node16 -->
<g id="edge24" class="edge">
<title>Node15&#45;&gt;Node16</title>
<path fill="none" stroke="midnightblue" d="M2562.32,-278.54C2509.21,-268.33 2429.43,-253 2380.08,-243.52"/>
<polygon fill="midnightblue" stroke="midnightblue" points="2561.76,-281.99 2572.24,-280.44 2563.08,-275.12 2561.76,-281.99"/>
</g>
<!-- Node20 -->
<g id="node20" class="node">
<title>Node20</title>
<g id="a_node20"><a xlink:href="opengl__vertex__array_8h.html" target="_top" xlink:title=" ">
<polygon fill="white" stroke="black" points="2579.77,-224.5 2579.77,-243.5 3001.77,-243.5 3001.77,-224.5 2579.77,-224.5"/>
<text text-anchor="middle" x="2790.77" y="-231.5" font-family="Helvetica,sans-Serif" font-size="10.00">/home/runner/work/gauri/gauri/gauri/include/platform/opengl/opengl_vertex_array.h</text>
</a>
</g>
</g>
<!-- Node15&#45;&gt;Node20 -->
<g id="edge33" class="edge">
<title>Node15&#45;&gt;Node20</title>
<path fill="none" stroke="midnightblue" d="M2654.03,-277.44C2686.83,-267.26 2733.85,-252.66 2763.33,-243.52"/>
<polygon fill="midnightblue" stroke="midnightblue" points="2652.85,-274.14 2644.34,-280.44 2654.93,-280.82 2652.85,-274.14"/>
</g>
<!-- Node16&#45;&gt;Node5 -->
<g id="edge30" class="edge">
<title>Node16&#45;&gt;Node5</title>
<path fill="none" stroke="midnightblue" d="M2200.1,-223.63C2110.43,-216.01 2006.86,-203.93 1992.77,-188 1985.39,-179.66 1989.55,-102.15 1991.19,-75.76"/>
<polygon fill="midnightblue" stroke="midnightblue" points="2199.87,-227.12 2210.13,-224.46 2200.45,-220.14 2199.87,-227.12"/>
</g>
<!-- Node17 -->
<g id="node17" class="node">
<title>Node17</title>
<g id="a_node17"><a xlink:href="render__command_8h.html" target="_top" xlink:title=" ">
<polygon fill="white" stroke="black" points="2480.77,-168.5 2480.77,-187.5 2880.77,-187.5 2880.77,-168.5 2480.77,-168.5"/>
<text text-anchor="middle" x="2680.77" y="-175.5" font-family="Helvetica,sans-Serif" font-size="10.00">/home/runner/work/gauri/gauri/gauri/include/gauri/renderer/render_command.h</text>
</a>
</g>
</g>
<!-- Node16&#45;&gt;Node17 -->
<g id="edge25" class="edge">
<title>Node16&#45;&gt;Node17</title>
<path fill="none" stroke="midnightblue" d="M2400.59,-222.85C2465.77,-212.65 2565.14,-197.1 2626.36,-187.52"/>
<polygon fill="midnightblue" stroke="midnightblue" points="2399.77,-219.44 2390.43,-224.44 2400.85,-226.35 2399.77,-219.44"/>
</g>
<!-- Node18 -->
<g id="node18" class="node">
<title>Node18</title>
<g id="a_node18"><a xlink:href="renderer_8h.html" target="_top" xlink:title=" ">
<polygon fill="white" stroke="black" points="2150.27,-112.5 2150.27,-131.5 2505.27,-131.5 2505.27,-112.5 2150.27,-112.5"/>
<text text-anchor="middle" x="2327.77" y="-119.5" font-family="Helvetica,sans-Serif" font-size="10.00">/home/runner/work/gauri/gauri/gauri/include/gauri/renderer/renderer.h</text>
</a>
</g>
</g>
<!-- Node16&#45;&gt;Node18 -->
<g id="edge29" class="edge">
<title>Node16&#45;&gt;Node18</title>
<path fill="none" stroke="midnightblue" d="M2382.04,-221.58C2414.91,-211.07 2450.48,-193.26 2433.77,-168 2421.13,-148.91 2398.6,-137.9 2377.54,-131.55"/>
<polygon fill="midnightblue" stroke="midnightblue" points="2381,-218.24 2372.44,-224.48 2383.03,-224.94 2381,-218.24"/>
</g>
<!-- Node19 -->
<g id="node19" class="node">
<title>Node19</title>
<g id="a_node19"><a xlink:href="opengl__renderer__api_8h.html" target="_top" xlink:title=" ">
<polygon fill="white" stroke="black" points="2001.27,-168.5 2001.27,-187.5 2424.27,-187.5 2424.27,-168.5 2001.27,-168.5"/>
<text text-anchor="middle" x="2212.77" y="-175.5" font-family="Helvetica,sans-Serif" font-size="10.00">/home/runner/work/gauri/gauri/gauri/include/platform/opengl/opengl_renderer_api.h</text>
</a>
</g>
</g>
<!-- Node16&#45;&gt;Node19 -->
<g id="edge31" class="edge">
<title>Node16&#45;&gt;Node19</title>
<path fill="none" stroke="midnightblue" d="M2306.99,-220.37C2283.96,-210.26 2252.28,-196.35 2232.17,-187.52"/>
<polygon fill="midnightblue" stroke="midnightblue" points="2305.71,-223.63 2316.28,-224.44 2308.53,-217.22 2305.71,-223.63"/>
</g>
<!-- Node17&#45;&gt;Node5 -->
<g id="edge28" class="edge">
<title>Node17&#45;&gt;Node5</title>
<path fill="none" stroke="midnightblue" d="M2654.71,-164.08C2622.64,-148.82 2566.12,-124 2514.77,-112 2384.65,-81.6 2232.01,-71.26 2125.34,-67.98"/>
<polygon fill="midnightblue" stroke="midnightblue" points="2653.32,-167.29 2663.85,-168.48 2656.36,-160.98 2653.32,-167.29"/>
</g>
<!-- Node17&#45;&gt;Node18 -->
<g id="edge26" class="edge">
<title>Node17&#45;&gt;Node18</title>
<path fill="none" stroke="midnightblue" d="M2614.85,-166.92C2548.16,-156.71 2446.2,-141.12 2383.44,-131.52"/>
<polygon fill="midnightblue" stroke="midnightblue" points="2614.42,-170.39 2624.83,-168.44 2615.48,-163.47 2614.42,-170.39"/>
</g>
<!-- Node18&#45;&gt;Node5 -->
<g id="edge27" class="edge">
<title>Node18&#45;&gt;Node5</title>
<path fill="none" stroke="midnightblue" d="M2264.63,-110.85C2201.15,-100.65 2104.38,-85.1 2044.76,-75.52"/>
<polygon fill="midnightblue" stroke="midnightblue" points="2264.1,-114.31 2274.53,-112.44 2265.21,-107.4 2264.1,-114.31"/>
</g>
<!-- Node22&#45;&gt;Node5 -->
<g id="edge38" class="edge">
<title>Node22&#45;&gt;Node5</title>
<path fill="none" stroke="midnightblue" d="M1598.26,-166.76C1550.58,-158.04 1514.72,-141.89 1541.77,-112 1562.82,-88.73 1733.09,-76.98 1857.98,-71.43"/>
<polygon fill="midnightblue" stroke="midnightblue" points="1597.82,-170.24 1608.27,-168.46 1598.99,-163.34 1597.82,-170.24"/>
</g>
<!-- Node22&#45;&gt;Node18 -->
<g id="edge37" class="edge">
<title>Node22&#45;&gt;Node18</title>
<path fill="none" stroke="midnightblue" d="M1836.69,-167.57C1948.8,-157.39 2125.74,-141.34 2233.82,-131.53"/>
<polygon fill="midnightblue" stroke="midnightblue" points="1836.36,-164.08 1826.72,-168.47 1836.99,-171.06 1836.36,-164.08"/>
</g>
<!-- Node23 -->
<g id="node23" class="node">
<title>Node23</title>
<g id="a_node23"><a xlink:href="opengl__shader_8h.html" target="_top" xlink:title=" ">
<polygon fill="white" stroke="black" points="1550.77,-112.5 1550.77,-131.5 1944.77,-131.5 1944.77,-112.5 1550.77,-112.5"/>
<text text-anchor="middle" x="1747.77" y="-119.5" font-family="Helvetica,sans-Serif" font-size="10.00">/home/runner/work/gauri/gauri/gauri/include/platform/opengl/opengl_shader.h</text>
</a>
</g>
</g>
<!-- Node22&#45;&gt;Node23 -->
<g id="edge39" class="edge">
<title>Node22&#45;&gt;Node23</title>
<path fill="none" stroke="midnightblue" d="M1737.93,-158.4C1740.44,-149.36 1743.34,-138.94 1745.34,-131.75"/>
<polygon fill="midnightblue" stroke="midnightblue" points="1734.55,-157.51 1735.24,-168.08 1741.29,-159.38 1734.55,-157.51"/>
</g>
<!-- Node24&#45;&gt;Node5 -->
<g id="edge41" class="edge">
<title>Node24&#45;&gt;Node5</title>
<path fill="none" stroke="midnightblue" d="M1939.52,-326.39C1950.5,-271.88 1982.3,-113.99 1990.05,-75.52"/>
<polygon fill="midnightblue" stroke="midnightblue" points="1936.05,-325.88 1937.5,-336.38 1942.91,-327.26 1936.05,-325.88"/>
</g>
<!-- Node25 -->
<g id="node25" class="node">
<title>Node25</title>
<g id="a_node25"><a xlink:href="opengl__texture_8h.html" target="_top" xlink:title=" ">
<polygon fill="white" stroke="black" points="1962.27,-280.5 1962.27,-299.5 2359.27,-299.5 2359.27,-280.5 1962.27,-280.5"/>
<text text-anchor="middle" x="2160.77" y="-287.5" font-family="Helvetica,sans-Serif" font-size="10.00">/home/runner/work/gauri/gauri/gauri/include/platform/opengl/opengl_texture.h</text>
</a>
</g>
</g>
<!-- Node24&#45;&gt;Node25 -->
<g id="edge42" class="edge">
<title>Node24&#45;&gt;Node25</title>
<path fill="none" stroke="midnightblue" d="M1981.23,-334.09C2023.74,-323.89 2086.35,-308.86 2125.28,-299.52"/>
<polygon fill="midnightblue" stroke="midnightblue" points="1980.33,-330.71 1971.42,-336.44 1981.96,-337.51 1980.33,-330.71"/>
</g>
</g>
</svg>
        <g id="navigator" transform="translate(0 0)" fill="#404254">
                <rect fill="#f2f5e9" fill-opacity="0.5" stroke="#606060" stroke-width=".5" x="0" y="0" width="60" height="60"/>
                <use id="zoomplus" xlink:href="#zoomPlus" x="17" y="9" onmousedown="handleZoom(evt,'in')"/>
                <use id="zoomminus" xlink:href="#zoomMin" x="42" y="9" onmousedown="handleZoom(evt,'out')"/>
                <use id="reset" xlink:href="#resetDef" x="30" y="36" onmousedown="handleReset()"/>
                <g id="arrowUp" xlink:href="#dirArrow" transform="translate(30 24)" onmousedown="handlePan(0,-1)">
                  <use xlink:href="#rim" fill="#404040">
                        <set attributeName="fill" to="#808080" begin="arrowUp.mouseover" end="arrowUp.mouseout"/>
                  </use>
                  <path fill="none" stroke="white" stroke-width="1.5" d="M0,-3.0v7 M-2.5,-0.5L0,-3.0L2.5,-0.5"/>
                </g>
                <g id="arrowRight" xlink:href="#dirArrow" transform="rotate(90) translate(36 -43)" onmousedown="handlePan(1,0)">
                  <use xlink:href="#rim" fill="#404040">
                        <set attributeName="fill" to="#808080" begin="arrowRight.mouseover" end="arrowRight.mouseout"/>
                  </use>
                  <path fill="none" stroke="white" stroke-width="1.5" d="M0,-3.0v7 M-2.5,-0.5L0,-3.0L2.5,-0.5"/>
                </g>
                <g id="arrowDown" xlink:href="#dirArrow" transform="rotate(180) translate(-30 -48)" onmousedown="handlePan(0,1)">
                  <use xlink:href="#rim" fill="#404040">
                        <set attributeName="fill" to="#808080" begin="arrowDown.mouseover" end="arrowDown.mouseout"/>
                  </use>
                  <path fill="none" stroke="white" stroke-width="1.5" d="M0,-3.0v7 M-2.5,-0.5L0,-3.0L2.5,-0.5"/>
                </g>
                <g id="arrowLeft" xlink:href="#dirArrow" transform="rotate(270) translate(-36 17)" onmousedown="handlePan(-1,0)">
                  <use xlink:href="#rim" fill="#404040">
                        <set attributeName="fill" to="#808080" begin="arrowLeft.mouseover" end="arrowLeft.mouseout"/>
                  </use>
                  <path fill="none" stroke="white" stroke-width="1.5" d="M0,-3.0v7 M-2.5,-0.5L0,-3.0L2.5,-0.5"/>
                </g>
        </g>
        <svg viewBox="0 0 15 15" width="100%" height="30px" preserveAspectRatio="xMaxYMin meet">
         <g id="arrow_out" transform="scale(0.3 0.3)">
          <a xlink:href="logger_8h__dep__incl_org.svg" target="_base">
           <rect id="button" ry="5" rx="5" y="6" x="6" height="38" width="38"
                fill="#f2f5e9" fill-opacity="0.5" stroke="#606060" stroke-width="1.0"/>
           <path id="arrow"
             d="M 11.500037,31.436501 C 11.940474,20.09759 22.043105,11.32322 32.158766,21.979434 L 37.068811,17.246167 C 37.068811,17.246167 37.088388,32 37.088388,32 L 22.160133,31.978069 C 22.160133,31.978069 26.997745,27.140456 26.997745,27.140456 C 18.528582,18.264221 13.291696,25.230495 11.500037,31.436501 z"
             style="fill:#404040;"/>
          </a>
         </g>
        </svg>
</svg>
