<?xml version="1.0" encoding="UTF-8" standalone="no"?>
<!DOCTYPE svg PUBLIC "-//W3C//DTD SVG 1.1//EN"
 "http://www.w3.org/Graphics/SVG/1.1/DTD/svg11.dtd">
<!-- Generated by graphviz version 2.43.0 (0)
 -->
<!-- Title: /home/runner/work/gauri/gauri/gauri/include/platform/opengl/opengl_vertex_array.h Pages: 1 -->
<svg width="524pt" height="308pt"
 viewBox="0.00 0.00 523.50 308.00" xmlns="http://www.w3.org/2000/svg" xmlns:xlink="http://www.w3.org/1999/xlink">
<g id="graph0" class="graph" transform="scale(1 1) rotate(0) translate(4 304)">
<title>/home/runner/work/gauri/gauri/gauri/include/platform/opengl/opengl_vertex_array.h</title>
<polygon fill="white" stroke="transparent" points="-4,4 -4,-304 519.5,-304 519.5,4 -4,4"/>
<!-- Node1 -->
<g id="node1" class="node">
<title>Node1</title>
<g id="a_node1"><a xlink:title=" ">
<polygon fill="#bfbfbf" stroke="black" points="0,-280.5 0,-299.5 422,-299.5 422,-280.5 0,-280.5"/>
<text text-anchor="middle" x="211" y="-287.5" font-family="Helvetica,sans-Serif" font-size="10.00">/home/runner/work/gauri/gauri/gauri/include/platform/opengl/opengl_vertex_array.h</text>
</a>
</g>
</g>
<!-- Node2 -->
<g id="node2" class="node">
<title>Node2</title>
<g id="a_node2"><a xlink:href="vertex__array_8h.html" target="_top" xlink:title=" ">
<polygon fill="white" stroke="black" points="132,-224.5 132,-243.5 290,-243.5 290,-224.5 132,-224.5"/>
<text text-anchor="middle" x="211" y="-231.5" font-family="Helvetica,sans-Serif" font-size="10.00">gauri/renderer/vertex_array.h</text>
</a>
</g>
</g>
<!-- Node1&#45;&gt;Node2 -->
<g id="edge1" class="edge">
<title>Node1&#45;&gt;Node2</title>
<path fill="none" stroke="midnightblue" d="M211,-280.08C211,-273.01 211,-262.86 211,-253.99"/>
<polygon fill="midnightblue" stroke="midnightblue" points="214.5,-253.75 211,-243.75 207.5,-253.75 214.5,-253.75"/>
</g>
<!-- Node3 -->
<g id="node3" class="node">
<title>Node3</title>
<g id="a_node3"><a xlink:title=" ">
<polygon fill="white" stroke="#bfbfbf" points="161,-0.5 161,-19.5 219,-19.5 219,-0.5 161,-0.5"/>
<text text-anchor="middle" x="190" y="-7.5" font-family="Helvetica,sans-Serif" font-size="10.00">memory</text>
</a>
</g>
</g>
<!-- Node2&#45;&gt;Node3 -->
<g id="edge2" class="edge">
<title>Node2&#45;&gt;Node3</title>
<path fill="none" stroke="midnightblue" d="M204.37,-224.27C198.23,-215.61 189.54,-201.67 186,-188 171.45,-131.84 180.53,-62.28 186.3,-29.6"/>
<polygon fill="midnightblue" stroke="midnightblue" points="189.76,-30.14 188.16,-19.66 182.88,-28.85 189.76,-30.14"/>
</g>
<!-- Node4 -->
<g id="node4" class="node">
<title>Node4</title>
<g id="a_node4"><a xlink:href="buffer_8h.html" target="_top" xlink:title=" ">
<polygon fill="white" stroke="black" points="194.5,-168.5 194.5,-187.5 319.5,-187.5 319.5,-168.5 194.5,-168.5"/>
<text text-anchor="middle" x="257" y="-175.5" font-family="Helvetica,sans-Serif" font-size="10.00">gauri/renderer/buffer.h</text>
</a>
</g>
</g>
<!-- Node2&#45;&gt;Node4 -->
<g id="edge3" class="edge">
<title>Node2&#45;&gt;Node4</title>
<path fill="none" stroke="midnightblue" d="M218.6,-224.08C225.23,-216.3 235.02,-204.8 243.06,-195.37"/>
<polygon fill="midnightblue" stroke="midnightblue" points="245.73,-197.63 249.55,-187.75 240.4,-193.09 245.73,-197.63"/>
</g>
<!-- Node5 -->
<g id="node5" class="node">
<title>Node5</title>
<g id="a_node5"><a xlink:href="core_8h.html" target="_top" xlink:title=" ">
<polygon fill="white" stroke="black" points="220,-112.5 220,-131.5 294,-131.5 294,-112.5 220,-112.5"/>
<text text-anchor="middle" x="257" y="-119.5" font-family="Helvetica,sans-Serif" font-size="10.00">gauri/core.h</text>
</a>
</g>
</g>
<!-- Node4&#45;&gt;Node5 -->
<g id="edge4" class="edge">
<title>Node4&#45;&gt;Node5</title>
<path fill="none" stroke="midnightblue" d="M257,-168.08C257,-161.01 257,-150.86 257,-141.99"/>
<polygon fill="midnightblue" stroke="midnightblue" points="260.5,-141.75 257,-131.75 253.5,-141.75 260.5,-141.75"/>
</g>
<!-- Node7 -->
<g id="node7" class="node">
<title>Node7</title>
<g id="a_node7"><a xlink:href="logger_8h.html" target="_top" xlink:title=" ">
<polygon fill="white" stroke="black" points="300.5,-56.5 300.5,-75.5 383.5,-75.5 383.5,-56.5 300.5,-56.5"/>
<text text-anchor="middle" x="342" y="-63.5" font-family="Helvetica,sans-Serif" font-size="10.00">gauri/logger.h</text>
</a>
</g>
</g>
<!-- Node4&#45;&gt;Node7 -->
<g id="edge12" class="edge">
<title>Node4&#45;&gt;Node7</title>
<path fill="none" stroke="midnightblue" d="M267.25,-168.36C277.1,-159.75 292.06,-145.85 303,-132 314.7,-117.19 325.53,-98.57 332.8,-85.06"/>
<polygon fill="midnightblue" stroke="midnightblue" points="336.07,-86.35 337.61,-75.87 329.87,-83.1 336.07,-86.35"/>
</g>
<!-- Node5&#45;&gt;Node3 -->
<g id="edge6" class="edge">
<title>Node5&#45;&gt;Node3</title>
<path fill="none" stroke="midnightblue" d="M249.74,-112.37C242.51,-103.54 231.3,-89.29 223,-76 213.48,-60.76 204.36,-42.42 198.13,-29.11"/>
<polygon fill="midnightblue" stroke="midnightblue" points="201.16,-27.31 193.81,-19.68 194.79,-30.23 201.16,-27.31"/>
</g>
<!-- Node6 -->
<g id="node6" class="node">
<title>Node6</title>
<g id="a_node6"><a xlink:title=" ">
<polygon fill="white" stroke="#bfbfbf" points="232,-56.5 232,-75.5 282,-75.5 282,-56.5 232,-56.5"/>
<text text-anchor="middle" x="257" y="-63.5" font-family="Helvetica,sans-Serif" font-size="10.00">cstdint</text>
</a>
</g>
</g>
<!-- Node5&#45;&gt;Node6 -->
<g id="edge5" class="edge">
<title>Node5&#45;&gt;Node6</title>
<path fill="none" stroke="midnightblue" d="M257,-112.08C257,-105.01 257,-94.86 257,-85.99"/>
<polygon fill="midnightblue" stroke="midnightblue" points="260.5,-85.75 257,-75.75 253.5,-85.75 260.5,-85.75"/>
</g>
<!-- Node5&#45;&gt;Node7 -->
<g id="edge7" class="edge">
<title>Node5&#45;&gt;Node7</title>
<path fill="none" stroke="midnightblue" d="M270.66,-112.32C283.92,-103.9 304.27,-90.97 319.85,-81.07"/>
<polygon fill="midnightblue" stroke="midnightblue" points="321.81,-83.97 328.38,-75.65 318.06,-78.06 321.81,-83.97"/>
</g>
<!-- Node7&#45;&gt;Node3 -->
<g id="edge9" class="edge">
<title>Node7&#45;&gt;Node3</title>
<path fill="none" stroke="midnightblue" d="M317.92,-56.44C292.46,-47.4 252.11,-33.06 223.54,-22.92"/>
<polygon fill="midnightblue" stroke="midnightblue" points="224.57,-19.57 213.97,-19.52 222.22,-26.16 224.57,-19.57"/>
</g>
<!-- Node8 -->
<g id="node8" class="node">
<title>Node8</title>
<g id="a_node8"><a xlink:title=" ">
<polygon fill="white" stroke="#bfbfbf" points="237,-0.5 237,-19.5 287,-19.5 287,-0.5 237,-0.5"/>
<text text-anchor="middle" x="262" y="-7.5" font-family="Helvetica,sans-Serif" font-size="10.00">format</text>
</a>
</g>
</g>
<!-- Node7&#45;&gt;Node8 -->
<g id="edge8" class="edge">
<title>Node7&#45;&gt;Node8</title>
<path fill="none" stroke="midnightblue" d="M329.15,-56.32C316.78,-47.98 297.87,-35.21 283.26,-25.35"/>
<polygon fill="midnightblue" stroke="midnightblue" points="285.07,-22.35 274.82,-19.65 281.15,-28.15 285.07,-22.35"/>
</g>
<!-- Node9 -->
<g id="node9" class="node">
<title>Node9</title>
<g id="a_node9"><a xlink:title=" ">
<polygon fill="white" stroke="#bfbfbf" points="305.5,-0.5 305.5,-19.5 404.5,-19.5 404.5,-0.5 305.5,-0.5"/>
<text text-anchor="middle" x="355" y="-7.5" font-family="Helvetica,sans-Serif" font-size="10.00">spdlog/fmt/ostr.h</text>
</a>
</g>
</g>
<!-- Node7&#45;&gt;Node9 -->
<g id="edge10" class="edge">
<title>Node7&#45;&gt;Node9</title>
<path fill="none" stroke="midnightblue" d="M344.15,-56.08C345.87,-48.93 348.35,-38.64 350.5,-29.69"/>
<polygon fill="midnightblue" stroke="midnightblue" points="353.96,-30.29 352.89,-19.75 347.15,-28.65 353.96,-30.29"/>
</g>
<!-- Node10 -->
<g id="node10" class="node">
<title>Node10</title>
<g id="a_node10"><a xlink:title=" ">
<polygon fill="white" stroke="#bfbfbf" points="422.5,-0.5 422.5,-19.5 515.5,-19.5 515.5,-0.5 422.5,-0.5"/>
<text text-anchor="middle" x="469" y="-7.5" font-family="Helvetica,sans-Serif" font-size="10.00">spdlog/spdlog.h</text>
</a>
</g>
</g>
<!-- Node7&#45;&gt;Node10 -->
<g id="edge11" class="edge">
<title>Node7&#45;&gt;Node10</title>
<path fill="none" stroke="midnightblue" d="M362.12,-56.44C383.02,-47.56 415.93,-33.56 439.72,-23.45"/>
<polygon fill="midnightblue" stroke="midnightblue" points="441.14,-26.65 448.97,-19.52 438.4,-20.21 441.14,-26.65"/>
</g>
</g>
</svg>
