<?xml version="1.0" encoding="UTF-8" standalone="no"?>
<!DOCTYPE svg PUBLIC "-//W3C//DTD SVG 1.1//EN"
 "http://www.w3.org/Graphics/SVG/1.1/DTD/svg11.dtd">
<!-- Generated by graphviz version 2.43.0 (0)
 -->
<!-- Title: /home/runner/work/gauri/gauri/gauri/include/platform/opengl/opengl_renderer_api.h Pages: 1 -->
<svg width="606pt" height="364pt"
 viewBox="0.00 0.00 606.00 364.00" xmlns="http://www.w3.org/2000/svg" xmlns:xlink="http://www.w3.org/1999/xlink">
<g id="graph0" class="graph" transform="scale(1 1) rotate(0) translate(4 360)">
<title>/home/runner/work/gauri/gauri/gauri/include/platform/opengl/opengl_renderer_api.h</title>
<polygon fill="white" stroke="transparent" points="-4,4 -4,-360 602,-360 602,4 -4,4"/>
<!-- Node1 -->
<g id="node1" class="node">
<title>Node1</title>
<g id="a_node1"><a xlink:title=" ">
<polygon fill="#bfbfbf" stroke="black" points="0,-336.5 0,-355.5 423,-355.5 423,-336.5 0,-336.5"/>
<text text-anchor="middle" x="211.5" y="-343.5" font-family="Helvetica,sans-Serif" font-size="10.00">/home/runner/work/gauri/gauri/gauri/include/platform/opengl/opengl_renderer_api.h</text>
</a>
</g>
</g>
<!-- Node2 -->
<g id="node2" class="node">
<title>Node2</title>
<g id="a_node2"><a xlink:href="renderer__api_8h.html" target="_top" xlink:title=" ">
<polygon fill="white" stroke="black" points="132,-280.5 132,-299.5 291,-299.5 291,-280.5 132,-280.5"/>
<text text-anchor="middle" x="211.5" y="-287.5" font-family="Helvetica,sans-Serif" font-size="10.00">gauri/renderer/renderer_api.h</text>
</a>
</g>
</g>
<!-- Node1&#45;&gt;Node2 -->
<g id="edge1" class="edge">
<title>Node1&#45;&gt;Node2</title>
<path fill="none" stroke="midnightblue" d="M211.5,-336.08C211.5,-329.01 211.5,-318.86 211.5,-309.99"/>
<polygon fill="midnightblue" stroke="midnightblue" points="215,-309.75 211.5,-299.75 208,-309.75 215,-309.75"/>
</g>
<!-- Node3 -->
<g id="node3" class="node">
<title>Node3</title>
<g id="a_node3"><a xlink:title=" ">
<polygon fill="white" stroke="#bfbfbf" points="105.5,-224.5 105.5,-243.5 183.5,-243.5 183.5,-224.5 105.5,-224.5"/>
<text text-anchor="middle" x="144.5" y="-231.5" font-family="Helvetica,sans-Serif" font-size="10.00">glm/glm.hpp</text>
</a>
</g>
</g>
<!-- Node2&#45;&gt;Node3 -->
<g id="edge2" class="edge">
<title>Node2&#45;&gt;Node3</title>
<path fill="none" stroke="midnightblue" d="M200.74,-280.32C190.73,-272.26 175.61,-260.08 163.57,-250.37"/>
<polygon fill="midnightblue" stroke="midnightblue" points="165.44,-247.38 155.46,-243.83 161.05,-252.83 165.44,-247.38"/>
</g>
<!-- Node4 -->
<g id="node4" class="node">
<title>Node4</title>
<g id="a_node4"><a xlink:title=" ">
<polygon fill="white" stroke="#bfbfbf" points="232.5,-0.5 232.5,-19.5 290.5,-19.5 290.5,-0.5 232.5,-0.5"/>
<text text-anchor="middle" x="261.5" y="-7.5" font-family="Helvetica,sans-Serif" font-size="10.00">memory</text>
</a>
</g>
</g>
<!-- Node2&#45;&gt;Node4 -->
<g id="edge3" class="edge">
<title>Node2&#45;&gt;Node4</title>
<path fill="none" stroke="midnightblue" d="M211.5,-280.44C211.5,-261.94 211.5,-216.81 211.5,-179 211.5,-179 211.5,-179 211.5,-121 211.5,-85.18 233.74,-48.21 248.55,-27.56"/>
<polygon fill="midnightblue" stroke="midnightblue" points="251.38,-29.63 254.55,-19.52 245.77,-25.45 251.38,-29.63"/>
</g>
<!-- Node5 -->
<g id="node5" class="node">
<title>Node5</title>
<g id="a_node5"><a xlink:href="vertex__array_8h.html" target="_top" xlink:title=" ">
<polygon fill="white" stroke="black" points="239.5,-224.5 239.5,-243.5 397.5,-243.5 397.5,-224.5 239.5,-224.5"/>
<text text-anchor="middle" x="318.5" y="-231.5" font-family="Helvetica,sans-Serif" font-size="10.00">gauri/renderer/vertex_array.h</text>
</a>
</g>
</g>
<!-- Node2&#45;&gt;Node5 -->
<g id="edge4" class="edge">
<title>Node2&#45;&gt;Node5</title>
<path fill="none" stroke="midnightblue" d="M228.69,-280.32C245.85,-271.66 272.45,-258.24 292.25,-248.25"/>
<polygon fill="midnightblue" stroke="midnightblue" points="294,-251.28 301.35,-243.65 290.85,-245.04 294,-251.28"/>
</g>
<!-- Node5&#45;&gt;Node4 -->
<g id="edge5" class="edge">
<title>Node5&#45;&gt;Node4</title>
<path fill="none" stroke="midnightblue" d="M303.71,-224.4C291.83,-216.58 275.94,-203.86 268.5,-188 243.72,-135.2 251.81,-63.5 257.67,-29.87"/>
<polygon fill="midnightblue" stroke="midnightblue" points="261.19,-30.13 259.59,-19.66 254.31,-28.84 261.19,-30.13"/>
</g>
<!-- Node6 -->
<g id="node6" class="node">
<title>Node6</title>
<g id="a_node6"><a xlink:href="buffer_8h.html" target="_top" xlink:title=" ">
<polygon fill="white" stroke="black" points="278,-168.5 278,-187.5 403,-187.5 403,-168.5 278,-168.5"/>
<text text-anchor="middle" x="340.5" y="-175.5" font-family="Helvetica,sans-Serif" font-size="10.00">gauri/renderer/buffer.h</text>
</a>
</g>
</g>
<!-- Node5&#45;&gt;Node6 -->
<g id="edge6" class="edge">
<title>Node5&#45;&gt;Node6</title>
<path fill="none" stroke="midnightblue" d="M322.13,-224.08C325.11,-216.77 329.43,-206.18 333.12,-197.1"/>
<polygon fill="midnightblue" stroke="midnightblue" points="336.4,-198.33 336.93,-187.75 329.92,-195.69 336.4,-198.33"/>
</g>
<!-- Node7 -->
<g id="node7" class="node">
<title>Node7</title>
<g id="a_node7"><a xlink:href="base_8h.html" target="_top" xlink:title=" ">
<polygon fill="white" stroke="black" points="290,-112.5 290,-131.5 391,-131.5 391,-112.5 290,-112.5"/>
<text text-anchor="middle" x="340.5" y="-119.5" font-family="Helvetica,sans-Serif" font-size="10.00">gauri/core/base.h</text>
</a>
</g>
</g>
<!-- Node6&#45;&gt;Node7 -->
<g id="edge7" class="edge">
<title>Node6&#45;&gt;Node7</title>
<path fill="none" stroke="midnightblue" d="M340.5,-168.08C340.5,-161.01 340.5,-150.86 340.5,-141.99"/>
<polygon fill="midnightblue" stroke="midnightblue" points="344,-141.75 340.5,-131.75 337,-141.75 344,-141.75"/>
</g>
<!-- Node9 -->
<g id="node9" class="node">
<title>Node9</title>
<g id="a_node9"><a xlink:href="logger_8h.html" target="_top" xlink:title=" ">
<polygon fill="white" stroke="black" points="384,-56.5 384,-75.5 491,-75.5 491,-56.5 384,-56.5"/>
<text text-anchor="middle" x="437.5" y="-63.5" font-family="Helvetica,sans-Serif" font-size="10.00">gauri/core/logger.h</text>
</a>
</g>
</g>
<!-- Node6&#45;&gt;Node9 -->
<g id="edge15" class="edge">
<title>Node6&#45;&gt;Node9</title>
<path fill="none" stroke="midnightblue" d="M354.88,-168.34C367.68,-160.13 386.36,-146.86 399.5,-132 412.06,-117.8 422.58,-98.83 429.35,-85.05"/>
<polygon fill="midnightblue" stroke="midnightblue" points="432.66,-86.22 433.76,-75.69 426.33,-83.24 432.66,-86.22"/>
</g>
<!-- Node7&#45;&gt;Node4 -->
<g id="edge9" class="edge">
<title>Node7&#45;&gt;Node4</title>
<path fill="none" stroke="midnightblue" d="M333.87,-112.45C326.94,-103.46 315.8,-88.85 306.5,-76 294.98,-60.07 282.26,-41.62 273.29,-28.45"/>
<polygon fill="midnightblue" stroke="midnightblue" points="276.01,-26.22 267.5,-19.91 270.22,-30.15 276.01,-26.22"/>
</g>
<!-- Node8 -->
<g id="node8" class="node">
<title>Node8</title>
<g id="a_node8"><a xlink:title=" ">
<polygon fill="white" stroke="#bfbfbf" points="315.5,-56.5 315.5,-75.5 365.5,-75.5 365.5,-56.5 315.5,-56.5"/>
<text text-anchor="middle" x="340.5" y="-63.5" font-family="Helvetica,sans-Serif" font-size="10.00">cstdint</text>
</a>
</g>
</g>
<!-- Node7&#45;&gt;Node8 -->
<g id="edge8" class="edge">
<title>Node7&#45;&gt;Node8</title>
<path fill="none" stroke="midnightblue" d="M340.5,-112.08C340.5,-105.01 340.5,-94.86 340.5,-85.99"/>
<polygon fill="midnightblue" stroke="midnightblue" points="344,-85.75 340.5,-75.75 337,-85.75 344,-85.75"/>
</g>
<!-- Node7&#45;&gt;Node9 -->
<g id="edge10" class="edge">
<title>Node7&#45;&gt;Node9</title>
<path fill="none" stroke="midnightblue" d="M356.08,-112.32C371.5,-103.74 395.31,-90.49 413.21,-80.52"/>
<polygon fill="midnightblue" stroke="midnightblue" points="414.92,-83.58 421.95,-75.65 411.51,-77.46 414.92,-83.58"/>
</g>
<!-- Node9&#45;&gt;Node4 -->
<g id="edge12" class="edge">
<title>Node9&#45;&gt;Node4</title>
<path fill="none" stroke="midnightblue" d="M409.61,-56.44C379.75,-47.28 332.19,-32.69 299.04,-22.52"/>
<polygon fill="midnightblue" stroke="midnightblue" points="299.84,-19.1 289.26,-19.52 297.79,-25.8 299.84,-19.1"/>
</g>
<!-- Node10 -->
<g id="node10" class="node">
<title>Node10</title>
<g id="a_node10"><a xlink:title=" ">
<polygon fill="white" stroke="#bfbfbf" points="319.5,-0.5 319.5,-19.5 369.5,-19.5 369.5,-0.5 319.5,-0.5"/>
<text text-anchor="middle" x="344.5" y="-7.5" font-family="Helvetica,sans-Serif" font-size="10.00">format</text>
</a>
</g>
</g>
<!-- Node9&#45;&gt;Node10 -->
<g id="edge11" class="edge">
<title>Node9&#45;&gt;Node10</title>
<path fill="none" stroke="midnightblue" d="M422.56,-56.32C407.91,-47.82 385.37,-34.73 368.26,-24.8"/>
<polygon fill="midnightblue" stroke="midnightblue" points="369.81,-21.65 359.4,-19.65 366.3,-27.7 369.81,-21.65"/>
</g>
<!-- Node11 -->
<g id="node11" class="node">
<title>Node11</title>
<g id="a_node11"><a xlink:title=" ">
<polygon fill="white" stroke="#bfbfbf" points="388,-0.5 388,-19.5 487,-19.5 487,-0.5 388,-0.5"/>
<text text-anchor="middle" x="437.5" y="-7.5" font-family="Helvetica,sans-Serif" font-size="10.00">spdlog/fmt/ostr.h</text>
</a>
</g>
</g>
<!-- Node9&#45;&gt;Node11 -->
<g id="edge13" class="edge">
<title>Node9&#45;&gt;Node11</title>
<path fill="none" stroke="midnightblue" d="M437.5,-56.08C437.5,-49.01 437.5,-38.86 437.5,-29.99"/>
<polygon fill="midnightblue" stroke="midnightblue" points="441,-29.75 437.5,-19.75 434,-29.75 441,-29.75"/>
</g>
<!-- Node12 -->
<g id="node12" class="node">
<title>Node12</title>
<g id="a_node12"><a xlink:title=" ">
<polygon fill="white" stroke="#bfbfbf" points="505,-0.5 505,-19.5 598,-19.5 598,-0.5 505,-0.5"/>
<text text-anchor="middle" x="551.5" y="-7.5" font-family="Helvetica,sans-Serif" font-size="10.00">spdlog/spdlog.h</text>
</a>
</g>
</g>
<!-- Node9&#45;&gt;Node12 -->
<g id="edge14" class="edge">
<title>Node9&#45;&gt;Node12</title>
<path fill="none" stroke="midnightblue" d="M455.56,-56.44C474.07,-47.68 503.08,-33.94 524.36,-23.86"/>
<polygon fill="midnightblue" stroke="midnightblue" points="525.98,-26.96 533.52,-19.52 522.99,-20.63 525.98,-26.96"/>
</g>
</g>
</svg>
