<?xml version="1.0" encoding="UTF-8" standalone="no"?>
<!DOCTYPE svg PUBLIC "-//W3C//DTD SVG 1.1//EN"
 "http://www.w3.org/Graphics/SVG/1.1/DTD/svg11.dtd">
<!-- Generated by graphviz version 2.43.0 (0)
 -->
<!-- Title: /home/runner/work/gauri/gauri/gauri/include/platform/opengl/opengl_shader.h Pages: 1 -->
<svg width="653pt" height="252pt"
 viewBox="0.00 0.00 652.50 252.00" xmlns="http://www.w3.org/2000/svg" xmlns:xlink="http://www.w3.org/1999/xlink">
<g id="graph0" class="graph" transform="scale(1 1) rotate(0) translate(4 248)">
<title>/home/runner/work/gauri/gauri/gauri/include/platform/opengl/opengl_shader.h</title>
<polygon fill="white" stroke="transparent" points="-4,4 -4,-248 648.5,-248 648.5,4 -4,4"/>
<!-- Node1 -->
<g id="node1" class="node">
<title>Node1</title>
<g id="a_node1"><a xlink:title=" ">
<polygon fill="#bfbfbf" stroke="black" points="0,-224.5 0,-243.5 394,-243.5 394,-224.5 0,-224.5"/>
<text text-anchor="middle" x="197" y="-231.5" font-family="Helvetica,sans-Serif" font-size="10.00">/home/runner/work/gauri/gauri/gauri/include/platform/opengl/opengl_shader.h</text>
</a>
</g>
</g>
<!-- Node2 -->
<g id="node2" class="node">
<title>Node2</title>
<g id="a_node2"><a xlink:title=" ">
<polygon fill="white" stroke="#bfbfbf" points="158,-112.5 158,-131.5 202,-131.5 202,-112.5 158,-112.5"/>
<text text-anchor="middle" x="180" y="-119.5" font-family="Helvetica,sans-Serif" font-size="10.00">string</text>
</a>
</g>
</g>
<!-- Node1&#45;&gt;Node2 -->
<g id="edge1" class="edge">
<title>Node1&#45;&gt;Node2</title>
<path fill="none" stroke="midnightblue" d="M182.63,-224.33C171.12,-216.47 155.81,-203.72 149,-188 141.74,-171.25 152.85,-152.46 163.73,-139.41"/>
<polygon fill="midnightblue" stroke="midnightblue" points="166.55,-141.51 170.66,-131.74 161.36,-136.82 166.55,-141.51"/>
</g>
<!-- Node3 -->
<g id="node3" class="node">
<title>Node3</title>
<g id="a_node3"><a xlink:title=" ">
<polygon fill="white" stroke="#bfbfbf" points="158,-168.5 158,-187.5 236,-187.5 236,-168.5 158,-168.5"/>
<text text-anchor="middle" x="197" y="-175.5" font-family="Helvetica,sans-Serif" font-size="10.00">glm/glm.hpp</text>
</a>
</g>
</g>
<!-- Node1&#45;&gt;Node3 -->
<g id="edge2" class="edge">
<title>Node1&#45;&gt;Node3</title>
<path fill="none" stroke="midnightblue" d="M197,-224.08C197,-217.01 197,-206.86 197,-197.99"/>
<polygon fill="midnightblue" stroke="midnightblue" points="200.5,-197.75 197,-187.75 193.5,-197.75 200.5,-197.75"/>
</g>
<!-- Node4 -->
<g id="node4" class="node">
<title>Node4</title>
<g id="a_node4"><a xlink:href="shader_8h.html" target="_top" xlink:title=" ">
<polygon fill="white" stroke="black" points="254,-168.5 254,-187.5 384,-187.5 384,-168.5 254,-168.5"/>
<text text-anchor="middle" x="319" y="-175.5" font-family="Helvetica,sans-Serif" font-size="10.00">gauri/renderer/shader.h</text>
</a>
</g>
</g>
<!-- Node1&#45;&gt;Node4 -->
<g id="edge3" class="edge">
<title>Node1&#45;&gt;Node4</title>
<path fill="none" stroke="midnightblue" d="M216.33,-224.44C236.32,-215.6 267.74,-201.69 290.56,-191.59"/>
<polygon fill="midnightblue" stroke="midnightblue" points="292.03,-194.76 299.76,-187.52 289.2,-188.36 292.03,-194.76"/>
</g>
<!-- Node4&#45;&gt;Node2 -->
<g id="edge4" class="edge">
<title>Node4&#45;&gt;Node2</title>
<path fill="none" stroke="midnightblue" d="M296.98,-168.44C273.9,-159.48 237.44,-145.31 211.36,-135.18"/>
<polygon fill="midnightblue" stroke="midnightblue" points="212.51,-131.88 201.92,-131.52 209.98,-138.4 212.51,-131.88"/>
</g>
<!-- Node5 -->
<g id="node5" class="node">
<title>Node5</title>
<g id="a_node5"><a xlink:href="core_8h.html" target="_top" xlink:title=" ">
<polygon fill="white" stroke="black" points="270,-112.5 270,-131.5 368,-131.5 368,-112.5 270,-112.5"/>
<text text-anchor="middle" x="319" y="-119.5" font-family="Helvetica,sans-Serif" font-size="10.00">gauri/core/core.h</text>
</a>
</g>
</g>
<!-- Node4&#45;&gt;Node5 -->
<g id="edge5" class="edge">
<title>Node4&#45;&gt;Node5</title>
<path fill="none" stroke="midnightblue" d="M319,-168.08C319,-161.01 319,-150.86 319,-141.99"/>
<polygon fill="midnightblue" stroke="midnightblue" points="322.5,-141.75 319,-131.75 315.5,-141.75 322.5,-141.75"/>
</g>
<!-- Node6 -->
<g id="node6" class="node">
<title>Node6</title>
<g id="a_node6"><a xlink:title=" ">
<polygon fill="white" stroke="#bfbfbf" points="241,-56.5 241,-75.5 291,-75.5 291,-56.5 241,-56.5"/>
<text text-anchor="middle" x="266" y="-63.5" font-family="Helvetica,sans-Serif" font-size="10.00">cstdint</text>
</a>
</g>
</g>
<!-- Node5&#45;&gt;Node6 -->
<g id="edge6" class="edge">
<title>Node5&#45;&gt;Node6</title>
<path fill="none" stroke="midnightblue" d="M310.25,-112.08C302.53,-104.22 291.1,-92.57 281.78,-83.08"/>
<polygon fill="midnightblue" stroke="midnightblue" points="284.09,-80.44 274.59,-75.75 279.1,-85.34 284.09,-80.44"/>
</g>
<!-- Node7 -->
<g id="node7" class="node">
<title>Node7</title>
<g id="a_node7"><a xlink:title=" ">
<polygon fill="white" stroke="#bfbfbf" points="290,-0.5 290,-19.5 348,-19.5 348,-0.5 290,-0.5"/>
<text text-anchor="middle" x="319" y="-7.5" font-family="Helvetica,sans-Serif" font-size="10.00">memory</text>
</a>
</g>
</g>
<!-- Node5&#45;&gt;Node7 -->
<g id="edge7" class="edge">
<title>Node5&#45;&gt;Node7</title>
<path fill="none" stroke="midnightblue" d="M319,-112.37C319,-94.62 319,-53.67 319,-29.6"/>
<polygon fill="midnightblue" stroke="midnightblue" points="322.5,-29.59 319,-19.59 315.5,-29.59 322.5,-29.59"/>
</g>
<!-- Node8 -->
<g id="node8" class="node">
<title>Node8</title>
<g id="a_node8"><a xlink:href="logger_8h.html" target="_top" xlink:title=" ">
<polygon fill="white" stroke="black" points="347.5,-56.5 347.5,-75.5 454.5,-75.5 454.5,-56.5 347.5,-56.5"/>
<text text-anchor="middle" x="401" y="-63.5" font-family="Helvetica,sans-Serif" font-size="10.00">gauri/core/logger.h</text>
</a>
</g>
</g>
<!-- Node5&#45;&gt;Node8 -->
<g id="edge8" class="edge">
<title>Node5&#45;&gt;Node8</title>
<path fill="none" stroke="midnightblue" d="M332.17,-112.32C344.85,-103.98 364.23,-91.21 379.21,-81.35"/>
<polygon fill="midnightblue" stroke="midnightblue" points="381.43,-84.08 387.86,-75.65 377.58,-78.23 381.43,-84.08"/>
</g>
<!-- Node8&#45;&gt;Node7 -->
<g id="edge10" class="edge">
<title>Node8&#45;&gt;Node7</title>
<path fill="none" stroke="midnightblue" d="M387.83,-56.32C375.15,-47.98 355.77,-35.21 340.79,-25.35"/>
<polygon fill="midnightblue" stroke="midnightblue" points="342.42,-22.23 332.14,-19.65 338.57,-28.08 342.42,-22.23"/>
</g>
<!-- Node9 -->
<g id="node9" class="node">
<title>Node9</title>
<g id="a_node9"><a xlink:title=" ">
<polygon fill="white" stroke="#bfbfbf" points="366,-0.5 366,-19.5 416,-19.5 416,-0.5 366,-0.5"/>
<text text-anchor="middle" x="391" y="-7.5" font-family="Helvetica,sans-Serif" font-size="10.00">format</text>
</a>
</g>
</g>
<!-- Node8&#45;&gt;Node9 -->
<g id="edge9" class="edge">
<title>Node8&#45;&gt;Node9</title>
<path fill="none" stroke="midnightblue" d="M399.35,-56.08C398.02,-48.93 396.12,-38.64 394.46,-29.69"/>
<polygon fill="midnightblue" stroke="midnightblue" points="397.88,-28.95 392.62,-19.75 391,-30.22 397.88,-28.95"/>
</g>
<!-- Node10 -->
<g id="node10" class="node">
<title>Node10</title>
<g id="a_node10"><a xlink:title=" ">
<polygon fill="white" stroke="#bfbfbf" points="434.5,-0.5 434.5,-19.5 533.5,-19.5 533.5,-0.5 434.5,-0.5"/>
<text text-anchor="middle" x="484" y="-7.5" font-family="Helvetica,sans-Serif" font-size="10.00">spdlog/fmt/ostr.h</text>
</a>
</g>
</g>
<!-- Node8&#45;&gt;Node10 -->
<g id="edge11" class="edge">
<title>Node8&#45;&gt;Node10</title>
<path fill="none" stroke="midnightblue" d="M414.34,-56.32C427.16,-47.98 446.78,-35.21 461.94,-25.35"/>
<polygon fill="midnightblue" stroke="midnightblue" points="464.22,-28.04 470.7,-19.65 460.41,-22.17 464.22,-28.04"/>
</g>
<!-- Node11 -->
<g id="node11" class="node">
<title>Node11</title>
<g id="a_node11"><a xlink:title=" ">
<polygon fill="white" stroke="#bfbfbf" points="551.5,-0.5 551.5,-19.5 644.5,-19.5 644.5,-0.5 551.5,-0.5"/>
<text text-anchor="middle" x="598" y="-7.5" font-family="Helvetica,sans-Serif" font-size="10.00">spdlog/spdlog.h</text>
</a>
</g>
</g>
<!-- Node8&#45;&gt;Node11 -->
<g id="edge12" class="edge">
<title>Node8&#45;&gt;Node11</title>
<path fill="none" stroke="midnightblue" d="M432.22,-56.44C465.93,-47.2 519.8,-32.44 556.93,-22.26"/>
<polygon fill="midnightblue" stroke="midnightblue" points="558.21,-25.54 566.93,-19.52 556.36,-18.78 558.21,-25.54"/>
</g>
</g>
</svg>
