<?xml version="1.0" encoding="UTF-8" standalone="no"?>
<!DOCTYPE svg PUBLIC "-//W3C//DTD SVG 1.1//EN"
 "http://www.w3.org/Graphics/SVG/1.1/DTD/svg11.dtd">
<!-- Generated by graphviz version 2.43.0 (0)
 -->
<!-- Title: /home/runner/work/gauri/gauri/gauri/include/platform/opengl/opengl_texture.h Pages: 1 -->
<svg width="577pt" height="252pt"
 viewBox="0.00 0.00 577.00 252.00" xmlns="http://www.w3.org/2000/svg" xmlns:xlink="http://www.w3.org/1999/xlink">
<g id="graph0" class="graph" transform="scale(1 1) rotate(0) translate(4 248)">
<title>/home/runner/work/gauri/gauri/gauri/include/platform/opengl/opengl_texture.h</title>
<polygon fill="white" stroke="transparent" points="-4,4 -4,-248 573,-248 573,4 -4,4"/>
<!-- Node1 -->
<g id="node1" class="node">
<title>Node1</title>
<g id="a_node1"><a xlink:title=" ">
<polygon fill="#bfbfbf" stroke="black" points="0,-224.5 0,-243.5 397,-243.5 397,-224.5 0,-224.5"/>
<text text-anchor="middle" x="198.5" y="-231.5" font-family="Helvetica,sans-Serif" font-size="10.00">/home/runner/work/gauri/gauri/gauri/include/platform/opengl/opengl_texture.h</text>
</a>
</g>
</g>
<!-- Node2 -->
<g id="node2" class="node">
<title>Node2</title>
<g id="a_node2"><a xlink:href="texture_8h.html" target="_top" xlink:title=" ">
<polygon fill="white" stroke="black" points="132,-168.5 132,-187.5 265,-187.5 265,-168.5 132,-168.5"/>
<text text-anchor="middle" x="198.5" y="-175.5" font-family="Helvetica,sans-Serif" font-size="10.00">gauri/renderer/texture.h</text>
</a>
</g>
</g>
<!-- Node1&#45;&gt;Node2 -->
<g id="edge1" class="edge">
<title>Node1&#45;&gt;Node2</title>
<path fill="none" stroke="midnightblue" d="M198.5,-224.08C198.5,-217.01 198.5,-206.86 198.5,-197.99"/>
<polygon fill="midnightblue" stroke="midnightblue" points="202,-197.75 198.5,-187.75 195,-197.75 202,-197.75"/>
</g>
<!-- Node3 -->
<g id="node3" class="node">
<title>Node3</title>
<g id="a_node3"><a xlink:title=" ">
<polygon fill="white" stroke="#bfbfbf" points="132.5,-112.5 132.5,-131.5 176.5,-131.5 176.5,-112.5 132.5,-112.5"/>
<text text-anchor="middle" x="154.5" y="-119.5" font-family="Helvetica,sans-Serif" font-size="10.00">string</text>
</a>
</g>
</g>
<!-- Node2&#45;&gt;Node3 -->
<g id="edge2" class="edge">
<title>Node2&#45;&gt;Node3</title>
<path fill="none" stroke="midnightblue" d="M191.23,-168.08C184.96,-160.38 175.71,-149.03 168.07,-139.65"/>
<polygon fill="midnightblue" stroke="midnightblue" points="170.66,-137.29 161.63,-131.75 165.23,-141.71 170.66,-137.29"/>
</g>
<!-- Node4 -->
<g id="node4" class="node">
<title>Node4</title>
<g id="a_node4"><a xlink:href="core_8h.html" target="_top" xlink:title=" ">
<polygon fill="white" stroke="black" points="194.5,-112.5 194.5,-131.5 292.5,-131.5 292.5,-112.5 194.5,-112.5"/>
<text text-anchor="middle" x="243.5" y="-119.5" font-family="Helvetica,sans-Serif" font-size="10.00">gauri/core/core.h</text>
</a>
</g>
</g>
<!-- Node2&#45;&gt;Node4 -->
<g id="edge3" class="edge">
<title>Node2&#45;&gt;Node4</title>
<path fill="none" stroke="midnightblue" d="M205.93,-168.08C212.35,-160.38 221.81,-149.03 229.62,-139.65"/>
<polygon fill="midnightblue" stroke="midnightblue" points="232.49,-141.67 236.21,-131.75 227.12,-137.19 232.49,-141.67"/>
</g>
<!-- Node5 -->
<g id="node5" class="node">
<title>Node5</title>
<g id="a_node5"><a xlink:title=" ">
<polygon fill="white" stroke="#bfbfbf" points="165.5,-56.5 165.5,-75.5 215.5,-75.5 215.5,-56.5 165.5,-56.5"/>
<text text-anchor="middle" x="190.5" y="-63.5" font-family="Helvetica,sans-Serif" font-size="10.00">cstdint</text>
</a>
</g>
</g>
<!-- Node4&#45;&gt;Node5 -->
<g id="edge4" class="edge">
<title>Node4&#45;&gt;Node5</title>
<path fill="none" stroke="midnightblue" d="M234.75,-112.08C227.03,-104.22 215.6,-92.57 206.28,-83.08"/>
<polygon fill="midnightblue" stroke="midnightblue" points="208.59,-80.44 199.09,-75.75 203.6,-85.34 208.59,-80.44"/>
</g>
<!-- Node6 -->
<g id="node6" class="node">
<title>Node6</title>
<g id="a_node6"><a xlink:title=" ">
<polygon fill="white" stroke="#bfbfbf" points="214.5,-0.5 214.5,-19.5 272.5,-19.5 272.5,-0.5 214.5,-0.5"/>
<text text-anchor="middle" x="243.5" y="-7.5" font-family="Helvetica,sans-Serif" font-size="10.00">memory</text>
</a>
</g>
</g>
<!-- Node4&#45;&gt;Node6 -->
<g id="edge5" class="edge">
<title>Node4&#45;&gt;Node6</title>
<path fill="none" stroke="midnightblue" d="M243.5,-112.37C243.5,-94.62 243.5,-53.67 243.5,-29.6"/>
<polygon fill="midnightblue" stroke="midnightblue" points="247,-29.59 243.5,-19.59 240,-29.59 247,-29.59"/>
</g>
<!-- Node7 -->
<g id="node7" class="node">
<title>Node7</title>
<g id="a_node7"><a xlink:href="logger_8h.html" target="_top" xlink:title=" ">
<polygon fill="white" stroke="black" points="272,-56.5 272,-75.5 379,-75.5 379,-56.5 272,-56.5"/>
<text text-anchor="middle" x="325.5" y="-63.5" font-family="Helvetica,sans-Serif" font-size="10.00">gauri/core/logger.h</text>
</a>
</g>
</g>
<!-- Node4&#45;&gt;Node7 -->
<g id="edge6" class="edge">
<title>Node4&#45;&gt;Node7</title>
<path fill="none" stroke="midnightblue" d="M256.67,-112.32C269.35,-103.98 288.73,-91.21 303.71,-81.35"/>
<polygon fill="midnightblue" stroke="midnightblue" points="305.93,-84.08 312.36,-75.65 302.08,-78.23 305.93,-84.08"/>
</g>
<!-- Node7&#45;&gt;Node6 -->
<g id="edge8" class="edge">
<title>Node7&#45;&gt;Node6</title>
<path fill="none" stroke="midnightblue" d="M312.33,-56.32C299.65,-47.98 280.27,-35.21 265.29,-25.35"/>
<polygon fill="midnightblue" stroke="midnightblue" points="266.92,-22.23 256.64,-19.65 263.07,-28.08 266.92,-22.23"/>
</g>
<!-- Node8 -->
<g id="node8" class="node">
<title>Node8</title>
<g id="a_node8"><a xlink:title=" ">
<polygon fill="white" stroke="#bfbfbf" points="290.5,-0.5 290.5,-19.5 340.5,-19.5 340.5,-0.5 290.5,-0.5"/>
<text text-anchor="middle" x="315.5" y="-7.5" font-family="Helvetica,sans-Serif" font-size="10.00">format</text>
</a>
</g>
</g>
<!-- Node7&#45;&gt;Node8 -->
<g id="edge7" class="edge">
<title>Node7&#45;&gt;Node8</title>
<path fill="none" stroke="midnightblue" d="M323.85,-56.08C322.52,-48.93 320.62,-38.64 318.96,-29.69"/>
<polygon fill="midnightblue" stroke="midnightblue" points="322.38,-28.95 317.12,-19.75 315.5,-30.22 322.38,-28.95"/>
</g>
<!-- Node9 -->
<g id="node9" class="node">
<title>Node9</title>
<g id="a_node9"><a xlink:title=" ">
<polygon fill="white" stroke="#bfbfbf" points="359,-0.5 359,-19.5 458,-19.5 458,-0.5 359,-0.5"/>
<text text-anchor="middle" x="408.5" y="-7.5" font-family="Helvetica,sans-Serif" font-size="10.00">spdlog/fmt/ostr.h</text>
</a>
</g>
</g>
<!-- Node7&#45;&gt;Node9 -->
<g id="edge9" class="edge">
<title>Node7&#45;&gt;Node9</title>
<path fill="none" stroke="midnightblue" d="M338.84,-56.32C351.66,-47.98 371.28,-35.21 386.44,-25.35"/>
<polygon fill="midnightblue" stroke="midnightblue" points="388.72,-28.04 395.2,-19.65 384.91,-22.17 388.72,-28.04"/>
</g>
<!-- Node10 -->
<g id="node10" class="node">
<title>Node10</title>
<g id="a_node10"><a xlink:title=" ">
<polygon fill="white" stroke="#bfbfbf" points="476,-0.5 476,-19.5 569,-19.5 569,-0.5 476,-0.5"/>
<text text-anchor="middle" x="522.5" y="-7.5" font-family="Helvetica,sans-Serif" font-size="10.00">spdlog/spdlog.h</text>
</a>
</g>
</g>
<!-- Node7&#45;&gt;Node10 -->
<g id="edge10" class="edge">
<title>Node7&#45;&gt;Node10</title>
<path fill="none" stroke="midnightblue" d="M356.72,-56.44C390.43,-47.2 444.3,-32.44 481.43,-22.26"/>
<polygon fill="midnightblue" stroke="midnightblue" points="482.71,-25.54 491.43,-19.52 480.86,-18.78 482.71,-25.54"/>
</g>
</g>
</svg>
