<?xml version="1.0" encoding="UTF-8" standalone="no"?>
<!DOCTYPE svg PUBLIC "-//W3C//DTD SVG 1.1//EN"
 "http://www.w3.org/Graphics/SVG/1.1/DTD/svg11.dtd">
<!-- Generated by graphviz version 2.43.0 (0)
 -->
<!-- Title: /home/runner/work/gauri/gauri/gauri/include/platform/opengl/opengl_shader.h Pages: 1 -->
<svg width="652pt" height="252pt"
 viewBox="0.00 0.00 651.50 252.00" xmlns="http://www.w3.org/2000/svg" xmlns:xlink="http://www.w3.org/1999/xlink">
<g id="graph0" class="graph" transform="scale(1 1) rotate(0) translate(4 248)">
<title>/home/runner/work/gauri/gauri/gauri/include/platform/opengl/opengl_shader.h</title>
<polygon fill="white" stroke="transparent" points="-4,4 -4,-248 647.5,-248 647.5,4 -4,4"/>
<!-- Node1 -->
<g id="node1" class="node">
<title>Node1</title>
<g id="a_node1"><a xlink:title=" ">
<polygon fill="#bfbfbf" stroke="black" points="0,-224.5 0,-243.5 394,-243.5 394,-224.5 0,-224.5"/>
<text text-anchor="middle" x="197" y="-231.5" font-family="Helvetica,sans-Serif" font-size="10.00">/home/runner/work/gauri/gauri/gauri/include/platform/opengl/opengl_shader.h</text>
</a>
</g>
</g>
<!-- Node2 -->
<g id="node2" class="node">
<title>Node2</title>
<g id="a_node2"><a xlink:title=" ">
<polygon fill="white" stroke="#bfbfbf" points="164,-112.5 164,-131.5 208,-131.5 208,-112.5 164,-112.5"/>
<text text-anchor="middle" x="186" y="-119.5" font-family="Helvetica,sans-Serif" font-size="10.00">string</text>
</a>
</g>
</g>
<!-- Node1&#45;&gt;Node2 -->
<g id="edge1" class="edge">
<title>Node1&#45;&gt;Node2</title>
<path fill="none" stroke="midnightblue" d="M182.63,-224.33C171.12,-216.47 155.81,-203.72 149,-188 141.39,-170.44 154.81,-151.55 167.57,-138.68"/>
<polygon fill="midnightblue" stroke="midnightblue" points="170.32,-140.91 175.23,-131.52 165.54,-135.79 170.32,-140.91"/>
</g>
<!-- Node3 -->
<g id="node3" class="node">
<title>Node3</title>
<g id="a_node3"><a xlink:title=" ">
<polygon fill="white" stroke="#bfbfbf" points="158,-168.5 158,-187.5 236,-187.5 236,-168.5 158,-168.5"/>
<text text-anchor="middle" x="197" y="-175.5" font-family="Helvetica,sans-Serif" font-size="10.00">glm/glm.hpp</text>
</a>
</g>
</g>
<!-- Node1&#45;&gt;Node3 -->
<g id="edge2" class="edge">
<title>Node1&#45;&gt;Node3</title>
<path fill="none" stroke="midnightblue" d="M197,-224.08C197,-217.01 197,-206.86 197,-197.99"/>
<polygon fill="midnightblue" stroke="midnightblue" points="200.5,-197.75 197,-187.75 193.5,-197.75 200.5,-197.75"/>
</g>
<!-- Node4 -->
<g id="node4" class="node">
<title>Node4</title>
<g id="a_node4"><a xlink:href="shader_8h.html" target="_top" xlink:title=" ">
<polygon fill="white" stroke="black" points="254,-168.5 254,-187.5 384,-187.5 384,-168.5 254,-168.5"/>
<text text-anchor="middle" x="319" y="-175.5" font-family="Helvetica,sans-Serif" font-size="10.00">gauri/renderer/shader.h</text>
</a>
</g>
</g>
<!-- Node1&#45;&gt;Node4 -->
<g id="edge3" class="edge">
<title>Node1&#45;&gt;Node4</title>
<path fill="none" stroke="midnightblue" d="M216.33,-224.44C236.32,-215.6 267.74,-201.69 290.56,-191.59"/>
<polygon fill="midnightblue" stroke="midnightblue" points="292.03,-194.76 299.76,-187.52 289.2,-188.36 292.03,-194.76"/>
</g>
<!-- Node4&#45;&gt;Node2 -->
<g id="edge4" class="edge">
<title>Node4&#45;&gt;Node2</title>
<path fill="none" stroke="midnightblue" d="M297.93,-168.44C275.94,-159.52 241.27,-145.44 216.34,-135.32"/>
<polygon fill="midnightblue" stroke="midnightblue" points="217.56,-132.04 206.98,-131.52 214.92,-138.52 217.56,-132.04"/>
</g>
<!-- Node5 -->
<g id="node5" class="node">
<title>Node5</title>
<g id="a_node5"><a xlink:href="core_8h.html" target="_top" xlink:title=" ">
<polygon fill="white" stroke="black" points="282,-112.5 282,-131.5 356,-131.5 356,-112.5 282,-112.5"/>
<text text-anchor="middle" x="319" y="-119.5" font-family="Helvetica,sans-Serif" font-size="10.00">gauri/core.h</text>
</a>
</g>
</g>
<!-- Node4&#45;&gt;Node5 -->
<g id="edge5" class="edge">
<title>Node4&#45;&gt;Node5</title>
<path fill="none" stroke="midnightblue" d="M319,-168.08C319,-161.01 319,-150.86 319,-141.99"/>
<polygon fill="midnightblue" stroke="midnightblue" points="322.5,-141.75 319,-131.75 315.5,-141.75 322.5,-141.75"/>
</g>
<!-- Node6 -->
<g id="node6" class="node">
<title>Node6</title>
<g id="a_node6"><a xlink:title=" ">
<polygon fill="white" stroke="#bfbfbf" points="241,-56.5 241,-75.5 291,-75.5 291,-56.5 241,-56.5"/>
<text text-anchor="middle" x="266" y="-63.5" font-family="Helvetica,sans-Serif" font-size="10.00">cstdint</text>
</a>
</g>
</g>
<!-- Node5&#45;&gt;Node6 -->
<g id="edge6" class="edge">
<title>Node5&#45;&gt;Node6</title>
<path fill="none" stroke="midnightblue" d="M310.25,-112.08C302.53,-104.22 291.1,-92.57 281.78,-83.08"/>
<polygon fill="midnightblue" stroke="midnightblue" points="284.09,-80.44 274.59,-75.75 279.1,-85.34 284.09,-80.44"/>
</g>
<!-- Node7 -->
<g id="node7" class="node">
<title>Node7</title>
<g id="a_node7"><a xlink:title=" ">
<polygon fill="white" stroke="#bfbfbf" points="289,-0.5 289,-19.5 347,-19.5 347,-0.5 289,-0.5"/>
<text text-anchor="middle" x="318" y="-7.5" font-family="Helvetica,sans-Serif" font-size="10.00">memory</text>
</a>
</g>
</g>
<!-- Node5&#45;&gt;Node7 -->
<g id="edge7" class="edge">
<title>Node5&#45;&gt;Node7</title>
<path fill="none" stroke="midnightblue" d="M318.92,-112.37C318.76,-94.62 318.39,-53.67 318.17,-29.6"/>
<polygon fill="midnightblue" stroke="midnightblue" points="321.67,-29.56 318.08,-19.59 314.67,-29.62 321.67,-29.56"/>
</g>
<!-- Node8 -->
<g id="node8" class="node">
<title>Node8</title>
<g id="a_node8"><a xlink:href="logger_8h.html" target="_top" xlink:title=" ">
<polygon fill="white" stroke="black" points="348.5,-56.5 348.5,-75.5 431.5,-75.5 431.5,-56.5 348.5,-56.5"/>
<text text-anchor="middle" x="390" y="-63.5" font-family="Helvetica,sans-Serif" font-size="10.00">gauri/logger.h</text>
</a>
</g>
</g>
<!-- Node5&#45;&gt;Node8 -->
<g id="edge8" class="edge">
<title>Node5&#45;&gt;Node8</title>
<path fill="none" stroke="midnightblue" d="M330.41,-112.32C341.11,-104.18 357.34,-91.84 370.16,-82.09"/>
<polygon fill="midnightblue" stroke="midnightblue" points="372.54,-84.67 378.39,-75.83 368.31,-79.1 372.54,-84.67"/>
</g>
<!-- Node8&#45;&gt;Node7 -->
<g id="edge10" class="edge">
<title>Node8&#45;&gt;Node7</title>
<path fill="none" stroke="midnightblue" d="M378.43,-56.32C367.58,-48.18 351.12,-35.84 338.12,-26.09"/>
<polygon fill="midnightblue" stroke="midnightblue" points="339.88,-23.03 329.78,-19.83 335.68,-28.63 339.88,-23.03"/>
</g>
<!-- Node9 -->
<g id="node9" class="node">
<title>Node9</title>
<g id="a_node9"><a xlink:title=" ">
<polygon fill="white" stroke="#bfbfbf" points="365,-0.5 365,-19.5 415,-19.5 415,-0.5 365,-0.5"/>
<text text-anchor="middle" x="390" y="-7.5" font-family="Helvetica,sans-Serif" font-size="10.00">format</text>
</a>
</g>
</g>
<!-- Node8&#45;&gt;Node9 -->
<g id="edge9" class="edge">
<title>Node8&#45;&gt;Node9</title>
<path fill="none" stroke="midnightblue" d="M390,-56.08C390,-49.01 390,-38.86 390,-29.99"/>
<polygon fill="midnightblue" stroke="midnightblue" points="393.5,-29.75 390,-19.75 386.5,-29.75 393.5,-29.75"/>
</g>
<!-- Node10 -->
<g id="node10" class="node">
<title>Node10</title>
<g id="a_node10"><a xlink:title=" ">
<polygon fill="white" stroke="#bfbfbf" points="433.5,-0.5 433.5,-19.5 532.5,-19.5 532.5,-0.5 433.5,-0.5"/>
<text text-anchor="middle" x="483" y="-7.5" font-family="Helvetica,sans-Serif" font-size="10.00">spdlog/fmt/ostr.h</text>
</a>
</g>
</g>
<!-- Node8&#45;&gt;Node10 -->
<g id="edge11" class="edge">
<title>Node8&#45;&gt;Node10</title>
<path fill="none" stroke="midnightblue" d="M404.94,-56.32C419.59,-47.82 442.13,-34.73 459.24,-24.8"/>
<polygon fill="midnightblue" stroke="midnightblue" points="461.2,-27.7 468.1,-19.65 457.69,-21.65 461.2,-27.7"/>
</g>
<!-- Node11 -->
<g id="node11" class="node">
<title>Node11</title>
<g id="a_node11"><a xlink:title=" ">
<polygon fill="white" stroke="#bfbfbf" points="550.5,-0.5 550.5,-19.5 643.5,-19.5 643.5,-0.5 550.5,-0.5"/>
<text text-anchor="middle" x="597" y="-7.5" font-family="Helvetica,sans-Serif" font-size="10.00">spdlog/spdlog.h</text>
</a>
</g>
</g>
<!-- Node8&#45;&gt;Node11 -->
<g id="edge12" class="edge">
<title>Node8&#45;&gt;Node11</title>
<path fill="none" stroke="midnightblue" d="M422.8,-56.44C458.38,-47.16 515.31,-32.31 554.35,-22.13"/>
<polygon fill="midnightblue" stroke="midnightblue" points="555.56,-25.43 564.35,-19.52 553.79,-18.65 555.56,-25.43"/>
</g>
</g>
</svg>
