<?xml version="1.0" encoding="UTF-8" standalone="no"?>
<!DOCTYPE svg PUBLIC "-//W3C//DTD SVG 1.1//EN"
 "http://www.w3.org/Graphics/SVG/1.1/DTD/svg11.dtd">
<!-- Generated by graphviz version 2.43.0 (0)
 -->
<!-- Title: /home/runner/work/gauri/gauri/gauri/include/platform/opengl/opengl_frame_buffer.h Pages: 1 -->
<svg width="506pt" height="252pt"
 viewBox="0.00 0.00 505.50 252.00" xmlns="http://www.w3.org/2000/svg" xmlns:xlink="http://www.w3.org/1999/xlink">
<g id="graph0" class="graph" transform="scale(1 1) rotate(0) translate(4 248)">
<title>/home/runner/work/gauri/gauri/gauri/include/platform/opengl/opengl_frame_buffer.h</title>
<polygon fill="white" stroke="transparent" points="-4,4 -4,-248 501.5,-248 501.5,4 -4,4"/>
<!-- Node1 -->
<g id="node1" class="node">
<title>Node1</title>
<g id="a_node1"><a xlink:title=" ">
<polygon fill="#bfbfbf" stroke="black" points="0,-224.5 0,-243.5 424,-243.5 424,-224.5 0,-224.5"/>
<text text-anchor="middle" x="212" y="-231.5" font-family="Helvetica,sans-Serif" font-size="10.00">/home/runner/work/gauri/gauri/gauri/include/platform/opengl/opengl_frame_buffer.h</text>
</a>
</g>
</g>
<!-- Node2 -->
<g id="node2" class="node">
<title>Node2</title>
<g id="a_node2"><a xlink:href="frame__buffer_8h.html" target="_top" xlink:title=" ">
<polygon fill="white" stroke="black" points="132,-168.5 132,-187.5 292,-187.5 292,-168.5 132,-168.5"/>
<text text-anchor="middle" x="212" y="-175.5" font-family="Helvetica,sans-Serif" font-size="10.00">gauri/renderer/frame_buffer.h</text>
</a>
</g>
</g>
<!-- Node1&#45;&gt;Node2 -->
<g id="edge1" class="edge">
<title>Node1&#45;&gt;Node2</title>
<path fill="none" stroke="midnightblue" d="M212,-224.08C212,-217.01 212,-206.86 212,-197.99"/>
<polygon fill="midnightblue" stroke="midnightblue" points="215.5,-197.75 212,-187.75 208.5,-197.75 215.5,-197.75"/>
</g>
<!-- Node3 -->
<g id="node3" class="node">
<title>Node3</title>
<g id="a_node3"><a xlink:href="base_8h.html" target="_top" xlink:title=" ">
<polygon fill="white" stroke="black" points="122.5,-112.5 122.5,-131.5 223.5,-131.5 223.5,-112.5 122.5,-112.5"/>
<text text-anchor="middle" x="173" y="-119.5" font-family="Helvetica,sans-Serif" font-size="10.00">gauri/core/base.h</text>
</a>
</g>
</g>
<!-- Node2&#45;&gt;Node3 -->
<g id="edge2" class="edge">
<title>Node2&#45;&gt;Node3</title>
<path fill="none" stroke="midnightblue" d="M205.56,-168.08C200.05,-160.46 191.97,-149.26 185.24,-139.94"/>
<polygon fill="midnightblue" stroke="midnightblue" points="188.01,-137.81 179.32,-131.75 182.34,-141.91 188.01,-137.81"/>
</g>
<!-- Node6 -->
<g id="node6" class="node">
<title>Node6</title>
<g id="a_node6"><a xlink:href="logger_8h.html" target="_top" xlink:title=" ">
<polygon fill="white" stroke="black" points="200.5,-56.5 200.5,-75.5 307.5,-75.5 307.5,-56.5 200.5,-56.5"/>
<text text-anchor="middle" x="254" y="-63.5" font-family="Helvetica,sans-Serif" font-size="10.00">gauri/core/logger.h</text>
</a>
</g>
</g>
<!-- Node2&#45;&gt;Node6 -->
<g id="edge10" class="edge">
<title>Node2&#45;&gt;Node6</title>
<path fill="none" stroke="midnightblue" d="M216.07,-168.47C220.29,-159.49 226.96,-144.9 232,-132 238.09,-116.39 244.13,-98.32 248.34,-85.2"/>
<polygon fill="midnightblue" stroke="midnightblue" points="251.72,-86.09 251.4,-75.5 245.05,-83.99 251.72,-86.09"/>
</g>
<!-- Node4 -->
<g id="node4" class="node">
<title>Node4</title>
<g id="a_node4"><a xlink:title=" ">
<polygon fill="white" stroke="#bfbfbf" points="94,-56.5 94,-75.5 144,-75.5 144,-56.5 94,-56.5"/>
<text text-anchor="middle" x="119" y="-63.5" font-family="Helvetica,sans-Serif" font-size="10.00">cstdint</text>
</a>
</g>
</g>
<!-- Node3&#45;&gt;Node4 -->
<g id="edge3" class="edge">
<title>Node3&#45;&gt;Node4</title>
<path fill="none" stroke="midnightblue" d="M164.08,-112.08C156.22,-104.22 144.57,-92.57 135.08,-83.08"/>
<polygon fill="midnightblue" stroke="midnightblue" points="137.3,-80.35 127.75,-75.75 132.35,-85.3 137.3,-80.35"/>
</g>
<!-- Node5 -->
<g id="node5" class="node">
<title>Node5</title>
<g id="a_node5"><a xlink:title=" ">
<polygon fill="white" stroke="#bfbfbf" points="143,-0.5 143,-19.5 201,-19.5 201,-0.5 143,-0.5"/>
<text text-anchor="middle" x="172" y="-7.5" font-family="Helvetica,sans-Serif" font-size="10.00">memory</text>
</a>
</g>
</g>
<!-- Node3&#45;&gt;Node5 -->
<g id="edge4" class="edge">
<title>Node3&#45;&gt;Node5</title>
<path fill="none" stroke="midnightblue" d="M172.92,-112.37C172.76,-94.62 172.39,-53.67 172.17,-29.6"/>
<polygon fill="midnightblue" stroke="midnightblue" points="175.67,-29.56 172.08,-19.59 168.67,-29.62 175.67,-29.56"/>
</g>
<!-- Node3&#45;&gt;Node6 -->
<g id="edge5" class="edge">
<title>Node3&#45;&gt;Node6</title>
<path fill="none" stroke="midnightblue" d="M186.01,-112.32C198.53,-103.98 217.68,-91.21 232.47,-81.35"/>
<polygon fill="midnightblue" stroke="midnightblue" points="234.64,-84.11 241.02,-75.65 230.76,-78.29 234.64,-84.11"/>
</g>
<!-- Node6&#45;&gt;Node5 -->
<g id="edge7" class="edge">
<title>Node6&#45;&gt;Node5</title>
<path fill="none" stroke="midnightblue" d="M240.83,-56.32C228.15,-47.98 208.77,-35.21 193.79,-25.35"/>
<polygon fill="midnightblue" stroke="midnightblue" points="195.42,-22.23 185.14,-19.65 191.57,-28.08 195.42,-22.23"/>
</g>
<!-- Node7 -->
<g id="node7" class="node">
<title>Node7</title>
<g id="a_node7"><a xlink:title=" ">
<polygon fill="white" stroke="#bfbfbf" points="219,-0.5 219,-19.5 269,-19.5 269,-0.5 219,-0.5"/>
<text text-anchor="middle" x="244" y="-7.5" font-family="Helvetica,sans-Serif" font-size="10.00">format</text>
</a>
</g>
</g>
<!-- Node6&#45;&gt;Node7 -->
<g id="edge6" class="edge">
<title>Node6&#45;&gt;Node7</title>
<path fill="none" stroke="midnightblue" d="M252.35,-56.08C251.02,-48.93 249.12,-38.64 247.46,-29.69"/>
<polygon fill="midnightblue" stroke="midnightblue" points="250.88,-28.95 245.62,-19.75 244,-30.22 250.88,-28.95"/>
</g>
<!-- Node8 -->
<g id="node8" class="node">
<title>Node8</title>
<g id="a_node8"><a xlink:title=" ">
<polygon fill="white" stroke="#bfbfbf" points="287.5,-0.5 287.5,-19.5 386.5,-19.5 386.5,-0.5 287.5,-0.5"/>
<text text-anchor="middle" x="337" y="-7.5" font-family="Helvetica,sans-Serif" font-size="10.00">spdlog/fmt/ostr.h</text>
</a>
</g>
</g>
<!-- Node6&#45;&gt;Node8 -->
<g id="edge8" class="edge">
<title>Node6&#45;&gt;Node8</title>
<path fill="none" stroke="midnightblue" d="M267.34,-56.32C280.16,-47.98 299.78,-35.21 314.94,-25.35"/>
<polygon fill="midnightblue" stroke="midnightblue" points="317.22,-28.04 323.7,-19.65 313.41,-22.17 317.22,-28.04"/>
</g>
<!-- Node9 -->
<g id="node9" class="node">
<title>Node9</title>
<g id="a_node9"><a xlink:title=" ">
<polygon fill="white" stroke="#bfbfbf" points="404.5,-0.5 404.5,-19.5 497.5,-19.5 497.5,-0.5 404.5,-0.5"/>
<text text-anchor="middle" x="451" y="-7.5" font-family="Helvetica,sans-Serif" font-size="10.00">spdlog/spdlog.h</text>
</a>
</g>
</g>
<!-- Node6&#45;&gt;Node9 -->
<g id="edge9" class="edge">
<title>Node6&#45;&gt;Node9</title>
<path fill="none" stroke="midnightblue" d="M285.22,-56.44C318.93,-47.2 372.8,-32.44 409.93,-22.26"/>
<polygon fill="midnightblue" stroke="midnightblue" points="411.21,-25.54 419.93,-19.52 409.36,-18.78 411.21,-25.54"/>
</g>
</g>
</svg>
