<?xml version="1.0" encoding="UTF-8" standalone="no"?>
<!DOCTYPE svg PUBLIC "-//W3C//DTD SVG 1.1//EN"
 "http://www.w3.org/Graphics/SVG/1.1/DTD/svg11.dtd">
<!-- Generated by graphviz version 2.43.0 (0)
 -->
<!-- Title: /home/runner/work/gauri/gauri/gauri/include/platform/opengl/opengl_shader.h Pages: 1 -->
<svg width="520pt" height="252pt"
 viewBox="0.00 0.00 520.00 252.00" xmlns="http://www.w3.org/2000/svg" xmlns:xlink="http://www.w3.org/1999/xlink">
<g id="graph0" class="graph" transform="scale(1 1) rotate(0) translate(4 248)">
<title>/home/runner/work/gauri/gauri/gauri/include/platform/opengl/opengl_shader.h</title>
<polygon fill="white" stroke="transparent" points="-4,4 -4,-248 516,-248 516,4 -4,4"/>
<!-- Node1 -->
<g id="node1" class="node">
<title>Node1</title>
<g id="a_node1"><a xlink:title=" ">
<polygon fill="#bfbfbf" stroke="black" points="0,-224.5 0,-243.5 394,-243.5 394,-224.5 0,-224.5"/>
<text text-anchor="middle" x="197" y="-231.5" font-family="Helvetica,sans-Serif" font-size="10.00">/home/runner/work/gauri/gauri/gauri/include/platform/opengl/opengl_shader.h</text>
</a>
</g>
</g>
<!-- Node2 -->
<g id="node2" class="node">
<title>Node2</title>
<g id="a_node2"><a xlink:title=" ">
<polygon fill="white" stroke="#bfbfbf" points="82,-112.5 82,-131.5 126,-131.5 126,-112.5 82,-112.5"/>
<text text-anchor="middle" x="104" y="-119.5" font-family="Helvetica,sans-Serif" font-size="10.00">string</text>
</a>
</g>
</g>
<!-- Node1&#45;&gt;Node2 -->
<g id="edge1" class="edge">
<title>Node1&#45;&gt;Node2</title>
<path fill="none" stroke="midnightblue" d="M174.12,-224.41C157.64,-217.1 136.09,-205.06 123,-188 112.72,-174.6 108,-155.78 105.83,-141.84"/>
<polygon fill="midnightblue" stroke="midnightblue" points="109.3,-141.38 104.58,-131.9 102.35,-142.26 109.3,-141.38"/>
</g>
<!-- Node3 -->
<g id="node3" class="node">
<title>Node3</title>
<g id="a_node3"><a xlink:title=" ">
<polygon fill="white" stroke="#bfbfbf" points="260,-112.5 260,-131.5 338,-131.5 338,-112.5 260,-112.5"/>
<text text-anchor="middle" x="299" y="-119.5" font-family="Helvetica,sans-Serif" font-size="10.00">glm/glm.hpp</text>
</a>
</g>
</g>
<!-- Node1&#45;&gt;Node3 -->
<g id="edge2" class="edge">
<title>Node1&#45;&gt;Node3</title>
<path fill="none" stroke="midnightblue" d="M218.27,-224.39C234.55,-216.87 256.6,-204.57 271,-188 282.58,-174.68 289.98,-155.85 294.24,-141.88"/>
<polygon fill="midnightblue" stroke="midnightblue" points="297.7,-142.5 297.01,-131.92 290.96,-140.62 297.7,-142.5"/>
</g>
<!-- Node4 -->
<g id="node4" class="node">
<title>Node4</title>
<g id="a_node4"><a xlink:href="shader_8h.html" target="_top" xlink:title=" ">
<polygon fill="white" stroke="black" points="132,-168.5 132,-187.5 262,-187.5 262,-168.5 132,-168.5"/>
<text text-anchor="middle" x="197" y="-175.5" font-family="Helvetica,sans-Serif" font-size="10.00">gauri/renderer/shader.h</text>
</a>
</g>
</g>
<!-- Node1&#45;&gt;Node4 -->
<g id="edge3" class="edge">
<title>Node1&#45;&gt;Node4</title>
<path fill="none" stroke="midnightblue" d="M197,-224.08C197,-217.01 197,-206.86 197,-197.99"/>
<polygon fill="midnightblue" stroke="midnightblue" points="200.5,-197.75 197,-187.75 193.5,-197.75 200.5,-197.75"/>
</g>
<!-- Node4&#45;&gt;Node2 -->
<g id="edge5" class="edge">
<title>Node4&#45;&gt;Node2</title>
<path fill="none" stroke="midnightblue" d="M182.06,-168.32C167.41,-159.82 144.87,-146.73 127.76,-136.8"/>
<polygon fill="midnightblue" stroke="midnightblue" points="129.31,-133.65 118.9,-131.65 125.8,-139.7 129.31,-133.65"/>
</g>
<!-- Node4&#45;&gt;Node3 -->
<g id="edge4" class="edge">
<title>Node4&#45;&gt;Node3</title>
<path fill="none" stroke="midnightblue" d="M213.39,-168.32C229.67,-159.7 254.87,-146.36 273.72,-136.39"/>
<polygon fill="midnightblue" stroke="midnightblue" points="275.45,-139.43 282.65,-131.65 272.18,-133.24 275.45,-139.43"/>
</g>
<!-- Node5 -->
<g id="node5" class="node">
<title>Node5</title>
<g id="a_node5"><a xlink:href="core_8h.html" target="_top" xlink:title=" ">
<polygon fill="white" stroke="black" points="144,-112.5 144,-131.5 242,-131.5 242,-112.5 144,-112.5"/>
<text text-anchor="middle" x="193" y="-119.5" font-family="Helvetica,sans-Serif" font-size="10.00">gauri/core/core.h</text>
</a>
</g>
</g>
<!-- Node4&#45;&gt;Node5 -->
<g id="edge6" class="edge">
<title>Node4&#45;&gt;Node5</title>
<path fill="none" stroke="midnightblue" d="M196.34,-168.08C195.82,-161.01 195.06,-150.86 194.41,-141.99"/>
<polygon fill="midnightblue" stroke="midnightblue" points="197.88,-141.47 193.65,-131.75 190.9,-141.98 197.88,-141.47"/>
</g>
<!-- Node6 -->
<g id="node6" class="node">
<title>Node6</title>
<g id="a_node6"><a xlink:title=" ">
<polygon fill="white" stroke="#bfbfbf" points="115,-56.5 115,-75.5 165,-75.5 165,-56.5 115,-56.5"/>
<text text-anchor="middle" x="140" y="-63.5" font-family="Helvetica,sans-Serif" font-size="10.00">cstdint</text>
</a>
</g>
</g>
<!-- Node5&#45;&gt;Node6 -->
<g id="edge7" class="edge">
<title>Node5&#45;&gt;Node6</title>
<path fill="none" stroke="midnightblue" d="M184.25,-112.08C176.53,-104.22 165.1,-92.57 155.78,-83.08"/>
<polygon fill="midnightblue" stroke="midnightblue" points="158.09,-80.44 148.59,-75.75 153.1,-85.34 158.09,-80.44"/>
</g>
<!-- Node7 -->
<g id="node7" class="node">
<title>Node7</title>
<g id="a_node7"><a xlink:title=" ">
<polygon fill="white" stroke="#bfbfbf" points="157,-0.5 157,-19.5 215,-19.5 215,-0.5 157,-0.5"/>
<text text-anchor="middle" x="186" y="-7.5" font-family="Helvetica,sans-Serif" font-size="10.00">memory</text>
</a>
</g>
</g>
<!-- Node5&#45;&gt;Node7 -->
<g id="edge8" class="edge">
<title>Node5&#45;&gt;Node7</title>
<path fill="none" stroke="midnightblue" d="M192.45,-112.37C191.32,-94.62 188.72,-53.67 187.18,-29.6"/>
<polygon fill="midnightblue" stroke="midnightblue" points="190.67,-29.35 186.55,-19.59 183.69,-29.79 190.67,-29.35"/>
</g>
<!-- Node8 -->
<g id="node8" class="node">
<title>Node8</title>
<g id="a_node8"><a xlink:href="logger_8h.html" target="_top" xlink:title=" ">
<polygon fill="white" stroke="black" points="229.5,-56.5 229.5,-75.5 336.5,-75.5 336.5,-56.5 229.5,-56.5"/>
<text text-anchor="middle" x="283" y="-63.5" font-family="Helvetica,sans-Serif" font-size="10.00">gauri/core/logger.h</text>
</a>
</g>
</g>
<!-- Node5&#45;&gt;Node8 -->
<g id="edge9" class="edge">
<title>Node5&#45;&gt;Node8</title>
<path fill="none" stroke="midnightblue" d="M207.46,-112.32C221.5,-103.9 243.05,-90.97 259.54,-81.07"/>
<polygon fill="midnightblue" stroke="midnightblue" points="261.8,-83.8 268.58,-75.65 258.2,-77.8 261.8,-83.8"/>
</g>
<!-- Node8&#45;&gt;Node7 -->
<g id="edge11" class="edge">
<title>Node8&#45;&gt;Node7</title>
<path fill="none" stroke="midnightblue" d="M267.42,-56.32C252,-47.74 228.19,-34.49 210.29,-24.52"/>
<polygon fill="midnightblue" stroke="midnightblue" points="211.99,-21.46 201.55,-19.65 208.58,-27.58 211.99,-21.46"/>
</g>
<!-- Node9 -->
<g id="node9" class="node">
<title>Node9</title>
<g id="a_node9"><a xlink:title=" ">
<polygon fill="white" stroke="#bfbfbf" points="462,-0.5 462,-19.5 512,-19.5 512,-0.5 462,-0.5"/>
<text text-anchor="middle" x="487" y="-7.5" font-family="Helvetica,sans-Serif" font-size="10.00">format</text>
</a>
</g>
</g>
<!-- Node8&#45;&gt;Node9 -->
<g id="edge10" class="edge">
<title>Node8&#45;&gt;Node9</title>
<path fill="none" stroke="midnightblue" d="M315.32,-56.44C352.66,-46.56 413.85,-30.36 452.2,-20.21"/>
<polygon fill="midnightblue" stroke="midnightblue" points="453.13,-23.59 461.9,-17.64 451.34,-16.82 453.13,-23.59"/>
</g>
<!-- Node10 -->
<g id="node10" class="node">
<title>Node10</title>
<g id="a_node10"><a xlink:title=" ">
<polygon fill="white" stroke="#bfbfbf" points="233.5,-0.5 233.5,-19.5 332.5,-19.5 332.5,-0.5 233.5,-0.5"/>
<text text-anchor="middle" x="283" y="-7.5" font-family="Helvetica,sans-Serif" font-size="10.00">spdlog/fmt/ostr.h</text>
</a>
</g>
</g>
<!-- Node8&#45;&gt;Node10 -->
<g id="edge12" class="edge">
<title>Node8&#45;&gt;Node10</title>
<path fill="none" stroke="midnightblue" d="M283,-56.08C283,-49.01 283,-38.86 283,-29.99"/>
<polygon fill="midnightblue" stroke="midnightblue" points="286.5,-29.75 283,-19.75 279.5,-29.75 286.5,-29.75"/>
</g>
<!-- Node11 -->
<g id="node11" class="node">
<title>Node11</title>
<g id="a_node11"><a xlink:title=" ">
<polygon fill="white" stroke="#bfbfbf" points="350.5,-0.5 350.5,-19.5 443.5,-19.5 443.5,-0.5 350.5,-0.5"/>
<text text-anchor="middle" x="397" y="-7.5" font-family="Helvetica,sans-Serif" font-size="10.00">spdlog/spdlog.h</text>
</a>
</g>
</g>
<!-- Node8&#45;&gt;Node11 -->
<g id="edge13" class="edge">
<title>Node8&#45;&gt;Node11</title>
<path fill="none" stroke="midnightblue" d="M301.06,-56.44C319.57,-47.68 348.58,-33.94 369.86,-23.86"/>
<polygon fill="midnightblue" stroke="midnightblue" points="371.48,-26.96 379.02,-19.52 368.49,-20.63 371.48,-26.96"/>
</g>
</g>
</svg>
