<?xml version="1.0" encoding="UTF-8" standalone="no"?>
<!DOCTYPE svg PUBLIC "-//W3C//DTD SVG 1.1//EN"
 "http://www.w3.org/Graphics/SVG/1.1/DTD/svg11.dtd">
<!-- Generated by graphviz version 2.43.0 (0)
 -->
<!-- Title: /home/runner/work/gauri/gauri/gauri/include/gauri/renderer/orthographic_camera.h Pages: 1 -->
<svg width="1280pt" height="196pt"
 viewBox="0.00 0.00 1280.00 196.00" xmlns="http://www.w3.org/2000/svg" xmlns:xlink="http://www.w3.org/1999/xlink">
<g id="graph0" class="graph" transform="scale(1 1) rotate(0) translate(4 192)">
<title>/home/runner/work/gauri/gauri/gauri/include/gauri/renderer/orthographic_camera.h</title>
<polygon fill="white" stroke="transparent" points="-4,4 -4,-192 1276,-192 1276,4 -4,4"/>
<!-- Node1 -->
<g id="node1" class="node">
<title>Node1</title>
<g id="a_node1"><a xlink:title=" ">
<polygon fill="#bfbfbf" stroke="black" points="391.5,-168.5 391.5,-187.5 809.5,-187.5 809.5,-168.5 391.5,-168.5"/>
<text text-anchor="middle" x="600.5" y="-175.5" font-family="Helvetica,sans-Serif" font-size="10.00">/home/runner/work/gauri/gauri/gauri/include/gauri/renderer/orthographic_camera.h</text>
</a>
</g>
</g>
<!-- Node2 -->
<g id="node2" class="node">
<title>Node2</title>
<g id="a_node2"><a xlink:href="orthographic__camera__controller_8h.html" target="_top" xlink:title=" ">
<polygon fill="white" stroke="black" points="0,-112.5 0,-131.5 469,-131.5 469,-112.5 0,-112.5"/>
<text text-anchor="middle" x="234.5" y="-119.5" font-family="Helvetica,sans-Serif" font-size="10.00">/home/runner/work/gauri/gauri/gauri/include/gauri/renderer/orthographic_camera_controller.h</text>
</a>
</g>
</g>
<!-- Node1&#45;&gt;Node2 -->
<g id="edge1" class="edge">
<title>Node1&#45;&gt;Node2</title>
<path fill="none" stroke="midnightblue" d="M532.58,-166.98C463.45,-156.78 357.43,-141.14 292.22,-131.52"/>
<polygon fill="midnightblue" stroke="midnightblue" points="532.1,-170.45 542.51,-168.44 533.12,-163.52 532.1,-170.45"/>
</g>
<!-- Node3 -->
<g id="node3" class="node">
<title>Node3</title>
<g id="a_node3"><a xlink:href="gauri_8h.html" target="_top" xlink:title=" ">
<polygon fill="white" stroke="black" points="467,-56.5 467,-75.5 734,-75.5 734,-56.5 467,-56.5"/>
<text text-anchor="middle" x="600.5" y="-63.5" font-family="Helvetica,sans-Serif" font-size="10.00">/home/runner/work/gauri/gauri/gauri/include/gauri.h</text>
</a>
</g>
</g>
<!-- Node1&#45;&gt;Node3 -->
<g id="edge8" class="edge">
<title>Node1&#45;&gt;Node3</title>
<path fill="none" stroke="midnightblue" d="M557.79,-164.57C541.96,-157.67 525.65,-147.28 516.5,-132 500.68,-105.58 541.25,-85.97 571.37,-75.53"/>
<polygon fill="midnightblue" stroke="midnightblue" points="556.93,-168 567.51,-168.44 559.51,-161.49 556.93,-168"/>
</g>
<!-- Node5 -->
<g id="node5" class="node">
<title>Node5</title>
<g id="a_node5"><a xlink:href="renderer_8h.html" target="_top" xlink:title=" ">
<polygon fill="white" stroke="black" points="526,-112.5 526,-131.5 881,-131.5 881,-112.5 526,-112.5"/>
<text text-anchor="middle" x="703.5" y="-119.5" font-family="Helvetica,sans-Serif" font-size="10.00">/home/runner/work/gauri/gauri/gauri/include/gauri/renderer/renderer.h</text>
</a>
</g>
</g>
<!-- Node1&#45;&gt;Node5 -->
<g id="edge4" class="edge">
<title>Node1&#45;&gt;Node5</title>
<path fill="none" stroke="midnightblue" d="M626.08,-163.59C645.12,-153.61 670.56,-140.27 686.99,-131.65"/>
<polygon fill="midnightblue" stroke="midnightblue" points="624.28,-160.58 617.05,-168.32 627.53,-166.78 624.28,-160.58"/>
</g>
<!-- Node6 -->
<g id="node6" class="node">
<title>Node6</title>
<g id="a_node6"><a xlink:href="renderer__2d_8h.html" target="_top" xlink:title=" ">
<polygon fill="white" stroke="black" points="899,-112.5 899,-131.5 1272,-131.5 1272,-112.5 899,-112.5"/>
<text text-anchor="middle" x="1085.5" y="-119.5" font-family="Helvetica,sans-Serif" font-size="10.00">/home/runner/work/gauri/gauri/gauri/include/gauri/renderer/renderer_2d.h</text>
</a>
</g>
</g>
<!-- Node1&#45;&gt;Node6 -->
<g id="edge6" class="edge">
<title>Node1&#45;&gt;Node6</title>
<path fill="none" stroke="midnightblue" d="M687.15,-167.35C778.63,-157.17 921.44,-141.27 1008.92,-131.53"/>
<polygon fill="midnightblue" stroke="midnightblue" points="686.63,-163.89 677.08,-168.47 687.41,-170.85 686.63,-163.89"/>
</g>
<!-- Node2&#45;&gt;Node3 -->
<g id="edge2" class="edge">
<title>Node2&#45;&gt;Node3</title>
<path fill="none" stroke="midnightblue" d="M302.42,-110.98C371.55,-100.78 477.57,-85.14 542.78,-75.52"/>
<polygon fill="midnightblue" stroke="midnightblue" points="301.88,-107.52 292.49,-112.44 302.9,-114.45 301.88,-107.52"/>
</g>
<!-- Node4 -->
<g id="node4" class="node">
<title>Node4</title>
<g id="a_node4"><a xlink:href="entry__point_8h.html" target="_top" xlink:title=" ">
<polygon fill="white" stroke="black" points="425.5,-0.5 425.5,-19.5 775.5,-19.5 775.5,-0.5 425.5,-0.5"/>
<text text-anchor="middle" x="600.5" y="-7.5" font-family="Helvetica,sans-Serif" font-size="10.00">/home/runner/work/gauri/gauri/gauri/include/gauri/core/entry_point.h</text>
</a>
</g>
</g>
<!-- Node3&#45;&gt;Node4 -->
<g id="edge3" class="edge">
<title>Node3&#45;&gt;Node4</title>
<path fill="none" stroke="midnightblue" d="M600.5,-45.8C600.5,-36.91 600.5,-26.78 600.5,-19.75"/>
<polygon fill="midnightblue" stroke="midnightblue" points="597,-46.08 600.5,-56.08 604,-46.08 597,-46.08"/>
</g>
<!-- Node5&#45;&gt;Node3 -->
<g id="edge5" class="edge">
<title>Node5&#45;&gt;Node3</title>
<path fill="none" stroke="midnightblue" d="M677.92,-107.59C658.88,-97.61 633.44,-84.27 617.01,-75.65"/>
<polygon fill="midnightblue" stroke="midnightblue" points="676.47,-110.78 686.95,-112.32 679.72,-104.58 676.47,-110.78"/>
</g>
<!-- Node6&#45;&gt;Node3 -->
<g id="edge7" class="edge">
<title>Node6&#45;&gt;Node3</title>
<path fill="none" stroke="midnightblue" d="M998.85,-111.35C907.37,-101.17 764.56,-85.27 677.08,-75.53"/>
<polygon fill="midnightblue" stroke="midnightblue" points="998.59,-114.85 1008.92,-112.47 999.37,-107.89 998.59,-114.85"/>
</g>
</g>
</svg>
