<?xml version="1.0" encoding="UTF-8" standalone="no"?>
<!DOCTYPE svg PUBLIC "-//W3C//DTD SVG 1.1//EN"
 "http://www.w3.org/Graphics/SVG/1.1/DTD/svg11.dtd">
<!-- Generated by graphviz version 2.43.0 (0)
 -->
<!-- Title: /home/runner/work/gauri/gauri/gauri/include/gauri/renderer/orthographic_camera_controller.h Pages: 1 -->
<svg width="650pt" height="252pt"
 viewBox="0.00 0.00 650.00 252.00" xmlns="http://www.w3.org/2000/svg" xmlns:xlink="http://www.w3.org/1999/xlink">
<g id="graph0" class="graph" transform="scale(1 1) rotate(0) translate(4 248)">
<title>/home/runner/work/gauri/gauri/gauri/include/gauri/renderer/orthographic_camera_controller.h</title>
<polygon fill="white" stroke="transparent" points="-4,4 -4,-248 646,-248 646,4 -4,4"/>
<!-- Node1 -->
<g id="node1" class="node">
<title>Node1</title>
<g id="a_node1"><a xlink:title=" ">
<polygon fill="#bfbfbf" stroke="black" points="0,-224.5 0,-243.5 469,-243.5 469,-224.5 0,-224.5"/>
<text text-anchor="middle" x="234.5" y="-231.5" font-family="Helvetica,sans-Serif" font-size="10.00">/home/runner/work/gauri/gauri/gauri/include/gauri/renderer/orthographic_camera_controller.h</text>
</a>
</g>
</g>
<!-- Node2 -->
<g id="node2" class="node">
<title>Node2</title>
<g id="a_node2"><a xlink:href="timestep_8h.html" target="_top" xlink:title=" ">
<polygon fill="white" stroke="black" points="39,-168.5 39,-187.5 160,-187.5 160,-168.5 39,-168.5"/>
<text text-anchor="middle" x="99.5" y="-175.5" font-family="Helvetica,sans-Serif" font-size="10.00">gauri/core/timestep.h</text>
</a>
</g>
</g>
<!-- Node1&#45;&gt;Node2 -->
<g id="edge1" class="edge">
<title>Node1&#45;&gt;Node2</title>
<path fill="none" stroke="midnightblue" d="M213.11,-224.44C190.79,-215.52 155.6,-201.44 130.29,-191.32"/>
<polygon fill="midnightblue" stroke="midnightblue" points="131.38,-187.98 120.79,-187.52 128.78,-194.48 131.38,-187.98"/>
</g>
<!-- Node3 -->
<g id="node3" class="node">
<title>Node3</title>
<g id="a_node3"><a xlink:href="event_8h.html" target="_top" xlink:title=" ">
<polygon fill="white" stroke="black" points="178.5,-168.5 178.5,-187.5 290.5,-187.5 290.5,-168.5 178.5,-168.5"/>
<text text-anchor="middle" x="234.5" y="-175.5" font-family="Helvetica,sans-Serif" font-size="10.00">gauri/event/event.h</text>
</a>
</g>
</g>
<!-- Node1&#45;&gt;Node3 -->
<g id="edge2" class="edge">
<title>Node1&#45;&gt;Node3</title>
<path fill="none" stroke="midnightblue" d="M234.5,-224.08C234.5,-217.01 234.5,-206.86 234.5,-197.99"/>
<polygon fill="midnightblue" stroke="midnightblue" points="238,-197.75 234.5,-187.75 231,-197.75 238,-197.75"/>
</g>
<!-- Node14 -->
<g id="node14" class="node">
<title>Node14</title>
<g id="a_node14"><a xlink:href="orthographic__camera_8h.html" target="_top" xlink:title=" ">
<polygon fill="white" stroke="black" points="353,-168.5 353,-187.5 554,-187.5 554,-168.5 353,-168.5"/>
<text text-anchor="middle" x="453.5" y="-175.5" font-family="Helvetica,sans-Serif" font-size="10.00">gauri/renderer/orthographic_camera.h</text>
</a>
</g>
</g>
<!-- Node1&#45;&gt;Node14 -->
<g id="edge15" class="edge">
<title>Node1&#45;&gt;Node14</title>
<path fill="none" stroke="midnightblue" d="M269.2,-224.44C307.08,-215.1 367.85,-200.12 409.16,-189.93"/>
<polygon fill="midnightblue" stroke="midnightblue" points="410.09,-193.31 418.96,-187.52 408.41,-186.51 410.09,-193.31"/>
</g>
<!-- Node4 -->
<g id="node4" class="node">
<title>Node4</title>
<g id="a_node4"><a xlink:title=" ">
<polygon fill="white" stroke="#bfbfbf" points="157.5,-56.5 157.5,-75.5 207.5,-75.5 207.5,-56.5 157.5,-56.5"/>
<text text-anchor="middle" x="182.5" y="-63.5" font-family="Helvetica,sans-Serif" font-size="10.00">cstdint</text>
</a>
</g>
</g>
<!-- Node3&#45;&gt;Node4 -->
<g id="edge3" class="edge">
<title>Node3&#45;&gt;Node4</title>
<path fill="none" stroke="midnightblue" d="M180.86,-168.43C141.14,-160.86 91.87,-148.47 79.5,-132 58.09,-103.49 109.59,-84.33 147.23,-74.58"/>
<polygon fill="midnightblue" stroke="midnightblue" points="148.53,-77.86 157.4,-72.08 146.86,-71.07 148.53,-77.86"/>
</g>
<!-- Node5 -->
<g id="node5" class="node">
<title>Node5</title>
<g id="a_node5"><a xlink:title=" ">
<polygon fill="white" stroke="#bfbfbf" points="89,-112.5 89,-131.5 154,-131.5 154,-112.5 89,-112.5"/>
<text text-anchor="middle" x="121.5" y="-119.5" font-family="Helvetica,sans-Serif" font-size="10.00">functional</text>
</a>
</g>
</g>
<!-- Node3&#45;&gt;Node5 -->
<g id="edge4" class="edge">
<title>Node3&#45;&gt;Node5</title>
<path fill="none" stroke="midnightblue" d="M216.59,-168.44C198.25,-159.68 169.49,-145.94 148.41,-135.86"/>
<polygon fill="midnightblue" stroke="midnightblue" points="149.85,-132.67 139.32,-131.52 146.83,-138.99 149.85,-132.67"/>
</g>
<!-- Node6 -->
<g id="node6" class="node">
<title>Node6</title>
<g id="a_node6"><a xlink:title=" ">
<polygon fill="white" stroke="#bfbfbf" points="172.5,-112.5 172.5,-131.5 228.5,-131.5 228.5,-112.5 172.5,-112.5"/>
<text text-anchor="middle" x="200.5" y="-119.5" font-family="Helvetica,sans-Serif" font-size="10.00">sstream</text>
</a>
</g>
</g>
<!-- Node3&#45;&gt;Node6 -->
<g id="edge5" class="edge">
<title>Node3&#45;&gt;Node6</title>
<path fill="none" stroke="midnightblue" d="M228.89,-168.08C224.13,-160.53 217.18,-149.49 211.35,-140.23"/>
<polygon fill="midnightblue" stroke="midnightblue" points="214.3,-138.35 206.01,-131.75 208.38,-142.08 214.3,-138.35"/>
</g>
<!-- Node7 -->
<g id="node7" class="node">
<title>Node7</title>
<g id="a_node7"><a xlink:title=" ">
<polygon fill="white" stroke="#bfbfbf" points="246.5,-112.5 246.5,-131.5 290.5,-131.5 290.5,-112.5 246.5,-112.5"/>
<text text-anchor="middle" x="268.5" y="-119.5" font-family="Helvetica,sans-Serif" font-size="10.00">string</text>
</a>
</g>
</g>
<!-- Node3&#45;&gt;Node7 -->
<g id="edge6" class="edge">
<title>Node3&#45;&gt;Node7</title>
<path fill="none" stroke="midnightblue" d="M240.11,-168.08C244.87,-160.53 251.82,-149.49 257.65,-140.23"/>
<polygon fill="midnightblue" stroke="midnightblue" points="260.62,-142.08 262.99,-131.75 254.7,-138.35 260.62,-142.08"/>
</g>
<!-- Node8 -->
<g id="node8" class="node">
<title>Node8</title>
<g id="a_node8"><a xlink:href="core_8h.html" target="_top" xlink:title=" ">
<polygon fill="white" stroke="black" points="308.5,-112.5 308.5,-131.5 406.5,-131.5 406.5,-112.5 308.5,-112.5"/>
<text text-anchor="middle" x="357.5" y="-119.5" font-family="Helvetica,sans-Serif" font-size="10.00">gauri/core/core.h</text>
</a>
</g>
</g>
<!-- Node3&#45;&gt;Node8 -->
<g id="edge7" class="edge">
<title>Node3&#45;&gt;Node8</title>
<path fill="none" stroke="midnightblue" d="M253.99,-168.44C274.14,-159.6 305.82,-145.69 328.83,-135.59"/>
<polygon fill="midnightblue" stroke="midnightblue" points="330.35,-138.74 338.1,-131.52 327.54,-132.33 330.35,-138.74"/>
</g>
<!-- Node8&#45;&gt;Node4 -->
<g id="edge8" class="edge">
<title>Node8&#45;&gt;Node4</title>
<path fill="none" stroke="midnightblue" d="M329.77,-112.44C299.29,-103.04 250.27,-87.91 217.24,-77.72"/>
<polygon fill="midnightblue" stroke="midnightblue" points="218.14,-74.33 207.55,-74.73 216.07,-81.02 218.14,-74.33"/>
</g>
<!-- Node9 -->
<g id="node9" class="node">
<title>Node9</title>
<g id="a_node9"><a xlink:title=" ">
<polygon fill="white" stroke="#bfbfbf" points="287.5,-0.5 287.5,-19.5 345.5,-19.5 345.5,-0.5 287.5,-0.5"/>
<text text-anchor="middle" x="316.5" y="-7.5" font-family="Helvetica,sans-Serif" font-size="10.00">memory</text>
</a>
</g>
</g>
<!-- Node8&#45;&gt;Node9 -->
<g id="edge9" class="edge">
<title>Node8&#45;&gt;Node9</title>
<path fill="none" stroke="midnightblue" d="M352.95,-112.19C348.42,-103.23 341.46,-88.87 336.5,-76 330.53,-60.51 325.09,-42.42 321.39,-29.27"/>
<polygon fill="midnightblue" stroke="midnightblue" points="324.74,-28.26 318.72,-19.54 317.99,-30.11 324.74,-28.26"/>
</g>
<!-- Node10 -->
<g id="node10" class="node">
<title>Node10</title>
<g id="a_node10"><a xlink:href="logger_8h.html" target="_top" xlink:title=" ">
<polygon fill="white" stroke="black" points="345,-56.5 345,-75.5 452,-75.5 452,-56.5 345,-56.5"/>
<text text-anchor="middle" x="398.5" y="-63.5" font-family="Helvetica,sans-Serif" font-size="10.00">gauri/core/logger.h</text>
</a>
</g>
</g>
<!-- Node8&#45;&gt;Node10 -->
<g id="edge10" class="edge">
<title>Node8&#45;&gt;Node10</title>
<path fill="none" stroke="midnightblue" d="M364.27,-112.08C370.06,-104.46 378.56,-93.26 385.64,-83.94"/>
<polygon fill="midnightblue" stroke="midnightblue" points="388.6,-85.83 391.86,-75.75 383.02,-81.6 388.6,-85.83"/>
</g>
<!-- Node10&#45;&gt;Node9 -->
<g id="edge12" class="edge">
<title>Node10&#45;&gt;Node9</title>
<path fill="none" stroke="midnightblue" d="M385.33,-56.32C372.65,-47.98 353.27,-35.21 338.29,-25.35"/>
<polygon fill="midnightblue" stroke="midnightblue" points="339.92,-22.23 329.64,-19.65 336.07,-28.08 339.92,-22.23"/>
</g>
<!-- Node11 -->
<g id="node11" class="node">
<title>Node11</title>
<g id="a_node11"><a xlink:title=" ">
<polygon fill="white" stroke="#bfbfbf" points="363.5,-0.5 363.5,-19.5 413.5,-19.5 413.5,-0.5 363.5,-0.5"/>
<text text-anchor="middle" x="388.5" y="-7.5" font-family="Helvetica,sans-Serif" font-size="10.00">format</text>
</a>
</g>
</g>
<!-- Node10&#45;&gt;Node11 -->
<g id="edge11" class="edge">
<title>Node10&#45;&gt;Node11</title>
<path fill="none" stroke="midnightblue" d="M396.85,-56.08C395.52,-48.93 393.62,-38.64 391.96,-29.69"/>
<polygon fill="midnightblue" stroke="midnightblue" points="395.38,-28.95 390.12,-19.75 388.5,-30.22 395.38,-28.95"/>
</g>
<!-- Node12 -->
<g id="node12" class="node">
<title>Node12</title>
<g id="a_node12"><a xlink:title=" ">
<polygon fill="white" stroke="#bfbfbf" points="432,-0.5 432,-19.5 531,-19.5 531,-0.5 432,-0.5"/>
<text text-anchor="middle" x="481.5" y="-7.5" font-family="Helvetica,sans-Serif" font-size="10.00">spdlog/fmt/ostr.h</text>
</a>
</g>
</g>
<!-- Node10&#45;&gt;Node12 -->
<g id="edge13" class="edge">
<title>Node10&#45;&gt;Node12</title>
<path fill="none" stroke="midnightblue" d="M411.84,-56.32C424.66,-47.98 444.28,-35.21 459.44,-25.35"/>
<polygon fill="midnightblue" stroke="midnightblue" points="461.72,-28.04 468.2,-19.65 457.91,-22.17 461.72,-28.04"/>
</g>
<!-- Node13 -->
<g id="node13" class="node">
<title>Node13</title>
<g id="a_node13"><a xlink:title=" ">
<polygon fill="white" stroke="#bfbfbf" points="549,-0.5 549,-19.5 642,-19.5 642,-0.5 549,-0.5"/>
<text text-anchor="middle" x="595.5" y="-7.5" font-family="Helvetica,sans-Serif" font-size="10.00">spdlog/spdlog.h</text>
</a>
</g>
</g>
<!-- Node10&#45;&gt;Node13 -->
<g id="edge14" class="edge">
<title>Node10&#45;&gt;Node13</title>
<path fill="none" stroke="midnightblue" d="M429.72,-56.44C463.43,-47.2 517.3,-32.44 554.43,-22.26"/>
<polygon fill="midnightblue" stroke="midnightblue" points="555.71,-25.54 564.43,-19.52 553.86,-18.78 555.71,-25.54"/>
</g>
<!-- Node15 -->
<g id="node15" class="node">
<title>Node15</title>
<g id="a_node15"><a xlink:title=" ">
<polygon fill="white" stroke="#bfbfbf" points="424.5,-112.5 424.5,-131.5 502.5,-131.5 502.5,-112.5 424.5,-112.5"/>
<text text-anchor="middle" x="463.5" y="-119.5" font-family="Helvetica,sans-Serif" font-size="10.00">glm/glm.hpp</text>
</a>
</g>
</g>
<!-- Node14&#45;&gt;Node15 -->
<g id="edge16" class="edge">
<title>Node14&#45;&gt;Node15</title>
<path fill="none" stroke="midnightblue" d="M455.15,-168.08C456.48,-160.93 458.38,-150.64 460.04,-141.69"/>
<polygon fill="midnightblue" stroke="midnightblue" points="463.5,-142.22 461.88,-131.75 456.62,-140.95 463.5,-142.22"/>
</g>
</g>
</svg>
