<?xml version="1.0" encoding="UTF-8" standalone="no"?>
<!DOCTYPE svg PUBLIC "-//W3C//DTD SVG 1.1//EN"
 "http://www.w3.org/Graphics/SVG/1.1/DTD/svg11.dtd">
<!-- Generated by graphviz version 2.43.0 (0)
 -->
<!-- Title: /home/runner/work/gauri/gauri/gauri/include/gauri/renderer/render_command.h Pages: 1 -->
<svg width="595pt" height="364pt"
 viewBox="0.00 0.00 594.50 364.00" xmlns="http://www.w3.org/2000/svg" xmlns:xlink="http://www.w3.org/1999/xlink">
<g id="graph0" class="graph" transform="scale(1 1) rotate(0) translate(4 360)">
<title>/home/runner/work/gauri/gauri/gauri/include/gauri/renderer/render_command.h</title>
<polygon fill="white" stroke="transparent" points="-4,4 -4,-360 590.5,-360 590.5,4 -4,4"/>
<!-- Node1 -->
<g id="node1" class="node">
<title>Node1</title>
<g id="a_node1"><a xlink:title=" ">
<polygon fill="#bfbfbf" stroke="black" points="0,-336.5 0,-355.5 400,-355.5 400,-336.5 0,-336.5"/>
<text text-anchor="middle" x="200" y="-343.5" font-family="Helvetica,sans-Serif" font-size="10.00">/home/runner/work/gauri/gauri/gauri/include/gauri/renderer/render_command.h</text>
</a>
</g>
</g>
<!-- Node2 -->
<g id="node2" class="node">
<title>Node2</title>
<g id="a_node2"><a xlink:href="renderer__api_8h.html" target="_top" xlink:title=" ">
<polygon fill="white" stroke="black" points="120.5,-280.5 120.5,-299.5 279.5,-299.5 279.5,-280.5 120.5,-280.5"/>
<text text-anchor="middle" x="200" y="-287.5" font-family="Helvetica,sans-Serif" font-size="10.00">gauri/renderer/renderer_api.h</text>
</a>
</g>
</g>
<!-- Node1&#45;&gt;Node2 -->
<g id="edge1" class="edge">
<title>Node1&#45;&gt;Node2</title>
<path fill="none" stroke="midnightblue" d="M200,-336.08C200,-329.01 200,-318.86 200,-309.99"/>
<polygon fill="midnightblue" stroke="midnightblue" points="203.5,-309.75 200,-299.75 196.5,-309.75 203.5,-309.75"/>
</g>
<!-- Node3 -->
<g id="node3" class="node">
<title>Node3</title>
<g id="a_node3"><a xlink:title=" ">
<polygon fill="white" stroke="#bfbfbf" points="94,-224.5 94,-243.5 172,-243.5 172,-224.5 94,-224.5"/>
<text text-anchor="middle" x="133" y="-231.5" font-family="Helvetica,sans-Serif" font-size="10.00">glm/glm.hpp</text>
</a>
</g>
</g>
<!-- Node2&#45;&gt;Node3 -->
<g id="edge2" class="edge">
<title>Node2&#45;&gt;Node3</title>
<path fill="none" stroke="midnightblue" d="M189.24,-280.32C179.23,-272.26 164.11,-260.08 152.07,-250.37"/>
<polygon fill="midnightblue" stroke="midnightblue" points="153.94,-247.38 143.96,-243.83 149.55,-252.83 153.94,-247.38"/>
</g>
<!-- Node4 -->
<g id="node4" class="node">
<title>Node4</title>
<g id="a_node4"><a xlink:title=" ">
<polygon fill="white" stroke="#bfbfbf" points="221,-0.5 221,-19.5 279,-19.5 279,-0.5 221,-0.5"/>
<text text-anchor="middle" x="250" y="-7.5" font-family="Helvetica,sans-Serif" font-size="10.00">memory</text>
</a>
</g>
</g>
<!-- Node2&#45;&gt;Node4 -->
<g id="edge3" class="edge">
<title>Node2&#45;&gt;Node4</title>
<path fill="none" stroke="midnightblue" d="M200,-280.44C200,-261.94 200,-216.81 200,-179 200,-179 200,-179 200,-121 200,-85.18 222.24,-48.21 237.05,-27.56"/>
<polygon fill="midnightblue" stroke="midnightblue" points="239.88,-29.63 243.05,-19.52 234.27,-25.45 239.88,-29.63"/>
</g>
<!-- Node5 -->
<g id="node5" class="node">
<title>Node5</title>
<g id="a_node5"><a xlink:href="vertex__array_8h.html" target="_top" xlink:title=" ">
<polygon fill="white" stroke="black" points="228,-224.5 228,-243.5 386,-243.5 386,-224.5 228,-224.5"/>
<text text-anchor="middle" x="307" y="-231.5" font-family="Helvetica,sans-Serif" font-size="10.00">gauri/renderer/vertex_array.h</text>
</a>
</g>
</g>
<!-- Node2&#45;&gt;Node5 -->
<g id="edge4" class="edge">
<title>Node2&#45;&gt;Node5</title>
<path fill="none" stroke="midnightblue" d="M217.19,-280.32C234.35,-271.66 260.95,-258.24 280.75,-248.25"/>
<polygon fill="midnightblue" stroke="midnightblue" points="282.5,-251.28 289.85,-243.65 279.35,-245.04 282.5,-251.28"/>
</g>
<!-- Node5&#45;&gt;Node4 -->
<g id="edge5" class="edge">
<title>Node5&#45;&gt;Node4</title>
<path fill="none" stroke="midnightblue" d="M292.21,-224.4C280.33,-216.58 264.44,-203.86 257,-188 232.22,-135.2 240.31,-63.5 246.17,-29.87"/>
<polygon fill="midnightblue" stroke="midnightblue" points="249.69,-30.13 248.09,-19.66 242.81,-28.84 249.69,-30.13"/>
</g>
<!-- Node6 -->
<g id="node6" class="node">
<title>Node6</title>
<g id="a_node6"><a xlink:href="buffer_8h.html" target="_top" xlink:title=" ">
<polygon fill="white" stroke="black" points="266.5,-168.5 266.5,-187.5 391.5,-187.5 391.5,-168.5 266.5,-168.5"/>
<text text-anchor="middle" x="329" y="-175.5" font-family="Helvetica,sans-Serif" font-size="10.00">gauri/renderer/buffer.h</text>
</a>
</g>
</g>
<!-- Node5&#45;&gt;Node6 -->
<g id="edge6" class="edge">
<title>Node5&#45;&gt;Node6</title>
<path fill="none" stroke="midnightblue" d="M310.63,-224.08C313.61,-216.77 317.93,-206.18 321.62,-197.1"/>
<polygon fill="midnightblue" stroke="midnightblue" points="324.9,-198.33 325.43,-187.75 318.42,-195.69 324.9,-198.33"/>
</g>
<!-- Node7 -->
<g id="node7" class="node">
<title>Node7</title>
<g id="a_node7"><a xlink:href="base_8h.html" target="_top" xlink:title=" ">
<polygon fill="white" stroke="black" points="278.5,-112.5 278.5,-131.5 379.5,-131.5 379.5,-112.5 278.5,-112.5"/>
<text text-anchor="middle" x="329" y="-119.5" font-family="Helvetica,sans-Serif" font-size="10.00">gauri/core/base.h</text>
</a>
</g>
</g>
<!-- Node6&#45;&gt;Node7 -->
<g id="edge7" class="edge">
<title>Node6&#45;&gt;Node7</title>
<path fill="none" stroke="midnightblue" d="M329,-168.08C329,-161.01 329,-150.86 329,-141.99"/>
<polygon fill="midnightblue" stroke="midnightblue" points="332.5,-141.75 329,-131.75 325.5,-141.75 332.5,-141.75"/>
</g>
<!-- Node9 -->
<g id="node9" class="node">
<title>Node9</title>
<g id="a_node9"><a xlink:href="logger_8h.html" target="_top" xlink:title=" ">
<polygon fill="white" stroke="black" points="372.5,-56.5 372.5,-75.5 479.5,-75.5 479.5,-56.5 372.5,-56.5"/>
<text text-anchor="middle" x="426" y="-63.5" font-family="Helvetica,sans-Serif" font-size="10.00">gauri/core/logger.h</text>
</a>
</g>
</g>
<!-- Node6&#45;&gt;Node9 -->
<g id="edge15" class="edge">
<title>Node6&#45;&gt;Node9</title>
<path fill="none" stroke="midnightblue" d="M343.38,-168.34C356.18,-160.13 374.86,-146.86 388,-132 400.56,-117.8 411.08,-98.83 417.85,-85.05"/>
<polygon fill="midnightblue" stroke="midnightblue" points="421.16,-86.22 422.26,-75.69 414.83,-83.24 421.16,-86.22"/>
</g>
<!-- Node7&#45;&gt;Node4 -->
<g id="edge9" class="edge">
<title>Node7&#45;&gt;Node4</title>
<path fill="none" stroke="midnightblue" d="M322.37,-112.45C315.44,-103.46 304.3,-88.85 295,-76 283.48,-60.07 270.76,-41.62 261.79,-28.45"/>
<polygon fill="midnightblue" stroke="midnightblue" points="264.51,-26.22 256,-19.91 258.72,-30.15 264.51,-26.22"/>
</g>
<!-- Node8 -->
<g id="node8" class="node">
<title>Node8</title>
<g id="a_node8"><a xlink:title=" ">
<polygon fill="white" stroke="#bfbfbf" points="304,-56.5 304,-75.5 354,-75.5 354,-56.5 304,-56.5"/>
<text text-anchor="middle" x="329" y="-63.5" font-family="Helvetica,sans-Serif" font-size="10.00">cstdint</text>
</a>
</g>
</g>
<!-- Node7&#45;&gt;Node8 -->
<g id="edge8" class="edge">
<title>Node7&#45;&gt;Node8</title>
<path fill="none" stroke="midnightblue" d="M329,-112.08C329,-105.01 329,-94.86 329,-85.99"/>
<polygon fill="midnightblue" stroke="midnightblue" points="332.5,-85.75 329,-75.75 325.5,-85.75 332.5,-85.75"/>
</g>
<!-- Node7&#45;&gt;Node9 -->
<g id="edge10" class="edge">
<title>Node7&#45;&gt;Node9</title>
<path fill="none" stroke="midnightblue" d="M344.58,-112.32C360,-103.74 383.81,-90.49 401.71,-80.52"/>
<polygon fill="midnightblue" stroke="midnightblue" points="403.42,-83.58 410.45,-75.65 400.01,-77.46 403.42,-83.58"/>
</g>
<!-- Node9&#45;&gt;Node4 -->
<g id="edge12" class="edge">
<title>Node9&#45;&gt;Node4</title>
<path fill="none" stroke="midnightblue" d="M398.11,-56.44C368.25,-47.28 320.69,-32.69 287.54,-22.52"/>
<polygon fill="midnightblue" stroke="midnightblue" points="288.34,-19.1 277.76,-19.52 286.29,-25.8 288.34,-19.1"/>
</g>
<!-- Node10 -->
<g id="node10" class="node">
<title>Node10</title>
<g id="a_node10"><a xlink:title=" ">
<polygon fill="white" stroke="#bfbfbf" points="308,-0.5 308,-19.5 358,-19.5 358,-0.5 308,-0.5"/>
<text text-anchor="middle" x="333" y="-7.5" font-family="Helvetica,sans-Serif" font-size="10.00">format</text>
</a>
</g>
</g>
<!-- Node9&#45;&gt;Node10 -->
<g id="edge11" class="edge">
<title>Node9&#45;&gt;Node10</title>
<path fill="none" stroke="midnightblue" d="M411.06,-56.32C396.41,-47.82 373.87,-34.73 356.76,-24.8"/>
<polygon fill="midnightblue" stroke="midnightblue" points="358.31,-21.65 347.9,-19.65 354.8,-27.7 358.31,-21.65"/>
</g>
<!-- Node11 -->
<g id="node11" class="node">
<title>Node11</title>
<g id="a_node11"><a xlink:title=" ">
<polygon fill="white" stroke="#bfbfbf" points="376.5,-0.5 376.5,-19.5 475.5,-19.5 475.5,-0.5 376.5,-0.5"/>
<text text-anchor="middle" x="426" y="-7.5" font-family="Helvetica,sans-Serif" font-size="10.00">spdlog/fmt/ostr.h</text>
</a>
</g>
</g>
<!-- Node9&#45;&gt;Node11 -->
<g id="edge13" class="edge">
<title>Node9&#45;&gt;Node11</title>
<path fill="none" stroke="midnightblue" d="M426,-56.08C426,-49.01 426,-38.86 426,-29.99"/>
<polygon fill="midnightblue" stroke="midnightblue" points="429.5,-29.75 426,-19.75 422.5,-29.75 429.5,-29.75"/>
</g>
<!-- Node12 -->
<g id="node12" class="node">
<title>Node12</title>
<g id="a_node12"><a xlink:title=" ">
<polygon fill="white" stroke="#bfbfbf" points="493.5,-0.5 493.5,-19.5 586.5,-19.5 586.5,-0.5 493.5,-0.5"/>
<text text-anchor="middle" x="540" y="-7.5" font-family="Helvetica,sans-Serif" font-size="10.00">spdlog/spdlog.h</text>
</a>
</g>
</g>
<!-- Node9&#45;&gt;Node12 -->
<g id="edge14" class="edge">
<title>Node9&#45;&gt;Node12</title>
<path fill="none" stroke="midnightblue" d="M444.06,-56.44C462.57,-47.68 491.58,-33.94 512.86,-23.86"/>
<polygon fill="midnightblue" stroke="midnightblue" points="514.48,-26.96 522.02,-19.52 511.49,-20.63 514.48,-26.96"/>
</g>
</g>
</svg>
