<?xml version="1.0" encoding="UTF-8" standalone="no"?>
<!DOCTYPE svg PUBLIC "-//W3C//DTD SVG 1.1//EN"
 "http://www.w3.org/Graphics/SVG/1.1/DTD/svg11.dtd">
<!-- Generated by graphviz version 2.43.0 (0)
 -->
<!-- Title: /home/runner/work/gauri/gauri/gauri/include/gauri/renderer/renderer_api.h Pages: 1 -->
<svg width="583pt" height="308pt"
 viewBox="0.00 0.00 582.50 308.00" xmlns="http://www.w3.org/2000/svg" xmlns:xlink="http://www.w3.org/1999/xlink">
<g id="graph0" class="graph" transform="scale(1 1) rotate(0) translate(4 304)">
<title>/home/runner/work/gauri/gauri/gauri/include/gauri/renderer/renderer_api.h</title>
<polygon fill="white" stroke="transparent" points="-4,4 -4,-304 578.5,-304 578.5,4 -4,4"/>
<!-- Node1 -->
<g id="node1" class="node">
<title>Node1</title>
<g id="a_node1"><a xlink:title=" ">
<polygon fill="#bfbfbf" stroke="black" points="0,-280.5 0,-299.5 376,-299.5 376,-280.5 0,-280.5"/>
<text text-anchor="middle" x="188" y="-287.5" font-family="Helvetica,sans-Serif" font-size="10.00">/home/runner/work/gauri/gauri/gauri/include/gauri/renderer/renderer_api.h</text>
</a>
</g>
</g>
<!-- Node2 -->
<g id="node2" class="node">
<title>Node2</title>
<g id="a_node2"><a xlink:title=" ">
<polygon fill="white" stroke="#bfbfbf" points="82,-224.5 82,-243.5 160,-243.5 160,-224.5 82,-224.5"/>
<text text-anchor="middle" x="121" y="-231.5" font-family="Helvetica,sans-Serif" font-size="10.00">glm/glm.hpp</text>
</a>
</g>
</g>
<!-- Node1&#45;&gt;Node2 -->
<g id="edge1" class="edge">
<title>Node1&#45;&gt;Node2</title>
<path fill="none" stroke="midnightblue" d="M177.24,-280.32C167.23,-272.26 152.11,-260.08 140.07,-250.37"/>
<polygon fill="midnightblue" stroke="midnightblue" points="141.94,-247.38 131.96,-243.83 137.55,-252.83 141.94,-247.38"/>
</g>
<!-- Node3 -->
<g id="node3" class="node">
<title>Node3</title>
<g id="a_node3"><a xlink:title=" ">
<polygon fill="white" stroke="#bfbfbf" points="209,-0.5 209,-19.5 267,-19.5 267,-0.5 209,-0.5"/>
<text text-anchor="middle" x="238" y="-7.5" font-family="Helvetica,sans-Serif" font-size="10.00">memory</text>
</a>
</g>
</g>
<!-- Node1&#45;&gt;Node3 -->
<g id="edge2" class="edge">
<title>Node1&#45;&gt;Node3</title>
<path fill="none" stroke="midnightblue" d="M188,-280.44C188,-261.94 188,-216.81 188,-179 188,-179 188,-179 188,-121 188,-85.18 210.24,-48.21 225.05,-27.56"/>
<polygon fill="midnightblue" stroke="midnightblue" points="227.88,-29.63 231.05,-19.52 222.27,-25.45 227.88,-29.63"/>
</g>
<!-- Node4 -->
<g id="node4" class="node">
<title>Node4</title>
<g id="a_node4"><a xlink:href="vertex__array_8h.html" target="_top" xlink:title=" ">
<polygon fill="white" stroke="black" points="216,-224.5 216,-243.5 374,-243.5 374,-224.5 216,-224.5"/>
<text text-anchor="middle" x="295" y="-231.5" font-family="Helvetica,sans-Serif" font-size="10.00">gauri/renderer/vertex_array.h</text>
</a>
</g>
</g>
<!-- Node1&#45;&gt;Node4 -->
<g id="edge3" class="edge">
<title>Node1&#45;&gt;Node4</title>
<path fill="none" stroke="midnightblue" d="M205.19,-280.32C222.35,-271.66 248.95,-258.24 268.75,-248.25"/>
<polygon fill="midnightblue" stroke="midnightblue" points="270.5,-251.28 277.85,-243.65 267.35,-245.04 270.5,-251.28"/>
</g>
<!-- Node4&#45;&gt;Node3 -->
<g id="edge4" class="edge">
<title>Node4&#45;&gt;Node3</title>
<path fill="none" stroke="midnightblue" d="M280.21,-224.4C268.33,-216.58 252.44,-203.86 245,-188 220.22,-135.2 228.31,-63.5 234.17,-29.87"/>
<polygon fill="midnightblue" stroke="midnightblue" points="237.69,-30.13 236.09,-19.66 230.81,-28.84 237.69,-30.13"/>
</g>
<!-- Node5 -->
<g id="node5" class="node">
<title>Node5</title>
<g id="a_node5"><a xlink:href="buffer_8h.html" target="_top" xlink:title=" ">
<polygon fill="white" stroke="black" points="254.5,-168.5 254.5,-187.5 379.5,-187.5 379.5,-168.5 254.5,-168.5"/>
<text text-anchor="middle" x="317" y="-175.5" font-family="Helvetica,sans-Serif" font-size="10.00">gauri/renderer/buffer.h</text>
</a>
</g>
</g>
<!-- Node4&#45;&gt;Node5 -->
<g id="edge5" class="edge">
<title>Node4&#45;&gt;Node5</title>
<path fill="none" stroke="midnightblue" d="M298.63,-224.08C301.61,-216.77 305.93,-206.18 309.62,-197.1"/>
<polygon fill="midnightblue" stroke="midnightblue" points="312.9,-198.33 313.43,-187.75 306.42,-195.69 312.9,-198.33"/>
</g>
<!-- Node6 -->
<g id="node6" class="node">
<title>Node6</title>
<g id="a_node6"><a xlink:href="base_8h.html" target="_top" xlink:title=" ">
<polygon fill="white" stroke="black" points="266.5,-112.5 266.5,-131.5 367.5,-131.5 367.5,-112.5 266.5,-112.5"/>
<text text-anchor="middle" x="317" y="-119.5" font-family="Helvetica,sans-Serif" font-size="10.00">gauri/core/base.h</text>
</a>
</g>
</g>
<!-- Node5&#45;&gt;Node6 -->
<g id="edge6" class="edge">
<title>Node5&#45;&gt;Node6</title>
<path fill="none" stroke="midnightblue" d="M317,-168.08C317,-161.01 317,-150.86 317,-141.99"/>
<polygon fill="midnightblue" stroke="midnightblue" points="320.5,-141.75 317,-131.75 313.5,-141.75 320.5,-141.75"/>
</g>
<!-- Node8 -->
<g id="node8" class="node">
<title>Node8</title>
<g id="a_node8"><a xlink:href="logger_8h.html" target="_top" xlink:title=" ">
<polygon fill="white" stroke="black" points="360.5,-56.5 360.5,-75.5 467.5,-75.5 467.5,-56.5 360.5,-56.5"/>
<text text-anchor="middle" x="414" y="-63.5" font-family="Helvetica,sans-Serif" font-size="10.00">gauri/core/logger.h</text>
</a>
</g>
</g>
<!-- Node5&#45;&gt;Node8 -->
<g id="edge14" class="edge">
<title>Node5&#45;&gt;Node8</title>
<path fill="none" stroke="midnightblue" d="M331.38,-168.34C344.18,-160.13 362.86,-146.86 376,-132 388.56,-117.8 399.08,-98.83 405.85,-85.05"/>
<polygon fill="midnightblue" stroke="midnightblue" points="409.16,-86.22 410.26,-75.69 402.83,-83.24 409.16,-86.22"/>
</g>
<!-- Node6&#45;&gt;Node3 -->
<g id="edge8" class="edge">
<title>Node6&#45;&gt;Node3</title>
<path fill="none" stroke="midnightblue" d="M310.37,-112.45C303.44,-103.46 292.3,-88.85 283,-76 271.48,-60.07 258.76,-41.62 249.79,-28.45"/>
<polygon fill="midnightblue" stroke="midnightblue" points="252.51,-26.22 244,-19.91 246.72,-30.15 252.51,-26.22"/>
</g>
<!-- Node7 -->
<g id="node7" class="node">
<title>Node7</title>
<g id="a_node7"><a xlink:title=" ">
<polygon fill="white" stroke="#bfbfbf" points="292,-56.5 292,-75.5 342,-75.5 342,-56.5 292,-56.5"/>
<text text-anchor="middle" x="317" y="-63.5" font-family="Helvetica,sans-Serif" font-size="10.00">cstdint</text>
</a>
</g>
</g>
<!-- Node6&#45;&gt;Node7 -->
<g id="edge7" class="edge">
<title>Node6&#45;&gt;Node7</title>
<path fill="none" stroke="midnightblue" d="M317,-112.08C317,-105.01 317,-94.86 317,-85.99"/>
<polygon fill="midnightblue" stroke="midnightblue" points="320.5,-85.75 317,-75.75 313.5,-85.75 320.5,-85.75"/>
</g>
<!-- Node6&#45;&gt;Node8 -->
<g id="edge9" class="edge">
<title>Node6&#45;&gt;Node8</title>
<path fill="none" stroke="midnightblue" d="M332.58,-112.32C348,-103.74 371.81,-90.49 389.71,-80.52"/>
<polygon fill="midnightblue" stroke="midnightblue" points="391.42,-83.58 398.45,-75.65 388.01,-77.46 391.42,-83.58"/>
</g>
<!-- Node8&#45;&gt;Node3 -->
<g id="edge11" class="edge">
<title>Node8&#45;&gt;Node3</title>
<path fill="none" stroke="midnightblue" d="M386.11,-56.44C356.25,-47.28 308.69,-32.69 275.54,-22.52"/>
<polygon fill="midnightblue" stroke="midnightblue" points="276.34,-19.1 265.76,-19.52 274.29,-25.8 276.34,-19.1"/>
</g>
<!-- Node9 -->
<g id="node9" class="node">
<title>Node9</title>
<g id="a_node9"><a xlink:title=" ">
<polygon fill="white" stroke="#bfbfbf" points="296,-0.5 296,-19.5 346,-19.5 346,-0.5 296,-0.5"/>
<text text-anchor="middle" x="321" y="-7.5" font-family="Helvetica,sans-Serif" font-size="10.00">format</text>
</a>
</g>
</g>
<!-- Node8&#45;&gt;Node9 -->
<g id="edge10" class="edge">
<title>Node8&#45;&gt;Node9</title>
<path fill="none" stroke="midnightblue" d="M399.06,-56.32C384.41,-47.82 361.87,-34.73 344.76,-24.8"/>
<polygon fill="midnightblue" stroke="midnightblue" points="346.31,-21.65 335.9,-19.65 342.8,-27.7 346.31,-21.65"/>
</g>
<!-- Node10 -->
<g id="node10" class="node">
<title>Node10</title>
<g id="a_node10"><a xlink:title=" ">
<polygon fill="white" stroke="#bfbfbf" points="364.5,-0.5 364.5,-19.5 463.5,-19.5 463.5,-0.5 364.5,-0.5"/>
<text text-anchor="middle" x="414" y="-7.5" font-family="Helvetica,sans-Serif" font-size="10.00">spdlog/fmt/ostr.h</text>
</a>
</g>
</g>
<!-- Node8&#45;&gt;Node10 -->
<g id="edge12" class="edge">
<title>Node8&#45;&gt;Node10</title>
<path fill="none" stroke="midnightblue" d="M414,-56.08C414,-49.01 414,-38.86 414,-29.99"/>
<polygon fill="midnightblue" stroke="midnightblue" points="417.5,-29.75 414,-19.75 410.5,-29.75 417.5,-29.75"/>
</g>
<!-- Node11 -->
<g id="node11" class="node">
<title>Node11</title>
<g id="a_node11"><a xlink:title=" ">
<polygon fill="white" stroke="#bfbfbf" points="481.5,-0.5 481.5,-19.5 574.5,-19.5 574.5,-0.5 481.5,-0.5"/>
<text text-anchor="middle" x="528" y="-7.5" font-family="Helvetica,sans-Serif" font-size="10.00">spdlog/spdlog.h</text>
</a>
</g>
</g>
<!-- Node8&#45;&gt;Node11 -->
<g id="edge13" class="edge">
<title>Node8&#45;&gt;Node11</title>
<path fill="none" stroke="midnightblue" d="M432.06,-56.44C450.57,-47.68 479.58,-33.94 500.86,-23.86"/>
<polygon fill="midnightblue" stroke="midnightblue" points="502.48,-26.96 510.02,-19.52 499.49,-20.63 502.48,-26.96"/>
</g>
</g>
</svg>
