<?xml version="1.0" encoding="UTF-8" standalone="no"?>
<!DOCTYPE svg PUBLIC "-//W3C//DTD SVG 1.1//EN"
 "http://www.w3.org/Graphics/SVG/1.1/DTD/svg11.dtd">
<!-- Generated by graphviz version 2.43.0 (0)
 -->
<!-- Title: /home/runner/work/gauri/gauri/gauri/include/gauri/renderer/render_command.h Pages: 1 -->
<svg width="583pt" height="364pt"
 viewBox="0.00 0.00 582.50 364.00" xmlns="http://www.w3.org/2000/svg" xmlns:xlink="http://www.w3.org/1999/xlink">
<g id="graph0" class="graph" transform="scale(1 1) rotate(0) translate(4 360)">
<title>/home/runner/work/gauri/gauri/gauri/include/gauri/renderer/render_command.h</title>
<polygon fill="white" stroke="transparent" points="-4,4 -4,-360 578.5,-360 578.5,4 -4,4"/>
<!-- Node1 -->
<g id="node1" class="node">
<title>Node1</title>
<g id="a_node1"><a xlink:title=" ">
<polygon fill="#bfbfbf" stroke="black" points="0,-336.5 0,-355.5 400,-355.5 400,-336.5 0,-336.5"/>
<text text-anchor="middle" x="200" y="-343.5" font-family="Helvetica,sans-Serif" font-size="10.00">/home/runner/work/gauri/gauri/gauri/include/gauri/renderer/render_command.h</text>
</a>
</g>
</g>
<!-- Node2 -->
<g id="node2" class="node">
<title>Node2</title>
<g id="a_node2"><a xlink:href="renderer__api_8h.html" target="_top" xlink:title=" ">
<polygon fill="white" stroke="black" points="120.5,-280.5 120.5,-299.5 279.5,-299.5 279.5,-280.5 120.5,-280.5"/>
<text text-anchor="middle" x="200" y="-287.5" font-family="Helvetica,sans-Serif" font-size="10.00">gauri/renderer/renderer_api.h</text>
</a>
</g>
</g>
<!-- Node1&#45;&gt;Node2 -->
<g id="edge1" class="edge">
<title>Node1&#45;&gt;Node2</title>
<path fill="none" stroke="midnightblue" d="M200,-336.08C200,-329.01 200,-318.86 200,-309.99"/>
<polygon fill="midnightblue" stroke="midnightblue" points="203.5,-309.75 200,-299.75 196.5,-309.75 203.5,-309.75"/>
</g>
<!-- Node3 -->
<g id="node3" class="node">
<title>Node3</title>
<g id="a_node3"><a xlink:title=" ">
<polygon fill="white" stroke="#bfbfbf" points="94,-224.5 94,-243.5 172,-243.5 172,-224.5 94,-224.5"/>
<text text-anchor="middle" x="133" y="-231.5" font-family="Helvetica,sans-Serif" font-size="10.00">glm/glm.hpp</text>
</a>
</g>
</g>
<!-- Node2&#45;&gt;Node3 -->
<g id="edge2" class="edge">
<title>Node2&#45;&gt;Node3</title>
<path fill="none" stroke="midnightblue" d="M189.24,-280.32C179.23,-272.26 164.11,-260.08 152.07,-250.37"/>
<polygon fill="midnightblue" stroke="midnightblue" points="153.94,-247.38 143.96,-243.83 149.55,-252.83 153.94,-247.38"/>
</g>
<!-- Node4 -->
<g id="node4" class="node">
<title>Node4</title>
<g id="a_node4"><a xlink:title=" ">
<polygon fill="white" stroke="#bfbfbf" points="215,-0.5 215,-19.5 273,-19.5 273,-0.5 215,-0.5"/>
<text text-anchor="middle" x="244" y="-7.5" font-family="Helvetica,sans-Serif" font-size="10.00">memory</text>
</a>
</g>
</g>
<!-- Node2&#45;&gt;Node4 -->
<g id="edge3" class="edge">
<title>Node2&#45;&gt;Node4</title>
<path fill="none" stroke="midnightblue" d="M200,-280.44C200,-261.94 200,-216.81 200,-179 200,-179 200,-179 200,-121 200,-86.04 219.4,-49.01 232.43,-28.07"/>
<polygon fill="midnightblue" stroke="midnightblue" points="235.39,-29.95 237.88,-19.65 229.51,-26.15 235.39,-29.95"/>
</g>
<!-- Node5 -->
<g id="node5" class="node">
<title>Node5</title>
<g id="a_node5"><a xlink:href="vertex__array_8h.html" target="_top" xlink:title=" ">
<polygon fill="white" stroke="black" points="228,-224.5 228,-243.5 386,-243.5 386,-224.5 228,-224.5"/>
<text text-anchor="middle" x="307" y="-231.5" font-family="Helvetica,sans-Serif" font-size="10.00">gauri/renderer/vertex_array.h</text>
</a>
</g>
</g>
<!-- Node2&#45;&gt;Node5 -->
<g id="edge4" class="edge">
<title>Node2&#45;&gt;Node5</title>
<path fill="none" stroke="midnightblue" d="M217.19,-280.32C234.35,-271.66 260.95,-258.24 280.75,-248.25"/>
<polygon fill="midnightblue" stroke="midnightblue" points="282.5,-251.28 289.85,-243.65 279.35,-245.04 282.5,-251.28"/>
</g>
<!-- Node5&#45;&gt;Node4 -->
<g id="edge5" class="edge">
<title>Node5&#45;&gt;Node4</title>
<path fill="none" stroke="midnightblue" d="M292.35,-224.33C280.55,-216.48 264.71,-203.73 257,-188 231.29,-135.53 236.54,-63.67 240.98,-29.94"/>
<polygon fill="midnightblue" stroke="midnightblue" points="244.5,-30.09 242.47,-19.69 237.57,-29.08 244.5,-30.09"/>
</g>
<!-- Node6 -->
<g id="node6" class="node">
<title>Node6</title>
<g id="a_node6"><a xlink:href="buffer_8h.html" target="_top" xlink:title=" ">
<polygon fill="white" stroke="black" points="266.5,-168.5 266.5,-187.5 391.5,-187.5 391.5,-168.5 266.5,-168.5"/>
<text text-anchor="middle" x="329" y="-175.5" font-family="Helvetica,sans-Serif" font-size="10.00">gauri/renderer/buffer.h</text>
</a>
</g>
</g>
<!-- Node5&#45;&gt;Node6 -->
<g id="edge6" class="edge">
<title>Node5&#45;&gt;Node6</title>
<path fill="none" stroke="midnightblue" d="M310.63,-224.08C313.61,-216.77 317.93,-206.18 321.62,-197.1"/>
<polygon fill="midnightblue" stroke="midnightblue" points="324.9,-198.33 325.43,-187.75 318.42,-195.69 324.9,-198.33"/>
</g>
<!-- Node7 -->
<g id="node7" class="node">
<title>Node7</title>
<g id="a_node7"><a xlink:href="core_8h.html" target="_top" xlink:title=" ">
<polygon fill="white" stroke="black" points="292,-112.5 292,-131.5 366,-131.5 366,-112.5 292,-112.5"/>
<text text-anchor="middle" x="329" y="-119.5" font-family="Helvetica,sans-Serif" font-size="10.00">gauri/core.h</text>
</a>
</g>
</g>
<!-- Node6&#45;&gt;Node7 -->
<g id="edge7" class="edge">
<title>Node6&#45;&gt;Node7</title>
<path fill="none" stroke="midnightblue" d="M329,-168.08C329,-161.01 329,-150.86 329,-141.99"/>
<polygon fill="midnightblue" stroke="midnightblue" points="332.5,-141.75 329,-131.75 325.5,-141.75 332.5,-141.75"/>
</g>
<!-- Node9 -->
<g id="node9" class="node">
<title>Node9</title>
<g id="a_node9"><a xlink:href="logger_8h.html" target="_top" xlink:title=" ">
<polygon fill="white" stroke="black" points="372.5,-56.5 372.5,-75.5 455.5,-75.5 455.5,-56.5 372.5,-56.5"/>
<text text-anchor="middle" x="414" y="-63.5" font-family="Helvetica,sans-Serif" font-size="10.00">gauri/logger.h</text>
</a>
</g>
</g>
<!-- Node6&#45;&gt;Node9 -->
<g id="edge15" class="edge">
<title>Node6&#45;&gt;Node9</title>
<path fill="none" stroke="midnightblue" d="M339.25,-168.36C349.1,-159.75 364.06,-145.85 375,-132 386.7,-117.19 397.53,-98.57 404.8,-85.06"/>
<polygon fill="midnightblue" stroke="midnightblue" points="408.07,-86.35 409.61,-75.87 401.87,-83.1 408.07,-86.35"/>
</g>
<!-- Node7&#45;&gt;Node4 -->
<g id="edge9" class="edge">
<title>Node7&#45;&gt;Node4</title>
<path fill="none" stroke="midnightblue" d="M322.33,-112.37C308.24,-94.14 275.24,-51.43 256.89,-27.68"/>
<polygon fill="midnightblue" stroke="midnightblue" points="259.52,-25.36 250.64,-19.59 253.98,-29.64 259.52,-25.36"/>
</g>
<!-- Node8 -->
<g id="node8" class="node">
<title>Node8</title>
<g id="a_node8"><a xlink:title=" ">
<polygon fill="white" stroke="#bfbfbf" points="304,-56.5 304,-75.5 354,-75.5 354,-56.5 304,-56.5"/>
<text text-anchor="middle" x="329" y="-63.5" font-family="Helvetica,sans-Serif" font-size="10.00">cstdint</text>
</a>
</g>
</g>
<!-- Node7&#45;&gt;Node8 -->
<g id="edge8" class="edge">
<title>Node7&#45;&gt;Node8</title>
<path fill="none" stroke="midnightblue" d="M329,-112.08C329,-105.01 329,-94.86 329,-85.99"/>
<polygon fill="midnightblue" stroke="midnightblue" points="332.5,-85.75 329,-75.75 325.5,-85.75 332.5,-85.75"/>
</g>
<!-- Node7&#45;&gt;Node9 -->
<g id="edge10" class="edge">
<title>Node7&#45;&gt;Node9</title>
<path fill="none" stroke="midnightblue" d="M342.66,-112.32C355.92,-103.9 376.27,-90.97 391.85,-81.07"/>
<polygon fill="midnightblue" stroke="midnightblue" points="393.81,-83.97 400.38,-75.65 390.06,-78.06 393.81,-83.97"/>
</g>
<!-- Node9&#45;&gt;Node4 -->
<g id="edge12" class="edge">
<title>Node9&#45;&gt;Node4</title>
<path fill="none" stroke="midnightblue" d="M387.06,-56.44C358.34,-47.32 312.67,-32.81 280.68,-22.65"/>
<polygon fill="midnightblue" stroke="midnightblue" points="281.4,-19.21 270.81,-19.52 279.28,-25.88 281.4,-19.21"/>
</g>
<!-- Node10 -->
<g id="node10" class="node">
<title>Node10</title>
<g id="a_node10"><a xlink:title=" ">
<polygon fill="white" stroke="#bfbfbf" points="296,-0.5 296,-19.5 346,-19.5 346,-0.5 296,-0.5"/>
<text text-anchor="middle" x="321" y="-7.5" font-family="Helvetica,sans-Serif" font-size="10.00">format</text>
</a>
</g>
</g>
<!-- Node9&#45;&gt;Node10 -->
<g id="edge11" class="edge">
<title>Node9&#45;&gt;Node10</title>
<path fill="none" stroke="midnightblue" d="M399.06,-56.32C384.41,-47.82 361.87,-34.73 344.76,-24.8"/>
<polygon fill="midnightblue" stroke="midnightblue" points="346.31,-21.65 335.9,-19.65 342.8,-27.7 346.31,-21.65"/>
</g>
<!-- Node11 -->
<g id="node11" class="node">
<title>Node11</title>
<g id="a_node11"><a xlink:title=" ">
<polygon fill="white" stroke="#bfbfbf" points="364.5,-0.5 364.5,-19.5 463.5,-19.5 463.5,-0.5 364.5,-0.5"/>
<text text-anchor="middle" x="414" y="-7.5" font-family="Helvetica,sans-Serif" font-size="10.00">spdlog/fmt/ostr.h</text>
</a>
</g>
</g>
<!-- Node9&#45;&gt;Node11 -->
<g id="edge13" class="edge">
<title>Node9&#45;&gt;Node11</title>
<path fill="none" stroke="midnightblue" d="M414,-56.08C414,-49.01 414,-38.86 414,-29.99"/>
<polygon fill="midnightblue" stroke="midnightblue" points="417.5,-29.75 414,-19.75 410.5,-29.75 417.5,-29.75"/>
</g>
<!-- Node12 -->
<g id="node12" class="node">
<title>Node12</title>
<g id="a_node12"><a xlink:title=" ">
<polygon fill="white" stroke="#bfbfbf" points="481.5,-0.5 481.5,-19.5 574.5,-19.5 574.5,-0.5 481.5,-0.5"/>
<text text-anchor="middle" x="528" y="-7.5" font-family="Helvetica,sans-Serif" font-size="10.00">spdlog/spdlog.h</text>
</a>
</g>
</g>
<!-- Node9&#45;&gt;Node12 -->
<g id="edge14" class="edge">
<title>Node9&#45;&gt;Node12</title>
<path fill="none" stroke="midnightblue" d="M432.06,-56.44C450.57,-47.68 479.58,-33.94 500.86,-23.86"/>
<polygon fill="midnightblue" stroke="midnightblue" points="502.48,-26.96 510.02,-19.52 499.49,-20.63 502.48,-26.96"/>
</g>
</g>
</svg>
