<?xml version="1.0" encoding="UTF-8" standalone="no"?>
<!DOCTYPE svg PUBLIC "-//W3C//DTD SVG 1.1//EN"
 "http://www.w3.org/Graphics/SVG/1.1/DTD/svg11.dtd">
<!-- Generated by graphviz version 2.43.0 (0)
 -->
<!-- Title: /home/runner/work/gauri/gauri/gauri/include/gauri/renderer/renderer.h Pages: 1 -->
<svg width="600pt" height="420pt"
 viewBox="0.00 0.00 600.00 420.00" xmlns="http://www.w3.org/2000/svg" xmlns:xlink="http://www.w3.org/1999/xlink">
<g id="graph0" class="graph" transform="scale(1 1) rotate(0) translate(4 416)">
<title>/home/runner/work/gauri/gauri/gauri/include/gauri/renderer/renderer.h</title>
<polygon fill="white" stroke="transparent" points="-4,4 -4,-416 596,-416 596,4 -4,4"/>
<!-- Node1 -->
<g id="node1" class="node">
<title>Node1</title>
<g id="a_node1"><a xlink:title=" ">
<polygon fill="#bfbfbf" stroke="black" points="61,-392.5 61,-411.5 416,-411.5 416,-392.5 61,-392.5"/>
<text text-anchor="middle" x="238.5" y="-399.5" font-family="Helvetica,sans-Serif" font-size="10.00">/home/runner/work/gauri/gauri/gauri/include/gauri/renderer/renderer.h</text>
</a>
</g>
</g>
<!-- Node2 -->
<g id="node2" class="node">
<title>Node2</title>
<g id="a_node2"><a xlink:href="orthographic__camera_8h.html" target="_top" xlink:title=" ">
<polygon fill="white" stroke="black" points="0,-280.5 0,-299.5 201,-299.5 201,-280.5 0,-280.5"/>
<text text-anchor="middle" x="100.5" y="-287.5" font-family="Helvetica,sans-Serif" font-size="10.00">gauri/renderer/orthographic_camera.h</text>
</a>
</g>
</g>
<!-- Node1&#45;&gt;Node2 -->
<g id="edge1" class="edge">
<title>Node1&#45;&gt;Node2</title>
<path fill="none" stroke="midnightblue" d="M227.67,-392.37C204.19,-373.65 148.36,-329.15 119.11,-305.83"/>
<polygon fill="midnightblue" stroke="midnightblue" points="121.28,-303.09 111.28,-299.59 116.92,-308.56 121.28,-303.09"/>
</g>
<!-- Node4 -->
<g id="node4" class="node">
<title>Node4</title>
<g id="a_node4"><a xlink:href="render__command_8h.html" target="_top" xlink:title=" ">
<polygon fill="white" stroke="black" points="207,-336.5 207,-355.5 390,-355.5 390,-336.5 207,-336.5"/>
<text text-anchor="middle" x="298.5" y="-343.5" font-family="Helvetica,sans-Serif" font-size="10.00">gauri/renderer/render_command.h</text>
</a>
</g>
</g>
<!-- Node1&#45;&gt;Node4 -->
<g id="edge3" class="edge">
<title>Node1&#45;&gt;Node4</title>
<path fill="none" stroke="midnightblue" d="M248.14,-392.32C257.01,-384.34 270.37,-372.31 281.11,-362.65"/>
<polygon fill="midnightblue" stroke="midnightblue" points="283.59,-365.13 288.68,-355.83 278.91,-359.92 283.59,-365.13"/>
</g>
<!-- Node5 -->
<g id="node5" class="node">
<title>Node5</title>
<g id="a_node5"><a xlink:href="renderer__api_8h.html" target="_top" xlink:title=" ">
<polygon fill="white" stroke="black" points="219,-280.5 219,-299.5 378,-299.5 378,-280.5 219,-280.5"/>
<text text-anchor="middle" x="298.5" y="-287.5" font-family="Helvetica,sans-Serif" font-size="10.00">gauri/renderer/renderer_api.h</text>
</a>
</g>
</g>
<!-- Node1&#45;&gt;Node5 -->
<g id="edge19" class="edge">
<title>Node1&#45;&gt;Node5</title>
<path fill="none" stroke="midnightblue" d="M226.33,-392.3C210.31,-379.76 185.62,-355.92 198.5,-336 208.88,-319.95 226.5,-309.57 244.08,-302.87"/>
<polygon fill="midnightblue" stroke="midnightblue" points="245.49,-306.09 253.8,-299.52 243.21,-299.47 245.49,-306.09"/>
</g>
<!-- Node15 -->
<g id="node15" class="node">
<title>Node15</title>
<g id="a_node15"><a xlink:href="shader_8h.html" target="_top" xlink:title=" ">
<polygon fill="white" stroke="black" points="408.5,-336.5 408.5,-355.5 538.5,-355.5 538.5,-336.5 408.5,-336.5"/>
<text text-anchor="middle" x="473.5" y="-343.5" font-family="Helvetica,sans-Serif" font-size="10.00">gauri/renderer/shader.h</text>
</a>
</g>
</g>
<!-- Node1&#45;&gt;Node15 -->
<g id="edge20" class="edge">
<title>Node1&#45;&gt;Node15</title>
<path fill="none" stroke="midnightblue" d="M275.74,-392.44C316.56,-383.06 382.14,-367.99 426.48,-357.8"/>
<polygon fill="midnightblue" stroke="midnightblue" points="427.48,-361.17 436.44,-355.52 425.91,-354.34 427.48,-361.17"/>
</g>
<!-- Node3 -->
<g id="node3" class="node">
<title>Node3</title>
<g id="a_node3"><a xlink:title=" ">
<polygon fill="white" stroke="#bfbfbf" points="92.5,-224.5 92.5,-243.5 170.5,-243.5 170.5,-224.5 92.5,-224.5"/>
<text text-anchor="middle" x="131.5" y="-231.5" font-family="Helvetica,sans-Serif" font-size="10.00">glm/glm.hpp</text>
</a>
</g>
</g>
<!-- Node2&#45;&gt;Node3 -->
<g id="edge2" class="edge">
<title>Node2&#45;&gt;Node3</title>
<path fill="none" stroke="midnightblue" d="M105.62,-280.08C109.91,-272.61 116.16,-261.72 121.44,-252.52"/>
<polygon fill="midnightblue" stroke="midnightblue" points="124.53,-254.17 126.48,-243.75 118.46,-250.68 124.53,-254.17"/>
</g>
<!-- Node4&#45;&gt;Node5 -->
<g id="edge4" class="edge">
<title>Node4&#45;&gt;Node5</title>
<path fill="none" stroke="midnightblue" d="M298.5,-336.08C298.5,-329.01 298.5,-318.86 298.5,-309.99"/>
<polygon fill="midnightblue" stroke="midnightblue" points="302,-309.75 298.5,-299.75 295,-309.75 302,-309.75"/>
</g>
<!-- Node5&#45;&gt;Node3 -->
<g id="edge5" class="edge">
<title>Node5&#45;&gt;Node3</title>
<path fill="none" stroke="midnightblue" d="M272.04,-280.44C243.82,-271.32 198.96,-256.81 167.53,-246.65"/>
<polygon fill="midnightblue" stroke="midnightblue" points="168.43,-243.26 157.84,-243.52 166.28,-249.92 168.43,-243.26"/>
</g>
<!-- Node6 -->
<g id="node6" class="node">
<title>Node6</title>
<g id="a_node6"><a xlink:title=" ">
<polygon fill="white" stroke="#bfbfbf" points="237.5,-0.5 237.5,-19.5 295.5,-19.5 295.5,-0.5 237.5,-0.5"/>
<text text-anchor="middle" x="266.5" y="-7.5" font-family="Helvetica,sans-Serif" font-size="10.00">memory</text>
</a>
</g>
</g>
<!-- Node5&#45;&gt;Node6 -->
<g id="edge6" class="edge">
<title>Node5&#45;&gt;Node6</title>
<path fill="none" stroke="midnightblue" d="M284.85,-280.25C273.3,-272.17 257.13,-259.15 247.5,-244 231.36,-218.6 228.5,-209.1 228.5,-179 228.5,-179 228.5,-179 228.5,-121 228.5,-86.81 245.1,-49.76 256.36,-28.57"/>
<polygon fill="midnightblue" stroke="midnightblue" points="259.45,-30.22 261.22,-19.77 253.32,-26.83 259.45,-30.22"/>
</g>
<!-- Node7 -->
<g id="node7" class="node">
<title>Node7</title>
<g id="a_node7"><a xlink:href="vertex__array_8h.html" target="_top" xlink:title=" ">
<polygon fill="white" stroke="black" points="256.5,-224.5 256.5,-243.5 414.5,-243.5 414.5,-224.5 256.5,-224.5"/>
<text text-anchor="middle" x="335.5" y="-231.5" font-family="Helvetica,sans-Serif" font-size="10.00">gauri/renderer/vertex_array.h</text>
</a>
</g>
</g>
<!-- Node5&#45;&gt;Node7 -->
<g id="edge7" class="edge">
<title>Node5&#45;&gt;Node7</title>
<path fill="none" stroke="midnightblue" d="M304.61,-280.08C309.78,-272.53 317.35,-261.49 323.69,-252.23"/>
<polygon fill="midnightblue" stroke="midnightblue" points="326.74,-253.98 329.5,-243.75 320.96,-250.02 326.74,-253.98"/>
</g>
<!-- Node7&#45;&gt;Node6 -->
<g id="edge8" class="edge">
<title>Node7&#45;&gt;Node6</title>
<path fill="none" stroke="midnightblue" d="M321.29,-224.19C309.82,-216.24 294.35,-203.44 286.5,-188 259.93,-135.72 261.75,-63.77 264.48,-29.97"/>
<polygon fill="midnightblue" stroke="midnightblue" points="267.99,-29.99 265.44,-19.71 261.02,-29.34 267.99,-29.99"/>
</g>
<!-- Node8 -->
<g id="node8" class="node">
<title>Node8</title>
<g id="a_node8"><a xlink:href="buffer_8h.html" target="_top" xlink:title=" ">
<polygon fill="white" stroke="black" points="295,-168.5 295,-187.5 420,-187.5 420,-168.5 295,-168.5"/>
<text text-anchor="middle" x="357.5" y="-175.5" font-family="Helvetica,sans-Serif" font-size="10.00">gauri/renderer/buffer.h</text>
</a>
</g>
</g>
<!-- Node7&#45;&gt;Node8 -->
<g id="edge9" class="edge">
<title>Node7&#45;&gt;Node8</title>
<path fill="none" stroke="midnightblue" d="M339.13,-224.08C342.11,-216.77 346.43,-206.18 350.12,-197.1"/>
<polygon fill="midnightblue" stroke="midnightblue" points="353.4,-198.33 353.93,-187.75 346.92,-195.69 353.4,-198.33"/>
</g>
<!-- Node9 -->
<g id="node9" class="node">
<title>Node9</title>
<g id="a_node9"><a xlink:href="core_8h.html" target="_top" xlink:title=" ">
<polygon fill="white" stroke="black" points="385.5,-112.5 385.5,-131.5 459.5,-131.5 459.5,-112.5 385.5,-112.5"/>
<text text-anchor="middle" x="422.5" y="-119.5" font-family="Helvetica,sans-Serif" font-size="10.00">gauri/core.h</text>
</a>
</g>
</g>
<!-- Node8&#45;&gt;Node9 -->
<g id="edge10" class="edge">
<title>Node8&#45;&gt;Node9</title>
<path fill="none" stroke="midnightblue" d="M367.94,-168.32C377.65,-160.26 392.32,-148.08 404,-138.37"/>
<polygon fill="midnightblue" stroke="midnightblue" points="406.41,-140.92 411.87,-131.83 401.94,-135.53 406.41,-140.92"/>
</g>
<!-- Node11 -->
<g id="node11" class="node">
<title>Node11</title>
<g id="a_node11"><a xlink:href="logger_8h.html" target="_top" xlink:title=" ">
<polygon fill="white" stroke="black" points="333,-56.5 333,-75.5 416,-75.5 416,-56.5 333,-56.5"/>
<text text-anchor="middle" x="374.5" y="-63.5" font-family="Helvetica,sans-Serif" font-size="10.00">gauri/logger.h</text>
</a>
</g>
</g>
<!-- Node8&#45;&gt;Node11 -->
<g id="edge18" class="edge">
<title>Node8&#45;&gt;Node11</title>
<path fill="none" stroke="midnightblue" d="M358.83,-168.37C361.58,-150.62 367.91,-109.67 371.63,-85.6"/>
<polygon fill="midnightblue" stroke="midnightblue" points="375.1,-86.01 373.17,-75.59 368.19,-84.94 375.1,-86.01"/>
</g>
<!-- Node9&#45;&gt;Node6 -->
<g id="edge12" class="edge">
<title>Node9&#45;&gt;Node6</title>
<path fill="none" stroke="midnightblue" d="M396.37,-112.37C375.66,-104.76 346.63,-92.35 324.5,-76 306.14,-62.43 289.27,-42.27 278.51,-28"/>
<polygon fill="midnightblue" stroke="midnightblue" points="281.1,-25.61 272.37,-19.61 275.45,-29.75 281.1,-25.61"/>
</g>
<!-- Node10 -->
<g id="node10" class="node">
<title>Node10</title>
<g id="a_node10"><a xlink:title=" ">
<polygon fill="white" stroke="#bfbfbf" points="434.5,-56.5 434.5,-75.5 484.5,-75.5 484.5,-56.5 434.5,-56.5"/>
<text text-anchor="middle" x="459.5" y="-63.5" font-family="Helvetica,sans-Serif" font-size="10.00">cstdint</text>
</a>
</g>
</g>
<!-- Node9&#45;&gt;Node10 -->
<g id="edge11" class="edge">
<title>Node9&#45;&gt;Node10</title>
<path fill="none" stroke="midnightblue" d="M428.61,-112.08C433.78,-104.53 441.35,-93.49 447.69,-84.23"/>
<polygon fill="midnightblue" stroke="midnightblue" points="450.74,-85.98 453.5,-75.75 444.96,-82.02 450.74,-85.98"/>
</g>
<!-- Node9&#45;&gt;Node11 -->
<g id="edge13" class="edge">
<title>Node9&#45;&gt;Node11</title>
<path fill="none" stroke="midnightblue" d="M414.57,-112.08C407.65,-104.3 397.43,-92.8 389.05,-83.37"/>
<polygon fill="midnightblue" stroke="midnightblue" points="391.54,-80.9 382.28,-75.75 386.31,-85.55 391.54,-80.9"/>
</g>
<!-- Node11&#45;&gt;Node6 -->
<g id="edge15" class="edge">
<title>Node11&#45;&gt;Node6</title>
<path fill="none" stroke="midnightblue" d="M357.15,-56.32C339.83,-47.66 312.98,-34.24 293,-24.25"/>
<polygon fill="midnightblue" stroke="midnightblue" points="294.32,-21 283.81,-19.65 291.19,-27.26 294.32,-21"/>
</g>
<!-- Node12 -->
<g id="node12" class="node">
<title>Node12</title>
<g id="a_node12"><a xlink:title=" ">
<polygon fill="white" stroke="#bfbfbf" points="313.5,-0.5 313.5,-19.5 363.5,-19.5 363.5,-0.5 313.5,-0.5"/>
<text text-anchor="middle" x="338.5" y="-7.5" font-family="Helvetica,sans-Serif" font-size="10.00">format</text>
</a>
</g>
</g>
<!-- Node11&#45;&gt;Node12 -->
<g id="edge14" class="edge">
<title>Node11&#45;&gt;Node12</title>
<path fill="none" stroke="midnightblue" d="M368.56,-56.08C363.52,-48.53 356.16,-37.49 349.99,-28.23"/>
<polygon fill="midnightblue" stroke="midnightblue" points="352.79,-26.13 344.33,-19.75 346.97,-30.01 352.79,-26.13"/>
</g>
<!-- Node13 -->
<g id="node13" class="node">
<title>Node13</title>
<g id="a_node13"><a xlink:title=" ">
<polygon fill="white" stroke="#bfbfbf" points="382,-0.5 382,-19.5 481,-19.5 481,-0.5 382,-0.5"/>
<text text-anchor="middle" x="431.5" y="-7.5" font-family="Helvetica,sans-Serif" font-size="10.00">spdlog/fmt/ostr.h</text>
</a>
</g>
</g>
<!-- Node11&#45;&gt;Node13 -->
<g id="edge16" class="edge">
<title>Node11&#45;&gt;Node13</title>
<path fill="none" stroke="midnightblue" d="M383.66,-56.32C392,-48.42 404.53,-36.55 414.68,-26.94"/>
<polygon fill="midnightblue" stroke="midnightblue" points="417.32,-29.25 422.18,-19.83 412.51,-24.17 417.32,-29.25"/>
</g>
<!-- Node14 -->
<g id="node14" class="node">
<title>Node14</title>
<g id="a_node14"><a xlink:title=" ">
<polygon fill="white" stroke="#bfbfbf" points="499,-0.5 499,-19.5 592,-19.5 592,-0.5 499,-0.5"/>
<text text-anchor="middle" x="545.5" y="-7.5" font-family="Helvetica,sans-Serif" font-size="10.00">spdlog/spdlog.h</text>
</a>
</g>
</g>
<!-- Node11&#45;&gt;Node14 -->
<g id="edge17" class="edge">
<title>Node11&#45;&gt;Node14</title>
<path fill="none" stroke="midnightblue" d="M401.6,-56.44C430.49,-47.32 476.42,-32.81 508.61,-22.65"/>
<polygon fill="midnightblue" stroke="midnightblue" points="510.05,-25.87 518.53,-19.52 507.94,-19.19 510.05,-25.87"/>
</g>
<!-- Node15&#45;&gt;Node9 -->
<g id="edge22" class="edge">
<title>Node15&#45;&gt;Node9</title>
<path fill="none" stroke="midnightblue" d="M471.5,-336.3C463.98,-303.56 437.29,-187.38 426.79,-141.67"/>
<polygon fill="midnightblue" stroke="midnightblue" points="430.19,-140.85 424.54,-131.88 423.37,-142.41 430.19,-140.85"/>
</g>
<!-- Node16 -->
<g id="node16" class="node">
<title>Node16</title>
<g id="a_node16"><a xlink:title=" ">
<polygon fill="white" stroke="#bfbfbf" points="476.5,-280.5 476.5,-299.5 520.5,-299.5 520.5,-280.5 476.5,-280.5"/>
<text text-anchor="middle" x="498.5" y="-287.5" font-family="Helvetica,sans-Serif" font-size="10.00">string</text>
</a>
</g>
</g>
<!-- Node15&#45;&gt;Node16 -->
<g id="edge21" class="edge">
<title>Node15&#45;&gt;Node16</title>
<path fill="none" stroke="midnightblue" d="M477.63,-336.08C481.01,-328.77 485.92,-318.18 490.12,-309.1"/>
<polygon fill="midnightblue" stroke="midnightblue" points="493.42,-310.3 494.45,-299.75 487.07,-307.36 493.42,-310.3"/>
</g>
</g>
</svg>
