<?xml version="1.0" encoding="UTF-8" standalone="no"?>
<!DOCTYPE svg PUBLIC "-//W3C//DTD SVG 1.1//EN"
 "http://www.w3.org/Graphics/SVG/1.1/DTD/svg11.dtd">
<!-- Generated by graphviz version 2.43.0 (0)
 -->
<!-- Title: /home/runner/work/gauri/gauri/gauri/include/gauri/renderer/renderer_2d.h Pages: 1 -->
<svg width="736pt" height="308pt"
 viewBox="0.00 0.00 736.00 308.00" xmlns="http://www.w3.org/2000/svg" xmlns:xlink="http://www.w3.org/1999/xlink">
<g id="graph0" class="graph" transform="scale(1 1) rotate(0) translate(4 304)">
<title>/home/runner/work/gauri/gauri/gauri/include/gauri/renderer/renderer_2d.h</title>
<polygon fill="white" stroke="transparent" points="-4,4 -4,-304 732,-304 732,4 -4,4"/>
<!-- Node1 -->
<g id="node1" class="node">
<title>Node1</title>
<g id="a_node1"><a xlink:title=" ">
<polygon fill="#bfbfbf" stroke="black" points="116,-280.5 116,-299.5 489,-299.5 489,-280.5 116,-280.5"/>
<text text-anchor="middle" x="302.5" y="-287.5" font-family="Helvetica,sans-Serif" font-size="10.00">/home/runner/work/gauri/gauri/gauri/include/gauri/renderer/renderer_2d.h</text>
</a>
</g>
</g>
<!-- Node2 -->
<g id="node2" class="node">
<title>Node2</title>
<g id="a_node2"><a xlink:href="orthographic__camera_8h.html" target="_top" xlink:title=" ">
<polygon fill="white" stroke="black" points="0,-224.5 0,-243.5 201,-243.5 201,-224.5 0,-224.5"/>
<text text-anchor="middle" x="100.5" y="-231.5" font-family="Helvetica,sans-Serif" font-size="10.00">gauri/renderer/orthographic_camera.h</text>
</a>
</g>
</g>
<!-- Node1&#45;&gt;Node2 -->
<g id="edge1" class="edge">
<title>Node1&#45;&gt;Node2</title>
<path fill="none" stroke="midnightblue" d="M270.49,-280.44C235.77,-271.16 180.21,-256.31 142.12,-246.13"/>
<polygon fill="midnightblue" stroke="midnightblue" points="142.92,-242.72 132.36,-243.52 141.11,-249.48 142.92,-242.72"/>
</g>
<!-- Node4 -->
<g id="node4" class="node">
<title>Node4</title>
<g id="a_node4"><a xlink:href="subtexture__2d_8h.html" target="_top" xlink:title=" ">
<polygon fill="white" stroke="black" points="219,-224.5 219,-243.5 386,-243.5 386,-224.5 219,-224.5"/>
<text text-anchor="middle" x="302.5" y="-231.5" font-family="Helvetica,sans-Serif" font-size="10.00">gauri/renderer/subtexture_2d.h</text>
</a>
</g>
</g>
<!-- Node1&#45;&gt;Node4 -->
<g id="edge3" class="edge">
<title>Node1&#45;&gt;Node4</title>
<path fill="none" stroke="midnightblue" d="M302.5,-280.08C302.5,-273.01 302.5,-262.86 302.5,-253.99"/>
<polygon fill="midnightblue" stroke="midnightblue" points="306,-253.75 302.5,-243.75 299,-253.75 306,-253.75"/>
</g>
<!-- Node5 -->
<g id="node5" class="node">
<title>Node5</title>
<g id="a_node5"><a xlink:href="texture_8h.html" target="_top" xlink:title=" ">
<polygon fill="white" stroke="black" points="291,-168.5 291,-187.5 424,-187.5 424,-168.5 291,-168.5"/>
<text text-anchor="middle" x="357.5" y="-175.5" font-family="Helvetica,sans-Serif" font-size="10.00">gauri/renderer/texture.h</text>
</a>
</g>
</g>
<!-- Node1&#45;&gt;Node5 -->
<g id="edge15" class="edge">
<title>Node1&#45;&gt;Node5</title>
<path fill="none" stroke="midnightblue" d="M341.35,-280.36C360.88,-273.85 382.83,-262.7 394.5,-244 404.84,-227.42 390.25,-207.88 376.45,-194.58"/>
<polygon fill="midnightblue" stroke="midnightblue" points="378.4,-191.62 368.62,-187.54 373.72,-196.83 378.4,-191.62"/>
</g>
<!-- Node3 -->
<g id="node3" class="node">
<title>Node3</title>
<g id="a_node3"><a xlink:title=" ">
<polygon fill="white" stroke="#bfbfbf" points="155.5,-168.5 155.5,-187.5 233.5,-187.5 233.5,-168.5 155.5,-168.5"/>
<text text-anchor="middle" x="194.5" y="-175.5" font-family="Helvetica,sans-Serif" font-size="10.00">glm/glm.hpp</text>
</a>
</g>
</g>
<!-- Node2&#45;&gt;Node3 -->
<g id="edge2" class="edge">
<title>Node2&#45;&gt;Node3</title>
<path fill="none" stroke="midnightblue" d="M115.6,-224.32C130.4,-215.82 153.19,-202.73 170.48,-192.8"/>
<polygon fill="midnightblue" stroke="midnightblue" points="172.51,-195.67 179.43,-187.65 169.02,-189.6 172.51,-195.67"/>
</g>
<!-- Node4&#45;&gt;Node3 -->
<g id="edge4" class="edge">
<title>Node4&#45;&gt;Node3</title>
<path fill="none" stroke="midnightblue" d="M285.15,-224.32C267.83,-215.66 240.98,-202.24 221,-192.25"/>
<polygon fill="midnightblue" stroke="midnightblue" points="222.32,-189 211.81,-187.65 219.19,-195.26 222.32,-189"/>
</g>
<!-- Node4&#45;&gt;Node5 -->
<g id="edge5" class="edge">
<title>Node4&#45;&gt;Node5</title>
<path fill="none" stroke="midnightblue" d="M311.58,-224.08C319.67,-216.14 331.7,-204.34 341.41,-194.8"/>
<polygon fill="midnightblue" stroke="midnightblue" points="343.9,-197.25 348.59,-187.75 339,-192.26 343.9,-197.25"/>
</g>
<!-- Node6 -->
<g id="node6" class="node">
<title>Node6</title>
<g id="a_node6"><a xlink:title=" ">
<polygon fill="white" stroke="#bfbfbf" points="291.5,-112.5 291.5,-131.5 335.5,-131.5 335.5,-112.5 291.5,-112.5"/>
<text text-anchor="middle" x="313.5" y="-119.5" font-family="Helvetica,sans-Serif" font-size="10.00">string</text>
</a>
</g>
</g>
<!-- Node5&#45;&gt;Node6 -->
<g id="edge6" class="edge">
<title>Node5&#45;&gt;Node6</title>
<path fill="none" stroke="midnightblue" d="M350.23,-168.08C343.96,-160.38 334.71,-149.03 327.07,-139.65"/>
<polygon fill="midnightblue" stroke="midnightblue" points="329.66,-137.29 320.63,-131.75 324.23,-141.71 329.66,-137.29"/>
</g>
<!-- Node7 -->
<g id="node7" class="node">
<title>Node7</title>
<g id="a_node7"><a xlink:href="core_8h.html" target="_top" xlink:title=" ">
<polygon fill="white" stroke="black" points="353.5,-112.5 353.5,-131.5 451.5,-131.5 451.5,-112.5 353.5,-112.5"/>
<text text-anchor="middle" x="402.5" y="-119.5" font-family="Helvetica,sans-Serif" font-size="10.00">gauri/core/core.h</text>
</a>
</g>
</g>
<!-- Node5&#45;&gt;Node7 -->
<g id="edge7" class="edge">
<title>Node5&#45;&gt;Node7</title>
<path fill="none" stroke="midnightblue" d="M364.93,-168.08C371.35,-160.38 380.81,-149.03 388.62,-139.65"/>
<polygon fill="midnightblue" stroke="midnightblue" points="391.49,-141.67 395.21,-131.75 386.12,-137.19 391.49,-141.67"/>
</g>
<!-- Node8 -->
<g id="node8" class="node">
<title>Node8</title>
<g id="a_node8"><a xlink:title=" ">
<polygon fill="white" stroke="#bfbfbf" points="324.5,-56.5 324.5,-75.5 374.5,-75.5 374.5,-56.5 324.5,-56.5"/>
<text text-anchor="middle" x="349.5" y="-63.5" font-family="Helvetica,sans-Serif" font-size="10.00">cstdint</text>
</a>
</g>
</g>
<!-- Node7&#45;&gt;Node8 -->
<g id="edge8" class="edge">
<title>Node7&#45;&gt;Node8</title>
<path fill="none" stroke="midnightblue" d="M393.75,-112.08C386.03,-104.22 374.6,-92.57 365.28,-83.08"/>
<polygon fill="midnightblue" stroke="midnightblue" points="367.59,-80.44 358.09,-75.75 362.6,-85.34 367.59,-80.44"/>
</g>
<!-- Node9 -->
<g id="node9" class="node">
<title>Node9</title>
<g id="a_node9"><a xlink:title=" ">
<polygon fill="white" stroke="#bfbfbf" points="373.5,-0.5 373.5,-19.5 431.5,-19.5 431.5,-0.5 373.5,-0.5"/>
<text text-anchor="middle" x="402.5" y="-7.5" font-family="Helvetica,sans-Serif" font-size="10.00">memory</text>
</a>
</g>
</g>
<!-- Node7&#45;&gt;Node9 -->
<g id="edge9" class="edge">
<title>Node7&#45;&gt;Node9</title>
<path fill="none" stroke="midnightblue" d="M402.5,-112.37C402.5,-94.62 402.5,-53.67 402.5,-29.6"/>
<polygon fill="midnightblue" stroke="midnightblue" points="406,-29.59 402.5,-19.59 399,-29.59 406,-29.59"/>
</g>
<!-- Node10 -->
<g id="node10" class="node">
<title>Node10</title>
<g id="a_node10"><a xlink:href="logger_8h.html" target="_top" xlink:title=" ">
<polygon fill="white" stroke="black" points="431,-56.5 431,-75.5 538,-75.5 538,-56.5 431,-56.5"/>
<text text-anchor="middle" x="484.5" y="-63.5" font-family="Helvetica,sans-Serif" font-size="10.00">gauri/core/logger.h</text>
</a>
</g>
</g>
<!-- Node7&#45;&gt;Node10 -->
<g id="edge10" class="edge">
<title>Node7&#45;&gt;Node10</title>
<path fill="none" stroke="midnightblue" d="M415.67,-112.32C428.35,-103.98 447.73,-91.21 462.71,-81.35"/>
<polygon fill="midnightblue" stroke="midnightblue" points="464.93,-84.08 471.36,-75.65 461.08,-78.23 464.93,-84.08"/>
</g>
<!-- Node10&#45;&gt;Node9 -->
<g id="edge12" class="edge">
<title>Node10&#45;&gt;Node9</title>
<path fill="none" stroke="midnightblue" d="M471.33,-56.32C458.65,-47.98 439.27,-35.21 424.29,-25.35"/>
<polygon fill="midnightblue" stroke="midnightblue" points="425.92,-22.23 415.64,-19.65 422.07,-28.08 425.92,-22.23"/>
</g>
<!-- Node11 -->
<g id="node11" class="node">
<title>Node11</title>
<g id="a_node11"><a xlink:title=" ">
<polygon fill="white" stroke="#bfbfbf" points="449.5,-0.5 449.5,-19.5 499.5,-19.5 499.5,-0.5 449.5,-0.5"/>
<text text-anchor="middle" x="474.5" y="-7.5" font-family="Helvetica,sans-Serif" font-size="10.00">format</text>
</a>
</g>
</g>
<!-- Node10&#45;&gt;Node11 -->
<g id="edge11" class="edge">
<title>Node10&#45;&gt;Node11</title>
<path fill="none" stroke="midnightblue" d="M482.85,-56.08C481.52,-48.93 479.62,-38.64 477.96,-29.69"/>
<polygon fill="midnightblue" stroke="midnightblue" points="481.38,-28.95 476.12,-19.75 474.5,-30.22 481.38,-28.95"/>
</g>
<!-- Node12 -->
<g id="node12" class="node">
<title>Node12</title>
<g id="a_node12"><a xlink:title=" ">
<polygon fill="white" stroke="#bfbfbf" points="518,-0.5 518,-19.5 617,-19.5 617,-0.5 518,-0.5"/>
<text text-anchor="middle" x="567.5" y="-7.5" font-family="Helvetica,sans-Serif" font-size="10.00">spdlog/fmt/ostr.h</text>
</a>
</g>
</g>
<!-- Node10&#45;&gt;Node12 -->
<g id="edge13" class="edge">
<title>Node10&#45;&gt;Node12</title>
<path fill="none" stroke="midnightblue" d="M497.84,-56.32C510.66,-47.98 530.28,-35.21 545.44,-25.35"/>
<polygon fill="midnightblue" stroke="midnightblue" points="547.72,-28.04 554.2,-19.65 543.91,-22.17 547.72,-28.04"/>
</g>
<!-- Node13 -->
<g id="node13" class="node">
<title>Node13</title>
<g id="a_node13"><a xlink:title=" ">
<polygon fill="white" stroke="#bfbfbf" points="635,-0.5 635,-19.5 728,-19.5 728,-0.5 635,-0.5"/>
<text text-anchor="middle" x="681.5" y="-7.5" font-family="Helvetica,sans-Serif" font-size="10.00">spdlog/spdlog.h</text>
</a>
</g>
</g>
<!-- Node10&#45;&gt;Node13 -->
<g id="edge14" class="edge">
<title>Node10&#45;&gt;Node13</title>
<path fill="none" stroke="midnightblue" d="M515.72,-56.44C549.43,-47.2 603.3,-32.44 640.43,-22.26"/>
<polygon fill="midnightblue" stroke="midnightblue" points="641.71,-25.54 650.43,-19.52 639.86,-18.78 641.71,-25.54"/>
</g>
</g>
</svg>
