<?xml version="1.0" encoding="UTF-8" standalone="no"?>
<!DOCTYPE svg PUBLIC "-//W3C//DTD SVG 1.1//EN"
 "http://www.w3.org/Graphics/SVG/1.1/DTD/svg11.dtd">
<!-- Generated by graphviz version 2.43.0 (0)
 -->
<!-- Title: /home/runner/work/gauri/gauri/gauri/include/gauri/renderer/renderer.h Pages: 1 -->
<svg width="662pt" height="420pt"
 viewBox="0.00 0.00 661.50 420.00" xmlns="http://www.w3.org/2000/svg" xmlns:xlink="http://www.w3.org/1999/xlink">
<g id="graph0" class="graph" transform="scale(1 1) rotate(0) translate(4 416)">
<title>/home/runner/work/gauri/gauri/gauri/include/gauri/renderer/renderer.h</title>
<polygon fill="white" stroke="transparent" points="-4,4 -4,-416 657.5,-416 657.5,4 -4,4"/>
<!-- Node1 -->
<g id="node1" class="node">
<title>Node1</title>
<g id="a_node1"><a xlink:title=" ">
<polygon fill="#bfbfbf" stroke="black" points="237,-392.5 237,-411.5 592,-411.5 592,-392.5 237,-392.5"/>
<text text-anchor="middle" x="414.5" y="-399.5" font-family="Helvetica,sans-Serif" font-size="10.00">/home/runner/work/gauri/gauri/gauri/include/gauri/renderer/renderer.h</text>
</a>
</g>
</g>
<!-- Node2 -->
<g id="node2" class="node">
<title>Node2</title>
<g id="a_node2"><a xlink:href="orthographic__camera_8h.html" target="_top" xlink:title=" ">
<polygon fill="white" stroke="black" points="379,-336.5 379,-355.5 580,-355.5 580,-336.5 379,-336.5"/>
<text text-anchor="middle" x="479.5" y="-343.5" font-family="Helvetica,sans-Serif" font-size="10.00">gauri/renderer/orthographic_camera.h</text>
</a>
</g>
</g>
<!-- Node1&#45;&gt;Node2 -->
<g id="edge1" class="edge">
<title>Node1&#45;&gt;Node2</title>
<path fill="none" stroke="midnightblue" d="M424.94,-392.32C434.65,-384.26 449.32,-372.08 461,-362.37"/>
<polygon fill="midnightblue" stroke="midnightblue" points="463.41,-364.92 468.87,-355.83 458.94,-359.53 463.41,-364.92"/>
</g>
<!-- Node4 -->
<g id="node4" class="node">
<title>Node4</title>
<g id="a_node4"><a xlink:href="render__command_8h.html" target="_top" xlink:title=" ">
<polygon fill="white" stroke="black" points="139,-336.5 139,-355.5 322,-355.5 322,-336.5 139,-336.5"/>
<text text-anchor="middle" x="230.5" y="-343.5" font-family="Helvetica,sans-Serif" font-size="10.00">gauri/renderer/render_command.h</text>
</a>
</g>
</g>
<!-- Node1&#45;&gt;Node4 -->
<g id="edge3" class="edge">
<title>Node1&#45;&gt;Node4</title>
<path fill="none" stroke="midnightblue" d="M385.34,-392.44C353.99,-383.24 303.97,-368.56 269.3,-358.39"/>
<polygon fill="midnightblue" stroke="midnightblue" points="270.1,-354.97 259.52,-355.52 268.13,-361.69 270.1,-354.97"/>
</g>
<!-- Node5 -->
<g id="node5" class="node">
<title>Node5</title>
<g id="a_node5"><a xlink:href="renderer__api_8h.html" target="_top" xlink:title=" ">
<polygon fill="white" stroke="black" points="268,-280.5 268,-299.5 427,-299.5 427,-280.5 268,-280.5"/>
<text text-anchor="middle" x="347.5" y="-287.5" font-family="Helvetica,sans-Serif" font-size="10.00">gauri/renderer/renderer_api.h</text>
</a>
</g>
</g>
<!-- Node1&#45;&gt;Node5 -->
<g id="edge19" class="edge">
<title>Node1&#45;&gt;Node5</title>
<path fill="none" stroke="midnightblue" d="M403.43,-392.47C393.32,-384.15 378.6,-370.64 369.5,-356 360.56,-341.61 354.77,-323.15 351.38,-309.59"/>
<polygon fill="midnightblue" stroke="midnightblue" points="354.72,-308.51 349.08,-299.54 347.9,-310.07 354.72,-308.51"/>
</g>
<!-- Node15 -->
<g id="node15" class="node">
<title>Node15</title>
<g id="a_node15"><a xlink:href="shader_8h.html" target="_top" xlink:title=" ">
<polygon fill="white" stroke="black" points="523.5,-280.5 523.5,-299.5 653.5,-299.5 653.5,-280.5 523.5,-280.5"/>
<text text-anchor="middle" x="588.5" y="-287.5" font-family="Helvetica,sans-Serif" font-size="10.00">gauri/renderer/shader.h</text>
</a>
</g>
</g>
<!-- Node1&#45;&gt;Node15 -->
<g id="edge20" class="edge">
<title>Node1&#45;&gt;Node15</title>
<path fill="none" stroke="midnightblue" d="M480.51,-392.5C524.24,-385.35 575.95,-373.48 589.5,-356 599.64,-342.92 597.84,-323.5 594.44,-309.3"/>
<polygon fill="midnightblue" stroke="midnightblue" points="597.8,-308.31 591.71,-299.64 591.07,-310.21 597.8,-308.31"/>
</g>
<!-- Node3 -->
<g id="node3" class="node">
<title>Node3</title>
<g id="a_node3"><a xlink:title=" ">
<polygon fill="white" stroke="#bfbfbf" points="444.5,-224.5 444.5,-243.5 522.5,-243.5 522.5,-224.5 444.5,-224.5"/>
<text text-anchor="middle" x="483.5" y="-231.5" font-family="Helvetica,sans-Serif" font-size="10.00">glm/glm.hpp</text>
</a>
</g>
</g>
<!-- Node2&#45;&gt;Node3 -->
<g id="edge2" class="edge">
<title>Node2&#45;&gt;Node3</title>
<path fill="none" stroke="midnightblue" d="M479.81,-336.37C480.46,-318.62 481.95,-277.67 482.82,-253.6"/>
<polygon fill="midnightblue" stroke="midnightblue" points="486.32,-253.71 483.19,-243.59 479.33,-253.46 486.32,-253.71"/>
</g>
<!-- Node4&#45;&gt;Node5 -->
<g id="edge4" class="edge">
<title>Node4&#45;&gt;Node5</title>
<path fill="none" stroke="midnightblue" d="M249.04,-336.44C268.12,-327.64 298.07,-313.81 319.94,-303.72"/>
<polygon fill="midnightblue" stroke="midnightblue" points="321.43,-306.88 329.05,-299.52 318.5,-300.53 321.43,-306.88"/>
</g>
<!-- Node5&#45;&gt;Node3 -->
<g id="edge5" class="edge">
<title>Node5&#45;&gt;Node3</title>
<path fill="none" stroke="midnightblue" d="M369.05,-280.44C391.53,-271.52 426.99,-257.44 452.48,-247.32"/>
<polygon fill="midnightblue" stroke="midnightblue" points="454.05,-250.46 462.05,-243.52 451.47,-243.95 454.05,-250.46"/>
</g>
<!-- Node6 -->
<g id="node6" class="node">
<title>Node6</title>
<g id="a_node6"><a xlink:title=" ">
<polygon fill="white" stroke="#bfbfbf" points="311.5,-0.5 311.5,-19.5 369.5,-19.5 369.5,-0.5 311.5,-0.5"/>
<text text-anchor="middle" x="340.5" y="-7.5" font-family="Helvetica,sans-Serif" font-size="10.00">memory</text>
</a>
</g>
</g>
<!-- Node5&#45;&gt;Node6 -->
<g id="edge6" class="edge">
<title>Node5&#45;&gt;Node6</title>
<path fill="none" stroke="midnightblue" d="M311.65,-280.4C292.62,-273.81 270.87,-262.59 259.5,-244 236.6,-206.56 88.31,-361.53 268.5,-56 277.04,-41.52 292.25,-31.01 306.51,-23.81"/>
<polygon fill="midnightblue" stroke="midnightblue" points="308.07,-26.95 315.65,-19.55 305.11,-20.6 308.07,-26.95"/>
</g>
<!-- Node7 -->
<g id="node7" class="node">
<title>Node7</title>
<g id="a_node7"><a xlink:href="vertex__array_8h.html" target="_top" xlink:title=" ">
<polygon fill="white" stroke="black" points="268.5,-224.5 268.5,-243.5 426.5,-243.5 426.5,-224.5 268.5,-224.5"/>
<text text-anchor="middle" x="347.5" y="-231.5" font-family="Helvetica,sans-Serif" font-size="10.00">gauri/renderer/vertex_array.h</text>
</a>
</g>
</g>
<!-- Node5&#45;&gt;Node7 -->
<g id="edge7" class="edge">
<title>Node5&#45;&gt;Node7</title>
<path fill="none" stroke="midnightblue" d="M347.5,-280.08C347.5,-273.01 347.5,-262.86 347.5,-253.99"/>
<polygon fill="midnightblue" stroke="midnightblue" points="351,-253.75 347.5,-243.75 344,-253.75 351,-253.75"/>
</g>
<!-- Node7&#45;&gt;Node6 -->
<g id="edge8" class="edge">
<title>Node7&#45;&gt;Node6</title>
<path fill="none" stroke="midnightblue" d="M369.22,-224.4C384.31,-217.15 403.3,-205.18 412.5,-188 428.44,-158.22 423.9,-144.14 413.5,-112 402.42,-77.75 374.91,-45.36 357,-26.88"/>
<polygon fill="midnightblue" stroke="midnightblue" points="359.31,-24.23 349.77,-19.62 354.35,-29.18 359.31,-24.23"/>
</g>
<!-- Node8 -->
<g id="node8" class="node">
<title>Node8</title>
<g id="a_node8"><a xlink:href="buffer_8h.html" target="_top" xlink:title=" ">
<polygon fill="white" stroke="black" points="279,-168.5 279,-187.5 404,-187.5 404,-168.5 279,-168.5"/>
<text text-anchor="middle" x="341.5" y="-175.5" font-family="Helvetica,sans-Serif" font-size="10.00">gauri/renderer/buffer.h</text>
</a>
</g>
</g>
<!-- Node7&#45;&gt;Node8 -->
<g id="edge9" class="edge">
<title>Node7&#45;&gt;Node8</title>
<path fill="none" stroke="midnightblue" d="M346.51,-224.08C345.71,-216.93 344.57,-206.64 343.58,-197.69"/>
<polygon fill="midnightblue" stroke="midnightblue" points="347.06,-197.3 342.47,-187.75 340.1,-198.08 347.06,-197.3"/>
</g>
<!-- Node9 -->
<g id="node9" class="node">
<title>Node9</title>
<g id="a_node9"><a xlink:href="core_8h.html" target="_top" xlink:title=" ">
<polygon fill="white" stroke="black" points="306.5,-112.5 306.5,-131.5 404.5,-131.5 404.5,-112.5 306.5,-112.5"/>
<text text-anchor="middle" x="355.5" y="-119.5" font-family="Helvetica,sans-Serif" font-size="10.00">gauri/core/core.h</text>
</a>
</g>
</g>
<!-- Node8&#45;&gt;Node9 -->
<g id="edge10" class="edge">
<title>Node8&#45;&gt;Node9</title>
<path fill="none" stroke="midnightblue" d="M343.81,-168.08C345.67,-160.93 348.34,-150.64 350.65,-141.69"/>
<polygon fill="midnightblue" stroke="midnightblue" points="354.11,-142.31 353.23,-131.75 347.33,-140.55 354.11,-142.31"/>
</g>
<!-- Node11 -->
<g id="node11" class="node">
<title>Node11</title>
<g id="a_node11"><a xlink:href="logger_8h.html" target="_top" xlink:title=" ">
<polygon fill="white" stroke="black" points="110,-56.5 110,-75.5 217,-75.5 217,-56.5 110,-56.5"/>
<text text-anchor="middle" x="163.5" y="-63.5" font-family="Helvetica,sans-Serif" font-size="10.00">gauri/core/logger.h</text>
</a>
</g>
</g>
<!-- Node8&#45;&gt;Node11 -->
<g id="edge18" class="edge">
<title>Node8&#45;&gt;Node11</title>
<path fill="none" stroke="midnightblue" d="M327.53,-168.37C296.86,-149.41 223.37,-104 186.06,-80.94"/>
<polygon fill="midnightblue" stroke="midnightblue" points="187.75,-77.87 177.4,-75.59 184.07,-83.83 187.75,-77.87"/>
</g>
<!-- Node9&#45;&gt;Node6 -->
<g id="edge12" class="edge">
<title>Node9&#45;&gt;Node6</title>
<path fill="none" stroke="midnightblue" d="M354.32,-112.37C351.9,-94.62 346.32,-53.67 343.04,-29.6"/>
<polygon fill="midnightblue" stroke="midnightblue" points="346.49,-29.03 341.67,-19.59 339.55,-29.97 346.49,-29.03"/>
</g>
<!-- Node10 -->
<g id="node10" class="node">
<title>Node10</title>
<g id="a_node10"><a xlink:title=" ">
<polygon fill="white" stroke="#bfbfbf" points="277.5,-56.5 277.5,-75.5 327.5,-75.5 327.5,-56.5 277.5,-56.5"/>
<text text-anchor="middle" x="302.5" y="-63.5" font-family="Helvetica,sans-Serif" font-size="10.00">cstdint</text>
</a>
</g>
</g>
<!-- Node9&#45;&gt;Node10 -->
<g id="edge11" class="edge">
<title>Node9&#45;&gt;Node10</title>
<path fill="none" stroke="midnightblue" d="M346.75,-112.08C339.03,-104.22 327.6,-92.57 318.28,-83.08"/>
<polygon fill="midnightblue" stroke="midnightblue" points="320.59,-80.44 311.09,-75.75 315.6,-85.34 320.59,-80.44"/>
</g>
<!-- Node9&#45;&gt;Node11 -->
<g id="edge13" class="edge">
<title>Node9&#45;&gt;Node11</title>
<path fill="none" stroke="midnightblue" d="M325.08,-112.44C292.22,-103.2 239.72,-88.44 203.53,-78.26"/>
<polygon fill="midnightblue" stroke="midnightblue" points="204.35,-74.85 193.78,-75.52 202.46,-81.59 204.35,-74.85"/>
</g>
<!-- Node11&#45;&gt;Node6 -->
<g id="edge15" class="edge">
<title>Node11&#45;&gt;Node6</title>
<path fill="none" stroke="midnightblue" d="M191.55,-56.44C221.58,-47.28 269.41,-32.69 302.74,-22.52"/>
<polygon fill="midnightblue" stroke="midnightblue" points="304.04,-25.78 312.59,-19.52 302,-19.09 304.04,-25.78"/>
</g>
<!-- Node12 -->
<g id="node12" class="node">
<title>Node12</title>
<g id="a_node12"><a xlink:title=" ">
<polygon fill="white" stroke="#bfbfbf" points="228.5,-0.5 228.5,-19.5 278.5,-19.5 278.5,-0.5 228.5,-0.5"/>
<text text-anchor="middle" x="253.5" y="-7.5" font-family="Helvetica,sans-Serif" font-size="10.00">format</text>
</a>
</g>
</g>
<!-- Node11&#45;&gt;Node12 -->
<g id="edge14" class="edge">
<title>Node11&#45;&gt;Node12</title>
<path fill="none" stroke="midnightblue" d="M177.96,-56.32C192,-47.9 213.55,-34.97 230.04,-25.07"/>
<polygon fill="midnightblue" stroke="midnightblue" points="232.3,-27.8 239.08,-19.65 228.7,-21.8 232.3,-27.8"/>
</g>
<!-- Node13 -->
<g id="node13" class="node">
<title>Node13</title>
<g id="a_node13"><a xlink:title=" ">
<polygon fill="white" stroke="#bfbfbf" points="0,-0.5 0,-19.5 99,-19.5 99,-0.5 0,-0.5"/>
<text text-anchor="middle" x="49.5" y="-7.5" font-family="Helvetica,sans-Serif" font-size="10.00">spdlog/fmt/ostr.h</text>
</a>
</g>
</g>
<!-- Node11&#45;&gt;Node13 -->
<g id="edge16" class="edge">
<title>Node11&#45;&gt;Node13</title>
<path fill="none" stroke="midnightblue" d="M145.44,-56.44C126.93,-47.68 97.92,-33.94 76.64,-23.86"/>
<polygon fill="midnightblue" stroke="midnightblue" points="78.01,-20.63 67.48,-19.52 75.02,-26.96 78.01,-20.63"/>
</g>
<!-- Node14 -->
<g id="node14" class="node">
<title>Node14</title>
<g id="a_node14"><a xlink:title=" ">
<polygon fill="white" stroke="#bfbfbf" points="117,-0.5 117,-19.5 210,-19.5 210,-0.5 117,-0.5"/>
<text text-anchor="middle" x="163.5" y="-7.5" font-family="Helvetica,sans-Serif" font-size="10.00">spdlog/spdlog.h</text>
</a>
</g>
</g>
<!-- Node11&#45;&gt;Node14 -->
<g id="edge17" class="edge">
<title>Node11&#45;&gt;Node14</title>
<path fill="none" stroke="midnightblue" d="M163.5,-56.08C163.5,-49.01 163.5,-38.86 163.5,-29.99"/>
<polygon fill="midnightblue" stroke="midnightblue" points="167,-29.75 163.5,-19.75 160,-29.75 167,-29.75"/>
</g>
<!-- Node15&#45;&gt;Node3 -->
<g id="edge21" class="edge">
<title>Node15&#45;&gt;Node3</title>
<path fill="none" stroke="midnightblue" d="M571.63,-280.32C554.79,-271.66 528.69,-258.24 509.26,-248.25"/>
<polygon fill="midnightblue" stroke="midnightblue" points="510.82,-245.12 500.33,-243.65 507.62,-251.34 510.82,-245.12"/>
</g>
<!-- Node15&#45;&gt;Node9 -->
<g id="edge23" class="edge">
<title>Node15&#45;&gt;Node9</title>
<path fill="none" stroke="midnightblue" d="M582.26,-280.18C572.53,-266.86 552.64,-241.3 531.5,-224 484.53,-185.55 421.06,-153.11 384.58,-136"/>
<polygon fill="midnightblue" stroke="midnightblue" points="385.58,-132.61 375.04,-131.59 382.65,-138.96 385.58,-132.61"/>
</g>
<!-- Node16 -->
<g id="node16" class="node">
<title>Node16</title>
<g id="a_node16"><a xlink:title=" ">
<polygon fill="white" stroke="#bfbfbf" points="578.5,-224.5 578.5,-243.5 622.5,-243.5 622.5,-224.5 578.5,-224.5"/>
<text text-anchor="middle" x="600.5" y="-231.5" font-family="Helvetica,sans-Serif" font-size="10.00">string</text>
</a>
</g>
</g>
<!-- Node15&#45;&gt;Node16 -->
<g id="edge22" class="edge">
<title>Node15&#45;&gt;Node16</title>
<path fill="none" stroke="midnightblue" d="M590.48,-280.08C592.07,-272.93 594.36,-262.64 596.35,-253.69"/>
<polygon fill="midnightblue" stroke="midnightblue" points="599.8,-254.27 598.56,-243.75 592.97,-252.75 599.8,-254.27"/>
</g>
</g>
</svg>
