<?xml version="1.0" encoding="UTF-8" standalone="no"?>
<!DOCTYPE svg PUBLIC "-//W3C//DTD SVG 1.1//EN"
 "http://www.w3.org/Graphics/SVG/1.1/DTD/svg11.dtd">
<!-- Generated by graphviz version 2.43.0 (0)
 -->
<!-- Title: /home/runner/work/gauri/gauri/gauri/include/gauri/renderer/renderer_api.h Pages: 1 -->
<svg width="976pt" height="252pt"
 viewBox="0.00 0.00 976.00 252.00" xmlns="http://www.w3.org/2000/svg" xmlns:xlink="http://www.w3.org/1999/xlink">
<g id="graph0" class="graph" transform="scale(1 1) rotate(0) translate(4 248)">
<title>/home/runner/work/gauri/gauri/gauri/include/gauri/renderer/renderer_api.h</title>
<polygon fill="white" stroke="transparent" points="-4,4 -4,-248 972,-248 972,4 -4,4"/>
<!-- Node1 -->
<g id="node1" class="node">
<title>Node1</title>
<g id="a_node1"><a xlink:title=" ">
<polygon fill="#bfbfbf" stroke="black" points="214.5,-224.5 214.5,-243.5 590.5,-243.5 590.5,-224.5 214.5,-224.5"/>
<text text-anchor="middle" x="402.5" y="-231.5" font-family="Helvetica,sans-Serif" font-size="10.00">/home/runner/work/gauri/gauri/gauri/include/gauri/renderer/renderer_api.h</text>
</a>
</g>
</g>
<!-- Node2 -->
<g id="node2" class="node">
<title>Node2</title>
<g id="a_node2"><a xlink:href="render__command_8h.html" target="_top" xlink:title=" ">
<polygon fill="white" stroke="black" points="88.5,-168.5 88.5,-187.5 488.5,-187.5 488.5,-168.5 88.5,-168.5"/>
<text text-anchor="middle" x="288.5" y="-175.5" font-family="Helvetica,sans-Serif" font-size="10.00">/home/runner/work/gauri/gauri/gauri/include/gauri/renderer/render_command.h</text>
</a>
</g>
</g>
<!-- Node1&#45;&gt;Node2 -->
<g id="edge1" class="edge">
<title>Node1&#45;&gt;Node2</title>
<path fill="none" stroke="midnightblue" d="M375.26,-220.1C353.96,-210.01 324.96,-196.27 306.48,-187.52"/>
<polygon fill="midnightblue" stroke="midnightblue" points="373.9,-223.33 384.44,-224.44 376.9,-217 373.9,-223.33"/>
</g>
<!-- Node3 -->
<g id="node3" class="node">
<title>Node3</title>
<g id="a_node3"><a xlink:href="renderer_8h.html" target="_top" xlink:title=" ">
<polygon fill="white" stroke="black" points="0,-112.5 0,-131.5 355,-131.5 355,-112.5 0,-112.5"/>
<text text-anchor="middle" x="177.5" y="-119.5" font-family="Helvetica,sans-Serif" font-size="10.00">/home/runner/work/gauri/gauri/gauri/include/gauri/renderer/renderer.h</text>
</a>
</g>
</g>
<!-- Node1&#45;&gt;Node3 -->
<g id="edge7" class="edge">
<title>Node1&#45;&gt;Node3</title>
<path fill="none" stroke="midnightblue" d="M204.22,-226.44C148.19,-220.17 97.51,-208.7 79.5,-188 56.98,-162.13 106.22,-142.22 142.74,-131.59"/>
<polygon fill="midnightblue" stroke="midnightblue" points="204.05,-229.94 214.36,-227.52 204.79,-222.98 204.05,-229.94"/>
</g>
<!-- Node4 -->
<g id="node4" class="node">
<title>Node4</title>
<g id="a_node4"><a xlink:href="gauri_8h.html" target="_top" xlink:title=" ">
<polygon fill="white" stroke="black" points="250,-56.5 250,-75.5 517,-75.5 517,-56.5 250,-56.5"/>
<text text-anchor="middle" x="383.5" y="-63.5" font-family="Helvetica,sans-Serif" font-size="10.00">/home/runner/work/gauri/gauri/gauri/include/gauri.h</text>
</a>
</g>
</g>
<!-- Node1&#45;&gt;Node4 -->
<g id="edge8" class="edge">
<title>Node1&#45;&gt;Node4</title>
<path fill="none" stroke="midnightblue" d="M448.53,-221.42C478.2,-211.29 509.23,-194.06 497.5,-168 477.42,-123.39 426.83,-90.51 400.31,-75.7"/>
<polygon fill="midnightblue" stroke="midnightblue" points="447.46,-218.09 439,-224.47 449.59,-224.76 447.46,-218.09"/>
</g>
<!-- Node6 -->
<g id="node6" class="node">
<title>Node6</title>
<g id="a_node6"><a xlink:href="opengl__renderer__api_8h.html" target="_top" xlink:title=" ">
<polygon fill="white" stroke="black" points="545,-168.5 545,-187.5 968,-187.5 968,-168.5 545,-168.5"/>
<text text-anchor="middle" x="756.5" y="-175.5" font-family="Helvetica,sans-Serif" font-size="10.00">/home/runner/work/gauri/gauri/gauri/include/platform/opengl/opengl_renderer_api.h</text>
</a>
</g>
</g>
<!-- Node1&#45;&gt;Node6 -->
<g id="edge9" class="edge">
<title>Node1&#45;&gt;Node6</title>
<path fill="none" stroke="midnightblue" d="M468.6,-222.92C535.48,-212.71 637.73,-197.12 700.67,-187.52"/>
<polygon fill="midnightblue" stroke="midnightblue" points="467.95,-219.48 458.59,-224.44 469.01,-226.4 467.95,-219.48"/>
</g>
<!-- Node2&#45;&gt;Node3 -->
<g id="edge2" class="edge">
<title>Node2&#45;&gt;Node3</title>
<path fill="none" stroke="midnightblue" d="M261.49,-163.86C240.91,-153.85 213.16,-140.35 195.29,-131.65"/>
<polygon fill="midnightblue" stroke="midnightblue" points="260.14,-167.1 270.67,-168.32 263.2,-160.8 260.14,-167.1"/>
</g>
<!-- Node2&#45;&gt;Node4 -->
<g id="edge6" class="edge">
<title>Node2&#45;&gt;Node4</title>
<path fill="none" stroke="midnightblue" d="M321.85,-164.04C336.82,-156.69 353.54,-146.11 364.5,-132 377.62,-115.1 381.69,-89.38 382.94,-75.92"/>
<polygon fill="midnightblue" stroke="midnightblue" points="319.97,-161.05 312.35,-168.41 322.89,-167.42 319.97,-161.05"/>
</g>
<!-- Node3&#45;&gt;Node4 -->
<g id="edge3" class="edge">
<title>Node3&#45;&gt;Node4</title>
<path fill="none" stroke="midnightblue" d="M220.12,-109.83C259.01,-99.63 315.66,-84.78 351.01,-75.52"/>
<polygon fill="midnightblue" stroke="midnightblue" points="218.93,-106.52 210.14,-112.44 220.7,-113.29 218.93,-106.52"/>
</g>
<!-- Node5 -->
<g id="node5" class="node">
<title>Node5</title>
<g id="a_node5"><a xlink:href="entry__point_8h.html" target="_top" xlink:title=" ">
<polygon fill="white" stroke="black" points="220.5,-0.5 220.5,-19.5 546.5,-19.5 546.5,-0.5 220.5,-0.5"/>
<text text-anchor="middle" x="383.5" y="-7.5" font-family="Helvetica,sans-Serif" font-size="10.00">/home/runner/work/gauri/gauri/gauri/include/gauri/entry_point.h</text>
</a>
</g>
</g>
<!-- Node4&#45;&gt;Node5 -->
<g id="edge4" class="edge">
<title>Node4&#45;&gt;Node5</title>
<path fill="none" stroke="midnightblue" d="M377.03,-46.1C376.4,-37.14 376.84,-26.86 378.37,-19.75"/>
<polygon fill="midnightblue" stroke="midnightblue" points="373.57,-46.62 378.33,-56.08 380.51,-45.71 373.57,-46.62"/>
</g>
<!-- Node5&#45;&gt;Node4 -->
<g id="edge5" class="edge">
<title>Node5&#45;&gt;Node4</title>
<path fill="none" stroke="midnightblue" d="M389.96,-29.69C390.61,-38.64 390.18,-48.93 388.67,-56.08"/>
<polygon fill="midnightblue" stroke="midnightblue" points="393.42,-29.2 388.63,-19.75 386.48,-30.13 393.42,-29.2"/>
</g>
</g>
</svg>
