<?xml version="1.0" encoding="UTF-8" standalone="no"?>
<!DOCTYPE svg PUBLIC "-//W3C//DTD SVG 1.1//EN"
 "http://www.w3.org/Graphics/SVG/1.1/DTD/svg11.dtd">
<!-- Generated by graphviz version 2.43.0 (0)
 -->
<!-- Title: /home/runner/work/gauri/gauri/gauri/include/gauri/renderer/render_command.h Pages: 1 -->
<svg width="489pt" height="196pt"
 viewBox="0.00 0.00 488.50 196.00" xmlns="http://www.w3.org/2000/svg" xmlns:xlink="http://www.w3.org/1999/xlink">
<g id="graph0" class="graph" transform="scale(1 1) rotate(0) translate(4 192)">
<title>/home/runner/work/gauri/gauri/gauri/include/gauri/renderer/render_command.h</title>
<polygon fill="white" stroke="transparent" points="-4,4 -4,-192 484.5,-192 484.5,4 -4,4"/>
<!-- Node1 -->
<g id="node1" class="node">
<title>Node1</title>
<g id="a_node1"><a xlink:title=" ">
<polygon fill="#bfbfbf" stroke="black" points="80.5,-168.5 80.5,-187.5 480.5,-187.5 480.5,-168.5 80.5,-168.5"/>
<text text-anchor="middle" x="280.5" y="-175.5" font-family="Helvetica,sans-Serif" font-size="10.00">/home/runner/work/gauri/gauri/gauri/include/gauri/renderer/render_command.h</text>
</a>
</g>
</g>
<!-- Node2 -->
<g id="node2" class="node">
<title>Node2</title>
<g id="a_node2"><a xlink:href="renderer_8h.html" target="_top" xlink:title=" ">
<polygon fill="white" stroke="black" points="0,-112.5 0,-131.5 355,-131.5 355,-112.5 0,-112.5"/>
<text text-anchor="middle" x="177.5" y="-119.5" font-family="Helvetica,sans-Serif" font-size="10.00">/home/runner/work/gauri/gauri/gauri/include/gauri/renderer/renderer.h</text>
</a>
</g>
</g>
<!-- Node1&#45;&gt;Node2 -->
<g id="edge1" class="edge">
<title>Node1&#45;&gt;Node2</title>
<path fill="none" stroke="midnightblue" d="M254.92,-163.59C235.88,-153.61 210.44,-140.27 194.01,-131.65"/>
<polygon fill="midnightblue" stroke="midnightblue" points="253.47,-166.78 263.95,-168.32 256.72,-160.58 253.47,-166.78"/>
</g>
<!-- Node3 -->
<g id="node3" class="node">
<title>Node3</title>
<g id="a_node3"><a xlink:href="gauri_8h.html" target="_top" xlink:title=" ">
<polygon fill="white" stroke="black" points="147,-56.5 147,-75.5 414,-75.5 414,-56.5 147,-56.5"/>
<text text-anchor="middle" x="280.5" y="-63.5" font-family="Helvetica,sans-Serif" font-size="10.00">/home/runner/work/gauri/gauri/gauri/include/gauri.h</text>
</a>
</g>
</g>
<!-- Node1&#45;&gt;Node3 -->
<g id="edge5" class="edge">
<title>Node1&#45;&gt;Node3</title>
<path fill="none" stroke="midnightblue" d="M323.21,-164.57C339.04,-157.67 355.35,-147.28 364.5,-132 380.32,-105.58 339.75,-85.97 309.63,-75.53"/>
<polygon fill="midnightblue" stroke="midnightblue" points="321.49,-161.49 313.49,-168.44 324.07,-168 321.49,-161.49"/>
</g>
<!-- Node2&#45;&gt;Node3 -->
<g id="edge2" class="edge">
<title>Node2&#45;&gt;Node3</title>
<path fill="none" stroke="midnightblue" d="M203.08,-107.59C222.12,-97.61 247.56,-84.27 263.99,-75.65"/>
<polygon fill="midnightblue" stroke="midnightblue" points="201.28,-104.58 194.05,-112.32 204.53,-110.78 201.28,-104.58"/>
</g>
<!-- Node4 -->
<g id="node4" class="node">
<title>Node4</title>
<g id="a_node4"><a xlink:href="entry__point_8h.html" target="_top" xlink:title=" ">
<polygon fill="white" stroke="black" points="105.5,-0.5 105.5,-19.5 455.5,-19.5 455.5,-0.5 105.5,-0.5"/>
<text text-anchor="middle" x="280.5" y="-7.5" font-family="Helvetica,sans-Serif" font-size="10.00">/home/runner/work/gauri/gauri/gauri/include/gauri/core/entry_point.h</text>
</a>
</g>
</g>
<!-- Node3&#45;&gt;Node4 -->
<g id="edge3" class="edge">
<title>Node3&#45;&gt;Node4</title>
<path fill="none" stroke="midnightblue" d="M274.03,-46.1C273.4,-37.14 273.84,-26.86 275.37,-19.75"/>
<polygon fill="midnightblue" stroke="midnightblue" points="270.57,-46.62 275.33,-56.08 277.51,-45.71 270.57,-46.62"/>
</g>
<!-- Node4&#45;&gt;Node3 -->
<g id="edge4" class="edge">
<title>Node4&#45;&gt;Node3</title>
<path fill="none" stroke="midnightblue" d="M286.96,-29.69C287.61,-38.64 287.18,-48.93 285.67,-56.08"/>
<polygon fill="midnightblue" stroke="midnightblue" points="290.42,-29.2 285.63,-19.75 283.48,-30.13 290.42,-29.2"/>
</g>
</g>
</svg>
