<?xml version="1.0" encoding="UTF-8" standalone="no"?>
<!DOCTYPE svg PUBLIC "-//W3C//DTD SVG 1.1//EN"
 "http://www.w3.org/Graphics/SVG/1.1/DTD/svg11.dtd">
<!-- Generated by graphviz version 2.43.0 (0)
 -->
<!-- Title: /home/runner/work/gauri/gauri/gauri/include/gauri/renderer/renderer.h Pages: 1 -->
<svg width="363pt" height="140pt"
 viewBox="0.00 0.00 363.00 140.00" xmlns="http://www.w3.org/2000/svg" xmlns:xlink="http://www.w3.org/1999/xlink">
<g id="graph0" class="graph" transform="scale(1 1) rotate(0) translate(4 136)">
<title>/home/runner/work/gauri/gauri/gauri/include/gauri/renderer/renderer.h</title>
<polygon fill="white" stroke="transparent" points="-4,4 -4,-136 359,-136 359,4 -4,4"/>
<!-- Node1 -->
<g id="node1" class="node">
<title>Node1</title>
<g id="a_node1"><a xlink:title=" ">
<polygon fill="#bfbfbf" stroke="black" points="0,-112.5 0,-131.5 355,-131.5 355,-112.5 0,-112.5"/>
<text text-anchor="middle" x="177.5" y="-119.5" font-family="Helvetica,sans-Serif" font-size="10.00">/home/runner/work/gauri/gauri/gauri/include/gauri/renderer/renderer.h</text>
</a>
</g>
</g>
<!-- Node2 -->
<g id="node2" class="node">
<title>Node2</title>
<g id="a_node2"><a xlink:href="gauri_8h.html" target="_top" xlink:title=" ">
<polygon fill="white" stroke="black" points="44,-56.5 44,-75.5 311,-75.5 311,-56.5 44,-56.5"/>
<text text-anchor="middle" x="177.5" y="-63.5" font-family="Helvetica,sans-Serif" font-size="10.00">/home/runner/work/gauri/gauri/gauri/include/gauri.h</text>
</a>
</g>
</g>
<!-- Node1&#45;&gt;Node2 -->
<g id="edge1" class="edge">
<title>Node1&#45;&gt;Node2</title>
<path fill="none" stroke="midnightblue" d="M177.5,-101.8C177.5,-92.91 177.5,-82.78 177.5,-75.75"/>
<polygon fill="midnightblue" stroke="midnightblue" points="174,-102.08 177.5,-112.08 181,-102.08 174,-102.08"/>
</g>
<!-- Node3 -->
<g id="node3" class="node">
<title>Node3</title>
<g id="a_node3"><a xlink:href="entry__point_8h.html" target="_top" xlink:title=" ">
<polygon fill="white" stroke="black" points="2.5,-0.5 2.5,-19.5 352.5,-19.5 352.5,-0.5 2.5,-0.5"/>
<text text-anchor="middle" x="177.5" y="-7.5" font-family="Helvetica,sans-Serif" font-size="10.00">/home/runner/work/gauri/gauri/gauri/include/gauri/core/entry_point.h</text>
</a>
</g>
</g>
<!-- Node2&#45;&gt;Node3 -->
<g id="edge2" class="edge">
<title>Node2&#45;&gt;Node3</title>
<path fill="none" stroke="midnightblue" d="M171.03,-46.1C170.4,-37.14 170.84,-26.86 172.37,-19.75"/>
<polygon fill="midnightblue" stroke="midnightblue" points="167.57,-46.62 172.33,-56.08 174.51,-45.71 167.57,-46.62"/>
</g>
<!-- Node3&#45;&gt;Node2 -->
<g id="edge3" class="edge">
<title>Node3&#45;&gt;Node2</title>
<path fill="none" stroke="midnightblue" d="M183.96,-29.69C184.61,-38.64 184.18,-48.93 182.67,-56.08"/>
<polygon fill="midnightblue" stroke="midnightblue" points="187.42,-29.2 182.63,-19.75 180.48,-30.13 187.42,-29.2"/>
</g>
</g>
</svg>
