<?xml version="1.0" encoding="UTF-8" standalone="no"?>
<!DOCTYPE svg PUBLIC "-//W3C//DTD SVG 1.1//EN"
 "http://www.w3.org/Graphics/SVG/1.1/DTD/svg11.dtd">
<!-- Generated by graphviz version 2.43.0 (0)
 -->
<!-- Title: /home/runner/work/gauri/gauri/gauri/include/gauri/renderer/renderer_2d.h Pages: 1 -->
<svg width="890pt" height="308pt"
 viewBox="0.00 0.00 889.50 308.00" xmlns="http://www.w3.org/2000/svg" xmlns:xlink="http://www.w3.org/1999/xlink">
<g id="graph0" class="graph" transform="scale(1 1) rotate(0) translate(4 304)">
<title>/home/runner/work/gauri/gauri/gauri/include/gauri/renderer/renderer_2d.h</title>
<polygon fill="white" stroke="transparent" points="-4,4 -4,-304 885.5,-304 885.5,4 -4,4"/>
<!-- Node1 -->
<g id="node1" class="node">
<title>Node1</title>
<g id="a_node1"><a xlink:title=" ">
<polygon fill="#bfbfbf" stroke="black" points="167.5,-280.5 167.5,-299.5 540.5,-299.5 540.5,-280.5 167.5,-280.5"/>
<text text-anchor="middle" x="354" y="-287.5" font-family="Helvetica,sans-Serif" font-size="10.00">/home/runner/work/gauri/gauri/gauri/include/gauri/renderer/renderer_2d.h</text>
</a>
</g>
</g>
<!-- Node2 -->
<g id="node2" class="node">
<title>Node2</title>
<g id="a_node2"><a xlink:href="camera_8h.html" target="_top" xlink:title=" ">
<polygon fill="white" stroke="black" points="0,-224.5 0,-243.5 134,-243.5 134,-224.5 0,-224.5"/>
<text text-anchor="middle" x="67" y="-231.5" font-family="Helvetica,sans-Serif" font-size="10.00">gauri/renderer/camera.h</text>
</a>
</g>
</g>
<!-- Node1&#45;&gt;Node2 -->
<g id="edge1" class="edge">
<title>Node1&#45;&gt;Node2</title>
<path fill="none" stroke="midnightblue" d="M308.52,-280.44C258.04,-270.94 176.54,-255.61 122.38,-245.42"/>
<polygon fill="midnightblue" stroke="midnightblue" points="122.74,-241.93 112.26,-243.52 121.44,-248.81 122.74,-241.93"/>
</g>
<!-- Node4 -->
<g id="node4" class="node">
<title>Node4</title>
<g id="a_node4"><a xlink:href="orthographic__camera_8h.html" target="_top" xlink:title=" ">
<polygon fill="white" stroke="black" points="152.5,-224.5 152.5,-243.5 353.5,-243.5 353.5,-224.5 152.5,-224.5"/>
<text text-anchor="middle" x="253" y="-231.5" font-family="Helvetica,sans-Serif" font-size="10.00">gauri/renderer/orthographic_camera.h</text>
</a>
</g>
</g>
<!-- Node1&#45;&gt;Node4 -->
<g id="edge3" class="edge">
<title>Node1&#45;&gt;Node4</title>
<path fill="none" stroke="midnightblue" d="M337.77,-280.32C321.65,-271.7 296.7,-258.36 278.04,-248.39"/>
<polygon fill="midnightblue" stroke="midnightblue" points="279.66,-245.28 269.19,-243.65 276.36,-251.46 279.66,-245.28"/>
</g>
<!-- Node5 -->
<g id="node5" class="node">
<title>Node5</title>
<g id="a_node5"><a xlink:href="subtexture__2d_8h.html" target="_top" xlink:title=" ">
<polygon fill="white" stroke="black" points="371.5,-224.5 371.5,-243.5 538.5,-243.5 538.5,-224.5 371.5,-224.5"/>
<text text-anchor="middle" x="455" y="-231.5" font-family="Helvetica,sans-Serif" font-size="10.00">gauri/renderer/subtexture_2d.h</text>
</a>
</g>
</g>
<!-- Node1&#45;&gt;Node5 -->
<g id="edge5" class="edge">
<title>Node1&#45;&gt;Node5</title>
<path fill="none" stroke="midnightblue" d="M370.23,-280.32C386.35,-271.7 411.3,-258.36 429.96,-248.39"/>
<polygon fill="midnightblue" stroke="midnightblue" points="431.64,-251.46 438.81,-243.65 428.34,-245.28 431.64,-251.46"/>
</g>
<!-- Node6 -->
<g id="node6" class="node">
<title>Node6</title>
<g id="a_node6"><a xlink:href="texture_8h.html" target="_top" xlink:title=" ">
<polygon fill="white" stroke="black" points="443.5,-168.5 443.5,-187.5 576.5,-187.5 576.5,-168.5 443.5,-168.5"/>
<text text-anchor="middle" x="510" y="-175.5" font-family="Helvetica,sans-Serif" font-size="10.00">gauri/renderer/texture.h</text>
</a>
</g>
</g>
<!-- Node1&#45;&gt;Node6 -->
<g id="edge17" class="edge">
<title>Node1&#45;&gt;Node6</title>
<path fill="none" stroke="midnightblue" d="M433.18,-280.5C479.88,-273.67 532.59,-262.16 547,-244 559.4,-228.38 543.61,-208.11 528.99,-194.39"/>
<polygon fill="midnightblue" stroke="midnightblue" points="530.99,-191.49 521.17,-187.51 526.37,-196.75 530.99,-191.49"/>
</g>
<!-- Node3 -->
<g id="node3" class="node">
<title>Node3</title>
<g id="a_node3"><a xlink:title=" ">
<polygon fill="white" stroke="#bfbfbf" points="214,-168.5 214,-187.5 292,-187.5 292,-168.5 214,-168.5"/>
<text text-anchor="middle" x="253" y="-175.5" font-family="Helvetica,sans-Serif" font-size="10.00">glm/glm.hpp</text>
</a>
</g>
</g>
<!-- Node2&#45;&gt;Node3 -->
<g id="edge2" class="edge">
<title>Node2&#45;&gt;Node3</title>
<path fill="none" stroke="midnightblue" d="M96.47,-224.44C128.17,-215.24 178.73,-200.56 213.77,-190.39"/>
<polygon fill="midnightblue" stroke="midnightblue" points="215.04,-193.67 223.67,-187.52 213.09,-186.94 215.04,-193.67"/>
</g>
<!-- Node4&#45;&gt;Node3 -->
<g id="edge4" class="edge">
<title>Node4&#45;&gt;Node3</title>
<path fill="none" stroke="midnightblue" d="M253,-224.08C253,-217.01 253,-206.86 253,-197.99"/>
<polygon fill="midnightblue" stroke="midnightblue" points="256.5,-197.75 253,-187.75 249.5,-197.75 256.5,-197.75"/>
</g>
<!-- Node5&#45;&gt;Node3 -->
<g id="edge6" class="edge">
<title>Node5&#45;&gt;Node3</title>
<path fill="none" stroke="midnightblue" d="M422.99,-224.44C388.27,-215.16 332.71,-200.31 294.62,-190.13"/>
<polygon fill="midnightblue" stroke="midnightblue" points="295.42,-186.72 284.86,-187.52 293.61,-193.48 295.42,-186.72"/>
</g>
<!-- Node5&#45;&gt;Node6 -->
<g id="edge7" class="edge">
<title>Node5&#45;&gt;Node6</title>
<path fill="none" stroke="midnightblue" d="M464.08,-224.08C472.17,-216.14 484.2,-204.34 493.91,-194.8"/>
<polygon fill="midnightblue" stroke="midnightblue" points="496.4,-197.25 501.09,-187.75 491.5,-192.26 496.4,-197.25"/>
</g>
<!-- Node7 -->
<g id="node7" class="node">
<title>Node7</title>
<g id="a_node7"><a xlink:title=" ">
<polygon fill="white" stroke="#bfbfbf" points="443,-112.5 443,-131.5 487,-131.5 487,-112.5 443,-112.5"/>
<text text-anchor="middle" x="465" y="-119.5" font-family="Helvetica,sans-Serif" font-size="10.00">string</text>
</a>
</g>
</g>
<!-- Node6&#45;&gt;Node7 -->
<g id="edge8" class="edge">
<title>Node6&#45;&gt;Node7</title>
<path fill="none" stroke="midnightblue" d="M502.57,-168.08C496.15,-160.38 486.69,-149.03 478.88,-139.65"/>
<polygon fill="midnightblue" stroke="midnightblue" points="481.38,-137.19 472.29,-131.75 476.01,-141.67 481.38,-137.19"/>
</g>
<!-- Node8 -->
<g id="node8" class="node">
<title>Node8</title>
<g id="a_node8"><a xlink:href="base_8h.html" target="_top" xlink:title=" ">
<polygon fill="white" stroke="black" points="505.5,-112.5 505.5,-131.5 606.5,-131.5 606.5,-112.5 505.5,-112.5"/>
<text text-anchor="middle" x="556" y="-119.5" font-family="Helvetica,sans-Serif" font-size="10.00">gauri/core/base.h</text>
</a>
</g>
</g>
<!-- Node6&#45;&gt;Node8 -->
<g id="edge9" class="edge">
<title>Node6&#45;&gt;Node8</title>
<path fill="none" stroke="midnightblue" d="M517.6,-168.08C524.23,-160.3 534.02,-148.8 542.06,-139.37"/>
<polygon fill="midnightblue" stroke="midnightblue" points="544.73,-141.63 548.55,-131.75 539.4,-137.09 544.73,-141.63"/>
</g>
<!-- Node9 -->
<g id="node9" class="node">
<title>Node9</title>
<g id="a_node9"><a xlink:title=" ">
<polygon fill="white" stroke="#bfbfbf" points="478,-56.5 478,-75.5 528,-75.5 528,-56.5 478,-56.5"/>
<text text-anchor="middle" x="503" y="-63.5" font-family="Helvetica,sans-Serif" font-size="10.00">cstdint</text>
</a>
</g>
</g>
<!-- Node8&#45;&gt;Node9 -->
<g id="edge10" class="edge">
<title>Node8&#45;&gt;Node9</title>
<path fill="none" stroke="midnightblue" d="M547.25,-112.08C539.53,-104.22 528.1,-92.57 518.78,-83.08"/>
<polygon fill="midnightblue" stroke="midnightblue" points="521.09,-80.44 511.59,-75.75 516.1,-85.34 521.09,-80.44"/>
</g>
<!-- Node10 -->
<g id="node10" class="node">
<title>Node10</title>
<g id="a_node10"><a xlink:title=" ">
<polygon fill="white" stroke="#bfbfbf" points="527,-0.5 527,-19.5 585,-19.5 585,-0.5 527,-0.5"/>
<text text-anchor="middle" x="556" y="-7.5" font-family="Helvetica,sans-Serif" font-size="10.00">memory</text>
</a>
</g>
</g>
<!-- Node8&#45;&gt;Node10 -->
<g id="edge11" class="edge">
<title>Node8&#45;&gt;Node10</title>
<path fill="none" stroke="midnightblue" d="M556,-112.37C556,-94.62 556,-53.67 556,-29.6"/>
<polygon fill="midnightblue" stroke="midnightblue" points="559.5,-29.59 556,-19.59 552.5,-29.59 559.5,-29.59"/>
</g>
<!-- Node11 -->
<g id="node11" class="node">
<title>Node11</title>
<g id="a_node11"><a xlink:href="logger_8h.html" target="_top" xlink:title=" ">
<polygon fill="white" stroke="black" points="584.5,-56.5 584.5,-75.5 691.5,-75.5 691.5,-56.5 584.5,-56.5"/>
<text text-anchor="middle" x="638" y="-63.5" font-family="Helvetica,sans-Serif" font-size="10.00">gauri/core/logger.h</text>
</a>
</g>
</g>
<!-- Node8&#45;&gt;Node11 -->
<g id="edge12" class="edge">
<title>Node8&#45;&gt;Node11</title>
<path fill="none" stroke="midnightblue" d="M569.17,-112.32C581.85,-103.98 601.23,-91.21 616.21,-81.35"/>
<polygon fill="midnightblue" stroke="midnightblue" points="618.43,-84.08 624.86,-75.65 614.58,-78.23 618.43,-84.08"/>
</g>
<!-- Node11&#45;&gt;Node10 -->
<g id="edge14" class="edge">
<title>Node11&#45;&gt;Node10</title>
<path fill="none" stroke="midnightblue" d="M624.83,-56.32C612.15,-47.98 592.77,-35.21 577.79,-25.35"/>
<polygon fill="midnightblue" stroke="midnightblue" points="579.42,-22.23 569.14,-19.65 575.57,-28.08 579.42,-22.23"/>
</g>
<!-- Node12 -->
<g id="node12" class="node">
<title>Node12</title>
<g id="a_node12"><a xlink:title=" ">
<polygon fill="white" stroke="#bfbfbf" points="603,-0.5 603,-19.5 653,-19.5 653,-0.5 603,-0.5"/>
<text text-anchor="middle" x="628" y="-7.5" font-family="Helvetica,sans-Serif" font-size="10.00">format</text>
</a>
</g>
</g>
<!-- Node11&#45;&gt;Node12 -->
<g id="edge13" class="edge">
<title>Node11&#45;&gt;Node12</title>
<path fill="none" stroke="midnightblue" d="M636.35,-56.08C635.02,-48.93 633.12,-38.64 631.46,-29.69"/>
<polygon fill="midnightblue" stroke="midnightblue" points="634.88,-28.95 629.62,-19.75 628,-30.22 634.88,-28.95"/>
</g>
<!-- Node13 -->
<g id="node13" class="node">
<title>Node13</title>
<g id="a_node13"><a xlink:title=" ">
<polygon fill="white" stroke="#bfbfbf" points="671.5,-0.5 671.5,-19.5 770.5,-19.5 770.5,-0.5 671.5,-0.5"/>
<text text-anchor="middle" x="721" y="-7.5" font-family="Helvetica,sans-Serif" font-size="10.00">spdlog/fmt/ostr.h</text>
</a>
</g>
</g>
<!-- Node11&#45;&gt;Node13 -->
<g id="edge15" class="edge">
<title>Node11&#45;&gt;Node13</title>
<path fill="none" stroke="midnightblue" d="M651.34,-56.32C664.16,-47.98 683.78,-35.21 698.94,-25.35"/>
<polygon fill="midnightblue" stroke="midnightblue" points="701.22,-28.04 707.7,-19.65 697.41,-22.17 701.22,-28.04"/>
</g>
<!-- Node14 -->
<g id="node14" class="node">
<title>Node14</title>
<g id="a_node14"><a xlink:title=" ">
<polygon fill="white" stroke="#bfbfbf" points="788.5,-0.5 788.5,-19.5 881.5,-19.5 881.5,-0.5 788.5,-0.5"/>
<text text-anchor="middle" x="835" y="-7.5" font-family="Helvetica,sans-Serif" font-size="10.00">spdlog/spdlog.h</text>
</a>
</g>
</g>
<!-- Node11&#45;&gt;Node14 -->
<g id="edge16" class="edge">
<title>Node11&#45;&gt;Node14</title>
<path fill="none" stroke="midnightblue" d="M669.22,-56.44C702.93,-47.2 756.8,-32.44 793.93,-22.26"/>
<polygon fill="midnightblue" stroke="midnightblue" points="795.21,-25.54 803.93,-19.52 793.36,-18.78 795.21,-25.54"/>
</g>
</g>
</svg>
