<?xml version="1.0" encoding="UTF-8" standalone="no"?>
<!DOCTYPE svg PUBLIC "-//W3C//DTD SVG 1.1//EN"
 "http://www.w3.org/Graphics/SVG/1.1/DTD/svg11.dtd">
<!-- Generated by graphviz version 2.43.0 (0)
 -->
<!-- Title: /home/runner/work/gauri/gauri/gauri/include/gauri/scene/scene.h Pages: 1 -->
<svg width="876pt" height="308pt"
 viewBox="0.00 0.00 876.00 308.00" xmlns="http://www.w3.org/2000/svg" xmlns:xlink="http://www.w3.org/1999/xlink">
<g id="graph0" class="graph" transform="scale(1 1) rotate(0) translate(4 304)">
<title>/home/runner/work/gauri/gauri/gauri/include/gauri/scene/scene.h</title>
<polygon fill="white" stroke="transparent" points="-4,4 -4,-304 872,-304 872,4 -4,4"/>
<!-- Node1 -->
<g id="node1" class="node">
<title>Node1</title>
<g id="a_node1"><a xlink:title=" ">
<polygon fill="#bfbfbf" stroke="black" points="295,-280.5 295,-299.5 625,-299.5 625,-280.5 295,-280.5"/>
<text text-anchor="middle" x="460" y="-287.5" font-family="Helvetica,sans-Serif" font-size="10.00">/home/runner/work/gauri/gauri/gauri/include/gauri/scene/scene.h</text>
</a>
</g>
</g>
<!-- Node2 -->
<g id="node2" class="node">
<title>Node2</title>
<g id="a_node2"><a xlink:href="entity_8h.html" target="_top" xlink:title=" ">
<polygon fill="white" stroke="black" points="103.5,-224.5 103.5,-243.5 432.5,-243.5 432.5,-224.5 103.5,-224.5"/>
<text text-anchor="middle" x="268" y="-231.5" font-family="Helvetica,sans-Serif" font-size="10.00">/home/runner/work/gauri/gauri/gauri/include/gauri/scene/entity.h</text>
</a>
</g>
</g>
<!-- Node1&#45;&gt;Node2 -->
<g id="edge1" class="edge">
<title>Node1&#45;&gt;Node2</title>
<path fill="none" stroke="midnightblue" d="M419.82,-277.7C383.58,-267.51 331.09,-252.74 298.28,-243.52"/>
<polygon fill="midnightblue" stroke="midnightblue" points="419,-281.11 429.58,-280.44 420.9,-274.37 419,-281.11"/>
</g>
<!-- Node5 -->
<g id="node5" class="node">
<title>Node5</title>
<g id="a_node5"><a xlink:href="gauri_8h.html" target="_top" xlink:title=" ">
<polygon fill="white" stroke="black" points="269.5,-56.5 269.5,-75.5 536.5,-75.5 536.5,-56.5 269.5,-56.5"/>
<text text-anchor="middle" x="403" y="-63.5" font-family="Helvetica,sans-Serif" font-size="10.00">/home/runner/work/gauri/gauri/gauri/include/gauri.h</text>
</a>
</g>
</g>
<!-- Node1&#45;&gt;Node5 -->
<g id="edge9" class="edge">
<title>Node1&#45;&gt;Node5</title>
<path fill="none" stroke="midnightblue" d="M459.1,-270.19C457.03,-237.21 450.4,-167.18 430,-112 425.01,-98.5 415.89,-84.52 409.65,-75.8"/>
<polygon fill="midnightblue" stroke="midnightblue" points="455.61,-270.44 459.66,-280.23 462.6,-270.05 455.61,-270.44"/>
</g>
<!-- Node7 -->
<g id="node7" class="node">
<title>Node7</title>
<g id="a_node7"><a xlink:href="scene__serializer_8h.html" target="_top" xlink:title=" ">
<polygon fill="white" stroke="black" points="488,-224.5 488,-243.5 868,-243.5 868,-224.5 488,-224.5"/>
<text text-anchor="middle" x="678" y="-231.5" font-family="Helvetica,sans-Serif" font-size="10.00">/home/runner/work/gauri/gauri/gauri/include/gauri/scene/scene_serializer.h</text>
</a>
</g>
</g>
<!-- Node1&#45;&gt;Node7 -->
<g id="edge8" class="edge">
<title>Node1&#45;&gt;Node7</title>
<path fill="none" stroke="midnightblue" d="M504.31,-278.02C545.49,-267.82 605.97,-252.84 643.62,-243.52"/>
<polygon fill="midnightblue" stroke="midnightblue" points="503.41,-274.64 494.54,-280.44 505.09,-281.44 503.41,-274.64"/>
</g>
<!-- Node3 -->
<g id="node3" class="node">
<title>Node3</title>
<g id="a_node3"><a xlink:href="scriptable__entity_8h.html" target="_top" xlink:title=" ">
<polygon fill="white" stroke="black" points="12,-168.5 12,-187.5 394,-187.5 394,-168.5 12,-168.5"/>
<text text-anchor="middle" x="203" y="-175.5" font-family="Helvetica,sans-Serif" font-size="10.00">/home/runner/work/gauri/gauri/gauri/include/gauri/scene/scriptable_entity.h</text>
</a>
</g>
</g>
<!-- Node2&#45;&gt;Node3 -->
<g id="edge2" class="edge">
<title>Node2&#45;&gt;Node3</title>
<path fill="none" stroke="midnightblue" d="M249.73,-217.82C238.08,-208.15 223.4,-195.95 213.63,-187.83"/>
<polygon fill="midnightblue" stroke="midnightblue" points="247.63,-220.63 257.56,-224.32 252.1,-215.24 247.63,-220.63"/>
</g>
<!-- Node2&#45;&gt;Node5 -->
<g id="edge7" class="edge">
<title>Node2&#45;&gt;Node5</title>
<path fill="none" stroke="midnightblue" d="M354.71,-221.38C373.56,-214.66 391.32,-204.2 403,-188 428.06,-153.23 413.18,-97.04 406.1,-75.65"/>
<polygon fill="midnightblue" stroke="midnightblue" points="353.54,-218.08 345.1,-224.48 355.69,-224.75 353.54,-218.08"/>
</g>
<!-- Node4 -->
<g id="node4" class="node">
<title>Node4</title>
<g id="a_node4"><a xlink:href="component_8h.html" target="_top" xlink:title=" ">
<polygon fill="white" stroke="black" points="0,-112.5 0,-131.5 356,-131.5 356,-112.5 0,-112.5"/>
<text text-anchor="middle" x="178" y="-119.5" font-family="Helvetica,sans-Serif" font-size="10.00">/home/runner/work/gauri/gauri/gauri/include/gauri/scene/component.h</text>
</a>
</g>
</g>
<!-- Node3&#45;&gt;Node4 -->
<g id="edge3" class="edge">
<title>Node3&#45;&gt;Node4</title>
<path fill="none" stroke="midnightblue" d="M194.66,-158.98C190.42,-149.82 185.45,-139.09 182.05,-131.75"/>
<polygon fill="midnightblue" stroke="midnightblue" points="191.49,-160.48 198.87,-168.08 197.85,-157.54 191.49,-160.48"/>
</g>
<!-- Node3&#45;&gt;Node5 -->
<g id="edge6" class="edge">
<title>Node3&#45;&gt;Node5</title>
<path fill="none" stroke="midnightblue" d="M288.29,-166.14C314.87,-159.55 342.96,-148.98 365,-132 384.26,-117.16 395.59,-89.57 400.35,-75.59"/>
<polygon fill="midnightblue" stroke="midnightblue" points="287.15,-162.81 278.2,-168.47 288.73,-169.63 287.15,-162.81"/>
</g>
<!-- Node4&#45;&gt;Node5 -->
<g id="edge4" class="edge">
<title>Node4&#45;&gt;Node5</title>
<path fill="none" stroke="midnightblue" d="M223.47,-110.09C265.97,-99.89 328.58,-84.86 367.51,-75.52"/>
<polygon fill="midnightblue" stroke="midnightblue" points="222.56,-106.71 213.65,-112.44 224.19,-113.51 222.56,-106.71"/>
</g>
<!-- Node6 -->
<g id="node6" class="node">
<title>Node6</title>
<g id="a_node6"><a xlink:href="entry__point_8h.html" target="_top" xlink:title=" ">
<polygon fill="white" stroke="black" points="228,-0.5 228,-19.5 578,-19.5 578,-0.5 228,-0.5"/>
<text text-anchor="middle" x="403" y="-7.5" font-family="Helvetica,sans-Serif" font-size="10.00">/home/runner/work/gauri/gauri/gauri/include/gauri/core/entry_point.h</text>
</a>
</g>
</g>
<!-- Node5&#45;&gt;Node6 -->
<g id="edge5" class="edge">
<title>Node5&#45;&gt;Node6</title>
<path fill="none" stroke="midnightblue" d="M403,-45.8C403,-36.91 403,-26.78 403,-19.75"/>
<polygon fill="midnightblue" stroke="midnightblue" points="399.5,-46.08 403,-56.08 406.5,-46.08 399.5,-46.08"/>
</g>
</g>
</svg>
