<?xml version="1.0" encoding="UTF-8" standalone="no"?>
<!DOCTYPE svg PUBLIC "-//W3C//DTD SVG 1.1//EN"
 "http://www.w3.org/Graphics/SVG/1.1/DTD/svg11.dtd">
<!-- Generated by graphviz version 2.43.0 (0)
 -->
<!-- Title: /home/runner/work/gauri/gauri/gauri/include/gauri/scene/scene.h Pages: 1 -->
<svg width="942pt" height="308pt"
 viewBox="0.00 0.00 941.50 308.00" xmlns="http://www.w3.org/2000/svg" xmlns:xlink="http://www.w3.org/1999/xlink">
<g id="graph0" class="graph" transform="scale(1 1) rotate(0) translate(4 304)">
<title>/home/runner/work/gauri/gauri/gauri/include/gauri/scene/scene.h</title>
<polygon fill="white" stroke="transparent" points="-4,4 -4,-304 937.5,-304 937.5,4 -4,4"/>
<!-- Node1 -->
<g id="node1" class="node">
<title>Node1</title>
<g id="a_node1"><a xlink:title=" ">
<polygon fill="#bfbfbf" stroke="black" points="0,-280.5 0,-299.5 330,-299.5 330,-280.5 0,-280.5"/>
<text text-anchor="middle" x="165" y="-287.5" font-family="Helvetica,sans-Serif" font-size="10.00">/home/runner/work/gauri/gauri/gauri/include/gauri/scene/scene.h</text>
</a>
</g>
</g>
<!-- Node2 -->
<g id="node2" class="node">
<title>Node2</title>
<g id="a_node2"><a xlink:title=" ">
<polygon fill="white" stroke="#bfbfbf" points="79.5,-224.5 79.5,-243.5 136.5,-243.5 136.5,-224.5 79.5,-224.5"/>
<text text-anchor="middle" x="108" y="-231.5" font-family="Helvetica,sans-Serif" font-size="10.00">entt.hpp</text>
</a>
</g>
</g>
<!-- Node1&#45;&gt;Node2 -->
<g id="edge1" class="edge">
<title>Node1&#45;&gt;Node2</title>
<path fill="none" stroke="midnightblue" d="M155.84,-280.32C147.5,-272.42 134.97,-260.55 124.82,-250.94"/>
<polygon fill="midnightblue" stroke="midnightblue" points="126.99,-248.17 117.32,-243.83 122.18,-253.25 126.99,-248.17"/>
</g>
<!-- Node3 -->
<g id="node3" class="node">
<title>Node3</title>
<g id="a_node3"><a xlink:href="timestep_8h.html" target="_top" xlink:title=" ">
<polygon fill="white" stroke="black" points="104.5,-168.5 104.5,-187.5 225.5,-187.5 225.5,-168.5 104.5,-168.5"/>
<text text-anchor="middle" x="165" y="-175.5" font-family="Helvetica,sans-Serif" font-size="10.00">gauri/core/timestep.h</text>
</a>
</g>
</g>
<!-- Node1&#45;&gt;Node3 -->
<g id="edge2" class="edge">
<title>Node1&#45;&gt;Node3</title>
<path fill="none" stroke="midnightblue" d="M165,-280.37C165,-262.62 165,-221.67 165,-197.6"/>
<polygon fill="midnightblue" stroke="midnightblue" points="168.5,-197.59 165,-187.59 161.5,-197.59 168.5,-197.59"/>
</g>
<!-- Node4 -->
<g id="node4" class="node">
<title>Node4</title>
<g id="a_node4"><a xlink:href="editor__camera_8h.html" target="_top" xlink:title=" ">
<polygon fill="white" stroke="black" points="193,-224.5 193,-243.5 361,-243.5 361,-224.5 193,-224.5"/>
<text text-anchor="middle" x="277" y="-231.5" font-family="Helvetica,sans-Serif" font-size="10.00">gauri/renderer/editor_camera.h</text>
</a>
</g>
</g>
<!-- Node1&#45;&gt;Node4 -->
<g id="edge3" class="edge">
<title>Node1&#45;&gt;Node4</title>
<path fill="none" stroke="midnightblue" d="M182.99,-280.32C201.04,-271.62 229.05,-258.12 249.8,-248.11"/>
<polygon fill="midnightblue" stroke="midnightblue" points="251.56,-251.15 259.05,-243.65 248.52,-244.84 251.56,-251.15"/>
</g>
<!-- Node4&#45;&gt;Node3 -->
<g id="edge5" class="edge">
<title>Node4&#45;&gt;Node3</title>
<path fill="none" stroke="midnightblue" d="M259.01,-224.32C240.96,-215.62 212.95,-202.12 192.2,-192.11"/>
<polygon fill="midnightblue" stroke="midnightblue" points="193.48,-188.84 182.95,-187.65 190.44,-195.15 193.48,-188.84"/>
</g>
<!-- Node5 -->
<g id="node5" class="node">
<title>Node5</title>
<g id="a_node5"><a xlink:title=" ">
<polygon fill="white" stroke="#bfbfbf" points="230,-112.5 230,-131.5 308,-131.5 308,-112.5 230,-112.5"/>
<text text-anchor="middle" x="269" y="-119.5" font-family="Helvetica,sans-Serif" font-size="10.00">glm/glm.hpp</text>
</a>
</g>
</g>
<!-- Node4&#45;&gt;Node5 -->
<g id="edge4" class="edge">
<title>Node4&#45;&gt;Node5</title>
<path fill="none" stroke="midnightblue" d="M276.16,-224.38C275.3,-215.33 273.95,-200.67 273,-188 271.83,-172.48 270.76,-154.85 270.03,-141.88"/>
<polygon fill="midnightblue" stroke="midnightblue" points="273.52,-141.63 269.47,-131.84 266.53,-142.02 273.52,-141.63"/>
</g>
<!-- Node6 -->
<g id="node6" class="node">
<title>Node6</title>
<g id="a_node6"><a xlink:href="event_8h.html" target="_top" xlink:title=" ">
<polygon fill="white" stroke="black" points="434,-168.5 434,-187.5 546,-187.5 546,-168.5 434,-168.5"/>
<text text-anchor="middle" x="490" y="-175.5" font-family="Helvetica,sans-Serif" font-size="10.00">gauri/event/event.h</text>
</a>
</g>
</g>
<!-- Node4&#45;&gt;Node6 -->
<g id="edge6" class="edge">
<title>Node4&#45;&gt;Node6</title>
<path fill="none" stroke="midnightblue" d="M310.75,-224.44C347.52,-215.12 406.45,-200.18 446.62,-190"/>
<polygon fill="midnightblue" stroke="midnightblue" points="447.57,-193.37 456.41,-187.52 445.85,-186.58 447.57,-193.37"/>
</g>
<!-- Node17 -->
<g id="node17" class="node">
<title>Node17</title>
<g id="a_node17"><a xlink:href="camera_8h.html" target="_top" xlink:title=" ">
<polygon fill="white" stroke="black" points="282,-168.5 282,-187.5 416,-187.5 416,-168.5 282,-168.5"/>
<text text-anchor="middle" x="349" y="-175.5" font-family="Helvetica,sans-Serif" font-size="10.00">gauri/renderer/camera.h</text>
</a>
</g>
</g>
<!-- Node4&#45;&gt;Node17 -->
<g id="edge19" class="edge">
<title>Node4&#45;&gt;Node17</title>
<path fill="none" stroke="midnightblue" d="M288.57,-224.32C299.42,-216.18 315.88,-203.84 328.88,-194.09"/>
<polygon fill="midnightblue" stroke="midnightblue" points="331.32,-196.63 337.22,-187.83 327.12,-191.03 331.32,-196.63"/>
</g>
<!-- Node7 -->
<g id="node7" class="node">
<title>Node7</title>
<g id="a_node7"><a xlink:title=" ">
<polygon fill="white" stroke="#bfbfbf" points="448,-56.5 448,-75.5 498,-75.5 498,-56.5 448,-56.5"/>
<text text-anchor="middle" x="473" y="-63.5" font-family="Helvetica,sans-Serif" font-size="10.00">cstdint</text>
</a>
</g>
</g>
<!-- Node6&#45;&gt;Node7 -->
<g id="edge7" class="edge">
<title>Node6&#45;&gt;Node7</title>
<path fill="none" stroke="midnightblue" d="M433.7,-170.35C409.62,-164.4 383.71,-153.16 369,-132 348.51,-102.51 400.15,-83.67 437.78,-74.24"/>
<polygon fill="midnightblue" stroke="midnightblue" points="439.02,-77.54 447.95,-71.83 437.41,-70.73 439.02,-77.54"/>
</g>
<!-- Node8 -->
<g id="node8" class="node">
<title>Node8</title>
<g id="a_node8"><a xlink:title=" ">
<polygon fill="white" stroke="#bfbfbf" points="378.5,-112.5 378.5,-131.5 443.5,-131.5 443.5,-112.5 378.5,-112.5"/>
<text text-anchor="middle" x="411" y="-119.5" font-family="Helvetica,sans-Serif" font-size="10.00">functional</text>
</a>
</g>
</g>
<!-- Node6&#45;&gt;Node8 -->
<g id="edge8" class="edge">
<title>Node6&#45;&gt;Node8</title>
<path fill="none" stroke="midnightblue" d="M477.31,-168.32C465.1,-159.98 446.42,-147.21 432,-137.35"/>
<polygon fill="midnightblue" stroke="midnightblue" points="433.89,-134.41 423.66,-131.65 429.94,-140.19 433.89,-134.41"/>
</g>
<!-- Node9 -->
<g id="node9" class="node">
<title>Node9</title>
<g id="a_node9"><a xlink:title=" ">
<polygon fill="white" stroke="#bfbfbf" points="462,-112.5 462,-131.5 518,-131.5 518,-112.5 462,-112.5"/>
<text text-anchor="middle" x="490" y="-119.5" font-family="Helvetica,sans-Serif" font-size="10.00">sstream</text>
</a>
</g>
</g>
<!-- Node6&#45;&gt;Node9 -->
<g id="edge9" class="edge">
<title>Node6&#45;&gt;Node9</title>
<path fill="none" stroke="midnightblue" d="M490,-168.08C490,-161.01 490,-150.86 490,-141.99"/>
<polygon fill="midnightblue" stroke="midnightblue" points="493.5,-141.75 490,-131.75 486.5,-141.75 493.5,-141.75"/>
</g>
<!-- Node10 -->
<g id="node10" class="node">
<title>Node10</title>
<g id="a_node10"><a xlink:title=" ">
<polygon fill="white" stroke="#bfbfbf" points="536,-112.5 536,-131.5 580,-131.5 580,-112.5 536,-112.5"/>
<text text-anchor="middle" x="558" y="-119.5" font-family="Helvetica,sans-Serif" font-size="10.00">string</text>
</a>
</g>
</g>
<!-- Node6&#45;&gt;Node10 -->
<g id="edge10" class="edge">
<title>Node6&#45;&gt;Node10</title>
<path fill="none" stroke="midnightblue" d="M500.93,-168.32C511.17,-160.18 526.72,-147.84 539,-138.09"/>
<polygon fill="midnightblue" stroke="midnightblue" points="541.22,-140.79 546.88,-131.83 536.87,-135.31 541.22,-140.79"/>
</g>
<!-- Node11 -->
<g id="node11" class="node">
<title>Node11</title>
<g id="a_node11"><a xlink:href="base_8h.html" target="_top" xlink:title=" ">
<polygon fill="white" stroke="black" points="598.5,-112.5 598.5,-131.5 699.5,-131.5 699.5,-112.5 598.5,-112.5"/>
<text text-anchor="middle" x="649" y="-119.5" font-family="Helvetica,sans-Serif" font-size="10.00">gauri/core/base.h</text>
</a>
</g>
</g>
<!-- Node6&#45;&gt;Node11 -->
<g id="edge11" class="edge">
<title>Node6&#45;&gt;Node11</title>
<path fill="none" stroke="midnightblue" d="M515.19,-168.44C541.94,-159.36 584.4,-144.94 614.31,-134.78"/>
<polygon fill="midnightblue" stroke="midnightblue" points="615.58,-138.05 623.92,-131.52 613.33,-131.42 615.58,-138.05"/>
</g>
<!-- Node11&#45;&gt;Node7 -->
<g id="edge12" class="edge">
<title>Node11&#45;&gt;Node7</title>
<path fill="none" stroke="midnightblue" d="M621.11,-112.44C590.46,-103.04 541.16,-87.91 507.94,-77.72"/>
<polygon fill="midnightblue" stroke="midnightblue" points="508.78,-74.32 498.19,-74.73 506.72,-81.01 508.78,-74.32"/>
</g>
<!-- Node12 -->
<g id="node12" class="node">
<title>Node12</title>
<g id="a_node12"><a xlink:title=" ">
<polygon fill="white" stroke="#bfbfbf" points="579,-0.5 579,-19.5 637,-19.5 637,-0.5 579,-0.5"/>
<text text-anchor="middle" x="608" y="-7.5" font-family="Helvetica,sans-Serif" font-size="10.00">memory</text>
</a>
</g>
</g>
<!-- Node11&#45;&gt;Node12 -->
<g id="edge13" class="edge">
<title>Node11&#45;&gt;Node12</title>
<path fill="none" stroke="midnightblue" d="M644.45,-112.19C639.92,-103.23 632.96,-88.87 628,-76 622.03,-60.51 616.59,-42.42 612.89,-29.27"/>
<polygon fill="midnightblue" stroke="midnightblue" points="616.24,-28.26 610.22,-19.54 609.49,-30.11 616.24,-28.26"/>
</g>
<!-- Node13 -->
<g id="node13" class="node">
<title>Node13</title>
<g id="a_node13"><a xlink:href="logger_8h.html" target="_top" xlink:title=" ">
<polygon fill="white" stroke="black" points="636.5,-56.5 636.5,-75.5 743.5,-75.5 743.5,-56.5 636.5,-56.5"/>
<text text-anchor="middle" x="690" y="-63.5" font-family="Helvetica,sans-Serif" font-size="10.00">gauri/core/logger.h</text>
</a>
</g>
</g>
<!-- Node11&#45;&gt;Node13 -->
<g id="edge14" class="edge">
<title>Node11&#45;&gt;Node13</title>
<path fill="none" stroke="midnightblue" d="M655.77,-112.08C661.56,-104.46 670.06,-93.26 677.14,-83.94"/>
<polygon fill="midnightblue" stroke="midnightblue" points="680.1,-85.83 683.36,-75.75 674.52,-81.6 680.1,-85.83"/>
</g>
<!-- Node13&#45;&gt;Node12 -->
<g id="edge16" class="edge">
<title>Node13&#45;&gt;Node12</title>
<path fill="none" stroke="midnightblue" d="M676.83,-56.32C664.15,-47.98 644.77,-35.21 629.79,-25.35"/>
<polygon fill="midnightblue" stroke="midnightblue" points="631.42,-22.23 621.14,-19.65 627.57,-28.08 631.42,-22.23"/>
</g>
<!-- Node14 -->
<g id="node14" class="node">
<title>Node14</title>
<g id="a_node14"><a xlink:title=" ">
<polygon fill="white" stroke="#bfbfbf" points="655,-0.5 655,-19.5 705,-19.5 705,-0.5 655,-0.5"/>
<text text-anchor="middle" x="680" y="-7.5" font-family="Helvetica,sans-Serif" font-size="10.00">format</text>
</a>
</g>
</g>
<!-- Node13&#45;&gt;Node14 -->
<g id="edge15" class="edge">
<title>Node13&#45;&gt;Node14</title>
<path fill="none" stroke="midnightblue" d="M688.35,-56.08C687.02,-48.93 685.12,-38.64 683.46,-29.69"/>
<polygon fill="midnightblue" stroke="midnightblue" points="686.88,-28.95 681.62,-19.75 680,-30.22 686.88,-28.95"/>
</g>
<!-- Node15 -->
<g id="node15" class="node">
<title>Node15</title>
<g id="a_node15"><a xlink:title=" ">
<polygon fill="white" stroke="#bfbfbf" points="723.5,-0.5 723.5,-19.5 822.5,-19.5 822.5,-0.5 723.5,-0.5"/>
<text text-anchor="middle" x="773" y="-7.5" font-family="Helvetica,sans-Serif" font-size="10.00">spdlog/fmt/ostr.h</text>
</a>
</g>
</g>
<!-- Node13&#45;&gt;Node15 -->
<g id="edge17" class="edge">
<title>Node13&#45;&gt;Node15</title>
<path fill="none" stroke="midnightblue" d="M703.34,-56.32C716.16,-47.98 735.78,-35.21 750.94,-25.35"/>
<polygon fill="midnightblue" stroke="midnightblue" points="753.22,-28.04 759.7,-19.65 749.41,-22.17 753.22,-28.04"/>
</g>
<!-- Node16 -->
<g id="node16" class="node">
<title>Node16</title>
<g id="a_node16"><a xlink:title=" ">
<polygon fill="white" stroke="#bfbfbf" points="840.5,-0.5 840.5,-19.5 933.5,-19.5 933.5,-0.5 840.5,-0.5"/>
<text text-anchor="middle" x="887" y="-7.5" font-family="Helvetica,sans-Serif" font-size="10.00">spdlog/spdlog.h</text>
</a>
</g>
</g>
<!-- Node13&#45;&gt;Node16 -->
<g id="edge18" class="edge">
<title>Node13&#45;&gt;Node16</title>
<path fill="none" stroke="midnightblue" d="M721.22,-56.44C754.93,-47.2 808.8,-32.44 845.93,-22.26"/>
<polygon fill="midnightblue" stroke="midnightblue" points="847.21,-25.54 855.93,-19.52 845.36,-18.78 847.21,-25.54"/>
</g>
<!-- Node17&#45;&gt;Node5 -->
<g id="edge20" class="edge">
<title>Node17&#45;&gt;Node5</title>
<path fill="none" stroke="midnightblue" d="M336.15,-168.32C323.78,-159.98 304.87,-147.21 290.26,-137.35"/>
<polygon fill="midnightblue" stroke="midnightblue" points="292.07,-134.35 281.82,-131.65 288.15,-140.15 292.07,-134.35"/>
</g>
</g>
</svg>
