<?xml version="1.0" encoding="UTF-8" standalone="no"?>
<!DOCTYPE svg PUBLIC "-//W3C//DTD SVG 1.1//EN"
 "http://www.w3.org/Graphics/SVG/1.1/DTD/svg11.dtd">
<!-- Generated by graphviz version 2.43.0 (0)
 -->
<!-- Title: /home/runner/work/gauri/gauri/gauri/include/gauri/scene/scene_serializer.h Pages: 1 -->
<svg width="829pt" height="364pt"
 viewBox="0.00 0.00 829.00 364.00" xmlns="http://www.w3.org/2000/svg" xmlns:xlink="http://www.w3.org/1999/xlink">
<g id="graph0" class="graph" transform="scale(1 1) rotate(0) translate(4 360)">
<title>/home/runner/work/gauri/gauri/gauri/include/gauri/scene/scene_serializer.h</title>
<polygon fill="white" stroke="transparent" points="-4,4 -4,-360 825,-360 825,4 -4,4"/>
<!-- Node1 -->
<g id="node1" class="node">
<title>Node1</title>
<g id="a_node1"><a xlink:title=" ">
<polygon fill="#bfbfbf" stroke="black" points="127.5,-336.5 127.5,-355.5 507.5,-355.5 507.5,-336.5 127.5,-336.5"/>
<text text-anchor="middle" x="317.5" y="-343.5" font-family="Helvetica,sans-Serif" font-size="10.00">/home/runner/work/gauri/gauri/gauri/include/gauri/scene/scene_serializer.h</text>
</a>
</g>
</g>
<!-- Node2 -->
<g id="node2" class="node">
<title>Node2</title>
<g id="a_node2"><a xlink:href="scene_8h.html" target="_top" xlink:title=" ">
<polygon fill="white" stroke="black" points="96,-280.5 96,-299.5 209,-299.5 209,-280.5 96,-280.5"/>
<text text-anchor="middle" x="152.5" y="-287.5" font-family="Helvetica,sans-Serif" font-size="10.00">gauri/scene/scene.h</text>
</a>
</g>
</g>
<!-- Node1&#45;&gt;Node2 -->
<g id="edge1" class="edge">
<title>Node1&#45;&gt;Node2</title>
<path fill="none" stroke="midnightblue" d="M291.36,-336.44C263.48,-327.32 219.15,-312.81 188.1,-302.65"/>
<polygon fill="midnightblue" stroke="midnightblue" points="189.12,-299.3 178.52,-299.52 186.94,-305.95 189.12,-299.3"/>
</g>
<!-- Node12 -->
<g id="node12" class="node">
<title>Node12</title>
<g id="a_node12"><a xlink:href="base_8h.html" target="_top" xlink:title=" ">
<polygon fill="white" stroke="black" points="486,-112.5 486,-131.5 587,-131.5 587,-112.5 486,-112.5"/>
<text text-anchor="middle" x="536.5" y="-119.5" font-family="Helvetica,sans-Serif" font-size="10.00">gauri/core/base.h</text>
</a>
</g>
</g>
<!-- Node1&#45;&gt;Node12 -->
<g id="edge22" class="edge">
<title>Node1&#45;&gt;Node12</title>
<path fill="none" stroke="midnightblue" d="M326.09,-336.3C358.99,-302.94 477.39,-182.92 520.58,-139.13"/>
<polygon fill="midnightblue" stroke="midnightblue" points="523.21,-141.46 527.74,-131.88 518.22,-136.54 523.21,-141.46"/>
</g>
<!-- Node3 -->
<g id="node3" class="node">
<title>Node3</title>
<g id="a_node3"><a xlink:title=" ">
<polygon fill="white" stroke="#bfbfbf" points="11,-224.5 11,-243.5 68,-243.5 68,-224.5 11,-224.5"/>
<text text-anchor="middle" x="39.5" y="-231.5" font-family="Helvetica,sans-Serif" font-size="10.00">entt.hpp</text>
</a>
</g>
</g>
<!-- Node2&#45;&gt;Node3 -->
<g id="edge2" class="edge">
<title>Node2&#45;&gt;Node3</title>
<path fill="none" stroke="midnightblue" d="M134.59,-280.44C116.25,-271.68 87.49,-257.94 66.41,-247.86"/>
<polygon fill="midnightblue" stroke="midnightblue" points="67.85,-244.67 57.32,-243.52 64.83,-250.99 67.85,-244.67"/>
</g>
<!-- Node4 -->
<g id="node4" class="node">
<title>Node4</title>
<g id="a_node4"><a xlink:href="timestep_8h.html" target="_top" xlink:title=" ">
<polygon fill="white" stroke="black" points="0,-168.5 0,-187.5 121,-187.5 121,-168.5 0,-168.5"/>
<text text-anchor="middle" x="60.5" y="-175.5" font-family="Helvetica,sans-Serif" font-size="10.00">gauri/core/timestep.h</text>
</a>
</g>
</g>
<!-- Node2&#45;&gt;Node4 -->
<g id="edge3" class="edge">
<title>Node2&#45;&gt;Node4</title>
<path fill="none" stroke="midnightblue" d="M145.28,-280.37C129.96,-262.05 94,-219.05 74.18,-195.36"/>
<polygon fill="midnightblue" stroke="midnightblue" points="76.79,-193.02 67.69,-187.59 71.42,-197.51 76.79,-193.02"/>
</g>
<!-- Node5 -->
<g id="node5" class="node">
<title>Node5</title>
<g id="a_node5"><a xlink:href="editor__camera_8h.html" target="_top" xlink:title=" ">
<polygon fill="white" stroke="black" points="124.5,-224.5 124.5,-243.5 292.5,-243.5 292.5,-224.5 124.5,-224.5"/>
<text text-anchor="middle" x="208.5" y="-231.5" font-family="Helvetica,sans-Serif" font-size="10.00">gauri/renderer/editor_camera.h</text>
</a>
</g>
</g>
<!-- Node2&#45;&gt;Node5 -->
<g id="edge4" class="edge">
<title>Node2&#45;&gt;Node5</title>
<path fill="none" stroke="midnightblue" d="M161.5,-280.32C169.69,-272.42 182.01,-260.55 191.97,-250.94"/>
<polygon fill="midnightblue" stroke="midnightblue" points="194.57,-253.29 199.34,-243.83 189.71,-248.26 194.57,-253.29"/>
</g>
<!-- Node5&#45;&gt;Node4 -->
<g id="edge6" class="edge">
<title>Node5&#45;&gt;Node4</title>
<path fill="none" stroke="midnightblue" d="M185.05,-224.44C160.37,-215.44 121.31,-201.19 93.52,-191.05"/>
<polygon fill="midnightblue" stroke="midnightblue" points="94.44,-187.66 83.84,-187.52 92.04,-194.23 94.44,-187.66"/>
</g>
<!-- Node6 -->
<g id="node6" class="node">
<title>Node6</title>
<g id="a_node6"><a xlink:title=" ">
<polygon fill="white" stroke="#bfbfbf" points="124.5,-112.5 124.5,-131.5 202.5,-131.5 202.5,-112.5 124.5,-112.5"/>
<text text-anchor="middle" x="163.5" y="-119.5" font-family="Helvetica,sans-Serif" font-size="10.00">glm/glm.hpp</text>
</a>
</g>
</g>
<!-- Node5&#45;&gt;Node6 -->
<g id="edge5" class="edge">
<title>Node5&#45;&gt;Node6</title>
<path fill="none" stroke="midnightblue" d="M197.51,-224.32C187.99,-216.09 174.79,-202.82 168.5,-188 162.34,-173.5 161.4,-155.55 161.83,-142.18"/>
<polygon fill="midnightblue" stroke="midnightblue" points="165.34,-142.02 162.45,-131.83 158.36,-141.6 165.34,-142.02"/>
</g>
<!-- Node7 -->
<g id="node7" class="node">
<title>Node7</title>
<g id="a_node7"><a xlink:href="event_8h.html" target="_top" xlink:title=" ">
<polygon fill="white" stroke="black" points="329.5,-168.5 329.5,-187.5 441.5,-187.5 441.5,-168.5 329.5,-168.5"/>
<text text-anchor="middle" x="385.5" y="-175.5" font-family="Helvetica,sans-Serif" font-size="10.00">gauri/event/event.h</text>
</a>
</g>
</g>
<!-- Node5&#45;&gt;Node7 -->
<g id="edge7" class="edge">
<title>Node5&#45;&gt;Node7</title>
<path fill="none" stroke="midnightblue" d="M236.55,-224.44C266.58,-215.28 314.41,-200.69 347.74,-190.52"/>
<polygon fill="midnightblue" stroke="midnightblue" points="349.04,-193.78 357.59,-187.52 347,-187.09 349.04,-193.78"/>
</g>
<!-- Node18 -->
<g id="node18" class="node">
<title>Node18</title>
<g id="a_node18"><a xlink:href="camera_8h.html" target="_top" xlink:title=" ">
<polygon fill="white" stroke="black" points="177.5,-168.5 177.5,-187.5 311.5,-187.5 311.5,-168.5 177.5,-168.5"/>
<text text-anchor="middle" x="244.5" y="-175.5" font-family="Helvetica,sans-Serif" font-size="10.00">gauri/renderer/camera.h</text>
</a>
</g>
</g>
<!-- Node5&#45;&gt;Node18 -->
<g id="edge20" class="edge">
<title>Node5&#45;&gt;Node18</title>
<path fill="none" stroke="midnightblue" d="M214.44,-224.08C219.48,-216.53 226.84,-205.49 233.01,-196.23"/>
<polygon fill="midnightblue" stroke="midnightblue" points="236.03,-198.01 238.67,-187.75 230.21,-194.13 236.03,-198.01"/>
</g>
<!-- Node8 -->
<g id="node8" class="node">
<title>Node8</title>
<g id="a_node8"><a xlink:title=" ">
<polygon fill="white" stroke="#bfbfbf" points="335.5,-56.5 335.5,-75.5 385.5,-75.5 385.5,-56.5 335.5,-56.5"/>
<text text-anchor="middle" x="360.5" y="-63.5" font-family="Helvetica,sans-Serif" font-size="10.00">cstdint</text>
</a>
</g>
</g>
<!-- Node7&#45;&gt;Node8 -->
<g id="edge8" class="edge">
<title>Node7&#45;&gt;Node8</title>
<path fill="none" stroke="midnightblue" d="M345.75,-168.43C311.9,-160.24 267.11,-146.94 256.5,-132 235.71,-102.73 287.44,-83.81 325.17,-74.31"/>
<polygon fill="midnightblue" stroke="midnightblue" points="326.45,-77.61 335.37,-71.88 324.83,-70.8 326.45,-77.61"/>
</g>
<!-- Node9 -->
<g id="node9" class="node">
<title>Node9</title>
<g id="a_node9"><a xlink:title=" ">
<polygon fill="white" stroke="#bfbfbf" points="266,-112.5 266,-131.5 331,-131.5 331,-112.5 266,-112.5"/>
<text text-anchor="middle" x="298.5" y="-119.5" font-family="Helvetica,sans-Serif" font-size="10.00">functional</text>
</a>
</g>
</g>
<!-- Node7&#45;&gt;Node9 -->
<g id="edge9" class="edge">
<title>Node7&#45;&gt;Node9</title>
<path fill="none" stroke="midnightblue" d="M371.52,-168.32C357.95,-159.9 337.12,-146.97 321.18,-137.07"/>
<polygon fill="midnightblue" stroke="midnightblue" points="322.79,-133.95 312.44,-131.65 319.09,-139.9 322.79,-133.95"/>
</g>
<!-- Node10 -->
<g id="node10" class="node">
<title>Node10</title>
<g id="a_node10"><a xlink:title=" ">
<polygon fill="white" stroke="#bfbfbf" points="349.5,-112.5 349.5,-131.5 405.5,-131.5 405.5,-112.5 349.5,-112.5"/>
<text text-anchor="middle" x="377.5" y="-119.5" font-family="Helvetica,sans-Serif" font-size="10.00">sstream</text>
</a>
</g>
</g>
<!-- Node7&#45;&gt;Node10 -->
<g id="edge10" class="edge">
<title>Node7&#45;&gt;Node10</title>
<path fill="none" stroke="midnightblue" d="M384.18,-168.08C383.12,-160.93 381.59,-150.64 380.27,-141.69"/>
<polygon fill="midnightblue" stroke="midnightblue" points="383.72,-141.13 378.8,-131.75 376.8,-142.16 383.72,-141.13"/>
</g>
<!-- Node11 -->
<g id="node11" class="node">
<title>Node11</title>
<g id="a_node11"><a xlink:title=" ">
<polygon fill="white" stroke="#bfbfbf" points="423.5,-112.5 423.5,-131.5 467.5,-131.5 467.5,-112.5 423.5,-112.5"/>
<text text-anchor="middle" x="445.5" y="-119.5" font-family="Helvetica,sans-Serif" font-size="10.00">string</text>
</a>
</g>
</g>
<!-- Node7&#45;&gt;Node11 -->
<g id="edge11" class="edge">
<title>Node7&#45;&gt;Node11</title>
<path fill="none" stroke="midnightblue" d="M395.14,-168.32C404.01,-160.34 417.37,-148.31 428.11,-138.65"/>
<polygon fill="midnightblue" stroke="midnightblue" points="430.59,-141.13 435.68,-131.83 425.91,-135.92 430.59,-141.13"/>
</g>
<!-- Node7&#45;&gt;Node12 -->
<g id="edge12" class="edge">
<title>Node7&#45;&gt;Node12</title>
<path fill="none" stroke="midnightblue" d="M409.43,-168.44C434.72,-159.4 474.8,-145.06 503.18,-134.92"/>
<polygon fill="midnightblue" stroke="midnightblue" points="504.45,-138.18 512.69,-131.52 502.09,-131.59 504.45,-138.18"/>
</g>
<!-- Node12&#45;&gt;Node8 -->
<g id="edge13" class="edge">
<title>Node12&#45;&gt;Node8</title>
<path fill="none" stroke="midnightblue" d="M508.61,-112.44C477.96,-103.04 428.66,-87.91 395.44,-77.72"/>
<polygon fill="midnightblue" stroke="midnightblue" points="396.28,-74.32 385.69,-74.73 394.22,-81.01 396.28,-74.32"/>
</g>
<!-- Node13 -->
<g id="node13" class="node">
<title>Node13</title>
<g id="a_node13"><a xlink:title=" ">
<polygon fill="white" stroke="#bfbfbf" points="466.5,-0.5 466.5,-19.5 524.5,-19.5 524.5,-0.5 466.5,-0.5"/>
<text text-anchor="middle" x="495.5" y="-7.5" font-family="Helvetica,sans-Serif" font-size="10.00">memory</text>
</a>
</g>
</g>
<!-- Node12&#45;&gt;Node13 -->
<g id="edge14" class="edge">
<title>Node12&#45;&gt;Node13</title>
<path fill="none" stroke="midnightblue" d="M531.66,-112.24C526.86,-103.31 519.53,-88.97 514.5,-76 508.53,-60.58 503.38,-42.49 499.96,-29.31"/>
<polygon fill="midnightblue" stroke="midnightblue" points="503.34,-28.41 497.51,-19.57 496.55,-30.12 503.34,-28.41"/>
</g>
<!-- Node14 -->
<g id="node14" class="node">
<title>Node14</title>
<g id="a_node14"><a xlink:href="logger_8h.html" target="_top" xlink:title=" ">
<polygon fill="white" stroke="black" points="524,-56.5 524,-75.5 631,-75.5 631,-56.5 524,-56.5"/>
<text text-anchor="middle" x="577.5" y="-63.5" font-family="Helvetica,sans-Serif" font-size="10.00">gauri/core/logger.h</text>
</a>
</g>
</g>
<!-- Node12&#45;&gt;Node14 -->
<g id="edge15" class="edge">
<title>Node12&#45;&gt;Node14</title>
<path fill="none" stroke="midnightblue" d="M543.27,-112.08C549.06,-104.46 557.56,-93.26 564.64,-83.94"/>
<polygon fill="midnightblue" stroke="midnightblue" points="567.6,-85.83 570.86,-75.75 562.02,-81.6 567.6,-85.83"/>
</g>
<!-- Node14&#45;&gt;Node13 -->
<g id="edge17" class="edge">
<title>Node14&#45;&gt;Node13</title>
<path fill="none" stroke="midnightblue" d="M564.33,-56.32C551.65,-47.98 532.27,-35.21 517.29,-25.35"/>
<polygon fill="midnightblue" stroke="midnightblue" points="518.92,-22.23 508.64,-19.65 515.07,-28.08 518.92,-22.23"/>
</g>
<!-- Node15 -->
<g id="node15" class="node">
<title>Node15</title>
<g id="a_node15"><a xlink:title=" ">
<polygon fill="white" stroke="#bfbfbf" points="542.5,-0.5 542.5,-19.5 592.5,-19.5 592.5,-0.5 542.5,-0.5"/>
<text text-anchor="middle" x="567.5" y="-7.5" font-family="Helvetica,sans-Serif" font-size="10.00">format</text>
</a>
</g>
</g>
<!-- Node14&#45;&gt;Node15 -->
<g id="edge16" class="edge">
<title>Node14&#45;&gt;Node15</title>
<path fill="none" stroke="midnightblue" d="M575.85,-56.08C574.52,-48.93 572.62,-38.64 570.96,-29.69"/>
<polygon fill="midnightblue" stroke="midnightblue" points="574.38,-28.95 569.12,-19.75 567.5,-30.22 574.38,-28.95"/>
</g>
<!-- Node16 -->
<g id="node16" class="node">
<title>Node16</title>
<g id="a_node16"><a xlink:title=" ">
<polygon fill="white" stroke="#bfbfbf" points="611,-0.5 611,-19.5 710,-19.5 710,-0.5 611,-0.5"/>
<text text-anchor="middle" x="660.5" y="-7.5" font-family="Helvetica,sans-Serif" font-size="10.00">spdlog/fmt/ostr.h</text>
</a>
</g>
</g>
<!-- Node14&#45;&gt;Node16 -->
<g id="edge18" class="edge">
<title>Node14&#45;&gt;Node16</title>
<path fill="none" stroke="midnightblue" d="M590.84,-56.32C603.66,-47.98 623.28,-35.21 638.44,-25.35"/>
<polygon fill="midnightblue" stroke="midnightblue" points="640.72,-28.04 647.2,-19.65 636.91,-22.17 640.72,-28.04"/>
</g>
<!-- Node17 -->
<g id="node17" class="node">
<title>Node17</title>
<g id="a_node17"><a xlink:title=" ">
<polygon fill="white" stroke="#bfbfbf" points="728,-0.5 728,-19.5 821,-19.5 821,-0.5 728,-0.5"/>
<text text-anchor="middle" x="774.5" y="-7.5" font-family="Helvetica,sans-Serif" font-size="10.00">spdlog/spdlog.h</text>
</a>
</g>
</g>
<!-- Node14&#45;&gt;Node17 -->
<g id="edge19" class="edge">
<title>Node14&#45;&gt;Node17</title>
<path fill="none" stroke="midnightblue" d="M608.72,-56.44C642.43,-47.2 696.3,-32.44 733.43,-22.26"/>
<polygon fill="midnightblue" stroke="midnightblue" points="734.71,-25.54 743.43,-19.52 732.86,-18.78 734.71,-25.54"/>
</g>
<!-- Node18&#45;&gt;Node6 -->
<g id="edge21" class="edge">
<title>Node18&#45;&gt;Node6</title>
<path fill="none" stroke="midnightblue" d="M231.49,-168.32C218.97,-159.98 199.82,-147.21 185.03,-137.35"/>
<polygon fill="midnightblue" stroke="midnightblue" points="186.74,-134.29 176.48,-131.65 182.86,-140.11 186.74,-134.29"/>
</g>
</g>
</svg>
