<?xml version="1.0" encoding="UTF-8" standalone="no"?>
<!DOCTYPE svg PUBLIC "-//W3C//DTD SVG 1.1//EN"
 "http://www.w3.org/Graphics/SVG/1.1/DTD/svg11.dtd">
<!-- Generated by graphviz version 2.43.0 (0)
 -->
<!-- Title: /home/runner/work/gauri/gauri/gauri/include/gauri/renderer/shader.h Pages: 1 -->
<svg width="596pt" height="196pt"
 viewBox="0.00 0.00 596.00 196.00" xmlns="http://www.w3.org/2000/svg" xmlns:xlink="http://www.w3.org/1999/xlink">
<g id="graph0" class="graph" transform="scale(1 1) rotate(0) translate(4 192)">
<title>/home/runner/work/gauri/gauri/gauri/include/gauri/renderer/shader.h</title>
<polygon fill="white" stroke="transparent" points="-4,4 -4,-192 592,-192 592,4 -4,4"/>
<!-- Node1 -->
<g id="node1" class="node">
<title>Node1</title>
<g id="a_node1"><a xlink:title=" ">
<polygon fill="#bfbfbf" stroke="black" points="0,-168.5 0,-187.5 347,-187.5 347,-168.5 0,-168.5"/>
<text text-anchor="middle" x="173.5" y="-175.5" font-family="Helvetica,sans-Serif" font-size="10.00">/home/runner/work/gauri/gauri/gauri/include/gauri/renderer/shader.h</text>
</a>
</g>
</g>
<!-- Node2 -->
<g id="node2" class="node">
<title>Node2</title>
<g id="a_node2"><a xlink:title=" ">
<polygon fill="white" stroke="#bfbfbf" points="55.5,-112.5 55.5,-131.5 133.5,-131.5 133.5,-112.5 55.5,-112.5"/>
<text text-anchor="middle" x="94.5" y="-119.5" font-family="Helvetica,sans-Serif" font-size="10.00">glm/glm.hpp</text>
</a>
</g>
</g>
<!-- Node1&#45;&gt;Node2 -->
<g id="edge1" class="edge">
<title>Node1&#45;&gt;Node2</title>
<path fill="none" stroke="midnightblue" d="M160.81,-168.32C148.6,-159.98 129.92,-147.21 115.5,-137.35"/>
<polygon fill="midnightblue" stroke="midnightblue" points="117.39,-134.41 107.16,-131.65 113.44,-140.19 117.39,-134.41"/>
</g>
<!-- Node3 -->
<g id="node3" class="node">
<title>Node3</title>
<g id="a_node3"><a xlink:title=" ">
<polygon fill="white" stroke="#bfbfbf" points="151.5,-112.5 151.5,-131.5 195.5,-131.5 195.5,-112.5 151.5,-112.5"/>
<text text-anchor="middle" x="173.5" y="-119.5" font-family="Helvetica,sans-Serif" font-size="10.00">string</text>
</a>
</g>
</g>
<!-- Node1&#45;&gt;Node3 -->
<g id="edge2" class="edge">
<title>Node1&#45;&gt;Node3</title>
<path fill="none" stroke="midnightblue" d="M173.5,-168.08C173.5,-161.01 173.5,-150.86 173.5,-141.99"/>
<polygon fill="midnightblue" stroke="midnightblue" points="177,-141.75 173.5,-131.75 170,-141.75 177,-141.75"/>
</g>
<!-- Node4 -->
<g id="node4" class="node">
<title>Node4</title>
<g id="a_node4"><a xlink:href="core_8h.html" target="_top" xlink:title=" ">
<polygon fill="white" stroke="black" points="213.5,-112.5 213.5,-131.5 311.5,-131.5 311.5,-112.5 213.5,-112.5"/>
<text text-anchor="middle" x="262.5" y="-119.5" font-family="Helvetica,sans-Serif" font-size="10.00">gauri/core/core.h</text>
</a>
</g>
</g>
<!-- Node1&#45;&gt;Node4 -->
<g id="edge3" class="edge">
<title>Node1&#45;&gt;Node4</title>
<path fill="none" stroke="midnightblue" d="M187.8,-168.32C201.68,-159.9 222.99,-146.97 239.3,-137.07"/>
<polygon fill="midnightblue" stroke="midnightblue" points="241.5,-139.83 248.24,-131.65 237.87,-133.85 241.5,-139.83"/>
</g>
<!-- Node5 -->
<g id="node5" class="node">
<title>Node5</title>
<g id="a_node5"><a xlink:title=" ">
<polygon fill="white" stroke="#bfbfbf" points="184.5,-56.5 184.5,-75.5 234.5,-75.5 234.5,-56.5 184.5,-56.5"/>
<text text-anchor="middle" x="209.5" y="-63.5" font-family="Helvetica,sans-Serif" font-size="10.00">cstdint</text>
</a>
</g>
</g>
<!-- Node4&#45;&gt;Node5 -->
<g id="edge4" class="edge">
<title>Node4&#45;&gt;Node5</title>
<path fill="none" stroke="midnightblue" d="M253.75,-112.08C246.03,-104.22 234.6,-92.57 225.28,-83.08"/>
<polygon fill="midnightblue" stroke="midnightblue" points="227.59,-80.44 218.09,-75.75 222.6,-85.34 227.59,-80.44"/>
</g>
<!-- Node6 -->
<g id="node6" class="node">
<title>Node6</title>
<g id="a_node6"><a xlink:title=" ">
<polygon fill="white" stroke="#bfbfbf" points="233.5,-0.5 233.5,-19.5 291.5,-19.5 291.5,-0.5 233.5,-0.5"/>
<text text-anchor="middle" x="262.5" y="-7.5" font-family="Helvetica,sans-Serif" font-size="10.00">memory</text>
</a>
</g>
</g>
<!-- Node4&#45;&gt;Node6 -->
<g id="edge5" class="edge">
<title>Node4&#45;&gt;Node6</title>
<path fill="none" stroke="midnightblue" d="M262.5,-112.37C262.5,-94.62 262.5,-53.67 262.5,-29.6"/>
<polygon fill="midnightblue" stroke="midnightblue" points="266,-29.59 262.5,-19.59 259,-29.59 266,-29.59"/>
</g>
<!-- Node7 -->
<g id="node7" class="node">
<title>Node7</title>
<g id="a_node7"><a xlink:href="logger_8h.html" target="_top" xlink:title=" ">
<polygon fill="white" stroke="black" points="291,-56.5 291,-75.5 398,-75.5 398,-56.5 291,-56.5"/>
<text text-anchor="middle" x="344.5" y="-63.5" font-family="Helvetica,sans-Serif" font-size="10.00">gauri/core/logger.h</text>
</a>
</g>
</g>
<!-- Node4&#45;&gt;Node7 -->
<g id="edge6" class="edge">
<title>Node4&#45;&gt;Node7</title>
<path fill="none" stroke="midnightblue" d="M275.67,-112.32C288.35,-103.98 307.73,-91.21 322.71,-81.35"/>
<polygon fill="midnightblue" stroke="midnightblue" points="324.93,-84.08 331.36,-75.65 321.08,-78.23 324.93,-84.08"/>
</g>
<!-- Node7&#45;&gt;Node6 -->
<g id="edge8" class="edge">
<title>Node7&#45;&gt;Node6</title>
<path fill="none" stroke="midnightblue" d="M331.33,-56.32C318.65,-47.98 299.27,-35.21 284.29,-25.35"/>
<polygon fill="midnightblue" stroke="midnightblue" points="285.92,-22.23 275.64,-19.65 282.07,-28.08 285.92,-22.23"/>
</g>
<!-- Node8 -->
<g id="node8" class="node">
<title>Node8</title>
<g id="a_node8"><a xlink:title=" ">
<polygon fill="white" stroke="#bfbfbf" points="309.5,-0.5 309.5,-19.5 359.5,-19.5 359.5,-0.5 309.5,-0.5"/>
<text text-anchor="middle" x="334.5" y="-7.5" font-family="Helvetica,sans-Serif" font-size="10.00">format</text>
</a>
</g>
</g>
<!-- Node7&#45;&gt;Node8 -->
<g id="edge7" class="edge">
<title>Node7&#45;&gt;Node8</title>
<path fill="none" stroke="midnightblue" d="M342.85,-56.08C341.52,-48.93 339.62,-38.64 337.96,-29.69"/>
<polygon fill="midnightblue" stroke="midnightblue" points="341.38,-28.95 336.12,-19.75 334.5,-30.22 341.38,-28.95"/>
</g>
<!-- Node9 -->
<g id="node9" class="node">
<title>Node9</title>
<g id="a_node9"><a xlink:title=" ">
<polygon fill="white" stroke="#bfbfbf" points="378,-0.5 378,-19.5 477,-19.5 477,-0.5 378,-0.5"/>
<text text-anchor="middle" x="427.5" y="-7.5" font-family="Helvetica,sans-Serif" font-size="10.00">spdlog/fmt/ostr.h</text>
</a>
</g>
</g>
<!-- Node7&#45;&gt;Node9 -->
<g id="edge9" class="edge">
<title>Node7&#45;&gt;Node9</title>
<path fill="none" stroke="midnightblue" d="M357.84,-56.32C370.66,-47.98 390.28,-35.21 405.44,-25.35"/>
<polygon fill="midnightblue" stroke="midnightblue" points="407.72,-28.04 414.2,-19.65 403.91,-22.17 407.72,-28.04"/>
</g>
<!-- Node10 -->
<g id="node10" class="node">
<title>Node10</title>
<g id="a_node10"><a xlink:title=" ">
<polygon fill="white" stroke="#bfbfbf" points="495,-0.5 495,-19.5 588,-19.5 588,-0.5 495,-0.5"/>
<text text-anchor="middle" x="541.5" y="-7.5" font-family="Helvetica,sans-Serif" font-size="10.00">spdlog/spdlog.h</text>
</a>
</g>
</g>
<!-- Node7&#45;&gt;Node10 -->
<g id="edge10" class="edge">
<title>Node7&#45;&gt;Node10</title>
<path fill="none" stroke="midnightblue" d="M375.72,-56.44C409.43,-47.2 463.3,-32.44 500.43,-22.26"/>
<polygon fill="midnightblue" stroke="midnightblue" points="501.71,-25.54 510.43,-19.52 499.86,-18.78 501.71,-25.54"/>
</g>
</g>
</svg>
