<?xml version="1.0" encoding="UTF-8" standalone="no"?>
<!DOCTYPE svg PUBLIC "-//W3C//DTD SVG 1.1//EN"
 "http://www.w3.org/Graphics/SVG/1.1/DTD/svg11.dtd">
<!-- Generated by graphviz version 2.43.0 (0)
 -->
<!-- Title: /home/runner/work/gauri/gauri/gauri/include/gauri/renderer/shader.h Pages: 1 -->
<svg width="545pt" height="196pt"
 viewBox="0.00 0.00 545.00 196.00" xmlns="http://www.w3.org/2000/svg" xmlns:xlink="http://www.w3.org/1999/xlink">
<g id="graph0" class="graph" transform="scale(1 1) rotate(0) translate(4 192)">
<title>/home/runner/work/gauri/gauri/gauri/include/gauri/renderer/shader.h</title>
<polygon fill="white" stroke="transparent" points="-4,4 -4,-192 541,-192 541,4 -4,4"/>
<!-- Node1 -->
<g id="node1" class="node">
<title>Node1</title>
<g id="a_node1"><a xlink:title=" ">
<polygon fill="#bfbfbf" stroke="black" points="0,-168.5 0,-187.5 347,-187.5 347,-168.5 0,-168.5"/>
<text text-anchor="middle" x="173.5" y="-175.5" font-family="Helvetica,sans-Serif" font-size="10.00">/home/runner/work/gauri/gauri/gauri/include/gauri/renderer/shader.h</text>
</a>
</g>
</g>
<!-- Node2 -->
<g id="node2" class="node">
<title>Node2</title>
<g id="a_node2"><a xlink:title=" ">
<polygon fill="white" stroke="#bfbfbf" points="113.5,-112.5 113.5,-131.5 157.5,-131.5 157.5,-112.5 113.5,-112.5"/>
<text text-anchor="middle" x="135.5" y="-119.5" font-family="Helvetica,sans-Serif" font-size="10.00">string</text>
</a>
</g>
</g>
<!-- Node1&#45;&gt;Node2 -->
<g id="edge1" class="edge">
<title>Node1&#45;&gt;Node2</title>
<path fill="none" stroke="midnightblue" d="M167.23,-168.08C161.86,-160.46 153.98,-149.26 147.42,-139.94"/>
<polygon fill="midnightblue" stroke="midnightblue" points="150.28,-137.91 141.66,-131.75 144.55,-141.94 150.28,-137.91"/>
</g>
<!-- Node3 -->
<g id="node3" class="node">
<title>Node3</title>
<g id="a_node3"><a xlink:href="core_8h.html" target="_top" xlink:title=" ">
<polygon fill="white" stroke="black" points="175.5,-112.5 175.5,-131.5 249.5,-131.5 249.5,-112.5 175.5,-112.5"/>
<text text-anchor="middle" x="212.5" y="-119.5" font-family="Helvetica,sans-Serif" font-size="10.00">gauri/core.h</text>
</a>
</g>
</g>
<!-- Node1&#45;&gt;Node3 -->
<g id="edge2" class="edge">
<title>Node1&#45;&gt;Node3</title>
<path fill="none" stroke="midnightblue" d="M179.94,-168.08C185.45,-160.46 193.53,-149.26 200.26,-139.94"/>
<polygon fill="midnightblue" stroke="midnightblue" points="203.16,-141.91 206.18,-131.75 197.49,-137.81 203.16,-141.91"/>
</g>
<!-- Node4 -->
<g id="node4" class="node">
<title>Node4</title>
<g id="a_node4"><a xlink:title=" ">
<polygon fill="white" stroke="#bfbfbf" points="134.5,-56.5 134.5,-75.5 184.5,-75.5 184.5,-56.5 134.5,-56.5"/>
<text text-anchor="middle" x="159.5" y="-63.5" font-family="Helvetica,sans-Serif" font-size="10.00">cstdint</text>
</a>
</g>
</g>
<!-- Node3&#45;&gt;Node4 -->
<g id="edge3" class="edge">
<title>Node3&#45;&gt;Node4</title>
<path fill="none" stroke="midnightblue" d="M203.75,-112.08C196.03,-104.22 184.6,-92.57 175.28,-83.08"/>
<polygon fill="midnightblue" stroke="midnightblue" points="177.59,-80.44 168.09,-75.75 172.6,-85.34 177.59,-80.44"/>
</g>
<!-- Node5 -->
<g id="node5" class="node">
<title>Node5</title>
<g id="a_node5"><a xlink:title=" ">
<polygon fill="white" stroke="#bfbfbf" points="182.5,-0.5 182.5,-19.5 240.5,-19.5 240.5,-0.5 182.5,-0.5"/>
<text text-anchor="middle" x="211.5" y="-7.5" font-family="Helvetica,sans-Serif" font-size="10.00">memory</text>
</a>
</g>
</g>
<!-- Node3&#45;&gt;Node5 -->
<g id="edge4" class="edge">
<title>Node3&#45;&gt;Node5</title>
<path fill="none" stroke="midnightblue" d="M212.42,-112.37C212.26,-94.62 211.89,-53.67 211.67,-29.6"/>
<polygon fill="midnightblue" stroke="midnightblue" points="215.17,-29.56 211.58,-19.59 208.17,-29.62 215.17,-29.56"/>
</g>
<!-- Node6 -->
<g id="node6" class="node">
<title>Node6</title>
<g id="a_node6"><a xlink:href="logger_8h.html" target="_top" xlink:title=" ">
<polygon fill="white" stroke="black" points="242,-56.5 242,-75.5 325,-75.5 325,-56.5 242,-56.5"/>
<text text-anchor="middle" x="283.5" y="-63.5" font-family="Helvetica,sans-Serif" font-size="10.00">gauri/logger.h</text>
</a>
</g>
</g>
<!-- Node3&#45;&gt;Node6 -->
<g id="edge5" class="edge">
<title>Node3&#45;&gt;Node6</title>
<path fill="none" stroke="midnightblue" d="M223.91,-112.32C234.61,-104.18 250.84,-91.84 263.66,-82.09"/>
<polygon fill="midnightblue" stroke="midnightblue" points="266.04,-84.67 271.89,-75.83 261.81,-79.1 266.04,-84.67"/>
</g>
<!-- Node6&#45;&gt;Node5 -->
<g id="edge7" class="edge">
<title>Node6&#45;&gt;Node5</title>
<path fill="none" stroke="midnightblue" d="M271.93,-56.32C261.08,-48.18 244.62,-35.84 231.62,-26.09"/>
<polygon fill="midnightblue" stroke="midnightblue" points="233.38,-23.03 223.28,-19.83 229.18,-28.63 233.38,-23.03"/>
</g>
<!-- Node7 -->
<g id="node7" class="node">
<title>Node7</title>
<g id="a_node7"><a xlink:title=" ">
<polygon fill="white" stroke="#bfbfbf" points="258.5,-0.5 258.5,-19.5 308.5,-19.5 308.5,-0.5 258.5,-0.5"/>
<text text-anchor="middle" x="283.5" y="-7.5" font-family="Helvetica,sans-Serif" font-size="10.00">format</text>
</a>
</g>
</g>
<!-- Node6&#45;&gt;Node7 -->
<g id="edge6" class="edge">
<title>Node6&#45;&gt;Node7</title>
<path fill="none" stroke="midnightblue" d="M283.5,-56.08C283.5,-49.01 283.5,-38.86 283.5,-29.99"/>
<polygon fill="midnightblue" stroke="midnightblue" points="287,-29.75 283.5,-19.75 280,-29.75 287,-29.75"/>
</g>
<!-- Node8 -->
<g id="node8" class="node">
<title>Node8</title>
<g id="a_node8"><a xlink:title=" ">
<polygon fill="white" stroke="#bfbfbf" points="327,-0.5 327,-19.5 426,-19.5 426,-0.5 327,-0.5"/>
<text text-anchor="middle" x="376.5" y="-7.5" font-family="Helvetica,sans-Serif" font-size="10.00">spdlog/fmt/ostr.h</text>
</a>
</g>
</g>
<!-- Node6&#45;&gt;Node8 -->
<g id="edge8" class="edge">
<title>Node6&#45;&gt;Node8</title>
<path fill="none" stroke="midnightblue" d="M298.44,-56.32C313.09,-47.82 335.63,-34.73 352.74,-24.8"/>
<polygon fill="midnightblue" stroke="midnightblue" points="354.7,-27.7 361.6,-19.65 351.19,-21.65 354.7,-27.7"/>
</g>
<!-- Node9 -->
<g id="node9" class="node">
<title>Node9</title>
<g id="a_node9"><a xlink:title=" ">
<polygon fill="white" stroke="#bfbfbf" points="444,-0.5 444,-19.5 537,-19.5 537,-0.5 444,-0.5"/>
<text text-anchor="middle" x="490.5" y="-7.5" font-family="Helvetica,sans-Serif" font-size="10.00">spdlog/spdlog.h</text>
</a>
</g>
</g>
<!-- Node6&#45;&gt;Node9 -->
<g id="edge9" class="edge">
<title>Node6&#45;&gt;Node9</title>
<path fill="none" stroke="midnightblue" d="M316.3,-56.44C351.88,-47.16 408.81,-32.31 447.85,-22.13"/>
<polygon fill="midnightblue" stroke="midnightblue" points="449.06,-25.43 457.85,-19.52 447.29,-18.65 449.06,-25.43"/>
</g>
</g>
</svg>
