<?xml version="1.0" encoding="UTF-8" standalone="no"?>
<!DOCTYPE svg PUBLIC "-//W3C//DTD SVG 1.1//EN"
 "http://www.w3.org/Graphics/SVG/1.1/DTD/svg11.dtd">
<!-- Generated by graphviz version 2.43.0 (0)
 -->
<!-- Title: /home/runner/work/gauri/gauri/gauri/include/gauri/renderer/shader.h Pages: 1 -->
<svg width="598pt" height="196pt"
 viewBox="0.00 0.00 598.00 196.00" xmlns="http://www.w3.org/2000/svg" xmlns:xlink="http://www.w3.org/1999/xlink">
<g id="graph0" class="graph" transform="scale(1 1) rotate(0) translate(4 192)">
<title>/home/runner/work/gauri/gauri/gauri/include/gauri/renderer/shader.h</title>
<polygon fill="white" stroke="transparent" points="-4,4 -4,-192 594,-192 594,4 -4,4"/>
<!-- Node1 -->
<g id="node1" class="node">
<title>Node1</title>
<g id="a_node1"><a xlink:title=" ">
<polygon fill="#bfbfbf" stroke="black" points="0,-168.5 0,-187.5 347,-187.5 347,-168.5 0,-168.5"/>
<text text-anchor="middle" x="173.5" y="-175.5" font-family="Helvetica,sans-Serif" font-size="10.00">/home/runner/work/gauri/gauri/gauri/include/gauri/renderer/shader.h</text>
</a>
</g>
</g>
<!-- Node2 -->
<g id="node2" class="node">
<title>Node2</title>
<g id="a_node2"><a xlink:title=" ">
<polygon fill="white" stroke="#bfbfbf" points="55.5,-112.5 55.5,-131.5 133.5,-131.5 133.5,-112.5 55.5,-112.5"/>
<text text-anchor="middle" x="94.5" y="-119.5" font-family="Helvetica,sans-Serif" font-size="10.00">glm/glm.hpp</text>
</a>
</g>
</g>
<!-- Node1&#45;&gt;Node2 -->
<g id="edge1" class="edge">
<title>Node1&#45;&gt;Node2</title>
<path fill="none" stroke="midnightblue" d="M160.81,-168.32C148.6,-159.98 129.92,-147.21 115.5,-137.35"/>
<polygon fill="midnightblue" stroke="midnightblue" points="117.39,-134.41 107.16,-131.65 113.44,-140.19 117.39,-134.41"/>
</g>
<!-- Node3 -->
<g id="node3" class="node">
<title>Node3</title>
<g id="a_node3"><a xlink:title=" ">
<polygon fill="white" stroke="#bfbfbf" points="151.5,-112.5 151.5,-131.5 195.5,-131.5 195.5,-112.5 151.5,-112.5"/>
<text text-anchor="middle" x="173.5" y="-119.5" font-family="Helvetica,sans-Serif" font-size="10.00">string</text>
</a>
</g>
</g>
<!-- Node1&#45;&gt;Node3 -->
<g id="edge2" class="edge">
<title>Node1&#45;&gt;Node3</title>
<path fill="none" stroke="midnightblue" d="M173.5,-168.08C173.5,-161.01 173.5,-150.86 173.5,-141.99"/>
<polygon fill="midnightblue" stroke="midnightblue" points="177,-141.75 173.5,-131.75 170,-141.75 177,-141.75"/>
</g>
<!-- Node4 -->
<g id="node4" class="node">
<title>Node4</title>
<g id="a_node4"><a xlink:href="base_8h.html" target="_top" xlink:title=" ">
<polygon fill="white" stroke="black" points="214,-112.5 214,-131.5 315,-131.5 315,-112.5 214,-112.5"/>
<text text-anchor="middle" x="264.5" y="-119.5" font-family="Helvetica,sans-Serif" font-size="10.00">gauri/core/base.h</text>
</a>
</g>
</g>
<!-- Node1&#45;&gt;Node4 -->
<g id="edge3" class="edge">
<title>Node1&#45;&gt;Node4</title>
<path fill="none" stroke="midnightblue" d="M188.12,-168.32C202.45,-159.82 224.51,-146.73 241.25,-136.8"/>
<polygon fill="midnightblue" stroke="midnightblue" points="243.1,-139.77 249.92,-131.65 239.53,-133.75 243.1,-139.77"/>
</g>
<!-- Node5 -->
<g id="node5" class="node">
<title>Node5</title>
<g id="a_node5"><a xlink:title=" ">
<polygon fill="white" stroke="#bfbfbf" points="186.5,-56.5 186.5,-75.5 236.5,-75.5 236.5,-56.5 186.5,-56.5"/>
<text text-anchor="middle" x="211.5" y="-63.5" font-family="Helvetica,sans-Serif" font-size="10.00">cstdint</text>
</a>
</g>
</g>
<!-- Node4&#45;&gt;Node5 -->
<g id="edge4" class="edge">
<title>Node4&#45;&gt;Node5</title>
<path fill="none" stroke="midnightblue" d="M255.75,-112.08C248.03,-104.22 236.6,-92.57 227.28,-83.08"/>
<polygon fill="midnightblue" stroke="midnightblue" points="229.59,-80.44 220.09,-75.75 224.6,-85.34 229.59,-80.44"/>
</g>
<!-- Node6 -->
<g id="node6" class="node">
<title>Node6</title>
<g id="a_node6"><a xlink:title=" ">
<polygon fill="white" stroke="#bfbfbf" points="235.5,-0.5 235.5,-19.5 293.5,-19.5 293.5,-0.5 235.5,-0.5"/>
<text text-anchor="middle" x="264.5" y="-7.5" font-family="Helvetica,sans-Serif" font-size="10.00">memory</text>
</a>
</g>
</g>
<!-- Node4&#45;&gt;Node6 -->
<g id="edge5" class="edge">
<title>Node4&#45;&gt;Node6</title>
<path fill="none" stroke="midnightblue" d="M264.5,-112.37C264.5,-94.62 264.5,-53.67 264.5,-29.6"/>
<polygon fill="midnightblue" stroke="midnightblue" points="268,-29.59 264.5,-19.59 261,-29.59 268,-29.59"/>
</g>
<!-- Node7 -->
<g id="node7" class="node">
<title>Node7</title>
<g id="a_node7"><a xlink:href="logger_8h.html" target="_top" xlink:title=" ">
<polygon fill="white" stroke="black" points="293,-56.5 293,-75.5 400,-75.5 400,-56.5 293,-56.5"/>
<text text-anchor="middle" x="346.5" y="-63.5" font-family="Helvetica,sans-Serif" font-size="10.00">gauri/core/logger.h</text>
</a>
</g>
</g>
<!-- Node4&#45;&gt;Node7 -->
<g id="edge6" class="edge">
<title>Node4&#45;&gt;Node7</title>
<path fill="none" stroke="midnightblue" d="M277.67,-112.32C290.35,-103.98 309.73,-91.21 324.71,-81.35"/>
<polygon fill="midnightblue" stroke="midnightblue" points="326.93,-84.08 333.36,-75.65 323.08,-78.23 326.93,-84.08"/>
</g>
<!-- Node7&#45;&gt;Node6 -->
<g id="edge8" class="edge">
<title>Node7&#45;&gt;Node6</title>
<path fill="none" stroke="midnightblue" d="M333.33,-56.32C320.65,-47.98 301.27,-35.21 286.29,-25.35"/>
<polygon fill="midnightblue" stroke="midnightblue" points="287.92,-22.23 277.64,-19.65 284.07,-28.08 287.92,-22.23"/>
</g>
<!-- Node8 -->
<g id="node8" class="node">
<title>Node8</title>
<g id="a_node8"><a xlink:title=" ">
<polygon fill="white" stroke="#bfbfbf" points="311.5,-0.5 311.5,-19.5 361.5,-19.5 361.5,-0.5 311.5,-0.5"/>
<text text-anchor="middle" x="336.5" y="-7.5" font-family="Helvetica,sans-Serif" font-size="10.00">format</text>
</a>
</g>
</g>
<!-- Node7&#45;&gt;Node8 -->
<g id="edge7" class="edge">
<title>Node7&#45;&gt;Node8</title>
<path fill="none" stroke="midnightblue" d="M344.85,-56.08C343.52,-48.93 341.62,-38.64 339.96,-29.69"/>
<polygon fill="midnightblue" stroke="midnightblue" points="343.38,-28.95 338.12,-19.75 336.5,-30.22 343.38,-28.95"/>
</g>
<!-- Node9 -->
<g id="node9" class="node">
<title>Node9</title>
<g id="a_node9"><a xlink:title=" ">
<polygon fill="white" stroke="#bfbfbf" points="380,-0.5 380,-19.5 479,-19.5 479,-0.5 380,-0.5"/>
<text text-anchor="middle" x="429.5" y="-7.5" font-family="Helvetica,sans-Serif" font-size="10.00">spdlog/fmt/ostr.h</text>
</a>
</g>
</g>
<!-- Node7&#45;&gt;Node9 -->
<g id="edge9" class="edge">
<title>Node7&#45;&gt;Node9</title>
<path fill="none" stroke="midnightblue" d="M359.84,-56.32C372.66,-47.98 392.28,-35.21 407.44,-25.35"/>
<polygon fill="midnightblue" stroke="midnightblue" points="409.72,-28.04 416.2,-19.65 405.91,-22.17 409.72,-28.04"/>
</g>
<!-- Node10 -->
<g id="node10" class="node">
<title>Node10</title>
<g id="a_node10"><a xlink:title=" ">
<polygon fill="white" stroke="#bfbfbf" points="497,-0.5 497,-19.5 590,-19.5 590,-0.5 497,-0.5"/>
<text text-anchor="middle" x="543.5" y="-7.5" font-family="Helvetica,sans-Serif" font-size="10.00">spdlog/spdlog.h</text>
</a>
</g>
</g>
<!-- Node7&#45;&gt;Node10 -->
<g id="edge10" class="edge">
<title>Node7&#45;&gt;Node10</title>
<path fill="none" stroke="midnightblue" d="M377.72,-56.44C411.43,-47.2 465.3,-32.44 502.43,-22.26"/>
<polygon fill="midnightblue" stroke="midnightblue" points="503.71,-25.54 512.43,-19.52 501.86,-18.78 503.71,-25.54"/>
</g>
</g>
</svg>
