<?xml version="1.0" encoding="UTF-8" standalone="no"?>
<!DOCTYPE svg PUBLIC "-//W3C//DTD SVG 1.1//EN"
 "http://www.w3.org/Graphics/SVG/1.1/DTD/svg11.dtd">
<!-- Generated by graphviz version 2.43.0 (0)
 -->
<!-- Title: /home/runner/work/gauri/gauri/gauri/include/gauri/renderer/shader.h Pages: 1 -->
<svg width="814pt" height="196pt"
 viewBox="0.00 0.00 813.50 196.00" xmlns="http://www.w3.org/2000/svg" xmlns:xlink="http://www.w3.org/1999/xlink">
<g id="graph0" class="graph" transform="scale(1 1) rotate(0) translate(4 192)">
<title>/home/runner/work/gauri/gauri/gauri/include/gauri/renderer/shader.h</title>
<polygon fill="white" stroke="transparent" points="-4,4 -4,-192 809.5,-192 809.5,4 -4,4"/>
<!-- Node1 -->
<g id="node1" class="node">
<title>Node1</title>
<g id="a_node1"><a xlink:title=" ">
<polygon fill="#bfbfbf" stroke="black" points="210,-168.5 210,-187.5 557,-187.5 557,-168.5 210,-168.5"/>
<text text-anchor="middle" x="383.5" y="-175.5" font-family="Helvetica,sans-Serif" font-size="10.00">/home/runner/work/gauri/gauri/gauri/include/gauri/renderer/shader.h</text>
</a>
</g>
</g>
<!-- Node2 -->
<g id="node2" class="node">
<title>Node2</title>
<g id="a_node2"><a xlink:href="renderer_8h.html" target="_top" xlink:title=" ">
<polygon fill="white" stroke="black" points="0,-112.5 0,-131.5 355,-131.5 355,-112.5 0,-112.5"/>
<text text-anchor="middle" x="177.5" y="-119.5" font-family="Helvetica,sans-Serif" font-size="10.00">/home/runner/work/gauri/gauri/gauri/include/gauri/renderer/renderer.h</text>
</a>
</g>
</g>
<!-- Node1&#45;&gt;Node2 -->
<g id="edge1" class="edge">
<title>Node1&#45;&gt;Node2</title>
<path fill="none" stroke="midnightblue" d="M340.88,-165.83C301.99,-155.63 245.34,-140.78 209.99,-131.52"/>
<polygon fill="midnightblue" stroke="midnightblue" points="340.3,-169.29 350.86,-168.44 342.07,-162.52 340.3,-169.29"/>
</g>
<!-- Node3 -->
<g id="node3" class="node">
<title>Node3</title>
<g id="a_node3"><a xlink:href="gauri_8h.html" target="_top" xlink:title=" ">
<polygon fill="white" stroke="black" points="147,-56.5 147,-75.5 414,-75.5 414,-56.5 147,-56.5"/>
<text text-anchor="middle" x="280.5" y="-63.5" font-family="Helvetica,sans-Serif" font-size="10.00">/home/runner/work/gauri/gauri/gauri/include/gauri.h</text>
</a>
</g>
</g>
<!-- Node1&#45;&gt;Node3 -->
<g id="edge5" class="edge">
<title>Node1&#45;&gt;Node3</title>
<path fill="none" stroke="midnightblue" d="M381.95,-158.46C379.92,-144.38 375.26,-125.25 364.5,-112 350.11,-94.27 326.83,-82.58 308.42,-75.57"/>
<polygon fill="midnightblue" stroke="midnightblue" points="378.48,-158.91 383.07,-168.45 385.43,-158.13 378.48,-158.91"/>
</g>
<!-- Node5 -->
<g id="node5" class="node">
<title>Node5</title>
<g id="a_node5"><a xlink:href="opengl__shader_8h.html" target="_top" xlink:title=" ">
<polygon fill="white" stroke="black" points="411.5,-112.5 411.5,-131.5 805.5,-131.5 805.5,-112.5 411.5,-112.5"/>
<text text-anchor="middle" x="608.5" y="-119.5" font-family="Helvetica,sans-Serif" font-size="10.00">/home/runner/work/gauri/gauri/gauri/include/platform/opengl/opengl_shader.h</text>
</a>
</g>
</g>
<!-- Node1&#45;&gt;Node5 -->
<g id="edge6" class="edge">
<title>Node1&#45;&gt;Node5</title>
<path fill="none" stroke="midnightblue" d="M428.97,-166.09C471.47,-155.89 534.08,-140.86 573.01,-131.52"/>
<polygon fill="midnightblue" stroke="midnightblue" points="428.06,-162.71 419.15,-168.44 429.69,-169.51 428.06,-162.71"/>
</g>
<!-- Node2&#45;&gt;Node3 -->
<g id="edge2" class="edge">
<title>Node2&#45;&gt;Node3</title>
<path fill="none" stroke="midnightblue" d="M203.08,-107.59C222.12,-97.61 247.56,-84.27 263.99,-75.65"/>
<polygon fill="midnightblue" stroke="midnightblue" points="201.28,-104.58 194.05,-112.32 204.53,-110.78 201.28,-104.58"/>
</g>
<!-- Node4 -->
<g id="node4" class="node">
<title>Node4</title>
<g id="a_node4"><a xlink:href="entry__point_8h.html" target="_top" xlink:title=" ">
<polygon fill="white" stroke="black" points="105.5,-0.5 105.5,-19.5 455.5,-19.5 455.5,-0.5 105.5,-0.5"/>
<text text-anchor="middle" x="280.5" y="-7.5" font-family="Helvetica,sans-Serif" font-size="10.00">/home/runner/work/gauri/gauri/gauri/include/gauri/core/entry_point.h</text>
</a>
</g>
</g>
<!-- Node3&#45;&gt;Node4 -->
<g id="edge3" class="edge">
<title>Node3&#45;&gt;Node4</title>
<path fill="none" stroke="midnightblue" d="M274.03,-46.1C273.4,-37.14 273.84,-26.86 275.37,-19.75"/>
<polygon fill="midnightblue" stroke="midnightblue" points="270.57,-46.62 275.33,-56.08 277.51,-45.71 270.57,-46.62"/>
</g>
<!-- Node4&#45;&gt;Node3 -->
<g id="edge4" class="edge">
<title>Node4&#45;&gt;Node3</title>
<path fill="none" stroke="midnightblue" d="M286.96,-29.69C287.61,-38.64 287.18,-48.93 285.67,-56.08"/>
<polygon fill="midnightblue" stroke="midnightblue" points="290.42,-29.2 285.63,-19.75 283.48,-30.13 290.42,-29.2"/>
</g>
</g>
</svg>
