<?xml version="1.0" encoding="UTF-8" standalone="no"?>
<!DOCTYPE svg PUBLIC "-//W3C//DTD SVG 1.1//EN"
 "http://www.w3.org/Graphics/SVG/1.1/DTD/svg11.dtd">
<!-- Generated by graphviz version 2.43.0 (0)
 -->
<!-- Title: gauri::TransformComponent Pages: 1 -->
<svg width="336pt" height="215pt"
 viewBox="0.00 0.00 336.00 215.00" xmlns="http://www.w3.org/2000/svg" xmlns:xlink="http://www.w3.org/1999/xlink">
<g id="graph0" class="graph" transform="scale(1 1) rotate(0) translate(4 211)">
<title>gauri::TransformComponent</title>
<polygon fill="white" stroke="transparent" points="-4,4 -4,-211 332,-211 332,4 -4,4"/>
<!-- Node1 -->
<g id="node1" class="node">
<title>Node1</title>
<g id="a_node1"><a xlink:title=" ">
<polygon fill="#bfbfbf" stroke="black" points="0,-0.5 0,-101.5 328,-101.5 328,-0.5 0,-0.5"/>
<text text-anchor="middle" x="164" y="-89.5" font-family="Helvetica,sans-Serif" font-size="10.00">gauri::TransformComponent</text>
<polyline fill="none" stroke="black" points="0,-82.5 328,-82.5 "/>
<text text-anchor="middle" x="164" y="-70.5" font-family="Helvetica,sans-Serif" font-size="10.00"> </text>
<polyline fill="none" stroke="black" points="0,-63.5 328,-63.5 "/>
<text text-anchor="start" x="8" y="-51.5" font-family="Helvetica,sans-Serif" font-size="10.00">+ TransformComponent()=default</text>
<text text-anchor="start" x="8" y="-40.5" font-family="Helvetica,sans-Serif" font-size="10.00">+ TransformComponent(const TransformComponent &amp;)=default</text>
<text text-anchor="start" x="8" y="-29.5" font-family="Helvetica,sans-Serif" font-size="10.00">+ TransformComponent(const glm::mat4 &amp;transform)</text>
<text text-anchor="start" x="8" y="-18.5" font-family="Helvetica,sans-Serif" font-size="10.00">+ operator const glm::mat4 &amp;() const</text>
<text text-anchor="start" x="8" y="-7.5" font-family="Helvetica,sans-Serif" font-size="10.00">+ operator glm::mat4 &amp;()</text>
</a>
</g>
</g>
<!-- Node2 -->
<g id="node2" class="node">
<title>Node2</title>
<g id="a_node2"><a xlink:title=" ">
<polygon fill="white" stroke="#bfbfbf" points="143,-149.5 143,-206.5 185,-206.5 185,-149.5 143,-149.5"/>
<text text-anchor="middle" x="164" y="-194.5" font-family="Helvetica,sans-Serif" font-size="10.00">mat4</text>
<polyline fill="none" stroke="#bfbfbf" points="143,-187.5 185,-187.5 "/>
<text text-anchor="middle" x="164" y="-175.5" font-family="Helvetica,sans-Serif" font-size="10.00"> </text>
<polyline fill="none" stroke="#bfbfbf" points="143,-168.5 185,-168.5 "/>
<text text-anchor="middle" x="164" y="-156.5" font-family="Helvetica,sans-Serif" font-size="10.00"> </text>
</a>
</g>
</g>
<!-- Node2&#45;&gt;Node1 -->
<g id="edge1" class="edge">
<title>Node2&#45;&gt;Node1</title>
<path fill="none" stroke="#404040" d="M164,-149.26C164,-138.79 164,-126.42 164,-114.07"/>
<polygon fill="none" stroke="#404040" points="164,-113.8 160,-107.8 164,-101.8 168,-107.8 164,-113.8"/>
<text text-anchor="middle" x="194.5" y="-123" font-family="Helvetica,sans-Serif" font-size="10.00"> +Transform</text>
</g>
</g>
</svg>
