<?xml version="1.0" encoding="UTF-8" standalone="no"?>
<!DOCTYPE svg PUBLIC "-//W3C//DTD SVG 1.1//EN"
 "http://www.w3.org/Graphics/SVG/1.1/DTD/svg11.dtd">
<!-- Generated by graphviz version 2.43.0 (0)
 -->
<!-- Title: gauri::CameraComponent Pages: 1 -->
<svg width="579pt" height="711pt"
 viewBox="0.00 0.00 578.50 711.00" xmlns="http://www.w3.org/2000/svg" xmlns:xlink="http://www.w3.org/1999/xlink">
<g id="graph0" class="graph" transform="scale(1 1) rotate(0) translate(4 707)">
<title>gauri::CameraComponent</title>
<polygon fill="white" stroke="transparent" points="-4,4 -4,-707 574.5,-707 574.5,4 -4,4"/>
<!-- Node1 -->
<g id="node1" class="node">
<title>Node1</title>
<g id="a_node1"><a xlink:title=" ">
<polygon fill="#bfbfbf" stroke="black" points="263.5,-0.5 263.5,-68.5 570.5,-68.5 570.5,-0.5 263.5,-0.5"/>
<text text-anchor="middle" x="417" y="-56.5" font-family="Helvetica,sans-Serif" font-size="10.00">gauri::CameraComponent</text>
<polyline fill="none" stroke="black" points="263.5,-49.5 570.5,-49.5 "/>
<text text-anchor="middle" x="417" y="-37.5" font-family="Helvetica,sans-Serif" font-size="10.00"> </text>
<polyline fill="none" stroke="black" points="263.5,-30.5 570.5,-30.5 "/>
<text text-anchor="start" x="271.5" y="-18.5" font-family="Helvetica,sans-Serif" font-size="10.00">+ CameraComponent()=default</text>
<text text-anchor="start" x="271.5" y="-7.5" font-family="Helvetica,sans-Serif" font-size="10.00">+ CameraComponent(const CameraComponent &amp;)=default</text>
</a>
</g>
</g>
<!-- Node2 -->
<g id="node2" class="node">
<title>Node2</title>
<g id="a_node2"><a xlink:href="classgauri_1_1SceneCamera.html" target="_top" xlink:title=" ">
<polygon fill="white" stroke="black" points="88.5,-127.5 88.5,-393.5 433.5,-393.5 433.5,-127.5 88.5,-127.5"/>
<text text-anchor="middle" x="261" y="-381.5" font-family="Helvetica,sans-Serif" font-size="10.00">gauri::SceneCamera</text>
<polyline fill="none" stroke="black" points="88.5,-374.5 433.5,-374.5 "/>
<text text-anchor="middle" x="261" y="-362.5" font-family="Helvetica,sans-Serif" font-size="10.00"> </text>
<polyline fill="none" stroke="black" points="88.5,-355.5 433.5,-355.5 "/>
<text text-anchor="start" x="96.5" y="-343.5" font-family="Helvetica,sans-Serif" font-size="10.00">+ SceneCamera()</text>
<text text-anchor="start" x="96.5" y="-332.5" font-family="Helvetica,sans-Serif" font-size="10.00">+ ~SceneCamera() override=default</text>
<text text-anchor="start" x="96.5" y="-321.5" font-family="Helvetica,sans-Serif" font-size="10.00">+ void SetOrthographic(float size, float nearClip, float farClip)</text>
<text text-anchor="start" x="96.5" y="-310.5" font-family="Helvetica,sans-Serif" font-size="10.00">+ void SetPerspective(float verticalFov, float nearClip, float farClip)</text>
<text text-anchor="start" x="96.5" y="-299.5" font-family="Helvetica,sans-Serif" font-size="10.00">+ void SetViewportSize(uint32_t width, uint32_t height)</text>
<text text-anchor="start" x="96.5" y="-288.5" font-family="Helvetica,sans-Serif" font-size="10.00">+ ProjectionType GetProjectionType() const</text>
<text text-anchor="start" x="96.5" y="-277.5" font-family="Helvetica,sans-Serif" font-size="10.00">+ void SetProjectionType(ProjectionType type)</text>
<text text-anchor="start" x="96.5" y="-266.5" font-family="Helvetica,sans-Serif" font-size="10.00">+ float GetOrthographicSize() const</text>
<text text-anchor="start" x="96.5" y="-255.5" font-family="Helvetica,sans-Serif" font-size="10.00">+ void SetOrthographicSize(float size)</text>
<text text-anchor="start" x="96.5" y="-244.5" font-family="Helvetica,sans-Serif" font-size="10.00">+ float GetOrthographicNearClip() const</text>
<text text-anchor="start" x="96.5" y="-233.5" font-family="Helvetica,sans-Serif" font-size="10.00">+ float GetOrthographicFarClip() const</text>
<text text-anchor="start" x="96.5" y="-222.5" font-family="Helvetica,sans-Serif" font-size="10.00">+ void SetOrthographicNearClip(float nearClip)</text>
<text text-anchor="start" x="96.5" y="-211.5" font-family="Helvetica,sans-Serif" font-size="10.00">+ void SetOrthographicFarClip(float farClip)</text>
<text text-anchor="start" x="96.5" y="-200.5" font-family="Helvetica,sans-Serif" font-size="10.00">+ float GetPerspectiveVerticalFov() const</text>
<text text-anchor="start" x="96.5" y="-189.5" font-family="Helvetica,sans-Serif" font-size="10.00">+ void SetPerspectiveVerticalFov(float verticalFov)</text>
<text text-anchor="start" x="96.5" y="-178.5" font-family="Helvetica,sans-Serif" font-size="10.00">+ float GetPerspectiveNearClip() const</text>
<text text-anchor="start" x="96.5" y="-167.5" font-family="Helvetica,sans-Serif" font-size="10.00">+ float GetPerspectiveFarClip() const</text>
<text text-anchor="start" x="96.5" y="-156.5" font-family="Helvetica,sans-Serif" font-size="10.00">+ void SetPerspectiveNearClip(float nearClip)</text>
<text text-anchor="start" x="96.5" y="-145.5" font-family="Helvetica,sans-Serif" font-size="10.00">+ void SetPerspectiveFarClip(float farClip)</text>
<text text-anchor="start" x="96.5" y="-134.5" font-family="Helvetica,sans-Serif" font-size="10.00">&#45; void RecalculateProjection()</text>
</a>
</g>
</g>
<!-- Node2&#45;&gt;Node1 -->
<g id="edge1" class="edge">
<title>Node2&#45;&gt;Node1</title>
<path fill="none" stroke="#404040" d="M349.73,-127.16C359.18,-113.53 368.72,-99.94 378,-87 380.02,-84.18 382.12,-81.29 384.26,-78.39"/>
<polygon fill="none" stroke="#404040" points="384.41,-78.19 384.78,-70.98 391.57,-68.55 391.2,-75.76 384.41,-78.19"/>
<text text-anchor="middle" x="403" y="-95.5" font-family="Helvetica,sans-Serif" font-size="10.00"> +Camera</text>
</g>
<!-- Node3 -->
<g id="node3" class="node">
<title>Node3</title>
<g id="a_node3"><a xlink:href="classgauri_1_1Camera.html" target="_top" xlink:title=" ">
<polygon fill="white" stroke="black" points="0,-507.5 0,-597.5 224,-597.5 224,-507.5 0,-507.5"/>
<text text-anchor="middle" x="112" y="-585.5" font-family="Helvetica,sans-Serif" font-size="10.00">gauri::Camera</text>
<polyline fill="none" stroke="black" points="0,-578.5 224,-578.5 "/>
<text text-anchor="middle" x="112" y="-566.5" font-family="Helvetica,sans-Serif" font-size="10.00"> </text>
<polyline fill="none" stroke="black" points="0,-559.5 224,-559.5 "/>
<text text-anchor="start" x="8" y="-547.5" font-family="Helvetica,sans-Serif" font-size="10.00">+ Camera()=default</text>
<text text-anchor="start" x="8" y="-536.5" font-family="Helvetica,sans-Serif" font-size="10.00">+ Camera(const glm::mat4 &amp;projection)</text>
<text text-anchor="start" x="8" y="-525.5" font-family="Helvetica,sans-Serif" font-size="10.00">+ virtual ~Camera()=default</text>
<text text-anchor="start" x="8" y="-514.5" font-family="Helvetica,sans-Serif" font-size="10.00">+ const glm::mat4 &amp; GetProjection() const</text>
</a>
</g>
</g>
<!-- Node3&#45;&gt;Node2 -->
<g id="edge2" class="edge">
<title>Node3&#45;&gt;Node2</title>
<path fill="none" stroke="midnightblue" d="M139.39,-498.19C154.54,-468.7 174.11,-430.62 193.1,-393.66"/>
<polygon fill="none" stroke="midnightblue" points="136.09,-496.96 134.63,-507.46 142.31,-500.16 136.09,-496.96"/>
</g>
<!-- Node4 -->
<g id="node4" class="node">
<title>Node4</title>
<g id="a_node4"><a xlink:title=" ">
<polygon fill="white" stroke="#bfbfbf" points="91,-645.5 91,-702.5 133,-702.5 133,-645.5 91,-645.5"/>
<text text-anchor="middle" x="112" y="-690.5" font-family="Helvetica,sans-Serif" font-size="10.00">mat4</text>
<polyline fill="none" stroke="#bfbfbf" points="91,-683.5 133,-683.5 "/>
<text text-anchor="middle" x="112" y="-671.5" font-family="Helvetica,sans-Serif" font-size="10.00"> </text>
<polyline fill="none" stroke="#bfbfbf" points="91,-664.5 133,-664.5 "/>
<text text-anchor="middle" x="112" y="-652.5" font-family="Helvetica,sans-Serif" font-size="10.00"> </text>
</a>
</g>
</g>
<!-- Node4&#45;&gt;Node3 -->
<g id="edge3" class="edge">
<title>Node4&#45;&gt;Node3</title>
<path fill="none" stroke="#404040" d="M112,-645.28C112,-634.73 112,-622.29 112,-610.03"/>
<polygon fill="none" stroke="#404040" points="112,-609.91 108,-603.91 112,-597.91 116,-603.91 112,-609.91"/>
<text text-anchor="middle" x="150" y="-619" font-family="Helvetica,sans-Serif" font-size="10.00"> #m_Projection</text>
</g>
<!-- Node5 -->
<g id="node5" class="node">
<title>Node5</title>
<g id="a_node5"><a xlink:title=" ">
<polygon fill="white" stroke="#bfbfbf" points="242,-524 242,-581 280,-581 280,-524 242,-524"/>
<text text-anchor="middle" x="261" y="-569" font-family="Helvetica,sans-Serif" font-size="10.00">float</text>
<polyline fill="none" stroke="#bfbfbf" points="242,-562 280,-562 "/>
<text text-anchor="middle" x="261" y="-550" font-family="Helvetica,sans-Serif" font-size="10.00"> </text>
<polyline fill="none" stroke="#bfbfbf" points="242,-543 280,-543 "/>
<text text-anchor="middle" x="261" y="-531" font-family="Helvetica,sans-Serif" font-size="10.00"> </text>
</a>
</g>
</g>
<!-- Node5&#45;&gt;Node2 -->
<g id="edge4" class="edge">
<title>Node5&#45;&gt;Node2</title>
<path fill="none" stroke="#404040" d="M261,-523.96C261,-496.12 261,-450.87 261,-405.73"/>
<polygon fill="none" stroke="#404040" points="261,-405.64 257,-399.64 261,-393.64 265,-399.64 261,-405.64"/>
<text text-anchor="middle" x="314" y="-481" font-family="Helvetica,sans-Serif" font-size="10.00"> &#45;m_AspectRatio</text>
<text text-anchor="middle" x="314" y="-470" font-family="Helvetica,sans-Serif" font-size="10.00">&#45;m_OrthographicFar</text>
<text text-anchor="middle" x="314" y="-459" font-family="Helvetica,sans-Serif" font-size="10.00">&#45;m_OrthographicNear</text>
<text text-anchor="middle" x="314" y="-448" font-family="Helvetica,sans-Serif" font-size="10.00">&#45;m_OrthographicSize</text>
<text text-anchor="middle" x="314" y="-437" font-family="Helvetica,sans-Serif" font-size="10.00">&#45;m_PerspectiveFar</text>
<text text-anchor="middle" x="314" y="-426" font-family="Helvetica,sans-Serif" font-size="10.00">&#45;m_PerspectiveFov</text>
<text text-anchor="middle" x="314" y="-415" font-family="Helvetica,sans-Serif" font-size="10.00">&#45;m_PerspectiveNear</text>
</g>
<!-- Node6 -->
<g id="node6" class="node">
<title>Node6</title>
<g id="a_node6"><a xlink:title=" ">
<polygon fill="white" stroke="#bfbfbf" points="346,-524 346,-581 434,-581 434,-524 346,-524"/>
<text text-anchor="middle" x="390" y="-569" font-family="Helvetica,sans-Serif" font-size="10.00">ProjectionType</text>
<polyline fill="none" stroke="#bfbfbf" points="346,-562 434,-562 "/>
<text text-anchor="middle" x="390" y="-550" font-family="Helvetica,sans-Serif" font-size="10.00"> </text>
<polyline fill="none" stroke="#bfbfbf" points="346,-543 434,-543 "/>
<text text-anchor="middle" x="390" y="-531" font-family="Helvetica,sans-Serif" font-size="10.00"> </text>
</a>
</g>
</g>
<!-- Node6&#45;&gt;Node2 -->
<g id="edge5" class="edge">
<title>Node6&#45;&gt;Node2</title>
<path fill="none" stroke="#404040" d="M389.35,-523.76C387.82,-494.87 383,-448.78 368,-412 367.03,-409.62 366.02,-407.25 364.96,-404.88"/>
<polygon fill="none" stroke="#404040" points="364.86,-404.67 358.69,-400.94 359.75,-393.81 365.93,-397.53 364.86,-404.67"/>
<text text-anchor="middle" x="433" y="-448" font-family="Helvetica,sans-Serif" font-size="10.00"> &#45;m_ProjectionType</text>
</g>
<!-- Node7 -->
<g id="node7" class="node">
<title>Node7</title>
<g id="a_node7"><a xlink:title=" ">
<polygon fill="white" stroke="#bfbfbf" points="451,-232 451,-289 489,-289 489,-232 451,-232"/>
<text text-anchor="middle" x="470" y="-277" font-family="Helvetica,sans-Serif" font-size="10.00">bool</text>
<polyline fill="none" stroke="#bfbfbf" points="451,-270 489,-270 "/>
<text text-anchor="middle" x="470" y="-258" font-family="Helvetica,sans-Serif" font-size="10.00"> </text>
<polyline fill="none" stroke="#bfbfbf" points="451,-251 489,-251 "/>
<text text-anchor="middle" x="470" y="-239" font-family="Helvetica,sans-Serif" font-size="10.00"> </text>
</a>
</g>
</g>
<!-- Node7&#45;&gt;Node1 -->
<g id="edge6" class="edge">
<title>Node7&#45;&gt;Node1</title>
<path fill="none" stroke="#404040" d="M464.67,-231.99C459.36,-205.12 450.74,-163.11 442,-127 438.34,-111.87 433.97,-95.44 429.92,-80.73"/>
<polygon fill="none" stroke="#404040" points="429.83,-80.4 424.37,-75.69 426.61,-68.84 432.08,-73.55 429.83,-80.4"/>
<text text-anchor="middle" x="484" y="-101" font-family="Helvetica,sans-Serif" font-size="10.00"> +FixedAspectRatio</text>
<text text-anchor="middle" x="484" y="-90" font-family="Helvetica,sans-Serif" font-size="10.00">+Primary</text>
</g>
</g>
</svg>
