<?xml version="1.0" encoding="UTF-8" standalone="no"?>
<!DOCTYPE svg PUBLIC "-//W3C//DTD SVG 1.1//EN"
 "http://www.w3.org/Graphics/SVG/1.1/DTD/svg11.dtd">
<!-- Generated by graphviz version 2.43.0 (0)
 -->
<!-- Title: gauri::NativeScriptComponent Pages: 1 -->
<svg width="450pt" height="739pt"
 viewBox="0.00 0.00 450.00 739.00" xmlns="http://www.w3.org/2000/svg" xmlns:xlink="http://www.w3.org/1999/xlink">
<g id="graph0" class="graph" transform="scale(1 1) rotate(0) translate(4 735)">
<title>gauri::NativeScriptComponent</title>
<polygon fill="white" stroke="transparent" points="-4,4 -4,-735 446,-735 446,4 -4,4"/>
<!-- Node1 -->
<g id="node1" class="node">
<title>Node1</title>
<g id="a_node1"><a xlink:title=" ">
<polygon fill="#bfbfbf" stroke="black" points="59,-0.5 59,-57.5 223,-57.5 223,-0.5 59,-0.5"/>
<text text-anchor="middle" x="141" y="-45.5" font-family="Helvetica,sans-Serif" font-size="10.00">gauri::NativeScriptComponent</text>
<polyline fill="none" stroke="black" points="59,-38.5 223,-38.5 "/>
<text text-anchor="middle" x="141" y="-26.5" font-family="Helvetica,sans-Serif" font-size="10.00"> </text>
<polyline fill="none" stroke="black" points="59,-19.5 223,-19.5 "/>
<text text-anchor="start" x="67" y="-7.5" font-family="Helvetica,sans-Serif" font-size="10.00">+ void Bind()</text>
</a>
</g>
</g>
<!-- Node2 -->
<g id="node2" class="node">
<title>Node2</title>
<g id="a_node2"><a xlink:title=" ">
<polygon fill="white" stroke="#bfbfbf" points="0,-138.5 0,-195.5 182,-195.5 182,-138.5 0,-138.5"/>
<text text-anchor="middle" x="91" y="-183.5" font-family="Helvetica,sans-Serif" font-size="10.00">void(*)(NativeScriptComponent *)</text>
<polyline fill="none" stroke="#bfbfbf" points="0,-176.5 182,-176.5 "/>
<text text-anchor="middle" x="91" y="-164.5" font-family="Helvetica,sans-Serif" font-size="10.00"> </text>
<polyline fill="none" stroke="#bfbfbf" points="0,-157.5 182,-157.5 "/>
<text text-anchor="middle" x="91" y="-145.5" font-family="Helvetica,sans-Serif" font-size="10.00"> </text>
</a>
</g>
</g>
<!-- Node2&#45;&gt;Node1 -->
<g id="edge1" class="edge">
<title>Node2&#45;&gt;Node1</title>
<path fill="none" stroke="#404040" d="M101.12,-138.48C108.42,-118.61 118.39,-91.49 126.54,-69.34"/>
<polygon fill="none" stroke="#404040" points="126.58,-69.21 124.9,-62.2 130.73,-57.95 132.41,-64.96 126.58,-69.21"/>
<text text-anchor="middle" x="163" y="-84.5" font-family="Helvetica,sans-Serif" font-size="10.00"> +DestroyScript</text>
</g>
<!-- Node3 -->
<g id="node3" class="node">
<title>Node3</title>
<g id="a_node3"><a xlink:href="classgauri_1_1ScriptableEntity.html" target="_top" xlink:title=" ">
<polygon fill="white" stroke="black" points="200,-116.5 200,-217.5 400,-217.5 400,-116.5 200,-116.5"/>
<text text-anchor="middle" x="300" y="-205.5" font-family="Helvetica,sans-Serif" font-size="10.00">gauri::ScriptableEntity</text>
<polyline fill="none" stroke="black" points="200,-198.5 400,-198.5 "/>
<text text-anchor="middle" x="300" y="-186.5" font-family="Helvetica,sans-Serif" font-size="10.00"> </text>
<polyline fill="none" stroke="black" points="200,-179.5 400,-179.5 "/>
<text text-anchor="start" x="208" y="-167.5" font-family="Helvetica,sans-Serif" font-size="10.00">+ virtual ~ScriptableEntity()=default</text>
<text text-anchor="start" x="208" y="-156.5" font-family="Helvetica,sans-Serif" font-size="10.00">+ T &amp; GetComponent()</text>
<text text-anchor="start" x="208" y="-145.5" font-family="Helvetica,sans-Serif" font-size="10.00"># virtual void OnCreate()</text>
<text text-anchor="start" x="208" y="-134.5" font-family="Helvetica,sans-Serif" font-size="10.00"># virtual void OnDestroy()</text>
<text text-anchor="start" x="208" y="-123.5" font-family="Helvetica,sans-Serif" font-size="10.00"># virtual void OnUpdate(Timestep ts)</text>
</a>
</g>
</g>
<!-- Node3&#45;&gt;Node1 -->
<g id="edge2" class="edge">
<title>Node3&#45;&gt;Node1</title>
<path fill="none" stroke="#404040" d="M251.01,-116.47C236.88,-102.91 221.16,-88.51 206,-76 201.5,-72.29 196.73,-68.56 191.88,-64.91"/>
<polygon fill="none" stroke="#404040" points="191.57,-64.68 184.37,-64.34 181.91,-57.56 189.11,-57.9 191.57,-64.68"/>
<text text-anchor="middle" x="275.5" y="-90" font-family="Helvetica,sans-Serif" font-size="10.00"> +Instance</text>
<text text-anchor="middle" x="275.5" y="-79" font-family="Helvetica,sans-Serif" font-size="10.00">+InstantiateScript</text>
</g>
<!-- Node4 -->
<g id="node4" class="node">
<title>Node4</title>
<g id="a_node4"><a xlink:href="classgauri_1_1Entity.html" target="_top" xlink:title=" ">
<polygon fill="white" stroke="black" points="180,-265.5 180,-443.5 420,-443.5 420,-265.5 180,-265.5"/>
<text text-anchor="middle" x="300" y="-431.5" font-family="Helvetica,sans-Serif" font-size="10.00">gauri::Entity</text>
<polyline fill="none" stroke="black" points="180,-424.5 420,-424.5 "/>
<text text-anchor="middle" x="300" y="-412.5" font-family="Helvetica,sans-Serif" font-size="10.00"> </text>
<polyline fill="none" stroke="black" points="180,-405.5 420,-405.5 "/>
<text text-anchor="start" x="188" y="-393.5" font-family="Helvetica,sans-Serif" font-size="10.00">+ Entity()=default</text>
<text text-anchor="start" x="188" y="-382.5" font-family="Helvetica,sans-Serif" font-size="10.00">+ Entity(entt::entity handle, Scene *scene)</text>
<text text-anchor="start" x="188" y="-371.5" font-family="Helvetica,sans-Serif" font-size="10.00">+ Entity(const Entity &amp;other)=default</text>
<text text-anchor="start" x="188" y="-360.5" font-family="Helvetica,sans-Serif" font-size="10.00">+ T &amp; AddComponent(Args &amp;&amp;...args)</text>
<text text-anchor="start" x="188" y="-349.5" font-family="Helvetica,sans-Serif" font-size="10.00">+ T &amp; GetComponent()</text>
<text text-anchor="start" x="188" y="-338.5" font-family="Helvetica,sans-Serif" font-size="10.00">+ bool HasComponent()</text>
<text text-anchor="start" x="188" y="-327.5" font-family="Helvetica,sans-Serif" font-size="10.00">+ void RemoveComponent()</text>
<text text-anchor="start" x="188" y="-316.5" font-family="Helvetica,sans-Serif" font-size="10.00">+ operator bool() const</text>
<text text-anchor="start" x="188" y="-305.5" font-family="Helvetica,sans-Serif" font-size="10.00">+ operator uint32_t() const</text>
<text text-anchor="start" x="188" y="-294.5" font-family="Helvetica,sans-Serif" font-size="10.00">+ operator entt::entity() const</text>
<text text-anchor="start" x="188" y="-283.5" font-family="Helvetica,sans-Serif" font-size="10.00">+ bool operator==(const Entity &amp;other) const</text>
<text text-anchor="start" x="188" y="-272.5" font-family="Helvetica,sans-Serif" font-size="10.00">+ bool operator!=(const Entity &amp;other) const</text>
</a>
</g>
</g>
<!-- Node4&#45;&gt;Node3 -->
<g id="edge3" class="edge">
<title>Node4&#45;&gt;Node3</title>
<path fill="none" stroke="#404040" d="M300,-265.37C300,-253.29 300,-241.1 300,-229.63"/>
<polygon fill="none" stroke="#404040" points="300,-229.5 296,-223.51 300,-217.5 304,-223.5 300,-229.5"/>
<text text-anchor="middle" x="325.5" y="-239" font-family="Helvetica,sans-Serif" font-size="10.00"> &#45;m_Entity</text>
</g>
<!-- Node5 -->
<g id="node5" class="node">
<title>Node5</title>
<g id="a_node5"><a xlink:href="classgauri_1_1Scene.html" target="_top" xlink:title=" ">
<polygon fill="white" stroke="black" points="49,-491.5 49,-614.5 357,-614.5 357,-491.5 49,-491.5"/>
<text text-anchor="middle" x="203" y="-602.5" font-family="Helvetica,sans-Serif" font-size="10.00">gauri::Scene</text>
<polyline fill="none" stroke="black" points="49,-595.5 357,-595.5 "/>
<text text-anchor="middle" x="203" y="-583.5" font-family="Helvetica,sans-Serif" font-size="10.00"> </text>
<polyline fill="none" stroke="black" points="49,-576.5 357,-576.5 "/>
<text text-anchor="start" x="57" y="-564.5" font-family="Helvetica,sans-Serif" font-size="10.00">+ Scene()</text>
<text text-anchor="start" x="57" y="-553.5" font-family="Helvetica,sans-Serif" font-size="10.00">+ ~Scene()</text>
<text text-anchor="start" x="57" y="-542.5" font-family="Helvetica,sans-Serif" font-size="10.00">+ Entity CreateEntity(const std::string &amp;name=std::string())</text>
<text text-anchor="start" x="57" y="-531.5" font-family="Helvetica,sans-Serif" font-size="10.00">+ void DestroyEntity(Entity entity)</text>
<text text-anchor="start" x="57" y="-520.5" font-family="Helvetica,sans-Serif" font-size="10.00">+ void OnUpdate(Timestep ts)</text>
<text text-anchor="start" x="57" y="-509.5" font-family="Helvetica,sans-Serif" font-size="10.00">+ void OnViewportResize(uint32_t width, uint32_t height)</text>
<text text-anchor="start" x="57" y="-498.5" font-family="Helvetica,sans-Serif" font-size="10.00">&#45; void OnComponentAdded(Entity entity, T &amp;component)</text>
</a>
</g>
</g>
<!-- Node5&#45;&gt;Node4 -->
<g id="edge4" class="edge">
<title>Node5&#45;&gt;Node4</title>
<path fill="none" stroke="#404040" d="M232.89,-491.44C238.66,-479.75 244.85,-467.23 251.04,-454.68"/>
<polygon fill="none" stroke="#404040" points="251.16,-454.43 250.23,-447.28 256.48,-443.67 257.41,-450.82 251.16,-454.43"/>
<text text-anchor="middle" x="272" y="-465" font-family="Helvetica,sans-Serif" font-size="10.00"> &#45;m_Scene</text>
</g>
<!-- Node6 -->
<g id="node6" class="node">
<title>Node6</title>
<g id="a_node6"><a xlink:title=" ">
<polygon fill="white" stroke="#bfbfbf" points="133,-673.5 133,-730.5 187,-730.5 187,-673.5 133,-673.5"/>
<text text-anchor="middle" x="160" y="-718.5" font-family="Helvetica,sans-Serif" font-size="10.00">registry</text>
<polyline fill="none" stroke="#bfbfbf" points="133,-711.5 187,-711.5 "/>
<text text-anchor="middle" x="160" y="-699.5" font-family="Helvetica,sans-Serif" font-size="10.00"> </text>
<polyline fill="none" stroke="#bfbfbf" points="133,-692.5 187,-692.5 "/>
<text text-anchor="middle" x="160" y="-680.5" font-family="Helvetica,sans-Serif" font-size="10.00"> </text>
</a>
</g>
</g>
<!-- Node6&#45;&gt;Node5 -->
<g id="edge5" class="edge">
<title>Node6&#45;&gt;Node5</title>
<path fill="none" stroke="#404040" d="M157.49,-673.48C157.08,-660.95 157.65,-646.04 161,-633 161.59,-630.69 162.27,-628.37 163.01,-626.05"/>
<polygon fill="none" stroke="#404040" points="163.11,-625.78 161.42,-618.77 167.24,-614.52 168.93,-621.53 163.11,-625.78"/>
<text text-anchor="middle" x="192.5" y="-641.5" font-family="Helvetica,sans-Serif" font-size="10.00"> &#45;m_Registry</text>
</g>
<!-- Node7 -->
<g id="node7" class="node">
<title>Node7</title>
<g id="a_node7"><a xlink:title=" ">
<polygon fill="white" stroke="#bfbfbf" points="218,-673.5 218,-730.5 274,-730.5 274,-673.5 218,-673.5"/>
<text text-anchor="middle" x="246" y="-718.5" font-family="Helvetica,sans-Serif" font-size="10.00">uint32_t</text>
<polyline fill="none" stroke="#bfbfbf" points="218,-711.5 274,-711.5 "/>
<text text-anchor="middle" x="246" y="-699.5" font-family="Helvetica,sans-Serif" font-size="10.00"> </text>
<polyline fill="none" stroke="#bfbfbf" points="218,-692.5 274,-692.5 "/>
<text text-anchor="middle" x="246" y="-680.5" font-family="Helvetica,sans-Serif" font-size="10.00"> </text>
</a>
</g>
</g>
<!-- Node7&#45;&gt;Node5 -->
<g id="edge6" class="edge">
<title>Node7&#45;&gt;Node5</title>
<path fill="none" stroke="#404040" d="M237.91,-673.35C233.98,-659.9 229.05,-643.05 224.14,-626.28"/>
<polygon fill="none" stroke="#404040" points="224.13,-626.24 218.61,-621.6 220.76,-614.72 226.29,-619.36 224.13,-626.24"/>
<text text-anchor="middle" x="282" y="-647" font-family="Helvetica,sans-Serif" font-size="10.00"> &#45;m_ViewportHeight</text>
<text text-anchor="middle" x="282" y="-636" font-family="Helvetica,sans-Serif" font-size="10.00">&#45;m_ViewportWidth</text>
</g>
<!-- Node8 -->
<g id="node8" class="node">
<title>Node8</title>
<g id="a_node8"><a xlink:title=" ">
<polygon fill="white" stroke="#bfbfbf" points="375.5,-524.5 375.5,-581.5 420.5,-581.5 420.5,-524.5 375.5,-524.5"/>
<text text-anchor="middle" x="398" y="-569.5" font-family="Helvetica,sans-Serif" font-size="10.00">entity</text>
<polyline fill="none" stroke="#bfbfbf" points="375.5,-562.5 420.5,-562.5 "/>
<text text-anchor="middle" x="398" y="-550.5" font-family="Helvetica,sans-Serif" font-size="10.00"> </text>
<polyline fill="none" stroke="#bfbfbf" points="375.5,-543.5 420.5,-543.5 "/>
<text text-anchor="middle" x="398" y="-531.5" font-family="Helvetica,sans-Serif" font-size="10.00"> </text>
</a>
</g>
</g>
<!-- Node8&#45;&gt;Node4 -->
<g id="edge7" class="edge">
<title>Node8&#45;&gt;Node4</title>
<path fill="none" stroke="#404040" d="M384.17,-524.26C374.93,-505.75 362.18,-480.18 349.39,-454.53"/>
<polygon fill="none" stroke="#404040" points="349.27,-454.3 343.01,-450.71 343.92,-443.56 350.17,-447.14 349.27,-454.3"/>
<text text-anchor="middle" x="399.5" y="-465" font-family="Helvetica,sans-Serif" font-size="10.00"> &#45;m_EntityHandle</text>
</g>
</g>
</svg>
