<?xml version="1.0" encoding="UTF-8" standalone="no"?>
<!DOCTYPE svg PUBLIC "-//W3C//DTD SVG 1.1//EN"
 "http://www.w3.org/Graphics/SVG/1.1/DTD/svg11.dtd">
<!-- Generated by graphviz version 2.43.0 (0)
 -->
<!-- Title: gauri::OrthographicCameraBounds Pages: 1 -->
<svg width="193pt" height="215pt"
 viewBox="0.00 0.00 193.00 215.00" xmlns="http://www.w3.org/2000/svg" xmlns:xlink="http://www.w3.org/1999/xlink">
<g id="graph0" class="graph" transform="scale(1 1) rotate(0) translate(4 211)">
<title>gauri::OrthographicCameraBounds</title>
<polygon fill="white" stroke="transparent" points="-4,4 -4,-211 189,-211 189,4 -4,4"/>
<!-- Node1 -->
<g id="node1" class="node">
<title>Node1</title>
<g id="a_node1"><a xlink:title=" ">
<polygon fill="#bfbfbf" stroke="black" points="0,-0.5 0,-68.5 185,-68.5 185,-0.5 0,-0.5"/>
<text text-anchor="middle" x="92.5" y="-56.5" font-family="Helvetica,sans-Serif" font-size="10.00">gauri::OrthographicCameraBounds</text>
<polyline fill="none" stroke="black" points="0,-49.5 185,-49.5 "/>
<text text-anchor="middle" x="92.5" y="-37.5" font-family="Helvetica,sans-Serif" font-size="10.00"> </text>
<polyline fill="none" stroke="black" points="0,-30.5 185,-30.5 "/>
<text text-anchor="start" x="8" y="-18.5" font-family="Helvetica,sans-Serif" font-size="10.00">+ float GetWidth()</text>
<text text-anchor="start" x="8" y="-7.5" font-family="Helvetica,sans-Serif" font-size="10.00">+ float GetHeight()</text>
</a>
</g>
</g>
<!-- Node2 -->
<g id="node2" class="node">
<title>Node2</title>
<g id="a_node2"><a xlink:title=" ">
<polygon fill="white" stroke="#bfbfbf" points="73.5,-149.5 73.5,-206.5 111.5,-206.5 111.5,-149.5 73.5,-149.5"/>
<text text-anchor="middle" x="92.5" y="-194.5" font-family="Helvetica,sans-Serif" font-size="10.00">float</text>
<polyline fill="none" stroke="#bfbfbf" points="73.5,-187.5 111.5,-187.5 "/>
<text text-anchor="middle" x="92.5" y="-175.5" font-family="Helvetica,sans-Serif" font-size="10.00"> </text>
<polyline fill="none" stroke="#bfbfbf" points="73.5,-168.5 111.5,-168.5 "/>
<text text-anchor="middle" x="92.5" y="-156.5" font-family="Helvetica,sans-Serif" font-size="10.00"> </text>
</a>
</g>
</g>
<!-- Node2&#45;&gt;Node1 -->
<g id="edge1" class="edge">
<title>Node2&#45;&gt;Node1</title>
<path fill="none" stroke="#404040" d="M92.5,-149.38C92.5,-129.84 92.5,-103.19 92.5,-80.59"/>
<polygon fill="none" stroke="#404040" points="92.5,-80.52 88.5,-74.52 92.5,-68.52 96.5,-74.52 92.5,-80.52"/>
<text text-anchor="middle" x="116.5" y="-123" font-family="Helvetica,sans-Serif" font-size="10.00"> +Bottom</text>
<text text-anchor="middle" x="116.5" y="-112" font-family="Helvetica,sans-Serif" font-size="10.00">+Left</text>
<text text-anchor="middle" x="116.5" y="-101" font-family="Helvetica,sans-Serif" font-size="10.00">+Right</text>
<text text-anchor="middle" x="116.5" y="-90" font-family="Helvetica,sans-Serif" font-size="10.00">+Top</text>
</g>
</g>
</svg>
