<?xml version="1.0" encoding="UTF-8" standalone="no"?>
<!DOCTYPE svg PUBLIC "-//W3C//DTD SVG 1.1//EN"
 "http://www.w3.org/Graphics/SVG/1.1/DTD/svg11.dtd">
<!-- Generated by graphviz version 2.43.0 (0)
 -->
<!-- Title: gauri::TransformComponent Pages: 1 -->
<svg width="336pt" height="226pt"
 viewBox="0.00 0.00 336.00 226.00" xmlns="http://www.w3.org/2000/svg" xmlns:xlink="http://www.w3.org/1999/xlink">
<g id="graph0" class="graph" transform="scale(1 1) rotate(0) translate(4 222)">
<title>gauri::TransformComponent</title>
<polygon fill="white" stroke="transparent" points="-4,4 -4,-222 332,-222 332,4 -4,4"/>
<!-- Node1 -->
<g id="node1" class="node">
<title>Node1</title>
<g id="a_node1"><a xlink:title=" ">
<polygon fill="#bfbfbf" stroke="black" points="0,-0.5 0,-90.5 328,-90.5 328,-0.5 0,-0.5"/>
<text text-anchor="middle" x="164" y="-78.5" font-family="Helvetica,sans-Serif" font-size="10.00">gauri::TransformComponent</text>
<polyline fill="none" stroke="black" points="0,-71.5 328,-71.5 "/>
<text text-anchor="middle" x="164" y="-59.5" font-family="Helvetica,sans-Serif" font-size="10.00"> </text>
<polyline fill="none" stroke="black" points="0,-52.5 328,-52.5 "/>
<text text-anchor="start" x="8" y="-40.5" font-family="Helvetica,sans-Serif" font-size="10.00">+ TransformComponent()=default</text>
<text text-anchor="start" x="8" y="-29.5" font-family="Helvetica,sans-Serif" font-size="10.00">+ TransformComponent(const TransformComponent &amp;)=default</text>
<text text-anchor="start" x="8" y="-18.5" font-family="Helvetica,sans-Serif" font-size="10.00">+ TransformComponent(const glm::vec3 &amp;translation)</text>
<text text-anchor="start" x="8" y="-7.5" font-family="Helvetica,sans-Serif" font-size="10.00">+ glm::mat4 GetTransform() const</text>
</a>
</g>
</g>
<!-- Node2 -->
<g id="node2" class="node">
<title>Node2</title>
<g id="a_node2"><a xlink:title=" ">
<polygon fill="white" stroke="#bfbfbf" points="144,-160.5 144,-217.5 184,-217.5 184,-160.5 144,-160.5"/>
<text text-anchor="middle" x="164" y="-205.5" font-family="Helvetica,sans-Serif" font-size="10.00">vec3</text>
<polyline fill="none" stroke="#bfbfbf" points="144,-198.5 184,-198.5 "/>
<text text-anchor="middle" x="164" y="-186.5" font-family="Helvetica,sans-Serif" font-size="10.00"> </text>
<polyline fill="none" stroke="#bfbfbf" points="144,-179.5 184,-179.5 "/>
<text text-anchor="middle" x="164" y="-167.5" font-family="Helvetica,sans-Serif" font-size="10.00"> </text>
</a>
</g>
</g>
<!-- Node2&#45;&gt;Node1 -->
<g id="edge1" class="edge">
<title>Node2&#45;&gt;Node1</title>
<path fill="none" stroke="#404040" d="M164,-160.38C164,-144 164,-122.62 164,-102.82"/>
<polygon fill="none" stroke="#404040" points="164,-102.75 160,-96.75 164,-90.75 168,-96.75 164,-102.75"/>
<text text-anchor="middle" x="195" y="-134" font-family="Helvetica,sans-Serif" font-size="10.00"> +Rotation</text>
<text text-anchor="middle" x="195" y="-123" font-family="Helvetica,sans-Serif" font-size="10.00">+Scale</text>
<text text-anchor="middle" x="195" y="-112" font-family="Helvetica,sans-Serif" font-size="10.00">+Translation</text>
</g>
</g>
</svg>
