<?xml version="1.0" encoding="UTF-8" standalone="no"?>
<!DOCTYPE svg PUBLIC "-//W3C//DTD SVG 1.1//EN"
 "http://www.w3.org/Graphics/SVG/1.1/DTD/svg11.dtd">
<!-- Generated by graphviz version 2.43.0 (0)
 -->
<!-- Title: gauri::FrameBufferSpecification Pages: 1 -->
<svg width="698pt" height="530pt"
 viewBox="0.00 0.00 698.00 530.00" xmlns="http://www.w3.org/2000/svg" xmlns:xlink="http://www.w3.org/1999/xlink">
<g id="graph0" class="graph" transform="scale(1 1) rotate(0) translate(4 526)">
<title>gauri::FrameBufferSpecification</title>
<polygon fill="white" stroke="transparent" points="-4,4 -4,-526 694,-526 694,4 -4,4"/>
<!-- Node1 -->
<g id="node1" class="node">
<title>Node1</title>
<g id="a_node1"><a xlink:title=" ">
<polygon fill="#bfbfbf" stroke="black" points="17,-0.5 17,-57.5 187,-57.5 187,-0.5 17,-0.5"/>
<text text-anchor="middle" x="102" y="-45.5" font-family="Helvetica,sans-Serif" font-size="10.00">gauri::FrameBufferSpecification</text>
<polyline fill="none" stroke="black" points="17,-38.5 187,-38.5 "/>
<text text-anchor="middle" x="102" y="-26.5" font-family="Helvetica,sans-Serif" font-size="10.00"> </text>
<polyline fill="none" stroke="black" points="17,-19.5 187,-19.5 "/>
<text text-anchor="middle" x="102" y="-7.5" font-family="Helvetica,sans-Serif" font-size="10.00"> </text>
</a>
</g>
</g>
<!-- Node2 -->
<g id="node2" class="node">
<title>Node2</title>
<g id="a_node2"><a xlink:title=" ">
<polygon fill="white" stroke="#bfbfbf" points="0,-133 0,-190 56,-190 56,-133 0,-133"/>
<text text-anchor="middle" x="28" y="-178" font-family="Helvetica,sans-Serif" font-size="10.00">uint32_t</text>
<polyline fill="none" stroke="#bfbfbf" points="0,-171 56,-171 "/>
<text text-anchor="middle" x="28" y="-159" font-family="Helvetica,sans-Serif" font-size="10.00"> </text>
<polyline fill="none" stroke="#bfbfbf" points="0,-152 56,-152 "/>
<text text-anchor="middle" x="28" y="-140" font-family="Helvetica,sans-Serif" font-size="10.00"> </text>
</a>
</g>
</g>
<!-- Node2&#45;&gt;Node1 -->
<g id="edge1" class="edge">
<title>Node2&#45;&gt;Node1</title>
<path fill="none" stroke="#404040" d="M29.68,-132.94C31.79,-115.55 36.51,-93.2 47,-76 49.04,-72.65 51.41,-69.43 54,-66.36"/>
<polygon fill="none" stroke="#404040" points="54.06,-66.3 55.29,-59.2 62.32,-57.6 61.09,-64.7 54.06,-66.3"/>
<text text-anchor="middle" x="72.5" y="-101" font-family="Helvetica,sans-Serif" font-size="10.00"> +Height</text>
<text text-anchor="middle" x="72.5" y="-90" font-family="Helvetica,sans-Serif" font-size="10.00">+Samples</text>
<text text-anchor="middle" x="72.5" y="-79" font-family="Helvetica,sans-Serif" font-size="10.00">+Width</text>
</g>
<!-- Node3 -->
<g id="node3" class="node">
<title>Node3</title>
<g id="a_node3"><a xlink:title=" ">
<polygon fill="white" stroke="#bfbfbf" points="83,-133 83,-190 121,-190 121,-133 83,-133"/>
<text text-anchor="middle" x="102" y="-178" font-family="Helvetica,sans-Serif" font-size="10.00">bool</text>
<polyline fill="none" stroke="#bfbfbf" points="83,-171 121,-171 "/>
<text text-anchor="middle" x="102" y="-159" font-family="Helvetica,sans-Serif" font-size="10.00"> </text>
<polyline fill="none" stroke="#bfbfbf" points="83,-152 121,-152 "/>
<text text-anchor="middle" x="102" y="-140" font-family="Helvetica,sans-Serif" font-size="10.00"> </text>
</a>
</g>
</g>
<!-- Node3&#45;&gt;Node1 -->
<g id="edge2" class="edge">
<title>Node3&#45;&gt;Node1</title>
<path fill="none" stroke="#404040" d="M102,-132.82C102,-114.48 102,-90.14 102,-69.74"/>
<polygon fill="none" stroke="#404040" points="102,-69.64 98,-63.64 102,-57.64 106,-63.64 102,-69.64"/>
<text text-anchor="middle" x="150" y="-90" font-family="Helvetica,sans-Serif" font-size="10.00"> +SwapChainTarget</text>
</g>
<!-- Node4 -->
<g id="node4" class="node">
<title>Node4</title>
<g id="a_node4"><a xlink:href="structgauri_1_1FrameBufferAttachmentSpecification.html" target="_top" xlink:title=" ">
<polygon fill="white" stroke="black" points="139.5,-127.5 139.5,-195.5 686.5,-195.5 686.5,-127.5 139.5,-127.5"/>
<text text-anchor="middle" x="413" y="-183.5" font-family="Helvetica,sans-Serif" font-size="10.00">gauri::FrameBufferAttachmentSpecification</text>
<polyline fill="none" stroke="black" points="139.5,-176.5 686.5,-176.5 "/>
<text text-anchor="middle" x="413" y="-164.5" font-family="Helvetica,sans-Serif" font-size="10.00"> </text>
<polyline fill="none" stroke="black" points="139.5,-157.5 686.5,-157.5 "/>
<text text-anchor="start" x="147.5" y="-145.5" font-family="Helvetica,sans-Serif" font-size="10.00">+ FrameBufferAttachmentSpecification()=default</text>
<text text-anchor="start" x="147.5" y="-134.5" font-family="Helvetica,sans-Serif" font-size="10.00">+ FrameBufferAttachmentSpecification(std::initializer_list&lt; FrameBufferTextureSpecification &gt; attachments)</text>
</a>
</g>
</g>
<!-- Node4&#45;&gt;Node1 -->
<g id="edge3" class="edge">
<title>Node4&#45;&gt;Node1</title>
<path fill="none" stroke="#404040" d="M334.12,-127.4C286.47,-107.41 226.03,-82.04 178.77,-62.21"/>
<polygon fill="none" stroke="#404040" points="178.73,-62.2 171.65,-63.57 167.67,-57.56 174.75,-56.19 178.73,-62.2"/>
<text text-anchor="middle" x="323" y="-90" font-family="Helvetica,sans-Serif" font-size="10.00"> +Attachments</text>
</g>
<!-- Node5 -->
<g id="node5" class="node">
<title>Node5</title>
<g id="a_node5"><a xlink:title=" ">
<polygon fill="white" stroke="#bfbfbf" points="273,-243.5 273,-300.5 553,-300.5 553,-243.5 273,-243.5"/>
<text text-anchor="middle" x="413" y="-288.5" font-family="Helvetica,sans-Serif" font-size="10.00">std::vector&lt; gauri::FrameBufferTextureSpecification &gt;</text>
<polyline fill="none" stroke="#bfbfbf" points="273,-281.5 553,-281.5 "/>
<text text-anchor="middle" x="413" y="-269.5" font-family="Helvetica,sans-Serif" font-size="10.00"> </text>
<polyline fill="none" stroke="#bfbfbf" points="273,-262.5 553,-262.5 "/>
<text text-anchor="middle" x="413" y="-250.5" font-family="Helvetica,sans-Serif" font-size="10.00"> </text>
</a>
</g>
</g>
<!-- Node5&#45;&gt;Node4 -->
<g id="edge4" class="edge">
<title>Node5&#45;&gt;Node4</title>
<path fill="none" stroke="#404040" d="M413,-243.34C413,-232.53 413,-219.85 413,-207.77"/>
<polygon fill="none" stroke="#404040" points="413,-207.52 409,-201.52 413,-195.52 417,-201.52 413,-207.52"/>
<text text-anchor="middle" x="450" y="-217" font-family="Helvetica,sans-Serif" font-size="10.00"> +Attachments</text>
</g>
<!-- Node6 -->
<g id="node6" class="node">
<title>Node6</title>
<g id="a_node6"><a xlink:href="structgauri_1_1FrameBufferTextureSpecification.html" target="_top" xlink:title=" ">
<polygon fill="white" stroke="black" points="110,-348.5 110,-416.5 470,-416.5 470,-348.5 110,-348.5"/>
<text text-anchor="middle" x="290" y="-404.5" font-family="Helvetica,sans-Serif" font-size="10.00">gauri::FrameBufferTextureSpecification</text>
<polyline fill="none" stroke="black" points="110,-397.5 470,-397.5 "/>
<text text-anchor="middle" x="290" y="-385.5" font-family="Helvetica,sans-Serif" font-size="10.00"> </text>
<polyline fill="none" stroke="black" points="110,-378.5 470,-378.5 "/>
<text text-anchor="start" x="118" y="-366.5" font-family="Helvetica,sans-Serif" font-size="10.00">+ FrameBufferTextureSpecification()=default</text>
<text text-anchor="start" x="118" y="-355.5" font-family="Helvetica,sans-Serif" font-size="10.00">+ FrameBufferTextureSpecification(FrameBufferTextureFormat format)</text>
</a>
</g>
</g>
<!-- Node6&#45;&gt;Node5 -->
<g id="edge5" class="edge">
<title>Node6&#45;&gt;Node5</title>
<path fill="none" stroke="#404040" d="M327.57,-348.36C341.71,-335.88 357.85,-321.65 372.27,-308.93"/>
<polygon fill="none" stroke="#404040" points="372.46,-308.77 374.31,-301.8 381.45,-300.83 379.6,-307.8 372.46,-308.77"/>
<text text-anchor="middle" x="388" y="-322" font-family="Helvetica,sans-Serif" font-size="10.00"> +elements</text>
</g>
<!-- Node7 -->
<g id="node7" class="node">
<title>Node7</title>
<g id="a_node7"><a xlink:title=" ">
<polygon fill="white" stroke="#bfbfbf" points="216.5,-464.5 216.5,-521.5 363.5,-521.5 363.5,-464.5 216.5,-464.5"/>
<text text-anchor="middle" x="290" y="-509.5" font-family="Helvetica,sans-Serif" font-size="10.00">FrameBufferTextureFormat</text>
<polyline fill="none" stroke="#bfbfbf" points="216.5,-502.5 363.5,-502.5 "/>
<text text-anchor="middle" x="290" y="-490.5" font-family="Helvetica,sans-Serif" font-size="10.00"> </text>
<polyline fill="none" stroke="#bfbfbf" points="216.5,-483.5 363.5,-483.5 "/>
<text text-anchor="middle" x="290" y="-471.5" font-family="Helvetica,sans-Serif" font-size="10.00"> </text>
</a>
</g>
</g>
<!-- Node7&#45;&gt;Node6 -->
<g id="edge6" class="edge">
<title>Node7&#45;&gt;Node6</title>
<path fill="none" stroke="#404040" d="M290,-464.34C290,-453.53 290,-440.85 290,-428.77"/>
<polygon fill="none" stroke="#404040" points="290,-428.52 286,-422.52 290,-416.52 294,-422.52 290,-428.52"/>
<text text-anchor="middle" x="331" y="-438" font-family="Helvetica,sans-Serif" font-size="10.00"> +TextureFormat</text>
</g>
<!-- Node8 -->
<g id="node8" class="node">
<title>Node8</title>
<g id="a_node8"><a xlink:title=" ">
<polygon fill="white" stroke="#bfbfbf" points="488.5,-354 488.5,-411 585.5,-411 585.5,-354 488.5,-354"/>
<text text-anchor="middle" x="537" y="-399" font-family="Helvetica,sans-Serif" font-size="10.00">std::vector&lt; T &gt;</text>
<polyline fill="none" stroke="#bfbfbf" points="488.5,-392 585.5,-392 "/>
<text text-anchor="middle" x="537" y="-380" font-family="Helvetica,sans-Serif" font-size="10.00"> </text>
<polyline fill="none" stroke="#bfbfbf" points="488.5,-373 585.5,-373 "/>
<text text-anchor="middle" x="537" y="-361" font-family="Helvetica,sans-Serif" font-size="10.00"> </text>
</a>
</g>
</g>
<!-- Node8&#45;&gt;Node5 -->
<g id="edge7" class="edge">
<title>Node8&#45;&gt;Node5</title>
<path fill="none" stroke="orange" d="M497.72,-347.13C480.57,-332.12 460.72,-314.76 444.55,-300.61"/>
<polygon fill="orange" stroke="orange" points="495.56,-349.89 505.39,-353.84 500.17,-344.62 495.56,-349.89"/>
<text text-anchor="middle" x="582.5" y="-322" font-family="Helvetica,sans-Serif" font-size="10.00"> &lt; gauri::FrameBufferTextureSpecification &gt;</text>
</g>
<!-- Node9 -->
<g id="node9" class="node">
<title>Node9</title>
<g id="a_node9"><a xlink:title=" ">
<polygon fill="white" stroke="#bfbfbf" points="522.5,-464.5 522.5,-521.5 551.5,-521.5 551.5,-464.5 522.5,-464.5"/>
<text text-anchor="middle" x="537" y="-509.5" font-family="Helvetica,sans-Serif" font-size="10.00">T</text>
<polyline fill="none" stroke="#bfbfbf" points="522.5,-502.5 551.5,-502.5 "/>
<text text-anchor="middle" x="537" y="-490.5" font-family="Helvetica,sans-Serif" font-size="10.00"> </text>
<polyline fill="none" stroke="#bfbfbf" points="522.5,-483.5 551.5,-483.5 "/>
<text text-anchor="middle" x="537" y="-471.5" font-family="Helvetica,sans-Serif" font-size="10.00"> </text>
</a>
</g>
</g>
<!-- Node9&#45;&gt;Node8 -->
<g id="edge8" class="edge">
<title>Node9&#45;&gt;Node8</title>
<path fill="none" stroke="#404040" d="M537,-464.34C537,-451.84 537,-436.84 537,-423.18"/>
<polygon fill="none" stroke="#404040" points="537,-423.11 533,-417.11 537,-411.11 541,-417.11 537,-423.11"/>
<text text-anchor="middle" x="566" y="-438" font-family="Helvetica,sans-Serif" font-size="10.00"> +elements</text>
</g>
</g>
</svg>
