<?xml version="1.0" encoding="UTF-8" standalone="no"?>
<!DOCTYPE svg PUBLIC "-//W3C//DTD SVG 1.1//EN"
 "http://www.w3.org/Graphics/SVG/1.1/DTD/svg11.dtd">
<!-- Generated by graphviz version 2.43.0 (0)
 -->
<!-- Title: gauri::InstrumentationSession Pages: 1 -->
<svg width="171pt" height="266pt"
 viewBox="0.00 0.00 171.00 266.00" xmlns="http://www.w3.org/2000/svg" xmlns:xlink="http://www.w3.org/1999/xlink">
<g id="graph0" class="graph" transform="scale(1 1) rotate(0) translate(4 262)">
<title>gauri::InstrumentationSession</title>
<polygon fill="white" stroke="transparent" points="-4,4 -4,-262 167,-262 167,4 -4,4"/>
<!-- Node1 -->
<g id="node1" class="node">
<title>Node1</title>
<g id="a_node1"><a xlink:title=" ">
<polygon fill="#bfbfbf" stroke="black" points="0,-0.5 0,-57.5 163,-57.5 163,-0.5 0,-0.5"/>
<text text-anchor="middle" x="81.5" y="-45.5" font-family="Helvetica,sans-Serif" font-size="10.00">gauri::InstrumentationSession</text>
<polyline fill="none" stroke="black" points="0,-38.5 163,-38.5 "/>
<text text-anchor="middle" x="81.5" y="-26.5" font-family="Helvetica,sans-Serif" font-size="10.00"> </text>
<polyline fill="none" stroke="black" points="0,-19.5 163,-19.5 "/>
<text text-anchor="middle" x="81.5" y="-7.5" font-family="Helvetica,sans-Serif" font-size="10.00"> </text>
</a>
</g>
</g>
<!-- Node2 -->
<g id="node2" class="node">
<title>Node2</title>
<g id="a_node2"><a xlink:title=" ">
<polygon fill="white" stroke="#bfbfbf" points="49,-105.5 49,-162.5 114,-162.5 114,-105.5 49,-105.5"/>
<text text-anchor="middle" x="81.5" y="-150.5" font-family="Helvetica,sans-Serif" font-size="10.00">std::string</text>
<polyline fill="none" stroke="#bfbfbf" points="49,-143.5 114,-143.5 "/>
<text text-anchor="middle" x="81.5" y="-131.5" font-family="Helvetica,sans-Serif" font-size="10.00"> </text>
<polyline fill="none" stroke="#bfbfbf" points="49,-124.5 114,-124.5 "/>
<text text-anchor="middle" x="81.5" y="-112.5" font-family="Helvetica,sans-Serif" font-size="10.00"> </text>
</a>
</g>
</g>
<!-- Node2&#45;&gt;Node1 -->
<g id="edge1" class="edge">
<title>Node2&#45;&gt;Node1</title>
<path fill="none" stroke="#404040" d="M81.5,-105.4C81.5,-94.55 81.5,-81.87 81.5,-70.05"/>
<polygon fill="none" stroke="#404040" points="81.5,-69.68 77.5,-63.68 81.5,-57.68 85.5,-63.68 81.5,-69.68"/>
<text text-anchor="middle" x="102" y="-79" font-family="Helvetica,sans-Serif" font-size="10.00"> +Name</text>
</g>
<!-- Node3 -->
<g id="node3" class="node">
<title>Node3</title>
<g id="a_node3"><a xlink:title=" ">
<polygon fill="white" stroke="#bfbfbf" points="11,-200.5 11,-257.5 152,-257.5 152,-200.5 11,-200.5"/>
<text text-anchor="middle" x="81.5" y="-245.5" font-family="Helvetica,sans-Serif" font-size="10.00">std::basic_string&lt; Char &gt;</text>
<polyline fill="none" stroke="#bfbfbf" points="11,-238.5 152,-238.5 "/>
<text text-anchor="middle" x="81.5" y="-226.5" font-family="Helvetica,sans-Serif" font-size="10.00"> </text>
<polyline fill="none" stroke="#bfbfbf" points="11,-219.5 152,-219.5 "/>
<text text-anchor="middle" x="81.5" y="-207.5" font-family="Helvetica,sans-Serif" font-size="10.00"> </text>
</a>
</g>
</g>
<!-- Node3&#45;&gt;Node2 -->
<g id="edge2" class="edge">
<title>Node3&#45;&gt;Node2</title>
<path fill="none" stroke="midnightblue" d="M81.5,-190.24C81.5,-181.03 81.5,-171.35 81.5,-162.71"/>
<polygon fill="none" stroke="midnightblue" points="78,-190.35 81.5,-200.35 85,-190.35 78,-190.35"/>
</g>
</g>
</svg>
