<?xml version="1.0" encoding="UTF-8" standalone="no"?>
<!DOCTYPE svg PUBLIC "-//W3C//DTD SVG 1.1//EN"
 "http://www.w3.org/Graphics/SVG/1.1/DTD/svg11.dtd">
<!-- Generated by graphviz version 2.43.0 (0)
 -->
<!-- Title: gauri::Renderer2D::Statistics Pages: 1 -->
<svg width="187pt" height="193pt"
 viewBox="0.00 0.00 187.00 193.00" xmlns="http://www.w3.org/2000/svg" xmlns:xlink="http://www.w3.org/1999/xlink">
<g id="graph0" class="graph" transform="scale(1 1) rotate(0) translate(4 189)">
<title>gauri::Renderer2D::Statistics</title>
<polygon fill="white" stroke="transparent" points="-4,4 -4,-189 183,-189 183,4 -4,4"/>
<!-- Node1 -->
<g id="node1" class="node">
<title>Node1</title>
<g id="a_node1"><a xlink:title=" ">
<polygon fill="#bfbfbf" stroke="black" points="0,-0.5 0,-68.5 179,-68.5 179,-0.5 0,-0.5"/>
<text text-anchor="middle" x="89.5" y="-56.5" font-family="Helvetica,sans-Serif" font-size="10.00">gauri::Renderer2D::Statistics</text>
<polyline fill="none" stroke="black" points="0,-49.5 179,-49.5 "/>
<text text-anchor="middle" x="89.5" y="-37.5" font-family="Helvetica,sans-Serif" font-size="10.00"> </text>
<polyline fill="none" stroke="black" points="0,-30.5 179,-30.5 "/>
<text text-anchor="start" x="8" y="-18.5" font-family="Helvetica,sans-Serif" font-size="10.00">+ uint32_t GetTotalVertexCount()</text>
<text text-anchor="start" x="8" y="-7.5" font-family="Helvetica,sans-Serif" font-size="10.00">+ uint32_t GetTotalIndexCount()</text>
</a>
</g>
</g>
<!-- Node2 -->
<g id="node2" class="node">
<title>Node2</title>
<g id="a_node2"><a xlink:title=" ">
<polygon fill="white" stroke="#bfbfbf" points="61.5,-127.5 61.5,-184.5 117.5,-184.5 117.5,-127.5 61.5,-127.5"/>
<text text-anchor="middle" x="89.5" y="-172.5" font-family="Helvetica,sans-Serif" font-size="10.00">uint32_t</text>
<polyline fill="none" stroke="#bfbfbf" points="61.5,-165.5 117.5,-165.5 "/>
<text text-anchor="middle" x="89.5" y="-153.5" font-family="Helvetica,sans-Serif" font-size="10.00"> </text>
<polyline fill="none" stroke="#bfbfbf" points="61.5,-146.5 117.5,-146.5 "/>
<text text-anchor="middle" x="89.5" y="-134.5" font-family="Helvetica,sans-Serif" font-size="10.00"> </text>
</a>
</g>
</g>
<!-- Node2&#45;&gt;Node1 -->
<g id="edge1" class="edge">
<title>Node2&#45;&gt;Node1</title>
<path fill="none" stroke="#404040" d="M89.5,-127.28C89.5,-113.47 89.5,-96.4 89.5,-80.75"/>
<polygon fill="none" stroke="#404040" points="89.5,-80.59 85.5,-74.59 89.5,-68.59 93.5,-74.59 89.5,-80.59"/>
<text text-anchor="middle" x="121" y="-101" font-family="Helvetica,sans-Serif" font-size="10.00"> +DrawCalls</text>
<text text-anchor="middle" x="121" y="-90" font-family="Helvetica,sans-Serif" font-size="10.00">+QuadCount</text>
</g>
</g>
</svg>
