<?xml version="1.0" encoding="UTF-8" standalone="no"?>
<!DOCTYPE svg PUBLIC "-//W3C//DTD SVG 1.1//EN"
 "http://www.w3.org/Graphics/SVG/1.1/DTD/svg11.dtd">
<!-- Generated by graphviz version 2.43.0 (0)
 -->
<!-- Title: gauri::FrameBufferAttachmentSpecification Pages: 1 -->
<svg width="588pt" height="403pt"
 viewBox="0.00 0.00 588.00 403.00" xmlns="http://www.w3.org/2000/svg" xmlns:xlink="http://www.w3.org/1999/xlink">
<g id="graph0" class="graph" transform="scale(1 1) rotate(0) translate(4 399)">
<title>gauri::FrameBufferAttachmentSpecification</title>
<polygon fill="white" stroke="transparent" points="-4,4 -4,-399 584,-399 584,4 -4,4"/>
<!-- Node1 -->
<g id="node1" class="node">
<title>Node1</title>
<g id="a_node1"><a xlink:title=" ">
<polygon fill="#bfbfbf" stroke="black" points="29.5,-0.5 29.5,-68.5 576.5,-68.5 576.5,-0.5 29.5,-0.5"/>
<text text-anchor="middle" x="303" y="-56.5" font-family="Helvetica,sans-Serif" font-size="10.00">gauri::FrameBufferAttachmentSpecification</text>
<polyline fill="none" stroke="black" points="29.5,-49.5 576.5,-49.5 "/>
<text text-anchor="middle" x="303" y="-37.5" font-family="Helvetica,sans-Serif" font-size="10.00"> </text>
<polyline fill="none" stroke="black" points="29.5,-30.5 576.5,-30.5 "/>
<text text-anchor="start" x="37.5" y="-18.5" font-family="Helvetica,sans-Serif" font-size="10.00">+ FrameBufferAttachmentSpecification()=default</text>
<text text-anchor="start" x="37.5" y="-7.5" font-family="Helvetica,sans-Serif" font-size="10.00">+ FrameBufferAttachmentSpecification(std::initializer_list&lt; FrameBufferTextureSpecification &gt; attachments)</text>
</a>
</g>
</g>
<!-- Node2 -->
<g id="node2" class="node">
<title>Node2</title>
<g id="a_node2"><a xlink:title=" ">
<polygon fill="white" stroke="#bfbfbf" points="163,-116.5 163,-173.5 443,-173.5 443,-116.5 163,-116.5"/>
<text text-anchor="middle" x="303" y="-161.5" font-family="Helvetica,sans-Serif" font-size="10.00">std::vector&lt; gauri::FrameBufferTextureSpecification &gt;</text>
<polyline fill="none" stroke="#bfbfbf" points="163,-154.5 443,-154.5 "/>
<text text-anchor="middle" x="303" y="-142.5" font-family="Helvetica,sans-Serif" font-size="10.00"> </text>
<polyline fill="none" stroke="#bfbfbf" points="163,-135.5 443,-135.5 "/>
<text text-anchor="middle" x="303" y="-123.5" font-family="Helvetica,sans-Serif" font-size="10.00"> </text>
</a>
</g>
</g>
<!-- Node2&#45;&gt;Node1 -->
<g id="edge1" class="edge">
<title>Node2&#45;&gt;Node1</title>
<path fill="none" stroke="#404040" d="M303,-116.34C303,-105.53 303,-92.85 303,-80.77"/>
<polygon fill="none" stroke="#404040" points="303,-80.52 299,-74.52 303,-68.52 307,-74.52 303,-80.52"/>
<text text-anchor="middle" x="340" y="-90" font-family="Helvetica,sans-Serif" font-size="10.00"> +Attachments</text>
</g>
<!-- Node3 -->
<g id="node3" class="node">
<title>Node3</title>
<g id="a_node3"><a xlink:href="structgauri_1_1FrameBufferTextureSpecification.html" target="_top" xlink:title=" ">
<polygon fill="white" stroke="black" points="0,-221.5 0,-289.5 360,-289.5 360,-221.5 0,-221.5"/>
<text text-anchor="middle" x="180" y="-277.5" font-family="Helvetica,sans-Serif" font-size="10.00">gauri::FrameBufferTextureSpecification</text>
<polyline fill="none" stroke="black" points="0,-270.5 360,-270.5 "/>
<text text-anchor="middle" x="180" y="-258.5" font-family="Helvetica,sans-Serif" font-size="10.00"> </text>
<polyline fill="none" stroke="black" points="0,-251.5 360,-251.5 "/>
<text text-anchor="start" x="8" y="-239.5" font-family="Helvetica,sans-Serif" font-size="10.00">+ FrameBufferTextureSpecification()=default</text>
<text text-anchor="start" x="8" y="-228.5" font-family="Helvetica,sans-Serif" font-size="10.00">+ FrameBufferTextureSpecification(FrameBufferTextureFormat format)</text>
</a>
</g>
</g>
<!-- Node3&#45;&gt;Node2 -->
<g id="edge2" class="edge">
<title>Node3&#45;&gt;Node2</title>
<path fill="none" stroke="#404040" d="M217.57,-221.36C231.71,-208.88 247.85,-194.65 262.27,-181.93"/>
<polygon fill="none" stroke="#404040" points="262.46,-181.77 264.31,-174.8 271.45,-173.83 269.6,-180.8 262.46,-181.77"/>
<text text-anchor="middle" x="278" y="-195" font-family="Helvetica,sans-Serif" font-size="10.00"> +elements</text>
</g>
<!-- Node4 -->
<g id="node4" class="node">
<title>Node4</title>
<g id="a_node4"><a xlink:title=" ">
<polygon fill="white" stroke="#bfbfbf" points="106.5,-337.5 106.5,-394.5 253.5,-394.5 253.5,-337.5 106.5,-337.5"/>
<text text-anchor="middle" x="180" y="-382.5" font-family="Helvetica,sans-Serif" font-size="10.00">FrameBufferTextureFormat</text>
<polyline fill="none" stroke="#bfbfbf" points="106.5,-375.5 253.5,-375.5 "/>
<text text-anchor="middle" x="180" y="-363.5" font-family="Helvetica,sans-Serif" font-size="10.00"> </text>
<polyline fill="none" stroke="#bfbfbf" points="106.5,-356.5 253.5,-356.5 "/>
<text text-anchor="middle" x="180" y="-344.5" font-family="Helvetica,sans-Serif" font-size="10.00"> </text>
</a>
</g>
</g>
<!-- Node4&#45;&gt;Node3 -->
<g id="edge3" class="edge">
<title>Node4&#45;&gt;Node3</title>
<path fill="none" stroke="#404040" d="M180,-337.34C180,-326.53 180,-313.85 180,-301.77"/>
<polygon fill="none" stroke="#404040" points="180,-301.52 176,-295.52 180,-289.52 184,-295.52 180,-301.52"/>
<text text-anchor="middle" x="221" y="-311" font-family="Helvetica,sans-Serif" font-size="10.00"> +TextureFormat</text>
</g>
<!-- Node5 -->
<g id="node5" class="node">
<title>Node5</title>
<g id="a_node5"><a xlink:title=" ">
<polygon fill="white" stroke="#bfbfbf" points="378.5,-227 378.5,-284 475.5,-284 475.5,-227 378.5,-227"/>
<text text-anchor="middle" x="427" y="-272" font-family="Helvetica,sans-Serif" font-size="10.00">std::vector&lt; T &gt;</text>
<polyline fill="none" stroke="#bfbfbf" points="378.5,-265 475.5,-265 "/>
<text text-anchor="middle" x="427" y="-253" font-family="Helvetica,sans-Serif" font-size="10.00"> </text>
<polyline fill="none" stroke="#bfbfbf" points="378.5,-246 475.5,-246 "/>
<text text-anchor="middle" x="427" y="-234" font-family="Helvetica,sans-Serif" font-size="10.00"> </text>
</a>
</g>
</g>
<!-- Node5&#45;&gt;Node2 -->
<g id="edge4" class="edge">
<title>Node5&#45;&gt;Node2</title>
<path fill="none" stroke="orange" d="M387.72,-220.13C370.57,-205.12 350.72,-187.76 334.55,-173.61"/>
<polygon fill="orange" stroke="orange" points="385.56,-222.89 395.39,-226.84 390.17,-217.62 385.56,-222.89"/>
<text text-anchor="middle" x="472.5" y="-195" font-family="Helvetica,sans-Serif" font-size="10.00"> &lt; gauri::FrameBufferTextureSpecification &gt;</text>
</g>
<!-- Node6 -->
<g id="node6" class="node">
<title>Node6</title>
<g id="a_node6"><a xlink:title=" ">
<polygon fill="white" stroke="#bfbfbf" points="412.5,-337.5 412.5,-394.5 441.5,-394.5 441.5,-337.5 412.5,-337.5"/>
<text text-anchor="middle" x="427" y="-382.5" font-family="Helvetica,sans-Serif" font-size="10.00">T</text>
<polyline fill="none" stroke="#bfbfbf" points="412.5,-375.5 441.5,-375.5 "/>
<text text-anchor="middle" x="427" y="-363.5" font-family="Helvetica,sans-Serif" font-size="10.00"> </text>
<polyline fill="none" stroke="#bfbfbf" points="412.5,-356.5 441.5,-356.5 "/>
<text text-anchor="middle" x="427" y="-344.5" font-family="Helvetica,sans-Serif" font-size="10.00"> </text>
</a>
</g>
</g>
<!-- Node6&#45;&gt;Node5 -->
<g id="edge5" class="edge">
<title>Node6&#45;&gt;Node5</title>
<path fill="none" stroke="#404040" d="M427,-337.34C427,-324.84 427,-309.84 427,-296.18"/>
<polygon fill="none" stroke="#404040" points="427,-296.11 423,-290.11 427,-284.11 431,-290.11 427,-296.11"/>
<text text-anchor="middle" x="456" y="-311" font-family="Helvetica,sans-Serif" font-size="10.00"> +elements</text>
</g>
</g>
</svg>
