<?xml version="1.0" encoding="UTF-8" standalone="no"?>
<!DOCTYPE svg PUBLIC "-//W3C//DTD SVG 1.1//EN"
 "http://www.w3.org/Graphics/SVG/1.1/DTD/svg11.dtd">
<!-- Generated by graphviz version 2.43.0 (0)
 -->
<!-- Title: gauri::CameraComponent Pages: 1 -->
<!--zoomable 535 -->
<svg id="main" version="1.1" xmlns="http://www.w3.org/2000/svg" xmlns:xlink="http://www.w3.org/1999/xlink" xml:space="preserve" onload="init(evt)">
<style type="text/css"><![CDATA[
.edge:hover path { stroke: red; }
.edge:hover polygon { stroke: red; fill: red; }
]]></style>
<script type="text/javascript"><![CDATA[
var edges = document.getElementsByTagName('g');
if (edges && edges.length) {
  for (var i=0;i<edges.length;i++) {
    if (edges[i].id.substr(0,4)=='edge') {
      edges[i].setAttribute('class','edge');
    }
  }
}
]]></script>
        <defs>
                <circle id="rim" cx="0" cy="0" r="7"/>
                <circle id="rim2" cx="0" cy="0" r="3.5"/>
                <g id="zoomPlus">
                        <use xlink:href="#rim" fill="#404040">
                                <set attributeName="fill" to="#808080" begin="zoomplus.mouseover" end="zoomplus.mouseout"/>
                        </use>
                        <path d="M-4,0h8M0,-4v8" fill="none" stroke="white" stroke-width="1.5" pointer-events="none"/>
                </g>
                <g id="zoomMin">
                        <use xlink:href="#rim" fill="#404040">
                                <set attributeName="fill" to="#808080" begin="zoomminus.mouseover" end="zoomminus.mouseout"/>
                        </use>
                        <path d="M-4,0h8" fill="none" stroke="white" stroke-width="1.5" pointer-events="none"/>
                </g>
                <g id="dirArrow">
                        <path fill="none" stroke="white" stroke-width="1.5" d="M0,-3.0v7 M-2.5,-0.5L0,-3.0L2.5,-0.5"/>
                </g>
               <g id="resetDef">
                       <use xlink:href="#rim2" fill="#404040">
                               <set attributeName="fill" to="#808080" begin="reset.mouseover" end="reset.mouseout"/>
                       </use>
               </g>
        </defs>

<script type="text/javascript">
var viewWidth = 446;
var viewHeight = 535;
var sectionId = 'dynsection-0';
</script>
<script xlink:href="svgpan.js"/>
<svg id="graph" class="graph">
<g id="viewport">
<title>gauri::CameraComponent</title>
<polygon fill="white" stroke="transparent" points="-4,4 -4,-531 442,-531 442,4 -4,4"/>
<!-- Node1 -->
<g id="node1" class="node">
<title>Node1</title>
<g id="a_node1"><a xlink:title=" ">
<polygon fill="#bfbfbf" stroke="black" points="130.5,-0.5 130.5,-68.5 437.5,-68.5 437.5,-0.5 130.5,-0.5"/>
<text text-anchor="middle" x="284" y="-56.5" font-family="Helvetica,sans-Serif" font-size="10.00">gauri::CameraComponent</text>
<polyline fill="none" stroke="black" points="130.5,-49.5 437.5,-49.5 "/>
<text text-anchor="middle" x="284" y="-37.5" font-family="Helvetica,sans-Serif" font-size="10.00"> </text>
<polyline fill="none" stroke="black" points="130.5,-30.5 437.5,-30.5 "/>
<text text-anchor="start" x="138.5" y="-18.5" font-family="Helvetica,sans-Serif" font-size="10.00">+ CameraComponent()=default</text>
<text text-anchor="start" x="138.5" y="-7.5" font-family="Helvetica,sans-Serif" font-size="10.00">+ CameraComponent(const CameraComponent &amp;)=default</text>
</a>
</g>
</g>
<!-- Node2 -->
<g id="node2" class="node">
<title>Node2</title>
<g id="a_node2"><a xlink:href="classgauri_1_1SceneCamera.html" target="_top" xlink:title=" ">
<polygon fill="white" stroke="black" points="27.5,-127.5 27.5,-250.5 344.5,-250.5 344.5,-127.5 27.5,-127.5"/>
<text text-anchor="middle" x="186" y="-238.5" font-family="Helvetica,sans-Serif" font-size="10.00">gauri::SceneCamera</text>
<polyline fill="none" stroke="black" points="27.5,-231.5 344.5,-231.5 "/>
<text text-anchor="middle" x="186" y="-219.5" font-family="Helvetica,sans-Serif" font-size="10.00"> </text>
<polyline fill="none" stroke="black" points="27.5,-212.5 344.5,-212.5 "/>
<text text-anchor="start" x="35.5" y="-200.5" font-family="Helvetica,sans-Serif" font-size="10.00">+ SceneCamera()</text>
<text text-anchor="start" x="35.5" y="-189.5" font-family="Helvetica,sans-Serif" font-size="10.00">+ ~SceneCamera() override=default</text>
<text text-anchor="start" x="35.5" y="-178.5" font-family="Helvetica,sans-Serif" font-size="10.00">+ void SetOrthographic(float size, float nearClip, float farClip)</text>
<text text-anchor="start" x="35.5" y="-167.5" font-family="Helvetica,sans-Serif" font-size="10.00">+ void SetViewportSize(uint32_t width, uint32_t height)</text>
<text text-anchor="start" x="35.5" y="-156.5" font-family="Helvetica,sans-Serif" font-size="10.00">+ float GetOrthographicSize() const</text>
<text text-anchor="start" x="35.5" y="-145.5" font-family="Helvetica,sans-Serif" font-size="10.00">+ void SetOrthographicSize(float size)</text>
<text text-anchor="start" x="35.5" y="-134.5" font-family="Helvetica,sans-Serif" font-size="10.00">&#45; void RecalculateProjection()</text>
</a>
</g>
</g>
<!-- Node2&#45;&gt;Node1 -->
<g id="edge1" class="edge">
<title>Node2&#45;&gt;Node1</title>
<path fill="none" stroke="#404040" d="M225.01,-127.29C235.32,-111.25 246.25,-94.25 255.86,-79.3"/>
<polygon fill="none" stroke="#404040" points="256.1,-78.91 255.98,-71.7 262.59,-68.81 262.71,-76.02 256.1,-78.91"/>
<text text-anchor="middle" x="275" y="-95.5" font-family="Helvetica,sans-Serif" font-size="10.00"> +Camera</text>
</g>
<!-- Node3 -->
<g id="node3" class="node">
<title>Node3</title>
<g id="a_node3"><a xlink:href="classgauri_1_1Camera.html" target="_top" xlink:title=" ">
<polygon fill="white" stroke="black" points="0,-331.5 0,-421.5 224,-421.5 224,-331.5 0,-331.5"/>
<text text-anchor="middle" x="112" y="-409.5" font-family="Helvetica,sans-Serif" font-size="10.00">gauri::Camera</text>
<polyline fill="none" stroke="black" points="0,-402.5 224,-402.5 "/>
<text text-anchor="middle" x="112" y="-390.5" font-family="Helvetica,sans-Serif" font-size="10.00"> </text>
<polyline fill="none" stroke="black" points="0,-383.5 224,-383.5 "/>
<text text-anchor="start" x="8" y="-371.5" font-family="Helvetica,sans-Serif" font-size="10.00">+ Camera()=default</text>
<text text-anchor="start" x="8" y="-360.5" font-family="Helvetica,sans-Serif" font-size="10.00">+ Camera(const glm::mat4 &amp;projection)</text>
<text text-anchor="start" x="8" y="-349.5" font-family="Helvetica,sans-Serif" font-size="10.00">+ virtual ~Camera()=default</text>
<text text-anchor="start" x="8" y="-338.5" font-family="Helvetica,sans-Serif" font-size="10.00">+ const glm::mat4 &amp; GetProjection() const</text>
</a>
</g>
</g>
<!-- Node3&#45;&gt;Node2 -->
<g id="edge2" class="edge">
<title>Node3&#45;&gt;Node2</title>
<path fill="none" stroke="midnightblue" d="M133.44,-321.76C142.33,-299.47 152.69,-273.51 161.85,-250.55"/>
<polygon fill="none" stroke="midnightblue" points="130.18,-320.48 129.72,-331.07 136.68,-323.08 130.18,-320.48"/>
</g>
<!-- Node4 -->
<g id="node4" class="node">
<title>Node4</title>
<g id="a_node4"><a xlink:title=" ">
<polygon fill="white" stroke="#bfbfbf" points="91,-469.5 91,-526.5 133,-526.5 133,-469.5 91,-469.5"/>
<text text-anchor="middle" x="112" y="-514.5" font-family="Helvetica,sans-Serif" font-size="10.00">mat4</text>
<polyline fill="none" stroke="#bfbfbf" points="91,-507.5 133,-507.5 "/>
<text text-anchor="middle" x="112" y="-495.5" font-family="Helvetica,sans-Serif" font-size="10.00"> </text>
<polyline fill="none" stroke="#bfbfbf" points="91,-488.5 133,-488.5 "/>
<text text-anchor="middle" x="112" y="-476.5" font-family="Helvetica,sans-Serif" font-size="10.00"> </text>
</a>
</g>
</g>
<!-- Node4&#45;&gt;Node3 -->
<g id="edge3" class="edge">
<title>Node4&#45;&gt;Node3</title>
<path fill="none" stroke="#404040" d="M112,-469.28C112,-458.73 112,-446.29 112,-434.03"/>
<polygon fill="none" stroke="#404040" points="112,-433.91 108,-427.91 112,-421.91 116,-427.91 112,-433.91"/>
<text text-anchor="middle" x="150" y="-443" font-family="Helvetica,sans-Serif" font-size="10.00"> #m_Projection</text>
</g>
<!-- Node5 -->
<g id="node5" class="node">
<title>Node5</title>
<g id="a_node5"><a xlink:title=" ">
<polygon fill="white" stroke="#bfbfbf" points="242,-348 242,-405 280,-405 280,-348 242,-348"/>
<text text-anchor="middle" x="261" y="-393" font-family="Helvetica,sans-Serif" font-size="10.00">float</text>
<polyline fill="none" stroke="#bfbfbf" points="242,-386 280,-386 "/>
<text text-anchor="middle" x="261" y="-374" font-family="Helvetica,sans-Serif" font-size="10.00"> </text>
<polyline fill="none" stroke="#bfbfbf" points="242,-367 280,-367 "/>
<text text-anchor="middle" x="261" y="-355" font-family="Helvetica,sans-Serif" font-size="10.00"> </text>
</a>
</g>
</g>
<!-- Node5&#45;&gt;Node2 -->
<g id="edge4" class="edge">
<title>Node5&#45;&gt;Node2</title>
<path fill="none" stroke="#404040" d="M249.77,-347.73C240.6,-325.05 227.23,-291.97 215.09,-261.95"/>
<polygon fill="none" stroke="#404040" points="215.01,-261.75 209.05,-257.68 210.51,-250.62 216.47,-254.68 215.01,-261.75"/>
<text text-anchor="middle" x="288" y="-305" font-family="Helvetica,sans-Serif" font-size="10.00"> &#45;m_AspectRatio</text>
<text text-anchor="middle" x="288" y="-294" font-family="Helvetica,sans-Serif" font-size="10.00">&#45;m_OrthographicFar</text>
<text text-anchor="middle" x="288" y="-283" font-family="Helvetica,sans-Serif" font-size="10.00">&#45;m_OrthographicNear</text>
<text text-anchor="middle" x="288" y="-272" font-family="Helvetica,sans-Serif" font-size="10.00">&#45;m_OrthographicSize</text>
</g>
<!-- Node6 -->
<g id="node6" class="node">
<title>Node6</title>
<g id="a_node6"><a xlink:title=" ">
<polygon fill="white" stroke="#bfbfbf" points="363,-160.5 363,-217.5 401,-217.5 401,-160.5 363,-160.5"/>
<text text-anchor="middle" x="382" y="-205.5" font-family="Helvetica,sans-Serif" font-size="10.00">bool</text>
<polyline fill="none" stroke="#bfbfbf" points="363,-198.5 401,-198.5 "/>
<text text-anchor="middle" x="382" y="-186.5" font-family="Helvetica,sans-Serif" font-size="10.00"> </text>
<polyline fill="none" stroke="#bfbfbf" points="363,-179.5 401,-179.5 "/>
<text text-anchor="middle" x="382" y="-167.5" font-family="Helvetica,sans-Serif" font-size="10.00"> </text>
</a>
</g>
</g>
<!-- Node6&#45;&gt;Node1 -->
<g id="edge5" class="edge">
<title>Node6&#45;&gt;Node1</title>
<path fill="none" stroke="#404040" d="M370.85,-160.31C366.15,-149.63 360.31,-137.48 354,-127 343.93,-110.27 331.37,-93 319.67,-78.02"/>
<polygon fill="none" stroke="#404040" points="319.6,-77.94 312.74,-75.73 312.14,-68.55 319.01,-70.76 319.6,-77.94"/>
<text text-anchor="middle" x="390" y="-101" font-family="Helvetica,sans-Serif" font-size="10.00"> +FixedAspectRatio</text>
<text text-anchor="middle" x="390" y="-90" font-family="Helvetica,sans-Serif" font-size="10.00">+Primary</text>
</g>
</g>
</svg>
        <g id="navigator" transform="translate(0 0)" fill="#404254">
                <rect fill="#f2f5e9" fill-opacity="0.5" stroke="#606060" stroke-width=".5" x="0" y="0" width="60" height="60"/>
                <use id="zoomplus" xlink:href="#zoomPlus" x="17" y="9" onmousedown="handleZoom(evt,'in')"/>
                <use id="zoomminus" xlink:href="#zoomMin" x="42" y="9" onmousedown="handleZoom(evt,'out')"/>
                <use id="reset" xlink:href="#resetDef" x="30" y="36" onmousedown="handleReset()"/>
                <g id="arrowUp" xlink:href="#dirArrow" transform="translate(30 24)" onmousedown="handlePan(0,-1)">
                  <use xlink:href="#rim" fill="#404040">
                        <set attributeName="fill" to="#808080" begin="arrowUp.mouseover" end="arrowUp.mouseout"/>
                  </use>
                  <path fill="none" stroke="white" stroke-width="1.5" d="M0,-3.0v7 M-2.5,-0.5L0,-3.0L2.5,-0.5"/>
                </g>
                <g id="arrowRight" xlink:href="#dirArrow" transform="rotate(90) translate(36 -43)" onmousedown="handlePan(1,0)">
                  <use xlink:href="#rim" fill="#404040">
                        <set attributeName="fill" to="#808080" begin="arrowRight.mouseover" end="arrowRight.mouseout"/>
                  </use>
                  <path fill="none" stroke="white" stroke-width="1.5" d="M0,-3.0v7 M-2.5,-0.5L0,-3.0L2.5,-0.5"/>
                </g>
                <g id="arrowDown" xlink:href="#dirArrow" transform="rotate(180) translate(-30 -48)" onmousedown="handlePan(0,1)">
                  <use xlink:href="#rim" fill="#404040">
                        <set attributeName="fill" to="#808080" begin="arrowDown.mouseover" end="arrowDown.mouseout"/>
                  </use>
                  <path fill="none" stroke="white" stroke-width="1.5" d="M0,-3.0v7 M-2.5,-0.5L0,-3.0L2.5,-0.5"/>
                </g>
                <g id="arrowLeft" xlink:href="#dirArrow" transform="rotate(270) translate(-36 17)" onmousedown="handlePan(-1,0)">
                  <use xlink:href="#rim" fill="#404040">
                        <set attributeName="fill" to="#808080" begin="arrowLeft.mouseover" end="arrowLeft.mouseout"/>
                  </use>
                  <path fill="none" stroke="white" stroke-width="1.5" d="M0,-3.0v7 M-2.5,-0.5L0,-3.0L2.5,-0.5"/>
                </g>
        </g>
        <svg viewBox="0 0 15 15" width="100%" height="30px" preserveAspectRatio="xMaxYMin meet">
         <g id="arrow_out" transform="scale(0.3 0.3)">
          <a xlink:href="structgauri_1_1CameraComponent__coll__graph_org.svg" target="_base">
           <rect id="button" ry="5" rx="5" y="6" x="6" height="38" width="38"
                fill="#f2f5e9" fill-opacity="0.5" stroke="#606060" stroke-width="1.0"/>
           <path id="arrow"
             d="M 11.500037,31.436501 C 11.940474,20.09759 22.043105,11.32322 32.158766,21.979434 L 37.068811,17.246167 C 37.068811,17.246167 37.088388,32 37.088388,32 L 22.160133,31.978069 C 22.160133,31.978069 26.997745,27.140456 26.997745,27.140456 C 18.528582,18.264221 13.291696,25.230495 11.500037,31.436501 z"
             style="fill:#404040;"/>
          </a>
         </g>
        </svg>
</svg>
