<?xml version="1.0" encoding="UTF-8" standalone="no"?>
<!DOCTYPE svg PUBLIC "-//W3C//DTD SVG 1.1//EN"
 "http://www.w3.org/Graphics/SVG/1.1/DTD/svg11.dtd">
<!-- Generated by graphviz version 2.43.0 (0)
 -->
<!-- Title: gauri::FrameBufferTextureSpecification Pages: 1 -->
<svg width="368pt" height="182pt"
 viewBox="0.00 0.00 368.00 182.00" xmlns="http://www.w3.org/2000/svg" xmlns:xlink="http://www.w3.org/1999/xlink">
<g id="graph0" class="graph" transform="scale(1 1) rotate(0) translate(4 178)">
<title>gauri::FrameBufferTextureSpecification</title>
<polygon fill="white" stroke="transparent" points="-4,4 -4,-178 364,-178 364,4 -4,4"/>
<!-- Node1 -->
<g id="node1" class="node">
<title>Node1</title>
<g id="a_node1"><a xlink:title=" ">
<polygon fill="#bfbfbf" stroke="black" points="0,-0.5 0,-68.5 360,-68.5 360,-0.5 0,-0.5"/>
<text text-anchor="middle" x="180" y="-56.5" font-family="Helvetica,sans-Serif" font-size="10.00">gauri::FrameBufferTextureSpecification</text>
<polyline fill="none" stroke="black" points="0,-49.5 360,-49.5 "/>
<text text-anchor="middle" x="180" y="-37.5" font-family="Helvetica,sans-Serif" font-size="10.00"> </text>
<polyline fill="none" stroke="black" points="0,-30.5 360,-30.5 "/>
<text text-anchor="start" x="8" y="-18.5" font-family="Helvetica,sans-Serif" font-size="10.00">+ FrameBufferTextureSpecification()=default</text>
<text text-anchor="start" x="8" y="-7.5" font-family="Helvetica,sans-Serif" font-size="10.00">+ FrameBufferTextureSpecification(FrameBufferTextureFormat format)</text>
</a>
</g>
</g>
<!-- Node2 -->
<g id="node2" class="node">
<title>Node2</title>
<g id="a_node2"><a xlink:title=" ">
<polygon fill="white" stroke="#bfbfbf" points="106.5,-116.5 106.5,-173.5 253.5,-173.5 253.5,-116.5 106.5,-116.5"/>
<text text-anchor="middle" x="180" y="-161.5" font-family="Helvetica,sans-Serif" font-size="10.00">FrameBufferTextureFormat</text>
<polyline fill="none" stroke="#bfbfbf" points="106.5,-154.5 253.5,-154.5 "/>
<text text-anchor="middle" x="180" y="-142.5" font-family="Helvetica,sans-Serif" font-size="10.00"> </text>
<polyline fill="none" stroke="#bfbfbf" points="106.5,-135.5 253.5,-135.5 "/>
<text text-anchor="middle" x="180" y="-123.5" font-family="Helvetica,sans-Serif" font-size="10.00"> </text>
</a>
</g>
</g>
<!-- Node2&#45;&gt;Node1 -->
<g id="edge1" class="edge">
<title>Node2&#45;&gt;Node1</title>
<path fill="none" stroke="#404040" d="M180,-116.34C180,-105.53 180,-92.85 180,-80.77"/>
<polygon fill="none" stroke="#404040" points="180,-80.52 176,-74.52 180,-68.52 184,-74.52 180,-80.52"/>
<text text-anchor="middle" x="221" y="-90" font-family="Helvetica,sans-Serif" font-size="10.00"> +TextureFormat</text>
</g>
</g>
</svg>
