<?xml version="1.0" encoding="UTF-8" standalone="no"?>
<!DOCTYPE svg PUBLIC "-//W3C//DTD SVG 1.1//EN"
 "http://www.w3.org/Graphics/SVG/1.1/DTD/svg11.dtd">
<!-- Generated by graphviz version 2.43.0 (0)
 -->
<!-- Title: gauri::TagComponent Pages: 1 -->
<svg width="271pt" height="288pt"
 viewBox="0.00 0.00 271.00 288.00" xmlns="http://www.w3.org/2000/svg" xmlns:xlink="http://www.w3.org/1999/xlink">
<g id="graph0" class="graph" transform="scale(1 1) rotate(0) translate(4 284)">
<title>gauri::TagComponent</title>
<polygon fill="white" stroke="transparent" points="-4,4 -4,-284 267,-284 267,4 -4,4"/>
<!-- Node1 -->
<g id="node1" class="node">
<title>Node1</title>
<g id="a_node1"><a xlink:title=" ">
<polygon fill="#bfbfbf" stroke="black" points="0,-0.5 0,-79.5 263,-79.5 263,-0.5 0,-0.5"/>
<text text-anchor="middle" x="131.5" y="-67.5" font-family="Helvetica,sans-Serif" font-size="10.00">gauri::TagComponent</text>
<polyline fill="none" stroke="black" points="0,-60.5 263,-60.5 "/>
<text text-anchor="middle" x="131.5" y="-48.5" font-family="Helvetica,sans-Serif" font-size="10.00"> </text>
<polyline fill="none" stroke="black" points="0,-41.5 263,-41.5 "/>
<text text-anchor="start" x="8" y="-29.5" font-family="Helvetica,sans-Serif" font-size="10.00">+ TagComponent()=default</text>
<text text-anchor="start" x="8" y="-18.5" font-family="Helvetica,sans-Serif" font-size="10.00">+ TagComponent(const TagComponent &amp;)=default</text>
<text text-anchor="start" x="8" y="-7.5" font-family="Helvetica,sans-Serif" font-size="10.00">+ TagComponent(const std::string &amp;tag)</text>
</a>
</g>
</g>
<!-- Node2 -->
<g id="node2" class="node">
<title>Node2</title>
<g id="a_node2"><a xlink:title=" ">
<polygon fill="white" stroke="#bfbfbf" points="99,-127.5 99,-184.5 164,-184.5 164,-127.5 99,-127.5"/>
<text text-anchor="middle" x="131.5" y="-172.5" font-family="Helvetica,sans-Serif" font-size="10.00">std::string</text>
<polyline fill="none" stroke="#bfbfbf" points="99,-165.5 164,-165.5 "/>
<text text-anchor="middle" x="131.5" y="-153.5" font-family="Helvetica,sans-Serif" font-size="10.00"> </text>
<polyline fill="none" stroke="#bfbfbf" points="99,-146.5 164,-146.5 "/>
<text text-anchor="middle" x="131.5" y="-134.5" font-family="Helvetica,sans-Serif" font-size="10.00"> </text>
</a>
</g>
</g>
<!-- Node2&#45;&gt;Node1 -->
<g id="edge1" class="edge">
<title>Node2&#45;&gt;Node1</title>
<path fill="none" stroke="#404040" d="M131.5,-127.4C131.5,-116.63 131.5,-103.93 131.5,-91.62"/>
<polygon fill="none" stroke="#404040" points="131.5,-91.54 127.5,-85.54 131.5,-79.54 135.5,-85.54 131.5,-91.54"/>
<text text-anchor="middle" x="145.5" y="-101" font-family="Helvetica,sans-Serif" font-size="10.00"> +Tag</text>
</g>
<!-- Node3 -->
<g id="node3" class="node">
<title>Node3</title>
<g id="a_node3"><a xlink:title=" ">
<polygon fill="white" stroke="#bfbfbf" points="61,-222.5 61,-279.5 202,-279.5 202,-222.5 61,-222.5"/>
<text text-anchor="middle" x="131.5" y="-267.5" font-family="Helvetica,sans-Serif" font-size="10.00">std::basic_string&lt; Char &gt;</text>
<polyline fill="none" stroke="#bfbfbf" points="61,-260.5 202,-260.5 "/>
<text text-anchor="middle" x="131.5" y="-248.5" font-family="Helvetica,sans-Serif" font-size="10.00"> </text>
<polyline fill="none" stroke="#bfbfbf" points="61,-241.5 202,-241.5 "/>
<text text-anchor="middle" x="131.5" y="-229.5" font-family="Helvetica,sans-Serif" font-size="10.00"> </text>
</a>
</g>
</g>
<!-- Node3&#45;&gt;Node2 -->
<g id="edge2" class="edge">
<title>Node3&#45;&gt;Node2</title>
<path fill="none" stroke="midnightblue" d="M131.5,-212.24C131.5,-203.03 131.5,-193.35 131.5,-184.71"/>
<polygon fill="none" stroke="midnightblue" points="128,-212.35 131.5,-222.35 135,-212.35 128,-212.35"/>
</g>
</g>
</svg>
