<?xml version="1.0" encoding="UTF-8" standalone="no"?>
<!DOCTYPE svg PUBLIC "-//W3C//DTD SVG 1.1//EN"
 "http://www.w3.org/Graphics/SVG/1.1/DTD/svg11.dtd">
<!-- Generated by graphviz version 2.43.0 (0)
 -->
<!-- Title: gauri::NativeScriptComponent Pages: 1 -->
<!--zoomable 750 -->
<svg id="main" version="1.1" xmlns="http://www.w3.org/2000/svg" xmlns:xlink="http://www.w3.org/1999/xlink" xml:space="preserve" onload="init(evt)">
<style type="text/css"><![CDATA[
.edge:hover path { stroke: red; }
.edge:hover polygon { stroke: red; fill: red; }
]]></style>
<script type="text/javascript"><![CDATA[
var edges = document.getElementsByTagName('g');
if (edges && edges.length) {
  for (var i=0;i<edges.length;i++) {
    if (edges[i].id.substr(0,4)=='edge') {
      edges[i].setAttribute('class','edge');
    }
  }
}
]]></script>
        <defs>
                <circle id="rim" cx="0" cy="0" r="7"/>
                <circle id="rim2" cx="0" cy="0" r="3.5"/>
                <g id="zoomPlus">
                        <use xlink:href="#rim" fill="#404040">
                                <set attributeName="fill" to="#808080" begin="zoomplus.mouseover" end="zoomplus.mouseout"/>
                        </use>
                        <path d="M-4,0h8M0,-4v8" fill="none" stroke="white" stroke-width="1.5" pointer-events="none"/>
                </g>
                <g id="zoomMin">
                        <use xlink:href="#rim" fill="#404040">
                                <set attributeName="fill" to="#808080" begin="zoomminus.mouseover" end="zoomminus.mouseout"/>
                        </use>
                        <path d="M-4,0h8" fill="none" stroke="white" stroke-width="1.5" pointer-events="none"/>
                </g>
                <g id="dirArrow">
                        <path fill="none" stroke="white" stroke-width="1.5" d="M0,-3.0v7 M-2.5,-0.5L0,-3.0L2.5,-0.5"/>
                </g>
               <g id="resetDef">
                       <use xlink:href="#rim2" fill="#404040">
                               <set attributeName="fill" to="#808080" begin="reset.mouseover" end="reset.mouseout"/>
                       </use>
               </g>
        </defs>

<script type="text/javascript">
var viewWidth = 450;
var viewHeight = 750;
var sectionId = 'dynsection-0';
</script>
<script xlink:href="svgpan.js"/>
<svg id="graph" class="graph">
<g id="viewport">
<title>gauri::NativeScriptComponent</title>
<polygon fill="white" stroke="transparent" points="-4,4 -4,-746 446,-746 446,4 -4,4"/>
<!-- Node1 -->
<g id="node1" class="node">
<title>Node1</title>
<g id="a_node1"><a xlink:title=" ">
<polygon fill="#bfbfbf" stroke="black" points="59,-0.5 59,-57.5 223,-57.5 223,-0.5 59,-0.5"/>
<text text-anchor="middle" x="141" y="-45.5" font-family="Helvetica,sans-Serif" font-size="10.00">gauri::NativeScriptComponent</text>
<polyline fill="none" stroke="black" points="59,-38.5 223,-38.5 "/>
<text text-anchor="middle" x="141" y="-26.5" font-family="Helvetica,sans-Serif" font-size="10.00"> </text>
<polyline fill="none" stroke="black" points="59,-19.5 223,-19.5 "/>
<text text-anchor="start" x="67" y="-7.5" font-family="Helvetica,sans-Serif" font-size="10.00">+ void Bind()</text>
</a>
</g>
</g>
<!-- Node2 -->
<g id="node2" class="node">
<title>Node2</title>
<g id="a_node2"><a xlink:title=" ">
<polygon fill="white" stroke="#bfbfbf" points="0,-138.5 0,-195.5 182,-195.5 182,-138.5 0,-138.5"/>
<text text-anchor="middle" x="91" y="-183.5" font-family="Helvetica,sans-Serif" font-size="10.00">void(*)(NativeScriptComponent *)</text>
<polyline fill="none" stroke="#bfbfbf" points="0,-176.5 182,-176.5 "/>
<text text-anchor="middle" x="91" y="-164.5" font-family="Helvetica,sans-Serif" font-size="10.00"> </text>
<polyline fill="none" stroke="#bfbfbf" points="0,-157.5 182,-157.5 "/>
<text text-anchor="middle" x="91" y="-145.5" font-family="Helvetica,sans-Serif" font-size="10.00"> </text>
</a>
</g>
</g>
<!-- Node2&#45;&gt;Node1 -->
<g id="edge1" class="edge">
<title>Node2&#45;&gt;Node1</title>
<path fill="none" stroke="#404040" d="M101.12,-138.48C108.42,-118.61 118.39,-91.49 126.54,-69.34"/>
<polygon fill="none" stroke="#404040" points="126.58,-69.21 124.9,-62.2 130.73,-57.95 132.41,-64.96 126.58,-69.21"/>
<text text-anchor="middle" x="163" y="-84.5" font-family="Helvetica,sans-Serif" font-size="10.00"> +DestroyScript</text>
</g>
<!-- Node3 -->
<g id="node3" class="node">
<title>Node3</title>
<g id="a_node3"><a xlink:href="classgauri_1_1ScriptableEntity.html" target="_top" xlink:title=" ">
<polygon fill="white" stroke="black" points="200,-116.5 200,-217.5 400,-217.5 400,-116.5 200,-116.5"/>
<text text-anchor="middle" x="300" y="-205.5" font-family="Helvetica,sans-Serif" font-size="10.00">gauri::ScriptableEntity</text>
<polyline fill="none" stroke="black" points="200,-198.5 400,-198.5 "/>
<text text-anchor="middle" x="300" y="-186.5" font-family="Helvetica,sans-Serif" font-size="10.00"> </text>
<polyline fill="none" stroke="black" points="200,-179.5 400,-179.5 "/>
<text text-anchor="start" x="208" y="-167.5" font-family="Helvetica,sans-Serif" font-size="10.00">+ virtual ~ScriptableEntity()=default</text>
<text text-anchor="start" x="208" y="-156.5" font-family="Helvetica,sans-Serif" font-size="10.00">+ T &amp; GetComponent()</text>
<text text-anchor="start" x="208" y="-145.5" font-family="Helvetica,sans-Serif" font-size="10.00"># virtual void OnCreate()</text>
<text text-anchor="start" x="208" y="-134.5" font-family="Helvetica,sans-Serif" font-size="10.00"># virtual void OnDestroy()</text>
<text text-anchor="start" x="208" y="-123.5" font-family="Helvetica,sans-Serif" font-size="10.00"># virtual void OnUpdate(Timestep ts)</text>
</a>
</g>
</g>
<!-- Node3&#45;&gt;Node1 -->
<g id="edge2" class="edge">
<title>Node3&#45;&gt;Node1</title>
<path fill="none" stroke="#404040" d="M251.01,-116.47C236.88,-102.91 221.16,-88.51 206,-76 201.5,-72.29 196.73,-68.56 191.88,-64.91"/>
<polygon fill="none" stroke="#404040" points="191.57,-64.68 184.37,-64.34 181.91,-57.56 189.11,-57.9 191.57,-64.68"/>
<text text-anchor="middle" x="275.5" y="-90" font-family="Helvetica,sans-Serif" font-size="10.00"> +Instance</text>
<text text-anchor="middle" x="275.5" y="-79" font-family="Helvetica,sans-Serif" font-size="10.00">+InstantiateScript</text>
</g>
<!-- Node4 -->
<g id="node4" class="node">
<title>Node4</title>
<g id="a_node4"><a xlink:href="classgauri_1_1Entity.html" target="_top" xlink:title=" ">
<polygon fill="white" stroke="black" points="180,-265.5 180,-443.5 420,-443.5 420,-265.5 180,-265.5"/>
<text text-anchor="middle" x="300" y="-431.5" font-family="Helvetica,sans-Serif" font-size="10.00">gauri::Entity</text>
<polyline fill="none" stroke="black" points="180,-424.5 420,-424.5 "/>
<text text-anchor="middle" x="300" y="-412.5" font-family="Helvetica,sans-Serif" font-size="10.00"> </text>
<polyline fill="none" stroke="black" points="180,-405.5 420,-405.5 "/>
<text text-anchor="start" x="188" y="-393.5" font-family="Helvetica,sans-Serif" font-size="10.00">+ Entity()=default</text>
<text text-anchor="start" x="188" y="-382.5" font-family="Helvetica,sans-Serif" font-size="10.00">+ Entity(entt::entity handle, Scene *scene)</text>
<text text-anchor="start" x="188" y="-371.5" font-family="Helvetica,sans-Serif" font-size="10.00">+ Entity(const Entity &amp;other)=default</text>
<text text-anchor="start" x="188" y="-360.5" font-family="Helvetica,sans-Serif" font-size="10.00">+ T &amp; AddComponent(Args &amp;&amp;...args)</text>
<text text-anchor="start" x="188" y="-349.5" font-family="Helvetica,sans-Serif" font-size="10.00">+ T &amp; GetComponent()</text>
<text text-anchor="start" x="188" y="-338.5" font-family="Helvetica,sans-Serif" font-size="10.00">+ bool HasComponent()</text>
<text text-anchor="start" x="188" y="-327.5" font-family="Helvetica,sans-Serif" font-size="10.00">+ void RemoveComponent()</text>
<text text-anchor="start" x="188" y="-316.5" font-family="Helvetica,sans-Serif" font-size="10.00">+ operator bool() const</text>
<text text-anchor="start" x="188" y="-305.5" font-family="Helvetica,sans-Serif" font-size="10.00">+ operator uint32_t() const</text>
<text text-anchor="start" x="188" y="-294.5" font-family="Helvetica,sans-Serif" font-size="10.00">+ operator entt::entity() const</text>
<text text-anchor="start" x="188" y="-283.5" font-family="Helvetica,sans-Serif" font-size="10.00">+ bool operator==(const Entity &amp;other) const</text>
<text text-anchor="start" x="188" y="-272.5" font-family="Helvetica,sans-Serif" font-size="10.00">+ bool operator!=(const Entity &amp;other) const</text>
</a>
</g>
</g>
<!-- Node4&#45;&gt;Node3 -->
<g id="edge3" class="edge">
<title>Node4&#45;&gt;Node3</title>
<path fill="none" stroke="#404040" d="M300,-265.37C300,-253.29 300,-241.1 300,-229.63"/>
<polygon fill="none" stroke="#404040" points="300,-229.5 296,-223.51 300,-217.5 304,-223.5 300,-229.5"/>
<text text-anchor="middle" x="325.5" y="-239" font-family="Helvetica,sans-Serif" font-size="10.00"> &#45;m_Entity</text>
</g>
<!-- Node5 -->
<g id="node5" class="node">
<title>Node5</title>
<g id="a_node5"><a xlink:href="classgauri_1_1Scene.html" target="_top" xlink:title=" ">
<polygon fill="white" stroke="black" points="49,-491.5 49,-625.5 357,-625.5 357,-491.5 49,-491.5"/>
<text text-anchor="middle" x="203" y="-613.5" font-family="Helvetica,sans-Serif" font-size="10.00">gauri::Scene</text>
<polyline fill="none" stroke="black" points="49,-606.5 357,-606.5 "/>
<text text-anchor="middle" x="203" y="-594.5" font-family="Helvetica,sans-Serif" font-size="10.00"> </text>
<polyline fill="none" stroke="black" points="49,-587.5 357,-587.5 "/>
<text text-anchor="start" x="57" y="-575.5" font-family="Helvetica,sans-Serif" font-size="10.00">+ Scene()</text>
<text text-anchor="start" x="57" y="-564.5" font-family="Helvetica,sans-Serif" font-size="10.00">+ ~Scene()</text>
<text text-anchor="start" x="57" y="-553.5" font-family="Helvetica,sans-Serif" font-size="10.00">+ Entity CreateEntity(const std::string &amp;name=std::string())</text>
<text text-anchor="start" x="57" y="-542.5" font-family="Helvetica,sans-Serif" font-size="10.00">+ void DestroyEntity(Entity entity)</text>
<text text-anchor="start" x="57" y="-531.5" font-family="Helvetica,sans-Serif" font-size="10.00">+ void OnUpdate(Timestep ts)</text>
<text text-anchor="start" x="57" y="-520.5" font-family="Helvetica,sans-Serif" font-size="10.00">+ void OnViewportResize(uint32_t width, uint32_t height)</text>
<text text-anchor="start" x="57" y="-509.5" font-family="Helvetica,sans-Serif" font-size="10.00">+ Entity GetPrimaryCameraEntity()</text>
<text text-anchor="start" x="57" y="-498.5" font-family="Helvetica,sans-Serif" font-size="10.00">&#45; void OnComponentAdded(Entity entity, T &amp;component)</text>
</a>
</g>
</g>
<!-- Node5&#45;&gt;Node4 -->
<g id="edge4" class="edge">
<title>Node5&#45;&gt;Node4</title>
<path fill="none" stroke="#404040" d="M234.76,-491.36C240.4,-479.61 246.39,-467.15 252.36,-454.72"/>
<polygon fill="none" stroke="#404040" points="252.39,-454.64 251.38,-447.5 257.59,-443.82 258.6,-450.96 252.39,-454.64"/>
<text text-anchor="middle" x="275" y="-465" font-family="Helvetica,sans-Serif" font-size="10.00"> &#45;m_Scene</text>
</g>
<!-- Node6 -->
<g id="node6" class="node">
<title>Node6</title>
<g id="a_node6"><a xlink:title=" ">
<polygon fill="white" stroke="#bfbfbf" points="133,-684.5 133,-741.5 187,-741.5 187,-684.5 133,-684.5"/>
<text text-anchor="middle" x="160" y="-729.5" font-family="Helvetica,sans-Serif" font-size="10.00">registry</text>
<polyline fill="none" stroke="#bfbfbf" points="133,-722.5 187,-722.5 "/>
<text text-anchor="middle" x="160" y="-710.5" font-family="Helvetica,sans-Serif" font-size="10.00"> </text>
<polyline fill="none" stroke="#bfbfbf" points="133,-703.5 187,-703.5 "/>
<text text-anchor="middle" x="160" y="-691.5" font-family="Helvetica,sans-Serif" font-size="10.00"> </text>
</a>
</g>
</g>
<!-- Node6&#45;&gt;Node5 -->
<g id="edge5" class="edge">
<title>Node6&#45;&gt;Node5</title>
<path fill="none" stroke="#404040" d="M157.64,-684.19C157.29,-671.73 157.85,-656.97 161,-644 161.55,-641.73 162.17,-639.45 162.85,-637.17"/>
<polygon fill="none" stroke="#404040" points="162.85,-637.17 160.98,-630.21 166.69,-625.81 168.56,-632.77 162.85,-637.17"/>
<text text-anchor="middle" x="192.5" y="-652.5" font-family="Helvetica,sans-Serif" font-size="10.00"> &#45;m_Registry</text>
</g>
<!-- Node7 -->
<g id="node7" class="node">
<title>Node7</title>
<g id="a_node7"><a xlink:title=" ">
<polygon fill="white" stroke="#bfbfbf" points="218,-684.5 218,-741.5 274,-741.5 274,-684.5 218,-684.5"/>
<text text-anchor="middle" x="246" y="-729.5" font-family="Helvetica,sans-Serif" font-size="10.00">uint32_t</text>
<polyline fill="none" stroke="#bfbfbf" points="218,-722.5 274,-722.5 "/>
<text text-anchor="middle" x="246" y="-710.5" font-family="Helvetica,sans-Serif" font-size="10.00"> </text>
<polyline fill="none" stroke="#bfbfbf" points="218,-703.5 274,-703.5 "/>
<text text-anchor="middle" x="246" y="-691.5" font-family="Helvetica,sans-Serif" font-size="10.00"> </text>
</a>
</g>
</g>
<!-- Node7&#45;&gt;Node5 -->
<g id="edge6" class="edge">
<title>Node7&#45;&gt;Node5</title>
<path fill="none" stroke="#404040" d="M238.21,-684.38C234.44,-670.99 229.69,-654.17 224.92,-637.25"/>
<polygon fill="none" stroke="#404040" points="224.88,-637.11 219.4,-632.42 221.63,-625.56 227.1,-630.25 224.88,-637.11"/>
<text text-anchor="middle" x="282" y="-658" font-family="Helvetica,sans-Serif" font-size="10.00"> &#45;m_ViewportHeight</text>
<text text-anchor="middle" x="282" y="-647" font-family="Helvetica,sans-Serif" font-size="10.00">&#45;m_ViewportWidth</text>
</g>
<!-- Node8 -->
<g id="node8" class="node">
<title>Node8</title>
<g id="a_node8"><a xlink:title=" ">
<polygon fill="white" stroke="#bfbfbf" points="375.5,-530 375.5,-587 420.5,-587 420.5,-530 375.5,-530"/>
<text text-anchor="middle" x="398" y="-575" font-family="Helvetica,sans-Serif" font-size="10.00">entity</text>
<polyline fill="none" stroke="#bfbfbf" points="375.5,-568 420.5,-568 "/>
<text text-anchor="middle" x="398" y="-556" font-family="Helvetica,sans-Serif" font-size="10.00"> </text>
<polyline fill="none" stroke="#bfbfbf" points="375.5,-549 420.5,-549 "/>
<text text-anchor="middle" x="398" y="-537" font-family="Helvetica,sans-Serif" font-size="10.00"> </text>
</a>
</g>
</g>
<!-- Node8&#45;&gt;Node4 -->
<g id="edge7" class="edge">
<title>Node8&#45;&gt;Node4</title>
<path fill="none" stroke="#404040" d="M384.8,-529.98C379.04,-518 372.2,-503.8 366,-491 360.33,-479.28 354.36,-467 348.44,-454.81"/>
<polygon fill="none" stroke="#404040" points="348.27,-454.46 342.05,-450.81 343.02,-443.66 349.24,-447.31 348.27,-454.46"/>
<text text-anchor="middle" x="399.5" y="-465" font-family="Helvetica,sans-Serif" font-size="10.00"> &#45;m_EntityHandle</text>
</g>
</g>
</svg>
        <g id="navigator" transform="translate(0 0)" fill="#404254">
                <rect fill="#f2f5e9" fill-opacity="0.5" stroke="#606060" stroke-width=".5" x="0" y="0" width="60" height="60"/>
                <use id="zoomplus" xlink:href="#zoomPlus" x="17" y="9" onmousedown="handleZoom(evt,'in')"/>
                <use id="zoomminus" xlink:href="#zoomMin" x="42" y="9" onmousedown="handleZoom(evt,'out')"/>
                <use id="reset" xlink:href="#resetDef" x="30" y="36" onmousedown="handleReset()"/>
                <g id="arrowUp" xlink:href="#dirArrow" transform="translate(30 24)" onmousedown="handlePan(0,-1)">
                  <use xlink:href="#rim" fill="#404040">
                        <set attributeName="fill" to="#808080" begin="arrowUp.mouseover" end="arrowUp.mouseout"/>
                  </use>
                  <path fill="none" stroke="white" stroke-width="1.5" d="M0,-3.0v7 M-2.5,-0.5L0,-3.0L2.5,-0.5"/>
                </g>
                <g id="arrowRight" xlink:href="#dirArrow" transform="rotate(90) translate(36 -43)" onmousedown="handlePan(1,0)">
                  <use xlink:href="#rim" fill="#404040">
                        <set attributeName="fill" to="#808080" begin="arrowRight.mouseover" end="arrowRight.mouseout"/>
                  </use>
                  <path fill="none" stroke="white" stroke-width="1.5" d="M0,-3.0v7 M-2.5,-0.5L0,-3.0L2.5,-0.5"/>
                </g>
                <g id="arrowDown" xlink:href="#dirArrow" transform="rotate(180) translate(-30 -48)" onmousedown="handlePan(0,1)">
                  <use xlink:href="#rim" fill="#404040">
                        <set attributeName="fill" to="#808080" begin="arrowDown.mouseover" end="arrowDown.mouseout"/>
                  </use>
                  <path fill="none" stroke="white" stroke-width="1.5" d="M0,-3.0v7 M-2.5,-0.5L0,-3.0L2.5,-0.5"/>
                </g>
                <g id="arrowLeft" xlink:href="#dirArrow" transform="rotate(270) translate(-36 17)" onmousedown="handlePan(-1,0)">
                  <use xlink:href="#rim" fill="#404040">
                        <set attributeName="fill" to="#808080" begin="arrowLeft.mouseover" end="arrowLeft.mouseout"/>
                  </use>
                  <path fill="none" stroke="white" stroke-width="1.5" d="M0,-3.0v7 M-2.5,-0.5L0,-3.0L2.5,-0.5"/>
                </g>
        </g>
        <svg viewBox="0 0 15 15" width="100%" height="30px" preserveAspectRatio="xMaxYMin meet">
         <g id="arrow_out" transform="scale(0.3 0.3)">
          <a xlink:href="structgauri_1_1NativeScriptComponent__coll__graph_org.svg" target="_base">
           <rect id="button" ry="5" rx="5" y="6" x="6" height="38" width="38"
                fill="#f2f5e9" fill-opacity="0.5" stroke="#606060" stroke-width="1.0"/>
           <path id="arrow"
             d="M 11.500037,31.436501 C 11.940474,20.09759 22.043105,11.32322 32.158766,21.979434 L 37.068811,17.246167 C 37.068811,17.246167 37.088388,32 37.088388,32 L 22.160133,31.978069 C 22.160133,31.978069 26.997745,27.140456 26.997745,27.140456 C 18.528582,18.264221 13.291696,25.230495 11.500037,31.436501 z"
             style="fill:#404040;"/>
          </a>
         </g>
        </svg>
</svg>
