<?xml version="1.0" encoding="UTF-8" standalone="no"?>
<!DOCTYPE svg PUBLIC "-//W3C//DTD SVG 1.1//EN"
 "http://www.w3.org/Graphics/SVG/1.1/DTD/svg11.dtd">
<!-- Generated by graphviz version 2.43.0 (0)
 -->
<!-- Title: gauri::SpriteRendererComponent Pages: 1 -->
<svg width="384pt" height="215pt"
 viewBox="0.00 0.00 384.00 215.00" xmlns="http://www.w3.org/2000/svg" xmlns:xlink="http://www.w3.org/1999/xlink">
<g id="graph0" class="graph" transform="scale(1 1) rotate(0) translate(4 211)">
<title>gauri::SpriteRendererComponent</title>
<polygon fill="white" stroke="transparent" points="-4,4 -4,-211 380,-211 380,4 -4,4"/>
<!-- Node1 -->
<g id="node1" class="node">
<title>Node1</title>
<g id="a_node1"><a xlink:title=" ">
<polygon fill="#bfbfbf" stroke="black" points="0,-0.5 0,-101.5 376,-101.5 376,-0.5 0,-0.5"/>
<text text-anchor="middle" x="188" y="-89.5" font-family="Helvetica,sans-Serif" font-size="10.00">gauri::SpriteRendererComponent</text>
<polyline fill="none" stroke="black" points="0,-82.5 376,-82.5 "/>
<text text-anchor="middle" x="188" y="-70.5" font-family="Helvetica,sans-Serif" font-size="10.00"> </text>
<polyline fill="none" stroke="black" points="0,-63.5 376,-63.5 "/>
<text text-anchor="start" x="8" y="-51.5" font-family="Helvetica,sans-Serif" font-size="10.00">+ SpriteRendererComponent()=default</text>
<text text-anchor="start" x="8" y="-40.5" font-family="Helvetica,sans-Serif" font-size="10.00">+ SpriteRendererComponent(const SpriteRendererComponent &amp;)=default</text>
<text text-anchor="start" x="8" y="-29.5" font-family="Helvetica,sans-Serif" font-size="10.00">+ SpriteRendererComponent(const glm::vec4 &amp;color)</text>
<text text-anchor="start" x="8" y="-18.5" font-family="Helvetica,sans-Serif" font-size="10.00">+ operator const glm::vec4 &amp;() const</text>
<text text-anchor="start" x="8" y="-7.5" font-family="Helvetica,sans-Serif" font-size="10.00">+ operator glm::vec4 &amp;()</text>
</a>
</g>
</g>
<!-- Node2 -->
<g id="node2" class="node">
<title>Node2</title>
<g id="a_node2"><a xlink:title=" ">
<polygon fill="white" stroke="#bfbfbf" points="168,-149.5 168,-206.5 208,-206.5 208,-149.5 168,-149.5"/>
<text text-anchor="middle" x="188" y="-194.5" font-family="Helvetica,sans-Serif" font-size="10.00">vec4</text>
<polyline fill="none" stroke="#bfbfbf" points="168,-187.5 208,-187.5 "/>
<text text-anchor="middle" x="188" y="-175.5" font-family="Helvetica,sans-Serif" font-size="10.00"> </text>
<polyline fill="none" stroke="#bfbfbf" points="168,-168.5 208,-168.5 "/>
<text text-anchor="middle" x="188" y="-156.5" font-family="Helvetica,sans-Serif" font-size="10.00"> </text>
</a>
</g>
</g>
<!-- Node2&#45;&gt;Node1 -->
<g id="edge1" class="edge">
<title>Node2&#45;&gt;Node1</title>
<path fill="none" stroke="#404040" d="M188,-149.26C188,-138.79 188,-126.42 188,-114.07"/>
<polygon fill="none" stroke="#404040" points="188,-113.8 184,-107.8 188,-101.8 192,-107.8 188,-113.8"/>
<text text-anchor="middle" x="206.5" y="-123" font-family="Helvetica,sans-Serif" font-size="10.00"> +Color</text>
</g>
</g>
</svg>
