<?xml version="1.0" encoding="UTF-8" standalone="no"?>
<!DOCTYPE svg PUBLIC "-//W3C//DTD SVG 1.1//EN"
 "http://www.w3.org/Graphics/SVG/1.1/DTD/svg11.dtd">
<!-- Generated by graphviz version 2.43.0 (0)
 -->
<!-- Title: gauri::FrameBufferSpecification Pages: 1 -->
<svg width="213pt" height="193pt"
 viewBox="0.00 0.00 213.00 193.00" xmlns="http://www.w3.org/2000/svg" xmlns:xlink="http://www.w3.org/1999/xlink">
<g id="graph0" class="graph" transform="scale(1 1) rotate(0) translate(4 189)">
<title>gauri::FrameBufferSpecification</title>
<polygon fill="white" stroke="transparent" points="-4,4 -4,-189 209,-189 209,4 -4,4"/>
<!-- Node1 -->
<g id="node1" class="node">
<title>Node1</title>
<g id="a_node1"><a xlink:title=" ">
<polygon fill="#bfbfbf" stroke="black" points="0,-0.5 0,-57.5 170,-57.5 170,-0.5 0,-0.5"/>
<text text-anchor="middle" x="85" y="-45.5" font-family="Helvetica,sans-Serif" font-size="10.00">gauri::FrameBufferSpecification</text>
<polyline fill="none" stroke="black" points="0,-38.5 170,-38.5 "/>
<text text-anchor="middle" x="85" y="-26.5" font-family="Helvetica,sans-Serif" font-size="10.00"> </text>
<polyline fill="none" stroke="black" points="0,-19.5 170,-19.5 "/>
<text text-anchor="middle" x="85" y="-7.5" font-family="Helvetica,sans-Serif" font-size="10.00"> </text>
</a>
</g>
</g>
<!-- Node2 -->
<g id="node2" class="node">
<title>Node2</title>
<g id="a_node2"><a xlink:title=" ">
<polygon fill="white" stroke="#bfbfbf" points="20,-127.5 20,-184.5 76,-184.5 76,-127.5 20,-127.5"/>
<text text-anchor="middle" x="48" y="-172.5" font-family="Helvetica,sans-Serif" font-size="10.00">uint32_t</text>
<polyline fill="none" stroke="#bfbfbf" points="20,-165.5 76,-165.5 "/>
<text text-anchor="middle" x="48" y="-153.5" font-family="Helvetica,sans-Serif" font-size="10.00"> </text>
<polyline fill="none" stroke="#bfbfbf" points="20,-146.5 76,-146.5 "/>
<text text-anchor="middle" x="48" y="-134.5" font-family="Helvetica,sans-Serif" font-size="10.00"> </text>
</a>
</g>
</g>
<!-- Node2&#45;&gt;Node1 -->
<g id="edge1" class="edge">
<title>Node2&#45;&gt;Node1</title>
<path fill="none" stroke="#404040" d="M44.07,-127.19C42.93,-111.7 43.26,-92.3 49,-76 49.95,-73.3 51.13,-70.63 52.48,-68.02"/>
<polygon fill="none" stroke="#404040" points="52.52,-67.95 52.25,-60.74 58.79,-57.72 59.07,-64.92 52.52,-67.95"/>
<text text-anchor="middle" x="74.5" y="-101" font-family="Helvetica,sans-Serif" font-size="10.00"> +Height</text>
<text text-anchor="middle" x="74.5" y="-90" font-family="Helvetica,sans-Serif" font-size="10.00">+Samples</text>
<text text-anchor="middle" x="74.5" y="-79" font-family="Helvetica,sans-Serif" font-size="10.00">+Width</text>
</g>
<!-- Node3 -->
<g id="node3" class="node">
<title>Node3</title>
<g id="a_node3"><a xlink:title=" ">
<polygon fill="white" stroke="#bfbfbf" points="103,-127.5 103,-184.5 141,-184.5 141,-127.5 103,-127.5"/>
<text text-anchor="middle" x="122" y="-172.5" font-family="Helvetica,sans-Serif" font-size="10.00">bool</text>
<polyline fill="none" stroke="#bfbfbf" points="103,-165.5 141,-165.5 "/>
<text text-anchor="middle" x="122" y="-153.5" font-family="Helvetica,sans-Serif" font-size="10.00"> </text>
<polyline fill="none" stroke="#bfbfbf" points="103,-146.5 141,-146.5 "/>
<text text-anchor="middle" x="122" y="-134.5" font-family="Helvetica,sans-Serif" font-size="10.00"> </text>
</a>
</g>
</g>
<!-- Node3&#45;&gt;Node1 -->
<g id="edge2" class="edge">
<title>Node3&#45;&gt;Node1</title>
<path fill="none" stroke="#404040" d="M114.66,-127.49C110.51,-112.27 105.15,-93.04 100,-76 99.33,-73.77 98.62,-71.48 97.9,-69.17"/>
<polygon fill="none" stroke="#404040" points="97.88,-69.1 92.25,-64.6 94.24,-57.67 99.87,-62.17 97.88,-69.1"/>
<text text-anchor="middle" x="157" y="-90" font-family="Helvetica,sans-Serif" font-size="10.00"> +SwapChainTarget</text>
</g>
</g>
</svg>
