<?xml version="1.0" encoding="UTF-8" standalone="no"?>
<!DOCTYPE svg PUBLIC "-//W3C//DTD SVG 1.1//EN"
 "http://www.w3.org/Graphics/SVG/1.1/DTD/svg11.dtd">
<!-- Generated by graphviz version 2.43.0 (0)
 -->
<!-- Title: gauri::NativeScriptComponent Pages: 1 -->
<svg width="451pt" height="761pt"
 viewBox="0.00 0.00 451.00 761.00" xmlns="http://www.w3.org/2000/svg" xmlns:xlink="http://www.w3.org/1999/xlink">
<g id="graph0" class="graph" transform="scale(1 1) rotate(0) translate(4 757)">
<title>gauri::NativeScriptComponent</title>
<polygon fill="white" stroke="transparent" points="-4,4 -4,-757 447,-757 447,4 -4,4"/>
<!-- Node1 -->
<g id="node1" class="node">
<title>Node1</title>
<g id="a_node1"><a xlink:title=" ">
<polygon fill="#bfbfbf" stroke="black" points="59,-0.5 59,-57.5 223,-57.5 223,-0.5 59,-0.5"/>
<text text-anchor="middle" x="141" y="-45.5" font-family="Helvetica,sans-Serif" font-size="10.00">gauri::NativeScriptComponent</text>
<polyline fill="none" stroke="black" points="59,-38.5 223,-38.5 "/>
<text text-anchor="middle" x="141" y="-26.5" font-family="Helvetica,sans-Serif" font-size="10.00"> </text>
<polyline fill="none" stroke="black" points="59,-19.5 223,-19.5 "/>
<text text-anchor="start" x="67" y="-7.5" font-family="Helvetica,sans-Serif" font-size="10.00">+ void Bind()</text>
</a>
</g>
</g>
<!-- Node2 -->
<g id="node2" class="node">
<title>Node2</title>
<g id="a_node2"><a xlink:title=" ">
<polygon fill="white" stroke="#bfbfbf" points="0,-138.5 0,-195.5 182,-195.5 182,-138.5 0,-138.5"/>
<text text-anchor="middle" x="91" y="-183.5" font-family="Helvetica,sans-Serif" font-size="10.00">void(*)(NativeScriptComponent *)</text>
<polyline fill="none" stroke="#bfbfbf" points="0,-176.5 182,-176.5 "/>
<text text-anchor="middle" x="91" y="-164.5" font-family="Helvetica,sans-Serif" font-size="10.00"> </text>
<polyline fill="none" stroke="#bfbfbf" points="0,-157.5 182,-157.5 "/>
<text text-anchor="middle" x="91" y="-145.5" font-family="Helvetica,sans-Serif" font-size="10.00"> </text>
</a>
</g>
</g>
<!-- Node2&#45;&gt;Node1 -->
<g id="edge1" class="edge">
<title>Node2&#45;&gt;Node1</title>
<path fill="none" stroke="#404040" d="M101.12,-138.48C108.42,-118.61 118.39,-91.49 126.54,-69.34"/>
<polygon fill="none" stroke="#404040" points="126.58,-69.21 124.9,-62.2 130.73,-57.95 132.41,-64.96 126.58,-69.21"/>
<text text-anchor="middle" x="163" y="-84.5" font-family="Helvetica,sans-Serif" font-size="10.00"> +DestroyScript</text>
</g>
<!-- Node3 -->
<g id="node3" class="node">
<title>Node3</title>
<g id="a_node3"><a xlink:href="classgauri_1_1ScriptableEntity.html" target="_top" xlink:title=" ">
<polygon fill="white" stroke="black" points="200,-116.5 200,-217.5 400,-217.5 400,-116.5 200,-116.5"/>
<text text-anchor="middle" x="300" y="-205.5" font-family="Helvetica,sans-Serif" font-size="10.00">gauri::ScriptableEntity</text>
<polyline fill="none" stroke="black" points="200,-198.5 400,-198.5 "/>
<text text-anchor="middle" x="300" y="-186.5" font-family="Helvetica,sans-Serif" font-size="10.00"> </text>
<polyline fill="none" stroke="black" points="200,-179.5 400,-179.5 "/>
<text text-anchor="start" x="208" y="-167.5" font-family="Helvetica,sans-Serif" font-size="10.00">+ virtual ~ScriptableEntity()=default</text>
<text text-anchor="start" x="208" y="-156.5" font-family="Helvetica,sans-Serif" font-size="10.00">+ T &amp; GetComponent()</text>
<text text-anchor="start" x="208" y="-145.5" font-family="Helvetica,sans-Serif" font-size="10.00"># virtual void OnCreate()</text>
<text text-anchor="start" x="208" y="-134.5" font-family="Helvetica,sans-Serif" font-size="10.00"># virtual void OnDestroy()</text>
<text text-anchor="start" x="208" y="-123.5" font-family="Helvetica,sans-Serif" font-size="10.00"># virtual void OnUpdate(Timestep ts)</text>
</a>
</g>
</g>
<!-- Node3&#45;&gt;Node1 -->
<g id="edge2" class="edge">
<title>Node3&#45;&gt;Node1</title>
<path fill="none" stroke="#404040" d="M251.01,-116.47C236.88,-102.91 221.16,-88.51 206,-76 201.5,-72.29 196.73,-68.56 191.88,-64.91"/>
<polygon fill="none" stroke="#404040" points="191.57,-64.68 184.37,-64.34 181.91,-57.56 189.11,-57.9 191.57,-64.68"/>
<text text-anchor="middle" x="275.5" y="-90" font-family="Helvetica,sans-Serif" font-size="10.00"> +Instance</text>
<text text-anchor="middle" x="275.5" y="-79" font-family="Helvetica,sans-Serif" font-size="10.00">+InstantiateScript</text>
</g>
<!-- Node4 -->
<g id="node4" class="node">
<title>Node4</title>
<g id="a_node4"><a xlink:href="classgauri_1_1Entity.html" target="_top" xlink:title=" ">
<polygon fill="white" stroke="black" points="180,-265.5 180,-443.5 420,-443.5 420,-265.5 180,-265.5"/>
<text text-anchor="middle" x="300" y="-431.5" font-family="Helvetica,sans-Serif" font-size="10.00">gauri::Entity</text>
<polyline fill="none" stroke="black" points="180,-424.5 420,-424.5 "/>
<text text-anchor="middle" x="300" y="-412.5" font-family="Helvetica,sans-Serif" font-size="10.00"> </text>
<polyline fill="none" stroke="black" points="180,-405.5 420,-405.5 "/>
<text text-anchor="start" x="188" y="-393.5" font-family="Helvetica,sans-Serif" font-size="10.00">+ Entity()=default</text>
<text text-anchor="start" x="188" y="-382.5" font-family="Helvetica,sans-Serif" font-size="10.00">+ Entity(entt::entity handle, Scene *scene)</text>
<text text-anchor="start" x="188" y="-371.5" font-family="Helvetica,sans-Serif" font-size="10.00">+ Entity(const Entity &amp;other)=default</text>
<text text-anchor="start" x="188" y="-360.5" font-family="Helvetica,sans-Serif" font-size="10.00">+ T &amp; AddComponent(Args &amp;&amp;...args)</text>
<text text-anchor="start" x="188" y="-349.5" font-family="Helvetica,sans-Serif" font-size="10.00">+ T &amp; GetComponent()</text>
<text text-anchor="start" x="188" y="-338.5" font-family="Helvetica,sans-Serif" font-size="10.00">+ bool HasComponent()</text>
<text text-anchor="start" x="188" y="-327.5" font-family="Helvetica,sans-Serif" font-size="10.00">+ void RemoveComponent()</text>
<text text-anchor="start" x="188" y="-316.5" font-family="Helvetica,sans-Serif" font-size="10.00">+ operator bool() const</text>
<text text-anchor="start" x="188" y="-305.5" font-family="Helvetica,sans-Serif" font-size="10.00">+ operator uint32_t() const</text>
<text text-anchor="start" x="188" y="-294.5" font-family="Helvetica,sans-Serif" font-size="10.00">+ operator entt::entity() const</text>
<text text-anchor="start" x="188" y="-283.5" font-family="Helvetica,sans-Serif" font-size="10.00">+ bool operator==(const Entity &amp;other) const</text>
<text text-anchor="start" x="188" y="-272.5" font-family="Helvetica,sans-Serif" font-size="10.00">+ bool operator!=(const Entity &amp;other) const</text>
</a>
</g>
</g>
<!-- Node4&#45;&gt;Node3 -->
<g id="edge3" class="edge">
<title>Node4&#45;&gt;Node3</title>
<path fill="none" stroke="#404040" d="M300,-265.37C300,-253.29 300,-241.1 300,-229.63"/>
<polygon fill="none" stroke="#404040" points="300,-229.5 296,-223.51 300,-217.5 304,-223.5 300,-229.5"/>
<text text-anchor="middle" x="325.5" y="-239" font-family="Helvetica,sans-Serif" font-size="10.00"> &#45;m_Entity</text>
</g>
<!-- Node5 -->
<g id="node5" class="node">
<title>Node5</title>
<g id="a_node5"><a xlink:href="classgauri_1_1Scene.html" target="_top" xlink:title=" ">
<polygon fill="white" stroke="black" points="44,-491.5 44,-636.5 358,-636.5 358,-491.5 44,-491.5"/>
<text text-anchor="middle" x="201" y="-624.5" font-family="Helvetica,sans-Serif" font-size="10.00">gauri::Scene</text>
<polyline fill="none" stroke="black" points="44,-617.5 358,-617.5 "/>
<text text-anchor="middle" x="201" y="-605.5" font-family="Helvetica,sans-Serif" font-size="10.00"> </text>
<polyline fill="none" stroke="black" points="44,-598.5 358,-598.5 "/>
<text text-anchor="start" x="52" y="-586.5" font-family="Helvetica,sans-Serif" font-size="10.00">+ Scene()</text>
<text text-anchor="start" x="52" y="-575.5" font-family="Helvetica,sans-Serif" font-size="10.00">+ ~Scene()</text>
<text text-anchor="start" x="52" y="-564.5" font-family="Helvetica,sans-Serif" font-size="10.00">+ Entity CreateEntity(const std::string &amp;name=std::string())</text>
<text text-anchor="start" x="52" y="-553.5" font-family="Helvetica,sans-Serif" font-size="10.00">+ void DestroyEntity(Entity entity)</text>
<text text-anchor="start" x="52" y="-542.5" font-family="Helvetica,sans-Serif" font-size="10.00">+ void OnUpdateEditor(Timestep ts, EditorCamera &amp;camera)</text>
<text text-anchor="start" x="52" y="-531.5" font-family="Helvetica,sans-Serif" font-size="10.00">+ void OnUpdateRuntime(Timestep ts)</text>
<text text-anchor="start" x="52" y="-520.5" font-family="Helvetica,sans-Serif" font-size="10.00">+ void OnViewportResize(uint32_t width, uint32_t height)</text>
<text text-anchor="start" x="52" y="-509.5" font-family="Helvetica,sans-Serif" font-size="10.00">+ Entity GetPrimaryCameraEntity()</text>
<text text-anchor="start" x="52" y="-498.5" font-family="Helvetica,sans-Serif" font-size="10.00">&#45; void OnComponentAdded(Entity entity, T &amp;component)</text>
</a>
</g>
</g>
<!-- Node5&#45;&gt;Node4 -->
<g id="edge4" class="edge">
<title>Node5&#45;&gt;Node4</title>
<path fill="none" stroke="#404040" d="M235.21,-491.3C240.87,-479.43 246.83,-466.94 252.75,-454.54"/>
<polygon fill="none" stroke="#404040" points="252.76,-454.52 251.73,-447.38 257.93,-443.69 258.95,-450.82 252.76,-454.52"/>
<text text-anchor="middle" x="274" y="-465" font-family="Helvetica,sans-Serif" font-size="10.00"> &#45;m_Scene</text>
</g>
<!-- Node6 -->
<g id="node6" class="node">
<title>Node6</title>
<g id="a_node6"><a xlink:title=" ">
<polygon fill="white" stroke="#bfbfbf" points="131,-695.5 131,-752.5 185,-752.5 185,-695.5 131,-695.5"/>
<text text-anchor="middle" x="158" y="-740.5" font-family="Helvetica,sans-Serif" font-size="10.00">registry</text>
<polyline fill="none" stroke="#bfbfbf" points="131,-733.5 185,-733.5 "/>
<text text-anchor="middle" x="158" y="-721.5" font-family="Helvetica,sans-Serif" font-size="10.00"> </text>
<polyline fill="none" stroke="#bfbfbf" points="131,-714.5 185,-714.5 "/>
<text text-anchor="middle" x="158" y="-702.5" font-family="Helvetica,sans-Serif" font-size="10.00"> </text>
</a>
</g>
</g>
<!-- Node6&#45;&gt;Node5 -->
<g id="edge5" class="edge">
<title>Node6&#45;&gt;Node5</title>
<path fill="none" stroke="#404040" d="M155.79,-695.22C155.47,-682.78 156.01,-668 159,-655 159.53,-652.7 160.12,-650.39 160.77,-648.07"/>
<polygon fill="none" stroke="#404040" points="160.81,-647.95 158.8,-641.02 164.42,-636.5 166.43,-643.43 160.81,-647.95"/>
<text text-anchor="middle" x="190.5" y="-663.5" font-family="Helvetica,sans-Serif" font-size="10.00"> &#45;m_Registry</text>
</g>
<!-- Node7 -->
<g id="node7" class="node">
<title>Node7</title>
<g id="a_node7"><a xlink:title=" ">
<polygon fill="white" stroke="#bfbfbf" points="216,-695.5 216,-752.5 272,-752.5 272,-695.5 216,-695.5"/>
<text text-anchor="middle" x="244" y="-740.5" font-family="Helvetica,sans-Serif" font-size="10.00">uint32_t</text>
<polyline fill="none" stroke="#bfbfbf" points="216,-733.5 272,-733.5 "/>
<text text-anchor="middle" x="244" y="-721.5" font-family="Helvetica,sans-Serif" font-size="10.00"> </text>
<polyline fill="none" stroke="#bfbfbf" points="216,-714.5 272,-714.5 "/>
<text text-anchor="middle" x="244" y="-702.5" font-family="Helvetica,sans-Serif" font-size="10.00"> </text>
</a>
</g>
</g>
<!-- Node7&#45;&gt;Node5 -->
<g id="edge6" class="edge">
<title>Node7&#45;&gt;Node5</title>
<path fill="none" stroke="#404040" d="M236.51,-695.48C232.89,-682.19 228.34,-665.46 223.71,-648.45"/>
<polygon fill="none" stroke="#404040" points="223.66,-648.25 218.22,-643.51 220.5,-636.67 225.94,-641.41 223.66,-648.25"/>
<text text-anchor="middle" x="281" y="-669" font-family="Helvetica,sans-Serif" font-size="10.00"> &#45;m_ViewportHeight</text>
<text text-anchor="middle" x="281" y="-658" font-family="Helvetica,sans-Serif" font-size="10.00">&#45;m_ViewportWidth</text>
</g>
<!-- Node8 -->
<g id="node8" class="node">
<title>Node8</title>
<g id="a_node8"><a xlink:title=" ">
<polygon fill="white" stroke="#bfbfbf" points="376.5,-535.5 376.5,-592.5 421.5,-592.5 421.5,-535.5 376.5,-535.5"/>
<text text-anchor="middle" x="399" y="-580.5" font-family="Helvetica,sans-Serif" font-size="10.00">entity</text>
<polyline fill="none" stroke="#bfbfbf" points="376.5,-573.5 421.5,-573.5 "/>
<text text-anchor="middle" x="399" y="-561.5" font-family="Helvetica,sans-Serif" font-size="10.00"> </text>
<polyline fill="none" stroke="#bfbfbf" points="376.5,-554.5 421.5,-554.5 "/>
<text text-anchor="middle" x="399" y="-542.5" font-family="Helvetica,sans-Serif" font-size="10.00"> </text>
</a>
</g>
</g>
<!-- Node8&#45;&gt;Node4 -->
<g id="edge7" class="edge">
<title>Node8&#45;&gt;Node4</title>
<path fill="none" stroke="#404040" d="M386.96,-535.19C381.07,-521.77 373.8,-505.49 367,-491 361.5,-479.27 355.62,-467.02 349.72,-454.89"/>
<polygon fill="none" stroke="#404040" points="349.58,-454.59 343.35,-450.95 344.31,-443.81 350.54,-447.44 349.58,-454.59"/>
<text text-anchor="middle" x="400.5" y="-465" font-family="Helvetica,sans-Serif" font-size="10.00"> &#45;m_EntityHandle</text>
</g>
</g>
</svg>
