<?xml version="1.0" encoding="UTF-8" standalone="no"?>
<!DOCTYPE svg PUBLIC "-//W3C//DTD SVG 1.1//EN"
 "http://www.w3.org/Graphics/SVG/1.1/DTD/svg11.dtd">
<!-- Generated by graphviz version 2.43.0 (0)
 -->
<!-- Title: gauri::NativeScriptComponent Pages: 1 -->
<svg width="447pt" height="673pt"
 viewBox="0.00 0.00 447.00 673.00" xmlns="http://www.w3.org/2000/svg" xmlns:xlink="http://www.w3.org/1999/xlink">
<g id="graph0" class="graph" transform="scale(1 1) rotate(0) translate(4 669)">
<title>gauri::NativeScriptComponent</title>
<polygon fill="white" stroke="transparent" points="-4,4 -4,-669 443,-669 443,4 -4,4"/>
<!-- Node1 -->
<g id="node1" class="node">
<title>Node1</title>
<g id="a_node1"><a xlink:title=" ">
<polygon fill="#bfbfbf" stroke="black" points="59,-0.5 59,-57.5 223,-57.5 223,-0.5 59,-0.5"/>
<text text-anchor="middle" x="141" y="-45.5" font-family="Helvetica,sans-Serif" font-size="10.00">gauri::NativeScriptComponent</text>
<polyline fill="none" stroke="black" points="59,-38.5 223,-38.5 "/>
<text text-anchor="middle" x="141" y="-26.5" font-family="Helvetica,sans-Serif" font-size="10.00"> </text>
<polyline fill="none" stroke="black" points="59,-19.5 223,-19.5 "/>
<text text-anchor="start" x="67" y="-7.5" font-family="Helvetica,sans-Serif" font-size="10.00">+ void Bind()</text>
</a>
</g>
</g>
<!-- Node2 -->
<g id="node2" class="node">
<title>Node2</title>
<g id="a_node2"><a xlink:title=" ">
<polygon fill="white" stroke="#bfbfbf" points="0,-138.5 0,-195.5 182,-195.5 182,-138.5 0,-138.5"/>
<text text-anchor="middle" x="91" y="-183.5" font-family="Helvetica,sans-Serif" font-size="10.00">void(*)(NativeScriptComponent *)</text>
<polyline fill="none" stroke="#bfbfbf" points="0,-176.5 182,-176.5 "/>
<text text-anchor="middle" x="91" y="-164.5" font-family="Helvetica,sans-Serif" font-size="10.00"> </text>
<polyline fill="none" stroke="#bfbfbf" points="0,-157.5 182,-157.5 "/>
<text text-anchor="middle" x="91" y="-145.5" font-family="Helvetica,sans-Serif" font-size="10.00"> </text>
</a>
</g>
</g>
<!-- Node2&#45;&gt;Node1 -->
<g id="edge1" class="edge">
<title>Node2&#45;&gt;Node1</title>
<path fill="none" stroke="#404040" d="M101.12,-138.48C108.42,-118.61 118.39,-91.49 126.54,-69.34"/>
<polygon fill="none" stroke="#404040" points="126.58,-69.21 124.9,-62.2 130.73,-57.95 132.41,-64.96 126.58,-69.21"/>
<text text-anchor="middle" x="163" y="-84.5" font-family="Helvetica,sans-Serif" font-size="10.00"> +DestroyScript</text>
</g>
<!-- Node3 -->
<g id="node3" class="node">
<title>Node3</title>
<g id="a_node3"><a xlink:href="classgauri_1_1ScriptableEntity.html" target="_top" xlink:title=" ">
<polygon fill="white" stroke="black" points="200,-116.5 200,-217.5 400,-217.5 400,-116.5 200,-116.5"/>
<text text-anchor="middle" x="300" y="-205.5" font-family="Helvetica,sans-Serif" font-size="10.00">gauri::ScriptableEntity</text>
<polyline fill="none" stroke="black" points="200,-198.5 400,-198.5 "/>
<text text-anchor="middle" x="300" y="-186.5" font-family="Helvetica,sans-Serif" font-size="10.00"> </text>
<polyline fill="none" stroke="black" points="200,-179.5 400,-179.5 "/>
<text text-anchor="start" x="208" y="-167.5" font-family="Helvetica,sans-Serif" font-size="10.00">+ virtual ~ScriptableEntity()=default</text>
<text text-anchor="start" x="208" y="-156.5" font-family="Helvetica,sans-Serif" font-size="10.00">+ T &amp; GetComponent()</text>
<text text-anchor="start" x="208" y="-145.5" font-family="Helvetica,sans-Serif" font-size="10.00"># virtual void OnCreate()</text>
<text text-anchor="start" x="208" y="-134.5" font-family="Helvetica,sans-Serif" font-size="10.00"># virtual void OnDestroy()</text>
<text text-anchor="start" x="208" y="-123.5" font-family="Helvetica,sans-Serif" font-size="10.00"># virtual void OnUpdate(Timestep ts)</text>
</a>
</g>
</g>
<!-- Node3&#45;&gt;Node1 -->
<g id="edge2" class="edge">
<title>Node3&#45;&gt;Node1</title>
<path fill="none" stroke="#404040" d="M251.01,-116.47C236.88,-102.91 221.16,-88.51 206,-76 201.5,-72.29 196.73,-68.56 191.88,-64.91"/>
<polygon fill="none" stroke="#404040" points="191.57,-64.68 184.37,-64.34 181.91,-57.56 189.11,-57.9 191.57,-64.68"/>
<text text-anchor="middle" x="275.5" y="-90" font-family="Helvetica,sans-Serif" font-size="10.00"> +Instance</text>
<text text-anchor="middle" x="275.5" y="-79" font-family="Helvetica,sans-Serif" font-size="10.00">+InstantiateScript</text>
</g>
<!-- Node4 -->
<g id="node4" class="node">
<title>Node4</title>
<g id="a_node4"><a xlink:href="classgauri_1_1Entity.html" target="_top" xlink:title=" ">
<polygon fill="white" stroke="black" points="187,-265.5 187,-399.5 413,-399.5 413,-265.5 187,-265.5"/>
<text text-anchor="middle" x="300" y="-387.5" font-family="Helvetica,sans-Serif" font-size="10.00">gauri::Entity</text>
<polyline fill="none" stroke="black" points="187,-380.5 413,-380.5 "/>
<text text-anchor="middle" x="300" y="-368.5" font-family="Helvetica,sans-Serif" font-size="10.00"> </text>
<polyline fill="none" stroke="black" points="187,-361.5 413,-361.5 "/>
<text text-anchor="start" x="195" y="-349.5" font-family="Helvetica,sans-Serif" font-size="10.00">+ Entity()=default</text>
<text text-anchor="start" x="195" y="-338.5" font-family="Helvetica,sans-Serif" font-size="10.00">+ Entity(entt::entity handle, Scene *scene)</text>
<text text-anchor="start" x="195" y="-327.5" font-family="Helvetica,sans-Serif" font-size="10.00">+ Entity(const Entity &amp;other)=default</text>
<text text-anchor="start" x="195" y="-316.5" font-family="Helvetica,sans-Serif" font-size="10.00">+ T &amp; AddComponent(Args &amp;&amp;...args)</text>
<text text-anchor="start" x="195" y="-305.5" font-family="Helvetica,sans-Serif" font-size="10.00">+ T &amp; GetComponent()</text>
<text text-anchor="start" x="195" y="-294.5" font-family="Helvetica,sans-Serif" font-size="10.00">+ bool HasComponent()</text>
<text text-anchor="start" x="195" y="-283.5" font-family="Helvetica,sans-Serif" font-size="10.00">+ void RemoveComponent()</text>
<text text-anchor="start" x="195" y="-272.5" font-family="Helvetica,sans-Serif" font-size="10.00">+ operator bool() const</text>
</a>
</g>
</g>
<!-- Node4&#45;&gt;Node3 -->
<g id="edge3" class="edge">
<title>Node4&#45;&gt;Node3</title>
<path fill="none" stroke="#404040" d="M300,-265.47C300,-253.75 300,-241.59 300,-229.99"/>
<polygon fill="none" stroke="#404040" points="300,-229.68 296,-223.68 300,-217.68 304,-223.68 300,-229.68"/>
<text text-anchor="middle" x="325.5" y="-239" font-family="Helvetica,sans-Serif" font-size="10.00"> &#45;m_Entity</text>
</g>
<!-- Node5 -->
<g id="node5" class="node">
<title>Node5</title>
<g id="a_node5"><a xlink:href="classgauri_1_1Scene.html" target="_top" xlink:title=" ">
<polygon fill="white" stroke="black" points="49,-447.5 49,-548.5 357,-548.5 357,-447.5 49,-447.5"/>
<text text-anchor="middle" x="203" y="-536.5" font-family="Helvetica,sans-Serif" font-size="10.00">gauri::Scene</text>
<polyline fill="none" stroke="black" points="49,-529.5 357,-529.5 "/>
<text text-anchor="middle" x="203" y="-517.5" font-family="Helvetica,sans-Serif" font-size="10.00"> </text>
<polyline fill="none" stroke="black" points="49,-510.5 357,-510.5 "/>
<text text-anchor="start" x="57" y="-498.5" font-family="Helvetica,sans-Serif" font-size="10.00">+ Scene()</text>
<text text-anchor="start" x="57" y="-487.5" font-family="Helvetica,sans-Serif" font-size="10.00">+ ~Scene()</text>
<text text-anchor="start" x="57" y="-476.5" font-family="Helvetica,sans-Serif" font-size="10.00">+ Entity CreateEntity(const std::string &amp;name=std::string())</text>
<text text-anchor="start" x="57" y="-465.5" font-family="Helvetica,sans-Serif" font-size="10.00">+ void OnUpdate(Timestep ts)</text>
<text text-anchor="start" x="57" y="-454.5" font-family="Helvetica,sans-Serif" font-size="10.00">+ void OnViewportResize(uint32_t width, uint32_t height)</text>
</a>
</g>
</g>
<!-- Node5&#45;&gt;Node4 -->
<g id="edge4" class="edge">
<title>Node5&#45;&gt;Node4</title>
<path fill="none" stroke="#404040" d="M232.63,-447.06C239.55,-435.39 247.08,-422.7 254.51,-410.17"/>
<polygon fill="none" stroke="#404040" points="254.6,-410.03 254.22,-402.83 260.72,-399.71 261.1,-406.91 254.6,-410.03"/>
<text text-anchor="middle" x="275" y="-421" font-family="Helvetica,sans-Serif" font-size="10.00"> &#45;m_Scene</text>
</g>
<!-- Node6 -->
<g id="node6" class="node">
<title>Node6</title>
<g id="a_node6"><a xlink:title=" ">
<polygon fill="white" stroke="#bfbfbf" points="133,-607.5 133,-664.5 187,-664.5 187,-607.5 133,-607.5"/>
<text text-anchor="middle" x="160" y="-652.5" font-family="Helvetica,sans-Serif" font-size="10.00">registry</text>
<polyline fill="none" stroke="#bfbfbf" points="133,-645.5 187,-645.5 "/>
<text text-anchor="middle" x="160" y="-633.5" font-family="Helvetica,sans-Serif" font-size="10.00"> </text>
<polyline fill="none" stroke="#bfbfbf" points="133,-626.5 187,-626.5 "/>
<text text-anchor="middle" x="160" y="-614.5" font-family="Helvetica,sans-Serif" font-size="10.00"> </text>
</a>
</g>
</g>
<!-- Node6&#45;&gt;Node5 -->
<g id="edge5" class="edge">
<title>Node6&#45;&gt;Node5</title>
<path fill="none" stroke="#404040" d="M157.1,-607.37C156.62,-594.82 157.23,-579.92 161,-567 161.67,-564.7 162.44,-562.41 163.3,-560.12"/>
<polygon fill="none" stroke="#404040" points="163.42,-559.84 162.13,-552.75 168.19,-548.83 169.47,-555.93 163.42,-559.84"/>
<text text-anchor="middle" x="192.5" y="-575.5" font-family="Helvetica,sans-Serif" font-size="10.00"> &#45;m_Registry</text>
</g>
<!-- Node7 -->
<g id="node7" class="node">
<title>Node7</title>
<g id="a_node7"><a xlink:title=" ">
<polygon fill="white" stroke="#bfbfbf" points="218,-607.5 218,-664.5 274,-664.5 274,-607.5 218,-607.5"/>
<text text-anchor="middle" x="246" y="-652.5" font-family="Helvetica,sans-Serif" font-size="10.00">uint32_t</text>
<polyline fill="none" stroke="#bfbfbf" points="218,-645.5 274,-645.5 "/>
<text text-anchor="middle" x="246" y="-633.5" font-family="Helvetica,sans-Serif" font-size="10.00"> </text>
<polyline fill="none" stroke="#bfbfbf" points="218,-626.5 274,-626.5 "/>
<text text-anchor="middle" x="246" y="-614.5" font-family="Helvetica,sans-Serif" font-size="10.00"> </text>
</a>
</g>
</g>
<!-- Node7&#45;&gt;Node5 -->
<g id="edge6" class="edge">
<title>Node7&#45;&gt;Node5</title>
<path fill="none" stroke="#404040" d="M237.3,-607.48C233.01,-593.93 227.66,-577 222.47,-560.58"/>
<polygon fill="none" stroke="#404040" points="222.35,-560.21 216.73,-555.69 218.73,-548.76 224.36,-553.28 222.35,-560.21"/>
<text text-anchor="middle" x="280" y="-581" font-family="Helvetica,sans-Serif" font-size="10.00"> &#45;m_ViewportHeight</text>
<text text-anchor="middle" x="280" y="-570" font-family="Helvetica,sans-Serif" font-size="10.00">&#45;m_ViewportWidth</text>
</g>
<!-- Node8 -->
<g id="node8" class="node">
<title>Node8</title>
<g id="a_node8"><a xlink:title=" ">
<polygon fill="white" stroke="#bfbfbf" points="375.5,-469.5 375.5,-526.5 420.5,-526.5 420.5,-469.5 375.5,-469.5"/>
<text text-anchor="middle" x="398" y="-514.5" font-family="Helvetica,sans-Serif" font-size="10.00">entity</text>
<polyline fill="none" stroke="#bfbfbf" points="375.5,-507.5 420.5,-507.5 "/>
<text text-anchor="middle" x="398" y="-495.5" font-family="Helvetica,sans-Serif" font-size="10.00"> </text>
<polyline fill="none" stroke="#bfbfbf" points="375.5,-488.5 420.5,-488.5 "/>
<text text-anchor="middle" x="398" y="-476.5" font-family="Helvetica,sans-Serif" font-size="10.00"> </text>
</a>
</g>
</g>
<!-- Node8&#45;&gt;Node4 -->
<g id="edge7" class="edge">
<title>Node8&#45;&gt;Node4</title>
<path fill="none" stroke="#404040" d="M381.38,-469.26C371.52,-452.82 358.5,-431.1 345.78,-409.87"/>
<polygon fill="none" stroke="#404040" points="345.74,-409.8 339.22,-406.71 339.57,-399.51 346.08,-402.6 345.74,-409.8"/>
<text text-anchor="middle" x="396.5" y="-421" font-family="Helvetica,sans-Serif" font-size="10.00"> &#45;m_EntityHandle</text>
</g>
</g>
</svg>
