<?xml version="1.0" encoding="UTF-8" standalone="no"?>
<!DOCTYPE svg PUBLIC "-//W3C//DTD SVG 1.1//EN"
 "http://www.w3.org/Graphics/SVG/1.1/DTD/svg11.dtd">
<!-- Generated by graphviz version 2.43.0 (0)
 -->
<!-- Title: gauri::ProfileResult Pages: 1 -->
<svg width="268pt" height="277pt"
 viewBox="0.00 0.00 267.50 277.00" xmlns="http://www.w3.org/2000/svg" xmlns:xlink="http://www.w3.org/1999/xlink">
<g id="graph0" class="graph" transform="scale(1 1) rotate(0) translate(4 273)">
<title>gauri::ProfileResult</title>
<polygon fill="white" stroke="transparent" points="-4,4 -4,-273 263.5,-273 263.5,4 -4,4"/>
<!-- Node1 -->
<g id="node1" class="node">
<title>Node1</title>
<g id="a_node1"><a xlink:title=" ">
<polygon fill="#bfbfbf" stroke="black" points="52.5,-0.5 52.5,-57.5 161.5,-57.5 161.5,-0.5 52.5,-0.5"/>
<text text-anchor="middle" x="107" y="-45.5" font-family="Helvetica,sans-Serif" font-size="10.00">gauri::ProfileResult</text>
<polyline fill="none" stroke="black" points="52.5,-38.5 161.5,-38.5 "/>
<text text-anchor="middle" x="107" y="-26.5" font-family="Helvetica,sans-Serif" font-size="10.00"> </text>
<polyline fill="none" stroke="black" points="52.5,-19.5 161.5,-19.5 "/>
<text text-anchor="middle" x="107" y="-7.5" font-family="Helvetica,sans-Serif" font-size="10.00"> </text>
</a>
</g>
</g>
<!-- Node2 -->
<g id="node2" class="node">
<title>Node2</title>
<g id="a_node2"><a xlink:title=" ">
<polygon fill="white" stroke="#bfbfbf" points="0,-116.5 0,-173.5 56,-173.5 56,-116.5 0,-116.5"/>
<text text-anchor="middle" x="28" y="-161.5" font-family="Helvetica,sans-Serif" font-size="10.00">uint32_t</text>
<polyline fill="none" stroke="#bfbfbf" points="0,-154.5 56,-154.5 "/>
<text text-anchor="middle" x="28" y="-142.5" font-family="Helvetica,sans-Serif" font-size="10.00"> </text>
<polyline fill="none" stroke="#bfbfbf" points="0,-135.5 56,-135.5 "/>
<text text-anchor="middle" x="28" y="-123.5" font-family="Helvetica,sans-Serif" font-size="10.00"> </text>
</a>
</g>
</g>
<!-- Node2&#45;&gt;Node1 -->
<g id="edge1" class="edge">
<title>Node2&#45;&gt;Node1</title>
<path fill="none" stroke="#404040" d="M31.55,-116.47C34.23,-103.37 38.9,-87.98 47,-76 49.35,-72.52 52.05,-69.2 54.97,-66.04"/>
<polygon fill="none" stroke="#404040" points="55.08,-65.94 56.61,-58.89 63.71,-57.6 62.17,-64.64 55.08,-65.94"/>
<text text-anchor="middle" x="75" y="-84.5" font-family="Helvetica,sans-Serif" font-size="10.00"> +ThreadID</text>
</g>
<!-- Node3 -->
<g id="node3" class="node">
<title>Node3</title>
<g id="a_node3"><a xlink:title=" ">
<polygon fill="white" stroke="#bfbfbf" points="76,-116.5 76,-173.5 138,-173.5 138,-116.5 76,-116.5"/>
<text text-anchor="middle" x="107" y="-161.5" font-family="Helvetica,sans-Serif" font-size="10.00">long long</text>
<polyline fill="none" stroke="#bfbfbf" points="76,-154.5 138,-154.5 "/>
<text text-anchor="middle" x="107" y="-142.5" font-family="Helvetica,sans-Serif" font-size="10.00"> </text>
<polyline fill="none" stroke="#bfbfbf" points="76,-135.5 138,-135.5 "/>
<text text-anchor="middle" x="107" y="-123.5" font-family="Helvetica,sans-Serif" font-size="10.00"> </text>
</a>
</g>
</g>
<!-- Node3&#45;&gt;Node1 -->
<g id="edge2" class="edge">
<title>Node3&#45;&gt;Node1</title>
<path fill="none" stroke="#404040" d="M107,-116.4C107,-102.5 107,-85.39 107,-70.07"/>
<polygon fill="none" stroke="#404040" points="107,-69.74 103,-63.74 107,-57.74 111,-63.74 107,-69.74"/>
<text text-anchor="middle" x="123" y="-90" font-family="Helvetica,sans-Serif" font-size="10.00"> +End</text>
<text text-anchor="middle" x="123" y="-79" font-family="Helvetica,sans-Serif" font-size="10.00">+Start</text>
</g>
<!-- Node4 -->
<g id="node4" class="node">
<title>Node4</title>
<g id="a_node4"><a xlink:title=" ">
<polygon fill="white" stroke="#bfbfbf" points="156.5,-116.5 156.5,-173.5 221.5,-173.5 221.5,-116.5 156.5,-116.5"/>
<text text-anchor="middle" x="189" y="-161.5" font-family="Helvetica,sans-Serif" font-size="10.00">std::string</text>
<polyline fill="none" stroke="#bfbfbf" points="156.5,-154.5 221.5,-154.5 "/>
<text text-anchor="middle" x="189" y="-142.5" font-family="Helvetica,sans-Serif" font-size="10.00"> </text>
<polyline fill="none" stroke="#bfbfbf" points="156.5,-135.5 221.5,-135.5 "/>
<text text-anchor="middle" x="189" y="-123.5" font-family="Helvetica,sans-Serif" font-size="10.00"> </text>
</a>
</g>
</g>
<!-- Node4&#45;&gt;Node1 -->
<g id="edge3" class="edge">
<title>Node4&#45;&gt;Node1</title>
<path fill="none" stroke="#404040" d="M170.85,-116.24C162.55,-103.79 152.48,-89.02 143,-76 140.99,-73.23 138.88,-70.4 136.73,-67.56"/>
<polygon fill="none" stroke="#404040" points="136.7,-67.51 129.87,-65.18 129.4,-57.98 136.22,-60.31 136.7,-67.51"/>
<text text-anchor="middle" x="178.5" y="-84.5" font-family="Helvetica,sans-Serif" font-size="10.00"> +Name</text>
</g>
<!-- Node5 -->
<g id="node5" class="node">
<title>Node5</title>
<g id="a_node5"><a xlink:title=" ">
<polygon fill="white" stroke="#bfbfbf" points="118.5,-211.5 118.5,-268.5 259.5,-268.5 259.5,-211.5 118.5,-211.5"/>
<text text-anchor="middle" x="189" y="-256.5" font-family="Helvetica,sans-Serif" font-size="10.00">std::basic_string&lt; Char &gt;</text>
<polyline fill="none" stroke="#bfbfbf" points="118.5,-249.5 259.5,-249.5 "/>
<text text-anchor="middle" x="189" y="-237.5" font-family="Helvetica,sans-Serif" font-size="10.00"> </text>
<polyline fill="none" stroke="#bfbfbf" points="118.5,-230.5 259.5,-230.5 "/>
<text text-anchor="middle" x="189" y="-218.5" font-family="Helvetica,sans-Serif" font-size="10.00"> </text>
</a>
</g>
</g>
<!-- Node5&#45;&gt;Node4 -->
<g id="edge4" class="edge">
<title>Node5&#45;&gt;Node4</title>
<path fill="none" stroke="midnightblue" d="M189,-201.24C189,-192.03 189,-182.35 189,-173.71"/>
<polygon fill="none" stroke="midnightblue" points="185.5,-201.35 189,-211.35 192.5,-201.35 185.5,-201.35"/>
</g>
</g>
</svg>
