<?xml version="1.0" encoding="UTF-8" standalone="no"?>
<!DOCTYPE svg PUBLIC "-//W3C//DTD SVG 1.1//EN"
 "http://www.w3.org/Graphics/SVG/1.1/DTD/svg11.dtd">
<!-- Generated by graphviz version 2.43.0 (0)
 -->
<!-- Title: gauri::WindowProperty Pages: 1 -->
<svg width="525pt" height="277pt"
 viewBox="0.00 0.00 525.00 277.00" xmlns="http://www.w3.org/2000/svg" xmlns:xlink="http://www.w3.org/1999/xlink">
<g id="graph0" class="graph" transform="scale(1 1) rotate(0) translate(4 273)">
<title>gauri::WindowProperty</title>
<polygon fill="white" stroke="transparent" points="-4,4 -4,-273 521,-273 521,4 -4,4"/>
<!-- Node1 -->
<g id="node1" class="node">
<title>Node1</title>
<g id="a_node1"><a xlink:title=" ">
<polygon fill="#bfbfbf" stroke="black" points="0,-0.5 0,-57.5 517,-57.5 517,-0.5 0,-0.5"/>
<text text-anchor="middle" x="258.5" y="-45.5" font-family="Helvetica,sans-Serif" font-size="10.00">gauri::WindowProperty</text>
<polyline fill="none" stroke="black" points="0,-38.5 517,-38.5 "/>
<text text-anchor="middle" x="258.5" y="-26.5" font-family="Helvetica,sans-Serif" font-size="10.00"> </text>
<polyline fill="none" stroke="black" points="0,-19.5 517,-19.5 "/>
<text text-anchor="start" x="8" y="-7.5" font-family="Helvetica,sans-Serif" font-size="10.00">+ WindowProperty(const std::string &amp;title=&quot;Gauri Engine&quot;, uint32_t width=1600, uint32_t height=900)</text>
</a>
</g>
</g>
<!-- Node2 -->
<g id="node2" class="node">
<title>Node2</title>
<g id="a_node2"><a xlink:title=" ">
<polygon fill="white" stroke="#bfbfbf" points="197.5,-116.5 197.5,-173.5 253.5,-173.5 253.5,-116.5 197.5,-116.5"/>
<text text-anchor="middle" x="225.5" y="-161.5" font-family="Helvetica,sans-Serif" font-size="10.00">uint32_t</text>
<polyline fill="none" stroke="#bfbfbf" points="197.5,-154.5 253.5,-154.5 "/>
<text text-anchor="middle" x="225.5" y="-142.5" font-family="Helvetica,sans-Serif" font-size="10.00"> </text>
<polyline fill="none" stroke="#bfbfbf" points="197.5,-135.5 253.5,-135.5 "/>
<text text-anchor="middle" x="225.5" y="-123.5" font-family="Helvetica,sans-Serif" font-size="10.00"> </text>
</a>
</g>
</g>
<!-- Node2&#45;&gt;Node1 -->
<g id="edge1" class="edge">
<title>Node2&#45;&gt;Node1</title>
<path fill="none" stroke="#404040" d="M225.78,-116.34C226.55,-103.79 228.39,-88.89 232.5,-76 233.26,-73.61 234.16,-71.21 235.15,-68.82"/>
<polygon fill="none" stroke="#404040" points="235.2,-68.71 234.17,-61.57 240.36,-57.87 241.39,-65.01 235.2,-68.71"/>
<text text-anchor="middle" x="254.5" y="-90" font-family="Helvetica,sans-Serif" font-size="10.00"> +Height</text>
<text text-anchor="middle" x="254.5" y="-79" font-family="Helvetica,sans-Serif" font-size="10.00">+Width</text>
</g>
<!-- Node3 -->
<g id="node3" class="node">
<title>Node3</title>
<g id="a_node3"><a xlink:title=" ">
<polygon fill="white" stroke="#bfbfbf" points="272,-116.5 272,-173.5 337,-173.5 337,-116.5 272,-116.5"/>
<text text-anchor="middle" x="304.5" y="-161.5" font-family="Helvetica,sans-Serif" font-size="10.00">std::string</text>
<polyline fill="none" stroke="#bfbfbf" points="272,-154.5 337,-154.5 "/>
<text text-anchor="middle" x="304.5" y="-142.5" font-family="Helvetica,sans-Serif" font-size="10.00"> </text>
<polyline fill="none" stroke="#bfbfbf" points="272,-135.5 337,-135.5 "/>
<text text-anchor="middle" x="304.5" y="-123.5" font-family="Helvetica,sans-Serif" font-size="10.00"> </text>
</a>
</g>
</g>
<!-- Node3&#45;&gt;Node1 -->
<g id="edge2" class="edge">
<title>Node3&#45;&gt;Node1</title>
<path fill="none" stroke="#404040" d="M293.36,-116.4C287.64,-102.23 280.57,-84.71 274.3,-69.16"/>
<polygon fill="none" stroke="#404040" points="274.18,-68.87 268.23,-64.8 269.69,-57.74 275.65,-61.8 274.18,-68.87"/>
<text text-anchor="middle" x="303.5" y="-84.5" font-family="Helvetica,sans-Serif" font-size="10.00"> +Title</text>
</g>
<!-- Node4 -->
<g id="node4" class="node">
<title>Node4</title>
<g id="a_node4"><a xlink:title=" ">
<polygon fill="white" stroke="#bfbfbf" points="234,-211.5 234,-268.5 375,-268.5 375,-211.5 234,-211.5"/>
<text text-anchor="middle" x="304.5" y="-256.5" font-family="Helvetica,sans-Serif" font-size="10.00">std::basic_string&lt; Char &gt;</text>
<polyline fill="none" stroke="#bfbfbf" points="234,-249.5 375,-249.5 "/>
<text text-anchor="middle" x="304.5" y="-237.5" font-family="Helvetica,sans-Serif" font-size="10.00"> </text>
<polyline fill="none" stroke="#bfbfbf" points="234,-230.5 375,-230.5 "/>
<text text-anchor="middle" x="304.5" y="-218.5" font-family="Helvetica,sans-Serif" font-size="10.00"> </text>
</a>
</g>
</g>
<!-- Node4&#45;&gt;Node3 -->
<g id="edge3" class="edge">
<title>Node4&#45;&gt;Node3</title>
<path fill="none" stroke="midnightblue" d="M304.5,-201.24C304.5,-192.03 304.5,-182.35 304.5,-173.71"/>
<polygon fill="none" stroke="midnightblue" points="301,-201.35 304.5,-211.35 308,-201.35 301,-201.35"/>
</g>
</g>
</svg>
