<?xml version="1.0" encoding="UTF-8" standalone="no"?>
<!DOCTYPE svg PUBLIC "-//W3C//DTD SVG 1.1//EN"
 "http://www.w3.org/Graphics/SVG/1.1/DTD/svg11.dtd">
<!-- Generated by graphviz version 2.43.0 (0)
 -->
<!-- Title: /home/runner/work/gauri/gauri/gauri/include/gauri/renderer/subtexture_2d.h Pages: 1 -->
<svg width="634pt" height="252pt"
 viewBox="0.00 0.00 633.50 252.00" xmlns="http://www.w3.org/2000/svg" xmlns:xlink="http://www.w3.org/1999/xlink">
<g id="graph0" class="graph" transform="scale(1 1) rotate(0) translate(4 248)">
<title>/home/runner/work/gauri/gauri/gauri/include/gauri/renderer/subtexture_2d.h</title>
<polygon fill="white" stroke="transparent" points="-4,4 -4,-248 629.5,-248 629.5,4 -4,4"/>
<!-- Node1 -->
<g id="node1" class="node">
<title>Node1</title>
<g id="a_node1"><a xlink:title=" ">
<polygon fill="#bfbfbf" stroke="black" points="0,-224.5 0,-243.5 384,-243.5 384,-224.5 0,-224.5"/>
<text text-anchor="middle" x="192" y="-231.5" font-family="Helvetica,sans-Serif" font-size="10.00">/home/runner/work/gauri/gauri/gauri/include/gauri/renderer/subtexture_2d.h</text>
</a>
</g>
</g>
<!-- Node2 -->
<g id="node2" class="node">
<title>Node2</title>
<g id="a_node2"><a xlink:title=" ">
<polygon fill="white" stroke="#bfbfbf" points="91,-168.5 91,-187.5 169,-187.5 169,-168.5 91,-168.5"/>
<text text-anchor="middle" x="130" y="-175.5" font-family="Helvetica,sans-Serif" font-size="10.00">glm/glm.hpp</text>
</a>
</g>
</g>
<!-- Node1&#45;&gt;Node2 -->
<g id="edge1" class="edge">
<title>Node1&#45;&gt;Node2</title>
<path fill="none" stroke="midnightblue" d="M182.04,-224.32C172.87,-216.34 159.06,-204.31 147.97,-194.65"/>
<polygon fill="midnightblue" stroke="midnightblue" points="149.98,-191.76 140.14,-187.83 145.38,-197.04 149.98,-191.76"/>
</g>
<!-- Node3 -->
<g id="node3" class="node">
<title>Node3</title>
<g id="a_node3"><a xlink:href="texture_8h.html" target="_top" xlink:title=" ">
<polygon fill="white" stroke="black" points="187.5,-168.5 187.5,-187.5 320.5,-187.5 320.5,-168.5 187.5,-168.5"/>
<text text-anchor="middle" x="254" y="-175.5" font-family="Helvetica,sans-Serif" font-size="10.00">gauri/renderer/texture.h</text>
</a>
</g>
</g>
<!-- Node1&#45;&gt;Node3 -->
<g id="edge2" class="edge">
<title>Node1&#45;&gt;Node3</title>
<path fill="none" stroke="midnightblue" d="M201.96,-224.32C211.13,-216.34 224.94,-204.31 236.03,-194.65"/>
<polygon fill="midnightblue" stroke="midnightblue" points="238.62,-197.04 243.86,-187.83 234.02,-191.76 238.62,-197.04"/>
</g>
<!-- Node4 -->
<g id="node4" class="node">
<title>Node4</title>
<g id="a_node4"><a xlink:title=" ">
<polygon fill="white" stroke="#bfbfbf" points="187,-112.5 187,-131.5 231,-131.5 231,-112.5 187,-112.5"/>
<text text-anchor="middle" x="209" y="-119.5" font-family="Helvetica,sans-Serif" font-size="10.00">string</text>
</a>
</g>
</g>
<!-- Node3&#45;&gt;Node4 -->
<g id="edge3" class="edge">
<title>Node3&#45;&gt;Node4</title>
<path fill="none" stroke="midnightblue" d="M246.57,-168.08C240.15,-160.38 230.69,-149.03 222.88,-139.65"/>
<polygon fill="midnightblue" stroke="midnightblue" points="225.38,-137.19 216.29,-131.75 220.01,-141.67 225.38,-137.19"/>
</g>
<!-- Node5 -->
<g id="node5" class="node">
<title>Node5</title>
<g id="a_node5"><a xlink:href="base_8h.html" target="_top" xlink:title=" ">
<polygon fill="white" stroke="black" points="249.5,-112.5 249.5,-131.5 350.5,-131.5 350.5,-112.5 249.5,-112.5"/>
<text text-anchor="middle" x="300" y="-119.5" font-family="Helvetica,sans-Serif" font-size="10.00">gauri/core/base.h</text>
</a>
</g>
</g>
<!-- Node3&#45;&gt;Node5 -->
<g id="edge4" class="edge">
<title>Node3&#45;&gt;Node5</title>
<path fill="none" stroke="midnightblue" d="M261.6,-168.08C268.23,-160.3 278.02,-148.8 286.06,-139.37"/>
<polygon fill="midnightblue" stroke="midnightblue" points="288.73,-141.63 292.55,-131.75 283.4,-137.09 288.73,-141.63"/>
</g>
<!-- Node6 -->
<g id="node6" class="node">
<title>Node6</title>
<g id="a_node6"><a xlink:title=" ">
<polygon fill="white" stroke="#bfbfbf" points="222,-56.5 222,-75.5 272,-75.5 272,-56.5 222,-56.5"/>
<text text-anchor="middle" x="247" y="-63.5" font-family="Helvetica,sans-Serif" font-size="10.00">cstdint</text>
</a>
</g>
</g>
<!-- Node5&#45;&gt;Node6 -->
<g id="edge5" class="edge">
<title>Node5&#45;&gt;Node6</title>
<path fill="none" stroke="midnightblue" d="M291.25,-112.08C283.53,-104.22 272.1,-92.57 262.78,-83.08"/>
<polygon fill="midnightblue" stroke="midnightblue" points="265.09,-80.44 255.59,-75.75 260.1,-85.34 265.09,-80.44"/>
</g>
<!-- Node7 -->
<g id="node7" class="node">
<title>Node7</title>
<g id="a_node7"><a xlink:title=" ">
<polygon fill="white" stroke="#bfbfbf" points="271,-0.5 271,-19.5 329,-19.5 329,-0.5 271,-0.5"/>
<text text-anchor="middle" x="300" y="-7.5" font-family="Helvetica,sans-Serif" font-size="10.00">memory</text>
</a>
</g>
</g>
<!-- Node5&#45;&gt;Node7 -->
<g id="edge6" class="edge">
<title>Node5&#45;&gt;Node7</title>
<path fill="none" stroke="midnightblue" d="M300,-112.37C300,-94.62 300,-53.67 300,-29.6"/>
<polygon fill="midnightblue" stroke="midnightblue" points="303.5,-29.59 300,-19.59 296.5,-29.59 303.5,-29.59"/>
</g>
<!-- Node8 -->
<g id="node8" class="node">
<title>Node8</title>
<g id="a_node8"><a xlink:href="logger_8h.html" target="_top" xlink:title=" ">
<polygon fill="white" stroke="black" points="328.5,-56.5 328.5,-75.5 435.5,-75.5 435.5,-56.5 328.5,-56.5"/>
<text text-anchor="middle" x="382" y="-63.5" font-family="Helvetica,sans-Serif" font-size="10.00">gauri/core/logger.h</text>
</a>
</g>
</g>
<!-- Node5&#45;&gt;Node8 -->
<g id="edge7" class="edge">
<title>Node5&#45;&gt;Node8</title>
<path fill="none" stroke="midnightblue" d="M313.17,-112.32C325.85,-103.98 345.23,-91.21 360.21,-81.35"/>
<polygon fill="midnightblue" stroke="midnightblue" points="362.43,-84.08 368.86,-75.65 358.58,-78.23 362.43,-84.08"/>
</g>
<!-- Node8&#45;&gt;Node7 -->
<g id="edge9" class="edge">
<title>Node8&#45;&gt;Node7</title>
<path fill="none" stroke="midnightblue" d="M368.83,-56.32C356.15,-47.98 336.77,-35.21 321.79,-25.35"/>
<polygon fill="midnightblue" stroke="midnightblue" points="323.42,-22.23 313.14,-19.65 319.57,-28.08 323.42,-22.23"/>
</g>
<!-- Node9 -->
<g id="node9" class="node">
<title>Node9</title>
<g id="a_node9"><a xlink:title=" ">
<polygon fill="white" stroke="#bfbfbf" points="347,-0.5 347,-19.5 397,-19.5 397,-0.5 347,-0.5"/>
<text text-anchor="middle" x="372" y="-7.5" font-family="Helvetica,sans-Serif" font-size="10.00">format</text>
</a>
</g>
</g>
<!-- Node8&#45;&gt;Node9 -->
<g id="edge8" class="edge">
<title>Node8&#45;&gt;Node9</title>
<path fill="none" stroke="midnightblue" d="M380.35,-56.08C379.02,-48.93 377.12,-38.64 375.46,-29.69"/>
<polygon fill="midnightblue" stroke="midnightblue" points="378.88,-28.95 373.62,-19.75 372,-30.22 378.88,-28.95"/>
</g>
<!-- Node10 -->
<g id="node10" class="node">
<title>Node10</title>
<g id="a_node10"><a xlink:title=" ">
<polygon fill="white" stroke="#bfbfbf" points="415.5,-0.5 415.5,-19.5 514.5,-19.5 514.5,-0.5 415.5,-0.5"/>
<text text-anchor="middle" x="465" y="-7.5" font-family="Helvetica,sans-Serif" font-size="10.00">spdlog/fmt/ostr.h</text>
</a>
</g>
</g>
<!-- Node8&#45;&gt;Node10 -->
<g id="edge10" class="edge">
<title>Node8&#45;&gt;Node10</title>
<path fill="none" stroke="midnightblue" d="M395.34,-56.32C408.16,-47.98 427.78,-35.21 442.94,-25.35"/>
<polygon fill="midnightblue" stroke="midnightblue" points="445.22,-28.04 451.7,-19.65 441.41,-22.17 445.22,-28.04"/>
</g>
<!-- Node11 -->
<g id="node11" class="node">
<title>Node11</title>
<g id="a_node11"><a xlink:title=" ">
<polygon fill="white" stroke="#bfbfbf" points="532.5,-0.5 532.5,-19.5 625.5,-19.5 625.5,-0.5 532.5,-0.5"/>
<text text-anchor="middle" x="579" y="-7.5" font-family="Helvetica,sans-Serif" font-size="10.00">spdlog/spdlog.h</text>
</a>
</g>
</g>
<!-- Node8&#45;&gt;Node11 -->
<g id="edge11" class="edge">
<title>Node8&#45;&gt;Node11</title>
<path fill="none" stroke="midnightblue" d="M413.22,-56.44C446.93,-47.2 500.8,-32.44 537.93,-22.26"/>
<polygon fill="midnightblue" stroke="midnightblue" points="539.21,-25.54 547.93,-19.52 537.36,-18.78 539.21,-25.54"/>
</g>
</g>
</svg>
