<?xml version="1.0" encoding="UTF-8" standalone="no"?>
<!DOCTYPE svg PUBLIC "-//W3C//DTD SVG 1.1//EN"
 "http://www.w3.org/Graphics/SVG/1.1/DTD/svg11.dtd">
<!-- Generated by graphviz version 2.43.0 (0)
 -->
<!-- Title: /home/runner/work/gauri/gauri/gauri/include/gauri/core/time_step.h Pages: 1 -->
<svg width="935pt" height="308pt"
 viewBox="0.00 0.00 934.52 308.00" xmlns="http://www.w3.org/2000/svg" xmlns:xlink="http://www.w3.org/1999/xlink">
<g id="graph0" class="graph" transform="scale(1 1) rotate(0) translate(4 304)">
<title>/home/runner/work/gauri/gauri/gauri/include/gauri/core/time_step.h</title>
<polygon fill="white" stroke="transparent" points="-4,4 -4,-304 930.52,-304 930.52,4 -4,4"/>
<!-- Node1 -->
<g id="node1" class="node">
<title>Node1</title>
<g id="a_node1"><a xlink:title=" ">
<polygon fill="#bfbfbf" stroke="black" points="0,-280.5 0,-299.5 343,-299.5 343,-280.5 0,-280.5"/>
<text text-anchor="middle" x="171.5" y="-287.5" font-family="Helvetica,sans-Serif" font-size="10.00">/home/runner/work/gauri/gauri/gauri/include/gauri/core/time_step.h</text>
</a>
</g>
</g>
<!-- Node2 -->
<g id="node2" class="node">
<title>Node2</title>
<g id="a_node2"><a xlink:href="application_8h.html" target="_top" xlink:title=" ">
<polygon fill="white" stroke="black" points="285.5,-112.5 285.5,-131.5 609.5,-131.5 609.5,-112.5 285.5,-112.5"/>
<text text-anchor="middle" x="447.5" y="-119.5" font-family="Helvetica,sans-Serif" font-size="10.00">/home/runner/work/gauri/gauri/gauri/include/gauri/application.h</text>
</a>
</g>
</g>
<!-- Node1&#45;&gt;Node2 -->
<g id="edge1" class="edge">
<title>Node1&#45;&gt;Node2</title>
<path fill="none" stroke="midnightblue" d="M168.4,-270.28C165.17,-243.69 163.77,-195.21 190.5,-168 209.23,-148.94 265.3,-137.89 320.3,-131.51"/>
<polygon fill="midnightblue" stroke="midnightblue" points="164.94,-270.81 169.82,-280.21 171.87,-269.81 164.94,-270.81"/>
</g>
<!-- Node3 -->
<g id="node3" class="node">
<title>Node3</title>
<g id="a_node3"><a xlink:href="gauri_8h.html" target="_top" xlink:title=" ">
<polygon fill="white" stroke="black" points="451,-56.5 451,-75.5 718,-75.5 718,-56.5 451,-56.5"/>
<text text-anchor="middle" x="584.5" y="-63.5" font-family="Helvetica,sans-Serif" font-size="10.00">/home/runner/work/gauri/gauri/gauri/include/gauri.h</text>
</a>
</g>
</g>
<!-- Node1&#45;&gt;Node3 -->
<g id="edge12" class="edge">
<title>Node1&#45;&gt;Node3</title>
<path fill="none" stroke="midnightblue" d="M165.65,-270.51C158.79,-244.91 150.87,-198.42 172.5,-168 202.92,-125.22 226.66,-128.49 276.5,-112 334.35,-92.86 400.98,-81.85 457.45,-75.52"/>
<polygon fill="midnightblue" stroke="midnightblue" points="162.37,-271.76 168.53,-280.37 169.09,-269.79 162.37,-271.76"/>
</g>
<!-- Node5 -->
<g id="node5" class="node">
<title>Node5</title>
<g id="a_node5"><a xlink:href="layer_8h.html" target="_top" xlink:title=" ">
<polygon fill="white" stroke="black" points="395.5,-224.5 395.5,-243.5 689.5,-243.5 689.5,-224.5 395.5,-224.5"/>
<text text-anchor="middle" x="542.5" y="-231.5" font-family="Helvetica,sans-Serif" font-size="10.00">/home/runner/work/gauri/gauri/gauri/include/gauri/layer.h</text>
</a>
</g>
</g>
<!-- Node1&#45;&gt;Node5 -->
<g id="edge5" class="edge">
<title>Node1&#45;&gt;Node5</title>
<path fill="none" stroke="midnightblue" d="M240.35,-278.98C310.43,-268.78 417.89,-253.14 483.99,-243.52"/>
<polygon fill="midnightblue" stroke="midnightblue" points="239.68,-275.54 230.29,-280.44 240.69,-282.47 239.68,-275.54"/>
</g>
<!-- Node2&#45;&gt;Node3 -->
<g id="edge2" class="edge">
<title>Node2&#45;&gt;Node3</title>
<path fill="none" stroke="midnightblue" d="M478.52,-108.77C504.26,-98.63 540.19,-84.47 562.89,-75.52"/>
<polygon fill="midnightblue" stroke="midnightblue" points="477.23,-105.52 469.21,-112.44 479.79,-112.03 477.23,-105.52"/>
</g>
<!-- Node4 -->
<g id="node4" class="node">
<title>Node4</title>
<g id="a_node4"><a xlink:href="entry__point_8h.html" target="_top" xlink:title=" ">
<polygon fill="white" stroke="black" points="421.5,-0.5 421.5,-19.5 747.5,-19.5 747.5,-0.5 421.5,-0.5"/>
<text text-anchor="middle" x="584.5" y="-7.5" font-family="Helvetica,sans-Serif" font-size="10.00">/home/runner/work/gauri/gauri/gauri/include/gauri/entry_point.h</text>
</a>
</g>
</g>
<!-- Node3&#45;&gt;Node4 -->
<g id="edge3" class="edge">
<title>Node3&#45;&gt;Node4</title>
<path fill="none" stroke="midnightblue" d="M578.03,-46.1C577.4,-37.14 577.84,-26.86 579.37,-19.75"/>
<polygon fill="midnightblue" stroke="midnightblue" points="574.57,-46.62 579.33,-56.08 581.51,-45.71 574.57,-46.62"/>
</g>
<!-- Node4&#45;&gt;Node3 -->
<g id="edge4" class="edge">
<title>Node4&#45;&gt;Node3</title>
<path fill="none" stroke="midnightblue" d="M590.96,-29.69C591.61,-38.64 591.18,-48.93 589.67,-56.08"/>
<polygon fill="midnightblue" stroke="midnightblue" points="594.42,-29.2 589.63,-19.75 587.48,-30.13 594.42,-29.2"/>
</g>
<!-- Node5&#45;&gt;Node3 -->
<g id="edge11" class="edge">
<title>Node5&#45;&gt;Node3</title>
<path fill="none" stroke="midnightblue" d="M695.62,-223.73C790.01,-216.4 895.78,-204.63 910.5,-188 973.87,-116.41 834.06,-87.09 718.22,-75.13"/>
<polygon fill="midnightblue" stroke="midnightblue" points="695.35,-220.24 685.64,-224.49 695.88,-227.22 695.35,-220.24"/>
</g>
<!-- Node6 -->
<g id="node6" class="node">
<title>Node6</title>
<g id="a_node6"><a xlink:href="imgui__layer_8h.html" target="_top" xlink:title=" ">
<polygon fill="white" stroke="black" points="543.5,-168.5 543.5,-187.5 901.5,-187.5 901.5,-168.5 543.5,-168.5"/>
<text text-anchor="middle" x="722.5" y="-175.5" font-family="Helvetica,sans-Serif" font-size="10.00">/home/runner/work/gauri/gauri/gauri/include/gauri/imgui/imgui_layer.h</text>
</a>
</g>
</g>
<!-- Node5&#45;&gt;Node6 -->
<g id="edge6" class="edge">
<title>Node5&#45;&gt;Node6</title>
<path fill="none" stroke="midnightblue" d="M580.61,-221.57C614.56,-211.38 663.49,-196.7 694.11,-187.52"/>
<polygon fill="midnightblue" stroke="midnightblue" points="579.59,-218.22 571.02,-224.44 581.61,-224.92 579.59,-218.22"/>
</g>
<!-- Node7 -->
<g id="node7" class="node">
<title>Node7</title>
<g id="a_node7"><a xlink:href="layer__stack_8h.html" target="_top" xlink:title=" ">
<polygon fill="white" stroke="black" points="199.5,-168.5 199.5,-187.5 525.5,-187.5 525.5,-168.5 199.5,-168.5"/>
<text text-anchor="middle" x="362.5" y="-175.5" font-family="Helvetica,sans-Serif" font-size="10.00">/home/runner/work/gauri/gauri/gauri/include/gauri/layer_stack.h</text>
</a>
</g>
</g>
<!-- Node5&#45;&gt;Node7 -->
<g id="edge9" class="edge">
<title>Node5&#45;&gt;Node7</title>
<path fill="none" stroke="midnightblue" d="M504.39,-221.57C470.44,-211.38 421.51,-196.7 390.89,-187.52"/>
<polygon fill="midnightblue" stroke="midnightblue" points="503.39,-224.92 513.98,-224.44 505.41,-218.22 503.39,-224.92"/>
</g>
<!-- Node6&#45;&gt;Node2 -->
<g id="edge7" class="edge">
<title>Node6&#45;&gt;Node2</title>
<path fill="none" stroke="midnightblue" d="M668.89,-166.47C616.92,-156.27 539.06,-140.98 490.87,-131.52"/>
<polygon fill="midnightblue" stroke="midnightblue" points="668.44,-169.95 678.93,-168.44 669.79,-163.08 668.44,-169.95"/>
</g>
<!-- Node6&#45;&gt;Node3 -->
<g id="edge8" class="edge">
<title>Node6&#45;&gt;Node3</title>
<path fill="none" stroke="midnightblue" d="M703.83,-162.12C674.54,-138.77 618.71,-94.27 595.28,-75.59"/>
<polygon fill="midnightblue" stroke="midnightblue" points="701.67,-164.87 711.67,-168.37 706.03,-159.4 701.67,-164.87"/>
</g>
<!-- Node7&#45;&gt;Node2 -->
<g id="edge10" class="edge">
<title>Node7&#45;&gt;Node2</title>
<path fill="none" stroke="midnightblue" d="M384.69,-162.9C400.28,-153 420.63,-140.07 433.88,-131.65"/>
<polygon fill="midnightblue" stroke="midnightblue" points="382.72,-160.01 376.16,-168.32 386.47,-165.92 382.72,-160.01"/>
</g>
</g>
</svg>
