<?xml version="1.0" encoding="UTF-8" standalone="no"?>
<!DOCTYPE svg PUBLIC "-//W3C//DTD SVG 1.1//EN"
 "http://www.w3.org/Graphics/SVG/1.1/DTD/svg11.dtd">
<!-- Generated by graphviz version 2.43.0 (0)
 -->
<!-- Title: /home/runner/work/gauri/gauri/gauri/include/gauri/core/timestep.h Pages: 1 -->
<svg width="1350pt" height="364pt"
 viewBox="0.00 0.00 1349.76 364.00" xmlns="http://www.w3.org/2000/svg" xmlns:xlink="http://www.w3.org/1999/xlink">
<g id="graph0" class="graph" transform="scale(1 1) rotate(0) translate(4 360)">
<title>/home/runner/work/gauri/gauri/gauri/include/gauri/core/timestep.h</title>
<polygon fill="white" stroke="transparent" points="-4,4 -4,-360 1345.76,-360 1345.76,4 -4,4"/>
<!-- Node1 -->
<g id="node1" class="node">
<title>Node1</title>
<g id="a_node1"><a xlink:title=" ">
<polygon fill="#bfbfbf" stroke="black" points="152,-336.5 152,-355.5 490,-355.5 490,-336.5 152,-336.5"/>
<text text-anchor="middle" x="321" y="-343.5" font-family="Helvetica,sans-Serif" font-size="10.00">/home/runner/work/gauri/gauri/gauri/include/gauri/core/timestep.h</text>
</a>
</g>
</g>
<!-- Node2 -->
<g id="node2" class="node">
<title>Node2</title>
<g id="a_node2"><a xlink:href="application_8h.html" target="_top" xlink:title=" ">
<polygon fill="white" stroke="black" points="236,-112.5 236,-131.5 584,-131.5 584,-112.5 236,-112.5"/>
<text text-anchor="middle" x="410" y="-119.5" font-family="Helvetica,sans-Serif" font-size="10.00">/home/runner/work/gauri/gauri/gauri/include/gauri/core/application.h</text>
</a>
</g>
</g>
<!-- Node1&#45;&gt;Node2 -->
<g id="edge1" class="edge">
<title>Node1&#45;&gt;Node2</title>
<path fill="none" stroke="midnightblue" d="M273.36,-333.98C179.4,-310.17 -14.69,-249.41 57,-168 71.83,-151.16 183.47,-138.95 277.29,-131.53"/>
<polygon fill="midnightblue" stroke="midnightblue" points="272.66,-337.41 283.21,-336.43 274.35,-330.62 272.66,-337.41"/>
</g>
<!-- Node3 -->
<g id="node3" class="node">
<title>Node3</title>
<g id="a_node3"><a xlink:href="gauri_8h.html" target="_top" xlink:title=" ">
<polygon fill="white" stroke="black" points="724.5,-56.5 724.5,-75.5 991.5,-75.5 991.5,-56.5 724.5,-56.5"/>
<text text-anchor="middle" x="858" y="-63.5" font-family="Helvetica,sans-Serif" font-size="10.00">/home/runner/work/gauri/gauri/gauri/include/gauri.h</text>
</a>
</g>
</g>
<!-- Node1&#45;&gt;Node3 -->
<g id="edge21" class="edge">
<title>Node1&#45;&gt;Node3</title>
<path fill="none" stroke="midnightblue" d="M247.85,-334.88C153.12,-319.69 0,-287.08 0,-235 0,-235 0,-235 0,-177 0,-104.87 483.25,-79.05 724.41,-70.66"/>
<polygon fill="midnightblue" stroke="midnightblue" points="247.54,-338.38 257.96,-336.48 248.63,-331.46 247.54,-338.38"/>
</g>
<!-- Node5 -->
<g id="node5" class="node">
<title>Node5</title>
<g id="a_node5"><a xlink:href="layer_8h.html" target="_top" xlink:title=" ">
<polygon fill="white" stroke="black" points="268,-224.5 268,-243.5 586,-243.5 586,-224.5 268,-224.5"/>
<text text-anchor="middle" x="427" y="-231.5" font-family="Helvetica,sans-Serif" font-size="10.00">/home/runner/work/gauri/gauri/gauri/include/gauri/core/layer.h</text>
</a>
</g>
</g>
<!-- Node1&#45;&gt;Node5 -->
<g id="edge4" class="edge">
<title>Node1&#45;&gt;Node5</title>
<path fill="none" stroke="midnightblue" d="M322.5,-326.41C324.49,-312.31 329.15,-293.18 340,-280 354.7,-262.15 378.34,-250.56 397.26,-243.63"/>
<polygon fill="midnightblue" stroke="midnightblue" points="319.01,-326.11 321.4,-336.43 325.97,-326.87 319.01,-326.11"/>
</g>
<!-- Node8 -->
<g id="node8" class="node">
<title>Node8</title>
<g id="a_node8"><a xlink:href="orthographic__camera__controller_8h.html" target="_top" xlink:title=" ">
<polygon fill="white" stroke="black" points="349.5,-280.5 349.5,-299.5 818.5,-299.5 818.5,-280.5 349.5,-280.5"/>
<text text-anchor="middle" x="584" y="-287.5" font-family="Helvetica,sans-Serif" font-size="10.00">/home/runner/work/gauri/gauri/gauri/include/gauri/renderer/orthographic_camera_controller.h</text>
</a>
</g>
</g>
<!-- Node1&#45;&gt;Node8 -->
<g id="edge11" class="edge">
<title>Node1&#45;&gt;Node8</title>
<path fill="none" stroke="midnightblue" d="M372.58,-334.41C422.28,-324.2 496.53,-308.96 542.52,-299.52"/>
<polygon fill="midnightblue" stroke="midnightblue" points="371.76,-331 362.67,-336.44 373.17,-337.86 371.76,-331"/>
</g>
<!-- Node9 -->
<g id="node9" class="node">
<title>Node9</title>
<g id="a_node9"><a xlink:href="scene_8h.html" target="_top" xlink:title=" ">
<polygon fill="white" stroke="black" points="837,-280.5 837,-299.5 1167,-299.5 1167,-280.5 837,-280.5"/>
<text text-anchor="middle" x="1002" y="-287.5" font-family="Helvetica,sans-Serif" font-size="10.00">/home/runner/work/gauri/gauri/gauri/include/gauri/scene/scene.h</text>
</a>
</g>
</g>
<!-- Node1&#45;&gt;Node9 -->
<g id="edge13" class="edge">
<title>Node1&#45;&gt;Node9</title>
<path fill="none" stroke="midnightblue" d="M438.79,-335.66C567.14,-325.48 770.71,-309.34 894.75,-299.5"/>
<polygon fill="midnightblue" stroke="midnightblue" points="438.22,-332.19 428.53,-336.47 438.78,-339.17 438.22,-332.19"/>
</g>
<!-- Node2&#45;&gt;Node3 -->
<g id="edge2" class="edge">
<title>Node2&#45;&gt;Node3</title>
<path fill="none" stroke="midnightblue" d="M491.06,-111.23C575.63,-101.04 706.87,-85.22 787.35,-75.52"/>
<polygon fill="midnightblue" stroke="midnightblue" points="490.5,-107.77 480.99,-112.44 491.33,-114.72 490.5,-107.77"/>
</g>
<!-- Node4 -->
<g id="node4" class="node">
<title>Node4</title>
<g id="a_node4"><a xlink:href="entry__point_8h.html" target="_top" xlink:title=" ">
<polygon fill="white" stroke="black" points="683,-0.5 683,-19.5 1033,-19.5 1033,-0.5 683,-0.5"/>
<text text-anchor="middle" x="858" y="-7.5" font-family="Helvetica,sans-Serif" font-size="10.00">/home/runner/work/gauri/gauri/gauri/include/gauri/core/entry_point.h</text>
</a>
</g>
</g>
<!-- Node3&#45;&gt;Node4 -->
<g id="edge3" class="edge">
<title>Node3&#45;&gt;Node4</title>
<path fill="none" stroke="midnightblue" d="M858,-45.8C858,-36.91 858,-26.78 858,-19.75"/>
<polygon fill="midnightblue" stroke="midnightblue" points="854.5,-46.08 858,-56.08 861.5,-46.08 854.5,-46.08"/>
</g>
<!-- Node5&#45;&gt;Node3 -->
<g id="edge10" class="edge">
<title>Node5&#45;&gt;Node3</title>
<path fill="none" stroke="midnightblue" d="M596.14,-228.4C679.06,-223.07 768.07,-211.77 801,-188 820.87,-173.66 846.71,-100.76 855.18,-75.57"/>
<polygon fill="midnightblue" stroke="midnightblue" points="595.82,-224.91 586.06,-229.02 596.25,-231.9 595.82,-224.91"/>
</g>
<!-- Node6 -->
<g id="node6" class="node">
<title>Node6</title>
<g id="a_node6"><a xlink:href="layer__stack_8h.html" target="_top" xlink:title=" ">
<polygon fill="white" stroke="black" points="66,-168.5 66,-187.5 416,-187.5 416,-168.5 66,-168.5"/>
<text text-anchor="middle" x="241" y="-175.5" font-family="Helvetica,sans-Serif" font-size="10.00">/home/runner/work/gauri/gauri/gauri/include/gauri/core/layer_stack.h</text>
</a>
</g>
</g>
<!-- Node5&#45;&gt;Node6 -->
<g id="edge5" class="edge">
<title>Node5&#45;&gt;Node6</title>
<path fill="none" stroke="midnightblue" d="M387.62,-221.57C352.53,-211.38 301.98,-196.7 270.33,-187.52"/>
<polygon fill="midnightblue" stroke="midnightblue" points="386.95,-225.02 397.53,-224.44 388.9,-218.29 386.95,-225.02"/>
</g>
<!-- Node7 -->
<g id="node7" class="node">
<title>Node7</title>
<g id="a_node7"><a xlink:href="imgui__layer_8h.html" target="_top" xlink:title=" ">
<polygon fill="white" stroke="black" points="434,-168.5 434,-187.5 792,-187.5 792,-168.5 434,-168.5"/>
<text text-anchor="middle" x="613" y="-175.5" font-family="Helvetica,sans-Serif" font-size="10.00">/home/runner/work/gauri/gauri/gauri/include/gauri/imgui/imgui_layer.h</text>
</a>
</g>
</g>
<!-- Node5&#45;&gt;Node7 -->
<g id="edge7" class="edge">
<title>Node5&#45;&gt;Node7</title>
<path fill="none" stroke="midnightblue" d="M466.38,-221.57C501.47,-211.38 552.02,-196.7 583.67,-187.52"/>
<polygon fill="midnightblue" stroke="midnightblue" points="465.1,-218.29 456.47,-224.44 467.05,-225.02 465.1,-218.29"/>
</g>
<!-- Node6&#45;&gt;Node2 -->
<g id="edge6" class="edge">
<title>Node6&#45;&gt;Node2</title>
<path fill="none" stroke="midnightblue" d="M277.6,-165.3C309.45,-155.13 354.84,-140.62 383.35,-131.52"/>
<polygon fill="midnightblue" stroke="midnightblue" points="276.24,-162.07 267.78,-168.44 278.37,-168.73 276.24,-162.07"/>
</g>
<!-- Node7&#45;&gt;Node2 -->
<g id="edge8" class="edge">
<title>Node7&#45;&gt;Node2</title>
<path fill="none" stroke="midnightblue" d="M571.01,-165.83C532.68,-155.63 476.85,-140.78 442.02,-131.52"/>
<polygon fill="midnightblue" stroke="midnightblue" points="570.27,-169.26 580.83,-168.44 572.07,-162.49 570.27,-169.26"/>
</g>
<!-- Node7&#45;&gt;Node3 -->
<g id="edge9" class="edge">
<title>Node7&#45;&gt;Node3</title>
<path fill="none" stroke="midnightblue" d="M641.59,-164.16C692.14,-141.47 796.01,-94.83 838.86,-75.59"/>
<polygon fill="midnightblue" stroke="midnightblue" points="639.91,-161.08 632.22,-168.37 642.78,-167.47 639.91,-161.08"/>
</g>
<!-- Node8&#45;&gt;Node3 -->
<g id="edge12" class="edge">
<title>Node8&#45;&gt;Node3</title>
<path fill="none" stroke="midnightblue" d="M642.21,-278.12C695.82,-265.26 774.21,-238.84 823,-188 854.04,-155.66 857.81,-97.52 858.08,-75.64"/>
<polygon fill="midnightblue" stroke="midnightblue" points="641.12,-274.78 632.17,-280.44 642.7,-281.6 641.12,-274.78"/>
</g>
<!-- Node9&#45;&gt;Node3 -->
<g id="edge20" class="edge">
<title>Node9&#45;&gt;Node3</title>
<path fill="none" stroke="midnightblue" d="M980.17,-274.48C969.24,-266.43 956.37,-255.7 947,-244 901.41,-187.09 870.29,-103.05 860.94,-75.85"/>
<polygon fill="midnightblue" stroke="midnightblue" points="978.24,-277.4 988.42,-280.32 982.29,-271.69 978.24,-277.4"/>
</g>
<!-- Node10 -->
<g id="node10" class="node">
<title>Node10</title>
<g id="a_node10"><a xlink:href="entity_8h.html" target="_top" xlink:title=" ">
<polygon fill="white" stroke="black" points="956.5,-224.5 956.5,-243.5 1285.5,-243.5 1285.5,-224.5 956.5,-224.5"/>
<text text-anchor="middle" x="1121" y="-231.5" font-family="Helvetica,sans-Serif" font-size="10.00">/home/runner/work/gauri/gauri/gauri/include/gauri/scene/entity.h</text>
</a>
</g>
</g>
<!-- Node9&#45;&gt;Node10 -->
<g id="edge14" class="edge">
<title>Node9&#45;&gt;Node10</title>
<path fill="none" stroke="midnightblue" d="M1030.14,-276.23C1052.4,-266.13 1082.86,-252.31 1102.23,-243.52"/>
<polygon fill="midnightblue" stroke="midnightblue" points="1028.52,-273.12 1020.86,-280.44 1031.41,-279.5 1028.52,-273.12"/>
</g>
<!-- Node10&#45;&gt;Node3 -->
<g id="edge19" class="edge">
<title>Node10&#45;&gt;Node3</title>
<path fill="none" stroke="midnightblue" d="M1211.29,-223C1257.03,-215.98 1306.02,-204.8 1321,-188 1343.55,-162.71 1349.79,-137.08 1327,-112 1304.69,-87.44 1122.27,-75.94 991.65,-70.81"/>
<polygon fill="midnightblue" stroke="midnightblue" points="1210.67,-219.55 1201.29,-224.48 1211.69,-226.48 1210.67,-219.55"/>
</g>
<!-- Node11 -->
<g id="node11" class="node">
<title>Node11</title>
<g id="a_node11"><a xlink:href="scriptable__entity_8h.html" target="_top" xlink:title=" ">
<polygon fill="white" stroke="black" points="930,-168.5 930,-187.5 1312,-187.5 1312,-168.5 930,-168.5"/>
<text text-anchor="middle" x="1121" y="-175.5" font-family="Helvetica,sans-Serif" font-size="10.00">/home/runner/work/gauri/gauri/gauri/include/gauri/scene/scriptable_entity.h</text>
</a>
</g>
</g>
<!-- Node10&#45;&gt;Node11 -->
<g id="edge15" class="edge">
<title>Node10&#45;&gt;Node11</title>
<path fill="none" stroke="midnightblue" d="M1121,-213.8C1121,-204.91 1121,-194.78 1121,-187.75"/>
<polygon fill="midnightblue" stroke="midnightblue" points="1117.5,-214.08 1121,-224.08 1124.5,-214.08 1117.5,-214.08"/>
</g>
<!-- Node11&#45;&gt;Node3 -->
<g id="edge18" class="edge">
<title>Node11&#45;&gt;Node3</title>
<path fill="none" stroke="midnightblue" d="M1062.1,-166.34C1029.08,-159.11 987.68,-147.94 953,-132 919.41,-116.56 884.76,-89.49 868.12,-75.66"/>
<polygon fill="midnightblue" stroke="midnightblue" points="1061.56,-169.8 1072.07,-168.45 1063.01,-162.95 1061.56,-169.8"/>
</g>
<!-- Node12 -->
<g id="node12" class="node">
<title>Node12</title>
<g id="a_node12"><a xlink:href="component_8h.html" target="_top" xlink:title=" ">
<polygon fill="white" stroke="black" points="962,-112.5 962,-131.5 1318,-131.5 1318,-112.5 962,-112.5"/>
<text text-anchor="middle" x="1140" y="-119.5" font-family="Helvetica,sans-Serif" font-size="10.00">/home/runner/work/gauri/gauri/gauri/include/gauri/scene/component.h</text>
</a>
</g>
</g>
<!-- Node11&#45;&gt;Node12 -->
<g id="edge16" class="edge">
<title>Node11&#45;&gt;Node12</title>
<path fill="none" stroke="midnightblue" d="M1127.55,-158.4C1130.72,-149.36 1134.39,-138.94 1136.92,-131.75"/>
<polygon fill="midnightblue" stroke="midnightblue" points="1124.15,-157.49 1124.14,-168.08 1130.76,-159.81 1124.15,-157.49"/>
</g>
<!-- Node12&#45;&gt;Node3 -->
<g id="edge17" class="edge">
<title>Node12&#45;&gt;Node3</title>
<path fill="none" stroke="midnightblue" d="M1085.36,-110.54C1032.06,-100.33 952,-85 902.47,-75.52"/>
<polygon fill="midnightblue" stroke="midnightblue" points="1084.84,-114 1095.32,-112.44 1086.15,-107.13 1084.84,-114"/>
</g>
</g>
</svg>
