<?xml version="1.0" encoding="UTF-8" standalone="no"?>
<!DOCTYPE svg PUBLIC "-//W3C//DTD SVG 1.1//EN"
 "http://www.w3.org/Graphics/SVG/1.1/DTD/svg11.dtd">
<!-- Generated by graphviz version 2.43.0 (0)
 -->
<!-- Title: /home/runner/work/gauri/gauri/gauri/include/gauri/core/timestep.h Pages: 1 -->
<svg width="1356pt" height="308pt"
 viewBox="0.00 0.00 1355.50 308.00" xmlns="http://www.w3.org/2000/svg" xmlns:xlink="http://www.w3.org/1999/xlink">
<g id="graph0" class="graph" transform="scale(1 1) rotate(0) translate(4 304)">
<title>/home/runner/work/gauri/gauri/gauri/include/gauri/core/timestep.h</title>
<polygon fill="white" stroke="transparent" points="-4,4 -4,-304 1351.5,-304 1351.5,4 -4,4"/>
<!-- Node1 -->
<g id="node1" class="node">
<title>Node1</title>
<g id="a_node1"><a xlink:title=" ">
<polygon fill="#bfbfbf" stroke="black" points="0,-280.5 0,-299.5 338,-299.5 338,-280.5 0,-280.5"/>
<text text-anchor="middle" x="169" y="-287.5" font-family="Helvetica,sans-Serif" font-size="10.00">/home/runner/work/gauri/gauri/gauri/include/gauri/core/timestep.h</text>
</a>
</g>
</g>
<!-- Node2 -->
<g id="node2" class="node">
<title>Node2</title>
<g id="a_node2"><a xlink:href="application_8h.html" target="_top" xlink:title=" ">
<polygon fill="white" stroke="black" points="182,-112.5 182,-131.5 530,-131.5 530,-112.5 182,-112.5"/>
<text text-anchor="middle" x="356" y="-119.5" font-family="Helvetica,sans-Serif" font-size="10.00">/home/runner/work/gauri/gauri/gauri/include/gauri/core/application.h</text>
</a>
</g>
</g>
<!-- Node1&#45;&gt;Node2 -->
<g id="edge1" class="edge">
<title>Node1&#45;&gt;Node2</title>
<path fill="none" stroke="midnightblue" d="M146.81,-274.67C113.26,-251.28 56.6,-203.91 87,-168 103.22,-148.85 152.12,-137.84 203.87,-131.52"/>
<polygon fill="midnightblue" stroke="midnightblue" points="144.93,-277.63 155.17,-280.34 148.86,-271.83 144.93,-277.63"/>
</g>
<!-- Node3 -->
<g id="node3" class="node">
<title>Node3</title>
<g id="a_node3"><a xlink:href="gauri_8h.html" target="_top" xlink:title=" ">
<polygon fill="white" stroke="black" points="509.5,-56.5 509.5,-75.5 776.5,-75.5 776.5,-56.5 509.5,-56.5"/>
<text text-anchor="middle" x="643" y="-63.5" font-family="Helvetica,sans-Serif" font-size="10.00">/home/runner/work/gauri/gauri/gauri/include/gauri.h</text>
</a>
</g>
</g>
<!-- Node1&#45;&gt;Node3 -->
<g id="edge14" class="edge">
<title>Node1&#45;&gt;Node3</title>
<path fill="none" stroke="midnightblue" d="M133.09,-276.36C117.42,-269.15 100.13,-258.58 89,-244 73.44,-223.6 78.13,-213.46 75,-188 73.91,-179.18 70.54,-175.69 75,-168 100.18,-124.61 125.18,-127.17 173,-112 233.5,-92.8 392.82,-80.36 509.25,-73.53"/>
<polygon fill="midnightblue" stroke="midnightblue" points="131.99,-279.7 142.56,-280.43 134.75,-273.27 131.99,-279.7"/>
</g>
<!-- Node5 -->
<g id="node5" class="node">
<title>Node5</title>
<g id="a_node5"><a xlink:href="layer_8h.html" target="_top" xlink:title=" ">
<polygon fill="white" stroke="black" points="298,-224.5 298,-243.5 616,-243.5 616,-224.5 298,-224.5"/>
<text text-anchor="middle" x="457" y="-231.5" font-family="Helvetica,sans-Serif" font-size="10.00">/home/runner/work/gauri/gauri/gauri/include/gauri/core/layer.h</text>
</a>
</g>
</g>
<!-- Node1&#45;&gt;Node5 -->
<g id="edge5" class="edge">
<title>Node1&#45;&gt;Node5</title>
<path fill="none" stroke="midnightblue" d="M224.8,-278.54C279.23,-268.33 361,-253 411.58,-243.52"/>
<polygon fill="midnightblue" stroke="midnightblue" points="223.82,-275.16 214.63,-280.44 225.11,-282.04 223.82,-275.16"/>
</g>
<!-- Node8 -->
<g id="node8" class="node">
<title>Node8</title>
<g id="a_node8"><a xlink:href="orthographic__camera__controller_8h.html" target="_top" xlink:title=" ">
<polygon fill="white" stroke="black" points="878.5,-112.5 878.5,-131.5 1347.5,-131.5 1347.5,-112.5 878.5,-112.5"/>
<text text-anchor="middle" x="1113" y="-119.5" font-family="Helvetica,sans-Serif" font-size="10.00">/home/runner/work/gauri/gauri/gauri/include/gauri/renderer/orthographic_camera_controller.h</text>
</a>
</g>
</g>
<!-- Node1&#45;&gt;Node8 -->
<g id="edge12" class="edge">
<title>Node1&#45;&gt;Node8</title>
<path fill="none" stroke="midnightblue" d="M318.61,-279.71C407.96,-272.8 523.47,-261.49 625,-244 726.98,-226.43 750.56,-212.9 851,-188 932.65,-167.76 1028.61,-143.94 1078.67,-131.52"/>
<polygon fill="midnightblue" stroke="midnightblue" points="318.1,-276.24 308.39,-280.49 318.63,-283.22 318.1,-276.24"/>
</g>
<!-- Node2&#45;&gt;Node3 -->
<g id="edge2" class="edge">
<title>Node2&#45;&gt;Node3</title>
<path fill="none" stroke="midnightblue" d="M411.61,-110.54C465.85,-100.33 547.34,-85 597.74,-75.52"/>
<polygon fill="midnightblue" stroke="midnightblue" points="410.66,-107.15 401.48,-112.44 411.95,-114.03 410.66,-107.15"/>
</g>
<!-- Node4 -->
<g id="node4" class="node">
<title>Node4</title>
<g id="a_node4"><a xlink:href="entry__point_8h.html" target="_top" xlink:title=" ">
<polygon fill="white" stroke="black" points="468,-0.5 468,-19.5 818,-19.5 818,-0.5 468,-0.5"/>
<text text-anchor="middle" x="643" y="-7.5" font-family="Helvetica,sans-Serif" font-size="10.00">/home/runner/work/gauri/gauri/gauri/include/gauri/core/entry_point.h</text>
</a>
</g>
</g>
<!-- Node3&#45;&gt;Node4 -->
<g id="edge3" class="edge">
<title>Node3&#45;&gt;Node4</title>
<path fill="none" stroke="midnightblue" d="M636.53,-46.1C635.9,-37.14 636.34,-26.86 637.87,-19.75"/>
<polygon fill="midnightblue" stroke="midnightblue" points="633.07,-46.62 637.83,-56.08 640.01,-45.71 633.07,-46.62"/>
</g>
<!-- Node4&#45;&gt;Node3 -->
<g id="edge4" class="edge">
<title>Node4&#45;&gt;Node3</title>
<path fill="none" stroke="midnightblue" d="M649.46,-29.69C650.11,-38.64 649.68,-48.93 648.17,-56.08"/>
<polygon fill="midnightblue" stroke="midnightblue" points="652.92,-29.2 648.13,-19.75 645.98,-30.13 652.92,-29.2"/>
</g>
<!-- Node5&#45;&gt;Node3 -->
<g id="edge11" class="edge">
<title>Node5&#45;&gt;Node3</title>
<path fill="none" stroke="midnightblue" d="M614.62,-223.74C710.03,-216.47 816.13,-204.76 831,-188 880.38,-132.32 750.31,-92.16 681.91,-75.52"/>
<polygon fill="midnightblue" stroke="midnightblue" points="614.25,-220.25 604.54,-224.49 614.77,-227.23 614.25,-220.25"/>
</g>
<!-- Node6 -->
<g id="node6" class="node">
<title>Node6</title>
<g id="a_node6"><a xlink:href="layer__stack_8h.html" target="_top" xlink:title=" ">
<polygon fill="white" stroke="black" points="96,-168.5 96,-187.5 446,-187.5 446,-168.5 96,-168.5"/>
<text text-anchor="middle" x="271" y="-175.5" font-family="Helvetica,sans-Serif" font-size="10.00">/home/runner/work/gauri/gauri/gauri/include/gauri/core/layer_stack.h</text>
</a>
</g>
</g>
<!-- Node5&#45;&gt;Node6 -->
<g id="edge6" class="edge">
<title>Node5&#45;&gt;Node6</title>
<path fill="none" stroke="midnightblue" d="M417.62,-221.57C382.53,-211.38 331.98,-196.7 300.33,-187.52"/>
<polygon fill="midnightblue" stroke="midnightblue" points="416.95,-225.02 427.53,-224.44 418.9,-218.29 416.95,-225.02"/>
</g>
<!-- Node7 -->
<g id="node7" class="node">
<title>Node7</title>
<g id="a_node7"><a xlink:href="imgui__layer_8h.html" target="_top" xlink:title=" ">
<polygon fill="white" stroke="black" points="464,-168.5 464,-187.5 822,-187.5 822,-168.5 464,-168.5"/>
<text text-anchor="middle" x="643" y="-175.5" font-family="Helvetica,sans-Serif" font-size="10.00">/home/runner/work/gauri/gauri/gauri/include/gauri/imgui/imgui_layer.h</text>
</a>
</g>
</g>
<!-- Node5&#45;&gt;Node7 -->
<g id="edge8" class="edge">
<title>Node5&#45;&gt;Node7</title>
<path fill="none" stroke="midnightblue" d="M496.38,-221.57C531.47,-211.38 582.02,-196.7 613.67,-187.52"/>
<polygon fill="midnightblue" stroke="midnightblue" points="495.1,-218.29 486.47,-224.44 497.05,-225.02 495.1,-218.29"/>
</g>
<!-- Node6&#45;&gt;Node2 -->
<g id="edge7" class="edge">
<title>Node6&#45;&gt;Node2</title>
<path fill="none" stroke="midnightblue" d="M293.19,-162.9C308.78,-153 329.13,-140.07 342.38,-131.65"/>
<polygon fill="midnightblue" stroke="midnightblue" points="291.22,-160.01 284.66,-168.32 294.97,-165.92 291.22,-160.01"/>
</g>
<!-- Node7&#45;&gt;Node2 -->
<g id="edge9" class="edge">
<title>Node7&#45;&gt;Node2</title>
<path fill="none" stroke="midnightblue" d="M587.39,-166.54C533.15,-156.33 451.66,-141 401.26,-131.52"/>
<polygon fill="midnightblue" stroke="midnightblue" points="587.05,-170.03 597.52,-168.44 588.34,-163.15 587.05,-170.03"/>
</g>
<!-- Node7&#45;&gt;Node3 -->
<g id="edge10" class="edge">
<title>Node7&#45;&gt;Node3</title>
<path fill="none" stroke="midnightblue" d="M643,-158.35C643,-134.25 643,-93.31 643,-75.59"/>
<polygon fill="midnightblue" stroke="midnightblue" points="639.5,-158.37 643,-168.37 646.5,-158.37 639.5,-158.37"/>
</g>
<!-- Node8&#45;&gt;Node3 -->
<g id="edge13" class="edge">
<title>Node8&#45;&gt;Node3</title>
<path fill="none" stroke="midnightblue" d="M1028.76,-111.32C940.1,-101.14 801.9,-85.26 717.21,-75.53"/>
<polygon fill="midnightblue" stroke="midnightblue" points="1028.45,-114.81 1038.79,-112.47 1029.25,-107.85 1028.45,-114.81"/>
</g>
</g>
</svg>
