<?xml version="1.0" encoding="UTF-8" standalone="no"?>
<!DOCTYPE svg PUBLIC "-//W3C//DTD SVG 1.1//EN"
 "http://www.w3.org/Graphics/SVG/1.1/DTD/svg11.dtd">
<!-- Generated by graphviz version 2.43.0 (0)
 -->
<!-- Title: /home/runner/work/gauri/gauri/gauri/include/gauri/core/timestep.h Pages: 1 -->
<!--zoomable 364 -->
<svg id="main" version="1.1" xmlns="http://www.w3.org/2000/svg" xmlns:xlink="http://www.w3.org/1999/xlink" xml:space="preserve" onload="init(evt)">
<style type="text/css"><![CDATA[
.edge:hover path { stroke: red; }
.edge:hover polygon { stroke: red; fill: red; }
]]></style>
<script type="text/javascript"><![CDATA[
var edges = document.getElementsByTagName('g');
if (edges && edges.length) {
  for (var i=0;i<edges.length;i++) {
    if (edges[i].id.substr(0,4)=='edge') {
      edges[i].setAttribute('class','edge');
    }
  }
}
]]></script>
        <defs>
                <circle id="rim" cx="0" cy="0" r="7"/>
                <circle id="rim2" cx="0" cy="0" r="3.5"/>
                <g id="zoomPlus">
                        <use xlink:href="#rim" fill="#404040">
                                <set attributeName="fill" to="#808080" begin="zoomplus.mouseover" end="zoomplus.mouseout"/>
                        </use>
                        <path d="M-4,0h8M0,-4v8" fill="none" stroke="white" stroke-width="1.5" pointer-events="none"/>
                </g>
                <g id="zoomMin">
                        <use xlink:href="#rim" fill="#404040">
                                <set attributeName="fill" to="#808080" begin="zoomminus.mouseover" end="zoomminus.mouseout"/>
                        </use>
                        <path d="M-4,0h8" fill="none" stroke="white" stroke-width="1.5" pointer-events="none"/>
                </g>
                <g id="dirArrow">
                        <path fill="none" stroke="white" stroke-width="1.5" d="M0,-3.0v7 M-2.5,-0.5L0,-3.0L2.5,-0.5"/>
                </g>
               <g id="resetDef">
                       <use xlink:href="#rim2" fill="#404040">
                               <set attributeName="fill" to="#808080" begin="reset.mouseover" end="reset.mouseout"/>
                       </use>
               </g>
        </defs>

<script type="text/javascript">
var viewWidth = 1634;
var viewHeight = 364;
var sectionId = 'dynsection-0';
</script>
<script xlink:href="svgpan.js"/>
<svg id="graph" class="graph">
<g id="viewport">
<title>/home/runner/work/gauri/gauri/gauri/include/gauri/core/timestep.h</title>
<polygon fill="white" stroke="transparent" points="-4,4 -4,-360 1630.14,-360 1630.14,4 -4,4"/>
<!-- Node1 -->
<g id="node1" class="node">
<title>Node1</title>
<g id="a_node1"><a xlink:title=" ">
<polygon fill="#bfbfbf" stroke="black" points="426,-336.5 426,-355.5 764,-355.5 764,-336.5 426,-336.5"/>
<text text-anchor="middle" x="595" y="-343.5" font-family="Helvetica,sans-Serif" font-size="10.00">/home/runner/work/gauri/gauri/gauri/include/gauri/core/timestep.h</text>
</a>
</g>
</g>
<!-- Node2 -->
<g id="node2" class="node">
<title>Node2</title>
<g id="a_node2"><a xlink:href="application_8h.html" target="_top" xlink:title=" ">
<polygon fill="white" stroke="black" points="236,-112.5 236,-131.5 584,-131.5 584,-112.5 236,-112.5"/>
<text text-anchor="middle" x="410" y="-119.5" font-family="Helvetica,sans-Serif" font-size="10.00">/home/runner/work/gauri/gauri/gauri/include/gauri/core/application.h</text>
</a>
</g>
</g>
<!-- Node1&#45;&gt;Node2 -->
<g id="edge1" class="edge">
<title>Node1&#45;&gt;Node2</title>
<path fill="none" stroke="midnightblue" d="M524.47,-334.95C391.83,-314.45 113.46,-263.3 57,-188 51.67,-180.89 51.13,-174.67 57,-168 71.83,-151.16 183.47,-138.95 277.29,-131.53"/>
<polygon fill="midnightblue" stroke="midnightblue" points="524.12,-338.44 534.54,-336.49 525.18,-331.52 524.12,-338.44"/>
</g>
<!-- Node3 -->
<g id="node3" class="node">
<title>Node3</title>
<g id="a_node3"><a xlink:href="gauri_8h.html" target="_top" xlink:title=" ">
<polygon fill="white" stroke="black" points="724.5,-56.5 724.5,-75.5 991.5,-75.5 991.5,-56.5 724.5,-56.5"/>
<text text-anchor="middle" x="858" y="-63.5" font-family="Helvetica,sans-Serif" font-size="10.00">/home/runner/work/gauri/gauri/gauri/include/gauri.h</text>
</a>
</g>
</g>
<!-- Node1&#45;&gt;Node3 -->
<g id="edge22" class="edge">
<title>Node1&#45;&gt;Node3</title>
<path fill="none" stroke="midnightblue" d="M483.26,-335.54C310.94,-319.42 0,-283.6 0,-235 0,-235 0,-235 0,-177 0,-104.87 483.25,-79.05 724.41,-70.66"/>
<polygon fill="midnightblue" stroke="midnightblue" points="483.11,-339.04 493.39,-336.48 483.76,-332.07 483.11,-339.04"/>
</g>
<!-- Node5 -->
<g id="node5" class="node">
<title>Node5</title>
<g id="a_node5"><a xlink:href="layer_8h.html" target="_top" xlink:title=" ">
<polygon fill="white" stroke="black" points="445,-224.5 445,-243.5 763,-243.5 763,-224.5 445,-224.5"/>
<text text-anchor="middle" x="604" y="-231.5" font-family="Helvetica,sans-Serif" font-size="10.00">/home/runner/work/gauri/gauri/gauri/include/gauri/core/layer.h</text>
</a>
</g>
</g>
<!-- Node1&#45;&gt;Node5 -->
<g id="edge4" class="edge">
<title>Node1&#45;&gt;Node5</title>
<path fill="none" stroke="midnightblue" d="M596.53,-326.35C598.5,-302.25 601.85,-261.31 603.3,-243.59"/>
<polygon fill="midnightblue" stroke="midnightblue" points="593.03,-326.12 595.71,-336.37 600.01,-326.69 593.03,-326.12"/>
</g>
<!-- Node8 -->
<g id="node8" class="node">
<title>Node8</title>
<g id="a_node8"><a xlink:href="orthographic__camera__controller_8h.html" target="_top" xlink:title=" ">
<polygon fill="white" stroke="black" points="623.5,-280.5 623.5,-299.5 1092.5,-299.5 1092.5,-280.5 623.5,-280.5"/>
<text text-anchor="middle" x="858" y="-287.5" font-family="Helvetica,sans-Serif" font-size="10.00">/home/runner/work/gauri/gauri/gauri/include/gauri/renderer/orthographic_camera_controller.h</text>
</a>
</g>
</g>
<!-- Node1&#45;&gt;Node8 -->
<g id="edge11" class="edge">
<title>Node1&#45;&gt;Node8</title>
<path fill="none" stroke="midnightblue" d="M646.58,-334.41C696.28,-324.2 770.53,-308.96 816.52,-299.52"/>
<polygon fill="midnightblue" stroke="midnightblue" points="645.76,-331 636.67,-336.44 647.17,-337.86 645.76,-331"/>
</g>
<!-- Node9 -->
<g id="node9" class="node">
<title>Node9</title>
<g id="a_node9"><a xlink:href="scene_8h.html" target="_top" xlink:title=" ">
<polygon fill="white" stroke="black" points="1184,-280.5 1184,-299.5 1514,-299.5 1514,-280.5 1184,-280.5"/>
<text text-anchor="middle" x="1349" y="-287.5" font-family="Helvetica,sans-Serif" font-size="10.00">/home/runner/work/gauri/gauri/gauri/include/gauri/scene/scene.h</text>
</a>
</g>
</g>
<!-- Node1&#45;&gt;Node9 -->
<g id="edge13" class="edge">
<title>Node1&#45;&gt;Node9</title>
<path fill="none" stroke="midnightblue" d="M724.14,-335.75C866.17,-325.58 1092.5,-309.37 1230.26,-299.5"/>
<polygon fill="midnightblue" stroke="midnightblue" points="723.78,-332.27 714.06,-336.47 724.28,-339.25 723.78,-332.27"/>
</g>
<!-- Node2&#45;&gt;Node3 -->
<g id="edge2" class="edge">
<title>Node2&#45;&gt;Node3</title>
<path fill="none" stroke="midnightblue" d="M491.06,-111.23C575.63,-101.04 706.87,-85.22 787.35,-75.52"/>
<polygon fill="midnightblue" stroke="midnightblue" points="490.5,-107.77 480.99,-112.44 491.33,-114.72 490.5,-107.77"/>
</g>
<!-- Node4 -->
<g id="node4" class="node">
<title>Node4</title>
<g id="a_node4"><a xlink:href="entry__point_8h.html" target="_top" xlink:title=" ">
<polygon fill="white" stroke="black" points="683,-0.5 683,-19.5 1033,-19.5 1033,-0.5 683,-0.5"/>
<text text-anchor="middle" x="858" y="-7.5" font-family="Helvetica,sans-Serif" font-size="10.00">/home/runner/work/gauri/gauri/gauri/include/gauri/core/entry_point.h</text>
</a>
</g>
</g>
<!-- Node3&#45;&gt;Node4 -->
<g id="edge3" class="edge">
<title>Node3&#45;&gt;Node4</title>
<path fill="none" stroke="midnightblue" d="M858,-45.8C858,-36.91 858,-26.78 858,-19.75"/>
<polygon fill="midnightblue" stroke="midnightblue" points="854.5,-46.08 858,-56.08 861.5,-46.08 854.5,-46.08"/>
</g>
<!-- Node5&#45;&gt;Node3 -->
<g id="edge10" class="edge">
<title>Node5&#45;&gt;Node3</title>
<path fill="none" stroke="midnightblue" d="M729.51,-222.04C755.15,-215.17 780.52,-204.48 801,-188 820,-172.71 846.18,-101.08 854.98,-75.84"/>
<polygon fill="midnightblue" stroke="midnightblue" points="728.54,-218.68 719.68,-224.49 730.23,-225.47 728.54,-218.68"/>
</g>
<!-- Node6 -->
<g id="node6" class="node">
<title>Node6</title>
<g id="a_node6"><a xlink:href="layer__stack_8h.html" target="_top" xlink:title=" ">
<polygon fill="white" stroke="black" points="66,-168.5 66,-187.5 416,-187.5 416,-168.5 66,-168.5"/>
<text text-anchor="middle" x="241" y="-175.5" font-family="Helvetica,sans-Serif" font-size="10.00">/home/runner/work/gauri/gauri/gauri/include/gauri/core/layer_stack.h</text>
</a>
</g>
</g>
<!-- Node5&#45;&gt;Node6 -->
<g id="edge5" class="edge">
<title>Node5&#45;&gt;Node6</title>
<path fill="none" stroke="midnightblue" d="M536.22,-222.92C467.64,-212.71 362.79,-197.12 298.25,-187.52"/>
<polygon fill="midnightblue" stroke="midnightblue" points="536.08,-226.43 546.48,-224.44 537.11,-219.51 536.08,-226.43"/>
</g>
<!-- Node7 -->
<g id="node7" class="node">
<title>Node7</title>
<g id="a_node7"><a xlink:href="imgui__layer_8h.html" target="_top" xlink:title=" ">
<polygon fill="white" stroke="black" points="434,-168.5 434,-187.5 792,-187.5 792,-168.5 434,-168.5"/>
<text text-anchor="middle" x="613" y="-175.5" font-family="Helvetica,sans-Serif" font-size="10.00">/home/runner/work/gauri/gauri/gauri/include/gauri/imgui/imgui_layer.h</text>
</a>
</g>
</g>
<!-- Node5&#45;&gt;Node7 -->
<g id="edge7" class="edge">
<title>Node5&#45;&gt;Node7</title>
<path fill="none" stroke="midnightblue" d="M607.15,-214.1C608.64,-205.14 610.36,-194.86 611.54,-187.75"/>
<polygon fill="midnightblue" stroke="midnightblue" points="603.68,-213.64 605.49,-224.08 610.58,-214.79 603.68,-213.64"/>
</g>
<!-- Node6&#45;&gt;Node2 -->
<g id="edge6" class="edge">
<title>Node6&#45;&gt;Node2</title>
<path fill="none" stroke="midnightblue" d="M277.6,-165.3C309.45,-155.13 354.84,-140.62 383.35,-131.52"/>
<polygon fill="midnightblue" stroke="midnightblue" points="276.24,-162.07 267.78,-168.44 278.37,-168.73 276.24,-162.07"/>
</g>
<!-- Node7&#45;&gt;Node2 -->
<g id="edge8" class="edge">
<title>Node7&#45;&gt;Node2</title>
<path fill="none" stroke="midnightblue" d="M571.01,-165.83C532.68,-155.63 476.85,-140.78 442.02,-131.52"/>
<polygon fill="midnightblue" stroke="midnightblue" points="570.27,-169.26 580.83,-168.44 572.07,-162.49 570.27,-169.26"/>
</g>
<!-- Node7&#45;&gt;Node3 -->
<g id="edge9" class="edge">
<title>Node7&#45;&gt;Node3</title>
<path fill="none" stroke="midnightblue" d="M641.59,-164.16C692.14,-141.47 796.01,-94.83 838.86,-75.59"/>
<polygon fill="midnightblue" stroke="midnightblue" points="639.91,-161.08 632.22,-168.37 642.78,-167.47 639.91,-161.08"/>
</g>
<!-- Node8&#45;&gt;Node3 -->
<g id="edge12" class="edge">
<title>Node8&#45;&gt;Node3</title>
<path fill="none" stroke="midnightblue" d="M858,-270.3C858,-224.64 858,-108.85 858,-75.88"/>
<polygon fill="midnightblue" stroke="midnightblue" points="854.5,-270.3 858,-280.3 861.5,-270.3 854.5,-270.3"/>
</g>
<!-- Node9&#45;&gt;Node3 -->
<g id="edge21" class="edge">
<title>Node9&#45;&gt;Node3</title>
<path fill="none" stroke="midnightblue" d="M1515.55,-279.2C1563.4,-272.69 1606.81,-261.9 1622,-244 1627.75,-237.22 1627.05,-231.32 1622,-224 1551.63,-122.02 1191.46,-85.61 991.78,-73.14"/>
<polygon fill="midnightblue" stroke="midnightblue" points="1515.08,-275.73 1505.61,-280.48 1515.97,-282.67 1515.08,-275.73"/>
</g>
<!-- Node10 -->
<g id="node10" class="node">
<title>Node10</title>
<g id="a_node10"><a xlink:href="entity_8h.html" target="_top" xlink:title=" ">
<polygon fill="white" stroke="black" points="885.5,-224.5 885.5,-243.5 1214.5,-243.5 1214.5,-224.5 885.5,-224.5"/>
<text text-anchor="middle" x="1050" y="-231.5" font-family="Helvetica,sans-Serif" font-size="10.00">/home/runner/work/gauri/gauri/gauri/include/gauri/scene/entity.h</text>
</a>
</g>
</g>
<!-- Node9&#45;&gt;Node10 -->
<g id="edge14" class="edge">
<title>Node9&#45;&gt;Node10</title>
<path fill="none" stroke="midnightblue" d="M1291.77,-278.66C1235.26,-268.46 1149.88,-253.04 1097.16,-243.52"/>
<polygon fill="midnightblue" stroke="midnightblue" points="1291.16,-282.11 1301.62,-280.44 1292.4,-275.22 1291.16,-282.11"/>
</g>
<!-- Node13 -->
<g id="node13" class="node">
<title>Node13</title>
<g id="a_node13"><a xlink:href="scene__serializer_8h.html" target="_top" xlink:title=" ">
<polygon fill="white" stroke="black" points="1233,-224.5 1233,-243.5 1613,-243.5 1613,-224.5 1233,-224.5"/>
<text text-anchor="middle" x="1423" y="-231.5" font-family="Helvetica,sans-Serif" font-size="10.00">/home/runner/work/gauri/gauri/gauri/include/gauri/scene/scene_serializer.h</text>
</a>
</g>
</g>
<!-- Node9&#45;&gt;Node13 -->
<g id="edge20" class="edge">
<title>Node9&#45;&gt;Node13</title>
<path fill="none" stroke="midnightblue" d="M1369.03,-274.38C1382.41,-264.62 1399.56,-252.11 1410.89,-243.83"/>
<polygon fill="midnightblue" stroke="midnightblue" points="1366.9,-271.6 1360.89,-280.32 1371.03,-277.26 1366.9,-271.6"/>
</g>
<!-- Node10&#45;&gt;Node3 -->
<g id="edge19" class="edge">
<title>Node10&#45;&gt;Node3</title>
<path fill="none" stroke="midnightblue" d="M982.33,-221.81C958.85,-215.17 933.75,-204.65 915,-188 896.77,-171.81 870.09,-100.76 861.09,-75.75"/>
<polygon fill="midnightblue" stroke="midnightblue" points="981.7,-225.26 992.26,-224.42 983.48,-218.49 981.7,-225.26"/>
</g>
<!-- Node11 -->
<g id="node11" class="node">
<title>Node11</title>
<g id="a_node11"><a xlink:href="scriptable__entity_8h.html" target="_top" xlink:title=" ">
<polygon fill="white" stroke="black" points="924,-168.5 924,-187.5 1306,-187.5 1306,-168.5 924,-168.5"/>
<text text-anchor="middle" x="1115" y="-175.5" font-family="Helvetica,sans-Serif" font-size="10.00">/home/runner/work/gauri/gauri/gauri/include/gauri/scene/scriptable_entity.h</text>
</a>
</g>
</g>
<!-- Node10&#45;&gt;Node11 -->
<g id="edge15" class="edge">
<title>Node10&#45;&gt;Node11</title>
<path fill="none" stroke="midnightblue" d="M1068.27,-217.82C1079.92,-208.15 1094.6,-195.95 1104.37,-187.83"/>
<polygon fill="midnightblue" stroke="midnightblue" points="1065.9,-215.24 1060.44,-224.32 1070.37,-220.63 1065.9,-215.24"/>
</g>
<!-- Node11&#45;&gt;Node3 -->
<g id="edge18" class="edge">
<title>Node11&#45;&gt;Node3</title>
<path fill="none" stroke="midnightblue" d="M1058.83,-166.19C1026.89,-158.88 986.67,-147.67 953,-132 919.48,-116.4 884.79,-89.4 868.13,-75.63"/>
<polygon fill="midnightblue" stroke="midnightblue" points="1058.37,-169.67 1068.89,-168.43 1059.89,-162.84 1058.37,-169.67"/>
</g>
<!-- Node12 -->
<g id="node12" class="node">
<title>Node12</title>
<g id="a_node12"><a xlink:href="component_8h.html" target="_top" xlink:title=" ">
<polygon fill="white" stroke="black" points="962,-112.5 962,-131.5 1318,-131.5 1318,-112.5 962,-112.5"/>
<text text-anchor="middle" x="1140" y="-119.5" font-family="Helvetica,sans-Serif" font-size="10.00">/home/runner/work/gauri/gauri/gauri/include/gauri/scene/component.h</text>
</a>
</g>
</g>
<!-- Node11&#45;&gt;Node12 -->
<g id="edge16" class="edge">
<title>Node11&#45;&gt;Node12</title>
<path fill="none" stroke="midnightblue" d="M1123.34,-158.98C1127.58,-149.82 1132.55,-139.09 1135.95,-131.75"/>
<polygon fill="midnightblue" stroke="midnightblue" points="1120.15,-157.54 1119.13,-168.08 1126.51,-160.48 1120.15,-157.54"/>
</g>
<!-- Node12&#45;&gt;Node3 -->
<g id="edge17" class="edge">
<title>Node12&#45;&gt;Node3</title>
<path fill="none" stroke="midnightblue" d="M1085.36,-110.54C1032.06,-100.33 952,-85 902.47,-75.52"/>
<polygon fill="midnightblue" stroke="midnightblue" points="1084.84,-114 1095.32,-112.44 1086.15,-107.13 1084.84,-114"/>
</g>
</g>
</svg>
        <g id="navigator" transform="translate(0 0)" fill="#404254">
                <rect fill="#f2f5e9" fill-opacity="0.5" stroke="#606060" stroke-width=".5" x="0" y="0" width="60" height="60"/>
                <use id="zoomplus" xlink:href="#zoomPlus" x="17" y="9" onmousedown="handleZoom(evt,'in')"/>
                <use id="zoomminus" xlink:href="#zoomMin" x="42" y="9" onmousedown="handleZoom(evt,'out')"/>
                <use id="reset" xlink:href="#resetDef" x="30" y="36" onmousedown="handleReset()"/>
                <g id="arrowUp" xlink:href="#dirArrow" transform="translate(30 24)" onmousedown="handlePan(0,-1)">
                  <use xlink:href="#rim" fill="#404040">
                        <set attributeName="fill" to="#808080" begin="arrowUp.mouseover" end="arrowUp.mouseout"/>
                  </use>
                  <path fill="none" stroke="white" stroke-width="1.5" d="M0,-3.0v7 M-2.5,-0.5L0,-3.0L2.5,-0.5"/>
                </g>
                <g id="arrowRight" xlink:href="#dirArrow" transform="rotate(90) translate(36 -43)" onmousedown="handlePan(1,0)">
                  <use xlink:href="#rim" fill="#404040">
                        <set attributeName="fill" to="#808080" begin="arrowRight.mouseover" end="arrowRight.mouseout"/>
                  </use>
                  <path fill="none" stroke="white" stroke-width="1.5" d="M0,-3.0v7 M-2.5,-0.5L0,-3.0L2.5,-0.5"/>
                </g>
                <g id="arrowDown" xlink:href="#dirArrow" transform="rotate(180) translate(-30 -48)" onmousedown="handlePan(0,1)">
                  <use xlink:href="#rim" fill="#404040">
                        <set attributeName="fill" to="#808080" begin="arrowDown.mouseover" end="arrowDown.mouseout"/>
                  </use>
                  <path fill="none" stroke="white" stroke-width="1.5" d="M0,-3.0v7 M-2.5,-0.5L0,-3.0L2.5,-0.5"/>
                </g>
                <g id="arrowLeft" xlink:href="#dirArrow" transform="rotate(270) translate(-36 17)" onmousedown="handlePan(-1,0)">
                  <use xlink:href="#rim" fill="#404040">
                        <set attributeName="fill" to="#808080" begin="arrowLeft.mouseover" end="arrowLeft.mouseout"/>
                  </use>
                  <path fill="none" stroke="white" stroke-width="1.5" d="M0,-3.0v7 M-2.5,-0.5L0,-3.0L2.5,-0.5"/>
                </g>
        </g>
        <svg viewBox="0 0 15 15" width="100%" height="30px" preserveAspectRatio="xMaxYMin meet">
         <g id="arrow_out" transform="scale(0.3 0.3)">
          <a xlink:href="timestep_8h__dep__incl_org.svg" target="_base">
           <rect id="button" ry="5" rx="5" y="6" x="6" height="38" width="38"
                fill="#f2f5e9" fill-opacity="0.5" stroke="#606060" stroke-width="1.0"/>
           <path id="arrow"
             d="M 11.500037,31.436501 C 11.940474,20.09759 22.043105,11.32322 32.158766,21.979434 L 37.068811,17.246167 C 37.068811,17.246167 37.088388,32 37.088388,32 L 22.160133,31.978069 C 22.160133,31.978069 26.997745,27.140456 26.997745,27.140456 C 18.528582,18.264221 13.291696,25.230495 11.500037,31.436501 z"
             style="fill:#404040;"/>
          </a>
         </g>
        </svg>
</svg>
