<?xml version="1.0" encoding="UTF-8" standalone="no"?>
<!DOCTYPE svg PUBLIC "-//W3C//DTD SVG 1.1//EN"
 "http://www.w3.org/Graphics/SVG/1.1/DTD/svg11.dtd">
<!-- Generated by graphviz version 2.43.0 (0)
 -->
<!-- Title: /home/runner/work/gauri/gauri/gauri/include/gauri/core/timestep.h Pages: 1 -->
<!--zoomable 308 -->
<svg id="main" version="1.1" xmlns="http://www.w3.org/2000/svg" xmlns:xlink="http://www.w3.org/1999/xlink" xml:space="preserve" onload="init(evt)">
<style type="text/css"><![CDATA[
.edge:hover path { stroke: red; }
.edge:hover polygon { stroke: red; fill: red; }
]]></style>
<script type="text/javascript"><![CDATA[
var edges = document.getElementsByTagName('g');
if (edges && edges.length) {
  for (var i=0;i<edges.length;i++) {
    if (edges[i].id.substr(0,4)=='edge') {
      edges[i].setAttribute('class','edge');
    }
  }
}
]]></script>
        <defs>
                <circle id="rim" cx="0" cy="0" r="7"/>
                <circle id="rim2" cx="0" cy="0" r="3.5"/>
                <g id="zoomPlus">
                        <use xlink:href="#rim" fill="#404040">
                                <set attributeName="fill" to="#808080" begin="zoomplus.mouseover" end="zoomplus.mouseout"/>
                        </use>
                        <path d="M-4,0h8M0,-4v8" fill="none" stroke="white" stroke-width="1.5" pointer-events="none"/>
                </g>
                <g id="zoomMin">
                        <use xlink:href="#rim" fill="#404040">
                                <set attributeName="fill" to="#808080" begin="zoomminus.mouseover" end="zoomminus.mouseout"/>
                        </use>
                        <path d="M-4,0h8" fill="none" stroke="white" stroke-width="1.5" pointer-events="none"/>
                </g>
                <g id="dirArrow">
                        <path fill="none" stroke="white" stroke-width="1.5" d="M0,-3.0v7 M-2.5,-0.5L0,-3.0L2.5,-0.5"/>
                </g>
               <g id="resetDef">
                       <use xlink:href="#rim2" fill="#404040">
                               <set attributeName="fill" to="#808080" begin="reset.mouseover" end="reset.mouseout"/>
                       </use>
               </g>
        </defs>

<script type="text/javascript">
var viewWidth = 1376;
var viewHeight = 308;
var sectionId = 'dynsection-0';
</script>
<script xlink:href="svgpan.js"/>
<svg id="graph" class="graph">
<g id="viewport">
<title>/home/runner/work/gauri/gauri/gauri/include/gauri/core/timestep.h</title>
<polygon fill="white" stroke="transparent" points="-4,4 -4,-304 1371.73,-304 1371.73,4 -4,4"/>
<!-- Node1 -->
<g id="node1" class="node">
<title>Node1</title>
<g id="a_node1"><a xlink:title=" ">
<polygon fill="#bfbfbf" stroke="black" points="559.73,-280.5 559.73,-299.5 897.73,-299.5 897.73,-280.5 559.73,-280.5"/>
<text text-anchor="middle" x="728.73" y="-287.5" font-family="Helvetica,sans-Serif" font-size="10.00">/home/runner/work/gauri/gauri/gauri/include/gauri/core/timestep.h</text>
</a>
</g>
</g>
<!-- Node2 -->
<g id="node2" class="node">
<title>Node2</title>
<g id="a_node2"><a xlink:href="application_8h.html" target="_top" xlink:title=" ">
<polygon fill="white" stroke="black" points="403.73,-112.5 403.73,-131.5 751.73,-131.5 751.73,-112.5 403.73,-112.5"/>
<text text-anchor="middle" x="577.73" y="-119.5" font-family="Helvetica,sans-Serif" font-size="10.00">/home/runner/work/gauri/gauri/gauri/include/gauri/core/application.h</text>
</a>
</g>
</g>
<!-- Node1&#45;&gt;Node2 -->
<g id="edge1" class="edge">
<title>Node1&#45;&gt;Node2</title>
<path fill="none" stroke="midnightblue" d="M734.18,-270.45C738.08,-257.41 743.53,-239.57 748.73,-224 754.12,-207.87 758.8,-204.76 761.73,-188 763.27,-179.24 767.22,-174.99 761.73,-168 747.77,-150.22 695.73,-138.55 650.54,-131.57"/>
<polygon fill="midnightblue" stroke="midnightblue" points="730.8,-269.54 731.32,-280.13 737.51,-271.53 730.8,-269.54"/>
</g>
<!-- Node3 -->
<g id="node3" class="node">
<title>Node3</title>
<g id="a_node3"><a xlink:href="gauri_8h.html" target="_top" xlink:title=" ">
<polygon fill="white" stroke="black" points="444.23,-56.5 444.23,-75.5 711.23,-75.5 711.23,-56.5 444.23,-56.5"/>
<text text-anchor="middle" x="577.73" y="-63.5" font-family="Helvetica,sans-Serif" font-size="10.00">/home/runner/work/gauri/gauri/gauri/include/gauri.h</text>
</a>
</g>
</g>
<!-- Node1&#45;&gt;Node3 -->
<g id="edge17" class="edge">
<title>Node1&#45;&gt;Node3</title>
<path fill="none" stroke="midnightblue" d="M589.92,-279.74C391.02,-264.98 44.85,-233.08 9.73,-188 -21.2,-148.3 30.55,-129.73 70.73,-112 135.31,-83.5 316.72,-73.05 444,-69.21"/>
<polygon fill="midnightblue" stroke="midnightblue" points="589.93,-283.25 600.16,-280.5 590.45,-276.27 589.93,-283.25"/>
</g>
<!-- Node5 -->
<g id="node5" class="node">
<title>Node5</title>
<g id="a_node5"><a xlink:href="layer_8h.html" target="_top" xlink:title=" ">
<polygon fill="white" stroke="black" points="240.73,-224.5 240.73,-243.5 558.73,-243.5 558.73,-224.5 240.73,-224.5"/>
<text text-anchor="middle" x="399.73" y="-231.5" font-family="Helvetica,sans-Serif" font-size="10.00">/home/runner/work/gauri/gauri/gauri/include/gauri/core/layer.h</text>
</a>
</g>
</g>
<!-- Node1&#45;&gt;Node5 -->
<g id="edge4" class="edge">
<title>Node1&#45;&gt;Node5</title>
<path fill="none" stroke="midnightblue" d="M666.53,-278.79C604.36,-268.59 509.87,-253.08 451.62,-243.52"/>
<polygon fill="midnightblue" stroke="midnightblue" points="666.17,-282.28 676.6,-280.44 667.3,-275.37 666.17,-282.28"/>
</g>
<!-- Node8 -->
<g id="node8" class="node">
<title>Node8</title>
<g id="a_node8"><a xlink:href="orthographic__camera__controller_8h.html" target="_top" xlink:title=" ">
<polygon fill="white" stroke="black" points="757.23,-224.5 757.23,-243.5 1226.23,-243.5 1226.23,-224.5 757.23,-224.5"/>
<text text-anchor="middle" x="991.73" y="-231.5" font-family="Helvetica,sans-Serif" font-size="10.00">/home/runner/work/gauri/gauri/gauri/include/gauri/renderer/orthographic_camera_controller.h</text>
</a>
</g>
</g>
<!-- Node1&#45;&gt;Node8 -->
<g id="edge11" class="edge">
<title>Node1&#45;&gt;Node8</title>
<path fill="none" stroke="midnightblue" d="M780.31,-278.41C830.02,-268.2 904.26,-252.96 950.25,-243.52"/>
<polygon fill="midnightblue" stroke="midnightblue" points="779.5,-275 770.41,-280.44 780.91,-281.86 779.5,-275"/>
</g>
<!-- Node9 -->
<g id="node9" class="node">
<title>Node9</title>
<g id="a_node9"><a xlink:href="scene_8h.html" target="_top" xlink:title=" ">
<polygon fill="white" stroke="black" points="1037.73,-168.5 1037.73,-187.5 1367.73,-187.5 1367.73,-168.5 1037.73,-168.5"/>
<text text-anchor="middle" x="1202.73" y="-175.5" font-family="Helvetica,sans-Serif" font-size="10.00">/home/runner/work/gauri/gauri/gauri/include/gauri/scene/scene.h</text>
</a>
</g>
</g>
<!-- Node1&#45;&gt;Node9 -->
<g id="edge13" class="edge">
<title>Node1&#45;&gt;Node9</title>
<path fill="none" stroke="midnightblue" d="M908.03,-284.74C1044.81,-279.58 1213.47,-268.33 1235.73,-244 1251.28,-227.01 1228.04,-201.32 1213.31,-187.89"/>
<polygon fill="midnightblue" stroke="midnightblue" points="907.69,-281.25 897.83,-285.12 907.95,-288.25 907.69,-281.25"/>
</g>
<!-- Node2&#45;&gt;Node3 -->
<g id="edge2" class="edge">
<title>Node2&#45;&gt;Node3</title>
<path fill="none" stroke="midnightblue" d="M577.73,-101.8C577.73,-92.91 577.73,-82.78 577.73,-75.75"/>
<polygon fill="midnightblue" stroke="midnightblue" points="574.23,-102.08 577.73,-112.08 581.23,-102.08 574.23,-102.08"/>
</g>
<!-- Node4 -->
<g id="node4" class="node">
<title>Node4</title>
<g id="a_node4"><a xlink:href="entry__point_8h.html" target="_top" xlink:title=" ">
<polygon fill="white" stroke="black" points="402.73,-0.5 402.73,-19.5 752.73,-19.5 752.73,-0.5 402.73,-0.5"/>
<text text-anchor="middle" x="577.73" y="-7.5" font-family="Helvetica,sans-Serif" font-size="10.00">/home/runner/work/gauri/gauri/gauri/include/gauri/core/entry_point.h</text>
</a>
</g>
</g>
<!-- Node3&#45;&gt;Node4 -->
<g id="edge3" class="edge">
<title>Node3&#45;&gt;Node4</title>
<path fill="none" stroke="midnightblue" d="M577.73,-45.8C577.73,-36.91 577.73,-26.78 577.73,-19.75"/>
<polygon fill="midnightblue" stroke="midnightblue" points="574.23,-46.08 577.73,-56.08 581.23,-46.08 574.23,-46.08"/>
</g>
<!-- Node5&#45;&gt;Node3 -->
<g id="edge10" class="edge">
<title>Node5&#45;&gt;Node3</title>
<path fill="none" stroke="midnightblue" d="M230.43,-228.13C114.27,-221.45 -13.68,-205.59 17.73,-168 70.98,-104.27 295.82,-80.69 443.9,-72"/>
<polygon fill="midnightblue" stroke="midnightblue" points="230.38,-231.64 240.55,-228.69 230.76,-224.65 230.38,-231.64"/>
</g>
<!-- Node6 -->
<g id="node6" class="node">
<title>Node6</title>
<g id="a_node6"><a xlink:href="layer__stack_8h.html" target="_top" xlink:title=" ">
<polygon fill="white" stroke="black" points="402.73,-168.5 402.73,-187.5 752.73,-187.5 752.73,-168.5 402.73,-168.5"/>
<text text-anchor="middle" x="577.73" y="-175.5" font-family="Helvetica,sans-Serif" font-size="10.00">/home/runner/work/gauri/gauri/gauri/include/gauri/core/layer_stack.h</text>
</a>
</g>
</g>
<!-- Node5&#45;&gt;Node6 -->
<g id="edge5" class="edge">
<title>Node5&#45;&gt;Node6</title>
<path fill="none" stroke="midnightblue" d="M437.85,-221.44C471.41,-211.26 519.51,-196.66 549.66,-187.52"/>
<polygon fill="midnightblue" stroke="midnightblue" points="436.49,-218.19 427.94,-224.44 438.52,-224.89 436.49,-218.19"/>
</g>
<!-- Node7 -->
<g id="node7" class="node">
<title>Node7</title>
<g id="a_node7"><a xlink:href="imgui__layer_8h.html" target="_top" xlink:title=" ">
<polygon fill="white" stroke="black" points="26.73,-168.5 26.73,-187.5 384.73,-187.5 384.73,-168.5 26.73,-168.5"/>
<text text-anchor="middle" x="205.73" y="-175.5" font-family="Helvetica,sans-Serif" font-size="10.00">/home/runner/work/gauri/gauri/gauri/include/gauri/imgui/imgui_layer.h</text>
</a>
</g>
</g>
<!-- Node5&#45;&gt;Node7 -->
<g id="edge7" class="edge">
<title>Node5&#45;&gt;Node7</title>
<path fill="none" stroke="midnightblue" d="M359.13,-221.7C322.52,-211.51 269.48,-196.74 236.33,-187.52"/>
<polygon fill="midnightblue" stroke="midnightblue" points="358.42,-225.13 368.99,-224.44 360.3,-218.39 358.42,-225.13"/>
</g>
<!-- Node6&#45;&gt;Node2 -->
<g id="edge6" class="edge">
<title>Node6&#45;&gt;Node2</title>
<path fill="none" stroke="midnightblue" d="M577.73,-157.8C577.73,-148.91 577.73,-138.78 577.73,-131.75"/>
<polygon fill="midnightblue" stroke="midnightblue" points="574.23,-158.08 577.73,-168.08 581.23,-158.08 574.23,-158.08"/>
</g>
<!-- Node7&#45;&gt;Node2 -->
<g id="edge8" class="edge">
<title>Node7&#45;&gt;Node2</title>
<path fill="none" stroke="midnightblue" d="M274.76,-166.98C345.03,-156.78 452.79,-141.14 519.06,-131.52"/>
<polygon fill="midnightblue" stroke="midnightblue" points="274.07,-163.54 264.68,-168.44 275.08,-170.47 274.07,-163.54"/>
</g>
<!-- Node7&#45;&gt;Node3 -->
<g id="edge9" class="edge">
<title>Node7&#45;&gt;Node3</title>
<path fill="none" stroke="midnightblue" d="M238.35,-164.78C275.79,-150.98 339.2,-128.34 394.73,-112 443.85,-97.55 501.31,-83.95 538.55,-75.56"/>
<polygon fill="midnightblue" stroke="midnightblue" points="236.67,-161.67 228.5,-168.42 239.1,-168.23 236.67,-161.67"/>
</g>
<!-- Node8&#45;&gt;Node3 -->
<g id="edge12" class="edge">
<title>Node8&#45;&gt;Node3</title>
<path fill="none" stroke="midnightblue" d="M969.49,-219.01C929.26,-194.23 841.09,-142.41 760.73,-112 716.36,-95.21 663.55,-83 626.09,-75.57"/>
<polygon fill="midnightblue" stroke="midnightblue" points="967.87,-222.12 978.22,-224.42 971.56,-216.17 967.87,-222.12"/>
</g>
<!-- Node9&#45;&gt;Node3 -->
<g id="edge16" class="edge">
<title>Node9&#45;&gt;Node3</title>
<path fill="none" stroke="midnightblue" d="M1202.98,-157.99C1202.06,-143.06 1198.15,-123.01 1184.73,-112 1149.05,-82.71 879.24,-72.44 711.57,-68.87"/>
<polygon fill="midnightblue" stroke="midnightblue" points="1199.49,-158.26 1203.21,-168.18 1206.48,-158.1 1199.49,-158.26"/>
</g>
<!-- Node10 -->
<g id="node10" class="node">
<title>Node10</title>
<g id="a_node10"><a xlink:href="entity_8h.html" target="_top" xlink:title=" ">
<polygon fill="white" stroke="black" points="846.23,-112.5 846.23,-131.5 1175.23,-131.5 1175.23,-112.5 846.23,-112.5"/>
<text text-anchor="middle" x="1010.73" y="-119.5" font-family="Helvetica,sans-Serif" font-size="10.00">/home/runner/work/gauri/gauri/gauri/include/gauri/scene/entity.h</text>
</a>
</g>
</g>
<!-- Node9&#45;&gt;Node10 -->
<g id="edge14" class="edge">
<title>Node9&#45;&gt;Node10</title>
<path fill="none" stroke="midnightblue" d="M1162.55,-165.7C1126.31,-155.51 1073.82,-140.74 1041.01,-131.52"/>
<polygon fill="midnightblue" stroke="midnightblue" points="1161.74,-169.11 1172.31,-168.44 1163.63,-162.37 1161.74,-169.11"/>
</g>
<!-- Node10&#45;&gt;Node3 -->
<g id="edge15" class="edge">
<title>Node10&#45;&gt;Node3</title>
<path fill="none" stroke="midnightblue" d="M932.14,-111.2C850.39,-101 723.72,-85.21 646.02,-75.52"/>
<polygon fill="midnightblue" stroke="midnightblue" points="931.77,-114.68 942.12,-112.44 932.63,-107.73 931.77,-114.68"/>
</g>
</g>
</svg>
        <g id="navigator" transform="translate(0 0)" fill="#404254">
                <rect fill="#f2f5e9" fill-opacity="0.5" stroke="#606060" stroke-width=".5" x="0" y="0" width="60" height="60"/>
                <use id="zoomplus" xlink:href="#zoomPlus" x="17" y="9" onmousedown="handleZoom(evt,'in')"/>
                <use id="zoomminus" xlink:href="#zoomMin" x="42" y="9" onmousedown="handleZoom(evt,'out')"/>
                <use id="reset" xlink:href="#resetDef" x="30" y="36" onmousedown="handleReset()"/>
                <g id="arrowUp" xlink:href="#dirArrow" transform="translate(30 24)" onmousedown="handlePan(0,-1)">
                  <use xlink:href="#rim" fill="#404040">
                        <set attributeName="fill" to="#808080" begin="arrowUp.mouseover" end="arrowUp.mouseout"/>
                  </use>
                  <path fill="none" stroke="white" stroke-width="1.5" d="M0,-3.0v7 M-2.5,-0.5L0,-3.0L2.5,-0.5"/>
                </g>
                <g id="arrowRight" xlink:href="#dirArrow" transform="rotate(90) translate(36 -43)" onmousedown="handlePan(1,0)">
                  <use xlink:href="#rim" fill="#404040">
                        <set attributeName="fill" to="#808080" begin="arrowRight.mouseover" end="arrowRight.mouseout"/>
                  </use>
                  <path fill="none" stroke="white" stroke-width="1.5" d="M0,-3.0v7 M-2.5,-0.5L0,-3.0L2.5,-0.5"/>
                </g>
                <g id="arrowDown" xlink:href="#dirArrow" transform="rotate(180) translate(-30 -48)" onmousedown="handlePan(0,1)">
                  <use xlink:href="#rim" fill="#404040">
                        <set attributeName="fill" to="#808080" begin="arrowDown.mouseover" end="arrowDown.mouseout"/>
                  </use>
                  <path fill="none" stroke="white" stroke-width="1.5" d="M0,-3.0v7 M-2.5,-0.5L0,-3.0L2.5,-0.5"/>
                </g>
                <g id="arrowLeft" xlink:href="#dirArrow" transform="rotate(270) translate(-36 17)" onmousedown="handlePan(-1,0)">
                  <use xlink:href="#rim" fill="#404040">
                        <set attributeName="fill" to="#808080" begin="arrowLeft.mouseover" end="arrowLeft.mouseout"/>
                  </use>
                  <path fill="none" stroke="white" stroke-width="1.5" d="M0,-3.0v7 M-2.5,-0.5L0,-3.0L2.5,-0.5"/>
                </g>
        </g>
        <svg viewBox="0 0 15 15" width="100%" height="30px" preserveAspectRatio="xMaxYMin meet">
         <g id="arrow_out" transform="scale(0.3 0.3)">
          <a xlink:href="timestep_8h__dep__incl_org.svg" target="_base">
           <rect id="button" ry="5" rx="5" y="6" x="6" height="38" width="38"
                fill="#f2f5e9" fill-opacity="0.5" stroke="#606060" stroke-width="1.0"/>
           <path id="arrow"
             d="M 11.500037,31.436501 C 11.940474,20.09759 22.043105,11.32322 32.158766,21.979434 L 37.068811,17.246167 C 37.068811,17.246167 37.088388,32 37.088388,32 L 22.160133,31.978069 C 22.160133,31.978069 26.997745,27.140456 26.997745,27.140456 C 18.528582,18.264221 13.291696,25.230495 11.500037,31.436501 z"
             style="fill:#404040;"/>
          </a>
         </g>
        </svg>
</svg>
