<?xml version="1.0" encoding="UTF-8" standalone="no"?>
<!DOCTYPE svg PUBLIC "-//W3C//DTD SVG 1.1//EN"
 "http://www.w3.org/Graphics/SVG/1.1/DTD/svg11.dtd">
<!-- Generated by graphviz version 2.43.0 (0)
 -->
<!-- Title: /home/runner/work/gauri/gauri/gauri/include/gauri/renderer/vertex_array.h Pages: 1 -->
<svg width="1385pt" height="308pt"
 viewBox="0.00 0.00 1384.62 308.00" xmlns="http://www.w3.org/2000/svg" xmlns:xlink="http://www.w3.org/1999/xlink">
<g id="graph0" class="graph" transform="scale(1 1) rotate(0) translate(4 304)">
<title>/home/runner/work/gauri/gauri/gauri/include/gauri/renderer/vertex_array.h</title>
<polygon fill="white" stroke="transparent" points="-4,4 -4,-304 1380.62,-304 1380.62,4 -4,4"/>
<!-- Node1 -->
<g id="node1" class="node">
<title>Node1</title>
<g id="a_node1"><a xlink:title=" ">
<polygon fill="#bfbfbf" stroke="black" points="739.12,-280.5 739.12,-299.5 1114.12,-299.5 1114.12,-280.5 739.12,-280.5"/>
<text text-anchor="middle" x="926.62" y="-287.5" font-family="Helvetica,sans-Serif" font-size="10.00">/home/runner/work/gauri/gauri/gauri/include/gauri/renderer/vertex_array.h</text>
</a>
</g>
</g>
<!-- Node2 -->
<g id="node2" class="node">
<title>Node2</title>
<g id="a_node2"><a xlink:href="renderer__api_8h.html" target="_top" xlink:title=" ">
<polygon fill="white" stroke="black" points="258.62,-224.5 258.62,-243.5 634.62,-243.5 634.62,-224.5 258.62,-224.5"/>
<text text-anchor="middle" x="446.62" y="-231.5" font-family="Helvetica,sans-Serif" font-size="10.00">/home/runner/work/gauri/gauri/gauri/include/gauri/renderer/renderer_api.h</text>
</a>
</g>
</g>
<!-- Node1&#45;&gt;Node2 -->
<g id="edge1" class="edge">
<title>Node1&#45;&gt;Node2</title>
<path fill="none" stroke="midnightblue" d="M840.86,-279.35C750.33,-269.17 608.98,-253.27 522.41,-243.53"/>
<polygon fill="midnightblue" stroke="midnightblue" points="840.49,-282.83 850.82,-280.47 841.28,-275.88 840.49,-282.83"/>
</g>
<!-- Node5 -->
<g id="node5" class="node">
<title>Node5</title>
<g id="a_node5"><a xlink:href="gauri_8h.html" target="_top" xlink:title=" ">
<polygon fill="white" stroke="black" points="294.12,-56.5 294.12,-75.5 561.12,-75.5 561.12,-56.5 294.12,-56.5"/>
<text text-anchor="middle" x="427.62" y="-63.5" font-family="Helvetica,sans-Serif" font-size="10.00">/home/runner/work/gauri/gauri/gauri/include/gauri.h</text>
</a>
</g>
</g>
<!-- Node1&#45;&gt;Node5 -->
<g id="edge11" class="edge">
<title>Node1&#45;&gt;Node5</title>
<path fill="none" stroke="midnightblue" d="M929.63,-270.05C932.68,-243.53 933.76,-195.53 907.62,-168 857.44,-115.16 659.86,-87.84 534.37,-75.52"/>
<polygon fill="midnightblue" stroke="midnightblue" points="926.12,-269.89 928.23,-280.27 933.05,-270.84 926.12,-269.89"/>
</g>
<!-- Node8 -->
<g id="node8" class="node">
<title>Node8</title>
<g id="a_node8"><a xlink:href="opengl__vertex__array_8h.html" target="_top" xlink:title=" ">
<polygon fill="white" stroke="black" points="954.62,-224.5 954.62,-243.5 1376.62,-243.5 1376.62,-224.5 954.62,-224.5"/>
<text text-anchor="middle" x="1165.62" y="-231.5" font-family="Helvetica,sans-Serif" font-size="10.00">/home/runner/work/gauri/gauri/gauri/include/platform/opengl/opengl_vertex_array.h</text>
</a>
</g>
</g>
<!-- Node1&#45;&gt;Node8 -->
<g id="edge12" class="edge">
<title>Node1&#45;&gt;Node8</title>
<path fill="none" stroke="midnightblue" d="M974.34,-278.22C1019.5,-268.01 1086.39,-252.9 1127.92,-243.52"/>
<polygon fill="midnightblue" stroke="midnightblue" points="973.47,-274.83 964.49,-280.44 975.01,-281.65 973.47,-274.83"/>
</g>
<!-- Node3 -->
<g id="node3" class="node">
<title>Node3</title>
<g id="a_node3"><a xlink:href="render__command_8h.html" target="_top" xlink:title=" ">
<polygon fill="white" stroke="black" points="18.62,-168.5 18.62,-187.5 418.62,-187.5 418.62,-168.5 18.62,-168.5"/>
<text text-anchor="middle" x="218.62" y="-175.5" font-family="Helvetica,sans-Serif" font-size="10.00">/home/runner/work/gauri/gauri/gauri/include/gauri/renderer/render_command.h</text>
</a>
</g>
</g>
<!-- Node2&#45;&gt;Node3 -->
<g id="edge2" class="edge">
<title>Node2&#45;&gt;Node3</title>
<path fill="none" stroke="midnightblue" d="M400.54,-222.09C357.47,-211.89 294.03,-196.86 254.57,-187.52"/>
<polygon fill="midnightblue" stroke="midnightblue" points="399.95,-225.54 410.49,-224.44 401.56,-218.73 399.95,-225.54"/>
</g>
<!-- Node4 -->
<g id="node4" class="node">
<title>Node4</title>
<g id="a_node4"><a xlink:href="renderer_8h.html" target="_top" xlink:title=" ">
<polygon fill="white" stroke="black" points="25.12,-112.5 25.12,-131.5 380.12,-131.5 380.12,-112.5 25.12,-112.5"/>
<text text-anchor="middle" x="202.62" y="-119.5" font-family="Helvetica,sans-Serif" font-size="10.00">/home/runner/work/gauri/gauri/gauri/include/gauri/renderer/renderer.h</text>
</a>
</g>
</g>
<!-- Node2&#45;&gt;Node4 -->
<g id="edge8" class="edge">
<title>Node2&#45;&gt;Node4</title>
<path fill="none" stroke="midnightblue" d="M248.44,-224.6C140.87,-217.94 26.38,-206.58 9.62,-188 -19.22,-156.04 23.02,-139.78 75.26,-131.51"/>
<polygon fill="midnightblue" stroke="midnightblue" points="248.3,-228.1 258.5,-225.21 248.73,-221.11 248.3,-228.1"/>
</g>
<!-- Node2&#45;&gt;Node5 -->
<g id="edge9" class="edge">
<title>Node2&#45;&gt;Node5</title>
<path fill="none" stroke="midnightblue" d="M444.43,-213.93C440.31,-177.92 431.53,-101.23 428.6,-75.57"/>
<polygon fill="midnightblue" stroke="midnightblue" points="440.98,-214.54 445.59,-224.08 447.93,-213.74 440.98,-214.54"/>
</g>
<!-- Node7 -->
<g id="node7" class="node">
<title>Node7</title>
<g id="a_node7"><a xlink:href="opengl__renderer__api_8h.html" target="_top" xlink:title=" ">
<polygon fill="white" stroke="black" points="475.12,-168.5 475.12,-187.5 898.12,-187.5 898.12,-168.5 475.12,-168.5"/>
<text text-anchor="middle" x="686.62" y="-175.5" font-family="Helvetica,sans-Serif" font-size="10.00">/home/runner/work/gauri/gauri/gauri/include/platform/opengl/opengl_renderer_api.h</text>
</a>
</g>
</g>
<!-- Node2&#45;&gt;Node7 -->
<g id="edge10" class="edge">
<title>Node2&#45;&gt;Node7</title>
<path fill="none" stroke="midnightblue" d="M494.54,-222.22C539.89,-212.01 607.06,-196.9 648.76,-187.52"/>
<polygon fill="midnightblue" stroke="midnightblue" points="493.63,-218.83 484.64,-224.44 495.17,-225.66 493.63,-218.83"/>
</g>
<!-- Node3&#45;&gt;Node4 -->
<g id="edge3" class="edge">
<title>Node3&#45;&gt;Node4</title>
<path fill="none" stroke="midnightblue" d="M213.1,-158.4C210.43,-149.36 207.34,-138.94 205.21,-131.75"/>
<polygon fill="midnightblue" stroke="midnightblue" points="209.78,-159.49 215.97,-168.08 216.49,-157.5 209.78,-159.49"/>
</g>
<!-- Node3&#45;&gt;Node5 -->
<g id="edge7" class="edge">
<title>Node3&#45;&gt;Node5</title>
<path fill="none" stroke="midnightblue" d="M311.78,-166.23C338.88,-159.64 367.19,-149.03 389.62,-132 408.98,-117.29 420.26,-89.65 424.99,-75.62"/>
<polygon fill="midnightblue" stroke="midnightblue" points="310.84,-162.86 301.86,-168.48 312.39,-169.68 310.84,-162.86"/>
</g>
<!-- Node4&#45;&gt;Node5 -->
<g id="edge4" class="edge">
<title>Node4&#45;&gt;Node5</title>
<path fill="none" stroke="midnightblue" d="M248.08,-110.09C290.59,-99.89 353.19,-84.86 392.13,-75.52"/>
<polygon fill="midnightblue" stroke="midnightblue" points="247.17,-106.71 238.27,-112.44 248.81,-113.51 247.17,-106.71"/>
</g>
<!-- Node6 -->
<g id="node6" class="node">
<title>Node6</title>
<g id="a_node6"><a xlink:href="entry__point_8h.html" target="_top" xlink:title=" ">
<polygon fill="white" stroke="black" points="264.62,-0.5 264.62,-19.5 590.62,-19.5 590.62,-0.5 264.62,-0.5"/>
<text text-anchor="middle" x="427.62" y="-7.5" font-family="Helvetica,sans-Serif" font-size="10.00">/home/runner/work/gauri/gauri/gauri/include/gauri/entry_point.h</text>
</a>
</g>
</g>
<!-- Node5&#45;&gt;Node6 -->
<g id="edge5" class="edge">
<title>Node5&#45;&gt;Node6</title>
<path fill="none" stroke="midnightblue" d="M421.14,-46.1C420.51,-37.14 420.96,-26.86 422.48,-19.75"/>
<polygon fill="midnightblue" stroke="midnightblue" points="417.68,-46.62 422.45,-56.08 424.62,-45.71 417.68,-46.62"/>
</g>
<!-- Node6&#45;&gt;Node5 -->
<g id="edge6" class="edge">
<title>Node6&#45;&gt;Node5</title>
<path fill="none" stroke="midnightblue" d="M434.07,-29.69C434.72,-38.64 434.29,-48.93 432.78,-56.08"/>
<polygon fill="midnightblue" stroke="midnightblue" points="437.54,-29.2 432.75,-19.75 430.6,-30.13 437.54,-29.2"/>
</g>
</g>
</svg>
