<?xml version="1.0" encoding="UTF-8" standalone="no"?>
<!DOCTYPE svg PUBLIC "-//W3C//DTD SVG 1.1//EN"
 "http://www.w3.org/Graphics/SVG/1.1/DTD/svg11.dtd">
<!-- Generated by graphviz version 2.43.0 (0)
 -->
<!-- Title: /home/runner/work/gauri/gauri/gauri/include/gauri/renderer/vertex_array.h Pages: 1 -->
<svg width="500pt" height="252pt"
 viewBox="0.00 0.00 500.00 252.00" xmlns="http://www.w3.org/2000/svg" xmlns:xlink="http://www.w3.org/1999/xlink">
<g id="graph0" class="graph" transform="scale(1 1) rotate(0) translate(4 248)">
<title>/home/runner/work/gauri/gauri/gauri/include/gauri/renderer/vertex_array.h</title>
<polygon fill="white" stroke="transparent" points="-4,4 -4,-248 496,-248 496,4 -4,4"/>
<!-- Node1 -->
<g id="node1" class="node">
<title>Node1</title>
<g id="a_node1"><a xlink:title=" ">
<polygon fill="#bfbfbf" stroke="black" points="0,-224.5 0,-243.5 375,-243.5 375,-224.5 0,-224.5"/>
<text text-anchor="middle" x="187.5" y="-231.5" font-family="Helvetica,sans-Serif" font-size="10.00">/home/runner/work/gauri/gauri/gauri/include/gauri/renderer/vertex_array.h</text>
</a>
</g>
</g>
<!-- Node2 -->
<g id="node2" class="node">
<title>Node2</title>
<g id="a_node2"><a xlink:title=" ">
<polygon fill="white" stroke="#bfbfbf" points="137.5,-0.5 137.5,-19.5 195.5,-19.5 195.5,-0.5 137.5,-0.5"/>
<text text-anchor="middle" x="166.5" y="-7.5" font-family="Helvetica,sans-Serif" font-size="10.00">memory</text>
</a>
</g>
</g>
<!-- Node1&#45;&gt;Node2 -->
<g id="edge1" class="edge">
<title>Node1&#45;&gt;Node2</title>
<path fill="none" stroke="midnightblue" d="M180.87,-224.27C174.73,-215.61 166.04,-201.67 162.5,-188 147.95,-131.84 157.03,-62.28 162.8,-29.6"/>
<polygon fill="midnightblue" stroke="midnightblue" points="166.26,-30.14 164.66,-19.66 159.38,-28.85 166.26,-30.14"/>
</g>
<!-- Node3 -->
<g id="node3" class="node">
<title>Node3</title>
<g id="a_node3"><a xlink:href="buffer_8h.html" target="_top" xlink:title=" ">
<polygon fill="white" stroke="black" points="171,-168.5 171,-187.5 296,-187.5 296,-168.5 171,-168.5"/>
<text text-anchor="middle" x="233.5" y="-175.5" font-family="Helvetica,sans-Serif" font-size="10.00">gauri/renderer/buffer.h</text>
</a>
</g>
</g>
<!-- Node1&#45;&gt;Node3 -->
<g id="edge2" class="edge">
<title>Node1&#45;&gt;Node3</title>
<path fill="none" stroke="midnightblue" d="M195.1,-224.08C201.73,-216.3 211.52,-204.8 219.56,-195.37"/>
<polygon fill="midnightblue" stroke="midnightblue" points="222.23,-197.63 226.05,-187.75 216.9,-193.09 222.23,-197.63"/>
</g>
<!-- Node4 -->
<g id="node4" class="node">
<title>Node4</title>
<g id="a_node4"><a xlink:href="core_8h.html" target="_top" xlink:title=" ">
<polygon fill="white" stroke="black" points="196.5,-112.5 196.5,-131.5 270.5,-131.5 270.5,-112.5 196.5,-112.5"/>
<text text-anchor="middle" x="233.5" y="-119.5" font-family="Helvetica,sans-Serif" font-size="10.00">gauri/core.h</text>
</a>
</g>
</g>
<!-- Node3&#45;&gt;Node4 -->
<g id="edge3" class="edge">
<title>Node3&#45;&gt;Node4</title>
<path fill="none" stroke="midnightblue" d="M233.5,-168.08C233.5,-161.01 233.5,-150.86 233.5,-141.99"/>
<polygon fill="midnightblue" stroke="midnightblue" points="237,-141.75 233.5,-131.75 230,-141.75 237,-141.75"/>
</g>
<!-- Node6 -->
<g id="node6" class="node">
<title>Node6</title>
<g id="a_node6"><a xlink:href="logger_8h.html" target="_top" xlink:title=" ">
<polygon fill="white" stroke="black" points="277,-56.5 277,-75.5 360,-75.5 360,-56.5 277,-56.5"/>
<text text-anchor="middle" x="318.5" y="-63.5" font-family="Helvetica,sans-Serif" font-size="10.00">gauri/logger.h</text>
</a>
</g>
</g>
<!-- Node3&#45;&gt;Node6 -->
<g id="edge11" class="edge">
<title>Node3&#45;&gt;Node6</title>
<path fill="none" stroke="midnightblue" d="M243.75,-168.36C253.6,-159.75 268.56,-145.85 279.5,-132 291.2,-117.19 302.03,-98.57 309.3,-85.06"/>
<polygon fill="midnightblue" stroke="midnightblue" points="312.57,-86.35 314.11,-75.87 306.37,-83.1 312.57,-86.35"/>
</g>
<!-- Node4&#45;&gt;Node2 -->
<g id="edge5" class="edge">
<title>Node4&#45;&gt;Node2</title>
<path fill="none" stroke="midnightblue" d="M226.24,-112.37C219.01,-103.54 207.8,-89.29 199.5,-76 189.98,-60.76 180.86,-42.42 174.63,-29.11"/>
<polygon fill="midnightblue" stroke="midnightblue" points="177.66,-27.31 170.31,-19.68 171.29,-30.23 177.66,-27.31"/>
</g>
<!-- Node5 -->
<g id="node5" class="node">
<title>Node5</title>
<g id="a_node5"><a xlink:title=" ">
<polygon fill="white" stroke="#bfbfbf" points="208.5,-56.5 208.5,-75.5 258.5,-75.5 258.5,-56.5 208.5,-56.5"/>
<text text-anchor="middle" x="233.5" y="-63.5" font-family="Helvetica,sans-Serif" font-size="10.00">cstdint</text>
</a>
</g>
</g>
<!-- Node4&#45;&gt;Node5 -->
<g id="edge4" class="edge">
<title>Node4&#45;&gt;Node5</title>
<path fill="none" stroke="midnightblue" d="M233.5,-112.08C233.5,-105.01 233.5,-94.86 233.5,-85.99"/>
<polygon fill="midnightblue" stroke="midnightblue" points="237,-85.75 233.5,-75.75 230,-85.75 237,-85.75"/>
</g>
<!-- Node4&#45;&gt;Node6 -->
<g id="edge6" class="edge">
<title>Node4&#45;&gt;Node6</title>
<path fill="none" stroke="midnightblue" d="M247.16,-112.32C260.42,-103.9 280.77,-90.97 296.35,-81.07"/>
<polygon fill="midnightblue" stroke="midnightblue" points="298.31,-83.97 304.88,-75.65 294.56,-78.06 298.31,-83.97"/>
</g>
<!-- Node6&#45;&gt;Node2 -->
<g id="edge8" class="edge">
<title>Node6&#45;&gt;Node2</title>
<path fill="none" stroke="midnightblue" d="M294.42,-56.44C268.96,-47.4 228.61,-33.06 200.04,-22.92"/>
<polygon fill="midnightblue" stroke="midnightblue" points="201.07,-19.57 190.47,-19.52 198.72,-26.16 201.07,-19.57"/>
</g>
<!-- Node7 -->
<g id="node7" class="node">
<title>Node7</title>
<g id="a_node7"><a xlink:title=" ">
<polygon fill="white" stroke="#bfbfbf" points="213.5,-0.5 213.5,-19.5 263.5,-19.5 263.5,-0.5 213.5,-0.5"/>
<text text-anchor="middle" x="238.5" y="-7.5" font-family="Helvetica,sans-Serif" font-size="10.00">format</text>
</a>
</g>
</g>
<!-- Node6&#45;&gt;Node7 -->
<g id="edge7" class="edge">
<title>Node6&#45;&gt;Node7</title>
<path fill="none" stroke="midnightblue" d="M305.65,-56.32C293.28,-47.98 274.37,-35.21 259.76,-25.35"/>
<polygon fill="midnightblue" stroke="midnightblue" points="261.57,-22.35 251.32,-19.65 257.65,-28.15 261.57,-22.35"/>
</g>
<!-- Node8 -->
<g id="node8" class="node">
<title>Node8</title>
<g id="a_node8"><a xlink:title=" ">
<polygon fill="white" stroke="#bfbfbf" points="282,-0.5 282,-19.5 381,-19.5 381,-0.5 282,-0.5"/>
<text text-anchor="middle" x="331.5" y="-7.5" font-family="Helvetica,sans-Serif" font-size="10.00">spdlog/fmt/ostr.h</text>
</a>
</g>
</g>
<!-- Node6&#45;&gt;Node8 -->
<g id="edge9" class="edge">
<title>Node6&#45;&gt;Node8</title>
<path fill="none" stroke="midnightblue" d="M320.65,-56.08C322.37,-48.93 324.85,-38.64 327,-29.69"/>
<polygon fill="midnightblue" stroke="midnightblue" points="330.46,-30.29 329.39,-19.75 323.65,-28.65 330.46,-30.29"/>
</g>
<!-- Node9 -->
<g id="node9" class="node">
<title>Node9</title>
<g id="a_node9"><a xlink:title=" ">
<polygon fill="white" stroke="#bfbfbf" points="399,-0.5 399,-19.5 492,-19.5 492,-0.5 399,-0.5"/>
<text text-anchor="middle" x="445.5" y="-7.5" font-family="Helvetica,sans-Serif" font-size="10.00">spdlog/spdlog.h</text>
</a>
</g>
</g>
<!-- Node6&#45;&gt;Node9 -->
<g id="edge10" class="edge">
<title>Node6&#45;&gt;Node9</title>
<path fill="none" stroke="midnightblue" d="M338.62,-56.44C359.52,-47.56 392.43,-33.56 416.22,-23.45"/>
<polygon fill="midnightblue" stroke="midnightblue" points="417.64,-26.65 425.47,-19.52 414.9,-20.21 417.64,-26.65"/>
</g>
</g>
</svg>
