<?xml version="1.0" encoding="UTF-8" standalone="no"?>
<!DOCTYPE svg PUBLIC "-//W3C//DTD SVG 1.1//EN"
 "http://www.w3.org/Graphics/SVG/1.1/DTD/svg11.dtd">
<!-- Generated by graphviz version 2.43.0 (0)
 -->
<!-- Title: /home/runner/work/gauri/gauri/gauri/include/platform/windows/windows_window.h Pages: 1 -->
<svg width="727pt" height="308pt"
 viewBox="0.00 0.00 727.00 308.00" xmlns="http://www.w3.org/2000/svg" xmlns:xlink="http://www.w3.org/1999/xlink">
<g id="graph0" class="graph" transform="scale(1 1) rotate(0) translate(4 304)">
<title>/home/runner/work/gauri/gauri/gauri/include/platform/windows/windows_window.h</title>
<polygon fill="white" stroke="transparent" points="-4,4 -4,-304 723,-304 723,4 -4,4"/>
<!-- Node1 -->
<g id="node1" class="node">
<title>Node1</title>
<g id="a_node1"><a xlink:title=" ">
<polygon fill="#bfbfbf" stroke="black" points="269.5,-280.5 269.5,-299.5 687.5,-299.5 687.5,-280.5 269.5,-280.5"/>
<text text-anchor="middle" x="478.5" y="-287.5" font-family="Helvetica,sans-Serif" font-size="10.00">/home/runner/work/gauri/gauri/gauri/include/platform/windows/windows_window.h</text>
</a>
</g>
</g>
<!-- Node2 -->
<g id="node2" class="node">
<title>Node2</title>
<g id="a_node2"><a xlink:href="window_8h.html" target="_top" xlink:title=" ">
<polygon fill="white" stroke="black" points="328.5,-224.5 328.5,-243.5 418.5,-243.5 418.5,-224.5 328.5,-224.5"/>
<text text-anchor="middle" x="373.5" y="-231.5" font-family="Helvetica,sans-Serif" font-size="10.00">gauri/window.h</text>
</a>
</g>
</g>
<!-- Node1&#45;&gt;Node2 -->
<g id="edge1" class="edge">
<title>Node1&#45;&gt;Node2</title>
<path fill="none" stroke="midnightblue" d="M461.63,-280.32C444.79,-271.66 418.69,-258.24 399.26,-248.25"/>
<polygon fill="midnightblue" stroke="midnightblue" points="400.82,-245.12 390.33,-243.65 397.62,-251.34 400.82,-245.12"/>
</g>
<!-- Node14 -->
<g id="node14" class="node">
<title>Node14</title>
<g id="a_node14"><a xlink:title=" ">
<polygon fill="white" stroke="#bfbfbf" points="437,-224.5 437,-243.5 520,-243.5 520,-224.5 437,-224.5"/>
<text text-anchor="middle" x="478.5" y="-231.5" font-family="Helvetica,sans-Serif" font-size="10.00">GLFW/glfw3.h</text>
</a>
</g>
</g>
<!-- Node1&#45;&gt;Node14 -->
<g id="edge18" class="edge">
<title>Node1&#45;&gt;Node14</title>
<path fill="none" stroke="midnightblue" d="M478.5,-280.08C478.5,-273.01 478.5,-262.86 478.5,-253.99"/>
<polygon fill="midnightblue" stroke="midnightblue" points="482,-253.75 478.5,-243.75 475,-253.75 482,-253.75"/>
</g>
<!-- Node15 -->
<g id="node15" class="node">
<title>Node15</title>
<g id="a_node15"><a xlink:href="graphics__context_8h.html" target="_top" xlink:title=" ">
<polygon fill="white" stroke="black" points="538,-224.5 538,-243.5 719,-243.5 719,-224.5 538,-224.5"/>
<text text-anchor="middle" x="628.5" y="-231.5" font-family="Helvetica,sans-Serif" font-size="10.00">gauri/renderer/graphics_context.h</text>
</a>
</g>
</g>
<!-- Node1&#45;&gt;Node15 -->
<g id="edge19" class="edge">
<title>Node1&#45;&gt;Node15</title>
<path fill="none" stroke="midnightblue" d="M502.27,-280.44C527.39,-271.4 567.21,-257.06 595.4,-246.92"/>
<polygon fill="midnightblue" stroke="midnightblue" points="596.62,-250.2 604.84,-243.52 594.25,-243.61 596.62,-250.2"/>
</g>
<!-- Node3 -->
<g id="node3" class="node">
<title>Node3</title>
<g id="a_node3"><a xlink:title=" ">
<polygon fill="white" stroke="#bfbfbf" points="143.5,-56.5 143.5,-75.5 193.5,-75.5 193.5,-56.5 143.5,-56.5"/>
<text text-anchor="middle" x="168.5" y="-63.5" font-family="Helvetica,sans-Serif" font-size="10.00">cstdint</text>
</a>
</g>
</g>
<!-- Node2&#45;&gt;Node3 -->
<g id="edge2" class="edge">
<title>Node2&#45;&gt;Node3</title>
<path fill="none" stroke="midnightblue" d="M340.92,-224.42C298.58,-211.55 225.37,-183.13 185.5,-132 175.09,-118.64 171.02,-99.53 169.44,-85.49"/>
<polygon fill="midnightblue" stroke="midnightblue" points="172.93,-85.2 168.65,-75.52 165.96,-85.76 172.93,-85.2"/>
</g>
<!-- Node4 -->
<g id="node4" class="node">
<title>Node4</title>
<g id="a_node4"><a xlink:title=" ">
<polygon fill="white" stroke="#bfbfbf" points="383,-112.5 383,-131.5 448,-131.5 448,-112.5 383,-112.5"/>
<text text-anchor="middle" x="415.5" y="-119.5" font-family="Helvetica,sans-Serif" font-size="10.00">functional</text>
</a>
</g>
</g>
<!-- Node2&#45;&gt;Node4 -->
<g id="edge3" class="edge">
<title>Node2&#45;&gt;Node4</title>
<path fill="none" stroke="midnightblue" d="M376.8,-224.37C383.63,-206.46 399.49,-164.92 408.65,-140.95"/>
<polygon fill="midnightblue" stroke="midnightblue" points="411.92,-142.18 412.22,-131.59 405.38,-139.69 411.92,-142.18"/>
</g>
<!-- Node5 -->
<g id="node5" class="node">
<title>Node5</title>
<g id="a_node5"><a xlink:title=" ">
<polygon fill="white" stroke="#bfbfbf" points="466.5,-112.5 466.5,-131.5 510.5,-131.5 510.5,-112.5 466.5,-112.5"/>
<text text-anchor="middle" x="488.5" y="-119.5" font-family="Helvetica,sans-Serif" font-size="10.00">string</text>
</a>
</g>
</g>
<!-- Node2&#45;&gt;Node5 -->
<g id="edge4" class="edge">
<title>Node2&#45;&gt;Node5</title>
<path fill="none" stroke="midnightblue" d="M382.52,-224.37C401.84,-205.89 447.42,-162.29 472.04,-138.74"/>
<polygon fill="midnightblue" stroke="midnightblue" points="474.71,-141.03 479.52,-131.59 469.87,-135.97 474.71,-141.03"/>
</g>
<!-- Node6 -->
<g id="node6" class="node">
<title>Node6</title>
<g id="a_node6"><a xlink:href="event_8h.html" target="_top" xlink:title=" ">
<polygon fill="white" stroke="black" points="296.5,-168.5 296.5,-187.5 380.5,-187.5 380.5,-168.5 296.5,-168.5"/>
<text text-anchor="middle" x="338.5" y="-175.5" font-family="Helvetica,sans-Serif" font-size="10.00">event/event.h</text>
</a>
</g>
</g>
<!-- Node2&#45;&gt;Node6 -->
<g id="edge5" class="edge">
<title>Node2&#45;&gt;Node6</title>
<path fill="none" stroke="midnightblue" d="M367.72,-224.08C362.83,-216.53 355.67,-205.49 349.67,-196.23"/>
<polygon fill="midnightblue" stroke="midnightblue" points="352.55,-194.24 344.17,-187.75 346.67,-198.05 352.55,-194.24"/>
</g>
<!-- Node6&#45;&gt;Node3 -->
<g id="edge6" class="edge">
<title>Node6&#45;&gt;Node3</title>
<path fill="none" stroke="midnightblue" d="M296.49,-170.31C268.82,-164.16 233.1,-152.73 207.5,-132 192.36,-119.74 181.68,-99.92 175.38,-85.38"/>
<polygon fill="midnightblue" stroke="midnightblue" points="178.54,-83.88 171.55,-75.92 172.05,-86.5 178.54,-83.88"/>
</g>
<!-- Node6&#45;&gt;Node4 -->
<g id="edge7" class="edge">
<title>Node6&#45;&gt;Node4</title>
<path fill="none" stroke="midnightblue" d="M350.87,-168.32C362.66,-160.06 380.63,-147.45 394.64,-137.63"/>
<polygon fill="midnightblue" stroke="midnightblue" points="396.98,-140.26 403.16,-131.65 392.96,-134.53 396.98,-140.26"/>
</g>
<!-- Node6&#45;&gt;Node5 -->
<g id="edge9" class="edge">
<title>Node6&#45;&gt;Node5</title>
<path fill="none" stroke="midnightblue" d="M362.27,-168.44C387.84,-159.24 428.62,-144.56 456.88,-134.38"/>
<polygon fill="midnightblue" stroke="midnightblue" points="458.09,-137.67 466.31,-130.99 455.72,-131.08 458.09,-137.67"/>
</g>
<!-- Node7 -->
<g id="node7" class="node">
<title>Node7</title>
<g id="a_node7"><a xlink:title=" ">
<polygon fill="white" stroke="#bfbfbf" points="308.5,-112.5 308.5,-131.5 364.5,-131.5 364.5,-112.5 308.5,-112.5"/>
<text text-anchor="middle" x="336.5" y="-119.5" font-family="Helvetica,sans-Serif" font-size="10.00">sstream</text>
</a>
</g>
</g>
<!-- Node6&#45;&gt;Node7 -->
<g id="edge8" class="edge">
<title>Node6&#45;&gt;Node7</title>
<path fill="none" stroke="midnightblue" d="M338.17,-168.08C337.91,-161.01 337.53,-150.86 337.2,-141.99"/>
<polygon fill="midnightblue" stroke="midnightblue" points="340.69,-141.61 336.82,-131.75 333.7,-141.87 340.69,-141.61"/>
</g>
<!-- Node8 -->
<g id="node8" class="node">
<title>Node8</title>
<g id="a_node8"><a xlink:href="core_8h.html" target="_top" xlink:title=" ">
<polygon fill="white" stroke="black" points="216.5,-112.5 216.5,-131.5 290.5,-131.5 290.5,-112.5 216.5,-112.5"/>
<text text-anchor="middle" x="253.5" y="-119.5" font-family="Helvetica,sans-Serif" font-size="10.00">gauri/core.h</text>
</a>
</g>
</g>
<!-- Node6&#45;&gt;Node8 -->
<g id="edge10" class="edge">
<title>Node6&#45;&gt;Node8</title>
<path fill="none" stroke="midnightblue" d="M324.84,-168.32C311.58,-159.9 291.23,-146.97 275.65,-137.07"/>
<polygon fill="midnightblue" stroke="midnightblue" points="277.44,-134.06 267.12,-131.65 273.69,-139.97 277.44,-134.06"/>
</g>
<!-- Node8&#45;&gt;Node3 -->
<g id="edge11" class="edge">
<title>Node8&#45;&gt;Node3</title>
<path fill="none" stroke="midnightblue" d="M239.84,-112.32C226.58,-103.9 206.23,-90.97 190.65,-81.07"/>
<polygon fill="midnightblue" stroke="midnightblue" points="192.44,-78.06 182.12,-75.65 188.69,-83.97 192.44,-78.06"/>
</g>
<!-- Node9 -->
<g id="node9" class="node">
<title>Node9</title>
<g id="a_node9"><a xlink:title=" ">
<polygon fill="white" stroke="#bfbfbf" points="296.5,-0.5 296.5,-19.5 354.5,-19.5 354.5,-0.5 296.5,-0.5"/>
<text text-anchor="middle" x="325.5" y="-7.5" font-family="Helvetica,sans-Serif" font-size="10.00">memory</text>
</a>
</g>
</g>
<!-- Node8&#45;&gt;Node9 -->
<g id="edge12" class="edge">
<title>Node8&#45;&gt;Node9</title>
<path fill="none" stroke="midnightblue" d="M267.04,-112.19C278.53,-104.06 294.66,-91.01 304.5,-76 313.74,-61.9 319.2,-43.41 322.22,-29.76"/>
<polygon fill="midnightblue" stroke="midnightblue" points="325.72,-30.12 324.22,-19.63 318.85,-28.76 325.72,-30.12"/>
</g>
<!-- Node10 -->
<g id="node10" class="node">
<title>Node10</title>
<g id="a_node10"><a xlink:href="logger_8h.html" target="_top" xlink:title=" ">
<polygon fill="white" stroke="black" points="212,-56.5 212,-75.5 295,-75.5 295,-56.5 212,-56.5"/>
<text text-anchor="middle" x="253.5" y="-63.5" font-family="Helvetica,sans-Serif" font-size="10.00">gauri/logger.h</text>
</a>
</g>
</g>
<!-- Node8&#45;&gt;Node10 -->
<g id="edge13" class="edge">
<title>Node8&#45;&gt;Node10</title>
<path fill="none" stroke="midnightblue" d="M253.5,-112.08C253.5,-105.01 253.5,-94.86 253.5,-85.99"/>
<polygon fill="midnightblue" stroke="midnightblue" points="257,-85.75 253.5,-75.75 250,-85.75 257,-85.75"/>
</g>
<!-- Node10&#45;&gt;Node9 -->
<g id="edge15" class="edge">
<title>Node10&#45;&gt;Node9</title>
<path fill="none" stroke="midnightblue" d="M265.07,-56.32C275.92,-48.18 292.38,-35.84 305.38,-26.09"/>
<polygon fill="midnightblue" stroke="midnightblue" points="307.82,-28.63 313.72,-19.83 303.62,-23.03 307.82,-28.63"/>
</g>
<!-- Node11 -->
<g id="node11" class="node">
<title>Node11</title>
<g id="a_node11"><a xlink:title=" ">
<polygon fill="white" stroke="#bfbfbf" points="228.5,-0.5 228.5,-19.5 278.5,-19.5 278.5,-0.5 228.5,-0.5"/>
<text text-anchor="middle" x="253.5" y="-7.5" font-family="Helvetica,sans-Serif" font-size="10.00">format</text>
</a>
</g>
</g>
<!-- Node10&#45;&gt;Node11 -->
<g id="edge14" class="edge">
<title>Node10&#45;&gt;Node11</title>
<path fill="none" stroke="midnightblue" d="M253.5,-56.08C253.5,-49.01 253.5,-38.86 253.5,-29.99"/>
<polygon fill="midnightblue" stroke="midnightblue" points="257,-29.75 253.5,-19.75 250,-29.75 257,-29.75"/>
</g>
<!-- Node12 -->
<g id="node12" class="node">
<title>Node12</title>
<g id="a_node12"><a xlink:title=" ">
<polygon fill="white" stroke="#bfbfbf" points="0,-0.5 0,-19.5 99,-19.5 99,-0.5 0,-0.5"/>
<text text-anchor="middle" x="49.5" y="-7.5" font-family="Helvetica,sans-Serif" font-size="10.00">spdlog/fmt/ostr.h</text>
</a>
</g>
</g>
<!-- Node10&#45;&gt;Node12 -->
<g id="edge16" class="edge">
<title>Node10&#45;&gt;Node12</title>
<path fill="none" stroke="midnightblue" d="M221.18,-56.44C186.11,-47.16 130,-32.31 91.54,-22.13"/>
<polygon fill="midnightblue" stroke="midnightblue" points="92.24,-18.69 81.67,-19.52 90.44,-25.46 92.24,-18.69"/>
</g>
<!-- Node13 -->
<g id="node13" class="node">
<title>Node13</title>
<g id="a_node13"><a xlink:title=" ">
<polygon fill="white" stroke="#bfbfbf" points="117,-0.5 117,-19.5 210,-19.5 210,-0.5 117,-0.5"/>
<text text-anchor="middle" x="163.5" y="-7.5" font-family="Helvetica,sans-Serif" font-size="10.00">spdlog/spdlog.h</text>
</a>
</g>
</g>
<!-- Node10&#45;&gt;Node13 -->
<g id="edge17" class="edge">
<title>Node10&#45;&gt;Node13</title>
<path fill="none" stroke="midnightblue" d="M239.04,-56.32C225,-47.9 203.45,-34.97 186.96,-25.07"/>
<polygon fill="midnightblue" stroke="midnightblue" points="188.3,-21.8 177.92,-19.65 184.7,-27.8 188.3,-21.8"/>
</g>
</g>
</svg>
