<?xml version="1.0" encoding="UTF-8" standalone="no"?>
<!DOCTYPE svg PUBLIC "-//W3C//DTD SVG 1.1//EN"
 "http://www.w3.org/Graphics/SVG/1.1/DTD/svg11.dtd">
<!-- Generated by graphviz version 2.43.0 (0)
 -->
<!-- Title: /home/runner/work/gauri/gauri/gauri/include/platform/windows/windows_window.h Pages: 1 -->
<svg width="745pt" height="308pt"
 viewBox="0.00 0.00 745.00 308.00" xmlns="http://www.w3.org/2000/svg" xmlns:xlink="http://www.w3.org/1999/xlink">
<g id="graph0" class="graph" transform="scale(1 1) rotate(0) translate(4 304)">
<title>/home/runner/work/gauri/gauri/gauri/include/platform/windows/windows_window.h</title>
<polygon fill="white" stroke="transparent" points="-4,4 -4,-304 741,-304 741,4 -4,4"/>
<!-- Node1 -->
<g id="node1" class="node">
<title>Node1</title>
<g id="a_node1"><a xlink:title=" ">
<polygon fill="#bfbfbf" stroke="black" points="287.5,-280.5 287.5,-299.5 705.5,-299.5 705.5,-280.5 287.5,-280.5"/>
<text text-anchor="middle" x="496.5" y="-287.5" font-family="Helvetica,sans-Serif" font-size="10.00">/home/runner/work/gauri/gauri/gauri/include/platform/windows/windows_window.h</text>
</a>
</g>
</g>
<!-- Node2 -->
<g id="node2" class="node">
<title>Node2</title>
<g id="a_node2"><a xlink:href="window_8h.html" target="_top" xlink:title=" ">
<polygon fill="white" stroke="black" points="322.5,-224.5 322.5,-243.5 436.5,-243.5 436.5,-224.5 322.5,-224.5"/>
<text text-anchor="middle" x="379.5" y="-231.5" font-family="Helvetica,sans-Serif" font-size="10.00">gauri/core/window.h</text>
</a>
</g>
</g>
<!-- Node1&#45;&gt;Node2 -->
<g id="edge1" class="edge">
<title>Node1&#45;&gt;Node2</title>
<path fill="none" stroke="midnightblue" d="M477.96,-280.44C458.88,-271.64 428.93,-257.81 407.06,-247.72"/>
<polygon fill="midnightblue" stroke="midnightblue" points="408.5,-244.53 397.95,-243.52 405.57,-250.88 408.5,-244.53"/>
</g>
<!-- Node14 -->
<g id="node14" class="node">
<title>Node14</title>
<g id="a_node14"><a xlink:title=" ">
<polygon fill="white" stroke="#bfbfbf" points="455,-224.5 455,-243.5 538,-243.5 538,-224.5 455,-224.5"/>
<text text-anchor="middle" x="496.5" y="-231.5" font-family="Helvetica,sans-Serif" font-size="10.00">GLFW/glfw3.h</text>
</a>
</g>
</g>
<!-- Node1&#45;&gt;Node14 -->
<g id="edge18" class="edge">
<title>Node1&#45;&gt;Node14</title>
<path fill="none" stroke="midnightblue" d="M496.5,-280.08C496.5,-273.01 496.5,-262.86 496.5,-253.99"/>
<polygon fill="midnightblue" stroke="midnightblue" points="500,-253.75 496.5,-243.75 493,-253.75 500,-253.75"/>
</g>
<!-- Node15 -->
<g id="node15" class="node">
<title>Node15</title>
<g id="a_node15"><a xlink:href="graphics__context_8h.html" target="_top" xlink:title=" ">
<polygon fill="white" stroke="black" points="556,-224.5 556,-243.5 737,-243.5 737,-224.5 556,-224.5"/>
<text text-anchor="middle" x="646.5" y="-231.5" font-family="Helvetica,sans-Serif" font-size="10.00">gauri/renderer/graphics_context.h</text>
</a>
</g>
</g>
<!-- Node1&#45;&gt;Node15 -->
<g id="edge19" class="edge">
<title>Node1&#45;&gt;Node15</title>
<path fill="none" stroke="midnightblue" d="M520.27,-280.44C545.39,-271.4 585.21,-257.06 613.4,-246.92"/>
<polygon fill="midnightblue" stroke="midnightblue" points="614.62,-250.2 622.84,-243.52 612.25,-243.61 614.62,-250.2"/>
</g>
<!-- Node3 -->
<g id="node3" class="node">
<title>Node3</title>
<g id="a_node3"><a xlink:title=" ">
<polygon fill="white" stroke="#bfbfbf" points="121.5,-56.5 121.5,-75.5 171.5,-75.5 171.5,-56.5 121.5,-56.5"/>
<text text-anchor="middle" x="146.5" y="-63.5" font-family="Helvetica,sans-Serif" font-size="10.00">cstdint</text>
</a>
</g>
</g>
<!-- Node2&#45;&gt;Node3 -->
<g id="edge2" class="edge">
<title>Node2&#45;&gt;Node3</title>
<path fill="none" stroke="midnightblue" d="M334.24,-224.47C284.36,-212.62 205.5,-186.2 162.5,-132 152.01,-118.78 148.28,-99.65 147,-85.56"/>
<polygon fill="midnightblue" stroke="midnightblue" points="150.5,-85.34 146.43,-75.56 143.51,-85.74 150.5,-85.34"/>
</g>
<!-- Node4 -->
<g id="node4" class="node">
<title>Node4</title>
<g id="a_node4"><a xlink:title=" ">
<polygon fill="white" stroke="#bfbfbf" points="387,-112.5 387,-131.5 452,-131.5 452,-112.5 387,-112.5"/>
<text text-anchor="middle" x="419.5" y="-119.5" font-family="Helvetica,sans-Serif" font-size="10.00">functional</text>
</a>
</g>
</g>
<!-- Node2&#45;&gt;Node4 -->
<g id="edge3" class="edge">
<title>Node2&#45;&gt;Node4</title>
<path fill="none" stroke="midnightblue" d="M384.67,-224.3C389.77,-215.42 397.5,-201.12 402.5,-188 408.28,-172.83 412.8,-154.93 415.73,-141.77"/>
<polygon fill="midnightblue" stroke="midnightblue" points="419.23,-142.1 417.87,-131.6 412.38,-140.66 419.23,-142.1"/>
</g>
<!-- Node5 -->
<g id="node5" class="node">
<title>Node5</title>
<g id="a_node5"><a xlink:title=" ">
<polygon fill="white" stroke="#bfbfbf" points="470.5,-112.5 470.5,-131.5 514.5,-131.5 514.5,-112.5 470.5,-112.5"/>
<text text-anchor="middle" x="492.5" y="-119.5" font-family="Helvetica,sans-Serif" font-size="10.00">string</text>
</a>
</g>
</g>
<!-- Node2&#45;&gt;Node5 -->
<g id="edge4" class="edge">
<title>Node2&#45;&gt;Node5</title>
<path fill="none" stroke="midnightblue" d="M388.37,-224.37C407.35,-205.89 452.14,-162.29 476.33,-138.74"/>
<polygon fill="midnightblue" stroke="midnightblue" points="478.95,-141.07 483.67,-131.59 474.07,-136.06 478.95,-141.07"/>
</g>
<!-- Node6 -->
<g id="node6" class="node">
<title>Node6</title>
<g id="a_node6"><a xlink:href="event_8h.html" target="_top" xlink:title=" ">
<polygon fill="white" stroke="black" points="281.5,-168.5 281.5,-187.5 393.5,-187.5 393.5,-168.5 281.5,-168.5"/>
<text text-anchor="middle" x="337.5" y="-175.5" font-family="Helvetica,sans-Serif" font-size="10.00">gauri/event/event.h</text>
</a>
</g>
</g>
<!-- Node2&#45;&gt;Node6 -->
<g id="edge5" class="edge">
<title>Node2&#45;&gt;Node6</title>
<path fill="none" stroke="midnightblue" d="M372.56,-224.08C366.57,-216.38 357.75,-205.03 350.45,-195.65"/>
<polygon fill="midnightblue" stroke="midnightblue" points="353.21,-193.5 344.31,-187.75 347.68,-197.79 353.21,-193.5"/>
</g>
<!-- Node6&#45;&gt;Node3 -->
<g id="edge6" class="edge">
<title>Node6&#45;&gt;Node3</title>
<path fill="none" stroke="midnightblue" d="M281.2,-170.74C250.07,-164.91 212.19,-153.67 184.5,-132 169.09,-119.94 158.71,-99.77 152.75,-85.09"/>
<polygon fill="midnightblue" stroke="midnightblue" points="155.96,-83.7 149.17,-75.56 149.41,-86.15 155.96,-83.7"/>
</g>
<!-- Node6&#45;&gt;Node4 -->
<g id="edge7" class="edge">
<title>Node6&#45;&gt;Node4</title>
<path fill="none" stroke="midnightblue" d="M350.67,-168.32C363.35,-159.98 382.73,-147.21 397.71,-137.35"/>
<polygon fill="midnightblue" stroke="midnightblue" points="399.93,-140.08 406.36,-131.65 396.08,-134.23 399.93,-140.08"/>
</g>
<!-- Node6&#45;&gt;Node5 -->
<g id="edge9" class="edge">
<title>Node6&#45;&gt;Node5</title>
<path fill="none" stroke="midnightblue" d="M362.06,-168.44C388.63,-159.19 431.11,-144.39 460.33,-134.21"/>
<polygon fill="midnightblue" stroke="midnightblue" points="461.78,-137.41 470.07,-130.82 459.47,-130.8 461.78,-137.41"/>
</g>
<!-- Node7 -->
<g id="node7" class="node">
<title>Node7</title>
<g id="a_node7"><a xlink:title=" ">
<polygon fill="white" stroke="#bfbfbf" points="312.5,-112.5 312.5,-131.5 368.5,-131.5 368.5,-112.5 312.5,-112.5"/>
<text text-anchor="middle" x="340.5" y="-119.5" font-family="Helvetica,sans-Serif" font-size="10.00">sstream</text>
</a>
</g>
</g>
<!-- Node6&#45;&gt;Node7 -->
<g id="edge8" class="edge">
<title>Node6&#45;&gt;Node7</title>
<path fill="none" stroke="midnightblue" d="M338,-168.08C338.39,-161.01 338.95,-150.86 339.45,-141.99"/>
<polygon fill="midnightblue" stroke="midnightblue" points="342.95,-141.93 340.01,-131.75 335.96,-141.54 342.95,-141.93"/>
</g>
<!-- Node8 -->
<g id="node8" class="node">
<title>Node8</title>
<g id="a_node8"><a xlink:href="base_8h.html" target="_top" xlink:title=" ">
<polygon fill="white" stroke="black" points="193,-112.5 193,-131.5 294,-131.5 294,-112.5 193,-112.5"/>
<text text-anchor="middle" x="243.5" y="-119.5" font-family="Helvetica,sans-Serif" font-size="10.00">gauri/core/base.h</text>
</a>
</g>
</g>
<!-- Node6&#45;&gt;Node8 -->
<g id="edge10" class="edge">
<title>Node6&#45;&gt;Node8</title>
<path fill="none" stroke="midnightblue" d="M322.4,-168.32C307.6,-159.82 284.81,-146.73 267.52,-136.8"/>
<polygon fill="midnightblue" stroke="midnightblue" points="268.98,-133.6 258.57,-131.65 265.49,-139.67 268.98,-133.6"/>
</g>
<!-- Node8&#45;&gt;Node3 -->
<g id="edge11" class="edge">
<title>Node8&#45;&gt;Node3</title>
<path fill="none" stroke="midnightblue" d="M227.92,-112.32C212.5,-103.74 188.69,-90.49 170.79,-80.52"/>
<polygon fill="midnightblue" stroke="midnightblue" points="172.49,-77.46 162.05,-75.65 169.08,-83.58 172.49,-77.46"/>
</g>
<!-- Node9 -->
<g id="node9" class="node">
<title>Node9</title>
<g id="a_node9"><a xlink:title=" ">
<polygon fill="white" stroke="#bfbfbf" points="296.5,-0.5 296.5,-19.5 354.5,-19.5 354.5,-0.5 296.5,-0.5"/>
<text text-anchor="middle" x="325.5" y="-7.5" font-family="Helvetica,sans-Serif" font-size="10.00">memory</text>
</a>
</g>
</g>
<!-- Node8&#45;&gt;Node9 -->
<g id="edge12" class="edge">
<title>Node8&#45;&gt;Node9</title>
<path fill="none" stroke="midnightblue" d="M261.53,-112.39C275.73,-104.73 294.98,-92.22 306.5,-76 316.18,-62.37 320.97,-43.83 323.31,-30.04"/>
<polygon fill="midnightblue" stroke="midnightblue" points="326.83,-30.17 324.76,-19.78 319.9,-29.19 326.83,-30.17"/>
</g>
<!-- Node10 -->
<g id="node10" class="node">
<title>Node10</title>
<g id="a_node10"><a xlink:href="logger_8h.html" target="_top" xlink:title=" ">
<polygon fill="white" stroke="black" points="190,-56.5 190,-75.5 297,-75.5 297,-56.5 190,-56.5"/>
<text text-anchor="middle" x="243.5" y="-63.5" font-family="Helvetica,sans-Serif" font-size="10.00">gauri/core/logger.h</text>
</a>
</g>
</g>
<!-- Node8&#45;&gt;Node10 -->
<g id="edge13" class="edge">
<title>Node8&#45;&gt;Node10</title>
<path fill="none" stroke="midnightblue" d="M243.5,-112.08C243.5,-105.01 243.5,-94.86 243.5,-85.99"/>
<polygon fill="midnightblue" stroke="midnightblue" points="247,-85.75 243.5,-75.75 240,-85.75 247,-85.75"/>
</g>
<!-- Node10&#45;&gt;Node9 -->
<g id="edge15" class="edge">
<title>Node10&#45;&gt;Node9</title>
<path fill="none" stroke="midnightblue" d="M256.67,-56.32C269.35,-47.98 288.73,-35.21 303.71,-25.35"/>
<polygon fill="midnightblue" stroke="midnightblue" points="305.93,-28.08 312.36,-19.65 302.08,-22.23 305.93,-28.08"/>
</g>
<!-- Node11 -->
<g id="node11" class="node">
<title>Node11</title>
<g id="a_node11"><a xlink:title=" ">
<polygon fill="white" stroke="#bfbfbf" points="228.5,-0.5 228.5,-19.5 278.5,-19.5 278.5,-0.5 228.5,-0.5"/>
<text text-anchor="middle" x="253.5" y="-7.5" font-family="Helvetica,sans-Serif" font-size="10.00">format</text>
</a>
</g>
</g>
<!-- Node10&#45;&gt;Node11 -->
<g id="edge14" class="edge">
<title>Node10&#45;&gt;Node11</title>
<path fill="none" stroke="midnightblue" d="M245.15,-56.08C246.48,-48.93 248.38,-38.64 250.04,-29.69"/>
<polygon fill="midnightblue" stroke="midnightblue" points="253.5,-30.22 251.88,-19.75 246.62,-28.95 253.5,-30.22"/>
</g>
<!-- Node12 -->
<g id="node12" class="node">
<title>Node12</title>
<g id="a_node12"><a xlink:title=" ">
<polygon fill="white" stroke="#bfbfbf" points="0,-0.5 0,-19.5 99,-19.5 99,-0.5 0,-0.5"/>
<text text-anchor="middle" x="49.5" y="-7.5" font-family="Helvetica,sans-Serif" font-size="10.00">spdlog/fmt/ostr.h</text>
</a>
</g>
</g>
<!-- Node10&#45;&gt;Node12 -->
<g id="edge16" class="edge">
<title>Node10&#45;&gt;Node12</title>
<path fill="none" stroke="midnightblue" d="M212.76,-56.44C179.56,-47.2 126.51,-32.44 89.94,-22.26"/>
<polygon fill="midnightblue" stroke="midnightblue" points="90.67,-18.83 80.1,-19.52 88.79,-25.57 90.67,-18.83"/>
</g>
<!-- Node13 -->
<g id="node13" class="node">
<title>Node13</title>
<g id="a_node13"><a xlink:title=" ">
<polygon fill="white" stroke="#bfbfbf" points="117,-0.5 117,-19.5 210,-19.5 210,-0.5 117,-0.5"/>
<text text-anchor="middle" x="163.5" y="-7.5" font-family="Helvetica,sans-Serif" font-size="10.00">spdlog/spdlog.h</text>
</a>
</g>
</g>
<!-- Node10&#45;&gt;Node13 -->
<g id="edge17" class="edge">
<title>Node10&#45;&gt;Node13</title>
<path fill="none" stroke="midnightblue" d="M230.65,-56.32C218.28,-47.98 199.37,-35.21 184.76,-25.35"/>
<polygon fill="midnightblue" stroke="midnightblue" points="186.57,-22.35 176.32,-19.65 182.65,-28.15 186.57,-22.35"/>
</g>
</g>
</svg>
