<?xml version="1.0" encoding="UTF-8" standalone="no"?>
<!DOCTYPE svg PUBLIC "-//W3C//DTD SVG 1.1//EN"
 "http://www.w3.org/Graphics/SVG/1.1/DTD/svg11.dtd">
<!-- Generated by graphviz version 2.43.0 (0)
 -->
<!-- Title: /home/runner/work/gauri/gauri/gauri/include/platform/windows/windows_input.h Pages: 1 -->
<svg width="536pt" height="252pt"
 viewBox="0.00 0.00 535.50 252.00" xmlns="http://www.w3.org/2000/svg" xmlns:xlink="http://www.w3.org/1999/xlink">
<g id="graph0" class="graph" transform="scale(1 1) rotate(0) translate(4 248)">
<title>/home/runner/work/gauri/gauri/gauri/include/platform/windows/windows_input.h</title>
<polygon fill="white" stroke="transparent" points="-4,4 -4,-248 531.5,-248 531.5,4 -4,4"/>
<!-- Node1 -->
<g id="node1" class="node">
<title>Node1</title>
<g id="a_node1"><a xlink:title=" ">
<polygon fill="#bfbfbf" stroke="black" points="0,-224.5 0,-243.5 406,-243.5 406,-224.5 0,-224.5"/>
<text text-anchor="middle" x="203" y="-231.5" font-family="Helvetica,sans-Serif" font-size="10.00">/home/runner/work/gauri/gauri/gauri/include/platform/windows/windows_input.h</text>
</a>
</g>
</g>
<!-- Node2 -->
<g id="node2" class="node">
<title>Node2</title>
<g id="a_node2"><a xlink:href="input_8h.html" target="_top" xlink:title=" ">
<polygon fill="white" stroke="black" points="164,-168.5 164,-187.5 242,-187.5 242,-168.5 164,-168.5"/>
<text text-anchor="middle" x="203" y="-175.5" font-family="Helvetica,sans-Serif" font-size="10.00">gauri/input.h</text>
</a>
</g>
</g>
<!-- Node1&#45;&gt;Node2 -->
<g id="edge1" class="edge">
<title>Node1&#45;&gt;Node2</title>
<path fill="none" stroke="midnightblue" d="M203,-224.08C203,-217.01 203,-206.86 203,-197.99"/>
<polygon fill="midnightblue" stroke="midnightblue" points="206.5,-197.75 203,-187.75 199.5,-197.75 206.5,-197.75"/>
</g>
<!-- Node3 -->
<g id="node3" class="node">
<title>Node3</title>
<g id="a_node3"><a xlink:href="core_8h.html" target="_top" xlink:title=" ">
<polygon fill="white" stroke="black" points="166,-112.5 166,-131.5 240,-131.5 240,-112.5 166,-112.5"/>
<text text-anchor="middle" x="203" y="-119.5" font-family="Helvetica,sans-Serif" font-size="10.00">gauri/core.h</text>
</a>
</g>
</g>
<!-- Node2&#45;&gt;Node3 -->
<g id="edge2" class="edge">
<title>Node2&#45;&gt;Node3</title>
<path fill="none" stroke="midnightblue" d="M203,-168.08C203,-161.01 203,-150.86 203,-141.99"/>
<polygon fill="midnightblue" stroke="midnightblue" points="206.5,-141.75 203,-131.75 199.5,-141.75 206.5,-141.75"/>
</g>
<!-- Node4 -->
<g id="node4" class="node">
<title>Node4</title>
<g id="a_node4"><a xlink:title=" ">
<polygon fill="white" stroke="#bfbfbf" points="125,-56.5 125,-75.5 175,-75.5 175,-56.5 125,-56.5"/>
<text text-anchor="middle" x="150" y="-63.5" font-family="Helvetica,sans-Serif" font-size="10.00">cstdint</text>
</a>
</g>
</g>
<!-- Node3&#45;&gt;Node4 -->
<g id="edge3" class="edge">
<title>Node3&#45;&gt;Node4</title>
<path fill="none" stroke="midnightblue" d="M194.25,-112.08C186.53,-104.22 175.1,-92.57 165.78,-83.08"/>
<polygon fill="midnightblue" stroke="midnightblue" points="168.09,-80.44 158.59,-75.75 163.1,-85.34 168.09,-80.44"/>
</g>
<!-- Node5 -->
<g id="node5" class="node">
<title>Node5</title>
<g id="a_node5"><a xlink:title=" ">
<polygon fill="white" stroke="#bfbfbf" points="173,-0.5 173,-19.5 231,-19.5 231,-0.5 173,-0.5"/>
<text text-anchor="middle" x="202" y="-7.5" font-family="Helvetica,sans-Serif" font-size="10.00">memory</text>
</a>
</g>
</g>
<!-- Node3&#45;&gt;Node5 -->
<g id="edge4" class="edge">
<title>Node3&#45;&gt;Node5</title>
<path fill="none" stroke="midnightblue" d="M202.92,-112.37C202.76,-94.62 202.39,-53.67 202.17,-29.6"/>
<polygon fill="midnightblue" stroke="midnightblue" points="205.67,-29.56 202.08,-19.59 198.67,-29.62 205.67,-29.56"/>
</g>
<!-- Node6 -->
<g id="node6" class="node">
<title>Node6</title>
<g id="a_node6"><a xlink:href="logger_8h.html" target="_top" xlink:title=" ">
<polygon fill="white" stroke="black" points="232.5,-56.5 232.5,-75.5 315.5,-75.5 315.5,-56.5 232.5,-56.5"/>
<text text-anchor="middle" x="274" y="-63.5" font-family="Helvetica,sans-Serif" font-size="10.00">gauri/logger.h</text>
</a>
</g>
</g>
<!-- Node3&#45;&gt;Node6 -->
<g id="edge5" class="edge">
<title>Node3&#45;&gt;Node6</title>
<path fill="none" stroke="midnightblue" d="M214.41,-112.32C225.11,-104.18 241.34,-91.84 254.16,-82.09"/>
<polygon fill="midnightblue" stroke="midnightblue" points="256.54,-84.67 262.39,-75.83 252.31,-79.1 256.54,-84.67"/>
</g>
<!-- Node6&#45;&gt;Node5 -->
<g id="edge7" class="edge">
<title>Node6&#45;&gt;Node5</title>
<path fill="none" stroke="midnightblue" d="M262.43,-56.32C251.58,-48.18 235.12,-35.84 222.12,-26.09"/>
<polygon fill="midnightblue" stroke="midnightblue" points="223.88,-23.03 213.78,-19.83 219.68,-28.63 223.88,-23.03"/>
</g>
<!-- Node7 -->
<g id="node7" class="node">
<title>Node7</title>
<g id="a_node7"><a xlink:title=" ">
<polygon fill="white" stroke="#bfbfbf" points="249,-0.5 249,-19.5 299,-19.5 299,-0.5 249,-0.5"/>
<text text-anchor="middle" x="274" y="-7.5" font-family="Helvetica,sans-Serif" font-size="10.00">format</text>
</a>
</g>
</g>
<!-- Node6&#45;&gt;Node7 -->
<g id="edge6" class="edge">
<title>Node6&#45;&gt;Node7</title>
<path fill="none" stroke="midnightblue" d="M274,-56.08C274,-49.01 274,-38.86 274,-29.99"/>
<polygon fill="midnightblue" stroke="midnightblue" points="277.5,-29.75 274,-19.75 270.5,-29.75 277.5,-29.75"/>
</g>
<!-- Node8 -->
<g id="node8" class="node">
<title>Node8</title>
<g id="a_node8"><a xlink:title=" ">
<polygon fill="white" stroke="#bfbfbf" points="317.5,-0.5 317.5,-19.5 416.5,-19.5 416.5,-0.5 317.5,-0.5"/>
<text text-anchor="middle" x="367" y="-7.5" font-family="Helvetica,sans-Serif" font-size="10.00">spdlog/fmt/ostr.h</text>
</a>
</g>
</g>
<!-- Node6&#45;&gt;Node8 -->
<g id="edge8" class="edge">
<title>Node6&#45;&gt;Node8</title>
<path fill="none" stroke="midnightblue" d="M288.94,-56.32C303.59,-47.82 326.13,-34.73 343.24,-24.8"/>
<polygon fill="midnightblue" stroke="midnightblue" points="345.2,-27.7 352.1,-19.65 341.69,-21.65 345.2,-27.7"/>
</g>
<!-- Node9 -->
<g id="node9" class="node">
<title>Node9</title>
<g id="a_node9"><a xlink:title=" ">
<polygon fill="white" stroke="#bfbfbf" points="434.5,-0.5 434.5,-19.5 527.5,-19.5 527.5,-0.5 434.5,-0.5"/>
<text text-anchor="middle" x="481" y="-7.5" font-family="Helvetica,sans-Serif" font-size="10.00">spdlog/spdlog.h</text>
</a>
</g>
</g>
<!-- Node6&#45;&gt;Node9 -->
<g id="edge9" class="edge">
<title>Node6&#45;&gt;Node9</title>
<path fill="none" stroke="midnightblue" d="M306.8,-56.44C342.38,-47.16 399.31,-32.31 438.35,-22.13"/>
<polygon fill="midnightblue" stroke="midnightblue" points="439.56,-25.43 448.35,-19.52 437.79,-18.65 439.56,-25.43"/>
</g>
</g>
</svg>
