<?xml version="1.0" encoding="UTF-8" standalone="no"?>
<!DOCTYPE svg PUBLIC "-//W3C//DTD SVG 1.1//EN"
 "http://www.w3.org/Graphics/SVG/1.1/DTD/svg11.dtd">
<!-- Generated by graphviz version 2.43.0 (0)
 -->
<!-- Title: /home/runner/work/gauri/gauri/gauri/include/gauri/core/window.h Pages: 1 -->
<svg width="551pt" height="252pt"
 viewBox="0.00 0.00 551.00 252.00" xmlns="http://www.w3.org/2000/svg" xmlns:xlink="http://www.w3.org/1999/xlink">
<g id="graph0" class="graph" transform="scale(1 1) rotate(0) translate(4 248)">
<title>/home/runner/work/gauri/gauri/gauri/include/gauri/core/window.h</title>
<polygon fill="white" stroke="transparent" points="-4,4 -4,-248 547,-248 547,4 -4,4"/>
<!-- Node1 -->
<g id="node1" class="node">
<title>Node1</title>
<g id="a_node1"><a xlink:title=" ">
<polygon fill="#bfbfbf" stroke="black" points="212,-224.5 212,-243.5 543,-243.5 543,-224.5 212,-224.5"/>
<text text-anchor="middle" x="377.5" y="-231.5" font-family="Helvetica,sans-Serif" font-size="10.00">/home/runner/work/gauri/gauri/gauri/include/gauri/core/window.h</text>
</a>
</g>
</g>
<!-- Node2 -->
<g id="node2" class="node">
<title>Node2</title>
<g id="a_node2"><a xlink:title=" ">
<polygon fill="white" stroke="#bfbfbf" points="121.5,-56.5 121.5,-75.5 171.5,-75.5 171.5,-56.5 121.5,-56.5"/>
<text text-anchor="middle" x="146.5" y="-63.5" font-family="Helvetica,sans-Serif" font-size="10.00">cstdint</text>
</a>
</g>
</g>
<!-- Node1&#45;&gt;Node2 -->
<g id="edge1" class="edge">
<title>Node1&#45;&gt;Node2</title>
<path fill="none" stroke="midnightblue" d="M333.82,-224.44C284.74,-212.47 206.35,-185.84 163.5,-132 152.95,-118.75 148.9,-99.62 147.37,-85.55"/>
<polygon fill="midnightblue" stroke="midnightblue" points="150.86,-85.25 146.61,-75.55 143.88,-85.79 150.86,-85.25"/>
</g>
<!-- Node3 -->
<g id="node3" class="node">
<title>Node3</title>
<g id="a_node3"><a xlink:title=" ">
<polygon fill="white" stroke="#bfbfbf" points="385,-112.5 385,-131.5 450,-131.5 450,-112.5 385,-112.5"/>
<text text-anchor="middle" x="417.5" y="-119.5" font-family="Helvetica,sans-Serif" font-size="10.00">functional</text>
</a>
</g>
</g>
<!-- Node1&#45;&gt;Node3 -->
<g id="edge2" class="edge">
<title>Node1&#45;&gt;Node3</title>
<path fill="none" stroke="midnightblue" d="M382.67,-224.3C387.77,-215.42 395.5,-201.12 400.5,-188 406.28,-172.83 410.8,-154.93 413.73,-141.77"/>
<polygon fill="midnightblue" stroke="midnightblue" points="417.23,-142.1 415.87,-131.6 410.38,-140.66 417.23,-142.1"/>
</g>
<!-- Node4 -->
<g id="node4" class="node">
<title>Node4</title>
<g id="a_node4"><a xlink:title=" ">
<polygon fill="white" stroke="#bfbfbf" points="468.5,-112.5 468.5,-131.5 512.5,-131.5 512.5,-112.5 468.5,-112.5"/>
<text text-anchor="middle" x="490.5" y="-119.5" font-family="Helvetica,sans-Serif" font-size="10.00">string</text>
</a>
</g>
</g>
<!-- Node1&#45;&gt;Node4 -->
<g id="edge3" class="edge">
<title>Node1&#45;&gt;Node4</title>
<path fill="none" stroke="midnightblue" d="M386.37,-224.37C405.35,-205.89 450.14,-162.29 474.33,-138.74"/>
<polygon fill="midnightblue" stroke="midnightblue" points="476.95,-141.07 481.67,-131.59 472.07,-136.06 476.95,-141.07"/>
</g>
<!-- Node5 -->
<g id="node5" class="node">
<title>Node5</title>
<g id="a_node5"><a xlink:href="event_8h.html" target="_top" xlink:title=" ">
<polygon fill="white" stroke="black" points="279.5,-168.5 279.5,-187.5 391.5,-187.5 391.5,-168.5 279.5,-168.5"/>
<text text-anchor="middle" x="335.5" y="-175.5" font-family="Helvetica,sans-Serif" font-size="10.00">gauri/event/event.h</text>
</a>
</g>
</g>
<!-- Node1&#45;&gt;Node5 -->
<g id="edge4" class="edge">
<title>Node1&#45;&gt;Node5</title>
<path fill="none" stroke="midnightblue" d="M370.56,-224.08C364.57,-216.38 355.75,-205.03 348.45,-195.65"/>
<polygon fill="midnightblue" stroke="midnightblue" points="351.21,-193.5 342.31,-187.75 345.68,-197.79 351.21,-193.5"/>
</g>
<!-- Node5&#45;&gt;Node2 -->
<g id="edge5" class="edge">
<title>Node5&#45;&gt;Node2</title>
<path fill="none" stroke="midnightblue" d="M279.3,-170.17C249.01,-164.17 212.44,-152.95 185.5,-132 169.95,-119.91 159.25,-99.74 153.05,-85.07"/>
<polygon fill="midnightblue" stroke="midnightblue" points="156.23,-83.59 149.32,-75.55 149.71,-86.14 156.23,-83.59"/>
</g>
<!-- Node5&#45;&gt;Node3 -->
<g id="edge6" class="edge">
<title>Node5&#45;&gt;Node3</title>
<path fill="none" stroke="midnightblue" d="M348.67,-168.32C361.35,-159.98 380.73,-147.21 395.71,-137.35"/>
<polygon fill="midnightblue" stroke="midnightblue" points="397.93,-140.08 404.36,-131.65 394.08,-134.23 397.93,-140.08"/>
</g>
<!-- Node5&#45;&gt;Node4 -->
<g id="edge8" class="edge">
<title>Node5&#45;&gt;Node4</title>
<path fill="none" stroke="midnightblue" d="M360.06,-168.44C386.63,-159.19 429.11,-144.39 458.33,-134.21"/>
<polygon fill="midnightblue" stroke="midnightblue" points="459.78,-137.41 468.07,-130.82 457.47,-130.8 459.78,-137.41"/>
</g>
<!-- Node6 -->
<g id="node6" class="node">
<title>Node6</title>
<g id="a_node6"><a xlink:title=" ">
<polygon fill="white" stroke="#bfbfbf" points="310.5,-112.5 310.5,-131.5 366.5,-131.5 366.5,-112.5 310.5,-112.5"/>
<text text-anchor="middle" x="338.5" y="-119.5" font-family="Helvetica,sans-Serif" font-size="10.00">sstream</text>
</a>
</g>
</g>
<!-- Node5&#45;&gt;Node6 -->
<g id="edge7" class="edge">
<title>Node5&#45;&gt;Node6</title>
<path fill="none" stroke="midnightblue" d="M336,-168.08C336.39,-161.01 336.95,-150.86 337.45,-141.99"/>
<polygon fill="midnightblue" stroke="midnightblue" points="340.95,-141.93 338.01,-131.75 333.96,-141.54 340.95,-141.93"/>
</g>
<!-- Node7 -->
<g id="node7" class="node">
<title>Node7</title>
<g id="a_node7"><a xlink:href="core_8h.html" target="_top" xlink:title=" ">
<polygon fill="white" stroke="black" points="194.5,-112.5 194.5,-131.5 292.5,-131.5 292.5,-112.5 194.5,-112.5"/>
<text text-anchor="middle" x="243.5" y="-119.5" font-family="Helvetica,sans-Serif" font-size="10.00">gauri/core/core.h</text>
</a>
</g>
</g>
<!-- Node5&#45;&gt;Node7 -->
<g id="edge9" class="edge">
<title>Node5&#45;&gt;Node7</title>
<path fill="none" stroke="midnightblue" d="M320.72,-168.32C306.23,-159.82 283.93,-146.73 267.01,-136.8"/>
<polygon fill="midnightblue" stroke="midnightblue" points="268.64,-133.7 258.24,-131.65 265.1,-139.74 268.64,-133.7"/>
</g>
<!-- Node7&#45;&gt;Node2 -->
<g id="edge10" class="edge">
<title>Node7&#45;&gt;Node2</title>
<path fill="none" stroke="midnightblue" d="M227.92,-112.32C212.5,-103.74 188.69,-90.49 170.79,-80.52"/>
<polygon fill="midnightblue" stroke="midnightblue" points="172.49,-77.46 162.05,-75.65 169.08,-83.58 172.49,-77.46"/>
</g>
<!-- Node8 -->
<g id="node8" class="node">
<title>Node8</title>
<g id="a_node8"><a xlink:title=" ">
<polygon fill="white" stroke="#bfbfbf" points="296.5,-0.5 296.5,-19.5 354.5,-19.5 354.5,-0.5 296.5,-0.5"/>
<text text-anchor="middle" x="325.5" y="-7.5" font-family="Helvetica,sans-Serif" font-size="10.00">memory</text>
</a>
</g>
</g>
<!-- Node7&#45;&gt;Node8 -->
<g id="edge11" class="edge">
<title>Node7&#45;&gt;Node8</title>
<path fill="none" stroke="midnightblue" d="M261.53,-112.39C275.73,-104.73 294.98,-92.22 306.5,-76 316.18,-62.37 320.97,-43.83 323.31,-30.04"/>
<polygon fill="midnightblue" stroke="midnightblue" points="326.83,-30.17 324.76,-19.78 319.9,-29.19 326.83,-30.17"/>
</g>
<!-- Node9 -->
<g id="node9" class="node">
<title>Node9</title>
<g id="a_node9"><a xlink:href="logger_8h.html" target="_top" xlink:title=" ">
<polygon fill="white" stroke="black" points="190,-56.5 190,-75.5 297,-75.5 297,-56.5 190,-56.5"/>
<text text-anchor="middle" x="243.5" y="-63.5" font-family="Helvetica,sans-Serif" font-size="10.00">gauri/core/logger.h</text>
</a>
</g>
</g>
<!-- Node7&#45;&gt;Node9 -->
<g id="edge12" class="edge">
<title>Node7&#45;&gt;Node9</title>
<path fill="none" stroke="midnightblue" d="M243.5,-112.08C243.5,-105.01 243.5,-94.86 243.5,-85.99"/>
<polygon fill="midnightblue" stroke="midnightblue" points="247,-85.75 243.5,-75.75 240,-85.75 247,-85.75"/>
</g>
<!-- Node9&#45;&gt;Node8 -->
<g id="edge14" class="edge">
<title>Node9&#45;&gt;Node8</title>
<path fill="none" stroke="midnightblue" d="M256.67,-56.32C269.35,-47.98 288.73,-35.21 303.71,-25.35"/>
<polygon fill="midnightblue" stroke="midnightblue" points="305.93,-28.08 312.36,-19.65 302.08,-22.23 305.93,-28.08"/>
</g>
<!-- Node10 -->
<g id="node10" class="node">
<title>Node10</title>
<g id="a_node10"><a xlink:title=" ">
<polygon fill="white" stroke="#bfbfbf" points="228.5,-0.5 228.5,-19.5 278.5,-19.5 278.5,-0.5 228.5,-0.5"/>
<text text-anchor="middle" x="253.5" y="-7.5" font-family="Helvetica,sans-Serif" font-size="10.00">format</text>
</a>
</g>
</g>
<!-- Node9&#45;&gt;Node10 -->
<g id="edge13" class="edge">
<title>Node9&#45;&gt;Node10</title>
<path fill="none" stroke="midnightblue" d="M245.15,-56.08C246.48,-48.93 248.38,-38.64 250.04,-29.69"/>
<polygon fill="midnightblue" stroke="midnightblue" points="253.5,-30.22 251.88,-19.75 246.62,-28.95 253.5,-30.22"/>
</g>
<!-- Node11 -->
<g id="node11" class="node">
<title>Node11</title>
<g id="a_node11"><a xlink:title=" ">
<polygon fill="white" stroke="#bfbfbf" points="0,-0.5 0,-19.5 99,-19.5 99,-0.5 0,-0.5"/>
<text text-anchor="middle" x="49.5" y="-7.5" font-family="Helvetica,sans-Serif" font-size="10.00">spdlog/fmt/ostr.h</text>
</a>
</g>
</g>
<!-- Node9&#45;&gt;Node11 -->
<g id="edge15" class="edge">
<title>Node9&#45;&gt;Node11</title>
<path fill="none" stroke="midnightblue" d="M212.76,-56.44C179.56,-47.2 126.51,-32.44 89.94,-22.26"/>
<polygon fill="midnightblue" stroke="midnightblue" points="90.67,-18.83 80.1,-19.52 88.79,-25.57 90.67,-18.83"/>
</g>
<!-- Node12 -->
<g id="node12" class="node">
<title>Node12</title>
<g id="a_node12"><a xlink:title=" ">
<polygon fill="white" stroke="#bfbfbf" points="117,-0.5 117,-19.5 210,-19.5 210,-0.5 117,-0.5"/>
<text text-anchor="middle" x="163.5" y="-7.5" font-family="Helvetica,sans-Serif" font-size="10.00">spdlog/spdlog.h</text>
</a>
</g>
</g>
<!-- Node9&#45;&gt;Node12 -->
<g id="edge16" class="edge">
<title>Node9&#45;&gt;Node12</title>
<path fill="none" stroke="midnightblue" d="M230.65,-56.32C218.28,-47.98 199.37,-35.21 184.76,-25.35"/>
<polygon fill="midnightblue" stroke="midnightblue" points="186.57,-22.35 176.32,-19.65 182.65,-28.15 186.57,-22.35"/>
</g>
</g>
</svg>
